<svg xmlns="http://www.w3.org/2000/svg" viewBox="0 0 1024 1024"><path fill="#00e5cc" d="M170.335 64.889c.269 1.706.079 3.355-.423 3.665-1.208.747-1.176 4.446.038 4.446.523 0 1.113 2.588 1.311 5.75.214 3.41.438 1.399.55-4.941.119-6.756-.207-10.936-.888-11.356-.715-.443-.913.374-.588 2.436M148.218 66.5c.01 1.1.362 3.35.782 5 .686 2.695.765 2.746.782.5.01-1.375-.342-3.625-.782-5-.627-1.959-.797-2.067-.782-.5M414 67c0 .55-1.098 1-2.441 1s-2.719.45-3.059 1-1.69 1-3 1-2.66.45-3 1-1.69 1-3 1-2.66.45-3 1-1.491 1-2.559 1-1.941.45-1.941 1-1.35 1-3 1-3 .45-3 1-1.35 1-3 1-3 .398-3 .883c0 .486-.926 1.126-2.057 1.422-2.052.536-2.056.679-1.5 50.992.306 27.75.557 51.11.557 51.912s.647 1.458 1.437 1.458c1.2 0 1.451-3.358 1.521-20.334.058-14.156-.251-20.333-1.016-20.333-1.738 0-.668-7.292 1.343-9.147.981-.906 2.669-1.416 3.75-1.134 1.884.493 1.965 1.496 1.965 24.398 0 22.766.089 23.883 1.893 23.883 2.807 0 3.31-2.182 3.864-16.735.495-13.036.954-14.702 4.246-15.433.824-.183 2.287-1.191 3.252-2.24 1.251-1.361 3.043-1.889 6.25-1.841 2.472.038 4.495-.341 4.495-.841 0-.501 1.35-.91 3-.91s3-.398 3-.883c0-.486.9-1.119 2-1.407 1.955-.511 2-1.364 2-38.116V66h-3c-1.65 0-3 .45-3 1m-31.429 16.724c-6.625 1.689-4.779 12.012 1.929 10.789 1.1-.2 2.265-.398 2.589-.439 1.004-.126 2.911-5.044 2.911-7.504 0-2.031-2.725-3.906-5-3.44-.275.056-1.368.323-2.429.594M820 85c0 .55-.9 1-2 1q-2 0-2 2c0 1.556.667 2 3 2 1.65 0 3 .398 3 .883 0 .486.788 1.162 1.75 1.501.962.34 2.313.879 3 1.2.901.42 1.25-.673 1.25-3.917 0-2.665.51-4.706 1.25-5.005.688-.277-1.112-.54-4-.583S820 84.45 820 85m112.193 3.25c.294 4.077.429 4.236 3.307 3.905 1.65-.189 3.15-.752 3.333-1.25s1.228-.905 2.322-.905c1.846 0 4.845-2.122 4.845-3.429 0-.314-1.013-.616-2.25-.671-2.159-.095-2.148-.132.25-.9 1.774-.568.377-.83-4.807-.9l-7.308-.1zM801.25 87.162c1.513.553 2.75 1.594 2.75 2.314 0 1.475 2.959 2.927 3.893 1.911.334-.364.045-.862-.643-1.107-.687-.246-1.25-1.309-1.25-2.363 0-1.563-.694-1.902-3.75-1.838-3.693.078-3.708.094-1 1.083m151.112.338c.778 2.028-.272 4.5-1.91 4.5-.734 0-1.574.388-1.867.862s.243.758 1.191.631c3.93-.528 6.224-1.834 6.224-3.542 0-2.648 3.735-3.5 6.072-1.386 1.06.96 1.928 2.254 1.928 2.877s.9 1.2 2 1.283 1.986-.159 1.968-.537c-.073-1.575-2.81-4.188-4.387-4.188-.935 0-1.421-.45-1.081-1 .384-.622-1.525-1-5.048-1-4.626 0-5.56.275-5.09 1.5m-784.052 5c.005 3.3.192 4.529.415 2.732s.218-4.497-.01-6c-.229-1.503-.411-.032-.405 3.268m626.194-3.493c.283.458-.218 1.564-1.114 2.46-2.662 2.662-1.041 2.656 2.059-.007 1.574-1.353 2.68-2.494 2.457-2.537s-1.196-.227-2.161-.412-1.523.039-1.241.496M564 91c0 .55-.927 1-2.059 1s-1.832.368-1.554.818c.279.45-.595 2.005-1.941 3.456L556 98.913v25.115c0 21.059.244 25.359 1.509 26.624.83.83 1.211 1.992.846 2.583-.395.639-.194.783.498.356.65-.402 1.425-.029 1.761.846.33.859 1.227 1.563 1.993 1.563s1.393.45 1.393 1c0 .556 2.667 1 6 1h6v-28h-3c-2.061 0-3 .492-3 1.571 0 .865-.732 2.304-1.628 3.199-1.503 1.504-1.845 1.384-4.485-1.571-1.573-1.759-3.54-3.199-4.373-3.199-2.664 0-1.697-4.733 1.729-8.466 3.548-3.867 8.757-4.993 8.757-1.894 0 1.791 2.745 4.278 4.778 4.328.991.025 1.216-3.065 1-13.718-.271-13.401-.335-13.758-2.528-14.07-3.061-.434-2.861-2.18.25-2.18 1.833 0 2.5-.533 2.5-2 0-1.778-.667-2-6-2-3.333 0-6 .444-6 1m274 29v26h84V94h-84zm94.162-16.5c-.304 6.765.025 7.456 2.409 5.071 1.811-1.81 1.811-2.571-.001-2.571-1.094 0-1.327-1.059-.99-4.5.242-2.475.088-4.5-.343-4.5-.43 0-.914 2.925-1.075 6.5M595.25 99.496c-.927 1.053-1.25 7.752-1.25 25.962V150h87.872l.094-25c.065-17.412-.237-25-.996-25-.598 0-.81-.45-.47-1 1.082-1.75-83.706-1.257-85.25.496m-33 1.754c.138.688-.312 1.138-1 1-2.35-.47-1.612 8.843.75 9.46 1.1.288 2 .921 2 1.407 0 1.245 2.141 1.097 5.293-.367 1.779-.826 2.694-2.033 2.699-3.559.005-1.283.452-2.034 1.008-1.691.558.345.993-.403.985-1.691-.013-1.858-.205-2.016-.985-.809-.753 1.165-.973.872-.985-1.309-.008-1.615-.44-2.546-1.015-2.191-.55.34-1 .141-1-.441S568.2 100 566 100q-4 0-3.75 1.25M792 104c0 3.63.238 4 2.571 4 1.415 0 3.251.679 4.081 1.509s1.923 1.254 2.429.941c.536-.331.919 3.628.919 9.491 0 6.039.4 10.059 1 10.059.55 0 1 .9 1 2s.45 2 1 2 1 .608 1 1.352c0 .743 1.276 2.687 2.836 4.319s3.47 4.399 4.244 6.149c.775 1.749 1.748 3.18 2.164 3.18s.756.47.756 1.045c0 3.122 4.95 5.954 10.205 5.839 2.912-.064 4.533-.317 3.602-.562-1.116-.295-1.798-1.683-2-4.072-.29-3.426-.498-3.622-3.807-3.583-4.625.055-7.268-1.851-3.883-2.8 2.355-.66 2.357-.669.133-.767-1.237-.055-2.25-.55-2.25-1.1s-.633-1-1.406-1c-.914 0-1.224-.7-.884-2 .307-1.175.031-2-.67-2-.77 0-1.077-1.329-.867-3.75.323-3.701.276-3.754-3.563-4.069-5.707-.467-6.61-1.893-6.61-10.435 0-8.406 2.129-11.746 7.489-11.746h2.86l-2.038-2.25c-1.121-1.237-2.536-3.15-3.144-4.25s-1.12-1.437-1.137-.75S807.1 102 806 102s-2 .45-2 1-1.8 1-4 1c-3.333 0-4-.333-4-2q0-2-2-2c-1.667 0-2 .667-2 4m158.269-2.25c-.367.963-1.51 2.65-2.538 3.75-1.84 1.968-1.824 2.005.95 2.33 5.657.662 7.319 3.564 7.319 12.777 0 9.128.379 8.644-7.754 9.909-2.635.409-4.004 1.067-3.596 1.727.923 1.493 1.305 5.715.509 5.608-.363-.048-1.672-.035-2.909.031-2.849.15-2.959 1.639-.137 1.852 4.236.319 3.245 3.809-1.47 5.175-2.489.721-2.675.929-.893 1.001 4.23.169 2.26 2.09-2.143 2.09-4.505 0-5.607.985-5.607 5.008 0 1.015-.788 2.051-1.75 2.303s1.138.509 4.667.573 6.144-.157 5.81-.49c-.333-.333.457-1.669 1.756-2.968s2.652-3.276 3.007-4.394 1.064-2.032 1.577-2.032.933-.927.933-2.059.45-1.781 1-1.441 1 .123 1-.483c0-.605.9-2.067 2-3.247 1.1-1.181 2-2.737 2-3.459 0-.721.45-1.311 1-1.311s1-.927 1-2.059.45-1.781 1-1.441c.64.396 1-2.853 1-9.031 0-10.721 1.427-13.365 7.25-13.436 2.536-.03 2.75-.344 2.75-4.033 0-3.333-.333-4-2-4-1.152 0-2 .667-2 1.571 0 4.529-4.636 5.544-8.076 1.768-1.333-1.464-1.792-2.294-1.019-1.846.945.549 1.171.438.69-.338-1.09-1.764-4.574-1.375-5.326.595m-123.598 1.665c-.299.779-.161 2.691.307 4.25.788 2.628.856 2.524.936-1.415.089-4.392-.303-5.285-1.243-2.835m48.461 2.263c-3.787.787-9.132 6.775-9.132 10.23 0 1.636-.45 3.252-1 3.592s-1 1.491-1 2.559.45 1.941 1 1.941 1 .69 1 1.533c0 2.469 6.648 8.467 9.383 8.467 1.348 0 2.654.563 2.903 1.25.362 1 .876 1 2.57 0 1.164-.687 3.068-1.25 4.23-1.25 4.883 0 13.095-13.219 10.084-16.23-.644-.644-1.17-2.232-1.17-3.529 0-1.318-.441-2.086-1-1.741-.55.34-1 .109-1-.512 0-1.46-2.528-3.988-3.988-3.988-.621 0-.852-.45-.512-1s-.196-1.005-1.191-1.011-3.384-.189-5.309-.407-4.566-.175-5.868.096m-248.977 6.657c-3.168 3.372-3.295 22.554-.155 23.375 1.1.288 2 .921 2 1.407 0 .485 2.025.883 4.5.883s4.5-.466 4.5-1.035c0-.714.601-.714 1.934 0 2.508 1.342 9.391 1.37 8.566.035-.34-.55.084-1 .941-1s1.559-.702 1.559-1.559.45-1.281 1-.941c.64.396 1-2.838 1-8.986 0-13.303-1.034-14.351-14.228-14.423-8.608-.046-9.655.156-11.617 2.244M792 127.559c0 10.118.35 15.343 1 14.941.567-.351 1 .49 1 1.941 0 1.407.45 2.559 1 2.559s1 .675 1 1.5.59 1.5 1.311 1.5c.722 0 2.278.9 3.459 2 1.611 1.501 3.529 2 7.688 2 6.238 0 6.958-1.103 3.292-5.038-1.237-1.328-2.091-2.578-1.897-2.778.194-.199-.594-1.451-1.75-2.781s-2.103-2.78-2.103-3.222-.788-1.699-1.75-2.793c-3.619-4.115-4.25-6.406-4.25-15.433 0-5.794-.361-8.85-1-8.455-.55.34-1 .141-1-.441S796.65 112 795 112h-3zm169.605-11.309c-.285 2.338-.784 6.652-1.108 9.587-.603 5.462-1.665 8.047-4.747 11.551-.962 1.094-1.75 2.351-1.75 2.793s-.946 1.892-2.103 3.222c-1.156 1.33-2.143 2.796-2.194 3.258-.05.461-.904 1.711-1.897 2.778-3.344 3.589-2.332 4.561 4.753 4.561 4.118 0 6.329-.372 5.941-1-.34-.55.116-1 1.012-1 2.056 0 3.829-1.765 6.435-6.406 1.816-3.234 2.053-5.381 2.053-18.624V112h-2.939c-2.709 0-2.979.332-3.456 4.25M166.134 122c-.057 3.025.333 6.175.866 7 1.18 1.827 1.18-4.861 0-9.5-.638-2.506-.78-2.095-.866 2.5M628 126.418c0 5.958.773 7.582 3.607 7.582 2.258 0 2.393-.338 2.393-6v-6h-3c-2.881 0-3 .176-3 4.418m-248 3.868c0 1.619.583 2.285 2 2.285s2-.666 2-2.285-.583-2.286-2-2.286-2 .667-2 2.286m552.116 1.964c.088 1.712.226 1.829.576.488.253-.969.945-1.462 1.538-1.096.642.397.79.199.365-.487-1.187-1.922-2.602-1.297-2.479 1.095M568 140c0 4.651 2.063 5.387 5.144 1.834 1.839-2.121 1.838-2.203-.091-4-3.327-3.098-5.053-2.359-5.053 2.166m250.75-1.294c1.237.238 3.263.238 4.5 0 1.237-.239.225-.434-2.25-.434s-3.487.195-2.25.434M932 142.941c0 1.068.337 2.15.75 2.404.413.255.75-.618.75-1.94s-.337-2.405-.75-2.405-.75.873-.75 1.941m-509.928.852c-3.76 2.613-9.109 4.175-14.355 4.192-7.73.024-11.971 4.952-12.886 14.972C393.79 174.364 393.867 184 395 184c.55 0 1 .9 1 2 0 4.91 7.55 1.28 10.919-5.25.78-1.512 1.793-2.75 2.25-2.75s.831-.9.831-2q0-2 2-2c1.1 0 2-.45 2-1s.9-1 2-1 2-.45 2-1 1.35-1 3-1 3-.45 3-1 .788-1.014 1.75-1.032c1.638-.03 1.634-.12-.062-1.405-1.366-1.036-1.735-2.445-1.5-5.719.28-3.904.59-4.376 3.062-4.66 1.512-.174 2.75-.711 2.75-1.193s-.826-.717-1.835-.523c-2.332.449-5.264-1.377-3.415-2.127.688-.279 1.25-1.768 1.25-3.308 0-2.016.596-2.956 2.131-3.357 1.93-.505 1.984-.704.571-2.117-1.96-1.96-3.555-1.904-6.63.234m-7.142 5.791c-1.366 1.647-.41 4.423 1.775 5.151 1.763.588 4.154-2.556 3.589-4.717-.63-2.41-3.529-2.645-5.364-.434m18.217 4.023c-.803.907-1.161 2.826-.879 4.712.599 4.013-.739 7.681-2.802 7.681-.871 0-1.332.408-1.024.906s1.347.703 2.309.455c1.105-.284 3.038.924 5.249 3.282 3.383 3.608 3.511 3.654 3.841 1.383.263-1.815.544-2.029 1.234-.938.655 1.034.898.692.91-1.279.008-1.48-.435-2.969-.985-3.309s-1-1.941-1-3.559-.45-2.941-1-2.941-1-1.152-1-2.559c0-1.451-.433-2.292-1-1.941-.55.34-1-.309-1-1.441 0-2.423-.974-2.577-2.853-.452M402 157.883c0 3.182.406 3.993 2.25 4.487 3.164.848 3.203.839 5.597-1.237 3.925-3.405 1.69-7.133-4.276-7.133-3.482 0-3.571.097-3.571 3.883m-23.714 2.617c.008 2.75.202 3.756.432 2.236s.223-3.77-.014-5-.425.014-.418 2.764m34.964 1.996c-1.794 2.037-1.54 5.179.481 5.954.952.366 1.89.186 2.085-.399s.715-.841 1.156-.568c1.519.938 1.847-3.521.368-5.001-1.814-1.813-2.484-1.811-4.09.014m475.237 92.483c.745 1.206 4.181 1.367 4.885.228.269-.435-.862-.895-2.513-1.021-1.837-.14-2.758.168-2.372.793M870.328 276.5c.005 3.85.185 5.302.402 3.228.216-2.075.213-5.225-.008-7s-.398-.078-.394 3.772m2.401.104c-.401.401-.715 1.667-.699 2.813.028 1.923.111 1.946 1.071.295 1.119-1.922.833-4.312-.372-3.108M102 281c0 .55-.645 1-1.433 1s-1.718.9-2.067 2-1.054 2-1.567 2-.933 1.377-.933 3.059-.377 2.826-.838 2.541c-.46-.284-.911 1.377-1.002 3.691s-.614 4.359-1.162 4.542c-.549.184-.998 2.096-.998 4.25S91.625 308 91.167 308c-.459 0-.839.563-.845 1.25s-.334 4.21-.728 7.829c-.692 6.353-.615 6.687 2.246 9.75 1.973 2.112 3.914 3.176 5.811 3.186 2.086.012 2.467.258 1.422.919-.861.545 15.289.841 40.675.747 23.156-.086 41.573-.492 40.927-.903-.658-.419.255-.754 2.075-.763 1.787-.008 3.25-.465 3.25-1.015s.702-1 1.559-1 1.281-.45.941-1-.141-1 .441-1c1.309 0 1.455-13.688.151-14.167-.499-.183-1.052-1.908-1.228-3.833-.177-1.925-.623-3.725-.992-4s-.819-2.075-1-4-.655-3.739-1.054-4.031-.839-2.204-.976-4.25c-.138-2.045-.609-3.719-1.046-3.719s-.796-.695-.796-1.545-1.105-2.65-2.455-4L177.091 280h-37.546c-24.363 0-37.545.351-37.545 1m38.139 13.033c-1.343 1.119-3.847 1.967-5.809 1.967-2.044 0-3.196.407-2.83 1 .349.564-.467 1-1.874 1-1.613 0-2.715.705-3.126 2-.349 1.1-1.054 2-1.567 2s-.933.9-.933 2 .45 2 1 2 1 .707 1 1.571c0 1.826 2.344 4.429 3.988 4.429.621 0 .852.45.512 1-.396.641 3.009 1 9.5 1s9.896-.359 9.5-1c-.34-.55-.109-1 .512-1 1.452 0 3.988-2.525 3.988-3.97 0-.613-.901-2.08-2.001-3.262-1.101-1.181-1.664-2.4-1.25-2.708 1.935-1.443 1.087-3.885-1.76-5.065-2.295-.95-2.895-1.716-2.447-3.127.818-2.577-3.237-2.472-6.403.165M910.349 300c0 4.675.173 6.587.383 4.25s.211-6.163 0-8.5c-.21-2.337-.383-.425-.383 4.25m-226.587-5.293c1.244.239 3.044.23 4-.02s-.062-.446-2.262-.435-2.982.216-1.738.455m-114.512 2.789c-.687.781-1.25 2.114-1.25 2.962s-.45 1.542-1 1.542-1 1.377-1 3.059c0 1.885-.404 2.81-1.052 2.409-.712-.44-.993 2.448-.872 8.941.098 5.275.571 9.591 1.051 9.591s.873 2.052.873 4.559c0 2.785.389 4.319 1 3.941.55-.34 1 .116 1 1.012 0 4.548-.868 4.488 65.429 4.488H696v-44l-62.75.038c-52.914.032-62.946.261-64 1.458m-222 .283-13.25.279V334h99.198l2.907 3.113c2.303 2.464 3.479 2.999 5.651 2.568 4.314-.855 9.837-2.466 8.841-2.579-.497-.056.066-.942 1.25-1.969 2.033-1.763 2.153-2.742 2.153-17.5 0-9.755-.376-15.633-1-15.633-.55 0-1-.702-1-1.559s-.412-1.305-.915-.994-1.065.122-1.25-.42c-.328-.966-73.635-1.858-102.585-1.248m516.365 1.407c.277.448-.836.814-2.473.814-1.636 0-3.125.416-3.309.925-.183.509-.988 1.071-1.788 1.25s-2.516 1.346-3.814 2.594-2.669 2.099-3.046 1.891c-.889-.491-6.587 5.522-7.01 7.399-.179.793-.741 1.591-1.25 1.774s-.925 1.196-.925 2.25-.45 1.917-1 1.917-1 1.152-1 2.559c0 1.451-.433 2.292-1 1.941-.645-.398-1 3.509-1 11s.355 11.398 1 11c.583-.361 1 .656 1 2.441 0 1.682.45 3.059 1 3.059s1 .717 1 1.593c0 2.073 12.334 14.407 14.407 14.407.876 0 1.593.45 1.593 1s.927 1 2.059 1 1.781.45 1.441 1c-.373.604.99 1 3.441 1 2.232 0 4.059.45 4.059 1 0 .554 2.647 1 5.941 1 3.268 0 6.219-.45 6.559-1s2.193-1 4.118-1 3.277-.36 3.005-.801c-.272-.44 1.498-1.389 3.933-2.108 2.436-.719 4.239-1.613 4.008-1.987s.9-1.264 2.514-1.978 2.679-1.71 2.369-2.212c-.311-.503.137-.914.994-.914s1.559-.801 1.559-1.779c0-.979.9-2.428 2-3.221s2-2.242 2-3.221c0-.978.45-1.779 1-1.779s1-.9 1-2 .45-2 1-2 1-2.052 1-4.559c0-2.785.389-4.319 1-3.941.594.367 1-.803 1-2.882 0-1.925-.45-3.778-1-4.118s-1-2.579-1-4.976-.409-4.507-.908-4.691c-.5-.183-1.063-1.233-1.25-2.333s-.643-2.229-1.012-2.509c-.368-.281-.818-1.151-1-1.935-.515-2.225-10.601-12.056-12.367-12.056-.87 0-1.303-.45-.963-1 .352-.569-.509-1-2-1s-2.352-.431-2-1c.361-.583-.656-1-2.441-1-1.682 0-3.059-.473-3.059-1.052 0-.681-3.504-.968-9.944-.814-5.47.13-9.718.604-9.441 1.052M605.2 303.2c-.66.66-1.2 1.972-1.2 2.917s-.515 1.888-1.143 2.097c-.858.286-.858.915 0 2.518.628 1.175 1.143 3.741 1.143 5.702 0 2.899.374 3.566 2 3.566 1.667 0 2-.667 2-4 0-2.2.45-4 1-4s1-.702 1-1.559.45-1.281 1-.941 1 2.841 1 5.559V320h8v-4c0-3.333.333-4 2-4 1.547 0 2 .667 2 2.943 0 2.901 2.948 6.057 5.657 6.057 2.879 0 6.651-2.092 5.624-3.119-.727-.727-.71-1.933.055-3.96.903-2.392.8-3.213-.571-4.584-2.038-2.038-7.575-2.196-8.929-.254-.757 1.086-1.107 1.125-1.495.167-.338-.831-2.828-1.25-7.424-1.25-3.945 0-6.917-.43-6.917-1 0-.55 1.35-1 3-1 3.444 0 3.922-1.436 1-3-1.498-.802-2-.76-2 .165 0 .961-.267.968-1.2.035-.66-.66-1.92-1.2-2.8-1.2s-2.14.54-2.8 1.2m34.518 3.816c-1.328 1.551-1.506 2.511-.736 3.951.56 1.046 1.018 3.506 1.018 5.467 0 3.409.154 3.566 3.5 3.566 1.925 0 3.5-.45 3.5-1s-.675-1-1.5-1q-1.5 0-1.5-3c0-2.05.493-3 1.559-3 .857 0 1.281-.45.941-1s-.141-1 .441-1 1.059.873 1.059 1.941.45 2.219 1 2.559 1 1.621 1 2.846c0 1.759.633 2.277 3 2.457 2.721.207 3-.052 3-2.787 0-1.659.399-3.016.887-3.016.922 0 2.097-5.683 1.333-6.447-.752-.752-4.22 1.867-4.22 3.188 0 1.945-1.346 1.497-3.294-1.096-1.304-1.737-2.483-2.242-4.487-1.922-2.13.34-2.394.203-1.219-.629.885-.628 1.021-1.07.332-1.079-.643-.008-1.774-.247-2.514-.531s-2.135.405-3.1 1.532M356 316v10h3.917c2.155 0 4.179-.562 4.5-1.25.454-.973.71-.98 1.156-.031.428.911 7.112 1.225 26.5 1.245l25.927.026V310l-6.75-.086c-3.712-.047-13.95-.018-22.75.065-15.117.143-16.081.037-17.471-1.914-1.238-1.739-2.541-2.065-8.25-2.065H356zm86-6.857c0 .395-1.001.862-2.225 1.037-1.224.176-2.726 1.33-3.339 2.564s-1.412 1.947-1.775 1.583c-.364-.363-.661.315-.661 1.506 0 1.75-.588 2.167-3.059 2.167-1.785 0-2.802.417-2.441 1 .34.55.109 1-.512 1-1.171 0-3.988 2.422-3.988 3.429 0 .314.9.571 2 .571s2 .45 2 1c0 1.404 4.586 1.246 7.264-.25 3.983-2.227 6.736-5.056 6.736-6.924 0-1.004.477-1.826 1.059-1.826s.803-.414.491-.919.111-1.599.941-2.429c2.164-2.164 1.896-4.557-.491-4.377-1.1.083-2 .474-2 .868m465.788 3.607c.28 1.512.78 2.975 1.111 3.25 1.18.982 3.101 4.999 3.101 6.486 0 .833.428 1.514.95 1.514.523 0 1.085 2.587 1.25 5.75l.3 5.75 4.75.305 4.75.305v-12.055c0-7.818-.372-12.055-1.059-12.055-.582 0-.781-.45-.441-1 .392-.635-2.277-1-7.302-1h-7.921zM871 315c0 .55-1.575 1-3.5 1s-3.5.45-3.5 1-.562 1.001-1.25 1.001c-1.938.002-6.75 4.54-6.75 6.365 0 .899-.45 1.634-1 1.634s-1 1.602-1 3.559c0 2.118-.405 3.309-1 2.941-.604-.373-1 .99-1 3.441 0 2.232.45 4.059 1 4.059s.947.337.882.75c-.392 2.477.267 5.276 1.118 4.75.55-.34 1 .084 1 .941s.398 1.559.883 1.559c.486 0 1.119.9 1.407 2 .287 1.1 1.24 2 2.116 2s1.594.45 1.594 1 .9 1 2 1 2 .45 2 1c0 .571 3 1 7 1s7-.429 7-1c0-.55.9-1 2-1s2-.45 2-1 .707-1 1.571-1c2.021 0 4.429-2.408 4.429-4.429 0-.864.45-1.571 1-1.571s1-1.098 1-2.441.45-2.719 1-3.059 1-2.868 1-5.618c0-3.079-.384-4.763-1-4.382-.567.351-1-.49-1-1.941 0-1.407-.45-2.559-1-2.559s-1-.695-1-1.545c0-2.001-4.454-6.455-6.455-6.455-.85 0-1.545-.45-1.545-1s-1.773-1-3.941-1-4.219-.45-4.559-1-1.041-1-1.559-1-.941.45-.941 1m-227.137 9.991-2.363 2.991-11.191.009c-6.392.005-11.456-.42-11.809-.991-.34-.55-1.743-1-3.118-1-1.412 0-2.231-.435-1.882-1 .361-.583-.656-1-2.441-1-1.682 0-3.059.257-3.059.571 0 .958 2.73 3.366 3.238 2.857.263-.262 1.046.21 1.742 1.048s1.885 1.524 2.642 1.524c.758 0 1.378.45 1.378 1s1.575 1 3.5 1 3.5.45 3.5 1c0 .571 3 1 7 1s7-.429 7-1c0-.55 1.35-1 3-1s3-.45 3-1 1.125-1 2.5-1 2.5.477 2.5 1.059c0 1.753 1.774.1 3.409-3.178 2.985-5.982-4.188-8.408-8.546-2.89M88.32 338c0 3.575.182 5.038.403 3.25s.222-4.712 0-6.5c-.221-1.788-.403-.325-.403 3.25m79.786 6.801c-.753 1.408-.653 2.429.374 3.811 1.831 2.464 5.02.735 5.02-2.721 0-3.103-3.895-3.89-5.394-1.09m32.964 107.068c-.748 1.397-.209 1.913 3.07 2.936 2.187.683 4.381.991 4.874.686 1.425-.88.054-3.228-2.333-3.995-4.185-1.346-4.71-1.311-5.611.373m252.915.381c-.013 1.819-.201 1.963-.985.75-.67-1.037-.924.661-.822 5.5l.148 7L453 460c.371-3.025.648 7.775.616 24l-.058 29.5L453 491l-.558-22.5-.206 25c-.135 16.431.127 24.486.764 23.5.932-1.442 1.387-.685 1.203 2-.09 1.312 27.077 1.165 27.911-.15.557-.879.861-.941.871-.178.011.862 5.994 1.175 22.532 1.182 13.659.006 22.29-.357 21.941-.922-.317-.513.152-.932 1.042-.932s1.355.426 1.033.947c-.362.586 7.253.919 19.941.872 19.124-.071 20.526-.2 20.526-1.888 0-.997.394-2.056.875-2.354 1.401-.865 1.444-62.488.045-64.174-1.438-1.732-58.489-2.133-57.42-.403.386.624 10.277 1.006 26.309 1.015 14.13.009 26.26.377 26.956.818.984.625 1.206 7.754 1 32.235L567.5 516.5l-4 .207c-2.2.114-6.925.214-10.5.221-10.601.023-42.766-.091-53-.188-5.225-.049-17.15-.123-26.5-.165l-17-.075-.593-23.617c-.326-12.99-.476-24.69-.333-26 .143-1.311.297-5.195.343-8.633L456 452h27c17.333 0 27-.358 27-1 0-.643-10-1-28-1h-28zm-175.662 5.351c-.338.88-.051 1.949.638 2.375.888.549.931.973.146 1.458-1.408.87-1.44 2.566-.048 2.566.582 0 .8-.419.484-.931s-.117-1.214.443-1.561c.682-.421.69-1.245.025-2.488-.711-1.327-.64-2.002.247-2.36.963-.389.954-.52-.039-.581-.705-.043-1.558.641-1.896 1.522M458 485.016v29.016l54-.049 54-.049V456h-39c-26.966 0-39 .329-39 1.067 0 .711 4.587 1.02 13.75.927 20.995-.215 22.867.365 3.25 1.006-15.164.495-13.195.6 14.75.786L552 460v50h-80v-25c0-24.572.035-25 2.059-25 1.132 0 1.781-.45 1.441-1s.084-1 .941-1 1.559-.45 1.559-1c0-.6-4-1-10-1h-10zm-238.794-25.272c.331 1.962 4.054 4.256 6.908 4.256 1.037 0 1.886.45 1.886 1s.873 1 1.941 1 2.219.45 2.559 1c1.074 1.738 4.795 1.211 4.107-.582-.334-.87-.607-1.77-.607-2s-.9-.418-2-.418-2-.45-2-1-.9-1-2-1-2-.45-2-1-.873-1-1.941-1-2.219-.45-2.559-1c-1.099-1.778-4.616-1.168-4.294.744m261.044-.055c.962.252 2.538.252 3.5 0 .962-.251.175-.457-1.75-.457s-2.712.206-1.75.457m-194.904 1.445c1.324.769 2.159.761 2.95-.03.805-.805.305-1.096-1.846-1.074-2.586.027-2.722.163-1.104 1.104m3.768 2.676c-2.412.175-4.924.857-5.583 1.516-1.344 1.345-1.66 4.872-.364 4.071.458-.283.833.187.833 1.044 0 1.099.959 1.55 3.25 1.527 3.631-.035 6.75-1.943 6.75-4.128 0-.792.48-1.92 1.067-2.507 1.447-1.447-.418-1.924-5.953-1.523m-39.309.869c-.984.259-1.463 1.049-1.143 1.884.626 1.63 7.338 2.03 7.338.437 0-.55.477-1 1.059-1s.721.563.308 1.25c-.51.849-.209.81.941-.122.931-.755 1.685-1.88 1.677-2.5-.009-.666-.368-.572-.875.229-.6.946-1.067 1.021-1.544.25-.674-1.091-4.454-1.3-7.761-.428m-27.37 6.819c.412 2.198 1.208 4.281 1.77 4.629.575.355.621.793.104 1.002-.507.205-.341 1.488.372 2.871 1.157 2.242 1.283 1.727 1.225-5-.035-4.125-.297-6.919-.582-6.208-.424 1.055-.804 1.055-2.078 0-1.385-1.148-1.476-.845-.811 2.706M266.5 469c-.34.55.309 1 1.441 1s2.059-.45 2.059-1-.648-1-1.441-1-1.719.45-2.059 1M228 479.333c0 5.134.338 9.671.75 10.084.412.412.806 1.162.875 1.666.069.505.181 1.367.25 1.917s.667.887 1.33.75c.662-.137 1.225.275 1.25.917.025.641.455 1.541.955 2 .536.49.588.275.125-.524-.61-1.054-.255-1.192 1.59-.618 1.306.407 2.525 1.13 2.708 1.607.592 1.541 2.165.921 2.237-.882.06-1.496.195-1.46.93.25.588 1.369.834-.049.78-4.5-.077-6.212-.111-6.301-.78-2-.664 4.27-.709 4.321-.88 1-.15-2.894-.357-3.197-1.2-1.75-1.528 2.623-4.808 2.174-5.945-.815-1.529-4.023-1.226-11.402.497-12.063 1.989-.763 7.383 1.722 7.832 3.609.199.836.392-.168.429-2.231.054-3.041-.292-3.75-1.833-3.75-1.045 0-1.9-.45-1.9-1s-.9-1-2-1-2-.45-2-1-1.35-1-3-1h-3zm18.573-7.663c-.352.919-.24 1.931.249 2.25s1.358 2.38 1.93 4.58l1.041 4 .104-6.25c.103-6.244-1.721-8.757-3.324-4.58m11.697.261c.08 1.062.465 1.732.857 1.491.391-.242 1.391.239 2.221 1.069 1.701 1.701 8.652 2.074 8.652.464 0-.596-1.397-.871-3.25-.64-1.788.223-2.462.212-1.5-.024.962-.237 1.714-1.186 1.671-2.111-.049-1.04-.271-1.204-.583-.43-.703 1.741-2.338 1.566-2.338-.25 0-.993-.993-1.5-2.938-1.5-2.286 0-2.905.428-2.792 1.931M722 473.039c0 .528-.927.961-2.059.961s-1.781.45-1.441 1 .15 1-.422 1-1.321 1.122-1.666 2.493c-.344 1.371-.937 2.3-1.319 2.065-.381-.236-.804 1.216-.939 3.226s-.714 3.944-1.286 4.297c-.571.354-1 .93-.953 1.281.423 3.167-.095 6.645-.915 6.138-.611-.378-1 1.156-1 3.941 0 2.507-.45 4.559-1 4.559s-1 1.827-1 4.059-.377 3.826-.838 3.541c-.46-.284-.903 1.158-.983 3.206-.162 4.132 3.277 9.194 6.246 9.194.931 0 1.415.45 1.075 1-.409.662 17.67 1 53.483 1 52.718 0 54.155-.051 56.247-2 1.181-1.1 2.737-2 3.459-2 .948 0 1.311-1.815 1.311-6.559 0-4.118-.372-6.329-1-5.941-.91.562-1.536-3.818-1.052-7.35.102-.743-.294-1.054-.881-.691-.689.425-1.067-.779-1.067-3.4 0-2.232-.45-4.059-1-4.059s-1-1.8-1-4-.45-4-1-4-1-1.8-1-4-.45-4-1-4-1-.702-1-1.559-.45-1.281-1-.941-1 .141-1-.441-.927-1.059-2.059-1.059c-1.143 0-1.779-.453-1.43-1.019.424-.686-14.247-.999-44.941-.961-28.454.036-45.57.418-45.57 1.019M254 526c0 28.6.24 52 .533 52s1.981-1.462 3.75-3.25l3.217-3.25-.097-27.5c-.213-60.338-.31-63.765-1.855-65.31-.799-.798-1.174-1.73-.834-2.071.341-.34-.131-.619-1.047-.619-.917 0-1.667-.45-1.667-1s-.45-1-1-1c-.654 0-1 18-1 52m-48.517-37.667c.591 5.701 1.108 6.761 2.95 6.054 2.932-1.125 2.224-8.387-.817-8.387-.797 0-1.716-.562-2.042-1.25s-.367.925-.091 3.583M772 484.917c0 .595-.9 1.083-2 1.083s-2 .378-2 .839c0 1.452-4.929 3.161-9.118 3.161-3.926 0-6.882 1.713-6.882 3.988 0 .621-.45.852-1 .512-.583-.361-1 .656-1 2.441 0 1.682.45 3.059 1 3.059s1 .707 1 1.571c0 2.226 2.481 4.429 4.988 4.429 1.171 0 1.91.357 1.64.793-.269.435.829.893 2.441 1.015 1.612.123 2.931-.233 2.931-.792 0-1.361 4.303-1.29 7.403.122 2.868 1.307 7.832-.53 11.054-4.09 1.807-1.997 1.799-2.091-.303-3.914-2.386-2.07-2.834-4.739-.904-5.388 1.842-.62-.972-3.746-3.372-3.746-1.034 0-1.878-.701-1.878-1.559 0-.857-.399-1.312-.887-1.011s-.825-.186-.75-1.083c.075-.898-.425-1.83-1.113-2.073s-1.25.047-1.25.643m-523 8.443c0 2.399-.237 6.561-.526 9.25-.352 3.279-.235 4.231.357 2.89.976-2.211 1.601-16.5.722-16.5-.304 0-.553 1.962-.553 4.36m-13.318 6.89c.348 1.788.899 3.475 1.225 3.75s.751 1.611.943 2.969c.971 6.852 7.659 7.293 8.009.529.215-4.152.042-4.45-3.566-6.143-2.086-.978-4.388-2.359-5.114-3.067-1.965-1.915-2.193-1.616-1.497 1.962M212 502.571c0 .315.675 1.247 1.5 2.072 1.333 1.333 1.5 1.27 1.5-.572 0-1.174-.649-2.071-1.5-2.071-.825 0-1.5.257-1.5.571m280.75 16.152c1.788.222 4.712.222 6.5 0 1.788-.221.325-.403-3.25-.403s-5.038.182-3.25.403M220 521.063c0 .584-.787.983-1.75.885-6.658-.678-11.623 1.822-8.943 4.501.852.853 2.284 1.551 3.181 1.551.896 0 1.352.45 1.012 1-.352.569.509 1 2 1s2.352.431 2 1c-.34.55.309 1 1.441 1s2.059.45 2.059 1 .675 1 1.5 1 1.5.45 1.5 1 .9 1 2 1 2 .45 2 1 .41 1 .912 1c.91 0 .867-1.168-.147-4-1.306-3.649-2.765-9.911-2.765-11.866 0-1.704-.604-2.134-3-2.134-1.65 0-3 .478-3 1.063m233.612 2.118c.278.45.029.819-.553.819s-1.059.9-1.059 2-.45 2-1 2-1 1.152-1 2.559c0 1.451-.433 2.292-1 1.941-.605-.374-1 1.009-1 3.5s-.395 3.874-1 3.5c-.596-.369-1 .843-1 3s-.404 3.369-1 3c-.595-.368-1 .823-1 2.941 0 1.957-.45 3.559-1 3.559s-1 1.35-1 3-.45 3-1 3-1 1.35-1 3-.45 3-1 3-1 .9-1 2c0 1.947.667 2 25.25 2h25.25l.003-4.25c.001-2.337.359-5.937.795-8 .706-3.341.576-3.75-1.194-3.75-1.092 0-2.249-.425-2.57-.945-.346-.56-7.378-.766-17.294-.507-9.191.241-17.505.185-18.475-.123-1.843-.585-2.507-4.425-.765-4.425.55 0 1-1.35 1-3s.45-3 1-3 1-1.323 1-2.941.45-3.219 1-3.559 1-1.974 1-3.63c0-3.079 1.379-5.156 4.018-6.051.825-.28.066-.714-1.715-.98-1.759-.262-2.97-.109-2.691.342m109.875.562c5.07.516 5.411 1.142 9.68 17.757.565 2.2 1.465 4.831 2 5.847s.818 2.001.631 2.189c-.188.187-8.882.554-19.32.814-20.936.522-22.965.871-21.46 3.684.54 1.009.982 4.564.982 7.9V568h24.441c24.178 0 27.514-.445 24.672-3.287-.612-.612-1.113-2.373-1.113-3.913s-.45-2.8-1-2.8-1-1.602-1-3.559c0-2.118-.405-3.309-1-2.941-.594.367-1-.803-1-2.882 0-1.925-.45-3.778-1-4.118s-1-1.69-1-3-.45-2.66-1-3-1-1.941-1-3.559-.45-2.941-1-2.941-1-1.12-1-2.489c0-4.564-2.782-6.531-8.972-6.343-4.698.143-4.929.229-1.541.575m-315.705 14.339L247.5 550.5l-2.5-.279c-1.375-.154-2.65-.717-2.833-1.25-.184-.534-.859-.981-1.5-.993-.642-.012-2.292-.902-3.667-1.978s-2.95-1.959-3.5-1.962c-.55-.004-.325.429.5.962 1.297.838 1.273.971-.171.985-1.037.009-1.92 1.152-2.329 3.015-.362 1.65-1.102 3-1.644 3s-2.122 1.351-3.512 3.003c-1.389 1.651-3.005 2.707-3.59 2.345-.599-.37-.772-.187-.396.422.366.593-.127 1.285-1.096 1.538-1.479.386-1.436.479.267.576 1.116.064 2.678 1.016 3.471 2.116s2.242 2 3.221 2c.978 0 1.779.45 1.779 1s.702 1 1.559 1 1.305-.411.994-.914c-.31-.502.756-1.498 2.369-2.212s2.715-1.653 2.447-2.086.44-.788 1.572-.788 2.059-.477 2.059-1.059.338-.851.75-.596c.412.254 2.504-1.261 4.647-3.367l3.897-3.829-.163-11.791c-.225-16.215-1.988-17.173-2.349-1.276m460.802-10.723c.347.902 1.594 1.605 2.773 1.562 1.463-.054 1.667-.255.643-.634-.825-.306-2.073-1.009-2.773-1.563-.952-.753-1.114-.593-.643.635m-463.812 8.373c-.261 3.152-.131 6.865.291 8.25.506 1.665.794-.275.851-5.732.1-9.563-.456-10.788-1.142-2.518M698 647.25c0 .413-.675.75-1.5.75s-1.5.45-1.5 1c0 .658 27.167 1 79.5 1H854v82h-42.167c-23.191 0-41.934.233-41.65.517.285.284 19.71.717 43.167.961l42.65.445.195-5.712c.108-3.141.296-7.286.418-9.211s.48-17.225.794-34c.588-31.415.16-36.396-3.219-37.412-2.745-.826-156.188-1.158-156.188-.338m-544.8 1.95c-1.928 1.928-1.708 103.435.229 105.371 1.214 1.215 13.36 1.429 80.916 1.429 83.444 0 81.934.081 79.266-4.234-1.482-2.397 1.339-5.234 4.277-4.301 2.037.646 2.851 3.463 1.416 4.897-.382.383-.792 1.358-.911 2.167-.293 1.996 8.189 2.032 10.178.042 1.673-1.672 1.936-11.285.372-13.571-.845-1.236-.975-1.147-.735.5.29 1.987-.277 2-87.208 2h-87.5l.226-46.307c.124-25.468.432-46.639.684-47.047.551-.892 172.276-.793 173.17.1.344.345.566 18.88.494 41.19-.073 22.699.256 40.564.747 40.564 1.699 0 1.52-80.802-.183-82.505-2.004-2.004-173.441-2.292-175.438-.295M700 686v34h152v-68H700zm-542.333-32.333c-.367.366-.667 14.091-.667 30.5 0 25.852.2 29.833 1.5 29.833.825 0 1.5-.45 1.5-1s.702-1 1.559-1 1.281-.45.941-1 .209-1 1.22-1 2.487-.9 3.28-2 2.044-2 2.78-2 1.08-.418.764-.928c-.315-.51.298-1.204 1.362-1.542s3.633-2.17 5.71-4.072 4.141-3.458 4.589-3.458c.447 0 2.226-1.35 3.952-3 1.727-1.65 3.748-3 4.491-3 .744 0 1.352-.45 1.352-1 0-1.848 5.515-1.061 7 1 .793 1.1 2.062 2 2.82 2 .757 0 2.639 1.35 4.18 3s3.184 3.001 3.651 3.002c.467.002 2.424 1.351 4.349 2.998s4.063 2.996 4.75 2.998c.688.001 1.25.452 1.25 1.002 0 2.141 3.186.821 7.243-3 2.335-2.2 4.601-4 5.035-4s2.364-1.575 4.289-3.5 3.887-3.5 4.359-3.5c.473 0 3.933-2.925 7.688-6.5s7.304-6.5 7.886-6.5 1.707-.9 2.5-2 2.044-2 2.78-2 1.06-.45.72-1c-.361-.583.656-1 2.441-1 1.682 0 3.059.45 3.059 1s.71 1 1.578 1 3.241 1.688 5.274 3.75 4.29 3.877 5.017 4.032 3.432 2.405 6.01 5 5.266 4.841 5.975 4.992 3.45 2.4 6.09 5c2.641 2.599 5.293 4.833 5.894 4.964.6.131 3.655 2.721 6.788 5.756 3.133 3.034 5.884 5.33 6.112 5.101.229-.229 1.668.894 3.197 2.495s3.07 2.91 3.423 2.91.642-14.352.642-31.893c0-28.16-.185-31.964-1.582-32.5-2.167-.832-163.918-.773-164.751.06m544.215 1.583c-.066.688-.088 1.521-.05 1.852s.175 2.393.304 4.58l.235 3.978 4.635.211c4.114.188 4.768-.08 5.815-2.377 1.513-3.321 1.505-6.768-.021-8.294-1.631-1.631-10.763-1.589-10.918.05m57.368 4.246c-1.741 1.977-1.786 41.568-.05 43.304.77.77 4.711 1.2 11 1.2h9.8v4.571c0 7.659-1.03 7.429 33.297 7.429h30.44l.562-4.194c.31-2.307.301-12.143-.018-21.858l-.581-17.664-9.881-.602C821.9 670.956 822 671.009 822 665.37c0-7.575.879-7.375-32.179-7.332-24.038.031-29.546.294-30.571 1.458m-544.211 6.45c-.772 1.071-1.771 1.719-2.221 1.441s-.818.197-.818 1.054-.45 1.559-1 1.559-1 2.045-1 4.545c0 4.525 3.136 9.455 6.014 9.455.607 0 .826.45.486 1-.378.611 1.171 1 3.986 1 4.858 0 9.514-3.159 9.514-6.455 0-.85.45-1.545 1-1.545s1-.873 1-1.941-.45-2.219-1-2.559-1-1.524-1-2.63c0-5.512-11.75-9.379-14.961-4.924m487.568 3.636c-.334.87-.607 3.57-.607 6V680h4.571c6.798 0 9.865-5.208 6.037-10.25-1.756-2.314-9.13-2.438-10.001-.168m-248.357 6.943c-1.238 1.322-2.25 3.121-2.25 3.998s-.45 1.317-1 .977c-.567-.351-1 .49-1 1.941 0 1.407-.45 2.559-1 2.559s-1 1.377-1 3.059c0 1.785-.417 2.802-1 2.441-.567-.351-1 .49-1 1.941 0 1.407-.45 2.559-1 2.559s-1 .873-1 1.941-.45 2.219-1 2.559-1 1.716-1 3.059V706h86l.118-7.25c.066-3.987.091-7.513.056-7.833s.475-.615 1.132-.653 3.539-.184 6.406-.324 4.977-.634 4.691-1.097c-.287-.464 2.232-.843 5.597-.843s5.885.377 5.6.838c-.284.46 1.24.906 3.388.99 2.148.085 4.181-.292 4.518-.837.943-1.527 2.494-1.173 2.494.568 0 .857.45 1.281 1 .941.93-.575 1.48 2.227 1.052 5.35-.113.82.289 1.057 1.022.604.907-.56 1.085.538.714 4.4l-.494 5.146h8.353c8.295 0 8.353-.018 8.353-2.559 0-1.451-.433-2.292-1-1.941-.583.361-1-.656-1-2.441 0-1.682-.45-3.059-1-3.059s-1-1.152-1-2.559c0-1.451-.433-2.292-1-1.941-.583.361-1-.656-1-2.441 0-1.682-.45-3.059-1-3.059s-1-.9-1-2-.45-2-1-2-1-.707-1-1.571c0-.865-.679-2.251-1.509-3.081s-1.299-1.85-1.042-2.266c.258-.416-2.276-.856-5.63-.977l-6.098-.22.544 4.058.545 4.057H530v-8l-36.75.061-36.75.061zM705 681.949c-2.06.526-2.608 1.423-3.114 5.095-.338 2.451-.223 4.607.256 4.791s.616.747.305 1.25c-.868 1.405 8.533 1.086 9.888-.335.656-.687 1.332-2.711 1.504-4.496.489-5.105-3.211-7.744-8.839-6.305m-253.259 15.329c-.209.626.247 2.395 1.013 3.93 2.262 4.535 13.246 3.544 13.246-1.196 0-.621.45-.852 1-.512 1.178.728 1.292-.493.205-2.203-1.01-1.589-14.935-1.606-15.464-.019m-12.491 14.218c-1.89 2.147-1.737 27.16.179 29.075 1.189 1.19 7.989 1.429 40.633 1.429h39.205l2.365-2.75c2.042-2.373 2.366-3.799 2.367-10.405.001-7.25 2.598-15.499 5.251-16.678 3.938-1.751-4.578-2.162-44-2.129-37.366.032-44.956.272-46 1.458m125.982.504c.687 1.1 1.591 2 2.009 2s.759.873.759 1.941.45 2.219 1 2.559 1 4.107 1 8.37c0 6.082.388 8.171 1.8 9.691.991 1.067 2.102 2.727 2.469 3.689.817 2.139 8.168 2.455 10.186.438 1.779-1.779 2.127-24.315.434-28.032-1.19-2.613-1.37-2.656-11.058-2.656-9.598 0-9.816.051-8.599 2m-119.482 3.689c-5.647 1.476.226 2.311 16.25 2.311 16.289 0 20.902-.672 16.418-2.393-1.795-.689-29.989-.618-32.668.082m4 6.05c-3.163.198-5.75.788-5.75 1.311 0 .565 7.297.95 18 .95 18.14 0 23.739-1.169 11.25-2.348-6.687-.632-12.383-.611-23.5.087m-5.75 7.164c0 1.536 30.719 2.909 34.304 1.534 4.603-1.766.116-2.437-16.304-2.437-10.051 0-18 .399-18 .903m251.038 3.169c.888 1.658 1.807 1.977 4.601 1.601 4.556-.614 5.56-1.673 1.587-1.673-1.71 0-3.386-.45-3.726-1-1.321-2.138-3.639-1.129-2.462 1.072m17.212.617c.962.252 2.538.252 3.5 0 .962-.251.175-.457-1.75-.457s-2.712.206-1.75.457m23.014.029c1.52.229 3.77.223 5-.014s-.014-.425-2.764-.418-3.756.202-2.236.432M444 735.393c0 2.262 2.384 2.607 18 2.607s18-.345 18-2.607c0-1.139-3.281-1.393-18-1.393s-18 .254-18 1.393m250.19 6.357c.26 3.141.716 3.804 2.81 4.085 1.375.184 2.928.746 3.45 1.25.558.537 32.268.915 76.795.915h75.846l2.454-2.455c1.35-1.35 2.455-3.6 2.455-5V738H693.879zm68.908 11.399c-1.51 4.331-1.415 12.524.152 13.082.688.244 6.425.529 12.75.633 10.894.178 15.995-.815 13.431-2.614-.588-.413-1.19-3.225-1.337-6.25-.381-7.835-.652-8-13.119-8h-10.779zM238 761.571c0 2.762 2.356 4.373 4.307 2.947 2.822-2.064 2.112-4.518-1.307-4.518-2.061 0-3 .492-3 1.571m-33.5 7.412c-1.278.56 2.986.902 11.809.947 7.595.038 13.59-.284 13.322-.718-.679-1.099-22.687-1.3-25.131-.229m31 .017c-.392.635 2.236.994 7.191.985 5.411-.011 7.348-.313 6.309-.985-1.98-1.28-12.709-1.28-13.5 0m17.5.027c-1.488.46 2.888.814 10.809.873 7.32.055 13.086-.261 12.813-.703-.643-1.04-20.354-1.182-23.622-.17m518.75 2.705c2.337.211 6.163.211 8.5 0 2.337-.21.425-.383-4.25-.383s-6.587.173-4.25.383m113.491 96.254c-2.218 3.551-1.743 74.912.509 76.622 2.678 2.033 74.787 1.998 76.821-.037 2.126-2.125 2.126-75.017 0-77.142-1.187-1.188-7.739-1.429-38.759-1.429-36.163 0-37.37.062-38.571 1.986m-129.852 3.811c-7.443.434-7.389.177-7.389 35.321 0 31.468.19 32.882 4.429 32.882.864 0 1.571.45 1.571 1 0 .634 7.547 1 20.642 1h20.641l2.859-2.991c1.572-1.645 2.89-3.782 2.928-4.75.136-3.398.163-9.773.047-11.08-.347-3.918-3.117 2.144-3.117 6.821 0 8.056.16 8-23 8-16.124 0-20.428-.285-21.571-1.429-2.116-2.115-2.116-59.027 0-61.142 2.095-2.096 41.047-2.096 43.142 0 .987.986 1.429 3.771 1.429 9 0 6.904.176 7.571 2 7.571 1.844 0 2-.667 2-8.559 0-5.451-.363-8.335-1-7.941-.55.34-1-.309-1-1.441 0-2.324 1.707-2.153-24-2.406-8.525-.084-17.8-.019-20.611.144m-110.895 2.514c-1.648 1.799-2.005 3.57-2 9.939.003 4.262.151 7.75.327 7.75 1.55 0 2.708-3.551 2.852-8.745.263-9.462-.258-9.255 23.327-9.255 16.124 0 20.428.285 21.571 1.429C691.744 876.601 692 882.076 692 906s-.256 29.399-1.429 30.571C689.428 937.715 685.124 938 669 938c-23.68 0-22.937.311-23.136-9.679-.075-3.751-.341-5.736-.591-4.409-.352 1.867-.657 2.093-1.348 1-.583-.92-.9.711-.91 4.685-.018 7.384 1.971 10.335 7.102 10.535l3.383.131-3.5.737c-1.962.413 6.02.795 18.167.868 12.497.076 21.807-.259 22-.793.183-.509.991-1.071 1.796-1.25 3.195-.71 3.85-6.534 3.979-35.399.079-17.728-.237-28.426-.84-28.426-.532 0-1.253-.9-1.602-2-1.033-3.255-46-2.969-49.006.311M69.25 881.54c-1.787 1.872-3.25 3.91-3.25 4.53s-1.35 2.389-3 3.93-3 3.548-3 4.46-.45 1.38-1 1.04-1 .084-1 .941S57.495 898 56.878 898c-.811 0-.799.39.041 1.403.894 1.077.865 1.527-.127 1.938-.711.294 30.044.528 68.344.519 68.203-.015 69.626-.055 69.133-1.938-.276-1.057-.869-1.922-1.318-1.922s-1.106-.914-1.461-2.032-1.725-3.112-3.045-4.432-2.522-2.968-2.672-3.662c-.15-.695-1.746-2.776-3.547-4.626-1.8-1.849-3.011-3.786-2.691-4.305.363-.587-19.761-.917-53.226-.874l-53.809.068zm182-2.044c-.687.781-1.25 2.14-1.25 3.021s-.45 1.323-1 .983-1 .11-1 1-.45 1.34-1 1-1 .335-1 1.5c0 1.346-.421 1.858-1.155 1.405-.69-.427-.884-.276-.48.376.37.599-.433 2.196-1.785 3.548-2.617 2.617-2.428 3.671.658 3.671 2.274 0 4.762-2.27 4.762-4.345 0-.819.416-1.638.925-1.822.509-.183 1.071-.988 1.25-1.788s1.322-2.492 2.54-3.76c1.357-1.413 1.969-2.946 1.58-3.959-.426-1.11-.25-1.416.535-.931.644.398 1.17.246 1.17-.336 0-1.532-3.283-1.23-4.75.437M266 880c0 1.1.422 2 .938 2s.87-.9.787-2-.505-2-.938-2-.787.9-.787 2m13.25-.504c-.687.781-1.25 2.114-1.25 2.962s-.45 1.542-1 1.542-1 .585-1 1.301c0 1.839-2.352 6.682-3.25 6.691-.413.004-.75.908-.75 2.008 0 1.844.723 2.013 9.25 2.168 50.904.927 58.75.629 58.75-2.232 0-.973-.491-1.933-1.092-2.133-.601-.201-1.163-1.588-1.25-3.083s-.495-2.719-.908-2.719c-.413-.001-.75-.703-.75-1.56s-.375-1.327-.833-1.044c-.459.283-.909-.14-1-.941-.092-.801-.242-2.131-.334-2.956-.242-2.18-52.663-2.184-54.583-.004M344 881c0 1.65.395 3 .879 3 .483 0 1.438 1.35 2.121 3s1.638 3 2.121 3 .879 1.35.879 3c0 1.898.512 3 1.393 3 1.637 0 3.064-3.077 1.818-3.92-.908-.615-2.324-3.644-2.796-5.98-.155-.77-.82-1.732-1.477-2.138s-.904-1.208-.55-1.781c.355-.574.18-1.33-.388-1.681s-.774-1.057-.457-1.569c.316-.512-.352-.931-1.484-.931-1.621 0-2.059.638-2.059 3m14.606-2.273c-1.001 1.002-.682 5.273.394 5.273.55 0 1 .675 1 1.5s.45 1.5 1 1.5 1 .675 1 1.5.34 1.5.756 1.5 1.353 1.35 2.084 3c1.493 3.374 7.16 4.515 7.16 1.441 0-.857-.45-1.281-1-.941s-1-.128-1-1.04-1.35-2.919-3-4.46-3-3.317-3-3.947c0-1.529-4.624-6.095-5.394-5.326M264 883.5c0 1.491-.431 2.352-1 2-.567-.351-1 .49-1 1.941 0 1.407-.45 2.559-1 2.559s-.887.563-.75 1.25-.312 1.138-1 1-1.25.2-1.25.75.9 1 2 1c1.352 0 2-.667 2-2.059 0-1.132.45-1.781 1-1.441s1-.084 1-.941.354-1.559.787-1.559c1.187 0 1.386-5.775.224-6.493-.583-.36-1.011.484-1.011 1.993m656.5 3.5c.34.55-.341 1-1.512 1-3.137 0-4.988 2.386-4.988 6.429 0 4.529 2.114 4.731 6 .571 3.126-3.346 4.474-3.669 6.571-1.571 2.373 2.372 1.705 6.161-1.571 8.918-1.65 1.388-3 3.479-3 4.647s-.45 1.846-1 1.506c-.583-.361-1 .656-1 2.441 0 2.568.388 3.059 2.417 3.059 1.329 0 2.643.563 2.921 1.25.277.688.54-.014.583-1.559.045-1.603.508-2.544 1.079-2.191.55.34 1-.128 1-1.04s1.35-2.919 3-4.46 3-3.747 3-4.901c0-1.155.45-2.099 1-2.099s1-1.152 1-2.559c0-1.451-.433-2.292-1-1.941-.569.352-1-.509-1-2s-.431-2.352-1-2c-.55.34-1-.084-1-.941 0-1.006-.908-1.559-2.559-1.559-1.451 0-2.292-.433-1.941-1 .374-.605-1.009-1-3.5-1s-3.874.395-3.5 1m-499.825 4.403c-.588 1.533 20.888 3.322 26.705 2.225 2.936-.553 19.383-.722 73.62-.755 16.775-.01 31.175-.043 32-.073s1.95.056 2.5.191 5.373.193 10.719.127c8.197-.099 9.628-.353 9.143-1.618-.841-2.191-153.846-2.286-154.687-.097M240.5 900.92c-1.877.428.602.739 6.618.831 5.29.08 10.915-.242 12.5-.716 3.548-1.063-14.485-1.17-19.118-.115m22.5.17c0 .433 5.855.78 13.012.772 7.156-.008 12.783-.385 12.503-.837-.65-1.052-25.515-.988-25.515.065m66.216.09c-.944.374 8.859.672 21.784.664 16.097-.011 22.555-.311 20.5-.953-3.321-1.036-39.562-.789-42.284.289m-29.936.556c2.629.207 6.679.204 9-.005 2.321-.21.17-.379-4.78-.376s-6.849.175-4.22.381m-246.03 3.751c-.845.966-1.25 5.165-1.25 12.971 0 10.986.099 11.542 2.059 11.542 1.132 0 1.857.337 1.609.75-.247.413 4.712.878 11.022 1.036 7.723.192 11.263-.053 10.832-.75-.372-.602.329-1.03 1.669-1.021 1.888.013 2.035.203.809 1.041-1.765 1.207 112.113.678 115.75-.537 2.119-.708 2.25-1.296 2.25-10.077 0-5.128.445-9.599.989-9.935.612-.378.42-1.48-.504-2.889-.82-1.253-1.202-2.568-.847-2.922.354-.355-31.707-.643-71.247-.641-61.042.004-72.08.22-73.141 1.432M234.5 905c.34.55-.084 1-.941 1-1.314 0-1.559 1.663-1.559 10.571 0 10.911.432 12.239 4.5 13.817 4.041 1.568 82.606 2.04 83.68.503.75-1.072 1.088-1.105 1.479-.141.664 1.634 28.628 1.743 33.258.129 2.898-1.01 3.185-1.468 2.912-4.64-.344-3.999 1.965-5.614 5.921-4.141 2.319.863 3.335 5.902 1.191 5.902-.582 0-.781.45-.441 1 1.154 1.867 13.182 1.227 14.09-.75 1.302-2.834 1.087-21.573-.264-23-1.522-1.607-144.819-1.857-143.826-.25m89.5 1c1.925.405 3.275.834 3 .953-.506.219-35.045 1.076-42.614 1.057l-4.114-.01-.189 8.583c-.119 5.376.25 9.113.986 10 1.581 1.905 47.842 2.106 49.731.217 1.312-1.312 1.749-19.251.45-18.464-.413.25-1.299-.141-1.971-.867-.961-1.041-.961-1.427 0-1.816.672-.273-1.029-.471-3.779-.442-4.694.049-4.786.097-1.5.789m35.75-.311c-1.292.338-1.75 1.486-1.75 4.384 0 3.915-.012 3.927-4 3.927-3.564 0-4 .264-4 2.418 0 4.343 1.023 5.582 4.607 5.582 3.292 0 3.393-.119 3.393-4 0-3.917.073-4 3.559-4 2.436 0 3.334-.364 2.846-1.155-.443-.715-.275-.883.44-.44 2.125 1.312 1.239-3.597-.998-5.538-1.184-1.027-2.197-1.815-2.25-1.751s-.885.322-1.847.573M153.5 909.06c3.552.53 1.09.733-8.5.701-7.425-.024-14.287.02-15.25.097-2.192.178-2.643 14.45-.5 15.827 1.532.985 23.492 1.518 29.913.726 3.962-.488 4.844-1.013 5.871-3.493 1.428-3.449 2.04-3.59 3.966-.918 1.096 1.52 2.589 2 6.221 2 4.539 0 4.781-.138 4.811-2.75.029-2.488.157-2.585 1.349-1.016.724.954 1.61 1.442 1.968 1.084s.651.099.651 1.015c0 2.539 8.184 2.626 10.696.114 1.422-1.422 1.519-8.698.104-7.823-.44.272-.8-.155-.8-.948 0-.794-1.125-1.658-2.5-1.921-3.269-.625-7.627.23-6.929 1.359.301.487.008.886-.652.886-.659 0-1.796.788-2.527 1.75-1.237 1.63-1.331 1.604-1.36-.379-.065-4.352-7.973-5.381-12.282-1.598-1.3 1.142-1.75 1.205-1.75.248 0-3.304-5.333-6.023-11.5-5.863l-6 .156zm183.7.14c-2.377 2.377-1.485 6.8 1.371 6.8 4.34 0 5.762-2.307 3.328-5.401-2.295-2.918-2.977-3.121-4.699-1.399m-278.831 2.3c-4.561 2.556-5.8 7.031-2.977 10.75 1.832 2.413 66.786 2.715 69.179.321 2.448-2.447 1.812-8.274-1.113-10.19-2.999-1.966-61.734-2.76-65.089-.881m180.881 1.996c-1.689 1.919-1.583 7.314.179 9.075.785.786 2.842 1.429 4.571 1.429 3.993 0 6-2.007 6-6 0-1.729-.643-3.786-1.429-4.571-1.826-1.827-7.691-1.785-9.321.067m126.173 1.781c-.759.83-.768 1.997-.031 3.95 1.997 5.292 9.58 2.782 8.201-2.714-.695-2.768-6.03-3.574-8.17-1.236M252 918.06c0 2.77 7.286 2.481 7.815-.31.272-1.435-.403-1.75-3.742-1.75-3.446 0-4.073.317-4.073 2.06m9.481-1.029c-1.093 1.769.97 3.16 4.147 2.797 4.02-.459 3.803-3.238-.284-3.634-1.736-.169-3.474.208-3.863.837M921.2 919.2c-1.641 1.641-1.505 3.638.375 5.518 2.182 2.182 5.993-1.352 4.962-4.6-.738-2.328-3.459-2.796-5.337-.918m-583.95.462c-1.762.711-1.555 5.176.328 7.059 1.437 1.437 1.811 1.345 4.189-1.034 2.552-2.551 2.57-2.658.767-4.649-1.844-2.038-2.937-2.323-5.284-1.376m612.353 7.838c-1.044.79-2.281 1.199-2.75.909s-.853.175-.853 1.032-.45 1.559-1 1.559c-1.54 0-1.184 7.959.429 9.571.785.786 2.135 1.429 3 1.429.864 0 1.571.45 1.571 1s1.125 1 2.5 1 2.5-.45 2.5-1 .482-1 1.071-1c2.285 0 6.943-7.162 5.065-7.788-.625-.208-1.136-1.151-1.136-2.095 0-1.786-1.812-4.117-3.2-4.117-.44 0-.8 1.35-.8 3s.45 3 1 3 1 .702 1 1.559-.45 1.281-1 .941-1 .21-1 1.223c0 2.311-4.528 2.892-6.576.844-1.375-1.376-2.035-6.567-.834-6.567.324 0 1.41 1.013 2.414 2.25 2.208 2.724 2.75 2.317 3.004-2.25.366-6.585-.493-7.462-4.405-4.5"/></svg>