<svg xmlns="http://www.w3.org/2000/svg" viewBox="0 0 1024 1024"><path fill="#00e5cc" d="M265.553 349.086c.767 1.241 92.447 1.141 92.447-.102 0-.496-20.338-.879-46.524-.876-29.89.003-46.309.353-45.923.978m99.377-.022c-.856.542 72.183.886 182.07.857 100.925-.026 182.582-.42 181.461-.874-2.823-1.144-361.723-1.127-363.531.017m373.61-.129c-.34.55 3.685 1.065 9.776 1.25 7.786.237 10.354.005 10.353-.935-.003-1.51-19.205-1.81-20.129-.315m-475.873 1.732c-.367.366-.667 1.743-.667 3.059 0 1.34-.44 2.12-1 1.774-.55-.34-1 .328-1 1.485 0 1.156-1.112 3.302-2.471 4.767-1.756 1.894-2.126 2.879-1.277 3.404 1.365.844 2.915-1.077 2.028-2.513-.333-.537-.055-.622.636-.195.673.416 1.614 1.723 2.091 2.904.678 1.683.88 1.137.93-2.519.034-2.566.509-4.816 1.054-5 .546-.183 1.094-1.571 1.218-3.083.125-1.512.579-2.75 1.009-2.75s.782-.45.782-1c0-1.125-2.311-1.356-3.333-.333m497.591 3.579-.134 4.254 1.002-3.386c.566-1.915.624-3.764.134-4.254-.491-.491-.927.98-1.002 3.386m1.757 7.004c.011 3.758.291 4.824.985 3.75.533-.825.976-1.107.985-.628.008.48.7.304 1.538-.391 1.263-1.048 1.422-1.001.932.276-.325.848-.158 1.809.372 2.136 2.161 1.336 1.827-2.286-.436-4.727-1.339-1.444-2.425-2.86-2.413-3.146.086-2.05-.097-2.52-.978-2.52-.55 0-.993 2.363-.985 5.25M395.5 361l-4 .716 3.691.142c2.03.078 3.969-.308 4.309-.858s.479-.936.309-.858-2.109.464-4.309.858m-149.162 6.438c.51 1.329.299 1.637-.827 1.205-1.004-.385-1.511.025-1.511 1.222 0 2.873 1.225 3.317 2.438.884.616-1.236 2.447-2.524 4.089-2.876 2.179-.466 2.394-.668.805-.755-1.193-.065-2.958-.421-3.924-.792-1.385-.531-1.611-.297-1.07 1.112m518.215 2.812c-.427 2.063-1.288 3.788-1.914 3.835-1.036.077-495.155.026-500.389-.052-1.503-.022-2.25-.642-2.25-1.866 0-3.465-1.353-3.181-2.637.554-1.383 4.024-.725 10.593.675 6.743.393-1.08.359-2.414-.077-2.964-1.082-1.368 504.876-.88 506.525.488.814.676 1.232.519 1.347-.504.092-.816.242-2.118.334-2.892.091-.775 1.554-1.754 3.25-2.176l3.083-.767-3.188-.383c-1.955-.235-3.342-1.038-3.586-2.075-.224-.955-.735-.059-1.173 2.059M252.5 371c.34.55 1.266 1 2.059 1s1.441-.45 1.441-1-.927-1-2.059-1-1.781.45-1.441 1m-10.414 5c.03.825.441 2.4.914 3.5l.859 2 .055-2c.031-1.1-.381-2.675-.914-3.5-.862-1.333-.963-1.333-.914 0m5.929.417c.038 2.688 1.724 3.726 2.18 1.342.303-1.584.002-2.426-.866-2.426-.731 0-1.322.488-1.314 1.084m526.556 1.154c-.367 1.466-.443 2.89-.168 3.165s.801-.699 1.168-2.165c.368-1.465.444-2.889.169-3.164s-.801.699-1.169 2.164m6 1c-.367 1.466-.443 2.89-.168 3.165s.801-.699 1.168-2.165c.368-1.465.444-2.889.169-3.164s-.801.699-1.169 2.164m-515.713 5.841c-.633 1.389-1.535 2.288-2.004 1.998-.47-.291-.854.399-.854 1.531s.45 2.059 1 2.059 1-.675 1-1.5.884-2.384 1.964-3.464c1.088-1.088 1.536-2.227 1.004-2.556-.528-.326-1.477.543-2.11 1.932M240.61 385.5c.823 3.677 1.395 4.475 1.375 1.917-.009-1.054-.472-2.592-1.031-3.417-.741-1.095-.834-.691-.344 1.5m13.39-.118c0 1.375.45 2.778 1 3.118.565.349 1-.47 1-1.882 0-1.375-.45-2.778-1-3.118-.565-.349-1 .47-1 1.882m515.116-.714c-.064.643-.407 1.993-.763 3-.502 1.421-.369 1.576.594.688.682-.629 1.026-1.979.763-3s-.53-1.33-.594-.688m-501.462 2.582c.255.413 27.325.689 60.155.614s58.791-.294 57.691-.486c-4.127-.722-118.29-.846-117.846-.128m180.846-.236c-34.907.367-18.368.56 57.5.671 58.575.087 106.049-.033 105.498-.265-1.64-.69-110.185-.96-162.998-.406m204.366.069c-.622.384 4.217.705 10.752.713s11.207-.142 10.382-.334c-3.173-.74-20.059-1.043-21.134-.379m-23.116.649c2.337.211 6.163.211 8.5 0 2.337-.21.425-.383-4.25-.383s-6.587.173-4.25.383m54.537.008c3.182.199 8.132.197 11-.004 2.867-.201.263-.364-5.787-.362s-8.396.167-5.213.366m33.475-.033c1.244.239 3.044.23 4-.02s-.062-.446-2.262-.435-2.982.216-1.738.455m20.027.034c3.459.196 8.859.195 12-.003s.311-.358-6.289-.356-9.17.164-5.711.359m-499.64 3.759c-.005 1.1.342 2.899.771 3.998.669 1.714.847 1.544 1.249-1.197.258-1.758.139-2.991-.265-2.742-.403.249-.961-.112-1.24-.803-.278-.691-.51-.356-.515.744m5.992.5c0 .825.386 2.4.859 3.5.542 1.261.859 1.445.859.5 0-.825-.386-2.4-.859-3.5-.542-1.261-.859-1.445-.859-.5m7.929.691c.039.995.457 2.709.93 3.809.724 1.686.87 1.499.93-1.191.038-1.755-.38-3.469-.93-3.809s-.968.196-.93 1.191M762.5 396c-.375 1.183-.458 2.376-.183 2.651s.808-.468 1.183-1.651.458-2.376.183-2.651-.808.468-1.183 1.651m-526.469 3.5c0 1.1.436 2.675.969 3.5.803 1.242.969 1.156.969-.5 0-1.1-.436-2.675-.969-3.5-.803-1.242-.969-1.156-.969.5m5.795 2.232c-.288 1.964 0 2.935.872 2.935 1.473 0 1.702-2.488.415-4.518-.612-.967-.979-.515-1.287 1.583m8.174-.35c0 1.375.45 2.778 1 3.118.565.349 1-.47 1-1.882 0-1.375-.45-2.778-1-3.118-.565-.349-1 .47-1 1.882m530.5.618c-.375 1.183-.458 2.376-.183 2.651s.808-.468 1.183-1.651.458-2.376.183-2.651-.808.468-1.183 1.651m-522.485 1.25c.035 2.854 1.954 4.316 1.97 1.5.008-1.512-.435-2.75-.985-2.75s-.993.563-.985 1.25M764.5 404c-.375 1.183-.458 2.376-.183 2.651s.808-.468 1.183-1.651.458-2.376.183-2.651-.808.468-1.183 1.651M262 406.382c0 .825.45 1.778 1 2.118s1-.057 1-.882-.45-1.778-1-2.118-1 .057-1 .882m-28 2.649c0 3.582 1.58 3.948 2.235.519.286-1.496-.057-2.652-.883-2.969-.949-.364-1.352.367-1.352 2.45m203.479-2.065c.293.474 15.267.876 33.277.894 18.651.018 31.883-.331 30.744-.811-2.645-1.115-64.708-1.195-64.021-.083m67.521.063c-1.896 1.261 79.141 1.13 81.133-.132.784-.497-15.914-.866-39.133-.866-25.283 0-41.064.375-42 .998m-256.93 1.162c.039.72.457 2.209.93 3.309.767 1.786.867 1.712.93-.691.038-1.48-.38-2.969-.93-3.309s-.968-.029-.93.691m540.501 1.38c-.367 1.466-.475 2.858-.24 3.094.236.235.73-.771 1.098-2.236.367-1.466.475-2.858.24-3.094-.236-.235-.73.771-1.098 2.236m-5.455-.903c-.064.643-.407 1.993-.763 3-.502 1.421-.369 1.576.594.688.682-.629 1.026-1.979.763-3s-.53-1.33-.594-.688M256.031 411c0 .825.436 2.175.969 3 .862 1.333.969 1.333.969 0 0-.825-.436-2.175-.969-3-.862-1.333-.969-1.333-.969 0m73.55 2.131c.717 1.161 5.459 1.613 6.097.58.362-.584.138-.715-.523-.306-.635.392-1.155.284-1.155-.24s-1.082-.889-2.404-.809-2.229.428-2.015.775m56.117.213c-.37.964.17 1.213 1.908.88 3.319-.634 4.076-2.224 1.06-2.224-1.349 0-2.684.605-2.968 1.344m10.317 10.347c.011 7.994.329 11.324.985 10.309 1.285-1.989 1.285-20.706 0-21.5-.645-.399-.995 3.569-.985 11.191m243.475-10.675c-.346.559-1.16.707-1.809.328-.65-.378-.393.212.569 1.313 1.966 2.248 2.455 6.897.605 5.753-.819-.506-.93.117-.388 2.191.417 1.595.97 5.712 1.231 9.149.862 11.389 2.396 6.771 2.242-6.75-.135-11.878-.727-14.772-2.45-11.984m56.51 3.788v4.805l-4.015.237c-4.873.287-6.025-1.601-3.42-5.604 1.296-1.992 1.37-2.403.268-1.501-.835.683-1.744 1.014-2.022.736s-.547.954-.598 2.737c-.107 3.75 1.041 4.749 5.478 4.771 1.755.008 3.512.535 3.904 1.17.417.674.277.884-.336.505-.577-.357-1.302.009-1.611.814s-.061 1.771.55 2.148c.673.416.83.232.397-.467-.392-.635-.236-1.155.346-1.155.616 0 1.059 2.278 1.059 5.441 0 2.993.337 5.65.75 5.905s.75-1.856.75-4.691.301-7.855.669-11.155c.434-3.891.359-5.121-.212-3.5-.711 2.019-.817 1.683-.55-1.75.182-2.337-.06-4.25-.538-4.25s-.869 2.162-.869 4.804m-462.75-3.142c-1.437.58-1.618 3.209-.357 5.199.599.945.991.258 1.284-2.25.232-1.986.399-3.575.372-3.532s-.611.306-1.299.583m26.75.72c0 .825.45 1.778 1 2.118s1-.057 1-.882-.45-1.778-1-2.118-1 .057-1 .882m122.279 6.359c-.051 4.268.129 7.194.4 6.503.27-.691.872-1.021 1.337-.734s1.128.065 1.474-.494c.345-.559.039-1.03-.681-1.048-.865-.021-.712-.484.452-1.368 1.559-1.184 1.588-1.48.25-2.591-.831-.69-1.518-2.211-1.526-3.381-.046-6.327-1.628-3.438-1.706 3.113m240.049-1.241c.005 3.85.185 5.302.402 3.228.216-2.075.213-5.225-.008-7s-.398-.078-.394 3.772m-282.082 1.75c-.052 6.714.005 6.917.775 2.75 1.113-6.029 1.165-10 .131-10-.467 0-.874 3.262-.906 7.25m450.504-5.678c-.413.419-.736 2.149-.72 3.845.026 2.61.19 2.81 1.066 1.304 1.143-1.964.848-6.362-.346-5.149m-454.083 1.095c-1.106 1.105-.75 6.164.488 6.928.689.426.884.276.483-.371-.369-.597-.212-1.369.348-1.716.669-.413.687-1.25.052-2.437-.532-.995-.683-2.092-.336-2.44s.406-.631.131-.631-.8.3-1.166.667m55.348.754c-.008 1.057-.76 2.744-1.67 3.75-.99 1.094-1.191 1.829-.5 1.829.635 0 1.155-.505 1.155-1.122 0-.776.464-.738 1.5.122 1.789 1.485 2.178-2.404.5-5-.811-1.254-.972-1.185-.985.421m384.705-.089c-1.114 2.833-.932 4.28.374 2.974.601-.601.926-1.929.72-2.95-.36-1.79-.399-1.791-1.094-.024m7.887.25c-.911 2.374-.745 3.085.722 3.085.854 0 1.17-.836.884-2.334-.526-2.751-.791-2.875-1.606-.751m-462.139 8.37c.331 5.198.782 9.631 1.001 9.851.926.925.368-16.436-.572-17.803-.724-1.053-.852 1.319-.429 7.952m-68.453-5.761c.03 2.511 1.952 4.579 1.97 2.118.008-1.205-.435-2.469-.985-2.809s-.993-.029-.985.691M630 421c0 1.1.354 2 .787 2s.855-.9.938-2-.271-2-.787-2-.938.9-.938 2m52 .819c0 3.822 1.606 5.021 2.246 1.676.269-1.407-.115-2.971-.886-3.611-1.096-.91-1.36-.535-1.36 1.935m86.72-1.487c-1.114 2.833-.932 4.28.374 2.974.601-.601.926-1.929.72-2.95-.36-1.79-.399-1.791-1.094-.024m-443.164.578c-.776 1.255.501 4.351 2.371 5.751 2.176 1.63 2.81.909 2.294-2.607-.245-1.668-.845-2.787-1.333-2.485s-.888.072-.888-.51c0-1.297-1.672-1.399-2.444-.149m269.696 2.59c.011 2.2.216 2.982.455 1.738s.23-3.044-.02-4-.446.062-.435 2.262m-365.237-.289c.024 3.591 1.619 5.483 2.175 2.578.251-1.317-.138-2.951-.866-3.631-1.073-1.003-1.321-.803-1.309 1.053M428 431.726c0 8.169.292 10.172 1.552 10.656.854.327 1.333.242 1.066-.191-.267-.432-.777-5.038-1.132-10.236-.859-12.537-1.486-12.634-1.486-.229m364.451-8.376c-.577.633-.751 2.275-.388 3.65.548 2.069.785 2.211 1.378.823 1.075-2.514.322-5.912-.99-4.473m-556.381 1.341c.039.445.457 1.709.93 2.809.829 1.928.862 1.921.93-.191.038-1.205-.38-2.469-.93-2.809s-.968-.254-.93.191m219.492 1.007c-.492 1.284-1.623 1.453-6.152.92-3.662-.43-5.335-.306-4.92.365.345.559 3.076 1.017 6.069 1.017 3.163 0 5.441.443 5.441 1.059 0 1.668 1.704.182 2.269-1.979.618-2.362-1.848-3.621-2.707-1.382M552 425c0 .65-14.361 1-41.083 1-32.445 0-40.987.263-40.625 1.25.252.688 1.077 1.027 1.833.754 2.983-1.076 79.304-.218 79.675.895.698 2.094 1.975 1.089 2.413-1.899.301-2.047.019-3-.886-3-.73 0-1.327.45-1.327 1m234.607.582c-.911 2.374-.745 3.085.722 3.085.854 0 1.17-.836.884-2.334-.526-2.751-.791-2.875-1.606-.751M566 426.941c0 1.068.45 2.219 1 2.559s1 .171 1-.375c0-.545 1.013-1.185 2.25-1.421 1.686-.321 1.587-.385-.396-.255-1.818.12-2.489-.236-2.143-1.137.276-.722.005-1.312-.604-1.312s-1.107.873-1.107 1.941m10 .059c0 .55.675 1 1.5 1s1.5-.45 1.5-1-.675-1-1.5-1-1.5.45-1.5 1m59.962.546c-.705.85-1.998 1.273-2.872.94-1.224-.465-1.318-.331-.411.583.909.917 1.797.701 3.885-.94 1.488-1.171 2.25-2.129 1.693-2.129s-1.589.695-2.295 1.546m-304.396 1.348c-.304.491.526.829 1.845.75s2.189-.481 1.934-.894c-.64-1.036-3.108-.942-3.779.144M228.17 430c.051 2.598 1.625 6.866 1.66 4.5.016-1.1-.357-2.9-.83-4-.527-1.225-.848-1.419-.83-.5m5.971 2c0 .825.386 2.4.859 3.5.542 1.261.859 1.445.859.5 0-.825-.386-2.4-.859-3.5-.542-1.261-.859-1.445-.859-.5m7.89 0c0 .825.436 2.175.969 3 .862 1.333.969 1.333.969 0 0-.825-.436-2.175-.969-3-.862-1.333-.969-1.333-.969 0m352.039 3.75c.138 5.377 1.784 7.148 1.86 2 .038-2.613-.38-4.75-.93-4.75s-.968 1.238-.93 2.75m-344.055.441c.03 2.511 1.952 4.579 1.97 2.118.008-1.205-.435-2.469-.985-2.809s-.993-.029-.985.691m-24.21 4.05c-.303 1.584-.002 2.426.866 2.426 1.509 0 1.704-1.527.448-3.509-.628-.99-.972-.707-1.314 1.083M240.17 439c.051 2.598 1.625 6.866 1.66 4.5.016-1.1-.357-2.9-.83-4-.527-1.225-.848-1.419-.83-.5m556.401 1.571c-.367 1.466-.443 2.89-.168 3.165s.801-.699 1.168-2.165c.368-1.465.444-2.889.169-3.164s-.801.699-1.169 2.164m-564.485-.071c-.031 1.1.381 2.675.914 3.5 1.285 1.988 1.285-.51 0-3.5l-.859-2zm15.945 3.5c0 .825.436 2.175.969 3 .862 1.333.969 1.333.969 0 0-.825-.436-2.175-.969-3-.862-1.333-.969-1.333-.969 0m526.469 2c-.375 1.183-.458 2.376-.183 2.651s.808-.468 1.183-1.651.458-2.376.183-2.651-.808.468-1.183 1.651M224 447.382c0 1.375.45 2.778 1 3.118.565.349 1-.47 1-1.882 0-1.375-.45-2.778-1-3.118-.565-.349-1 .47-1 1.882m28.015.309c-.008 1.205.435 2.469.985 2.809 1.273.787 1.273-1.53 0-3.5-.788-1.219-.972-1.09-.985.691m545.795-1.167c-.288.287-.303 1.679-.033 3.091.359 1.879.72 2.208 1.342 1.227 1.707-2.693.627-6.255-1.309-4.318m-559.795 2.667c-.008 1.48.435 2.969.985 3.309 1.277.789 1.277-2.524 0-4.5-.758-1.173-.973-.914-.985 1.191m546.556.38c-.367 1.466-.443 2.89-.168 3.165s.801-.699 1.168-2.165c.368-1.465.444-2.889.169-3.164s-.801.699-1.169 2.164m7.929.429c-.375 1.183-.458 2.376-.183 2.651s.808-.468 1.183-1.651.458-2.376.183-2.651-.808.468-1.183 1.651M246 453.792c0 1.05.487 3.305 1.081 5.011l1.082 3.102 263.652-.115c188.468-.082 263.943-.425 264.669-1.203.559-.598 1.127-2.887 1.262-5.087.178-2.906-.023-3.59-.735-2.5-.539.825-.987 2.738-.996 4.25L776 460H248v-3.441c0-1.893-.45-3.719-1-4.059s-1 .241-1 1.292m-23.985 1.399c.009 1.27.452 2.984.985 3.809.738 1.141.973.737.985-1.691.008-1.755-.435-3.469-.985-3.809-.558-.345-.993.403-.985 1.691m579.101-.382c-.064.72-.501 1.071-.972.78-.47-.291-.632.639-.359 2.066.419 2.193.639 2.339 1.423.938.509-.911.723-2.429.475-3.374s-.503-1.13-.567-.41m-563.866.853c-1.411.569-1.738 6.338-.359 6.338.489 0 1.074-1.575 1.299-3.5s.386-3.464.359-3.421-.611.306-1.299.583m12.75.397c0 .582.419.8.931.484s1.213-.118 1.559.441c.406.656 12.872 1.016 35.236 1.016 19.034 0 34.331-.276 33.994-.614s-15.926-.587-34.642-.554c-20.354.035-34.263-.322-34.612-.887-.79-1.278-2.466-1.2-2.466.114m-22 1.323c0 .825.45 1.778 1 2.118s1-.057 1-.882-.45-1.778-1-2.118-1 .057-1 .882m103.999-.132c.001.413 9.526.75 21.168.75s20.948-.219 20.681-.486c-.811-.81-41.85-1.07-41.849-.264M381 457.1c-2.475.33 49.05.632 114.5.671s118.55-.11 118-.331c-1.643-.66-227.617-.991-232.5-.34m254-.06c-11.609.404-7.111.592 17.917.75 18.379.115 33.197-.009 32.929-.277-.764-.764-33.699-1.07-50.846-.473m59.395.092c-1.592.347 5.205.609 15.105.582 19.034-.053 18.757-.484-.605-.941-6.382-.15-12.907.011-14.5.359m63.605-.055-6.5.578 8.25.172c7.91.166 10.235-.178 6.5-.96-.962-.202-4.675-.107-8.25.21m-28.238.63c1.244.239 3.044.23 4-.02s-.062-.446-2.262-.435-2.982.216-1.738.455m73.374 4.602c-.075.995-.521 1.571-.992 1.28-.47-.291-.632.639-.359 2.066.419 2.191.64 2.337 1.421.941.509-.909.732-2.653.496-3.875-.313-1.62-.466-1.732-.566-.412m-567.886 1.832c-2.11 2.125-1.433 3.86 1.5 3.844 1.538-.009 2.25-.339 1.616-.75-.624-.404-1.299-1.549-1.5-2.544-.294-1.451-.613-1.56-1.616-.55m-17.101 6.359c-.005 1.1.342 2.899.771 3.998.669 1.714.847 1.544 1.249-1.197.258-1.758.139-2.991-.265-2.742-.403.249-.961-.112-1.24-.803-.278-.691-.51-.356-.515.744m586.406 1.322c-.41 1.826-.499 3.567-.199 3.868.753.752 1.945-4.3 1.392-5.897-.246-.711-.783.202-1.193 2.029m-5.984 1.749c-.367 1.466-.475 2.858-.24 3.094.236.235.73-.771 1.098-2.236.367-1.466.475-2.858.24-3.094-.236-.235-.73.771-1.098 2.236m-566.091 1.462c-.192.309.065 1.216.571 2.015.63.996.923 1.06.934.202.012-.997 56.223-1.25 277.682-1.25 152.716 0 277.414-.253 277.105-.562-.736-.735-555.838-1.14-556.292-.405m-16.41 3.158c.039.72.457 2.209.93 3.309.767 1.786.867 1.712.93-.691.038-1.48-.38-2.969-.93-3.309s-.968-.029-.93.691m5.961 2.809c0 .825.436 2.175.969 3 .862 1.333.969 1.333.969 0 0-.825-.436-2.175-.969-3-.862-1.333-.969-1.333-.969 0m8.048 4.167c-.044 2.585-.596 4.839-1.239 5.053-.868.289-.876.876-.03 2.333.859 1.481 1.136 1.575 1.16.396.058-2.97 2.543-6.933 4.351-6.941 1.619-.007 1.655-.175.322-1.508-.825-.825-1.945-1.5-2.488-1.5-.544 0-1.215-.562-1.493-1.25-.277-.687-.54.85-.583 3.417m-16.305 1.235c-.289 1.51.072 3.055.866 3.714 1.082.898 1.357.644 1.345-1.244-.025-3.778-1.62-5.562-2.211-2.47m576.304.899c-.738 1.209-.997 1.877-.578 1.484s1.604-.265 2.631.285c2.229 1.193 2.694-1.14.578-2.897-.965-.8-1.63-.515-2.631 1.128m-271.39.892c-2.323 1.435.257 1.559 17.812.852 18.079-.727 17.095-1.004-4.841-1.359-6.512-.106-12.349.122-12.971.507m128.562-.477c1.513.229 3.987.229 5.5 0s.275-.416-2.75-.416-4.263.187-2.75.416M679.5 489c2.808 1.207 6.746 1.207 6 0-.34-.55-2.279-.968-4.309-.93-2.975.057-3.303.237-1.691.93m37.267.167c.864.864 1.763.881 3.45.068 2.144-1.033 2.073-1.104-1.167-1.167-2.63-.052-3.172.21-2.283 1.099M802.5 490c-.375 1.183-.458 2.376-.183 2.651s.808-.468 1.183-1.651.458-2.376.183-2.651-.808.468-1.183 1.651M532 491c1.375.44 5.425.785 9 .767l6.5-.034-5-.779c-6.971-1.086-13.939-1.055-10.5.046m262.667.667c-.367.366-.667 1.941-.667 3.5 0 2.395-.425 2.851-2.75 2.951l-2.75.119 3 .763c1.927.49-1.264.806-8.917.882-14.935.148-14.598.757.923 1.667 6.597.387 12.136 1.071 12.309 1.521s.972.565 1.775.257c1.134-.435 1.2-.875.296-1.965-.641-.772-1.334-3.276-1.54-5.564-.407-4.518-.663-5.148-1.679-4.131M212.149 493.5c-.005 1.1.342 2.899.771 3.998.669 1.714.847 1.544 1.249-1.197.258-1.758.139-2.991-.265-2.742-.403.249-.961-.112-1.24-.803-.278-.691-.51-.356-.515.744m546.101-.784c1.513.229 3.987.229 5.5 0s.275-.416-2.75-.416-4.263.187-2.75.416m-13 1c1.513.229 3.987.229 5.5 0s.275-.416-2.75-.416-4.263.187-2.75.416M228 497.678c0 1.057-.489 2.411-1.087 3.009-1.54 1.54.014 2.03 4.087 1.288 3.495-.637 3.496-.639 1-1.743-2.455-1.086-2.438-1.109 1-1.318 3.431-.209 3.441-.222.5-.652-1.65-.242-3.562-.904-4.25-1.473-.925-.765-1.25-.534-1.25.889m576.607-.096c-.911 2.374-.745 3.085.722 3.085.854 0 1.17-.836.884-2.334-.526-2.751-.791-2.875-1.606-.751M210.141 501c0 .825.386 2.4.859 3.5.542 1.261.859 1.445.859.5 0-.825-.386-2.4-.859-3.5-.542-1.261-.859-1.445-.859-.5m29.359-.076c-1.494.584-.608.948 3.5 1.435 12.945 1.535 14.492 1.632 12.504.789-3.288-1.395 5.322-2.226 21.332-2.058 7.842.082 14.537-.13 14.878-.471.912-.911-49.864-.615-52.214.305m54.839-.251c1.089 1.089 30.83 1.478 35.178.46 2.936-.687-1.255-.959-15.934-1.033-10.954-.055-19.614.203-19.244.573m41.911.016c.962.252 2.538.252 3.5 0 .962-.251.175-.457-1.75-.457s-2.712.206-1.75.457m16.341.164c-.508.821 47.445.444 48.269-.379.294-.295-10.345-.493-23.644-.439s-24.38.421-24.625.818M410 501l-2.5.801 2.5.156c1.375.086 7.675.086 14-.001 36.012-.493 73.794.058 71.5 1.044-1.794.771-1.813.867-.184.93.998.038 2.765-.438 3.926-1.06 3.347-1.791 65.839-1.174 68.838.68.412.254.92-.049 1.128-.674.278-.835 26.813-1.217 100.191-1.445 54.897-.17 100.065-.561 100.373-.87.889-.889-356.989-.452-359.772.439m-193.859 3c0 .825.386 2.4.859 3.5.542 1.261.859 1.445.859.5 0-.825-.386-2.4-.859-3.5-.542-1.261-.859-1.445-.859-.5m357.109-.272c2.063.216 5.438.216 7.5 0 2.063-.215.375-.392-3.75-.392s-5.812.177-3.75.392m13-.039c.962.252 2.538.252 3.5 0 .962-.251.175-.457-1.75-.457s-2.712.206-1.75.457m212.444 3.561-.732 2.75-13.231.165-13.231.164 11.5.624c19.218 1.041 18.591 2.97-1 3.074-9.075.049-18.3.461-20.5.916-2.643.546 3.229.866 17.309.942 12.656.068 21.08-.256 20.744-.8-.311-.503-.174-1.065.305-1.25.479-.184.577-2.36.219-4.835-.601-4.151-.708-4.287-1.383-1.75m-574.234.625c.371 1.169.272 2.125-.219 2.125-.492 0-.696 1.35-.454 3l.44 3 30.636-.015c18.053-.009 31.253-.414 32.137-.985.986-.637-9.048-.975-29.309-.985-20.281-.01-30.598-.357-30.191-1.015.34-.55 4.529-1.056 9.309-1.124 19.097-.273 23.523-1.553 5.941-1.719-13.845-.13-16.75-.407-16.75-1.598 0-.793-.498-1.749-1.107-2.125-.745-.461-.887.011-.433 1.441m-16.65 2.345c-.287 1.496-.175 2.505.249 2.244.424-.262.959.089 1.19.78s.655.032.941-1.464c.287-1.496.175-2.505-.249-2.244-.424.262-.959-.089-1.19-.78s-.655-.032-.941 1.464m606.919-.616c-.401.401-.7 1.892-.666 3.313l.064 2.583.965-2.414c1.04-2.602.825-4.669-.363-3.482M261 510.948c.825.562 2.813 1.028 4.417 1.037 3.842.02 3.044-.559-1.917-1.389-2.866-.48-3.575-.381-2.5.352m49 .103c6.553 1.166 19 1.133 19-.051 0-.617-4.5-.952-11.75-.875-9.244.099-10.79.296-7.25.926m84.469-.001c-.445.72 1.81.835 7.191.365 10.181-.889 10.577-1.415 1.066-1.415-4.234 0-7.896.466-8.257 1.05m26.781-.361c.962.252 2.538.252 3.5 0 .962-.251.175-.457-1.75-.457s-2.712.206-1.75.457m108.478.033c1.775.221 4.925.224 7 .008 2.074-.217.622-.397-3.228-.402-3.85-.004-5.548.173-3.772.394m25.355-.338c.936.861 14.88 1.365 14.357.518-.307-.496-3.756-.902-7.666-.902-3.909 0-6.92.173-6.691.384m20.417.507c2.75.335 9.05.349 14 .031 7.979-.512 7.412-.581-5-.609-7.987-.018-11.853.23-9 .578m31.792-.149c3.735.193 9.585.192 13-.003 3.414-.194.358-.352-6.792-.35-7.15.001-9.944.161-6.208.353m20.958-.053c.962.252 2.538.252 3.5 0 .962-.251.175-.457-1.75-.457s-2.712.206-1.75.457m8 0c.962.252 2.538.252 3.5 0 .962-.251.175-.457-1.75-.457s-2.712.206-1.75.457m12.5.017c1.237.238 3.263.238 4.5 0 1.237-.239.225-.434-2.25-.434s-3.487.195-2.25.434m18 .031c2.888.202 7.612.202 10.5 0s.525-.367-5.25-.367-8.138.165-5.25.367M808.5 514c-.375 1.183-.458 2.376-.183 2.651s.808-.468 1.183-1.651.458-2.376.183-2.651-.808.468-1.183 1.651M297 515c-.999.646 3.843.933 14.5.86 11.384-.079 14.702-.341 11.5-.911-6.393-1.138-24.215-1.103-26 .051m33.5.072c4.046 1.214 287.37 1.091 285.449-.125-.862-.545-59.545-.888-144.949-.846-86.743.043-142.313.427-140.5.971m290.5-.144c0 1.289 90.591 1.543 91.387.256.277-.449-20.171-.932-45.441-1.073-32.189-.179-45.946.065-45.946.817m96.388-.109c.77 1.246 10.612 1.459 10.612.23 0-.606-2.345-1.049-5.559-1.049-3.057 0-5.331.368-5.053.819m-495.661 2.117c-.351 1.34-.085 1.755.886 1.382 1.575-.604 1.817-1.934.501-2.748-.488-.301-1.112.314-1.387 1.366m-15.963 1.516c-.279 1.46.093 3.014.876 3.664 1.088.903 1.36.604 1.36-1.494 0-1.442.034-2.948.075-3.347.213-2.064-1.897-.989-2.311 1.177M816.5 520c-.38 1.729-.482 3.351-.227 3.606s.751-.974 1.102-2.731.454-3.38.227-3.606c-.226-.227-.722 1.002-1.102 2.731m-481-1c-1.261.542-1.445.859-.5.859.825 0 2.4-.386 3.5-.859 1.261-.542 1.445-.859.5-.859-.825 0-2.4.386-3.5.859m-123.359 1c0 .825.386 2.4.859 3.5.542 1.261.859 1.445.859.5 0-.825-.386-2.4-.859-3.5-.542-1.261-.859-1.445-.859-.5M646 521c-1.91 1.234.146 1.234 4 0l2.5-.801-2.5-.084c-1.375-.046-3.175.352-4 .885m-425.741 4.847.166 4.153 15.537-.015c9.638-.01 14.996-.358 14.111-.919-.785-.496-6.635-.691-13-.432-7.306.297-11.07.127-10.21-.461 1.151-.786 1.151-1.015 0-1.473-1.743-.693 1.442-.788 24.637-.734 10.947.026 19.636-.374 20.5-.945 1.011-.667-6.836-.995-24.05-1.006-17.943-.01-25.893-.358-26.703-1.168-.871-.871-1.113-.137-.988 3m-16.11-.847c-.005.825.338 2.387.762 3.472.694 1.776.822 1.705 1.286-.72.283-1.48.168-2.477-.256-2.216-.424.262-.998-.089-1.277-.78-.342-.85-.509-.771-.515.244m218.351.112c10.06.932 39.104.618 40.155-.434.373-.373-10.534-.615-24.238-.539-20.481.115-23.315.288-15.917.973M553 525c1.957 1.264 4 1.264 4 0 0-.55-1.237-.993-2.75-.985-2.143.012-2.419.23-1.25.985m224.75.031c3.403 1.368 2.697 2.969-1.309 2.969-1.957 0-3.31-.403-3.006-.895.727-1.177-2.021-2.201-3.935-1.467-.825.317-1.5 1.229-1.5 2.028s.45 1.174 1 .834 1-.166 1 .386c0 .63 6.327 1.025 17 1.061 12.195.041 17-.268 17-1.095 0-.834-3.03-.992-11.002-.571-9.799.517-11.104.39-11.935-1.164-.862-1.611-.177-1.725 8.978-1.504 5.451.132 10.372.524 10.935.872s1.024-.069 1.024-.926c0-1.337-1.889-1.55-13.25-1.496-8.948.043-12.52.357-11 .968m40.917.636c-.367.366-.667 1.791-.667 3.166 0 3.05 1.282 2.039 1.739-1.371.339-2.533.087-2.955-1.072-1.795m-6.096 3.904c-.367 1.466-.443 2.89-.168 3.165s.801-.699 1.168-2.165c.368-1.465.444-2.889.169-3.164s-.801.699-1.169 2.164m-602.766.67c-.303 1.584-.002 2.426.866 2.426 1.509 0 1.704-1.527.448-3.509-.628-.99-.972-.707-1.314 1.083M494.5 529c1.1.473 8.75.821 17 .775 13.844-.078 14.345-.142 6.5-.831-11.998-1.052-26.002-1.019-23.5.056m310 4c-.375 1.183-.458 2.376-.183 2.651s.808-.468 1.183-1.651.458-2.376.183-2.651-.808.468-1.183 1.651m-602.292 1.75c.12 1.788.572 3.25 1.005 3.25 1.103 0 .954-3.2-.233-5-.744-1.127-.936-.692-.772 1.75m452.292-1.774c2.962.777 20.224 1.365 19.417.661-.229-.2-5.367-.608-11.417-.906-6.07-.299-9.655-.189-8 .245m166.579-.167c-.043.72-.464 1.071-.935.78-.47-.291-.626.672-.345 2.14l.51 2.668.874-2.363c.481-1.299.672-2.851.425-3.448-.266-.641-.482-.549-.529.223M470 535c0 .55.9 1 2 1s2-.45 2-1-.9-1-2-1-2 .45-2 1m34.5 2c.781 1.264 3.544 1.264 5.5 0 1.113-.72.519-.973-2.309-.985-2.288-.009-3.562.384-3.191.985M218 539c-1.135.733-.648.997 2 1.084 3.22.106 3.3.179 1 .916-1.56.5 1.636.785 8.5.758 7.596-.029 9.762-.263 7-.758l-4-.716 5-.157c9.38-.295 2.505-2.096-8-2.096-5.5 0-10.675.436-11.5.969m311 0c1.957 1.264 4 1.264 4 0 0-.55-1.237-.993-2.75-.985-2.143.012-2.419.23-1.25.985m258.5 0c-1.341.576.737.883 6.309.93 5.268.044 8.083.436 7.691 1.07-.34.55.253 1 1.319 1 2.133 0 4.547-2.301 3.506-3.342-.955-.954-16.464-.672-18.825.342m-587.485 2.191c.009 1.27.452 2.984.985 3.809.738 1.141.973.737.985-1.691.008-1.755-.435-3.469-.985-3.809-.558-.345-.993.403-.985 1.691m487.735-.459c2.337.211 6.163.211 8.5 0 2.337-.21.425-.383-4.25-.383s-6.587.173-4.25.383m28.559.056c-.657.418.55.757 2.691.757s3.348-.339 2.691-.757c-.655-.417-1.866-.757-2.691-.757s-2.036.34-2.691.757M763.5 541c.34.55 2.504.955 4.809.9 3.579-.085 3.826-.216 1.691-.9-3.639-1.166-7.22-1.166-6.5 0m-515.25 1.689c.963.252 2.537.252 3.5 0 .963-.251.175-.457-1.75-.457s-2.713.206-1.75.457M727 543c-1.988 1.285.51 1.285 3.5 0l2-.859-2-.055c-1.1-.031-2.675.381-3.5.914m63 0c3.531 1.131 14.131 1.131 11.5 0-1.1-.473-4.7-.846-8-.83-4.449.022-5.354.236-3.5.83m-583.969 2c0 .825.436 2.175.969 3 .862 1.333.969 1.333.969 0 0-.825-.436-2.175-.969-3-.862-1.333-.969-1.333-.969 0m557.97.25c-.001 1.105 14.245.884 15.999-.249 1.017-.656-1.318-.893-7.249-.734-4.812.128-8.75.57-8.75.983m-549.756 5.03c.04 2.596.45 4.72.913 4.72 1.423 0 1.31-5.299-.17-7.97-.506-.914-.787.317-.743 3.25M198.17 548c.051 2.598 1.625 6.866 1.66 4.5.016-1.1-.357-2.9-.83-4-.527-1.225-.848-1.419-.83-.5m610.83.429c0 .785-.707 2.135-1.571 3-.984.983-1.131 1.571-.393 1.571.648 0 .919.675.602 1.5-.34.886-.011 1.5.803 1.5.977 0 1.358-1.31 1.31-4.5-.037-2.475-.221-4.5-.409-4.5s-.342.643-.342 1.429m15.655.939c-.414 1.577-.516 3.104-.227 3.393.805.805 1.789-2.415 1.361-4.453-.281-1.333-.579-1.054-1.134 1.06M665 551c1.939 1.253 3 1.253 3 0 0-.55-1.013-.993-2.25-.985-1.819.013-1.963.201-.75.985m-460.969 2c0 .825.436 2.175.969 3 .862 1.333.969 1.333.969 0 0-.825-.436-2.175-.969-3-.862-1.333-.969-1.333-.969 0m115.469 0c-.792 1.282 3.517 1.282 5.5 0 1.141-.738.737-.973-1.691-.985-1.755-.008-3.469.435-3.809.985m134 0c.34.55 2.166 1 4.059 1s3.441-.45 3.441-1-1.827-1-4.059-1c-2.451 0-3.814.396-3.441 1m-232.732.725c1.797.222 4.497.218 6-.01 1.503-.229.032-.411-3.268-.405s-4.529.192-2.732.415m-24.753 3.466c.009 1.27.452 2.984.985 3.809.738 1.141.973.737.985-1.691.008-1.755-.435-3.469-.985-3.809-.558-.345-.993.403-.985 1.691m257.3-1.543c.698.698 16.873.497 17.588-.218.237-.236-3.77-.43-8.903-.43s-9.042.292-8.685.648m61.935.08c2.063.216 5.438.216 7.5 0 2.063-.215.375-.392-3.75-.392s-5.812.177-3.75.392m24.949.016c4.785.183 12.885.184 18 .002s1.201-.332-8.699-.333-14.085.148-9.301.331m104.551-.021c1.788.222 4.712.222 6.5 0 1.788-.221.325-.403-3.25-.403s-5.038.182-3.25.403m12.514-.005c1.52.229 3.77.223 5-.014s-.014-.425-2.764-.418-3.756.202-2.236.432m11.986-.029c.962.252 2.538.252 3.5 0 .962-.251.175-.457-1.75-.457s-2.712.206-1.75.457m57.03.047c2.629.207 6.679.204 9-.005 2.321-.21.17-.379-4.78-.376s-6.849.175-4.22.381m58.47-.013c1.788.222 4.712.222 6.5 0 1.788-.221.325-.403-3.25-.403s-5.038.182-3.25.403M202.031 561c0 .825.436 2.175.969 3 .862 1.333.969 1.333.969 0 0-.825-.436-2.175-.969-3-.862-1.333-.969-1.333-.969 0m618.54 1.571c-.367 1.466-.443 2.89-.168 3.165s.801-.699 1.168-2.165c.368-1.465.444-2.889.169-3.164s-.801.699-1.169 2.164m-626.556 2.12c-.008 1.755.435 3.469.985 3.809 1.282.792 1.282-3.517 0-5.5-.738-1.141-.973-.737-.985 1.691m634.556.88c-.367 1.466-.475 2.858-.24 3.094.236.235.73-.771 1.098-2.236.367-1.466.475-2.858.24-3.094-.236-.235-.73.771-1.098 2.236m-19.072.471c-1.893.704-1.902.783-.165 1.49 1.337.544 1.499.953.597 1.511-.741.457-.172.703 1.415.611 2.969-.172 3.115-.466 1.371-2.754-.818-1.075-1.875-1.357-3.218-.858M212 567.062c0 1.139 2.686 1.254 3.372.146.269-.436-.379-.858-1.441-.938s-1.931.276-1.931.792m-1.525 1.898c.354.572 1.816 1.04 3.251 1.04 3.134 0 2.772-.479-1.06-1.399-1.858-.447-2.612-.323-2.191.359m49.817.782c3.735.193 9.585.192 13-.003 3.414-.194.358-.352-6.792-.35-7.15.001-9.944.161-6.208.353m38.436-.02c1.775.221 4.925.224 7 .008 2.074-.217.622-.397-3.228-.402-3.85-.004-5.548.173-3.772.394m19.522-.033c.962.252 2.538.252 3.5 0 .962-.251.175-.457-1.75-.457s-2.712.206-1.75.457m42.5.056c5.087.182 13.412.182 18.5 0 5.087-.181.925-.33-9.25-.33s-14.338.149-9.25.33m33.012-.038c1.244.239 3.044.23 4-.02s-.062-.446-2.262-.435-2.982.216-1.738.455m11.502.011c1.52.229 3.77.223 5-.014s-.014-.425-2.764-.418-3.756.202-2.236.432m8.986-.029c.962.252 2.538.252 3.5 0 .962-.251.175-.457-1.75-.457s-2.712.206-1.75.457m9 .039c2.063.216 5.438.216 7.5 0 2.063-.215.375-.392-3.75-.392s-5.812.177-3.75.392m21.478-.006c1.775.221 4.925.224 7 .008 2.074-.217.622-.397-3.228-.402-3.85-.004-5.548.173-3.772.394m132.04.003c1.797.222 4.497.218 6-.01 1.503-.229.032-.411-3.268-.405s-4.529.192-2.732.415m17.496-.007c1.52.229 3.77.223 5-.014s-.014-.425-2.764-.418-3.756.202-2.236.432m56.986-.029c.962.252 2.538.252 3.5 0 .962-.251.175-.457-1.75-.457s-2.712.206-1.75.457m12.5.051c3.438.196 9.063.196 12.5 0 3.438-.195.625-.355-6.25-.355s-9.687.16-6.25.355m51 .003c3.987.189 10.513.189 14.5 0 3.987-.19.725-.346-7.25-.346s-11.237.156-7.25.346m55.537-.003c3.182.199 8.132.197 11-.004 2.867-.201.263-.364-5.787-.362s-8.396.167-5.213.366m-578.272 2.451c.03 2.511 1.952 4.579 1.97 2.118.008-1.205-.435-2.469-.985-2.809s-.993-.029-.985.691m638.735-.619c-.413.419-.75 1.901-.75 3.295 0 1.82.305 2.228 1.085 1.448.596-.596.934-2.079.75-3.295s-.672-1.867-1.085-1.448M198.031 577c0 .825.436 2.175.969 3 .862 1.333.969 1.333.969 0 0-.825-.436-2.175-.969-3-.862-1.333-.969-1.333-.969 0m139.219.689c.962.252 2.538.252 3.5 0 .962-.251.175-.457-1.75-.457s-2.712.206-1.75.457m-129.235 1.62c-.008.995-.465 1.531-1.015 1.191-.584-.361-1 .668-1 2.476 0 2.784.2 2.987 2 2.024 1.1-.589 2-1.306 2-1.594s-.445-.249-.989.087c-.543.336-.763.025-.489-.691.401-1.045 8.318-1.248 40.178-1.029 21.824.15 39.392-.014 39.041-.365s-18.04-.76-39.309-.908c-31.367-.219-38.835-.528-39.537-1.635-.671-1.06-.868-.961-.88.444m-17.765 2.066c.474 3.539 1.75 4.524 1.75 1.351 0-1.435-.471-2.899-1.046-3.254-.651-.403-.917.315-.704 1.903m623.031-1.297c-1.22.459-28.768.764-61.217.678s-59.313.159-59.697.544 27.162.707 61.216.715c40.345.01 61.394.353 60.417.985-1.297.838-1.275.971.167.985.916.008 1.867.578 2.113 1.265.259.727.817.879 1.333.363s.361-1.074-.369-1.335c-.691-.247-1.004-.857-.696-1.355 1.151-1.863-.97-3.709-3.267-2.845m19.469-.506c-.413.419-.75 1.901-.75 3.295 0 1.82.305 2.228 1.085 1.448.596-.596.934-2.079.75-3.295s-.672-1.867-1.085-1.448M365.5 581c-3.427.614-2.998.726 3 .788 4.734.048 6.353-.207 5-.788-2.276-.978-2.538-.978-8 0m16.5.072c-1.375.401 56.637.773 128.917.828 72.279.055 131.121-.196 130.759-.557-.907-.908-256.576-1.174-259.676-.271m273.5-.026c-12.515.525-12.291.55 6 .671 10.45.069 18.55-.029 18-.217-2.299-.786-11.815-.966-24-.454m-301.75.66c1.238.238 3.262.238 4.5 0 1.238-.239.225-.434-2.25-.434s-3.488.195-2.25.434m61.25 2.31c-1.103.701-.44.978 2.5 1.046l4 .092-4 1.394c-3.961 1.381-3.966 1.389-.5.812 1.925-.321 12.05-.87 22.5-1.221 17.737-.597 18.435-.689 10.5-1.397-14.953-1.335-33.439-1.718-35-.726M196.141 585c0 .825.386 2.4.859 3.5.542 1.261.859 1.445.859.5 0-.825-.386-2.4-.859-3.5-.542-1.261-.859-1.445-.859-.5m630.359 1c-.375 1.183-.458 2.376-.183 2.651s.808-.468 1.183-1.651.458-2.376.183-2.651-.808.468-1.183 1.651m-638.43 1.667c.039 1.008.457 2.733.93 3.833.762 1.772.867 1.687.93-.75.038-1.513.104-3.076.145-3.475s-.409-.886-1-1.083-1.043.466-1.005 1.475m16.355 2.787c.442 2.353.34 3.519-.273 3.14-.537-.332-.858.186-.713 1.151s-.323 2.655-1.039 3.755c-1.301 1.998-1.07 2 308.638 2 247.029 0 310.037-.254 310.42-1.25.263-.687-.009-1.25-.606-1.25s-.85-.9-.562-2 .126-2-.359-2c-.484 0-.597-1.42-.25-3.155.451-2.256.302-2.952-.525-2.441-.636.393-1.156 1.812-1.156 3.155V594H206v-2.941c0-1.618-.512-3.258-1.138-3.645-.818-.505-.941.352-.437 3.04m630.146-.883c-.367 1.466-.475 2.858-.24 3.094.236.235.73-.771 1.098-2.236.367-1.466.475-2.858.24-3.094-.236-.235-.73.771-1.098 2.236m-601.321-.882c.963.252 2.537.252 3.5 0 .963-.251.175-.457-1.75-.457s-2.713.206-1.75.457M194.141 593c0 .825.386 2.4.859 3.5.542 1.261.859 1.445.859.5 0-.825-.386-2.4-.859-3.5-.542-1.261-.859-1.445-.859-.5m634.43 1.571c-.367 1.466-.475 2.858-.24 3.094.236.235.73-.771 1.098-2.236.367-1.466.475-2.858.24-3.094-.236-.235-.73.771-1.098 2.236M186 596.917c0 1.695.45 3.083 1 3.083s1-.9 1-2 .034-2.326.075-2.725-.409-.886-1-1.083c-.612-.204-1.075.97-1.075 2.725m22.429-1.07c-1.061.191-2.357.753-2.879 1.25-.565.537 123.229.903 305.75.903 203.8 0 306.7-.336 306.7-1 0-.618-5.439-1.013-14.25-1.034-118.309-.28-593.899-.375-595.321-.119M184 603.382c0 1.375.45 2.778 1 3.118.565.349 1-.47 1-1.882 0-1.375-.45-2.778-1-3.118-.565-.349-1 .47-1 1.882m16.174 2.324c.12 1.568-.066 3.31-.412 3.87-.347.561-.217 1.673.289 2.472.63.996.923 1.06.934.202.008-.687 1.253-1.311 2.765-1.386 2.358-.117 2.429-.198.5-.57-1.71-.329-2.25-1.122-2.25-3.305 0-1.579-.46-3.155-1.021-3.502-.62-.383-.936.489-.805 2.219m622.269.294c-.975 3.387-1.2 3.52-6.975 4.132l-5.968.633 6.252-.133c3.439-.072 6.42.318 6.625.868.983 2.636 2.377-1.338 1.754-5l-.681-4zm-640.357 4.5c-.031 1.1.381 2.675.914 3.5 1.285 1.988 1.285-.51 0-3.5l-.859-2zm189.04-1.041c.851.851 9.874 1.175 9.874.354 0-.447-2.325-.813-5.167-.813s-4.96.207-4.707.459m12.874.468c0 1.017 28.819 1.152 35 .165 4.09-.654.309-.872-14.75-.85-11.137.016-20.25.324-20.25.685m48.287-.187c3.182.199 8.132.197 11-.004 2.867-.201.263-.364-5.787-.362s-8.396.167-5.213.366m197.475-.033c1.244.239 3.044.23 4-.02s-.062-.446-2.262-.435-2.982.216-1.738.455m-112.512.982c.962.252 2.538.252 3.5 0 .962-.251.175-.457-1.75-.457s-2.712.206-1.75.457m183.25.368c5.569 1.152 10.268 1.128 11-.057.394-.638-2.212-.958-7.191-.885-6.838.101-7.312.218-3.809.942m70.25-.32c2.888.202 7.612.202 10.5 0s.525-.367-5.25-.367-8.138.165-5.25.367m24.5-.021c1.513.229 3.987.229 5.5 0s.275-.416-2.75-.416-4.263.187-2.75.416m45.321 1.855c-.367 1.466-.475 2.858-.24 3.094.236.235.73-.771 1.098-2.236.367-1.466.475-2.858.24-3.094-.236-.235-.73.771-1.098 2.236m-642.352 2.802c.113 1.366.56 2.264.993 1.996 1.11-.686.98-3.132-.205-3.865-.573-.354-.907.438-.788 1.869m625.281.294c0 1.283.563 2.333 1.25 2.333s1.25-1.05 1.25-2.333-.562-2.334-1.25-2.334-1.25 1.05-1.25 2.334m-635.485 1.524c.03 2.511 1.952 4.579 1.97 2.118.008-1.205-.435-2.469-.985-2.809s-.993-.029-.985.691M180 619.472c0 3.289 1.661 4.081 2.237 1.066.284-1.485-.062-2.641-.885-2.957-.905-.347-1.352.278-1.352 1.891m15.825 4.036c-.312 3.834-.464 3.992-3.825 3.992-3.134 0-3.474-.261-3.247-2.5.177-1.751-.011-2.092-.629-1.137-.745 1.151-.966 1.151-1.424 0-.298-.75-.578.325-.621 2.387L186 630h5c4.083 0 5.006.321 5.032 1.75.03 1.652.105 1.654 1.339.028 1.218-1.603 7.133-1.729 86.219-1.834 124.58-.165 177.228.154 174.41 1.056-2.32.743-2.342.808-.315.9 1.202.055 3.452-.389 5-.986 1.895-.731 18.009-1.052 49.315-.981 45.672.104 49.467.204 55.5 1.469 2.331.489 2.554.418 1-.316-1.621-.766 57.799-1.865 70.5-1.303 1.375.06 25.987.136 54.694.168 33.493.037 52.414.415 52.809 1.054.338.547 1.376.963 2.306.925 1.379-.058 1.321-.229-.309-.93-2.28-.98 5.764-1.165 48.408-1.117 29.905.034 32.324.389 28.286 4.15-2.574 2.399-2.647 2.634-.815 2.634.758 0 1.967-1.5 2.686-3.334 1.23-3.135 1.595-3.333 6.122-3.333 4.192 0 4.813-.266 4.813-2.059 0-1.14-.454-1.779-1.016-1.431-.559.346-.698 1.16-.308 1.809.51.851.305.901-.734.181-.793-.55-3.242-.945-5.442-.878s-145.274.179-317.942.249c-321.529.13-316.285.188-314.882-3.47.27-.704.037-2.091-.518-3.082-.831-1.486-1.066-1.101-1.333 2.189M826.5 622c-.375 1.183-.458 2.376-.183 2.651s.808-.468 1.183-1.651.458-2.376.183-2.651-.808.468-1.183 1.651m-648.421 4.75c-.093 3.807 1.473 4.372 2.16.78.26-1.358.126-2.255-.298-1.994-.424.262-.998-.089-1.277-.78s-.542.206-.585 1.994m666.551.5c-.331 1.237-.609 3.263-.616 4.5-.013 2.134-.405 2.25-7.573 2.25-4.785 0-7.332.367-6.941 1 .34.55 3.741 1 7.559 1 7.358 0 8.826 1.258 5.432 4.652-.83.83-1.254 1.923-.941 2.429.864 1.398 2.45 1.097 2.45-.467 0-.762.656-2.651 1.459-4.197 1.037-2 1.155-3.178.406-4.08-.624-.752-.775-2.909-.371-5.302.728-4.309.139-5.526-.864-1.785m-666.954 5.151c-.891 2.322.381 7.75 1.707 7.284.614-.216.985-1.133.823-2.039-.25-1.4.759-1.646 6.75-1.646 4.029 0 7.044-.428 7.044-1 0-.571-2.983-1-6.95-1-5.349 0-7.158-.371-7.851-1.609-.827-1.478-.952-1.477-1.523.01M828 638.667c0 .733.402 1.333.893 1.333s1.123-.6 1.405-1.333c.281-.734-.121-1.334-.893-1.334-.773 0-1.405.6-1.405 1.334m-648.264 1.931c-.802.801.247 3.402 1.371 3.402.491 0 .893-.9.893-2 0-1.949-1.061-2.606-2.264-1.402M826 642.608c0 2.092 1.735 2.514 2.249.547.289-1.104-.06-1.822-.886-1.822-.75 0-1.363.574-1.363 1.275M840 646c0 1.1.402 2 .893 2 1.124 0 2.173-2.601 1.371-3.402-1.203-1.204-2.264-.547-2.264 1.402m-16 .3c0 2.484-.213 3.056-1.688 4.531-.732.731-1.075 1.744-.762 2.25.896 1.449 2.45 1.072 2.45-.595 0-.832.551-2.396 1.225-3.475.967-1.547.967-2.219 0-3.186s-1.225-.866-1.225.475m-6.69 1.192c-.654.712-.917 1.568-.583 1.901 1.12 1.121 3.054.621 3.655-.945.327-.854.189-1.301-.308-.994s-1.054.15-1.239-.349c-.184-.499-.87-.325-1.525.387m20.769 2.258c-.09 2.567 1.411 3.022 2.303.698.327-.854.189-1.301-.308-.994s-1.131-.007-1.41-.698-.542-.243-.585.994M836 654.382c0 .825.45 1.778 1 2.118s1-.057 1-.882-.45-1.778-1-2.118-1 .057-1 .882M820 656c0 1.1.45 2 1 2s1-.9 1-2-.45-2-1-2-1 .9-1 2m-44.75-.311c.962.252 2.538.252 3.5 0 .962-.251.175-.457-1.75-.457s-2.712.206-1.75.457m-567.609 1.817c.313.815.971 1.234 1.464.929.886-.547 1.331 1.666.918 4.565-.117.825.167 1.125.632.667 1.217-1.199 1.121-5.168-.15-6.248-1.819-1.544-3.471-1.494-2.864.087M834 659.3c0 1.485-.45 2.7-1 2.7s-1 .9-1 2c0 2 1.889 2.889 2.125 1 .177-1.413.435-2.243 1.344-4.317.473-1.078.336-2.278-.336-2.95-.844-.844-1.133-.444-1.133 1.567m-16.15.867a27 27 0 0 0-.25 2.083c-.055.688-.667 1.849-1.359 2.581-.693.731-1.004 1.744-.691 2.25.312.505.091.919-.491.919s-1.059.9-1.059 2-.45 2-1 2-1 .735-1 1.633-.972 2.476-2.16 3.506c-1.189 1.031-1.885 2.149-1.548 2.486 1.288 1.288 7.189-7.155 7.896-11.294.171-1.007.879-2.43 1.571-3.162.693-.731 1.004-1.744.691-2.25-.312-.505-.14-.919.384-.919s1.182-.6 1.464-1.333c.281-.734-.121-1.334-.893-1.334-.773 0-1.472.375-1.555.834m-8.118 5.748c-.361 1.383-.071 2.085.862 2.085 1.595 0 1.761-.891.529-2.835-.643-1.014-.976-.834-1.391.75m-617.035 1.478c-.409 1.041-.508 2.129-.221 2.417.913.912 1.715-.583 1.333-2.482-.35-1.74-.404-1.737-1.112.065M618 667.01c-1.078.704-.164.936 3.25.823 2.612-.087 4.75-.534 4.75-.995 0-1.159-6.164-1.027-8 .172m212.079.74c-.09 2.567 1.411 3.022 2.303.698.327-.854.189-1.301-.308-.994s-1.131-.007-1.41-.698-.542-.243-.585.994m-616.4.961c-.301.486-.183 1.474.262 2.194.615.994.986 1.022 1.547.115.406-.657.288-1.644-.262-2.194-.56-.56-1.241-.61-1.547-.115m539.793.243c.355.575 2.944 1.046 5.754 1.046 6.324 0 5.935-.517-1.063-1.411-3.619-.462-5.13-.344-4.691.365M785 669l-3.5.737 3.5.061c1.925.034 4.4-.325 5.5-.798l2-.859-2 .061c-1.1.034-3.575.393-5.5.798m43 3.031c0 2.276 1.529 2.638 2.33.552a1.534 1.534 0 0 0-.893-1.969c-.949-.364-1.437.117-1.437 1.417M218 675c0 .55.338 1.034.75 1.077s1.536.227 2.496.41c.96.184 2.042-.145 2.405-.731.373-.604.188-.775-.427-.394-.597.369-1.368.213-1.714-.346-.81-1.31-3.51-1.323-3.51-.016m512 .053c-1.829.484-1.225.678 2.25.721 2.612.033 4.75-.076 4.75-.241 0-.75-4.748-1.076-7-.48m74 .006c0 .582-.52.738-1.155.346-.699-.433-.883-.276-.467.397.377.611 1.347.857 2.154.547 1.657-.635 1.998-2.349.468-2.349-.55 0-1 .477-1 1.059m22 2.3c0 1.585-.426 2.496-1 2.141-.55-.34-1 .084-1 .941 0 2.35 1.494 1.874 3.011-.961 1.036-1.936 1.075-2.794.169-3.7-.907-.907-1.18-.541-1.18 1.579m-385.238-.652c1.244.239 3.044.23 4-.02s-.062-.446-2.262-.435-2.982.216-1.738.455M452 677c0 .559 2.536.969 5.75.93 4.137-.051 5.189-.312 3.75-.93-2.804-1.205-9.5-1.205-9.5 0m41.75-.294c1.238.238 3.262.238 4.5 0 1.238-.239.225-.434-2.25-.434s-3.488.195-2.25.434m14.96.495c-.796.505-.525.768.79.768 1.1 0 2.669-.423 3.487-.94 1.164-.736.992-.903-.79-.769-1.252.094-2.822.518-3.487.941m143.962.034c-.645.404 2.54.741 7.078.75 5.169.009 8.25-.382 8.25-1.048 0-1.191-13.368-.931-15.328.298m98.828-.217c-1.63.716-1.4.848 1.25.717 1.788-.088 3.25-.515 3.25-.948 0-.998-1.923-.899-4.5.231m41.75.671c.962.252 2.538.252 3.5 0 .962-.251.175-.457-1.75-.457s-2.712.206-1.75.457m-280.702 2.061c-161.673.139-294.337.639-294.808 1.11-.476.476 130.308.851 294.035.845 246.477-.011 294.892-.234 294.892-1.359 0-.74-.038-1.234-.084-1.098-.045.137-132.361.363-294.035.502m307.652 4.826c-3.329 3.552-1.642 5.221 1.874 1.853 1.57-1.504 2.619-3.116 2.331-3.582-.807-1.306-1.707-.936-4.205 1.729M206 688.831c0 .676 2.619 2.324 6.083 3.828.321.139.584-.402.584-1.203 0-.859-.958-1.456-2.334-1.456-1.283 0-2.333-.45-2.333-1s-.45-1-1-1-1 .374-1 .831m608.5.169c-.34.55-1.491 1-2.559 1s-1.941.45-1.941 1 1.125 1 2.5 1c1.467 0 2.397-.517 2.25-1.25-.14-.698.522-1.12 1.5-.956.962.161 1.75-.176 1.75-.75 0-1.332-2.683-1.365-3.5-.044"/></svg>