<svg xmlns="http://www.w3.org/2000/svg" viewBox="0 0 1024 1024"><path fill="#00e5cc" d="M263.5 323.76c-8.25.143-15.675.554-16.5.914-1.902.828-2.681 1.046-4.311 1.201-.722.069-2.202.913-3.289 1.875s-2.588 1.884-3.333 2.048c-.744.164-2.616 1.648-4.158 3.299s-3.102 2.927-3.467 2.835c-.364-.091-3.109 2.136-6.099 4.951s-5.753 5.119-6.14 5.122-3.482 2.662-6.877 5.909c-3.396 3.247-6.346 5.733-6.555 5.523s-3.41 2.532-7.112 6.092-7.077 6.471-7.5 6.471c-.422 0-3.563 2.693-6.979 5.984s-6.479 5.938-6.806 5.883c-.327-.056-3.041 2.201-6.031 5.016S162.589 392 162.201 392s-3.976 3.142-7.971 6.982-7.594 7.103-7.997 7.25a.815.815 0 0 0-.483 1.018c.137.413-.387.75-1.165.75-1.562 0-7.284 5.631-6.75 6.642.185.349-.163.943-.773 1.32s-1.432 1.777-1.827 3.111c-1.172 3.962-1.411 232.927-.243 232.927.554 0 1.008 1.35 1.008 3s.477 3 1.059 3 .825.379.539.842c-.576.931 4.578 5.913 8.256 7.982 1.73.972 7.086 1.297 20.175 1.223 13.27-.074 18.018.219 18.593 1.151.425.687.874 5.41.998 10.494.231 9.465 2.103 13.613 6.562 14.535.725.15 1.576.621 1.891 1.046.658.887 3.507 1.638 9.931 2.618 2.478.378 5.026 1.01 5.664 1.404 1.883 1.164 50.52.917 51.699-.262.568-.568 2.941-1.033 5.274-1.033s4.519-.45 4.859-1 1.632-1 2.87-1 3.229-.909 4.422-2.021 2.515-2.124 2.939-2.25a.77.77 0 0 0 .519-.979c-.137-.412.148-.75.634-.75s1.063-4.478 1.283-9.95c.22-5.473.76-10.31 1.2-10.75 1.198-1.198 452.453-1.4 453.193-.203.333.539.828 5.293 1.101 10.565.505 9.772 2.256 13.683 6.521 14.565.725.15 1.588.64 1.918 1.089.33.45 1.23.944 2 1.099s2.075.579 2.9.941c.825.363 3.079.787 5.01.944s4.03.607 4.667 1c2.028 1.253 51.331 1.092 52.595-.172.62-.62 2.395-1.128 3.944-1.128 3.543 0 10.784-2.217 10.784-3.302 0-.449.432-.549.959-.223.528.326 2.328-.839 4-2.59 2.962-3.099 3.041-3.435 3.041-12.922v-9.74l3.25-.573c1.788-.316 10.675-.599 19.75-.63 9.854-.033 16.634-.451 16.833-1.038.184-.54.933-.982 1.666-.982 1.51 0 6.573-5.033 6.426-6.388-.053-.489.39-1.189.985-1.556.594-.368 1.181-1.88 1.303-3.362.123-1.482.575-2.694 1.005-2.694s.782-51.75.782-115c0-76-.339-115-1-115-.55 0-1-1.35-1-3s-.45-3-1-3-1-.587-1-1.304c0-1.82-6.461-7.901-7.399-6.964-.422.423-.618.25-.434-.382.183-.633-.105-1.308-.641-1.5-.536-.193-3.886-3.15-7.445-6.571-3.559-3.422-6.643-6.05-6.853-5.841-.209.21-2.437-1.589-4.951-3.997s-4.965-4.134-5.448-3.835c-.483.298-.755.172-.604-.282s-.055-.945-.458-1.092-4.001-3.41-7.997-7.25-7.592-6.982-7.994-6.982c-.401 0-3.299-2.45-6.439-5.443-3.141-2.994-6.088-5.211-6.549-4.926s-.714.147-.563-.307-.165-1.049-.702-1.324c-.538-.275-3.663-3.087-6.946-6.25s-6.315-5.75-6.74-5.75-3.575-2.7-7-6-6.594-6-7.041-6-2.227-1.35-3.953-3c-2.794-2.669-4.681-3.499-7.093-3.118-.413.065-.75-.332-.75-.882s-.81-1-1.8-1-2.288-.488-2.884-1.084c-.968-.968-464.48-2.011-513.816-1.156m-1.458 6.017c-8.502.153-15.706.679-16.009 1.17s-1.212 1.041-2.019 1.223c-.806.181-2.076.897-2.821 1.589-.745.693-1.837.961-2.428.596-.637-.394-.783-.194-.36.49.392.635.245 1.155-.326 1.155s-3.861 2.698-7.309 5.995-6.609 5.997-7.024 6c-.414.003-2.866 2.001-5.449 4.441s-5.067 4.206-5.521 3.926-.702-.072-.551.464-.171 1.131-.717 1.324c-.545.192-3.695 2.935-7 6.095-3.304 3.16-6.337 5.747-6.738 5.75s-3.552 2.703-7 6-6.597 5.997-6.996 6c-.4.003-3.086 2.255-5.969 5.005s-5.578 5-5.988 5c-.972 0-13.817 12.349-13.817 13.284 0 .394 159.58.716 354.622.716 296.552 0 354.441-.22 353.509-1.342-.612-.738-.78-1.71-.372-2.16.407-.45.244-.536-.363-.19s-3.202-1.382-5.767-3.839c-2.565-2.458-4.994-4.471-5.397-4.474-.402-.003-3.553-2.703-7.002-6s-6.6-5.995-7.003-5.995-4.002-3.142-7.997-6.982-7.594-7.103-7.997-7.25-.609-.639-.458-1.092-.102-.592-.563-.307-3.51-2.029-6.775-5.141-6.099-5.51-6.297-5.327-2.807-1.969-5.797-4.784-5.767-5.117-6.171-5.117-3.094-2.25-5.977-5-5.708-5-6.278-5-.714-.52-.322-1.155c.423-.684.277-.884-.36-.49-.591.365-1.785-.048-2.654-.917-.87-.87-1.581-1.312-1.581-.984s-1.427-.141-3.172-1.043c-2.912-1.506-23.47-1.651-251.75-1.775-136.718-.075-255.534-.011-264.036.141m-116.631 85.531c-1.601 1.82-3.413 4.192-4.028 5.273-1.669 2.938-1.756 229.766-.089 232.733.663 1.18 2.621 3.614 4.351 5.41l3.144 3.265 363.481.008c320.98.007 363.625-.166 364.719-1.483.681-.821 1.706-1.202 2.279-.848.581.359.745.163.37-.442-.369-.597-.242-1.351.282-1.675 4.147-2.562 4.095-1.034 4.063-120.61-.032-119.227.01-117.971-4.063-120.488-.524-.324-.651-1.078-.282-1.675.375-.605.211-.801-.37-.442-.573.354-1.597-.026-2.277-.845-1.09-1.314-44.064-1.489-364.953-1.489H148.321zm85.81 28.49c-3.648.174-6.033.698-5.691 1.25.335.543-1.157.952-3.471.952-2.232 0-4.059.352-4.059.782s-1.238.884-2.75 1.009-2.901.675-3.085 1.224-.711.766-1.17.482c-.458-.283-1.443.051-2.188.744-.745.692-2.019 1.405-2.831 1.584s-1.626.741-1.809 1.25-.92.925-1.637.925c-1.7 0-16.53 14.83-16.53 16.53 0 .717-.416 1.453-.925 1.637s-1.071 1.008-1.25 1.833-.626 1.729-.995 2.009c-.368.281-.818 1.17-1 1.977-.181.806-.897 2.076-1.589 2.821-.693.745-1.004 1.768-.691 2.274.312.505.091.919-.491.919S178 485.26 178 486.8s-.507 3.307-1.127 3.927c-1.659 1.659-1.768 28.775-.123 30.422.688.688 1.25 2.259 1.25 3.492s.45 2.519 1 2.859 1 1.491 1 2.559.366 1.941.813 1.941c.448 0 1.424 1.555 2.169 3.455s1.73 3.223 2.187 2.941.831.247.831 1.178.93 2.498 2.066 3.483 2.148 2.163 2.25 2.617.521.714.934.576c.412-.137.637.313.5 1-.138.688.312 1.138 1 1s1.137.313 1 1c-.138.688.312 1.138 1 1s1.137.088 1 .5a.786.786 0 0 0 .504.995c.415.135 2.169 1.598 3.899 3.25 1.729 1.653 3.714 3.005 4.412 3.005s1.418.416 1.602.925c.183.509.997 1.071 1.809 1.25s2.086.892 2.831 1.584 1.768 1.004 2.274.691c.505-.312.919-.091.919.491s1.35 1.059 3 1.059 3 .408 3 .907c0 2.748 31.812 2.951 34 .218.275-.344 1.625-.78 3-.97s2.651-.756 2.835-1.257.711-.679 1.17-.395c.458.283 1.443-.051 2.188-.744.745-.692 2.019-1.405 2.831-1.584s1.626-.741 1.809-1.25.917-.925 1.63-.925 3.038-1.69 5.166-3.756 4.272-3.754 4.762-3.75c.49.003 1.39-.864 2-1.927s2.582-3.452 4.383-5.308c1.8-1.855 3.011-3.797 2.691-4.316s-.177-.943.319-.943c.936 0 4.943-7.371 5.435-10 .155-.825.589-1.733.966-2.019.376-.285.838-1.635 1.025-3s.726-3.096 1.196-3.847c1.346-2.149 1.142-24.986-.235-26.363-.644-.644-1.171-2.683-1.171-4.53 0-1.985-.409-3.106-1-2.741-.581.359-1-.629-1-2.358 0-1.636-.337-3.125-.75-3.309-.413-.183-1.833-2.47-3.157-5.083s-2.787-4.75-3.25-4.75-.731-.562-.593-1.25c.137-.687-.425-1.1-1.25-.917s-1.152-.014-.727-.439c.952-.952-7.171-9.394-9.04-9.394-.743 0-1.073-.45-.733-1s-.084-1-.941-1-1.559-.45-1.559-1-.927-1-2.059-1-1.781-.45-1.441-1c.352-.569-.509-1-2-1s-2.352-.431-2-1-.509-1-2-1-2.352-.431-2-1c.351-.567-.49-1-1.941-1-1.407 0-2.559-.45-2.559-1s-1.26-1-2.8-1-3.228-.406-3.75-.901c-1.154-1.095-9.708-1.706-18.229-1.301M774 444.943c0 .581-1.548 1.057-3.441 1.057s-3.724.457-4.069 1.016c-.346.559-1.011.78-1.478.491s-1.46.041-2.205.734c-.745.692-2.015 1.408-2.821 1.589-.807.182-1.696.632-1.977 1.002-.28.369-1.746 1.309-3.259 2.089-1.513.779-2.75 1.817-2.75 2.307s-.408.638-.907.33c-.961-.594-13.093 11.111-13.093 12.632 0 .492-.9 1.86-2 3.04-1.1 1.181-2 2.737-2 3.459 0 .721-.45 1.311-1 1.311s-1 .873-1 1.941-.45 2.219-1 2.559-1 1.716-1 3.059-.401 2.441-.891 2.441c-1.931 0-4.162 29.107-2.519 32.871.391.896.881 2.519 1.089 3.608s.815 2.415 1.35 2.95c.534.534.971 1.781.971 2.771s.45 1.8 1 1.8.947.337.882.75c-.357 2.26.248 4.288 1.118 3.75.55-.34 1 .309 1 1.441s.477 2.059 1.059 2.059.779.453.437 1.007c-.343.554.081 1.277.941 1.607.859.33 1.563 1.042 1.563 1.582 0 1.519 14.161 14.823 15.136 14.22.475-.294.864-.125.864.375 0 .91 11.406 7.084 14.081 7.622.78.157 2.094.542 2.919.857 2.341.893 10.99 1.986 16.5 2.086 8.057.145 22.5-2.829 22.5-4.633 0-.463.414-.585.919-.273.506.313 1.529.002 2.274-.691.745-.692 2.015-1.408 2.821-1.589.807-.182 1.696-.632 1.977-1.002.28-.369 1.746-1.309 3.259-2.089 1.513-.779 2.75-1.791 2.75-2.248s.587-.831 1.304-.831c1.82 0 7.901-6.461 6.964-7.399-.423-.422-.318-.618.232-.434.55.183 1.11-.006 1.245-.421s1.598-2.169 3.25-3.899c1.653-1.729 3.005-3.559 3.005-4.067 0-.507.679-1.602 1.509-2.432s1.254-1.923.941-2.429c-.312-.505-.091-.919.491-.919s1.059-.81 1.059-1.8.437-2.237.971-2.771c.535-.535 1.11-1.862 1.279-2.95s.625-2.487 1.013-3.107c.987-1.58 1.067-29.034.089-30.594-.441-.703-.955-2.395-1.142-3.759-.187-1.365-.799-2.765-1.361-3.112s-.981-.918-.934-1.269c.294-2.197-.117-3.489-1.665-5.238-.962-1.088-1.896-2.636-2.075-3.439-.179-.804-.741-1.611-1.25-1.794s-.925-.907-.925-1.608c0-1.798-14.726-16.559-16.52-16.559-.814 0-1.48-.45-1.48-1s-.862-1-1.917-1c-1.054 0-2.066-.416-2.25-.925-.183-.509-1.008-1.071-1.833-1.25s-1.725-.616-2-.972-1.625-.806-3-1-2.725-.646-3-1.004c-1.628-2.121-32-3.93-32-1.906m-550.455 5.984c-.365.59-1.46 1.073-2.435 1.073-.974 0-3.95 1.103-6.614 2.452s-5.284 2.179-5.824 1.845c-.546-.337-.665-.094-.267.548.416.674.098 1.155-.763 1.155-.811 0-1.625.416-1.809.925s-.98 1.071-1.772 1.25c-1.871.423-10.061 8.447-10.061 9.858 0 .597-.52.764-1.155.372-.684-.423-.884-.277-.49.36.365.591-.016 1.753-.846 2.583s-1.509 2.018-1.509 2.64c0 .621-.52.809-1.155.417-.684-.423-.884-.277-.49.36.365.591-.016 1.753-.846 2.583S186 481.564 186 482.429s-.477 1.571-1.059 1.571-.831.37-.551.822-.192 2.139-1.048 3.75c-2.277 4.288-2.307 29.796-.038 32.066.383.382.696 1.469.696 2.414s.652 2.976 1.449 4.512 1.22 3.162.941 3.614c-.28.452-.108.822.382.822s1.525 1.237 2.302 2.75c1.858 3.619 14.67 16.456 18.176 18.211 1.512.757 2.75 1.751 2.75 2.208s1.035.831 2.3.831 2.728.372 3.25.826c.523.454 2.975 1.385 5.45 2.068s5.85 1.616 7.5 2.074c4.468 1.24 16.152 1.288 18.416.077 1.088-.582 3.127-1.154 4.531-1.27s2.553-.563 2.553-.993.624-.782 1.386-.782 2.642-.652 4.178-1.449 3.232-1.177 3.769-.845.714.179.394-.339c-.321-.519.847-1.568 2.595-2.331 3.442-1.505 16.969-14.686 17.508-17.062.182-.8.632-1.684 1-1.965 1.202-.914 3.17-4.946 3.17-6.495 0-.833.352-1.514.782-1.514s.884-1.237 1.009-2.75.693-2.907 1.265-3.099c1.965-.661 1.004-26.531-1.206-32.454-1.067-2.858-2.032-5.636-2.145-6.173s-.772-1.586-1.464-2.331c-.693-.745-.961-1.837-.596-2.428.394-.637.194-.783-.49-.36-.685.422-1.155.078-1.155-.846 0-.857-.45-1.559-1-1.559s-1-.627-1-1.393-.704-1.663-1.563-1.993c-.86-.33-1.277-1.064-.926-1.632s.042-.908-.687-.757c-.728.151-1.211-.288-1.074-.975.138-.688-.312-1.138-1-1s-1.137-.313-1-1c.138-.688-.312-1.138-1-1s-1.126-.346-.975-1.074-.158-1.058-.686-.731c-.528.326-2.066-.513-3.418-1.865s-2.721-2.197-3.041-1.876c-.321.32-.867-.157-1.213-1.061S263.908 456 262.834 456s-1.733-.355-1.465-.788-.693-.885-2.135-1.005-2.872-.552-3.178-.962-1.681-.904-3.056-1.098-2.725-.683-3-1.086c-.833-1.22-25.706-1.345-26.455-.134m549.987.021c-.358.579-1.658 1.052-2.891 1.052s-2.669.412-3.191.916-1.85 1.067-2.95 1.25-2.229.635-2.509 1.004c-.281.368-1.146.818-1.923 1-.778.181-2.985 1.774-4.905 3.538-1.919 1.764-3.878 2.968-4.351 2.676-.474-.293-.738.063-.587.792.151.728-.287 1.212-.975 1.074s-1.137.313-1 1c.138.688-.346 1.126-1.074.975s-1.09.105-.804.568c.287.464-.58 2.03-1.926 3.481-1.345 1.451-2.446 3.135-2.446 3.741s-.52.782-1.155.39c-.684-.423-.884-.277-.49.36.365.591.097 1.69-.596 2.443-1.962 2.134-3.759 5.613-3.759 7.278 0 .833-.352 1.514-.782 1.514s-.884 1.238-1.009 2.75-.692 2.906-1.26 3.098c-1.287.432-1.138 25.917.155 26.716.493.305.896 2.102.896 3.995s.45 3.441 1 3.441 1 .9 1 2 .45 2 1 2 1 .707 1 1.571c0 .865.679 2.251 1.509 3.081s1.211 1.992.846 2.583c-.394.637-.194.783.49.36.635-.392 1.155-.227 1.155.368 0 1.28 10.566 12.037 11.823 12.037.477 0 1.682.9 2.677 2s2.442 2 3.214 2c.807 0 1.1.491.691 1.155-.396.64-.279.885.262.551.537-.332 2.233.048 3.769.845s3.416 1.449 4.178 1.449 1.386.358 1.386.796c0 .437 1.649.906 3.664 1.042s4.148.546 4.739.911c1.656 1.023 13.731 1.178 17.097.22 1.65-.47 4.125-.993 5.5-1.162s2.75-.642 3.056-1.052 1.768-.846 3.25-.968c1.482-.123 2.694-.463 2.694-.757 0-.293 2.135-1.658 4.745-3.032 4.493-2.365 20.699-16.998 18.826-16.998-.485 0-.225-.788.576-1.75 1.404-1.686 4.88-8.609 6.403-12.75.661-1.799 1.323-5.058 3.104-15.272.313-1.8.09-4.5-.497-6-.588-1.501-1.184-4.528-1.326-6.728s-.61-4.25-1.04-4.556-.882-1.768-1.004-3.25c-.123-1.482-.575-2.694-1.005-2.694s-.782-.9-.782-2-.45-2-1-2-1-.699-1-1.554-1.348-2.993-2.995-4.75-2.998-3.554-3-3.991c-.006-.981-4.669-5.721-5.732-5.828-.425-.042-.649-.515-.498-1.051s-.105-.74-.568-.454c-.464.287-2.03-.58-3.481-1.926-1.451-1.345-3.023-2.446-3.494-2.446-.47 0-1.942-1.012-3.27-2.25s-2.426-2.056-2.439-1.818-1.148.078-2.523-.355c-1.375-.434-3.59-.991-4.923-1.24-1.333-.248-3.133-.826-4-1.283-2.392-1.261-24.774-1.354-25.545-.106m-371.282.812c-29.681.167-46.25.615-46.25 1.25 0 .544-.75.99-1.667.99-.916 0-1.393.273-1.06.606.334.334-.266 1.544-1.333 2.689-1.846 1.981-1.94 3.84-1.94 38.394 0 23.541.352 36.311 1 36.311.55 0 1 .695 1 1.545s1.112 2.658 2.47 4.016l2.471 2.471 155.081.053 155.082.053 3.448-3.765 3.448-3.764v-36.304c0-24.886-.333-36.305-1.059-36.305-.582 0-.803-.414-.491-.919s-.089-1.577-.893-2.381-1.183-1.74-.843-2.081-.093-.619-.964-.619-1.741-.474-1.934-1.053c-.351-1.052-161.439-1.772-265.566-1.187m-171 6.042c-2.887.167-5.25.729-5.25 1.25 0 .522-1.602.948-3.559.948-2.118 0-3.309.405-2.941 1 .346.559-.427 1-1.752 1-1.304 0-3.337.9-4.518 2s-2.59 2-3.133 2C208.541 466 196 478.949 196 480.556c0 .794-.45 1.444-1 1.444s-1 .9-1 2-.45 2-1 2-1 1.313-1 2.917-.537 3.095-1.194 3.314c-1.721.574-1.772 25.202-.056 26.919.688.687 1.25 2.017 1.25 2.955 0 2.178 4.09 9.895 5.245 9.895.48 0 .628.396.329.88-.717 1.16 9.119 11.12 10.981 11.12.795 0 1.445.379 1.445.843 0 .891 7.456 4.899 10 5.376.825.155 1.725.574 2 .932 2.177 2.837 30 2.603 30-.252 0-.494.857-.899 1.905-.899 2.269 0 10.095-4.02 10.095-5.186 0-.447.581-.814 1.292-.814.71 0 3.279-2.025 5.708-4.5s4.029-4.5 3.555-4.5.08-.816 1.23-1.813c1.15-.998 2.231-2.449 2.403-3.227.171-.777.879-2.022 1.571-2.767.693-.745 1.004-1.768.691-2.274-.312-.505-.091-.919.491-.919s1.059-1.35 1.059-3 .45-3 1-3c.611 0 1-4.667 1-12 0-6.6-.352-12-.782-12s-.882-1.212-1.005-2.694-.558-2.944-.968-3.25-.891-1.231-1.07-2.056-.744-1.651-1.256-1.835c-.512-.185-.7-.711-.416-1.17.283-.458-.18-1.529-1.03-2.379-.849-.849-1.573-1.898-1.609-2.33-.035-.432-.502-.662-1.038-.511s-.696-.177-.354-.729c.621-1.006-9.16-11.046-10.762-11.046-.469 0-1.532-.679-2.362-1.509s-1.923-1.254-2.429-.941c-.505.312-.919.091-.919-.491s-.9-1.059-2-1.059-2-.45-2-1-1.26-1-2.8-1-3.228-.409-3.75-.908c-1.137-1.087-8.939-1.708-16.2-1.29m181.92-.043c-44.855.213-54.573.501-55.723 1.652-2.069 2.068-2.061 71.118.008 73.187 2.085 2.085 306.983 2.107 309.067.023 2.091-2.091 2.174-71.068.088-73.154-1.512-1.512-122.888-2.33-253.44-1.708m362.83 1.18c0 .584-1.35 1.061-3 1.061s-3 .477-3 1.059-.414.803-.919.491-1.599.111-2.429.941-2.216 1.509-3.081 1.509-1.571.45-1.571 1-.607 1-1.348 1C758.945 466 748 476.873 748 478.569c0 .695-.416 1.414-.925 1.598-.509.183-1.071.997-1.25 1.809s-.892 2.086-1.584 2.831-1.004 1.768-.691 2.274c.312.505.091.919-.491.919S742 489.35 742 491s-.45 3-1 3c-.608 0-1 4.48-1 11.441 0 6.549.428 11.705 1 12.059.55.34 1 1.69 1 3s.45 2.66 1 3 1 1.491 1 2.559.45 1.941 1 1.941 1 .59 1 1.311c0 .722.909 2.288 2.021 3.481s2.056 2.515 2.1 2.939c.043.423.517.645 1.053.494s.732.118.436.597c-.296.48.795 2.15 2.426 3.712 1.63 1.562 2.964 2.511 2.964 2.108s1.154.421 2.565 1.832c1.41 1.41 2.947 2.328 3.414 2.039s1.001-.106 1.186.406c.184.512.999 1.077 1.811 1.256s2.086.892 2.831 1.584 1.73 1.027 2.188.744c.459-.284.985-.082 1.17.447s2.054 1.076 4.155 1.215 4.04.609 4.309 1.044c.714 1.155 12.143.969 12.871-.209.34-.55 2.391-1 4.559-1s3.941-.477 3.941-1.059.37-.831.822-.551 2.078-.144 3.614-.941 3.416-1.449 4.178-1.449 1.386-.45 1.386-1 .659-1 1.464-1c1.829 0 13.641-12.021 12.935-13.163-.284-.461-.111-.837.385-.837 1.094 0 5.549-8.444 5.549-10.518 0-.815.318-1.482.706-1.482.784 0 2.132-8.558 2.206-14 .096-7.118-2.817-20-4.522-20-.463 0-.585-.414-.273-.919.313-.506-.111-1.599-.941-2.429S828 480.713 828 480.188c0-4.061-19.051-18.865-26.848-20.864-4.777-1.225-25.152-1.536-25.152-.385m-550.205 6.081c-.162.434-1.42.945-2.795 1.135s-3.099.912-3.831 1.604-1.744 1.004-2.25.691c-.505-.312-.919-.168-.919.322s-1.232 1.529-2.738 2.309c-3.286 1.703-10.629 8.966-11.092 10.971-.182.786-.632 1.658-1 1.939-1.202.914-3.17 4.946-3.17 6.495 0 .833-.358 1.514-.796 1.514-.437 0-.908 1.674-1.046 3.719-.137 2.046-.727 4.014-1.309 4.374-1.014.627-.912 2.769.725 15.157.345 2.612 1.032 4.75 1.527 4.75s.899.681.899 1.514c0 2.006 1.882 5.214 5.245 8.943 1.51 1.673 2.748 3.606 2.75 4.293a1.266 1.266 0 0 0 1.255 1.255c.688.002 2.62 1.24 4.293 2.75 3.729 3.363 6.937 5.245 8.943 5.245.833 0 1.514.525 1.514 1.167 0 .641.259.907.575.591.317-.316 2.004-.107 3.75.466 4.062 1.332 18.969 1.919 19.675.775.296-.478 1.654-1.032 3.019-1.231 3.457-.506 10.012-3.77 12.913-6.431 1.338-1.226 2.811-1.996 3.275-1.709s.719-.075.568-.804c-.151-.728.288-1.211.975-1.074.688.138 1.138-.312 1-1s.346-1.126 1.074-.975 1.09-.105.804-.568c-.287-.464.467-1.954 1.676-3.312s2.345-3.123 2.526-3.922c.182-.8.632-1.683 1-1.964.369-.28.825-1.409 1.015-2.509s.706-2.45 1.147-3c1.249-1.558 1.304-26.5.058-26.5-.577 0-1.05-.707-1.05-1.571 0-.865-.679-2.251-1.509-3.081s-1.254-1.923-.941-2.429c.312-.505.091-.919-.491-.919s-1.059-.567-1.059-1.259c0-.693-.9-1.822-2-2.509s-2-1.727-2-2.312c0-1.253-2.498-3.918-3.679-3.925-.451-.002-2.184-1.24-3.85-2.75s-3.691-2.891-4.5-3.07-1.621-.741-1.804-1.25-1.646-.925-3.25-.925-2.917-.471-2.917-1.047c0-1.235-21.743-1.169-22.205.067m549.54.011c-.459.441-1.735.952-2.835 1.135s-2.229.635-2.509 1.004c-.281.368-1.168.818-1.971 1-.804.181-2.825 1.565-4.491 3.075s-3.399 2.748-3.85 2.75c-1.065.006-3.678 2.619-3.684 3.684-.002.451-1.24 2.184-2.75 3.85s-2.894 3.687-3.075 4.491-.783 1.741-1.336 2.082c-.552.342-.966.909-.919 1.26.299 2.234-.033 3.683-.742 3.245-1.624-1.004-1.426 23.676.215 26.839.83 1.601 1.238 3.35.906 3.887-.334.541-.089.658.551.262 1.039-.642 1.677 1.263 1.249 3.729-.079.454.318.54.881.191.564-.348 1.025-.077 1.025.602 0 1.54 11.986 13.265 14.013 13.708.818.179 1.637.741 1.82 1.25s1.196.925 2.25.925 1.917.354 1.917.787 1.412.895 3.138 1.027 3.621.537 4.211.901c1.628 1.007 16.651 1.144 16.651.152 0-.477 1.082-.867 2.405-.867 3.047 0 10.19-3.672 14.095-7.245 1.65-1.51 3.563-2.748 4.25-2.75a1.266 1.266 0 0 0 1.255-1.255c.002-.687 1.352-2.688 3-4.446s2.995-3.895 2.995-4.75.352-1.554.782-1.554c2.105 0 5.571-19.63 4.194-23.757-.503-1.509-1.086-3.868-1.294-5.243-.209-1.375-.845-3.625-1.413-5s-.792-2.907-.497-3.405.017-.583-.617-.19c-.669.412-1.155.108-1.155-.724 0-.79-.67-1.992-1.489-2.672s-1.334-1.522-1.145-1.872c.348-.646-7.706-8.961-9.104-9.399-.419-.131-.638-.609-.487-1.062s-.15-.562-.67-.241c-.519.321-1.623-.096-2.453-.926S806.436 468 805.571 468s-1.571-.45-1.571-1-1.098-1-2.441-1-2.732-.471-3.087-1.046c-.758-1.226-21.853-1.155-23.137.077M366.5 573.761c-10.178.332-12.5 1.454-12.5 6.042 0 6.052 3.709 8.194 14.191 8.196 4.78 0 8.969-.449 9.309-.999s1.491-1 2.559-1c1.133 0 1.994-.728 2.069-1.75.07-.962.233-2.764.363-4.004.558-5.322-3.329-6.898-15.991-6.485m45.266-.023c-5.792.829-7.336 12.262-1.656 12.262.975 0 2.05.45 2.39 1s4.668 1 9.618 1c5.745 0 8.777-.362 8.382-1-.34-.55.116-1 1.012-1 2.562 0 4.488-2.57 4.488-5.988 0-1.721-.399-2.884-.886-2.582-.488.301-1.121-.347-1.407-1.441-.457-1.748-1.408-1.998-7.863-2.063-4.039-.041-8.244-.188-9.344-.327-1.1-.138-3.23-.076-4.734.139m50.227 1.268c-1.372 1.19-1.993 2.978-1.993 5.739 0 3.801 1.918 7.003 3.342 5.58.362-.362.658-.133.658.508 0 1.863 16.961 1.532 20.846-.406 4.128-2.059 4.715-9.326.904-11.19-4.183-2.045-21.471-2.214-23.757-.231m127.257.49c-1.748 1.985-1.581 8.984.25 10.504.825.685 1.5.875 1.5.422 0-.452.54-.282 1.2.378 1.493 1.493 19.8 1.678 19.8.2 0-.55.9-1 2-1 2.484 0 2.928-8.214.571-10.571-2.036-2.036-23.519-1.979-25.321.067m54.088-.095c-2.716 3.1-1.149 12.837 1.775 11.029.488-.301.887-.071.887.511 0 .675 3.628 1.059 10 1.059 5.5 0 10-.398 10-.883 0-.486.9-1.119 2-1.407 2.449-.64 2.858-7.995.571-10.281-1.962-1.963-23.516-1.986-25.233-.028M358 579.878c0 3.383 2.416 4.238 11.417 4.039l8.583-.189V578h-10c-9.116 0-10 .166-10 1.878m53.524-.917c-.359.581-.387 1.894-.063 2.917.511 1.609 1.78 1.884 9.403 2.038 9.06.184 10.899-.503 10.833-4.046-.036-1.954-18.999-2.808-20.173-.909M464 580.375c0 2.854 2.792 3.625 13.125 3.625H484v-6h-10c-9.86 0-10 .033-10 2.375m128 0c0 2.846 2.794 3.625 13.008 3.625 5.597 0 6.837-.301 7.213-1.75.989-3.813-.071-4.25-10.304-4.25-9.772 0-9.917.035-9.917 2.375m53.762-1.172c-1.26 3.747.208 4.524 8.903 4.716 8.831.195 11.335-.671 11.335-3.918 0-2.275-19.483-3.043-20.238-.798m105.488 18.571c-11.05.175-17.25.645-17.25 1.309 0 .569-.404.785-.898.48-1.258-.778-6.534 4.365-9.021 8.793-2.263 4.029-3.022 15.644-1.022 15.644.582 0 .803.414.491.919s.03 1.519.762 2.25 1.524 1.781 1.759 2.331c.236.55.767.887 1.179.75.413-.138.638.242.5.843-.137.601.65 1.614 1.75 2.25s2.225 1.45 2.5 1.808c1.812 2.361 94 4.194 94 1.87 0-.562 1.185-1.021 2.633-1.021s3.439-.93 4.424-2.066 2.163-2.081 2.617-2.1.713-.439.576-.934c-.138-.495.312-.788 1-.65.687.137 1.137-.312 1-1-.138-.687.2-1.25.75-1.25s1-.9 1-2 .45-2 1-2c1.963 0 1.13-11.708-1.118-15.72-2.092-3.733-7.072-8.613-8.449-8.281-.39.095-1.008-.311-1.373-.902-.69-1.117-44.965-1.86-78.81-1.323M194 599c0 .55-.719 1-1.599 1-1.964 0-7.606 5.859-6.838 7.102.305.494.177.898-.286.898-1.849 0-3.63 9.136-2.428 12.459.633 1.751 1.151 3.903 1.151 4.783 0 2.53 8.81 10.758 11.52 10.758 1.299 0 2.64.45 2.98 1s2.365 1 4.5 1 4.16-.45 4.5-1 1.491-1 2.559-1 1.941-.477 1.941-1.059.381-.824.847-.536c1.113.688 7.153-5.243 7.153-7.024 0-.759.45-1.381 1-1.381 1.61 0 1.222-15.248-.474-18.648-1.547-3.101-4.506-6.002-8.262-8.102-2.686-1.501-18.264-1.715-18.264-.25m544.75 2.579c-2.062.724-3.75 1.063-3.75.753s-1.957 1.372-4.348 3.739c-4.133 4.09-4.359 4.613-4.551 10.549-.256 7.902 1.48 11.374 7.149 14.299 1.513.78 2.75 1.754 2.75 2.163 0 1.522 88.666.973 91.635-.568 1.497-.776 3.161-1.14 3.698-.808.541.334.658.089.262-.551-.392-.635-.204-1.155.417-1.155 1.41 0 3.381-2.072 3.818-4.014.182-.807.693-1.696 1.137-1.977 2.008-1.267.846-13.298-1.531-15.862-1.281-1.381-2.059-2.949-1.728-3.484.331-.534.132-.682-.44-.329s-1.597-.026-2.277-.845-2.279-1.489-3.554-1.489c-1.276 0-2.562-.393-2.859-.873-.931-1.507-81.456-1.083-85.828.452m-543.6 2.106c-.698.747-1.762 1.055-2.364.682s-.825-.238-.494.296c.331.535-.417 2.071-1.661 3.413-2.923 3.152-3.706 13.992-1.193 16.505.869.869 1.282 2.063.917 2.654-.394.637-.194.783.49.36.65-.401 1.155-.137 1.155.602 0 2.103 5.625 4.014 11.606 3.943 13.029-.156 19.079-15.996 9.817-25.707-4.339-4.549-15.081-6.165-18.273-2.748m78.85-.518c0 .641-.306.86-.681.486-.894-.895-6.404 4.4-5.724 5.5.287.466.046.847-.536.847-.644 0-1.059 2.74-1.059 7 0 4 .429 7 1 7 .55 0 1 .735 1 1.633 0 3.366 8.441 8.367 14.122 8.367 1.583 0 2.878-.45 2.878-1s1.026-1 2.279-1c1.254 0 2.911-.876 3.682-1.946.772-1.071 1.771-1.719 2.221-1.441s.818-.197.818-1.054.45-1.559 1-1.559 1-1.377 1-3.059c0-1.785.417-2.802 1-2.441.595.368 1-.823 1-2.941 0-1.957-.45-3.559-1-3.559s-1-1.064-1-2.364c0-2.554-4.416-7.636-6.636-7.636-.75 0-1.364-.45-1.364-1 0-.571-3-1-7-1q-7 0-7 1.167m4 1.833c0 .55-.695 1-1.545 1-2.001 0-6.455 4.454-6.455 6.455 0 .85-.45 1.545-1 1.545s-1 1.35-1 3 .45 3 1 3 1 .828 1 1.839 1.487 3.193 3.304 4.846c3.67 3.339 10.927 4.227 13.502 1.652.745-.745 1.78-1.093 2.299-.772.52.321.821-.012.67-.741-.151-.728.321-1.2 1.049-1.049.729.151 1.062-.15.741-.67-.321-.519.096-1.623.926-2.453 2.536-2.536 1.92-9.208-1.171-12.677C287.087 605.224 278 601.83 278 605m86 2.059c0 .582-.382.823-.849.534s-1.817.588-3 1.949c-3.411 3.922-3.076 12.93.599 16.09 4.303 3.701 11.525 3.356 15.345-.734 1.594-1.706 2.648-3.506 2.342-4-.305-.494-.078-.898.504-.898 1.354 0 1.39-4.677.043-5.51-.559-.346-.808-.965-.554-1.377.683-1.104-4.39-6.255-5.491-5.576-.516.32-.939.104-.939-.478S370.2 606 368 606s-4 .477-4 1.059m54-.059c0 .55-.735 1-1.634 1-5.154 0-8.322 10.523-4.426 14.705 1.067 1.145 1.667 2.355 1.333 2.689-.333.333.144.606 1.06.606.917 0 1.667.45 1.667 1s2.405 1 5.345 1c5.356 0 8.655-1.863 8.655-4.888 0-.676.45-.952 1-.612.621.384 1-1.49 1-4.941 0-3.057-.45-5.559-1-5.559s-.887-.504-.75-1.12-1.1-1.933-2.75-2.927c-3.242-1.953-9.5-2.58-9.5-.953m52 0c0 .55-.605 1-1.345 1-3.546 0-5.286 4.796-4.758 13.114.547 8.605 20.103 9.025 20.103.431 0-.85.45-1.545 1-1.545s1-1.35 1-3-.45-3-1-3-1-.735-1-1.634c0-3.015-5.129-6.363-9.75-6.365-2.337 0-4.25.449-4.25.999m76 0c0 .55-.707 1-1.571 1-3.081 0-6.473 5.169-6.356 9.684.087 3.345 3.216 8.921 4.807 8.566.616-.138 1.12.2 1.12.75 0 1.48 10.215 1.153 12.25-.392.962-.731 1.75-2.093 1.75-3.027s.45-1.421 1-1.081c.621.384 1-1.49 1-4.941 0-3.057-.45-5.559-1-5.559s-.888-.546-.75-1.213c.138-.668-.763-1.674-2-2.238-1.237-.563-2.25-1.367-2.25-1.786s-1.8-.763-4-.763-4 .45-4 1m52-.237c0 .419-1.013 1.223-2.25 1.786-1.237.564-2.138 1.57-2 2.238S593.55 612 593 612c-2.396 0-1.078 10.309 1.687 13.195 5.044 5.265 17.313 2.636 17.313-3.709 0-.882.45-1.326 1-.986.595.368 1-.823 1-2.941 0-1.957-.45-3.559-1-3.559s-1-.735-1-1.634c0-3.015-5.129-6.363-9.75-6.365-2.337 0-4.25.342-4.25.762m52.5.453c-2.661 1.536-4.624 3.545-4.94 5.054-.142.676-.622 2.077-1.067 3.112-.479 1.117-.337 2.637.349 3.737.637 1.02 1.158 2.37 1.158 3.001 0 5.258 13.023 7.991 17.295 3.63 2.494-2.545 5.062-8.862 3.943-9.698-.406-.304-.891-1.452-1.078-2.552-.428-2.513-3.043-5.5-4.815-5.5-.74 0-1.345-.45-1.345-1 0-1.368-7.034-1.209-9.5.216m92.618.602c-4.231.632-7.118 4.541-7.118 9.637 0 2.5.45 4.545 1 4.545s.888.337.75.75.104.846.536.964 1.443.872 2.247 1.676c2.017 2.017 9.136 1.394 11.497-1.006 2.452-2.493 3.297-9.914 1.35-11.861-.798-.798-1.548-1.805-1.666-2.237s-.551-.674-.964-.536-.75-.148-.75-.633c0-1.086-3.67-1.779-6.882-1.299M778 609.059c0 .582-.399.812-.887.511-1.128-.698-2.821 1.337-3.268 3.93-.19 1.1-.693 2.258-1.118 2.573-.943.699 1.648 7.163 3.481 8.684 3.387 2.812 13.792 1.888 13.792-1.225 0-.842.45-1.532 1-1.532 2.097 0 1.075-8.41-1.368-11.25-2.452-2.851-11.632-4.186-11.632-1.691m34.636 1.577c-6.097 6.098-1.581 15.942 7.106 15.492 5.368-.278 6.686-1.121 8.837-5.654 1.421-2.994 1.395-3.554-.33-7.112-1.029-2.124-2.407-3.75-3.06-3.612-.654.138-1.189-.2-1.189-.75 0-2.309-8.667-1.061-11.364 1.636m-535.386.86c-.687.781-1.25 2.024-1.25 2.762s-.54 1.882-1.2 2.542c-.933.933-.933 1.2 0 1.2.66 0 1.2.707 1.2 1.571 0 .865.643 2.215 1.429 3 1.623 1.624 6.571 1.947 6.571.429 0-.55.563-.888 1.25-.75s1.137-.312 1-1 .2-1.25.75-1.25 1-1.35 1-3-.45-3-1-3-.887-.562-.75-1.25-.312-1.138-1-1-1.25-.2-1.25-.75c0-1.514-5.325-1.123-6.75.496m86.204-.112c-1.596 1.748-1.794 9.427-.28 10.875 2.126 2.034 7.585 2.125 9.551.158 2.08-2.079 2.175-8.668.155-10.662-1.682-1.66-8.021-1.909-9.426-.371m53.015 1.03c-4.51 4.632-.941 11.813 5.676 11.422 2.055-.121 3.511-.584 3.236-1.028s.115-.808.864-.808c.874 0 1.445-1.371 1.589-3.818.395-6.691-6.875-10.38-11.365-5.768m52.931-.972c-1.553 1.703-1.714 9.394-.226 10.817 3.948 3.776 12.826.136 12.826-5.259 0-5.11-9.277-9.202-12.6-5.558m75.911.07c-3.606 3.86-3.837 6.615-.856 10.196 2.097 2.519 8.148 3.013 10.186.831 1.177-1.26 1.512-10.752.355-10.036-.423.261-1.328-.198-2.01-1.02-1.397-1.683-6.092-1.665-7.675.029m52.778.893c-2.332 2.483-2.683 7.888-.659 10.161 3.523 3.956 13.135-.474 12.4-5.715-.857-6.103-7.737-8.708-11.741-4.446m53.147-.813c-.68.728-1.236 1.98-1.236 2.782 0 .803-.511 1.63-1.136 1.838-1.167.389.279 3.727 2.815 6.499 1.666 1.822 7.152 1.6 9.121-.369 2.008-2.007 2.057-8.635.08-10.587-1.787-1.764-8.05-1.869-9.644-.163m91.812.357c-.799.506-1.736.744-2.084.529-.347-.215-.683.153-.747.816s-.21 1.881-.324 2.706c-.692 4.995.931 6.966 6.107 7.418 4.582.401 6.397-7.174 2.461-10.27-3.072-2.416-3.38-2.485-5.413-1.199m37.523-.157c-4.58 1.005-5.843 6.033-2.381 9.477 4.462 4.439 9.81 2.49 9.81-3.575 0-4.489-3.001-6.873-7.429-5.902m34.513 1.606c-3.201 3.858-.539 9.313 4.916 10.072 3.904.543 7.242-7.273 4.364-10.22-1.648-1.687-7.839-1.588-9.28.148M193.25 668.662c-.87.351-1.25 3.238-1.25 9.493 0 9.025.681 10.993 4.024 11.623.812.154 2.376.688 3.476 1.188 2.984 1.357 24.943 4.196 33.5 4.331 13.018.205 29.27-1.704 37.5-4.405 1.65-.541 3.419-1.076 3.93-1.188 4.033-.885 5.57-4.109 5.57-11.684 0-4.593-.477-8.097-1.2-8.82-1.203-1.203-82.633-1.715-85.55-.538m551.958.645c-.792 1.002-.987 8.794-.372 14.79.161 1.565 4.164 6.873 4.164 5.521 0-.379 1.013-.14 2.25.531 2.547 1.38 8.659 2.609 16.75 3.367 3.025.284 8.491 1.022 12.147 1.641 4.919.833 9.468.833 17.5.003 5.969-.618 12.878-1.221 15.353-1.342s4.739-.559 5.031-.973 2.204-.866 4.25-1.003c2.045-.138 3.719-.609 3.719-1.046s.707-.796 1.571-.796c3.514 0 4.429-2.57 4.429-12.442v-9.585l-42.925.071c-31.976.052-43.165.375-43.867 1.263"/></svg>