<svg xmlns="http://www.w3.org/2000/svg" viewBox="0 0 1024 1024"><path fill="#00e5cc" d="M413 269.917c-1.925.378-4.888 1.379-6.584 2.226-1.697.846-5.184 2.158-7.75 2.916S394 276.815 394 277.277c0 .463-.37.613-.822.333s-2.078.144-3.614.941-3.416 1.449-4.178 1.449-1.386.369-1.386.819c0 .451-2.25 1.432-5 2.181s-5 1.757-5 2.24-.37.65-.822.37c-.452-.279-2.078.144-3.614.941S366.148 288 365.386 288s-1.386.477-1.386 1.059-.37.831-.822.551-2.078.144-3.614.941-3.416 1.449-4.178 1.449-1.386.45-1.386 1-1.098 1-2.441 1-2.719.45-3.059 1-1.271 1-2.07 1-3.359.862-5.691 1.916-7.164 2.907-10.739 4.117-6.928 2.598-7.45 3.083-1.557.884-2.298.884-3.211.9-5.488 2-4.527 2-5 2-2.592.836-4.708 1.859c-2.116 1.022-5.919 2.47-8.452 3.218-2.532.748-4.604 1.636-4.604 1.975 0 .338-.562.648-1.25.689-1.463.087-8.02 2.529-8.75 3.259-.275.275-1.4.65-2.5.834s-2.428.746-2.95 1.25-1.557.916-2.298.916-3.211.9-5.488 2-4.527 2-5 2-2.723.9-5 2-4.929 2-5.893 2-2.031.45-2.371 1-1.271 1-2.07 1-3.359.847-5.691 1.882-5.814 2.43-7.739 3.101c-4.315 1.503-7.952 2.972-10.236 4.134-.955.486-2.215.883-2.799.883s-2.924.9-5.201 2-4.527 2-5 2-2.723.9-5 2-4.73 2-5.452 2-1.312.477-1.312 1.059-.37.831-.822.551-1.924.064-3.271.763c-1.348.699-4.578 1.9-7.179 2.667-2.6.768-4.728 1.748-4.728 2.178s-.72.782-1.599.782c-1.846 0-10.401 8.699-10.401 10.576 0 .691-.446 1.407-.991 1.591-.546.183-1.094 1.571-1.218 3.083-.125 1.512-.579 2.75-1.009 2.75S168 434.919 168 504.487v126.486l3.622 1.514c1.992.832 4.666 1.513 5.941 1.513s2.597.45 2.937 1 1.69 1 3 1 2.66.45 3 1c.937 1.516 8.447 1.196 10.071-.429 1.174-1.173 1.429-6.713 1.429-31.067v-29.639l2.25.722c2.977.955 8.64 2.429 11.75 3.058 1.375.278 3.4.859 4.5 1.292 4.527 1.779 9.272 3.063 11.321 3.063 1.198 0 2.179.401 2.179.891 0 .489 1.462 1.132 3.25 1.428 5.238.868 9.108 1.775 11.25 2.637 1.1.443 5.262 1.759 9.25 2.925s10.288 3.05 14 4.187 7.524 2.174 8.471 2.304 2.034.55 2.417.932c.382.383 1.976.696 3.542.696s3.629.395 4.584.877c2.662 1.346 8.679 3.123 10.571 3.123.93 0 2.474.404 3.429.897 1.541.797 5.615 2.054 19.736 6.088 2.2.629 4.774 1.251 5.721 1.384.947.132 2.034.553 2.417.935.382.383 1.526.696 2.542.696s2.629.406 3.584.903c.955.496 3.536 1.359 5.736 1.917s5.8 1.531 8 2.162c2.2.63 4.675 1.274 5.5 1.431s2.175.514 3 .795c5.687 1.933 8.868 2.792 10.335 2.792.93 0 2.474.395 3.429.877 2.662 1.346 8.679 3.123 10.571 3.123.93 0 2.474.395 3.429.877 2.662 1.346 8.679 3.123 10.571 3.123.93 0 2.474.395 3.429.877 2.662 1.346 8.679 3.123 10.571 3.123.93 0 2.474.412 3.429.915 1.604.847 11.173 3.707 20.736 6.2 5.83 1.52 16.512 4.582 24.25 6.953 3.712 1.137 7.425 2.194 8.25 2.349.825.154 2.175.526 3 .826s4.875 1.502 9 2.672 8.882 2.568 10.571 3.106 3.833.979 4.764.979c.93 0 2.474.412 3.429.915s5.111 1.863 9.236 3.022 8.882 2.546 10.571 3.084 3.833.979 4.764.979c.93 0 2.474.406 3.429.903 2.346 1.219 9.923 3.43 11.756 3.43.814 0 1.48.375 1.48.834s1.155.833 2.566.833 3.358.424 4.327.943 2.851 1.124 4.184 1.346 3.098.634 3.923.916c5.572 1.904 8.867 2.795 10.335 2.795.93 0 2.474.395 3.429.877 2.662 1.346 8.679 3.123 10.571 3.123.93 0 2.474.407 3.429.904 1.515.788 4.516 1.728 19.807 6.198 1.689.494 3.833.898 4.764.898.93 0 2.474.395 3.429.877 2.865 1.448 8.739 3.123 10.95 3.123 3.175 0 3.351 1.52 3.284 28.41-.034 13.8-.047 25.584-.03 26.187.062 2.137 3.8 5.403 6.149 5.372 1.311-.018 5.072-1.368 8.358-3 3.286-1.633 6.548-2.969 7.25-2.969.701 0 1.275-.45 1.275-1s.693-1 1.54-1c2.469 0 9.156-3.766 9.837-5.539.342-.894.623-13.874.623-28.845v-27.219l8.813-4.199c4.848-2.309 9.348-4.198 10-4.198.653 0 1.187-.477 1.187-1.059s.372-.829.827-.548 3.005-.593 5.669-1.941 5.442-2.452 6.173-2.452c.732 0 1.331-.45 1.331-1s.697-1 1.548-1 3.411-.9 5.688-2 4.73-2 5.452-2 1.312-.375 1.312-.833c0-.459.563-.838 1.25-.844.688-.005 3.247-.98 5.688-2.166 2.441-1.187 5.028-2.157 5.75-2.157s1.312-.45 1.312-1 .668-1 1.484-1 4.271-1.35 7.677-3c3.407-1.65 6.789-3 7.516-3s1.323-.45 1.323-1 .9-1 2-1 2-.45 2-1 .9-1 2-1 2-.477 2-1.059.37-.831.822-.551 2.078-.144 3.614-.941 3.416-1.449 4.178-1.449 1.386-.45 1.386-1 .9-1 2-1 2-.375 2-.833c0-.459.563-.838 1.25-.844.688-.005 3.247-.98 5.688-2.166 2.441-1.187 5.028-2.157 5.75-2.157s1.312-.45 1.312-1 .9-1 2-1 2-.375 2-.833c0-.459.563-.838 1.25-.844.688-.005 3.247-.98 5.688-2.166 2.441-1.187 4.916-2.171 5.5-2.188s3.751-1.368 7.037-3c3.286-1.633 6.548-2.969 7.25-2.969.701 0 1.275-.45 1.275-1s.788-1.014 1.75-1.031c.962-.018 4.439-1.368 7.725-3 3.286-1.633 6.998-2.969 8.25-2.969H826v51.05l2.25.846c2.559.963 8.499.318 9.321-1.011.301-.487 1.42-.885 2.488-.885s1.941-.477 1.941-1.059.414-.803.919-.491 1.523-.035 2.26-.772c.738-.737 2.491-1.629 3.896-1.982 1.406-.353 3.539-1.494 4.741-2.536l2.184-1.895v-67.118c0-65.614-.444-76.147-3.207-76.147-.436 0-.793-.9-.793-2s-.477-2-1.059-2-.797-.424-.476-.943c.32-.519-1.003-2.529-2.941-4.467S844 498.527 844 497.867s-.273-.928-.606-.594c-.333.333-1.682-.47-2.997-1.785-3.16-3.16-13.409-7.488-17.732-7.488-.93 0-2.474-.395-3.429-.877-2.818-1.424-8.725-3.123-10.857-3.123-1.088 0-2.406-.417-2.929-.927s-2.3-1.114-3.95-1.342-3.675-.677-4.5-.998c-1.787-.696-13.451-3.716-17-4.401-1.375-.265-3.4-.847-4.5-1.293-3.464-1.404-10.479-3.372-12.02-3.372-.814 0-1.48-.326-1.48-.724s-1.687-1.012-3.75-1.363c-9.068-1.544-10.299-1.85-10.818-2.69-.303-.49-2.098-.89-3.991-.89s-3.441-.45-3.441-1-1.131-1-2.514-1-3.295-.406-4.25-.903c-1.629-.846-4.06-1.545-14.486-4.165-2.337-.587-5.632-1.487-7.321-2s-3.833-.932-4.764-.932c-.93 0-2.474-.395-3.429-.877-2.662-1.346-8.679-3.123-10.571-3.123-.93 0-2.474-.406-3.429-.903-.955-.496-3.536-1.359-5.736-1.917s-5.8-1.531-8-2.162c-2.2-.63-4.774-1.254-5.721-1.387-.947-.132-2.034-.553-2.417-.935-.382-.383-1.976-.696-3.542-.696s-3.629-.395-4.584-.877c-2.662-1.346-8.679-3.123-10.571-3.123-.93 0-2.474-.406-3.429-.903-.955-.496-3.536-1.359-5.736-1.917-8.271-2.099-13.114-3.378-16.77-4.429-2.074-.596-4.436-1.084-5.25-1.084s-1.48-.375-1.48-.834-1.237-.835-2.75-.837-4.1-.895-5.75-1.985-3.9-2.551-5-3.247-2.225-1.539-2.5-1.874c-1.074-1.312-6.781-3.776-7.373-3.183-.345.344-.627.151-.627-.431 0-.581-1.687-1.345-3.75-1.696-9.068-1.544-10.299-1.85-10.818-2.69-.303-.49-1.88-.89-3.505-.89s-3.736-.406-4.691-.903c-.955-.496-3.536-1.359-5.736-1.917-10.567-2.681-13.225-3.384-16.071-4.248-1.689-.512-4.412-.932-6.05-.932s-3.459-.48-4.046-1.067c-2.413-2.413-23.769-.429-33.443 3.107-5.699 2.083-9.89 2.536-9.89 1.069 0-.489-1.462-1.123-3.25-1.408-9.324-1.486-16.897-4.438-20.561-8.016-2.075-2.027-4.091-3.685-4.479-3.685s-2.617-1.8-4.953-4c-2.335-2.2-4.59-4-5.011-4-.42 0-2.177-1.35-3.903-3-1.727-1.65-3.71-3-4.408-3s-1.418-.416-1.602-.925c-.183-.509-.976-1.071-1.762-1.25-1.43-.325-4.073-2.163-6.683-4.646-1.145-1.09-1.388-9.362-1.388-47.22 0-44.856-.048-45.984-2.112-49.659-4.536-8.076-10.421-10.438-20.888-8.383m-2.5 12.42c-3.3 1.161-6.225 2.35-6.5 2.642-.275.293-2.3 1.13-4.5 1.86s-5.908 2.191-8.239 3.245-4.61 1.916-5.062 1.916c-.453 0-2.686.9-4.963 2s-4.746 2-5.488 2c-.741 0-1.776.398-2.298.884-.523.485-3.875 1.871-7.45 3.078-3.575 1.208-7.832 2.803-9.46 3.546-1.627.743-3.315 1.131-3.75.863-.434-.269-.79-.012-.79.57s-.59 1.059-1.312 1.059-3.175.9-5.452 2-4.746 2-5.488 2c-.741 0-1.785.437-2.319.971-.535.535-1.862 1.113-2.95 1.287s-3.511 1.086-5.383 2.028c-1.872.943-4.234 1.714-5.25 1.714-1.015 0-1.846.352-1.846.782s-2.137 1.407-4.75 2.172-6.226 2.213-8.03 3.218c-1.805 1.005-4.167 1.828-5.25 1.828s-1.97.352-1.97.782-2.128 1.41-4.728 2.178c-2.601.767-5.831 1.968-7.179 2.667s-2.819 1.042-3.271.763c-.452-.28-.822-.13-.822.333 0 .462-2.072 1.452-4.604 2.2s-6.336 2.196-8.452 3.218c-2.116 1.023-4.518 1.859-5.337 1.859s-1.715.365-1.991.812-3.79 1.894-7.809 3.216c-4.019 1.321-7.532 2.662-7.807 2.979s-2.525 1.218-5 2.003c-2.475.784-5.593 1.979-6.928 2.656-1.336.678-2.798 1.003-3.25.724-.452-.28-.822-.031-.822.551s-.9 1.059-2 1.059-2 .369-2 .819c0 .451-2.279 1.44-5.063 2.198-2.785.759-5.287 1.74-5.559 2.181s-1.594.802-2.937.802-2.441.45-2.441 1-.873 1-1.941 1-2.219.45-2.559 1-1.716 1-3.059 1-2.441.369-2.441.819c0 .451-2.25 1.432-5 2.181s-5 1.674-5 2.056-1.38.97-3.067 1.307c-2.51.502-12.291 8.428-11.077 8.976.196.089.05 3.086-.325 6.661-.727 6.934-1.016 52.252-.715 112.224l.184 36.725 2.95 1.525c1.623.839 4.098 1.526 5.5 1.526H190v-20.441c0-12.549.386-20.68 1-21.059.55-.34 1-1.632 1-2.87s.787-3.15 1.75-4.246 2.23-2.839 2.817-3.872 1.918-2.358 2.958-2.945 2.508-1.634 3.263-2.326 1.787-1.004 2.293-.691c.505.312.919.091.919-.491s.59-1.059 1.312-1.059 3.175-.9 5.452-2 4.836-2 5.688-2 1.548-.45 1.548-1 .873-1 1.941-1 2.219-.45 2.559-1 1.716-1 3.059-1 2.441-.45 2.441-1 .574-1 1.275-1c.702 0 3.864-1.269 7.028-2.82 5.694-2.793 5.731-2.839 3.724-4.655-1.115-1.009-2.027-2.201-2.027-2.648s-2.7-3.615-6-7.04-6-6.609-6-7.074c0-.466-.9-1.813-2-2.993-2.107-2.262-2.805-8.77-.941-8.77.582 0 .781-.45.441-1s-.137-1 .45-1c.588 0 2.481-1.35 4.207-3 1.727-1.65 3.748-3 4.491-3 .744 0 1.352-.374 1.352-.831s1.238-1.47 2.75-2.25 3.792-2.44 5.065-3.688 2.735-2.009 3.25-1.691c.514.318.935.178.935-.312s1.238-1.529 2.75-2.309 3.622-2.207 4.689-3.169c1.066-.962 2.528-1.75 3.25-1.75.721 0 1.311-.45 1.311-1s.9-1 2-1 2-.38 2-.845c0-.893 39.844-21.155 41.6-21.155.563 0 2.887-.9 5.164-2s4.81-2 5.629-2 1.767-.45 2.107-1 1.69-1 3-1 2.66-.45 3-1 1.69-1 3-1 2.66-.45 3-1 1.498-1 2.573-1 2.736-.412 3.691-.915c2.349-1.239 15.082-4.925 18.448-5.341 1.492-.184 3.029-.652 3.417-1.04.387-.387 2.628-.704 4.979-.704s4.552-.45 4.892-1 2.14-1 4-1 3.66-.45 4-1 2.14-1 4-1 3.66-.45 4-1c1.25-2.022 10.974-.789 16.736 2.123.955.482 2.616.877 3.691.877s2.233.45 2.573 1 1.69 1 3 1 2.66.45 3 1 1.491 1 2.559 1 1.941.354 1.941.787.788.88 1.75.994 2.65.321 3.75.462c1.967.253 2.005-.404 2.278-39.743.297-42.666.279-42.975-2.618-46.316-2.294-2.644-4.798-2.614-12.66.153M385 370.06a961 961 0 0 0-8 1.947 198 198 0 0 1-9 1.971c-2.475.469-7.875 1.837-12 3.041s-8.625 2.4-10 2.66c-1.375.259-3.4.836-4.5 1.282s-4.025 1.391-6.5 2.099-4.927 1.66-5.45 2.114c-.522.454-1.958.826-3.191.826s-2.519.45-2.859 1-1.407 1-2.372 1-4.096 1.13-6.959 2.511c-4.741 2.287-12.168 5.206-14.669 5.765-.55.123-1.229.525-1.509.894-.281.368-1.17.818-1.977 1-.806.181-2.076.897-2.821 1.589-.745.693-1.768 1.004-2.274.691-.505-.312-.919-.091-.919.491s-.707 1.059-1.571 1.059c-.865 0-2.251.679-3.081 1.509s-1.923 1.254-2.429.941c-.505-.312-.919-.199-.919.252 0 .45-3.038 2.386-6.75 4.301s-6.979 3.787-7.259 4.159c-.281.373-1.163.826-1.961 1.008-.799.181-2.342 1.118-3.43 2.08-1.087.962-2.567 1.75-3.289 1.75-.721 0-1.311.374-1.311.831s-1.238 1.47-2.75 2.25-3.622 2.207-4.689 3.169c-1.066.962-2.528 1.75-3.25 1.75-.721 0-1.314.337-1.318.75s-1.691 1.874-3.75 3.249c-6.651 4.439-6.717 4.604-3.308 8.24 1.681 1.794 3.058 3.618 3.06 4.054.006 1.005 15.833 16.707 16.84 16.707.412 0 2.315 1.462 4.23 3.25 1.914 1.787 4.708 3.889 6.208 4.669s2.727 1.819 2.727 2.309.414.634.919.322c.506-.313 1.519.005 2.25.705 1.76 1.685 17.98 9.764 19.581 9.753.688-.004 1.25.469 1.25 1.051s.37.831.822.551 2.078.144 3.614.941 3.615 1.449 4.619 1.449c1.005 0 2.105.45 2.445 1s1.69 1 3 1 2.629.4 2.932.89c.302.489 2.129 1.164 4.059 1.5 10.834 1.884 9.567 2.197 15.349-3.787 2.938-3.039 6.2-5.798 7.25-6.132 1.051-.333 1.91-.939 1.91-1.345 0-.913 21.815-11.126 23.765-11.126.432 0 3.474-1.336 6.76-2.969s6.461-2.982 7.056-3 3.259-1.134 5.923-2.483c2.664-1.348 5.215-2.222 5.669-1.941.455.281.827.034.827-.548s.59-1.059 1.312-1.059 3.175-.9 5.452-2 4.617-2 5.201-2c1.112 0 5.175-2.078 6.035-3.086.275-.323 2.637-1.209 5.25-1.969s4.75-1.733 4.75-2.163.59-.782 1.312-.782 3.175-.9 5.452-2 4.836-2 5.688-2 1.548-.45 1.548-1 .595-1 1.323-1c.727 0 4.109-1.35 7.516-3s6.551-3 6.989-3 2.659-.9 4.936-2 4.527-2 5-2 2.675-.877 4.892-1.948c2.218-1.072 4.665-2.084 5.438-2.25 1.456-.313 2.864-1.778 2.891-3.009.021-.968-15.703-16.792-16.692-16.798-.436-.002-2.143-1.24-3.793-2.751s-4.684-3.871-6.743-5.245-3.746-2.863-3.75-3.308-.421-.553-.926-.241-1.519-.005-2.25-.706c-.732-.7-3.468-2.391-6.081-3.757s-4.75-2.822-4.75-3.235c0-.414-.9-.752-2-.752s-2-.45-2-1-.9-1-2-1-2-.477-2-1.059-.37-.831-.822-.551-1.924-.064-3.271-.763c-1.348-.699-4.578-1.9-7.179-2.667-2.6-.768-4.728-1.653-4.728-1.966s-.862-.633-1.915-.713-3.994-.85-6.535-1.712c-5.039-1.711-5.405-1.729-10.55-.509m136.5 44.854c-1.65.456-5.7 1.43-9 2.163-3.3.734-7.093 1.894-8.428 2.578s-2.798 1.014-3.25.735c-.452-.28-.822-.031-.822.551s-.59 1.059-1.312 1.059-3.175.9-5.452 2-4.56 2-5.073 2-2.191.652-3.727 1.449-3.162 1.22-3.614.941c-.452-.28-.822-.031-.822.551s-.595 1.059-1.323 1.059c-.727 0-4.215 1.414-7.75 3.143s-6.989 3.153-7.677 3.166c-.687.014-1.25.399-1.25.858s-.624.833-1.386.833-2.642.652-4.178 1.449-3.162 1.22-3.614.941c-.452-.28-.822-.031-.822.551s-.59 1.059-1.312 1.059-3.175.9-5.452 2-4.617 2-5.201 2c-1.028 0-5.019 1.984-6.035 3-.73.73-7.287 3.172-8.75 3.259-.687.041-1.25.449-1.25.908 0 .458-.59.833-1.312.833s-3.175.9-5.452 2-4.836 2-5.688 2-1.548.45-1.548 1-.595 1-1.323 1c-.727 0-4.109 1.35-7.516 3s-6.551 3-6.989 3-2.659.9-4.936 2-4.527 2-5 2-2.857.97-5.298 2.157c-2.441 1.186-5 2.161-5.688 2.166-.687.006-1.25.385-1.25.844s-.59.833-1.312.833-3.309.97-5.75 2.157c-2.441 1.186-5 2.161-5.688 2.166-.687.006-1.25.385-1.25.844s-.9.833-2 .833-2 .45-2 1-.9 1-2 1-2 .45-2 1-.758 1-1.684 1c-1.831 0-15.608 13.685-16.146 16.038-.182.794-.638 1.672-1.014 1.953-.711.53-4.427 8.029-5.704 11.509-3.182 8.673-3.632 76.042-.544 81.479 2.399 4.225 7.542 7.021 12.913 7.021 1.198 0 2.179.45 2.179 1s1.548 1 3.441 1 3.719.45 4.059 1 1.69 1 3 1 2.66.45 3 1 1.572 1 2.738 1 3.502.42 5.191.932c1.689.513 5.096 1.457 7.571 2.098s5.281 1.571 6.236 2.067 2.868.903 4.25.903 2.514.354 2.514.787 1.012.859 2.25.946c1.238.088 3.657.419 5.378.736 4.36.803 4.343.949 4.358-36.398.013-31.018.38-35.851 3.137-41.307.482-.955.877-2.221.877-2.813 0-1.851 6.162-13.951 7.105-13.951.492 0 .895-.596.895-1.323 0-2.942 17.633-18.677 20.93-18.677.589 0 1.07-.45 1.07-1s.661-1 1.47-1 3.072-.9 5.03-2 4.447-2 5.53-2 1.97-.45 1.97-1 .59-1 1.312-1 3.175-.9 5.452-2 4.836-2 5.688-2 1.548-.45 1.548-1 .59-1 1.312-1 3.309-.97 5.75-2.157c2.441-1.186 5.001-2.161 5.688-2.166.688-.006 1.25-.385 1.25-.844s.574-.833 1.275-.833c.702 0 3.964-1.336 7.25-2.969s6.763-2.982 7.725-3S488 477.55 488 477s.595-1 1.323-1c.727 0 4.109-1.35 7.516-3s6.861-3 7.677-3 1.484-.45 1.484-1 .873-1 1.941-1 2.219-.45 2.559-1 1.716-1 3.059-1 2.441-.45 2.441-1 .59-1 1.312-1 3.309-.97 5.75-2.157c2.441-1.186 5.001-2.161 5.688-2.166.688-.006 1.25-.385 1.25-.844s.59-.833 1.312-.833 3.175-.9 5.452-2 4.836-2 5.688-2 1.548-.45 1.548-1 .59-1 1.312-1 3.309-.97 5.75-2.157c2.441-1.186 5.001-2.161 5.688-2.166.688-.006 1.25-.385 1.25-.844s.574-.833 1.275-.833c.702 0 3.964-1.336 7.25-2.969s6.763-2.982 7.725-3S576 439.55 576 439s.59-1 1.312-1 3.309-.97 5.75-2.157c2.441-1.186 4.981-2.161 5.645-2.166.664-.006 1.436-.607 1.716-1.336.574-1.496-4.219-4.341-7.314-4.341-1.095 0-2.238-.4-2.541-.89-.302-.489-2.016-1.113-3.809-1.387-1.792-.273-12.259-2.796-23.259-5.605-21.735-5.55-27.411-6.473-32-5.204m-264.259 19.072c-.683 1.093-1.241 2.583-1.241 3.312 0 1.862 3.924 5.867 5.06 5.165.517-.319.94-.104.94.478s1.323 1.059 2.941 1.059 3.219.45 3.559 1 1.716 1 3.059 1 2.441.45 2.441 1 .64 1 1.422 1c2.121 0 17.702 8.134 20.568 10.738 1.369 1.244 2.762 2.262 3.094 2.262.333 0 1.912 1.124 3.51 2.499 1.599 1.374 3.229 2.499 3.624 2.5.394 0 3.541 2.721 6.992 6.046 5.228 5.037 6.777 5.996 9.282 5.75 2.736-.268 3.034-.657 3.3-4.295.268-3.682-.149-4.435-5.25-9.466-3.048-3.006-5.542-5.144-5.542-4.752s-1.91-1.085-4.245-3.284-4.603-3.998-5.041-3.998-1.764-.9-2.944-2c-1.181-1.1-2.737-2-3.459-2-.721 0-1.311-.45-1.311-1s-.9-1-2-1-2-.368-2-.817c0-1.124-15.482-8.589-21-10.125-2.475-.689-5.281-1.659-6.236-2.155-3.137-1.631-8.188-1.056-9.523 1.083m342.09 6.958c-2.292 1.037-4.43 1.624-4.75 1.304-.319-.32-.581-.056-.581.585 0 .642-.595 1.167-1.323 1.167-.727 0-4.109 1.35-7.516 3s-6.861 3-7.677 3-1.484.45-1.484 1-.59 1-1.312 1-3.175.9-5.452 2-4.531 2-5.01 2-3.658 1.35-7.065 3c-3.406 1.65-6.861 3-7.677 3s-1.484.45-1.484 1-.59 1-1.312 1-3.175.9-5.452 2-4.836 2-5.688 2-1.548.45-1.548 1-.873 1-1.941 1-2.219.45-2.559 1-1.716 1-3.059 1-2.441.45-2.441 1-.588 1-1.307 1-4.396 1.554-8.171 3.453c-3.775 1.9-7.237 3.223-7.693 2.941-.456-.281-.829-.035-.829.547s-.661 1.059-1.47 1.059-3.072.9-5.03 2-4.447 2-5.53 2-1.97.45-1.97 1-.661 1-1.47 1-2.945.813-4.75 1.807c-1.804.994-4.855 2.399-6.78 3.123s-6.425 2.683-10 4.353-7.062 3.039-7.75 3.043-1.25.382-1.25.841-.873.833-1.941.833-2.219.45-2.559 1-1.716 1-3.059 1-2.441.45-2.441 1-.599 1-1.331 1c-.731 0-3.509 1.103-6.173 2.452s-5.215 2.222-5.669 1.941c-.455-.281-.827-.034-.827.548s-.863 1.059-1.917 1.059-2.066.416-2.25.925c-.183.509-1.008 1.071-1.833 1.25-1.778.385-16 14.184-16 15.524 0 .508-.788 1.814-1.75 2.901-.962 1.088-1.868 2.54-2.012 3.227-.145.686-1.114 3.144-2.154 5.46-3.222 7.179-3.528 11.183-3.556 46.627l-.028 34.413 3.024 1.69c2.838 1.586 5.357 2.279 13.226 3.64 1.788.309 3.25.963 3.25 1.452 0 .49.981.891 2.179.891 1.89 0 4.968.795 10.821 2.795.825.282 2.59.694 3.923.916s3.215.828 4.184 1.346 2.916.943 4.327.943 2.566.354 2.566.787 1.433.897 3.184 1.03c1.75.134 3.663.604 4.25 1.045.586.441 3.766 1.4 7.066 2.131s6.428 1.707 6.95 2.168 2.21.839 3.75.839 2.8.375 2.8.833c0 .459.666.834 1.48.834 1.833 0 9.41 2.211 11.756 3.43.955.497 3.066.903 4.691.903s3.233.45 3.573 1 1.941 1 3.559 1 2.941.45 2.941 1 1.548 1 3.441 1 3.719.45 4.059 1 1.366 1 2.281 1c1.43 0 12.684 3.109 17.219 4.757.825.3 2.175.673 3 .83 2.904.551 9.52 2.618 11.236 3.51.955.497 3.018.903 4.584.903s3.158.312 3.539.692c.381.381 1.684.844 2.895 1.029s2.64.773 3.175 1.308c.534.534 1.862.971 2.95.971 2.132 0 8.039 1.699 10.857 3.123.955.482 2.499.877 3.429.877.931 0 3.075.417 4.764.928 1.689.51 6.446 1.915 10.571 3.122 4.125 1.208 8.175 2.437 9 2.731s2.85.722 4.5.95 3.428.832 3.95 1.342 1.958.927 3.191.927 2.507.43 2.832.956 1.305.683 2.177.348c1.363-.523 1.521-2.308 1.128-12.706-1.051-27.747 1.239-62.042 4.313-64.598.33-.275.877-1.625 1.214-3s1.418-3.568 2.404-4.874c3.801-5.036 8.566-10.126 9.479-10.126.525 0 1.634-.679 2.464-1.509s1.923-1.254 2.429-.941c.505.312.919.091.919-.491s.9-1.059 2-1.059 2-.45 2-1 .59-1 1.312-1 3.175-.9 5.452-2 4.531-2 5.01-2 3.658-1.35 7.065-3c3.406-1.65 6.861-3 7.677-3s1.484-.45 1.484-1 .59-1 1.312-1 3.175-.9 5.452-2 4.836-2 5.688-2 1.548-.45 1.548-1 .9-1 2-1 2-.369 2-.819c0-.451 2.25-1.432 5-2.181s5-1.73 5-2.181c0-.45.9-.819 2-.819s2-.45 2-1 .574-1 1.275-1c.702 0 3.964-1.336 7.25-2.969s6.763-2.982 7.725-3S728 551.55 728 551s.59-1 1.312-1 3.175-.9 5.452-2 4.836-2 5.688-2 1.548-.45 1.548-1 .873-1 1.941-1 2.219-.45 2.559-1 1.716-1 3.059-1 2.441-.45 2.441-1 .9-1 2-1 2-.45 2-1 .59-1 1.312-1 3.309-.97 5.75-2.157c2.441-1.186 5.001-2.161 5.688-2.166.688-.006 1.25-.385 1.25-.844s.574-.833 1.275-.833c.702 0 3.964-1.336 7.25-2.969s6.763-2.982 7.725-3S788 525.55 788 525s.567-1 1.261-1 4.856-1.789 9.25-3.975 8.777-3.986 9.739-4S810 515.55 810 515s.59-1 1.312-1 3.175-.9 5.452-2 4.836-2 5.688-2 1.548-.45 1.548-1 .788-1.01 1.75-1.022 2.821-.846 4.13-1.853l2.38-1.83-2.231-1.562c-1.227-.859-6.122-2.774-10.88-4.254-4.757-1.481-9.549-3.06-10.649-3.51s-3.35-1.097-5-1.438c-5.731-1.185-22.367-5.434-24.5-6.259-.825-.319-2.625-.749-4-.956-1.375-.208-3.175-.657-4-.998s-2.175-.748-3-.905c-1.621-.308-8.563-2.316-11-3.182a24 24 0 0 0-3-.814c-.825-.155-4.425-1.176-8-2.27s-8.525-2.526-11-3.182-5.4-1.558-6.5-2.004-3.35-1.089-5-1.43c-5.731-1.185-22.367-5.434-24.5-6.259-.825-.319-2.617-.765-3.981-.991-1.365-.226-2.715-.72-3-1.096s-.969-.724-1.519-.772-2.8-.573-5-1.167-6.025-1.621-8.5-2.281-5.175-1.441-6-1.734a25 25 0 0 0-3-.818c-.825-.157-3.075-.726-5-1.266-4.628-1.298-12.9-3.507-15.235-4.069-.405-.097-3.105-.838-6-1.646s-7.065-1.964-9.265-2.569c-2.2-.604-4.675-1.339-5.5-1.632a25 25 0 0 0-3-.818c-.825-.157-3.075-.726-5-1.266a654 654 0 0 0-13.5-3.583c-1.1-.278-3.876.343-6.169 1.38M251.11 470.137c-1.315.496-3.79 1.503-5.5 2.236-12.525 5.371-19.925 8.161-20.86 7.865-.412-.131-.75.212-.75.762s-.845 1-1.878 1c-1.704 0-4.952 2.68-4.015 3.313.815.55 13.528 3.908 16.643 4.396 1.787.281 3.25.836 3.25 1.234s.666.724 1.48.724 3.289.525 5.5 1.166c2.211.642 5.708 1.58 7.77 2.084 5.663 1.386 12.566 3.253 14.25 3.855.825.294 2.59.717 3.923.939s3.215.828 4.184 1.346 2.916.943 4.327.943 2.566.45 2.566 1 .981 1 2.179 1c2.302 0 8.14 1.649 11.057 3.123.955.482 2.499.877 3.429.877 1.468 0 4.763.891 10.335 2.795 4.587 1.567 6.029 1.26 7.072-1.509.578-1.532 1.698-4.093 2.489-5.69.792-1.597 1.439-3.007 1.439-3.133 0-.259-3.718-1.497-6-1.998-2.974-.653-15.511-4.908-16-5.43-.275-.294-1.4-.685-2.5-.869s-2.428-.746-2.95-1.25-1.76-.916-2.75-.916-1.8-.45-1.8-1-.361-.887-.802-.75c-1.247.388-11.198-4.482-11.198-5.48 0-.488-.414-.632-.919-.32-.506.313-1.519-.015-2.25-.729-.732-.713-3.02-2.089-5.084-3.057s-4.876-2.884-6.25-4.258c-1.373-1.373-2.497-2.182-2.497-1.796s-.788.024-1.75-.803c-2.801-2.406-3.609-2.625-6.14-1.67m-49.926 27.643c-.732 2.442-1.184 11.202-1.184 22.926v18.973l2.547 1.16c1.401.639 3.32 1.161 4.264 1.161s4.18.9 7.189 2 6.491 2 7.736 2 2.264.352 2.264.782 1.212.882 2.694 1.005 2.944.56 3.25.971c.306.412 1.906.904 3.556 1.093s3.45.693 4 1.12c.94.731 3.555 1.355 11.25 2.686 1.787.309 3.25.867 3.25 1.24s1.453.788 3.228.924c1.776.135 7.117 1.581 11.869 3.212S276.696 562 277.869 562c1.172 0 2.131.352 2.131.782s1.149.877 2.553.993 3.4.664 4.434 1.218 3.036 1.007 4.447 1.007 2.566.352 2.566.782 1.149.877 2.553.993 3.317.62 4.25 1.119c.933.5 3.834 1.229 6.447 1.621l4.75.712V522h-2.441c-1.343 0-2.658-.352-2.924-.781s-1.929-.892-3.697-1.027-3.715-.558-4.326-.94c-.612-.383-1.787-.792-2.612-.91-1.489-.212-8.124-2.089-11-3.111a25 25 0 0 0-3-.818c-.825-.157-3.187-.764-5.25-1.349a528 528 0 0 0-8-2.182c-2.337-.615-4.925-1.358-5.75-1.651a25 25 0 0 0-3-.818c-1.292-.245-3.764-.941-11-3.095-.825-.246-1.604-.447-1.732-.447s-1.702-.463-3.5-1.028a108 108 0 0 0-6.768-1.837c-1.925-.445-8.675-2.248-15-4.008-18.025-5.014-19.375-5.028-20.816-.218M832 517.204c0 .438-.9.796-2 .796s-2 .45-2 1-.59 1-1.312 1-3.309.97-5.75 2.157c-2.441 1.186-5 2.161-5.688 2.166-.687.006-1.25.385-1.25.844s-.9.833-2 .833-2 .45-2 1-.574 1-1.275 1c-.702 0-3.964 1.336-7.25 2.969s-6.763 2.982-7.725 3S792 534.45 792 535s-.59 1-1.312 1-3.175.9-5.452 2-4.836 2-5.688 2-1.548.45-1.548 1-.59 1-1.312 1-3.309.97-5.75 2.157c-2.441 1.186-5 2.161-5.688 2.166-.687.006-1.25.385-1.25.844s-.661.833-1.47.833-3.072.9-5.03 2-4.447 2-5.53 2-1.97.45-1.97 1-.567 1-1.261 1-4.856 1.789-9.25 3.975-8.538 3.986-9.209 4-2.822.925-4.78 2.025-4.254 2-5.102 2c-.847 0-2.22.679-3.05 1.509s-1.923 1.254-2.429.941c-.505-.312-.919-.091-.919.491s-.574 1.059-1.275 1.059c-.702 0-3.964 1.336-7.25 2.969s-6.763 2.982-7.725 3S696 576.45 696 577s-.59 1-1.312 1-3.309.97-5.75 2.157c-2.441 1.186-5 2.161-5.688 2.166-.687.006-1.25.385-1.25.844s-.599.833-1.331.833c-.731 0-3.509 1.103-6.173 2.452s-5.215 2.222-5.669 1.941c-.455-.281-.827-.034-.827.548s-.569 1.059-1.265 1.059-3.958 1.313-7.25 2.918-6.66 3.068-7.485 3.25c-.825.183-1.729.633-2.009 1.002-.281.368-1.156.818-1.945 1-3.789.872-8.805 7.91-12.92 18.127-1.6 3.975-1.553 41.703.053 41.703 1.955 0 8-2.317 13.673-5.241 2.943-1.518 6.205-2.759 7.25-2.759s1.898-.45 1.898-1 .569-1 1.265-1 4.183-1.424 7.75-3.165 7.048-3.166 7.735-3.167 1.25-.376 1.25-.835.564-.833 1.254-.833 4.965-1.8 9.501-4 8.59-4 9.011-4 3.682-1.424 7.249-3.165 7.048-3.166 7.735-3.167 1.25-.376 1.25-.835.9-.833 2-.833 2-.34 2-.755c0-.744 6.313-3.244 8.75-3.465.688-.062 1.25-.488 1.25-.947s.574-.833 1.275-.833c.702 0 3.964-1.336 7.25-2.969s6.763-2.982 7.725-3S744 611.55 744 611s.661-1 1.47-1 3.072-.9 5.03-2 4.447-2 5.53-2 1.97-.45 1.97-1 .9-1 2-1 2-.45 2-1 .574-1 1.275-1c.702 0 3.964-1.336 7.25-2.969s6.763-2.982 7.725-3S780 595.55 780 595s.599-1 1.331-1c.731 0 3.509-1.103 6.173-2.452s5.215-2.222 5.669-1.941c.455.281.827.034.827-.548s.9-1.059 2-1.059 2-.45 2-1 .59-1 1.312-1 3.175-.9 5.452-2 4.836-2 5.688-2 1.548-.45 1.548-1 .624-1 1.386-1 2.642-.652 4.178-1.449 3.162-1.22 3.614-.941c.452.28.822.031.822-.551s.9-1.059 2-1.059 2-.45 2-1 .599-1 1.331-1c.731 0 3.509-1.103 6.173-2.452s5.215-2.222 5.669-1.941c.455.281.827.034.827-.548s.852-1.059 1.893-1.059c2.992 0 3.358-2.276 3.752-23.284.306-16.348.104-20.3-1.163-22.75-.843-1.631-1.184-2.969-.758-2.972.427-.004-.531-.688-2.129-1.521-2.948-1.538-9.595-1.724-9.595-.269m-653 34.214c0 6.951.674 8.582 3.548 8.582 1.284 0 2.581.4 2.884.89.519.84 1.75 1.146 10.818 2.69 2.063.351 3.75 1.04 3.75 1.529 0 .49.981.891 2.179.891 2.302 0 8.14 1.649 11.057 3.123.955.482 2.499.877 3.429.877 1.892 0 7.909 1.777 10.571 3.123.955.482 3.066.877 4.691.877s3.233.45 3.573 1 1.641 1 2.892 1 2.592.317 2.979.704c.388.388 1.89.864 3.34 1.058s3.427.777 4.396 1.295c.969.519 2.916.943 4.327.943s2.566.45 2.566 1 .981 1 2.179 1c2.302 0 8.14 1.649 11.057 3.123.955.482 2.499.877 3.429.877 1.467 0 4.648.859 10.335 2.792.825.281 2.175.638 3 .795 2.202.418 9.191 2.516 11.5 3.452 2.137.866 5.992 1.771 11.25 2.642l3.25.538v-5.91c0-6.218-1.102-8.309-4.379-8.309-1.716 0-4.762-.801-10.621-2.792a26 26 0 0 0-3-.791c-2.654-.497-15.442-4.593-17.236-5.52-.955-.493-2.499-.897-3.429-.897-1.892 0-7.909-1.777-10.571-3.123-.955-.482-2.499-.877-3.429-.877-.931 0-3.075-.42-4.764-.932a211 211 0 0 0-7.071-1.964c-5.312-1.37-18.612-5.174-20.5-5.864-.825-.301-2.59-.729-3.923-.951s-3.215-.828-4.184-1.346-2.916-.943-4.327-.943-2.566-.375-2.566-.833c0-.459-.666-.834-1.48-.834-1.833 0-9.41-2.211-11.756-3.43-.955-.497-2.499-.903-3.429-.903-1.892 0-7.909-1.777-10.571-3.123-4.442-2.244-5.764-1.202-5.764 4.541m.015 44.753c.009 13.931.397 25.931.864 26.667.466.735 2.371 1.41 4.234 1.5l3.387.162v-25.201c0-26.854.037-26.659-5.25-27.773l-3.25-.685zM840 580.487c-1.375.793-3.288 1.458-4.25 1.478-.962.019-1.75.485-1.75 1.035s-.574 1-1.275 1c-.702 0-3.964 1.336-7.25 2.969s-6.451 2.982-7.032 3-4.146 1.585-7.921 3.484-7.237 3.223-7.693 2.941c-.456-.281-.829-.035-.829.547s-.564 1.059-1.254 1.059-4.965 1.8-9.501 4-8.921 4-9.746 4c-.824 0-1.499.45-1.499 1s-.599 1-1.331 1c-.731 0-3.509 1.103-6.173 2.452s-5.215 2.222-5.669 1.941c-.455-.281-.827-.034-.827.548s-.595 1.059-1.323 1.059c-.727 0-4.109 1.35-7.516 3s-6.535 3-6.952 3c-.418 0-3.448 1.336-6.734 2.969s-6.763 2.982-7.725 3S734 626.45 734 627s-.59 1-1.312 1-3.175.9-5.452 2-4.836 2-5.688 2-1.548.45-1.548 1-.9 1-2 1-2 .45-2 1-.59 1-1.312 1-3.309.97-5.75 2.157c-2.441 1.186-5 2.161-5.688 2.166-.687.006-1.25.385-1.25.844s-.574.833-1.275.833c-.702 0-3.964 1.336-7.25 2.969s-6.763 2.982-7.725 3S684 648.45 684 649s-.564 1-1.254 1-5.078 1.866-9.75 4.146c-4.673 2.281-9.058 4.156-9.746 4.167-.687.011-1.25.395-1.25.854s-.624.833-1.386.833-2.642.652-4.178 1.449-3.162 1.22-3.614.941c-.452-.28-.822-.031-.822.551s-.9 1.059-2 1.059-2 .45-2 1-.542 1-1.204 1c-.663 0-3.813 1.204-7 2.676L634 671.351v6.325c0 6.993-.057 6.922 3.923 4.864 1.553-.803 3.105-1.178 3.45-.833.345.344.627.101.627-.54 0-.642.59-1.167 1.312-1.167s3.175-.9 5.452-2 4.836-2 5.688-2 1.548-.45 1.548-1 .59-1 1.312-1 3.175-.9 5.452-2 4.836-2 5.688-2 1.548-.45 1.548-1 .574-1 1.275-1c.702 0 3.964-1.336 7.25-2.969s6.763-2.982 7.725-3S688 661.55 688 661s.81-1 1.8-1 2.227-.412 2.75-.916c.522-.504 1.85-1.067 2.95-1.25s2.599-.901 3.331-1.593c.731-.693 1.744-1.004 2.25-.691.505.312.919.091.919-.491s.9-1.059 2-1.059 2-.45 2-1 .59-1 1.312-1 3.309-.97 5.75-2.157c2.441-1.186 5.001-2.161 5.688-2.166.688-.006 1.25-.385 1.25-.844s.9-.833 2-.833 2-.45 2-1 .81-1 1.8-1 2.227-.378 2.75-.84c.522-.462 2.525-1.417 4.45-2.123s6.425-2.65 10-4.32 7.063-3.039 7.75-3.043 1.25-.382 1.25-.841.9-.833 2-.833 2-.45 2-1 .59-1 1.312-1 3.175-.9 5.452-2 4.836-2 5.688-2 1.548-.45 1.548-1 .599-1 1.331-1c.731 0 3.509-1.103 6.173-2.452s5.215-2.222 5.669-1.941c.455.281.827.034.827-.548s.661-1.059 1.47-1.059 3.072-.9 5.03-2 4.447-2 5.53-2 1.97-.45 1.97-1 .567-1 1.261-1 4.856-1.789 9.25-3.975 8.777-3.986 9.739-4S820 603.55 820 603s.574-1 1.275-1c.702 0 3.964-1.336 7.25-2.969s6.763-2.982 7.725-3S838 595.55 838 595s.9-1 2-1c3.892 0 6.131-3.587 5.801-9.291-.334-5.758-1.574-6.661-5.801-4.222M842 605c0 .55-.81 1-1.8 1-3.886 0-4.2 1.689-4.2 22.618 0 11.12.273 20.93.607 21.8.657 1.713 5.393 2.224 5.393.582 0-.55.627-1 1.393-1s1.666-.712 2-1.582c.868-2.263.723-41.719-.158-42.918-1.012-1.378-3.235-1.721-3.235-.5m-201.75 88.36c-1.237.613-2.25 1.458-2.25 1.877s-.9.763-2 .763c-1.942 0-2 .667-2 23s.058 23 2 23c1.1 0 2-.45 2-1s.9-1 2-1 2-.45 2-1 .9-1 2-1c1.942 0 2-.667 2-23 0-25.152.156-24.565-5.75-21.64"/></svg>