<svg xmlns="http://www.w3.org/2000/svg" viewBox="0 0 1024 1024"><path fill="#00e5cc" d="M170.778 70.248c.503 11.286.899 12.407 1.062 3.002.088-5.088-.178-9.251-.59-9.252s-.625 2.812-.472 6.25M414 67c0 .55-1.098 1-2.441 1s-2.719.45-3.059 1-1.69 1-3 1-2.66.45-3 1-1.716 1-3.059 1-2.441.45-2.441 1-1.125 1-2.5 1-2.5.45-2.5 1-1.35 1-3 1-3 .45-3 1-1.186 1-2.635 1c-1.541 0-3.618 1.06-4.999 2.55l-2.364 2.551.491 50.608c.27 27.834.719 50.837.999 51.116.279.28.508-.268.508-1.217s.45-1.448 1-1.108c.632.391.94-1.702.837-5.691l-.163-6.309L379 176c-.476 3.883-.669 1.677-.657-7.5.015-11.015.115-11.855.657-5.5.578 6.774.644 6.338.688-4.5.031-7.523-.226-10.694-.688-8.5-.539 2.561-.772 1.062-.868-5.589-.124-8.534.006-9.149 2.118-10.061 5.728-2.471 5.75-2.38 5.75 23.661 0 23.248.052 23.861 2 23.714 1.497-.113 2-.867 2-3.004 0-1.569.428-3.652.95-4.628.523-.977 1.025-6.797 1.116-12.934.175-11.728.32-12.045 5.184-11.277.412.065.637-.287.5-.782-.138-.495.15-.907.638-.915.489-.008 1.228-.564 1.643-1.236s2.615-1.222 4.888-1.222 4.372-.388 4.665-.863 1.857-.864 3.475-.864 2.941-.398 2.941-.883c0-.486.9-1.119 2-1.407 1.954-.511 2-1.364 2-36.916 0-26.973-.311-36.705-1.2-37.594-1.453-1.453-4.8-1.593-4.8-.2m-31.5 16.724c-6.638 1.631-5.974 9.426.908 10.674 3.464.628 6.592-2.684 6.592-6.98 0-4.065-1.995-5.048-7.5-3.694M820 85c2.369.759 2.329.806-.75.9-4.566.14-4.808 4.1-.25 4.1 1.65 0 3 .45 3 1s1.35 1 3 1c2.667 0 3-.333 3-3 0-1.68-.55-3.044-1.25-3.1-.687-.055-.125-.46 1.25-.9 1.796-.575.669-.801-4-.801s-5.796.226-4 .801m112.068 5.5c.045 4.608.269 5.478.963 3.75.612-1.522 1.743-2.25 3.496-2.25 1.473 0 2.324-.432 1.973-1-.371-.6.919-1 3.228-1 3.574 0 3.863-.217 4.08-3.064l.234-3.064-7.017.314-7.016.314zm20.73-4.375c-.58.358-.77 1.111-.423 1.673 1.038 1.679-.452 4.202-2.482 4.202-1.041 0-1.893.45-1.893 1 0 1.355 2.046 1.258 5.293-.25 1.48-.687 2.695-1.985 2.699-2.883.004-.899.879-1.861 1.943-2.14 2.378-.622 6.065 1.808 6.065 3.996 0 .886.296 1.314.658.952s1.262-.156 2 .456c2.525 2.096 1.489-1.711-1.197-4.397-2.532-2.532-10.224-4.117-12.663-2.609m-151.31 1.088c1.093.634 2.742 2.083 3.664 3.22.951 1.173 2.037 1.684 2.512 1.18.46-.488.274-1.088-.414-1.333-.687-.246-1.25-1.309-1.25-2.363 0-1.502-.703-1.91-3.25-1.887-2.941.028-3.061.14-1.262 1.183M168.252 91.5c.011 2.2.216 2.982.455 1.738s.23-3.044-.02-4-.446.062-.435 2.262M564 91c0 .55-.927 1-2.059 1s-1.799.421-1.481.935c.318.515-.555 2.069-1.941 3.455-2.428 2.428-2.516 2.963-2.449 14.815.039 6.762.457 13.195.93 14.295s.891 1.453.93.784c.276-4.783 12.07-11.275 12.07-6.644 0 .902.788 2.237 1.75 2.968 3.914 2.971 4.233 2.01 4.186-12.608l-.044-14h-2.446c-1.345 0-2.446-.45-2.446-1s1.125-1 2.5-1c1.833 0 2.5-.533 2.5-2 0-1.778-.667-2-6-2-3.333 0-6 .444-6 1m274.667 3.667c-.367.366-.667 12.066-.667 26V146h84V94h-41.333c-22.734 0-41.634.3-42 .667m93.348 8.583c-.016 7.096.243 7.635 2.556 5.321 1.804-1.803 1.842-2.943.076-2.266-1.013.389-1.299-.443-1.138-3.306.119-2.104-.165-4.427-.631-5.162-.512-.808-.853 1.333-.863 5.413m-336.911-3.876c-.802.967-1.061 8.607-.872 25.75l.268 24.376 42.311.261c35.733.22 42.534.037 43.75-1.179 2.113-2.114 2.123-47.04.01-49.153-2.083-2.084-83.739-2.136-85.467-.055M562 101.559c0 .857-.45 1.281-1 .941-.617-.381-1 1.343-1 4.5 0 2.858.406 4.867.919 4.55.506-.313 1.599.111 2.429.941 1.832 1.832 2.495 1.861 5.945.259 3.11-1.444 3.926-8.673 1.278-11.321-2.008-2.009-8.571-1.909-8.571.13M792 104c0 3.778.167 4 3 4 5.56 0 7.174 2.945 7.174 13.087 0 4.902.411 8.913.913 8.913s.913.9.913 2 .45 2 1 2 1 .608 1 1.352c0 .743 1.315 2.728 2.923 4.41s2.722 3.26 2.476 3.506.239 1.016 1.077 1.712 1.524 1.797 1.524 2.447c0 3.143 6.748 8.573 10.635 8.558 2.864-.012 3.476-.267 2.365-.985q-1.5-.969-.25-.985c.758-.009 1.25-1.387 1.25-3.503 0-2.712-.39-3.456-1.75-3.342-4.603.386-8.326-.261-8.175-1.42.343-2.645-.131-3.75-1.61-3.75-1.199 0-1.312-.417-.518-1.9.778-1.454.651-2.04-.541-2.498-1.073-.412-1.456-1.608-1.232-3.85.313-3.123.172-3.265-3.564-3.571-5.709-.467-6.615-1.895-6.577-10.36.037-8.028 1.922-11.821 5.877-11.821 1.15 0 2.09-.414 2.09-.919 0-2.002-3.588-7.068-5-7.059-1.333.008-1.333.116 0 .978 1.213.784 1.069.972-.75.985-1.237.008-2.25.465-2.25 1.015s-1.8 1-4 1c-3.333 0-4-.333-4-2q0-2-2-2c-1.667 0-2 .667-2 4m158-2.458c0 .848-.931 2.535-2.069 3.75l-2.069 2.208 3.219.325c5.3.534 6.847 3.424 6.886 12.858.036 8.976.361 8.532-7.213 9.874-3.518.624-3.722.857-3.351 3.844.349 2.819.099 3.204-2.21 3.395-4.026.333-5.208 2.204-1.393 2.204 3.634 0 4.08 1.266 1.288 3.657-1.052.9-1.679 2.246-1.393 2.99.39 1.018-.636 1.353-4.147 1.353-2.566 0-4.412.412-4.101.915s.182 1.065-.286 1.25c-.468.184-1.155 1.573-1.525 3.085-.67 2.733-.642 2.75 4.512 2.75 2.852 0 4.894-.292 4.537-.648s.134-1.37 1.09-2.25c.956-.881 2.374-2.84 3.151-4.352s1.786-2.75 2.243-2.75.831-.927.831-2.059.45-1.781 1-1.441 1-.084 1-.941.395-1.559.879-1.559c.483 0 1.438-1.35 2.121-3s1.638-3 2.121-3 .879-.9.879-2 .45-2 1-2c.596 0 1-3.795 1-9.385 0-10.292 1.375-12.615 7.465-12.615 2.291 0 2.535-.385 2.535-4 0-4.262-2.412-5.719-3.725-2.25-.941 2.485-2.878 4.25-4.665 4.25-1.872 0-5.743-3.975-5.016-5.151.288-.467-.628-.849-2.035-.849-1.639 0-2.559.554-2.559 1.542m-123.829 3.555c-.72 1.154-1.053 2.354-.74 2.667s.569.018.569-.656.45-.948 1-.608 1-.309 1-1.441c0-2.573-.201-2.568-1.829.038m49.469.601c-4.118.657-9.64 6.506-9.64 10.21 0 1.636-.45 3.252-1 3.592s-1 1.491-1 2.559.45 1.941 1 1.941 1 .69 1 1.533c0 2.52 6.65 8.467 9.467 8.467 1.393 0 2.533.45 2.533 1s.9 1 2 1 2-.45 2-1 1.17-1 2.6-1c5.316 0 13.789-13.011 10.57-16.23-.644-.644-1.17-2-1.17-3.015 0-2.006-4.228-6.755-6.014-6.755-.607 0-.872-.375-.589-.833.283-.459-.028-.85-.691-.87s-2.781-.266-4.706-.546-4.787-.304-6.36-.053m-249.39 6.258c-3.271 2.711-3.484 22.909-.25 23.754 1.1.288 2 .921 2 1.407 0 .485 2.025.883 4.5.883s4.5-.466 4.5-1.035c0-.714.601-.714 1.934 0 2.472 1.323 8.066 1.347 8.066.035 0-.55.675-1 1.5-1s1.5-.702 1.5-1.559.45-1.281 1-.941c.64.396 1-2.823 1-8.941 0-5.706-.403-9.559-1-9.559-.55 0-1-.482-1-1.071 0-4.214-19.128-5.802-23.75-1.973m337.5-.198c-.962.214-1.783.693-1.824 1.065a84 84 0 0 1-.396 2.677c-.177 1.1-.612 5.103-.968 8.896-.673 7.17-1.555 9.607-4.697 12.98-1.026 1.1-1.865 2.591-1.865 3.313 0 .721-.374 1.311-.831 1.311s-1.47 1.238-2.25 2.75-2.207 3.622-3.169 4.689c-3.194 3.538-2.241 4.561 4.25 4.561 3.333 0 6-.444 6-1 0-.55.735-1 1.634-1 2.025 0 6.363-4.901 6.365-7.191 0-.93.451-1.969 1.001-2.309.594-.367 1-6.641 1-15.452 0-15.373-.225-16.184-4.25-15.29M792 127c0 9.333.378 15 1 15 .55 0 1 1.152 1 2.559 0 1.451.433 2.292 1 1.941.55-.34 1.008.196 1.018 1.191.024 2.474 8.39 6.309 13.762 6.309 4.663 0 5.385-1.333 2.47-4.561-.962-1.067-2.389-3.177-3.169-4.689s-1.793-2.75-2.25-2.75-.831-.59-.831-1.311c0-.722-.788-2.207-1.75-3.301-3.619-4.115-4.25-6.406-4.25-15.433 0-5.794-.361-8.85-1-8.455-.55.34-1 .141-1-.441S796.65 112 795 112h-3zm-625.767-5c.004 4.411 1.495 10.969 1.591 7 .033-1.375-.312-4.3-.767-6.5l-.827-4zm462.291-.19c-.723.722-.66 8.671.083 10.608.334.87 1.684 1.582 3 1.582 3.76 0 3.681-11.521-.083-12.24-1.363-.261-2.713-.238-3 .05M380 130.286c0 1.619.583 2.285 2 2.285s2-.666 2-2.285-.583-2.286-2-2.286-2 .667-2 2.286m176 9.273c0 7.451.355 11.339 1 10.941.916-.566 1.445.8 1.094 2.824-.079.454.289.558.817.231.528-.326 2.006.453 3.286 1.733 1.803 1.803 3.615 2.385 8.064 2.591l5.739.266V130h-3c-2.061 0-3 .492-3 1.571 0 .865-.732 2.304-1.628 3.199-1.503 1.504-1.845 1.384-4.485-1.571-1.573-1.759-3.54-3.199-4.373-3.199s-1.514-.45-1.514-1-.45-1-1-1c-.609 0-1 4.52-1 11.559M567.71 138c-1.408 5.384 2.001 7.792 5.431 3.838 1.752-2.021 1.766-2.283.212-4-2.19-2.421-4.988-2.34-5.643.162m364.305 4.25c.009.688.454 1.925.99 2.75.747 1.149.926.856.767-1.25-.202-2.665-1.788-4.019-1.757-1.5M423.5 143c.34.55-.282 1-1.382 1s-2.278.45-2.618 1-1.716 1-3.059 1-2.441.45-2.441 1-2.419 1-5.376 1c-4.867 0-5.766.367-9.48 3.864l-4.102 3.864-.675 14.136c-.497 10.405-.37 14.136.479 14.136.635 0 1.154.9 1.154 2 0 1.476.667 2 2.545 2 2.807 0 7.455-4.025 7.455-6.455 0-.85.45-1.545 1-1.545s1-.702 1-1.559.45-1.281 1-.941 1-.309 1-1.441c0-1.164.652-2.059 1.5-2.059.825 0 1.5-.34 1.5-.756 0-.972 4.767-3.013 8-3.425 3.069-.392 6.107-2.95 4.241-3.572-.683-.228-1.241-1.239-1.241-2.247s-.558-2.019-1.241-2.247c-.892-.297-.752-.903.5-2.155.958-.957 1.741-2.159 1.741-2.669s1.125-.929 2.5-.929 2.5-.391 2.5-.87c0-.478-1.012-.816-2.25-.75-1.243.066-2.205-.439-2.15-1.13.055-.687.167-2.6.25-4.25.156-3.13 3.418-4.402 4.488-1.75.292.726.537.79.583.153.141-1.952-3.594-5.403-5.847-5.403-1.207 0-1.914.45-1.574 1m-8.454 6.444c-1.825 2.2-.538 4.556 2.489 4.556 2.242 0 2.555-.375 2.281-2.741-.361-3.134-2.88-4.092-4.77-1.815m12.497 1.487c-.969 1.568.874 1.949 2.246.464 1.06-1.146 1.025-1.395-.191-1.395-.814 0-1.739.419-2.055.931M405 153c1.213.784 1.069.972-.75.985-1.956.013-2.25.538-2.25 4.015 0 2.889.417 4 1.5 4 .825 0 1.5.466 1.5 1.035 0 1.152 3.606-.498 5.729-2.622 1.498-1.497 1.727-4.813.271-3.913-.55.34-1-.084-1-.941s-.675-1.559-1.5-1.559-1.5-.45-1.5-1-.788-.993-1.75-.985c-1.496.013-1.532.157-.25.985m28.035.934c-.569 1.064-1.035 4.214-1.035 7 0 4.143-.319 5.073-1.75 5.105-1.081.024-.603.545 1.25 1.364 1.65.728 3.857 2.285 4.905 3.46 2.201 2.47 3.595 2.749 3.595.72 0-.779.563-1.623 1.25-1.875 1-.366 1-.723 0-1.783-.687-.729-1.25-2.81-1.25-4.625s-.45-3.3-1-3.3-1-1.152-1-2.559c0-1.451-.433-2.292-1-1.941-.55.34-1-.309-1-1.441 0-2.596-1.606-2.663-2.965-.125M414 162.559c0 .857-.45 1.281-1 .941-.563-.348-1 .454-1 1.834 0 2.482 3.148 4.723 3.816 2.717.195-.585.715-.841 1.156-.568 1.519.938 1.847-3.521.368-5.001-1.922-1.921-3.34-1.888-3.34.077M143.498 278.835c-.304.304-9.653.714-20.776.91-11.511.203-20.366.766-20.555 1.306-.184.522-1.223.949-2.309.949s-1.72.414-1.408.919-.111 1.599-.941 2.429S96 288.041 96 289.488c0 1.499-.43 2.364-1 2.012-.611-.378-1 1.156-1 3.941 0 2.507-.45 4.559-1 4.559s-1 1.8-1 4-.366 4-.813 4-.92 2.054-1.05 4.565-.619 5.572-1.087 6.803C87.513 323.41 92.996 330 97.896 330c1.642 0 3.223.384 3.514.854.634 1.026 75.483.714 80.832-.336 2.058-.404 3.494-1.136 3.191-1.626-.303-.491-.042-.892.579-.892 2.643 0 3.988-2.983 3.988-8.845 0-3.294-.433-6.138-.961-6.322-.529-.183-1.092-2.202-1.25-4.486-.159-2.284-.627-3.945-1.039-3.691-.69.425-1.235-5.353-.802-8.506.102-.743-.294-1.054-.881-.691-.981.606-1.626-3.61-1.119-7.309.102-.743-.294-1.054-.881-.691-.587.362-1.067-.063-1.067-.945 0-3.826-4.505-6.422-11.666-6.725-3.759-.159-7.165-.739-7.569-1.289-.453-.617-.74-.516-.75.264-.01.879-1.006 1.085-3.265.677-4.746-.858-14.608-1.25-15.252-.606M870 292.167c0 1.425.723 1.807 3.25 1.717 1.788-.064 2.462-.322 1.5-.573-.962-.252-1.75-1.025-1.75-1.718s-.675-1.26-1.5-1.26-1.5.825-1.5 1.834m-729.861 1.866c-1.343 1.119-3.847 1.967-5.809 1.967-2.044 0-3.196.407-2.83 1 .349.564-.467 1-1.874 1-1.613 0-2.715.705-3.126 2-.349 1.1-1.054 2-1.567 2s-.933.9-.933 2 .477 2 1.059 2 .817.392.521.871c-.676 1.094 2.743 5.129 4.346 5.129.656 0 .914.45.574 1-.396.64 2.838 1 8.986 1 8.864 0 9.794-.189 12.059-2.455 2.779-2.778 3.226-5.545.896-5.545-.857 0-1.305-.412-.994-.915s0-1.143-.691-1.423c-.95-.386-.891-.768.244-1.571.825-.583 1.05-1.074.5-1.091s-.447-.382.229-.811c1.746-1.11-1.779-4.189-4.796-4.189-.613 0-.797-.853-.433-2 .859-2.707-3.096-2.686-6.361.033m429.111 3.463c-.687.781-1.25 2.114-1.25 2.962s-.45 1.542-1 1.542-.947.337-.882.75c.465 2.944-.278 7.269-1.156 6.726-.696-.43-.958 2.508-.795 8.917.135 5.258.595 9.007 1.023 8.333.435-.684.786.899.795 3.583.009 2.948.402 4.57 1.015 4.191.55-.34 1 .116 1 1.012 0 4.548-.868 4.488 65.429 4.488H696v-44l-62.75.038c-52.914.032-62.946.261-64 1.458M334 316v18h49.779c48.632 0 49.813.046 51.221 2 1.216 1.687 2.589 2 8.78 2 4.036 0 7.111-.368 6.833-.818s.37-1.449 1.441-2.221c1.782-1.285 1.946-2.69 1.946-16.727 0-14.938-.062-15.387-2.455-17.779L449.091 298H334zm529.572-16.883c.456.738-1.661 1.139-4.21.798-.351-.047-.918.367-1.26.919-.341.553-1.271 1.154-2.066 1.336-.795.181-2.507 1.351-3.805 2.599s-2.851 1.966-3.45 1.596c-.652-.404-.803-.21-.376.48.392.635.204 1.155-.417 1.155-1.46 0-3.988 2.528-3.988 3.988 0 .621-.52.809-1.155.417-.684-.423-.884-.277-.49.36.365.591-.016 1.753-.846 2.583S840 317.564 840 318.429s-.45 1.571-1 1.571-1 1.377-1 3.059c0 1.785-.417 2.802-1 2.441-.644-.398-1 3.343-1 10.5s.356 10.898 1 10.5c.834-.515 1.272 1.468.915 4.138-.047.351.367.918.919 1.26.553.341 1.154 1.269 1.336 2.062.513 2.241 12.496 14.04 14.259 14.04.864 0 1.571.45 1.571 1s.9 1 2 1 2 .45 2 1 2.052 1 4.559 1c2.785 0 4.319.389 3.941 1-.381.616 1.323 1 4.441 1 2.782 0 5.059-.45 5.059-1s2.052-1 4.559-1c2.785 0 4.319-.389 3.941-1-.346-.559.427-1 1.752-1 1.304 0 3.337-.9 4.518-2s2.615-2 3.188-2 1.042-.45 1.042-1 .482-1 1.071-1c1.507 0 3.929-2.594 3.929-4.208 0-.743.9-1.999 2-2.792s2-2.242 2-3.221c0-.978.45-1.779 1-1.779s1-.9 1-2 .45-2 1-2 1.007-2.363 1.015-5.25c.011-3.758.291-4.824.985-3.75.723 1.118.973.56.985-2.191.008-2.03-.435-3.969-.985-4.309s-1-2.579-1-4.976-.409-4.507-.908-4.691c-.5-.183-1.063-1.233-1.25-2.333s-1.13-2.728-2.092-3.617c-.962-.89-1.75-2.139-1.75-2.777 0-1.745-8.714-10.106-10.533-10.106-.872 0-1.307-.45-.967-1 .352-.569-.509-1-2-1s-2.352-.431-2-1c.369-.596-.843-1-3-1-2.254 0-3.375-.393-2.974-1.042.432-.699-2.664-.989-9.428-.883-5.54.087-9.826.556-9.526 1.042m-258.974 5.046c-.833 1.19-1.282 2.54-.997 3 .284.46.068.837-.48.837s-.929.9-.846 2 .505 2 .938 2 .787 1.8.787 4c0 3.333.333 4 2 4s2-.667 2-4c0-2.2.45-4 1-4s1-.702 1-1.559.45-1.281 1-.941 1 2.841 1 5.559V320h8v-4c0-5.308 3.679-5.994 4.187-.781.216 2.224 1.107 3.662 2.882 4.654 3.273 1.827 8.138.798 7.829-1.656-.119-.945.139-2.993.573-4.552.573-2.061.357-3.266-.794-4.416-1.965-1.966-7.513-2.07-8.841-.166-.757 1.086-1.107 1.125-1.495.167-.31-.762-2.428-1.25-5.424-1.25-4.488 0-6.616-1.267-3.74-2.226 1.95-.65-.234-2.992-2.289-2.455-1.037.271-2.138.085-2.446-.413-1.018-1.648-4.304-.941-5.844 1.257m35.291 2.654c-1.657 1.935-2.11 5.183-.722 5.183.458 0 .833 1.8.833 4 0 3.905.083 4 3.5 4 1.925 0 3.5-.45 3.5-1s-.675-1-1.5-1q-1.5 0-1.5-3c0-2.05.493-3 1.559-3 .857 0 1.281-.45.941-1s-.399-1-.132-1c.803 0 3.632 6.185 3.632 7.941 0 1.098.984 1.709 3 1.862 2.616.199 3-.101 3-2.346 0-1.416.401-2.327.892-2.024.93.575 2.164-6.338 1.38-7.732-.248-.439-1.014-.33-1.703.242s-1.549.744-1.911.382-.658.317-.658 1.508c0 2.786-.764 2.736-3.074-.2-1.384-1.76-2.577-2.253-4.644-1.922-1.925.308-2.371.156-1.448-.494 1.076-.757 1.011-1.062-.332-1.578-2.446-.938-2.9-.822-4.613 1.178M356 316v10h3.917c2.196 0 4.139-.549 4.424-1.25.404-.998.686-.996 1.397.008.858 1.212 9.048 1.458 43.012 1.288L418 326v-16h-6c-3.333 0-6-.444-6-1 0-.55-1.575-1-3.5-1s-3.5.45-3.5 1c0 .616-5.093 1-13.279 1-12.132 0-13.404-.173-14.721-2-1.198-1.662-2.589-2-8.221-2H356zm83.25-6.19c-1.788.853-3.25 1.94-3.25 2.416 0 1.491-4.832 5.774-6.514 5.774-.882 0-1.326.45-.986 1s.109 1-.512 1c-1.171 0-3.988 2.422-3.988 3.429 0 .314.702.571 1.559.571s1.281.45.941 1c-.902 1.459 7.093 1.252 9.679-.25 3.304-1.919 5.821-4.596 5.821-6.191 0-.793.45-1.719 1-2.059s1-1.491 1-2.559.45-1.941 1-1.941 1-.9 1-2c0-2.37-2.057-2.428-6.75-.19M908 313c0 1.65.337 3.004.75 3.008.898.009 3.25 4.852 3.25 6.691 0 .716.45 1.301 1 1.301s1 2.427 1 5.393c0 5.947.658 6.607 6.582 6.607H924v-12c0-7.779-.372-12-1.059-12-.582 0-.781-.45-.441-1 .391-.633-2.156-1-6.941-1H908zm-38 2c0 .55-1.35 1-3 1s-3 .45-3 1-.562 1.001-1.25 1.001c-1.938.002-6.75 4.54-6.75 6.365 0 .899-.45 1.634-1 1.634s-1 1.602-1 3.559c0 2.118-.405 3.309-1 2.941-.604-.373-1 .99-1 3.441 0 2.232.352 4.059.782 4.059s.882 1.212 1.005 2.694.558 2.944.968 3.25 1.232 1.456 1.827 2.556 2.057 2.444 3.25 2.987c1.192.543 2.168 1.331 2.168 1.75s.9.763 2 .763 2 .45 2 1c0 .571 3 1 7 1s7-.429 7-1c0-.55.9-1 2-1s2-.477 2-1.059.392-.817.871-.521c1.249.772 5.129-2.85 5.129-4.787 0-.898.45-1.633 1-1.633s1-1.098 1-2.441.45-2.719 1-3.059 1-2.841 1-5.559-.45-4.941-1-4.941-1-.681-1-1.514c0-2.89-3.948-8.486-5.988-8.486-.621 0-.852-.45-.512-1s-.309-1-1.441-1-2.059-.45-2.059-1-1.8-1-4-1-4-.45-4-1-.9-1-2-1-2 .45-2 1m-226.137 9.991-2.363 2.991-11.309.009c-7.287.006-11.089-.347-10.691-.991.361-.583-.656-1-2.441-1-1.682 0-3.059-.45-3.059-1s-1.35-1-3-1-3 .245-3 .545c0 1.445 5.156 5.455 7.014 5.455 1.157 0 1.826.45 1.486 1-.375.607 1.076 1.006 3.691 1.015 3.151.012 3.906.276 2.809.985-1.036.669 1.054.974 6.75.985 4.844.009 8.25-.398 8.25-.985 0-.55 1.35-1 3-1s3-.45 3-1 1.125-1 2.5-1 2.5.477 2.5 1.059c0 1.753 1.774.1 3.409-3.178 2.985-5.982-4.188-8.408-8.546-2.89m-475.77 19.397c-.921 1.109-.953 2.005-.127 3.548 1.912 3.572 6.443 1.991 5.871-2.049-.398-2.821-3.89-3.733-5.744-1.499M374 439c0 .55-.687 1-1.526 1-1.659 0-9.807 7.847-10.241 9.861-.146.682-1.834 2.807-3.75 4.722S355 458.487 355 459s-1.575 2.508-3.5 4.433-3.5 3.992-3.5 4.593c0 .6-.52.771-1.155.379-.693-.429-.883-.276-.476.383.373.604-.907 2.684-2.845 4.622S340 477.419 340 478.012s-1.134 2.213-2.519 3.598c-1.386 1.386-2.259 2.94-1.941 3.455.779 1.26 353.46 1.267 353.46.006 0-.51-.675-1.603-1.5-2.428s-1.5-1.994-1.5-2.598-2.037-3.135-4.526-5.624c-2.493-2.492-4.221-5.022-3.846-5.628.41-.664.222-.818-.473-.388-.635.392-1.155.303-1.155-.198s-1.348-2.321-2.995-4.045-3.11-3.675-3.25-4.337-2.179-3.166-4.531-5.566-3.97-4.86-3.596-5.466c.41-.664.222-.818-.473-.388-.635.392-1.155.221-1.155-.379 0-1.924-6.38-7.484-10.071-8.776C645.337 437.643 374 437.397 374 439m140.5 9.538c.55.242 4.375.885 8.5 1.428 12.119 1.596 15 2.2 15 3.143 0 .49.852.891 1.893.891 1.748 0 3.025 1.653 3.67 4.755.144.69-.152.999-.658.686-.505-.312-1.189.136-1.519.996-.33.859-1.677 1.563-2.993 1.563s-2.393.45-2.393 1-1.323 1-2.941 1-3.219.45-3.559 1-3.04 1-6 1-5.66.45-6 1-4.615 1-9.5 1c-5.418 0-9.149.432-9.567 1.108-1.189 1.924 41.968-.229 44.017-2.196.523-.502 2.435-.912 4.25-.912s3.3-.45 3.3-1 .695-1 1.545-1c1.914 0 6.455-4.418 6.455-6.28 0-3.028-6.69-7.125-13.5-8.267-4.558-.764-31.526-1.587-30-.915m-37.083 4.835c-4.431 4.649-4.069 6.22 1.5 6.505 2.521.129 5.011.659 5.533 1.178 1.247 1.24 35.55 1.247 35.55.007 0-.515 1.462-1.077 3.25-1.25 1.898-.183 3.25-.872 3.25-1.656 0-2.593-7.57-4.126-20.45-4.142-9.683-.012-12.183-.282-11.25-1.215 2.311-2.311 1.139-2.799-6.55-2.731-7.395.065-7.891.216-10.833 3.304M202 452.594c0 1.545 2.557 1.932 3.43.52.301-.488-.347-1.121-1.441-1.407-1.289-.337-1.989-.025-1.989.887m15.664 5.238c.185.732.336 1.712.336 2.177 0 1.133 5.839 3.991 8.154 3.991 1.015 0 1.846.45 1.846 1s.916 1 2.035 1 3.032.646 4.25 1.436c1.836 1.19 2.517 1.212 3.981.128 1.616-1.197 1.52-1.357-1.13-1.887-1.592-.318-3.522-1.163-4.289-1.878s-2.059-1.445-2.871-1.624-1.626-.741-1.809-1.25-1.421-.925-2.75-.925-2.417-.45-2.417-1-1.088-1-2.417-1-2.605-.337-2.836-.75-.268-.151-.083.582m66.046 7.481c-1.091 2.845.464 6.687 2.707 6.687 4.241 0 7.567-2.305 7.575-5.25.008-2.626-.212-2.75-4.885-2.75-3.118 0-5.076.476-5.397 1.313m-32.311 1.211c1.594.831 3.132 1.279 3.416.994.285-.285-.033-.518-.707-.518s-.948-.45-.608-1c.356-.576-.572-.997-2.191-.994l-2.809.006zm-28.685 5.204c.327 2.074.935 3.998 1.35 4.275s.954 1.852 1.196 3.5.463-.378.49-4.503c.035-5.11-.205-6.703-.75-5-.498 1.556-.838 1.862-.9.809-.055-.93-.523-1.953-1.041-2.272-.562-.348-.701.938-.345 3.191M267 469c-1.219.788-1.09.972.691.985 1.205.008 2.469-.435 2.809-.985.787-1.273-1.53-1.273-3.5 0m-39.252 9.75c.214 4.813.657 9.425.984 10.25.328.825.634 1.824.682 2.221.136 1.139 10.944 7.676 11.809 7.141.427-.264.69-4.841.583-10.171l-.193-9.691-.613 10c-.5 8.167-.661 8.9-.874 4-.226-5.188-.411-5.69-1.365-3.71-2.465 5.119-6.721.047-6.746-8.04-.016-5.152 1.592-6.101 6.178-3.647 1.583.847 2.26.789 2.919-.25 1.34-2.115 1.052-2.853-1.112-2.853-1.1 0-2-.45-2-1s-.9-1-2-1-2-.45-2-1-1.494-1-3.321-1h-3.32zm31.53-8.097c-2.479 1.004 3.397 5.347 7.236 5.347 2.067 0 3.349-.413 3.006-.967-.329-.532-1.818-.818-3.309-.635s-1.923.137-.961-.102c.962-.24 1.714-1.191 1.671-2.116-.049-1.04-.271-1.204-.583-.43-.703 1.741-2.338 1.566-2.338-.25 0-1.455-2.232-1.856-4.722-.847m-10.47 2.597c-.224.688-.106 2.825.261 4.75.639 3.35.673 3.297.799-1.25.13-4.673-.26-5.961-1.06-3.5m473.716-.211c.528.855-1.615 1.443-3.848 1.055-.454-.079-.54.318-.191.881.348.564.03 1.025-.708 1.025-.741 0-1.442 1.23-1.568 2.75-.124 1.512-.672 2.9-1.218 3.083s-.991 1.646-.991 3.25-.45 2.917-1 2.917-.947.337-.882.75c.546 3.457-.279 9.548-1.118 8.25-.694-1.074-.974-.008-.985 3.75-.008 2.887-.465 5.25-1.015 5.25s-1 1.8-1 4-.45 4-1 4-1 1.145-1 2.545c0 2.838 4.034 7.455 6.514 7.455.882 0 1.321.457.976 1.016-.422.683 17.247 1 53.98.967 34.899-.031 54.392-.398 54.01-1.016-.329-.532-.101-.967.506-.967 3.155 0 6.113-5.001 5.887-9.954-.124-2.72-.596-4.717-1.049-4.437-.757.468-1.313-4.272-.876-7.459.102-.743-.294-1.054-.881-.691-.893.551-1.427-2.767-.982-6.097.047-.351-.382-.927-.953-1.281-.572-.353-1.153-2.316-1.29-4.362-.138-2.045-.609-3.719-1.046-3.719s-.796-1.8-.796-4-.45-4-1-4-1-.702-1-1.559-.45-1.281-1-.941-1 .141-1-.441-.927-1.059-2.059-1.059c-1.143 0-1.779-.453-1.43-1.019.424-.686-14.258-.999-44.976-.961-28.912.036-45.388.409-45.011 1.019M254 527.122c0 55.972-.379 52.601 5.229 46.501 2.703-2.94 2.541-92.429-.173-95.558-.985-1.136-2.525-2.065-3.423-2.065-1.489 0-1.633 4.5-1.633 51.122M269 479c-1.169.755-.893.973 1.25.985 1.512.008 2.75-.435 2.75-.985 0-1.264-2.043-1.264-4 0m503 5.917c0 .595-.707 1.083-1.571 1.083-1.863 0-4.602 2.493-3.715 3.381.341.34-2.407.619-6.106.619-4.229 0-6.497.371-6.108 1 .34.55-.084 1-.941 1s-1.559.702-1.559 1.559-.45 1.281-1 .941c-.583-.361-1 .656-1 2.441 0 1.682.45 3.059 1 3.059s1 .9 1 2c0 1.145.667 2 1.559 2 .857 0 1.281.45.941 1-.349.565.47 1 1.882 1 1.375 0 2.778.45 3.118 1s1.716 1 3.059 1 2.441-.45 2.441-1c0-1.339 3.319-1.267 6.403.138 2.868 1.307 7.832-.53 11.054-4.09 1.807-1.997 1.799-2.091-.303-3.914-2.386-2.07-2.834-4.739-.904-5.388 1.842-.62-.972-3.746-3.372-3.746-1.034 0-1.878-.701-1.878-1.559 0-.857-.399-1.312-.887-1.011s-.825-.186-.75-1.083c.075-.898-.425-1.83-1.113-2.073s-1.25.047-1.25.643m-441.75 7.608c-1.541 1.646-2.291 3.754-2.382 6.689l-.131 4.286L327 500c-.405-1.925-.796 7.664-.868 21.309-.076 14.347.245 24.576.761 24.257.492-.304 1.175.57 1.519 1.941.345 1.371 1.094 2.493 1.666 2.493s.807.377.522.837c-.284.461 2.206.936 5.535 1.056 3.43.124 5.809-.175 5.491-.69-.309-.5.084-1.762.874-2.806 2.29-3.024 1.894-7.743-.75-8.946-1.238-.564-2.137-1.57-2-2.238.138-.667-.2-1.213-.75-1.213-1.636 0-1.31-28.498.342-29.869.738-.612 1.638-.818 2-.456s.658.133.658-.508c0-.883 32.585-1.167 134.059-1.167 89.118 0 133.852.335 133.441 1-.34.55-.079 1 .581 1 3.04 0 3.855 3.512 3.887 16.75.02 8.188-.35 13.25-.968 13.25-.55 0-1 .698-1 1.552s-1.32 2.012-2.932 2.574c-1.926.671-2.884 1.66-2.793 2.879.077 1.021.497 1.636.933 1.367.435-.27.792.437.792 1.569 0 6.042-.194 6.004 32.664 6.292 53.067.465 55.198.225 55.32-6.233.037-1.986.246-2.191 1.016-1 .638.988.926-7.04.843-23.5-.07-13.75-.449-23.2-.843-21l-.716 4-.142-4.795c-.108-3.638-.734-5.388-2.597-7.25L691.091 490l-179.296.061-179.295.061zm-94.59 5.725c.428.688.647 2.262.488 3.5s.191 2.25.78 2.25c.59 0 1.072.654 1.072 1.453 0 4.856 3.937 8.467 6.471 5.933 3.069-3.069 1.96-8.09-2.221-10.051-2.062-.968-4.345-2.339-5.071-3.047-1.685-1.641-2.53-1.663-1.519-.038m13.169 3.75c-.21 2.2-.032 4 .395 4s.776-1.8.776-4-.178-4-.395-4-.567 1.8-.776 4M212 503c0 .55.675 1 1.5 1s1.5-.45 1.5-1-.675-1-1.5-1-1.5.45-1.5 1m416.75 7.368c-1.513 1.3-2.75 3.1-2.75 3.998s-.45 1.634-1 1.634c-.565 0-1 2.844-1 6.533 0 6.122.219 6.752 3.467 10 3.346 3.347 3.729 3.467 11.059 3.467 4.807 0 7.365-.367 6.974-1-.34-.55-.081-1 .575-1 1.859 0 5.668-4.965 6.324-8.244 1.076-5.379-.431-10.588-4.132-14.289-4.563-4.563-14.818-5.141-19.517-1.099m36.289-.422c-.772 1.071-1.771 1.719-2.221 1.441s-.818.197-.818 1.054-.45 1.559-1 1.559-1 .9-1 2-.45 2-1 2c-1.788 0-1.141 8.471.806 10.561.993 1.067 1.832 2.389 1.863 2.939.032.55 1.019 1.444 2.194 1.987s2.137 1.331 2.137 1.75 3.15.763 7 .763c4 0 7-.429 7-1 0-.55.9-1 2-1 1.79 0 2.193-.555 1.915-2.638-.047-.351.29-.914.75-1.25C687.5 528.035 689.435 518 687 518c-.55 0-1-.695-1-1.545 0-1.773-4.362-6.455-6.014-6.455-.607 0-.826-.45-.486-1 1.309-2.119-12.923-1.187-14.461.946m-215.778 9.538c-1.473 1.674-.626 4.516 1.346 4.516.766 0 1.393.45 1.393 1s1.913 1.007 4.25 1.015c3.112.012 3.849.275 2.75.985-1.041.673.793.969 6 .969s7.041-.296 6-.969c-.825-.533-3.022-.976-4.883-.985-3.951-.018-7.177-3.068-6.398-6.05.46-1.758.002-1.961-4.352-1.927-2.889.023-5.371.61-6.106 1.446M492 521c0 2.05-.493 3-1.559 3-.857 0-1.281.45-.941 1 .367.593-.931 1.048-3.191 1.118-2.095.065-5.159.493-6.809.952-2.183.606-1.366.721 3 .422 15.103-1.032 19.5-2.271 19.5-5.492 0-2.202-2.889-4-6.429-4-3.301 0-3.571.227-3.571 3m-272-.1c0 .495-1.673.9-3.717.9s-3.881.495-4.083 1.1-1.229 1.1-2.283 1.1-1.917.257-1.917.571c0 1.174 2.913 3.429 4.429 3.429.864 0 1.571.45 1.571 1s.927 1 2.059 1 1.781.45 1.441 1 .309 1 1.441 1 2.059.45 2.059 1 .675 1 1.5 1 1.5.45 1.5 1 .9 1 2 1 2 .45 2 1 .39 1 .866 1 .026-3.028-1-6.728c-1.026-3.701-1.866-7.751-1.866-9 0-1.858-.547-2.272-3-2.272-1.65 0-3 .405-3 .9m27.786 18.1-.286 11.5-2.5-.279c-1.375-.154-2.65-.717-2.833-1.25-.184-.534-1.673-.971-3.309-.971-1.729 0-2.717.419-2.358 1 .34.55.141 1.056-.441 1.125-3.379.399-6.105 1.992-5.389 3.15.413.668.038.827-1.006.426-1.087-.417-1.664-.129-1.664.83 0 .808-.45 1.469-1 1.469s-1 1.125-1 2.5-.482 2.5-1.071 2.5c-.59 0-.397.675.428 1.5s1.8 1.5 2.167 1.5 1.862.846 3.322 1.881c2.952 2.092 7.914 2.472 9.728.744.649-.619 2.136-1.787 3.303-2.596 1.168-.809 2.123-2.073 2.123-2.809s.45-1.06 1-.72c.589.364 1.006-.743 1.015-2.691.012-2.537.248-2.959 1.012-1.809.683 1.029.961-2.767.885-12.102-.14-17.1-1.732-20.768-2.126-4.898m-3.182-3.75c-.345 2.888-.21 6.6.299 8.25.744 2.413.942 1.387 1.011-5.25.099-9.454-.403-10.602-1.31-3m180.086 30.506-82.81.256.31 3.744.31 3.744h267l.309-3.732.31-3.732-51.31-.268c-28.22-.147-88.574-.153-134.119-.012m286.289 80.56c-.474.437-9.848 1.613-13.229 1.66-.962.013-1.75.474-1.75 1.024 0 .658 27 1 79 1h79v82l-9.75.142-9.75.143 10.473.801c5.759.441 10.541.715 10.625.608s.422-9.419.751-20.694c1.797-61.439 1.67-65-2.304-65-1.033 0-2.028-.375-2.212-.834-.183-.458-6.938-.571-15.011-.25-9.107.362-15.285.204-16.278-.416-1.138-.711-1.84-.617-2.428.325-.91 1.459-16.512 1.224-21.022-.318-1.93-.659-2.239-.543-1.558.585.668 1.11.449 1.09-1.036-.092-1.036-.825-1.585-1.001-1.22-.391.476.795-4.437 1.137-17.308 1.207-10.845.059-17.972-.281-17.972-.859 0-.526-.702-.957-1.559-.957s-1.281.45-.941 1c.865 1.4-.849 1.251-2.3-.2-.747-.747-1.2-.802-1.2-.147 0 .657-3.774 1.106-10.057 1.196-6.458.092-9.836-.213-9.441-.853.339-.548-.337-.996-1.502-.996s-1.84.45-1.5 1c.371.601-.903.994-3.191.985-2.828-.012-3.422-.265-2.309-.985 1.085-.701.185-.974-3.25-.985-2.612-.008-4.75.435-4.75.985 0 1.341-3.738 1.285-4.187-.062-.195-.585-.57-.864-.834-.622M239.2 648.534c.719.718 17.851.748 18.567.032.312-.311-3.859-.566-9.267-.566s-9.593.24-9.3.534m39.267.375c2.049.801 22.525.432 23.379-.421.268-.269-5.325-.456-12.429-.418-7.141.039-12.037.414-10.95.839m31.783-.22c.962.252 2.538.252 3.5 0 .962-.251.175-.457-1.75-.457s-2.712.206-1.75.457m5.942-.164c.787.787 7.717.899 8.479.137.364-.364-1.513-.662-4.171-.662s-4.597.236-4.308.525m11.082 1.189c.976 1.098 1.537 2.624 1.247 3.391s-.13 4.095.354 7.395l.881 6 .122-8.009c.111-7.298-.078-8.133-2.128-9.392-2.198-1.351-2.209-1.337-.476.615M700 686v34h75.393c67.826 0 75.454-.159 76-1.582 1.229-3.203.677-63.948-.593-65.218-.912-.912-19.156-1.2-76-1.2H700zm-542.5-32.427c-1.785.76-.77 60.427 1.029 60.427.809 0 1.471-.45 1.471-1s.702-1 1.559-1 1.281-.45.941-1 .128-1 1.04-1 2.919-1.35 4.46-3 3.209-3 3.706-3 2.623-1.575 4.724-3.5 4.158-3.5 4.57-3.5 2.468-1.575 4.57-3.5c2.101-1.925 4.408-3.5 5.125-3.5.718 0 1.305-.45 1.305-1 0-1.848 5.515-1.061 7 1 .793 1.1 2.062 2 2.82 2 .757 0 2.639 1.35 4.18 3s3.23 3 3.753 3 2.363 1.35 4.09 3 3.818 3 4.648 3 1.509.45 1.509 1c0 2.141 3.186.821 7.243-3 2.335-2.2 4.586-4 5-4 .415 0 2.609-1.8 4.876-4s4.503-4 4.969-4 3.65-2.7 7.075-6 6.65-6 7.165-6c.516 0 1.67-.788 2.565-1.75 3.281-3.526 9.107-5.606 9.107-3.25 0 .55.675 1 1.5 1s1.5.45 1.5 1 .702 1 1.559 1 1.281.45.941 1-.016 1 .72 1 1.97.876 2.741 1.946c.772 1.071 1.749 1.733 2.171 1.472.423-.261 3.256 2.013 6.296 5.054 3.041 3.04 6.018 5.528 6.615 5.528s3.278 2.25 5.957 5 5.346 5 5.927 5 1.618.9 2.305 2 1.595 2 2.018 2 2.063 1.237 3.646 2.75 4.954 4.24 7.491 6.062l4.613 3.312v-65.079l-82.75.051c-45.513.028-83.2.242-83.75.477m544.5 6.24v5.813l4.524.234c5.453.283 7.476-1.365 7.476-6.089 0-4.551-1.522-5.771-7.2-5.771H702zM152.3 661c0 3.025.187 4.263.416 2.75s.229-3.987 0-5.5-.416-.275-.416 2.75m606.917-1.469c-.966 1.096-1.257 6.763-1.178 22.962l.105 21.507H780v4.571c0 7.661-1.045 7.429 33.429 7.429H844v-43.698l-10.031-.611c-12.084-.736-11.969-.675-11.969-6.321 0-7.575.879-7.375-32.179-7.332-24.37.032-29.538.284-30.604 1.493M216 664.883c0 .486-.9 1.119-2 1.407-1.1.287-2 1.24-2 2.116s-.45 1.594-1 1.594-1 2.045-1 4.545c0 4.525 3.136 9.455 6.014 9.455.607 0 .826.45.486 1-.381.617 1.343 1 4.5 1s4.881-.383 4.5-1c-.34-.55-.109-1 .512-1 1.644 0 3.988-2.603 3.988-4.429 0-.864.45-1.571 1-1.571s1-.873 1-1.941-.45-2.219-1-2.559-1-1.524-1-2.63c0-2.148-1.244-3.612-4.775-5.62-2.511-1.428-9.225-1.695-9.225-.367m486.667 3.784c-.367.366-.667 3.066-.667 6 0 4.666.25 5.333 2 5.333 1.1 0 2 .45 2 1s-.9 1-2 1c-1.778 0-2 .667-2 6v6h4.839c5.133 0 7.161-2.033 7.161-7.18 0-2.225-3.721-6.11-5.06-5.283-.441.273-1.084.038-1.43-.521-.359-.58.4-1.016 1.77-1.016 3.942 0 6.089-6.613 3.328-10.25-1.323-1.743-8.5-2.525-9.941-1.083M152.36 682c0 5.225.169 7.362.375 4.75s.206-6.888 0-9.5-.375-.475-.375 4.75m301.89-5.475c-1.238 1.322-2.25 3.121-2.25 3.998s-.45 1.317-1 .977c-.567-.351-1 .49-1 1.941 0 1.407-.45 2.559-1 2.559s-1 1.377-1 3.059c0 1.785-.417 2.802-1 2.441-.567-.351-1 .49-1 1.941 0 1.407-.45 2.559-1 2.559s-1 1.35-1 3-.45 3-1 3-1 .922-1 2.049c0 1.94.531 2.04 10 1.877 5.637-.097 10-.593 10-1.137 0-.572-1.631-.689-4-.289-2.734.462-4 .313-4-.471 0-.631-.357-.927-.792-.657-.436.269-.85-.271-.92-1.2-.07-.93-.217-2.136-.326-2.681-.624-3.112.198-3.491 7.569-3.491 6.149 0 7.651.31 8.18 1.69.362.944.128 1.864-.531 2.083-.649.217-1.18 1.256-1.18 2.31s-.45 1.917-1 1.917-1 .45-1 1c0 .646 11.333 1 32 1h32v-8c0-5.691.361-8.023 1.25-8.08.688-.043 3.616-.081 6.507-.083 2.931-.002 5.007-.41 4.691-.92-.319-.517 2.076-.917 5.493-.917 3.332 0 6.059.358 6.059.796 0 1.201 6.755 1.409 7.484.23.962-1.556 2.516-1.227 2.516.533 0 .857.45 1.281 1 .941.596-.369 1 .843 1 3s.404 3.369 1 3c.605-.374 1 1.009 1 3.5 0 2.265-.375 3.886-.833 3.603-.459-.283-.834.14-.834.941 0 1.165 1.767 1.456 8.834 1.456 8.038 0 8.833-.172 8.833-1.917 0-1.054-.407-2.066-.905-2.25-.497-.183-1.06-1.458-1.25-2.833s-.68-2.75-1.09-3.056-.843-1.736-.962-3.178c-.12-1.442-.572-2.403-1.005-2.135-.698.432-1.229-1.839-.906-3.881.065-.413-.332-.75-.882-.75s-1-.862-1-1.917c0-1.054-.446-2.066-.991-2.25-.546-.183-1.091-1.539-1.213-3.012-.121-1.474-.687-2.599-1.258-2.5-.571.098-.95-.311-.842-.909.12-.667-2.158-1.173-5.889-1.307l-6.086-.22.535 3.991c.662 4.929 1.291 4.748-15.006 4.316l-13.25-.351V674l-36.75.061-36.75.061zM152.32 700c0 3.575.182 5.038.403 3.25s.222-4.712 0-6.5c-.221-1.788-.403-.325-.403 3.25m287.854 12.314c-2.744 2.922-3.345 25.658-.745 28.257 1.189 1.19 7.989 1.429 40.633 1.429h39.205l2.365-2.75c2.042-2.373 2.366-3.799 2.367-10.405.001-7.25 2.598-15.499 5.251-16.678 3.923-1.744-4.492-2.167-43.076-2.167h-43.825zM565 710.929c0 .51.707 1.635 1.571 2.5.865.864 1.263 1.571.885 1.571s.041 1.109.929 2.465c1.118 1.707 1.615 4.736 1.615 9.852 0 6.8.232 7.629 2.923 10.445 1.608 1.682 2.658 3.324 2.333 3.648s1.349.59 3.717.59c6.331 0 6.958-1.361 6.995-15.203.046-16.707-.017-16.797-11.629-16.797-5.136 0-9.339.418-9.339.929m-236.923 14.234c-.038 6.139.119 10.975.349 10.745.754-.755 1.182-21.908.442-21.908-.397 0-.752 5.023-.791 11.163m118.423-9.835c-1.1.645-2.212 1.309-2.471 1.476-2.018 1.304 4.619 1.841 18.737 1.516 17.346-.399 18.389-.564 16.369-2.587-1.693-1.694-29.837-2.044-32.635-.405m18.069 5.783c.307.497-4.109.889-10.01.889-6.373 0-10.559.396-10.559 1 0 .63 6.667 1 18 1 16.539 0 20.84-.657 16.25-2.482-2.69-1.069-14.304-1.414-13.681-.407m-20.303 8.139c.267.772 2.211 1.226 5.083 1.187 2.558-.034 4.651.303 4.651.75s1.462.76 3.25.695l3.25-.119-3-.763c-2.798-.712-2.709-.771 1.309-.882 2.644-.072 4.07.268 3.691.882-.34.55-.141 1 .441 1s1.059-.477 1.059-1.059.476-.765 1.057-.406c1.429.884 12.399.919 13.813.045 3.307-2.043-.219-2.58-16.953-2.58-14.031 0-17.987.28-17.651 1.25m251.41 3.349c.586 1.526 2.444 1.644 6.324.401 2.467-.79 2.461-.803-.5-.977-1.65-.097-3.756-.322-4.681-.501-1.1-.213-1.495.159-1.143 1.077m81.074.133c2.337.211 6.163.211 8.5 0 2.337-.21.425-.383-4.25-.383s-6.587.173-4.25.383m18.403-.246c.686.686 37.936.759 38.619.075.309-.308-8.364-.561-19.272-.561s-19.614.219-19.347.486m-342.403 1.303c-6.55.216-8.75.629-8.75 1.643 0 2.227 2.448 2.568 18.459 2.568 12.484 0 15.529-.28 16.561-1.524.696-.838 1.088-1.693.873-1.9-.635-.607-17.657-1.1-27.143-.787M694 740.571c0 3.127 2.115 5.429 4.988 5.429 1.171 0 1.852.45 1.512 1-.41.663 25.18 1 76.012 1 80.009 0 79.488.026 79.488-3.988 0-.621.45-.852 1-.512.583.361 1-.656 1-2.441V738H694zm-453.75 3.184-88.25.256v4.566c0 8.012-6.532 7.423 82.341 7.423h79.483l-.298-2.715c-.37-3.365.21-4.97 2.051-5.676 3.561-1.367 5.943 2.471 3.223 5.191-.933.933-.878 1.203.25 1.215 1.233.013 1.226.161-.05.985-1.083.7-.16.974 3.321.985 2.864.009 5.402-.565 6.25-1.414 1.48-1.479 2.03-10.205.679-10.762-.413-.17-40.462-.194-89-.054m523.735 8.495c-.013 1.819-.201 1.963-.985.75-.675-1.045-.974.7-.985 5.75L762 766l3.25.141c21.576.939 24.14.718 23.318-2.007-.271-.899-.583-4.446-.694-7.884l-.202-6.25h-11.836c-11.603 0-11.836.044-11.851 2.25M238 761.941c0 2.446 1.448 3.369 4.009 2.556 3.315-1.052 2.542-4.497-1.009-4.497-2.303 0-3 .451-3 1.941M203 769c-1.004.649 3.292.951 13 .914 9.019-.034 13.744-.379 12.5-.914-2.768-1.189-23.659-1.189-25.5 0m33 0c0 .587 3.203.971 7.75.93 5.259-.048 7.107-.347 5.75-.93-2.819-1.212-13.5-1.212-13.5 0m19 .045c0 .678 4.378.992 12.493.893 7.04-.085 12.252-.541 11.941-1.045-.801-1.296-24.434-1.149-24.434.152m631.265 98.251c.129.662-.316 1.095-.99.962-.95-.187-1.226 8.309-1.226 37.794 0 21.043.385 37.798.862 37.503.474-.293 1.418.137 2.098.956 1.053 1.268 6.592 1.489 37.391 1.489 34.987 0 36.211-.065 37.878-2.011 2.406-2.811 2.66-74.194.272-76.582-1.959-1.959-76.666-2.068-76.285-.111m-115.122 4.476c-18.63.262-19.428.356-21.217 2.5-1.722 2.063-1.86 4.452-1.861 32.228-.001 31.261.286 33.5 4.295 33.5.902 0 1.64.45 1.64 1 0 .635 7.667 1 21 1s21-.365 21-1c0-.55.689-1 1.531-1 .843 0 1.79-.672 2.105-1.494.316-.822.885-1.302 1.266-1.066.382.235.815-3.142.964-7.506.214-6.267-.024-7.934-1.131-7.934-1.534 0-1.554.065-2.381 7.93-.314 2.987-1.165 6.024-1.891 6.75-2.017 2.017-41.031 1.895-43.061-.135-2.163-2.163-2.015-60.545.154-60.545.794 0 1.444-.45 1.444-1 0-1.723 39.831-1.312 41.571.429 1 .999 1.429 3.825 1.429 9.406 0 7.485.123 7.945 2 7.455 2.687-.703 3.081-16.661.437-17.676-.86-.33-1.337-.967-1.06-1.415s-1.35-.924-3.615-1.058-4.375-.333-4.69-.442-9.283-.077-19.929.073m-126.893 2.753c-1.844 1.97-2.247 3.536-2.235 8.689.027 11.125 3.261 11.052 3.785-.085.175-3.711.876-6.947 1.678-7.75 2.123-2.123 41.047-1.997 43.183.139 2.172 2.172 2.588 58.265.451 60.845-1.234 1.489-3.796 1.645-23 1.406L646.5 937.5l-.314-4.386c-.409-5.713-3.109-8.892-3.342-3.935-.086 1.826-.214 4.525-.285 5.997s.188 2.48.576 2.241c.387-.24 1.303.162 2.034.893 2.327 2.323 5.897 2.804 25.032 3.373 16.431.489 18.9.359 20.331-1.072.896-.896 2.043-1.374 2.549-1.061.505.312.919-.332.919-1.432s.413-2.255.918-2.568c1.405-.868 1.322-56.233-.087-58.867-2.504-4.678-2.552-4.686-26.01-4.622-22.242.061-22.329.07-24.571 2.464M69.5 881.378c-1.65 1.782-3.134 3.841-3.298 4.575-.164.733-1.626 2.575-3.25 4.092S60 893.357 60 894.034s-.922 2.031-2.05 3.009c-1.418 1.231-1.693 1.998-.893 2.492.845.523.791.948-.2 1.582-.773.494 28.606.848 68.285.822 68.499-.046 69.634-.078 69.134-1.993-.28-1.07-.907-1.946-1.393-1.946-.485 0-.883-.719-.883-1.599 0-.879-1.35-2.86-3-4.401s-3-3.312-3-3.935c0-.622-1.586-2.717-3.524-4.655s-3.261-3.948-2.941-4.467c.363-.587-19.761-.917-53.226-.874l-53.809.068zm181.75-1.882c-.687.781-1.25 2.014-1.25 2.741s-.9 1.97-2 2.763-2 2.038-2 2.766-1.125 2.45-2.5 3.825c-3.043 3.043-3.175 4.409-.429 4.409 2.419 0 4.929-2.213 4.929-4.345 0-.819.416-1.638.925-1.822.509-.183 1.071-1.008 1.25-1.833s1.112-2.228 2.075-3.117c.963-.89 1.75-2.604 1.75-3.809 0-1.402.416-1.935 1.155-1.479.715.443.883.275.44-.44-.954-1.545-2.814-1.398-4.345.341m14.75.063c0 .857-.45 1.281-1 .941-.585-.362-1 .676-1 2.5s-.415 2.862-1 2.5c-.565-.349-1 .47-1 1.882 0 1.375.45 2.778 1 3.118s1-.084 1-.941.597-1.559 1.327-1.559c.905 0 1.187-.953.886-3-.264-1.801.005-3 .674-3 .612 0 1.113-.9 1.113-2s-.45-2-1-2-1 .702-1 1.559m12.209 1.191c-.124 1.513-.672 2.9-1.218 3.083s-.991 1.223-.991 2.309-.357 1.756-.792 1.486c-.436-.269-.85.271-.92 1.2-.227 3.007-.767 4.657-1.759 5.368-2.224 1.593 1.534 1.876 28.584 2.153 34.855.357 38.887.112 38.887-2.362 0-1.001-.506-1.989-1.125-2.195-.619-.207-1.125-1.594-1.125-3.084s-.394-2.708-.875-2.708-.875-.702-.875-1.559-.375-1.327-.833-1.044c-.459.283-.909-.14-1-.941-.092-.801-.242-2.131-.334-2.956-.143-1.293-3.975-1.5-27.782-1.5h-27.615zM344 881c0 1.65.395 3 .879 3 .483 0 1.438 1.35 2.121 3s1.638 3 2.121 3 .879 1.35.879 3c0 2.865.08 2.921 1.779 1.25 1.3-1.28 1.431-1.838.487-2.076-.71-.179-1.033-.741-.719-1.25.314-.508.22-1.486-.21-2.174-.429-.687-.876-1.88-.992-2.65-.117-.77-.69-1.695-1.274-2.056s-1.162-1.868-1.284-3.35c-.332-4.006-3.787-3.727-3.787.306m14 0c0 1.65.45 3 1 3s1 .702 1 1.559.45 1.281 1 .941 1 .309 1 1.441.34 2.059.756 2.059 1.353 1.35 2.084 3c1.037 2.344 1.965 3 4.244 3 3.301 0 3.564-.495 1.407-2.652-.83-.83-1.211-1.992-.846-2.583.394-.637.194-.783-.49-.36-.653.403-1.155.132-1.155-.625 0-.736-.9-1.987-2-2.78s-2-2.038-2-2.766c0-1.276-4.338-6.234-5.455-6.234-.3 0-.545 1.35-.545 3m562.5 6c.34.55-.341 1-1.512 1-2.973 0-4.76 2.103-5.153 6.064-.46 4.633 2.285 5.09 6.092 1.014 3.198-3.423 4.538-3.756 6.644-1.649 2.373 2.372 1.705 6.161-1.571 8.918-1.65 1.388-3 3.228-3 4.088 0 .861-.45 1.565-1 1.565-1.518 0-1.195 4.948.429 6.571 2.187 2.187 4.569 1.761 4.586-.821.013-1.819.201-1.963.985-.75.751 1.162.973.858.985-1.349.01-1.863 1.053-3.819 3.015-5.651 1.65-1.541 3-3.773 3-4.96s.45-1.88 1-1.54c.585.362 1-.676 1-2.5 0-2.126-.372-2.888-1.17-2.395-.794.491-.958.171-.51-.996.43-1.12-.19-2.57-1.775-4.154s-3.034-2.205-4.154-1.775c-1.167.448-1.487.284-.996-.51.507-.821-.506-1.17-3.395-1.17-2.491 0-3.874.395-3.5 1M260 891.559c0 .857-.45 1.281-1 .941s-1-.141-1 .441c0 2.009 3.571 1.107 3.725-.941.083-1.1-.271-2-.787-2s-.938.702-.938 1.559m162-.534c0 .536 1.65.975 3.667.975 4.285 0 4.14-.464-.417-1.331-1.867-.356-3.25-.204-3.25.356m21.659.21c-.638.404 5.816.713 14.341.686 10.814-.033 14.784-.335 13.131-.996-2.686-1.075-25.698-.816-27.472.31m30.731-.057c-.279.452 1.844.822 4.718.822s5.006-.219 4.738-.488c-.888-.887-8.938-1.172-9.456-.334m16.61-.107-5.5.603 6.75.163c3.712.09 6.75-.014 6.75-.23 0-.911-2.845-1.102-8-.536m9 .043c0 .487 8.625.886 19.167.886 10.541 0 18.915-.252 18.607-.559-.953-.953-37.774-1.272-37.774-.327m41-.048c-1.691.497-.261.767 4.417.834 3.804.055 6.729-.063 6.5-.262-.973-.847-8.619-1.247-10.917-.572m23.768.659c1.797.222 4.497.218 6-.01 1.503-.229.032-.411-3.268-.405s-4.529.192-2.732.415m-314.474 8.903c.751.75 9.742.67 10.506-.094.293-.294-2.092-.534-5.3-.534s-5.551.282-5.206.628M263 901c1.729 1.117 9.11 1.117 13.5 0 2.087-.531.262-.795-6-.866-6.142-.071-8.524.204-7.5.866m17-.152c0 .466 1.35.886 3 .933s3-.335 3-.848-1.35-.933-3-.933-3 .382-3 .848m49.81.302c-1.271.358 1.402.695 5.94.75s8.25-.299 8.25-.787c0-.995-10.622-.967-14.19.037M353 901c0 .605 3.85.961 9.75.9 6.423-.065 8.897-.373 7.25-.9-3.691-1.182-17-1.182-17 0m-56.75.689c.962.252 2.538.252 3.5 0 .962-.251.175-.457-1.75-.457s-2.712.206-1.75.457m-243 3.806c-.844.959-1.25 5.132-1.25 12.853v11.433l3.475.406c1.911.223 18.635.279 37.164.124 23.566-.198 34.092.051 35.026.826.734.609 1.337.715 1.34.235.009-1.437 33.829-1.754 35.542-.333 1.024.85 1.453.875 1.453.083 0-.617 1.012-1.115 2.25-1.107 1.866.013 1.994.198.75 1.082-1.096.779.225.91 4.897.485 3.518-.32 9.898-.582 14.178-.582 10.497 0 10.75-.313 10.281-12.685-.251-6.608-.066-9.161.565-7.815.902 1.921.941 1.912 1.009-.25.038-1.237-.38-2.25-.93-2.25s-1-.893-1-1.985c0-1.962-.839-1.985-71.75-1.963-60.725.019-71.942.241-73 1.443M234.5 905c.34.55-.084 1-.941 1-1.314 0-1.559 1.669-1.559 10.633 0 14.212.226 14.422 15.429 14.384 6.089-.016 12.559.114 14.379.289 1.819.174 3.522-.031 3.785-.456s1.616-.341 3.008.188c1.414.538 12.532.868 25.214.75l22.685-.213L300 931l-16.5-.575 18.809-.213c10.753-.121 18.574.168 18.261.675-.305.494 4.514.958 10.854 1.046 7.482.103 11.639-.227 12.093-.96.379-.615 2.556-1.009 4.837-.875 9.221.537 9.833.296 9.485-3.747-.395-4.578 1.736-6.321 5.583-4.568 2.489 1.134 3.867 6.217 1.685 6.217-.491 0-1.11.563-1.376 1.25-.647 1.678 13.087 1.075 14.812-.65 1.654-1.654 1.487-21.605-.195-23.35-1.55-1.607-144.841-1.856-143.848-.25m88 .911 3 .674-3.375.707c-1.856.39-12.058.708-22.67.708H280.16v19.854l20.67.151c25.551.187 29.475.518 23.67 1.995-2.074.528-.531.744 5 .701 4.692-.036 6.036-.216 3.25-.436-4.48-.353-6.906-2.265-2.873-2.265 1.699 0 1.893-.947 2.049-10.016.095-5.509-.187-9.92-.627-9.802-1.991.534-5.555-1.406-4.181-2.276.899-.569-.192-.839-3.118-.772-3.956.09-4.137.184-1.5.777m37.25-.222c-2.716.71-2.452 7.953.322 8.834 2.258.716 5.928-1.863 5.928-4.167 0-1.399-3.063-5.44-3.972-5.24-.291.064-1.316.322-2.278.573m-228.5 3.558-3.25 1.042v14.634l4.25 1.151c3.163.856 29.111.835 31.379-.025.07-.027.688-1.399 1.371-3.049 1.463-3.532 2.066-3.683 4-1 1.096 1.52 2.589 2 6.221 2 4.547 0 4.779-.134 4.78-2.75l.001-2.75 2.418 2.812c2.823 3.281 9.379 4.031 12.034 1.377 1.697-1.697 2.198-9.21.546-8.189-.55.34-1-.084-1-.941 0-2.729-8.615-2.309-11.087.541-1.949 2.247-2.913 2.42-2.913.521 0-3.655-8.391-4.236-12.25-.848-1.514 1.33-1.75 1.338-1.75.062 0-.811-1.128-2.455-2.508-3.655-2.32-2.017-3.496-2.172-15.75-2.078-7.283.056-14.705.571-16.492 1.145m205.95-.047c-4.002 4.002.665 9.386 4.93 5.687l2.199-1.907-2.339-2.49c-2.661-2.833-3.123-2.957-4.79-1.29m-197.95.516c1.512.229 3.988.229 5.5 0s.275-.416-2.75-.416-4.262.187-2.75.416m-82.787 2.9c-1.665 1.431-2.463 3.155-2.463 5.322 0 6.136-.441 6.062 36 6.062 36.688 0 36 .122 36-6.406 0-6.599-.792-6.752-35.998-6.933-30.321-.157-31.136-.11-33.539 1.955m182.787.88c-1.689 1.919-1.583 7.314.179 9.075.785.786 2.842 1.429 4.571 1.429 3.993 0 6-2.007 6-6 0-1.729-.643-3.786-1.429-4.571-1.826-1.827-7.691-1.785-9.321.067m110.967 3.15c-.431 5.211 7.05 8.13 7.955 3.104.806-4.476-.087-5.75-4.027-5.75-3.289 0-3.734.3-3.928 2.646m15.206-1.398c-2.119 2.373.613 6.888 3.963 6.548 3.626-.368 5.568-3.055 4.008-5.546-1.299-2.074-6.438-2.72-7.971-1.002M252 918c0 1.667.667 2 4 2s4-.333 4-2-.667-2-4-2-4 .333-4 2m9.481-.969c-1.093 1.769.97 3.16 4.147 2.797 4.02-.459 3.803-3.238-.284-3.634-1.736-.169-3.474.208-3.863.837M921.2 919.2c-1.642 1.642-1.505 3.638.378 5.521 1.437 1.437 1.807 1.348 4.149-.994s2.431-2.712.994-4.149c-1.883-1.883-3.879-2.02-5.521-.378m-583.95.462c-1.752.707-1.559 5.171.303 7.034 1.404 1.404 1.788 1.332 4-.746 2.875-2.7 2.97-3.285.876-5.379-1.592-1.591-2.913-1.823-5.179-.909M950.5 927c-.34.55-1.379 1.004-2.309 1.008s-2.253 1.219-2.941 2.699c-1.497 3.225-1.65 8.293-.25 8.293.55 0 1.011.563 1.025 1.25.046 2.357 6.68 4.902 8.37 3.212.804-.804 1.751-1.462 2.105-1.462.857 0 2.721-2.086 4.211-4.713.976-1.721.915-2.729-.313-5.191-1.759-3.526-3.605-4.974-4.172-3.273-.426 1.276-2.302 1.656-2.108.427.475-3.007-2.143-4.636-3.618-2.25m3.58 6.5-1.235 3-1.833-2.25c-2.431-2.984-3.012-2.839-3.012.75 0 1.65.477 3 1.059 3s.781.45.441 1c-.959 1.552 3.465 1.178 5.071-.429.786-.785 1.436-2.023 1.444-2.75.012-.976.269-.929.985.179.828 1.282.972 1.246.985-.25.008-.962-.402-1.75-.912-1.75-.509 0-1.114-.788-1.342-1.75-.319-1.341-.705-1.048-1.651 1.25"/></svg>