<svg xmlns="http://www.w3.org/2000/svg" viewBox="0 0 1024 1024"><path fill="#00e5cc" d="M146 61.441c0 .793.45 1.719 1 2.059s1-.309 1-1.441S147.55 60 147 60s-1 .648-1 1.441m24.411 3.619c.116 1.68-.055 3.22-.381 3.422s-.668 1.863-.759 3.692c-.133 2.647.007 2.917.682 1.326.618-1.455.96-.227 1.255 4.5.31 4.958.452 3.963.599-4.191.106-5.88-.212-10.941-.707-11.247s-.805.818-.689 2.498m-22.07 7.265c.044 4.304.404 7.004.799 6 .929-2.357.873-8.134-.109-11.325-.496-1.611-.741.282-.69 5.325M414 67c0 .55-1.098 1-2.441 1s-2.719.45-3.059 1-1.69 1-3 1-2.66.45-3 1-1.69 1-3 1-2.66.45-3 1-1.491 1-2.559 1-1.941.45-1.941 1-1.35 1-3 1-3 .45-3 1-1.35 1-3 1-3 .45-3 1-.906 1-2.014 1c-1.994 0-2.012.502-1.87 51.75.148 53.217.227 55.102 2.231 52.974.776-.824 1.22-7.76 1.358-21.224.134-13.084-.113-19.135-.714-17.5-.643 1.746-.751.538-.359-4 .627-7.266 1.824-9.217 5.124-8.354l2.244.587v23.884c0 23.216.056 23.883 2 23.883 1.1 0 2.034-.338 2.077-.75.042-.412.303-1.65.581-2.75s.748-7.502 1.044-14.227c.528-12.006 1.038-13.716 4.301-14.441.824-.183 2.274-1.177 3.225-2.209 1.233-1.34 3.022-1.852 6.25-1.787 2.487.05 4.522-.343 4.522-.872 0-.53 1.141-.964 2.535-.964s3.645-.727 5-1.615L420 140.77v-35.803c0-19.692-.273-36.515-.607-37.385C418.736 65.869 414 65.358 414 67m-30.079 17.75c-.047 1.045-.282 1.247-.583.5-.97-2.402-3.192-1.221-4.36 2.317-1.397 4.232.435 6.353 5.522 6.393 5.011.04 7.883-9.088 3.25-10.33-3.362-.901-3.743-.789-3.829 1.12m432.746-.083c-.367.366-.667 1.716-.667 3 0 1.926.524 2.333 3 2.333 1.65 0 3 .398 3 .883 0 .486.788 1.162 1.75 1.501.962.34 2.313.879 3 1.2.885.413 1.25-.55 1.25-3.301 0-2.135.54-4.423 1.2-5.083.933-.933-.252-1.2-5.333-1.2-3.594 0-6.834.3-7.2.667m118.583.056c-2.905.361-3.25.743-3.25 3.6 0 2.166.678 3.62 2.105 4.51 1.157.723 1.806.831 1.441.241-.393-.636.2-1.074 1.454-1.074 1.165 0 1.84-.45 1.5-1-.354-.572.536-1 2.081-1 2.673 0 5.326-2.339 5.387-4.75.032-1.244-3.529-1.419-10.718-.527m17.026 1.943c.635 3.32-.053 5.334-1.824 5.334-.734 0-1.574.388-1.867.862s.243.803 1.191.731c2.655-.202 6.224-2.508 6.224-4.021 0-1.41 2.092-2.572 4.63-2.572.807 0 2.007 1.237 2.668 2.75s2.02 2.889 3.019 3.059c1.601.273 1.671.035.587-2-1.723-3.233-3.959-4.74-7.089-4.777-1.477-.018-3.893-.491-5.371-1.053-2.557-.972-2.661-.892-2.168 1.687m-151.13.462c1.455.533 2.876 1.847 3.156 2.921.517 1.975 3.698 2.794 3.698.951 0-.55-.45-1-1-1s-1-.9-1-2c0-1.658-.64-1.987-3.75-1.921-3.601.076-3.645.118-1.104 1.049M168.31 93.5c.005 3.3.192 4.529.415 2.732s.218-4.497-.01-6c-.229-1.503-.411-.032-.405 3.268m394.88-1.94c-.72.816-1.744 1.216-2.275.888s-.841-.001-.69.728c.151.728-.321 1.2-1.049 1.049-.729-.151-1.081.12-.782.603s-.104 1.731-.894 2.775c-1.069 1.412-1.445 5.148-1.468 14.616-.036 14.119.37 14.689 6.119 8.592 4.474-4.744 8.444-3.665 8.052 2.189-.018.275 1.279.594 2.882.71l2.915.209V96h-2.5c-1.375 0-2.5-.45-2.5-1s1.125-1 2.5-1c1.833 0 2.5-.533 2.5-2 0-2.564-10.613-2.929-12.81-.44m229.843.168c-1.311 1.476-1.275 1.579.332.962.989-.379 1.987-.69 2.217-.69s.418-.45.418-1c0-1.471-1.297-1.153-2.967.728m15.634.939c-.367.366-.667 2.166-.667 4 0 2.444-.444 3.333-1.667 3.333-.916 0-1.388.279-1.047.619 1.278 1.278-2.276 3.381-5.715 3.381-2.904 0-3.571-.373-3.571-2q0-2-2-2c-1.667 0-2 .667-2 4 0 3.778.167 4 3 4 1.65 0 3 .42 3 .933s.9 1.218 2 1.567c1.814.576 2 1.513 2 10.067 0 5.622.404 9.433 1 9.433.55 0 1 .9 1 2s.45 2 1 2 1 .675 1 1.5.45 1.5 1 1.5 1 .51 1 1.133.822 1.86 1.826 2.75 2.464 3.08 3.244 4.867 1.758 3.25 2.174 3.25.756.47.756 1.045c0 3.269 4.94 5.954 10.705 5.819 3.187-.075 4.782-.331 3.545-.57-1.854-.357-2.25-1.09-2.25-4.163 0-3.676-.05-3.724-3.514-3.319-4.502.525-8.099-1.899-4.369-2.945 2.28-.639 2.261-.672-.426-.767-1.599-.057-2.543-.531-2.191-1.1.34-.55-.099-1-.976-1-1.284 0-1.386-.389-.524-2 .865-1.615.76-2-.541-2-1.254 0-1.54-.833-1.286-3.75.323-3.701.276-3.754-3.563-4.069-5.707-.467-6.61-1.893-6.61-10.435 0-8.436 2.12-11.733 7.564-11.761 1.615-.009 2.46-.346 1.878-.75-4.304-2.989-6.055-12.196-2.692-14.155 1.482-.863 1.508-1.024.167-1.05-.871-.016-1.884.27-2.25.637M151.15 95.668c-.083 1.193-.441 2.993-.797 4-.498 1.409-.364 1.571.578.704.674-.621 1.033-2.421.797-4-.302-2.024-.473-2.231-.578-.704M838 120v26h84V94h-84zm94.162-16.5c-.308 6.862.011 7.47 2.572 4.909 1.326-1.326 1.362-1.732.213-2.442-.854-.527-1.315-2.392-1.215-4.909.089-2.232-.162-4.058-.558-4.058s-.851 2.925-1.012 6.5M594 123.989V150h88.034l-.267-25.75-.267-25.75-43.75-.261-43.75-.26zM562.5 101c.34.55-.084 1-.941 1-2.739 0-2.042 7.219.949 9.82 2.62 2.278 5.492 2.895 5.492 1.18 0-.55.337-.947.75-.882.413.066 1.313.066 2 0 1.775-.168 1.629-8.882-.179-10.689-1.615-1.616-9.049-2.011-8.071-.429m387.5.542c0 .848-.931 2.535-2.069 3.75l-2.07 2.208 2.82.33c5.546.649 7.319 3.61 7.319 12.222 0 8.806-.41 9.393-7.25 10.383-3.992.578-6.906 2.565-3.761 2.565.544 0 .898 1.093.788 2.429-.111 1.336-.443 2.408-.739 2.382s-1.551.005-2.788.071c-3.089.162-2.858 2.118.25 2.118 3.581 0 3.061 2.502-1 4.805-1.1.624-1.437 1.148-.75 1.165 3.281.079.757 2.03-2.628 2.03-4.328 0-6.631 1.946-5.847 4.942.331 1.267-.066 2.106-1.132 2.389-.904.241 1.02.489 4.274.553s5.644-.157 5.31-.49c-.333-.333.457-1.669 1.756-2.968s2.652-3.276 3.007-4.394 1.064-2.032 1.577-2.032.933-.927.933-2.059.45-1.781 1-1.441 1-.084 1-.941.45-1.559 1-1.559 1-.675 1-1.5.45-1.5 1-1.5 1-.675 1-1.5.45-1.5 1-1.5 1-.927 1-2.059.45-1.781 1-1.441c.641.396 1-2.951 1-9.326 0-10.907 1.285-13.174 7.465-13.174 2.291 0 2.535-.385 2.535-4 0-3.333-.333-4-2-4-1.259 0-2 .667-2 1.8 0 4.781-4.758 5.465-8.347 1.2-2.707-3.217-5.653-3.977-5.653-1.458m-123.361 1.957c-.317.824-.168 2.512.329 3.75.786 1.954.914 1.757.969-1.499.067-3.976-.355-4.709-1.298-2.251m48.987 2.245c-2.935.421-7.626 4.278-7.626 6.27 0 .607-.45.826-1 .486-.594-.367-1 .803-1 2.882 0 1.925-.45 3.778-1 4.118s-1 1.518-1 2.618.45 1.722 1 1.382 1 .324 1 1.474c0 2.651 6.292 9.026 8.908 9.026 1.086 0 2.252.45 2.592 1s1.491 1 2.559 1 1.941-.45 1.941-1 1.17-1 2.6-1c5.316 0 13.789-13.011 10.57-16.23-.644-.644-1.17-2.232-1.17-3.529 0-1.318-.441-2.086-1-1.741-.55.34-1 .109-1-.512 0-1.393-2.502-3.988-3.845-3.988-.544 0-1.138-.382-1.322-.848-.421-1.072-7.42-1.952-11.207-1.408m-249.376 6.83c-3.569 3.735-3.269 23.426.357 23.426.766 0 1.393.45 1.393 1 0 1.48 8.744 1.245 9.292-.25.366-1 .723-1 1.783 0 2.496 2.354 10.9.384 10.917-2.559.004-.72.458-1.031 1.008-.691.64.396 1-2.823 1-8.941 0-5.706-.403-9.559-1-9.559-.55 0-1-.482-1-1.071 0-2.861-2.845-3.738-12.083-3.724-8.577.013-9.618.224-11.667 2.369m165.398 3.974c-.789 5.761.374 25.452 1.504 25.452.466 0 .848 1.152.848 2.559 0 1.451.433 2.292 1 1.941.55-.34 1 .024 1 .808 0 2.79 7.568 6.692 12.979 6.692 5.482 0 6.326-1.177 3.271-4.561-.962-1.067-2.389-3.177-3.169-4.689s-1.793-2.75-2.25-2.75-.831-.675-.831-1.5-.45-1.5-1-1.5-1-.675-1-1.5-.337-1.504-.75-1.508c-1.869-.019-3.25-6.076-3.25-14.25 0-5.652-.362-8.636-1-8.242-.55.34-1 .141-1-.441S796.711 112 795.136 112c-2.641 0-2.913.354-3.488 4.548m170.321-2.798c-.152 8.617-3.197 22.25-4.969 22.25-.417 0-1.317 1.35-2 3s-1.562 3-1.952 3c-.391 0-1.349 1.238-2.129 2.75s-2.207 3.622-3.169 4.689c-3.261 3.612-2.26 4.561 4.809 4.561 4.118 0 6.329-.372 5.941-1-.34-.55.116-1 1.012-1 2.056 0 3.829-1.765 6.435-6.406 1.816-3.234 2.053-5.381 2.053-18.624V112h-3c-2.179 0-3.008.479-3.031 1.75M630.5 115c-.34.55.309 1 1.441 1s2.059-.45 2.059-1-.648-1-1.441-1-1.719.45-2.059 1m-464.43 8.809c-.044 3.968.301 6.08.93 5.691 1.202-.743 1.202-7.203 0-10-.606-1.411-.88-.142-.93 4.309M628 126.193c0 5.644 1.164 7.807 4.2 7.807 1.533 0 1.8-.889 1.8-6 0-4.513-.352-6-1.418-6-.78 0-2.13-.273-3-.607-1.322-.507-1.582.28-1.582 4.8m-248 4.093c0 1.619.583 2.285 2 2.285s2-.666 2-2.285-.583-2.286-2-2.286-2 .667-2 2.286m176 9.273c0 7.451.355 11.339 1 10.941.55-.34 1 .309 1 1.441 0 1.198.652 2.059 1.559 2.059.924 0 1.268.47.846 1.155-.423.684-.277.884.36.49.591-.365 1.753.016 2.583.846.984.984 3.446 1.509 7.081 1.509H576v-28h-3c-2.061 0-3 .492-3 1.571 0 .865-.732 2.304-1.628 3.199-1.503 1.504-1.845 1.384-4.485-1.571-1.573-1.759-3.54-3.199-4.373-3.199s-1.514-.45-1.514-1-.45-1-1-1c-.609 0-1 4.52-1 11.559m376-7.618c0 1.068.52 2.262 1.155 2.654.689.426.884.276.483-.371-.369-.597-.206-1.373.362-1.724 1.155-.714.398-2.5-1.059-2.5-.518 0-.941.873-.941 1.941M567.71 138c-.751 2.871.281 6 1.978 6 3.646 0 5.924-6.168 2.73-7.393-2.784-1.069-4.171-.658-4.708 1.393m255.979.698c1.263.245 2.368 1.35 2.613 2.613.35 1.802.45 1.703.562-.561.118-2.396-.218-2.732-2.614-2.614-2.264.112-2.363.212-.561.562m108.379 2.352c.063 3.24.134 3.311 1.167 1.167.813-1.687.796-2.586-.068-3.45-.889-.889-1.151-.347-1.099 2.283M424 143c0 .55-.9 1-2 1s-2 .45-2 1-1.35 1-3 1-3 .45-3 1-2.507 1-5.571 1c-5.387 0-8.429 1.411-8.429 3.91 0 .578-1.059 1.318-2.354 1.643-2.209.554-2.393 1.184-2.995 10.269-.913 13.789-.802 20.178.349 20.178.55 0 1 .9 1 2 0 1.476.667 2 2.545 2 2.838 0 7.455-4.034 7.455-6.514 0-.882.45-1.326 1-.986s1-.084 1-.941.45-1.559 1-1.559 1-.9 1-2q0-2 2-2c1.1 0 2-.45 2-1s1.152-1 2.559-1c1.451 0 2.292-.433 1.941-1-.352-.57.513-1 2.012-1 3.203 0 6.451-2.787 4.589-3.937-.771-.477-1.108-2.568-.912-5.66.298-4.698.426-4.89 3.061-4.581 1.512.176 2.75-.135 2.75-.693s-.826-.855-1.835-.661c-2.332.449-5.264-1.377-3.415-2.127.688-.279 1.25-1.873 1.25-3.541 0-2.665.292-2.977 2.409-2.573 3.114.596 2.419-1.528-1.011-3.092-3.05-1.389-3.398-1.403-3.398-.135m-8.771 6.171c-1.69 1.69-1.543 4.494.271 5.191 2.669 1.024 4.628-.447 4.304-3.231-.335-2.88-2.659-3.876-4.575-1.96M428 151c0 .55.675 1 1.5 1s1.5-.45 1.5-1-.675-1-1.5-1-1.5.45-1.5 1m5.25 2.496c-.687.781-1.25 3.703-1.25 6.493 0 3.588-.439 5.242-1.5 5.649-.825.317-1.5.964-1.5 1.438 0 .473.673.603 1.495.288.906-.348 2.909.84 5.086 3.017 3.095 3.095 3.786 3.395 5.005 2.176 1.612-1.612 1.925-6.557.414-6.557-.55 0-1-1.602-1-3.559 0-2.118-.405-3.309-1-2.941-.57.352-1-.513-1-2.012 0-1.447-.643-3.274-1.429-4.059-1.72-1.721-1.748-1.72-3.321.067M402 157.892c0 4.689 3.465 6.344 7.606 3.631 4.519-2.961 2.072-7.523-4.035-7.523-3.483 0-3.571.096-3.571 3.892m11.841 3.98c-2.661 3.109-2.864 5.888-.475 6.516 1.174.309 2.285.12 2.469-.42.185-.539.696-.758 1.137-.485 1.662 1.027 1.749-3.499.103-5.396-1.639-1.89-1.791-1.9-3.234-.215m-308.303 117.19c.319.516-.347.938-1.479.938s-2.059.45-2.059 1-.927 1-2.059 1-1.803.414-1.491.919c.313.506-.111 1.599-.941 2.429S96 288.041 96 289.488c0 1.499-.43 2.364-1 2.012-.611-.378-1 1.156-1 3.941 0 2.507-.45 4.559-1 4.559s-1 1.8-1 4-.45 4-1 4-1 2.25-1 5c0 2.889-.452 5-1.072 5-.589 0-.93 1.238-.758 2.75.389 3.41 5.9 9.25 8.73 9.25 1.155 0 2.1.45 2.1 1 0 .651 14.5 1 41.5 1s41.5-.349 41.5-1c0-.55.695-1 1.545-1 3.994 0 6.455-4.581 6.455-12.014 0-4.481-.369-6.876-1-6.486-.617.381-1-1.343-1-4.5s-.383-4.881-1-4.5c-.833.515-1.592-4.748-1.118-7.75.065-.413-.332-.75-.882-.75s-1-1.074-1-2.386c0-4.583-5.12-11.614-8.458-11.614-.848 0-1.542-.46-1.542-1.021 0-.678-11.637-.994-34.521-.939-21.229.051-34.298.444-33.941 1.022M139.653 295c-2.382 2.831-4.495 4.172-3.153 2 .351-.567-.49-1-1.941-1-1.407 0-2.559.45-2.559 1s-1.167 1-2.594 1c-1.752 0-2.763.649-3.116 2-.288 1.1-.921 2-1.407 2-.485 0-.883.9-.883 2s.477 2 1.059 2 .809.404.504.898.715 2.258 2.267 3.92c2.755 2.949 3.044 3.021 12.151 2.992 8.432-.027 9.555-.255 11.674-2.374 2.917-2.917 2.942-4.184.127-6.625-1.276-1.106-1.807-2.218-1.25-2.617 2.145-1.538 1.423-3.97-1.543-5.199-2.295-.95-2.895-1.716-2.447-3.127 1.01-3.182-3.943-2.368-6.889 1.132m429.597 2.496c-.687.781-1.25 1.889-1.25 2.462s-.45 1.042-1 1.042-1 1.575-1 3.5-.45 3.5-1 3.5c-.6 0-1 4-1 10s.4 10 1 10c.55 0 1 1.602 1 3.559 0 2.118.405 3.309 1 2.941.55-.34 1 .116 1 1.012 0 4.581-.951 4.519 65.186 4.246l62.314-.258.27-21.75.269-21.75-62.769.038c-52.931.032-62.966.261-64.02 1.458M334 316v18h49.779c48.632 0 49.813.046 51.221 2 .793 1.1 2.355 2.007 3.471 2.015 1.676.013 1.768.184.529.985-2.096 1.355-.039 1.265 5.736-.25 8.792-2.307 9.264-3.364 9.264-20.75 0-14.689-.065-15.156-2.455-17.545L449.091 298H334zm530-17c0 .55-1.602 1-3.559 1-2.118 0-3.309.405-2.941 1 .34.55-.209 1-1.22 1s-2.487.9-3.28 2-2.032 2-2.754 2c-1.823 0-8.246 6.595-8.246 8.467 0 .843-.337 1.537-.75 1.541-.898.009-3.25 4.852-3.25 6.691 0 .716-.45 1.301-1 1.301-.608 0-1 4.48-1 11.441 0 6.549.428 11.705 1 12.059.55.34 1 1.491 1 2.559s.45 1.941 1 1.941 1 .712 1 1.582c0 3.259 14.865 16.418 18.545 16.418.865 0 1.295.45.955 1-.367.594.803 1 2.882 1 1.925 0 3.778.45 4.118 1s3.265 1 6.5 1 6.16-.45 6.5-1 2.166-1 4.059-1 3.441-.45 3.441-1 1.026-1 2.279-1c1.254 0 2.928-.9 3.721-2s2.069-2 2.836-2c1.702 0 8.164-6.883 8.164-8.695 0-.718.45-1.305 1-1.305s1-.675 1-1.5.45-1.5 1-1.5 1-1.125 1-2.5.45-2.5 1-2.5 1-2.25 1-5 .45-5 1-5 1-1.35 1-3-.45-3-1-3-1-1.816-1-4.035-.727-5.145-1.615-6.5-1.269-2.465-.847-2.465-.201-.84-1.385-1.867-2.153-2.389-2.153-3.027c0-1.745-8.714-10.106-10.533-10.106-.872 0-1.307-.45-.967-1 .352-.569-.509-1-2-1s-2.352-.431-2-1c.369-.596-.843-1-3-1s-3.369-.404-3-1c.396-.64-2.823-1-8.941-1-5.706 0-9.559.403-9.559 1m-260 5.917c0 1.604-.562 3.12-1.25 3.369-1 .362-1 .876 0 2.57.688 1.164 1.25 3.698 1.25 5.63 0 2.847.379 3.514 2 3.514 1.649 0 2-.667 2-3.8 0-3.558 1.364-6.2 3.2-6.2.44 0 .8 2.25.8 5v5h8v-4c0-3.333.333-4 2-4 1.537 0 2 .667 2 2.878 0 3.056 1.186 4.475 4.618 5.525 2.842.87 8.074-1.111 6.663-2.522-.727-.727-.71-1.933.055-3.96.903-2.392.8-3.213-.571-4.584-2.038-2.038-7.575-2.196-8.929-.254-.757 1.086-1.107 1.125-1.495.167-.31-.762-2.428-1.25-5.424-1.25-4.576 0-6.542-1.231-3.667-2.297.911-.338.766-.97-.536-2.333-1.446-1.513-1.946-1.611-2.625-.513-.585.945-1.046 1.021-1.523.25-.376-.609-2.007-1.107-3.625-1.107-2.582 0-2.941.356-2.941 2.917m35.587 2.252c-1.477 1.726-1.625 2.541-.722 3.986.624 1 1.135 3.399 1.135 5.331 0 3.349.164 3.514 3.5 3.514 1.925 0 3.5-.45 3.5-1s-.675-1-1.5-1c-1.949 0-2.022-5.322-.095-6.921 1.543-1.281 4.595 3.418 4.595 7.075 0 1.384.75 1.846 3 1.846 2.667 0 3-.333 3-3 0-1.65.399-3 .887-3 .922 0 2.097-5.683 1.333-6.447-.752-.752-4.22 1.867-4.22 3.188 0 1.883-1.356 1.52-2.768-.741-.78-1.249-2.332-2-4.133-2-1.642 0-3.133-.646-3.461-1.5-.79-2.06-1.866-1.882-4.051.669M356 316v10h3.917c2.155 0 4.179-.562 4.5-1.25.466-1 .7-1 1.166 0 .788 1.688 17.536 1.731 19.217.05.933-.933 1.2-.933 1.2 0 0 1.62 7.659 1.574 8.417-.05.466-1 .7-1 1.166 0 .415.888 3.745 1.25 11.5 1.25H418v-15.893l-22.645-.067c-21.302-.063-22.746-.185-24.367-2.054-1.395-1.609-2.983-1.986-8.355-1.986H356zm86-7.013c-.825.478-2.33 1.128-3.345 1.446-1.015.317-2.078 1.47-2.364 2.561-.285 1.091-.917 1.737-1.405 1.436-.487-.302-.886.379-.886 1.511 0 1.539-.642 2.059-2.545 2.059-2.185 0-8.327 4.558-7.311 5.425 1.381 1.179 5.07 2.575 6.804 2.575 4.015 0 11.052-5.204 11.052-8.174 0-1.004.477-1.826 1.059-1.826s.803-.414.491-.919.111-1.599.941-2.429c3.119-3.119 1.267-5.843-2.491-3.665m464.75 1.675c.688.278 1.25 1.052 1.25 1.722 0 1.774 2.373 6.599 3.25 6.608.413.004.75.881.75 1.949s.45 2.219 1 2.559 1 3.291 1 6.559V336h10v-12c0-7.779-.372-12-1.059-12-.582 0-.781-.45-.441-1 .395-.64-2.554-.972-8.191-.921-4.845.043-8.246.306-7.559.583m-39.021 5.069c-2.074.216-3.51.815-3.191 1.331s-.347.938-1.479.938-2.059.45-2.059 1-.482 1-1.071 1c-1.594 0-3.929 2.633-3.929 4.429 0 .864-.45 1.571-1 1.571s-1 1.602-1 3.559c0 2.118-.405 3.309-1 2.941-.604-.373-1 .99-1 3.441 0 2.232.45 4.059 1 4.059s1 1.377 1 3.059c0 1.785.417 2.802 1 2.441.55-.34 1-.096 1 .541 0 1.739 6.564 7.959 8.4 7.959.88 0 1.6.45 1.6 1 0 .571 3 1 7 1s7-.429 7-1c0-.55.9-1 2-1s2-.45 2-1 .862-1 1.916-1c1.168 0 2.435-1.172 3.244-3 .731-1.65 1.668-3 2.084-3s.756-1.098.756-2.441.45-2.719 1-3.059 1-2.841 1-5.559-.45-4.941-1-4.941-1-.9-1-2-.45-2-1-2-1-.735-1-1.634c0-1.785-4.795-6.363-6.667-6.365-.641 0-1.316-.385-1.5-.854-.417-1.068-9.086-1.939-14.104-1.416m-223.866 9.26-2.363 2.991-11.309.009c-7.287.006-11.089-.347-10.691-.991.369-.596-.843-1-3-1s-3.369-.404-3-1c.361-.583-.656-1-2.441-1-1.682 0-3.059.257-3.059.571 0 1.96 10.008 7.429 13.595 7.429 1.323 0 2.405.45 2.405 1 0 .572 3.02 1 7.059 1 4.451 0 6.831-.369 6.441-1-.368-.595.823-1 2.941-1 1.957 0 3.559-.45 3.559-1s1.125-1 2.5-1 2.5.477 2.5 1.059c0 1.753 1.774.1 3.409-3.178 2.985-5.982-4.188-8.408-8.546-2.89m-475.757 19.81c-.753 1.408-.653 2.429.374 3.811 1.831 2.464 5.02.735 5.02-2.721 0-3.103-3.895-3.89-5.394-1.09m32.766 105.949c-.843 4.957-.71 5.186 2.018 3.484 1.435-.896 2.822-1.789 3.081-1.986.657-.498-2.203-2.214-3.721-2.233-.687-.008-1.307.322-1.378.735m252.378.746c-.946 1.075-1.246 9.384-1.235 34.212.01 21.541.348 32.277.985 31.292.795-1.23.972-1.122.985.601l.015 2.101 57.691.029c46.227.023 57.952-.231 59-1.28 1.651-1.65 1.956-67.969.309-66.951-.55.34-1 .141-1-.441 0-.72-8.96-1.059-28-1.059-18 0-28 .357-28 1 0 .642 9.667 1 27 1h27v31.941c0 17.568-.375 32.173-.834 32.456-1.677 1.037-68.944 1.205-104.666.261l-6-.158-.264-32.25-.264-32.25h27.014c17.343 0 27.014-.358 27.014-1 0-1.73-55.215-1.248-56.75.496m-238.588 5.942c-.596 1.553 8.209 6.562 11.534 6.562.992 0 1.804.45 1.804 1s.873 1 1.941 1 2.219.45 2.559 1c.817 1.322 2.5 1.282 2.5-.059 0-.582-.562-.774-1.25-.426s-.376-.075.691-.941c1.904-1.544 1.899-1.574-.25-1.574-1.205 0-2.191-.45-2.191-1s-.9-1-2-1-2-.45-2-1-.681-1-1.514-1c-1.468 0-2.53-.418-7.222-2.844-2.939-1.519-3.934-1.458-4.602.282M453.336 463c0 4.125.177 5.813.392 3.75s.216-5.437 0-7.5c-.215-2.062-.392-.375-.392 3.75M458 484.95v29.082l54-.049 54-.049V456h-40c-26 0-40 .35-40 1 0 .55 1.462 1.007 3.25 1.015 2.466.012 2.888.249 1.75.985-.986.637 9.204.975 29.75.985L552 460v50h-80v-50l6.75-.157 6.75-.157-5-.686c-4.393-.602-4.575-.713-1.5-.913 6.881-.447-.084-1.739-10.689-1.983L458 455.868zM200.232 460c0 1.925.206 2.712.457 1.75.252-.962.252-2.538 0-3.5-.251-.962-.457-.175-.457 1.75m75.768-.787c0 .433 1.012.823 2.25.866s1.688.306 1 .583c-1.518.613-1.674 3.338-.191 3.338.582 0 .8-.419.484-.931s-.138-1.201.397-1.532c1.578-.975.065-3.413-2.021-3.256-1.055.08-1.919.499-1.919.932m-10.171 2.016c.638.638 1.587.638 2.727 0 1.477-.827 1.324-.979-.979-.979-1.778 0-2.387.34-1.748.979M284 461c0 .55 1.125 1 2.5 1s2.5-.45 2.5-1-1.125-1-2.5-1-2.5.45-2.5 1m-27 2.005c-.825.488-3.3 1.194-5.5 1.569s-3.435.888-2.744 1.14 1.002.868.691 1.371c-1.184 1.917 6.111.915 7.514-1.031.772-1.071 1.766-1.723 2.21-1.449.443.275.538-.199.211-1.053s-.66-1.526-.739-1.493-.818.458-1.643.946m26.24 2.502c-3.695 4.194 2.178 8.082 8.119 5.375 2.25-1.025 4.072-5.118 2.831-6.358-1.152-1.153-9.749-.381-10.95.983m-82.472 3.928c-.256 1.34-.091 3.027.368 3.75.531.838.839-.045.849-2.435.017-4.287-.535-4.884-1.217-1.315m21.549 2.86c.324 2.362 1.282 5.624 2.13 7.25 1.518 2.912 1.541 2.849 1.547-4.295.006-6.739-.145-7.25-2.13-7.25-1.941 0-2.082.392-1.547 4.295m44.938-3.488c-.685.443-1.346 2.017-1.468 3.499-.281 3.395-1.787 3.559-1.787.194 0-2.507-1.318-3.083-4.374-1.91-3.415 1.31 2.917 5.568 7.635 5.134 3.524-.325 3.859-.523 1.989-1.174-3.931-1.369-2.673-4.189 1.606-3.6 1.799.247.885-2.379-.939-2.699-.779-.137-1.977.114-2.662.556M228 479.3c0 5.9.439 9.739 1.2 10.5.933.933.878 1.201-.25 1.207-.797.003-.175.847 1.383 1.874 1.557 1.027 2.757 2.186 2.666 2.576s.134 1.01.501 1.376c.367.367.517.048.333-.708-.183-.756.292-1.602 1.056-1.88.851-.309 1.119-.067.691.625-.405.655-.043 1.13.861 1.13.857 0 1.559.498 1.559 1.107 0 .641-.736.827-1.75.441-1.261-.48-1.448-.362-.667.426 2.245 2.264 4.417.007 4.417-4.589 0-4.14-.118-4.328-1.984-3.163-3.18 1.986-5.3-.996-5.82-8.192-.422-5.832-.357-6.03 1.984-6.03 1.331 0 2.93.51 3.553 1.133s1.838.862 2.7.531c2.27-.871 1.94-3.664-.433-3.664-1.1 0-2-.45-2-1s-.9-1-2-1-2-.45-2-1-1.35-1-3-1h-3zm18.573-7.63c-.352.919-.087 2.012.589 2.43.677.419 1.532 2.93 1.901 5.58.631 4.538.678 4.396.803-2.43.103-5.594-.184-7.25-1.259-7.25-.766 0-1.681.752-2.034 1.67M722 473c0 .55-.707 1-1.571 1-1.465 0-5.235 2.964-4.679 3.679.738.948.1 3.346-.75 2.821-.604-.373-1 .99-1 3.441 0 2.232-.45 4.059-1 4.059s-1 1.8-1 4-.45 4-1 4-1 1.8-1 4-.45 4-1 4-1 1.8-1 4-.45 4-1 4-1 1.595-1 3.545c0 3.491 3.496 8.455 5.955 8.455.575 0 1.045.45 1.045 1 0 1.31 108.695 1.385 109.167.075.183-.509.997-1.071 1.809-1.25 3.14-.691 4.024-2.724 4.024-9.254 0-3.714-.435-6.571-1-6.571-.55 0-1-1.8-1-4s-.45-4-1-4-1-1.602-1-3.559c0-2.118-.405-3.309-1-2.941-.604.373-1-.99-1-3.441 0-2.232-.45-4.059-1-4.059s-1-1.627-1-3.615c0-2.891-.741-4.294-3.695-7L812.609 472h-45.304c-29.537 0-45.305.348-45.305 1m-268.68 6c0 3.575.182 5.038.403 3.25s.222-4.712 0-6.5c-.221-1.788-.403-.325-.403 3.25M254 527c0 30.016.375 51 .911 51 .501 0 2.058-1.362 3.459-3.028l2.547-3.027-.364-46.449c-.385-49.193-.416-49.496-4.982-49.496-1.408 0-1.571 5.303-1.571 51m13.573-47.479c-1.06.802-1.561 1.8-1.113 2.219s1.015.198 1.26-.49 1.422-1.282 2.613-1.32c4.18-.136 6.586-1.785 2.667-1.828-1.925-.021-4.367.618-5.427 1.419m-67.494 8.894c.089 5.272.515 9.585.947 9.585 1.207 0 1.143-17.777-.066-18.525-.701-.433-.99 2.502-.881 8.94m41.286.085c.003 5.5.171 7.622.373 4.716.203-2.905.201-7.405-.004-10s-.371-.216-.369 5.284M772 485c0 .55-.801 1-1.779 1-.979 0-2.428.9-3.221 2-1.128 1.565-2.589 2-6.721 2-2.903 0-5.279.45-5.279 1s-.482 1-1.071 1c-1.909 0-3.929 2.792-3.929 5.429 0 1.414.45 2.571 1 2.571s1 .707 1 1.571c0 2.226 2.481 4.429 4.988 4.429 1.171 0 1.852.45 1.512 1-.374.605 1.009 1 3.5 1s3.874-.395 3.5-1c-.862-1.394 4.105-1.264 6.398.169 2.19 1.367 7.45-.686 10.559-4.121 1.807-1.997 1.799-2.091-.303-3.914-2.386-2.07-2.834-4.739-.904-5.388 2.25-.757-1.239-3.746-4.372-3.746-1.94 0-2.878-.508-2.878-1.559 0-.879.48-1.263 1.1-.879.773.477.762.049-.035-1.441C773.892 483.93 772 483.238 772 485m-318.608 16c0 7.425.157 10.462.35 6.75s.192-9.788 0-13.5c-.193-3.712-.35-.675-.35 6.75m-204.533-5.75c-.656 1.161-.432 12.896.254 13.32.488.301.887-2.629.887-6.511 0-5.902-.378-8.159-1.141-6.809m-38.789 7.062c.068 2.111.101 2.117.93.188.473-1.1.891-1.405.93-.679.11 2.074 3.07 4.782 3.07 2.809 0-.831-.457-1.795-1.016-2.14s-.815-.954-.57-1.352c.246-.397-.421-.788-1.483-.868-1.382-.104-1.911.476-1.861 2.042m26.263-.856c0 .801.348 1.241.772.979s.912 1.206 1.083 3.263c.237 2.844.957 4.099 3.005 5.244 3.264 1.823 3.823 1.361 4.505-3.729.494-3.679.304-4.065-2.737-5.583-4.049-2.02-6.628-2.087-6.628-.174M220 521c0 .55-2.052 1-4.559 1-2.785 0-4.319.389-3.941 1 .34.55-.309 1-1.441 1-2.966 0-2.533 1.302.947 2.842 1.653.732 2.751 1.742 2.441 2.244s.613.914 2.053.914c1.491 0 2.352.431 2 1-.34.55.309 1 1.441 1s2.059.45 2.059 1 .675 1 1.5 1 1.5.45 1.5 1 .9 1 2 1 2 .45 2 1 .498 1 1.107 1c.654 0 .821-.716.407-1.75-1.267-3.167-3.514-12.309-3.514-14.299 0-1.501-.692-1.951-3-1.951-1.65 0-3 .45-3 1m233.492 2.792c-1.628 1.162-3.492 5.035-3.492 7.253 0 1.14-.45 1.795-1 1.455-.605-.374-1 1.009-1 3.5s-.395 3.874-1 3.5c-.596-.369-1 .843-1 3s-.404 3.369-1 3c-.595-.368-1 .823-1 2.941 0 1.957-.45 3.559-1 3.559s-1 1.35-1 3-.45 3-1 3-1 1.35-1 3-.45 3-1 3-1 .9-1 2c0 1.947.667 2 25.25 2h25.25l.026-5.25c.015-2.888.385-6.425.824-7.86.727-2.381.505-2.672-2.527-3.304-6.535-1.363-17.093-1.609-25.305-.588-6.206.771-9.01.735-10.933-.141-2.466-1.124-3.684-4.857-1.585-4.857.55 0 1-1.35 1-3s.45-3 1-3 1-1.323 1-2.941.45-3.219 1-3.559 1-2.129 1-3.976.563-3.564 1.25-3.816c.848-.311.926-.806.242-1.541-.555-.596-1.455-.765-2-.375m113.935.778c.864.863 1.823 2.776 2.132 4.25s.985 3.461 1.501 4.416c.517.955.94 2.499.94 3.429 0 1.633 1.338 6.408 3.106 11.085.676 1.786.494 2.264-.877 2.317-.951.037-9.604.157-19.229.268-16.425.189-23.147 1.22-20.128 3.086.662.409 1.128 3.563 1.128 7.638V568h24.441c24.178 0 27.514-.445 24.672-3.287-.612-.612-1.113-2.373-1.113-3.913s-.45-2.8-1-2.8-1-1.35-1-3-.45-3-1-3-1-1.575-1-3.5-.45-3.5-1-3.5-1-1.26-1-2.8-.447-3.247-.994-3.794-1.095-2.212-1.218-3.7-.576-2.706-1.006-2.706-.782-.81-.782-1.801c0-3.933-2.405-7.183-5.321-7.191-2.564-.007-2.678.135-1.252 1.562m-366.76 1.097c-.976.975-.815 4.333.208 4.333.481 0 .875-1.125.875-2.5 0-2.706-.078-2.838-1.083-1.833M205 529c0 .55.413 1 .918 1s1.743.286 2.75.635c1.61.557 1.59.44-.168-.969-2.318-1.857-3.5-2.082-3.5-.666m39.686 5.75c-.314 2.612-.199 6.55.256 8.75.696 3.362.846 2.605.943-4.75.128-9.704-.329-11.228-1.199-4m3.103 5.754c-.283 9.792-.336 9.991-2.611 9.745-1.278-.138-2.997-.925-3.82-1.748-1.165-1.165-1.955-1.252-3.563-.392-1.657.887-1.791 1.279-.68 1.983.762.483.935.898.385.923s-.213.504.75 1.065 1.75 1.672 1.75 2.47c0 .797.45 1.45 1 1.45s1-.487 1-1.083.563-.877 1.25-.625 1.112 1.04.944 1.752c-.243 1.023-.001 1.041 1.152.084 1.149-.954 1.57-.937 1.978.08.419 1.044.533 1.041.597-.017.043-.72.529-1.031 1.079-.691s1 .179 1-.358-.562-1.202-1.25-1.48c-1-.403-1-.52 0-.583.91-.058 1.246-2.729 1.235-9.829-.022-13.527-1.819-15.774-2.196-2.746m-18.539 19.158c-.687.278-1.25 1.105-1.25 1.838s-.562 1.56-1.25 1.838c-.687.277-.238.54 1 .583s2.25.604 2.25 1.246c0 .641.293.873.651.515s1.146-.048 1.75.689c.658.801 2.026 1.096 3.406.734l2.308-.605-2.097-2.25c-1.153-1.237-2.964-2.25-4.026-2.25-1.304 0-1.743-.486-1.354-1.5.612-1.593.56-1.624-1.388-.838M698 647.031c0 .533-.645.969-1.433.969-1.847 0-2.679 2.708-1.99 6.477.827 4.526 1.653 4.54 1.27.023l-.34-4 79.246-.256 79.247-.256V732l-42.75.07c-24.792.041-41.91.432-40.75.93 1.1.473 20.742.891 43.649.93l41.65.07.61-12.25c.336-6.737.803-25.497 1.038-41.687.42-28.884.389-29.471-1.663-31.25-1.149-.997-2.359-1.815-2.687-1.816l-77.847-.47c-49.531-.299-77.25-.118-77.25.504M154.167 648.5c.675.675 118.96.706 119.634.032.293-.293-26.618-.532-59.801-.532s-60.108.225-59.833.5m146.833.475 26.5.525.26 44.803c.173 29.793.598 44.594 1.269 44.179.655-.405.988-16.371.951-45.552l-.058-44.93-27.711.225-27.711.225zm-149 52.596c0 43.729.221 51.792 1.451 53.023 2.119 2.119 173.049 2.049 175.17-.073 1.658-1.657 1.954-14.521.335-14.521-.574 0-.911.788-.75 1.75.278 1.656-4.424 1.75-87.137 1.75h-87.431l.067-46.75c.038-26.546-.316-46.75-.819-46.75S152 672.275 152 701.571M700 686v34h152v-33.393c0-29.528-.183-33.463-1.582-34-.87-.334-35.07-.607-76-.607H700zm-542.56-31.903c-.9 1.456-1.616 45.197-.87 53.153.663 7.071 1.844 8.337 4.43 4.75.793-1.1 2.032-2 2.754-2s2.888-1.575 4.813-3.5 3.914-3.5 4.421-3.5 2.046-1.125 3.421-2.5 2.971-2.5 3.546-2.5 1.045-.45 1.045-1 .454-1 1.009-1 2.422-1.35 4.148-3c1.727-1.65 3.748-3 4.491-3 .744 0 1.352-.45 1.352-1 0-1.817 5.51-1.067 6.961.946.772 1.071 1.72 1.751 2.108 1.512.387-.24 2.418 1.134 4.513 3.053s4.215 3.489 4.712 3.489 2.165 1.35 3.706 3 3.522 3 4.401 3c.88 0 1.599.45 1.599 1 0 1.652 2.482 1.132 4.77-1 1.18-1.1 2.64-2 3.244-2 .603 0 3.747-2.7 6.986-6s6.374-6 6.966-6 3.565-2.488 6.606-5.528c3.089-3.09 6.015-5.227 6.632-4.846.667.412.822.225.391-.471-.403-.653-.132-1.155.625-1.155.736 0 1.987-.9 2.78-2s2.017-2 2.721-2c.703 0 1.279-.45 1.279-1s1.125-1 2.5-1 2.5.45 2.5 1 .71 1 1.578 1 3.308 1.8 5.422 4 4.283 4 4.82 4c.538 0 3.275 2.25 6.084 5s5.508 5 6 5c.491 0 3.191 2.25 6 5 2.808 2.75 5.58 5 6.16 5s.733.52.341 1.155c-.424.685-.277.884.363.489.592-.366 3.391 1.589 6.221 4.345s5.544 5.011 6.032 5.011 2.013 1.125 3.388 2.5 2.746 2.5 3.046 2.5.545-14.352.545-31.893c0-28.308-.18-31.962-1.599-32.507-2.831-1.086-164.283-.6-164.961.497M702 658.418c0 6.726.615 7.582 5.446 7.582 3.566 0 4.416-.402 5.393-2.547 2.891-6.343.904-9.453-6.039-9.453H702zm57.25 1.078c-1.741 1.977-1.786 41.568-.05 43.304.77.77 4.711 1.2 11 1.2h9.8v4.571c0 7.661-1.045 7.429 33.429 7.429H844l.109-3.75c.254-8.787.015-39.459-.31-39.784-.195-.196-4.618-.44-9.827-.543-12.145-.24-11.972-.152-11.972-6.101 0-8.099 1.124-7.827-32.179-7.784-24.038.031-29.546.294-30.571 1.458M216 664.933c0 .513-.9 1.218-2 1.567s-2 1.279-2 2.067-.45 1.433-1 1.433-1 2.25-1 5 .398 5 .883 5c.486 0 1.119.9 1.407 2 .318 1.219 1.364 2 2.675 2 1.184 0 1.875.45 1.535 1-.378.611 1.171 1 3.986 1 4.738 0 9.514-3.14 9.514-6.255 0-.74.495-1.84 1.101-2.446 1.18-1.18-.617-7.852-2.64-9.799-3.244-3.124-12.461-5.023-12.461-2.567m486.607 4.649c-.334.87-.607 3.57-.607 6V680h4.571c6.532 0 9.278-4.176 6.348-9.651-1.551-2.899-9.273-3.474-10.312-.767m-7.752 12.624c-.214 6.761-.382 21.069-.372 31.794l.017 19.5 6.75.296c4.218.184 6.75-.097 6.75-.75 0-.611-2.475-1.046-5.946-1.046h-5.945l-.081-30.693c-.084-32.387-.525-39.559-1.173-19.101m-241.105-6.313c-.962.976-1.75 2.525-1.75 3.441s-.45 1.666-1 1.666-1 1.125-1 2.5-.45 2.5-1 2.5-1 .873-1 1.941-.45 2.219-1 2.559-1 1.716-1 3.059-.45 2.441-1 2.441-1 1.35-1 3-.45 3-1 3-1 .9-1 2c0 1.969.667 2 43 2h43v-6.8c0-3.956.502-7.302 1.2-8 1.601-1.601 4.122-1.562 3.212.05-.564 1-.436 1 .641 0 .741-.687 2.832-1.25 4.647-1.25s3.3-.45 3.3-1 2.502-1 5.559-1c3.451 0 5.325.379 4.941 1-.373.603.97 1 3.382 1 2.2 0 4.278-.45 4.618-1 .934-1.511 2.5-1.198 2.5.5 0 .825.45 1.5 1 1.5s1 1.323 1 2.941.45 3.219 1 3.559 1 1.941 1 3.559-.45 2.941-1 2.941-1 .45-1 1c0 .593 3.667 1 9 1 8.989 0 9-.003 9-2.559 0-1.451-.433-2.292-1-1.941-.583.361-1-.656-1-2.441 0-1.682-.45-3.059-1-3.059s-1-1.098-1-2.441-.45-2.719-1-3.059-1-1.491-1-2.559-.45-1.941-1-1.941-.999-.788-.997-1.75c.001-.962-1.01-3.663-2.249-6l-2.251-4.25h-6.951c-5.407 0-6.685.267-5.752 1.2.66.66 1.2 2.46 1.2 4v2.8h-28v-8l-37.25.059c-34.301.055-37.389.2-39 1.834M702 686.418c0 6.643.641 7.582 5.178 7.582 2.181 0 4.608-.643 5.393-1.429 1.619-1.618 1.956-7.571.429-7.571-.55 0-1-.675-1-1.5 0-1.133-1.222-1.5-5-1.5h-5zm-250.342 11.03c-.276.719.003 1.813.62 2.43s.752 1.122.3 1.122c-.453 0-.263.675.422 1.5 2.657 3.201 13 1.269 13-2.429 0-.589.505-1.071 1.122-1.071.792 0 .768-.428-.082-1.452-1.607-1.936-14.645-2.021-15.382-.1m-12.408 14.048c-1.89 2.147-1.737 27.16.179 29.075 1.189 1.19 7.989 1.429 40.633 1.429h39.205l2.365-2.75c2.042-2.373 2.366-3.799 2.367-10.405.001-7.25 2.598-15.499 5.251-16.678 3.938-1.751-4.578-2.162-44-2.129-37.366.032-44.956.272-46 1.458m124.75-.717c0 .429.9 1.428 2 2.221s2 2.216 2 3.162.45 1.998 1 2.338 1.001 4.079 1.001 8.309c.001 6.76.304 8.043 2.5 10.597 1.375 1.598 2.499 3.285 2.499 3.75 0 1.426 8.053.934 9.571-.585C585.665 739.478 586 736.057 586 726s-.335-13.478-1.429-14.571c-1.545-1.546-20.571-2.147-20.571-.65m-118.25 4.91c-5.647 1.476.226 2.311 16.25 2.311 16.289 0 20.902-.672 16.418-2.393-1.795-.689-29.989-.618-32.668.082M444 723c0 .63 6.667 1 18 1s18-.37 18-1-6.667-1-18-1-18 .37-18 1m0 5.853c0 1.656 30.553 3.023 34.418 1.54 4.484-1.721-.129-2.393-16.418-2.393-9.9 0-18 .384-18 .853m281.5 4.188c6.385 1.001 37.201 1.002 40.5.002 1.375-.417-8.3-.764-21.5-.772-15.115-.008-22.149.277-19 .77m-281.5 2.44c0 2.254 3.144 2.617 19.987 2.305 13.822-.255 15.524-.474 15.824-2.036.31-1.615-1.064-1.75-17.738-1.75-15.295 0-18.073.228-18.073 1.481m250 6.09c0 6.794-5.301 6.378 81.739 6.417l78.929.035 1.166-2.558c.641-1.408 1.166-3.663 1.166-5.012V738H694zm-379.96 6.881c-1.581 1.904-.381 5.548 1.827 5.548 3.682 0 5.744-5.168 2.551-6.393-2.338-.897-3.046-.76-4.378.845m449.118 5.414c-.637 2.126-1.158 5.693-1.158 7.927v4.06l8.733.324c13.21.489 19.267-.086 19.267-1.829 0-.806-.45-1.188-1-.848-.631.39-1-1.99-1-6.441V750h-23.683zm-523.908 5.796c-.687.278-1.25 1.622-1.25 2.988 0 3.139 5.243 3.112 5.84-.03.493-2.599-1.807-4.081-4.59-2.958M201 768.99c-.992.648 12.12.985 38.75.995 25.025.009 40.25-.348 40.25-.944 0-1.312-76.993-1.362-79-.051m559.296 1.806c-.662.421 5.48.894 13.649 1.053 9.752.188 15.08-.08 15.513-.781.775-1.254-27.207-1.515-29.162-.272m124.954 96.7c-1.962 2.228-1.793 75.104.179 77.075 2.125 2.126 75.017 2.126 77.142 0s2.126-75.017 0-77.142c-2.117-2.118-75.454-2.054-77.321.067m-238 4.278c-2.061.224-3.25.9-3.25 1.848 0 .823-.391 1.254-.869.959s-.951 3.503-1.051 8.441c-.171 8.444-.059 8.978 1.869 8.978 1.128 0 1.998-.337 1.933-.75-.066-.413-.066-3.94 0-7.839.109-6.574.303-7.174 2.665-8.25 3.99-1.818 40.169-1.588 42.024.268 1.922 1.921 2.136 59.464.229 61.371-.855.855-7.06 1.2-21.571 1.2-23.939 0-23.278.268-23.353-9.465-.044-5.813-.267-6.535-2.015-6.535-1.805 0-1.949.649-1.773 7.972.106 4.385.532 7.763.947 7.506.416-.257 1.013.206 1.329 1.028.315.822 1.289 1.494 2.164 1.494.874 0 1.312.45.972 1-.965 1.562 40.411 1.325 43.753-.25 4.478-2.111 4.747-4.07 4.747-34.598 0-33.427-.043-33.635-7.165-34.579-4.683-.622-35.376-.473-41.585.201m106.136-.095c-5.111.702-5.386 2.456-5.386 34.321 0 29.965.487 34 4.101 34 .98 0 2.059.45 2.399 1 .379.614 8.51 1 21.059 1 12.961 0 20.441-.366 20.441-1 0-.55.689-1 1.531-1 .843 0 1.79-.672 2.105-1.494.316-.822.911-1.286 1.324-1.031.885.547 1.416-14.058.561-15.441-1.76-2.848-3.521.474-3.521 6.644 0 9.734.746 9.45-23.968 9.111-13.366-.184-21.177.076-21.427.711-.215.55-.45-13.211-.522-30.579l-.129-31.579 2.652-1.208c3.914-1.784 40.213-1.458 42.048.377.828.829 1.346 3.649 1.346 7.336 0 6.894.643 9.153 2.607 9.153 1.081 0 1.386-1.85 1.361-8.25-.049-12.802 1.08-12.226-24.26-12.374-11.664-.069-22.609.068-24.322.303M69.25 881.54c-1.787 1.872-3.25 4.118-3.25 4.991s-.45 1.309-1 .969-1-.016-1 .72-.9 1.987-2 2.78-2 2.077-2 2.853-.829 2.14-1.843 3.03c-1.013.889-1.838 2.405-1.833 3.367.009 1.65 3.957 1.75 68.843 1.75H194v-2.559c0-1.451-.433-2.292-1-1.941-.55.34-1-.017-1-.793s-1.35-2.823-3-4.55-3-3.597-3-4.157-1.35-2.431-3-4.157c-1.65-1.727-3-3.748-3-4.491 0-1.12-9.226-1.34-53.75-1.283l-53.75.068zm182.135-2.189c-.613.701-1.696 2.372-2.407 3.712-.71 1.34-2.009 3.112-2.885 3.937s-1.734 2.147-1.905 2.937-1.176 2.186-2.232 3.101c-2.121 1.839-1.635 2.962 1.282 2.962 2.31 0 4.762-2.281 4.762-4.429 0-.864.374-1.571.831-1.571s1.47-1.237 2.25-2.75 1.986-3.349 2.678-4.081c.693-.731 1.004-1.744.691-2.25-.312-.505-.091-.919.491-.919s1.059-.45 1.059-1c0-1.42-3.285-1.17-4.615.351m13.31 1.859c-.855 1.765-1.291 3.634-.97 4.154s.064.624-.57.231c-.756-.466-1.155.152-1.155 1.787 0 1.375.45 2.778 1 3.118s1-.084 1-.941.45-1.559 1-1.559 1-1.152 1-2.559c0-1.68.397-2.314 1.155-1.846.689.426.884.276.483-.371-.369-.597-.233-1.356.302-1.687 1.065-.658.314-3.537-.922-3.537-.423 0-1.468 1.444-2.323 3.21m14.226-.46c-.78 1.513-1.754 3-2.165 3.306-.41.306-.844 1.736-.963 3.178-.12 1.442-.476 2.462-.793 2.266-.678-.419-3.408 5.425-2.813 6.02.379.379 24.103.604 54.563.518 12.378-.036 13.25-.164 13.25-1.955 0-1.054-.47-2.073-1.044-2.264-.575-.192-1.116-1.467-1.203-2.834s-.967-3.213-1.956-4.102c-.988-.89-1.797-2.802-1.797-4.25V878h-53.662zm65.276.25c.126 1.65.528 3 .894 3 .367 0 1.226 1.35 1.909 3s1.638 3 2.121 3 .879 1.35.879 3c0 1.898.512 3 1.393 3 1.637 0 3.064-3.077 1.818-3.92-.923-.625-2.331-3.665-2.808-6.062-.162-.815-.769-1.64-1.349-1.833-.579-.193-1.054-1.021-1.054-1.84 0-1.459-2.287-4.345-3.444-4.345-.323 0-.485 1.35-.359 3m13.974-.25c.172 1.513 1.104 3.478 2.071 4.367.967.89 1.758 2.352 1.758 3.25s.34 1.633.756 1.633 1.353 1.35 2.084 3c1.493 3.374 7.16 4.515 7.16 1.441 0-.857-.45-1.281-1-.941s-1-.104-1-.986c0-.883-1.125-2.73-2.5-4.105s-2.5-2.882-2.5-3.349c0-1.029-5.53-7.06-6.473-7.06-.368 0-.529 1.237-.356 2.75M921.5 887c-.34.55-1.524 1-2.63 1-3.024 0-4.87 2.437-4.87 6.429 0 2.554.44 3.571 1.545 3.571 1.82 0 6.61-4.511 5.728-5.394-.334-.333.389-.606 1.606-.606 2.582 0 8.231 5.13 6.343 5.759-.672.224-1.222 1.041-1.222 1.816 0 .774-1.237 2.649-2.75 4.166-5.658 5.676-6.854 10.259-2.679 10.259 2.692 0 5.429-2.03 5.429-4.027 0-.644 1.239-2.364 2.753-3.822 3.254-3.133 6.148-10.351 4.385-10.938-.626-.209-1.138-1.467-1.138-2.796 0-1.522-.577-2.417-1.559-2.417-.857 0-1.281-.45-.941-1 .351-.567-.49-1-1.941-1-1.407 0-2.559-.45-2.559-1s-1.098-1-2.441-1-2.719.45-3.059 1M260 891.559c0 .857-.45 1.281-1 .941s-1 .309-1 1.441c0 2.426.623 2.579 2.571.63 1.639-1.638 1.914-4.571.429-4.571-.55 0-1 .702-1 1.559m161.193-.292c-.81.976 14.651 1.182 74.142.99 41.341-.134 76.204-.247 77.474-.25s2.033-.453 1.696-.998c-.975-1.579-151.998-1.324-153.312.258m-182.645 9.655c-.345.559 25.908.941 66.691.97 43.085.031 66.722-.295 65.761-.906-1.981-1.262-131.673-1.324-132.452-.064M53.25 905.496c-.845.959-1.25 5.136-1.25 12.882v11.463l2.954.649c1.625.357 6.238.55 10.25.428 4.013-.121 9.546.062 12.296.407 3.41.427 4.205.348 2.5-.249-2.389-.838-2.352-.881.809-.976 1.82-.055 3.05.319 2.734.83-.707 1.145 110.166.798 112.707-.352.962-.436 1.75-1.419 1.75-2.185s.445-1.393.989-1.393.895-1.125.782-2.5c-.114-1.375-.559-2.5-.989-2.5s-.782-2.277-.782-5.059c0-3.118.384-4.822 1-4.441.55.34 1-.282 1-1.382s-.45-2.278-1-2.618-1-1.491-1-2.559c0-1.904-1.381-1.94-71.75-1.903-60.688.032-71.943.257-73 1.458m179.991.49c-1.692 2.709-1.684 20.719.009 22.391 2.805 2.771 7.96 2.996 73.649 3.227 58.234.204 68.612.027 69.831-1.191.787-.787 1.766-1.225 2.175-.972 1.458.901 1.068-22.611-.399-24.078-1.125-1.125-13.814-1.363-72.694-1.363-70.085 0-71.353.035-72.571 1.986M358 910v4h-4c-3.564 0-4 .264-4 2.418 0 4.343 1.023 5.582 4.607 5.582 3.292 0 3.393-.119 3.393-4 0-3.63.238-4 2.571-4 2.677 0 5.429-2.027 5.429-4s-2.752-4-5.429-4c-2.333 0-2.571.37-2.571 4m-62.75-2.224-15.25.276v8.774c0 5.491.449 9.223 1.2 9.974.867.867 7.91 1.2 25.393 1.2 27.9 0 25.407 1.137 25.407-11.582V908l-4.25-.083c-2.337-.045-7.175-.158-10.75-.25s-13.363-.043-21.75.109m-163.5 1.427-3.75.996v6.778c0 9.057.328 9.268 14.773 9.472 18.545.262 20.841-.103 22.266-3.543 1.423-3.436 2.036-3.576 3.961-.906 1.94 2.691 9.786 2.876 10.615.25.774-2.453 2.549-6.116 1.978-4.081-1.295 4.615 9.204 8.177 12.978 4.402 1.781-1.78 1.801-6.498.037-8.821-1.956-2.576-9.691-2.41-11.608.25-1.673 2.322-3 2.596-3 .621 0-4.197-10.512-3.987-12.993.26-.813 1.391-.95 1.328-.977-.451-.074-5.051-3.976-6.439-17.788-6.327-7.008.057-14.429.552-16.492 1.1m205.45-.003c-2.377 2.377-1.485 6.8 1.371 6.8 4.436 0 5.902-2.441 3.278-5.458-2.507-2.884-2.973-3.018-4.649-1.342m-196.95.528c2.063.216 5.438.216 7.5 0 2.063-.215.375-.392-3.75-.392s-5.812.177-3.75.392m-77.957 1.408c-7.717.941-9.94 4.156-7.132 10.317l1.16 2.547h33.411c36.983 0 36.268.126 36.268-6.406 0-6.696-1.486-7.025-31.907-7.062-14.626-.017-28.936.254-31.8.604m176.957 2.36c-1.689 1.919-1.583 7.314.179 9.075.785.786 2.842 1.429 4.571 1.429s3.786-.643 4.571-1.429c1.616-1.615 2.011-9.049.429-8.071-.55.34-1-.084-1-.941 0-2.034-6.97-2.084-8.75-.063m125.917 2.089c-1.026 1.161-1.064 1.834-.164 2.918 1.615 1.946.327 3.61-2.314 2.991-3.344-.785-4.879.783-4.513 4.611.252 2.639.826 3.466 2.576 3.715 2.89.41 5.465-2.165 5.062-5.063-.257-1.847.179-2.275 2.403-2.357 4.88-.181 7.495-4.288 4.583-7.2-1.658-1.658-6.023-1.437-7.633.385M252 918c0 2.06 2.99 2.709 6.418 1.393 3.242-1.244 1.71-3.393-2.418-3.393-3.333 0-4 .333-4 2m9.481-.969c-1.093 1.769.97 3.16 4.147 2.797 4.02-.459 3.803-3.238-.284-3.634-1.736-.169-3.474.208-3.863.837M921.2 919.2c-1.642 1.642-1.505 3.638.378 5.521 1.437 1.437 1.807 1.348 4.149-.994s2.431-2.712.994-4.149c-1.883-1.883-3.879-2.02-5.521-.378M336 922.759c0 4.341 3.204 5.742 5.938 2.598 2.667-3.068 1.36-5.357-3.06-5.357-2.475 0-2.878.386-2.878 2.759m613.603 4.741c-1.044.79-2.351 1.156-2.905.813s-.717-.153-.364.419c.354.573-.026 1.597-.845 2.277-1.656 1.375-2.061 7.991-.489 7.991.55 0 1 .675 1 1.5 0 .833.889 1.5 2 1.5 1.1 0 2 .45 2 1 0 2.073 5.18.531 8.589-2.557 1.891-1.712 2.513-6.739 1.159-9.364-1.904-3.693-3.748-3.773-3.748-.162 0 1.695.45 3.083 1 3.083 1.485 0 1.21 2.933-.429 4.571-3.247 3.248-8.571.764-8.571-4 0-3.095 1.065-3.298 2.792-.532 1.862 2.981 3.208 1.472 3.208-3.598 0-4.758-1.06-5.467-4.397-2.941"/></svg>