<svg xmlns="http://www.w3.org/2000/svg" viewBox="0 0 1024 1024"><path fill="#00e5cc" d="M288 221c0 .55-1.35 1-3 1s-3 .45-3 1-.9 1-2 1-2 .45-2 1-.675 1-1.5 1-1.5.45-1.5 1-.495 1-1.099 1c-1.526 0-9.901 9.016-9.901 10.659 0 .738-.45 1.341-1 1.341s-1 .873-1 1.941-.45 2.219-1 2.559-1 2.166-1 4.059-.45 3.441-1 3.441c-.664 0-1 72-1 214s.336 214 1 214c.55 0 1 1.307 1 2.905C260 686 263.782 694 265.245 694c.48 0 .625.401.322.892-.672 1.086 9.27 11.108 11.02 11.108.685 0 1.396.416 1.58.925.183.509 1.008 1.071 1.833 1.25s1.725.616 2 .972 1.625.806 3 1 2.756.698 3.069 1.12c.314.421 100.795.755 223.292.742 224.234-.025 230.639-.117 230.639-3.311 0-.449.414-.56.919-.248s1.599-.111 2.429-.941 1.966-1.509 2.525-1.509c1.563 0 11.169-10.123 10.553-11.12-.299-.484-.151-.88.329-.88 1.21 0 5.245-7.765 5.245-10.095 0-1.048.45-1.905 1-1.905 1.386 0 1.386-430.643 0-431.5-.55-.34-1-1.69-1-3s-.45-2.66-1-3-1-1.491-1-2.559-.45-1.941-1-1.941-1-.646-1-1.435c0-1.868-10.697-12.565-12.565-12.565-.789 0-1.435-.45-1.435-1s-.9-1-2-1-2-.45-2-1-.873-1-1.941-1-2.219-.45-2.559-1c-.409-.662-76.51-1-225.059-1C363.48 220 288 220.336 288 221m219.5 50c-.34.55-2.166 1-4.059 1s-3.441.45-3.441 1-1.323 1-2.941 1-3.219.45-3.559 1-2.166 1-4.059 1-3.441.45-3.441 1-1.323 1-2.941 1-3.219.45-3.559 1-1.498 1-2.573 1c-2.037 0-5.187 1.504-8.177 3.905-.962.773-1.75 1.09-1.75.705s-1.125.424-2.5 1.799-2.5 2.997-2.5 3.605c0 .607-.52.783-1.155.391-.684-.423-.884-.277-.49.36.365.591.097 1.69-.596 2.443-1.962 2.134-3.759 5.613-3.759 7.278 0 .833-.45 1.514-1 1.514s-1 1.485-1 3.3-.404 3.727-.898 4.25c-.493.522-1.182 2.975-1.529 5.45-.348 2.475-1.095 7.65-1.659 11.5-1.48 10.089-2.796 29.206-3.494 50.75l-.607 18.75h-3.907c-2.148 0-3.906.45-3.906 1s-1.323 1-2.941 1-3.219.45-3.559 1-1.69 1-3 1-2.66.45-3 1-1.716 1-3.059 1-2.441.45-2.441 1-.9 1-2 1-2 .45-2 1-.9 1-2 1-2 .45-2 1-.9 1-2 1-2 .45-2 1-.9 1-2 1-2 .374-2 .831-1.231 1.47-2.736 2.25-3.715 2.253-4.911 3.272-2.549 1.919-3.007 2-2.778 1.947-5.155 4.147-4.415 3.775-4.528 3.5c-.283-.686-11.663 10.764-11.663 11.734 0 .427-1.687 2.585-3.75 4.794s-4.389 5.245-5.169 6.745-1.793 2.727-2.25 2.727-.831.702-.831 1.559c0 .924-.47 1.268-1.155.846-.684-.423-.884-.277-.49.36.365.591.09 1.673-.61 2.404-1.685 1.76-9.764 17.98-9.753 19.581.004.688-.442 1.25-.992 1.25s-1 1.35-1 3-.401 3-.891 3c-.489 0-1.132 1.462-1.427 3.25s-1.054 5.275-1.686 7.75c-2.52 9.874-3.25 17.172-3.203 32 .057 17.648.954 29 2.292 29 .503 0 .915 1.8.915 4s.45 4 1 4 1 1.323 1 2.941.45 3.219 1 3.559 1 1.716 1 3.059.45 2.441 1 2.441 1 .873 1 1.941.45 2.219 1 2.559 1 1.716 1 3.059.45 2.441 1 2.441 1 .9 1 2 .45 2 1 2 1 .675 1 1.5.45 1.5 1 1.5 1 .62 1 1.378.67 1.933 1.489 2.613 1.242 1.635.941 2.122c-.301.488-.148.887.342.887s1.529 1.237 2.309 2.75 2.207 3.622 3.169 4.689c.962 1.066 1.75 2.555 1.75 3.309 0 .753.45 1.092 1 .752s1-.136 1 .454c0 1.203 18.546 20.043 19.737 20.051.42.002 2.113 1.24 3.763 2.75s4.238 3.384 5.75 4.164 2.75 1.793 2.75 2.25.59.831 1.311.831c.722 0 2.278.9 3.459 2 1.18 1.1 2.84 2 3.688 2s1.542.45 1.542 1 .9 1 2 1 2 .45 2 1 .9 1 2 1 2 .45 2 1 1.098 1 2.441 1 2.664.361 2.937.802 2.774 1.422 5.559 2.181c2.784.758 5.063 1.702 5.063 2.097s1.913.962 4.25 1.261 6.725 1.088 9.75 1.756c7.231 1.596 42.689 1.608 50 .017 3.025-.659 6.967-1.453 8.759-1.766s3.507-.969 3.809-1.458c.303-.49 1.622-.89 2.932-.89s2.66-.45 3-1 1.716-1 3.059-1 2.441-.45 2.441-1 .563-.996 1.25-.992c1.582.011 18.135-8.228 18.583-9.249.184-.417.996-.759 1.805-.759s2.909-1.348 4.666-2.995 3.545-2.998 3.973-3c.427-.003 2.227-1.325 4-2.938 1.772-1.613 3.673-3.068 4.223-3.232 1.366-.407 13.5-12.606 13.5-13.572 0-.426 1.688-2.582 3.75-4.791s4.389-5.245 5.169-6.745 1.793-2.727 2.25-2.727.831-.59.831-1.311c0-.722.788-2.202 1.75-3.289s1.896-2.636 2.075-3.439c.179-.804.741-1.611 1.25-1.794s.925-1.196.925-2.25.45-1.917 1-1.917 1-.9 1-2 .45-2 1-2 1-.9 1-2 .45-2 1-2 1-1.098 1-2.441.45-2.719 1-3.059 1-1.69 1-3 .45-2.66 1-3 1-1.626 1-2.859.404-2.669.898-3.191c.493-.523 1.186-2.975 1.539-5.45 1.402-9.836 2.671-20.926 3.35-29.269.672-8.265.873-8.852 3.496-10.208 1.531-.791 2.539-1.044 2.241-.561-.298.482.137 1.556.967 2.386s1.509 2.216 1.509 3.081.45 1.571 1 1.571 1 .9 1 2 .45 2 1 2 1 .9 1 2 .45 2 1 2 1 .9 1 2 .45 2 1 2 1 .675 1 1.5.34 1.5.756 1.5 1.4 1.462 2.188 3.25 1.991 3.813 2.673 4.5c1.478 1.49 8.003 1.674 8.883.25.34-.55 1.491-1 2.559-1s1.941-.366 1.941-.813c0-.448 1.575-1.432 3.5-2.187s3.5-1.739 3.5-2.187.9-.813 2-.813 2-.45 2-1 .9-1 2-1 2-.45 2-1 .9-1 2-1 2-.45 2-1 .9-1 2-1 2-.45 2-1 .9-1 2-1 2-.45 2-1 .9-1 2-1 2-.379 2-.843 2.138-1.923 4.75-3.244 5.224-2.854 5.804-3.407c1.182-1.129 1.587-8.506.466-8.506-.396 0-2.249-3.038-4.116-6.75s-3.735-6.9-4.15-7.083c-.415-.184-.754-1.196-.754-2.25s-.45-1.917-1-1.917-1-.624-1-1.386-.659-2.657-1.466-4.21c-1.412-2.724-1.341-2.939 2-5.999 2.489-2.28 3.466-4.026 3.466-6.195 0-2.893-3.686-11.348-5.25-12.043-.413-.184-.75-1.159-.75-2.167s-.416-1.983-.925-2.167-1.071-1.008-1.25-1.833-.626-1.729-.995-2.009c-.368-.281-.818-1.17-1-1.977-.181-.806-.897-2.076-1.589-2.821-.693-.745-1.004-1.768-.691-2.274.312-.505.157-.919-.346-.919s-2.888-3.937-5.3-8.75c-2.412-4.812-4.727-8.9-5.145-9.083-.417-.184-.759-1.196-.759-2.25s-.45-1.917-1-1.917-1-.707-1-1.571c0-.865-.679-2.251-1.509-3.081s-1.254-1.923-.941-2.429c.312-.505.091-.919-.491-.919s-1.059-.863-1.059-1.917-.416-2.066-.925-2.25c-.509-.183-1.071-.99-1.25-1.794-.179-.803-1.113-2.351-2.075-3.439-.962-1.087-1.75-2.495-1.75-3.128 0-2.545-9.127-4.694-10.5-2.472-1.654 2.676-4.445.807-7.095-4.75-3.495-7.33-6.12-10.25-9.212-10.25-2.573 0-6.542-3.627-5.613-5.129.296-.479.061-.871-.521-.871s-1.059-.707-1.059-1.571c0-.865-.679-2.251-1.509-3.081s-1.254-1.923-.941-2.429c.312-.505.091-.919-.491-.919s-1.059-.9-1.059-2-.383-2-.85-2c-.468 0-2.379-3.038-4.246-6.75s-3.735-6.9-4.15-7.083c-.415-.184-.754-1.159-.754-2.167s-.416-1.983-.925-2.167-1.071-1.008-1.25-1.833-.626-1.729-.995-2.009c-.368-.281-.818-1.17-1-1.977-.181-.806-.897-2.076-1.589-2.821-.693-.745-1.004-1.768-.691-2.274.312-.505.162-.919-.334-.919s-1.982-2.137-3.303-4.75-2.971-5.349-3.666-6.081c-.696-.731-1.01-1.744-.697-2.25.312-.505.143-.919-.377-.919s-1.683-1.556-2.586-3.458c-.902-1.901-2.086-3.732-2.63-4.069s-.731-1.03-.414-1.542c.316-.512.175-.931-.315-.931s-1.529-1.231-2.309-2.736-2.253-3.715-3.272-4.911-1.794-2.451-1.723-2.789c.072-.338-1.23-2.066-2.892-3.839-1.663-1.774-3.025-3.55-3.027-3.948s-1.786-2.648-3.963-5-3.969-4.622-3.983-5.044c-.034-1.021-6.777-7.732-7.776-7.738-.431-.002-2.221-1.352-3.979-3-1.757-1.647-3.696-2.995-4.309-2.995-.612 0-.792-.52-.4-1.155.423-.684.277-.884-.36-.49-.591.365-1.785-.048-2.654-.917-.87-.87-1.581-1.312-1.581-.984s-1.328-.089-2.95-.928c-3.382-1.749-19.539-2.162-20.55-.526m-5.937 42.75c-2.019 18.662-2.717 30.472-3.161 53.524-.554 28.743-.558 28.726 6.027 28.726 1.964 0 3.571.45 3.571 1s1.323 1 2.941 1 3.219.45 3.559 1 1.716 1 3.059 1 2.441.45 2.441 1 .873 1 1.941 1 2.219.45 2.559 1 1.716 1 3.059 1 2.441.45 2.441 1 .9 1 2 1 2 .45 2 1 .9 1 2 1 2 .374 2 .831 1.237 1.45 2.75 2.207 3.538 2.027 4.5 2.824 1.75 1.149 1.75.784 1.417.691 3.148 2.345S553.7 420 554.194 420s4.516 3.488 8.938 7.75c8.29 7.99 10.099 9.007 10.678 6 .185-.962-.146-1.75-.737-1.75-.59 0-1.073-.9-1.073-2s-.45-2-1-2-1-.863-1-1.917-.505-2.085-1.123-2.291c-1.729-.576-1.616-8.697.139-9.914 1.12-.777 1.177-1.155.234-1.537-.687-.279-1.25-1.37-1.25-2.424s-.45-1.917-1-1.917-1-.9-1-2-.45-2-1-2-1-.9-1-2-.45-2-1-2-1-.9-1-2-.45-2-1-2-1-.9-1-2-.45-2-1-2-1-.9-1-2-.45-2-1-2-1-.9-1-2-.45-2-1-2-1-.863-1-1.917-.339-2.066-.754-2.25c-.415-.183-2.283-3.371-4.15-7.083s-3.778-6.75-4.246-6.75c-.467 0-.85-.9-.85-2s-.45-2-1-2-1-.863-1-1.917-.337-2.066-.75-2.25c-.413-.183-1.833-2.47-3.157-5.083s-2.787-4.75-3.25-4.75-.843-.801-.843-1.779c0-.979-.9-2.428-2-3.221s-2-2.242-2-3.221c0-.978-.45-1.779-1-1.779s-1-.608-1-1.352c0-.743-1.461-2.881-3.248-4.75-1.786-1.869-3.023-3.474-2.75-3.568s-.515-1.334-1.752-2.757-2.25-3.061-2.25-3.64c0-.578-.45-.773-1-.433s-1-.093-1-.963c0-1.97-10.439-12.537-12.386-12.537-1.001 0-1.615 1.722-2.051 5.75m-47.036 87.207c-.355.574-2.868 1.043-5.586 1.043s-4.941.45-4.941 1-1.548 1-3.441 1-3.719.45-4.059 1-1.69 1-3 1-2.66.45-3 1-1.69 1-3 1-2.66.45-3 1-1.491 1-2.559 1-1.941.45-1.941 1-.9 1-2 1-2 .45-2 1-.9 1-2 1-2 .366-2 .813c0 .448-1.575 1.432-3.5 2.187s-3.5 1.739-3.5 2.187-.675.813-1.5.813-1.5.45-1.5 1-.562 1.002-1.25 1.005-2.688 1.352-4.446 3-3.567 2.995-4.022 2.995c-.454 0-4.631 3.825-9.282 8.5s-8.129 8.5-7.729 8.5-1.073 1.854-3.272 4.121c-2.199 2.266-3.999 4.741-3.999 5.5 0 .758-.374 1.379-.831 1.379s-1.47 1.238-2.25 2.75-1.986 3.349-2.678 4.081c-.693.731-1.004 1.744-.691 2.25.312.505.091.919-.491.919s-1.059.9-1.059 2-.45 2-1 2-1 .9-1 2-.45 2-1 2-1 .873-1 1.941-.45 2.219-1 2.559-1 1.716-1 3.059-.45 2.441-1 2.441-1 1.35-1 3-.45 3-1 3-1 1.323-1 2.941-.45 3.219-1 3.559-1 2.59-1 5-.45 4.66-1 5c-.614.379-1 8.51-1 21.059 0 12.961.366 20.441 1 20.441.55 0 1 2.25 1 5s.45 5 1 5 1 .953 1 2.119c0 2.624 4.219 15.258 5.248 15.714.414.184.752 1.15.752 2.149 0 2.075 5.623 13.167 7.155 14.114.559.345.865.879.68 1.186s.577 1.606 1.691 2.888 2.143 2.78 2.287 3.33 1.144 2.016 2.224 3.258 1.963 2.673 1.963 3.181c0 1.193 22.13 23.264 22.728 22.667.248-.249 1.828.863 3.51 2.471s3.629 2.923 4.327 2.923 1.418.416 1.602.925c.183.509.99 1.071 1.794 1.25.803.179 2.351 1.113 3.439 2.075 1.087.962 2.567 1.75 3.289 1.75.721 0 1.311.45 1.311 1s.661 1 1.47 1 3.072.9 5.03 2 4.447 2 5.53 2 1.97.34 1.97.757c0 .914 7.168 3.243 9.984 3.243 1.109 0 2.016.405 2.016.899 0 .893 1.175 1.099 18.5 3.242 13.167 1.629 36.774.843 38.078-1.267.297-.481 1.719-.874 3.16-.874 2.678 0 8.386-1.55 11.498-3.123.955-.482 2.616-.877 3.691-.877s2.233-.45 2.573-1 1.491-1 2.559-1 1.941-.45 1.941-1 .857-1 1.905-1c2.33 0 10.095-4.035 10.095-5.245 0-.48.414-.617.919-.305.506.313 1.519.002 2.25-.691.732-.692 2.568-1.898 4.081-2.678s2.75-1.793 2.75-2.25.608-.831 1.352-.831c.743 0 2.656-1.246 4.25-2.77 1.594-1.523 3.294-2.814 3.779-2.868C554.59 626.227 572 608.908 572 607.84c0-.472 1.35-2.271 3-3.997 1.65-1.727 3-3.748 3-4.491 0-.744.45-1.352 1-1.352s1-.927 1-2.059.374-1.828.831-1.545c.457.282 1.441-1.041 2.187-2.941s1.721-3.455 2.169-3.455.813-.9.813-2 .45-2 1-2 1-.9 1-2 .45-2 1-2 1-.873 1-1.941.45-2.219 1-2.559 1-1.716 1-3.059.45-2.441 1-2.441 1-1.323 1-2.941.45-3.219 1-3.559 1-2.076 1-3.859.406-3.669.903-4.191c3.209-3.376 3.213-53.543.005-56.9-.499-.522-.908-2.21-.908-3.75s-.45-2.8-1-2.8-1-1.575-1-3.5-.45-3.5-1-3.5-1-1.125-1-2.5-.45-2.5-1-2.5-1-.813-1-1.807c0-2.426-6.54-15.32-7.356-14.504-.354.354-.644-.331-.644-1.522s-.45-2.167-1-2.167-1-.59-1-1.311c0-.722-.9-2.278-2-3.459-1.1-1.18-2-2.642-2-3.247 0-.606-.45-.823-1-.483s-1-.038-1-.84-2.138-3.68-4.75-6.397-5.23-5.771-5.817-6.785-1.918-2.324-2.959-2.911c-1.04-.587-3.562-2.754-5.604-4.817-2.042-2.062-4.198-3.75-4.792-3.75s-1.078-.45-1.078-1-.469-1-1.042-1-2.008-.9-3.188-2-2.737-2-3.459-2c-.721 0-1.311-.45-1.311-1s-.927-1-2.059-1-1.828-.374-1.545-.831c.282-.457-1.041-1.441-2.941-2.187S530 413.261 530 412.813s-.873-.813-1.941-.813-2.219-.45-2.559-1-1.716-1-3.059-1-2.441-.45-2.441-1-.873-1-1.941-1-2.219-.45-2.559-1-1.69-1-3-1-2.66-.45-3-1-2.076-1-3.859-1-3.669-.406-4.191-.903c-2.334-2.219-45.654-4.194-46.923-2.14M457.5 463c-.34.55-1.69 1-3 1s-2.66.45-3 1-1.716 1-3.059 1-2.441.45-2.441 1-.9 1-2 1-2 .45-2 1-.672 1-1.492 1c-.821 0-2.581.946-3.911 2.103-1.33 1.156-2.688 2.052-3.017 1.99-.844-.157-13.58 12.691-13.58 13.7 0 .456-.788 1.703-1.75 2.769-2.242 2.485-6.25 10.201-6.25 12.033 0 .773-.45 1.405-1 1.405s-1 1.35-1 3-.45 3-1 3-1 1.935-1 4.3-.489 4.789-1.087 5.387c-1.245 1.245-.704 11.806 1.042 20.313.62 3.025 1.383 6.959 1.695 8.742s.968 2.994 1.458 2.691c.491-.303.892.601.892 2.008s.45 2.559 1 2.559 1 .9 1 2 .374 2 .831 2 1.47 1.237 2.25 2.75 2.207 3.622 3.169 4.689c.962 1.066 1.75 2.528 1.75 3.25 0 .721.563 1.198 1.25 1.061.688-.138 1.138.312 1 1s.313 1.137 1 1c.688-.138 1.138.312 1 1s.143 1.137.624 1c.481-.138 2.394 1.1 4.25 2.75 1.857 1.65 4.614 3.639 6.126 4.419s2.75 1.819 2.75 2.309.414.634.919.322c.506-.313 1.529-.002 2.274.691.745.692 2.019 1.405 2.831 1.584s1.626.741 1.809 1.25 1.646.925 3.25.925 2.917.405 2.917.899c0 1.871 26.564 3.937 28.3 2.201.605-.605 2.558-1.1 4.341-1.1s3.519-.45 3.859-1 1.69-1 3-1 2.66-.45 3-1 1.716-1 3.059-1 2.441-.45 2.441-1 .9-1 2-1 2-.374 2-.831 1.238-1.461 2.75-2.232c2.847-1.45 20.087-17.937 18.756-17.937-.413 0-.175-.694.529-1.542 1.87-2.254 5.965-10.579 5.965-12.127 0-.732.401-1.331.891-1.331 3.324 0 3.323-42.514-.001-44.568-.49-.303-.89-1.648-.89-2.991s-.45-2.441-1-2.441-1-.9-1-2-.45-2-1-2-1-.927-1-2.059-.45-1.781-1-1.441-1-.084-1-.941-.374-1.559-.831-1.559-1.47-1.234-2.25-2.743c-1.552-3-7.384-9.254-8.636-9.262-.43-.002-2.133-1.24-3.783-2.75s-4.238-3.384-5.75-4.164-2.75-1.793-2.75-2.25-.9-.831-2-.831-2-.45-2-1-1.098-1-2.441-1-2.719-.45-3.059-1-1.941-1-3.559-1-2.941-.45-2.941-1c0-.622-5.647-1-14.941-1-8.882 0-15.192.406-15.559 1"/></svg>