<svg xmlns="http://www.w3.org/2000/svg" viewBox="0 0 1024 1024"><path fill="#00e5cc" d="M178.25 286.525c-1.238 1.322-2.257 3.207-2.265 4.189-.013 1.519-.161 1.562-.985.286-.628-.971-.975 71.578-.985 205.75-.01 137.51.322 207.25.985 207.25.55 0 .896.337.768.75s.647 1.763 1.722 3c1.643 1.891 2.966 2.25 8.291 2.25 3.97 0 6.106-.374 5.719-1-.385-.622 1.576-1.006 5.191-1.015 4.119-.011 5.373-.298 4.309-.985-1.056-.683.367-.974 4.809-.985 3.948-.009 6.078-.389 5.691-1.015-.384-.621 1.49-1 4.941-1 3.057 0 5.559-.45 5.559-1s2.502-1 5.559-1c3.451 0 5.325-.379 4.941-1-.386-.625 1.676-1 5.5-1s5.886-.375 5.5-1c-.388-.628 1.823-1 5.941-1 3.706 0 6.559-.435 6.559-1 0-.556 2.667-1 6-1s6-.444 6-1c0-.578 3.186-1 7.559-1 4.785 0 7.332-.367 6.941-1-.39-.631 1.99-1 6.441-1 4.039 0 7.059-.428 7.059-1 0-.583 3.333-1 8-1 4.4 0 8-.411 8-.913s3.032-.936 6.738-.965c3.71-.028 6.894-.517 7.084-1.087.203-.611 4.095-1.041 9.511-1.05q9.164-.016 7.682-.955c-.984-.622 1.88-.939 8.484-.939 6.047 0 10.108-.411 10.319-1.046.214-.641 4.542-1.045 11.206-1.045 6.16 0 11.125-.433 11.476-1 .358-.58 5.844-1 13.059-1 7.627 0 12.441-.387 12.441-1 0-.634 7.5-1 20.5-1 13.906 0 20.5-.345 20.5-1.071 0-.728 5.281-.99 16.5-.819l16.5.251-.015 6.069c-.011 4.288-.3 5.63-.985 4.57-.86-1.33-1.633 2.991-1.118 6.25.065.413-.332.75-.882.75s-1 .9-1 2-.45 2-1 2-1 .75-1 1.667c0 .916-.292 1.375-.648 1.018s-1.37.134-2.25 1.091c-.881.957-2.952 1.887-4.602 2.068-1.65.18-3.427.739-3.95 1.242-.522.503-4.037.914-7.809.914-4.318 0-6.63.37-6.241 1 .392.634-2.243 1.006-7.191 1.015-5.411.011-7.348.313-6.309.985s-.898.974-6.309.985c-4.948.009-7.583.381-7.191 1.015.39.631-1.99 1-6.441 1-4.039 0-7.059.428-7.059 1 0 .565-2.853 1-6.559 1-4.118 0-6.329.372-5.941 1s-1.843 1-6 1-6.388.372-6 1c.39.631-1.99 1-6.441 1-4.039 0-7.059.428-7.059 1 0 .55-2.448 1-5.441 1s-5.719.45-6.059 1-2.841 1-5.559 1-4.941.45-4.941 1-2.502 1-5.559 1c-3.451 0-5.325.379-4.941 1 .388.628-1.843 1-6 1s-6.388.372-6 1c.386.625-1.656 1-5.441 1-3.373 0-6.059.443-6.059 1 0 .55-1.8 1-4 1s-4 .45-4 1-.707 1-1.571 1c-2.045 0-4.429 2.416-4.429 4.488 0 .896-.45 1.352-1 1.012-.569-.352-1 .509-1 2s-.431 2.352-1 2c-.628-.388-1 1.823-1 5.941V754h6c3.333 0 6-.444 6-1 0-.55 2.475-1 5.5-1s5.5-.45 5.5-1c0-.564 2.833-1 6.5-1s6.5-.436 6.5-1c0-.556 2.667-1 6-1s6-.444 6-1c0-.565 2.853-1 6.559-1 4.118 0 6.329-.372 5.941-1-.388-.627 1.803-1 5.882-1 3.575 0 6.778-.45 7.118-1s3.291-1 6.559-1c3.294 0 5.941-.446 5.941-1 0-.578 3.186-1 7.559-1 4.785 0 7.332-.367 6.941-1s2.137-1 6.882-1c4.125 0 7.734-.379 8.02-.841.286-.463 3.575-.938 7.309-1.056 3.734-.117 6.939-.639 7.122-1.158.184-.52 3.896-.945 8.25-.945 4.611 0 7.917-.418 7.917-1 0-.597 3.853-1 9.559-1 5.729 0 9.326-.378 8.977-.943-.678-1.096 14.292-1.893 49.214-2.62 16.358-.341 24.25-.169 24.25.529 0 .655 4.422 1.034 12.059 1.034 7.785 0 11.84.354 11.441 1-.396.64 2.843 1 9 1s9.396.36 9 1c-.394.637 2.509 1 8 1 4.975 0 8.378.388 8.051.918-.529.855 2.105 1.187 21.209 2.675 4.031.314 7.007.975 6.691 1.486-.328.531 2.741.927 7.24.936 5.411.011 7.348.313 6.309.985-1.044.675.721.974 5.809.985 4.614.009 7.081.384 6.691 1.015s1.99 1 6.441 1c4.039 0 7.059.428 7.059 1 0 .563 2.806 1 6.417 1 3.674 0 6.569.458 6.773 1.071.199.596 2.901 1.072 6.084 1.072 3.149 0 5.726.418 5.726.928 0 .511 3.177.929 7.059.929 4.451 0 6.831.369 6.441 1-.384.621 1.49 1 4.941 1 3.057 0 5.559.45 5.559 1 0 .556 2.667 1 6 1h6v-5.97c0-7.853-4.329-16.03-8.488-16.03-.896 0-1.352-.45-1.012-1 .378-.611-1.156-1-3.941-1-2.507 0-4.559-.45-4.559-1s-2.475-1-5.5-1-5.5-.45-5.5-1c0-.556-2.667-1-6-1s-6-.444-6-1c0-.55-2.502-1-5.559-1-3.451 0-5.325-.379-4.941-1 .388-.628-1.843-1-6-1s-6.388-.372-6-1c.384-.621-1.49-1-4.941-1-3.057 0-5.559-.45-5.559-1 0-.556-2.667-1-6-1s-6-.444-6-1c0-.554-2.647-1-5.941-1-3.268 0-6.219-.45-6.559-1s-3.543-1-7.118-1c-4.079 0-6.27-.373-5.882-1 .388-.628-1.823-1-5.941-1-3.706 0-6.559-.435-6.559-1 0-.571-2.98-1-6.941-1-3.818 0-7.219-.45-7.559-1s-3.993-1-8.118-1c-4.745 0-7.273-.367-6.882-1s-2.176-1-7-1-7.391-.367-7-1c.368-.595-.823-1-2.941-1-1.957 0-3.559-.45-3.559-1s-.927-1-2.059-1-1.812-.399-1.511-.887c.301-.487-.122-1.442-.941-2.122S544 697.109 544 696.319s-.45-1.159-1-.819c-.618.382-1.006-1.41-1.015-4.691-.011-3.797-.292-4.882-.985-3.809-.685 1.061-.974-.259-.985-4.504l-.015-6.005 16.25-.276c11.233-.191 15.787.038 14.75.739-1.037.702 5.211 1.02 20.25 1.031 13.823.009 21.75.379 21.75 1.015 0 .613 4.814 1 12.441 1 7.215 0 12.701.42 13.059 1 .353.571 5.444 1 11.859 1 6.183 0 11.679.438 12.215.974.535.535 5.125 1.065 10.2 1.178s9.226.574 9.226 1.026 3.852.822 8.559.822c5.451 0 8.335.363 7.941 1-.393.635 2.343 1 7.5 1s7.893.365 7.5 1c-.391.633 2.137 1 6.882 1 4.125 0 7.778.45 8.118 1s3.516 1 7.059 1c3.627 0 6.441.437 6.441 1 0 .564 2.833 1 6.5 1s6.5.436 6.5 1c0 .55 2.448 1 5.441 1s5.719.45 6.059 1 3.516 1 7.059 1c3.627 0 6.441.437 6.441 1 0 .557 2.686 1 6.059 1 3.785 0 5.827.375 5.441 1-.384.621 1.49 1 4.941 1 3.057 0 5.559.45 5.559 1s2.25 1 5 1 5 .45 5 1 2.25 1 5 1 5 .45 5 1 2.25 1 5 1 5 .45 5 1c0 .565 2.853 1 6.559 1 4.118 0 6.329-.372 5.941-1-.566-.916.8-1.445 2.824-1.094.454.079.562-.281.241-.801-.321-.519.096-1.623.926-2.453 1.336-1.336 1.507-25.249 1.494-208.331-.01-133.895-.357-206.292-.985-205.321-.784 1.213-.972 1.069-.985-.75-.02-2.932-.197-3.529-1.44-4.86-1.37-1.466-16.006-1.897-15.109-.445.427.692-1.262 1.055-4.907 1.055-3.057 0-5.559.45-5.559 1s-1.827 1-4.059 1c-2.451 0-3.814.396-3.441 1 .386.625-1.676 1-5.5 1s-5.886.375-5.5 1-1.676 1-5.5 1-5.886.375-5.5 1-1.656 1-5.441 1c-3.373 0-6.059.443-6.059 1 0 .55-2.362 1.007-5.25 1.015-3.758.011-4.824.291-3.75.985 1.043.674-.784.979-6 1s-7.043.326-6 1-.784.979-6 1-7.043.326-6 1c1.039.672-.898.974-6.309.985-4.948.009-7.583.381-7.191 1.015.388.628-1.843 1-6 1s-6.388.372-6 1c.391.633-2.176 1-7 1s-7.391.367-7 1c.395.639-2.743 1.006-8.691 1.015-6.38.011-8.837.321-7.809.985s-1.492.979-8 1-9.028.336-8 1c1.023.661-1.763.974-8.75.985-6.156.009-10.25.414-10.25 1.015 0 .604-4.186 1-10.559 1-6.785 0-10.338.357-9.941 1 .401.648-4.59 1.025-14.191 1.07-9.205.044-14.052.396-12.809.93 1.21.52-6.883.939-20.5 1.061-12.695.114-20.975.523-19 .939 1.925.405-24.175.751-58 .769-33.825.017-60.375-.329-59-.769 1.461-.468-6.021-.884-18-1s-19.461-.532-18-1c1.506-.482-3.585-.84-12.809-.9-9.927-.065-15.092-.452-14.691-1.1.398-.644-3.59-1.025-11.191-1.07-7.529-.045-11.084-.382-9.809-.93 1.297-.557-1.866-.909-9-1s-10.297-.443-9-1c1.306-.561-1.47-.889-8-.945-6.848-.059-9.527-.391-8.5-1.055 1.028-.664-1.429-.974-7.809-.985-5.948-.009-9.086-.376-8.691-1.015.393-.636-2.41-1.006-7.691-1.015-5.734-.011-7.844-.316-6.809-.985 1.039-.671-.961-.979-6.5-1s-7.539-.329-6.5-1c1.044-.675-.721-.974-5.809-.985-4.614-.009-7.081-.384-6.691-1.015.383-.62-1.47-1-4.882-1-3.025 0-5.778-.45-6.118-1s-3.629-1.007-7.309-1.015c-4.689-.011-6.242-.306-5.191-.985 1.056-.683-.367-.974-4.809-.985-3.948-.009-6.078-.389-5.691-1.015.384-.621-1.49-1-4.941-1-3.057 0-5.559-.45-5.559-1s-2.25-1-5-1-5-.45-5-1c0-.558-2.76-1.007-6.25-1.015-4.404-.011-5.807-.302-4.75-.985 1.073-.693-.012-.974-3.809-.985-3.281-.009-5.073-.397-4.691-1.015.384-.621-1.509-1-5-1s-5.384-.379-5-1c.388-.629-1.725-.977-5.691-.939-5.326.052-6.66.436-8.559 2.464m3.003 2.968c-1.538 1.747-1.85 414.994-.313 414.044.507-.313 1.134-.225 1.394.197.26.421 2.992.612 6.071.423 3.079-.188 5.346-.751 5.038-1.25-.311-.502 2.029-.914 5.248-.922 4.119-.011 5.373-.298 4.309-.985-1.075-.695-.029-.974 3.691-.985 2.855-.008 5.469-.465 5.809-1.015s3.066-1 6.059-1 5.441-.45 5.441-1c0-.557 2.686-1 6.059-1 3.785 0 5.827-.375 5.441-1-.389-.629 1.91-1.006 6.191-1.015 4.765-.011 6.359-.307 5.309-.985-1.057-.683.346-.974 4.75-.985 3.49-.008 6.25-.457 6.25-1.015 0-.57 2.972-1 6.917-1 4.029 0 7.065-.447 7.273-1.071.199-.596 2.905-1.072 6.099-1.072 3.278 0 5.495-.398 5.167-.928-.334-.541 2.588-.929 6.985-.929 4.373 0 7.559-.422 7.559-1 0-.584 3.353-1 8.059-1 5.118 0 7.833-.365 7.441-1-.396-.64 2.91-1.006 9.191-1.015 6.703-.011 9.334-.323 8.309-.985-1.028-.664 1.429-.974 7.809-.985 5.948-.009 9.086-.376 8.691-1.015-.398-.644 3.343-1 10.5-1s10.898-.356 10.5-1 3.323-1 10.441-1c6.327 0 11.059-.407 11.059-.951 0-1 15.383-1.728 55-2.603 15.392-.34 22.982-.846 22-1.467-.958-.606 14.998-.954 44.191-.964 29.399-.01 45.911.342 46.309.985.378.612 9.038 1.039 22.309 1.1 12.429.057 20.623.441 19.191.9-1.467.47 5.019.842 15.691.9 10.937.06 18.437.499 18.809 1.1.349.564 5.278 1.007 11.309 1.015 7.147.011 10.194.331 9.191.966-.994.63 2.687.948 10.915.943 8.157-.004 12.655.381 13.114 1.123.384.621 2.222 1.044 4.085.94 7.436-.416 12.989.038 12.386 1.013-.394.637 2.509 1 8 1 5.153 0 8.383.38 8.034.944-.347.562 2.533.945 7.098.945 4.225 0 7.948.426 8.275.948.326.521 3.515.987 7.086 1.036 3.572.048 6.647.547 6.834 1.107.187.561 3.254 1.02 6.815 1.02 4.063 0 6.246.373 5.858 1s1.803 1 5.882 1c3.575 0 6.778.45 7.118 1s3.093 1 6.118 1c3.412 0 5.265.38 4.882 1-.388.628 1.823 1 5.941 1 3.706 0 6.559.435 6.559 1 0 .55 2.475 1 5.5 1s5.5.45 5.5 1 2.448 1 5.441 1 5.719.45 6.059 1 2.643 1 5.118 1c2.986 0 4.274.366 3.828 1.087-.433.7.348 1.019 2.191.894 5.492-.37 8.482.017 7.863 1.019-.378.611 1.156 1 3.941 1 2.507 0 4.559.45 4.559 1s.675 1 1.5 1 1.388-.562 1.25-1.25.313-1.137 1-1c1.288.258 1.416-29.5 1.281-297.607-.032-63.084.311-99.7.957-102.1 1.207-4.479-.008-12.205-2.274-14.472-1.715-1.715-5.214-2.189-4.214-.571.384.621-1.509 1-5 1s-5.384.379-5 1c.381.617-1.343 1-4.5 1s-4.881.383-4.5 1c.387.626-1.743 1.006-5.691 1.015-4.442.011-5.865.302-4.809.985 1.064.687-.19.974-4.309.985-3.615.009-5.576.393-5.191 1.015.386.625-1.676 1-5.5 1s-5.886.375-5.5 1c.384.621-1.509 1-5 1s-5.384.379-5 1c.388.628-1.843 1-6 1s-6.388.372-6 1c.384.621-1.509 1-5 1s-5.384.379-5 1c.392.634-2.243 1.006-7.191 1.015-5.411.011-7.348.313-6.309.985 1.044.675-.721.974-5.809.985-4.614.009-7.081.384-6.691 1.015.393.636-2.41 1.006-7.691 1.015-5.734.011-7.844.316-6.809.985 1.039.672-.898.974-6.309.985-4.948.009-7.583.381-7.191 1.015.394.637-2.577 1.006-8.191 1.015-6.057.011-8.34.318-7.309.985 1.024.662-1.829.997-9 1.055-6.81.055-9.797.388-8.5.945 1.29.554-1.839.884-8.809.93-6.935.045-10.588.428-10.191 1.07.4.646-3.91 1.005-12.191 1.015-8.64.011-12.321.331-11.309.985 1.007.651-3.201.974-12.809.985-9.281.01-14.092.366-13.691 1.015.404.654-7.11 1.052-21.691 1.15-12.57.085-20.345.453-17.809.844 2.475.382-20.025.689-50 .684-29.975-.006-52.025-.312-49-.681 3.268-.399-4.039-.766-18-.904-14.204-.141-22.709-.574-21.5-1.093 1.25-.537-3.628-.912-13-1s-14.25-.463-13-1c1.268-.545-2.572-.891-10.5-.945-8.463-.058-12.016-.399-11-1.055 1.02-.659-2.183-.997-10-1.055-7.369-.055-10.782-.394-9.5-.945 1.305-.561-1.647-.908-8.5-1s-9.805-.439-8.5-1c1.307-.562-1.398-.884-7.809-.93-6.268-.045-9.586-.431-9.191-1.07.393-.636-2.41-1.006-7.691-1.015-5.734-.011-7.844-.316-6.809-.985 1.039-.672-.898-.974-6.309-.985-4.948-.009-7.583-.381-7.191-1.015.39-.631-2.077-1.006-6.691-1.015-5.301-.011-6.897-.297-5.809-1.04 1.13-.771.512-.99-2.5-.887-8.425.287-11.624-.048-10.946-1.145.433-.7-.348-1.019-2.191-.894-6.322.426-9.921-.012-8.363-1.019 1.05-.678-.544-.974-5.309-.985-4.281-.009-6.58-.386-6.191-1.015.386-.625-1.656-1-5.441-1-3.373 0-6.059-.443-6.059-1 0-.55-2.25-1-5-1s-5-.45-5-1-2.25-1-5-1-5-.45-5-1-2.25-1-5-1-5-.45-5-1-2.363-1.007-5.25-1.015c-3.758-.011-4.824-.291-3.75-.985 1.064-.687-.19-.974-4.309-.985-3.615-.009-5.576-.393-5.191-1.015.956-1.546-2.84-1.106-4.247.493m666.999 7.007c.011 2.2.216 2.982.455 1.738s.23-3.044-.02-4-.446.062-.435 2.262m-650.001 200 .249 189 2.75.316c1.512.174 2.75-.163 2.75-.75 0-.637 2.435-1.066 6.059-1.066 3.785 0 5.827-.375 5.441-1-.388-.628 1.843-1 6-1s6.388-.372 6-1 1.823-1 5.941-1c3.706 0 6.559-.435 6.559-1s2.853-1 6.559-1c4.118 0 6.329-.372 5.941-1-.391-.633 2.176-1 7-1s7.391-.367 7-1 2.176-1 7-1 7.391-.367 7-1c-.394-.637 2.509-1 8-1s8.394-.363 8-1 2.49-1 7.941-1c5.039 0 8.559-.411 8.559-1 0-.593 3.686-1 9.059-1 5.785 0 8.836-.361 8.441-1-.398-.644 3.323-1 10.441-1 6.706 0 11.059-.394 11.059-1 0-.603 4.167-1 10.5-1 5.997 0 10.5-.409 10.5-.954 0-.565 6.554-.969 16.046-.989 8.825-.02 16.895-.49 17.934-1.046 1.078-.577 9.858-1.011 20.454-1.011 11.171 0 18.566-.382 18.566-.958 0-.606 23.281-.795 63.25-.515 77.036.539 105.028 1.214 104.226 2.513-.37.598 5.274.96 14.965.96 9.038 0 15.559.394 15.559.939 0 .883 5.321 1.272 35.962 2.629 8.206.364 11.962.868 11 1.477-.952.601 2.097.93 8.729.94 5.698.008 10.463.456 10.809 1.015.34.55 3.929 1 7.976 1 4.183 0 7.506.447 7.702 1.035.19.57 3.374 1.059 7.084 1.087 3.706.029 6.738.463 6.738.965s3.563.913 7.917.913c4.568 0 8.062.438 8.261 1.035.19.57 3.374 1.059 7.084 1.087 3.706.029 6.738.463 6.738.965s3.177.913 7.059.913c4.451 0 6.831.369 6.441 1-.604.978 3.771 1.43 9.863 1.019 1.843-.125 2.624.194 2.191.894-.458.741 1.418 1.087 5.887 1.087 3.706 0 6.559.435 6.559 1 0 .564 2.833 1 6.5 1s6.5.436 6.5 1c0 .55.927 1 2.059 1s1.781-.45 1.441-1-.138-1 .448-1c.751 0 1.05-55.533 1.012-188l-.055-188h-8.511c-5.42 0-8.288.363-7.894 1 .386.625-1.656 1-5.441 1-3.373 0-6.059.443-6.059 1 0 .55-2.502 1-5.559 1-3.451 0-5.325.379-4.941 1 .387.627-1.922 1.026-6.191 1.07-4.732.049-6.199.333-4.809.93 1.363.585-.55.904-6 1s-7.363.415-6 1c1.339.575-.81.888-6.5.945-5.879.059-8.037.385-7 1.055 1.034.669-1.138.979-7 1s-8.034.331-7 1c1.031.666-1.315.979-7.5 1s-8.531.334-7.5 1-1.315.979-7.5 1-8.531.334-7.5 1c1.027.664-1.652.996-8.5 1.055-6.53.056-9.306.384-8 .945 1.299.558-1.592.884-8.25.93-6.12.042-10.25.473-10.25 1.07 0 .606-4.427 1.006-11.25 1.015-7.633.011-10.768.327-9.75.985 1.01.653-2.909.979-12 1s-13.01.347-12 1c1.003.648-4.298 1.007-16 1.084-10.965.072-16.566.43-15 .959 1.661.561-1.026.833-8 .812-24.432-.074-38.418.371-36 1.145 1.375.44-17.975.786-43 .769s-43.925-.364-42-.769c1.952-.411-6.452-.802-19-.884-14.942-.097-21.996-.472-21-1.116 1.463-.945-4.681-1.217-25-1.105-5.221.029-6.892-.232-5.5-.857 1.313-.589-2.55-.922-11.25-.968-8.12-.043-13.25-.457-13.25-1.07 0-.6-4.02-1-10.059-1-6.451 0-9.837-.359-9.441-1 .615-.995-3.595-1.312-14-1.054-3.685.092-4.605-.144-3.5-.895 1.066-.725-1.484-1.025-8.809-1.036-6.614-.01-10.088-.373-9.691-1.015.391-.633-2.156-1-6.941-1-4.373 0-7.559-.422-7.559-1s-3.186-1-7.559-1c-4.785 0-7.332-.367-6.941-1 .39-.631-2.009-1-6.5-1s-6.89-.369-6.5-1c.392-.634-2.243-1.006-7.191-1.015-5.411-.011-7.348-.313-6.309-.985 1.057-.683-.346-.974-4.75-.985-3.49-.008-6.25-.457-6.25-1.015 0-.573-3.094-1.007-7.25-1.015-5.05-.011-6.795-.31-5.75-.985 1.065-.688-.169-.974-4.25-.985-3.162-.008-5.75-.465-5.75-1.015 0-.565-2.853-1-6.559-1-3.769 0-6.316-.394-5.987-.926s-3.053-1.064-7.939-1.25l-8.512-.324zM204 496v184l3.25-.015c2.466-.012 2.888-.249 1.75-.985-1.05-.678.544-.974 5.309-.985 4.281-.009 6.58-.386 6.191-1.015-.39-.631 2.077-1.006 6.691-1.015 5.088-.011 6.853-.31 5.809-.985s.721-.974 5.809-.985c4.614-.009 7.081-.384 6.691-1.015-.388-.628 1.843-1 6-1s6.388-.372 6-1c-.621-1.006 3.275-1.369 10.861-1.012 2.557.12 3.635-.186 3.191-.903-.459-.743 1.712-1.085 6.889-1.085 4.373 0 7.559-.422 7.559-1 0-.583 3.333-1 8-1s8-.417 8-1c0-.593 3.964-1.029 9.75-1.07 6.378-.046 9.058-.368 7.75-.93-1.299-.558 1.592-.884 8.25-.93 6.12-.042 10.25-.473 10.25-1.07 0-.606 4.333-1 11-1s11-.394 11-1c0-.617 5.186-1 13.559-1 8.785 0 13.341-.352 12.941-1-.389-.63 2.085-1.02 6.691-1.054 4.02-.029 10.009-.25 13.309-.49 43.84-3.191 195.663-3.428 197.591-.308.339.547 3.719.929 7.512.848 15.394-.33 22.915.023 21.397 1.004-1.006.65 3.336.974 13.191.985 8.698.009 14.943.423 15.309 1.015.349.564 5.197 1 11.118 1 6.745 0 10.279.358 9.882 1s3.137 1 9.882 1c5.921 0 10.769.436 11.118 1 .34.55 4.191 1 8.559 1 4.627 0 7.941.417 7.941 1 0 .589 3.52 1 8.559 1 4.707 0 8.32.387 8.028.86-.293.473 3.158.949 7.667 1.057 4.51.109 8.435.564 8.723 1.012.287.448 3.223.873 6.523.944s6.15.578 6.333 1.128c.184.549 2.996.999 6.25.999 3.278 0 5.917.446 5.917 1 0 .571 3 1 7 1s7 .429 7 1c0 .556 2.667 1 6 1s6 .444 6 1c0 .565 2.853 1 6.559 1 4.118 0 6.329.372 5.941 1-.34.55.309 1 1.441 1H820V312h-2.559c-1.451 0-2.292.433-1.941 1 .386.625-1.676 1-5.5 1s-5.886.375-5.5 1c.389.629-1.91 1.006-6.191 1.015-4.765.011-6.359.307-5.309.985 1.043.674-.784.979-6 1s-7.043.326-6 1c1.056.683-.367.974-4.809.985-3.948.009-6.078.389-5.691 1.015.39.631-2.009 1-6.5 1s-6.89.369-6.5 1-2.077 1.006-6.691 1.015c-5.088.011-6.853.31-5.809.985 1.031.666-1.315.979-7.5 1s-8.531.334-7.5 1c1.04.672-.877.974-6.25.985-4.49.009-7.75.436-7.75 1.015 0 .593-3.76 1.006-9.25 1.015-6.342.011-8.778.32-7.75.985 1.028.664-1.429.974-7.809.985-5.948.009-9.086.376-8.691 1.015.396.64-2.843 1-9 1s-9.396.36-9 1-2.823 1-8.941 1c-5.706 0-9.559.403-9.559 1 0 .615-5 1-13 1s-13 .385-13 1c0 .626-7.017 1.056-18.75 1.15-10.312.082-17.4.42-15.75.75 5.518 1.104-31.449 1.604-90.5 1.224-32.175-.207-57.15-.717-55.5-1.132 1.701-.428-5.443-.813-16.5-.889-12.701-.087-18.978-.464-18.003-1.08.985-.623-3.117-.949-11.99-.954-8.363-.005-13.617-.399-13.83-1.038-.205-.616-4.36-1.031-10.319-1.031-6.396 0-9.754-.359-9.358-1 .396-.64-2.843-1-9-1s-9.396-.36-9-1c.395-.639-2.676-1-8.5-1s-8.895-.361-8.5-1c.394-.637-2.49-1-7.941-1-5.039 0-8.559-.411-8.559-1 0-.585-3.427-1.006-8.25-1.015-5.696-.011-7.786-.316-6.75-.985 1.034-.669-1.138-.979-7-1s-8.034-.331-7-1c1.045-.675-.7-.974-5.75-.985-4.156-.008-7.25-.442-7.25-1.015 0-.556-2.667-1-6-1s-6-.444-6-1-2.667-1-6-1c-3.3 0-6-.418-6-.929 0-.51-2.577-.928-5.726-.928-3.183 0-5.885-.476-6.084-1.072-.196-.589-2.821-1.071-5.832-1.071-3.396 0-5.241-.38-4.858-1 .386-.625-1.676-1-5.5-1s-5.886-.375-5.5-1c.351-.567-.49-1-1.941-1H204zm617.328-173.5c.005 3.85.185 5.302.402 3.228.216-2.075.213-5.225-.008-7s-.398-.078-.394 3.772m.14 63.5c0 31.075.126 43.788.281 28.25s.155-40.962 0-56.5-.281-2.825-.281 28.25m-619.182-40.5c.008 2.75.202 3.756.432 2.236s.223-3.77-.014-5-.425.014-.418 2.764m.057 13c.003 4.4.179 6.076.39 3.724s.209-5.952-.006-8-.388-.124-.384 4.276m.076 33.5c0 10.725.147 15.113.327 9.75.179-5.363.179-14.137 0-19.5-.18-5.363-.327-.975-.327 9.75m-.119 35c0 3.025.187 4.262.416 2.75s.229-3.988 0-5.5-.416-.275-.416 2.75m-.068 10c0 1.925.206 2.712.457 1.75.252-.962.252-2.538 0-3.5-.251-.962-.457-.175-.457 1.75m619.054 10.5c.008 2.75.202 3.756.432 2.236s.223-3.77-.014-5-.425.014-.418 2.764m-619.014.5c0 2.475.195 3.488.434 2.25.238-1.238.238-3.262 0-4.5-.239-1.238-.434-.225-.434 2.25m.123 18.5c.001 7.7.158 10.718.348 6.706.191-4.011.189-10.311-.002-14-.192-3.688-.348-.406-.346 7.294m619.02 5.5c0 10.175.149 14.337.33 9.25.182-5.088.182-13.413 0-18.5-.181-5.088-.33-.925-.33 9.25m-619.066 32c0 4.675.173 6.587.383 4.25s.211-6.163 0-8.5c-.21-2.337-.383-.425-.383 4.25m618.951 2c0 3.025.187 4.262.416 2.75s.229-3.988 0-5.5-.416-.275-.416 2.75m.095 23.5c.001 7.7.158 10.718.348 6.706.191-4.011.189-10.311-.002-14-.192-3.688-.348-.406-.346 7.294m-619.085 16c.005 3.3.192 4.529.415 2.732s.218-4.497-.01-6c-.229-1.503-.411-.032-.405 3.268m618.922 5.5c0 1.925.206 2.712.457 1.75.252-.962.252-2.538 0-3.5-.251-.962-.457-.175-.457 1.75m.068 18c0 3.025.187 4.263.416 2.75s.229-3.987 0-5.5-.416-.275-.416 2.75m-618.957 15.5c.003 4.4.179 6.076.39 3.724s.209-5.952-.006-8-.388-.124-.384 4.276M821.32 586c0 3.575.182 5.038.403 3.25s.222-4.712 0-6.5c-.221-1.788-.403-.325-.403 3.25m.029 16c0 4.675.173 6.587.383 4.25s.211-6.163 0-8.5c-.21-2.337-.383-.425-.383 4.25m-619.021 3.5c.005 3.85.185 5.302.402 3.228.216-2.075.213-5.225-.008-7s-.398-.078-.394 3.772m618.958 44c.008 2.75.202 3.756.432 2.236s.223-3.77-.014-5-.425.014-.418 2.764M202.232 671c0 1.925.206 2.712.457 1.75.252-.962.252-2.538 0-3.5-.251-.962-.457-.175-.457 1.75m619.02.5c.011 2.2.216 2.982.455 1.738s.23-3.044-.02-4-.446.062-.435 2.262M489.2 677.2c-.742.742-1.2 4.391-1.2 9.559 0 5.318-.364 8.134-1 7.741-.567-.351-1 .49-1 1.941 0 1.407-.45 2.559-1 2.559s-1 .675-1 1.5-.45 1.5-1 1.5-1 .717-1 1.594c0 .876-.9 1.829-2 2.116s-2 .921-2 1.407c0 .485-.9.883-2 .883s-2 .405-2 .899c0 1.056-6.238 2.016-17.763 2.734-4.689.292-8.016.915-7.691 1.441.331.537-2.581.926-6.928.926-4.125 0-7.778.45-8.118 1s-3.291 1-6.559 1c-3.294 0-5.941.446-5.941 1 0 .563-2.806 1-6.417 1-3.674 0-6.569.458-6.773 1.071-.199.596-2.905 1.072-6.099 1.072-3.278 0-5.495.398-5.167.928.331.536-2.226.929-6.044.929-4.157 0-6.388.372-6 1s-1.823 1-5.941 1c-3.706 0-6.559.435-6.559 1 0 .554-2.639 1-5.917 1-3.318 0-6.073.47-6.273 1.071-.199.596-2.905 1.072-6.099 1.072-3.278 0-5.495.398-5.167.928.327.529-1.819.929-4.985.929-3.057 0-5.559.45-5.559 1 0 .557-2.686 1-6.059 1-3.785 0-5.827.375-5.441 1 .383.62-1.462 1-4.858 1-3.011 0-5.625.407-5.809.905-.183.497-1.458 1.06-2.833 1.25-3.804.525-6.605 3.831-6.858 8.095l-.223 3.75 5.29-.015c3.785-.011 4.864-.292 3.791-.985-1.058-.684.325-.974 4.691-.985 3.405-.008 6.469-.465 6.809-1.015s3.543-1 7.118-1c4.079 0 6.27-.373 5.882-1-.388-.628 1.843-1 6-1s6.388-.372 6-1 1.843-1 6-1 6.388-.372 6-1c-.391-.633 2.176-1 7-1s7.391-.367 7-1c-.383-.62 1.47-1 4.882-1 3.025 0 5.778-.45 6.118-1s3.993-1 8.118-1c4.745 0 7.273-.367 6.882-1s2.156-1 6.941-1c4.373 0 7.559-.422 7.559-1 0-.583 3.333-1 8-1s8-.417 8-1c0-.601 4.094-1.006 10.25-1.015 6.987-.011 9.773-.324 8.75-.985s1.784-.974 8.809-.985c6.614-.01 10.088-.373 9.691-1.015-.399-.646 3.803-1 11.882-1 7.255 0 12.759-.42 13.118-1 .373-.603 7.363-1 17.618-1 11.079 0 16.785.348 16.382 1-.4.647 4.077 1.005 12.691 1.015 8.962.011 12.819.332 11.809.985-1.023.661 1.763.974 8.75.985 6.156.009 10.25.414 10.25 1.015 0 .589 3.52 1 8.559 1 4.996 0 8.321.386 7.987.926-.325.525 3.01 1.164 7.691 1.473 15.872 1.051 21.763 1.778 21.763 2.686 0 .503 3.15.915 7 .915 4 0 7 .429 7 1 0 .565 2.853 1 6.559 1 4.118 0 6.329.372 5.941 1-.39.631 1.99 1 6.441 1 4.039 0 7.059.428 7.059 1 0 .556 2.667 1 6 1s6 .444 6 1c0 .571 3 1 7 1 3.85 0 7 .407 7 .904s2.315.922 5.144.944 5.619.515 6.2 1.096S700.785 746 703.7 746s5.3.45 5.3 1 2.059 1 4.577 1h4.576l-.309-3.75c-.347-4.209-3.648-8.25-6.74-8.25-1.092 0-2.264-.45-2.604-1s-2.841-1-5.559-1-4.941-.45-4.941-1-2.448-1-5.441-1-5.719-.45-6.059-1-3.04-1-6-1-5.66-.45-6-1-2.841-1-5.559-1-4.941-.45-4.941-1c0-.565-2.853-1-6.559-1-4.118 0-6.329-.372-5.941-1 .386-.625-1.656-1-5.441-1-3.373 0-6.059-.443-6.059-1s-2.667-1-6-1-6-.444-6-1-2.667-1-6-1-6-.444-6-1c0-.565-2.853-1-6.559-1-4.118 0-6.329-.372-5.941-1 .39-.631-1.99-1-6.441-1-4.039 0-7.059-.428-7.059-1 0-.583-3.333-1-8-1s-8-.417-8-1c0-.578-3.186-1-7.559-1-4.785 0-7.332-.367-6.941-1 .381-.616-1.323-1-4.441-1-2.782 0-5.059-.45-5.059-1s-.337-.947-.75-.882c-1.993.315-3.306-.219-2.75-1.118.34-.55.121-1-.486-1-1.679 0-6.014-4.695-6.014-6.514 0-.882-.45-1.326-1-.986-.585.362-1-.676-1-2.5s-.415-2.862-1-2.5c-.634.392-1-2.256-1-7.241 0-4.779-.47-8.329-1.2-9.059-.859-.859-7.333-1.2-22.8-1.2s-21.941.341-22.8 1.2"/></svg>