<svg xmlns="http://www.w3.org/2000/svg" viewBox="0 0 1024 1024"><path fill="#00e5cc" d="M472 227.06c-1.375.407-4.386.785-6.691.84s-4.469.55-4.809 1.1-1.491 1-2.559 1-1.941.45-1.941 1-.59 1-1.311 1c-.722 0-2.278.9-3.459 2-1.18 1.1-2.548 2-3.04 2-.491 0-2.198 1.246-3.792 2.77-1.594 1.523-3.276 2.827-3.737 2.897s-1.928 1.074-3.258 2.23c-1.33 1.157-2.798 2.103-3.262 2.103-.465 0-2.257 1.35-3.984 3s-3.526 3-4 3c-.473 0-2.39 1.461-4.259 3.248-1.869 1.786-3.551 3.09-3.737 2.897-.187-.193-1.428.596-2.758 1.752S412.605 262 412.141 262c-.465 0-2.259 1.352-3.988 3.005s-3.411 2.956-3.738 2.897-1.682.839-3.012 1.995-2.798 2.103-3.262 2.103c-.465 0-2.259 1.352-3.988 3.005s-3.411 2.956-3.738 2.897-1.682.839-3.012 1.995-2.798 2.103-3.262 2.103c-.465 0-2.221 1.315-3.903 2.923s-3.24 2.742-3.461 2.52c-.222-.221-2.175 1.268-4.34 3.311-2.165 2.042-4.09 3.562-4.276 3.377-.187-.185-1.428.61-2.758 1.766S362.605 298 362.141 298c-.465 0-2.374 1.461-4.243 3.248-1.869 1.786-3.551 3.09-3.737 2.897-.187-.193-1.428.596-2.758 1.752S348.605 308 348.141 308c-.465 0-2.156 1.238-3.76 2.75s-4.145 3.389-5.648 4.169-2.733 1.793-2.733 2.25-.608.831-1.352.831c-.743 0-2.766 1.352-4.495 3.005s-3.411 2.956-3.738 2.897-1.572.726-2.768 1.745-3.853 2.978-5.904 4.353-3.732 2.864-3.736 3.309-.375.582-.825.304c-.45-.279-2.005.595-3.456 1.941-1.451 1.345-3.042 2.446-3.534 2.446s-2.425 1.461-4.294 3.248c-1.869 1.786-3.474 3.023-3.568 2.75s-1.334.514-2.757 1.752-2.968 2.25-3.432 2.25c-.465 0-2.221 1.315-3.903 2.923s-3.24 2.742-3.461 2.52c-.222-.221-2.024 1.126-4.005 2.995-1.982 1.869-3.782 3.219-4 3-.219-.219-2.058 1.168-4.087 3.082s-4.029 3.48-4.443 3.48-2.625 1.763-4.913 3.918c-2.287 2.155-4.338 3.739-4.557 3.52s-2.058 1.168-4.087 3.082-4.029 3.48-4.443 3.48-2.664 1.8-4.999 4c-2.336 2.2-4.598 4-5.026 4-.429 0-3.241 2.347-6.248 5.216s-5.568 5.006-5.688 4.75-2.729 1.897-5.797 4.784-5.908 5.25-6.312 5.25-3.094 2.25-5.977 5-5.569 5.002-5.969 5.005c-.399.003-3.43 2.59-6.734 5.75-3.305 3.16-6.385 5.812-6.845 5.895s-3.736 2.895-7.278 6.25c-3.543 3.355-6.787 6.1-7.21 6.1s-3.571 2.7-6.996 6-6.551 6.002-6.945 6.005-3.461 2.628-6.814 5.834-6.84 6.114-7.75 6.464c-.91.349-1.654 1.117-1.654 1.707s-.9 2.04-2 3.22-2 3.15-2 4.375-.399 2.378-.887 2.562-1.172 4.833-1.52 10.333-1.078 16.75-1.622 25c-2.605 39.501-2.381 50.989 1.126 57.736.497.955.903 3.066.903 4.691s.45 3.233 1 3.573 1 1.647 1 2.904c0 2.327 2.772 5.596 4.745 5.596.599 0 1.238.416 1.422.925s.99 1.071 1.794 1.25c.803.179 2.351 1.113 3.439 2.075 1.087.962 2.567 1.75 3.289 1.75.721 0 1.311.45 1.311 1s.9 1 2 1 2 .342 2 .761c0 .418 3.038 2.33 6.75 4.249s7.349 4.055 8.081 4.748 1.744 1.005 2.25.692c.505-.312.919-.159.919.341 0 .501 3.038 2.431 6.75 4.289 3.713 1.859 6.975 3.647 7.25 3.974s2.525 1.687 5 3.021c5.516 2.973 7 4.32 7 6.354 0 .864.45 1.571 1 1.571s1 .735 1 1.633.975 2.478 2.166 3.511c2.129 1.846 35.137 18.442 37.883 19.047.772.17 2.013.876 2.758 1.568s1.768 1.004 2.274.691c.505-.312.919-.091.919.491s.9 1.059 2 1.059 2 .45 2 1 .9 1 2 1 2 .45 2 1 .9 1 2 1 2 .45 2 1 .9 1 2 1 2 .45 2 1 .9 1 2 1 2 .45 2 1 .9 1 2 1 2 .45 2 1 .596 1 1.325 1c.728 0 6.651 2.697 13.162 5.993s12.552 6.109 13.425 6.25 2.187.824 2.919 1.516c.731.693 1.706 1.027 2.164.744.459-.284.985-.096 1.17.416s.999 1.077 1.811 1.256 2.086.892 2.831 1.584 1.768 1.004 2.274.691c.505-.312.919-.091.919.491s.9 1.059 2 1.059 2 .45 2 1 .9 1 2 1 2 .45 2 1 .9 1 2 1 2 .45 2 1 .9 1 2 1 2 .45 2 1 .541 1 1.202 1 5.948 2.317 11.75 5.149 11.111 5.157 11.798 5.166c.688.01 1.25.393 1.25.852s.9.833 2 .833 2 .45 2 1 .9 1 2 1 2 .45 2 1 .707 1 1.571 1c.865 0 2.251.679 3.081 1.509s1.923 1.254 2.429.941c.505-.312.919-.091.919.491s.9 1.059 2 1.059 2 .45 2 1 .565 1 1.255 1 5.753 2.241 11.25 4.979 10.783 4.988 11.745 5 1.75.416 1.75.9c0 .954 6.027 3.746 7.25 3.359.413-.131.75.212.75.762s.9 1 2 1 2 .45 2 1 .9 1 2 1 2 .45 2 1 .9 1 2 1 2 .45 2 1 .9 1 2 1 2 .45 2 1 .9 1 2 1 2 .45 2 1 .567 1 1.261 1 8.643 3.625 17.665 8.055 16.882 8.143 17.465 8.25c.584.107 1.671.762 2.416 1.454.745.693 1.768 1.004 2.274.691.505-.312.919-.091.919.491s.9 1.059 2 1.059 2 .45 2 1 .9 1 2 1 2 .34 2 .755c0 1.92 7.168 3.008 10.118 1.536 2.206-1.1 3.66-1.215 5.826-.46 1.587.553 3.149.742 3.471.421.322-.322.585-.06.585.581 0 .642.9 1.167 2 1.167s2 .45 2 1 .624 1 1.386 1 2.642.652 4.178 1.449 3.162 1.22 3.614.941c.452-.28.822-.031.822.551s.9 1.059 2 1.059 2 .34 2 .755c0 .744 6.313 3.244 8.75 3.465.688.062 1.25.488 1.25.947s.569.833 1.265.833 4.183 1.424 7.75 3.165 7.048 3.166 7.735 3.167 1.25.376 1.25.835.595.833 1.323.833c.727 0 4.125 1.358 7.551 3.017 3.425 1.659 6.757 3.122 7.403 3.25.647.128 1.785.8 2.53 1.492.745.693 1.73 1.027 2.188.744.459-.284 1.098.05 1.42.741.467 1.003.703 1.004 1.168.006.321-.688 1.109-1.252 1.75-1.255.642-.002 2.605-1.352 4.363-3 1.757-1.647 3.603-2.995 4.101-2.995.499 0 2.283-1.315 3.965-2.923s3.24-2.742 3.461-2.52c.222.221 2.063-1.163 4.092-3.077s4.072-3.48 4.539-3.48 2.226-1.315 3.908-2.923 3.24-2.742 3.461-2.52c.222.221 2.063-1.163 4.092-3.077s4.072-3.48 4.539-3.48 2.161-1.237 3.765-2.75c1.603-1.513 4.145-3.389 5.648-4.169s2.733-1.793 2.733-2.25.563-.833 1.25-.836c.688-.002 2.688-1.352 4.446-3s3.603-2.995 4.101-2.995c.499 0 2.319-1.35 4.046-3 1.726-1.65 3.526-3 4-3 .473 0 2.172-1.237 3.776-2.75s4.145-3.389 5.648-4.169 2.733-1.793 2.733-2.25.563-.833 1.25-.836c.688-.002 2.688-1.352 4.446-3s3.603-2.995 4.101-2.995c.499 0 2.321-1.352 4.05-3.005 1.73-1.652 3.335-2.89 3.569-2.75s1.588-.758 3.011-1.995 2.968-2.25 3.432-2.25c.465 0 2.156-1.237 3.76-2.75s4.145-3.389 5.648-4.169 2.733-1.793 2.733-2.25.608-.831 1.352-.831c.743 0 2.764-1.35 4.491-3s3.539-3 4.027-3c.489 0 2.744-1.8 5.011-4s4.46-4 4.873-4 4.021-3.142 8.016-6.982 7.531-6.937 7.858-6.883 3.039-2.203 6.029-5.018 5.753-5.119 6.14-5.122 3.524-2.703 6.973-6 6.598-5.997 7-6c.401-.003 3.551-2.703 7-6s6.598-5.997 7-6c.401-.003 3.509-2.662 6.904-5.909s6.346-5.733 6.555-5.523 3.41-2.532 7.112-6.092 7.052-6.473 7.445-6.476 3.535-2.703 6.984-6 6.598-5.997 7-6c.401-.003 3.551-2.703 7-6s6.623-5.995 7.055-5.995 3.587-2.7 7.012-6 6.552-6 6.948-6 4.095-3.243 8.218-7.206 7.648-7.072 7.832-6.909 2.775-1.994 5.756-4.794 5.783-5.091 6.228-5.091c1.646 0 6.181-5.682 6.181-7.746 0-1.175.45-2.414 1-2.754s1-2.14 1-4 .45-3.66 1-4 1-2.166 1-4.059.45-3.441 1-3.441 1-1.131 1-2.514.406-3.295.903-4.25c1.219-2.346 3.43-9.923 3.43-11.756 0-.814.401-1.48.891-1.48 1.731 0-.709-102.733-2.743-115.5-1.481-9.3-9.677-19.156-17.965-21.603-2.484-.734-4.516-1.685-4.516-2.115s-1.35-.782-3-.782-3-.45-3-1-.9-1-2-1-2-.352-2-.782-2.072-1.393-4.604-2.141-6.336-2.196-8.452-3.218c-2.116-1.023-4.544-1.859-5.396-1.859-.851 0-1.548-.369-1.548-.819 0-.451-2.25-1.432-5-2.181s-5-1.73-5-2.181c0-.45-1.35-.819-3-.819s-3-.45-3-1-.873-1-1.941-1-2.219-.45-2.559-1-1.716-1-3.059-1-2.441-.45-2.441-1-.59-1-1.312-1-3.175-.9-5.452-2-4.836-2-5.688-2-1.548-.369-1.548-.819c0-.451-2.25-1.432-5-2.181s-5-1.632-5-1.962-2.072-1.213-4.604-1.961-6.336-2.196-8.452-3.218c-2.116-1.023-4.544-1.859-5.396-1.859-.851 0-1.548-.45-1.548-1s-.873-1-1.941-1-2.219-.45-2.559-1-1.716-1-3.059-1-2.441-.45-2.441-1-.624-1-1.386-1-2.642-.652-4.178-1.449-3.162-1.22-3.614-.941c-.452.28-.822.031-.822-.551s-.624-1.059-1.386-1.059-2.642-.652-4.178-1.449-3.162-1.22-3.614-.941c-.452.28-.822.031-.822-.551s-.624-1.059-1.386-1.059-2.642-.652-4.178-1.449-3.162-1.22-3.614-.941c-.452.28-.822.031-.822-.551s-.873-1.059-1.941-1.059-2.219-.45-2.559-1-1.716-1-3.059-1-2.441-.45-2.441-1-.873-1-1.941-1-2.219-.45-2.559-1-1.716-1-3.059-1-2.441-.45-2.441-1-.873-1-1.941-1-2.219-.45-2.559-1-1.716-1-3.059-1-2.441-.45-2.441-1-.624-1-1.386-1-2.642-.652-4.178-1.449-3.162-1.22-3.614-.941c-.452.28-.822.031-.822-.551s-.873-1.059-1.941-1.059-2.219-.45-2.559-1-1.716-1-3.059-1-2.441-.45-2.441-1-.873-1-1.941-1-2.219-.45-2.559-1-1.716-1-3.059-1-2.441-.45-2.441-1-.59-1-1.312-1-3.175-.9-5.452-2-4.836-2-5.688-2-1.548-.45-1.548-1-.873-1-1.941-1-2.219-.45-2.559-1-1.716-1-3.059-1-2.441-.45-2.441-1-.873-1-1.941-1-2.219-.45-2.559-1-1.716-1-3.059-1-2.441-.369-2.441-.819c0-.451-2.25-1.432-5-2.181s-5-1.73-5-2.181c0-.45-.873-.819-1.941-.819s-2.219-.45-2.559-1-1.415-1-2.39-1c-.974 0-3.95-1.103-6.614-2.452s-5.215-2.222-5.669-1.941c-.455.281-.827.133-.827-.33 0-.462-2.072-1.452-4.604-2.2s-6.336-2.196-8.452-3.218c-2.116-1.023-4.235-1.859-4.708-1.859s-2.723-.9-5-2-4.527-2-5-2-2.723-.9-5-2-4.597-2-5.157-2-2.621-.9-4.579-2-4.447-2-5.53-2-1.97-.45-1.97-1-.624-1-1.386-1-2.642-.652-4.178-1.449-3.162-1.22-3.614-.941c-.452.28-.822.031-.822-.551s-.624-1.059-1.386-1.059-2.642-.652-4.178-1.449-3.162-1.22-3.614-.941c-.452.28-.822.13-.822-.333 0-.462-2.072-1.452-4.604-2.2s-6.336-2.196-8.452-3.218c-2.116-1.023-4.544-1.859-5.396-1.859-.851 0-1.548-.45-1.548-1s-.873-1-1.941-1-2.219-.45-2.559-1-1.44-1-2.445-1-3.083-.652-4.619-1.449-3.162-1.22-3.614-.941c-.452.28-.822.089-.822-.424 0-.857-5.259-1.821-14-2.568-1.925-.164-4.625.035-6 .442m-5 9.687c-3.649 1.207-8.657 3.832-10.439 5.47-1.066.981-2.3 1.783-2.742 1.783s-1.968 1.012-3.392 2.25-2.664 2.026-2.757 1.752c-.094-.273-1.699.964-3.568 2.75s-4.007 3.248-4.75 3.248-1.352.374-1.352.831-1.23 1.47-2.733 2.25-4.045 2.657-5.648 4.169c-1.604 1.512-3.323 2.75-3.822 2.75-.498 0-2.344 1.348-4.101 2.995s-3.538 2.998-3.955 3c-.418.003-2.172 1.355-3.898 3.005-1.727 1.65-3.748 3-4.491 3-.744 0-1.352.374-1.352.831s-1.238 1.47-2.75 2.25-4.1 2.654-5.75 4.164-3.334 2.748-3.742 2.75c-.409.003-1.831.951-3.161 2.108-1.33 1.156-2.686 2.054-3.012 1.995s-2.008 1.245-3.738 2.897c-1.729 1.653-3.523 3.005-3.988 3.005s-1.932.946-3.262 2.103c-1.33 1.156-2.686 2.054-3.012 1.995s-2.008 1.245-3.738 2.897c-1.729 1.653-3.531 3.005-4.004 3.005-.474 0-2.274 1.35-4 3-1.727 1.65-3.748 3-4.491 3-.744 0-1.352.374-1.352.831s-1.23 1.47-2.733 2.25-4.045 2.657-5.648 4.169c-1.604 1.512-3.524 2.75-4.267 2.75s-1.352.374-1.352.831-1.23 1.47-2.733 2.25-4.045 2.657-5.648 4.169c-1.604 1.512-3.295 2.75-3.76 2.75s-1.932.946-3.262 2.103c-1.33 1.156-2.694 2.046-3.03 1.977-.337-.069-1.756 1.018-3.154 2.416s-3.033 2.239-3.632 1.869c-.652-.404-.803-.21-.376.48.422.685.078 1.155-.846 1.155-.857 0-1.559.374-1.559.831s-1.231 1.47-2.736 2.25-3.715 2.253-4.911 3.272-2.439 1.807-2.763 1.751-2.237 1.454-4.253 3.355-3.959 3.275-4.319 3.052-1.285.472-2.057 1.543c-.771 1.07-1.978 1.946-2.682 1.946-.703 0-1.279.45-1.279 1a1 1 0 0 1-.992 1c-.546 0-2.009.883-3.25 1.963s-2.708 2.087-3.258 2.238-2.547 1.734-4.437 3.517-3.616 3.062-3.835 2.844c-.219-.219-2.27 1.365-4.557 3.52S266.15 380 265.71 380s-1.849 1.012-3.13 2.25c-3.076 2.972-6.489 5.75-7.065 5.75-.254 0-2.456 1.846-4.894 4.102s-4.802 4.168-5.254 4.25-3.507 2.735-6.79 5.898-6.335 5.75-6.784 5.75-3.174 2.245-6.055 4.99-5.575 4.994-5.986 5c-.411.005-2.659 1.81-4.995 4.01-2.335 2.2-4.57 4-4.966 4s-3.996 3.15-8.002 7-7.624 7-8.04 7-2.892 2.022-5.503 4.494c-2.61 2.472-5.038 4.497-5.394 4.5s-3.731 2.925-7.5 6.492-7.179 6.492-7.578 6.5c-.4.008-3.297 2.464-6.437 5.457-3.141 2.994-6.077 5.218-6.524 4.941-.447-.276-.813.226-.813 1.116s-.357 1.398-.793 1.128c-.435-.269-.884.72-.997 2.198-.221 2.895 1.114 3.785 9.54 6.361 2.337.715 4.25 1.64 4.25 2.056s1.098.757 2.441.757 2.719.45 3.059 1 1.498 1 2.573 1c1.888 0 2.861.361 7.663 2.844 1.23.636 3.143 1.156 4.25 1.156s2.014.45 2.014 1 1.098 1 2.441 1 2.719.45 3.059 1 1.491 1 2.559 1 1.941.45 1.941 1 1.098 1 2.441 1 2.719.45 3.059 1 1.69 1 3 1 2.66.45 3 1 1.491 1 2.559 1 1.941.477 1.941 1.059.37.831.822.551 1.924.064 3.271.763c1.348.699 4.578 1.9 7.179 2.667 2.6.768 4.728 1.748 4.728 2.178s.886.782 1.97.782c1.083 0 3.572.9 5.53 2s4.019 2 4.579 2 2.88.9 5.157 2 4.527 2 5 2 2.723.9 5 2 4.73 2 5.452 2 1.312.477 1.312 1.059.37.831.822.551 2.078.144 3.614.941 3.416 1.449 4.178 1.449 1.386.45 1.386 1 .697 1 1.548 1 3.411.9 5.688 2 4.73 2 5.452 2 1.312.45 1.312 1 1.098 1 2.441 1 2.719.45 3.059 1 1.491 1 2.559 1 1.941.45 1.941 1 .9 1 2 1 2 .45 2 1 .886 1 1.97 1c1.083 0 3.572.9 5.53 2s4.222 2 5.03 2c.809 0 1.47.477 1.47 1.059s.372.829.827.548 3.005.593 5.669 1.941 5.442 2.452 6.173 2.452c.732 0 1.331.477 1.331 1.059s.414.803.919.491 1.519-.002 2.25.691c.732.692 2.104 1.388 3.049 1.545s4.253 1.62 7.351 3.25c3.099 1.63 6.263 2.964 7.033 2.964.769 0 1.398.45 1.398 1s.9 1 2 1 2 .45 2 1 .9 1 2 1 2 .45 2 1 .9 1 2 1 2 .45 2 1 .788 1.008 1.75 1.018 7.149 2.71 13.748 6S392.059 580 392.748 580s1.252.45 1.252 1 .9 1 2 1 2 .45 2 1 .9 1 2 1 2 .45 2 1 .9 1 2 1 2 .45 2 1 .9 1 2 1 2 .477 2 1.059.414.803.919.491 1.599.111 2.429.941 2.216 1.509 3.081 1.509 1.575.337 1.579.75c.009.898 4.852 3.25 6.691 3.25.716 0 1.301.45 1.301 1s.9 1 2 1 2 .45 2 1 .9 1 2 1 2 .45 2 1 .9 1 2 1 2 .45 2 1 .863 1 1.917 1 2.066.343 2.25.762c.183.42 5.17 3.183 11.083 6.142s10.75 5.792 10.75 6.297.414.661.919.349 1.599.111 2.429.941 2.216 1.509 3.081 1.509 1.571.45 1.571 1 .9 1 2 1 2 .477 2 1.059.414.803.919.491 1.519 0 2.25.695c.732.694 7.069 4.164 14.081 7.71S506 638.788 506 639.26s.414.602.919.29c.506-.313 1.599.111 2.429.941s2.179 1.509 2.997 1.509 1.638.339 1.822.754c.183.415 3.371 2.283 7.083 4.15s6.75 3.778 6.75 4.246c0 .467.862.85 1.917.85 1.054 0 2.066.337 2.25.75.183.413 2.471 1.833 5.083 3.157s4.75 2.787 4.75 3.25.862.843 1.917.843c1.054 0 2.066.347 2.25.771.553 1.279 23.092 12.181 26.567 12.85 3.203.617 9.46-1.507 10.793-3.664.336-.544.918-.827 1.292-.629.727.385 35.784-34.466 35.531-35.321-.083-.279.255-.395.75-.257.495.137.787-.313.65-1-.138-.688.312-1.138 1-1s1.137-.313 1-1c-.138-.688.312-1.138 1-1s1.137-.313 1-1c-.138-.688.312-1.138 1-1s1.137-.313 1-1c-.138-.688.312-1.138 1-1s1.137-.313 1-1c-.138-.688.312-1.138 1-1s1.137-.313 1-1c-.138-.688.312-1.138 1-1s1.137-.313 1-1c-.138-.688.312-1.138 1-1s1.137-.313 1-1c-.138-.688.312-1.138 1-1s1.137-.242 1-.843c-.138-.601.624-1.614 1.691-2.25 2.322-1.384 6.513-5.3 6.832-6.384.125-.425.598-.649 1.051-.498.454.151.585-.113.292-.588-.731-1.182 6.819-8.419 7.78-7.457.424.423.621.095.437-.73-.183-.825.229-1.388.917-1.25.687.137 1.137-.313 1-1-.138-.688.312-1.138 1-1s1.137-.313 1-1c-.138-.688.312-1.138 1-1s1.137-.313 1-1c-.138-.688.312-1.138 1-1s1.137-.313 1-1c-.138-.688.312-1.138 1-1s1.137-.313 1-1c-.138-.688.312-1.138 1-1s1.137-.313 1-1c-.138-.688.312-1.138 1-1s1.137-.242 1-.843c-.138-.601.593-1.614 1.624-2.25s12.022-11.166 24.425-23.399 22.725-22.068 22.937-21.856c.212.213 4.504-3.616 9.537-8.508s9.498-8.894 9.92-8.894 3.589-2.698 7.037-5.995 6.607-5.997 7.018-6 2.659-1.805 4.995-4.005c2.335-2.2 4.565-4 4.955-4s3.155-2.303 6.145-5.117 5.818-5.177 6.285-5.25 3.09-2.27 5.829-4.883 5.321-4.75 5.738-4.75 3.354-2.475 6.528-5.5 6.063-5.5 6.421-5.5 3.51-2.748 7.004-6.108 7.475-6.846 8.849-7.75c1.373-.903 8.267-7.267 15.32-14.142s13.305-12.671 13.892-12.879c1.753-.623 29.791-29.015 29.791-30.167 0-.584-1.302-2.456-2.893-4.158l-2.894-3.096-5.044 1.65c-2.775.907-5.946 1.65-7.048 1.65s-2.281.45-2.621 1-1.915 1-3.5 1-3.16.45-3.5 1-1.915 1-3.5 1-3.16.45-3.5 1-1.69 1-3 1-2.66.45-3 1-2.166 1-4.059 1-3.441.45-3.441 1-1.131 1-2.514 1-3.295.406-4.25.903c-.955.496-3.761 1.426-6.236 2.067s-5.882 1.585-7.571 2.098-3.833.932-4.764.932c-.93 0-2.474.404-3.429.897-1.794.927-14.582 5.023-17.236 5.52-.825.154-2.175.521-3 .814-2.437.866-9.379 2.874-11 3.182-.825.157-2.175.514-3 .795-5.687 1.933-8.868 2.792-10.335 2.792-.93 0-2.474.423-3.429.94s-2.973 1.2-4.486 1.519c-2.64.556-2.75.825-2.75 6.75 0 6.597-1.641 17.174-3.108 20.027-.49.955-.892 2.568-.892 3.584s-.313 2.16-.696 2.542c-.382.383-.785 1.304-.894 2.048-.364 2.485-8.608 18.59-9.515 18.59-.492 0-.895.608-.895 1.352 0 .743-1.35 2.764-3 4.491s-3 3.563-3 4.082c0 1.179-20.969 22.075-22.152 22.075-.477 0-2.279 1.35-4.005 3-1.727 1.65-3.583 3-4.124 3s-1.741.872-2.665 1.938-2.31 2.078-3.078 2.25c-.769.171-2.288 1.1-3.376 2.062-1.087.962-2.567 1.75-3.289 1.75-.721 0-1.315.337-1.319.75s-1.017 1.26-2.25 1.884-7.155 3.64-13.161 6.704c-6.005 3.065-11.292 5.34-11.75 5.058-.457-.283-.831-.037-.831.545s-.9 1.059-2 1.059-2 .45-2 1-.873 1-1.941 1-2.219.45-2.559 1-1.69 1-3 1-2.66.45-3 1-1.69 1-3 1-2.66.45-3 1-1.69 1-3 1-2.66.45-3 1-1.498 1-2.573 1-2.736.406-3.691.903c-2.036 1.058-8.095 2.701-22.236 6.03-9.93 2.338-17.374 3.52-31.171 4.951-4.769.495-9.044 1.119-9.5 1.386-.456.268-9.154.769-19.329 1.114-29.244.993-76.67-1.961-87.399-5.443-1.595-.518-4.038-.941-5.429-.941s-3.912-.42-5.601-.932c-1.689-.513-4.984-1.413-7.321-2-10.426-2.62-12.857-3.319-14.486-4.165-.955-.497-2.499-.903-3.429-.903-1.892 0-7.909-1.777-10.571-3.123-.955-.482-2.553-.877-3.55-.877-.998 0-2.261-.447-2.808-.994-1.768-1.768-5.905-1.462-10.7.792-2.576 1.211-5.125 2.202-5.665 2.202-.539 0-2.583.9-4.541 2s-4.447 2-5.53 2-1.97.352-1.97.782c0 .726-4.554 2.261-11.371 3.833l-2.87.662.547-6.888c.3-3.789 1.07-8.914 1.71-11.389 2.059-7.967 2.359-13 .773-13-.776 0-2.388-.909-3.581-2.021s-2.367-1.899-2.608-1.75-1.495-.629-2.784-1.729-3.575-2.639-5.08-3.419-2.736-1.793-2.736-2.25-.64-.831-1.422-.831c-1.575 0-28-25.911-27.221-26.691.269-.268-.826-1.865-2.434-3.547S302 482.133 302 481.435s-.395-1.418-.877-1.602c-1.193-.453-8.344-14.829-7.386-14.848.42-.009.23-.355-.422-.769-.651-.414-1.37-1.87-1.596-3.235s-.672-3.156-.991-3.981c-2.283-5.909-2.846-29.75-.91-38.5.608-2.75 1.4-6.468 1.759-8.262.36-1.794 1.052-3.509 1.538-3.809.487-.301.885-1.42.885-2.488s.45-1.941 1-1.941.893-.337.762-.75c-.401-1.265 2.421-7.25 3.418-7.25.516 0 .682-.414.37-.919s-.002-1.519.691-2.25c.692-.732 1.898-2.569 2.678-4.081s1.793-2.75 2.25-2.75.831-.635.831-1.411c0-1.593 26.451-28.589 28.012-28.589.553 0 2.419-1.35 4.145-3 1.727-1.65 3.542-3 4.033-3s1.86-.9 3.04-2c1.181-1.1 2.737-2 3.459-2 .721 0 1.311-.379 1.311-.843s2.137-1.92 4.75-3.236 4.979-2.702 5.259-3.077c.281-.376 1.17-.832 1.977-1.014.806-.181 2.076-.897 2.821-1.589.745-.693 1.768-1.004 2.274-.691.505.312.919.146.919-.37 0-.997 5.985-3.819 7.25-3.418.413.131.75-.212.75-.762s.9-1 2-1 2-.45 2-1 .59-1 1.312-1 3.175-.9 5.452-2 4.527-2 5-2 2.723-.9 5-2 4.81-2 5.629-2 1.767-.45 2.107-1 1.69-1 3-1 2.66-.45 3-1 1.69-1 3-1 2.66-.45 3-1 2.166-1 4.059-1 3.441-.45 3.441-1 .981-1 2.179-1 3.561-.434 5.25-.965 4.226-1.194 5.637-1.473c3.123-.618 6.323-3.413 6.746-5.893.172-1.006 1.185-3.383 2.25-5.28 1.066-1.897 1.938-4.111 1.938-4.919 0-.809.477-1.47 1.059-1.47s.831-.37.551-.822.144-2.078.941-3.614 1.449-3.416 1.449-4.178.45-1.386 1-1.386 1-.9 1-2 .45-2 1-2 1-1.098 1-2.441.45-2.719 1-3.059 1-1.491 1-2.559.477-1.941 1.059-1.941.831-.37.551-.822.144-2.078.941-3.614 1.449-3.416 1.449-4.178.477-1.386 1.059-1.386.829-.372.548-.827.48-2.817 1.691-5.25c4.964-9.972 5.542-14.448 1.702-13.176m14.222.431c-.672.672-1.222 2.032-1.222 3.022s-.45 1.8-1 1.8-1 .697-1 1.548-.9 3.411-2 5.688-2 4.527-2 5-.9 2.723-2 5-2 4.73-2 5.452-.477 1.312-1.059 1.312-.831.37-.551.822-.144 2.078-.941 3.614-1.449 3.416-1.449 4.178-.45 1.386-1 1.386-1 .9-1 2-.45 2-1 2-1 1.098-1 2.441-.45 2.719-1 3.059-1 1.491-1 2.559-.45 1.941-1 1.941-1 .68-1 1.511-.958 3.548-2.128 6.038-1.925 4.731-1.677 4.98c.446.445 8.146-.344 26.805-2.746 11.928-1.536 63.797-1.525 77.5.016 14.971 1.684 30.167 4.382 46.5 8.257 2.475.587 5.743 1.316 7.262 1.621s3.009.952 3.309 1.438c.301.487 1.87.885 3.488.885s2.941.45 2.941 1 .907 1 2.016 1c2.816 0 9.984 2.329 9.984 3.243 0 .417 1.098.757 2.441.757s2.719.45 3.059 1 1.491 1 2.559 1 1.941.45 1.941 1 1.098 1 2.441 1 2.719.45 3.059 1 1.491 1 2.559 1 1.941.477 1.941 1.059.414.803.919.491 1.529-.002 2.274.691c.745.692 2.019 1.405 2.831 1.584s1.627.744 1.811 1.256c.185.512.711.7 1.17.416.458-.283 1.443.051 2.188.744.745.692 2.019 1.405 2.831 1.584s1.626.741 1.809 1.25 1.196.925 2.25.925 1.917.45 1.917 1 .59 1 1.311 1c.722 0 2.278.9 3.459 2 1.18 1.1 2.53 2 3 2 .469 0 1.829.909 3.022 2.021s2.515 2.028 2.939 2.037 1.785.899 3.027 1.979c1.241 1.08 2.605 1.963 3.031 1.963s3.015 2.137 5.754 4.75 5.425 4.975 5.968 5.25.876.838.739 1.25c-.138.413.312.638 1 .5.687-.137 1.137.313 1 1-.138.688.087 1.138.5 1 .412-.137.975.192 1.25.732.275.539 3.319 3.87 6.765 7.402s6.069 6.615 5.831 6.854c-.239.238.413 1.407 1.448 2.598s1.786 2.4 1.669 2.687c-.117.288.8 1.611 2.037 2.939s2.25 3.005 2.25 3.727c0 .721.45 1.311 1 1.311s1 .9 1 2 .45 2 1 2 1 .624 1 1.386.652 2.642 1.449 4.178 1.22 3.162.941 3.614c-.28.452-.031.822.551.822s1.059 1.323 1.059 2.941.45 3.219 1 3.559 1 1.661 1 2.937c0 2.722 3.063 5.841 3.746 3.813.231-.688 1.514-1.25 2.851-1.25s3.212-.406 4.167-.903c1.716-.892 8.332-2.959 11.236-3.51a27 27 0 0 0 3-.795c5.687-1.933 8.868-2.792 10.335-2.792.93 0 2.474-.406 3.429-.903 1.957-1.017 8.846-3.101 11.457-3.466.947-.132 2.034-.553 2.417-.935.382-.383 1.526-.696 2.542-.696s2.629-.406 3.584-.903c1.716-.892 8.332-2.959 11.236-3.51a25 25 0 0 0 3-.818c.825-.293 3.525-1.067 6-1.719s5.882-1.605 7.571-2.118 4.052-.932 5.25-.932 2.179-.45 2.179-1 1.323-1 2.941-1 3.219-.45 3.559-1 2.166-1 4.059-1 3.441-.45 3.441-1 .825-1 1.833-1c4.158 0 2.115-3.892-2.083-3.968-.962-.018-1.75-.509-1.75-1.091s-.37-.831-.822-.551-2.078-.144-3.614-.941-3.416-1.449-4.178-1.449-1.386-.45-1.386-1-1.098-1-2.441-1-2.719-.45-3.059-1-1.288-1-2.107-1-3.352-.9-5.629-2-4.73-2-5.452-2-1.312-.477-1.312-1.059-.37-.831-.822-.551-2.078-.144-3.614-.941-3.416-1.449-4.178-1.449-1.386-.375-1.386-.833c0-.459-.562-.885-1.25-.947-2.437-.221-8.75-2.721-8.75-3.465 0-.415-1.098-.755-2.441-.755s-2.719-.45-3.059-1-1.491-1-2.559-1-1.941-.477-1.941-1.059-.37-.831-.822-.551-2.078-.144-3.614-.941-3.416-1.449-4.178-1.449-1.386-.477-1.386-1.059-.37-.831-.822-.551-2.078-.144-3.614-.941-3.213-1.449-3.727-1.449-2.796-.9-5.073-2-4.73-2-5.452-2-1.312-.477-1.312-1.059-.37-.831-.822-.551-2.078-.144-3.614-.941-3.416-1.449-4.178-1.449-1.386-.45-1.386-1-.697-1-1.548-1-3.411-.9-5.688-2-4.929-2-5.893-2-2.031-.45-2.371-1-1.491-1-2.559-1-1.941-.45-1.941-1-.697-1-1.548-1-3.411-.9-5.688-2-4.527-2-5-2-2.723-.9-5-2-4.73-2-5.452-2-1.312-.45-1.312-1-1.098-1-2.441-1-2.719-.45-3.059-1-1.491-1-2.559-1-1.941-.477-1.941-1.059-.37-.831-.822-.551-2.078-.144-3.614-.941-3.213-1.449-3.727-1.449-2.796-.9-5.073-2-4.73-2-5.452-2-1.312-.477-1.312-1.059-.37-.831-.822-.551-2.078-.144-3.614-.941-3.416-1.449-4.178-1.449-1.386-.477-1.386-1.059-.37-.831-.822-.551-2.078-.144-3.614-.941-3.416-1.449-4.178-1.449-1.386-.477-1.386-1.059-.37-.831-.822-.551-2.078-.144-3.614-.941-3.416-1.449-4.178-1.449-1.386-.477-1.386-1.059-.37-.831-.822-.551-2.078-.144-3.614-.941-3.213-1.449-3.727-1.449-2.796-.9-5.073-2-4.527-2-5-2-2.723-.9-5-2-4.73-2-5.452-2-1.312-.45-1.312-1-1.098-1-2.441-1-2.719-.45-3.059-1-1.491-1-2.559-1-1.941-.477-1.941-1.059-.37-.831-.822-.551-2.078-.144-3.614-.941-3.416-1.449-4.178-1.449-1.386-.45-1.386-1-1.098-1-2.441-1-2.719-.45-3.059-1-1.491-1-2.559-1-1.941-.375-1.941-.833c0-.459-.562-.885-1.25-.947-2.437-.221-8.75-2.721-8.75-3.465 0-.415-.697-.755-1.548-.755s-3.411-.9-5.688-2-4.716-2-5.421-2-2.758-.823-4.563-1.828-5.418-2.453-8.03-3.218-4.75-1.769-4.75-2.231c0-.463-.37-.613-.822-.333s-2.078-.144-3.614-.941-3.416-1.449-4.178-1.449-1.386-.477-1.386-1.059-.37-.831-.822-.551-2.078-.144-3.614-.941-3.213-1.449-3.727-1.449-2.796-.9-5.073-2-4.73-2-5.452-2-1.312-.45-1.312-1-1.098-1-2.441-1-2.719-.45-3.059-1-1.491-1-2.559-1-1.941-.45-1.941-1-.886-1-1.97-1c-1.083 0-3.453-.834-5.267-1.852s-4.64-2.081-6.281-2.359c-1.64-.278-3.67-.805-4.51-1.169-.841-.365-2.078-.114-2.75.558M394 307.059c0 .582-.45.781-1 .441-.595-.368-1 .823-1 2.941 0 3.426.136 3.559 3.633 3.559 3.954 0 7.861-3.269 6.9-5.773-.293-.765-.533-1.579-.533-1.809s-1.8-.418-4-.418-4 .477-4 1.059m93.814 1.461c-.34.339-4.6 1.056-9.466 1.593-26.314 2.9-28.27 3.484-31.468 9.398-1.485 2.744-2.74 5.777-2.789 6.739-.05.962-.568 1.75-1.15 1.75s-.803.414-.491.919-.111 1.599-.941 2.429-1.509 2.147-1.509 2.927c0 4.322-3.764 8.394-7.25 7.843-.413-.065-.75.332-.75.882s-1.35 1-3 1-3 .352-3 .782-2.072 1.393-4.604 2.141-6.336 2.196-8.452 3.218c-2.116 1.023-4.544 1.859-5.396 1.859-.851 0-1.548.45-1.548 1s-.9 1-2 1-2 .45-2 1-.9 1-2 1-2 .45-2 1-.9 1-2 1-2 .338-2 .752c0 .413-2.137 1.869-4.75 3.235s-6.1 3.726-7.75 5.244-3.401 2.762-3.891 2.764c-1.13.006-20.231 19.056-19.756 19.703.194.264-.594 1.569-1.75 2.899S354 395.649 354 396.424s-.338 1.559-.752 1.743c-3.626 1.607-7.047 27.604-4.305 32.726.518.969 1.096 2.851 1.283 4.184.404 2.869 5.482 13.674 7.6 16.173.816.962 1.126 1.75.688 1.75-1.368 0 17.838 18.471 20.736 19.942 1.512.768 2.75 1.77 2.75 2.227s.59.831 1.311.831c.722 0 2.184.788 3.25 1.75 1.067.962 3.177 2.389 4.689 3.169s2.75 1.819 2.75 2.309.414.634.919.322c.506-.313 1.536-.002 2.289.691 2.134 1.962 5.613 3.759 7.278 3.759.833 0 1.514.45 1.514 1s.9 1 2 1 2 .477 2 1.059.37.831.822.551 2.078.144 3.614.941 3.416 1.449 4.178 1.449 1.386.477 1.386 1.059.337.86.75.617c.413-.242 1.875.023 3.25.59s3.098 1.155 3.828 1.306c.731.151 2.081.602 3 1.002.92.4 2.347.856 3.172 1.013 2.255.428 9.23 2.53 11.5 3.465 1.1.453 3.575 1.052 5.5 1.33 1.925.279 5.75.99 8.5 1.581 34.003 7.3 81.694 7.317 118.5.041 3.025-.598 7.075-1.321 9-1.608 1.925-.286 4.4-.88 5.5-1.319 4.389-1.755 9.255-3.077 11.321-3.077 1.198 0 2.179-.45 2.179-1s1.35-1 3-1 3-.369 3-.819c0-.451 2.25-1.432 5-2.181s5-1.73 5-2.181c0-.45.647-.819 1.437-.819 1.99 0 21.61-9.965 23.995-12.188 1.07-.997 2.535-1.812 3.257-1.812.721 0 1.311-.374 1.311-.831s1.237-1.47 2.75-2.25c5.963-3.077 21.092-18.206 24.169-24.169.78-1.512 1.793-2.75 2.25-2.75s.831-.9.831-2 .45-2 1-2 1-.9 1-2 .477-2 1.059-2 .839-.356.57-.79c-.268-.435.211-2.235 1.066-4 1.387-2.864 3.311-3.841 6.555-3.328.413.065.75-.332.75-.882s.981-1 2.179-1 3.561-.42 5.25-.932c8.061-2.447 11.733-3.401 13.091-3.401.814 0 1.48-.375 1.48-.834s1.26-.833 2.8-.833 3.228-.411 3.75-.914c.523-.503 2.3-1.064 3.95-1.246 3.759-.417 4.509-1.452 3.832-5.293-1.184-6.725-6.967-21.749-9.64-25.047-.741-.914-2.603-3.741-5.928-9-1.942-3.073-25.131-26.45-26.264-26.478-.55-.013-2.293-1.136-3.872-2.495-1.58-1.358-3.718-2.738-4.75-3.066S678 349.446 678 348.933s-.59-.933-1.311-.933c-.722 0-2.202-.788-3.289-1.75s-2.631-1.899-3.43-2.08c-.798-.182-1.68-.644-1.961-1.027-.793-1.084-21.355-11.158-22.759-11.15-.687.004-1.25-.443-1.25-.993s-1.098-1-2.441-1-2.664-.361-2.937-.802-2.774-1.422-5.559-2.181c-2.784-.758-5.063-1.774-5.063-2.257s-.34-.668-.756-.411-3.903-.605-7.75-1.915-8.007-2.394-9.244-2.408-2.25-.38-2.25-.813-1.433-.897-3.184-1.03c-1.75-.134-3.663-.619-4.25-1.078-.586-.459-3.091-1.154-5.566-1.545-2.475-.39-6.75-1.144-9.5-1.674-8.368-1.614-15.632-2.847-23.5-3.991-8.132-1.181-73.174-2.387-74.186-1.375M429.5 319c-.34.55-1.498 1-2.573 1s-2.736.404-3.691.897-6.461 2.374-12.236 4.18c-5.775 1.807-10.928 3.653-11.45 4.104-.523.45-1.985.819-3.25.819s-2.3.45-2.3 1-.661 1-1.47 1-3.072.9-5.03 2-4.447 2-5.53 2-1.97.45-1.97 1-.9 1-2 1-2 .45-2 1-.9 1-2 1-2 .45-2 1-.9 1-2 1-2 .374-2 .831-1.238 1.45-2.75 2.207-3.538 2.027-4.5 2.824-1.75 1.136-1.75.754-.985.224-2.189 1.345c-1.203 1.121-2.778 2.039-3.5 2.039-.721 0-1.311.374-1.311.831s-1.238 1.47-2.75 2.25-4.1 2.654-5.75 4.164-3.385 2.748-3.857 2.75c-1.228.007-23.643 22.463-23.643 23.687 0 .562-1.354 2.438-3.009 4.17S310.267 393 310.614 393s.055.694-.649 1.542c-1.87 2.254-5.965 10.579-5.965 12.127 0 .732-.45 1.331-1 1.331s-1 1.098-1 2.441-.4 2.688-.89 2.991c-2.193 1.355-4.142 32.999-2.281 37.028.519 1.122 1.539 4.065 2.267 6.54 1.519 5.164 6.544 15.667 8.732 18.25.815.962 1.19 1.75.834 1.75-.357 0 .294 1.085 1.447 2.411s2.026 2.699 1.94 3.053c-.218.9 22.406 23.535 23.531 23.541.506.002 2.358 1.352 4.116 3s3.585 2.995 4.061 2.995 1.752.787 2.834 1.75c1.905 1.694 7.767 5.25 8.653 5.25.24 0 1.011-1.913 1.714-4.25s1.518-4.925 1.811-5.75.655-2.098.805-2.828c.15-.731.6-2.081 1-3 .4-.92.85-2.27 1-3 .15-.731.6-2.081 1-3 .4-.92.859-2.328 1.019-3.129s.725-2.377 1.256-3.5 1.692-3.989 2.58-6.368l1.615-4.326-10.081-10.032c-5.545-5.518-9.856-10.257-9.581-10.532s-.575-1.659-1.888-3.075-2.16-2.942-1.881-3.392c.278-.45.099-.818-.397-.818-1.147 0-4.663-7.28-6.037-12.5-2.976-11.307-3.31-13.731-2.842-20.588.586-8.587 1.6-14.985 2.601-16.412.386-.55 1.301-2.901 2.033-5.224.733-2.323 2.051-5.041 2.93-6.039.88-.998 1.74-2.444 1.911-3.213.172-.768 1.176-2.147 2.232-3.062 1.056-.916 1.678-1.906 1.384-2.201s4.263-5.336 10.13-11.203 10.908-10.425 11.203-10.13 1.257-.275 2.137-1.267 3.627-2.895 6.102-4.232c2.475-1.336 5.099-2.996 5.831-3.688.731-.693 1.744-1.004 2.25-.691.505.312.919.159.919-.341 0-1.088 12.437-7.542 14.534-7.542.806 0 1.466-.375 1.466-.834s.59-.833 1.312-.833 3.175-.9 5.452-2 4.81-2 5.629-2 1.767-.45 2.107-1 1.498-1 2.573-1c3.619 0 8.927-3.822 8.927-6.429 0-.864.375-1.571.833-1.571.459 0 .857-.562.886-1.25.028-.687.784-2.937 1.68-5l1.628-3.75h-3.455c-1.899 0-3.732.45-4.072 1m-74.25 4.496c-.687.781-1.25 2.564-1.25 3.962 0 2.256.408 2.542 3.633 2.542 3.954 0 7.861-3.269 6.9-5.773-.293-.765-.533-1.579-.533-1.809 0-1.107-7.656-.164-8.75 1.078M324 342.817c0 .522-.9 1.185-2 1.473-1.532.4-2 1.364-2 4.116 0 3.395.18 3.592 3.25 3.562 4.749-.046 6.956-2.105 6.57-6.129-.269-2.803-.761-3.39-3.07-3.655-1.512-.174-2.75.111-2.75.633m-29.364 25.819c-3.317 3.318-3.403 6.615-.216 8.321 4.762 2.549 10.148-6.287 5.83-9.565-2.386-1.811-2.607-1.762-5.614 1.244m244.864-1.412c-1.65.556-3.781 1.408-4.736 1.894-.955.485-2.418.882-3.25.882-.833 0-1.514.45-1.514 1s-.587 1-1.305 1c-1.643 0-7.992 5.782-9.534 8.684-1.455 2.738-1.533 11.316-.102 11.316.582 0 .823.381.536.847-.288.466.81 2.125 2.441 3.687s2.964 2.513 2.964 2.114.985.192 2.189 1.313c1.203 1.121 3.191 2.039 4.416 2.039s2.398.509 2.605 1.13c.252.755 4.516 1.154 12.833 1.2 11.251.062 12.84-.154 16.412-2.229 6.964-4.045 10.545-8.816 10.544-14.046-.002-4.927-3.248-10.055-6.365-10.055-.899 0-1.634-.45-1.634-1s-.873-1-1.941-1-2.219-.45-2.559-1-4.615-1-9.5-1-9.16.45-9.5 1-1.743 1-3.118 1c-1.412 0-2.231.435-1.882 1 .34.55-.232 1-1.272 1-1.052 0-2.519 1.22-3.307 2.75-.78 1.512-1.817 3.039-2.305 3.393-2.224 1.612 2.517 9.857 5.668 9.857.852 0 1.699.406 1.883.902s2.808 1.03 5.833 1.188c8.482.441 13.192.03 12.5-1.09-.34-.55.116-1 1.012-1 6.475 0 5.706-11.851-.776-11.968-.97-.018-2.657-.59-3.75-1.273-1.581-.987-2.391-.987-3.972 0-1.093.683-2.475 1.241-3.072 1.241-1.458 0-3.942 2.563-3.942 4.068 0 1.743 3.125 3.863 5.75 3.9 2.667.038 2.87-.794.597-2.456-2.232-1.632-.863-3.512 2.557-3.512 3.529 0 6.211 2.845 5.444 5.776-.316 1.211-.923 1.987-1.348 1.724s-1.329.192-2.009 1.011C551.586 394.203 542 394.63 542 393c0-.55-.707-1-1.571-1-2.689 0-4.51-2.732-4.263-6.396.129-1.909.706-3.388 1.284-3.287.577.1.926-.413.775-1.141-.151-.729.15-1.062.67-.741.519.321 1.623-.096 2.453-.926s2.471-1.509 3.646-1.509c1.176 0 3.06-.494 4.188-1.097 4.525-2.422 16.421 2.327 19.517 7.791 2.711 4.785-4.977 15.306-11.185 15.306-.833 0-1.514.45-1.514 1 0 .583-3.314 1-7.941 1-4.368 0-8.219-.45-8.559-1s-1.422-1-2.405-1c-2.083 0-7.786-2.692-8.644-4.08-.324-.524-1.078-.651-1.675-.282-.605.375-.801.211-.442-.37.354-.573.003-1.573-.781-2.224-4.774-3.962-1.513-14.243 5.697-17.963 1.513-.78 2.75-1.793 2.75-2.25s1.035-.831 2.3-.831 2.861-.561 3.547-1.247c1.692-1.692 24.656-1.65 26.355.049.659.659 2.196 1.198 3.415 1.198s2.366.416 2.55.925.983 1.071 1.777 1.25c3.405.766 8.089 6.784 8.689 11.163.595 4.343-1.541 11.101-4.081 12.912-.694.495-.542 1.085.448 1.735 2.236 1.467 2.713 1.297 5.991-2.133 2.677-2.801 3.508-4.689 3.127-7.102-.065-.413.332-.75.882-.75s1-1.35 1-3-.477-3-1.059-3-.803-.414-.491-.919-.127-1.615-.977-2.465c-.849-.849-1.468-1.882-1.374-2.294s-.671-1.216-1.7-1.786-2.605-1.824-3.502-2.786-2.366-1.75-3.264-1.75-1.633-.45-1.633-1-.9-1-2-1-2-.45-2-1-1.323-1-2.941-1-3.219-.45-3.559-1c-.802-1.298-22.027-1.115-26 .224m-261.75 28.168c-2.024 1.536-2.43 8.215-.538 8.845 1.916.639 5.822-.373 5.217-1.351-.301-.487-.07-.886.512-.886s1.059-1.602 1.059-3.559c0-2.118-.405-3.309-1-2.941-.55.34-1 .141-1-.441 0-1.445-2.127-1.278-4.25.333M861.5 425c-7.134 7.15-13.293 13-13.685 13s-5.771 4.95-11.95 11-11.582 11-12.006 11-4.696 3.82-9.493 8.489c-4.796 4.669-8.9 8.31-9.119 8.091s-3.177 2.259-6.573 5.506c-3.395 3.247-6.517 5.906-6.936 5.909s-3.119 2.25-6 4.995-5.575 4.994-5.987 5c-.412.005-2.603 1.81-4.87 4.01s-4.507 4-4.978 4-3.215 2.25-6.098 5-5.583 5-6 5-3.328 2.45-6.468 5.443c-3.141 2.994-6.088 5.211-6.549 4.926s-.714-.147-.563.307-.058.941-.465 1.084-3.558 2.953-7 6.245-6.575 5.987-6.961 5.99c-.385.003-11.342 10.467-24.348 23.255s-24.053 23.137-24.549 23-.79.312-.652 1c.137.687-.313 1.137-1 1-.688-.138-1.138.312-1 1s-.313 1.137-1 1c-.688-.138-1.138.312-1 1s-.313 1.137-1 1c-.688-.138-1.138.242-1 .843s-.612 1.614-1.666 2.25c-2.499 1.509-41.732 40.742-43.241 43.241-.636 1.054-1.649 1.804-2.25 1.666-.601-.137-.98.088-.843.5a.77.77 0 0 1-.517.983c-1.227.374-7.733 7.119-7.733 8.018 0 1.51-10.606 11.31-11.391 10.525-.427-.427-.626-.101-.442.724.183.825-.229 1.388-.917 1.25-.687-.137-1.137.313-1 1 .138.688-.312 1.138-1 1s-1.137.313-1 1c.138.688-.312 1.138-1 1s-1.137.313-1 1c.138.688-.346 1.126-1.074.975s-1.082.118-.786.597c.73 1.182-4.83 6.405-5.793 5.442-.42-.42-.614-.314-.43.236.183.55-.039 1.083-.493 1.184-.454.102-1.632 1.114-2.617 2.25S586.724 680 586.061 680c-3.369 0-4.275 2.899-3.679 11.78.322 4.796.959 19.865 1.417 33.486.514 15.288 1.246 25.179 1.913 25.846.773.773 2.157.064 4.871-2.496 2.085-1.966 3.966-3.401 4.179-3.187s3.168-2.268 6.564-5.515 6.517-5.906 6.936-5.909 3.119-2.25 6-4.995 5.568-4.994 5.97-5c.403-.005 2.843-2.032 5.423-4.504s4.872-4.313 5.093-4.091 3.182-2.254 6.578-5.501c3.395-3.247 6.504-5.906 6.906-5.909s2.846-2.03 5.429-4.505 5.017-4.5 5.408-4.5c.392 0 3.56-2.676 7.04-5.948 3.481-3.271 6.496-5.78 6.701-5.575s2.694-1.839 5.531-4.542c2.838-2.703 5.486-4.919 5.885-4.925.4-.005 3.086-2.26 5.969-5.01s5.583-5 6-5 3.117-2.25 6-5 5.819-5 6.524-5c1.009 0 1.281-5.633 1.281-26.566 0-18.195.365-27.254 1.157-28.75 1.189-2.242 10.728-11.375 11.432-10.944.215.132 3.209-2.453 6.651-5.745 3.443-3.292 6.589-5.987 6.99-5.99.402-.003 3.552-2.703 7-6s6.613-5.997 7.032-6 3.119-2.25 6-4.995 5.567-4.994 5.968-5c.402-.005 3.552-2.708 7-6.005s6.587-5.997 6.973-6 3.087-2.249 6-4.991c2.914-2.742 5.628-4.999 6.031-5.016.404-.017 3.53-2.723 6.946-6.014s6.564-5.984 6.995-5.984 3.607-2.698 7.055-5.995c3.449-3.297 6.613-5.997 7.032-6s3.119-2.25 6-4.995 5.561-4.994 5.956-5c.394-.005 3.52-2.71 6.945-6.01s6.579-6 7.009-6c.429 0 3.14-2.25 6.023-5s5.579-5 5.991-5 3.552-2.7 6.977-6 6.573-6 6.996-6 3.752-2.812 7.398-6.25l6.631-6.25-.563-9c-.31-4.95-.861-13.837-1.225-19.75s-.947-10.75-1.296-10.75c-.348 0-6.47 5.85-13.604 13M729 430.996c-2.67 1.353-8.586 3.004-10.762 3.004-1.166 0-2.398.45-2.738 1s-2.166 1-4.059 1-3.441.45-3.441 1-1.013 1.007-2.25 1.015c-6.699.045-10.117 2.509-14.045 10.126-2.087 4.048-4.225 7.509-4.75 7.692-.525.184-.955.904-.955 1.602s-1.352 2.683-3.005 4.412-3.115 3.484-3.25 3.899-.616.63-1.069.479c-.454-.151-.585.113-.292.588.293.474-1.248 2.601-3.425 4.727-2.178 2.126-3.959 3.55-3.959 3.164s-1.854 1.098-4.121 3.297c-2.266 2.199-4.741 3.999-5.5 3.999-.758 0-1.379.374-1.379.831s-1.237 1.47-2.75 2.25-3.622 2.207-4.689 3.169c-1.066.962-2.528 1.75-3.25 1.75-.721 0-1.311.45-1.311 1s-.9 1-2 1-2 .373-2 .829c0 .957-9.995 5.796-11.198 5.421-.441-.137-.802.2-.802.75s-.59 1-1.312 1-3.175.9-5.452 2-4.81 2-5.629 2-1.767.45-2.107 1-1.69 1-3 1-2.66.45-3 1-1.626 1-2.859 1-2.676.435-3.207.966c-.532.532-2.422 1.077-4.2 1.213s-3.234.551-3.234.924-1.462.92-3.25 1.215-5.275 1.032-7.75 1.636c-6.116 1.492-15.074 2.98-23.556 3.912-3.88.427-7.48 1.025-8 1.33-4.607 2.704-62.802 2.61-73.944-.12-1.65-.404-5.448-.838-8.439-.963-2.992-.126-5.752-.422-6.134-.658-.381-.236-2.434-.667-4.56-.957-2.127-.291-5.483-1.02-7.458-1.621-2.915-.887-4.187-.785-6.75.541-1.738.898-3.159 1.365-3.159 1.036s-.711.114-1.581.984c-.869.869-1.994 1.325-2.5 1.012-.505-.312-.919-.091-.919.491s-.9 1.059-2 1.059-2 .45-2 1-.613 1-1.362 1-4.861 1.8-9.138 4-8.614 4-9.638 4-1.862.45-1.862 1-.9 1-2 1-2 .45-2 1-.707 1-1.571 1c-.865 0-2.251.679-3.081 1.509s-1.876 1.283-2.324 1.006c-.973-.602-2.147 2.029-1.288 2.887.328.329 1.422.598 2.431.598 1.008 0 1.833.45 1.833 1s1.35 1 3 1 3 .354 3 .787 1.433.897 3.184 1.03c1.75.134 3.663.623 4.25 1.087 1.005.796 3.14 1.322 10.816 2.664 1.788.313 4.15.96 5.25 1.438 1.1.479 3.8 1.135 6 1.459s6.475 1.033 9.5 1.576c41.784 7.498 95.808 6.717 137-1.983 2.475-.523 5.85-1.234 7.5-1.58s3.9-1.035 5-1.531 3.125-1.068 4.5-1.271 3.175-.602 4-.888c7.874-2.727 15.14-4.788 16.881-4.788 1.166 0 2.119-.352 2.119-.782s2.072-1.393 4.604-2.141 6.336-2.196 8.452-3.218c2.116-1.023 4.544-1.859 5.396-1.859.851 0 1.548-.45 1.548-1s.9-1 2-1 2-.45 2-1 .9-1 2-1 2-.45 2-1 .9-1 2-1 2-.45 2-1 .707-1 1.571-1c.865 0 2.251-.679 3.081-1.509s1.923-1.254 2.429-.941c.505.312.919.168.919-.322s1.237-1.529 2.75-2.309 3.622-2.207 4.689-3.169c1.066-.962 2.528-1.75 3.25-1.75.721 0 1.311-.374 1.311-.831s1.237-1.47 2.75-2.25 4.1-2.654 5.75-4.164 3.343-2.748 3.763-2.75c.996-.006 19.736-18.746 19.742-19.742.002-.42 1.24-2.126 2.75-3.792s2.891-3.691 3.07-4.5.741-1.621 1.25-1.804.925-.886.925-1.562c0-.675.788-2.118 1.75-3.205s1.886-2.593 2.052-3.345 1.178-3.181 2.25-5.399c1.071-2.217 1.948-4.821 1.948-5.785s.352-1.97.781-2.236.895-1.972 1.034-3.793c.139-1.82.687-3.744 1.219-4.276 1.131-1.131 1.319-13.24.216-13.889-.413-.242-1.425-.099-2.25.319m-505 4.068c-1.375.469-4.637 1.419-7.25 2.112s-4.75 1.612-4.75 2.042-.9.782-2 .782-2 .45-2 1-.64 1-1.423 1c-2.385 0-9.595 8.167-12.159 13.772-4.613 10.087-2.791 19.453 5.212 26.783 5.509 5.047 18.98 8.499 25.919 6.643 2.464-.659 5.572-1.198 6.906-1.198 1.335 0 2.705-.45 3.045-1s1.491-1 2.559-1 1.941-.45 1.941-1 .9-1 2-1 2-.477 2-1.059.375-.827.834-.543c1.244.768 10.648-8.428 13.249-12.956 2.897-5.044 3.279-16.148.736-21.442-1.608-3.35-7.819-10.193-7.819-8.616 0 .418-.711.048-1.581-.822-.869-.869-1.994-1.325-2.5-1.012-.505.312-.919.169-.919-.319 0-2.399-16.538-4.027-22-2.167m-2.672 9.974c-.455.437-1.728.945-2.828 1.128-1.1.184-2.229.635-2.509 1.004-.281.368-1.146.818-1.924 1-1.559.364-7.865 6.185-10.107 9.33l-1.426 2 2.483-2c1.366-1.1 2.708-2.285 2.983-2.634 1.073-1.36 8.155-4.866 9.83-4.866.974 0 2.297-.527 2.941-1.171 1.666-1.666 22.008-1.604 25.095.077 3.599 1.96 2.283-.851-1.435-3.065-3.101-1.847-21.354-2.481-23.103-.803m2.67 12.231C213.613 461.303 208 466.985 208 473.465c0 6.232 13.253 8.657 24.439 4.472 3.033-1.135 5.698-1.922 5.924-1.75.864.659 11.208-10.483 11.208-12.072 0-.92-1.028-2.688-2.285-3.929S245 458.182 245 458.49s-1.372-.148-3.049-1.016c-3.363-1.739-13.699-1.857-17.953-.205m529.19 2.293c-.721.817-1.171 2.937-1 4.712.286 2.961.6 3.226 3.812 3.226 3.466 0 3.503-.046 3.805-4.75.296-4.618.226-4.749-2.5-4.712-1.543.021-3.395.707-4.117 1.524M874.5 468c-.995 1.1-2.174 2-2.619 2s-3.838 2.912-7.54 6.471-6.899 6.304-7.104 6.099-3.155 2.262-6.555 5.482-6.514 5.881-6.921 5.913c-.406.032-3.329 2.528-6.496 5.547S831.218 505 830.863 505c-.354 0-3.492 2.676-6.972 5.948-3.481 3.271-6.484 5.792-6.673 5.603s-2.679 1.853-5.531 4.538c-2.853 2.685-5.52 4.893-5.927 4.907-.408.013-3.558 2.717-7 6.009s-6.587 5.987-6.987 5.99-3.272 2.47-6.382 5.482-6.057 5.229-6.548 4.926-.769-.181-.618.273c.151.453-.058.941-.465 1.084s-3.558 2.953-7 6.245-6.595 5.987-7.004 5.99c-.41.003-3.11 2.226-6 4.941s-5.699 5.078-6.241 5.25c-.542.173-3.427 2.679-6.411 5.569-2.985 2.891-5.609 5.073-5.833 4.849-.224-.223-3.33 2.362-6.902 5.745s-6.688 6.042-6.924 5.91c-.235-.133-2.432 1.679-4.882 4.026l-4.454 4.268-.48 30.973c-.264 17.036-.785 34.975-1.158 39.866l-.678 8.892 2.853-2.034c1.57-1.119 3.711-2.983 4.759-4.142s2.276-2.108 2.73-2.108 3.647-2.698 7.095-5.995 6.599-5.997 7-6c.402-.003 3.552-2.703 7-6s6.599-5.997 7-6c.402-.003 3.552-2.703 7-6s6.597-5.997 6.996-6c.4-.003 3.297-2.455 6.437-5.448s6.088-5.211 6.549-4.926.714.147.563-.307.058-.941.465-1.084 3.558-2.953 7-6.245 6.589-5.987 6.99-5.99c.402-.003 3.552-2.703 7-6s6.604-5.997 7.012-6 4.008-3.149 8-6.992 7.585-6.993 7.984-7c.4-.007 3.086-2.263 5.969-5.013s5.578-5 5.988-5 3.774-2.912 7.476-6.471 6.9-6.304 7.105-6.098 3.131-2.282 6.5-5.529 6.521-5.902 7.003-5.902c1.503 0 3.218-2.392 3.585-5 .194-1.375.757-3.258 1.25-4.184.494-.927.898-2.839.898-4.25s.45-2.566 1-2.566 1-1.548 1-3.441.45-3.719 1-4.059 1-1.941 1-3.559.45-2.941 1-2.941 1-1.312 1-2.917.42-3.066.933-3.25c2.322-.83 2.456-51.833.137-51.833-.418 0-1.575.9-2.57 2M377 491c-.749 2.75-1.73 5-2.181 5-.45 0-.819 1.35-.819 3s-.45 3-1 3-1 1.35-1 3-.477 3-1.059 3-.831.37-.551.822-.144 2.078-.941 3.614c-2.144 4.133-1.894 7.564.551 7.564 1.1 0 2 .45 2 1s1.098 1 2.441 1 2.719.45 3.059 1 1.491 1 2.559 1 1.941.45 1.941 1 .9 1 2 1 2 .477 2 1.059.356.839.79.57c.435-.268 2.28.233 4.1 1.115 3.266 1.582 3.417 1.546 11.711-2.738 4.62-2.386 9.076-4.339 9.9-4.339s1.499-.375 1.499-.834.9-.833 2-.833 2-.45 2-1 .9-1 2-1 2-.45 2-1 .9-1 2-1 2-.45 2-1 .9-1 2-1 2-.42 2-.933.978-1.243 2.173-1.622l2.173-.69-2.423-1.342c-1.333-.738-3.211-1.358-4.173-1.378s-1.75-.512-1.75-1.094-.337-.86-.75-.617c-.413.242-1.875-.023-3.25-.589-1.375-.567-3.39-1.202-4.479-1.411s-2.415-.818-2.95-1.353c-.534-.534-1.781-.971-2.771-.971s-1.8-.375-1.8-.833c0-.459-.656-.834-1.457-.834-2.108 0-18.543-8.452-18.543-9.537 0-.503-.414-.658-.919-.346s-1.536.002-2.289-.691c-5.515-5.071-8.165-4.735-9.792 1.241m360.612-1.924c-1.225 2.456-1.292 3.463-.333 5 2.713 4.343 8.721.692 8.721-5.299 0-4.31-6.198-4.09-8.388.299m-589.06 3.174c-.267 1.238-.732 8.325-1.032 15.75s-.809 19.746-1.131 27.381c-.58 13.713-.558 13.906 1.799 16 1.312 1.165 3.044 2.265 3.849 2.444s1.613.741 1.796 1.25 1.196.925 2.25.925 1.924.337 1.933.75c.008.413 2.258 1.851 5 3.197s4.984 2.808 4.984 3.25.862.803 1.917.803c1.054 0 2.066.339 2.25.754.183.415 3.37 2.283 7.083 4.15s6.75 3.778 6.75 4.246c0 .467.9.85 2 .85s2 .45 2 1 .9 1 2 1 2 .344 2 .764 1.912 1.646 4.25 2.723a771 771 0 0 1 5 2.319c.412.199.75-7.917.75-18.034 0-17.096.143-18.549 2.028-20.571 3.571-3.833 6.118-3.714 15.175.711 4.602 2.248 8.914 4.088 9.582 4.088s1.215.45 1.215 1 .9 1 2 1 2 .45 2 1 .9 1 2 1 2 .45 2 1 .9 1 2 1 2 .45 2 1 .9 1 2 1 2 .45 2 1 .9 1 2 1 2 .45 2 1 .787 1.011 1.75 1.025 5.345 1.814 9.739 4 8.556 3.975 9.25 3.975 1.261.477 1.261 1.059.414.803.919.491 1.529-.002 2.274.691c.745.692 2.015 1.408 2.821 1.589.807.182 1.696.632 1.977 1 .28.369 1.087.788 1.792.931s5.903 2.506 11.549 5.25S306.138 584 306.798 584s1.202.45 1.202 1 .9 1 2 1 2 .45 2 1 .9 1 2 1 2 .45 2 1 .9 1 2 1 2 .45 2 1 .9 1 2 1 2 .45 2 1 .788 1.014 1.75 1.031c.962.018 4.439 1.368 7.725 3 3.286 1.633 6.548 2.969 7.25 2.969.701 0 1.275.45 1.275 1s.9 1 2 1 2 .477 2 1.059.414.803.919.491 1.529-.002 2.274.691c.745.692 2.015 1.408 2.821 1.589.807.182 1.696.632 1.977 1 .28.369 1.049.775 1.708.903s4.002 1.591 7.427 3.25c3.426 1.659 6.824 3.017 7.551 3.017s1.323.45 1.323 1 .9 1 2 1 2 .45 2 1 .9 1 2 1 2 .45 2 1 .9 1 2 1 2 .375 2 .833c0 .459.563.839 1.25.846.688.006 6.899 2.781 13.804 6.166 6.904 3.385 13.092 6.155 13.75 6.155s1.196.45 1.196 1 .9 1 2 1 2 .45 2 1 .9 1 2 1 2 .45 2 1 .788 1.009 1.75 1.021 6.248 2.262 11.745 5 10.56 4.979 11.25 4.979 1.255.45 1.255 1 .9 1 2 1 2 .45 2 1 .9 1 2 1 2 .45 2 1 .9 1 2 1 2 .45 2 1 .788 1.011 1.75 1.025 5.345 1.814 9.739 4 8.556 3.975 9.25 3.975 1.261.45 1.261 1 .9 1 2 1 2 .45 2 1 .9 1 2 1 2 .477 2 1.059.414.803.919.491 1.631.143 2.5 1.012c.87.87 1.581 1.254 1.581.854 0-.399.889.079 1.976 1.063 1.087.983 1.736 2.178 1.441 2.655s-.058.866.524.866c.715 0 1.059 7.467 1.059 22.961 0 22.333.06 23.017 2.189 25 1.203 1.121 3.003 2.039 4 2.039s1.811.45 1.811 1 1.098 1 2.441 1 2.719.45 3.059 1 1.491 1 2.559 1 1.941.45 1.941 1 .697 1 1.548 1 3.411.9 5.688 2 4.527 2 5 2 2.723.9 5 2 4.73 2 5.452 2 1.312.45 1.312 1 1.098 1 2.441 1 2.719.45 3.059 1 1.491 1 2.559 1 1.941.477 1.941 1.059.37.831.822.551 2.078.144 3.614.941 3.196 1.449 3.689 1.449 2.804.866 5.136 1.924c2.331 1.059 5.759 2.232 7.616 2.608l3.378.683-.648-9.358c-.356-5.146-1.058-20.382-1.56-33.857-1.125-30.229-1.078-30-6.164-30-2.292 0-3.883-.478-3.883-1.167 0-.641-.279-.888-.619-.547-.737.737-14.557-6.045-15.616-7.663-.404-.618-.741-.716-.75-.218-.008.498-.803.258-1.765-.532s-3.775-2.514-6.25-3.83-4.725-2.652-5-2.968-6.125-3.447-13-6.957-12.725-6.669-13-7.02-3.538-2.159-7.25-4.018-6.75-3.762-6.75-4.23c0-.467-.9-.85-2-.85s-2-.477-2-1.059-.414-.803-.919-.491-1.529.002-2.274-.691c-.745-.692-2.019-1.405-2.831-1.584s-1.626-.741-1.809-1.25-1.196-.925-2.25-.925-1.917-.45-1.917-1-.9-1-2-1-2-.45-2-1-.863-1-1.917-1-2.066-.337-2.25-.75c-.183-.413-4.27-2.764-9.083-5.224-4.812-2.461-8.75-4.85-8.75-5.309s-.414-.579-.919-.267c-.506.313-1.529.002-2.274-.691-.745-.692-2.019-1.405-2.831-1.584s-1.627-.744-1.811-1.256c-.185-.512-.711-.7-1.17-.416-.458.283-1.443-.051-2.188-.744-.745-.692-2.019-1.405-2.831-1.584s-1.626-.741-1.809-1.25-1.196-.925-2.25-.925-1.917-.45-1.917-1-.9-1-2-1-2-.477-2-1.059-.414-.803-.919-.491-1.529.002-2.274-.691c-.745-.692-2.015-1.408-2.821-1.589-.807-.182-1.696-.646-1.977-1.031-.792-1.09-33.352-17.149-34.759-17.144-.687.003-1.25-.445-1.25-.995s-.9-1-2-1-2-.45-2-1-.9-1-2-1-2-.375-2-.833c0-.459-.586-.834-1.302-.834s-6.918-2.775-13.781-6.166S347.889 570 347.219 570s-1.219-.45-1.219-1-.788-1.014-1.75-1.031c-.962-.018-4.439-1.368-7.725-3-3.286-1.633-6.548-2.969-7.25-2.969-.701 0-1.275-.45-1.275-1s-.9-1-2-1-2-.375-2-.833c0-.459-.562-.834-1.25-.835s-4.168-1.426-7.735-3.167-7.054-3.165-7.75-3.165-1.265-.375-1.265-.833c0-.459-.562-.838-1.25-.844-.687-.005-3.247-.98-5.688-2.166-2.441-1.187-5.028-2.157-5.75-2.157s-1.312-.477-1.312-1.059-.414-.803-.919-.491-1.519.002-2.25-.691c-.732-.692-2.155-1.4-3.162-1.571-1.006-.172-3.383-1.185-5.28-2.25-1.897-1.066-3.908-1.938-4.468-1.938s-2.88-.9-5.157-2-4.527-2-5-2-2.723-.9-5-2-4.73-2-5.452-2-1.312-.477-1.312-1.059-.37-.831-.822-.551-2.078-.144-3.614-.941-3.416-1.449-4.178-1.449-1.386-.477-1.386-1.059-.37-.831-.822-.551-2.078-.144-3.614-.941-3.416-1.449-4.178-1.449-1.386-.45-1.386-1-1.098-1-2.441-1-2.719-.45-3.059-1-1.288-1-2.107-1-3.221-.836-5.337-1.859c-2.116-1.022-5.919-2.47-8.452-3.218-2.532-.748-4.604-1.711-4.604-2.141s-1.098-.782-2.441-.782-2.719-.45-3.059-1-1.491-1-2.559-1-1.941-.45-1.941-1-1.098-1-2.441-1-2.664-.361-2.937-.802-2.774-1.422-5.559-2.181c-2.784-.758-5.063-1.747-5.063-2.198s-1.098-.819-2.441-.819-2.719-.45-3.059-1-1.69-1-3-1-2.66-.45-3-1-1.288-1-2.107-1-3.352-.9-5.629-2-4.929-2-5.893-2-2.031-.45-2.371-1c-1.233-1.995-5.438-1.112-5.948 1.25m565.372 21.005c-1.838 1.451-3.023 5.323-2.249 7.341.581 1.512 6.325 1.985 6.325.521 0-.486.931-1.127 2.069-1.425 3.614-.945 2.312-7.12-1.569-7.437-1.65-.135-3.709.315-4.576 1M364 530.481c0 .835-.45 1.519-1 1.519s-1 1.548-1 3.441-.4 3.688-.89 3.991c-.489.302-1.077 2.158-1.306 4.125-.377 3.228-.218 3.513 1.639 2.937 1.131-.352 2.62-.681 3.307-.733.688-.052 1.25-.469 1.25-.928 0-.458.9-.833 2-.833s2-.45 2-1 .661-1 1.47-1c1.214 0 5.185-1.904 9.93-4.761.962-.58-10.841-6.631-14.941-7.66-1.804-.453-2.459-.212-2.459.902M682 537c0 .55-.653 1-1.45 1-1.991 0-3.33 2.699-2.777 5.595.52 2.719 3.415 3.188 7.68 1.244 2.086-.95 2.547-1.856 2.547-5 0-3.599-.188-3.839-3-3.839-1.65 0-3 .45-3 1m-468 48.55c0 27.585.262 34.055 1.472 36.396 1.393 2.694 10.194 8.054 13.224 8.054.717 0 1.304.45 1.304 1s.9 1 2 1 2 .45 2 1 .9 1 2 1 2 .477 2 1.059.414.803.919.491 1.599.111 2.429.941 2.216 1.509 3.081 1.509 1.571.477 1.571 1.059.414.803.919.491 1.529-.002 2.274.691c.745.692 2.011 1.406 2.813 1.586s8.69 3.893 17.53 8.25c8.839 4.358 16.61 7.923 17.268 7.923s1.196.45 1.196 1 .9 1 2 1 2 .477 2 1.059.414.803.919.491 1.529-.002 2.274.691c.745.692 2.015 1.408 2.821 1.589.807.182 1.696.632 1.977 1 .28.369 1.184.816 2.009.995s1.65.741 1.833 1.25 1.196.925 2.25.925 1.917.477 1.917 1.059.375.828.832.545c.458-.283 7.534 2.84 15.724 6.941 8.19 4.1 15.465 7.455 16.167 7.455s1.277.45 1.277 1 .9 1 2 1 2 .45 2 1 .9 1 2 1 2 .45 2 1 .9 1 2 1 2 .45 2 1 .9 1 2 1 2 .45 2 1 .9 1 2 1 2 .45 2 1 .9 1 2 1 2 .45 2 1 1.125 1 2.5 1 2.5.45 2.5 1 .613 1 1.362 1 4.861 1.8 9.138 4 8.389 4 9.138 4 1.362.45 1.362 1 .9 1 2 1 2 .477 2 1.059.414.803.919.491 1.599.111 2.429.941 2.216 1.509 3.081 1.509 1.571.45 1.571 1 .9 1 2 1 2 .45 2 1 .788 1.001 1.75 1.002 8.022 3.151 15.688 7S439.967 732 440.688 732s1.312.45 1.312 1 .9 1 2 1 2 .45 2 1 .9 1 2 1 2 .45 2 1 .9 1 2 1 2 .45 2 1 .9 1 2 1 2 .45 2 1 .9 1 2 1 2 .45 2 1 .681 1 1.514 1c.832 0 2.295.405 3.25.899 6.583 3.41 22.871 11.114 23.486 11.108.413-.004.75-16.377.75-36.385 0-31.447-.208-36.549-1.531-37.648-2.241-1.859-14.634-7.974-16.162-7.974-.719 0-1.307-.477-1.307-1.059s-.414-.803-.919-.491-1.599-.111-2.429-.941-2.216-1.509-3.081-1.509-1.571-.45-1.571-1-.788-1.009-1.75-1.021-6.248-2.262-11.745-5-10.56-4.979-11.25-4.979-1.255-.45-1.255-1-.9-1-2-1-2-.477-2-1.059-.414-.803-.919-.491-1.529.002-2.274-.691c-.745-.692-2.019-1.405-2.831-1.583s-5.991-2.54-11.509-5.25S405.886 642 405.217 642s-1.217-.45-1.217-1-.9-1-2-1-2-.477-2-1.059-.414-.803-.919-.491-1.529.002-2.274-.691c-.745-.692-1.921-1.377-2.614-1.52s-5.879-2.506-11.525-5.25S371.862 626 371.202 626s-1.202-.477-1.202-1.059-.414-.803-.919-.491-1.599-.111-2.429-.941-2.216-1.509-3.081-1.509-1.571-.477-1.571-1.059-.414-.803-.919-.491-1.529.002-2.274-.691c-.745-.692-1.905-1.371-2.578-1.508s-4.936-2.05-9.472-4.25c-4.537-2.201-8.813-4.001-9.503-4.001s-1.254-.45-1.254-1-.9-1-2-1-2-.477-2-1.059-.414-.803-.919-.491-1.529.002-2.274-.691c-.745-.692-2.015-1.408-2.821-1.589-.807-.182-1.696-.632-1.977-1-.28-.369-1.184-.819-2.009-1.002-.825-.182-4.193-1.645-7.485-3.25s-6.554-2.918-7.25-2.918-1.265-.45-1.265-1-.9-1-2-1-2-.477-2-1.059-.414-.803-.919-.491-1.529.002-2.274-.691c-.745-.692-2.015-1.408-2.821-1.589-.807-.182-1.696-.632-1.977-1-.28-.369-1.056-.777-1.724-.908s-7.667-3.394-15.553-7.25c-7.887-3.857-14.878-7.012-15.536-7.012s-1.196-.477-1.196-1.059-.414-.803-.919-.491-1.599-.111-2.429-.941-2.216-1.509-3.081-1.509-1.571-.375-1.571-.833c0-.459-.562-.834-1.25-.835s-4.168-1.426-7.735-3.167-7.054-3.165-7.75-3.165-1.265-.45-1.265-1-.9-1-2-1-2-.45-2-1-.9-1-2-1-2-.477-2-1.059-.414-.803-.919-.491-1.631-.143-2.5-1.012c-.87-.87-1.581-1.312-1.581-.984s-1.328-.089-2.95-.928-3.198-1.526-3.5-1.526-.55 15.097-.55 33.55m426.75-29.889c-2.188 1.152-2.75 2.153-2.75 4.894 0 3.22.212 3.445 3.25 3.444 3.187-.001 8.75-3.632 8.75-5.71 0-1.462-3.451-4.304-5.079-4.183-.781.058-2.658.758-4.171 1.555M147.73 567.25c.297 2.337.916 4.73 1.375 5.316.459.587.944 2.5 1.078 4.25.133 1.751.737 3.184 1.341 3.184s2.065.9 3.246 2c1.18 1.1 2.84 2 3.688 2s1.542.45 1.542 1 .863 1 1.917 1 2.066.337 2.25.75c.183.413 2.47 1.833 5.083 3.157s4.75 2.813 4.75 3.309.419.643.931.327c.512-.317 1.206-.13 1.542.414s2.168 1.728 4.069 2.63c1.902.903 3.458 2.04 3.458 2.527s.9.886 2 .886 2 .477 2 1.059.414.803.919.491 1.519.001 2.25.697c.732.695 3.468 2.345 6.081 3.666s4.75 2.781 4.75 3.244.45.843 1 .843c.593 0 1-3.686 1-9.059 0-5.255-.386-8.82-.919-8.491-.506.313-1.529.002-2.274-.691-.745-.692-2.015-1.408-2.821-1.589-.807-.182-1.696-.635-1.977-1.008-.28-.372-3.546-2.244-7.259-4.159s-6.75-3.851-6.75-4.301-.414-.564-.919-.252c-.506.313-1.599-.111-2.429-.941S176.473 578 175.655 578s-1.638-.337-1.822-.75c-.183-.413-2.47-1.833-5.083-3.157s-4.75-2.813-4.75-3.309-.414-.646-.919-.334c-.506.313-1.599-.111-2.429-.941S158.473 568 157.655 568s-1.638-.337-1.822-.75c-.429-.967-6.333-4.25-7.642-4.25-.595 0-.782 1.722-.461 4.25m75.416 6.357c-3.121 3.53-1.239 38.393 2.072 38.393.43 0 .782.65.782 1.444 0 1.882 12.674 14.556 14.556 14.556.794 0 1.444.34 1.444.757 0 1.306 7.752 3.243 12.984 3.243 2.759 0 5.016-.34 5.016-.756s1.267-1.317 2.816-2.002c1.549-.686 3.798-3.088 5-5.339 4.4-8.244 2.268-35.261-2.696-34.153-.616.138-1.12-.157-1.12-.654 0-1.071-28.347-15.096-30.511-15.096-.819 0-1.489-.45-1.489-1 0-1.59-7.358-1.085-8.854.607m7.455 10.23c-.997 1.613-.51 18.163.535 18.163.475 0 .864.726.864 1.614 0 4.815 6.316 12.744 12.853 16.136 3.707 1.924 13.147 3.239 13.147 1.832 0-.23.273-1.13.607-2 .484-1.261-.119-1.582-2.97-1.582-5.925 0-19.637-10.107-19.637-14.474 0-.839-.45-1.526-1-1.526-.581 0-1-3.27-1-7.809 0-7.683-1.752-13.02-3.399-10.354m328.028.954c-.269.435-2.194.906-4.278 1.046-2.085.14-4.029.591-4.32 1.001s-2.432 1.358-4.755 2.105c-2.323.748-5.088 2.165-6.144 3.148-1.055.984-2.108 1.6-2.339 1.369-.751-.751-7.656 6.362-10.408 10.722-2.349 3.721-2.69 5.307-2.737 12.717-.037 5.748.332 8.594 1.149 8.867.662.22 1.203.993 1.203 1.716 0 2.029 9.404 11.159 13.155 12.772 7.864 3.382 11.641 4.031 23.167 3.985 7.22-.029 12.317-.478 12.982-1.143.603-.603 2.136-1.096 3.407-1.096 2.844 0 11.289-3.867 11.289-5.169 0-.522.428-.685.95-.362 1.415.875 11.805-9.946 13.543-14.105 1.693-4.052 2.058-16.906.507-17.864-.55-.34-1-1.305-1-2.145 0-1.864-10.728-12.355-12.634-12.355-.751 0-1.366-.34-1.366-.757 0-.905-7.155-3.243-9.925-3.243-1.076 0-2.235-.45-2.575-1-.727-1.176-18.154-1.369-18.871-.209m-317.152 8.87c1.052 8.419 5.65 14.658 12.594 17.089 5.85 2.048 5.931 1.958 5.904-6.5l-.026-7.75-6.744-3.25c-3.709-1.788-7.298-3.25-7.974-3.25s-1.231-.45-1.231-1-.727-1-1.615-1c-1.38 0-1.512.824-.908 5.661M570 596.13c1.925 1.167 3.725 2.403 4 2.746s1.4 1.111 2.5 1.706 2.444 2.057 2.987 3.25c.543 1.192 1.331 2.168 1.75 2.168s.763.873.763 1.941.45 2.219 1 2.559c1.458.901 1.301 15.5-.167 15.5-.641 0-.882.284-.535.631s.163 1.507-.409 2.576c-.937 1.751-.834 1.834 1.035.834 1.142-.611 2.076-.852 2.076-.536 0 .317 1.207-.543 2.682-1.911s3.12-2.217 3.655-1.886.702.163.371-.371c-.331-.535.5-2.16 1.846-3.611 1.345-1.451 2.446-3.468 2.446-4.482s.472-2.316 1.048-2.892c1.034-1.034.642-2.544-2.423-9.352-1.202-2.671-3.625-5.623-3.625-4.416 0 .399-.788.074-1.75-.722-1.689-1.398-3.604-2.348-9.547-4.737-1.538-.619-5.138-1.123-8-1.121l-5.203.003zm-26.25 7.416c-1.513.835-2.75 1.264-2.75.953s-1.488.922-3.306 2.74c-5.265 5.265-6.529 9.482-4.269 14.244 1.579 3.328 8.216 9.805 10.602 10.347.8.182 1.722.764 2.049 1.294.909 1.47 16.377 1.217 19.027-.313 3.148-1.817 8.339-7.123 8.675-8.867.154-.794.779-2.432 1.39-3.639 1.136-2.244-.87-8.385-3.211-9.832-.544-.336-.731-1.03-.414-1.542.316-.512-.153-.931-1.043-.931-.968 0-1.332-.464-.905-1.155.423-.684.277-.884-.36-.49-.591.365-1.753-.016-2.583-.846S564.436 604 563.571 604s-1.571-.387-1.571-.859c0-1.576-15.274-1.237-18.25.405m-251.13 2.934-2.881 2.477.178 14.769c.098 8.123.606 15.197 1.13 15.721s.953 1.763.953 2.753.45 1.8 1 1.8 1 .59 1 1.311c0 .722.918 2.297 2.039 3.5 1.121 1.204 1.708 2.189 1.304 2.189-.405 0 .791 1.575 2.657 3.5s3.979 3.5 4.696 3.5 1.304.379 1.304.843 2.016 1.879 4.48 3.147c4.669 2.401 17.951 3.366 19.37 1.407.358-.493 1.55-1.384 2.65-1.979s2.444-2.057 2.987-3.25c.543-1.192 1.331-2.168 1.75-2.168s.763-1.104.763-2.453.497-3.545 1.105-4.879c2.923-6.415-2.396-29.46-6.25-27.078-.47.29-.855.051-.855-.531s-.9-1.059-2-1.059-2-.45-2-1-.9-1-2-1-2-.45-2-1-.9-1-2-1-2-.45-2-1-.567-1-1.261-1-4.856-1.789-9.25-3.975-8.75-3.986-9.68-4-1.969-.475-2.309-1.025c-.92-1.488-1.708-1.249-4.88 1.48m5.38 17.086c0 4.161.453 8.412 1.007 9.447s1.102 3.03 1.218 4.434.487 2.553.824 2.553 1.252 1.237 2.032 2.75c1.619 3.138 5.411 7.25 6.685 7.25.471 0 1.729.79 2.795 1.756 4.84 4.383 15.412 4.379 15.431-.006.007-1.434-.894-1.75-4.992-1.75-2.75 0-5-.45-5-1s-.9-1-2-1-2-.45-2-1-.597-1-1.326-1-2.382-1.125-3.674-2.5-1.976-2.5-1.521-2.5-.142-.84-1.326-1.867-2.153-2.602-2.153-3.5-.45-1.633-1-1.633c-.593 0-1-3.667-1-9 0-8.333-.148-9-2-9-1.824 0-2 .667-2 7.566m11.521 2.684c.851 6.301 1.719 8.087 5.906 12.147 4.41 4.277 6.985 5.603 10.881 5.603 3.309 0 3.336-.039 3.565-5.049.359-7.875-.147-8.536-10.321-13.451-5.122-2.475-9.634-4.5-10.026-4.5-.393 0-.395 2.362-.005 5.25m52.385 13.032c-.876.67-2.001 2.943-2.5 5.051-1.185 5.013.041 28.983 1.507 29.471.605.202.868.742.584 1.201-.283.458.051 1.443.744 2.188.692.745 1.4 1.99 1.571 2.767.172.778 1.072 2.123 2 2.991.929.867 2.168 2.441 2.755 3.496s1.93 2.399 2.986 2.986c1.055.587 2.653 1.855 3.55 2.817s2.366 1.75 3.264 1.75 1.633.34 1.633.757c0 1.306 7.752 3.243 12.984 3.243 2.759 0 5.016-.45 5.016-1s.563-1.001 1.25-1.001c1.673-.002 6.546-4.259 6.938-6.062.171-.79.627-1.674 1.011-1.965 1.26-.95 2.071-13.601 1.359-21.193-.731-7.802-3.428-12.779-6.924-12.779-.899 0-1.634-.45-1.634-1s-.9-1-2-1-2-.45-2-1-.9-1-2-1-2-.45-2-1-.9-1-2-1-2-.45-2-1-.59-1-1.312-1-3.309-.97-5.75-2.157c-2.441-1.186-5-2.161-5.688-2.166-.687-.006-1.25-.385-1.25-.844s-.9-.833-2-.833-2-.45-2-1c0-1.404-6.169-1.189-8.094.282m6.109 17.385c.023 12.608 6.724 27.333 12.44 27.333.85 0 1.549.337 1.553.75.029 2.831 12.05 4.335 14.563 1.821 2.128-2.127 1.781-2.571-2.012-2.571-1.893 0-3.719-.45-4.059-1s-1.677-1-2.972-1c-2.687 0-14.989-11.445-14.008-13.032.329-.532.183-.968-.324-.968-1.136 0-3.112-10.257-2.872-14.905.102-1.968-.351-3.585-1.074-3.833-.931-.319-1.246 1.571-1.235 7.405m9.985.873c0 6.825 5.015 14.045 12.649 18.21 7.805 4.259 9.795 2.669 9.163-7.316l-.312-4.934-9-4.651c-11.305-5.841-12.5-5.967-12.5-1.309m322.535 12.564c-1.944 1.707-3.535 2.842-3.535 2.522s-2.348 1.659-5.219 4.396c-2.87 2.738-5.559 4.978-5.976 4.978s-3.117 2.25-6 5-5.596 5-6.027 5-2.921 2.022-5.532 4.494c-2.61 2.472-5.032 4.497-5.382 4.5s-3.274 2.481-6.499 5.506-6.19 5.5-6.59 5.5-3.087 2.25-5.97 5-5.583 5-6 5-3.117 2.25-6 5-5.573 5-5.977 5-3.245 2.362-6.312 5.25-5.676 5.045-5.797 4.793-2.244 1.418-4.719 3.708-4.832 4.189-5.239 4.218c-.406.03-3.291 2.526-6.411 5.548s-5.873 5.294-6.117 5.049c-.245-.245-1.551.662-2.904 2.014s-2.879 2.198-3.394 1.88c-.514-.318-.935-.101-.935.481 0 1.347-8.671 1.401-9.5.059-.34-.55-1.941-1-3.559-1s-2.941-.45-2.941-1-1.098-1-2.441-1-2.664-.361-2.937-.802-2.774-1.422-5.559-2.181c-2.784-.758-5.063-1.666-5.063-2.017s-2.25-1.251-5-2-5-1.757-5-2.24-.37-.65-.822-.37c-.452.279-2.078-.144-3.614-.941S534.148 750 533.386 750s-1.386-.45-1.386-1-.697-1-1.548-1-3.411-.9-5.688-2-4.51-2-4.963-2c-.452 0-2.73-.85-5.062-1.889-7.639-3.405-12.978-5.206-13.598-4.586-.335.335-.778 3.961-.985 8.057-.4 7.914.554 10.418 3.966 10.418 1.033 0 1.878.369 1.878.819 0 .451 2.25 1.432 5 2.181s5 1.73 5 2.181c0 .45.697.819 1.548.819s3.411.9 5.688 2 4.73 2 5.452 2 1.312.375 1.312.833c0 .459.563.838 1.25.844.688.005 3.247.98 5.688 2.166 2.441 1.187 5.028 2.157 5.75 2.157s1.312.477 1.312 1.059.414.803.919.491 1.599.111 2.429.941S549.763 776 550.87 776s2.29.45 2.63 1 1.491 1 2.559 1 1.941.45 1.941 1 .9 1 2 1 2 .45 2 1 .68 1 1.511 1 3.557.962 6.058 2.138c5.146 2.418 7.245 1.863 12.812-3.388 1.604-1.513 3.298-2.75 3.765-2.75s2.51-1.566 4.539-3.48 3.868-3.301 4.087-3.082 2.018-1.131 4-3c1.981-1.869 3.783-3.216 4.005-2.995s1.779-.912 3.461-2.52 3.446-2.923 3.919-2.923c.474 0 2.274-1.35 4-3 1.727-1.65 3.527-3 4-3 .474 0 2.274-1.35 4-3 1.727-1.65 3.547-3 4.046-3 .498 0 2.344-1.348 4.101-2.995s3.759-2.998 4.446-3c.688-.003 1.25-.379 1.25-.836s1.23-1.47 2.733-2.25 4.045-2.656 5.648-4.169c1.604-1.513 3.319-2.75 3.813-2.75.493 0 2.031-1.134 3.416-2.519 1.386-1.386 3.01-2.216 3.609-1.846.652.404.803.21.376-.48-.392-.635-.24-1.155.338-1.155s2.14-.946 3.47-2.103c1.33-1.156 2.796-2.163 3.258-2.238.461-.074 2.375-1.584 4.253-3.355 1.877-1.771 3.79-2.987 4.25-2.703s.839.153.843-.292 1.691-1.934 3.75-3.309 4.615-3.288 5.682-4.25c1.066-.962 2.324-1.75 2.795-1.75s1.991-1.134 3.376-2.519c1.386-1.386 3.01-2.216 3.609-1.846.652.404.803.21.376-.48-.392-.635-.24-1.155.338-1.155s2.14-.946 3.47-2.103c1.33-1.156 2.592-1.944 2.803-1.75.212.194 1.532-.794 2.933-2.195 2.375-2.375 2.586-3.379 3.11-14.75.309-6.711.396-12.202.192-12.202s-1.962 1.397-3.906 3.104m-268.322 2.711c-2.101 1.823-2.213 2.681-2.213 16.993 0 8.971.405 15.324 1 15.692.55.34 1 1.491 1 2.559s.45 1.941 1 1.941 1 .9 1 2 .45 2 1 2 1 .579 1 1.288c0 1.371 9.03 10.712 10.356 10.712.433 0 1.466.679 2.296 1.509s1.923 1.254 2.429.941c.505-.312.919-.201.919.248 0 1.021 7.156 3.302 10.362 3.302 6.186 0 13.469-5.267 16.148-11.677 2.442-5.845 2.043-23.097-.65-28.143-2.075-3.888-8.801-8.513-12.378-8.513-.815 0-1.482-.375-1.482-.834s-.9-.833-2-.833-2-.45-2-1-.9-1-2-1-2-.45-2-1-.629-1-1.398-1c-.77 0-3.876-1.303-6.904-2.896-7.636-4.016-12.64-4.756-15.485-2.289m6.394 10.767c-1.396 3.638.562 21.002 2.53 22.427.386.281.851 1.162 1.033 1.958 1.113 4.884 14.192 14.033 20.061 14.033 5.421 0 9.126-5.283 3.929-5.602-.913-.056-3.263-.169-5.221-.25-2.033-.084-4.502-1.023-5.75-2.187-1.204-1.121-2.189-1.708-2.189-1.304 0 .405-1.575-.791-3.5-2.657s-3.5-3.979-3.5-4.696-.395-1.304-.879-1.304c-1.702 0-3.33-5.989-3.317-12.209.019-8.908-1.466-12.72-3.197-8.209m10.681 8.199c.866 7.314.91 7.409 5.747 12.373 4.407 4.521 11.628 7.79 13.988 6.332.537-.332.977-3.535.977-7.116 0-6.462-.888-8.496-4.014-9.2-.807-.182-1.696-.632-1.977-1-.28-.369-1.022-.766-1.65-.884s-3.636-1.355-6.686-2.75c-7.182-3.285-7.046-3.332-6.385 2.245"/></svg>