<svg xmlns="http://www.w3.org/2000/svg" viewBox="0 0 1024 1024"><path fill="#00e5cc" d="M370.607 57.582c-1.283 3.343-.645 4.418 2.643 4.45 3.074.03 3.145.111 1.309 1.5-1.068.807-1.518 1.537-1 1.62.517.084 1.391.217 1.941.297s2.023.707 3.274 1.395c1.87 1.03 2.532.993 3.732-.207.806-.807 2.473-1.242 3.726-.974 1.248.266.306-.449-2.091-1.589-2.398-1.141-5.082-2.074-5.964-2.074-1.409 0-1.388-.214.17-1.75 1.679-1.655 1.845-1.656 3.055-.027.731.985 2.171 1.552 3.36 1.323 1.207-.233 2.317.218 2.646 1.074.311.81 1.134 1.399 1.829 1.308 2.689-.352 4.763.115 4.763 1.072 0 .55-1.152 1-2.559 1-1.495 0-2.295.427-1.925 1.027.722 1.168 3.665.912 4.62-.402.35-.481 1.813-.875 3.25-.875s2.614-.426 2.614-.947-1.012-.846-2.25-.723c-1.238.122-3.525-.299-5.084-.936s-3.199-.933-3.645-.657-1.069-.171-1.385-.993c-.315-.822-1.525-1.494-2.688-1.494-2.803 0-1.991-2.252 1.126-3.123 2.389-.667 2.384-.679-.324-.777-1.512-.055-2.75.35-2.75.9s-1.35 1-3 1-3-.45-3-1-.505-1-1.122-1c-.779 0-.744.456.114 1.49 1.023 1.233.829 1.644-1.128 2.383q-4.498 1.698-3.337-1.957c.73-2.3-.056-2.586-.92-.334M359 59.2c.55.66 1 1.812 1 2.559s-.45 1.081-1 .741-1-.19-1 .334.67 1.209 1.488 1.523c.85.326 1.386.061 1.25-.619-.131-.655.825-1.352 2.123-1.548 1.641-.249 2.213.049 1.875.976-.267.734-1.026 1.21-1.685 1.059-.66-.151-.915.187-.566.75.348.564 1.281 1.025 2.074 1.025 1.754 0 1.856 1.185.241 2.8-.854.854-.873 1.2-.067 1.2 1.401 0 2.333-2.829 1.811-5.5-.215-1.1-.425-2.562-.467-3.25-.043-.687-1.337-1.25-2.877-1.25s-3.34-.45-4-1c-.873-.727-.927-.673-.2.2m-213 2.3c0 .825.45 1.5 1 1.5s1-.675 1-1.5-.45-1.5-1-1.5-1 .675-1 1.5m23.639 4.27c-.932 5.633-.766 11.426.308 10.763.535-.331 1.107 1.71 1.315 4.691.202 2.902.451.015.553-6.415.182-11.522-.973-16.32-2.176-9.039M378 64.427c0 .927.855 1.573 2.083 1.573 2.437 0 2.093-2.337-.416-2.823-.987-.192-1.667.318-1.667 1.25M350.5 65c-.34.55.057 1 .882 1s1.778-.45 2.118-1-.057-1-.882-1-1.778.45-2.118 1m-202.301 3c0 1.925.361 4.625.801 6 .725 2.262.801 2.167.801-1 0-1.925-.361-4.625-.801-6-.725-2.262-.801-2.167-.801 1m208.601-.8c.933.933 1.467.933 2.4 0s.667-1.2-1.2-1.2-2.133.267-1.2 1.2M414 67c0 .55-1.35 1-3 1s-3 .45-3 1-1.35 1-3 1-3 .45-3 1-1.35 1-3 1-3 .45-3 1-1.098 1-2.441 1-2.719.45-3.059 1-1.498 1-2.573 1-2.736.412-3.691.917c-.955.504-3.206 1.461-5.002 2.128l-3.266 1.211.05 52.807c.049 52.249.071 52.806 2.058 52.656 1.957-.147 2.004-.779 1.855-24.685-.185-29.682-.426-27.034 2.462-27.034 3.473 0 3.607.954 3.607 25.598v22.434l2.75-.213 2.75-.214.354-14.552c.354-14.56.946-17.053 4.048-17.053.911 0 2.305-.9 3.098-2 1.027-1.425 2.6-2.004 5.471-2.015 2.216-.008 5.829-.699 8.029-1.536 2.2-.836 4.788-1.782 5.75-2.102 1.626-.539 1.75-3.272 1.75-38.464V66h-3c-1.65 0-3 .45-3 1m-31 2c0 .55.675 1 1.5 1s1.5-.45 1.5-1-.675-1-1.5-1-1.5.45-1.5 1M150.286 83.5c.008 2.75.202 3.756.432 2.236s.223-3.77-.014-5-.425.014-.418 2.764m234.118.656c-.363.587-.04 1.46.718 1.94 1.043.661 1.067.877.097.889-.705.008-1.541-.66-1.857-1.485-.877-2.285-2.725-1.78-4.067 1.112-1.735 3.738.772 7.388 5.076 7.388 3.32 0 6.173-3.985 5.456-7.621-.405-2.05-4.494-3.726-5.423-2.223m430.346.506c.688.278 1.25 1.592 1.25 2.921 0 2.019.494 2.417 3 2.417 1.65 0 3 .398 3 .883 0 .486.9 1.119 2 1.407 1.1.287 2.007 1.352 2.015 2.366.013 1.557.167 1.61.985.344.533-.825.976-3.139.985-5.143.009-2.156.576-3.858 1.389-4.17.756-.29 24.156-.559 52-.597L932 85.021l.063 5.74c.05 4.454.266 5.235.968 3.489.604-1.503 1.745-2.25 3.437-2.25 1.392 0 2.532-.45 2.532-1s1.575-1 3.5-1 3.447-.338 3.382-.75c-.381-2.412.335-4.16 1.868-4.561.962-.251-28.85-.474-66.25-.494s-67.437.19-66.75.467m137.203 1.715c1.249 3.284.391 5.623-2.06 5.623-1.041 0-1.893.45-1.893 1 0 1.355 2.046 1.258 5.293-.25 1.48-.687 2.695-2.066 2.699-3.063.012-2.748 6.187-1.919 7.469 1.001 1.033 2.356 4.54 3.876 4.538 1.968-.003-2.903-4.6-6.378-9.377-7.09-2.683-.4-5.504-.967-6.268-1.261-1.114-.427-1.194-.014-.401 2.072M798 86.833c0 .459.675.909 1.5 1 .825.092 2.155.242 2.956.334.801.091 1.247.505.991.919-.862 1.394 2.726 4.141 3.889 2.978.752-.752.735-1.393-.058-2.186-.617-.617-.884-1.742-.593-2.5.402-1.048-.575-1.378-4.078-1.378-2.534 0-4.607.375-4.607.833m-3.899 2.289C791.883 91.503 791.32 94 793 94c.55 0 1-.477 1-1.059s.402-.811.893-.507c.909.562 2.576-4.298 1.756-5.118-.246-.247-1.393.566-2.548 1.806M168.31 93.5c.005 3.3.192 4.529.415 2.732s.218-4.497-.01-6c-.229-1.503-.411-.032-.405 3.268M564 91c0 .55-.707 1-1.571 1-2.021 0-4.429 2.408-4.429 4.429 0 .864-.45 1.571-1 1.571-.641 0-1 9.416-.999 26.25.001 26.158.01 26.26 2.367 29 1.3 1.512 3.1 2.75 3.998 2.75s1.634.45 1.634 1c0 .556 2.667 1 6 1h6v-14.607c0-12.909-.184-14.536-1.582-14-.87.334-2.22.607-3 .607s-1.418.87-1.418 1.933c0 3.558-3.952 3.647-7.209.162-1.609-1.722-3.252-2.928-3.651-2.682-.399.247-.823-.838-.943-2.411-.16-2.101.316-3.03 1.793-3.499 1.105-.351 2.01-1.09 2.01-1.642 0-1.848 2.831-3.861 5.429-3.861 2.138 0 2.571.463 2.573 2.75.002 2.341.447 2.781 3 2.96l2.998.209V96h-2.5c-1.375 0-2.5-.45-2.5-1s1.125-1 2.5-1c1.833 0 2.5-.533 2.5-2 0-1.778-.667-2-6-2-3.333 0-6 .444-6 1m244.116 4.25c.076 2.125.289 2.567.617 1.275.275-1.086 1.235-2.535 2.134-3.218 1.454-1.108 1.387-1.247-.617-1.275-1.902-.027-2.232.471-2.134 3.218m47.134-1.476-17.25.273V146l5.75-.019c3.163-.01 16.55.078 29.75.196s29.513.127 36.25.019L922 146V94l-4.75-.098c-14.529-.299-47.004-.366-62-.128m-704.114 2.394c-.075.918-.427 2.493-.783 3.5-.5 1.414-.366 1.573.584.697.678-.624 1.031-2.199.784-3.5s-.51-1.614-.585-.697m807.323-.101c-.363.586-.389 1.336-.059 1.666s.6.049.6-.625.419-.967.931-.651c.512.317 1.213.118 1.559-.441S961.443 95 960.618 95s-1.797.48-2.159 1.067m-26.349 7.463c-.186 6.772.115 7.388 2.461 5.041 1.812-1.811 1.811-2.571-.003-2.571-1.069 0-1.333-1.007-1.038-3.964.217-2.181.026-4.192-.424-4.47s-.898 2.406-.996 5.964m-338.325 18.22c-.157 13.063-.141 24.762.035 26l.319 2.25H682V98h-87.931zm374.365-23c-.083.688-1.05 1.25-2.15 1.25-1.152 0-2 .667-2 1.571 0 4.738-5.678 5.587-7.797 1.167-1.467-3.061-6.203-3.974-6.203-1.196 0 .848-.931 2.535-2.069 3.75l-2.07 2.208 2.82.33c5.529.647 7.319 3.617 7.319 12.144 0 9.023-.72 10.026-7.2 10.026-4.885 0-6.123 1.277-3.642 3.758 2.081 2.081-.93 4.235-6.03 4.312-5.354.082-3.018 1.738 2.622 1.86 3.684.079 4.134 1.333 1.338 3.727-1.052.9-1.689 2.22-1.416 2.932.356.926-.877 1.382-4.337 1.603-4.442.283-4.861.532-5.151 3.058-.271 2.354-.775 2.752-3.5 2.765-2.424.012-2.826.247-1.684.985 1.843 1.191 14 1.326 14 .156 0-.465 1.124-2.152 2.499-3.75 1.374-1.599 2.499-3.262 2.5-3.698s.901-1.758 2.001-2.938 2-2.737 2-3.459c0-.721.374-1.311.831-1.311s1.47-1.238 2.25-2.75 2.207-3.622 3.169-4.689c1.389-1.538 1.757-3.807 1.783-11 .039-10.519 1.577-13.561 6.858-13.561 3.419 0 4.619-2.386 3.837-7.629-.236-1.579-.496-2.308-.578-1.621m-405.72 2.137c.301.487-.122 1.442-.941 2.122-2.325 1.93-1.814 6.348 1.019 8.811 2.939 2.555 4.773 2.751 6.483.691.68-.819 1.635-1.242 2.122-.941 1.508.932.998-8.602-.542-10.141-1.528-1.528-9.06-2.03-8.141-.542M792 104c0 3.597.251 4 2.492 4 5.546 0 7.508 3.444 7.508 13.18 0 5.213.409 8.82 1 8.82.55 0 1 .9 1 2s.45 2 1 2 1.001.563 1.001 1.25c.001.688 1.113 2.543 2.472 4.122 1.358 1.58 2.738 3.718 3.066 4.75s1.015 1.878 1.528 1.878.933.59.933 1.311c0 .722.81 2.184 1.8 3.25.991 1.067 2.099 2.72 2.463 3.674.617 1.615 4.05 1.733 49.45 1.701 26.833-.019 50.362-.416 52.287-.883 2.087-.506-15.778-.89-44.25-.951L828 154v-4c0-2.2-.45-4-1-4s-1 .459-1 1.019c0 .591-1.155.766-2.75.417-5.3-1.162-5.844-1.76-2.25-2.475 3.488-.695 3.485-.698-1-.845-3.305-.108-4.102-.404-3-1.116 1.273-.823 1.228-.972-.3-.985-1.391-.012-1.586-.397-.859-1.696.649-1.158.508-2.113-.452-3.072-.85-.851-1.191-2.532-.876-4.32.501-2.843.398-2.927-3.57-2.927-5.852 0-6.943-1.567-6.943-9.972 0-8.037 2.124-11.609 7.259-12.207l2.759-.321-2.509-2.906c-1.38-1.598-2.509-3.285-2.509-3.75 0-1.81-4.204-.779-4.71 1.156-.41 1.567-1.364 2-4.407 2-3.216 0-3.883-.343-3.883-2q0-2-2-2c-1.667 0-2 .667-2 4m34.5 0c-.349 1.1-1.054 2-1.567 2s-.933.45-.933 1 .638 1 1.417 1 1.643.563 1.921 1.25c.277.688.54-.662.583-3 .086-4.606-.419-5.406-1.421-2.25m46 3.216c-8.147 4.704-9.325 17.232-2.26 24.024 2.813 2.704 3.896 3.041 9.76 3.041 6.178 0 7.017-.313 10.871-4.052 6.347-6.159 4.405-18.4-3.646-22.979-2.741-1.559-12.047-1.581-14.725-.034m-246.25 5.126c-2.026 2.007-2.25 3.195-2.25 11.958v9.729l3.25 1.982c3.669 2.237 7.764 2.575 9.55.789.933-.933 1.467-.933 2.4 0 2.69 2.69 9.647.482 11.614-3.685 1.564-3.315 1.522-15.552-.064-18.34-2.323-4.085-3.155-4.38-12.75-4.522-8.588-.126-9.716.074-11.75 2.089m165.137 2.252c-1.278 5.094.597 26.394 2.723 30.916 2.144 4.561 7.287 7.845 13.89 8.869 1.925.299 4.625.825 6 1.169 1.777.444 2.101.343 1.122-.349-.758-.537-1.12-1.394-.804-1.905s-.413-2.024-1.622-3.362c-1.208-1.338-2.835-3.67-3.615-5.182s-1.793-2.75-2.25-2.75-.831-.59-.831-1.311c0-.722-.788-2.207-1.75-3.301-3.606-4.1-4.25-6.413-4.25-15.267 0-9.532-.324-10.121-5.563-10.121-1.748 0-2.576.704-3.05 2.594m170.189-.344c-.255 1.237-.746 5.572-1.093 9.631-.631 7.399-1.473 9.801-4.733 13.507-.962 1.094-1.75 2.351-1.75 2.793s-.946 1.892-2.103 3.222c-1.156 1.33-2.143 2.796-2.194 3.258-.05.461-.904 1.711-1.897 2.778-3.826 4.106-2.453 5.872 3.944 5.075 13.268-1.653 16.165-6.377 16.984-27.691l.57-14.823h-3.633c-2.964 0-3.718.414-4.095 2.25M628 115c0 .55 1.35 1 3 1s3-.45 3-1-1.35-1-3-1-3 .45-3 1m-461.93 8.191c-.038 3.68.38 6.969.93 7.309 1.234.763 1.234-9.128 0-12-.599-1.395-.881.026-.93 4.691m462.131 3.396c.29 6.713.379 6.922 3.049 7.229l2.75.317v-7.189c0-6.277-.19-7.031-1.5-5.944-1.199.995-1.811.987-3.049-.041-1.378-1.144-1.517-.521-1.25 5.628M564 126q0 2 2 2t2-2-2-2-2 2m-184 4q0 2 2 2t2-2-2-2-2 2m445.192 1.075c.197.591.785 1.075 1.308 1.075s1.111-.484 1.308-1.075S827.417 130 826.5 130s-1.505.484-1.308 1.075m106.808.866c0 1.068.45 2.219 1 2.559s1 .178 1-.359c0-.538.273-1.689.607-2.559.398-1.038.055-1.582-1-1.582-.924 0-1.607.825-1.607 1.941m-364.315 6.155c-.696 2.661.146 4.904 1.84 4.904 2.568 0 4.475-1.239 4.475-2.907 0-3.966-5.357-5.659-6.315-1.997m255.565.62c2.319.352 2.75.903 2.75 3.517 0 3.823.978 3.095 1.512-1.126.381-3.009.276-3.102-3.31-2.957-3.018.122-3.194.227-.952.566M932 142.559c0 2.611.404 4.309.946 3.974 1.125-.695.98-8.533-.158-8.533-.434 0-.788 2.052-.788 4.559M421 144c-1.375 1.076-3.512 1.966-4.75 1.978S414 146.45 414 147s-2.495 1-5.545 1c-4.397 0-6.027.466-7.867 2.25-1.277 1.238-3.067 2.7-3.978 3.25-1.365.824-1.767 3.507-2.289 15.273-.708 15.939.055 19.227 4.463 19.227 2.341 0 9.216-6.189 9.216-8.295 0-1.756 6.827-7.705 8.841-7.705 1.123 0 2.319-.45 2.659-1s1.491-1 2.559-1 1.941-.45 1.941-1 2.185-1 4.855-1c4.219 0 5.194.409 7.445 3.126 2.343 2.829 2.738 2.978 4.145 1.572 1.753-1.753 2.068-5.263.555-6.198-.55-.34-1-1.941-1-3.559s-.45-2.941-1-2.941-1.014-1.012-1.032-2.25c-.054-3.825-2.534-6.327-4.411-4.449-1.936 1.935-8.057 1.649-8.057-.377 0-.885.819-1.311 2.161-1.126 1.189.164 2.453-.174 2.809-.75.387-.626-.382-1.048-1.911-1.048-1.943 0-2.559-.512-2.559-2.125 0-1.863.401-2.046 3.25-1.481l3.25.645-2.706-2.52c-3.236-3.012-5.44-3.142-8.794-.519m-5.8 5.2c-1.708 1.708-1.485 3.583.55 4.63 2.682 1.379 4.25.304 4.25-2.913 0-3.142-2.486-4.031-4.8-1.717M402 158c0 4.107.594 4.571 5.322 4.157 6.33-.554 4.867-8.136-1.572-8.149-3.71-.008-3.75.035-3.75 3.992m23.218-.47c-.705.8-1.175 3.032-1.045 4.962.205 3.049.575 3.508 2.831 3.508 3.231 0 4.996-1.685 4.996-4.771 0-4.394-4.166-6.666-6.782-3.699M414 162.5c0 .825-.45 1.5-1 1.5s-1 .852-1 1.893c0 2.059 3.239 3.89 3.816 2.158.195-.585.715-.841 1.156-.568.44.272 1.035-.4 1.321-1.494.363-1.391.022-1.994-1.137-2.004-1.288-.012-1.36-.203-.322-.861 1.064-.675.997-.975-.332-1.485-2.327-.893-2.502-.832-2.502.861m495.665 102.25c.223 1.343-.139 2.256-.896 2.265-.888.011-.828.294.197.943 1.748 1.105 3.593-.162 4.328-2.973.426-1.63.209-1.789-1.32-.971-1.298.694-1.953.617-2.256-.268-.234-.685-.258-.234-.053 1.004M105.5 279c.347.562-.444 1-1.805 1-3.071 0-7.695 4.553-7.695 7.577 0 1.268-.45 2.583-1 2.923s-1 2.14-1 4-.45 3.66-1 4-1 2.616-1 5.059S91.55 308 91 308s-1 1.8-1 4-.45 4-1 4-1 1.8-1 4 .343 4 .763 4c.419 0 1.223 1.012 1.786 2.25.564 1.238 1.57 2.137 2.238 2 .667-.138 1.213.2 1.213.75s.9 1 2 1 2 .45 2 1c0 .651 14.667 1 42 1s42-.349 42-1c0-.55.9-1 2-1s2-.398 2-.883c0-.486.9-1.119 2-1.407 1.112-.29 2-1.364 2-2.416 0-1.042.489-2.383 1.087-2.981.783-.783.783-1.275 0-1.759-.598-.37-1.087-2.445-1.087-4.613s-.45-3.941-1-3.941-1-1.998-1-4.441-.45-4.719-1-5.059-1-2.14-1-4-.45-3.66-1-4-1-1.948-1-3.573c0-5.097-4.084-10.927-7.655-10.927-1.29 0-2.345-.45-2.345-1 0-.647-12.186-1-34.559-1-22.785 0-34.348.341-33.941 1m764.663 7.75L870 294l3.25-.015c2.329-.011 2.845-.272 1.82-.92-.786-.498-1.54-1.657-1.675-2.577-.329-2.245-1.355-3.17-1.558-1.405-.09.78-.466-1.058-.837-4.083l-.674-5.5zm39.955 9.469c-.097 8.815.131 10.623 1.283 10.18 1.913-.733 2.384-3.047 2.098-10.302-.217-5.533-1.316-9.618-1.617-6.014-.065.78-.462.067-.882-1.583-.505-1.985-.803.626-.882 7.719m-769.953-1.895c-1.201 1.278-1.966 2.542-1.7 2.808s-1.816.483-4.626.483c-4.183 0-5.461.434-7.048 2.394-4.98 6.151 2.767 16.074 10.159 13.012 2.457-1.018 3.643-1.018 6.1 0 2.506 1.038 3.532 1.015 5.75-.129 5.448-2.809 6.959-6.199 3.2-7.182-2.097-.548-2.78-4.11-1-5.21 2.181-1.348-1.198-4.108-4.368-3.569-.478.081-.582-.995-.231-2.392.855-3.409-3.107-3.545-6.236-.215m430.556 1.481c-1.497.717-2.721 1.955-2.721 2.75s-.45 1.445-1 1.445-1 1.8-1 4-.45 4-1 4c-.6 0-1 4-1 10s.4 10 1 10c.55 0 1 1.281 1 2.846s.708 4.266 1.573 6l1.573 3.154H696v-22.5c0-17.335-.287-22.499-1.25-22.496-.687.002-28.263-.111-61.279-.25-47.72-.202-60.587.014-62.75 1.051m-235.471 1.857c-.935.377-1.25 5.024-1.25 18.421V334h49c26.95 0 49.249-.022 49.553-.049s1.834 1.323 3.401 3c1.676 1.794 3.857 3.049 5.298 3.049 3.301 0 8.748-1.966 8.748-3.157 0-.528.45-.683 1-.343s1-.046 1-.858.47-1.632 1.045-1.824c.667-.222 1.034-5.881 1.016-15.667l-.029-15.319-3.122-2.916-3.122-2.916-55.644.079c-30.604.043-56.206.306-56.894.583m526 1.685c-1.788.587-3.25 1.424-3.25 1.86s-.9.793-2 .793-2 .45-2 1-.675 1-1.5 1-1.5.45-1.5 1-.465 1-1.033 1C846.961 306 838 318.004 838 322.03c0 1.084-.45 1.97-1 1.97-.608 0-1 4.48-1 11.441 0 6.549.428 11.705 1 12.059.55.34 1 1.491 1 2.559s.45 1.941 1 1.941 1 .9 1 2 .45 2 1 2 1 .47 1 1.044c0 1.581 7.132 8.956 8.661 8.956.736 0 1.339.379 1.339.843 0 1.176 7.581 4.731 13.139 6.161 5.98 1.539 22.861-.022 22.861-2.113 0-.49.9-.891 2-.891s2-.45 2-1 .65-1 1.445-1c3.302 0 14.555-13.648 14.555-17.654 0-.74.45-1.346 1-1.346s1-1.71 1-3.8.501-4.301 1.113-4.913c1.059-1.059.986-2.384-.742-13.543-.32-2.066-.985-4.005-1.477-4.309s-.894-1.426-.894-2.494-.45-1.941-1-1.941-1-.615-1-1.366c0-2.036-10.553-12.634-12.58-12.634-.964 0-1.46-.293-1.102-.652.831-.83-3.961-3.348-6.373-3.348-1.005 0-2.105-.45-2.445-1-.808-1.308-18.024-1.039-22.25.347M605.2 303.2c-.66.66-1.2 1.972-1.2 2.917s-.562 1.979-1.25 2.3c-1 .466-1 .7 0 1.166.751.351 1.25 2.545 1.25 5.5 0 3.536.391 4.917 1.393 4.917 1.701 0 2.607-2.161 2.607-6.222 0-1.754.746-3.607 1.75-4.346 1.667-1.228 1.667-1.321 0-1.968-2.986-1.157-1.925-2.565 1.702-2.257 1.898.161 3.467-.157 3.487-.707.019-.55-.835-1.014-1.899-1.03-1.063-.017-2.257-.354-2.653-.75-1.109-1.108-3.853-.854-5.187.48m34.363 3.997c-1.241 1.45-1.487 2.328-.722 2.583.637.213 1.159 1.887 1.159 3.722 0 5.09.89 6.498 4.107 6.498 1.591 0 2.893-.45 2.893-1s-.675-1-1.5-1c-2.535 0-2.047-7.533.5-7.725 1.1-.083 2 .345 2 .951 0 2.136 3.399 8.774 4.492 8.774 1.684 0 3.508-2.184 3.508-4.2 0-.99.399-1.8.887-1.8 1.212 0 2.001-5.951.88-6.644-1.155-.714-3.694 2.612-3.735 4.894-.04 2.172-2.032 2.347-2.032.179 0-2.33-2.522-4.429-5.322-4.429-1.355 0-2.723-.675-3.04-1.5-.792-2.065-1.867-1.881-4.075.697M356 316v10h2.514c1.382 0 3.466-.562 4.63-1.25 1.694-1 2.208-1 2.57 0 .612 1.691 17.401 1.735 19.086.05.933-.933 1.2-.933 1.2 0 0 1.62 7.659 1.574 8.417-.05.466-1 .7-1 1.166 0 .415.888 3.745 1.25 11.5 1.25H418v-16h-8v5c0 2.75-.45 5-1 5s-1-2.25-1-5v-5h-5.8c-3.19 0-6.34.54-7 1.2-.933.933-1.2.933-1.2 0 0-1.62-7.659-1.574-8.417.05-.466 1-.7 1-1.166 0-.349-.747-2.528-1.25-5.417-1.25s-5.068.503-5.417 1.25c-.586 1.256-1.925-.283-1.599-1.838.314-1.5-5.624-3.412-10.598-3.412H356zm272-8.271c-.825.314-1.837 1.066-2.25 1.671-.535.785-.975.752-1.537-.115-.476-.734-3.047-1.188-6.5-1.146l-5.713.068v5.896c0 5.73 1.781 8.152 3.417 4.647.466-1 .7-1 1.166 0 1.33 2.849 3.417 1.234 3.417-2.643 0-2.627.514-4.09 1.582-4.5 2.364-.907 2.418-.852 2.418 2.464 0 4.263 2.177 6.117 6.74 5.74 3.204-.265 3.716-.631 3.462-2.472-.164-1.189.174-2.453.75-2.809 1.709-1.056 1.2-3.664-1.105-5.663-2.216-1.922-3.256-2.124-5.847-1.138m-187 1.827c-2.368.806-4.123 2.365-5.426 4.818-1.059 1.994-2.432 3.626-3.051 3.626-2.02 0-6.475 2.467-7.029 3.893-.838 2.156.243 2.611 6.066 2.555 6.148-.06 9.816-2.577 10.78-7.398.309-1.545 1.259-3.506 2.111-4.358 3.301-3.301 1.593-4.854-3.451-3.136m466.81.968c-.806.805.308 5.476 1.307 5.476.485 0 .883.9.883 2s.34 2 .757 2c1.195 0 3.243 7.568 3.243 11.984V336h4.893c6.017 0 6.107-.192 6.107-13 0-13.438.301-13-8.94-13-4.25 0-7.962.236-8.25.524M378 318c0 1.1.45 2 1 2s1-.9 1-2-.45-2-1-2-1 .9-1 2m22 0c0 1.1.45 2 1 2s1-.9 1-2-.45-2-1-2-1 .9-1 2m228.5-1c.34.55 1.24 1 2 1s1.66-.45 2-1c.352-.569-.509-1-2-1s-2.352.431-2 1m235.448.566c-4.22 2.238-9.948 9.092-9.948 11.904 0 1.406-.558 3.451-1.241 4.544-.987 1.581-.987 2.391 0 3.972.683 1.093 1.241 3.118 1.241 4.5s.45 2.514 1 2.514 1 .495 1 1.1c0 1.695 6.598 7.9 8.4 7.9.88 0 1.6.382 1.6.848 0 .467 3.15.941 7 1.053 4.364.128 7-.192 7-.848 0-.579.734-1.053 1.632-1.053 2.722 0 10.368-8.383 10.368-11.368 0-1.448.45-2.632 1-2.632s1-1.773 1-3.941-.45-4.219-1-4.559-1-1.511-1-2.603c0-1.091-1.101-3.172-2.446-4.623s-2.177-3.076-1.846-3.611c.331-.534.163-.702-.371-.371-.535.331-2.16-.5-3.611-1.846-3.068-2.845-15.067-3.379-19.778-.88m-218.498 5.722c-.578.667-1.328 1.937-1.666 2.823-1.123 2.942-23.6 3.613-25.365.757-.296-.477-1.609-.868-2.919-.868s-2.66-.45-3-1-1.495-1-2.567-1c-1.616 0-1.76.303-.843 1.773 1.167 1.869 5.412 4.227 7.609 4.227.716 0 1.301.45 1.301 1s1.548 1 3.441 1 3.719.45 4.059 1c.772 1.248 10.212 1.33 10.667.092.183-.499 1.908-1.057 3.833-1.24s4.372-1.125 5.439-2.092c2.693-2.446 4.504-2.257 3.81.396-.787 3.008 1.574 1.44 2.838-1.885 1.929-5.074-3.213-8.934-6.637-4.983M88.272 335c0 2.475.195 3.488.434 2.25.238-1.238.238-3.262 0-4.5-.239-1.238-.434-.225-.434 2.25m99.728-.2c0 .66-.9 1.2-2 1.2s-2 .45-2 1c0 1.258 3.018 1.274 4.992.026 1.188-.751 1.238-1.196.25-2.184-.943-.943-1.242-.953-1.242-.042m0 4.759c0 .924-.47 1.268-1.155.846-.715-.443-.883-.275-.44.44 1.164 1.885 3.595 1.314 3.595-.845 0-1.1-.45-2-1-2s-1 .702-1 1.559m-19.796 4.695c-2.072 2.497-.312 5.786 2.962 5.537 2.62-.2 2.897-.543 2.631-3.257-.33-3.367-3.588-4.696-5.593-2.28m313.958 105.512c-22.07.215-27.612.541-28.763 1.692-1.189 1.189-1.382 6.975-1.163 34.734l.264 33.308h119l.264-33.936c.174-22.513-.087-34.287-.777-34.977-.672-.672-11.304-1.049-29.978-1.064-23.986-.019-28.711.203-27.616 1.299 1.029 1.029 6.94 1.309 26.714 1.264 13.966-.031 25.962.305 26.658.747.984.625 1.205 7.706 1 31.985l-.265 31.181-54.5.052c-29.975.028-55.062.029-55.75 0-.973-.04-1.25-7.142-1.25-32.035v-31.984l27.464-.266c18.07-.175 27.22-.608 26.75-1.266-.454-.636-10.659-.903-28.052-.734m-282.012 4.321c-.158 2.68.124 3.861.821 3.431.584-.361.822-1.044.529-1.518-1.028-1.664 1.47-2.067 4.221-.682 2.321 1.169 3.273 1.183 5.779.086 1.795-.786 2.31-1.332 1.28-1.359-.945-.025-3.322-.945-5.28-2.045-5.571-3.129-7.067-2.704-7.35 2.087m14.85 2.972c0 .582.45.781 1 .441s1-.141 1 .441-.525 1.059-1.167 1.059c-.641 0-.877.289-.524.643.354.353 1.329.073 2.167-.623 1.042-.865 1.524-.91 1.524-.142 0 .617.092 1.459.205 1.872.277 1.013 4.688 3.25 6.409 3.25.762 0 1.386.45 1.386 1s1.125 1 2.5 1 2.5.45 2.5 1 .681 1 1.514 1c.832 0 2.36.529 3.395 1.176 1.503.938 2.197.861 3.439-.381q2.796-2.796-2.074-2.795c-1.34 0-2.12-.44-1.774-1 .352-.569-.509-1-2-1s-2.352-.431-2-1c.351-.567-.49-1-1.941-1-1.407 0-2.559-.45-2.559-1s-.59-1-1.312-1-3.175-.9-5.452-2c-4.656-2.25-6.236-2.488-6.236-.941m63 .41c0 .941-.628 1.271-1.75.918-1.667-.524-1.667-.482 0 .892 2.347 1.933 2.204 2.718-.5 2.736-1.819.013-1.963.201-.75.985 3.584 2.316 7.094-.612 4.93-4.113-.49-.792-.338-1.643.373-2.095.81-.516.632-.766-.553-.777-.962-.008-1.75.646-1.75 1.454M458 485v29h108v-58H458zm-174.664-25.167c-1.264 2.024.016 2.476 4.456 1.574 2.017-.41 2.115-.643.821-1.937-1.982-1.982-3.894-1.851-5.277.363m-75.586 1.597c-1.834 1.352-2.482 3.14-.75 2.07.55-.34 1 .174 1 1.141 0 1.368.267 1.492 1.2.559.66-.66 2.01-1.2 3-1.2s1.8-.45 1.8-1-.863-1-1.917-1-2.066-.419-2.25-.93c-.183-.512-1.12-.35-2.083.36m57.954-.326c.791.791 1.626.799 2.95.03 1.618-.941 1.482-1.077-1.104-1.104-2.151-.022-2.651.269-1.846 1.074m206.33 23.872.094 24.977h79.744l.094-24.977.093-24.976h-80.118zm-272.019-21.285c-.008 1.755.435 3.469.985 3.809 1.282.792 1.282-3.517 0-5.5-.738-1.141-.973-.737-.985 1.691M255.5 463c.367.593-.796 1-2.859 1-5.682 0-7.216.989-4.067 2.623 4.18 2.169 10.499 1.815 11.136-.623.288-1.1.947-2 1.466-2 .518 0 .664-.45.324-1s-1.968-1-3.618-1c-1.745 0-2.742.418-2.382 1m39.615-.5c-.064.55-2.254 1.128-4.866 1.285-7.535.453-8.406.945-8.056 4.55.257 2.65.772 3.218 3.164 3.492 3.925.449 8.643-1.661 8.643-3.865 0-.987.501-1.962 1.114-2.167s.89-1.254.616-2.333-.551-1.512-.615-.962m-73.182 7.132c.404 2.212 1.107 4.623 1.561 5.358s1.157 2.725 1.563 4.423c.53 2.217.745.974.762-4.413.013-4.125-.226-6.87-.531-6.101-.419 1.058-.986.828-2.322-.945-1.765-2.339-1.767-2.336-1.033 1.678m42.867-.432c1.456 1.456 1.58 3.8.2 3.8-.55 0-1-.675-1-1.5q0-1.5-3-1.5c-2.449 0-2.997.413-2.985 2.25.01 1.463.288 1.821.796 1.022.573-.902 1.157-.703 2.205.75 1.946 2.7 8.984 2.839 8.984.178 0-.99.54-2.34 1.2-3s.825-1.2.367-1.2-1.673.969-2.7 2.153L267 474.306v-2.212c0-1.217.399-1.965.887-1.664.487.301 1.442-.122 2.122-.941 1.058-1.274.685-1.489-2.587-1.489-2.973 0-3.555.267-2.622 1.2m-37.168 9.55c.294 4.813.796 9.425 1.115 10.25.764 1.976.978 2.764 1.128 4.167.069.641.413.878.765.526.688-.688 6.371 2.155 7.61 3.807.476.635 1.071.502 1.629-.363.742-1.151.963-1.151 1.421 0 .298.75.502-3.137.453-8.637-.08-8.916-.161-9.349-.753-4-.365 3.3-.739 5.368-.832 4.595-.131-1.094-.618-.998-2.199.433-3.119 2.822-5.225.087-5.773-7.498-.422-5.832-.357-6.03 1.984-6.03 1.331 0 2.93.51 3.553 1.133s1.838.862 2.7.531c2.27-.871 1.94-3.664-.433-3.664-1.1 0-2-.45-2-1s-.9-1-2-1-2-.45-2-1-1.553-1-3.451-1h-3.452zm21.509-6.75c-.171.275-.449 10.4-.617 22.5-.213 15.294-.028 20.552.608 17.251.803-4.173.811-41.044.009-39.751M722 473c0 .55-.707 1-1.571 1-2.021 0-4.429 2.408-4.429 4.429 0 .864-.45 1.571-1 1.571s-1 1.8-1 4-.45 4-1 4-1 1.8-1 4-.45 4-1 4-1 1.762-1 3.917-.43 4.066-.956 4.25c-.526.183-1.068 2.021-1.205 4.083-.136 2.063-.606 3.75-1.043 3.75-.438 0-.796 2.052-.796 4.559 0 2.785.389 4.319 1 3.941.55-.34 1 .051 1 .868 0 4.379 3.282 4.632 60.154 4.632 35.231 0 53.846-.346 53.846-1 0-.55.563-1.014 1.25-1.032 3.492-.089 5.105-2.899 4.954-8.63-.082-3.126-.611-6.145-1.177-6.711-.565-.565-1.027-2.485-1.027-4.268s-.45-3.519-1-3.859-1-2.14-1-4-.45-3.66-1-4-1-1.915-1-3.5-.45-3.16-1-3.5-1-2.166-1-4.059-.45-3.441-1-3.441-.887-.546-.75-1.213c.138-.668-.763-1.674-2-2.238-1.237-.563-2.25-1.367-2.25-1.786S793.3 472 768 472c-30 0-46 .348-46 1m-468 53.16c0 41.249.259 51.886 1.25 51.424.688-.321 2.038-.86 3-1.2s1.75-1.24 1.75-2.001.337-1.383.75-1.383c.859 0 .625-87.839-.246-92.694-.401-2.231-1.468-3.64-3.539-4.673l-2.965-1.48zm37.572-49.585c1.181 4.949 2.363 6.328 2.398 2.797.016-1.72-.673-3.711-1.533-4.424-1.375-1.142-1.479-.946-.865 1.627m-14.328.089c-.691.279-.996.929-.677 1.445.348.562-1.002.685-3.368.307-2.492-.399-4.204-.217-4.643.493-.382.618-1.113.865-1.625.548s-.931-.072-.931.543-.45.84-1 .5-1-.089-1 .558c0 .784.914.943 2.75.478 1.512-.383 4.44-.933 6.506-1.222s4.005-.928 4.309-1.42 1.651-.894 2.994-.894 2.441-.45 2.441-1c0-1.029-3.526-1.235-5.756-.336m-72.314 9.617c-.039.671-.294 3.356-.567 5.969-.406 3.892-.207 4.75 1.102 4.75.879 0 1.857-.675 2.173-1.5s1.428-1.5 2.469-1.5c2.376 0 2.431-2.779.11-5.549-2.161-2.578-5.192-3.822-5.287-2.17m565.82-.201c-.962.561-1.75.672-1.75.247s-.701.228-1.557 1.45c-1.193 1.704-2.548 2.223-5.8 2.223-11.086 0-14.514 7.377-6.71 14.439 3.656 3.309 22.644 2.961 26.358-.482l2.743-2.544-2.017-2.165c-1.109-1.19-2.024-2.746-2.032-3.456-.011-.917-.297-.857-.985.208-.736 1.139-.973 1.177-.985.156-.008-.739.885-1.579 1.985-1.866 3.792-.992 1.248-4.29-3.308-4.29-2.603 0-2.843-.263-2.281-2.5.682-2.717-.588-3.21-3.661-1.42m-570.535 7.42c-.009 2.2.345 5.125.785 6.5l.801 2.5.042-2.5c.023-1.375-.331-4.3-.786-6.5l-.827-4zm34.114 5.084c-.327.853-.085 2.06.538 2.683S236 503.21 236 504.2s.45 1.8 1 1.8 1 .9 1 2 .563 2.007 1.25 2.015c.93.012.907.233-.092.866-.984.624-.667.98 1.185 1.334 3.519.672 4.308-.092 5.122-4.965.644-3.853.492-4.332-1.627-5.132-1.286-.486-2.745-.641-3.243-.346s-.583.017-.19-.617c.422-.685.078-1.155-.846-1.155-.857 0-1.559-.402-1.559-.893 0-1.669-3.063-2.106-3.671-.523m-21.958 2.89c-.669 1.745 1.823 4.526 4.058 4.526.967 0 1.565-.865 1.556-2.25-.013-1.819-.201-1.963-.985-.75q-.969 1.5-.985.25c-.008-.687-.717-1.25-1.574-1.25s-1.281-.45-.941-1 .352-1 .028-1c-.325 0-.845.663-1.157 1.474m35.456 32.026-.327 17-2.5-.279c-1.375-.154-2.65-.717-2.833-1.25-.184-.534-.789-.971-1.346-.971s-2.402-.99-4.1-2.199c-2.101-1.496-3.216-1.815-3.488-1-.22.659-.956 1.199-1.636 1.199-1.467 0-4.52 3.417-6.551 7.33-.89 1.714-2.543 3.019-4.258 3.362l-2.804.561 2.758 2.372c1.517 1.305 3.321 2.373 4.008 2.374.688 0 1.25.451 1.25 1.001s.493 1 1.096 1c.602 0 2.371.908 3.931 2.019 2.61 1.858 3.156 1.908 6.883.624 3.339-1.15 4.358-1.166 5.819-.09 1.679 1.236 1.68 1.339.027 1.98-.96.372-1.46 1.137-1.112 1.7.379.612 1.015.341 1.583-.674.886-1.583 1.04-1.576 2.276.115.994 1.358 1.034 2.003.162 2.57-.847.549-.755 1.025.335 1.741 1.11.728 1.156.988.179 1-1.018.011-.977.36.178 1.515 2.498 2.498 3.643 1.708 3.643-2.515 0-3.291-.496-4.328-2.75-5.755-2.735-1.73-4.102-4.23-2.313-4.23.516 0 .682-1.575.369-3.5-.368-2.271-.171-3.5.563-3.5.622 0 1.131-.927 1.131-2.059s.45-1.781 1-1.441c1.207.746 1.258-.142 1.05-18.316-.241-21.097-1.827-22.297-2.223-1.684M220 521c0 .55-1.8 1-4 1s-4 .45-4 1-.9 1-2 1-2 .257-2 .571c0 1.194 2.925 3.429 4.488 3.429.896 0 1.352.45 1.012 1-.352.569.509 1 2 1s2.352.431 2 1c-.34.55.309 1 1.441 1s2.059.45 2.059 1 .675 1 1.5 1 1.5.45 1.5 1 .9 1 2 1 2 .45 2 1 .41 1 .912 1c.916 0 .865-1.221-.167-4-.306-.825-1.111-4.312-1.788-7.75-1.166-5.925-1.379-6.25-4.094-6.25-1.574 0-2.863.45-2.863 1m232.45 1.919c.313.506-.111 1.599-.941 2.429S450 528.014 450 529.429c0 1.414-.45 2.571-1 2.571s-1 1.35-1 3-.45 3-1 3-1 1.323-1 2.941-.45 3.219-1 3.559-1 1.69-1 3-.45 2.66-1 3-1 1.498-1 2.573-.395 2.736-.877 3.691c-1.18 2.334-3.123 8.593-3.123 10.057 0 .875 6.702 1.179 26 1.179 22.691 0 29.657-.614 24.909-2.197-.789-.263-.789-2.002 0-6.267 1.933-10.456 3.902-9.509-19.383-9.318-11.26.092-20.747-.105-21.081-.439s-.121-1.517.474-2.628 1.081-3.174 1.081-4.585.45-2.566 1-2.566 1-1.323 1-2.941.45-3.219 1-3.559 1-1.47 1-2.512c0-4.81 2.114-6.983 6.911-7.103l4.589-.115-4-.827c-5.446-1.127-9.739-1.138-9.05-.024m71.05.136c-2.2.364 4.737.725 15.417.803s19.221-.053 18.983-.291c-.76-.76-30.242-1.199-34.4-.512m-39.716.683c2.905.203 7.405.201 10-.004s.216-.371-5.284-.369-7.622.171-4.716.373m79.829-.04c4.222.414 6.387 2.849 6.387 7.182 0 .983.313 2.1.696 2.482s.803 1.47.935 2.417c.354 2.529 2.434 9.468 3.408 11.363 1.374 2.676.359 2.855-16.456 2.916-19.794.071-24.284.733-23.583 3.481.275 1.079.5 4.774.5 8.212v6.25h25.25c17.522-.001 25.25-.334 25.25-1.089 0-1.378-5.924-19.827-7.112-22.148-.488-.955-.888-2.616-.888-3.691s-.45-2.233-1-2.573-1-1.941-1-3.559-.45-2.941-1-2.941-1-1.35-1-3-.45-3-1-3-.888-.562-.75-1.25c.178-.889-1.625-1.28-6.25-1.352-3.575-.057-4.649.079-2.387.3m142.402 4.052c.013 1.496.157 1.532.985.25.915-1.416 1.071-1.312 1.375.917.197 1.448 1.625 2.546 1.625 1.25 0-.642.788-1.16 1.75-1.152 1.363.012 1.45.206.393.875-1.764 1.118.103 2.337 2.292 1.496 2.085-.8.177-3.386-2.498-3.386-1.001 0-2.097-.45-2.437-1-1.024-1.657-3.501-1.124-3.485.75m-461.518 4.258c-.839 2.645-.211 15.989.753 15.991.412 0 .75-4.049.75-8.999 0-9.086-.338-10.66-1.503-6.992M823.71 544c-.404 1.546-.033 1.997 1.634 1.985 1.616-.012 1.811-.234.778-.889-.758-.48-1.069-1.373-.691-1.984.378-.612.263-1.112-.255-1.112-.519 0-1.178.9-1.466 2M202 547.107c0 .609.652.857 1.449.551q1.452-.56.893.893c-.377.983.122 1.449 1.551 1.449 1.159 0 2.107.45 2.107 1s.702 1 1.559 1 1.327.375 1.044.833c-.283.459.097.834.846.834.748 0 1.13-.6.849-1.334-.282-.733-1.026-1.341-1.655-1.35s-2.203-1.135-3.498-2.5c-2.445-2.577-5.145-3.3-5.145-1.376M270 569c0 .55.648 1 1.441 1s1.719-.45 2.059-1-.309-1-1.441-1-2.059.45-2.059 1m15 0c0 .55.873 1 1.941 1s2.219-.45 2.559-1c.351-.567-.49-1-1.941-1-1.407 0-2.559.45-2.559 1m410.348 78.391c-.828.944-1.183 13.34-1.261 43.962L693.979 734H858v-41.777c0-36.194-.208-42.075-1.557-44L854.887 646l-79.194.038c-64.158.031-79.412.288-80.345 1.353M151.8 699.75c-.306 52.757-.237 55.638 1.314 54.68.487-.302.886-.069.886.516 0 .747 26.213.989 87.75.809l87.75-.255.259-53.75.258-53.75H152.101zM154 697v47h174v-45.8c0-34.289-.302-46.102-1.2-47-.915-.915-21.6-1.2-87-1.2H154zm542-7.2c0 29.622.307 40.107 1.2 41 .913.913 19.822 1.2 79 1.2H854v-82H696zm4.004-36.55c.003.688-.052 15.2-.121 32.25s-.071 31.788-.004 32.75c.114 1.65 4.453 1.75 76.121 1.75h76v-68h-76c-60.136 0-75.999.261-75.996 1.25m-542.779.421c-1.408.566-1.796 62.329-.392 62.329.399 0 1.374-.9 2.167-2s1.95-2 2.572-2 2.544-1.35 4.271-3 3.526-3 4-3c.473 0 2.273-1.35 4-3s3.593-3 4.148-3 1.009-.45 1.009-1 .576-1 1.279-1c.704 0 1.928-.9 2.721-2s1.95-2 2.572-2 2.467-1.237 4.099-2.75c4.402-4.079 6.226-3.935 11.825.934 1.279 1.112 2.703 2.082 3.165 2.157.461.074 2.386 1.594 4.276 3.377s3.618 3.06 3.84 2.839 1.779.912 3.461 2.52c2.893 2.765 9.772 4.366 8.262 1.923-.34-.55.023-1 .807-1 .783 0 4-2.475 7.149-5.5s6.121-5.5 6.608-5.5 2.808-1.919 5.16-4.264c2.352-2.344 5.851-5.365 7.776-6.711s4.625-3.618 6-5.048c4.908-5.104 8.349-5.588 12.5-1.756 1.65 1.523 3.589 2.772 4.309 2.774s1.031.455.691 1.005-.121 1 .486 1c.608 0 2.153 1.013 3.434 2.25 3.126 3.02 6.492 5.75 7.09 5.75.268 0 2.342 1.8 4.609 4s4.769 4 5.561 4 1.16.45.82 1-.152 1 .417 1c.57 0 3.395 2.25 6.278 5s5.593 5 6.022 5c.428 0 2.69 1.8 5.026 4s4.811 4 5.502 4 1.255.45 1.255 1 .45 1 1 1c.646 0 1-11.5 1-32.5V653l-82.75.079c-45.513.043-83.324.31-84.025.592M702 658.8c0 5.782 1.212 7.2 6.153 7.2 3.455 0 3.832-.285 4.742-3.581 1.639-5.938-.145-8.419-6.056-8.419H702zm57.25.696c-1.741 1.977-1.786 41.568-.05 43.304.77.77 4.711 1.2 11 1.2h9.8v3.453c0 1.899.522 4.599 1.161 6l1.16 2.547H844v-44h-22v-5c0-2.75-.03-5.337-.066-5.75-.235-2.682-5.383-3.179-32.934-3.177-23.361.003-28.725.259-29.75 1.423m-542.716 5.705c-9.057 5.253-8.938 14.279.258 19.549 7.402 4.242 16.886-4.288 13.626-12.257-.674-1.646-.974-3.4-.667-3.898.307-.497.038-.583-.596-.19-.648.4-1.158.138-1.163-.596-.018-2.973-7.781-4.74-11.458-2.608M703.2 669.2c-.66.66-1.2 3.36-1.2 6v4.8h4.893c5.286 0 6.107-.807 6.107-6 0-4.88-.916-6-4.907-6-2.031 0-4.233.54-4.893 1.2m-144.512 4.622c-2.018.232-2.54.656-1.848 1.5.531.648 1.121 2.303 1.312 3.678l.348 2.5-14.25.277c-13.883.271-14.25.224-14.25-1.815 0-1.152.466-2.964 1.035-4.028 1.015-1.897.297-1.933-37.25-1.902-39.886.033-41.785.227-41.785 4.269 0 .87-.45 1.859-1 2.199s-1 1.716-1 3.059-.45 2.441-1 2.441-1 .59-1 1.312-.9 3.175-2 5.452-2 4.836-2 5.688-.45 1.548-1 1.548-1 1.35-1 3v3h44c28.667 0 44-.348 44-1 0-.55-.45-1-1-1-1.724 0-1.213-11.578.576-13.063 1.046-.868 1.803-.96 2.25-.274.801 1.23 4.174 1.367 4.174.17 0-.458 1.35-.833 3-.833s3-.45 3-1 1.773-1 3.941-1 4.219.45 4.559 1 2.365 1 4.5 1 4.16-.45 4.5-1c1.469-2.377 4.5 2.135 4.5 6.699 0 1.266.45 2.301 1 2.301s1 1.377 1 3.059c0 1.785-.417 2.802-1 2.441-.55-.34-1 .084-1 .941 0 1.297 1.515 1.559 9 1.559 8.875 0 9-.034 9-2.441 0-1.343-.45-2.719-1-3.059s-1-1.491-1-2.559-.45-1.941-1-1.941-1-1.35-1-3-.45-3-1-3-1-1.152-1-2.559c0-1.451-.433-2.292-1-1.941-.583.361-1-.656-1-2.441 0-1.682-.45-3.059-1-3.059s-1-.707-1-1.571c0-3.55-5.607-5.49-13.312-4.607m143.919 9.76c-.334.87-.607 2.858-.607 4.418 0 5.047.872 6 5.486 6 3.789 0 4.41-.334 5.496-2.956 2.099-5.067-.372-9.044-5.619-9.044-2.861 0-4.337.491-4.756 1.582M452 698.07c0 1.061.4 1.93.889 1.93s.826.788.75 1.75c-.115 1.448.747 1.764 4.994 1.833 4.617.074 5.302-.203 6.808-2.752 2.38-4.03 1.408-4.738-6.47-4.713-6.213.019-6.971.232-6.971 1.952m92.762.637c1.244.239 3.044.23 4-.02s-.062-.446-2.262-.435-2.982.216-1.738.455m-.345 4.159c.498.805 5.583.366 5.583-.483 0-.21-1.377-.383-3.059-.383s-2.818.39-2.524.866M532 707.733c-2.968 1.33-10.16 1.619-47.304 1.9-36.559.277-44.043.571-45.25 1.778-2.121 2.121-2.088 27.09.039 29.217 1.764 1.764 80.718 2.264 81.3.516.175-.524 1.418-2.233 2.764-3.798s1.997-2.996 1.448-3.179c-1.312-.439-1.309-14.167.003-14.167.55 0 1-.694 1-1.542s.9-2.508 2-3.688 2-2.737 2-3.459c0-.721.337-1.321.75-1.333s1.875-.902 3.25-1.978c2.961-2.316 2.659-2.357-2-.267m31 1.844c.825 1.057 1.725 2.148 2 2.423 2.706 2.706 5 9.893 5 15.664 0 9.228 3.943 15.175 9.621 14.512 6.068-.709 6.379-1.498 6.379-16.176 0-15.884.182-15.617-11.069-16.267-4.637-.269-9.556-.846-10.931-1.284-2.352-.749-2.411-.682-1 1.128m-114.25 6.199c-2.613.183-4.75.759-4.75 1.279 0 1.303 34.694 1.249 35.5-.055.34-.55-.421-1.055-1.691-1.122-6.26-.332-24.863-.397-29.059-.102M444 723c0 .63 6.667 1 18 1s18-.37 18-1-6.667-1-18-1-18 .37-18 1m0 5.883c0 .892 32.437 2.14 34.75 1.337 4.347-1.509-1.019-2.22-16.75-2.22-9.9 0-18 .397-18 .883m0 6.617c0 1.696-.871 1.624 19.302 1.584 14.755-.03 18.202-.516 15.555-2.194-2.616-1.657-34.857-1.093-34.857.61m250 6.071c0 6.851-5.385 6.429 81.988 6.429 43.521 0 78.903-.368 78.625-.818s.37-1.449 1.441-2.221c1.125-.811 1.946-2.575 1.946-4.182V738H694zm-380.393 8.011c-.848 2.211-.844 2.221 1.457 3.452 2.48 1.327 4.936-.243 4.936-3.156 0-2.418-5.482-2.671-6.393-.296M762 756.941c0 3.995-.47 7.231-1.107 7.625-2.624 1.622 2.379 2.404 15.474 2.419l13.866.015-.675-2.75c-.372-1.513-.928-5.337-1.237-8.5l-.561-5.75H762zm-522.75 1.721c-.687.278-1.25 2.042-1.25 3.921 0 3.13.252 3.417 3 3.417 2.833 0 3-.222 3-4 0-4.032-1.105-4.808-4.75-3.338M200 769c0 1.102 25.008 1.485 71.25 1.091 6.439-.054 10.75-.492 10.75-1.091 0-.65-14.333-1-41-1s-41 .35-41 1m559 2c-3.098.38 4.326.687 17 .703 14.246.019 20.666-.256 17.5-.749-5.967-.929-26.767-.902-34.5.046m126.25 96.496c-2.174 2.469-1.768 75.13.432 77.325 2.726 2.72 74.185 2.455 76.924-.284 1.763-1.764 1.874-4.048 1.884-38.87.008-28.811-.268-37.089-1.246-37.417-.691-.231-1.002-.832-.691-1.335 1.032-1.67-75.83-1.092-77.303.581m-131.75 3.963c-1.65.566-3.562 1.562-4.25 2.214-1.823 1.727-1.803 62.917.021 64.74 3.219 3.22 5.848 3.587 25.677 3.587 26.406 0 27.052-.321 27.052-13.429 0-7.904-.156-8.571-2-8.571-1.824 0-2 .667-2 7.571 0 5.013-.455 8.027-1.346 8.918-1.826 1.826-38.133 2.161-42.025.388L752 935.679v-59.462l2.75-.801c2.855-.831 38.45-.654 41.462.206 1.416.404 1.761 1.987 2 9.172.243 7.339.559 8.735 2.038 9.018 1.569.3 1.75-.664 1.75-9.31 0-12.527-.285-12.83-12.388-13.2-26.559-.811-33.379-.781-36.112.157m-106.929.231c-3.849 1.049-4.571 2.876-4.571 11.572 0 8.832.317 9.937 2.598 9.062 1.036-.397 1.402-2.56 1.402-8.273v-7.734l4.055-1.215c3.97-1.19 35.987-.794 40.195.496 1.615.496 1.75 2.826 1.75 30.309v29.772l-2.547 1.16c-1.63.743-8.994 1.161-20.453 1.161-23.253 0-23 .112-23-10.161 0-7.172-.17-7.839-2-7.839-1.844 0-2 .667-2 8.571 0 8.433 1.03 11.429 3.929 11.429.589 0 1.071.45 1.071 1 0 1.479 41.513 1.331 44.295-.158 4.783-2.56 4.707-1.997 4.673-34.521-.027-25.9-.273-31.14-1.541-32.821-1.423-1.885-2.785-2.01-23.719-2.168-12.214-.092-23.076.069-24.137.358m-576.916 8.139c-.91 1.006-1.655 2.155-1.655 2.554s-1.348 2.164-2.995 3.921c-1.648 1.758-2.998 3.553-3 3.99-.003.436-1.106 1.981-2.451 3.432-1.346 1.451-2.22 3.006-1.941 3.456.278.45.081.818-.437.818-.519 0-1.178.9-1.466 2-.519 1.986-.03 2 69.884 2 46.271 0 70.406-.343 70.406-1 0-.55-.45-1-1-1s-1-.608-1-1.352c0-.743-1.461-2.881-3.248-4.75-1.786-1.869-3.152-3.623-3.037-3.898s-.672-1.516-1.752-2.758-1.977-2.591-1.995-3c-.017-.408-1.12-1.979-2.452-3.492l-2.42-2.75h-53.893c-50.941 0-53.984.1-55.548 1.829m179.845 1.834c-1.65 1.99-3.181 4.099-3.403 4.686s-1.435 2.181-2.696 3.542-2.067 2.841-1.788 3.291c.278.45.028.818-.554.818s-1.059.45-1.059 1 1.602 1 3.559 1c2.118 0 3.309-.405 2.941-1-.34-.55-.141-1 .441-1s1.059-.694 1.059-1.542.9-2.508 2-3.688 2-2.737 2-3.459c0-.721.45-1.311 1-1.311s1-.927 1-2.059.45-1.781 1-1.441 1-.084 1-.941c0-2.734-3.4-1.633-6.5 2.104m14.85-.663c-.33 1.65-.994 3-1.475 3s-.875.702-.875 1.559-.337 1.351-.75 1.096-.821.717-.908 2.16-.649 2.787-1.25 2.988c-1.334.444-1.467 4.197-.149 4.197.519 0 1.572-.897 2.34-1.994s1.599-1.79 1.847-1.543.525-.535.616-1.741.635-2.349 1.21-2.541c.574-.191 1.044-1.21 1.044-2.264 0-1.055.351-1.917.781-1.917.429 0 1.29-1.35 1.913-3 1.065-2.823.988-3-1.306-3-1.909 0-2.568.651-3.038 3m13.859-.25c-.124 1.513-.672 2.9-1.218 3.083s-.991.971-.991 1.75-.45 1.417-1 1.417-.947.337-.882.75c.404 2.556-.384 4.152-2.187 4.43l-2.069.32 2.108 2.25c2.099 2.241 2.237 2.25 33.487 2.25 17.259 0 32.091-.273 32.961-.607 1.755-.673 2.197-4.393.523-4.393-.582 0-.8-.419-.484-.931s.111-1.218-.457-1.569a1.223 1.223 0 0 1-.388-1.681c.354-.573.148-1.349-.459-1.725-.607-.375-1.227-1.787-1.378-3.138-.549-4.909-.832-4.956-29.985-4.956h-27.354zm64.591-1.55c.66.66 1.2 2.01 1.2 3s.398 1.8.883 1.8c.858 0 2.443 3.739 2.225 5.25-.059.413.567.75 1.392.75s1.447.337 1.382.75c-.508 3.214.314 5.25 2.118 5.25 2.141 0 2.905-3.532.908-4.197-.601-.201-1.163-1.588-1.25-3.083s-.387-2.719-.667-2.719c-1.579-.002-3.119-4.305-1.833-5.12 1.025-.649.914-.854-.467-.866-.995-.008-1.531-.465-1.191-1.015.364-.589-.723-1-2.641-1-2.535 0-2.992.267-2.059 1.2M358 881c0 1.65.45 3 1 3s1 .59 1 1.311c0 .722.9 2.278 2 3.459 1.1 1.18 2 2.53 2 3 0 1.67 4.11 5.23 6.039 5.23 2.903 0 2.448-3.193-.962-6.762-1.608-1.682-2.742-3.24-2.52-3.461.221-.222-1.126-2.024-2.995-4.005-1.869-1.982-3.135-3.866-2.813-4.187s-.166-.585-1.082-.585c-1.186 0-1.667.867-1.667 3m562 6.656c-2.976 1.188-6 4.741-6 7.05 0 4.468 4.479 3.786 6.275-.956.989-2.614 7.725-2.468 7.725.167 0 1.054.511 2.087 1.136 2.295 1.467.489-.609 4.234-4.386 7.912-1.513 1.473-2.75 3.398-2.75 4.277 0 .88-.45 1.599-1 1.599s-1 .9-1 2c0 1.556.667 2 3 2 1.883 0 3-.513 3-1.379 0-.759 1.826-3.261 4.058-5.561 7.545-7.775 4.968-18.628-4.655-19.606-2.147-.218-4.578-.128-5.403.202m-500.188 4.25c-1.604 1.874-.234 1.906 78.278 1.83 43.95-.042 79.91-.257 79.91-.478 0-3.174-2.066-3.258-79.706-3.258-74.356 0-76.902.062-78.482 1.906m-183.304 9.081c-.42.68 22.392 1.013 69.433 1.013 44.774 0 70.059-.351 70.059-.974 0-1.368-138.647-1.406-139.492-.039M52 916.831c0 12.284.096 12.882 2.25 14.03 1.703.908 19.361 1.131 72.581.919 68.295-.272 70.372-.336 71.75-2.221 1.916-2.621 1.937-21.293.027-23.809-1.244-1.638-5.96-1.75-73.968-1.75H52zm181.25-11.335c-.84.954-1.25 5.071-1.25 12.555 0 10.295.151 11.176 2 11.659 1.1.288 2 .937 2 1.442 0 1.435 139.845.962 142.155-.481 2.442-1.525 2.794-22.865.416-25.242-2.134-2.134-143.441-2.069-145.321.067M358 910c0 3.63.238 4 2.571 4 2.677 0 5.429-2.027 5.429-4s-2.752-4-5.429-4c-2.333 0-2.571.37-2.571 4m143-2.083c0 1.228.646 2.083 1.573 2.083.932 0 1.442-.68 1.25-1.667-.486-2.509-2.823-2.853-2.823-.416m-219.771 1.254c-1.631 1.631-1.654 16.004-.029 17.629 1.889 1.889 48.15 1.688 49.731-.217.735-.885 1.105-4.611.988-9.936l-.188-8.52-24.637-.092c-18.252-.068-24.955.226-25.865 1.136m55.971.029c-.66.66-1.2 2.46-1.2 4 0 2.421.391 2.8 2.893 2.8 3.586 0 4.71-2.431 2.607-5.641-1.744-2.661-2.574-2.885-4.3-1.159m-208.593 2.382c-1.168 3.043-.63 11.537.822 12.989 1.123 1.123 4.969 1.429 17.988 1.429h16.559l.64-4c.618-3.862 3.384-5.848 3.384-2.429 0 5.065 9.457 6.087 11.753 1.271 2.664-5.584-2.834-11.493-8.353-8.978-1.43.651-2.837 2.092-3.127 3.201-.743 2.841-2.53 1.881-3.506-1.883l-.824-3.182h-17.365c-14.911 0-17.45.223-17.971 1.582m-68.503.152c-5.481.669-7.281 4.011-5.054 9.386l1.193 2.88h67.421l1.122-3.653c1.143-3.724.334-6.899-2.186-8.582-1.126-.752-56.361-.779-62.496-.031m124.093 2.556c-2.037 2.169-2.884 8.253-.985 7.079.433-.268.788.215.788 1.072 0 2.97 9.427 2.111 10.839-.988 1.544-3.387 1.464-4.957-.328-6.444-.819-.68-1.296-1.548-1.06-1.93 1.287-2.081-7.205-.97-9.254 1.211m55.053-.812c-1.689 1.942-1.583 7.332.179 9.093 4.862 4.863 12.355-.92 9.512-7.341-1.453-3.283-7.421-4.362-9.691-1.752m111.15 3.83c.198 5.878 6.715 6.209 7.413.376.246-2.055-.182-2.715-2-3.085-4.513-.92-5.518-.416-5.413 2.709m15.229-1.782c-1.366 3.557.402 6.604 3.642 6.278 6.184-.621 6.188-6.986.006-7.608-2.073-.208-3.219.209-3.648 1.33m-113.198 1.586c-.765 1.238 1.257 2.857 3.569 2.857s4.334-1.619 3.569-2.857C259.191 916.5 257.585 916 256 916s-3.191.5-3.569 1.112m9.236-.445q-1.874 1.87 1.738 2.56c2.762.528 5.916-.899 5.057-2.288-.662-1.072-5.79-1.277-6.795-.272M921.2 919.2c-1.876 1.876-1.411 4.598.912 5.335 2.776.882 5.005-1.373 4.242-4.291-.637-2.435-3.236-2.962-5.154-1.044M336 922.508c0 1.449.733 3.368 1.629 4.264 1.505 1.505 1.774 1.449 3.542-.735 2.685-3.316 1.974-5.473-1.929-5.85-2.915-.282-3.242-.048-3.242 2.321m23.75-.779c-3.375.805-1.344 8.271 2.25 8.271 1.822 0 4.176-2.852 3.823-4.632-.42-2.12-3.844-4.171-6.073-3.639m590.918 5.693c-.3.783-1.361 1.217-2.357.966-3.43-.866-5.82 8.115-2.822 10.603.819.68 1.289 1.56 1.044 1.956-1.185 1.917 9.905 1.758 11.832-.17 2.114-2.113 2.169-9.386.087-11.467-2.318-2.319-2.936-.805-1.476 3.618 1.643 4.979-.171 7.372-5.218 6.886-3.126-.301-3.27-.507-3.563-5.064-.324-5.047 1.152-6.487 2.233-2.179.962 3.833 3.028 2.366 3.379-2.399.31-4.202-1.854-6.098-3.139-2.75M64 934.972c3.349 1.11 6 1.209 6 .224 0-.443-1.912-.861-4.25-.929-3.502-.102-3.81.022-1.75.705m113.857.137c-.859.545.546.866 3.834.876 2.855.008 5.459-.419 5.787-.949.74-1.198-7.716-1.133-9.621.073"/></svg>