<svg xmlns="http://www.w3.org/2000/svg" viewBox="0 0 1024 1024"><path fill="#00e5cc" d="M508 155c0 .55-.668 1-1.484 1s-4.271 1.35-7.677 3c-3.407 1.65-6.789 3-7.516 3s-1.323.369-1.323.819c0 .451-2.25 1.432-5 2.181s-5 1.73-5 2.181c0 .45-1.098.819-2.441.819s-2.719.45-3.059 1-1.491 1-2.559 1-1.941.45-1.941 1-.788 1.014-1.75 1.031c-.962.018-4.439 1.368-7.725 3-3.286 1.633-6.548 2.969-7.25 2.969-.701 0-1.275.369-1.275.819 0 .451-2.25 1.432-5 2.181s-5 1.649-5 2-2.25 1.251-5 2-5 1.73-5 2.181c0 .45-.697.819-1.548.819s-3.411.9-5.688 2-4.73 2-5.452 2-1.312.45-1.312 1-.697 1-1.548 1-3.411.9-5.688 2-4.73 2-5.452 2-1.312.369-1.312.819c0 .451-2.25 1.432-5 2.181s-5 1.73-5 2.181c0 .45-.697.819-1.548.819s-3.411.9-5.688 2-4.73 2-5.452 2-1.312.45-1.312 1-.68 1-1.511 1c-1.406 0-4.482 1.224-15.266 6.076-2.352 1.058-4.939 1.924-5.75 1.924s-1.473.45-1.473 1-.697 1-1.548 1-3.411.9-5.688 2-4.73 2-5.452 2-1.312.45-1.312 1-1.098 1-2.441 1-2.719.45-3.059 1-1.491 1-2.559 1-1.941.45-1.941 1-.697 1-1.548 1-3.411.9-5.688 2-4.73 2-5.452 2-1.312.369-1.312.819c0 .451-2.25 1.432-5 2.181s-5 1.73-5 2.181c0 .45-.68.819-1.511.819s-3.643.945-6.25 2.1c-2.606 1.154-5.864 2.557-7.239 3.116s-3.281 1.415-4.236 1.901-2.418.883-3.25.883c-.833 0-1.514.45-1.514 1s-.655 1-1.455 1-4.513 1.399-8.25 3.109-7.92 3.562-9.295 4.116c-1.375.555-3.281 1.406-4.236 1.892s-2.215.883-2.799.883-2.924.9-5.201 2-4.73 2-5.452 2-1.312.45-1.312 1-.697 1-1.548 1-3.411.9-5.688 2-4.73 2-5.452 2-1.312.45-1.312 1-.68 1-1.511 1-3.643.953-6.25 2.118c-11.664 5.211-13.265 5.882-14.04 5.882-.453 0-2.686.9-4.963 2s-4.836 2-5.688 2-1.548.45-1.548 1-.9 1-2 1-2 .45-2 1-.697 1-1.548 1-3.411.9-5.688 2-4.73 2-5.452 2-1.312.45-1.312 1-.831 1-1.846 1-3.266.708-5 1.573L170 297.146v418.718l2.75 1.887c1.513 1.038 5.225 3.055 8.25 4.482s7.947 3.759 10.937 5.181c2.991 1.422 6.028 2.586 6.75 2.586s1.313.45 1.313 1 .9 1 2 1 2 .45 2 1 .9 1 2 1 2 .45 2 1 .9 1 2 1 2 .45 2 1 .9 1 2 1 2 .45 2 1 .9 1 2 1 2 .45 2 1 .9 1 2 1 2 .45 2 1 .541 1 1.202 1 5.831 2.25 11.489 5 10.968 5 11.799 5 1.51.45 1.51 1 .9 1 2 1 2 .45 2 1 .9 1 2 1 2 .45 2 1 .9 1 2 1 2 .45 2 1 .9 1 2 1 2 .45 2 1 .9 1 2 1 2 .45 2 1 .9 1 2 1 2 .45 2 1 .585 1 1.301 1c1.839 0 6.682 2.352 6.691 3.25.004.413.544.75 1.198.75.655 0 8.526 3.6 17.492 8s16.981 8 17.81 8 1.508.45 1.508 1 .9 1 2 1 2 .45 2 1 .9 1 2 1 2 .45 2 1 .9 1 2 1 2 .45 2 1 .9 1 2 1 2 .45 2 1 .9 1 2 1 2 .45 2 1 .534 1 1.187 1 10.31 4.5 21.459 10c11.15 5.5 20.966 10 21.813 10 .848 0 1.541.45 1.541 1s.9 1 2 1 2 .45 2 1 .9 1 2 1 2 .45 2 1 .9 1 2 1 2 .45 2 1 .9 1 2 1 2 .45 2 1 .9 1 2 1 2 .45 2 1 .9 1 2 1 2 .45 2 1 .9 1 2 1 2 .45 2 1 .563 1.003 1.25 1.006 8.576 3.603 17.53 8S449.721 852 450.53 852c.808 0 1.47.45 1.47 1s.9 1 2 1 2 .45 2 1 .9 1 2 1 2 .45 2 1 .9 1 2 1 2 .45 2 1 .9 1 2 1 2 .45 2 1 .534 1 1.187 1 10.31 4.5 21.459 10c11.15 5.5 20.855 10 21.566 10s6.653-2.7 13.205-6 12.513-6 13.248-6 1.335-.45 1.335-1 .9-1 2-1 2-.45 2-1 .9-1 2-1 2-.45 2-1 .9-1 2-1 2-.45 2-1 .9-1 2-1 2-.45 2-1 .9-1 2-1 2-.45 2-1 .9-1 2-1 2-.45 2-1 .615-1 1.367-1c.751 0 6.039-2.288 11.75-5.084l20.416-10c5.519-2.704 10.581-4.916 11.25-4.916s1.217-.45 1.217-1 .9-1 2-1 2-.45 2-1 .9-1 2-1 2-.45 2-1 .9-1 2-1 2-.45 2-1 .9-1 2-1 2-.45 2-1 .679-1 1.508-1 8.844-3.6 17.81-8 16.8-8 17.409-8 1.256-.338 1.44-.75c.48-1.08 8.762-5.25 10.428-5.25.773 0 1.405-.45 1.405-1s.9-1 2-1 2-.45 2-1 .9-1 2-1 2-.45 2-1 .9-1 2-1 2-.45 2-1 .651-1 1.446-1c.796 0 8.751-3.6 17.678-8s16.788-8 17.47-8 1.389-.338 1.573-.75c.48-1.08 8.762-5.25 10.428-5.25.773 0 1.405-.45 1.405-1s.9-1 2-1 2-.45 2-1 .9-1 2-1 2-.45 2-1 .9-1 2-1 2-.45 2-1 .662-1 1.47-1c.809 0 8.796-3.597 17.75-7.994s16.843-7.997 17.53-8 1.254-.343 1.258-.756c.009-.898 4.852-3.25 6.691-3.25.716 0 1.301-.45 1.301-1s.9-1 2-1 2-.45 2-1 .9-1 2-1 2-.45 2-1 .9-1 2-1 2-.45 2-1 .652-1 1.448-1c1.943 0 41.134-19.439 43.045-21.351 1.333-1.332 1.507-25.664 1.507-210.548V297.059l-5.53-2.53c-3.041-1.391-6.191-2.529-7-2.529-.808 0-1.47-.34-1.47-.755 0-.416-1.575-1.316-3.5-2l-7-2.49c-1.925-.684-3.5-1.584-3.5-2s-.59-.755-1.312-.755-3.175-.9-5.452-2-4.527-2-5-2-2.723-.9-5-2-4.527-2-5-2-2.723-.9-5-2-4.836-2-5.688-2-1.548-.45-1.548-1-.681-1-1.514-1c-.832 0-2.52-.52-3.75-1.156-4.692-2.426-5.754-2.844-7.222-2.844-.833 0-1.514-.45-1.514-1s-.59-1-1.312-1-3.175-.9-5.452-2-4.617-2-5.201-2-2.069-.52-3.299-1.156c-4.692-2.426-5.754-2.844-7.222-2.844-.833 0-1.514-.45-1.514-1s-.59-1-1.312-1-3.175-.9-5.452-2-4.836-2-5.688-2-1.548-.45-1.548-1-.68-1-1.511-1c-1.379 0-8.473-2.833-12.725-5.082-.955-.505-2.643-.918-3.75-.918s-2.014-.45-2.014-1-.9-1-2-1-2-.45-2-1-.873-1-1.941-1-2.219-.45-2.559-1-1.716-1-3.059-1-2.441-.45-2.441-1-.9-1-2-1-2-.45-2-1-.68-1-1.511-1c-1.379 0-8.473-2.833-12.725-5.082-.955-.505-2.643-.918-3.75-.918s-2.014-.45-2.014-1-.9-1-2-1-2-.45-2-1-.873-1-1.941-1-2.219-.45-2.559-1-1.716-1-3.059-1-2.441-.45-2.441-1-.9-1-2-1-2-.45-2-1-.873-1-1.941-1-2.219-.45-2.559-1-1.716-1-3.059-1-2.441-.45-2.441-1-.59-1-1.312-1-3.175-.9-5.452-2-4.527-2-5-2-2.723-.9-5-2-4.836-2-5.688-2-1.548-.45-1.548-1-.59-1-1.312-1-3.175-.9-5.452-2-4.527-2-5-2-2.723-.9-5-2-4.836-2-5.688-2-1.548-.45-1.548-1-.59-1-1.312-1-3.175-.9-5.452-2-4.836-2-5.688-2-1.548-.45-1.548-1-.59-1-1.312-1-3.175-.9-5.452-2-4.527-2-5-2-2.723-.9-5-2-4.597-2-5.157-2-2.621-.9-4.579-2-4.447-2-5.53-2-1.97-.45-1.97-1-.9-1-2-1-2-.45-2-1-.59-1-1.312-1-3.175-.9-5.452-2-4.81-2-5.629-2-1.767-.45-2.107-1-1.716-1-3.059-1-2.441-.45-2.441-1-.59-1-1.312-1-3.175-.9-5.452-2-4.836-2-5.688-2-1.548-.45-1.548-1-.873-1-1.941-1-2.219-.45-2.559-1-2.166-1-4.059-1-3.441.45-3.441 1m-4 9.819c0 .451-2.25 1.432-5 2.181s-5 1.73-5 2.181c0 .45-.59.819-1.312.819s-3.175.9-5.452 2-4.836 2-5.688 2-1.548.45-1.548 1-.59 1-1.312 1-3.175.9-5.452 2-4.527 2-5 2-2.723.9-5 2-4.836 2-5.688 2-1.548.45-1.548 1-.59 1-1.312 1-3.175.9-5.452 2-4.527 2-5 2-2.723.9-5 2-4.836 2-5.688 2-1.548.45-1.548 1-.59 1-1.312 1-3.175.9-5.452 2-4.836 2-5.688 2-1.548.45-1.548 1-.59 1-1.312 1-3.175.9-5.452 2-4.527 2-5 2-2.723.9-5 2-4.836 2-5.688 2-1.548.45-1.548 1-.59 1-1.312 1-3.175.9-5.452 2-4.836 2-5.688 2-1.548.45-1.548 1-.59 1-1.312 1-3.175.9-5.452 2-4.527 2-5 2-2.723.9-5 2-4.836 2-5.688 2-1.548.369-1.548.819c0 .451-2.25 1.432-5 2.181s-5 1.73-5 2.181c0 .45-.59.819-1.312.819s-3.175.9-5.452 2-4.836 2-5.688 2-1.548.45-1.548 1-.873 1-1.941 1-2.219.45-2.559 1-1.716 1-3.059 1-2.441.45-2.441 1-.873 1-1.941 1-2.219.45-2.559 1-1.716 1-3.059 1-2.441.45-2.441 1-.574 1-1.275 1c-.702 0-3.964 1.336-7.25 2.969s-6.453 2.982-7.037 3-2.925.931-5.202 2.031-4.836 2-5.688 2-1.548.45-1.548 1-.59 1-1.312 1-3.175.9-5.452 2-4.836 2-5.688 2-1.548.45-1.548 1-.59 1-1.312 1-3.175.9-5.452 2-4.527 2-5 2-2.723.9-5 2-4.836 2-5.688 2-1.548.45-1.548 1-.59 1-1.312 1-3.175.9-5.452 2-4.836 2-5.688 2-1.548.45-1.548 1-.681 1-1.514 1c-.832 0-2.295.397-3.25.883s-2.861 1.341-4.236 1.901c-1.375.559-4.633 1.962-7.239 3.116-2.607 1.155-5.419 2.1-6.25 2.1s-1.511.369-1.511.819c0 .451-2.25 1.432-5 2.181s-5 1.73-5 2.181c0 .45-.59.819-1.312.819s-3.175.9-5.452 2-4.836 2-5.688 2-1.548.45-1.548 1-.81 1-1.8 1-2.34.54-3 1.2c-1.848 1.848-1.736 406.8.112 406.8.722 0 3.175-.9 5.452-2s4.836-2 5.688-2 1.548-.45 1.548-1 .9-1 2-1 2-.45 2-1 .59-1 1.312-1 3.175-.9 5.452-2 4.836-2 5.688-2 1.548-.45 1.548-1 .595-1 1.323-1c.727 0 4.109-1.35 7.516-3s6.861-3 7.677-3 1.484-.45 1.484-1 .606-1 1.346-1 2.653-.626 4.25-1.391 4.704-2.157 6.904-3.094 5.73-2.56 7.845-3.609 4.701-1.906 5.75-1.906c1.048 0 1.905-.45 1.905-1s.567-1 1.261-1 4.856-1.789 9.25-3.975 8.777-3.986 9.739-4S278 665.55 278 665s.697-1 1.548-1 3.411-.9 5.688-2 4.73-2 5.452-2 1.312-.45 1.312-1 .563-1 1.25-1 4.751-1.662 9.029-3.694c8.704-4.133 8.76-3.964-2.608-7.781-9.724-3.264-13.905-5.564-15.158-8.339-.543-1.202-1.331-2.186-1.75-2.186s-.763-.9-.763-2-.45-2-1-2-1-.681-1-1.514c0-1.49-1.924-5.51-3.105-6.486-.332-.275-1.176-2.91-1.875-5.856-1.2-5.058-.229-12.145 1.938-14.144 2.981-2.75 4.187-14.858 2.042-20.5-1.633-4.296-1.765-26.399-.163-27.394 2.476-1.54.667-26.404-2.81-38.606-.627-2.2-1.51-5.35-1.963-7s-2.078-6.6-3.612-11c-4.285-12.288-3.975-31.848.645-40.736.497-.955.903-2.198.903-2.761s.862-2.932 1.916-5.264c2.89-6.392 6.084-16.103 6.084-18.497 0-1.168.45-2.402 1-2.742s1-1.797 1-3.238.415-4.002.923-5.691 1.427-5.546 2.042-8.571c1.538-7.563 3.059-13.172 4.132-15.236.497-.955.903-2.418.903-3.25 0-.833.45-1.514 1-1.514s1-.603 1-1.341c0-3.838 14.016-14.659 18.988-14.659.887 0 2.04-.404 2.562-.898 2.199-2.077 30.45-4.087 30.45-2.166 0 .585.69 1.064 1.533 1.064 3.398 0 12.467 12.14 12.467 16.688 0 .722.45 1.312 1 1.312s1 .873 1 1.941.45 2.219 1 2.559 1 1.716 1 3.059.45 2.441 1 2.441 1 .732 1 1.626c0 4.198 9.078 18.374 11.766 18.374.471 0 1.729.792 2.795 1.76 1.067.968 4.076 2.88 6.689 4.248s4.75 2.827 4.75 3.24.615.752 1.366.752c1.94 0 12.634 10.507 12.634 12.414 0 .872.357 1.586.793 1.586 1.104 0 3.207 8.283 3.207 12.633 0 3.239-3.697 16.122-4.983 17.367-4.195 4.059-6.716 15.886-5.009 23.5.617 2.75 1.368 6.238 1.67 7.75.302 1.513.948 2.75 1.435 2.75s.887.632.887 1.405c0 1.666 4.17 9.948 5.25 10.428.413.184.75 1.196.75 2.25s.45 1.917 1 1.917 1 .9 1 2 .45 2 1 2 1 .9 1 2 .45 2 1 2 1 .862 1 1.917c0 1.054.362 2.066.803 2.25 3.141 1.302 6.551 23.295 4.28 27.597-.504.955-1.458 3.198-2.121 4.986s-1.6 3.25-2.083 3.25-.879.59-.879 1.311c0 .722-.925 2.304-2.055 3.517-2.867 3.078-.453 5.711 4.342 4.733 1.767-.361 4.675-.909 6.463-1.218s3.25-.963 3.25-1.452c0-.49 1.35-.891 3-.891s3-.401 3-.891c0-.489 1.575-1.164 3.5-1.5 1.925-.335 5.133-.89 7.128-1.233l3.628-.625-.702-10.487c-.879-13.125-.665-12.66-6.596-14.275-2.727-.743-4.958-1.719-4.958-2.17s-1.145-.819-2.545-.819c-3.43 0-7.463-4.187-7.423-7.705.035-3.051 2.015-6.295 3.842-6.295.634 0 1.935-.406 2.89-.903.955-.496 3.621-1.459 5.925-2.139 4.028-1.19 5.316-1.118 17.311.978 5.66.989 21.388 6.234 21.833 7.281.184.431 1.196.783 2.25.783s1.917.45 1.917 1 .9 1 2 1 2 .398 2 .883c0 .486.9 1.119 2 1.407 1.1.287 2 1.24 2 2.116s.45 1.594 1 1.594c1.406 0 1.188 6.19-.282 8-3.115 3.836-12.656 6.399-17.934 4.817-4.878-1.461-4.769-1.634-5.791 9.257l-.869 9.269 3.688 3.38c2.635 2.414 4.259 3.198 5.688 2.747 1.1-.347 3.012-.873 4.25-1.167s2.25-.934 2.25-1.42.595-.883 1.323-.883c.727 0 4.109-1.35 7.516-3s6.861-3 7.677-3 1.484-.45 1.484-1 .524-1 1.164-1 2.89-.762 5-1.692l3.836-1.693V367.308C508 164.667 507.993 164 506 164c-1.1 0-2 .369-2 .819M516 366.8c0 212.442-.148 205.2 4.2 205.2.99 0 1.8.45 1.8 1s.697 1 1.548 1 3.411.9 5.688 2 4.73 2 5.452 2 1.312.45 1.312 1 .9 1 2 1 2 .45 2 1 .697 1 1.548 1 3.411.9 5.688 2 4.693 2 5.368 2 1.379.419 1.563.93 1.683 1.074 3.333 1.25l3 .32.291-11c.399-15.089.451-14.963-6.775-16.497-3.309-.702-6.016-1.665-6.016-2.14 0-.474-.649-.863-1.443-.863-3.614 0-4.557-3.946-4.557-19.069 0-16.323.791-19.224 6.311-23.149 1.754-1.247 4.745-3.733 6.647-5.525 1.902-1.791 3.754-3.257 4.115-3.257s2.179-1.343 4.041-2.984 3.703-2.991 4.091-3c.387-.009 1.737-1.03 3-2.269s4.202-3.748 6.534-5.575c4.609-3.613 6.76-7.458 7.648-13.672.314-2.2 1.033-6.025 1.598-8.5 1.1-4.82 2.563-11.736 4.021-19 .496-2.475 1.373-6.75 1.948-9.5s1.47-7.25 1.989-10c.518-2.75 1.446-7.025 2.062-9.5a232 232 0 0 0 2.012-9c.49-2.475 1.4-6.75 2.023-9.5 2.708-11.966 2.103-18.483-1.719-18.505-.451-.002-2.171-1.254-3.821-2.782-1.65-1.527-4.575-3.882-6.5-5.232-1.925-1.349-5.413-4.361-7.75-6.691l-4.25-4.237v-20.98c0-21.318.561-25.173 3.885-26.709 1.701-.786 13.198-1.684 42.115-3.291 9.625-.534 21.325-1.261 26-1.615 6.486-.49 9.329-.286 12 .862 4.002 1.719 8 4.934 8 6.432 0 1.642 3.98 3.681 12 6.147 4.125 1.269 8.281 2.71 9.236 3.204.955.493 2.616.897 3.691.897s2.233.45 2.573 1 1.941 1 3.559 1 2.941.45 2.941 1 1.098 1 2.441 1 2.719.45 3.059 1 1.69 1 3 1 2.66.45 3 1 1.69 1 3 1 2.66.45 3 1 1.723 1 3.073 1 3.236.407 4.191.905 8.265 2.999 16.244 5.558c12.785 4.1 15.457 4.631 22.5 4.474 9.816-.219 15.36 1.203 19.401 4.978l3.091 2.887V682.77l2.465 1.615c1.355.888 3.155 1.615 4 1.615.844 0 1.535.45 1.535 1s.9 1 2 1 2 .45 2 1 .788 1.014 1.75 1.031c.962.018 4.439 1.368 7.725 3 3.286 1.633 6.345 2.969 6.798 2.969s2.686.9 4.963 2 4.73 2 5.452 2 1.312.45 1.312 1 .668 1 1.484 1 4.271 1.35 7.677 3c3.407 1.65 6.789 3 7.516 3 1.093 0 1.323-35.362 1.323-203.308V301.385l-3.836-1.693c-2.11-.93-4.36-1.692-5-1.692s-1.164-.45-1.164-1-.697-1-1.548-1-3.411-.9-5.688-2-4.51-2-4.963-2c-.452 0-2.955-.953-5.562-2.118a6432 6432 0 0 0-8.978-4c-2.332-1.035-4.919-1.882-5.75-1.882s-1.511-.45-1.511-1-.697-1-1.548-1-3.411-.9-5.688-2-4.73-2-5.452-2-1.312-.369-1.312-.819c0-.451-2.25-1.432-5-2.181s-5-1.73-5-2.181c0-.45-.697-.819-1.548-.819s-3.411-.9-5.688-2-4.527-2-5-2-2.723-.9-5-2-4.73-2-5.452-2-1.312-.45-1.312-1-.697-1-1.548-1-3.411-.9-5.688-2-4.73-2-5.452-2-1.312-.45-1.312-1-.697-1-1.548-1-3.411-.9-5.688-2-4.527-2-5-2-2.723-.9-5-2-4.73-2-5.452-2-1.312-.45-1.312-1-.697-1-1.548-1-3.411-.9-5.688-2-4.73-2-5.452-2-1.312-.45-1.312-1-.697-1-1.548-1-3.411-.9-5.688-2-4.527-2-5-2-2.723-.9-5-2-4.73-2-5.452-2-1.312-.45-1.312-1-.697-1-1.548-1-3.411-.9-5.688-2-4.73-2-5.452-2-1.312-.45-1.312-1-.697-1-1.548-1-3.411-.9-5.688-2-4.527-2-5-2-2.723-.9-5-2-4.73-2-5.452-2-1.312-.45-1.312-1-.697-1-1.548-1-3.411-.9-5.688-2-4.73-2-5.452-2-1.312-.369-1.312-.819c0-.451-2.25-1.432-5-2.181s-5-1.73-5-2.181c0-.45-.697-.819-1.548-.819s-3.411-.9-5.688-2-4.618-2.014-5.202-2.031-3.751-1.368-7.037-3c-3.286-1.633-6.345-2.969-6.798-2.969s-2.686-.9-4.963-2-4.527-2-5-2-2.723-.9-5-2-4.73-2-5.452-2-1.312-.45-1.312-1-.697-1-1.548-1-3.411-.9-5.688-2-4.73-2-5.452-2-1.312-.45-1.312-1-.697-1-1.548-1-3.411-.9-5.688-2-4.73-2-5.452-2-1.312-.369-1.312-.819c0-.451-2.25-1.432-5-2.181s-5-1.73-5-2.181c0-.45-.697-.819-1.548-.819s-3.411-.9-5.688-2-4.73-2-5.452-2c-1.078 0-1.312 36.102-1.312 202.8m113.5-46.732c-43.035 2.037-45.04 2.189-47.25 3.571-2.212 1.383-2.25 1.748-2.25 21.455 0 19.595.496 22.906 3.429 22.906.314 0 .571-8.914.571-19.809 0-15.516.307-20.229 1.417-21.75 1.555-2.129 2.416-2.204 49.583-4.34 12.375-.56 22.612-1.037 22.75-1.06.138-.022.25-.491.25-1.041 0-1.078-4.526-1.067-28.5.068m-4.5 8.968c-3.575.401-9.312.783-12.75.847-3.437.064-6.25.567-6.25 1.117s.681 1 1.514 1c.832 0 2.295.42 3.25.934.955.513 3.874 1.511 6.486 2.218s4.75 1.636 4.75 2.066 1.35.782 3 .782 3 .45 3 1 1.131 1 2.514 1 3.295.412 4.25.916 5.221 1.967 9.481 3.25c4.26 1.284 7.747 2.671 7.75 3.084s1.355.75 3.005.75 3 .45 3 1 .919 1 2.042 1c1.124 0 8.211 2.08 15.75 4.622 18.14 6.116 19.932 6.511 21.664 4.779.771-.771 2.108-1.401 2.973-1.401s1.571-.38 1.571-.846 5.737-1.127 12.75-1.472c7.013-.344 15.614-.933 19.116-1.309l6.365-.682-3.794-1.846C734.35 350.83 731.85 350 730.88 350c-.969 0-2.04-.45-2.38-1s-1.915-1-3.5-1-3.16-.45-3.5-1-1.716-1-3.059-1-2.441-.45-2.441-1-1.35-1-3-1-3-.45-3-1-1.131-1-2.514-1-3.295-.404-4.25-.897-9.161-3.24-18.236-6.103-17.281-5.61-18.236-6.103c-2.012-1.039-32.177-.939-41.764.139m-31 20.332v15.367l8.25 2.667c7.984 2.581 11.345 3.862 14.986 5.715.955.486 2.616.883 3.691.883s2.233.45 2.573 1 1.69 1 3 1 2.66.45 3 1 1.626 1 2.859 1 2.669.369 3.191.819c.522.451 7.025 2.803 14.45 5.228s13.65 4.756 13.833 5.181c.184.425 1.646.772 3.25.772s2.917.45 2.917 1 1.35 1 3 1 3 .45 3 1 1.035 1 2.3 1 2.727.372 3.25.826c.522.454 2.975 1.448 5.45 2.208s4.813 1.838 5.196 2.395c1.484 2.161 1.895-.731 2.318-16.287l.438-16.115-2.726-1.336c-1.499-.735-4.751-1.909-7.226-2.611-2.475-.701-5.281-1.681-6.236-2.177-.955-.497-2.616-.903-3.691-.903s-2.233-.45-2.573-1-1.69-1-3-1-2.66-.45-3-1-1.69-1-3-1-2.66-.45-3-1-1.626-1-2.859-1-2.669-.369-3.191-.82c-.881-.76-8.69-3.28-19.45-6.275-2.475-.689-4.928-1.625-5.45-2.079s-1.985-.826-3.25-.826-2.3-.45-2.3-1-1.098-1-2.441-1-2.719-.45-3.059-1-1.941-1-3.559-1-2.941-.45-2.941-1-1.323-1-2.941-1-3.219-.45-3.559-1-1.69-1-3-1-2.66-.45-3-1-1.716-1-3.059-1H594zm160 8.72c-36.211 1.875-48.695 2.799-51.25 3.793L700 362.95v21.325c0 20.72.405 23.725 3.2 23.725.44 0 .8-8.754.8-19.453 0-26.682-.422-26.084 19-26.902 23.028-.97 48.227-2.795 50.338-3.646 2.554-1.03 2.262-1.029-19.338.089m-3 6.954c-3.025.418-10.225.824-16 .903-14.116.192-25.055 1.534-26.113 3.203-.471.744-.863 9.585-.872 19.647-.015 18.101.011 18.322 2.44 20.75 1.35 1.35 2.879 2.455 3.398 2.455s3.242 2.25 6.051 5c2.808 2.75 5.514 5 6.012 5s2.112 1.433 3.585 3.184c2.58 3.065 2.66 3.521 2.164 12.25-.541 9.512-1.533 16.361-2.726 18.826-.279.578-2.823 12.804-4.939 23.74-.585 3.025-1.5 7.637-2.032 10.25s-1.418 7-1.968 9.75l-2 10a8142 8142 0 0 1-3.82 19c-.501 2.475-1.263 5.4-1.692 6.5-.848 2.172-13.451 14.485-14.837 14.494-.467.003-2.042 1.261-3.5 2.795-1.458 1.533-4.226 3.881-6.151 5.218-1.925 1.336-4.85 3.679-6.5 5.206s-3.358 2.78-3.795 2.782c-.438.003-1.9 1.11-3.25 2.46-2.387 2.387-2.455 2.865-2.455 17.393 0 17.048-.511 16.152 9.214 16.152 7.148 0 9.745 2.083 9.852 7.903.036 1.978.148 29.772.25 61.763.101 31.991.493 58.476.872 58.854.378.379 2.135-.033 3.903-.916 1.769-.882 3.822-1.604 4.563-1.604s1.346-.45 1.346-1 .9-1 2-1 2-.45 2-1 .9-1 2-1 2-.45 2-1 .9-1 2-1 2-.45 2-1 .9-1 2-1 2-.45 2-1 .585-1 1.301-1c1.839 0 6.682-2.352 6.691-3.25.004-.413.572-.75 1.262-.75s4.965-1.8 9.501-4 8.884-4 9.662-4 1.566-.342 1.75-.759c.448-1.021 17.001-9.26 18.583-9.249.688.004 1.25-.442 1.25-.992s.9-1 2-1 2-.45 2-1 .681-1 1.514-1c1.818 0 5.165-1.798 8.236-4.424l2.25-1.925V364l-13.75.141c-7.562.077-16.225.483-19.25.901m-423.5 11.92c-1.65.43-5.7 1.362-9 2.071s-6.428 1.667-6.95 2.128-1.54.839-2.262.839c-3.233 0-10.911 6.442-12.998 10.906-3.153 6.744-3.36 7.424-6.345 20.844-.52 2.337-1.375 6.163-1.902 8.5a363 363 0 0 0-1.916 9.25c-.529 2.75-1.289 5.833-1.69 6.851-.744 1.891.829 3.604 3.338 3.634 2.036.024 4.334-6.952 6.256-18.985.878-5.503 2.27-12.861 3.5-18.5 3.205-14.704 15.062-23.167 35.086-25.043 7.439-.697 9.285-1.714 5.133-2.827-2.88-.772-6.458-.656-10.25.332m281.5-.079c0 .615.34 1.117.755 1.117.416 0 2.564 1.688 4.773 3.75 4.679 4.368 6.522 5.343 15.972 8.447 3.85 1.264 7.15 2.637 7.333 3.051.184.414 1.646.752 3.25.752s2.917.45 2.917 1 1.098 1 2.441 1 2.719.45 3.059 1 1.69 1 3 1 2.66.45 3 1 1.69 1 3 1 2.66.45 3 1 1.851 1 3.359 1 3.169.372 3.691.826c.523.454 2.975 1.436 5.45 2.18s4.95 1.642 5.5 1.994 3.025 1.222 5.5 1.934 5.4 1.625 6.5 2.03c8.672 3.194 10.405 3.07 6.5-.464-1.1-.995-2-2.222-2-2.726 0-2.187-5.893-5.774-9.486-5.774-1.383 0-2.514-.45-2.514-1s-1.35-1-3-1-3-.45-3-1-1.098-1-2.441-1-2.719-.45-3.059-1-1.69-1-3-1-2.66-.45-3-1-1.626-1-2.859-1-2.669-.369-3.191-.819c-.522-.451-7.025-2.803-14.45-5.228s-13.65-4.756-13.833-5.181c-.184-.425-1.646-.772-3.25-.772s-2.917-.45-2.917-1-1.35-1-3-1-3-.401-3-.891c0-.489-1.462-1.118-3.25-1.395-1.788-.278-4.263-.83-5.5-1.226-1.42-.455-2.25-.31-2.25.395m-275.5 4.835c-6.465.358-12.37 1.968-20.25 5.522-3.866 1.744-11.25 9.3-11.25 11.513 0 1.016-.404 2.275-.898 2.797-.845.895-1.391 3.784-2.731 14.45-.311 2.475-.971 4.928-1.468 5.45s-.903 2.858-.903 5.191-.4 4.488-.89 4.791c-.489.302-1.151 2.016-1.47 3.809-1.759 9.861-1.822 10.759-.749 10.759.61 0 1.109.9 1.109 2s.398 2 .883 2c.486 0 1.134.959 1.441 2.131 1.259 4.815 3.816-.739 5.354-11.631.311-2.2.907-4.225 1.326-4.5.418-.275 1.601-2.3 2.628-4.5s2.88-4.444 4.118-4.987 2.25-1.331 2.25-1.75.873-.763 1.941-.763 2.219-.45 2.559-1c.885-1.432 6.408-1.235 7.925.282.706.706 1.601 3.406 1.99 6 .686 4.572.814 4.718 4.146 4.718H334l.032-6.25c.043-8.556 1.424-10.208 8.445-10.106 5.535.08 11.523 1.887 11.523 3.477 0 .484 2.057.879 4.571.879 6.922 0 7.429.985 7.429 14.429 0 12.881 1.46 15.545 2.368 4.321.323-3.988.867-9.138 1.209-11.446.537-3.62.273-4.545-1.932-6.749-2.656-2.657-9.645-16.401-9.645-18.968 0-.808-.45-1.747-1-2.087s-1-1.716-1-3.059-.45-2.441-1-2.441-1-.663-1-1.473c0-.811-.979-3.489-2.176-5.952-2.869-5.906-7.075-7.48-18.324-6.857m273.075 10.577a804 804 0 0 0-1.075 7.205c-1.458 10.118-1.767 11.547-2.606 12.065-.492.304-.894 1.87-.894 3.48s-.46 4.845-1.022 7.191c-1.35 5.632-4.025 18.492-4.632 22.264-.265 1.65-.876 3.9-1.357 5-.482 1.1-1.056 3.8-1.277 6-.407 4.062-2.987 17.127-4.639 23.5-3.338 12.872-4.039 14.074-11.073 18.99-1.925 1.345-4.85 3.696-6.5 5.223-1.65 1.528-3.397 2.78-3.883 2.782-.485.003-1.61.805-2.5 1.783s-3.642 3.318-6.117 5.2c-2.475 1.881-6.187 5.096-8.25 7.143l-3.75 3.722v13.887c0 10.663.341 14.338 1.468 15.829 1.318 1.743 1.472.734 1.5-9.866.032-11.631 1.367-20.201 3.463-22.226.588-.568 2.644-2.13 4.569-3.472 1.925-1.341 4.62-3.463 5.99-4.717 1.369-1.253 2.811-2.278 3.204-2.278s1.748-1.022 3.011-2.272c1.262-1.249 3.87-3.36 5.795-4.691 4.396-3.039 12-10.463 12-11.717 0-.519.836-1.84 1.858-2.937s2.162-3.544 2.533-5.439c.371-1.894 1.11-5.694 1.642-8.444 1.504-7.777 2.757-13.597 3.982-18.5.619-2.475 1.495-6.75 1.947-9.5 1.006-6.111 2.676-14.48 4.09-20.5 1.106-4.706 2-8.81 3.923-18 2.142-10.241 2.432-18.63.666-19.307-1.173-.451-1.693.203-2.066 2.602m15.414 2.455c-.013.935-4.777 23.329-6.116 28.75-.543 2.2-1.412 6.25-1.93 9-.519 2.75-1.414 7.25-1.989 10s-1.447 7.025-1.937 9.5a229 229 0 0 1-2.016 9c-.618 2.475-1.34 5.85-1.604 7.5-.263 1.65-.887 4.575-1.386 6.5-2.319 8.945-2.11 10.651 1.81 14.751 3.418 3.577 5.086 4.612 11.679 7.249 1.375.55 3.513 1.42 4.75 1.934s4.05 1.524 6.25 2.245c2.2.72 4.225 1.562 4.5 1.869s4.378 1.805 9.118 3.33 9.699 3.333 11.021 4.019 4.532 1.876 7.133 2.643c2.6.768 4.728 1.748 4.728 2.178s1.098.782 2.441.782 2.719.45 3.059 1 1.498 1 2.573 1 2.736.429 3.691.953 4.661 1.931 8.236 3.126c3.575 1.196 6.95 2.505 7.5 2.909.55.405 2.21 1.025 3.689 1.378 3.258.777 3.956-.171 5.054-6.862a356 356 0 0 1 1.822-10.004c.551-2.75 1.425-7.475 1.942-10.5.518-3.025 1.431-7.525 2.03-10a259 259 0 0 0 2.058-9.5c1.095-5.648 2.51-12.747 3.937-19.75 2.356-11.563 3.105-15.488 3.624-19.006.306-2.066.958-4.005 1.45-4.309 1.26-.78 1.111-5.161-.264-7.73-1.759-3.286-2.946-4.143-7.842-5.659-2.475-.767-4.928-1.766-5.45-2.22s-1.985-.826-3.25-.826-2.3-.45-2.3-1-1.147-1-2.548-1-4.411-.9-6.688-2-4.929-2-5.893-2-2.031-.45-2.371-1-1.69-1-3-1-2.66-.45-3-1-1.69-1-3-1-2.66-.45-3-1-1.723-1-3.073-1-3.236-.397-4.191-.883c-3.752-1.909-7.297-3.216-21.903-8.073-14.584-4.85-19.321-5.902-19.344-4.294m6.327 11.602c-1.125 1.294-2.348 3.881-2.719 5.75-1.986 10.027-2.566 12.793-3.542 16.898-.589 2.475-1.328 6.075-1.643 8s-.955 4.4-1.424 5.5-1.087 3.35-1.375 5-1.001 5.25-1.584 8-1.338 7.025-1.676 9.5-.956 4.95-1.372 5.5c-1.138 1.502-2.145 12.832-1.255 14.134 1.192 1.746 8.104 5.366 10.245 5.366 1.051 0 2.189.45 2.529 1s1.716 1 3.059 1 2.441.369 2.441.819c0 .451 2.279 1.44 5.063 2.198 2.785.759 5.287 1.74 5.559 2.181s1.594.802 2.937.802 2.441.352 2.441.782 2.138 1.405 4.75 2.168c2.612.762 5.425 1.708 6.25 2.101 2.315 1.104 6.151 2.625 10 3.966 1.925.671 5.408 2.066 7.739 3.101 2.332 1.035 4.829 1.882 5.55 1.882s1.814.503 2.428 1.117c.615.615 3.609 1.177 6.655 1.25 5.957.143 8.53-1.627 8.596-5.917.018-1.127.438-2.477.935-3 .497-.522 1.131-2.975 1.411-5.45.279-2.475 1.02-6.525 1.647-9 1.812-7.15 4.802-21.781 5.62-27.5.315-2.2.957-4.9 1.428-6 .47-1.1 1.127-3.575 1.461-5.5.333-1.925.999-5.75 1.48-8.5 1.205-6.89.289-12.29-2.334-13.757-3.343-1.87-8.916-3.712-11.283-3.728-1.191-.008-2.316-.362-2.5-.787-.183-.425-6.408-2.777-13.833-5.228s-13.65-4.803-13.833-5.228c-.184-.425-1.202-.772-2.264-.772s-2.712-.437-3.667-.971C658.688 411.043 636.1 404 633.282 404c-1.821 0-3.692.886-4.966 2.352m3.077 3.821c-.874 1.414-3.09 11.24-4.923 21.827-.334 1.925-.998 4.4-1.476 5.5-.479 1.1-1.095 3.575-1.371 5.5-.546 3.812-2.001 10.93-3.68 18a315 315 0 0 0-1.968 9c-.495 2.475-1.19 5.946-1.545 7.713-.676 3.362.104 4.625 4.345 7.037 1.209.688 3.077 1.25 4.152 1.25s2.178.361 2.451.802c.272.441 2.774 1.422 5.559 2.181 2.784.758 5.063 1.747 5.063 2.198s1.035.819 2.3.819 2.728.372 3.25.826c.523.454 2.975 1.448 5.45 2.208s4.725 1.642 5 1.959 3.875 1.654 8 2.972c4.125 1.317 7.927 2.764 8.45 3.215s1.958.82 3.191.82 2.467.365 2.743.812 3.659 1.867 7.519 3.156c7.962 2.659 9.512 2.175 10.431-3.253.674-3.981 2.308-11.76 3.723-17.715a302 302 0 0 0 1.96-9c.49-2.475 1.387-6.75 1.993-9.5.605-2.75 1.329-6.575 1.608-8.5.278-1.925.9-4.4 1.382-5.5.96-2.192 1.847-7.277 2.618-15 .468-4.699.332-5.075-2.259-6.25-1.517-.687-3.349-1.25-4.072-1.25s-2.096-.434-3.051-.965S692.225 428.688 687 427s-10.281-3.504-11.236-4.035-2.643-.965-3.75-.965-2.014-.45-2.014-1-1.098-1-2.441-1-2.719-.45-3.059-1-1.69-1-3-1-2.605-.361-2.878-.802c-.272-.441-2.774-1.422-5.559-2.181-2.784-.758-5.063-1.651-5.063-1.985s-.862-.671-1.915-.751-3.994-.85-6.535-1.712c-5.523-1.876-7.192-1.957-8.157-.396M338 427c0 2.75.36 5 .8 5 1.437 0 3.2-2.358 3.2-4.279 0-1.524.521-1.771 2.75-1.302 1.512.317 3.385.169 4.162-.33 2.574-1.654-1.203-4.089-6.341-4.089H338zm-21.486.309c-3.794 2.276-6.728 6.148-4.947 6.529.87.185 2.432-.432 3.47-1.372 1.902-1.721 4.963-1.411 4.963.503 0 .567.9 1.031 2 1.031 2.435 0 2.638-2.645.443-5.777-1.733-2.475-3.001-2.671-5.929-.914m40.986-.544c-3.23 2.373-3.554 3.942-1.623 7.858 4.267 8.657 4.586 11.553 2.904 26.346-.345 3.03 2.246 3.861 4.624 1.483 1.772-1.772 1.539-5.262-.861-12.952-.806-2.579-1.082-7.464-.777-13.75.437-9.028.333-9.749-1.398-9.735-1.028.009-2.319.346-2.869.75m15.067 2.92c-.709 1.849 2.063 4.85 6.683 7.234 1.512.78 2.75 1.793 2.75 2.25s.646.831 1.435.831c2.352 0 12.565 10.863 12.565 13.365 0 1.229.495 2.73 1.101 3.336 1.084 1.084.031 6.072-2.224 10.535-.482.955-.877 2.418-.877 3.25 0 .833-.45 1.514-1 1.514s-1 .9-1 2-.34 2-.757 2c-.792 0-2.131 3.953-4.305 12.706-1.128 4.541-1.066 6.073.488 12 .98 3.737 2.009 8.256 2.287 10.044s.907 3.25 1.396 3.25c.49 0 .891.563.891 1.251s3.143 7.55 6.984 15.25c3.842 7.699 6.992 14.696 7 15.549s.545 2.079 1.191 2.725c.698.698 1.206 4.542 1.25 9.45.076 8.396-1 11.3-6.149 16.603-2.14 2.205-3.477 5.172-2.33 5.172 1.713 0 9.899-6.39 10.562-8.244.343-.959 1.318-2.439 2.168-3.289 3.052-3.053 1.377-26.467-1.894-26.467-.43 0-.782-.591-.782-1.314s-3.151-7.559-7.003-15.192C394.045 507.753 392 501.929 392 494.168c0-6.209 1.822-14.168 3.243-14.168.417 0 .757-.688.757-1.529 0-.84 1.35-4.202 3-7.471 6.112-12.107 3.185-27.05-6.25-31.919-1.512-.78-2.75-1.793-2.75-2.25s-.59-.831-1.311-.831c-.722 0-2.187-.788-3.256-1.75-2.318-2.086-9.787-6.25-11.212-6.25-.554 0-1.298.758-1.654 1.685M724 431.75c0 2.063-.69 6.901-1.533 10.75-1.467 6.702-2.499 11.66-4.473 21.5-.496 2.475-1.373 6.75-1.948 9.5a664 664 0 0 0-2.085 10.5c-1.1 5.822-2.203 11.314-3.915 19.5-1.442 6.89-2.871 14.33-3.554 18.5-1.215 7.411-3.04 11.618-6.398 14.75-1.917 1.788-3.867 3.25-4.335 3.25s-1.944 1.094-3.282 2.432c-1.337 1.337-4.117 3.7-6.177 5.25-2.061 1.55-5.556 4.506-7.768 6.568-2.212 2.063-4.398 3.75-4.859 3.75s-3.051 2.201-5.755 4.892L663 567.784l.014 13.858c.015 15.434.47 18.36 2.853 18.354 1.435-.004 1.647-1.879 1.75-15.471l.118-15.466 6.316-6.03c3.474-3.316 6.664-6.029 7.087-6.029s1.804-1.022 3.067-2.272c1.262-1.249 3.87-3.382 5.795-4.739s4.804-3.71 6.398-5.228c1.594-1.519 3.297-2.761 3.784-2.761 3.532 0 8.839-9.076 10.232-17.5.273-1.65.987-5.25 1.587-8 1.166-5.346 2.223-10.683 3.862-19.5.562-3.025 1.505-7.525 2.096-10 1.043-4.37 1.768-8.004 4.087-20.5a1216 1216 0 0 1 4.02-20.75c1.905-9.388 2.204-14.72.91-16.279-2.012-2.425-2.976-1.687-2.976 2.279m-374.55 1.09c-.522.462-2.525 1.407-4.45 2.101-1.925.693-4.4 1.628-5.5 2.076-3.97 1.619-11.488 2.983-16.443 2.983-2.781 0-5.057.45-5.057 1s.45 1 1 1 1 .9 1 2 .391 2 .868 2c2.048 0 3.074 13.683 1.65 22-.637 3.719-.54 4.283.556 3.25.729-.687 2.136-1.25 3.126-1.25s1.8-.45 1.8-1 .873-1 1.941-1 2.219-.45 2.559-1 1.69-1 3-1 2.637-.412 2.948-.915 3.874-1.226 7.919-1.605c10.225-.958 10.06-.767 10.091-11.673.033-11.682-3.73-21.865-7.008-18.967m22.909 17.865c.318 8.137 1.056 18.17 1.64 22.295s1.475 10.65 1.982 14.5 1.407 9.475 2.002 12.5c2.982 15.168 4.662 24.444 5.681 31.369.392 2.665 1.777 5.114 4.452 7.87 2.136 2.201 3.884 4.623 3.884 5.382s.45 1.379 1 1.379 1 .873 1 1.941.402 2.19.894 2.494c.995.615 1.858 5.46 2.906 16.32l.7 7.254 2.593-2.254c1.426-1.24 3.113-3.238 3.75-4.439 1.417-2.675 1.543-16.96.157-17.816-.55-.34-1-1.716-1-3.059s-.45-2.441-1-2.441-1-.862-1-1.917c0-1.054-.366-2.066-.814-2.25-1.113-.456-9.186-16.632-9.186-18.406 0-.785-.352-1.427-.782-1.427s-1.405-2.138-2.168-4.75c-.762-2.612-1.705-5.425-2.095-6.25-4.031-8.525-3.955-22.075.168-30.236.482-.955.877-2.418.877-3.25 0-.833.45-1.514 1-1.514s1-.9 1-2 .34-2 .757-2c2.579 0 4.309-16.019 1.993-18.46a101 101 0 0 1-2.838-3.178c-.873-1.024-2.706-2.762-4.074-3.862-2.47-1.986-3.914-2.892-10.585-6.639l-3.473-1.95zm-65.692-12.038c-1.196 1.196-.706 4.35 1.333 8.569 1.1 2.277 2 5.09 2 6.252s.526 2.638 1.168 3.28c.89.89.89 2.094 0 5.066-.642 2.144-1.168 6.208-1.168 9.032 0 4.848.143 5.134 2.571 5.134 2.894 0 5.429-2.068 5.429-4.429 0-.864.45-1.571 1-1.571s1-1.283 1-2.851.481-4.23 1.068-5.915c2.883-8.27-9.42-27.549-14.401-22.567m-25.366 8.081c-.654 1.514-1.774 4.665-2.488 7.002-.715 2.337-1.64 4.25-2.056 4.25s-.757 1.098-.757 2.441-.45 2.719-1 3.059c-1.633 1.009-1.204 22.331.551 27.37 1.999 5.739 4.222 9.97 6.555 12.474 1.042 1.118 1.894 2.417 1.894 2.886s.9 1.82 2 3c1.1 1.181 2 2.737 2 3.459 0 .721.45 1.311 1 1.311s1 .9 1 2 .45 2 1 2 1 .9 1 2 .45 2 1 2 1 .9 1 2 .45 2 1 2 1 .68 1 1.511c0 1.379 2.833 8.473 5.082 12.725.505.955.918 2.616.918 3.691s.45 2.233 1 2.573 1 1.69 1 3 .45 2.66 1 3 1 1.498 1 2.573.42 2.736.934 3.691c.513.955 1.511 3.874 2.218 6.486 1.156 4.275 1.574 4.75 4.176 4.75 2.705 0 2.856-.209 2.353-3.25-.855-5.161-1.769-9.091-2.618-11.25-1.641-4.175-3.063-9.205-3.063-10.835 0-.93-.45-2.586-1-3.679l-2-3.972c-.55-1.093-1-3.091-1-4.441s-.45-2.733-1-3.073-1-1.716-1-3.059-.45-2.441-1-2.441-1-.9-1-2-.45-2-1-2-1-.9-1-2-.398-2-.883-2c-.486 0-1.133-.788-1.439-1.75-.72-2.272-3.707-7.132-5.928-9.646-.962-1.09-1.75-2.534-1.75-3.209s-.373-1.378-.83-1.562c-1.063-.427-6.512-11.235-8.018-15.904-1.416-4.389-1.516-14.586-.152-15.429.55-.34 1-2.14 1-4s.361-3.605.802-3.878c.441-.272 1.43-2.802 2.198-5.622s1.757-5.35 2.198-5.622c1.421-.878.854-3.126-.948-3.762-.962-.34-2.202-.843-2.755-1.118s-1.54.737-2.194 2.25m8.18 4.54c-.916 1.089-3.166 7.761-6.495 19.257-1.125 3.887-.962 7.699.512 11.955 1.286 3.714 6.987 14.997 7.748 15.333.415.184.754.886.754 1.562 0 .675.852 2.143 1.894 3.261 1.041 1.117 2.716 3.565 3.721 5.438 1.791 3.338 1.836 3.356 2.214.906.213-1.375-.088-5.425-.668-9-2.805-17.282-3.161-20.083-3.161-24.847 0-9.287-3.091-25.223-4.871-25.115-.346.021-1.088.583-1.648 1.25m13.327 4.233c-1.248 2.739-.372 5.458 2.013 6.253 1.468.489 1.642-7.37.183-8.271-.547-.339-1.536.57-2.196 2.018m-3.099 17.729c.243 3.988.858 8.555 1.366 10.149.509 1.595.925 4.79.925 7.101s.398 5.506.884 7.101 1.429 6.049 2.095 9.899 1.587 8.35 2.048 10c.787 2.819 1.745 6.508 4.153 16 .558 2.2 1.421 4.781 1.917 5.736.497.955.903 2.841.903 4.191s.45 2.733 1 3.073 1 1.47 1 2.512c0 3.01 2.181 6.988 3.832 6.988 4.797 0 5.305-4.409 2.246-19.5a764 764 0 0 1-4.01-21.5c-.517-3.025-1.448-7.525-2.067-10-1.388-5.546-2.916-13.212-3.675-18.445-.564-3.884-2.255-6.555-4.148-6.555-1.498 0-2.178-2.677-2.178-8.582V466h-6.733zM366 467c0 .55-.952 1-2.117 1-1.792 0-2.021.421-1.498 2.75 1.189 5.291 3.317 16.895 5.638 30.75.461 2.75 1.322 7.025 1.913 9.5 1.554 6.501 3.031 13.741 4.016 19.694 1.051 6.348 1.602 7.306 4.2 7.306 2.263 0 2.228-4.415-.126-16-1.118-5.504-2.162-11.811-3.972-24-.531-3.575-1.42-8.975-1.975-12s-1.278-7.75-1.608-10.5c-.964-8.043-1.423-9.5-2.99-9.5-.815 0-1.481.45-1.481 1m-29.5 3.35c-3.3 1.168-6.15 2.468-6.333 2.887-.184.42-1.196.763-2.25.763s-1.917.45-1.917 1-.695 1-1.544 1c-3.623 0-6.794 4.579-5.999 8.662a495 495 0 0 1 1.606 8.838c.472 2.75 1.326 7.363 1.898 10.25s1.444 7.387 1.939 10c.494 2.612 1.419 7.45 2.054 10.75 1.411 7.33 2.865 15.427 3.904 21.736.429 2.604 1.053 5.008 1.386 5.341.606.606 6.716-1.045 9.992-2.7.955-.482 2.841-.877 4.191-.877s2.733-.45 3.073-1 1.626-1 2.859-1 2.668-.372 3.191-.826 2.975-1.407 5.45-2.116c8.76-2.511 10.148-3.241 9.415-4.951-.379-.884-1.077-3.857-1.552-6.607s-1.334-7.25-1.909-10c-2.838-13.568-6.386-31.776-7.988-41-.573-3.3-1.299-7.462-1.613-9.25l-.572-3.25-6.64.113c-3.951.067-9.071.973-12.641 2.237m257.75 22.175c-4.064 4.341-1.182 11.475 4.636 11.475 6.622 0 8.485-10.143 2.375-12.927-3.324-1.514-4.452-1.281-7.011 1.452m14.618 8.743c-.65 1.228-2.011 2.96-3.025 3.849-2.482 2.179-2.419 6.565.106 7.367 3.051.968 8.051 6.111 8.051 8.281 0 2.949-4.46 6.824-9.469 8.226-9.572 2.68-19.531-2.114-19.531-9.403 0-1.812 3.464-5.588 5.127-5.588 2.431 0 4.212-3.871 2.68-5.824-3.985-5.084-4.206-5.114-8.807-1.176-1.925 1.647-3.858 2.996-4.295 2.998-.438.001-1.93 1.136-3.315 2.522s-3.728 3.296-5.205 4.245c-3.309 2.127-9.188 7.345-9.177 8.146.01.774 5.025 3.089 6.691 3.089.716 0 1.301.45 1.301 1s.906 1 2.014 1 2.795.397 3.75.883 3.086 1.439 4.736 2.117 3.781 1.631 4.736 2.117 2.198.883 2.761.883c.985 0 8.64 3.178 12.239 5.082.955.505 2.643.918 3.75.918s2.014.45 2.014 1 .68 1 1.511 1 3.643.945 6.25 2.1c2.606 1.154 5.864 2.557 7.239 3.116s3.175 1.339 4 1.733c.825.393 3.638 1.339 6.25 2.101 2.612.763 4.75 1.738 4.75 2.168s1.098.782 2.441.782 2.719.45 3.059 1 1.288 1 2.107 1 3.352.9 5.629 2 4.73 2 5.452 2 1.312.45 1.312 1c0 1.952 3.063.957 6.157-2 1.727-1.65 3.522-3 3.99-3s2.705-1.8 4.972-4 4.517-4 5-4 2.733-1.8 5-4 4.507-4 4.978-4 3.169-2.206 5.996-4.903c4.869-4.643 5.032-4.96 3.089-6-1.128-.603-2.755-1.097-3.616-1.097s-1.566-.45-1.566-1-1.098-1-2.441-1-2.719-.45-3.059-1-1.69-1-3-1-2.66-.45-3-1-1.491-1-2.559-1-1.941-.45-1.941-1-1.098-1-2.441-1-2.719-.45-3.059-1-1.69-1-3-1-2.66-.45-3-1-1.491-1-2.559-1-1.941-.45-1.941-1-1.35-1-3-1-3-.45-3-1-.906-1-2.014-1-2.795-.397-3.75-.883c-1.59-.81-4.493-2.062-9.736-4.2-1.1-.449-4.25-1.547-7-2.439s-6.35-2.216-8-2.941c-10.104-4.44-11.362-4.666-12.632-2.269M280.356 511c.252 1.925.996 5.3 1.654 7.5 1.509 5.05 2.884 14.634 3.622 25.25.472 6.79.867 8.25 2.233 8.25 3.651 0 5.953 5.143 7.609 17 .346 2.475.867 6.047 1.158 7.938l.529 3.439 1.509-3.116c.982-2.027 2.888-3.667 5.452-4.693 3.431-1.373 3.809-1.828 2.911-3.507-.568-1.061-1.033-3.084-1.033-4.495s-.45-2.566-1-2.566-1-1.323-1-2.941-.45-3.219-1-3.559-1-1.716-1-3.059-.45-2.441-1-2.441-1-.681-1-1.514c0-.832-.45-2.407-1-3.5-2.211-4.391-2.719-5.676-4.05-10.236-.763-2.612-1.738-4.75-2.168-4.75s-.782-.612-.782-1.36c0-1.52-5.82-13.289-7.731-15.631a290 290 0 0 1-2.801-3.509c-1.497-1.906-1.549-1.836-1.112 1.5M598 513c0 2.75.45 5 1 5s1-2.25 1-5-.45-5-1-5-1 2.25-1 5m6.292 5.75c-1.42 3.847-9.073 4.803-10.002 1.25-.676-2.583-4.29-2.686-4.29-.122 0 3.336 2.867 4.626 10.152 4.566 7.979-.066 11.173-2.306 8.117-5.694-.869-.962-1.973-1.75-2.455-1.75s-1.167.788-1.522 1.75m42.958 5.239C641.116 527.729 644.252 535 652 535c8.093 0 11.359-8.57 4.378-11.487-4.638-1.937-5.22-1.907-9.128.476m1.75 4.026c-2.079 1.365.657 3.193 3.5 2.338 2.849-.857 3.143-1.335 1.471-2.392-1.878-1.188-3.099-1.175-4.971.054m19.571 1.679c-7.614 2.06-5.395 12.306 2.665 12.306 10.014 0 12.372-10.949 2.658-12.342-1.867-.267-4.262-.251-5.323.036m-108.963 1.032c-.334.334-.608 5.449-.608 11.367v10.761l3.154 1.573c1.734.865 3.759 1.573 4.5 1.573.74 0 1.346.369 1.346.819 0 .451 2.25 1.432 5 2.181s5 1.73 5 2.181c0 .45 1.098.819 2.441.819s2.719.45 3.059 1 1.288 1 2.107 1 3.352.9 5.629 2 4.73 2 5.452 2 1.312.369 1.312.819c0 .451 2.25 1.432 5 2.181s5 1.73 5 2.181c0 .45.906.819 2.014.819s2.795.413 3.75.918c4.252 2.249 11.346 5.082 12.725 5.082.831 0 1.511.369 1.511.819 0 .451 2.25 1.432 5 2.181s5 1.632 5 1.962 2.138 1.223 4.75 1.983 4.975 1.649 5.25 1.974c.645.763 7.282 3.081 8.821 3.081.836 0 1.179-3.291 1.179-11.308v-11.307l-3.75-1.56a245 245 0 0 0-7.25-2.86c-1.925-.715-3.95-1.609-4.5-1.987s-3.138-1.301-5.75-2.051-4.75-1.715-4.75-2.145-.9-.782-2-.782-2-.45-2-1-1.35-1-3-1-3-.352-3-.782-2.138-1.405-4.75-2.168c-2.612-.762-5.425-1.704-6.25-2.093s-3.3-1.58-5.5-2.648c-2.2-1.067-6.138-2.572-8.75-3.343-2.612-.772-4.75-1.754-4.75-2.184s-1.098-.782-2.441-.782-2.719-.45-3.059-1-1.288-1-2.107-1-3.352-.9-5.629-2-4.73-2-5.452-2-1.312-.45-1.312-1-.906-1-2.014-1-2.907-.45-4-1a938 938 0 0 0-3.878-1.941c-1.041-.518-2.166-.668-2.5-.333m71.892 3.382c-4.923 1.391-6.498 9.892-1.834 9.892.749 0 2.187.516 3.197 1.146 3.547 2.215 11.137-1.777 11.137-5.858 0-4.144-6.555-6.86-12.5-5.18m38.463.106c-2.188.814-2.272 1.023-.751 1.879 1.814 1.021 6.788.226 6.788-1.085 0-1.308-3.439-1.76-6.037-.794M436.75 535.63c-2.865.846-2.014 1.972 2.5 3.307 2.337.692 5.031 1.664 5.986 2.16s2.868.903 4.25.903 2.514.45 2.514 1 1.035 1 2.3 1 2.728.372 3.25.826 2.975 1.448 5.45 2.208 4.777 1.78 5.117 2.267c.765 1.099 11.942 1.419 13.589.389 1.721-1.076.436-3.69-1.813-3.69-1.041 0-1.893-.45-1.893-1s-.697-1-1.548-1-3.411-.9-5.688-2-4.929-2-5.893-2-2.031-.45-2.371-1-1.626-1-2.859-1-2.669-.421-3.191-.935c-1.078-1.061-17.029-2.223-19.7-1.435m196.945 2.152c-.993.212-1.631.911-1.417 1.552.498 1.493 5.934 1.53 6.43.043.428-1.284-2.343-2.165-5.013-1.595M430 540.89c0 1.17 8.427 5.11 10.93 5.11 1.074 0 2.23.45 2.57 1s1.69 1 3 1 2.66.45 3 1 1.69 1 3 1 2.66.45 3 1 1.641 1 2.892 1 2.583.308 2.96.685c4.267 4.267 22.648 4.36 22.648.115 0-1.154-3.767-.986-4.5.2-.992 1.605-5.608 1.161-11.514-1.107a582 582 0 0 0-11.486-4.238c-3.3-1.172-6.225-2.411-6.5-2.755s-1.85-.86-3.5-1.15-5.609-1.251-8.799-2.138c-6.667-1.854-7.701-1.951-7.701-.722m222-.007c0 .486-.9 1.119-2 1.407-1.469.384-2 1.364-2 3.688 0 4.531 2.342 6.407 8 6.407 5.605 0 8-1.873 8-6.257 0-1.982-.762-3.548-2.223-4.571-2.359-1.653-9.777-2.164-9.777-.674m-272 2.688c0 .865.643 2.215 1.429 3.001 2.888 2.888 4.636 12.1 4.645 24.473.005 6.607-.262 12.449-.592 12.984-1.14 1.845 2.543.965 4.237-1.013 6.723-7.852 4.494-28.677-4.149-38.763-2.22-2.59-5.57-3-5.57-.682m-11 1.385c-.825.462-7.575 2.778-15 5.147s-14.949 4.891-16.719 5.603l-3.22 1.295 2.378 3.504c1.308 1.927 3.185 6.089 4.172 9.249 2.026 6.49 3.359 8.246 6.259 8.246 1.106 0 2.29.45 2.63 1s1.491 1 2.559 1 1.941.34 1.941.756 1.265 1.316 2.812 2.001c4.007 1.773 7.188 4.996 7.188 7.282 0 2.51 1.085 2.464 9-.377 5.427-1.949 6.877-2.98 8.785-6.248 4.412-7.558 1.056-31.716-5.287-38.058-1.499-1.5-5.179-1.696-7.498-.4m284.2.244c-2.067 2.067-1.335 2.8 2.8 2.8 2.752 0 4-.434 4-1.393 0-2.48-4.745-3.462-6.8-1.407M450 565.272c0 10.182.055 10.432 2.547 11.567 6.434 2.932 7.453 1.523 7.453-10.299 0-8.129-.056-8.319-2.75-9.352-7.74-2.967-7.25-3.513-7.25 8.084m-166.395-7.725c-2.159 1.578-1.903 9.695.818 25.953.828 4.95 1.522 10.688 1.542 12.75.035 3.702.086 3.75 4.035 3.75 3.998 0 4-.002 4-3.986 0-2.192-.436-5.904-.969-8.25s-1.467-8.989-2.077-14.764-1.304-11.5-1.543-12.721c-.608-3.109-3.457-4.45-5.806-2.732m43.645 1.115c-1.326.535-1.774 5.333-.5 5.346.856.009 3.25 4.815 3.25 6.524 0 1.18 7.029 3.773 7.891 2.91.771-.771-1.943-7.556-4.677-11.692-2.41-3.644-3.363-4.137-5.964-3.088M566 622c0 59.015.032 60 1.969 60 1.935 0 1.969-.987 2.015-57.42.045-56.484-.261-62.58-3.145-62.58-.461 0-.839 27-.839 60m-246-56.582c0 2.962 1.3 4.582 3.675 4.582h2.461L324 567c-2.287-3.211-4-3.889-4-1.582m258.742 3.832c-.26.688-.533 24.601-.608 53.142-.136 52.508.275 59.608 3.453 59.608.83 0 3.372.9 5.649 2s4.73 2 5.452 2 1.312.45 1.312 1 .59 1 1.312 1c1.227 0 8.009 2.865 11.924 5.037.955.53 2.418.963 3.25.963.833 0 1.514.45 1.514 1s.9 1 2 1 2 .45 2 1 .697 1 1.548 1 3.411.9 5.688 2 4.73 2 5.452 2 1.312.45 1.312 1 .9 1 2 1 2 .45 2 1 .68 1 1.511 1 3.643.952 6.25 2.116c2.606 1.164 6.314 2.803 8.239 3.642s5.722 2.587 8.437 3.884c2.716 1.297 5.528 2.358 6.25 2.358s1.313.45 1.313 1 .9 1 2 1 2 .45 2 1 .81 1 1.8 1 2.359.559 3.042 1.242c2.823 2.823 3.128-2.741 3.143-57.492.015-54.427-.032-55.797-1.985-57.75-1.231-1.231-3.333-2-5.466-2-4.35 0-10.232-2.738-10.835-5.044-.41-1.568-2.923-3.018-10.699-6.175-1.375-.558-3.281-1.412-4.236-1.898s-2.215-.883-2.799-.883-2.924-.9-5.201-2-4.73-2-5.452-2-1.312-.45-1.312-1-1.098-1-2.441-1-2.719-.45-3.059-1-1.491-1-2.559-1-1.941-.45-1.941-1-1.098-1-2.441-1-2.719-.45-3.059-1-1.288-1-2.107-1-3.352-.9-5.629-2-4.73-2-5.452-2-1.312-.352-1.312-.782-2.072-1.393-4.604-2.141-6.336-2.196-8.452-3.218c-4.465-2.157-7.531-2.385-8.202-.609m-270.492 6.456c-1.711.329-3.412 2.294-1.986 2.294.145 0 2.727.9 5.736 2s6.272 2 7.249 2c.978 0 2.56.397 3.515.883 3.327 1.693 6.782 3.029 13.736 5.314 3.85 1.264 7.15 2.637 7.333 3.051.548 1.235 11.668.851 12.967-.448 1.933-1.933 1.563-2.283-6.05-5.703-3.988-1.791-8.031-3.671-8.986-4.177s-2.643-.92-3.75-.92-2.014-.401-2.014-.891c0-.489-1.462-1.139-3.25-1.444s-5.5-1.002-8.25-1.55c-5.088-1.013-12.186-1.192-16.25-.409m200.86 2.366c-3.242 1.312-8.393 3.612-15.797 7.053-3.403 1.581-6.89 2.875-7.75 2.875s-1.563.45-1.563 1-.845 1-1.878 1c-2.962 0-4.632 2.642-3.339 5.284.597 1.219 1.524 3.791 2.06 5.716a365 365 0 0 0 2.067 7.071c1.757 5.757 1.341 17.77-.821 23.686-2.206 6.036-8.869 13.049-13.225 13.92-1.575.315-2.864.885-2.864 1.267s-2.25 1.307-5 2.056-5 1.632-5 1.962-2.072 1.213-4.604 1.961-6.336 2.196-8.452 3.218c-2.116 1.023-4.235 1.859-4.708 1.859s-2.723.9-5 2-4.746 2-5.488 2c-.741 0-1.776.398-2.298.884-.522.485-3.875 1.857-7.45 3.047s-7.281 2.592-8.236 3.116-2.643.953-3.75.953-2.014.377-2.014.838-2.587 1.249-5.75 1.75l-5.75.912v11l4.5-.33c2.475-.182 4.928-.744 5.45-1.25s1.766-.92 2.764-.92 2.595-.398 3.55-.885c3.868-1.971 15.216-5.115 18.462-5.115 3.77 0 6.774 2.445 6.774 5.514 0 1.022.937 2.854 2.082 4.073 3.847 4.095 3.693 9.578-.385 13.778-1.942 1.999-4.13 3.642-4.864 3.65-2.357.027 1.269 1.82 7.167 3.544 3.025.884 6.281 2.02 7.236 2.524s2.616.917 3.691.917 2.233.45 2.573 1 1.498 1 2.573 1 2.736.377 3.691.838l4.729 2.284c1.646.796 3.132 2.331 3.301 3.412.393 2.5 2.339 6.578 3.954 8.286 3.528 3.729.582 15.18-3.905 15.18-1.014 0-1.843.45-1.843 1s-1.8 1-4 1-4-.45-4-1-.623-1-1.385-1c-3.744 0-5.692-8.548-3.219-14.122.543-1.223.028-1.788-2.088-2.295a643 643 0 0 1-6.808-1.69c-4.232-1.077-10.699-2.419-16.5-3.423-1.925-.334-4.4-.998-5.5-1.476-1.1-.479-3.575-1.104-5.5-1.39-1.925-.287-5.975-1.022-9-1.634-12.778-2.587-15.838-2.463-16.625.672-.914 3.641-.851 33.955.087 42.161.659 5.764.529 6.47-1.523 8.25-2.541 2.204-4.993 2.493-6.697.789-.876-.876-1.528-.849-2.687.112-4.989 4.141-8.753-3.256-6.973-13.704.851-4.995.655-35.431-.248-38.59-.7-2.45-6.211-1.907-24.334 2.397-5.876 1.395-13.166 2.821-20 3.912-6.363 1.016-12.813 2.49-15.072 3.445-1.204.508-1.556 2.131-1.5 6.92.091 7.93-2.881 11.666-9.283 11.666-8.62 0-14.915-12.576-9.308-18.595 1.011-1.085 2.141-3.182 2.512-4.661.916-3.649 3.872-6.195 8.927-7.69 2.323-.687 5.005-1.655 5.96-2.151.955-.497 2.841-.903 4.191-.903s2.733-.45 3.073-1 1.69-1 3-1 2.66-.45 3-1 1.604-1.016 2.809-1.035c1.205-.02 3.316-.658 4.69-1.419l2.499-1.383-2.989-.75c-6.794-1.705-9.953-10.412-5.509-15.183 1.1-1.18 2-3.086 2-4.234 0-4.935 5.512-7.86 11.429-6.064 1.689.513 5.096 1.457 7.571 2.098s5.281 1.571 6.236 2.067 2.537.903 3.515.903c.977 0 4.217.892 7.198 1.981 6.488 2.372 6.28 2.521 6.551-4.706.119-3.176.525-6.49.903-7.365.832-1.923-.596-3.076-5.903-4.768-2.2-.701-5.022-1.775-6.27-2.388-1.694-.831-2.57-.814-3.45.066-.649.649-2.215 1.18-3.48 1.18s-2.3.45-2.3 1-.681 1-1.514 1c-.832 0-2.295.406-3.25.903-4.604 2.393-10.408 3.47-12.307 2.285-1.046-.653-2.378-1.188-2.961-1.188-2.43 0-5.927-5.027-6.726-9.668-.792-4.605-.97-4.817-3.787-4.512-1.625.176-3.105.738-3.288 1.25-.184.511-1.196.93-2.25.93s-1.917.45-1.917 1-.59 1-1.312 1-3.175.9-5.452 2-4.836 2-5.688 2-1.548.45-1.548 1-.574 1-1.275 1c-.702 0-3.964 1.336-7.25 2.969s-6.763 2.982-7.725 3S278 672.45 278 673s-.59 1-1.312 1-3.175.9-5.452 2-4.836 2-5.688 2-1.548.45-1.548 1-.681 1-1.514 1c-.832 0-2.295.433-3.25.963-3.915 2.172-10.697 5.037-11.924 5.037-.722 0-1.312.45-1.312 1s-.873 1-1.941 1-2.219.45-2.559 1-1.716 1-3.059 1-2.441.45-2.441 1-.9 1-2 1-2 .45-2 1-.574 1-1.275 1c-.702 0-3.964 1.336-7.25 2.969s-6.762 2.982-7.725 3S214 700.45 214 701s-.574 1-1.275 1c-.702 0-3.964 1.336-7.25 2.969s-6.762 2.982-7.725 3S196 708.45 196 709s-.531 1-1.18 1c-1.592 0-10.823 4.209-10.809 4.928.015.756 25.266 13.072 26.8 13.072.654 0 1.189.45 1.189 1s.9 1 2 1 2 .45 2 1 .9 1 2 1 2 .45 2 1 .564 1 1.253 1c1.319 0 6.669 2.497 31.291 14.603 8.274 4.068 15.587 7.397 16.25 7.397s1.206.45 1.206 1 .9 1 2 1 2 .45 2 1 .649 1 1.441 1c.793 0 9.669 4.05 19.724 9s18.857 9 19.559 9 1.276.45 1.276 1 .9 1 2 1 2 .45 2 1 .9 1 2 1 2 .45 2 1 .9 1 2 1 2 .45 2 1 .9 1 2 1 2 .45 2 1 .9 1 2 1 2 .45 2 1 .647 1 1.439 1c.791 0 11.475 4.95 23.742 11s22.869 11 23.561 11 1.258.45 1.258 1 .9 1 2 1 2.004.337 2.008.75c.009.898 4.852 3.25 6.691 3.25.716 0 1.301.45 1.301 1s.9 1 2 1 2 .45 2 1 .9 1 2 1 2 .45 2 1 .606 1 1.346 1c1.321 0 6.039 2.201 30.185 14.081 6.617 3.255 12.58 5.919 13.25 5.919s1.219.45 1.219 1 .9 1 2 1 2 .45 2 1 .9 1 2 1 2 .45 2 1 .9 1 2 1 2 .45 2 1 .9 1 2 1 2 .45 2 1 .721 1 1.603 1c.881 0 10.787 4.547 22.011 10.105l20.409 10.105 4.738-2.252c2.607-1.238 5.302-2.261 5.989-2.272s1.25-.394 1.25-.853.862-.833 1.917-.833c1.054 0 2.066-.354 2.25-.786.501-1.182 16.398-9.214 18.236-9.214.878 0 1.597-.45 1.597-1s.9-1 2-1 2-.45 2-1 .9-1 2-1 2-.45 2-1 .547-1 1.217-1c1.198 0 6.817-2.673 38.165-18.156 8.736-4.314 16.498-7.844 17.25-7.844.753 0 1.368-.45 1.368-1s.9-1 2-1 2-.45 2-1 .543-1 1.206-1 8.201-3.447 16.75-7.659l28.404-14c7.073-3.488 13.486-6.341 14.25-6.341.765 0 1.39-.45 1.39-1s.9-1 2-1 2-.45 2-1 .9-1 2-1 2-.45 2-1 .566-1 1.258-1 11.294-4.95 23.561-11 22.951-11 23.742-11 1.439-.45 1.439-1 .9-1 2-1 2-.45 2-1 .9-1 2-1 2-.45 2-1 .9-1 2-1 2-.45 2-1 .55-1 1.221-1c.987 0 25.158-11.374 32.015-15.065.955-.514 2.38-.935 3.167-.935s1.58-.374 1.764-.83c.452-1.126 20.591-11.17 22.396-11.17.79 0 1.437-.45 1.437-1s.9-1 2-1 2-.45 2-1 .9-1 2-1 2-.45 2-1 .9-1 2-1 2-.45 2-1 .554-1 1.231-1c1.564 0 14.71-6.306 14.744-7.073.032-.742-13.134-6.927-14.747-6.927-.675 0-1.228-.45-1.228-1s-.697-1-1.548-1-3.411-.9-5.688-2-4.73-2-5.452-2-1.312-.45-1.312-1-.697-1-1.548-1-3.411-.9-5.688-2-4.73-2-5.452-2-1.312-.34-1.312-.757c0-.775-6.994-3.243-9.193-3.243-.673 0-8.893 3.787-18.266 8.416C737.591 715.7 732.727 718 731.357 718c-.746 0-1.357.45-1.357 1s-.9 1-2 1-2 .45-2 1-.562 1-1.25 1-8.45 3.594-17.25 7.986C692.207 737.619 684 740.069 684 737c0-.55-.707-1-1.571-1-1.832 0-4.429-2.346-4.429-4 0-1.428-2.506-4-3.897-4-.572 0-4.723-1.8-9.225-4s-8.791-4-9.532-4-1.346-.45-1.346-1-.668-1-1.484-1-4.271-1.35-7.677-3c-3.407-1.65-6.789-3-7.516-3s-1.323-.45-1.323-1-.9-1-2-1-2-.45-2-1-.886-1-1.97-1c-1.083 0-3.572-.9-5.53-2s-4.222-2-5.03-2c-.809 0-1.47-.45-1.47-1s-.788-1.014-1.75-1.031c-.962-.018-4.439-1.368-7.725-3-3.286-1.633-6.548-2.969-7.25-2.969-.701 0-1.275-.45-1.275-1s-.788-1.014-1.75-1.031c-.962-.018-4.439-1.368-7.725-3-3.286-1.633-6.548-2.969-7.25-2.969-.701 0-1.275-.398-1.275-.883 0-1.655-5.453-2.001-7.791-.494-1.939 1.25-2.861 1.277-6 .177-7.658-2.684-7.157.47-7.448-46.864L560.5 597.5l-3.25-.957c-1.788-.526-3.25-1.314-3.25-1.75s-.681-.793-1.514-.793c-.832 0-2.295-.432-3.25-.96-2.564-1.417-14.205-6.594-18.236-8.11-1.925-.724-4.976-2.129-6.78-3.123S520.315 580 519.553 580c-.763 0-1.536-.395-1.72-.878-.54-1.424-6.135-2.098-8.723-1.05m-206.095 2.678c.039 1.898 2.035 3.046 9.23 5.311 4.26 1.342 7.747 2.776 7.75 3.189s1.055.75 2.338.75 2.628.294 2.988.654c1.579 1.58 17.649 6.676 22.313 7.077 6.874.59 14.029-2.967 10.435-5.188-.512-.317-1.213-.118-1.559.441-1.147 1.855-13.259 1.184-17.746-.984-2.277-1.1-4.736-2-5.465-2s-2.108-.437-3.063-.971c-1.74-.974-25.502-9.029-26.634-9.029-.331 0-.595.337-.587.75m134.994.932c-1.92.264-3.72.805-4 1.202s-4.475 1.998-9.322 3.557c-7.827 2.519-9.7 2.762-16.75 2.174-4.365-.364-7.937-.294-7.937.155 0 1.401 11.62 3.473 16.17 2.883 8.192-1.06 11.85-1.876 12.398-2.763.303-.49 1.648-.89 2.991-.89s2.441-.45 2.441-1c0-.596 3.814-1 9.441-1 5.215 0 9.718.448 10.059 1 .34.55 1.491 1 2.559 1s1.941.45 1.941 1 .63 1 1.4 1c1.819 0 8.6 6.781 8.6 8.6 0 .77.34 1.4.757 1.4 1.057 0 3.243 7.362 3.243 10.925 0 1.626.454 3.238 1.009 3.581s1.886 2.282 2.956 4.309l1.947 3.685.044-8.25c.026-4.863-.367-8.25-.956-8.25-.55 0-1-1.098-1-2.441s-.45-2.719-1-3.059-1-1.491-1-2.559-.45-1.941-1-1.941-1-.695-1-1.545c0-1.632-4.308-6.455-5.766-6.455-.471 0-1.729-.788-2.795-1.75-4.03-3.637-16.253-5.833-25.43-4.568M298 590.378c0 9.563 4.313 18.267 7.672 15.479 4.984-4.136 6.002-14.572 1.621-16.607-1.481-.687-3.277-1.25-3.992-1.25-.716 0-2.201-.9-3.301-2l-2-2zm137-1.401c-.825.472-3.975 1.581-7 2.465-7.51 2.193-8.919 3.155-5.882 4.012 1.31.369 3.282 1.042 4.382 1.495s4.025 1.368 6.5 2.034c2.475.667 5.281 1.618 6.236 2.114.955.497 2.477.903 3.382.903 2.347 0 19.501 5.985 21.855 7.626 2.835 1.975 3.527 1.72 3.527-1.305 0-6.368-4.991-14.231-10.051-15.837-1.072-.34-1.949-1.038-1.949-1.551s-.9-.933-2-.933-2-.45-2-1c0-1.225-14.866-1.246-17-.023m-51.55 1.925c-.522.496-2.975 1.579-5.45 2.406-7.449 2.489-13.352 4.775-16.072 6.224-3.334 1.777-11.559 4.565-14.013 4.749-1.053.08-1.915.499-1.915.932s-.868.787-1.929.787c-2.245 0-5.071 2.525-5.071 4.531 0 .789 1.835 1.878 4.25 2.522 2.337.624 5.031 1.542 5.986 2.041s2.616.906 3.691.906 2.233.45 2.573 1 1.491 1 2.559 1 1.941.395 1.941.879c0 .483 1.35 1.438 3 2.121s3 1.638 3 2.121.563.881 1.25.884c.688.002 2.639 1.306 4.336 2.897 3.179 2.98 10.78 7.098 13.102 7.098.722 0 1.312.45 1.312 1s.9 1 2 1 2 .45 2 1 .587 1 1.305 1c1.936 0 8.695 6.517 8.695 8.385 0 .888.45 1.615 1 1.615.593 0 1 3.667 1 9 0 9.787.214 10.082 5.703 7.875a238 238 0 0 1 4.797-1.866c3.086-1.144 7.814-3.148 9.736-4.126.955-.486 2.643-.883 3.75-.883s2.014-.45 2.014-1 .59-1 1.312-1 3.175-.9 5.452-2 4.527-2 5-2 2.723-.9 5-2 4.81-2 5.629-2 1.767-.45 2.107-1 1.716-1 3.059-1 2.441-.45 2.441-1 .693-1 1.54-1c1.932 0 9.343-3.74 11.311-5.708 1.031-1.031 1.503-3.82 1.563-9.232.085-7.637.03-7.812-3.564-11.408-2.008-2.009-4.167-3.652-4.798-3.652s-3.011-.9-5.288-2-4.681-2-5.344-2c-.662 0-6.646-1.8-13.298-4s-12.782-4-13.622-4-2.309-.406-3.264-.903c-.955-.496-3.761-1.44-6.236-2.097s-5.281-1.601-6.236-2.097c-.955-.497-2.616-.903-3.691-.903s-2.233-.45-2.573-1-1.572-1-2.738-1c-2.252 0-8.109-1.663-10.998-3.123-2.252-1.137-6.104-1.124-7.314.025m216.513 2.131-2.463 2.137v26.764c0 21.05.299 27.323 1.402 29.384 1.385 2.586 12.292 8.682 15.535 8.682.86 0 1.563.45 1.563 1s.595 1 1.323 1c.727 0 4.109 1.35 7.516 3s6.861 3 7.677 3 1.484.45 1.484 1 .81 1 1.8 1 2.293.493 2.895 1.095c1.75 1.75 11.202 1.678 12.325-.095.541-.854.956-13.674.965-29.785.016-29.555-.491-33.215-4.6-33.215-.762 0-1.385-.45-1.385-1s-.59-1-1.312-1-3.175-.9-5.452-2-4.527-2-5-2-2.723-.9-5-2-4.527-2-5-2-2.723-.9-5-2-4.746-2-5.488-2c-.741 0-1.776-.404-2.298-.897-2.348-2.218-8.966-2.258-11.487-.07m-286.865 2.116c-.604 1.732-1.098 4.122-1.098 5.312 0 1.189-.845 3.069-1.878 4.177-1.032 1.109-2.202 3.038-2.598 4.288-.645 2.031-.473 2.194 1.627 1.538 1.292-.403 2.574-1.011 2.849-1.35s1.7-1.235 3.166-1.989c3.113-1.603 3.901-3.862 3.121-8.948-1.011-6.585-3.452-8.01-5.189-3.028m10.901 10.494c-.001 5.421.523 14.705 1.165 20.629 1.083 9.998 1.335 10.815 3.499 11.358 5.232 1.313 5.337.929 5.337-19.552v-18.984l-3.25-.939c-1.788-.516-4.038-1.26-5-1.654-1.597-.652-1.75.149-1.751 9.142M602 621.826c0 25.545.024 25.846 2.25 27.75 3.071 2.626 6.418 4.424 8.236 4.424.833 0 1.514.45 1.514 1s.9 1 2 1 2 .45 2 1 .9 1 2 1 2 .352 2 .782 2.138 1.405 4.75 2.168c2.612.762 5.425 1.744 6.25 2.181 5.214 2.764 10.699 4.869 12.688 4.869H648v-53.091l-2.455-2.454c-1.35-1.35-2.946-2.455-3.548-2.455s-2.956-.9-5.233-2-4.527-2-5-2-2.723-.9-5-2-4.51-2-4.963-2c-.452 0-2.73-.836-5.062-1.858-8.114-3.558-9.848-4.142-12.286-4.142H602zm6.667-19.159c-.367.366-.667 5.085-.667 10.486v9.82l3.622 1.514c8.107 3.387 9.378 2.167 9.378-8.997 0-8.147-1.108-10.162-6.141-11.168-1.595-.319-3.143-.972-3.439-1.451-.641-1.038-1.831-1.126-2.753-.204m-314.148 5.583c.783 2.337 1.666 5.472 1.962 6.965s1.66 3.835 3.029 5.204c1.37 1.37 2.49 2.876 2.49 3.347s.788 1.735 1.75 2.808 4.113 4.569 7 7.769c3.806 4.218 5.25 6.621 5.25 8.738 0 2.252.457 2.919 2 2.919 1.66 0 2-.667 2-3.917 0-2.154-.354-4.066-.787-4.25-.433-.183-2.345-2.333-4.25-4.778s-4.701-5.774-6.213-7.398c-1.512-1.625-2.75-3.562-2.75-4.305 0-.744-.45-1.352-1-1.352s-1-.9-1-2-.382-2-.848-2c-.467 0-1.669-1.821-2.673-4.046-3.693-8.191-8.453-11.149-5.96-3.704m-13.433-1.411c-2.984 5.577-.549 16.297 4.146 18.251 5.801 2.415 9.7-3.173 7.689-11.02-1.619-6.317-2.831-7.775-7.135-8.582-3.012-.565-3.795-.34-4.7 1.351M682 669.5c0 61.833.021 62.5 2 62.5 1.978 0 2-.667 2-61.893 0-64.281.067-63.107-3.582-63.107-.23 0-.418 28.125-.418 62.5M612 614c0 3.3.188 6 .418 6s1.13.273 2 .607c1.976.758 2.319-9.47.382-11.407-2.221-2.221-2.8-1.228-2.8 4.8m16 7.015v9.014l3.25 1.982c3.96 2.414 9.291 2.628 10.143.407 1.034-2.695.668-13.19-.554-15.871-.638-1.401-1.988-2.547-3-2.547-1.011 0-1.839-.45-1.839-1s-1.8-1-4-1h-4zm-317.83-2.894c.586 4.044 9.83 7.524 9.83 3.701 0-1.527-2.699-3.822-4.494-3.822-.901 0-2.544-.485-3.651-1.078-1.771-.947-1.975-.802-1.685 1.199M632 621.64c0 4.198.447 5.979 1.75 6.968 2.879 2.185 3.25 1.663 3.25-4.573 0-4.874-.354-6.154-1.934-7-2.962-1.585-3.066-1.428-3.066 4.605m-293.258-1.762c-.472 1.805 6.635 6.122 10.078 6.122.649 0 1.18.45 1.18 1s.9 1 2 1 2 .45 2 1 .653 1 1.452 1c1.892 0 16.548 14.656 16.548 16.548 0 .799.374 1.452.831 1.452s1.47 1.237 2.25 2.75 2.207 3.622 3.169 4.689c.962 1.066 1.75 2.295 1.75 2.732 0 1.528 8.673 9.829 10.27 9.829 2.397 0 2.79-1.331 1.262-4.275-5.685-10.959-8.175-15.404-9.268-16.546-.695-.727-1.264-1.754-1.264-2.283 0-2.706-17.795-18.747-24-21.635-12.998-6.05-17.35-6.856-18.258-3.383m-44.577 6.685c-1.834 1.89-3.916 3.437-4.627 3.437s-1.778.584-2.371 1.298c-1.316 1.587 2.652 6.702 5.199 6.702.899 0 1.634.45 1.634 1s1.035 1 2.3 1 2.727.358 3.25.796c.868.727 4.325 1.976 10.2 3.684 3.158.919 3.043-2.713-.196-6.206-1.346-1.451-2.177-3.076-1.846-3.611.331-.534.116-.672-.477-.306s-2.113-.801-3.377-2.595c-1.265-1.794-2.665-3.712-3.111-4.262a75 75 0 0 1-2.027-2.687c-1.1-1.527-1.533-1.361-4.551 1.75M316 626.8c0 1.035 2.165 3.2 3.2 3.2.44 0 .8-.9.8-2q0-2-2-2c-1.1 0-2 .36-2 .8m22.629.724c-.346.902-.629 6.723-.629 12.936v11.297l3.25 1.239c4.022 1.533 9.42 3.826 12.834 5.454 1.422.677 4.684 1.851 7.25 2.609s4.666 1.729 4.666 2.159 1.155.782 2.566.782 3.323.387 4.25.861c3.424 1.75 9.184 2.112 9.184.576 0-.79-.374-1.437-.831-1.437s-1.47-1.23-2.25-2.733-2.657-4.045-4.169-5.648c-1.512-1.604-2.75-3.524-2.75-4.267s-.353-1.352-.784-1.352-1.576-1.34-2.544-2.978C366.605 643.523 357.523 634 356.253 634c-.482 0-1.748-.788-2.814-1.75s-3.964-2.491-6.439-3.397-5.229-1.945-6.121-2.308c-1.026-.417-1.852-.058-2.25.979M382 638.917c0 .504.337 1.066.75 1.25.939.417 4.186 5.743 4.928 8.083.306.962.953 1.75 1.439 1.75.485 0 .883.9.883 2s.45 2 1 2 1 .679 1 1.509 1.219 2.877 2.71 4.549l2.709 3.041.85-2.298c1.591-4.299-.226-11.958-3.648-15.38-4.319-4.319-12.621-8.597-12.621-6.504M638 642q0 2 2 2t2-2-2-2-2 2m-312 10.008c0 12.827.59 13.992 7.084 13.992 4.139 0 4.189-.04 2.445-1.968-1.355-1.497-1.929-4.421-2.405-12.25L332.5 641.5l-3.25-.313-3.25-.314zm13.035 9.402c-.987 2.634 3.138 3.56 5.47 1.228 2.075-2.075 1.923-2.348-1.596-2.865-2.456-.36-3.253-.024-3.874 1.637M376 673c0 .55 1.152 1 2.559 1 1.451 0 2.292-.433 1.941-1-.34-.55-1.491-1-2.559-1s-1.941.45-1.941 1m-2.166 13.24c.375 9.267.713 9.723 7.216 9.745 5.997.02 6.95-1.16 6.95-8.603 0-9.226-.13-9.382-7.857-9.384l-6.643-.003zm-41.373-4.177c-.364.588-.504 1.211-.311 1.383 1.096.978 9.301 4.467 13.246 5.631 2.532.748 4.604 1.711 4.604 2.141s.606.782 1.346.782 2.7.675 4.355 1.501c2.089 1.042 4.428 1.306 7.654.864 5.229-.717 6.315-2.965 1.895-3.924-1.512-.328-3.65-.982-4.75-1.453s-3.575-1.298-5.5-1.838-6.425-1.871-10-2.957c-9.742-2.958-11.81-3.31-12.539-2.13m91.539-.444c-8.451 2.598-21.478 6.522-25.5 7.681-5.996 1.728-6.363 3.417-1.133 5.215 3.601 1.238 4.291 1.136 10-1.482 11.932-5.47 15.622-7.033 16.611-7.033 1.545 0 4.982-3.255 4.412-4.178-.544-.88-1.974-.946-4.39-.203m-96.996 9.876c-1.001 1.206-.915 1.991.441 4.061 2.119 3.235 5.902 3.021 6.382-.361.625-4.408-4.106-6.973-6.823-3.7M428 694c0 3.185.367 4 1.8 4 2.597 0 4.2-1.984 4.2-5.2 0-2.444-.381-2.8-3-2.8-2.833 0-3 .222-3 4m-87.402-.264c-.329.328-.598 1.323-.598 2.21s-.9 2.261-2 3.054c-2.813 2.028-2.489 3 1 3 1.65 0 3-.45 3-1s1.157-1 2.571-1c2.196 0 6.388-2.635 5.298-3.331-2.906-1.854-8.561-3.644-9.271-2.933m72.902 2.007c-2.367 1.313-2.631 1.742-1.25 2.034.962.203 1.75.787 1.75 1.296 0 .51 1.155.927 2.566.927s3.474.486 4.585 1.081c2.608 1.395 3.536.463 1.534-1.539-.855-.855-1.839-2.451-2.187-3.548-.763-2.404-2.972-2.483-6.998-.251m-52 4.348c-2.75 1.046-6.012 1.903-7.25 1.905S352 702.45 352 703s-1.35 1-3 1-3 .45-3 1-1.131 1-2.514 1-3.295.398-4.25.885c-2.744 1.398-14.829 5.115-16.631 5.115-.898 0-2.414.404-3.369.897-.955.494-5.111 1.945-9.236 3.226-7.043 2.187-10 3.795-10 5.437 0 .721 3.697.248 12.5-1.602 2.75-.577 7.025-1.459 9.5-1.958s6.75-1.379 9.5-1.954 7.25-1.47 10-1.989c2.75-.518 7.025-1.446 9.5-2.062 4.449-1.108 11.446-2.545 17.75-3.646 3.146-.55 3.25-.724 3.25-5.458 0-5.752-1.607-6.181-10.5-2.8m27.554-.656c-.655.789-1.047 2.921-.872 4.738.279 2.898.749 3.384 3.818 3.955 1.925.359 5.975 1.2 9 1.871a931 931 0 0 0 19 3.995c8.501 1.706 14.507 2.996 19 4.081 2.475.599 6.19 1.324 8.256 1.612s4.005.927 4.309 1.419c.597.964 10.435 1.269 10.435.323 0-1.35-2.813-3.081-7-4.307-2.475-.724-5.281-1.723-6.236-2.219-.955-.497-2.464-.903-3.352-.903-.889 0-6.924-1.8-13.412-4s-12.523-4-13.412-4c-.888 0-2.397-.404-3.352-.897-.955-.494-5.111-1.876-9.236-3.073a1419 1419 0 0 1-10.571-3.102c-4.122-1.245-4.977-1.177-6.375.507M379 700.974c-2.101.537-2.476 1.188-2.352 4.082.082 1.894.491 12.332.909 23.194.706 18.339.894 19.75 2.626 19.75 3.178 0 3.817-4.346 3.817-25.958 0-22.244-.023-22.34-5-21.068m-85.394 28.61c-.373.973-.15 1.431.581 1.187 1.495-.498 2.318-2.771 1.003-2.771-.537 0-1.249.713-1.584 1.584m172 .832c.335.871 1.047 1.584 1.584 1.584 1.315 0 .492-2.273-1.003-2.771-.731-.244-.954.214-.581 1.187m-165.856.976c-2.216 1.682-2.286 6.188-.109 7.024 2.154.826 6.359-1.976 6.359-4.239 0-3.695-3.183-5.113-6.25-2.785m155.837.512c-3.037 3.355 1.011 7.737 5.992 6.487 3.089-.775 3.077-2.826-.034-5.936-2.954-2.954-3.719-3.025-5.958-.551m-78.98 23.678C374.858 760.14 375.842 762 380 762h4v-4c0-3.881-.101-4-3.393-4-2.172 0-3.612.569-4 1.582"/></svg>