<svg xmlns="http://www.w3.org/2000/svg" viewBox="0 0 1024 1024"><path fill="#00e5cc" d="M508.25 203.786c-2.337.181-4.25.753-4.25 1.271 0 .519-.9.943-2 .943s-2 .477-2 1.059-.414.803-.919.491-1.529-.002-2.274.691c-.745.692-2.019 1.405-2.831 1.584s-1.626.741-1.809 1.25-1.159.925-2.167.925-1.983.338-2.167.75-2.47 1.833-5.083 3.157-4.75 2.813-4.75 3.309-.414.646-.919.334c-.506-.313-1.529-.002-2.274.691-.745.692-2.015 1.408-2.821 1.589-.807.182-1.696.644-1.977 1.027-.28.383-5.346 3.111-11.259 6.061-5.913 2.951-10.75 5.778-10.75 6.283 0 .504-.414.661-.919.349s-1.529-.002-2.274.691c-.745.692-2.015 1.408-2.821 1.589-.807.182-1.696.641-1.977 1.02-.28.38-3.547 2.211-7.259 4.07-3.712 1.858-6.75 3.788-6.75 4.289s-.414.653-.919.341c-.506-.313-1.519.003-2.25.702s-4.369 2.795-8.081 4.659-6.75 3.797-6.75 4.298-.414.653-.919.341c-.506-.313-1.529-.002-2.274.691-.745.692-2.019 1.405-2.831 1.584s-1.627.744-1.811 1.256c-.185.512-.711.7-1.17.416-.458-.283-1.433.054-2.164.75-.732.695-3.468 2.345-6.081 3.666s-4.75 2.807-4.75 3.303-.414.646-.919.334c-.506-.313-1.529-.002-2.274.691-.745.692-2.015 1.408-2.821 1.589-.807.182-1.802.857-2.211 1.5-.41.644-.751.763-.76.265-.008-.498-.803-.247-1.765.557-.962.805-4.788 2.967-8.5 4.805s-6.75 3.751-6.75 4.252-.414.653-.919.341c-.506-.313-1.529-.002-2.274.691-.745.692-2.015 1.408-2.821 1.589-.807.182-1.696.649-1.977 1.039-.28.39-2.867 1.858-5.75 3.262-2.882 1.405-4.945 2.85-4.583 3.212.361.361-.318.657-1.509.657-1.192 0-2.167.477-2.167 1.059s-.414.803-.919.491-1.529-.002-2.274.691c-.745.692-2.015 1.408-2.821 1.589-.807.182-1.696.641-1.977 1.02-.28.38-3.547 2.211-7.259 4.07-3.712 1.858-6.75 3.788-6.75 4.289s-.414.653-.919.341c-.506-.313-1.529-.002-2.274.691-.745.692-2.019 1.405-2.831 1.584s-1.626.741-1.809 1.25-1.159.925-2.167.925-1.983.337-2.167.75-2.47 1.833-5.083 3.157-4.75 2.813-4.75 3.309-.414.646-.919.334c-.506-.313-1.529-.002-2.274.691-.745.692-2.015 1.408-2.821 1.589-.807.182-1.696.643-1.977 1.024-.28.382-4.446 2.661-9.259 5.065-4.812 2.404-8.75 4.782-8.75 5.285s-.414.658-.919.346-1.529-.002-2.274.691c-.745.692-2.015 1.408-2.821 1.589-.807.182-1.696.641-1.977 1.02-.28.38-3.547 2.211-7.259 4.07-3.713 1.858-6.75 3.788-6.75 4.289s-.414.653-.919.341c-.506-.313-1.529-.002-2.274.691-.745.692-2.015 1.408-2.821 1.589-.807.182-1.696.641-1.977 1.02-.28.38-3.546 2.211-7.259 4.07-3.713 1.858-6.75 3.788-6.75 4.289s-.414.653-.919.341c-.506-.313-1.529-.002-2.274.691-.745.692-2.015 1.408-2.821 1.589-.807.182-1.696.632-1.977 1-.28.369-1.146.807-1.925.975-1.714.37-8.079 7.161-8.097 8.64-.764 60.378.176 273.042 1.209 273.697.717.455.882.834.367.843-.515.008.341 1.349 1.903 2.979s3.221 2.729 3.687 2.441c.466-.287.847-.123.847.367s1.238 1.529 2.75 2.309 3.349 1.986 4.081 2.678c.731.693 1.744 1.004 2.25.691.505-.312.919-.168.919.322s1.237 1.529 2.75 2.309 3.349 1.986 4.081 2.678c.731.693 1.744 1.004 2.25.691.505-.312.919-.162.919.334s2.138 1.982 4.75 3.303c6.15 3.109 7.25 4.223 7.25 7.342 0 1.414.45 2.571 1 2.571s.947.337.882.75c-.3 1.895.179 4.522.724 3.977.334-.334 1.544.266 2.689 1.333s2.672 1.94 3.394 1.94c.721 0 1.311.383 1.311.85 0 .468 2.926 2.336 6.502 4.151l6.502 3.3 1.998-2.303c1.099-1.267 1.998-2.912 1.998-3.655 0-1.384 8.997 2.735 11.831 5.416.731.693 1.744 1.004 2.25.691.505-.312.919-.168.919.322s1.238 1.528 2.75 2.307c1.512.78 2.979 1.72 3.259 2.089.281.37 1.17.82 1.977 1.002.806.181 2.076.897 2.821 1.589.745.693 1.768 1.004 2.274.691.505-.312.919-.168.919.322s1.238 1.528 2.75 2.307c1.512.78 2.979 1.72 3.259 2.089.281.37 1.163.82 1.961 1.002.799.181 2.342 1.118 3.43 2.08 1.087.962 2.567 1.75 3.289 1.75.721 0 1.311.45 1.311 1s.707 1 1.571 1c.865 0 2.251.679 3.081 1.509s1.923 1.254 2.429.941c.505-.312.919-.162.919.334s2.137 1.982 4.75 3.303 5.349 2.971 6.081 3.666c.731.696 1.744 1.01 2.25.697.505-.312.919-.168.919.322s1.238 1.528 2.75 2.307c1.512.78 2.979 1.72 3.259 2.089.281.37 1.17.82 1.977 1.002.806.181 2.076.897 2.821 1.589.745.693 1.768 1.004 2.274.691.505-.312.919-.143.919.377s1.556 1.683 3.458 2.586c1.901.902 3.732 2.086 4.069 2.63s1.03.731 1.542.414c.512-.316.931-.169.931.327s2.137 1.982 4.75 3.303 5.349 2.971 6.081 3.666c.731.696 1.744 1.01 2.25.697.505-.312.919-.168.919.322s1.238 1.528 2.75 2.307c1.512.78 2.979 1.72 3.259 2.089.281.37 1.17.82 1.977 1.002.806.181 2.076.897 2.821 1.589.745.693 1.768 1.004 2.274.691.505-.312.919-.168.919.322s1.238 1.528 2.75 2.307c1.512.78 2.979 1.72 3.259 2.089.281.37 1.17.82 1.977 1.002.806.181 2.076.897 2.821 1.589.745.693 1.768 1.004 2.274.691.505-.312.919-.168.919.322s1.238 1.529 2.75 2.309 3.349 1.986 4.081 2.678c.731.693 1.744 1.004 2.25.691.505-.312.919-.162.919.334s2.137 1.982 4.75 3.303 5.349 2.971 6.081 3.666c.731.696 1.744 1.01 2.25.697.505-.312.919-.168.919.322s1.238 1.509 2.75 2.266 3.538 2.027 4.5 2.824 1.75 1.136 1.75.754c0-2.755 4.132 3.928 4.615 7.464.642 4.704 2.044 7.249 3.498 6.35.488-.301.887-.142.887.354s2.138 1.979 4.75 3.295c2.613 1.317 4.975 2.67 5.25 3.008 2.876 3.531 9.736 3.812 10.584.433.52-2.072.935-2.313 2.519-1.465 1.044.559 1.897.742 1.897.409 0-.334.711.104 1.581.974.869.869 1.994 1.325 2.5 1.012.505-.312.919-.168.919.322s1.238 1.529 2.75 2.309 3.349 1.986 4.081 2.678c.731.693 1.744 1.004 2.25.691.505-.312.919-.162.919.334s2.137 1.985 4.75 3.309 4.9 2.744 5.083 3.157c.184.413 1.159.75 2.167.75s1.992.475 2.185 1.054 1.118 1.167 2.054 1.305c.937.137 2.016.563 2.399.945 1.084 1.085 10.169.817 10.872-.32.346-.559 1.011-.78 1.478-.491s1.45-.044 2.181-.74c.732-.695 3.469-2.345 6.081-3.666s4.75-2.807 4.75-3.303.414-.646.919-.334c.506.313 1.519.002 2.25-.691.732-.692 2.568-1.898 4.081-2.678s2.75-1.819 2.75-2.309.414-.634.919-.322c.506.313 1.529.002 2.274-.691.745-.692 2.015-1.408 2.821-1.589.807-.182 1.696-.632 1.977-1.002.28-.369 1.746-1.309 3.259-2.089 1.513-.779 2.75-1.817 2.75-2.307s.414-.634.919-.322c.506.313 1.519-.005 2.25-.706.732-.7 3.469-2.391 6.081-3.757s4.75-2.848 4.75-3.294.414-.555.919-.243 1.519-.001 2.25-.697c.732-.695 3.469-2.345 6.081-3.666s4.75-2.807 4.75-3.303.414-.646.919-.334c.506.313 1.519.002 2.25-.691.732-.692 2.568-1.898 4.081-2.678s2.75-1.819 2.75-2.309.414-.634.919-.322c.506.313 1.529.002 2.274-.691.745-.692 2.015-1.408 2.821-1.589.807-.182 1.696-.632 1.977-1.002.28-.369 1.746-1.309 3.259-2.089 1.513-.779 2.75-1.817 2.75-2.307s.414-.634.919-.322c.506.313 1.519.002 2.25-.691.732-.692 2.568-1.898 4.081-2.678s2.75-1.819 2.75-2.309.414-.634.919-.322c.506.313 1.519-.003 2.25-.702s4.369-2.795 8.081-4.659c3.713-1.863 6.75-3.797 6.75-4.298s.414-.653.919-.341c.506.313 1.519.002 2.25-.691.732-.692 2.568-1.898 4.081-2.678s2.75-1.819 2.75-2.309.414-.634.919-.322c.506.313 1.519-.001 2.25-.697.732-.695 3.469-2.345 6.081-3.666s4.75-2.807 4.75-3.303.414-.646.919-.334c.506.313 1.519.002 2.25-.691.732-.692 2.568-1.898 4.081-2.678s2.75-1.819 2.75-2.309.414-.634.919-.322c.506.313 1.519-.001 2.25-.697.732-.695 3.469-2.345 6.081-3.666s4.75-2.807 4.75-3.303.414-.646.919-.334c.506.313 1.519-.001 2.25-.697.732-.695 3.469-2.345 6.081-3.666s4.75-2.807 4.75-3.303.414-.646.919-.334c.506.313 1.519-.001 2.25-.697.732-.695 3.469-2.345 6.081-3.666s4.75-2.807 4.75-3.303.414-.646.919-.334c.506.313 1.529.002 2.274-.691.745-.692 2.015-1.408 2.821-1.589.807-.182 1.696-.632 1.977-1.002.28-.369 1.746-1.309 3.259-2.089 1.513-.779 2.75-1.817 2.75-2.307s.414-.634.919-.322c.506.313 1.519-.001 2.25-.697.732-.695 3.469-2.345 6.081-3.666s4.75-2.807 4.75-3.303.414-.646.919-.334c.506.313 1.631-.143 2.5-1.012.87-.87 1.581-1.254 1.581-.854 0 .399.787.074 1.75-.722.962-.797 2.987-2.067 4.5-2.824s2.75-1.776 2.75-2.266.414-.634.919-.322c.506.313 1.519.002 2.25-.691.732-.692 2.569-1.898 4.081-2.678s2.75-1.819 2.75-2.309.414-.634.919-.322c.506.313 1.529.002 2.274-.691.745-.692 2.015-1.408 2.821-1.589.807-.182 1.802-.857 2.211-1.5.41-.644.751-.763.76-.265.008.498.802.253 1.765-.543.962-.797 2.987-2.067 4.5-2.824s2.75-1.776 2.75-2.266.414-.634.919-.322c.506.313 1.519-.001 2.25-.697.732-.695 3.469-2.345 6.081-3.666s4.75-2.807 4.75-3.303.414-.646.919-.334c.506.313 1.519.002 2.25-.691.732-.692 2.568-1.898 4.081-2.678s2.75-1.819 2.75-2.309.414-.634.919-.322c.506.313 1.599-.111 2.429-.941s1.913-1.509 2.406-1.509 1.954-1.125 3.246-2.5 1.933-2.507 1.424-2.515c-.508-.009-.249-.442.576-.964 1.32-.834 1.514-16.765 1.618-132.734.065-72.483-.091-134.148-.346-137.033-.474-5.355-5.422-12.254-8.789-12.254-.724 0-1.466-.416-1.65-.925s-1.008-1.071-1.833-1.25-1.725-.576-2-.883-1.528-1.26-2.785-2.119c-2.117-1.446-2.325-2.473-2.822-13.942-.295-6.809-.954-12.531-1.465-12.714-.51-.184-.928-1.845-.928-3.691 0-1.847-.457-3.641-1.016-3.986s-.78-1.011-.491-1.478-.073-1.45-.805-2.181c-1.422-1.422-1.688-2.075-1.688-4.142 0-.722-.788-2.202-1.75-3.289s-1.896-2.636-2.075-3.439c-.179-.804-.741-1.611-1.25-1.794s-.925-1.196-.925-2.25-.45-1.917-1-1.917-1-.577-1-1.281c0-.705-2.176-3.563-4.836-6.352s-5.121-5.812-5.469-6.719c-.348-.906-1.082-1.648-1.631-1.648-.55 0-3.802-2.7-7.227-6s-6.586-6-7.025-6c-.438 0-1.961-1.012-3.385-2.25s-2.785-2.128-3.027-1.979c-.241.149-1.415-.639-2.608-1.75-1.193-1.112-2.722-2.021-3.397-2.021-.676 0-1.378-.416-1.562-.925-.183-.509-1.008-1.071-1.833-1.25s-1.745-.652-2.045-1.052C738.907 261.374 719.663 252 717.84 252c-1.012 0-1.84-.45-1.84-1s-.873-1-1.941-1-2.219-.45-2.559-1-1.716-1-3.059-1-2.441-.45-2.441-1-1.35-1-3-1-3-.45-3-1-1.323-1-2.941-1-3.219-.45-3.559-1-2.129-1-3.976-1-3.507-.409-3.691-.91c-.183-.5-1.683-1.146-3.333-1.434s-4.35-.934-6-1.436-3.615-.702-4.366-.444-1.69-.058-2.087-.701-2.708-1.224-5.135-1.293-4.87-.465-5.429-.882c-3.761-2.802-55.614-5.057-81.347-3.537-7.445.439-9.664.252-10.83-.914-.807-.807-1.881-1.212-2.387-.899-.505.312-.919.157-.919-.346s-3.937-2.885-8.75-5.295c-4.812-2.409-9.349-4.953-10.081-5.654s-1.706-1.041-2.164-.758c-.459.284-.985.096-1.17-.416s-.999-1.077-1.811-1.256-2.086-.892-2.831-1.584-1.768-1.004-2.274-.691c-.505.312-.919.162-.919-.334s-2.138-1.985-4.75-3.309-4.9-2.745-5.083-3.157c-.184-.412-1.159-.75-2.167-.75s-1.983-.38-2.167-.845c-.435-1.101-6.217-1.785-11.583-1.369m-1.725 7.616c-1.068.604-2.558 1.665-3.313 2.357s-1.749 1.027-2.207.744c-.459-.284-.985-.096-1.17.416s-.999 1.077-1.811 1.256-2.086.892-2.831 1.584-1.768 1.004-2.274.691c-.505-.312-.919-.157-.919.346s-3.937 2.881-8.75 5.285c-4.812 2.404-8.979 4.683-9.259 5.065-.281.381-1.17.842-1.977 1.024-.806.181-2.076.897-2.821 1.589-.745.693-1.768 1.004-2.274.691-.505-.312-.919-.159-.919.341 0 .501-3.038 2.438-6.75 4.305s-6.9 3.735-7.083 4.15c-.184.415-1.159.754-2.167.754s-1.983.416-2.167.925-.997 1.071-1.809 1.25-2.086.892-2.831 1.584-1.768 1.004-2.274.691c-.505-.312-.919-.159-.919.341 0 .501-3.038 2.431-6.75 4.289-3.712 1.859-6.979 3.69-7.259 4.07-.281.379-1.17.838-1.977 1.02-.806.181-2.076.897-2.821 1.589-.745.693-1.768 1.004-2.274.691-.505-.312-.919-.159-.919.341 0 .501-3.038 2.431-6.75 4.289-3.712 1.859-6.979 3.69-7.259 4.07-.281.379-1.17.838-1.977 1.02-.806.181-2.076.897-2.821 1.589-.745.693-1.768 1.004-2.274.691-.505-.312-.919-.162-.919.334s-2.137 1.985-4.75 3.309-4.9 2.744-5.083 3.157c-.184.413-1.159.75-2.167.75s-1.983.416-2.167.925-.997 1.071-1.809 1.25-2.086.892-2.831 1.584-1.768 1.004-2.274.691c-.505-.312-.919-.162-.919.334s-2.137 1.979-4.75 3.295c-2.613 1.317-4.979 2.702-5.259 3.077-.281.376-1.17.832-1.977 1.014-.806.181-2.076.897-2.821 1.589-.745.693-1.73 1.027-2.188.744-.459-.284-.985-.096-1.17.416s-.999 1.077-1.811 1.256-2.086.892-2.831 1.584-1.768 1.004-2.274.691c-.505-.312-.919-.162-.919.334s-2.137 1.985-4.75 3.309-4.9 2.744-5.083 3.157c-.184.413-1.003.75-1.822.75-.818 0-2.167.679-2.997 1.509s-1.923 1.254-2.429.941c-.505-.312-.919-.157-.919.346s-3.937 2.885-8.75 5.295c-4.812 2.409-9.349 4.953-10.081 5.654s-1.744 1.018-2.25.705c-.505-.312-.919-.159-.919.341 0 .501-3.038 2.431-6.75 4.289-3.712 1.859-6.979 3.69-7.259 4.07-.281.379-1.17.838-1.977 1.02-.806.181-2.076.897-2.821 1.589-.745.693-1.768 1.004-2.274.691-.505-.312-.919-.199-.919.252 0 .45-3.038 2.389-6.75 4.309-3.712 1.919-6.9 3.826-7.083 4.239-.184.413-1.159.75-2.167.75s-1.983.416-2.167.925-.997 1.071-1.809 1.25-2.086.892-2.831 1.584-1.768 1.004-2.274.691c-.505-.312-.919-.159-.919.341 0 .501-3.038 2.431-6.75 4.289-3.713 1.859-6.979 3.69-7.259 4.07-.281.379-1.17.838-1.977 1.02-.806.181-2.076.897-2.821 1.589-.745.693-1.768 1.004-2.274.691-.505-.312-.919-.162-.919.334s-2.137 1.985-4.75 3.309-4.9 2.744-5.083 3.157c-.184.413-1.196.75-2.25.75s-1.917.45-1.917 1-.694 1-1.542 1c-2.109 0-5.516 3.321-4.656 4.539.384.543 2.835 2.065 5.448 3.382 2.613 1.316 4.75 2.799 4.75 3.295s.414.646.919.334c.506-.313 1.529-.002 2.274.691.745.692 2.015 1.408 2.821 1.589.807.182 1.696.638 1.977 1.014.28.375 2.646 1.76 5.259 3.077s4.75 2.799 4.75 3.295.414.646.919.334c.506-.313 1.519.001 2.25.697.732.695 3.468 2.345 6.081 3.666s4.75 2.807 4.75 3.303.414.646.919.334c.506-.313 1.519.001 2.25.697.732.695 3.468 2.345 6.081 3.666s4.75 2.807 4.75 3.303.414.646.919.334c.506-.313 1.519.001 2.25.697.732.695 3.468 2.345 6.081 3.666s4.75 2.807 4.75 3.303.414.646.919.334c.506-.313 1.631.143 2.5 1.012.87.87 1.581 1.254 1.581.854 0-.399.788-.074 1.75.722.963.797 2.988 2.067 4.5 2.824s2.75 1.776 2.75 2.266.414.634.919.322c.506-.313 1.631.143 2.5 1.012.87.87 1.581 1.254 1.581.854 0-.399.788-.07 1.75.731.963.802 3.887 2.517 6.5 3.812 2.613 1.296 4.75 2.761 4.75 3.257s.414.646.919.334c.506-.313 1.519.001 2.25.697.732.695 3.468 2.345 6.081 3.666s4.75 2.807 4.75 3.303.414.646.919.334c.506-.313 1.519.001 2.25.697.732.695 3.468 2.345 6.081 3.666s4.75 2.807 4.75 3.303.414.646.919.334c.506-.313 1.529-.002 2.274.691.745.692 2.019 1.405 2.831 1.584s1.626.741 1.809 1.25.998.925 1.809.925c.812 0 1.198.45.858 1s.309 1 1.441 1 2.059.477 2.059 1.059.414.803.919.491 1.599.111 2.429.941 2.179 1.509 2.997 1.509 1.638.337 1.822.75c.183.413 2.47 1.833 5.083 3.157s4.75 2.813 4.75 3.309.414.646.919.334c.506-.313 1.519-.002 2.25.691.732.692 2.569 1.898 4.081 2.678s2.75 1.819 2.75 2.309.414.634.919.322c.506-.313 1.529-.002 2.274.691.745.692 2.015 1.408 2.821 1.589.807.182 1.696.632 1.977 1.002.28.369 1.747 1.309 3.259 2.089 1.512.779 2.75 1.817 2.75 2.307s.414.634.919.322c.506-.313 1.529-.002 2.274.691.745.692 2.015 1.408 2.821 1.589.807.182 1.696.638 1.977 1.014.28.375 2.646 1.76 5.259 3.077s4.75 2.799 4.75 3.295.414.646.919.334c.506-.313 1.519.001 2.25.697.732.695 3.468 2.345 6.081 3.666s4.75 2.807 4.75 3.303.414.646.919.334c.506-.313 1.519.013 2.25.725.732.711 3.92 2.549 7.085 4.084 3.165 1.536 6.315 3.323 7 3.972s3.383 2.261 5.996 3.582 4.75 2.807 4.75 3.303.414.646.919.334c.506-.313 1.519.001 2.25.697.732.695 3.468 2.345 6.081 3.666s4.75 2.807 4.75 3.303.414.646.919.334c.506-.313 1.529-.002 2.274.691.745.692 2.015 1.408 2.821 1.589.807.182 1.696.638 1.977 1.014.28.375 2.646 1.76 5.259 3.077s4.75 2.799 4.75 3.295.414.646.919.334c.506-.313 1.529-.002 2.274.691.745.692 2.015 1.408 2.821 1.589.807.182 1.696.655 1.977 1.052.28.397 2.172 1.496 4.204 2.441 3.502 1.629 3.908 1.627 7.75-.038 2.23-.966 4.055-2.101 4.055-2.521s.707-.764 1.571-.764c.865 0 2.251-.679 3.081-1.509s1.923-1.254 2.429-.941c.505.312.919.162.919-.334s2.138-1.979 4.75-3.295c2.612-1.317 4.979-2.702 5.259-3.077.281-.376 1.17-.832 1.977-1.014.806-.181 2.076-.897 2.821-1.589.745-.693 1.768-1.004 2.274-.691.505.312.919.162.919-.334s2.138-1.982 4.75-3.303 5.349-2.971 6.081-3.666c.731-.696 1.744-1.01 2.25-.697.505.312.919.162.919-.334s2.138-1.979 4.75-3.295c2.612-1.317 4.979-2.702 5.259-3.077.281-.376 1.17-.832 1.977-1.014.806-.181 2.076-.897 2.821-1.589.745-.693 1.768-1.004 2.274-.691.505.312.919.143.919-.377s1.556-1.683 3.458-2.586c1.901-.902 3.732-2.086 4.069-2.63s1.03-.731 1.542-.414c.512.316.931.166.931-.334 0-.501 3.038-2.435 6.75-4.298 3.712-1.864 7.349-3.96 8.081-4.659s1.744-1.015 2.25-.702c.505.312.919.162.919-.334s2.138-1.982 4.75-3.303 5.311-2.933 5.996-3.582 3.835-2.436 7-3.972c3.165-1.535 6.353-3.373 7.085-4.084.731-.712 1.744-1.038 2.25-.725.505.312.919.143.919-.377s1.556-1.683 3.458-2.586c1.901-.902 3.732-2.086 4.069-2.63s1.03-.731 1.542-.414c.512.316.931.166.931-.334 0-.501 3.038-2.435 6.75-4.298 3.712-1.864 7.349-3.96 8.081-4.659s1.744-1.015 2.25-.702c.505.312.919.162.919-.334s2.138-1.982 4.75-3.303 5.349-2.971 6.081-3.666c.731-.696 1.744-1.01 2.25-.697.505.312.919.162.919-.334s2.138-1.979 4.75-3.295c2.612-1.317 4.979-2.702 5.259-3.077.281-.376 1.17-.832 1.977-1.014.806-.181 2.076-.897 2.821-1.589.745-.693 1.768-1.004 2.274-.691.505.312.919.168.919-.322s1.237-1.509 2.75-2.266 3.538-2.027 4.5-2.824 1.75-1.121 1.75-.722c0 .4.711.016 1.581-.854.869-.869 1.994-1.325 2.5-1.012.505.312.919.162.919-.334s2.138-1.982 4.75-3.303 5.349-2.971 6.081-3.666c.731-.696 1.744-1.01 2.25-.697.505.312.919.162.919-.334s2.138-1.982 4.75-3.303 5.349-2.971 6.081-3.666c.731-.696 1.744-1.01 2.25-.697.505.312.919.162.919-.334s2.138-1.979 4.75-3.295c2.612-1.317 4.979-2.702 5.259-3.077.281-.376 1.17-.832 1.977-1.014.806-.181 2.076-.897 2.821-1.589.745-.693 1.768-1.004 2.274-.691.505.312.919.168.919-.322s1.237-1.529 2.75-2.309 3.349-1.986 4.081-2.678c.731-.693 1.706-1.027 2.164-.744.459.284.985.096 1.17-.416s.999-1.077 1.811-1.256 2.086-.892 2.831-1.584 1.768-1.004 2.274-.691c.505.312.919.168.919-.322s1.237-1.529 2.75-2.309 3.349-1.986 4.081-2.678c.731-.693 1.744-1.004 2.25-.691.505.312.919.162.919-.334s2.138-1.982 4.75-3.303 5.349-2.971 6.081-3.666c.731-.696 1.706-1.033 2.164-.75.459.284.985.096 1.17-.416s.992-1.077 1.796-1.256c.803-.179 2.351-1.113 3.439-2.075 1.087-.962 2.519-1.75 3.182-1.75 3.522 0 1.294-4.914-2.643-5.83-.781-.182-1.649-.641-1.93-1.02-.28-.38-3.547-2.211-7.259-4.07-3.712-1.858-6.75-3.788-6.75-4.289s-.414-.653-.919-.341c-.506.313-1.529.002-2.274-.691-.745-.692-2.019-1.405-2.831-1.584s-1.626-.741-1.809-1.25c-.668-1.853-9.061 1.252-13.625 5.04-.848.704-1.542.968-1.542.586s-.711.017-1.581.887c-.869.869-1.994 1.325-2.5 1.012-.505-.312-.919-.162-.919.334s-2.138 1.982-4.75 3.303-5.349 2.971-6.081 3.666c-.731.696-1.744 1.01-2.25.697-.505-.312-.919-.159-.919.341 0 .501-3.038 2.435-6.75 4.298-3.712 1.864-7.349 3.96-8.081 4.659s-1.744 1.015-2.25.702c-.505-.312-.919-.168-.919.322s-1.237 1.529-2.75 2.309-3.349 1.986-4.081 2.678c-.731.693-1.744 1.004-2.25.691-.505-.312-.919-.159-.919.341 0 .501-3.038 2.431-6.75 4.289-3.712 1.859-6.979 3.69-7.259 4.07-.281.379-1.17.838-1.977 1.02-.806.181-2.076.897-2.821 1.589-.745.693-1.768 1.004-2.274.691-.505-.312-.919-.168-.919.322s-1.237 1.529-2.75 2.309-3.349 1.986-4.081 2.678c-.731.693-1.744 1.004-2.25.691-.505-.312-.919-.159-.919.341 0 .501-3.038 2.431-6.75 4.289-3.712 1.859-6.979 3.69-7.259 4.07-.281.379-1.163.838-1.961 1.02-.799.181-2.342 1.118-3.43 2.08-1.087.962-2.567 1.75-3.289 1.75-.721 0-1.311.45-1.311 1s-.707 1-1.571 1c-.865 0-2.251.679-3.081 1.509s-1.923 1.254-2.429.941c-.505-.312-.919-.162-.919.334s-2.138 1.982-4.75 3.303-5.349 2.971-6.081 3.666c-.731.696-1.744 1.01-2.25.697-.505-.312-.919-.162-.919.334s-2.138 1.979-4.75 3.295c-2.612 1.317-4.979 2.702-5.259 3.077-.281.376-1.17.832-1.977 1.014-.806.181-2.076.897-2.821 1.589-.745.693-1.768 1.004-2.274.691-.505-.312-.919-.162-.919.334s-2.138 1.982-4.75 3.303-5.349 2.971-6.081 3.666c-.731.696-1.744 1.01-2.25.697-.505-.312-.919-.168-.919.322s-1.237 1.529-2.75 2.309-3.349 1.986-4.081 2.678c-.731.693-1.706 1.027-2.164.744-.459-.284-.985-.096-1.17.416s-.999 1.077-1.811 1.256-2.086.892-2.831 1.584-1.768 1.004-2.274.691c-.505-.312-.919-.168-.919.322s-1.237 1.528-2.75 2.307c-1.513.78-2.979 1.72-3.259 2.089-.281.37-1.17.82-1.977 1.002-.806.181-2.076.897-2.821 1.589-.745.693-1.768 1.004-2.274.691-.505-.312-.919-.168-.919.322s-1.237 1.528-2.75 2.307c-1.513.78-2.979 1.72-3.259 2.089-.281.37-1.17.82-1.977 1.002-.806.181-2.076.897-2.821 1.589-.745.693-1.768 1.004-2.274.691-.505-.312-.919-.162-.919.334s-2.138 1.982-4.75 3.303-5.349 2.971-6.081 3.666c-.731.696-1.744 1.01-2.25.697-.505-.312-.919-.091-.919.491 0 1.25-4.179 1.425-5.55.233-1.08-.94-6.49-2.55-14.258-4.244-3.964-.864-6.37-.872-9.5-.031-2.306.62-5.092 1.3-6.192 1.512s-3 .705-4.221 1.096-2.572.743-3 .781c-.429.038-1.378.668-2.11 1.4-.731.732-1.744 1.075-2.25.762-.505-.312-.919-.091-.919.491s-.9 1.059-2 1.059-2-.477-2-1.059-.337-.86-.75-.617c-.413.242-1.875-.023-3.25-.589-1.375-.567-3.39-1.202-4.479-1.411s-2.415-.818-2.95-1.353c-.534-.534-1.781-.971-2.771-.971s-1.8-.477-1.8-1.059-.37-.831-.822-.551-2.078-.144-3.614-.941-3.416-1.449-4.178-1.449-1.386-.375-1.386-.833c0-.459-.625-.834-1.389-.834s-3.126-.84-5.25-1.866-4.528-1.977-5.343-2.112-1.641-.723-1.835-1.307c-.195-.583-.729-.829-1.188-.545s-1.433-.051-2.164-.744c-.732-.692-2.155-1.4-3.162-1.571-1.006-.172-3.383-1.185-5.28-2.25-1.897-1.066-4.111-1.938-4.919-1.938-.809 0-1.47-.477-1.47-1.059s-.414-.803-.919-.491-1.711-.223-2.679-1.191c-.968-.967-1.91-1.608-2.095-1.424s-2.017.077-4.071-.24c-2.055-.317-7.508-.815-12.118-1.108s-8.866-.831-9.458-1.197c-.591-.366-2.17-.781-3.508-.924-1.337-.143-3.156-.576-4.042-.964-.885-.387-2.208-.826-2.938-.976-.731-.15-2.081-.6-3-1-.92-.4-2.339-.861-3.154-1.023s-1.641-.771-1.835-1.355c-.195-.583-.729-.829-1.188-.545s-1.443-.051-2.188-.744c-.745-.692-2.019-1.405-2.831-1.584s-1.627-.744-1.811-1.256c-.185-.512-.718-.695-1.186-.406s-2.096-.721-3.619-2.244-3.015-2.769-3.315-2.769-.395-.45-.212-1-.014-.652-.439-.227c-.934.934-9.394-7.153-9.394-8.981 0-.711-.399-1.292-.887-1.292-.487 0-2.4-3.139-4.25-6.975s-3.952-6.986-4.672-7c-.732-.014-.995-.534-.596-1.18.423-.684.277-.884-.36-.49-.591.365-1.673.097-2.404-.596-.732-.692-2.569-1.898-4.081-2.678s-2.75-1.793-2.75-2.25-.59-.831-1.311-.831c-.722 0-2.399-1.012-3.727-2.25s-2.651-2.154-2.939-2.037c-.287.117-1.539-.67-2.781-1.75-1.241-1.08-2.73-1.963-3.309-1.963-.578 0-.73-.52-.338-1.155.427-.69.276-.884-.376-.48-.599.37-2.196-.433-3.548-1.785-1.353-1.352-2.654-2.264-2.892-2.025-.239.238-2.536-1.582-5.106-4.044-2.57-2.463-4.673-4.19-4.673-3.839s-.87-.149-1.933-1.111c-2.131-1.929-1.766-4.119 1.114-6.678 1-.89 1.819-2.154 1.819-2.809s.357-.972.792-.702c.851.525 1.424-2.042 1.534-6.872.102-4.442-.445-5.579-4.693-9.76l-3.866-3.807 2.866-2.465c1.577-1.356 3.392-2.466 4.034-2.467s1.316-.417 1.5-.926.997-1.071 1.809-1.25 2.086-.892 2.831-1.584 1.73-1.027 2.188-.744c.459.284.985.096 1.17-.416s.992-1.077 1.796-1.256c.803-.179 2.351-1.113 3.439-2.075 1.087-.962 2.567-1.75 3.289-1.75.721 0 1.311-.45 1.311-1s.707-1 1.571-1c.865 0 2.251-.679 3.081-1.509s1.923-1.254 2.429-.941c.505.312.919.159.919-.341 0-.501 3.038-2.435 6.75-4.298 3.712-1.864 7.349-3.96 8.081-4.659s1.744-1.015 2.25-.702c.505.312.919.159.919-.341 0-.501 3.038-2.431 6.75-4.289 3.712-1.859 6.979-3.69 7.259-4.07.281-.379 1.17-.838 1.977-1.02.806-.181 2.076-.897 2.821-1.589.745-.693 1.768-1.004 2.274-.691.505.312.919.162.919-.334s2.137-1.982 4.75-3.303 5.349-2.971 6.081-3.666c.731-.696 1.706-1.033 2.164-.75.459.284.985.096 1.17-.416s.999-1.077 1.811-1.256 2.086-.892 2.831-1.584 1.768-1.004 2.274-.691c.505.312.919.159.919-.341 0-.501 3.038-2.431 6.75-4.289 3.712-1.859 6.979-3.69 7.259-4.07.281-.379 1.17-.838 1.977-1.02.806-.181 2.076-.897 2.821-1.589.745-.693 1.768-1.004 2.274-.691.505.312.919.159.919-.341 0-.501 3.038-2.435 6.75-4.298 3.712-1.864 7.349-3.96 8.081-4.659s1.706-1.038 2.164-.755.985.096 1.17-.416.992-1.077 1.796-1.256c.803-.179 2.351-1.113 3.439-2.075 1.948-1.724 8.588-2.429 9.959-1.058.381.381 1.658.84 2.838 1.02s2.7.788 3.377 1.35c1.479 1.227 19.688 1.069 20.482-.179.306-.48 1.768-.974 3.25-1.096s2.694-.499 2.694-.836 1.238-1.252 2.75-2.032c3.331-1.719 4.643-2.993 5.08-4.933.182-.807.641-1.696 1.022-1.977 1.701-1.253 1.165-7.206-.995-11.049-1.8-3.203-2.011-4.247-.988-4.879.716-.443 1.229-1.204 1.139-1.693-.089-.488.641-1.338 1.623-1.888.981-.55 2.402-1.567 3.157-2.259.755-.693 1.787-1.004 2.293-.691.505.312.919.134.919-.395 0-.53 3.038-2.467 6.75-4.304s6.979-3.644 7.259-4.015c.281-.372 1.17-.824 1.977-1.006.806-.181 2.076-.897 2.821-1.589.745-.693 1.73-1.027 2.188-.744.459.284.985.11 1.17-.385.184-.496 1.88-1.758 3.768-2.805s3.634-2.507 3.88-3.245c.253-.759-.013-1.056-.614-.685-.584.361-1.328.223-1.655-.307-.985-1.593-17.855-9.501-20.562-9.638-1.384-.07-3.39.366-4.457.97m27.975 19c-4.4 2.242-8.599 4.647-9.331 5.346s-1.744 1.015-2.25.702c-.505-.312-.919-.159-.919.341 0 .501-3.038 2.435-6.75 4.298-3.712 1.864-7.349 3.96-8.081 4.659s-1.744 1.015-2.25.702c-.996-.616-1.256.646-.935 4.55.113 1.375.613 2.65 1.111 2.833 1.241.457 1.151 8.167-.095 8.167-.55 0-.947.337-.882.75.419 2.653-.646 4.62-4.697 8.671-2.518 2.518-5.026 4.579-5.571 4.579-.546 0-1.672.679-2.502 1.509s-1.923 1.254-2.429.941c-.505-.312-.919-.091-.919.491S486.29 280 484.2 280s-4.291.491-4.89 1.09c-1.528 1.528-20.018-.102-22.81-2.011-1.674-1.144-7.731-1.324-8.395-.249-.343.555-1.284 1.158-2.091 1.34-.806.181-2.076.897-2.821 1.589-.745.693-1.768 1.004-2.274.691-.505-.312-.919-.162-.919.334s-2.137 1.985-4.75 3.309-4.9 2.744-5.083 3.157c-.184.413-1.003.75-1.822.75-.818 0-2.167.679-2.997 1.509s-1.923 1.254-2.429.941c-.505-.312-.919-.192-.919.267s-3.937 2.848-8.75 5.309c-4.812 2.46-8.9 4.811-9.083 5.224-.184.413-1.003.75-1.822.75-.818 0-2.167.679-2.997 1.509s-1.923 1.254-2.429.941c-.505-.312-.919-.157-.919.346s-3.937 2.885-8.75 5.295c-4.812 2.409-9.349 4.953-10.081 5.654s-1.744 1.018-2.25.705c-.505-.312-.919-.159-.919.341 0 .501-3.038 2.435-6.75 4.298-3.712 1.864-7.349 3.96-8.081 4.659s-1.706 1.038-2.164.755-.985-.096-1.17.416-.999 1.077-1.811 1.256-2.086.892-2.831 1.584-1.768 1.004-2.274.691c-.505-.312-.919-.162-.919.334s-2.137 1.985-4.75 3.309-4.9 2.744-5.083 3.157c-.184.413-1.003.75-1.822.75-.818 0-2.167.679-2.997 1.509s-1.923 1.254-2.429.941c-.505-.312-.919-.142-.919.378s-3.139 2.459-6.975 4.309c-7.13 3.438-8.172 4.858-5.516 7.515.83.83 1.254 1.923.941 2.429-.312.505-.091.919.491.919 1.497 0 1.343 11.519-.191 14.264-.687 1.23-1.816 2.95-2.508 3.824-1.036 1.307-.917 1.981.674 3.815 1.063 1.226 2.156 2.086 2.428 1.913.273-.174 1.66.696 3.083 1.934s2.922 2.252 3.331 2.255c.408.002 2.3 1.465 4.205 3.25s3.557 3.02 3.67 2.745c.114-.275 1.371.512 2.794 1.75s2.95 2.25 3.392 2.25 1.891 1.012 3.219 2.25 2.502 2.025 2.608 1.75 1.355.51 2.774 1.743 2.58 1.952 2.58 1.595c0-.356.788.004 1.75.8.962.797 2.988 2.067 4.5 2.824s2.75 1.75 2.75 2.207.59.831 1.311.831c.722 0 2.202.788 3.289 1.75s2.631 1.899 3.43 2.08c.798.182 1.68.638 1.961 1.014.28.375 2.646 1.76 5.259 3.077 2.612 1.316 4.75 2.799 4.75 3.295s.414.646.919.334c.506-.313 1.519.001 2.25.697.732.695 3.468 2.345 6.081 3.666s4.75 2.807 4.75 3.303.414.646.919.334c.506-.313 1.529-.002 2.274.691.745.692 2.015 1.408 2.821 1.589.807.182 1.696.649 1.977 1.039.28.39 2.867 1.858 5.75 3.262 2.882 1.405 4.907 2.887 4.5 3.295s-.291.65.259.539c2.243-.453 4.228.128 6.1 1.785 1.088.962 2.636 1.896 3.439 2.075.804.179 1.612.744 1.796 1.256.185.512.711.7 1.17.416.458-.283 1.443.051 2.188.744.745.692 2.019 1.405 2.831 1.584s1.627.744 1.811 1.256c.185.512.711.7 1.17.416.458-.283 1.443.051 2.188.744.745.692 2.019 1.405 2.831 1.584s1.627.744 1.811 1.256c.185.512.711.7 1.17.416.458-.283 1.433.051 2.164.744.732.692 2.231 1.409 3.331 1.593s2.428.746 2.95 1.25 1.76.916 2.75.916 1.8.45 1.8 1 .9 1 2 1 2 .45 2 1 .9 1 2 1 2 .477 2 1.059.37.831.822.551 2.078.144 3.614.941 3.416 1.449 4.178 1.449 1.386.477 1.386 1.059.37.831.822.551 2.078.144 3.614.941 3.416 1.449 4.178 1.449 1.386.45 1.386 1 1.035 1 2.3 1 2.727.372 3.25.826c3.202 2.784 9.05 3.365 12.782 1.268 2.051-1.151 5.028-2.094 6.615-2.094s3.036-.443 3.22-.985c.43-1.273 12.668-1.907 18.123-.939 6.785 1.204 9.998 1.983 11.14 2.701 2.185 1.373 5.683 1.253 7.183-.248.852-.851 1.962-1.292 2.468-.979.505.312.919.162.919-.334s2.138-1.961 4.75-3.257c2.612-1.295 5.538-3.01 6.5-3.812.962-.801 1.757-1.05 1.765-.552s.35.379.76-.265c.409-.643 1.397-1.318 2.195-1.5.799-.181 2.342-1.118 3.43-2.08 1.087-.962 2.567-1.75 3.289-1.75.721 0 1.311-.45 1.311-1s.707-1 1.571-1c.865 0 2.251-.679 3.081-1.509s1.923-1.254 2.429-.941c.505.312.919.162.919-.334s2.138-1.982 4.75-3.303 5.349-2.971 6.081-3.666c.731-.696 1.744-1.01 2.25-.697.505.312.919.162.919-.334s2.138-1.985 4.75-3.309 4.9-2.744 5.083-3.157c.184-.413 1.003-.75 1.822-.75.818 0 2.167-.679 2.997-1.509s1.923-1.254 2.429-.941c.505.312.919.162.919-.334s2.138-1.982 4.75-3.303 5.349-2.971 6.081-3.666c.731-.696 1.744-1.01 2.25-.697.505.312.919.162.919-.334s2.138-1.982 4.75-3.303 5.349-2.971 6.081-3.666c.731-.696 1.744-1.01 2.25-.697.505.312.919.162.919-.334s2.138-1.982 4.75-3.303 5.349-2.971 6.081-3.666c.731-.696 1.744-1.01 2.25-.697.505.312.919.162.919-.334s2.138-1.982 4.75-3.303 5.349-2.971 6.081-3.666c.731-.696 1.744-1.01 2.25-.697.505.312.919.162.919-.334s2.138-1.982 4.75-3.303 5.349-2.971 6.081-3.666c.731-.696 1.744-1.01 2.25-.697.505.312.919.162.919-.334s2.138-1.985 4.75-3.309 4.9-2.744 5.083-3.157c.184-.413 1.003-.75 1.822-.75.818 0 2.167-.679 2.997-1.509s1.923-1.254 2.429-.941c.505.312.919.168.919-.322s1.237-1.509 2.75-2.266 3.538-2.027 4.5-2.824 1.75-1.121 1.75-.722c0 .4.711.016 1.581-.854.869-.869 1.994-1.325 2.5-1.012.505.312.919.144.919-.374s2.466-2.148 5.481-3.623c3.014-1.474 5.745-3.11 6.069-3.633s1.007-.694 1.519-.377.931.169.931-.327 2.138-1.979 4.75-3.295c2.612-1.317 4.979-2.702 5.259-3.077.281-.376 1.17-.832 1.977-1.014.806-.181 2.076-.897 2.821-1.589.745-.693 1.768-1.004 2.274-.691.505.312.919.168.919-.322s1.237-1.509 2.75-2.266 3.538-2.027 4.5-2.824 1.757-1.041 1.765-.543.35.379.76-.265c.409-.643 1.383-1.318 2.164-1.5 3.546-.824 7.624-5.83 4.75-5.83-.722 0-2.202-.788-3.289-1.75s-2.636-1.896-3.439-2.075c-.804-.179-1.612-.744-1.796-1.256-.185-.512-.711-.7-1.17-.416-.458.283-1.433-.056-2.164-.755s-4.369-2.795-8.081-4.659-6.75-3.797-6.75-4.298-.414-.653-.919-.341c-.506.313-1.529.002-2.274-.691-.745-.692-2.019-1.405-2.831-1.584s-1.626-.741-1.809-1.25S729.008 326 728 326s-1.983-.337-2.167-.75-2.471-1.833-5.083-3.157-4.75-2.813-4.75-3.309-.414-.646-.919-.334c-.506.313-1.529.002-2.274-.691-.745-.692-2.019-1.405-2.831-1.584s-1.626-.741-1.809-1.25S707.008 314 706 314s-1.983-.339-2.167-.754-3.371-2.283-7.083-4.15-6.75-3.804-6.75-4.305-.414-.653-.919-.341c-.506.313-1.529.002-2.274-.691-.745-.692-2.019-1.405-2.831-1.584s-1.627-.744-1.811-1.256c-.185-.512-.711-.7-1.17-.416-.458.283-1.433-.056-2.164-.755s-4.369-2.795-8.081-4.659-6.75-3.797-6.75-4.298-.414-.653-.919-.341c-.506.313-1.529.002-2.274-.691-.745-.692-2.019-1.405-2.831-1.584s-1.627-.744-1.811-1.256c-.185-.512-.711-.7-1.17-.416-.458.283-1.545-.196-2.414-1.065-.87-.87-1.581-1.254-1.581-.854 0 .399-.788.07-1.75-.731-.962-.802-3.888-2.517-6.5-3.812-2.612-1.296-4.75-2.761-4.75-3.257s-.414-.646-.919-.334c-.506.313-1.529.002-2.274-.691-.745-.692-2.019-1.405-2.831-1.584s-1.627-.744-1.811-1.256c-.185-.512-.711-.7-1.17-.416-.458.283-1.443-.051-2.188-.744-.745-.692-2.015-1.408-2.821-1.589-.807-.182-1.696-.638-1.977-1.014-.28-.375-2.647-1.76-5.259-3.077s-4.75-2.799-4.75-3.295-.414-.646-.919-.334c-.506.313-1.529.002-2.274-.691-.745-.692-2.015-1.408-2.821-1.589-.807-.182-1.696-.641-1.977-1.02-.28-.38-3.547-2.211-7.259-4.07-3.712-1.858-6.75-3.788-6.75-4.289s-.414-.653-.919-.341c-.506.313-1.529.002-2.274-.691-.745-.692-2.019-1.405-2.831-1.584s-1.627-.744-1.811-1.256c-.185-.512-.711-.7-1.17-.416-.458.283-1.433-.054-2.164-.75-.732-.695-3.469-2.345-6.081-3.666s-4.75-2.807-4.75-3.303-.414-.646-.919-.334c-.506.313-1.529.002-2.274-.691-.745-.692-2.015-1.408-2.821-1.589-.807-.182-1.696-.632-1.977-1-.28-.369-1.184-.816-2.009-.995s-1.651-.744-1.835-1.256c-.185-.512-.711-.7-1.17-.416-.458.283-1.433-.068-2.164-.782-1.05-1.023-5.942-3.606-9.831-5.19-.275-.112-4.1 1.63-8.5 3.871m49.5 8.149c0 .952 2.42 2.921 4.024 3.274.812.179 1.627.744 1.811 1.256.185.512.711.7 1.17.416.458-.283 1.509.16 2.335.986 2.14 2.139 13.201 3.467 28.459 3.415 7.235-.025 13.727.321 14.428.768.7.447 4.198 1.147 7.773 1.556 14.209 1.623 16.536 2.006 17.45 2.875.522.497 2.291.903 3.929.903 2.588 0 5.47.693 11.621 2.795.825.282 2.617.698 3.981.924 1.365.226 2.715.72 3 1.096s1.644.84 3.019 1.03 2.65.753 2.833 1.25c.184.498 1.395.905 2.691.905 1.297 0 2.641.457 2.986 1.016s1.011.78 1.478.491 1.45.041 2.181.734c.732.692 2.456 1.414 3.831 1.604s2.651.756 2.835 1.257.711.679 1.17.395c.458-.283 1.443.051 2.188.744.745.692 2.019 1.405 2.831 1.584s1.627.744 1.811 1.256c.185.512.711.7 1.17.416.458-.283 1.443.051 2.188.744.745.692 2.019 1.405 2.831 1.584s1.626.741 1.809 1.25.886.925 1.562.925c.675 0 2.315 1.012 3.643 2.25s2.578 2.091 2.778 1.897c.199-.194 1.409.557 2.688 1.669 1.278 1.112 2.52 1.827 2.758 1.588.239-.238 3.54 2.597 7.336 6.301s7.014 6.636 7.152 6.515.244.011.237.293 2.029 2.556 4.526 5.053c2.5 2.5 4.234 5.034 3.859 5.641-.41.664-.222.818.473.388.635-.392 1.155-.204 1.155.417 0 .622.679 1.81 1.509 2.64s1.254 1.923.941 2.429c-.312.505-.146.919.37.919.951 0 3.544 5.347 3.198 6.595-.104.375.27.965.831 1.312.562.347 1.206 1.747 1.432 3.112s.692 3.156 1.035 3.981.803 2.625 1.023 4c1.218 7.602 1.756 8.468 6.742 10.856 2.705 1.296 4.919 2.785 4.919 3.309s.414.697.919.385c.506-.313 1.631.143 2.5 1.012.87.87 1.581 1.308 1.581.974 0-.333.9-.125 2 .464 1.725.923 2.007.756 2.051-1.215.028-1.257.289-4.149.58-6.426.315-2.457.091-4.413-.55-4.809-.595-.367-1.081-2.629-1.081-5.026s-.446-4.507-.991-4.691c-.546-.183-1.094-1.571-1.218-3.083-.125-1.512-.579-2.75-1.009-2.75s-.782-.9-.782-2-.45-2-1-2-1-.681-1-1.514c0-1.665-1.797-5.144-3.759-7.278-.693-.753-.961-1.852-.596-2.443.394-.637.194-.783-.49-.36-.635.392-1.155.224-1.155-.373s-1.462-2.705-3.25-4.684-3.137-3.993-3-4.474c.138-.481-.087-.762-.5-.624a.773.773 0 0 1-.983-.517c-.34-1.117-6.574-7.038-8.834-8.39-1.063-.636-1.809-1.682-1.658-2.324s-.113-.928-.587-.635c-.473.292-2.622-1.129-4.774-3.16-2.153-2.03-4.067-3.54-4.253-3.355-.187.185-1.386-.573-2.665-1.685-1.278-1.112-2.524-1.822-2.768-1.579s-1.012-.243-1.708-1.081-1.8-1.524-2.454-1.524-2.061-.792-3.127-1.76c-2.305-2.092-18.395-10.26-20.189-10.248-.687.004-1.25-.469-1.25-1.051s-.37-.831-.822-.551-2.078-.144-3.614-.941-3.416-1.449-4.178-1.449-1.386-.477-1.386-1.059-.337-.86-.75-.617c-.413.242-1.875-.023-3.25-.59s-3.098-1.155-3.828-1.306c-.731-.151-2.081-.603-3-1.005-.92-.402-2.789-.916-4.153-1.142-1.365-.226-2.715-.721-3-1.1-.286-.378-1.869-.844-3.519-1.035s-3.45-.628-4-.971c-.55-.344-2.125-.762-3.5-.93s-3.175-.578-4-.909-3.028-.788-4.896-1.013-4.201-.84-5.184-1.366-4.042-.957-6.795-.957-5.216-.339-5.472-.753-3.238-.887-6.626-1.05-7.218-.699-8.509-1.19c-2.576-.979-51.518-1.412-51.518-.456m-117 4.39c-.825.566-2.738 1.035-4.25 1.044-1.512.008-2.75.492-2.75 1.074s-.414.803-.919.491-1.519.023-2.25.747c-.732.723-2.119 1.613-3.081 1.978-.962.364-1.75 1.351-1.75 2.194 0 .842-.45 1.531-1 1.531s-1 2.437-1 5.415c0 5.281 3.377 10.837 6.388 10.51.489-.053 1.209.423 1.6 1.056.392.634 1.342 1.247 2.112 1.364s2.015.595 2.767 1.065c.752.469 4.862.853 9.133.853s8.381-.384 9.133-.853c.752-.47 1.997-.949 2.767-1.065.77-.117 1.72-.73 2.112-1.364.391-.633.997-1.001 1.346-.816s1.987-.941 3.639-2.5c2.619-2.472 3.003-3.527 3.003-8.25 0-2.978-.45-5.415-1-5.415s-.887-.562-.75-1.25c.138-.687-.312-1.138-1-1s-1.137-.088-1-.5.014-.75-.273-.75-1.564-.969-2.835-2.153-3.96-2.387-5.976-2.673-5.691-.8-8.166-1.141c-2.54-.35-5.153-.172-6 .408m-4.445 8.335c-3.709 2.333-6.055 4.855-6.08 6.535-.028 1.943 1.856 4.189 3.513 4.189.621 0 .809.52.417 1.155-.393.634-.307.912.19.617.498-.295 2.03-.083 3.405.472 3.597 1.451 6.877 1.617 12 .608 10.915-2.151 14.065-6.791 8.173-12.04-2.515-2.241-3.755-2.532-11.25-2.639-5.12-.073-9.186.359-10.368 1.103m152.459 4.824c.817.786 5.424 3.4 10.236 5.809s8.75 4.792 8.75 5.295.414.658.919.346 1.529-.002 2.274.691c.745.692 2.015 1.408 2.821 1.589.807.182 1.696.641 1.977 1.02.28.38 3.547 2.211 7.259 4.07 3.712 1.858 6.75 3.788 6.75 4.289s.414.653.919.341c.506-.313 1.529-.002 2.274.691.745.692 2.019 1.405 2.831 1.584s1.627.744 1.811 1.256c.185.512.711.7 1.17.416.458-.283 1.433.058 2.164.758.732.701 5.269 3.245 10.081 5.654 4.813 2.41 8.75 4.792 8.75 5.295s.414.658.919.346 1.519.005 2.25.705c.732.701 5.269 3.245 10.081 5.654 4.813 2.41 8.75 4.792 8.75 5.295s.414.658.919.346 1.529-.002 2.274.691c.745.692 2.019 1.405 2.831 1.584s1.627.744 1.811 1.256c.185.512.711.7 1.17.416.458-.283 1.433.058 2.164.758.732.701 5.269 3.245 10.081 5.654 4.813 2.41 8.75 4.792 8.75 5.295s.414.658.919.346 1.529-.002 2.274.691c.745.692 2.015 1.408 2.821 1.589.807.182 1.696.649 1.977 1.038.28.39 3.765 2.31 7.744 4.268 3.98 1.958 6.919 3.877 6.531 4.265s.028.423.924.08c1.281-.492 1.45-1.25.789-3.553-.462-1.611-.672-2.928-.468-2.928.203 0-.255-1.205-1.019-2.678s-1.161-3.048-.882-3.5c.28-.452.031-.822-.551-.822s-1.059-.863-1.059-1.917-.416-2.066-.925-2.25c-.509-.183-1.071-.995-1.25-1.804s-1.56-2.834-3.07-4.5-2.748-3.375-2.75-3.798c-.006-1.002-12.734-13.73-13.736-13.736-.423-.002-2.207-1.352-3.965-3-1.757-1.647-3.585-2.995-4.061-2.995s-1.738-.788-2.804-1.75c-1.067-.962-4.977-3.32-8.689-5.239s-6.75-3.859-6.75-4.309-.414-.564-.919-.252c-.506.313-1.529.002-2.274-.691-.745-.692-2.019-1.392-2.831-1.555s-3.051-1.04-4.976-1.95-3.95-1.766-4.5-1.905c-.84-.211-10.252-3.332-15.5-5.14-.825-.284-2.617-.702-3.981-.928-1.365-.226-2.715-.721-3-1.1-.286-.378-1.869-.838-3.519-1.021s-3.427-.743-3.95-1.246c-.522-.503-2.858-.914-5.191-.914s-4.519-.45-4.859-1-3.04-1-6-1-5.648-.431-5.974-.957c-.325-.527-1.814-.912-3.309-.856-1.494.056-7.886-.262-14.203-.707-9.97-.703-11.29-.621-10 .62M495.5 301.664c-6.05.2-11.675.647-12.5.992s-3.3.794-5.5.997-4.675.646-5.5.983c-1.501.615-6.862 1.894-12.5 2.982-1.65.319-3.225.872-3.5 1.231-.275.358-1.625.81-3 1.004s-2.725.644-3 1-1.4.797-2.5.981-2.427.746-2.95 1.25c-.522.504-1.76.916-2.75.916s-1.8.45-1.8 1-.9 1-2 1-2 .45-2 1-.9 1-2 1-2 .45-2 1-.9 1-2 1-2 .45-2 1-.59 1-1.311 1c-.722 0-2.278.9-3.459 2-1.18 1.1-2.551 2-3.046 2-1.276 0-16.184 14.822-16.184 16.091 0 .579-.679 1.731-1.509 2.561s-1.254 1.923-.941 2.429c.312.505.091.919-.491.919s-1.059.681-1.059 1.514c0 .832-.4 2.295-.888 3.25-1.181 2.308-3.187 13.305-2.601 14.254.255.412.715 2.489 1.024 4.615s.833 4.542 1.164 5.367c.332.825.73 2.13.886 2.9.155.77.649 1.67 1.099 2s.962 1.275 1.141 2.1.741 1.65 1.25 1.833.925.962.925 1.731c0 1.784 14.836 16.436 16.643 16.436.746 0 1.357.374 1.357.831s1.238 1.47 2.75 2.25 3.349 1.986 4.081 2.678c.731.693 1.706 1.027 2.164.744.459-.284.985-.096 1.17.416s.999 1.077 1.811 1.256 2.086.892 2.831 1.584 1.768 1.004 2.274.691c.505-.312.919-.091.919.491s.81 1.059 1.8 1.059 2.237.437 2.771.971c.535.535 1.862 1.142 2.95 1.35s2.731.706 3.651 1.106 2.269.818 3 .928 1.81.503 2.398.871c1.364.853 5.814 1.868 10.93 2.491 2.2.268 4.427.892 4.95 1.385.522.494 3.245.898 6.05.898s5.607.507 6.226 1.126c1.37 1.37 53.362 1.409 56.039.042.954-.487 3.688-.948 6.075-1.023 2.386-.076 4.776-.408 5.311-.738.534-.331 2.407-.803 4.16-1.051s3.864-.724 4.689-1.057c.825-.334 2.617-.792 3.981-1.018 1.365-.226 2.715-.72 3-1.096s1.644-.844 3.019-1.038 2.725-.644 3-1 1.4-.797 2.5-.981 2.427-.746 2.95-1.25c.522-.504 1.76-.916 2.75-.916s1.8-.477 1.8-1.059.414-.803.919-.491 1.529.002 2.274-.691c.745-.692 2.019-1.405 2.831-1.584s1.627-.744 1.811-1.256c.185-.512.711-.7 1.17-.416.458.283 1.433-.051 2.164-.744.732-.692 2.568-1.898 4.081-2.678s2.75-1.793 2.75-2.25.622-.831 1.382-.831c1.877 0 17.788-15.915 17.071-17.076-.314-.508-.094-.924.488-.924s1.059-.9 1.059-2 .45-2 1-2 1-.9 1-2 .45-2 1-2 1-1.8 1-4 .45-4 1-4c1.243 0 1.335-8.675.1-9.438-.495-.306-.9-2.191-.9-4.188 0-1.998-.383-3.912-.85-4.253s-.996-1.296-1.175-2.121-.741-1.65-1.25-1.833-.925-1.196-.925-2.25-.45-1.917-1-1.917-1-.662-1-1.472c0-1.912-15.907-17.704-17.094-16.97-.498.308-.906.16-.906-.33s-1.237-1.529-2.75-2.309-3.349-1.986-4.081-2.678c-.731-.693-1.706-1.027-2.164-.744-.459.284-.985.096-1.17-.416s-.999-1.077-1.811-1.256-2.086-.892-2.831-1.584-1.768-1.004-2.274-.691c-.505.312-.919.091-.919-.491s-.873-1.059-1.941-1.059-2.219-.45-2.559-1-1.69-1-3-1-2.66-.45-3-1-1.716-1-3.059-1-2.441-.45-2.441-1-1.323-1-2.941-1-3.19-.402-3.494-.894c-.55-.892-4.568-1.676-14.065-2.748-2.75-.31-5.45-.928-6-1.374-1.209-.98-30.721-1.827-46-1.32m-1.017 7.528c-2.191.381-6.769.719-10.174.75s-6.469.508-6.809 1.058-1.797 1-3.238 1-4.002.42-5.691.932c-8.014 2.433-11.729 3.401-13.047 3.401-.79 0-1.204.375-.921.834s-.187.889-1.044.958c-2.141.172-2.484.28-7.272 2.292-2.316.974-4.516 1.69-4.888 1.591s-.955.274-1.297.826c-.341.553-1.281 1.154-2.088 1.336-.806.181-2.076.897-2.821 1.589-.745.693-1.768 1.004-2.274.691-.505-.312-.919-.168-.919.322s-1.238 1.527-2.75 2.305-4.55 3.1-6.75 5.159-4.37 3.747-4.821 3.753c-1.018.014-4.234 3.158-4.029 3.94.083.314-.288.447-.824.296s-.74.105-.454.568c.287.464-.467 1.954-1.676 3.312s-2.345 3.123-2.526 3.922c-.182.8-.632 1.683-1 1.964-.369.28-.829 1.634-1.023 3.009s-.791 2.773-1.327 3.106c-1.112.693-.916 12.879.232 14.394.417.55.913 1.9 1.103 3s.912 2.599 1.604 3.331 1.004 1.744.691 2.25c-.312.505-.168.919.322.919s1.529 1.232 2.309 2.738c1.463 2.822 10.213 12.152 10.563 11.262.107-.275 1.251.4 2.54 1.5s3.575 2.639 5.08 3.419 2.736 1.819 2.736 2.309.414.634.919.322c.506-.313 1.599.111 2.429.941s2.216 1.509 3.081 1.509 1.571.477 1.571 1.059.414.803.919.491 1.519-.002 2.25.691c.732.692 2.231 1.409 3.331 1.593s2.427.746 2.95 1.25c.522.504 1.958.916 3.191.916s2.519.45 2.859 1 1.69 1 3 1 2.599.352 2.865.781 1.95.894 3.743 1.03c1.792.137 3.739.635 4.326 1.106 1.075.865 5.862 1.686 15.066 2.585 2.75.269 6.575.971 8.5 1.561 5.686 1.742 51.326-.089 53.45-2.144.522-.505 2.885-.919 5.25-.919s4.3-.45 4.3-1 .983-1 2.183-1c2.253 0 12.058-3.126 17.277-5.508 1.627-.743 3.315-1.131 3.75-.863.434.269.79.012.79-.57s.9-1.059 2-1.059 2-.45 2-1 .707-1 1.571-1c.865 0 2.251-.679 3.081-1.509s1.923-1.254 2.429-.941c.505.312.919.168.919-.322s1.237-1.529 2.75-2.309 4.1-2.654 5.75-4.164 3.352-2.748 3.783-2.75c1.059-.007 7.717-6.721 7.717-7.783 0-.465.788-1.74 1.75-2.834 2.474-2.812 4.25-6.104 4.25-7.874 0-.833.394-1.514.876-1.514 1.188 0 1.41-14.948.243-16.369-.511-.622-1.084-2.031-1.274-3.131s-.646-2.229-1.015-2.509c-.368-.281-.818-1.168-1-1.971-.181-.804-1.565-2.825-3.075-4.491s-2.748-3.387-2.75-3.824c-.006-.902-3.986-5.06-5.505-5.75-.55-.25-.876-.826-.725-1.279.151-.454-.105-.59-.568-.304-.464.287-2.03-.58-3.481-1.926-1.451-1.345-3.135-2.446-3.741-2.446s-.782-.52-.39-1.155c.423-.684.277-.884-.36-.49-.591.365-1.683.097-2.428-.596-.745-.692-2.019-1.405-2.831-1.584s-1.626-.741-1.809-1.25-1.196-.925-2.25-.925-1.917-.477-1.917-1.059-.414-.803-.919-.491-1.599-.111-2.429-.941S578.237 320 577.13 320s-2.29-.45-2.63-1-1.491-1-2.559-1-1.941-.401-1.941-.891c0-.489-1.462-1.117-3.25-1.394-4.632-.718-9.008-1.678-10.75-2.359-.825-.323-3.3-.81-5.5-1.083s-4.675-.834-5.5-1.247-3.911-.823-6.857-.911-6.252-.638-7.345-1.223c-2.137-1.144-29.301-.919-36.315.3M274.47 347.796c-2.823.447-10.47 4.362-10.47 5.361 0 .464-.492.73-1.093.593s-1.614.65-2.25 1.75-1.561 2.292-2.054 2.65c-.493.357-.877 3.213-.852 6.347.04 5.047.417 6.081 3.305 9.061 1.794 1.85 3.601 3.154 4.017 2.897s.915.01 1.11.593c.194.584 1.02 1.193 1.835 1.355s2.263.634 3.219 1.048c3.261 1.414 21.754 1.18 22.661-.286.454-.735 1.113-1.297 1.464-1.25 2.501.334 3.886-.39 7.555-3.95 2.287-2.219 3.889-4.469 3.561-5s-.119-.965.463-.965 1.059-1.8 1.059-4-.477-4-1.059-4-.809-.404-.504-.898c.66-1.068-4.544-6.877-6.544-7.304-.766-.164-1.663-.665-1.993-1.114s-1.23-.944-2-1.099-2.075-.551-2.9-.879c-1.737-.689-15.616-1.371-18.53-.91m.633 7.505c-.442.44-1.695.868-2.783.95-2.105.158-7.624 5.352-8.112 7.634-.16.751.403 2.133 1.252 3.071.85.939 1.206 2.079.792 2.535-.414.457-.226.528.417.16.644-.368 1.769-.089 2.5.62 3.438 3.331 15.244 4.529 22.331 2.265 1.1-.351 2.43-.728 2.955-.837 2.234-.465 5.878-5.311 5.878-7.816 0-3.821-2.351-5.721-10.833-8.754-3.337-1.193-13.142-1.076-14.397.172m-62.275 22.414c-.556 2.528-.206 202.019.353 201.673.374-.231.946.008 1.269.532.324.523 3.055 2.159 6.069 3.633 3.015 1.475 5.481 3.105 5.481 3.623s.414.686.919.374 1.529-.002 2.274.691c.745.692 2.019 1.405 2.831 1.584s1.626.741 1.809 1.25 1.011.925 1.838.925c1.183 0 1.371-.802.88-3.75-.823-4.944-1.428-9.678-2.782-21.75-1.909-17.035-1.23-75.515.935-80.5.358-.825 1.031-5.1 1.494-9.5s1.101-10.363 1.415-13.25.98-5.25 1.48-5.25c.499 0 .907-.9.907-2 0-1.541.667-2 2.905-2C246 454 254 457.782 254 459.245c0 .48.414.617.919.305.506-.313 1.631.143 2.5 1.012.87.87 1.581 1.254 1.581.854 0-.399.788-.074 1.75.722.962.797 2.988 2.067 4.5 2.824s2.75 1.776 2.75 2.266.414.634.919.322c.506-.313 1.529-.002 2.274.691.745.692 2.015 1.408 2.821 1.589.807.182 1.696.632 1.977 1.002.28.369 1.747 1.309 3.259 2.089 1.512.779 2.75 1.791 2.75 2.248s.9.831 2 .831 2 .45 2 1 .9 1 2 1 2 .477 2 1.059.414.803.919.491 1.519.001 2.25.697c.732.695 3.468 2.345 6.081 3.666s4.75 2.781 4.75 3.244.9.843 2 .843 2 .477 2 1.059.399.812.887.511c.487-.301 1.366.03 1.952.735.585.706 2.641 1.902 4.568 2.658s3.271 1.749 2.989 2.206.413.831 1.545.831 2.059.45 2.059 1 .863 1 1.917 1 2.066.339 2.25.754c.183.415 3.371 2.283 7.083 4.15s6.75 3.804 6.75 4.305.414.653.919.341c.506-.313 1.631.143 2.5 1.012.87.87 1.581 1.254 1.581.854 0-.399.788-.074 1.75.722.962.797 2.988 2.067 4.5 2.824s2.75 1.776 2.75 2.266.414.634.919.322c.506-.313 1.529-.002 2.274.691.745.692 2.015 1.408 2.821 1.589.807.182 1.696.641 1.977 1.02.28.38 3.547 2.211 7.259 4.07 3.712 1.858 6.75 3.788 6.75 4.289s.414.653.919.341c.506-.313 1.519.001 2.25.697.732.695 3.468 2.345 6.081 3.666s4.75 2.807 4.75 3.303.414.646.919.334c.506-.313 1.519.003 2.25.702s4.369 2.795 8.081 4.659 6.75 3.797 6.75 4.298.414.653.919.341c.506-.313 1.529-.002 2.274.691.745.692 2.015 1.408 2.821 1.589.807.182 1.696.638 1.977 1.014.28.375 2.646 1.76 5.259 3.077s4.75 2.799 4.75 3.295.414.646.919.334c.506-.313 1.529-.002 2.274.691.745.692 2.015 1.408 2.821 1.589.807.182 1.696.638 1.977 1.014.28.375 2.646 1.76 5.259 3.077s4.75 2.773 4.75 3.236.9.843 2 .843 2 .45 2 1 .863 1 1.917 1 2.066.337 2.25.75c.183.413 2.47 1.833 5.083 3.157s4.75 2.813 4.75 3.309.414.646.919.334c.506-.313 1.519-.002 2.25.691.732.692 2.569 1.898 4.081 2.678s2.75 1.819 2.75 2.309.432.623.959.297c.528-.326 2.279.789 3.892 2.477l2.933 3.069.81 19.714c1.027 24.986.517 114.848-.692 121.903-.335 1.959.172 3.385 1.017 2.862.506-.313 1.631.143 2.5 1.012.87.87 1.581 1.254 1.581.854 0-.399.787-.07 1.75.731.962.802 3.887 2.517 6.5 3.812 2.613 1.296 4.75 2.761 4.75 3.257s.414.646.919.334c.506-.313 1.577.089 2.381.893s1.676 1.247 1.938.985c.263-.262 1.046.21 1.742 1.048s1.66 1.524 2.142 1.524c.498 0 .878-43.651.878-100.82V544.361l-2.32-1.931c-1.276-1.061-2.963-2.076-3.75-2.255s-1.581-.744-1.765-1.256c-.185-.512-.711-.7-1.17-.416-.458.283-1.443-.051-2.188-.744-.745-.692-2.015-1.408-2.821-1.589-.807-.182-1.696-.632-1.977-1.002-.28-.369-1.747-1.309-3.259-2.089-1.512-.779-2.75-1.817-2.75-2.307s-.414-.634-.919-.322c-.506.313-1.529.002-2.274-.691-.745-.692-2.015-1.408-2.821-1.589-.807-.182-1.696-.638-1.977-1.014-.28-.375-2.646-1.76-5.259-3.077s-4.75-2.799-4.75-3.295-.414-.646-.919-.334c-.506.313-1.631-.143-2.5-1.012-.87-.87-1.581-1.254-1.581-.854 0 .399-.788.074-1.75-.722-.962-.797-2.988-2.067-4.5-2.824s-2.75-1.776-2.75-2.266-.414-.634-.919-.322c-.506.313-1.599-.111-2.429-.941S448.473 510 447.655 510s-1.638-.337-1.822-.75c-.183-.413-2.47-1.833-5.083-3.157s-4.75-2.813-4.75-3.309-.414-.646-.919-.334c-.506.313-1.519-.001-2.25-.697-.732-.695-3.468-2.345-6.081-3.666s-4.75-2.807-4.75-3.303-.414-.646-.919-.334c-.506.313-1.519-.001-2.25-.697-.732-.695-3.468-2.345-6.081-3.666s-4.75-2.807-4.75-3.303-.414-.646-.919-.334c-.506.313-1.519-.001-2.25-.697-.732-.695-3.468-2.345-6.081-3.666s-4.75-2.807-4.75-3.303-.414-.646-.919-.334c-.506.313-1.529.002-2.274-.691-.745-.692-2.015-1.408-2.821-1.589-.807-.182-1.696-.657-1.977-1.057-.28-.4-1.966-1.316-3.746-2.036s-2.949-1.776-2.596-2.348c.355-.574.162-.741-.432-.374-.591.365-1.785-.048-2.654-.917-.87-.87-1.581-1.254-1.581-.854 0 .399-.788.074-1.75-.722-.962-.797-2.988-2.067-4.5-2.824s-2.75-1.776-2.75-2.266-.414-.634-.919-.322c-.506.313-1.529.002-2.274-.691-.745-.692-2.015-1.408-2.821-1.589-.807-.182-1.696-.632-1.977-1.002-.28-.369-1.747-1.309-3.259-2.089-1.512-.779-2.75-1.817-2.75-2.307s-.414-.634-.919-.322c-.506.313-1.529.002-2.274-.691-.745-.692-2.015-1.408-2.821-1.589-.807-.182-1.696-.638-1.977-1.014-.28-.375-2.646-1.76-5.259-3.077s-4.75-2.799-4.75-3.295-.419-.643-.931-.327c-.512.317-1.196.147-1.519-.377-.324-.523-3.055-2.159-6.069-3.633-3.015-1.475-5.481-3.105-5.481-3.623s-.414-.686-.919-.374-1.519-.001-2.25-.697c-.732-.695-3.468-2.345-6.081-3.666s-4.75-2.807-4.75-3.303-.414-.646-.919-.334c-.506.313-1.529.002-2.274-.691-.745-.692-2.015-1.408-2.821-1.589-.807-.182-1.696-.638-1.977-1.014-.28-.375-2.646-1.76-5.259-3.077s-4.75-2.799-4.75-3.295-.414-.646-.919-.334c-.506.313-1.519-.001-2.25-.697-.732-.695-3.468-2.345-6.081-3.666s-4.75-2.807-4.75-3.303-.414-.646-.919-.334c-.506.313-1.529.002-2.274-.691-.745-.692-2.015-1.408-2.821-1.589-.807-.182-1.696-.638-1.977-1.014-.28-.375-2.646-1.76-5.259-3.077s-4.75-2.799-4.75-3.295-.414-.646-.919-.334c-.506.313-1.519-.001-2.25-.697-.732-.695-3.468-2.345-6.081-3.666s-4.75-2.807-4.75-3.303-.414-.646-.919-.334c-.506.313-1.529.002-2.274-.691-.745-.692-2.015-1.408-2.821-1.589-.807-.182-1.696-.632-1.977-1.002-.28-.369-1.747-1.309-3.259-2.089-1.512-.779-2.75-1.817-2.75-2.307s-.414-.634-.919-.322c-.506.313-1.519-.026-2.25-.752-.732-.727-2.761-1.951-4.509-2.722s-2.913-1.867-2.59-2.438c.324-.571.232-.716-.203-.323s-1.633.265-2.66-.285-1.947-.647-2.041-.215m592.672 2.148c-2.75 1.45-5.599 3.204-6.331 3.896-.731.693-1.744 1.004-2.25.691-.505-.312-.919-.162-.919.334s-2.138 1.982-4.75 3.303-5.349 2.971-6.081 3.666c-.731.696-1.744 1.01-2.25.697-.505-.312-.919-.203-.919.243s-2.138 1.928-4.75 3.294-5.349 3.057-6.081 3.757c-.731.701-1.744 1.019-2.25.706-.505-.312-.919-.162-.919.334s-2.138 1.979-4.75 3.295c-2.612 1.317-4.979 2.702-5.259 3.077-.281.376-1.17.832-1.977 1.014-.806.181-2.076.897-2.821 1.589-.745.693-1.768 1.004-2.274.691-.505-.312-.919-.168-.919.322s-1.237 1.509-2.75 2.266-3.538 2.027-4.5 2.824-1.75 1.121-1.75.722c0-.4-.711-.016-1.581.854-.869.869-1.994 1.325-2.5 1.012-.505-.312-.919-.162-.919.334s-2.138 1.982-4.75 3.303-5.349 2.971-6.081 3.666c-.731.696-1.744 1.01-2.25.697-.505-.312-.919-.162-.919.334s-2.138 1.982-4.75 3.303-5.349 2.971-6.081 3.666c-.731.696-1.744 1.01-2.25.697-.505-.312-.919-.162-.919.334s-2.138 1.979-4.75 3.295c-2.612 1.317-4.979 2.702-5.259 3.077-.281.376-1.17.832-1.977 1.014-.806.181-2.076.897-2.821 1.589-.745.693-1.768 1.004-2.274.691-.505-.312-.919-.143-.919.377s-1.556 1.683-3.458 2.586c-1.901.902-3.732 2.086-4.069 2.63s-1.03.731-1.542.414c-.512-.316-.931-.166-.931.334 0 .501-3.038 2.435-6.75 4.298-3.712 1.864-7.349 3.96-8.081 4.659s-1.744 1.015-2.25.702c-.505-.312-.919-.091-.919.491s-.927 1.059-2.059 1.059-1.84.355-1.572.788-.943 1.418-2.691 2.188-3.777 1.995-4.509 2.722c-.731.726-1.744 1.065-2.25.752-.505-.312-.919-.159-.919.341 0 .501-3.038 2.435-6.75 4.298-3.712 1.864-7.333 3.945-8.047 4.625-.713.68-2.963 2.012-5 2.959s-3.932 2.048-4.212 2.445c-.281.397-1.17.87-1.977 1.052-.806.181-2.076.897-2.821 1.589-.745.693-1.768 1.004-2.274.691-.505-.312-.919-.162-.919.334s-2.138 1.982-4.75 3.303-5.349 2.971-6.081 3.666c-.731.696-1.744 1.01-2.25.697-.505-.312-.919-.162-.919.334s-2.138 1.982-4.75 3.303-5.349 2.971-6.081 3.666c-.731.696-1.744 1.01-2.25.697-.505-.312-.919-.162-.919.334s-2.138 1.982-4.75 3.303-5.349 2.971-6.081 3.666c-.731.696-1.744 1.01-2.25.697-.505-.312-.919-.162-.919.334s-2.138 1.985-4.75 3.309-4.9 2.744-5.083 3.157c-.184.413-1.003.75-1.822.75-.818 0-2.167.679-2.997 1.509s-1.923 1.254-2.429.941c-.505-.312-.919-.162-.919.334s-2.138 1.982-4.75 3.303-5.349 2.971-6.081 3.666c-.731.696-1.744 1.01-2.25.697-.505-.312-.919-.159-.919.341 0 .501-3.038 2.435-6.75 4.298-3.712 1.864-7.349 3.96-8.081 4.659s-1.706 1.038-2.164.755-.985-.11-1.17.385c-.184.496-1.91 1.775-3.835 2.842l-3.5 1.942-.258 99.914c-.245 94.905-.1 104.35 1.562 101.782.383-.592 3.621-2.604 7.196-4.472s7.099-3.963 7.831-4.655c.731-.693 1.744-1.004 2.25-.691.505.312.919.162.919-.334s2.138-1.982 4.75-3.303 5.349-2.971 6.081-3.666c.731-.696 1.744-1.01 2.25-.697.505.312.919.162.919-.334s2.138-1.982 4.75-3.303 5.349-2.971 6.081-3.666c.731-.696 1.744-1.01 2.25-.697.505.312.919.162.919-.334s2.138-1.982 4.75-3.303 5.349-2.971 6.081-3.666c.731-.696 1.744-1.01 2.25-.697.505.312.919.162.919-.334s2.138-1.982 4.75-3.303 5.349-2.971 6.081-3.666c.731-.696 1.744-1.01 2.25-.697.505.312.919.162.919-.334s2.138-1.982 4.75-3.303 5.349-2.971 6.081-3.666c.731-.696 1.706-1.033 2.164-.75.459.284.985.11 1.17-.385.184-.496 1.91-1.772 3.835-2.837 3.238-1.791 3.523-2.335 3.808-7.284.286-4.943.077-5.53-2.75-7.742L608 674.855l.073-66.677c.067-60.748.224-66.934 1.765-69.558.931-1.584 2.135-2.909 2.677-2.944s1.857-.877 2.924-1.87S617.774 532 618.26 532s1.562-.679 2.392-1.509 1.923-1.254 2.429-.941c.505.312.919.162.919-.334s2.138-1.979 4.75-3.295c2.612-1.317 4.979-2.702 5.259-3.077.281-.376 1.17-.832 1.977-1.014.806-.181 2.076-.897 2.821-1.589.745-.693 1.768-1.004 2.274-.691.505.312.919.162.919-.334s2.138-1.982 4.75-3.303 5.349-2.971 6.081-3.666c.731-.696 1.744-1.01 2.25-.697.505.312.919.162.919-.334s2.138-1.979 4.75-3.295c2.612-1.317 4.979-2.702 5.259-3.077.281-.376 1.17-.832 1.977-1.014.806-.181 2.076-.897 2.821-1.589.745-.693 1.768-1.004 2.274-.691.505.312.919.168.919-.322s1.237-1.529 2.75-2.309 3.349-1.986 4.081-2.678c.731-.693 1.744-1.004 2.25-.691.505.312.919.091.919-.491s.927-1.059 2.059-1.059 1.84-.355 1.572-.788.943-1.418 2.691-2.188 3.777-1.995 4.509-2.722c.731-.726 1.744-1.065 2.25-.752.505.312.919.162.919-.334s2.138-1.982 4.75-3.303 5.349-2.971 6.081-3.666c.731-.696 1.744-1.01 2.25-.697.505.312.919.175.919-.305 0-1.302 7.848-5.245 10.44-5.245 5.814 0 5.613-2.563 5.609 71.534-.001 37.301-.351 68.077-.776 68.393-2.443 1.811-3.768 10.911-1.867 12.813.574.573 7.739-2.818 9.425-4.461.731-.714 1.744-1.042 2.25-.729.505.312.919.162.919-.334s2.138-1.982 4.75-3.303 5.349-2.971 6.081-3.666c.731-.696 1.744-1.01 2.25-.697.505.312.919.168.919-.322s1.237-1.509 2.75-2.266 3.538-2.027 4.5-2.824 1.75-1.121 1.75-.722c0 .4.711.016 1.581-.854.869-.869 1.994-1.325 2.5-1.012.505.312.919.162.919-.334s2.138-1.982 4.75-3.303 5.349-2.971 6.081-3.666c.731-.696 1.744-1.01 2.25-.697.505.312.919.162.919-.334s2.138-1.982 4.75-3.303 5.349-2.971 6.081-3.666c.731-.696 1.744-1.01 2.25-.697.505.312.919.162.919-.334s2.138-1.979 4.75-3.295c2.612-1.317 4.979-2.702 5.259-3.077.281-.376 1.149-.832 1.93-1.014.782-.181 2.467-1.2 3.745-2.264l2.324-1.934-.062-99.793c-.034-54.886-.374-99.977-.754-100.203-.381-.225-2.942.777-5.692 2.227m-439.691 42.774c1.388 2.584 10.796 11.363 12.178 11.363.622 0 .81.52.418 1.155-.423.684-.277.884.36.49.591-.365 1.69-.097 2.443.596 2.134 1.962 5.613 3.759 7.278 3.759.833 0 1.514.477 1.514 1.059s.337.86.75.617c.413-.242 1.875.024 3.25.593 1.375.568 3.617 1.22 4.981 1.448 1.365.227 2.715.722 3 1.098s2.094.821 4.019.987l3.5.302-3-1.815c-1.65-.998-4.238-2.448-5.75-3.221s-2.75-1.806-2.75-2.296-.414-.634-.919-.322c-.506.313-1.529.002-2.274-.691-.745-.692-2.015-1.408-2.821-1.589-.807-.182-1.696-.668-1.977-1.08-.28-.413-2.854-1.799-5.719-3.08s-4.933-2.778-4.596-3.325c.338-.547.132-.695-.459-.33s-1.785-.048-2.654-.917c-.87-.87-1.581-1.254-1.581-.854 0 .399-.788.089-1.75-.69s-3.256-2.25-5.096-3.268c-3.261-1.805-3.32-1.805-2.345.011M245.25 463.731c-.81.282-1.25 2.518-1.25 6.352 0 3.254-.409 5.917-.909 5.917-2.027 0-4.091 86.136-2.177 90.839.596 1.464 1.147 4.911 1.224 7.661.078 2.75.482 5.675.899 6.5.623 1.235 1.735 9.113 1.918 13.597.063 1.531 3.243 4.836 5.036 5.233.819.182 1.719.638 2 1.014.28.375 2.646 1.76 5.259 3.077s4.75 2.799 4.75 3.295.414.646.919.334c.506-.313 1.529-.002 2.274.691.745.692 2.015 1.408 2.821 1.589.807.182 1.696.638 1.977 1.014.28.375 2.646 1.76 5.259 3.077s4.75 2.799 4.75 3.295.419.643.931.327c.512-.317 1.196-.147 1.519.377.324.523 3.055 2.159 6.069 3.633 3.015 1.475 5.481 3.105 5.481 3.623s.419.683.931.367 1.196-.147 1.519.377c.324.523 3.055 2.159 6.069 3.633 3.015 1.475 5.481 3.105 5.481 3.623s.414.686.919.374 1.519.001 2.25.697c.732.695 3.468 2.345 6.081 3.666s4.75 2.807 4.75 3.303.414.646.919.334c.506-.313 1.519-.002 2.25.691.732.692 2.569 1.898 4.081 2.678s2.75 1.819 2.75 2.309.414.634.919.322c.506-.313 1.529-.002 2.274.691.745.692 2.015 1.408 2.821 1.589.807.182 1.696.641 1.977 1.02.28.38 3.547 2.211 7.259 4.07 3.712 1.858 6.75 3.788 6.75 4.289s.414.653.919.341c.506-.313 1.519-.002 2.25.691.732.692 2.569 1.898 4.081 2.678s2.75 1.819 2.75 2.309.414.634.919.322c.506-.313 1.529-.002 2.274.691.745.692 2.015 1.408 2.821 1.589.807.182 1.696.638 1.977 1.014.28.375 2.646 1.76 5.259 3.077s4.75 2.799 4.75 3.295.414.646.919.334c.506-.313 1.519.001 2.25.697.732.695 3.468 2.345 6.081 3.666s4.75 2.807 4.75 3.303.414.646.919.334c.506-.313 1.631.143 2.5 1.012.87.87 1.581 1.254 1.581.854 0-.399.788-.074 1.75.722.962.797 2.988 2.067 4.5 2.824s2.75 1.776 2.75 2.266.414.634.919.322c.506-.313 1.519.003 2.25.702s4.369 2.795 8.081 4.659 6.75 3.797 6.75 4.298.414.653.919.341c.506-.313 1.519-.002 2.25.691.732.692 2.569 1.898 4.081 2.678s2.75 1.819 2.75 2.309.414.634.919.322c.506-.313 1.519.003 2.25.702s4.369 2.795 8.081 4.659 6.75 3.797 6.75 4.298.414.653.919.341c.506-.313 1.527-.002 2.269.691 1.556 1.453 7.306 4.759 8.276 4.759.71 0 .072-5.324-.808-6.748-.599-.969-1.294-6.434-2.893-22.752-1.964-20.048-1.168-67.607 1.214-72.5.402-.825.784-4.165.849-7.423.066-3.257.581-6.384 1.147-6.95.565-.565 1.027-3.322 1.027-6.127s.485-5.585 1.078-6.178c2.169-2.169.594-6.57-3.078-8.599-1.925-1.064-3.651-2.339-3.835-2.835-.185-.495-.711-.669-1.17-.385-.458.283-1.433-.054-2.164-.75-.732-.695-3.468-2.345-6.081-3.666s-4.75-2.807-4.75-3.303-.414-.646-.919-.334c-.506.313-1.519-.005-2.25-.705-.732-.701-5.268-3.245-10.081-5.654-4.812-2.41-8.75-4.792-8.75-5.295s-.414-.658-.919-.346-1.599-.111-2.429-.941-2.216-1.509-3.081-1.509-1.571-.45-1.571-1-.59-1-1.311-1c-.722 0-2.202-.788-3.289-1.75s-2.636-1.896-3.439-2.075c-.804-.179-1.612-.744-1.796-1.256-.185-.512-.711-.7-1.17-.416-.458.283-1.433-.056-2.164-.755s-4.369-2.795-8.081-4.659-6.75-3.797-6.75-4.298-.414-.653-.919-.341c-.506.313-1.519-.001-2.25-.697-.732-.695-3.468-2.345-6.081-3.666s-4.75-2.807-4.75-3.303-.414-.646-.919-.334c-.506.313-1.529.002-2.274-.691-.745-.692-2.015-1.408-2.821-1.589-.807-.182-1.696-.638-1.977-1.014-.28-.375-2.646-1.76-5.259-3.077s-4.75-2.799-4.75-3.295-.414-.646-.919-.334c-.506.313-1.529.002-2.274-.691-.745-.692-2.015-1.408-2.821-1.589-.807-.182-1.696-.641-1.977-1.02-.28-.38-3.547-2.211-7.259-4.07-3.712-1.858-6.75-3.788-6.75-4.289s-.414-.653-.919-.341c-.506.313-1.519-.005-2.25-.706-.732-.7-3.468-2.391-6.081-3.757s-4.75-2.848-4.75-3.294-.414-.555-.919-.243-1.519-.003-2.25-.702-4.369-2.795-8.081-4.659-6.75-3.797-6.75-4.298-.414-.653-.919-.341c-.506.313-1.529.002-2.274-.691-.745-.692-2.015-1.408-2.821-1.589-.807-.182-1.696-.638-1.977-1.014-.28-.375-2.646-1.76-5.259-3.077s-4.75-2.799-4.75-3.295-.414-.646-.919-.334c-.506.313-1.599-.111-2.429-.941S280.473 482 279.655 482s-1.638-.337-1.822-.75c-.183-.413-2.47-1.833-5.083-3.157s-4.75-2.813-4.75-3.309-.414-.646-.919-.334c-.506.313-1.519-.001-2.25-.697-.732-.695-3.468-2.345-6.081-3.666s-4.75-2.807-4.75-3.303-.414-.646-.919-.334c-.506.313-1.519-.023-2.25-.747-1.733-1.712-4.015-2.519-5.581-1.972m264.25 17.083c-2.75.868-5.753 2.42-6.674 3.448s-1.997 1.727-2.391 1.554-1.216.584-1.826 1.684-1.516 2.294-2.013 2.654-.938 3.156-.981 6.214c-.069 5.015.255 5.903 3.312 9.057 1.865 1.923 3.73 3.287 4.146 3.03s.907-.048 1.092.464c.184.512 1.01 1.077 1.835 1.256s1.764.683 2.087 1.121c1.835 2.486 24.895 2.201 25.748-.319.185-.544.711-.758 1.17-.474.458.283 1.545-.196 2.414-1.065.87-.87 1.581-1.24 1.581-.822 0 .417 1.334-.52 2.964-2.082 1.631-1.562 2.753-3.183 2.494-3.602-.259-.418.067-.94.723-1.159 1.562-.521 1.134-10.952-.491-11.986-.654-.416-.774-.763-.266-.772.509-.008-.132-1.14-1.424-2.515s-2.908-2.5-3.591-2.5-1.401-.475-1.594-1.054-1.018-1.156-1.833-1.279-2.125-.624-2.91-1.114c-2.576-1.608-18.204-1.435-23.572.261m207 3.61c-2.2 1.142-4.599 2.643-5.331 3.335-.731.693-1.744 1.004-2.25.691-.505-.312-.919-.162-.919.334s-2.138 1.982-4.75 3.303-5.349 2.971-6.081 3.666c-.731.696-1.744 1.01-2.25.697-.505-.312-.919-.162-.919.334s-2.138 1.982-4.75 3.303-5.349 2.971-6.081 3.666c-.731.696-1.744 1.01-2.25.697-.505-.312-.919-.162-.919.334s-2.138 1.982-4.75 3.303-5.349 2.971-6.081 3.666c-.731.696-1.744 1.01-2.25.697-.505-.312-.919-.159-.919.341 0 .501-3.038 2.435-6.75 4.298-3.712 1.864-7.349 3.96-8.081 4.659s-1.744 1.015-2.25.702c-.505-.312-.919-.143-.919.377s-1.556 1.683-3.458 2.586c-1.901.902-3.732 2.086-4.069 2.63s-1.03.731-1.542.414c-.512-.316-.931-.169-.931.327s-2.138 1.985-4.75 3.309-4.9 2.744-5.083 3.157c-.184.413-1.159.75-2.167.75s-1.983.416-2.167.925-1.008 1.071-1.833 1.25-2.719 1.539-4.209 3.023l-2.709 2.698.051 61.893c.029 34.04.389 62.437.801 63.104.754 1.22 3.128 1.183 4.075-.063.281-.368 1.17-.818 1.977-1 .806-.181 2.076-.897 2.821-1.589.745-.693 1.768-1.004 2.274-.691.505.312.919.162.919-.334s2.138-1.982 4.75-3.303 5.349-2.971 6.081-3.666c.731-.696 1.744-1.01 2.25-.697.505.312.919.162.919-.334s2.138-1.982 4.75-3.303 5.349-2.971 6.081-3.666c.731-.696 1.744-1.01 2.25-.697.505.312.919.091.919-.491s.927-1.059 2.059-1.059 1.84-.355 1.572-.788.943-1.418 2.691-2.188 3.777-1.995 4.509-2.722c.731-.726 1.744-1.065 2.25-.752.505.312.919.162.919-.334s2.138-1.982 4.75-3.303 5.349-2.971 6.081-3.666c.731-.696 1.744-1.01 2.25-.697.505.312.919.091.919-.491s.9-1.059 2-1.059 2-.379 2-.843 2.138-1.923 4.75-3.244 5.349-2.971 6.081-3.666c.731-.696 1.744-1.01 2.25-.697.505.312.919.168.919-.322s1.237-1.528 2.75-2.307c1.513-.78 2.979-1.72 3.259-2.089.281-.37 1.17-.82 1.977-1.002.806-.181 2.076-.897 2.821-1.589.745-.693 1.837-.961 2.428-.596.637.394.783.194.36-.49-.392-.635-.216-1.155.391-1.155.608 0 2.196-1.091 3.53-2.425l2.425-2.425.023-62.325c.012-34.279-.312-62.809-.721-63.401-.504-.731-2.028-.41-4.743 1m-204.762 3.205c-1.506.789-2.738 1.185-2.738.879s-1.575.877-3.5 2.628c-3.928 3.575-4.129 4.428-2.006 8.5.821 1.575 1.496 2.457 1.5 1.959.003-.498.794-.273 1.756.5s2.65 1.901 3.75 2.507c2.678 1.475 19.5 1.872 19.5.46 0-.584.845-1.062 1.878-1.062s2.433-.67 3.113-1.489 1.583-1.274 2.009-1.011c.763.472 2.075-2.591 2.356-5.5.151-1.57-5.436-8.042-6.428-7.446-.314.189-1.719-.252-3.121-.979-3.431-1.78-14.632-1.746-18.069.054M260 503.059c0 .582-.432.792-.959.466-1.12-.692-6.982 5.136-7.166 7.123-.159 1.716-.366 2.439-1.319 4.604-.425.964-.406 2.989.041 4.5.446 1.512.878 3.768.959 5.014.181 2.803 4.429 11.234 5.66 11.234.496 0 .67.375.386.834-.643 1.041 6.966 8.309 10.572 10.096 2.342 1.162 5.588 1.512 10.826 1.166 2.089-.137 6.686-4.262 8.372-7.512 1.631-3.144 1.256-17.578-.485-18.654-.582-.359-1.019-.941-.972-1.292.301-2.25-.149-3.512-1.936-5.43-1.111-1.193-2.124-2.515-2.25-2.939s-.679-.619-1.229-.436c-.55.184-.658-.008-.241-.425.945-.945-3.127-5.408-4.933-5.408-.729 0-1.326-.45-1.326-1s-.9-1-2-1-2-.45-2-1-2.25-1-5-1c-2.852 0-5 .455-5 1.059m-.509 9.191c-1.032 3.126-1.236 11.75-.278 11.75.433 0 .787.681.787 1.514 0 6.525 11.727 16.416 17.634 14.872 3.417-.894 5.933-11.3 3.147-13.021-.429-.266-.781-1.363-.781-2.438 0-2.762-1.867-5.773-6.618-10.677-5.023-5.183-12.486-6.258-13.891-2m56.336 21.449c-3.465.543-7.827 4.934-7.827 7.878 0 1.268-.45 2.583-1 2.923s-1 2.365-1 4.5.45 4.16 1 4.5 1 1.941 1 3.559.477 2.941 1.059 2.941.803.414.491.919.089 1.577.893 2.381 1.276 1.648 1.049 1.875c-.796.796 7.135 8.65 10.833 10.727 5.924 3.327 13.519 2.919 17.56-.943 1.751-1.672 2.916-3.472 2.59-4-.326-.527-.116-.959.466-.959 1.319 0 1.441-14.302.143-16.764-.504-.955-1.636-3.394-2.516-5.421-1.725-3.972-8.474-11.556-10.703-12.027-.751-.158-1.59-.563-1.865-.899-.716-.875-9.012-1.686-12.173-1.19m.268 8.7c-3.69 3.928-2.227 15.757 2.426 19.618.813.675 1.479 1.655 1.479 2.177 0 2.948 9.62 7.766 13.154 6.588 2.476-.825 2.867-1.596 4.412-8.713.17-.788-.066-2.138-.526-3-.459-.863-.994-2.694-1.188-4.069s-.653-2.729-1.022-3.009c-.368-.281-.818-1.156-1-1.945-.4-1.74-5.631-7.071-8.63-8.796-3.327-1.914-6.618-1.498-9.105 1.149M370 562.763c0 .419-.976 1.207-2.168 1.75s-2.655 1.887-3.25 2.987-1.477 2.287-1.961 2.639c-1.195.868-.829 15.276.399 15.694.539.184.98 1.182.98 2.22 0 4.435 12.739 19.844 15.166 18.345.459-.284.834-.039.834.543 0 .628 2.444 1.059 6 1.059 3.3 0 6-.343 6-.763 0-.419 1.012-1.207 2.25-1.75s2.025-1.244 1.75-1.558.292-1.363 1.259-2.331c.968-.968 1.523-2.142 1.234-2.61s-.068-1.132.491-1.478c1.313-.812 1.327-10.2.016-11.01-.55-.34-1-1.941-1-3.559s-.477-2.941-1.059-2.941-.803-.414-.491-.919-.111-1.599-.941-2.429-1.509-1.957-1.509-2.504c0-1.501-7.933-8.968-11.326-10.661-3.072-1.532-12.674-2.081-12.674-.724m-110.759 7.223c-1.494 2.393-1.694 18.616-.241 19.514.55.34 1 1.326 1 2.192 0 1.892 3.9 5.488 5.129 4.728.479-.296.871-.138.871.352s1.238 1.529 2.75 2.309 3.349 1.986 4.081 2.678c.731.693 1.744 1.004 2.25.691.505-.312.919-.162.919.334s2.137 1.982 4.75 3.303 5.349 2.971 6.081 3.666c.731.696 1.744 1.01 2.25.697.505-.312.919-.162.919.334s2.137 1.979 4.75 3.295c2.613 1.317 4.979 2.702 5.259 3.077.281.376 1.17.832 1.977 1.014.806.181 2.076.897 2.821 1.589.745.693 1.768 1.004 2.274.691.505-.312.919-.162.919.334s2.137 1.979 4.75 3.295c2.613 1.317 4.979 2.702 5.259 3.077.281.376 1.163.832 1.961 1.014.799.181 2.364 1.138 3.479 2.126 1.397 1.238 3.273 1.704 6.039 1.5l4.012-.296.283-11.318.284-11.317-3.135-2.929c-1.725-1.611-3.54-2.679-4.034-2.373s-.898.149-.898-.347-2.137-1.982-4.75-3.303-5.349-2.971-6.081-3.666c-.731-.696-1.744-1.01-2.25-.697-.505.312-.919.168-.919-.322s-1.238-1.528-2.75-2.307c-1.512-.78-2.979-1.72-3.259-2.089-.281-.37-1.17-.82-1.977-1.002-.806-.181-2.076-.897-2.821-1.589-.745-.693-1.768-1.004-2.274-.691-.505.312-.919.168-.919-.322s-1.238-1.509-2.75-2.266-3.538-2.027-4.5-2.824-1.75-1.121-1.75-.722c0 .4-.711.016-1.581-.854-.869-.869-1.994-1.325-2.5-1.012-.505.312-.919.162-.919-.334s-2.137-1.979-4.75-3.295c-2.613-1.317-4.979-2.702-5.259-3.077-.281-.376-1.163-.832-1.961-1.014-.799-.181-2.342-1.118-3.43-2.08-2.716-2.404-7.791-2.276-9.359.236m112.09 1.264c-2.845 3.892-3.594 6.703-2.518 9.45.603 1.54 1.23 3.7 1.392 4.8s.862 2.599 1.554 3.331 1.096 1.631.896 2c-.471.865 7.524 8.551 9.409 9.046 3.043.799 6.897.4 8.431-.873 1.727-1.433 2.047-15.004.353-15.004-.466 0-.848-.845-.848-1.878s-.686-2.446-1.524-3.142-1.316-1.474-1.061-1.729c1.664-1.663-7.413-7.251-11.779-7.251-1.865 0-3.802.563-4.305 1.25M266 583.59c0 3.774.393 6.285.931 5.953.512-.317 1.206-.13 1.542.414s2.168 1.728 4.069 2.63c1.902.903 3.458 2.066 3.458 2.586s.414.689.919.377c.506-.313 1.519.001 2.25.697.732.695 3.468 2.345 6.081 3.666s4.75 2.807 4.75 3.303.414.646.919.334c.506-.313 1.631.143 2.5 1.012.87.87 1.581 1.254 1.581.854 0-.399.788-.074 1.75.722.962.797 2.988 2.067 4.5 2.824s2.75 1.776 2.75 2.266.414.634.919.322c.506-.313 1.529-.002 2.274.691.745.692 2.015 1.408 2.821 1.589.807.182 1.696.638 1.977 1.014.28.375 2.646 1.76 5.259 3.077s4.75 2.675 4.75 3.018c0 .344 1.125.718 2.5.832 2.346.194 2.499-.085 2.485-4.532-.019-5.777-.279-6.158-6.235-9.16-2.613-1.316-4.75-2.799-4.75-3.295s-.414-.646-.919-.334c-.506.313-1.519-.001-2.25-.697-.732-.695-3.468-2.345-6.081-3.666s-4.75-2.807-4.75-3.303-.414-.646-.919-.334c-.506.313-1.529.002-2.274-.691-.745-.692-2.015-1.408-2.821-1.589-.807-.182-1.696-.632-1.977-1.002-.28-.369-1.747-1.309-3.259-2.089-1.512-.779-2.75-1.817-2.75-2.307s-.414-.634-.919-.322c-.506.313-1.631-.143-2.5-1.012-.87-.87-1.581-1.254-1.581-.854 0 .399-.788.074-1.75-.722-.962-.797-2.988-2.067-4.5-2.824s-2.75-1.776-2.75-2.266-.414-.634-.919-.322c-.506.313-1.519-.023-2.25-.747-3.814-3.769-4.831-2.95-4.831 3.887m-53.606 29.73c.214 29.766-.002 29.08 10.859 34.587 2.611 1.324 4.747 2.813 4.747 3.309s.414.646.919.334c.506-.313 1.599.111 2.429.941S233.254 654 233.74 654s1.755.813 2.821 1.806 2.281 1.886 2.7 1.984c.418.098 1.928.943 3.356 1.879 2.216 1.452 2.715 1.491 3.402.266.443-.789 1.746-2.518 2.896-3.841l2.09-2.406 4.498 2.313c2.473 1.273 4.497 2.693 4.497 3.156s.59.843 1.311.843c.722 0 2.399 1.013 3.727 2.25s2.426 2.033 2.439 1.768 1.1.273 2.416 1.194c1.928 1.351 2.393 2.561 2.393 6.232 0 3.263.402 4.556 1.416 4.556.816 0 1.114.489.703 1.155-.423.684-.277.884.36.49.591-.365 1.785.048 2.654.917.87.87 1.581 1.254 1.581.854 0-.399.788-.074 1.75.722.962.797 2.988 2.067 4.5 2.824s2.75 1.776 2.75 2.266.414.634.919.322c.506-.313 1.519-.002 2.25.691.732.692 2.569 1.898 4.081 2.678s2.75 1.819 2.75 2.309.414.634.919.322c.506-.313 1.529-.002 2.274.691.745.692 2.015 1.408 2.821 1.589.807.182 1.696.632 1.977 1.002.28.369 1.747 1.309 3.259 2.089 1.512.779 2.75 1.817 2.75 2.307s.414.634.919.322c.506-.313 1.529-.002 2.274.691.745.692 2.015 1.408 2.821 1.589.807.182 1.696.632 1.977 1.002.28.369 1.747 1.309 3.259 2.089 1.512.779 2.75 1.817 2.75 2.307s.414.634.919.322c.506-.313 1.519-.002 2.25.691.732.692 2.569 1.898 4.081 2.678s2.75 1.819 2.75 2.309.414.634.919.322c.506-.313 1.529-.002 2.274.691.745.692 2.015 1.408 2.821 1.589.807.182 1.696.638 1.977 1.014.28.375 2.646 1.76 5.259 3.077s4.75 2.799 4.75 3.295.414.646.919.334c.506-.313 1.519.001 2.25.697.732.695 3.468 2.345 6.081 3.666s4.75 2.856 4.75 3.411.262.748.581.428c.528-.527 6.067 2.659 9.169 5.273.688.58 1.25.741 1.25.359 0-.381.788-.042 1.75.754.962.797 2.988 2.067 4.5 2.824s2.75 1.776 2.75 2.266.414.634.919.322c.506-.313 1.631.143 2.5 1.012.87.87 1.581 1.254 1.581.854 0-.399.788-.074 1.75.722.962.797 2.988 2.067 4.5 2.824s2.75 1.776 2.75 2.266.414.634.919.322c.506-.313 1.519.001 2.25.697.732.695 3.468 2.345 6.081 3.666s4.75 2.807 4.75 3.303.414.646.919.334c.506-.313 1.519.001 2.25.697.732.695 3.468 2.345 6.081 3.666s4.75 2.807 4.75 3.303.414.646.919.334c.506-.313 1.519.015 2.25.729 1.318 1.285 8.056 4.721 9.257 4.721.343 0 1.051-1.125 1.574-2.5.963-2.532 6-3.741 6-1.441 0 .582.414.803.919.491s1.529-.002 2.274.691c.745.692 2.015 1.408 2.821 1.589.807.182 1.696.632 1.977 1.002.28.369 1.747 1.309 3.259 2.089 1.512.779 2.75 1.817 2.75 2.307s.399.643.887.342c1.617-.999 3.316 2.32 3.614 7.06.186 2.945.869 4.998 1.847 5.545.854.478 2.149 1.422 2.876 2.097.728.675 1.984 1.377 2.79 1.558.807.182 1.696.638 1.977 1.014.28.375 2.646 1.76 5.259 3.077s4.75 2.799 4.75 3.295.414.646.919.334c.506-.313 1.519.001 2.25.697.732.695 3.468 2.345 6.081 3.666s4.75 2.706 4.75 3.078.563.697 1.25.723 2.038.375 3 .774c1.643.682 1.75-1.026 1.75-27.881 0-22.934-.26-28.607-1.311-28.607-.722 0-2.202-.788-3.289-1.75s-2.636-1.896-3.439-2.075c-.804-.179-1.612-.744-1.796-1.256-.185-.512-.711-.7-1.17-.416-.458.283-1.433-.054-2.164-.75-.732-.695-3.468-2.345-6.081-3.666s-4.75-2.807-4.75-3.303-.419-.643-.931-.327a1.107 1.107 0 0 1-1.517-.374c-.323-.522-3.054-2.198-6.07-3.725-3.015-1.527-5.482-3.158-5.482-3.626s-.414-.594-.919-.282c-.506.313-1.519-.003-2.25-.702s-4.369-2.795-8.081-4.659-6.75-3.797-6.75-4.298-.414-.653-.919-.341c-.506.313-1.519.002-2.25-.691-.732-.692-2.569-1.898-4.081-2.678s-2.75-1.819-2.75-2.309-.414-.634-.919-.322c-.506.313-1.529.002-2.274-.691-.745-.692-2.015-1.408-2.821-1.589-.807-.182-1.696-.638-1.977-1.014-.28-.375-2.646-1.76-5.259-3.077s-4.75-2.799-4.75-3.295-.414-.646-.919-.334c-.506.313-1.519-.001-2.25-.697-.732-.695-3.468-2.345-6.081-3.666s-4.75-2.807-4.75-3.303-.414-.646-.919-.334c-.506.313-1.519-.001-2.25-.697-.732-.695-3.468-2.345-6.081-3.666s-4.75-2.807-4.75-3.303-.414-.646-.919-.334c-.506.313-1.529.002-2.274-.691-.745-.692-2.015-1.408-2.821-1.589-.807-.182-1.696-.638-1.977-1.014-.28-.375-2.646-1.76-5.259-3.077s-4.75-2.799-4.75-3.295-.414-.646-.919-.334c-.506.313-1.519-.001-2.25-.697-.732-.695-3.468-2.345-6.081-3.666s-4.75-2.807-4.75-3.303-.414-.646-.919-.334c-.506.313-1.519-.003-2.25-.702s-4.369-2.795-8.081-4.659-6.75-3.797-6.75-4.298-.414-.653-.919-.341c-.506.313-1.519-.015-2.25-.729-.732-.713-2.998-2.078-5.034-3.034-2.037-.955-4.287-2.293-5-2.973s-4.335-2.761-8.047-4.625-6.75-3.797-6.75-4.298-.414-.653-.919-.341c-.506.313-1.519-.001-2.25-.697-.732-.695-3.468-2.345-6.081-3.666s-4.75-2.807-4.75-3.303-.414-.646-.919-.334c-.506.313-1.519.002-2.25-.691-.732-.692-2.569-1.898-4.081-2.678s-2.75-1.819-2.75-2.309-.414-.634-.919-.322c-.506.313-1.529.002-2.274-.691-.745-.692-2.015-1.408-2.821-1.589-.807-.182-1.696-.638-1.977-1.014-.28-.375-2.646-1.76-5.259-3.077s-4.75-2.799-4.75-3.295-.414-.646-.919-.334c-.506.313-1.529.002-2.274-.691-.745-.692-2.015-1.408-2.821-1.589-.807-.182-1.696-.655-1.977-1.052-.28-.397-2.176-1.497-4.212-2.445-2.037-.947-4.287-2.276-5-2.954-.714-.677-3.434-2.311-6.047-3.632s-4.75-2.807-4.75-3.303-.414-.646-.919-.334c-.506.313-1.519-.003-2.25-.702s-4.368-2.795-8.081-4.659-6.75-3.797-6.75-4.298-.414-.653-.919-.341c-.506.313-1.519-.001-2.25-.697-.732-.695-3.468-2.345-6.081-3.666s-4.75-2.685-4.75-3.031-.852-.695-1.893-.773c-1.816-.137-1.886.888-1.713 25.037M808 589.056c0 .346-2.138 1.707-4.75 3.023s-4.979 2.702-5.259 3.077c-.281.376-1.17.832-1.977 1.014-.806.181-2.076.897-2.821 1.589-.745.693-1.768 1.004-2.274.691-.505-.312-.919-.168-.919.322s-1.237 1.529-2.75 2.309-3.349 1.986-4.081 2.678c-.731.693-1.744 1.004-2.25.691-.505-.312-.919-.162-.919.334s-2.138 1.982-4.75 3.303-5.349 2.971-6.081 3.666c-.731.696-1.744 1.01-2.25.697-.505-.312-.919-.162-.919.334s-2.138 1.979-4.75 3.295c-2.612 1.317-4.979 2.702-5.259 3.077-.281.376-1.17.832-1.977 1.014-.806.181-2.076.897-2.821 1.589-.745.693-1.768 1.004-2.274.691-.505-.312-.919-.162-.919.334s-2.138 1.982-4.75 3.303-5.349 2.971-6.081 3.666c-.731.696-1.744 1.01-2.25.697-.505-.312-.919-.162-.919.334s-2.138 1.972-4.75 3.28-8.262 5.766-12.555 9.907-8.291 7.699-8.884 7.907-2.928 2.12-5.189 4.25-4.676 3.872-5.367 3.872-1.255.374-1.255.831-1.237 1.47-2.75 2.25-3.349 1.986-4.081 2.678c-.731.693-1.744 1.004-2.25.691-.505-.312-.919-.162-.919.334s-2.138 1.985-4.75 3.309-4.9 2.744-5.083 3.157c-.184.413-.884.75-1.558.75-.673 0-4.312 1.554-8.087 3.453-3.775 1.9-7.237 3.223-7.693 2.941-.456-.281-.829-.035-.829.547s-.81 1.059-1.8 1.059-2.228.412-2.75.916-1.85 1.067-2.95 1.25-2.225.625-2.5.981-1.625.806-3 1-2.733.661-3.019 1.038c-.285.376-1.635.87-3 1.096s-3.156.642-3.981.924-3.3 1.056-5.5 1.72c-4.982 1.503-8.601 3.197-10.331 4.834-.731.693-1.744 1.004-2.25.691-.505-.312-.919-.168-.919.322s-1.237 1.529-2.75 2.309-3.349 1.986-4.081 2.678c-.731.693-1.744 1.004-2.25.691-.505-.312-.919-.162-.919.334s-2.138 1.982-4.75 3.303-5.349 2.971-6.081 3.666c-.731.696-1.744 1.01-2.25.697-.505-.312-.919-.162-.919.334s-2.138 1.982-4.75 3.303-5.349 2.971-6.081 3.666c-.731.696-1.744 1.01-2.25.697-.505-.312-.919-.168-.919.322s-1.237 1.529-2.75 2.309-3.349 1.986-4.081 2.678c-.731.693-1.744 1.004-2.25.691-.505-.312-.919-.144-.919.374s-2.466 2.148-5.481 3.623c-3.014 1.474-5.745 3.11-6.069 3.633s-1.007.694-1.519.377-.931-.169-.931.327-2.138 1.982-4.75 3.303-5.349 2.971-6.081 3.666c-.731.696-1.706 1.033-2.164.75-.459-.284-.985-.096-1.17.416s-.999 1.077-1.811 1.256-2.086.892-2.831 1.584-1.768 1.004-2.274.691c-.505-.312-.919-.168-.919.322s-1.237 1.529-2.75 2.309-3.349 1.986-4.081 2.678c-.731.693-1.744 1.004-2.25.691-.505-.312-.919-.188-.919.275 0 .464-1.35 1.641-3 2.616l-3 1.772v27.944c0 15.368.228 27.943.507 27.943.963 0 10.996-5.503 12.324-6.759.731-.693 1.744-1.004 2.25-.691.505.312.919.168.919-.322s1.237-1.529 2.75-2.309 3.349-1.986 4.081-2.678c.731-.693 1.744-1.004 2.25-.691.505.312.919.162.919-.334s2.138-1.979 4.75-3.295c2.612-1.317 4.979-2.702 5.259-3.077.281-.376 1.17-.832 1.977-1.014.806-.181 2.062-.883 2.79-1.558.727-.675 2.046-1.633 2.93-2.128 1.381-.772 1.676-4.124 2.09-23.734.407-19.303.751-23.304 2.227-25.872.96-1.671 2.247-2.925 2.861-2.788.614.138 1.116-.129 1.116-.593s2.138-1.923 4.75-3.244 5.349-2.971 6.081-3.666c.731-.696 1.744-1.01 2.25-.697.505.312.919.168.919-.322s1.237-1.529 2.75-2.309 3.349-1.986 4.081-2.678c.731-.693 1.744-1.004 2.25-.691.505.312.919.162.919-.334s2.138-1.979 4.75-3.295c2.612-1.317 4.979-2.702 5.259-3.077.281-.376 1.17-.832 1.977-1.014.806-.181 1.987-.808 2.624-1.393 1.882-1.727 8.563-.492 9.133 1.687.27 1.032.888 1.876 1.374 1.876.485 0 .883 8.83.883 19.622 0 17.329.175 19.477 1.5 18.378.825-.685 1.5-.933 1.5-.551s.711-.017 1.581-.887c.869-.869 1.994-1.325 2.5-1.012.505.312.919.168.919-.322s1.237-1.529 2.75-2.309 3.349-1.986 4.081-2.678c.731-.693 1.744-1.004 2.25-.691.505.312.919.162.919-.334s2.138-1.982 4.75-3.303 5.349-2.971 6.081-3.666c.731-.696 1.744-1.01 2.25-.697.505.312.919.168.919-.322s1.237-1.529 2.75-2.309 3.349-1.986 4.081-2.678c.731-.693 1.744-1.004 2.25-.691.505.312.919.168.919-.322s1.237-1.508 2.75-2.263c7.325-3.659 7.25-3.417 7.25-23.451 0-16.817.147-18.295 2.021-20.306 1.111-1.193 2.011-2.403 2-2.689-.012-.285.238-.489.555-.453.316.036 1.357-.836 2.313-1.938s2.373-2.144 3.151-2.316 2.022-.879 2.767-1.571c.745-.693 1.768-1.004 2.274-.691.505.312.919.154.919-.352s2.138-1.995 4.75-3.309 4.979-2.69 5.259-3.059c.281-.368 1.17-.818 1.977-1 .806-.181 2.076-.897 2.821-1.589.745-.693 1.768-1.004 2.274-.691.505.312.919.091.919-.491 0-1.436 4.123-1.285 6.087.223 3.318 2.547 3.913 5.537 3.913 19.652 0 7.736.268 14.066.596 14.066.874 0 6.626-3.253 8.654-4.894.962-.779 1.75-1.089 1.75-.69 0 .4.711.016 1.581-.854.869-.869 1.994-1.325 2.5-1.012.505.312.919.143.919-.377s1.556-1.683 3.458-2.586c1.901-.902 3.732-2.086 4.069-2.63s1.03-.731 1.542-.414c.512.316.931.169.931-.327s2.138-1.982 4.75-3.303 5.349-2.971 6.081-3.666c.731-.696 1.744-1.01 2.25-.697.505.312.919.168.919-.322s1.237-1.509 2.75-2.266 3.538-2.027 4.5-2.824 1.75-1.121 1.75-.722c0 .4.711.016 1.581-.854.869-.869 1.994-1.325 2.5-1.012.505.312.919.091.919-.491s.927-1.059 2.059-1.059 1.84-.355 1.572-.788.943-1.418 2.691-2.188 3.777-1.995 4.509-2.722c.731-.726 1.744-1.065 2.25-.752.505.312.919.168.919-.322s1.237-1.509 2.75-2.266 3.538-2.027 4.5-2.824 1.75-1.121 1.75-.722c0 .4.711.016 1.581-.854.869-.869 1.994-1.325 2.5-1.012.505.312.919.091.919-.491s.9-1.059 2-1.059 2-.399 2-.886 1.556-1.624 3.458-2.527c1.901-.902 3.732-2.086 4.069-2.63s1.1-.688 1.697-.319c.618.383.8.209.421-.403-.365-.591-.02-1.718.767-2.504 2.395-2.395 1.761-52.619-.662-52.437-.962.072-1.75.415-1.75.762m-384.146 5.154c-5.062 2.822-6.222 5.561-6.222 14.682 0 15.876 10.79 29.11 23.732 29.107 5.265-.001 10.094-2.706 10.824-6.062.171-.79.706-1.724 1.188-2.074 1.181-.858.827-16.06-.402-17.289-.536-.536-.974-1.784-.974-2.774s-.45-1.8-1-1.8-1-.646-1-1.435C450 604.07 439.128 594 436.435 594c-1.339 0-2.435-.45-2.435-1 0-1.689-6.294-.938-10.146 1.21m2.649 6.794c.261.423-.213 1.34-1.053 2.038-1.598 1.325-1.783 12.958-.207 12.958.416 0 .757.707.757 1.571 0 .865.679 2.251 1.509 3.081s1.211 1.992.846 2.583c-.394.637-.194.783.49.36.635-.392 1.155-.204 1.155.417 0 .622.675 1.806 1.5 2.631s1.5 1.173 1.5.773c0-.399.788-.034 1.75.811 2.416 2.122 5.626 2.968 8.513 2.243 2.831-.71 5.29-8.568 3.644-11.645-.507-.945-1.016-2.868-1.132-4.272s-.563-2.553-.993-2.553-.782-.687-.782-1.526c0-.84-1.937-3.464-4.305-5.831-3.819-3.819-4.833-4.311-8.986-4.357-2.575-.028-4.468.295-4.206.718m45.031 25.718c-1.92 17.478-.64 84.244 1.414 73.778.708-3.605.548-79.337-.168-80.054-.276-.276-.837 2.549-1.246 6.276M707.945 635c-5.132 4.95-9.699 9-10.147 9s-2.229 1.35-3.955 3c-1.727 1.65-3.71 3-4.408 3s-1.418.416-1.602.925c-.183.509-.97 1.071-1.75 1.25-.779.179-2.241 1.113-3.25 2.075S680.325 656 679.5 656s-1.5.45-1.5 1-.9 1-2 1-2 .45-2 1-.584 1-1.298 1c-.713 0-4.364 1.57-8.112 3.49-3.748 1.919-7.214 3.243-7.702 2.941s-.888-.131-.888.38-2.138 1.504-4.75 2.206c-2.612.703-5.178 1.662-5.7 2.13-.522.469-1.895.853-3.05.853s-2.562.462-3.127 1.027c-.564.564-2.453 1.127-4.198 1.25-1.744.122-3.172.56-3.173.973s-.983.75-2.181.75c-4.436 0-8.635 2.252-9.175 4.921-.605 2.988 1.93 5.676 3.85 4.082.639-.53 2.026-1.13 3.082-1.333s2.597-.603 3.422-.887 4.65-1.523 8.5-2.752 8.332-2.832 9.96-3.562c1.627-.731 3.315-1.108 3.75-.84.434.269.79.012.79-.57s.81-1.059 1.8-1.059 2.228-.412 2.75-.916 1.85-1.067 2.95-1.25 2.599-.901 3.331-1.593c.731-.693 1.706-1.027 2.164-.744.459.284.985.096 1.17-.416s1.01-1.077 1.835-1.256 1.729-.626 2.009-.995c.281-.368 1.17-.818 1.977-1 .806-.181 2.076-.897 2.821-1.589.745-.693 1.837-.961 2.428-.596s.794.21.451-.344c-.343-.555.6-1.566 2.095-2.247 1.496-.682 2.719-1.102 2.719-.936s1.125-.675 2.5-1.87 2.936-2.303 3.468-2.461c.533-.158 2.066-1.304 3.407-2.547s2.632-2.066 2.869-1.829 2.506-1.53 5.043-3.926c2.536-2.396 4.983-4.127 5.437-3.847.454.281.702.14.551-.314-.151-.453-.04-.824.248-.824.287 0 2.563-2.025 5.057-4.5 3.578-3.552 4.583-5.29 4.767-8.25.129-2.062.053-3.75-.168-3.75s-4.602 4.05-9.734 9m-338.695-3.504C367.713 633.242 367.484 652 369 652c.55 0 1 .824 1 1.831s1.238 2.47 2.75 3.25 3.349 1.986 4.081 2.678c.731.693 1.744 1.004 2.25.691.505-.312.919-.168.919.322s1.238 1.529 2.75 2.309 3.349 1.986 4.081 2.678c.731.693 1.744 1.004 2.25.691.505-.312.919-.159.919.341 0 .501 3.038 2.435 6.75 4.298 3.712 1.864 7.33 3.941 8.039 4.617s4.179 2.608 7.711 4.294 6.696 3.508 7.03 4.049 1.027.725 1.539.408c.512-.316.931-.169.931.327s2.137 1.979 4.75 3.295c2.613 1.317 4.979 2.702 5.259 3.077.281.376 1.17.832 1.977 1.014.806.181 1.999.82 2.651 1.419 1.943 1.788 5.769.939 7.025-1.557 1.316-2.618.62-21.307-.815-21.867-.473-.185-.605-.747-.294-1.25s-.099-.915-.911-.915c-.811 0-1.625-.416-1.809-.925s-.99-1.071-1.794-1.25c-.803-.179-2.351-1.113-3.439-2.075-1.087-.962-2.512-1.75-3.166-1.75s-1.745-.67-2.425-1.489-1.635-1.242-2.122-.941c-.488.301-.887.142-.887-.354s-2.137-1.979-4.75-3.295c-2.613-1.317-4.979-2.702-5.259-3.077-.281-.376-1.17-.832-1.977-1.014-.806-.181-2.076-.897-2.821-1.589-.745-.693-1.768-1.004-2.274-.691-.505.312-.919.168-.919-.322s-1.238-1.529-2.75-2.309-3.349-1.986-4.081-2.678c-.731-.693-1.744-1.004-2.25-.691-.505.312-.919.162-.919-.334s-2.137-1.982-4.75-3.303-5.349-2.971-6.081-3.666c-.731-.696-1.706-1.033-2.164-.75-.459.284-.985.096-1.17-.416s-.992-1.077-1.796-1.256c-.803-.179-2.351-1.113-3.439-2.075-2.365-2.094-7.605-2.236-9.35-.254m327.94 2.084c-1.205.843-2.19 1.265-2.19.938 0-.328-.985.322-2.189 1.443-1.203 1.121-2.723 2.039-3.377 2.039s-1.745.67-2.425 1.489-1.635 1.242-2.122.941c-.488-.301-.887-.134-.887.372s-2.126 1.995-4.724 3.309-5.335 2.956-6.081 3.648-1.77 1.004-2.276.691c-.505-.312-.919-.162-.919.334s-2.138 1.979-4.75 3.295c-2.612 1.317-4.975 2.642-5.25 2.946s-2.075 1.54-4 2.747q-6.17 3.868 1.378.715c1.992-.833 3.629-1.17 3.637-.75s.35.237.76-.407c.409-.643 1.404-1.318 2.211-1.5s2.076-.897 2.821-1.589c.745-.693 1.73-1.027 2.188-.744.459.284.985.096 1.17-.416s.999-1.077 1.811-1.256 2.086-.892 2.831-1.584 1.768-1.004 2.274-.691c.505.312.919.082.919-.512 0-.595 1.237-1.631 2.75-2.302 1.513-.672 3.622-2.012 4.689-2.979 1.066-.966 2.3-1.757 2.742-1.757s1.968-1.013 3.392-2.25 2.684-2.025 2.803-1.75 1.48-.765 3.026-2.311c3.191-3.191 3.069-4.407-.212-2.109M376 645.437c0 3.809.395 6.437.919 6.113.506-.313 1.529-.002 2.274.691.745.692 2.019 1.405 2.831 1.584s1.626.741 1.809 1.25.998.925 1.809.925c.861 0 1.179.481.763 1.155-.423.684-.277.884.36.49.591-.365 1.683-.097 2.428.596.745.692 2.015 1.408 2.821 1.589.807.182 1.696.641 1.977 1.02.28.38 3.547 2.211 7.259 4.07 3.712 1.858 6.75 3.788 6.75 4.289s.414.653.919.341c.506-.313 1.519-.002 2.25.691.732.692 2.569 1.898 4.081 2.678s2.75 1.819 2.75 2.309.414.634.919.322c.506-.313 1.519.001 2.25.697.732.695 3.468 2.345 6.081 3.666s4.75 2.685 4.75 3.032c0 .346 1.294.728 2.876.849 2.749.209 2.865.048 2.615-3.638-.425-6.263-1.249-7.533-6.5-10.012-2.745-1.296-4.991-2.785-4.991-3.309s-.414-.697-.919-.385c-.506.313-1.519-.001-2.25-.697-.732-.695-3.468-2.345-6.081-3.666s-4.75-2.807-4.75-3.303-.414-.646-.919-.334c-.506.313-1.529.002-2.274-.691-.745-.692-2.015-1.408-2.821-1.589-.807-.182-1.696-.632-1.977-1.002-.28-.369-1.747-1.309-3.259-2.089-1.512-.779-2.75-1.817-2.75-2.307s-.414-.634-.919-.322c-.506.313-1.529.002-2.274-.691-.745-.692-2.015-1.408-2.821-1.589-.807-.182-1.696-.632-1.977-1.002-.28-.369-1.747-1.309-3.259-2.089-1.512-.779-2.75-1.817-2.75-2.307s-.414-.634-.919-.322c-.506.313-1.631-.143-2.5-1.012-.87-.87-1.581-1.269-1.581-.887s-.675.134-1.5-.551c-1.308-1.085-1.5-.389-1.5 5.437m-122 24.134c0 6.132.505 6.897 6.66 10.081l4.16 2.151.346-5.121c.274-4.062-.041-5.437-1.522-6.651a208 208 0 0 1-3.029-2.531c-.64-.55-1.827-1.146-2.639-1.325s-1.626-.741-1.809-1.25c-.989-2.743-2.167-.217-2.167 4.646m449.19 1.989c-.72.816-1.733 1.222-2.25.903-.517-.32-.94-.175-.94.321s-2.138 1.982-4.75 3.303-5.349 2.971-6.081 3.666c-.731.696-1.706 1.033-2.164.75-.459-.284-.985-.096-1.17.416s-1.01 1.077-1.835 1.256-2.933 1.713-4.683 3.408l-3.184 3.084.184 14.665c.19 15.249.699 16.794 4.335 13.159.83-.83 1.923-1.254 2.429-.941.505.312.919.091.919-.491s.927-1.059 2.059-1.059 1.84-.355 1.572-.788.943-1.399 2.691-2.145c1.748-.747 3.966-2.037 4.928-2.868.962-.83 1.757-1.102 1.765-.604s.35.379.76-.265c.409-.643 1.383-1.318 2.164-1.5s2.465-1.199 3.741-2.26c2.248-1.87 2.32-2.425 2.32-17.75 0-15.691-.282-17.123-2.81-14.26m-95.44 46.249c-.962.186-1.75.684-1.75 1.107s-2.138 1.847-4.75 3.163c-2.612 1.317-4.979 2.702-5.259 3.077-.281.376-1.17.832-1.977 1.014-.806.181-2.076.897-2.821 1.589-.745.693-1.768 1.004-2.274.691-.505-.312-.919-.162-.919.334s-2.138 1.979-4.75 3.295c-2.612 1.317-4.979 2.702-5.259 3.077-.281.376-1.149.832-1.93 1.014-2.26.525-5.1 3.105-6.64 6.03-1.472 2.798-2.167 36.72-.781 38.107.663.662 5.542-1.718 8.61-4.201.962-.779 1.75-1.089 1.75-.69 0 .4.711.016 1.581-.854.869-.869 1.994-1.325 2.5-1.012.505.312.919.143.919-.377s1.556-1.683 3.458-2.586c1.901-.902 3.732-2.086 4.069-2.63s1.03-.731 1.542-.414c.512.316.931.169.931-.327s2.138-1.979 4.75-3.295c2.612-1.317 4.979-2.702 5.259-3.077.281-.376 1.17-.832 1.977-1.014 3.848-.866 4.064-2.148 3.785-22.544-.25-18.252-.409-19.788-2.021-19.477M450 783.59c0 3.716.396 6.283.919 5.96.506-.313 1.519.012 2.25.721.732.708 2.906 2.042 4.831 2.963l3.5 1.675.308-5.123c.315-5.24-1.782-8.695-5.835-9.616-.8-.182-1.683-.665-1.964-1.073-.28-.409-1.297-1.033-2.259-1.389-1.554-.573-1.75.086-1.75 5.882"/></svg>