<svg xmlns="http://www.w3.org/2000/svg" viewBox="0 0 1024 1024"><path fill="#00e5cc" d="M320.75 251.805c-2.613.167-4.75.617-4.751 1 0 .382-2.116.816-4.703.964-2.586.149-4.948.599-5.249 1-.301.402-2.102.855-4.003 1.006s-3.701.602-4 1.003-1.894.885-3.544 1.076-3.45.628-4 .971c-.55.344-2.117.778-3.481.965-1.365.187-2.715.649-3 1.025-.286.377-1.644.844-3.019 1.038s-2.775.795-3.112 1.335c-.336.541-1.011.921-1.5.846-.765-.118-2.044.213-5.638 1.456-.413.143-1.452.316-2.309.385s-1.262.605-.9 1.192c.363.587.052.983-.691.881-2.617-.359-3.961.063-3.35 1.052.346.559-.427 1-1.752 1-1.304 0-3.261.788-4.348 1.75-1.088.962-2.636 1.896-3.439 2.075-.804.179-1.611.741-1.794 1.25s-1.061.925-1.95.925c-1.205 0-1.328.289-.483 1.134s2.36.401 5.95-1.743c6.154-3.676 8.763-4.911 14.316-6.773 2.475-.83 7.2-2.488 10.5-3.686s9.375-3.052 13.5-4.123a992 992 0 0 0 11-2.915c7.627-2.109 14.975-3.151 25.21-3.574 10.336-.428 10.927-.337 16.961 2.607 4.119 2.01 6.589 2.713 7.241 2.061.651-.651.437-.988-.629-.988-.889 0-1.766-.416-1.95-.925s-1.008-1.071-1.833-1.25-1.77-.692-2.1-1.141-1.23-.944-2-1.099-2.075-.55-2.9-.877c-1.874-.741-15.9-1.311-22.25-.903m363.25-.026c-1.375.215-2.928.802-3.45 1.306-.522.503-1.76.915-2.75.915s-1.8.477-1.8 1.059-.414.803-.919.491-1.599.111-2.429.941-1.971 1.509-2.536 1.509c-.564 0-3.597 2.681-6.74 5.959-9.602 10.015 5.079 9.11-151.517 9.339-75.822.111-137.859-.135-137.859-.548s-.681-.75-1.514-.75c-2.336 0-5.447-2.065-10.921-7.25-4.87-4.612-7.565-5.91-7.565-3.643 0 .609.698.839 1.552.511s1.312-.208 1.02.266c-1.168 1.89 9.408 10.864 11.373 9.65.574-.354.81-.058.531.667-1.409 3.672 3.42 3.799 143.758 3.784 105.547-.012 137.065-.294 139.811-1.251 5.015-1.748 8.224-4.027 14.843-10.544 7.683-7.565 14.941-10.19 28.172-10.19 5.114 0 10.68.415 12.369.923s5.546 1.427 8.571 2.042c6.132 1.247 9.104 2.002 20 5.083 4.125 1.167 8.281 2.533 9.236 3.037.955.503 2.616.915 3.691.915s2.233.45 2.573 1 1.491 1 2.559 1 1.941.45 1.941 1 .595 1 1.323 1c2.513 0 13.196 5.871 18.752 10.305C782.053 285.076 790 298.22 790 303.338c0 3.6 1.703 7.611 3.528 8.311 2.505.961 3.042-.562.762-2.159-1.485-1.039-2.09-2.544-2.09-5.193 0-2.052-.495-3.895-1.1-4.097s-1.1-1.679-1.1-3.283-.477-2.917-1.059-2.917-.803-.414-.491-.919-.111-1.599-.941-2.429-1.509-2.018-1.509-2.64c0-.621-.45-.852-1-.512-.916.566-1.445-.8-1.094-2.824.079-.454-.318-.54-.881-.191-.564.348-1.025.136-1.025-.471 0-1.652-4.682-6.014-6.455-6.014-.85 0-1.432-.562-1.295-1.25.138-.687-.312-1.138-1-1s-1.25-.2-1.25-.75-.975-1-2.167-1-1.873-.293-1.515-.652c.852-.851-3.988-3.348-6.491-3.348-1.07 0-1.667-.45-1.327-1 .348-.564-.462-1-1.858-1-1.361 0-2.634-.475-2.827-1.054s-1.018-1.189-1.833-1.352-2.607-.761-3.982-1.328-2.837-.832-3.25-.59c-.413.243-.75-.035-.75-.617S744.65 262 743 262s-3-.45-3-1-1.323-1-2.941-1-3.219-.45-3.559-1-2.166-1-4.059-1-3.441-.45-3.441-1-1.763-1-3.917-1-4.075-.477-4.27-1.06c-.194-.582-2.369-1.084-4.833-1.115s-4.72-.436-5.013-.899c-.565-.892-19.727-1.809-23.967-1.147m-364.5 8.207c-10.077 1.584-36.041 9.337-47.5 14.186-9.245 3.911-17.491 8.584-17.225 9.761.151.668-.204.92-.79.558-2.685-1.659-13.387 13.507-11.127 15.767.993.993 1.861-1.471.892-2.531-.137-.151.762-1.361 2-2.689s2.25-2.801 2.25-3.272c0-1.114 4.652-5.766 5.766-5.766.471 0 1.842-.918 3.045-2.039 1.204-1.121 2.189-1.727 2.189-1.345s.788.062 1.75-.711c2.78-2.232 6.095-3.905 7.736-3.905.833 0 1.514-.45 1.514-1s.337-.889.75-.754c1.091.359 9.25-2.454 9.25-3.188 0-.342 1.212-.722 2.694-.845 1.482-.122 2.944-.558 3.25-.968s1.681-.904 3.056-1.098 2.725-.644 3-1 1.625-.765 3-.909 3.175-.553 4-.908c.825-.356 2.849-.838 4.499-1.072s3.449-.749 4-1.144c.55-.395 2.576-.852 4.501-1.016s3.725-.605 4-.98c1.086-1.48 20.441-1.265 24.75.275 2.337.835 4.25 1.268 4.25.962 0-.305 2.96 2.302 6.577 5.795s6.675 6.125 6.795 5.85 1.465.746 2.988 2.269 3.152 2.533 3.619 2.244 1.001-.077 1.186.472c.184.549 1.573 1.1 3.085 1.224 1.512.125 2.75.579 2.75 1.009s62.933.782 139.851.782C650.174 284 658 283.831 658 280.843c0-.528.421-.701.935-.383.515.318 2.182-.668 3.705-2.191s2.856-2.544 2.962-2.269c.206.533 12.398-10.846 12.398-11.571 0-1.745-3.423.44-8.034 5.128-6.538 6.647-10.924 9.53-16.966 11.149-6.188 1.658-272.263 1.833-280.174.184-6.178-1.288-9.563-2.701-12.227-5.105-1.046-.944-2.279-1.483-2.739-1.198-.46.284-.539-.26-.175-1.209.501-1.306.268-1.574-.96-1.103-1.2.461-1.461.2-1-1 .46-1.2.2-1.46-1-1-1.2.461-1.461.2-1-1 .471-1.228.203-1.461-1.103-.96-1.034.397-1.479.263-1.11-.334 1.238-2.004-6.243-6.682-8.996-5.625-.891.341-1.364.207-1.052-.298.313-.506.224-1.125-.198-1.376-1.605-.955-16.987-1.447-21.766-.696m367-.017c-5.163.907-8.5 2.077-8.5 2.981 0 1.692 1.442 1.873 4.077.51 3.225-1.668 22.882-2.09 24.473-.526.522.514 2.75 1.127 4.95 1.363 2.2.235 4.675.701 5.5 1.035s2.625.776 4 .984 3.175.665 4 1.018 2.625.76 4 .904 2.725.553 3 .909 1.625.806 3 1 2.725.644 3 1 1.625.806 3 1 2.725.644 3 1 1.625.806 3 1 3.099.92 3.831 1.612 1.744 1.004 2.25.691c.505-.312.919-.091.919.491s.9 1.059 2 1.059 2 .45 2 1 .862 1 1.917 1c1.054 0 2.066.416 2.25.925.183.509.991 1.071 1.796 1.25s2.574 1.313 3.932 2.521c1.358 1.209 2.848 1.963 3.312 1.676.463-.286.719.075.568.804-.151.728.287 1.212.975 1.074s1.137.143 1 .624c-.138.481 1.1 2.416 2.75 4.299s3.149 4.073 3.33 4.866.844 1.76 1.472 2.148c.786.486.652.893-.431 1.309-2.009.771-3.963.339-5.678-1.255-.745-.693-1.768-1.004-2.274-.691-.505.312-.919.144-.919-.374 0-1.124-2.987-2.023-4.75-1.43-1.741.586-1.568 2.254.234 2.254.816 0 4.271 1.35 7.677 3 10.044 4.865 10.815 3.971 5.707-6.619-2.026-4.201-3.597-6.315-4.449-5.988-.77.295-1.117-.017-.834-.753.487-1.269-4.297-6.044-8.451-8.435-5.228-3.008-13.915-7.071-17.634-8.247-2.2-.696-5.517-1.918-7.372-2.717-3.883-1.67-8.136-3.06-13.128-4.288-18.759-4.617-24.094-5.665-31.5-6.19-3.85-.274-8.8-.181-11 .206m-444 22.639c-2.2 2.504-4.185 5.071-4.411 5.704-.226.634-1.017 1.759-1.759 2.501-.742.741-1.093 1.762-.78 2.268s.091.919-.491.919-1.059 1.377-1.059 3.059c0 1.785-.417 2.802-1 2.441-.954-.59-1.432 2.009-1.055 5.735.163 1.612-4.679 7.451-5.9 7.115-.3-.083-.433.255-.295.75.137.495-.464.9-1.336.9-1.86 0-12.414 10.671-12.414 12.551 0 .705-.416 1.432-.925 1.616-.509.183-1.071.997-1.25 1.809s-.892 2.086-1.584 2.831-1.027 1.73-.744 2.188c.284.459.106.985-.395 1.17s-1.067 1.46-1.257 2.835-.867 3.055-1.506 3.732c-.639.678-.905 2.211-.592 3.407.39 1.492.205 1.949-.589 1.458-1.098-.678-1.628 1.108-1.233 4.153.09.688-.307 1.25-.881 1.25S200 354.125 200 355.5s-.45 2.5-1 2.5-1 1.35-1 3-.45 3-1 3-1 1.35-1 3-.45 3-1 3-1 1.35-1 3-.45 3-1 3-1 1.35-1 3-.45 3-1 3-1 1.35-1 3-.45 3-1 3-1 1.35-1 3-.45 3-1 3-1 1.35-1 3-.45 3-1 3-1 1.35-1 3-.45 3-1 3-1 1.313-1 2.917-.495 3.081-1.1 3.283-1.1 2.038-1.1 4.081c0 2.042-.405 3.463-.9 3.157s-.9 1.046-.9 3.003-.45 3.559-1 3.559-1 1.35-1 3-.45 3-1 3-1 1.323-1 2.941-.45 3.219-1 3.559-1 2.166-1 4.059-.45 3.441-1 3.441-1 1.313-1 2.917-.407 3.066-.905 3.25c-.497.183-1.06 1.458-1.25 2.833s-.727 2.779-1.195 3.121c-.467.341-.85 2.254-.85 4.25s-.405 3.629-.9 3.629-.9 1.827-.9 4.059c0 2.451-.396 3.814-1 3.441-.595-.368-1 .823-1 2.941 0 1.957-.45 3.559-1 3.559s-1 1.8-1 4-.45 4-1 4-1 1.827-1 4.059c0 2.451-.396 3.814-1 3.441-.997-.616-1.398 1.878-1.024 6.362.123 1.481-.209 2.112-.89 1.691-.722-.446-1.086.878-1.086 3.947 0 2.824-.388 4.378-1 4-.591-.365-1 .756-1 2.741 0 1.847-.411 3.787-.914 4.309s-1.048 2.3-1.212 3.95-.681 3.53-1.148 4.177-.875 3.009-.906 5.25c-.03 2.24-.453 4.073-.938 4.073s-.882 1.773-.882 3.941-.45 4.219-1 4.559-1 2.526-1 4.859-.461 4.702-1.024 5.265-1.083 2.79-1.155 4.95c-.072 2.159-.526 4.187-1.009 4.505-.483.319-.921 2.69-.972 5.27-.052 2.58-.487 4.933-.967 5.23-.48.296-.88 3.1-.888 6.23-.011 4.043-.296 5.257-.985 4.191-.914-1.415-1.561 4.134-1.067 9.161.089.914-.309 1.953-.885 2.309-.58.359-1.048 3.998-1.048 8.148 0 4.745-.367 7.273-1 6.882-.637-.394-1 2.509-1 8s-.363 8.394-1 8c-.98-.606-1.369 5.36-1.02 15.648.087 2.557-.323 4.946-.911 5.31-.696.429-1.028 6.318-.951 16.851.071 9.641.427 14.977.882 13.191.481-1.89.807 1.74.882 9.809.071 7.737.491 12.578 1.061 12.226.546-.337.926 1.589.903 4.572-.022 2.835.388 5.434.912 5.774.523.34.986 2.075 1.029 3.856s.435 3.805.87 4.5c.436.694.946 2.38 1.133 3.744s.799 2.765 1.361 3.112.981.918.934 1.269c-.317 2.372.06 3.666.915 3.138.569-.352 1 .509 1 2s.431 2.352 1 2c.567-.351 1 .49 1 1.941 0 1.407.45 2.559 1 2.559s1 .99 1 2.2c0 1.599.3 1.9 1.099 1.101s.253-2.873-2-7.593c-1.704-3.572-3.099-7.191-3.099-8.042s-.45-1.826-1-2.166-1-1.626-1-2.859-.378-2.668-.839-3.191-1.383-3.65-2.048-6.95-1.624-8.025-2.132-10.5c-.507-2.475-1.222-9.337-1.588-15.25S130.312 675 129.805 675s-.72-.337-.472-.75.96-9.75 1.582-20.75 1.571-23.263 2.108-27.25c4.336-32.182 6.541-45.694 9.099-55.75.56-2.2 1.39-6.25 1.846-9l1.488-9c.804-4.863 1.56-8.274 5.544-25 1.703-7.15 3.568-15.025 4.144-17.5s1.402-5.625 1.836-7c.433-1.375 1.342-4.525 2.02-7a342 342 0 0 1 1.992-7c.418-1.375 1.297-4.975 1.954-8 .656-3.025 1.561-6.4 2.01-7.5s1.285-3.8 1.859-6c1.932-7.41 5.377-18.95 7.91-26.5 1.384-4.125 2.881-8.85 3.326-10.5s1.708-6.375 2.806-10.5c2.581-9.704 4.78-16.742 11.72-37.5 5.848-17.492 6.453-19.235 8.151-23.5.547-1.375 1.565-4.3 2.261-6.5s2.109-5.772 3.139-7.938 1.872-4.331 1.872-4.813c0-5.657 13.117-23.032 19.847-26.289 4.346-2.103 6.153-4.862 6.153-9.392 0-5.371 8.075-19.263 13.188-22.688 3.207-2.149 3.601-3.392 1.062-3.353-.963.015-3.55 2.076-5.75 4.581m75.213-1.987c-.342.341-2.998.824-5.904 1.074s-5.514.758-5.796 1.129c-.282.372-2.306.821-4.498.999-2.192.177-4.442.66-5 1.073s-2.572.844-4.476.959-3.703.532-4 .927c-.296.395-1.664.877-3.039 1.071s-2.725.644-3 1-1.605.771-2.956.922-2.701.601-3 1-1.649.849-3 1-2.701.601-3 1-1.669.884-3.044 1.078-2.725.644-3 1-1.605.771-2.956.922-2.752.752-3.112 1.335c-.361.584-.83.929-1.044.767-.213-.162-2.413.574-4.888 1.635s-5.845 2.167-7.489 2.458c-1.775.315-3.124 1.24-3.323 2.28-.435 2.276.811 2.207 6.573-.366 9.376-4.187 10.848-4.772 18.415-7.31 4.222-1.416 8.391-2.574 9.264-2.574s2.369-.397 3.324-.883c3.403-1.732 6.78-2.975 9.736-3.586 3.824-.791 8.913-2.083 14-3.556 3.516-1.018 11.548-2.181 21-3.042 7.141-.65 24.238 2.083 27.237 4.354.681.515 1.942.667 2.802.336.861-.33 1.32-.204 1.022.279-.706 1.141 4.198 4.365 5.456 3.588.535-.331.697.093.365.958-.373.972-.043 1.552.884 1.552 1.475 0 4.872 3.447 14.119 14.328 4.285 5.043 7.409 7.054 6.44 4.147-.179-.536-.663-.862-1.075-.725-.413.138-.638-.312-.5-1 .137-.687-.346-1.126-1.074-.975s-1.072-.135-.763-.635c.638-1.032-16.804-19.14-18.436-19.14-.583 0-2.027-.9-3.207-2-1.899-1.768-3.161-2.215-5.408-1.915-.351.047-.967-.447-1.37-1.097-.402-.651-1.871-1.252-3.265-1.336-1.394-.083-2.327-.489-2.072-.902s-.689-.806-2.096-.875c-5.598-.273-6.42-.403-7.142-1.125-.9-.9-16.818-1.016-17.704-.129m368.285.129c-.001.413-1.429.851-3.173.973-1.745.123-3.634.686-4.198 1.25-.565.565-1.837 1.027-2.827 1.027s-1.8.45-1.8 1-.337.947-.75.882c-2.175-.344-4.086.317-5.955 2.058-1.145 1.067-2.326 1.696-2.623 1.398-.63-.629-20.672 19.514-20.672 20.776 0 .465-2.698 3.668-5.995 7.116-3.297 3.449-5.997 6.733-6 7.299S631.1 326.207 630 327s-2 2.092-2 2.887c0 .796-.275 1.171-.611.835-.673-.673-5.389 4.535-5.389 5.952 0 .486-.9 1.533-2 2.326s-2 2.044-2 2.78-.461 1.053-1.025.705c-.563-.349-.904-.263-.758.191.328 1.011-2.464 5.1-3.374 4.94-.361-.064-2.697 1.797-5.191 4.134S602.614 356 602 356c-.615 0-.84.45-.5 1 .997 1.613 2.806 1.165 5.842-1.447 1.72-1.479 2.548-2.922 2.096-3.653-.449-.727-.327-.949.306-.558 1.267.783 15.814-15.01 15.619-16.956-.075-.75.233-1.136.685-.857.452.28 2.086-1.187 3.631-3.26s3.207-4.056 3.693-4.407.578-1.134.204-1.739c-.393-.637-.132-.915.622-.662 1.16.391 3.588-2.223 14.248-15.337C656.949 297.665 672.505 286 677.951 286c.592 0 1.858-.397 2.813-.882 5.837-2.967 16.237-3.416 29.236-1.262 3.575.593 8.525 1.338 11 1.656 4.762.613 17.312 4.08 20.236 5.591.955.493 2.53.909 3.5.923 2.072.03 14.932 4.309 15.92 5.296 1.034 1.034 5.146.807 5.844-.322.34-.55-.084-1.056-.941-1.125s-1.896-.242-2.309-.385c-3.594-1.243-4.873-1.574-5.638-1.456-.489.075-1.183-.34-1.544-.924-.36-.583-1.761-1.184-3.112-1.335s-2.689-.583-2.975-.96c-.285-.376-1.731-.847-3.212-1.045-1.481-.199-3.01-.678-3.398-1.066-.387-.387-2.167-.704-3.954-.704s-3.409-.477-3.604-1.06c-.194-.584-1.919-1.099-3.833-1.146s-3.738-.48-4.054-.963c-.315-.483-2.34-.931-4.5-.994-2.159-.064-4.458-.532-5.107-1.042-.65-.509-3.687-.976-6.75-1.039s-5.569-.482-5.569-.934-4.5-.822-10-.822-10.001.337-10.002.75M317 289.066c-1.925.447-6.65 1.332-10.5 1.967s-9.475 1.959-12.5 2.942-9.325 2.813-14 4.068-8.95 2.563-9.5 2.91c-.55.346-2.8 1.212-5 1.923-2.2.71-5.908 2.154-8.239 3.208S252.636 308 252.165 308s-2.164.626-3.761 1.391a407 407 0 0 1-6.904 3.195c-5.93 2.675-11.542 6.537-10.932 7.525.295.476-.141.606-.967.289-3.296-1.264-12.1 10.469-16.581 22.1-.424 1.1-1.277 3.259-1.895 4.797-1.392 3.462-1.441 5.703-.125 5.703.55 0 1-1.125 1-2.5s.45-2.5 1-2.5 1-1.157 1-2.571.679-3.251 1.509-4.081 1.254-1.923.941-2.429c-.312-.505-.091-.919.491-.919s1.059-.863 1.059-1.917.416-2.066.925-2.25c.509-.183 1.071-.98 1.25-1.772.451-1.998 7.78-9.266 11.053-10.962 1.487-.77 2.468-1.783 2.179-2.25S233.835 318 235 318s1.84-.45 1.5-1c-.351-.567.49-1 1.941-1 1.407 0 2.559-.45 2.559-1s1.152-1 2.559-1c1.699 0 2.316-.393 1.836-1.17q-.727-1.172.912-.542c.899.345 2.291-.029 3.093-.83.801-.802 2.416-1.458 3.588-1.458 1.171 0 1.852-.45 1.512-1-.361-.583.656-1 2.441-1 1.682 0 3.059-.337 3.06-.75s1.184-.819 2.63-.902c1.447-.084 2.959-.685 3.361-1.336.403-.65 1.032-1.095 1.398-.988.367.107 1.667-.126 2.889-.518 1.221-.391 2.819-.856 3.549-1.032.731-.176 2.081-.649 3-1.051.92-.402 2.789-.916 4.153-1.142 1.365-.226 2.715-.72 3-1.096s1.644-.84 3.019-1.03 2.65-.753 2.833-1.25c.184-.498 2.096-.905 4.25-.905s3.917-.45 3.917-1 1.8-1 4-1 4-.391 4-.868c0-.478 2.587-.929 5.75-1.001 3.163-.073 5.862-.47 6-.882.258-.776 17.74-.678 19.024.106.399.244 2.076.602 3.726.794s3.599.918 4.331 1.61c.731.693 1.744 1.004 2.25.691.505-.312.919-.091.919.491s.695 1.059 1.544 1.059 2.731 1.101 4.182 2.446c2.561 2.375 4.274 2.531 4.274.388 0-.576-.652-.798-1.449-.492-.917.352-1.265.075-.947-.754.596-1.552-3.091-3.429-13.78-7.014-7.958-2.668-17.368-3.24-24.824-1.508m368.377.409c-8.48 2.075-16.514 6.629-23.324 13.222-3.546 3.433-6.156 6.533-5.8 6.89.357.356 2.906-1.67 5.664-4.502 2.759-2.833 5.22-5.023 5.47-4.867.249.155 1.535-.618 2.857-1.718 3.383-2.813 6.472-4.5 8.242-4.5.833 0 1.514-.354 1.514-.787s1.433-.897 3.184-1.03c1.75-.134 3.663-.578 4.25-.989 1.348-.942 15.186-.495 23.009.744 3.268.518 6.267.741 6.664.496.397-.246.873-.035 1.058.468.184.502 1.91 1.044 3.835 1.204s3.95.607 4.5.995 2.35.844 4 1.014 3.45.62 4 1 2.35.845 4 1.034 3.245.672 3.544 1.073 1.649.852 3 1.003 2.701.601 3 1 1.649.849 3 1 2.726.642 3.056 1.091c.33.45 1.23.944 2 1.099s2.152.611 3.072 1.011 2.269.829 3 .951c.73.123 2.903.968 4.828 1.877 1.925.91 4.164 1.787 4.976 1.95s2.086.863 2.831 1.555c.745.693 1.768 1.004 2.274.691.505-.312.919-.091.919.491s.563 1.058 1.25 1.056c1.563-.003 9.733 4.07 11.555 5.762 1.354 1.257 3.195.855 3.195-.697 0-.451-1.35-1.379-3-2.062s-3-1.638-3-2.121-.606-.879-1.346-.879-5.03-1.8-9.532-4-8.627-4-9.167-4-1.764-.395-2.719-.877c-.955-.483-3.536-1.412-5.736-2.066s-4.9-1.543-6-1.976c-8.885-3.495-23.44-7.662-35-10.021-3.3-.674-7.887-1.638-10.193-2.142-5.667-1.241-16.678-.973-22.93.557M358 300.578c0 .319 1.8 2.308 4 4.422s4.006 4.216 4.013 4.672 3.157 4.094 7 8.086 6.987 7.664 6.987 8.161 1.35 2.039 3 3.428 3 2.838 3 3.221c0 .384.788 1.432 1.75 2.329s2.249 2.525 2.859 3.617 1.414 1.857 1.786 1.7c1.099-.464 3.605 2.507 3.605 4.274 0 .896.45 1.352 1 1.012s1 .084 1 .941.45 1.559 1 1.559 1 .671 1 1.492c0 .82.9 2.053 2 2.74s2 1.623 2 2.08c0 1.156 2.655 3.7 3.245 3.109.266-.266 1.23.656 2.143 2.048s2.117 2.531 2.677 2.531 1.985.9 3.165 2c1.181 1.1 2.737 2 3.459 2 .721 0 1.311.45 1.311 1s.81 1 1.8 1 2.237.437 2.771.971c.535.535 1.862 1.11 2.95 1.279s2.55.664 3.248 1.1c.981.612 67.762.887 159.54.657 1.758-.004 2.559-.412 2.141-1.088-.399-.646.081-1.003 1.191-.885 3.538.374 5.474-.038 4.859-1.034-.361-.583.656-1 2.441-1 1.682 0 3.059-.45 3.059-1s.59-1 1.311-1c.722 0 2.278-.9 3.459-2 1.18-1.1 2.478-2 2.883-2 1.17 0 6.347-5.261 6.347-6.45 0-.592.976-1.52 2.168-2.063s2.655-1.843 3.25-2.889c.595-1.047 3.419-4.393 6.275-7.437 4.829-5.146 5.713-7.161 3.141-7.161-.576 0-.78.698-.452 1.552.327.854.196 1.305-.293 1.003-.796-.492-2.835 1.543-8.369 8.349-.979 1.204-1.472 2.688-1.096 3.297.377.609.239.832-.307.495-1.245-.77-8.626 6.662-7.618 7.67.407.407-.112.413-1.153.013-1.514-.581-1.761-.38-1.231.999.364.949.254 1.473-.246 1.165-.499-.309-3.081.768-5.738 2.393s-7.756 3.955-11.331 5.178l-6.5 2.225-76.381-.151c-74.578-.148-76.526-.2-82.5-2.235-7.416-2.526-10.271-3.809-13.862-6.23-1.509-1.017-3.266-1.526-3.905-1.132-.716.443-.891.282-.457-.421.394-.638-.747-2.625-2.596-4.519-1.814-1.86-5.999-6.565-9.299-10.455s-6.586-6.881-7.302-6.646-1.025-.021-.687-.568c1.105-1.787-5.802-10.538-7.492-9.494-.597.369-.731-.076-.334-1.11.501-1.306.268-1.574-.96-1.103-1.119.43-1.458.192-1.09-.765.293-.764-.405-1.974-1.551-2.69s-2.098-1.755-2.116-2.311c-.054-1.74-4.923-6.655-5.958-6.015-.587.362-.718-.091-.325-1.116.513-1.337.274-1.576-1.063-1.063-1.112.426-1.487.275-1.055-.424.37-.598-1.729-3.517-4.663-6.489-4.881-4.941-6.904-6.355-6.904-4.824m296.342 10.871c.392 1.02.076 1.265-1.067.826-1.228-.471-1.461-.203-.96 1.103.397 1.034.263 1.479-.334 1.11-1.131-.699-2.533.571-5.873 5.32-4.037 5.74-1.428 4.689 4.763-1.919 5.551-5.924 6.538-7.889 3.963-7.889-.576 0-.798.652-.492 1.449m142.256.287c-1.058 1.058-.642 2.015 1.152 2.648.962.34 2.313.879 3 1.2.688.32 1.25.095 1.25-.501 0-.595-.702-1.083-1.559-1.083s-1.31-.403-1.006-.895c.636-1.03-1.936-2.271-2.837-1.369M382 314.561c0 .308 3.206 4.246 7.125 8.75s8.081 9.649 9.25 11.433 2.711 3.028 3.427 2.762c.719-.267 1.016-.021.664.549-1.067 1.727 7.819 12.505 9.469 11.485.649-.401.792.007.38 1.082-.513 1.337-.274 1.576 1.063 1.063.949-.364 1.476-.257 1.17.238-.601.971 8.493 8.077 10.336 8.077.614 0 1.116.352 1.116.782s2.137 1.369 4.75 2.088 6.055 1.717 7.649 2.218c3.84 1.208 140.761 1.195 145.485-.013 1.989-.509 5.641-1.442 8.116-2.073 8.941-2.281 12.989-5.002 7.441-5.002-1.451 0-2.292.433-1.941 1 .361.583-.656 1-2.441 1-1.682 0-3.059.391-3.059.869s-2.219.92-4.932.981c-2.712.061-6.875.459-9.25.885-5.685 1.02-83.403.908-115.818-.166-14.025-.465-26.512-.873-27.75-.907s-2.25-.422-2.25-.862-.873-.8-1.941-.8-2.219-.45-2.559-1-1.491-1-2.559-1-1.941-.45-1.941-1-.562-1.003-1.25-1.007c-1.396-.008-17.75-16.294-17.75-17.676 0-.484-2.25-3.239-5-6.122s-5-5.59-5-6.015c0-.958-10.458-12.18-11.351-12.18-.357 0-.649.252-.649.561m420.676 1.097c-1.224 1.223-.705 2.567.773 2 1.02-.392 1.265-.076.826 1.067-.46 1.2-.2 1.46 1 1 1.063-.408 1.456-.187 1.139.639-.267.694.431 2.091 1.551 3.104s2.035 2.495 2.035 3.294c0 .901.588 1.226 1.552.856.958-.367 1.298-.184.887.48-.365.592.253 2.949 1.375 5.239 1.977 4.037 3.497 8.1 10.908 29.163 1.935 5.5 3.83 10.45 4.212 11s1.724 4.375 2.983 8.5 2.692 8.281 3.186 9.236.897 2.437.897 3.293 2.075 7.724 4.61 15.263c2.536 7.54 5.944 18.883 7.574 25.208 4 15.529 4.354 16.815 6.053 22 .811 2.475 1.986 6.3 2.61 8.5.625 2.2 1.993 6.925 3.04 10.5s2.624 8.975 3.506 12 1.996 7.525 2.475 10 2.032 9 3.449 14.5c7.378 28.625 9.161 36.173 10.746 45.5 1.118 6.575 2.553 13.856 3.943 20 1.4 6.187 2.839 14.912 4.124 25 .596 4.675 1.437 11.2 1.87 14.5.432 3.3 1.289 10.242 1.903 15.427 1.241 10.468 2.051 12.689 2.186 5.99.177-8.813-.267-14.424-1.168-14.75-.507-.184-.921-3.645-.921-7.691 0-4.047-.402-7.606-.892-7.91-.491-.303-.932-3.309-.979-6.68-.048-3.372-.573-6.716-1.169-7.434-.595-.717-1.001-1.9-.902-2.628.5-3.691-.16-8.879-1.058-8.324-.62.383-1-1.47-1-4.882 0-3.025-.45-5.778-1-6.118s-1-2.59-1-5-.375-4.614-.834-4.898-.91-2.425-1.001-4.759-.616-4.694-1.166-5.244S880 549.89 880 547.8s-.478-3.8-1.063-3.8c-.584 0-.983-.788-.885-1.75.408-4.01-.11-7.332-1.052-6.75-.61.377-1-1.137-1-3.882 0-2.475-.45-4.778-1-5.118s-1-2.391-1-4.559-.45-3.941-1-3.941-1-1.8-1-4-.45-4-1-4-1-1.8-1-4-.45-4-1-4-1-1.8-1-4-.45-4-1-4-1-1.602-1-3.559c0-2.118-.405-3.309-1-2.941-.604.373-1-.99-1-3.441 0-2.232-.45-4.059-1-4.059s-1-1.548-1-3.441-.45-3.719-1-4.059-1-1.941-1-3.559-.405-2.941-.9-2.941-.9-1.633-.9-3.629-.404-3.909-.898-4.25-.969-1.739-1.056-3.106c-.086-1.367-.627-2.642-1.202-2.834-.574-.191-1.044-1.81-1.044-3.598s-.317-3.567-.704-3.954c-.388-.388-.866-1.925-1.062-3.417s-.779-2.862-1.295-3.045c-.517-.184-.939-1.646-.939-3.25s-.45-2.917-1-2.917-1-1.5-1-3.333-.317-3.651-.704-4.038c-.388-.388-.866-1.925-1.062-3.417s-.779-2.862-1.295-3.045c-.517-.184-.939-1.646-.939-3.25s-.45-2.917-1-2.917-1-1.548-1-3.441-.45-3.719-1-4.059-1-1.641-1-2.892-.317-2.592-.704-2.979c-.388-.388-.867-1.917-1.066-3.398-.198-1.481-.669-2.927-1.045-3.212-.377-.286-.844-1.644-1.038-3.019s-.644-2.725-1-3-.806-1.625-1-3-.644-2.725-1-3-.806-1.625-1-3-.795-2.775-1.335-3.112c-.541-.336-.862-.786-.715-1s-.086-1.513-.517-2.888-.976-3.39-1.211-4.479c-.234-1.088-.863-2.415-1.398-2.95-.534-.534-.971-1.781-.971-2.771s-.354-1.8-.787-1.8-.898-1.455-1.034-3.234-.681-3.668-1.213-4.2c-.531-.531-.966-1.776-.966-2.766s-.45-1.8-1-1.8-1-1.35-1-3-.477-3-1.059-3-.803-.414-.491-.919-.111-1.599-.941-2.429-1.509-2.468-1.509-3.64c0-1.171-.45-1.852-1-1.512-.561.347-1-.44-1-1.793 0-1.326-1.35-3.823-3-5.55s-3-3.514-3-3.974c0-1.36-4.589-5.261-5.324-4.525M794 321c0 .55.702 1 1.559 1 .924 0 1.268.47.846 1.155-.443.715-.275.883.44.44.635-.392 1.157-.349 1.16.096s1.24 2.179 2.75 3.852c3.363 3.729 5.245 6.937 5.245 8.943 0 .833.45 1.514 1 1.514s.947.337.882.75c-.338 2.137.224 4.302.993 3.827.481-.297.875.627.875 2.055 0 1.427.545 2.932 1.21 3.344.666.411 1.09.922.943 1.136s.092 1.513.53 2.888.86 2.725.936 3c1.078 3.904 3.083 9 3.541 9.001.325 0 .661 1.224.748 2.719s.649 2.882 1.25 3.083c.601.2 1.092 1.676 1.092 3.28 0 1.605.45 2.917 1 2.917s1 1.35 1 3 .45 3 1 3 1 1.35 1 3 .394 3 .875 3 .875 1.176.875 2.614.394 2.9.875 3.25.999 1.741 1.15 3.092.601 2.701 1 3 .851 1.669 1.004 3.044.717 2.65 1.25 2.833c.534.184.971 1.796.971 3.584 0 1.787.313 3.563.696 3.945.382.383.798 1.393.923 2.245s.556 2.302.958 3.221c.402.92.916 2.789 1.142 4.153.226 1.365.761 2.715 1.189 3s.85 2.544.938 5.019.608 4.65 1.156 4.833c1.313.439 1.291 14.751-.026 17.213-.564 1.052-1.111 4.814-1.216 8.36s-.544 6.228-.975 5.961c-.787-.487-1.256 3.956-.912 8.633.146 1.983-.025 2.19-.829 1-1.05-1.555-1.547.917-1.078 5.359.118 1.11-.239 1.59-.885 1.191-.598-.37-1.081.028-1.081.891 0 2.092-.167 2.653-1.638 5.487-1.28 2.468-1.005 4.072.697 4.072.518 0 .941-.81.941-1.8s.427-2.228.948-2.75c1.416-1.418 4.379-12.422 4.471-16.605.045-2.009.382-3.468.75-3.241.876.542 1.483-2.809 2.883-15.918 1.092-10.214.642-20.233-.866-19.301-.377.233-.75-1.221-.829-3.23-.268-6.833-6.186-28.408-10.33-37.655-1.069-2.386-4.263-12.216-6.011-18.5-.688-2.475-1.498-5.175-1.798-6-2.953-8.112-4.082-10.471-4.929-10.299-.546.11-.775-.94-.509-2.333.276-1.439-.499-4.763-1.794-7.7a611 611 0 0 1-3.743-8.668c-4.332-10.357-6.643-13.886-11.628-17.759C795.5 319.821 794 319.417 794 321m-151.618 4.552c.327.854.185 1.298-.317.988-1.056-.653-8.637 8.221-7.767 9.091.881.882 5.702-4.313 5.702-6.145 0-.882.39-1.363.866-1.069 1.101.68 4.368-2.85 3.47-3.748-1.257-1.257-2.551-.672-1.954.883M717 327c-.825.533-2.737.976-4.25.985-1.513.008-2.75.492-2.75 1.074s-.415.803-.922.489c-1.251-.773-10.502 8.365-13.035 12.876-1.124 2-2.043 5-2.043 6.665 0 1.765-.417 2.771-1 2.411-.611-.378-1 1.156-1 3.941 0 2.507.358 4.559.796 4.559.437 0 .908 1.674 1.046 3.719.137 2.046.718 4.009 1.29 4.362.571.354 1 .93.953 1.281-.267 1.996.028 2.686.915 2.138.55-.34 1 .084 1 .941s.487 1.559 1.083 1.559.911-.337.699-.75c-4.442-8.668-5.215-11.216-5.232-17.25-.027-9.859 5.358-19.12 13.997-24.072 4.797-2.75 20.879-3.471 23.783-1.066.905.749 2.302 1.109 3.106.801.949-.364 1.279-.084.941.798-.301.783.338 1.631 1.51 2.003 2.138.679 6.707 6.122 9.077 10.813 2.272 4.497 1.75 17.254-.94 22.961-6.143 13.033-22.325 18.798-35.124 12.512-6.037-2.965-6.9-3.204-6.9-1.907 0 .968 7.803 5.158 10.284 5.522.912.134 1.971.557 2.354.939 1.047 1.047 9.362.837 9.362-.237 0-.513 1.237-.913 2.75-.888 3.073.051 8.58-2.516 7.568-3.527-.358-.359.119-.652 1.061-.652 1.902 0 6.621-4.286 6.621-6.014 0-.607.52-.783 1.155-.391.684.423.884.277.49-.36-.365-.591.016-1.753.846-2.583s1.509-2.216 1.509-3.081.45-1.571 1-1.571c.6 0 1-4 1-10s-.4-10-1-10c-.55 0-1-.707-1-1.571 0-.865-.679-2.251-1.509-3.081s-1.211-1.992-.846-2.583c.394-.637.194-.783-.49-.36-.635.392-1.155.185-1.155-.461 0-2.02-7.274-7.944-9.754-7.944-1.322 0-2.091-.441-1.746-1 .607-.982-1.295-1.404-4.75-1.052-.962.098-1.75-.301-1.75-.885 0-1.327-6.969-1.375-9-.063m-3.302 10.344c-.373.972.177 1.211 1.985.866 1.837-.351 2.144-.704 1.159-1.329-1.874-1.187-2.549-1.088-3.144.463M727 337c-1.165.753-.872.973 1.309.985 1.621.009 2.548-.408 2.191-.985-.767-1.242-1.579-1.242-3.5 0m4.5 2c-.34.55-.121 1 .486 1 1.407 0 5.41 4.135 5.844 6.036.182.795.698 1.674 1.147 1.955 1.456.908.951 15.223-.591 16.766-1.364 1.364-1.067 3.243.513 3.243 3.014 0 4.177-14.181 1.657-20.213-1.336-3.195-6.655-9.787-7.898-9.787-.297 0-.818.45-1.158 1m-25.201 3.25c-3.381 3.712-4.509 6.561-3.372 8.513.834 1.43 1.018 1.163 1.043-1.513.016-1.788.48-3.25 1.03-3.25s1-.702 1-1.559.461-1.274 1.025-.926c.563.349.901.038.75-.691-.151-.728.321-1.2 1.049-1.049.729.151 1.04-.187.691-.75-.844-1.367-.86-1.361-3.216 1.225m-417.947 8.047-6.592 1.362c-1.507.311-2.493.965-2.191 1.453s-.828.888-2.51.888-3.059.477-3.059 1.059-.414.803-.919.491-1.599.111-2.429.941-1.903 1.509-2.385 1.509c-1.371 0-8.633 6.967-7.962 7.639.33.329 1.331-.132 2.225-1.027s2.503-2.095 3.576-2.669 1.643-1.54 1.267-2.148c-.42-.68-.222-.82.516-.363.659.407 1.741.325 2.405-.182 1.207-.923 9.056-3.963 15.777-6.109 4.581-1.464 25.969-1.485 29.632-.03 8.855 3.518 13.254 5.621 17.055 8.157 2.382 1.588 4.806 2.525 5.5 2.125.683-.392.895-.332.472.134-.923 1.014 6.234 8.613 7.421 7.88.454-.281.558.187.231 1.041s-.124 1.552.452 1.552c2.692 0 1.602-2.121-3.881-7.547-3.274-3.24-5.953-5.549-5.953-5.133s-.985-.16-2.189-1.281c-1.203-1.121-2.741-2.039-3.416-2.039-.676 0-1.378-.416-1.562-.925-.183-.509-1.008-1.071-1.833-1.25s-1.77-.692-2.1-1.141-1.23-.966-2-1.148-2.525-.684-3.9-1.115c-1.375-.432-2.675-.665-2.888-.518s-.696-.23-1.072-.838c-.828-1.34-22.076-1.929-27.688-.768m-80.468 6.453c-.586 1.512-2.344 6.575-3.905 11.25a1045 1045 0 0 1-5.326 15.5c-5.53 15.563-6.926 21.199-5.732 23.148 1.083 1.768 1.129 1.761.992-.148-.303-4.225.126-6.594 1.087-6 .595.368 1-.823 1-2.941 0-1.957.45-3.559 1-3.559s1-1.35 1-3 .45-3 1-3 1-1.35 1-3 .45-3 1-3 1-1.35 1-3 .45-3 1-3 1-1.377 1-3.059c0-1.785.417-2.802 1-2.441.596.369 1-.843 1-3s.404-3.369 1-3 1-.843 1-3 .404-3.369 1-3c.567.351 1-.49 1-1.941 0-3.32-.782-3.249-2.116.191m83.616 1.104c-6.619.905-21.766 8.01-21.051 9.874.294.766.081 1.1-.481.752-1.134-.7-5.725 2.889-9.627 7.527-4.373 5.197-1.74 4.536 3.545-.89 2.741-2.814 5.379-5.117 5.861-5.117s1.748-.813 2.814-1.806 3.369-2.438 5.117-3.212c1.748-.773 2.959-1.761 2.691-2.194s1.088-.788 3.013-.788 3.751-.406 4.058-.902c.736-1.192 23.73-1.156 25.201.039.627.509 2.496 1.025 4.152 1.145s2.804.555 2.551.968c-.397.645 1.133.954 3.294.665.351-.047.918.367 1.26.919.341.553 1.287 1.154 2.101 1.336 2.085.465 15.978 14.053 15.991 15.639.005.72.46 1.031 1.01.691s1 .309 1 1.441.45 2.059 1 2.059.947.337.882.75c-.449 2.841.198 4.57 1.298 3.47 1.348-1.348.356-3.757-4.618-11.22-10.74-16.114-29.881-24.041-51.062-21.146m410.5 3.95c0 5.979 13.671 17.939 16.085 14.072.658-1.053.041-1.449-2.634-1.688-1.921-.171-3.232-.734-2.913-1.25s.088-.938-.512-.938c-1.088 0-8.074-6.5-8.043-7.483.109-3.362-.143-4.517-.983-4.517-.55 0-1 .812-1 1.804m-444.84 4.436c-.638.638-1.16 1.519-1.16 1.959 0 .439-1.8 2.653-4 4.92s-4 4.743-4 5.502-.45 1.379-1 1.379-1 .863-1 1.917-.506 2.085-1.125 2.291c-.619.207-1.125 1.586-1.125 3.065 0 1.48-.394 2.447-.875 2.15s-.875 1.061-.875 3.018-.45 3.559-1 3.559c-.585 0-.952 3.006-.884 7.25.064 3.988.307 6.35.541 5.25s1.114-5.6 1.957-10c.842-4.4 2.857-10.617 4.477-13.816s2.643-6.306 2.273-6.904c-.377-.61-.214-.805.369-.445 1.303.805 8.617-7.959 7.777-9.318-.354-.573.043-.742.938-.399.854.328 1.552.124 1.552-.452 0-1.674-1.578-2.188-2.84-.926M735 369.763c-1.719 1.991-5.461 4.237-7.058 4.237-.597 0-1.782.697-2.634 1.549-1.399 1.4-1.271 1.483 1.321.862 5.064-1.213 11.371-5.42 11.371-7.585 0-1.354-1.398-.917-3 .937m-443 2.046c-1.375.198-2.928.772-3.45 1.276-.522.503-1.76.915-2.75.915s-1.8.502-1.8 1.117c0 .731.949.86 2.75.375 8.544-2.303 24.212-1.352 27.7 1.682.522.454 1.724.826 2.669.826s4.168 2.238 7.161 4.973 5.801 4.647 6.241 4.25.474-.157.076.534.137 2.491 1.188 4c5.206 7.472 5.81 24.357 1.197 33.435-1.66 3.267-2.752 6.371-2.426 6.899s.154.835-.382.684-1.019.062-1.074.475c-.201 1.51 1.356.968 2.364-.823.57-1.013 1.603-2.46 2.295-3.215.693-.755 1.004-1.787.691-2.293-.312-.505-.164-.919.331-.919.952 0 3.094-6.134 3.317-9.5.514-7.768-.212-17.547-1.256-16.903-.794.491-.979.034-.589-1.458.313-1.196.047-2.739-.592-3.43s-1.307-1.921-1.486-2.733-.741-1.626-1.25-1.809-.925-.895-.925-1.58c0-1.45-10.049-11.872-10.76-11.16-.263.263-1.136-.18-1.94-.984s-1.875-1.206-2.381-.893-.919.091-.919-.491-1.377-1.059-3.059-1.059c-1.785 0-2.802-.417-2.441-1 .352-.569-.593-1.045-2.191-1.104-10.439-.384-14.108-.404-16.309-.087m56 2.787c0 .327.804 1.79 1.786 3.25 11.688 17.369 11.697 45.678.022 63.487-2.103 3.208-3.562 6.256-3.242 6.774.321.519.168.819-.338.668-1.464-.437-10.357 8.208-9.638 9.371.632 1.023 11.41-8.757 11.41-10.354 0-.427.883-1.793 1.963-3.034 1.08-1.242 1.941-2.658 1.915-3.146-.027-.489.404-1.168.956-1.51.553-.341 1.154-1.281 1.336-2.088.181-.806.873-2.053 1.538-2.769.664-.717.925-2.039.58-2.938q-.63-1.64.542-.912c.821.507 1.17-.506 1.17-3.395 0-2.491.395-3.874 1-3.5.65.402 1-4.637 1-14.382 0-8.921-.405-15.25-1-15.618-.55-.34-1-1.69-1-3s-.45-2.66-1-3-1-1.491-1-2.559-.477-1.941-1.059-1.941-.817-.392-.521-.871-.343-1.887-1.42-3.129-1.673-2.72-1.325-3.284c.364-.589.143-.722-.52-.311-.685.422-1.155.078-1.155-.846 0-.857-.45-1.559-1-1.559s-1 .268-1 .596m351.583.27c-.68 1.101 2.85 4.368 3.748 3.47 1.218-1.219.693-2.559-.78-1.994q-1.452.56-.893-.893c.593-1.544-1.175-2.04-2.075-.583m-419.614 2.161c-1.259 1.092-2.072 2.203-1.806 2.469.621.621 5.819-1.774 5.829-2.687.019-1.705-1.928-1.599-4.023.218m-7.288 5.787c-3.402 3.485-3.864 5.186-1.407 5.186.517 0 .672-.698.344-1.552-.338-.883-.172-1.291.385-.946 1.403.867 6.463-4.436 5.321-5.578-.561-.561-2.374.567-4.643 2.89m-18.626 1.936c-7.998 16.208-8.481 32.813-1.428 49.014 1.061 2.437 2.374 4.066 3.064 3.801.726-.278.986.114.652.983-.787 2.051 13.152 15.86 15.211 15.069.853-.327 1.299-.188.992.309-.747 1.209 5.194 4.795 10.598 6.398 6.116 1.813 29.977 1.421 35.625-.586 6.298-2.238 15.348-7.992 14.803-9.411-.302-.788.109-1.003 1.153-.602 1.2.46 1.46.2 1-1-.461-1.2-.2-1.461 1-1 1.228.471 1.461.203.96-1.103-.364-.949-.263-1.479.226-1.177 2.126 1.314 8.683-8.827 13.22-20.445 1.858-4.757 1.781-24.006-.121-30.25-1.643-5.394-3.01-6.189-3.01-1.75 0 1.65.478 3 1.063 3 .584 0 .983.788.885 1.75-.455 4.468.129 9.321 1.052 8.75.604-.373 1 .99 1 3.441 0 2.232-.45 4.059-1 4.059s-1 2.25-1 5-.45 5-1 5-1 1.602-1 3.559c0 2.118-.405 3.309-1 2.941-.569-.352-1 .509-1 2 0 1.724-.394 2.374-1.155 1.905-.715-.443-.883-.275-.44.44.392.635.21 1.155-.405 1.155s-.891.368-.613.818-.37 1.449-1.441 2.221c-1.07.771-1.946 2.203-1.946 3.182 0 .978-.399 1.666-.887 1.529-.487-.138-3.303 2-6.257 4.75s-6.042 5.146-6.863 5.325-1.643.741-1.826 1.25-1.196.925-2.25.925-1.917.45-1.917 1-.337.947-.75.882c-2.205-.349-4.294.237-3.785 1.061.355.574-5.287.943-14.441.943-8.742 0-15.024-.395-15.024-.943 0-.519-1.157-.943-2.571-.943s-3.251-.679-4.081-1.509-1.923-1.254-2.429-.941c-.505.312-.919.168-.919-.322s-1.238-1.523-2.75-2.297c-3.695-1.89-14.446-12.788-15.979-16.198-.675-1.503-1.714-2.733-2.309-2.733-.594 0-.852-.37-.572-.822.279-.452-.144-2.078-.941-3.614S252 425.949 252 424.945c0-1.005-.377-2.06-.838-2.345-1.392-.86-1.488-24.78-.103-25.636.655-.405 1.191-1.913 1.191-3.35s.394-2.614.875-2.614.875-1.152.875-2.559c0-1.451.433-2.292 1-1.941.55.34 1-.028 1-.819s.67-1.992 1.489-2.672c1.424-1.182 1.212-3.009-.349-3.009-.408 0-1.796 2.137-3.085 4.75m34.965-2.623c-9.028 4.003-13.8 9.062-17.125 18.161-9.979 27.3 23.273 51.813 46.455 34.247 1.018-.771 1.557-1.877 1.198-2.457-.41-.664-.012-.81 1.074-.393 1.337.513 1.576.274 1.063-1.063-.364-.949-.253-1.473.246-1.164 2.205 1.362 7.082-7.845 5.168-9.759-1.017-1.017-1.249-.405-1.07 2.828.016.291-1.896 2.595-4.25 5.121s-4.166 4.989-4.029 5.473c.138.483-.65.879-1.75.879s-2 .477-2 1.059-.414.803-.919.491-1.549.061-2.319.831c-1.478 1.478-21.259 2.232-20.359.775.249-.402-.977-1.348-2.725-2.102s-4.846-3.044-6.884-5.089-3.951-3.474-4.25-3.175-.544-.458-.544-1.682c0-1.229-.448-1.949-1-1.608-.583.361-1-.656-1-2.441 0-1.682-.45-3.059-1-3.059-.584 0-1-3.353-1-8.059 0-5.118.365-7.833 1-7.441.55.34 1-.219 1-1.242 0-2.281 2.222-7.24 3.25-7.25.413-.004.75-.458.75-1.008s.9-1.9 2-3 2.45-2 3-2 1-.45 1-1 .702-1 1.559-1 1.281-.45.941-1c-.361-.583.656-1 2.441-1 1.682 0 3.059-.382 3.059-.85 0-1.415 14.906-1.08 17.758.399 2.62 1.36 4.242 1.127 4.242-.608 0-.518-.873-.941-1.941-.941s-2.219-.45-2.559-1c-1.133-1.833-15.598-1.037-20.48 1.127m376.742-1.42c1.244.239 3.044.23 4-.02s-.062-.446-2.262-.435-2.982.216-1.738.455m107.735.288c.371.601-.891.941-3.191.859-8.751-.312-22.719 12.966-22.509 21.396.038 1.512-.351 2.75-.864 2.75s-.933 1.8-.933 4 .45 4 1 4 1.007-1.462 1.015-3.25.699-5.05 1.536-7.25c.836-2.2 1.782-4.788 2.102-5.75s.978-1.75 1.464-1.75c.485 0 .883-.591.883-1.313 0-3.67 10.273-10.124 17.753-11.153 14.798-2.035 26.666 6.172 31.042 21.466l1.001 3.5.102-4.809c.063-2.974-.28-4.573-.898-4.191-.569.352-1-.509-1-2s-.431-2.352-1-2c-.55.34-1-.099-1-.974 0-2.067-6.459-8.526-8.526-8.526-.875 0-1.314-.45-.974-1 .352-.569-.509-1-2-1s-2.352-.431-2-1c.378-.611-1.156-1-3.941-1-2.507 0-4.559-.45-4.559-1s-1.152-1-2.559-1c-1.443 0-2.291.434-1.944.995M657 383c0 .55-.927 1-2.059 1s-1.781.45-1.441 1-.099 1-.974 1C648.573 386 640 397.697 640 403.089c0 1.765-.417 2.771-1 2.411-.611-.378-1 1.156-1 3.941 0 2.507.405 4.559.9 4.559s.9 1.673.9 3.717.495 3.881 1.1 4.083 1.1 1.004 1.1 1.783c0 .78.45 1.417 1 1.417s1 .567 1 1.259c0 .693.917 1.833 2.039 2.533 1.121.7 1.727 1.778 1.345 2.395-.408.661-.244.844.4.446.601-.371 1.458-.04 1.905.735 1.288 2.24 8.549 5.91 11.544 5.835 1.503-.038 2.992.351 3.309.864s1.926.933 3.576.933c1.745 0 2.742-.418 2.382-1-.378-.612 1.176-1 4-1s4.378-.388 4-1c-.345-.559.424-1 1.746-1 2.462 0 9.754-5.918 9.754-7.916 0-.631.672-1.405 1.494-1.72.822-.316 1.246-.976.941-1.469-.304-.492-.076-.895.506-.895s1.059-.863 1.059-1.917.435-2.066.966-2.25c1.503-.518 1.733-19.1.243-19.597-.672-.224-.99-.782-.706-1.241.283-.458-.051-1.443-.744-2.188-.692-.745-1.382-1.937-1.532-2.649-.364-1.73-4.852-6.158-6.241-6.158-.607 0-.826-.45-.486-1s-.309-1-1.441-1-2.059-.45-2.059-1-.862-1-1.917-1c-1.054 0-2.079-.489-2.279-1.088-.199-.598-1.699-.935-3.333-.75-2.811.32-2.702.441 2.029 2.25 15.138 5.789 22.326 23.342 15.503 37.858-2.139 4.552-7.029 9.73-9.187 9.73-.566 0-.78.652-.474 1.449.373.973.076 1.265-.906.888-.804-.308-2.136-.001-2.96.683-3.176 2.636-24.476.688-24.476-2.238 0-.43-.819-.782-1.82-.782-4.659 0-11.707-13.641-11.624-22.5.094-10.112 7.425-20.973 16.451-24.372 7.575-2.852 7.742-2.988 3.743-3.06-2.062-.038-3.75.382-3.75.932m-343 1.686c0 1.007 4.195 3.824 5.25 3.526.413-.117.637.351.5 1.038s.346 1.126 1.074.975 1.038.19.687.757c-.351.568.066 1.302.926 1.632.859.33 1.563 1.227 1.563 1.993s.45 1.393 1 1.393.947.337.882.75c-.439 2.781.202 4.566 1.26 3.508 2.196-2.196-5.88-14.956-8.765-13.849-.744.285-1.246-.001-1.115-.636s-.55-1.326-1.512-1.537-1.75-.008-1.75.45m-47.904 7.627c-1.22 2.372-2.328 5.059-2.461 5.971-.134.912-.557 1.971-.939 2.354-.906.905-.908 17.816-.004 18.721.381.381.844 1.693 1.029 2.917s.774 2.374 1.308 2.557c.534.184.971 1.448.971 2.809 0 1.396.436 2.206 1 1.858.55-.34 1 .213 1 1.229 0 1.77 8.729 11.271 10.356 11.271.433 0 1.466.679 2.296 1.509s1.923 1.254 2.429.941c.505-.312.919-.091.919.491s1.35 1.059 3 1.059 3 .399 3 .887c0 1.244 5.91 1.973 8.959 1.105 2.35-.669 2.241-.779-1.459-1.461-5.11-.943-11.831-3.134-15.607-5.086-1.624-.84-3.458-1.214-4.077-.831-.682.421-.847.246-.42-.446.755-1.221-6.122-7.865-7.653-7.393-.49.151-.615-.173-.276-.721.338-.547-.062-2.304-.89-3.904-6.08-11.758-6.094-24.514-.04-36.221 1.685-3.258 1.791-3.929.62-3.929-.463 0-1.841 1.941-3.061 4.313M663 389.15c-4.352 1.174-9.414 4.794-6.75 4.828.962.012 1.75-.455 1.75-1.037s.37-.831.822-.551 2.078-.144 3.614-.941c4.214-2.186 5.936-1.959 14.564 1.926 2.979 1.341 6.37 4.648 6.83 6.661.182.795.693 1.674 1.137 1.955.443.28.825 4.228.847 8.773.024 4.837-.343 8.027-.886 7.691-.805-.497-1.366 1.027-.678 1.84.478.565-5.166 5.705-6.264 5.705-.607 0-.861.394-.563.875.297.481-.67.875-2.15.875s-2.858.506-3.065 1.125c-.441 1.325-5.843 1.524-6.634.244-1.027-1.661-5.574-1.958-5.574-.364 0 1.041.746 1.336 2.524.996 1.388-.266 2.765-.093 3.059.383 1.462 2.366 11.522-.232 15.308-3.954 5.925-5.822 6.814-8.071 6.522-16.497-.372-10.73-4.73-16.856-14.341-20.16-4.929-1.695-5.138-1.703-10.072-.373m105.891.734c-8.685 4.344-12.562 9.254-13.212 16.737-.233 2.683-.215 3.755.039 2.382s.825-2.723 1.269-3 .966-1.628 1.16-3.003c.339-2.398 7.744-11.032 8.925-10.406.314.167 1.846-.358 3.404-1.166 2.685-1.393 9.524-1.698 9.524-.425 0 .328 1.653 1.193 3.673 1.923C788.811 394.784 794 400.599 794 404.5c0 .84.558 2.421 1.241 3.514.987 1.581.987 2.391 0 3.972-.683 1.093-1.241 2.674-1.241 3.514 0 4.676-8.092 12.5-12.927 12.5-1.075 0-2.233.45-2.573 1-.771 1.247-6.214 1.325-6.667.095-.183-.497-1.458-1.06-2.833-1.25-2.156-.297-10.854-7.43-10.787-8.845.133-2.816-.397-5-1.213-5-3.772 0 1.416 9.679 7.283 13.588 13.231 8.815 32.706-1.658 32.706-17.588 0-7.014-7.79-19.477-10.953-17.522-.597.369-.962.11-.811-.576.707-3.206-11.053-4.659-16.334-2.018M448 390.875c0 .481-1.219.875-2.708.875s-2.877.506-3.084 1.125c-.206.619-.934 1.125-1.617 1.125s-2.299 1.125-3.591 2.5-2.013 2.5-1.603 2.5.035.711-.835 1.581c-.869.869-1.348 1.956-1.065 2.414s.003 1.005-.624 1.214c-1.417.472-1.283 14.141.143 14.624.541.184.984 1.108.984 2.054s1.575 3.247 3.5 5.113 3.5 3.047 3.5 2.625.711-.057 1.581.813c.869.869 1.963 1.344 2.431 1.055s1.132-.068 1.478.491c.345.559 2.878 1.016 5.628 1.016 3.079 0 4.763-.384 4.382-1-.352-.57.513-1 2.012-1 1.447 0 3.327-.696 4.178-1.548 1.934-1.933 1.096-2.943-1.354-1.632-6.333 3.389-16.721 2.491-21.366-1.848-1.745-1.63-3.481-2.774-3.857-2.542-.755.467-.892-.233-1.736-8.829-.585-5.952 2.447-15.601 4.901-15.601.515 0 .714-.579.443-1.286-.272-.707.243-1.341 1.143-1.41s3.539-.667 5.866-1.331c14.421-4.112 26.448 8.584 21.687 22.895-1.03 3.098-1.826 6.159-1.769 6.803.057.649-.571.912-1.409.591-.929-.357-1.353-.105-1.1.654.609 1.829 2.148 1.603 3.325-.489.57-1.013 1.603-2.46 2.295-3.215.693-.755 1.023-1.756.734-2.224-.289-.467-.068-1.132.491-1.478 1.314-.812 1.329-12.199.016-13.01-.55-.34-1-1.326-1-2.192 0-.865-.93-2.38-2.066-3.365s-2.036-2.051-2-2.367c.036-.317-.193-.546-.51-.51-.316.036-1.43-.92-2.475-2.125s-3.045-2.191-4.443-2.191-2.786-.394-3.083-.875-2.089-.875-3.982-.875-3.441.394-3.441.875m121.5.125c.365.591-.758 1-2.746 1-3.764 0-10.754 5.488-10.754 8.444 0 .921-.45 1.396-1 1.056-.567-.351-1 .49-1 1.941 0 1.407-.45 2.559-1 2.559-.556 0-1 2.667-1 6 0 3.556.431 6 1.059 6 .582 0 .803.414.491.919s-.002 1.538.691 2.293c.692.755 1.739 2.223 2.326 3.263s1.937 2.371 3 2.958 2.158 1.294 2.433 1.572c2.371 2.397 16 4.096 16 1.995 0-.55 1.013-1.001 2.25-1.001 9.028-.005 16.279-21.761 9.63-28.897-1.077-1.156-1.637-2.102-1.245-2.102.393 0-.343-1.125-1.635-2.5s-2.908-2.5-3.591-2.5-1.417-.525-1.631-1.167c-.214-.641-1.807-1.166-3.54-1.166-1.732 0-2.918-.375-2.635-.834S574.49 390 572.5 390c-2.157 0-3.369.404-3 1m-1.435 2.099c-1.339.535-3.021.748-3.738.473s-1.225-.179-1.129.214-1.315 2.33-3.136 4.306c-3.546 3.847-6.023 9.666-6.047 14.208-.054 10.144 13.142 19.767 23.04 16.802 2.193-.657 4.539-.877 5.216-.488.676.389.885.328.465-.134-.924-1.018 4.22-6.625 5.406-5.893.459.285.585-.136.278-.934s-.076-1.748.512-2.111c2.037-1.259 1.294-14.415-.995-17.631-1.135-1.593-1.74-3.42-1.346-4.059.44-.711.282-.891-.408-.465-.62.383-2.357-.11-3.86-1.095-5.67-3.715-10.335-4.76-14.258-3.193m84.412 2.666c-1.977 1.42-4.369 6.024-4.212 8.106.184 2.442 1.413 1.556 1.901-1.369.184-1.1 1.347-3.033 2.584-4.296 2.896-2.956 2.714-4.586-.273-2.441m-208.616 6.202c-1.299 1.081-1.991 1.981-1.54 2s.209.645-.539 1.394c-.91.91-1.199 2.817-.873 5.75l.489 4.389.59-4.688c.598-4.75 3.211-8.812 5.667-8.812.74 0 1.345-.45 1.345-1 0-1.633-2.608-1.142-5.139.967M455 401c-1.165.753-.872.973 1.309.985 1.866.01 2.57.403 2.096 1.17-.443.715-.275.883.44.44.685-.422 1.155-.078 1.155.846 0 .857.472 1.559 1.049 1.559 2.555 0 .691 9.521-2.469 12.608-3.396 3.319-9.613 4.262-11.679 1.773-.62-.747-1.527-1.112-2.014-.811-.488.301-.887-.18-.887-1.07 0-.975-.462-1.332-1.163-.899-2.052 1.268 4.747 6.399 8.479 6.399 4.124 0 8.83-2.114 8.235-3.699-.247-.66.123-.98.822-.711 2.933 1.125 4.828-9.374 2.51-13.906-1.049-2.051-4.779-5.631-5.883-5.646-.275-.004-1.175.429-2 .962m109.5 1.415c-1.65 1.323-2.665 2.743-2.256 3.156.409.412 1.586-.222 2.617-1.411 1.03-1.188 2.86-2.16 4.065-2.16 1.207 0 1.914-.45 1.574-1-.984-1.592-2.776-1.17-6 1.415m11.034-1.47c-.359.58-.006 1.055.785 1.055.79 0 1.992.67 2.672 1.489s1.572 1.281 1.983 1.027c.41-.254.827 2.714.924 6.594.118 4.663-.174 6.838-.86 6.414-.571-.353-1.038.027-1.038.844s-.788 1.641-1.75 1.832c-1.136.225-1.354.596-.621 1.058.621.391 2.229-.389 3.573-1.733 3.584-3.584 2.903-18.547-.78-17.133-.769.295-1.291.016-1.16-.619.309-1.499-2.876-2.207-3.728-.828M327.969 402c-.117 2.836-.148 14.501-.043 16 .314 4.501 2.043-2.267 2.043-8 0-5.603-1.802-12.812-2-8m-137.634 8.5c-5.871 15.215-6.391 17.282-6.916 27.5-.685 13.31 1.398 35.617 3.594 38.5.419.55 2.19 5.275 3.935 10.5 4.013 12.014 9.23 23.114 10.621 22.599.587-.219 1.037.57 1 1.752-.041 1.279.467 2.038 1.255 1.874.729-.151 1.048.173.709.721-.662 1.071 1.126 5.029 5.33 11.802C212.75 530.399 214 531.079 214 528c0-1.1-.45-2-1-2s-1-.702-1-1.559-.45-1.281-1-.941-1-.309-1-1.441-.477-2.059-1.059-2.059-.803-.414-.491-.919.002-1.53-.691-2.276c-.692-.746-2.334-3.482-3.648-6.081-1.314-2.598-2.803-4.724-3.309-4.724s-.664-.414-.352-.919.002-1.529-.691-2.274c-.692-.745-1.405-2.019-1.584-2.831s-.741-1.626-1.25-1.809-.925-1.395-.925-2.691c0-1.297-.45-2.636-1-2.976s-1-1.491-1-2.559-.394-1.941-.875-1.941-.875-1.219-.875-2.708-.506-2.877-1.125-3.084c-.619-.206-1.125-1.687-1.125-3.291s-.397-2.917-.882-2.917-.908-1.833-.938-4.073c-.031-2.241-.562-4.682-1.179-5.426-.618-.744-1.042-1.949-.943-2.677.672-4.963-.183-14.865-1.228-14.219-.773.478-.965.19-.567-.848.331-.864.92-5.899 1.309-11.191.388-5.291 1.093-9.859 1.567-10.152s.861-2.107.861-4.032c0-2.079.406-3.249 1-2.882.593.367 1-.795 1-2.858 0-1.911.489-3.638 1.088-3.838.598-.199.934-1.699.746-3.333l-.342-2.971zm49.448 5.221c-.694 2.653.253 8.279 1.393 8.279.523 0 .87.788.772 1.75-.352 3.455.07 5.357 1.052 4.75.583-.361 1 .656 1 2.441 0 1.682.45 3.059 1 3.059s1 .9 1 2 .45 2 1 2 1 .702 1 1.559.45 1.281 1 .941c.899-.556 1.433.757 1.118 2.75-.065.413.332.75.882.75s1 .579 1 1.288c0 1.624 9.149 10.712 10.784 10.712.669 0 1.216.45 1.216 1s.9 1 2 1 1.888.337 1.75.75.15.824.638.915c.489.09 1.168.617 1.51 1.169.341.553 1.281 1.154 2.088 1.336.806.181 2.053.873 2.769 1.538.717.664 2.039.925 2.938.58q1.64-.63.912.542c-.63 1.019 1.083 1.479 4.033 1.085.351-.047.952.421 1.335 1.041s2.795 1.22 5.36 1.335 4.664.585 4.665 1.044c.003 1.387 21.814-.875 23.452-2.432.522-.497 1.76-.903 2.75-.903s1.8-.45 1.8-1 .337-.947.75-.882c2.111.334 4.069-.292 5.85-1.868 1.088-.962 2.571-1.879 3.296-2.036 1.691-.366 4.498-3.153 3.839-3.812-.801-.801-9.26 4.375-8.997 5.505.131.561-.437.762-1.263.445s-2.057-.156-2.738.356c-4.47 3.367-19.8 5.25-30.253 3.716-10.1-1.481-22.132-6.33-27.671-11.152-.928-.807-2.16-1.175-2.739-.818-.66.408-.805.007-.389-1.076.501-1.306.268-1.574-.96-1.103-1.2.461-1.461.2-1-1 .486-1.268.209-1.464-1.271-.896-1.041.4-1.568.402-1.171.005 1.012-1.012-2.325-4.476-3.571-3.706-.617.381-.711.13-.238-.635.43-.697.332-1.554-.218-1.905-2.924-1.864-11.205-21.822-11.26-27.138-.037-3.527-1.558-5.782-2.213-3.279m562.594 1.029c-3.029 12.605-12.563 19.788-26.136 19.691-4.98-.035-8.732-.532-9.45-1.25-.655-.655-1.964-1.191-2.908-1.191s-1.866-.337-2.05-.75-1.93-1.941-3.881-3.397c-1.952-1.456-4.978-5.281-6.724-8.5-3.06-5.642-3.176-5.736-3.201-2.603-.015 1.788.45 3.25 1.032 3.25s.799.421.481.935c-.318.515.566 2.08 1.964 3.478s2.644 2.889 2.769 3.314.564.66.977.523c.413-.138.638.266.5.897-.273 1.254 8.899 6.482 13.118 7.478 5.466 1.289 11.132 1.565 11.132.543 0-.569 1.237-1.014 2.75-.989 3.073.051 8.58-2.516 7.568-3.527-.358-.359.143-.652 1.114-.652 2.596 0 10.568-8.84 10.568-11.718 0-1.345.439-2.128 1-1.782.595.368 1-.823 1-2.941 0-4.25-.711-4.605-1.623-.809m-153.745-.905c-.525.815-.36 2.294.419 3.75C650.358 422.038 652 422.82 652 421c0-.55-.42-1-.934-1-.513 0-1.076-1.238-1.25-2.75-.227-1.979-.559-2.373-1.184-1.405m-86.048 2.02c-.81 1.309 3.295 4.661 4.361 3.561.538-.555-.049-1.628-1.464-2.677-1.298-.964-2.602-1.361-2.897-.884M568.5 423c.34.55 2.14 1 4 1s3.66-.45 4-1c.378-.612-1.176-1-4-1s-4.378.388-4 1m148 12c-.34.55-1.941 1-3.559 1s-2.941.477-2.941 1.059-.414.803-.919.491-1.599.111-2.429.941-1.913 1.509-2.406 1.509-1.954 1.125-3.246 2.5-2.025 2.5-1.629 2.5-.434 1.154-1.845 2.565c-1.41 1.41-2.304 2.985-1.986 3.5.318.514.101.935-.481.935S694 453.323 694 454.941s-.45 3.219-1 3.559-1 2.418-1 4.618c0 2.412.397 3.755 1 3.382.55-.34 1-1.7 1-3.022 0-3.286 3.635-12.745 6.106-15.885 1.113-1.416 1.746-3.023 1.407-3.572-.37-.599.073-.733 1.109-.336 1.337.513 1.576.274 1.063-1.063-.369-.962-.253-1.473.262-1.155.508.314 2.416-.248 4.238-1.249 4.101-2.252 10.693-4.218 14.144-4.218 2.959 0 13.671 3.788 13.671 4.835 0 .38 1.008 1.135 2.241 1.678 1.232.543 3.145 2.434 4.25 4.202 1.105 1.769 2.549 3.029 3.208 2.801.713-.246.972.179.638 1.048-.308.804.052 2.2.801 3.102 2.314 2.788 1.746 15.966-.918 21.28-1.491 2.976-1.896 4.778-1.224 5.45s1.004.257 1.004-1.255c0-1.251.446-1.983 1-1.641.887.548 1.182-.142.915-2.138-.047-.351.437-.961 1.076-1.356 1.546-.956 1.645-19.294.107-19.807-.604-.201-1.098-1.403-1.098-2.671 0-2.666-9.984-13.528-12.435-13.528-.861 0-1.565-.45-1.565-1s-1.827-1-4.059-1c-2.451 0-3.814-.396-3.441-1 .381-.616-1.303-1-4.382-1-2.75 0-5.278.45-5.618 1m-393 3.133c-4.931 3.71-13.022 7.499-18.015 8.436-2.702.507-3.337.934-2.273 1.53 2.011 1.125 8.926-.066 8.104-1.397-.394-.638-.01-.799.991-.414.899.345 2.221.084 2.938-.58.716-.665 1.967-1.354 2.779-1.533s1.626-.741 1.809-1.25.998-.925 1.809-.925c.812 0 1.198-.45.858-1s.116-1 1.012-1c1.927 0 4.791-2.618 4.318-3.947-.181-.512-2.13.424-4.33 2.08m388.985 6.976c-5.371 2.843-7.277 4.651-9.219 8.743-2.036 4.29-2.169 15.034-.234 18.863 1.939 3.838 7.959 9.409 9.282 8.591q1.086-.672-.306-1.137c-5.16-1.72-9.692-12.124-8.562-19.657.371-2.472.617-4.753.548-5.069-.26-1.187 8.81-9.443 10.374-9.443.898 0 1.632-.441 1.632-.981 0-.583 1.773-.738 4.368-.382 2.757.378 4.623.186 5.059-.519 1.27-2.055-8.616-1.298-12.942.991M727.5 445c-.34.55.084 1 .941 1s1.761.022 2.009.05c.774.086 6.995 6.654 8.145 8.598 1.473 2.493 1.876 17.352.47 17.352-.586 0-1.065.9-1.065 2s-.393 1.887-.874 1.75c-.481-.138-2.618 1.325-4.748 3.25s-3.988 3.387-4.126 3.25c-.732-.726-4.252-.105-4.252.75 0 .55 1.155 1 2.566 1 4.255 0 10.19-3.968 8.946-5.981-.339-.548-.008-.763.735-.478 4.277 1.641 7.491-15.165 4.335-22.669-2.546-6.055-11.34-12.691-13.082-9.872m-554.287 20.289c-.667 1.844-1.213 4.115-1.213 5.046 0 .93-.396 2.474-.879 3.429-.484.955-1.637 4.661-2.563 8.236a1149 1149 0 0 1-2.634 10c-.522 1.925-1.439 5.75-2.037 8.5-2.049 9.413-3.13 13.629-6.027 23.5-.565 1.925-1.406 5.525-1.869 8-1.306 6.975-4.854 23.058-6.066 27.5-1.15 4.213-2.415 10.916-3.514 18.618-.394 2.762-.219 5.374.435 6.5 1.131 1.946 1.675-1.416 1.193-7.368-.1-1.237.3-2.25.889-2.25.596 0 1.072-1.909 1.072-4.3 0-2.365.461-4.761 1.024-5.324s1.083-2.79 1.155-4.95c.072-2.159.526-4.187 1.009-4.505.483-.319.92-2.682.972-5.25s.487-4.671.967-4.671.873-2.277.873-5.059c0-3.118.384-4.822 1-4.441.611.378 1-1.156 1-3.941 0-2.507.45-4.559 1-4.559s1-1.763 1-3.917.477-4.075 1.06-4.27 1.099-1.919 1.146-3.833.514-3.759 1.039-4.101c.525-.341.955-2.253.955-4.247 0-1.995.405-3.376.9-3.07s.956-.596 1.025-2.003c.185-3.785.302-4.319 1.125-5.142.412-.413.75-2.16.75-3.884s.419-3.56.932-4.083c.513-.522 1.075-2.3 1.25-3.95s.644-3.245 1.043-3.544.849-2.099 1-4 .583-3.689.96-3.975c.376-.285.838-1.635 1.025-3 .87-6.336 3.623-6.596 3.623-.342 0 2.552.422 4.915.938 5.25.516.336.975 2.142 1.021 4.013.046 1.872.599 3.722 1.231 4.112.631.39 1.109.997 1.062 1.348-.372 2.781.077 4.656.982 4.097.587-.363.983-.052.881.691-.397 2.893.098 4.94 1.052 4.35.565-.349 1 .47 1 1.882 0 1.375.45 2.778 1 3.118s1 1.491 1 2.559.45 1.941 1 1.941 1 .9 1 2 .45 2 1 2 1 .9 1 2 .45 2 1 2 1 .9 1 2 .45 2 1 2 1 .59 1 1.311c0 .722.787 2.202 1.75 3.289s1.896 2.636 2.075 3.439c.179.804.741 1.611 1.25 1.794s.925.998.925 1.809c0 .812.45 1.198 1 .858s1 .309 1 1.441.477 2.059 1.059 2.059.779.453.437 1.007c-.343.554.081 1.277.941 1.607.859.33 1.563 1.227 1.563 1.993s.477 1.393 1.059 1.393.779.453.437 1.007c-.343.554.081 1.277.941 1.607.859.33 1.563 1.227 1.563 1.993s.477 1.393 1.059 1.393.832.368.554.818c-.279.45.595 2.005 1.941 3.456 1.345 1.451 2.446 3.135 2.446 3.741s.45.825 1 .485 1 .309 1 1.441.45 2.059 1 2.059 1 .702 1 1.559.45 1.281 1 .941 1 .084 1 .941.45 1.559 1 1.559 1 .675 1 1.5.45 1.5 1 1.5 1 .608 1 1.352c0 .743 1.315 2.728 2.923 4.41s2.668 3.313 2.357 3.625.173.85 1.077 1.196c.904.347 1.643 1.258 1.643 2.024s.45 1.393 1 1.393.947.337.882.75c-.307 1.941.207 3.313 1.047 2.794.51-.315 1.106.446 1.324 1.691.33 1.89.518 1.991 1.141.612.966-2.141-9.293-18.031-11.196-17.342-.716.26-1.016.01-.667-.555.592-.958-9.762-17.072-13.743-21.389-.983-1.066-1.788-2.528-1.788-3.25 0-.721-.374-1.311-.831-1.311s-1.47-1.237-2.25-2.75-1.769-3.2-2.197-3.75-2.833-4.263-5.343-8.252c-2.608-4.144-5.02-6.97-5.626-6.595-.612.378-.77.183-.372-.461.38-.614-2.068-6.871-5.439-13.905-7.874-16.425-8.481-18.044-10.977-29.287-2.801-12.612-5.487-15.977-7.752-9.711m125.44-2.195c1.93.559 4.064.548 5.5-.027 1.884-.755 1.261-.935-3.153-.913-4.974.024-5.198.114-2.347.94m546.505 2.772c-.637 2.126-1.163 4.939-1.169 6.25-.015 3.303-1.656 8.381-8.183 25.319-1.752 4.547-9.468 19.23-10.808 20.565-.275.275-1.165 1.85-1.977 3.5s-4.073 6.92-7.248 11.712C810.03 541.878 809.091 544 811 544c.55 0 1-.627 1-1.393s.739-1.677 1.643-2.024c.904-.346 1.39-.883 1.081-1.192s.348-1.609 1.46-2.887 1.965-2.6 1.897-2.935.986-1.807 2.344-3.271 2.241-3.03 1.962-3.48c-.278-.45-.099-.818.397-.818s1.982-2.138 3.303-4.75 2.971-5.349 3.666-6.081c.696-.731 1.033-1.706.75-2.164-.284-.459-.096-.985.416-1.17s1.077-1.01 1.256-1.835.626-1.729.995-2.009c.368-.281.818-1.17 1-1.977.181-.806.897-2.076 1.589-2.821.693-.745 1.004-1.768.691-2.274-.312-.505-.091-.919.491-.919s1.059-1.377 1.059-3.059c0-1.785.417-2.802 1-2.441.855.528 1.232-.766.915-3.138-.047-.351.425-.954 1.05-1.34.624-.386 1.204-1.786 1.287-3.112.084-1.325.534-2.675 1-3 .467-.324.917-1.674 1-3 .084-1.325.511-2.661.95-2.969s.876-2.555.971-4.995c.096-2.44.739-5.001 1.429-5.691 1.587-1.587 2.188-1.589 2.129-.005-.131 3.543.367 5.808 1.169 5.312.495-.306.9 1.075.9 3.07s.43 3.906.955 4.247c.525.342.991 2.152 1.037 4.023.046 1.872.496 3.672 1 4 .504.329.954 2.129 1 4 .046 1.872.449 3.672.895 4 .447.329.972 1.723 1.166 3.098s.691 2.725 1.105 3c.413.275.788 2.031.834 3.902.046 1.872.615 3.731 1.265 4.133s1.156 2.593 1.125 4.868c-.032 2.276.312 3.91.763 3.631s.844 1.285.875 3.474c.03 2.189.391 4.525.803 5.191.411.666.896 2.565 1.078 4.221.181 1.656.772 3.453 1.314 3.995s.985 2.695.985 4.785.45 3.8 1 3.8 1.014 2.362 1.03 5.25c.025 4.195.244 4.883 1.094 3.422 1.112-1.912.065-9.437-2.877-20.672a521 521 0 0 1-4.184-17 295 295 0 0 0-4.05-15.5c-.481-1.65-1.769-6.375-2.862-10.5a910 910 0 0 0-4.139-15c-1.185-4.125-2.399-8.512-2.699-9.75-.894-3.685-3.844-2.76-5.155 1.616M394 467c0 .55-1.152 1-2.559 1s-2.355.337-2.105.75c.456.753-1.186 2.693-2.586 3.056-.413.107-.712.481-.665.832s-.392.934-.975 1.294c-.612.378-1.347 6.63-1.735 14.755l-.673 14.1-3.601.595c-1.981.328-8.663.601-14.851.607-6.826.007-11.25.404-11.25 1.011 0 .55-.927 1-2.059 1s-1.813.399-1.511.886c.301.488-.347 1.121-1.441 1.407-1.34.35-1.989 1.366-1.989 3.113 0 1.427-.45 2.594-1 2.594-.617 0-1 5.167-1 13.5s.383 13.5 1 13.5c.55 0 1 .695 1 1.545 0 1.543 4.986 7.259 5.015 5.75.009-.437.346-.279.75.351.662 1.032 14.092 2.239 25.858 2.324l4.123.03.656 5.25c.558 4.463 1.228 14.333 1.52 22.4.043 1.182 1.674 3.746 3.624 5.696l3.547 3.547 13.203.303c7.262.167 14.352.17 15.755.007 2.836-.331 7.653-4.04 8.137-6.266.171-.79.76-1.757 1.308-2.148 1.489-1.063 1.275-18.415-.246-19.938-1-1.001-1.25.598-1.25 7.999 0 16.249-2.602 18.544-21.089 18.607-19.901.068-21.09-1.152-21.732-22.288-.284-9.334-.827-14.464-1.557-14.714-.617-.211-7.732-.521-15.812-.689-16.153-.335-18.021-1.033-20.815-7.779-1.34-3.234-.503-32.828.889-31.436.211.211 1.509-.502 2.885-1.584 2.24-1.762 4.1-1.967 17.847-1.967 18.022 0 15.999 2.155 16.789-17.884.569-14.427 1.048-15.747 6.793-18.718 3.317-1.716 24.9-1.951 27.975-.305 1.522.814 2.332.777 3.184-.147.86-.932.853-1.077-.026-.584-.644.361-1.849-.023-2.679-.853C418.86 465.718 394 465.243 394 467m212.5 0c-.34.55-2.166 1-4.059 1s-3.441.47-3.441 1.044-.562.971-1.25.881c-3.004-.39-4.829.138-4.17 1.205.427.69.159.936-.691.632-1.499-.536-6.889 2.165-6.889 3.454 0 .431-.644.784-1.432.784-2.633 0-17.936 16.042-16.547 17.346.936.879 1.346.797 1.72-.346.269-.825 3.476-4.343 7.125-7.819s6.527-6.722 6.396-7.214.432-.638 1.25-.324 1.488.156 1.488-.351c0-1.901 9.048-5.459 20-7.864 15.901-3.493 28.575-.903 43.267 8.844 3.171 2.104 6.279 3.509 6.904 3.122.696-.43.863-.258.43.443-.824 1.333 4.179 6.742 5.21 5.632.379-.408.127-.944-.561-1.189-.687-.246-1.25-.947-1.25-1.559 0-1.579-5.116-6.721-6.687-6.721-.722 0-1.313-.45-1.313-1s-.927-1-2.059-1-1.781-.45-1.441-1-.084-1-.941-1-1.559-.45-1.559-1-.873-1-1.941-1-2.219-.45-2.559-1-1.679-1-2.976-1-2.522-.495-2.724-1.1-2.038-1.1-4.081-1.1c-2.042 0-3.463-.405-3.157-.9.317-.512-4.18-.9-10.444-.9-6.255 0-11.267.431-11.618 1m87.325 2.71c-.607 2.535.154 5.421 1.251 4.743.508-.314.924.556.924 1.933 0 2.719 9.522 13.028 11.12 12.04.484-.299.88-.067.88.515s.862 1.059 1.917 1.059c1.054 0 2.079.487 2.277 1.082.219.656 3.623 1.092 8.665 1.108 7.422.023 8.987-.32 14.723-3.231 3.53-1.792 6.418-3.892 6.418-4.668 0-.775.375-1.177.833-.894.459.283.834-.098.834-.848 0-.982-.78-.786-2.794.703-1.537 1.136-2.564 2.439-2.282 2.896s-.126.584-.908.284c-.781-.3-3.167.462-5.302 1.692-8.972 5.173-22.492 2.208-30.258-6.636-1.814-2.067-3.634-3.29-4.291-2.884-.628.388-.871.268-.54-.267.496-.803-1.765-9.143-2.745-10.123-.161-.162-.486.512-.722 1.496m-269.231.138c-.299.484.345 2.719 1.431 4.968 1.549 3.205 1.975 6.175 1.975 13.758 0 8.829.142 9.553 1.631 8.317 1.834-1.522 1.238-20.067-.665-20.724-.531-.184-.966-1.196-.966-2.25s-.477-1.917-1.059-1.917-.8-.419-.484-.931a1.106 1.106 0 0 0-.372-1.516c-.521-.322-1.192-.189-1.491.295m-28.104 5.168c-.346.559-.956.814-1.357.566-2.792-1.725-3.444 1.629-3.708 19.071-.279 18.483.385 15.439 2.136-9.788l.599-8.635 10.898-.162c15.767-.234 14.942-1.227 14.942 17.967 0 11.497.326 15.965 1.167 15.965.641 0 .87.296.508.658s-.156 1.262.456 2c.848 1.022 5.082 1.35 17.741 1.374 11.49.022 17.119.408 18.218 1.25 1.846 1.414 2.395 21.252.649 23.468-.716.909-5.46 1.25-17.407 1.25-22.325 0-21.332-.994-21.332 21.346v16.437l-2.75.747c-1.512.41-5.832.878-9.598 1.039-12.381.531-8.357 1.884 5.098 1.715 2.337-.029 5.374-.791 6.75-1.692l2.5-1.638v-16.855c0-17.149.754-20.605 4.05-18.568.626.387 8.479.38 17.451-.016l16.313-.72 1.114-4.424c1.326-5.265.42-19.935-1.413-22.884-1.16-1.867-2.479-2.037-18.125-2.329-9.764-.182-17.404-.755-18.132-1.359-.911-.756-1.262-5.354-1.273-16.671-.009-8.596-.452-16.303-.985-17.128s-.99-1.05-1.015-.5-.504.212-1.065-.75c-1.172-2.012-21.234-2.668-22.43-.734m210.01.476c-7.313 1.858-10.701 3.374-10.017 4.481.379.612 1.986.458 4.31-.413 7.05-2.643 22.083-3.925 26.207-2.236.825.338 2.625.755 4 .926 4.85.604 14.567 6.284 20.238 11.83 3.155 3.086 5.968 5.381 6.25 5.099.281-.282.512.238.512 1.154 0 .917.45 1.667 1 1.667 1.736 0 1.087-2.396-1.447-5.342-1.479-1.72-2.922-2.548-3.653-2.096-.779.481-.949.326-.478-.435.708-1.146-4.711-7.127-6.456-7.127-.453 0-1.418-.584-2.145-1.297-5.977-5.865-26.557-9.201-38.321-6.211m-15.014 5.856c-7.062 4.039-9.879 6.362-12.72 10.492-1.763 2.563-3.107 4.773-2.986 4.91.499.567 1.72.194 1.72-.526 0-1.194 9.303-10.224 10.533-10.224.597 0 .807-.45.467-1s.309-1 1.441-1 2.059-.45 2.059-1 .337-.947.75-.882c1.993.315 3.306-.219 2.75-1.118-.747-1.208-1.391-1.152-4.014.348m70.983 6.702c-.95 1.538.351 2.53 1.635 1.246.718-.718.735-1.277.052-1.699-.56-.346-1.319-.142-1.687.453m-51.089.756c.369.596-.816.955-2.95.895-1.96-.056-3.922.477-4.359 1.184s-1.082 1.247-1.433 1.2c-2.421-.324-3.739.295-6.74 3.163-1.869 1.786-3.623 3.248-3.898 3.25s-.35.452-.167 1.002c.184.55-.005.662-.419.248-.955-.955-4.551 2.222-3.831 3.386.934 1.512 2.656.932 2.035-.686-.327-.854-.174-1.292.34-.974 1.32.816 10.004-5.719 9.532-7.173-.229-.708.211-.969 1.074-.638.804.308 2.18-.035 3.058-.764 2.254-1.87 19.558-1.828 25.378.063 5.96 1.936 14.254 7.25 16.381 10.496.95 1.45 2.199 2.301 2.817 1.919.62-.383.833-.236.482.332-.347.561.365 2.993 1.581 5.405 3.402 6.748 3.139 23.192-.494 30.886-2.984 6.319-4.869 8.635-9.767 11.999-1.925 1.323-3.734 2.735-4.02 3.14-.286.404-2.686 1.663-5.333 2.798-9.194 3.941-22.929 2.43-31.932-3.513-2.082-1.374-4.214-2.234-4.739-1.909-.548.338-.672-.144-.291-1.137.501-1.306.268-1.574-.96-1.103-1.2.461-1.461.2-1-1 .46-1.2.2-1.46-1-1-1.143.439-1.459.194-1.067-.826.306-.797.084-1.449-.492-1.449-2.474 0-1.82 1.932 1.875 5.54 2.178 2.126 3.959 3.55 3.959 3.163s.9.197 2 1.297 2.638 2 3.417 2 1.566.429 1.75.953c1.058 3.024 23.729 4.995 25.808 2.243.289-.383 1.65-.822 3.025-.975s2.65-.717 2.833-1.25c.184-.534.902-.971 1.598-.971.695 0 4.101-2.7 7.569-6s5.926-6 5.462-6 .029-.661 1.097-1.468c1.067-.808 1.571-1.483 1.12-1.5-.452-.018-.111-.743.759-1.613.869-.869 1.348-1.956 1.065-2.414s-.018-1 .591-1.203c.608-.203 1.106-2.041 1.106-4.085s.405-3.717.9-3.717c1.237 0 1.143-10.732-.1-11.5-.55-.34-1-2.14-1-4s-.45-3.66-1-4-1-1.491-1-2.559-.34-1.941-.756-1.941-1.354-1.353-2.086-3.006-1.742-2.751-2.244-2.441-.914.068-.914-.539c0-1.679-4.695-6.014-6.514-6.014-.882 0-1.326-.45-.986-1s-.084-1-.941-1-1.559-.45-1.559-1-1.377-1-3.059-1-2.81-.403-2.506-.895c.58-.938-3.914-1.833-13.803-2.75-3.772-.35-5.647-.189-5.252.451m53.036 2.444c.321.688.867 2.063 1.215 3.057.363 1.037 1.237 1.574 2.052 1.261.782-.3 1.155-.116.831.409s.247 2.657 1.269 4.739 2.442 5.809 3.154 8.284a630 630 0 0 0 2.18 7.399c2.988 9.808-.662 27.838-8.265 40.819-1.52 2.596-2.364 4.966-1.877 5.267.488.301 1.169.09 1.515-.469s.359-1.016.03-1.016.32-.985 1.441-2.189c1.121-1.203 2.039-2.778 2.039-3.5 0-.721.45-1.311 1-1.311s1-.873 1-1.941.45-2.219 1-2.559 1-1.679 1-2.976.495-2.522 1.1-2.724 1.1-2.039 1.1-4.083.405-3.717.9-3.717c1.1 0 1.215-18.687.119-19.365-.43-.266-.892-1.929-1.027-3.697s-.557-3.715-.939-4.326c-.383-.612-.807-1.828-.943-2.702-.344-2.204-5.924-12.667-7.705-14.448-1.791-1.791-2.979-1.906-2.189-.212m-99.175 4.736c-.683 1.093-1.241 2.893-1.241 4s-.45 2.014-1 2.014-1 .9-1 2-.45 2-1 2-1 1.827-1 4.059c0 2.264-.414 3.803-.935 3.481-.551-.34-1.065 3.748-1.25 9.943-.173 5.787.058 10.52.514 10.519.457-.001.57 1.46.253 3.248-.438 2.469-.354 2.769.35 1.25.51-1.1.979-6.275 1.042-11.5.106-8.839 1.644-17.952 3.311-19.618.393-.394.715-1.739.715-2.99s.489-2.576 1.087-2.946c.598-.369.869-1.506.603-2.525-.268-1.022.003-1.756.603-1.637.599.119 1.26-.572 1.471-1.534.516-2.36-.99-2.219-2.523.236m262.435-.584c-.565 1.472.082 2.598 1.491 2.598.458 0 .833-.9.833-2 0-2.293-1.523-2.685-2.324-.598M611.5 497.243c-8.862 2.193-17.5 7.807-17.5 11.373 0 .761-.395 1.384-.879 1.384-.483 0-1.42 1.462-2.083 3.25s-1.617 4.031-2.121 4.986c-2.382 4.512.088 20.764 3.155 20.764.576 0 .779.432.452.961-.891 1.441 3.77 8.104 5.278 7.545.734-.272 1.017-.023.65.572-.359.58.18 1.686 1.198 2.457 8.606 6.521 21.262 7.469 31.278 2.343 6.556-3.356 11.514-8.283 10.637-10.57-.298-.777-.133-1.159.368-.849 1.674 1.034 4.211-5.884 4.752-12.959.58-7.595-.671-14.164-2.615-13.725-.67.151-.954-.153-.632-.675.917-1.483-1.644-6.235-3.065-5.69-.836.321-1.058-.068-.648-1.135.46-1.2.2-1.46-1-1-1.2.461-1.461.2-1-1 .46-1.2.2-1.46-1-1-1.062.408-1.456.187-1.139-.638.588-1.534-3.948-4.149-5.515-3.181-.616.381-.997.163-.846-.484.621-2.657-10.867-4.427-17.725-2.729m.356 1.679c-.196.584-1.593 1.163-3.106 1.287-1.513.125-2.75.579-2.75 1.009s-.734.782-1.632.782c-2.452 0-9.899 7.983-11.427 12.25-.739 2.063-1.634 3.75-1.99 3.75-1.908 0-.983 14.555 1.204 18.942 2.078 4.17 11.32 14.729 13.095 14.96.413.054 1.452.098 2.309.098s1.295.427.972.95c-.356.576 2.964.898 8.441.819 4.965-.071 9.028-.499 9.028-.949 0-.451.681-.82 1.514-.82 3.396 0 10.795-6.213 13.405-11.257.78-1.509 1.793-2.743 2.25-2.743s.831-1.548.831-3.441.45-3.719 1-4.059 1-2.391 1-4.559-.45-3.941-1-3.941-1-1.131-1-2.514c0-5.098-8.596-15.194-15.288-17.954-2.317-.956-4.887-2.057-5.712-2.447-2.499-1.182-10.76-1.303-11.144-.163m47.687.009c-.317.512-.147 1.196.377 1.52 1.243.768 4.08 6.472 4.08 8.203 0 .74.337 1.347.75 1.348s.869 1.666 1.015 3.7.637 3.946 1.092 4.248c1.005.668.935 15.101-.081 16.662-.398.611-.831 2.524-.962 4.25-.132 1.726-.594 3.138-1.027 3.138s-.787.661-.787 1.47-.9 3.072-2 5.03-2 4.249-2 5.089-.45 1.251-1 .911-1 .335-1 1.5-.45 1.84-1 1.5-1-.121-1 .486c0 1.262-4.502 6.012-5.705 6.019-.437.002-2.158 1.24-3.824 2.75s-3.691 2.891-4.5 3.07-1.622.744-1.806 1.256c-.185.512-.711.7-1.17.416-.458-.283-1.433.051-2.164.744-.732.692-2.456 1.418-3.831 1.612s-2.725.702-3 1.128c-.692 1.074-23.369.981-24.056-.098-.306-.48-1.768-.974-3.25-1.096s-2.694-.575-2.694-1.005-1.125-.782-2.5-.782-2.5-.45-2.5-1-.638-1-1.417-1-1.566-.416-1.75-.925-.979-1.071-1.768-1.25c-1.724-.391-12.065-10.402-12.065-11.681 0-.494-.653-1.441-1.452-2.104-1.895-1.573-6.548-10.936-6.548-13.177 0-.96-.369-1.973-.82-2.252-1.192-.737-1.34-24.611-.153-24.611.535 0 .973-1.35.973-3s.45-3 1-3 1-.707 1-1.571c0-.865.679-2.251 1.509-3.081 1.451-1.451 1.219-3.348-.411-3.348-1.047 0-4.601 7.49-5.986 12.616-2.287 8.465-.978 29.367 2.057 32.834.457.522.831 1.808.831 2.857 0 1.313.484 1.721 1.552 1.311.854-.327 1.298-.184.987.319-.9 1.456 1.687 6.19 3.088 5.653.739-.284 1.064.053.775.804-.685 1.786 9.688 12.101 14.783 14.701 10.861 5.54 16.932 7.119 27.6 7.178 6.565.036 10.707-.365 11.45-1.108.641-.641 1.936-1.165 2.879-1.165 7.656 0 30.938-19.87 28.295-24.148-.451-.73-.281-.891.459-.433 1.717 1.06 5.572-8.433 7.074-17.419 1.555-9.306-.297-21.938-4.466-30.459-2.656-5.428-3.779-6.478-4.933-4.61M826 498.8c0 .66.112 1.345.25 1.521.138.177-.542 1.113-1.509 2.081-.968.968-1.527 2.135-1.244 2.593.284.459.096.985-.416 1.17s-1.077.999-1.256 1.811-.892 2.086-1.584 2.831-1.004 1.768-.691 2.274c.312.505.091.919-.491.919s-1.059.675-1.059 1.5-.45 1.5-1 1.5-1 .675-1 1.5-.374 1.5-.831 1.5-1.45 1.237-2.207 2.75-2.027 3.538-2.824 4.5-1.135 1.75-.753 1.75c.383 0-.423 1.207-1.791 2.682s-2.26 3.05-1.981 3.5.028.818-.554.818-1.059.567-1.059 1.259c0 .693-.9 1.822-2 2.509s-2 1.92-2 2.74-.45 1.492-1 1.492-1 .927-1 2.059-.45 1.781-1 1.441-1 .084-1 .941-.45 1.559-1 1.559-1 .567-1 1.259c0 .693-.9 1.822-2 2.509s-2 1.92-2 2.74-.45 1.492-1 1.492-1 .927-1 2.059-.45 1.781-1 1.441-1-.117-1 .495c0 .613-1.348 2.552-2.995 4.309s-2.998 3.552-3 3.988c-.003.435-.905 1.758-2.005 2.938s-2 3.214-2 4.518c0 1.325-.441 2.098-1 1.752-.569-.352-1 .509-1 2s-.431 2.352-1 2-1 .509-1 2-.431 2.352-1 2c-.87-.538-1.475 1.49-1.118 3.75.065.413-.332.75-.882.75s-1 1.773-1 3.941-.45 4.219-1 4.559c-1.319.815-1.319 17.5 0 17.5.55 0 .947.337.882.75-.474 3.002.285 8.265 1.118 7.75.583-.361 1 .656 1 2.441 0 1.682.45 3.059 1 3.059s1 1.152 1 2.559c0 1.451.433 2.292 1 1.941s1 .49 1 1.941c0 1.407.45 2.559 1 2.559s1 .675 1 1.5.45 1.5 1 1.5 1-.9 1-2-.34-2-.756-2-1.361-1.462-2.101-3.25a329 329 0 0 0-2.721-6.354c-6.145-13.851-5.455-29.174 1.999-44.396 2.02-4.125 3.477-8.254 3.239-9.175-.255-.985.044-1.492.726-1.23.638.244 1.952-.898 2.922-2.539.969-1.641 2.334-3.562 3.032-4.27s3.236-4.211 5.64-7.786 4.63-6.725 4.948-7c1.878-1.624 6.98-11.339 6.426-12.235-.376-.609-.197-.786.413-.409 1.05.649 2.875-1.698 11.938-15.356 2.372-3.575 4.726-7.009 5.232-7.631 1.012-1.245 4.896-8.738 7.608-14.677 1.303-2.854 1.452-4.095.597-4.95-.856-.856-1.142-.841-1.142.058m-398 1.593c0 .766.685 1.656 1.523 1.978 1.243.476 1.328.22.465-1.394-1.241-2.318-1.988-2.537-1.988-.584m2 4.607c0 .622 5.647 1 14.941 1 8.882 0 15.192-.406 15.559-1 .402-.65-4.823-1-14.941-1-9.706 0-15.559.376-15.559 1m153.926 3.433c-1.146 2.438-2.173 5.026-2.283 5.75s-.547 1.873-.971 2.552c-1.241 1.986-.93 18.488.363 19.287.625.386 1.097.989 1.05 1.34-.429 3.209.025 5.015.915 3.638.74-1.145.973-.76.985 1.628.016 3.366 2.336 6.279 3.5 4.396.365-.591.085-.95-.622-.799-.746.16-1.361-.775-1.463-2.225-.097-1.375-.902-5.109-1.788-8.299-2.545-9.156-1.306-20.94 2.873-27.319 1.746-2.665 1.95-4.382.52-4.382-.547 0-1.932 1.995-3.079 4.433m-120.665-.442c5.413 4.258 6.443 29.141 1.478 35.715-.501.664-.575 1.789-.165 2.5.411.712.378.96-.072.553-.45-.408-1.33-.317-1.956.203-.626.519-7.642 1.025-15.592 1.123-15.733.195-16.954.385-16.954 2.644 0 1.193.301 1.266 1.414.343.966-.802 5.892-1.099 15.576-.937 7.942.132 14.459-.175 14.836-.7.371-.514 1.574-1.456 2.674-2.092s1.888-1.649 1.75-2.25.2-1.093.75-1.093 1-.873 1-1.941.45-2.219 1-2.559c2.746-1.697.582-27.486-2.495-29.735-.553-.404-.612-.741-.133-.75 1.86-.032-1.731-3.015-3.629-3.015-1.843 0-1.8.168.518 1.991m-109.087 6.323c-2.468 2.628-3.19 18.474-1.112 24.435 1.285 3.684 2.456 3.901 22.438 4.165 7.699.102 14.302.5 14.671.886.37.385.82 7.944 1.001 16.799.24 11.779.696 16.541 1.7 17.75 1.497 1.8 5.128 2.261 5.128.651 0-.55-.837-1-1.861-1-2.197 0-2.794-3.603-3.81-23-.811-15.485-.387-15.05-14.329-14.736-5.775.13-13.464.055-17.086-.166l-6.587-.403-.123-12.063c-.087-8.465.237-12.293 1.086-12.833.666-.422 8.999-.775 18.519-.784 11.281-.01 17.094-.363 16.691-1.015-.372-.602-7.286-1-17.385-1-16.233 0-16.836.074-18.941 2.314m-139.492 15.412c-.424.675-.178 2.25.546 3.5 5.253 9.072 6.792 10.692 6.502 6.843-.08-1.062-.502-1.71-.938-1.441-.435.27-.792-.463-.792-1.628s-.45-1.84-1-1.5c-.899.556-1.433-.757-1.118-2.75.065-.413-.299-.75-.809-.75-.509 0-1.082-.788-1.273-1.75-.249-1.254-.565-1.402-1.118-.524m345.392 13.083c-.045 2.634.315 4.069.926 3.691.583-.361 1 .656 1 2.441 0 1.682.45 3.059 1 3.059s1 .927 1 2.059.45 1.781 1 1.441c.916-.566 1.445.8 1.094 2.824-.079.454.318.54.881.191.564-.348 1.025-.156 1.025.426s.398 1.059.885 1.059c.486 0-.414-2.502-2-5.56s-2.918-6.095-2.959-6.75c-.041-.654-.908-2.99-1.926-5.19l-1.852-4zm-337.438-1.007c-.515.819.405 3.318 2.484 6.75 3.489 5.755 4.88 6.738 4.88 3.448 0-1.1-.45-2-1-2s-1-.702-1-1.559-.45-1.281-1-.941-1-.309-1-1.441-.417-2.059-.927-2.059c-.509 0-1.082-.788-1.273-1.75-.264-1.334-.541-1.44-1.164-.448m584.883 4.137c-.357 1.127-1.2 2.614-1.871 3.305-1.87 1.923-9.648 13.25-9.648 14.049 0 .389.45.707 1 .707s1-.702 1-1.559.461-1.274 1.025-.926c.563.349.96.263.881-.191-.351-2.024.178-3.39 1.094-2.824.55.34 1-.084 1-.941s.45-1.559 1-1.559 1-.9 1-2 .563-1.888 1.25-1.75 1.138-.312 1-1 .2-1.25.75-1.25.947-.337.882-.75c-.271-1.716.168-3.233.868-3 .413.138.896-.189 1.075-.725a1.04 1.04 0 0 0-.665-1.305c-.545-.182-1.283.592-1.641 1.719m-576.954 7.955c-.92 1.489 3.688 8.187 5.237 7.612.716-.266 1.066-.101.778.365-.626 1.013 1.597 6.11 2.67 6.121.412.004.75-.892.75-1.992s-.45-2-1-2-1-.608-1-1.352c0-.743-1.352-2.766-3.005-4.495s-2.965-3.409-2.916-3.732c.174-1.162-.892-1.533-1.514-.527m641.246 1.778c-.546 2.731.295 7.381 1.23 6.803.449-.278.816 2.043.816 5.157s.412 5.933.915 6.265.985 2.602 1.072 5.044c.086 2.443.563 4.693 1.059 5s.921 2.992.944 5.965c.022 2.974.426 5.674.897 6 .472.327.951 3.045 1.065 6.04.115 2.996.575 5.696 1.022 6s.849 1.791.892 3.304c.042 1.513.122 4.802.177 7.309.066 2.99.472 4.329 1.18 3.892.724-.448 1.024.932.911 4.191-.403 11.607.046 20.453 1.009 19.858.654-.404.976 6.056.93 18.691-.043 11.716-.409 18.523-.93 17.309-.563-1.31-.884 1.335-.93 7.667-.04 5.474-.503 9.811-1.068 10-.548.183-1.069 2.358-1.156 4.833-.088 2.475-.532 4.747-.988 5.05s-.947 2.136-1.093 4.075c-.256 3.403-.414 3.533-4.539 3.747-2.782.145-4.818-.321-5.831-1.334-.856-.856-1.939-1.32-2.407-1.031s-1.132.068-1.478-.491c-.345-.559-1.753-1.016-3.128-1.016s-2.281-.355-2.013-.788-.943-1.41-2.691-2.17-3.407-1.719-3.687-2.132c-.281-.412-1.181-.898-2-1.08-.82-.181-2.194-1.089-3.054-2.018s-2.19-1.828-2.955-2-2.453-1.333-3.751-2.581-2.792-2.002-3.32-1.676c-.528.327-.837.155-.686-.381s-.062-1.02-.473-1.076-4.625-3.814-9.363-8.35-9.014-8.136-9.502-7.998-.774-.313-.637-1c.138-.688-.312-1.138-1-1s-1.137-.313-1-1c.138-.688-.312-1.138-1-1s-1.137-.313-1-1c.138-.688-.346-1.126-1.074-.975s-1.092-.102-.807-.563-1.932-3.408-4.926-6.549c-2.993-3.14-5.453-6.037-5.466-6.437-.039-1.23-6.995-8.541-7.575-7.961-.982.981 4.058 7.739 5.4 7.241.719-.267 1.016-.021.664.549-1.263 2.044 16.859 22.418 19.157 21.536.84-.322 1.063.065.652 1.134-.46 1.2-.2 1.46 1 1 1.2-.461 1.461-.2 1 1-.46 1.2-.2 1.46 1 1 1.054-.405 1.456-.187 1.146.621-.489 1.273.095 1.86 9.594 9.654 3.017 2.475 6.357 5.288 7.424 6.25 1.066.962 2.528 1.75 3.25 1.75.721 0 1.311.45 1.311 1s.563 1.001 1.25 1.001c.688.001 2.464 1.046 3.948 2.322s5.984 3.562 10 5.08 8.202 3.136 9.302 3.596c8.941 3.737 10.705 3.147 11.877-3.97.32-1.941 1.059-5.554 1.644-8.029 5.239-22.18 4.299-71.09-2.056-107-.633-3.575-1.51-8.75-1.95-11.5-1.004-6.274-2.577-14.515-4.009-21-.607-2.75-1.475-6.705-1.928-8.79-.978-4.497-1.764-5.551-2.267-3.038m-301.306 7.32c-.343.555-.071 1.008.603 1.008s.921.304.55.676c-.732.732 3.163 5.324 4.515 5.324.454 0 2.679 1.8 4.946 4s4.968 4 6.002 4 1.879.45 1.879 1 .675 1 1.5 1 1.5.45 1.5 1 .873 1 1.941 1 2.219.45 2.559 1 2.129 1 3.976 1 3.518.483 3.715 1.072c.44 1.322 26.717 1.622 27.664.317.355-.489 1.75-1.013 3.101-1.164s2.701-.601 3-1 1.444-.88 2.544-1.07c2.768-.478 3.083-.994 1.076-1.764-.941-.361-2.693-.189-3.893.383-5.503 2.623-11.745 3.393-22.798 2.813-17.37-.911-17.681-.954-17.151-2.337.264-.687-.229-1.25-1.097-1.25-2.145 0-8.069-3.381-14.342-8.187-2.863-2.193-5.67-3.699-6.238-3.348-.64.395-.782-.019-.372-1.087.513-1.337.274-1.576-1.063-1.063-1.034.397-1.479.263-1.11-.334.338-.548-.059-1.671-.884-2.496-.931-.931-1.737-1.118-2.123-.493m220.856 5.291c-14.487 19.462-19.651 36.336-15.909 51.993 1.491 6.241 8.367 21.724 9.647 21.724 1.518 0 1.904-1.855.66-3.169-1.797-1.9-5.759-9.759-5.759-11.426 0-.773-.45-1.405-1-1.405s-1-1.602-1-3.559-.391-3.317-.869-3.022-.931-3.982-1.007-9.504c-.089-6.517.216-9.823.869-9.419.604.373 1.007-.803 1.007-2.937 0-1.957.45-3.559 1-3.559s1-.873 1-1.941.45-2.219 1-2.559 1-1.743 1-3.118c0-1.412.435-2.231 1-1.882.55.34 1-.335 1-1.5s.45-1.84 1-1.5c.899.556 1.433-.757 1.118-2.75-.065-.413.332-.75.882-.75s1-.608 1-1.352c0-.743 1.35-2.764 3-4.491s3-3.818 3-4.648.337-1.397.75-1.259.896-.189 1.075-.725c.856-2.567-1.654-1.017-4.464 2.758M657 569.13c-2.475 2.162-4.376 4.401-4.225 4.975s-.123.798-.61.497c-1.324-.818-6.228 1.73-5.757 2.992.252.674-.516.917-1.999.633-2.46-.47-3.424 1.24-1.159 2.057 1.394.503 6.75-2.274 6.75-3.5 0-.431.563-.789 1.25-.795 1.692-.014 11.021-8.703 10.591-9.865-.187-.509-2.366.844-4.841 3.006m-416.501-1.129c-.351.569.662 2.714 2.253 4.767 3.567 4.603 10.525 19.088 12.23 25.459 2.58 9.641.343 25.347-5.206 36.551-1.62 3.27-1.843 4.555-.948 5.45.896.896 1.172.654 1.172-1.028 0-1.21.45-2.2 1-2.2s1-1.152 1-2.559c0-1.451.433-2.292 1-1.941.583.361 1-.656 1-2.441 0-1.682.45-3.059 1-3.059s1-1.575 1-3.5.45-3.5 1-3.5c.6 0 1-4 1-10 0-5.5-.405-10-.9-10s-.9-1.673-.9-3.717-.495-3.881-1.1-4.083-1.1-1.481-1.1-2.842c0-1.396-.436-2.206-1-1.858-.55.34-1-.257-1-1.327 0-2.503-2.497-7.343-3.348-6.491-.359.358-.652.126-.652-.515 0-2.171-.265-2.664-2.134-3.974-1.026-.718-1.866-2.181-1.866-3.25s-.477-1.943-1.059-1.943-.8-.419-.484-.931a1.106 1.106 0 0 0-.372-1.516c-.521-.322-1.234-.12-1.586.448M242 586.559c0 1.451.433 2.292 1 1.941.583-.361 1 .656 1 2.441 0 1.682.45 3.059 1 3.059s1 1.35 1 3 .454 3 1.01 3c.618 0 .97 3.87.907 10.002-.058 5.707-.492 9.761-1.009 9.441-.5-.309-.908 1.041-.908 2.998s-.45 3.559-1 3.559-1 1.125-1 2.5-.45 2.5-1 2.5-1 1.152-1 2.559c0 1.451-.433 2.292-1 1.941-.55-.34-1 .028-1 .819s-.67 1.992-1.489 2.672-1.242 1.635-.941 2.122c.301.488.071.887-.511.887s-1.059.9-1.059 2-.405 1.888-.9 1.75c-1.132-.314-1.547 1.604-.425 1.966.859.276 7.98-10.204 9.961-14.661 4.71-10.591 6.65-25.142 4.364-32.734-.55-1.827-1.492-5.008-2.093-7.071-2.533-8.694-4.907-11.931-4.907-6.691m-97.262.441c-.967 3.402-.892 8.209.155 9.861 1.116 1.761 1.819-3.986 1.084-8.861-.496-3.295-.569-3.353-1.239-1m-2.048 13.5c-.436 2.2-1.194 5.8-1.684 8s-1.158 7.6-1.485 12-1.039 11.375-1.583 15.5c-3.253 24.676-2.073 53.006 3.041 73 .492 1.925 1.432 5.638 2.088 8.25 1.183 4.711 4.606 6.706 6.433 3.75.34-.55 1.491-1 2.559-1s1.941-.45 1.941-1-1.35-1-3-1-3 .45-3 1-.398 1-.883 1c-.917 0-1.994-2.699-2.788-6.981-.252-1.365-.919-2.765-1.48-3.113-.562-.347-.931-1.48-.82-2.518.442-4.148-.081-8.474-.96-7.931-1.075.665-1.924-11.174-2.614-36.457-.323-11.807-.154-17.012.518-16 .692 1.042 1.006-2.015 1.027-10 .021-7.799.343-11.017 1-10 .665 1.029.974-1.379.985-7.667.009-5.52.434-9.306 1.069-9.518.638-.212.93-2.907.741-6.833-.3-6.216-.345-6.318-1.105-2.482m365.7 21.253c-91.862.166-141.143.6-141.793 1.25-.549.549-2.407.997-4.13.997-1.724 0-3.447.313-3.829.696s-1.442.805-2.354.939c-2.13.312-10.68 4.631-11.117 5.615-.184.413-.971.75-1.75.75-.78 0-1.417.45-1.417 1s.293 1 .65 1c1.464 0 11.299-5.273 10.935-5.862-.217-.351.801-.72 2.26-.821 1.46-.101 5.13-.653 8.155-1.228 13.168-2.5 29.585-2.764 156.378-2.513 117.031.231 151.81-.211 133.465-1.698-2.561-.208-68.015-.264-145.453-.125M660 625c0 .55.81 1 1.8 1s2.228.358 2.75.796 2.642 1.368 4.711 2.068c2.068.7 6.672 3.042 10.232 5.205 3.559 2.162 6.891 3.931 7.406 3.931s1.135.563 1.381 1.25c.245.688.786.934 1.202.548 1.012-.94-1.931-3.798-3.911-3.798-.864 0-1.458-.562-1.321-1.25.138-.687-.312-1.138-1-1s-1.25-.2-1.25-.75-.927-1-2.059-1-1.781-.45-1.441-1c.352-.569-.509-1-2-1s-2.352-.431-2-1-.509-1-2-1-2.352-.431-2-1c.615-.996-1.321-1.408-4.859-1.034-1.11.118-1.59-.239-1.191-.885.412-.667-.311-1.081-1.891-1.081-1.407 0-2.559.45-2.559 1m-282 3.978c-1.375.444-5.875 1.373-10 2.065-7.146 1.199-20 6.436-20 8.149 0 .445-.481.808-1.07.808-3.379 0-19.117 13.864-20.429 17.996-.35 1.102-1.104 2.004-1.675 2.004-.572 0-.79.652-.484 1.449.392 1.02.076 1.265-1.067.826-1.228-.471-1.461-.203-.96 1.103.377.983.256 1.475-.283 1.142-1.226-.758-4.402 4.073-3.566 5.425.351.567.052.824-.664.57-.724-.257-2.854 1.636-4.796 4.261-1.921 2.598-3.766 4.949-4.1 5.224-1.368 1.127-2.958 5.108-2.4 6.009.329.533.012.751-.704.486s-2.202.812-3.302 2.395-4.383 6.314-7.295 10.515-4.981 8.149-4.596 8.772c.443.715.251.854-.521.377-1.385-.856-1.654-.545-10.194 11.782-4.499 6.493-5.826 9.132-5.008 9.95.819.819 1.114.798 1.114-.078 0-.656.946-2.281 2.103-3.611 1.156-1.33 2.054-2.686 1.995-3.012s1.245-2.008 2.897-3.738c1.653-1.729 3.005-3.551 3.005-4.05s1.348-2.344 2.995-4.101 2.998-3.758 3-4.446c.003-.687.455-1.25 1.005-1.25s1-.9 1-2 .338-1.887.75-1.75a.786.786 0 0 0 .995-.504c.135-.415 1.598-2.169 3.25-3.899 1.653-1.729 3.005-3.551 3.005-4.05s1.348-2.344 2.995-4.101 2.998-3.53 3-3.938c.003-.409.951-1.831 2.108-3.161 1.156-1.33 1.951-2.571 1.766-2.758s1.569-2.362 3.897-4.834c2.329-2.472 4.234-5.059 4.234-5.75s.525-1.255 1.167-1.255c.641 0 .882-.285.534-.633s.477-1.505 1.833-2.572 2.466-2.364 2.466-2.882c0-.967 15.704-17.055 17.5-17.927.55-.267.887-.823.75-1.236-.233-.7 1.284-1.139 3-.868.413.065.75-.332.75-.882s.563-.887 1.25-.75c.688.138 1.137-.312 1-1-.145-.727.772-1.25 2.191-1.25 1.343 0 2.719-.45 3.059-1s1.491-1 2.559-1 1.941-.358 1.941-.796c0-.437 1.674-.908 3.719-1.046 2.046-.137 3.985-.679 4.308-1.202.369-.597 53.459-.926 142.031-.881 77.793.04 142.455.044 143.692.01s2.25.382 2.25.926 1.8.989 4 .989 4 .45 4 1 .632 1 1.405 1c1.85 0 9.421 3.969 12.401 6.5 1.295 1.1 2.577 1.858 2.85 1.684.272-.173 1.302.614 2.287 1.75s2.328 2.066 2.983 2.066.914.45.574 1 .11 1 1 1c.968 0 1.332.464.905 1.155-.443.715-.275.883.44.44.635-.392 1.155-.282 1.155.245s2.25 3.255 5 6.064c2.75 2.808 5.002 5.441 5.005 5.851.002.41 1.352 2.183 3 3.941 1.647 1.757 2.995 3.76 2.995 4.45 0 .907.302.952 1.093.161 1.819-1.819-2.933-9.142-5.074-7.819-.548.339-.76.001-.472-.751s-.504-2.506-1.761-3.898a173 173 0 0 1-4.286-4.96c-3.585-4.354-14.42-13.046-15.462-12.403-.576.357-.78.014-.47-.792.854-2.225-14.513-9.139-23.568-10.603-4.125-.667-9.134-1.635-11.131-2.151-4.475-1.157-263.282-1.111-266.869.048m-38.118 4.713a6.2 6.2 0 0 0 0 1.559c.065.413-.577.75-1.427.75-1.741 0-6.963 4.826-6.127 5.662.298.297 1.808-.635 3.357-2.072 1.548-1.437 3.603-2.862 4.565-3.168s1.75-.95 1.75-1.43c0-1.146-1.965-2.352-2.118-1.301m350.813 5.948c-1.254 1.254-.727 2.587.793 2.004.86-.33 1.388-.059 1.25.643-.131.668.308 1.107.976.976.751-.147.971.396.576 1.424-.476 1.24-.226 1.503.985 1.039 1.2-.461 1.461-.2 1 1-.46 1.2-.2 1.46 1 1 1.2-.461 1.461-.2 1 1-.46 1.2-.2 1.46 1 1 1.2-.461 1.461-.2 1 1-.451 1.177-.197 1.459.927 1.028.878-.337 1.495-.088 1.424.576-.143 1.329 11.472 17.538 12.624 17.619.413.028.75-.623.75-1.448s-.45-1.5-1-1.5-1-.675-1-1.5-.45-1.5-1-1.5-1-.702-1-1.559-.45-1.281-1-.941-1-.035-1-.834-.704-1.722-1.563-2.052c-.875-.336-1.248-1.111-.846-1.761.446-.723.281-.892-.436-.448-.685.422-1.155.078-1.155-.846 0-.857-.45-1.559-1-1.559s-1-.575-1-1.279c0-1.734-12.431-13.957-13.305-13.082M246 641.018c0 .56-1.799 3.979-3.998 7.599s-3.75 6.981-3.448 7.47c.302.49-.046.661-.775.382-.739-.284-2.063.717-2.995 2.261-.919 1.524-2.721 3.895-4.006 5.27-3.99 4.272-6.932 8.941-6.289 9.982.368.596-.077.729-1.111.333-1.337-.513-1.576-.274-1.063 1.063.364.949.289 1.495-.168 1.213s-6.99 5.527-14.519 12.909-15.034 14.218-16.678 15.189c-1.7 1.004-2.77 2.337-2.481 3.09.286.747.054 1.044-.532.682-1.481-.915-12.079 5.726-11.509 7.212.259.674-.08 1.014-.752.756s-3.237.8-5.699 2.35c-4.423 2.784-16.888 7.221-20.287 7.221-1.84 0-3.415 2.608-2.268 3.755.368.368 1.542.124 2.61-.543s2.622-1.212 3.454-1.212 1.514-.45 1.514-1 1.35-1 3-1 3-.45 3-1 1.125-1 2.5-1 2.5-.477 2.5-1.059.414-.803.919-.491 1.529.002 2.274-.691c.745-.692 2.019-1.405 2.831-1.584s1.626-.741 1.809-1.25.886-.925 1.562-.925c.675 0 2.1-.788 3.166-1.75 1.067-.962 3.177-2.389 4.689-3.169s2.75-1.793 2.75-2.25.565-.831 1.255-.831c.691 0 3.167-1.8 5.502-4s4.65-4 5.142-4c1.313 0 29.141-28.126 28.636-28.943-.235-.381.448-1.324 1.519-2.096 1.07-.771 1.946-2.005 1.946-2.741s.45-1.06 1-.72c.899.556 1.433-.757 1.118-2.75-.065-.412.22-.637.632-.5.413.138.751.025.752-.25s1.464-2.029 3.25-3.898 3.248-4.007 3.248-4.75.45-1.352 1-1.352 1-.927 1-2.059.45-1.781 1-1.441 1-.084 1-.941.45-1.559 1-1.559 1-.9 1-2 .45-2 1-2 1-.9 1-2-.45-2-1-2-1 .458-1 1.018m79.644 4.836c-4.26 4.325-4.962 6.146-2.37 6.146.517 0 .69-.652.384-1.449-.392-1.02-.076-1.265 1.067-.826 1.2.46 1.46.2 1-1-.461-1.2-.2-1.461 1-1 1.2.46 1.46.2 1-1-.461-1.2-.2-1.461 1-1 1.2.46 1.46.2 1-1-.439-1.143-.194-1.459.826-1.067.797.306 1.449.084 1.449-.492 0-2.577-2.007-1.728-6.356 2.688M786 642.943c0 1.21 4.027 8.133 5.783 9.943 2.436 2.509 3.339-.27.948-2.917-1.227-1.358-2.87-3.706-3.65-5.219-1.388-2.69-3.081-3.683-3.081-1.807m-8.264 1.655c-.902.901.339 3.473 1.369 2.837.492-.304.895.464.895 1.706 0 1.575.317 1.942 1.048 1.211.73-.73.682-1.851-.161-3.7-1.207-2.649-2.024-3.182-3.151-2.054m116.266 3.652c.009 11.462-1.072 35.925-1.889 42.75-1.018 8.505-1.22 9.732-3.288 20-2.455 12.189-8.995 28.343-15.077 37.243-1.031 1.509-1.588 3.208-1.237 3.775s.257.908-.209.757-2.637 1.75-4.825 4.225c-4.545 5.143-7.6 8.064-12.217 11.683-1.782 1.397-2.95 3.009-2.596 3.583s.189.761-.369.416c-1.102-.681-6.274 1.383-6.287 2.509-.018 1.547 1.926 1.732 3.34.318.83-.83 1.95-1.509 2.489-1.509 1.377 0 18.163-16.633 18.163-17.997 0-.617.563-.797 1.25-.402.688.396.915.35.506-.101s.161-1.454 1.267-2.229c1.106-.774 1.751-1.827 1.435-2.339-.317-.513-.176-.932.314-.932s1.528-1.237 2.307-2.75c.78-1.513 1.72-2.979 2.089-3.259.37-.281.82-1.17 1.002-1.977.181-.806.897-2.076 1.589-2.821.693-.745 1.004-1.768.691-2.274-.312-.505-.091-.919.491-.919s1.059-.873 1.059-1.941.45-2.219 1-2.559 1-1.716 1-3.059.45-2.441 1-2.441 1-1.35 1-3 .45-3 1-3 1-1.763 1-3.917.47-4.073 1.044-4.264c.574-.192 1.111-2.367 1.195-4.834.083-2.467.543-4.755 1.022-5.085s.857-4.492.839-9.25c-.018-4.919.385-8.65.934-8.65.587 0 .966-7.446.966-19 0-12-.368-19-1-19-.55 0-.999 1.013-.998 2.25M232 649.393c0 .766-.704 1.663-1.563 1.993-.86.33-1.334.971-1.054 1.425.28.453-.366 1.456-1.437 2.228-1.07.771-1.946 1.87-1.946 2.441s-.9 1.601-2 2.288-2 1.685-2 2.217c0 .533-2.465 3.514-5.477 6.624s-5.229 6.057-4.926 6.548-.044.769-.773.618c-.728-.151-1.212.288-1.074.975s-.313 1.137-1 1c-.688-.138-1.138.313-1 1s-.313 1.137-1 1c-.688-.138-1.137.313-1 1 .138.688-.312 1.138-1 1s-1.1.425-.917 1.25-.005 1.162-.419.748c-.967-.968-4.546 2.23-3.816 3.41.303.491-.045.768-.774.617-.728-.151-1.2.321-1.049 1.049.151.729-.121 1.08-.604.782s-2.86 1.355-5.281 3.675c-4.288 4.109-5.14 4.719-6.59 4.719-.385 0-.195.505.423 1.123 1.909 1.909 16.827-10.248 15.814-12.888-.302-.787-.067-1.062.572-.668 1.392.861 12.08-9.632 11.459-11.249-.256-.669.073-1.047.733-.841 1.602.501 9.963-10.24 9.082-11.667-.423-.683-.239-.839.47-.401 1.449.896 3.168-.796 7.083-6.97 3.254-5.13 3.673-6.439 2.064-6.439-.55 0-1 .627-1 1.393m550 2.386c0 .979.876 2.411 1.946 3.182 1.071.772 1.717 1.775 1.437 2.228s.194 1.095 1.054 1.425c.859.33 1.563 1.227 1.563 1.993s.45 1.393 1 1.393 1 .765 1 1.7c0 1.219.306 1.394 1.082.618.981-.981-.156-4.417-2.091-6.318-.28-.275-1.63-2.184-3-4.243-2.726-4.097-3.991-4.724-3.991-1.978m-462.75 1.717c-.687.781-1.25 1.915-1.25 2.521s-.461.816-1.025.468c-.563-.349-.901-.038-.75.691.151.728-.287 1.212-.975 1.074s-1.25.677-1.25 1.809-.45 1.781-1 1.441-1 .084-1 .941-.45 1.559-1 1.559-1 .659-1 1.465c0 .805-.9 1.946-2 2.535s-2 1.981-2 3.094c0 1.127-.454 1.743-1.025 1.391-.563-.349-.96-.263-.881.191.303 1.747-.127 3.313-.844 3.074-.413-.138-.896.189-1.075.725s.046 1.093.5 1.237c1.281.406 5.481-6.651 4.705-7.906-.408-.661-.237-.836.422-.429.625.387 1.874-.528 2.859-2.095 2.225-3.541 9.601-12.676 10.589-13.115.413-.184.75-.746.75-1.25 0-1.333-1.31-1.057-2.75.579M792 664.878c0 .482.686 1.446 1.524 2.142s1.304 1.485 1.035 1.754.868 1.756 2.525 3.305c1.658 1.548 2.993 3.177 2.967 3.618-.082 1.405 22.181 23.278 23.109 22.704.489-.302.766-.179.615.275-.151.453.07.929.492 1.057.421.129 2.36 1.827 4.307 3.774s3.976 3.271 4.508 2.942.844-.227.693.227c-.151.453.064.934.479 1.069s2.169 1.598 3.899 3.25c1.729 1.653 3.559 3.005 4.067 3.005.507 0 1.602.679 2.432 1.509s1.923 1.254 2.429.941c.505-.312.919-.175.919.305 0 1.269 7.813 5.242 10.345 5.26 1.758.013 1.879.194.655.985-1.135.734-.695.973 1.809.985 1.948.009 3.055.426 2.691 1.015-.34.55.084 1.056.941 1.125 2.87.23 3.388.371 4.142 1.125.413.413 1.77.75 3.017.75 1.865 0 2.251.526 2.182 2.966-.046 1.631-.371 2.788-.721 2.572-.35-.217-1.248 1.036-1.994 2.784-.747 1.748-2.037 3.966-2.868 4.928-.83.962-1.215 1.75-.856 1.75s-.902 1.649-2.803 3.664c-3.261 3.457-3.745 5.336-1.374 5.336.576 0 .78-.698.452-1.552-.327-.854-.216-1.317.248-1.031 1.169.723 8.462-10.077 7.671-11.358-.357-.577-.064-.815.662-.536.753.289 1.802-.666 2.485-2.262 2.341-5.464 2.009-8.859-.934-9.575-9.195-2.238-11.721-3.09-15.875-5.351-2.587-1.407-5.187-2.26-5.778-1.895-.618.382-.863.111-.576-.638.301-.787-1.249-2.228-3.92-3.642-2.43-1.288-5.247-3.11-6.259-4.049s-4.542-3.555-7.842-5.811c-3.3-2.257-11.56-9.544-18.356-16.195s-12.828-11.8-13.405-11.444c-.609.376-.751.168-.34-.498.398-.643-1.182-3.542-3.595-6.599-4.124-5.224-5.804-6.581-5.804-4.686m-75.332 4.871c-.493.784 1.468 4.505 5.271 10 3.331 4.813 7.52 10.883 9.309 13.489 1.86 2.711 3.809 4.534 4.554 4.262.716-.263 1.033-.042.704.491-.927 1.499 3.075 8.009 4.923 8.009 1.273 0 .448-2.755-1.429-4.77-1.1-1.18-2-2.548-2-3.04 0-.491-1.246-2.198-2.77-3.792-1.523-1.594-2.986-3.348-3.25-3.898s-.817-.888-1.23-.75c-.413.137-.75-.485-.75-1.383s-.93-2.439-2.066-3.424-2.052-2.163-2.037-2.617-.854-1.842-1.934-3.084-1.963-2.73-1.963-3.309c0-.578-.45-.773-1-.433s-1-.309-1-1.441-.417-2.059-.927-2.059c-.509 0-1.082-.788-1.273-1.75-.254-1.279-.558-1.414-1.132-.501m-8.398 4.182c.08 1.062.502 1.71.938 1.441.435-.27.792.212.792 1.069s.45 1.559 1 1.559.888.563.75 1.25.313 1.138 1 1c1.148-.23 1.699 1.03 1.344 3.074-.079.454.318.54.881.191.564-.348 1.025.069 1.025.926s.487 1.559 1.083 1.559c1.408 0 1.171-.517-3.583-7.83-4.18-6.429-5.474-7.478-5.23-4.239M300 679.259c0 .693-.9 1.822-2 2.509s-2 1.72-2 2.295-1.348 2.484-2.995 4.241c-1.648 1.758-2.998 3.553-3 3.99-.003.436-1.106 1.981-2.451 3.432-2.375 2.561-2.531 4.274-.388 4.274.576 0 .78-.698.452-1.552-.327-.854-.199-1.307.284-1.009.484.299 1.556-.465 2.384-1.698s2.339-3.164 3.359-4.292c2.921-3.229 4.484-6.431 3.734-7.644-.402-.651-.236-.835.398-.443.597.369 1.792-.336 2.655-1.568 1.809-2.582 1.99-3.794.568-3.794-.55 0-1 .567-1 1.259m417.496 7.748c-.343.554.081 1.277.941 1.607.859.33 1.563 1.227 1.563 1.993s.45 1.393 1 1.393 1 .608 1 1.352c0 .743 1.315 2.728 2.923 4.41s2.668 3.313 2.357 3.625.173.85 1.077 1.196c.904.347 1.643 1.258 1.643 2.024s.34 1.393.756 1.393 1.354 1.353 2.086 3.006 1.742 2.751 2.244 2.441.914.137.914.994.477 1.559 1.059 1.559.8.419.484.931a1.106 1.106 0 0 0 .372 1.516 1.11 1.11 0 0 0 1.524-.349c.873-1.412-3.748-8.087-5.241-7.571-.716.248-1.016-.012-.667-.578.923-1.493-7.759-13.991-9.333-13.433-.716.253-1.038.034-.715-.488.613-.992-3.47-7.994-4.674-8.016-.38-.006-.971.441-1.313.995m-534.868 14.201c.27.435-.212.792-1.069.792s-1.559.477-1.559 1.059-.419.8-.931.484a1.106 1.106 0 0 0-1.516.372c-1.278 2.067 1.477 1.978 4.823-.157q5.974-3.811 1.693-3.488c-1.062.08-1.71.502-1.441.938m101.372.351c0 .857-.411 1.305-.914.994-.502-.31-1.512.788-2.244 2.441s-1.67 3.006-2.086 3.006-.756.9-.756 2 .378 2 .839 2c1.265 0 3.283-4.993 2.519-6.229-.372-.602-.204-.794.378-.434.575.355 1.769-.459 2.655-1.81 1.87-2.854 1.986-3.527.609-3.527-.55 0-1 .702-1 1.559m458.692 4.152c-.834 1.325 3.28 8.429 4.633 8.001.454-.144.679-.701.5-1.237s-.662-.863-1.075-.725-.75-.65-.75-1.75-.417-2-.927-2c-.509 0-1.082-.788-1.273-1.75-.245-1.237-.57-1.395-1.108-.539M174 707c0 .55-.675 1-1.5 1s-1.5.45-1.5 1-.927 1-2.059 1-1.781.45-1.441 1c.352.569-.509 1-2 1s-2.352.431-2 1-.509 1-2 1c-1.44 0-2.358.421-2.04.935.318.515-.893 1.099-2.691 1.299-2.552.284-2.888.54-1.533 1.167 1.216.562 4.887-.783 12.25-4.488C177.842 707.702 179.938 706 176 706c-1.1 0-2 .45-2 1m102 4.809c0 .665-1.35 2.622-3 4.348-1.65 1.727-3 3.527-3 4 0 .474-1.35 2.274-3 4-1.65 1.727-3 3.547-3 4.046 0 .498-1.348 2.344-2.995 4.101s-2.998 3.486-3 3.84c-.003.355-1.355 2.09-3.005 3.856s-3 3.613-3 4.103c0 .491-1.556 2.542-3.458 4.558s-3.218 4.054-2.926 4.527c.293.474.094.738-.442.587s-.906-.043-.824.24c.225.773-14.761 15.729-15.418 15.387-.312-.162-1.679.693-3.037 1.902-1.358 1.208-3.123 2.345-3.922 2.526-.8.182-1.688.708-1.973 1.17-.889 1.438-20.783.994-23.718-.529-1.451-.753-3.008-1.14-3.46-.861-.452.28-.822.031-.822-.551s-.862-1.059-1.917-1.059c-1.054 0-2.066-.416-2.25-.925-.183-.509-1.008-1.071-1.833-1.25s-1.729-.626-2.009-.995c-.281-.368-1.146-.818-1.924-1-.777-.181-3.246-2.017-5.485-4.08-2.239-2.062-4.426-3.75-4.86-3.75-1.027 0-7.722-6.695-7.722-7.722 0-.434-1.693-2.586-3.763-4.783s-3.914-4.445-4.1-4.995-.742-.888-1.237-.75c-.495.137-.9-.902-.9-2.309 0-1.558-.417-2.301-1.067-1.9-.587.363-.983.052-.881-.691.408-2.973-.036-4.266-1.1-3.202-1.856 1.856 6.967 17.138 9.125 15.804.495-.306.602.221.238 1.17-.513 1.337-.274 1.576 1.063 1.063 1.108-.425 1.487-.275 1.057.42-.86 1.392 7.626 10.085 9.242 9.466.784-.301.998.112.598 1.154-.471 1.228-.203 1.461 1.103.96.949-.364 1.482-.267 1.184.215-.735 1.188 4.882 5.351 12.048 8.929 16.162 8.072 31.415 7.777 42.884-.829 8.74-6.559 25.32-25.874 24.017-27.982-.338-.547-.029-.778.687-.512 1.501.557 6.171-6.1 5.285-7.534-.323-.522-.001-.732.715-.466 1.501.557 6.171-6.1 5.285-7.534-.323-.522-.001-.729.715-.46 1.564.587 6.261-5.96 5.342-7.447-.359-.581-.068-.828.658-.559 1.868.693 6.303-6.405 4.887-7.821-.78-.78-1.085-.745-1.085.124m472 2.644c0 1.276 2.434 5.547 3.161 5.547 1.353 0 .964-3.018-.59-4.571-1.413-1.414-2.571-1.853-2.571-.976m-8 3.326c0 .979.876 2.411 1.946 3.182 1.071.772 1.739 1.74 1.484 2.152-.254.412-.036 1.012.485 1.334 2.095 1.295 2.018-1.579-.13-4.895q-3.784-5.841-3.785-1.773m12.591 2.074c-.771 1.248 3.166 8.127 4.659 8.14 1.389.013.765-2.6-1.099-4.6-1.016-1.091-2.059-2.617-2.316-3.389-.365-1.095-.64-1.128-1.244-.151m-6.591 5.78c0 .898.93 2.439 2.066 3.424s2.052 2.163 2.037 2.617.854 1.842 1.934 3.084 1.963 2.7 1.963 3.241.9 1.546 2 2.233 2 1.816 2 2.509.45 1.259 1 1.259 1 .565 1 1.255c0 .691 1.8 3.167 4 5.502s4 4.694 4 5.24c0 1.489 22.998 24.003 24.518 24.003.724 0 1.465.416 1.649.925s.997 1.071 1.809 1.25 2.086.892 2.831 1.584 1.73 1.027 2.188.744c.459-.284.985-.106 1.17.395.443 1.204 2.313 1.354 15.252 1.217 13.717-.145 13.151-1.437-.675-1.539-9.396-.07-10.808-.344-17.095-3.322-3.769-1.785-7.251-2.999-7.738-2.698s-.618-.15-.291-1.004c.328-.854.099-1.552-.508-1.552-1.551 0-15.841-13.737-17.88-17.187-.926-1.569-2.234-2.642-2.906-2.384-.681.262-1.008-.09-.738-.793.267-.694-.431-2.091-1.551-3.104S766 750.278 766 749.774c0-1.649-2.957-3.919-4.147-3.183-.708.437-.893.282-.473-.397.959-1.552-3.579-8.295-5.182-7.7-.716.266-1.038.057-.716-.465.599-.969-1.021-4.404-3.197-6.777-.668-.728-2.003-2.658-2.966-4.288-1.937-3.28-3.319-3.834-3.319-1.331m12.634 2.149c-.605.98 6.111 12.431 8.339 14.218.343.275 1.72 2.075 3.061 4 6.866 9.858 21.395 24.433 23.537 23.611.843-.324 1.268-.16.944.365-1.298 2.1 11.949 8.551 15.977 7.781 1.379-.264 2.508-.101 2.508.363 0 1.572 19.528-1.547 20.606-3.291.281-.456 1.385-.829 2.453-.829s1.941-.395 1.941-.879c0-.483 1.35-1.438 3-2.121s3-1.611 3-2.062c0-1.553-1.842-1.954-3.208-.697-2.134 1.962-5.613 3.759-7.278 3.759-.833 0-1.514.477-1.514 1.059s-.37.831-.822.551-2.078.144-3.614.941c-3.305 1.715-24.097 2.12-23.064.449.352-.569-.509-1-2-1s-2.352-.431-2-1c.34-.55.122-1-.485-1-.606 0-2.29-1.101-3.741-2.446s-2.894-2.313-3.206-2.15c-.598.312-12.255-11.183-13.085-12.904-.266-.55-.854-.876-1.307-.725-.454.151-.585-.113-.292-.587.292-.473-1.024-2.51-2.926-4.527-1.902-2.016-3.46-4.002-3.463-4.413-.002-.412-1.352-2.186-3-3.944-1.647-1.757-2.995-3.603-2.995-4.101 0-.499-1.29-2.257-2.867-3.907s-3.07-3.607-3.317-4.349c-.334-1.001-.638-1.044-1.182-.165m-488.419 5.77c-2.148 3.316-2.225 6.19-.13 4.895.521-.322.739-.922.485-1.334-.255-.412.413-1.38 1.484-2.152 1.869-1.347 2.746-4.974 1.196-4.949-.413.007-1.778 1.6-3.035 3.54m-6 8c-2.148 3.316-2.225 6.19-.13 4.895a1.106 1.106 0 0 0 .372-1.516c-.316-.512-.098-.931.484-.931s1.059-.702 1.059-1.559.45-1.281 1-.941 1-.309 1-1.441c0-2.986-1.187-2.518-3.785 1.493M146 744c0 1.1.477 2 1.059 2s.803.414.491.919.111 1.599.941 2.429 1.509 1.936 1.509 2.458c0 1.5 2.748 3.41 3.396 2.362.628-1.016-5.429-12.07-6.646-12.131-.412-.02-.75.863-.75 1.963m112.178 5.607c-1.276 1.971-2.091 3.813-1.81 4.094.775.775 5.091-3.96 5.426-5.953.473-2.815-1.116-1.999-3.616 1.859M856 757c-2.475 2.69-4.95 4.916-5.5 4.947-1.565.087-6.897 4.989-6.193 5.694 1.02 1.019 5.825-2.619 5.07-3.839-.418-.677-.23-.829.482-.389 1.148.709 12.141-8.872 12.141-10.582 0-1.713-1.63-.58-6 4.169m-702-1.478c0 1.722 10.376 12.478 12.037 12.478.595 0 .796.461.448 1.025s-.263.96.191.881c1.747-.303 3.313.127 3.074.844-.138.413.189.896.725 1.075 2.309.77 1.291-1.532-1.375-3.107-1.605-.948-4.87-4.085-7.255-6.971-7.008-8.481-7.845-9.145-7.845-6.225m100.382.03c.359.936.18 1.295-.451.906-.575-.356-2.474 1.083-4.221 3.198-4.283 5.185-11.593 12.44-14.972 14.86-1.52 1.087-2.537 2.565-2.262 3.283.276.717.053 1.028-.494.69-.548-.339-2.24.271-3.761 1.354-10.031 7.142-29.202 6.236-44.203-2.091-1.935-1.073-5.2-2.887-7.257-4.03s-4.041-1.776-4.41-1.406c-.89.89 3.658 4.797 4.778 4.104.479-.296.871-.132.871.364 0 1.094 8.444 5.549 10.518 5.549.815 0 1.482.375 1.482.834s1.313.833 2.917.833 3.081.495 3.283 1.1 2.04 1.1 4.086 1.1 3.97.405 4.276.9c.763 1.235 9.438 1.143 9.438-.1 0-.55 1.827-1 4.059-1 2.451 0 3.814-.396 3.441-1-.362-.585.676-1 2.5-1s2.862-.415 2.5-1c-.556-.899.757-1.433 2.75-1.118.412.065.75-.332.75-.882s.677-1 1.505-1c1.913 0 25.658-23.928 24.924-25.116-.943-1.525-2.673-.961-2.047.668m588.5 21.198c-.066.413-.054 1.121.024 1.574.079.454-.339.527-.928.162-.59-.364-2.963.192-5.275 1.237a4038 4038 0 0 1-6.703 3.02c-2.486 1.115-2.482 1.122.75 1.189 1.788.038 3.25-.382 3.25-.932s.337-.947.75-.882c2.26.357 4.288-.248 3.75-1.118-.342-.554.412-1.014 1.691-1.032 2.262-.031 5.809-2.063 5.809-3.328 0-.905-2.975-.8-3.118.11"/></svg>