<svg xmlns="http://www.w3.org/2000/svg" viewBox="0 0 1024 1024"><path fill="#00e5cc" d="M429.758 157.494c-2.608.741-5.453 2.058-6.321 2.926-1.44 1.44-1.224 1.58 2.433 1.58 2.206 0 4.29.45 4.63 1s2.365 1 4.5 1 4.16.45 4.5 1 2.365 1 4.5 1 4.131.402 4.435.894c.519.841 3.094 1.37 13.315 2.738 2.337.313 4.25.974 4.25 1.469 0 .494 2.025.899 4.5.899s4.5.45 4.5 1 2.025 1 4.5 1 4.5.45 4.5 1 1.773 1 3.941 1 4.219.45 4.559 1 2.59 1 5 1 4.631.402 4.935.894c.519.84 2.317 1.22 12.815 2.708 2.337.332 4.678 1.007 5.2 1.5s2.408.898 4.191.898 3.519.45 3.859 1 2.365 1 4.5 1 4.16.45 4.5 1 2.365 1 4.5 1 4.16.45 4.5 1 2.616 1 5.059 1 4.441.45 4.441 1 1.773 1 3.941 1 4.19.402 4.494.894 2.468 1.178 4.809 1.524 6.056.89 8.256 1.208 4.428.983 4.95 1.476c.523.494 2.633.898 4.691.898s4.019.45 4.359 1 2.365 1 4.5 1 4.131.402 4.435.894c.529.857 2.583 1.295 12.565 2.685 2.475.344 4.927 1.03 5.45 1.523.522.494 2.408.898 4.191.898s3.519.45 3.859 1 2.616 1 5.059 1 4.441.45 4.441 1 1.773 1 3.941 1 4.219.45 4.559 1 2.616 1 5.059 1 4.441.45 4.441 1 1.773 1 3.941 1 4.219.45 4.559 1 2.616 1 5.059 1 4.441.45 4.441 1 1.773 1 3.941 1 4.219.45 4.559 1 2.616 1 5.059 1 4.441.45 4.441 1 1.773 1 3.941 1 4.219.45 4.559 1 2.365 1 4.5 1 4.16.45 4.5 1 2.365 1 4.5 1 4.131.402 4.435.894 2.243 1.131 4.309 1.42c5.664.792 9.693 1.889 10.295 2.803.297.451 1.953.927 3.681 1.058 1.728.132 3.001.484 2.828.782-.839 1.454 1.595 5.043 3.42 5.043 1.117 0 2.032.45 2.032 1 0 1.254 10.261 1.327 11.55.082.523-.505 5.45-2.345 10.95-4.089s11.575-3.673 13.5-4.286c6.811-2.17 6.337-2.384-13-5.874-3.025-.546-9.325-1.829-14-2.852a1512 1512 0 0 0-19-3.986c-5.775-1.169-13.198-2.804-16.495-3.633s-8.023-1.901-10.5-2.384-11.03-2.289-19.005-4.014a5234 5234 0 0 0-30.5-6.48c-8.8-1.839-21.4-4.528-28-5.976s-14.333-3.026-17.185-3.507-8.026-1.551-11.5-2.378c-5.954-1.418-11.252-2.559-35.315-7.607-5.5-1.154-11.8-2.513-14-3.022-8.854-2.045-28.455-6.205-42.321-8.981-8.073-1.616-20.529-4.326-27.679-6.021-7.15-1.694-15.475-3.506-18.5-4.025-3.025-.518-7.525-1.432-10-2.029-7.102-1.713-17.071-1.913-22.242-.444M398.5 163c-.34.55-2.14 1-4 1s-3.66.45-4 1-2.14 1-4 1-3.66.45-4 1-2.14 1-4 1-3.66.45-4 1-2.14 1-4 1-3.66.45-4 1-2.391 1-4.559 1-3.941.45-3.941 1-1.8 1-4 1-4 .45-4 1-1.548 1-3.441 1-3.719.45-4.059 1-2.14 1-4 1-3.66.45-4 1-2.391 1-4.559 1-3.941.45-3.941 1-1.773 1-3.941 1-4.19.402-4.494.894-2.355 1.167-4.559 1.5l-8.012 1.212c-2.204.333-4.255 1.008-4.559 1.5s-2.101.894-3.994.894-3.441.45-3.441 1-1.773 1-3.941 1-4.219.45-4.559 1-2.14 1-4 1-3.66.45-4 1-2.391 1-4.559 1-3.941.45-3.941 1-1.8 1-4 1-4 .45-4 1-1.8 1-4 1-4 .45-4 1-1.35 1-3 1-3 .392-3 .87c0 .958 2.372 1.642 21.5 6.193 7.15 1.702 14.35 3.494 16 3.983 3.18.942 16.325 4.045 25.5 6.019 3.025.651 6.625 1.534 8 1.963s4.525 1.253 7 1.829 7.425 1.785 11 2.685c9.715 2.447 13.09 3.273 17.5 4.283 15.391 3.525 27.727 6.492 32 7.697 2.75.775 6.35 1.672 8 1.993s4.688 1.012 6.75 1.534c2.063.523 5.55 1.401 7.75 1.951s5.688 1.429 7.75 1.953c5.381 1.366 19.817 4.728 26.25 6.112 3.025.651 6.625 1.534 8 1.963s4.525 1.257 7 1.839 13.05 3.129 23.5 5.66a8853 8853 0 0 0 29.5 7.098c9.554 2.272 18.837 4.563 35.5 8.764 3.3.832 10.275 2.474 15.5 3.648 5.225 1.175 10.805 2.547 12.399 3.049 1.595.503 4.52.921 6.5.929 2.693.012 3.223.26 2.101.985-1.138.736-.716.973 1.75.985 1.788.008 3.25-.435 3.25-.985s1.35-1 3-1 3-.45 3-1 1.35-1 3-1 3-.45 3-1 1.548-1 3.441-1 3.719-.45 4.059-1 1.69-1 3-1 2.66-.45 3-1 1.69-1 3-1 2.66-.45 3-1 1.69-1 3-1 2.66-.45 3-1 1.69-1 3-1 2.66-.45 3-1 1.69-1 3-1 2.66-.45 3-1 1.69-1 3-1 2.66-.45 3-1 1.716-1 3.059-1 2.441-.45 2.441-1 1.323-1 2.941-1 3.219-.45 3.559-1 1.69-1 3-1 2.66-.45 3-1 1.941-1 3.559-1 2.941-.45 2.941-1 1.35-1 3-1 3-.45 3-1 1.35-1 3-1 3-.45 3-1 1.35-1 3-1 3-.45 3-1 1.35-1 3-1 3-.45 3-1 1.35-1 3-1 3-.45 3-1 1.35-1 3-1 3-.45 3-1 .953-1 2.119-1c2.18 0 14.026-3.54 17.117-5.115.955-.487 2.588-.885 3.628-.885 2.904 0 4.873-2.813 2.499-3.57a75 75 0 0 1-4.16-1.511c-1.263-.506-3.851-.919-5.75-.919s-3.453-.45-3.453-1-1.773-1-3.941-1-4.219-.45-4.559-1-2.616-1-5.059-1-4.441-.45-4.441-1-1.773-1-3.941-1-4.19-.402-4.494-.894c-.519-.841-3.094-1.37-13.315-2.738-2.337-.313-4.25-.974-4.25-1.469 0-.494-2.025-.899-4.5-.899s-4.5-.45-4.5-1-2.025-1-4.5-1-4.5-.45-4.5-1-1.773-1-3.941-1-4.219-.45-4.559-1-2.616-1-5.059-1-4.441-.45-4.441-1-2.025-1-4.5-1-4.5-.45-4.5-1-2.025-1-4.5-1-4.5-.4-4.5-.889-.562-.868-1.25-.842c-4.193.155-7.795-.388-7.349-1.108.285-.462-1.601-.919-4.191-1.016-2.591-.097-4.86-.62-5.043-1.161-.184-.541-2.096-.984-4.25-.984s-3.917-.45-3.917-1-1.773-1-3.941-1-4.219-.45-4.559-1-2.616-1-5.059-1-4.441-.405-4.441-.899c0-.842-2.438-1.308-14.25-2.724-2.612-.314-4.75-.977-4.75-1.474 0-.496-1.548-.903-3.441-.903s-3.719-.45-4.059-1-2.616-1-5.059-1-4.441-.45-4.441-1-1.773-1-3.941-1-4.219-.45-4.559-1-2.616-1-5.059-1-4.441-.45-4.441-1-1.773-1-3.941-1-4.219-.45-4.559-1-2.365-1-4.5-1-4.16-.45-4.5-1-2.365-1-4.5-1-4.16-.45-4.5-1-2.616-1-5.059-1-4.441-.47-4.441-1.044-.562-.971-1.25-.881c-3.223.418-8.816-.159-8.38-.865.269-.435-1.352-.864-3.603-.954-2.25-.09-4.356-.521-4.679-.959-.324-.439-2.163-.946-4.088-1.128-1.925-.183-3.927-.745-4.45-1.25-.522-.506-2.885-.919-5.25-.919s-4.3-.45-4.3-1-1.8-1-4-1-4-.45-4-1-2.25-1-5-1-5-.45-5-1-1.773-1-3.941-1-4.219-.45-4.559-1-2.616-1-5.059-1-4.441-.45-4.441-1-2.448-1-5.441-1-5.719.45-6.059 1m11.5 3.883c0 .634-1.706 1.117-3.941 1.117-2.168 0-4.219.45-4.559 1s-2.14 1-4 1-3.66.45-4 1-2.14 1-4 1-3.66.45-4 1-2.14 1-4 1-3.66.45-4 1-2.166 1-4.059 1-3.441.45-3.441 1-1.8 1-4 1-4 .45-4 1-1.8 1-4 1-4 .45-4 1-1.8 1-4 1-4 .45-4 1-1.8 1-4 1-4 .45-4 1-1.773 1-3.941 1-4.219.45-4.559 1-2.166 1-4.059 1-3.441.45-3.441 1-1.8 1-4 1-4 .45-4 1-1.8 1-4 1-4 .45-4 1-1.8 1-4 1-4 .45-4 1-1.8 1-4 1-4 .45-4 1-1.157 1-2.571 1c-4.238 0-7.277 4.354-3.935 5.636.822.316 1.246.976.941 1.469-.304.492 1.274.895 3.506.895s4.059.45 4.059 1 1.8 1 4 1 4 .45 4 1 1.8 1 4 1 4 .45 4 1 2.052 1 4.559 1c2.785 0 4.319.389 3.941 1-.377.61 1.137 1 3.882 1 2.475 0 4.778.45 5.118 1s2.14 1 4 1 3.66.45 4 1 2.14 1 4 1 3.66.45 4 1 2.391 1 4.559 1 3.941.45 3.941 1 1.8 1 4 1 4 .45 4 1 1.8 1 4 1 4 .45 4 1 1.8 1 4 1 4 .45 4 1 2.052 1 4.559 1c2.785 0 4.319.389 3.941 1-.377.61 1.137 1 3.882 1 2.475 0 4.778.45 5.118 1s2.14 1 4 1 3.66.45 4 1 2.391 1 4.559 1 3.941.45 3.941 1 1.8 1 4 1 4 .45 4 1 1.8 1 4 1 4 .45 4 1 1.773 1 3.941 1 4.219.45 4.559 1 2.391 1 4.559 1 3.941.45 3.941 1 2.025 1 4.5 1 4.5.45 4.5 1 1.548 1 3.441 1 3.719.45 4.059 1 2.14 1 4 1 3.66.45 4 1 2.391 1 4.559 1 3.941.45 3.941 1 1.998 1 4.441 1 4.719.45 5.059 1 2.166 1 4.059 1 3.441.45 3.441 1 1.8 1 4 1 4 .45 4 1 1.575 1 3.5 1 3.5.45 3.5 1 1.998 1 4.441 1 4.719.45 5.059 1 2.391 1 4.559 1 3.941.45 3.941 1 1.8 1 4 1 4 .45 4 1 1.8 1 4 1 4 .45 4 1 1.8 1 4 1 4 .405 4 .899c0 .932 4.991 1.797 15.75 2.73 4.16.36 6.25.179 6.25-.544 0-.602 1.807-1.085 4.059-1.085 2.451 0 3.814-.396 3.441-1-.361-.583.656-1 2.441-1 1.682 0 3.059-.45 3.059-1s1.575-1 3.5-1 3.5-.45 3.5-1 1.35-1 3-1 3-.45 3-1 1.35-1 3-1 3-.45 3-1 1.35-1 3-1 3-.45 3-1 1.323-1 2.941-1 3.219-.45 3.559-1 1.69-1 3-1 2.66-.45 3-1 1.69-1 3-1 2.66-.45 3-1 2.193-1 4.118-1c2.079 0 3.249-.406 2.882-1-.369-.596.843-1 3-1s3.369-.404 3-1c-.368-.595.823-1 2.941-1 1.957 0 3.559-.45 3.559-1s1.35-1 3-1 3-.45 3-1 1.323-1 2.941-1 3.219-.45 3.559-1 1.941-1 3.559-1 2.941-.45 2.941-1 1.35-1 3-1 3-.45 3-1 1.098-1 2.441-1 2.719-.45 3.059-1 1.941-1 3.559-1 2.941-.45 2.941-1 .627-1 1.393-1c1.303 0 2.607-2.028 2.607-4.056 0-1.44-5.645-3.944-8.891-3.944-1.645 0-3.269-.45-3.609-1s-2.391-1-4.559-1-3.941-.45-3.941-1-1.998-1-4.441-1-4.719-.45-5.059-1-2.391-1-4.559-1-3.941-.45-3.941-1-2.025-1-4.5-1-4.5-.45-4.5-1-2.025-1-4.5-1-4.5-.45-4.5-1-1.773-1-3.941-1-4.219-.45-4.559-1-2.616-1-5.059-1-4.441-.45-4.441-1-1.773-1-3.941-1-4.219-.45-4.559-1-2.365-1-4.5-1-4.16-.45-4.5-1-2.391-1-4.559-1-3.941-.45-3.941-1-1.998-1-4.441-1-4.719-.45-5.059-1-2.076-1-3.859-1-3.668-.404-4.191-.898c-.522-.493-2.863-1.168-5.2-1.5-10.498-1.488-12.296-1.868-12.815-2.708-.304-.492-2.551-.894-4.994-.894s-4.441-.45-4.441-1-1.773-1-3.941-1-4.219-.45-4.559-1-2.391-1-4.559-1-3.941-.45-3.941-1-1.998-1-4.441-1-4.719-.45-5.059-1-2.076-1-3.859-1-3.668-.404-4.191-.898c-.882-.833-2.909-1.223-14.2-2.734-2.337-.313-4.25-.974-4.25-1.469 0-.494-2.025-.899-4.5-.899s-4.5-.45-4.5-1-2.025-1-4.5-1-4.5-.45-4.5-1-1.8-1-4-1-4-.45-4-1-1.998-1-4.441-1-4.719-.45-5.059-1-2.391-1-4.559-1-3.941-.45-3.941-1-2.025-1-4.5-1-4.5-.45-4.5-1-2.025-1-4.5-1-4.5-.408-4.5-.907-2.363-1.129-5.25-1.399-6.488-.814-8-1.209c-1.787-.467-2.75-.327-2.75.398m281.624 68.873c-5.539.772-8.663 6.244-3.565 6.244 1.068 0 1.941.45 1.941 1s2.223 1 4.941 1 5.219-.45 5.559-1 1.443-1 2.452-1c2.324 0 3.439-2.752 1.785-4.405-1.415-1.416-8.759-2.445-13.113-1.839m96.876 1.648c-3.3 1.269-7.575 2.785-9.5 3.369s-7.434 2.263-12.242 3.731l-8.742 2.669-.506 119.663c-1.5 354.848-1.545 411.599-.32 410.374.666-.666 2.272-1.21 3.569-1.21 1.318 0 2.086-.441 1.741-1-.349-.565.47-1 1.882-1 1.375 0 2.778-.45 3.118-1s1.491-1 2.559-1 1.941-.45 1.941-1 .9-1 2-1 2-.45 2-1 .9-1 2-1 2-.45 2-1 .9-1 2-1 2-.45 2-1 1.152-1 2.559-1c1.451 0 2.292-.433 1.941-1-.34-.55.068-1 .906-1 3.49 0 3.608-2.991 4.216-106.703.332-56.538.917-131.822 1.302-167.297 1.036-95.599 1.26-253.007.36-252.951-.431.027-3.484 1.086-6.784 2.355m-96.5 1.577c0 1.884 5.079 2.369 6.799.649 1.506-1.507 1.31-1.63-2.585-1.63-2.318 0-4.214.441-4.214.981M674 243c0 .55-.932 1-2.071 1-3.557 0-5.118 2.393-2.836 4.347 2.088 1.788 8.907 2.288 8.907.653 0-.55 1.302-1 2.893-1 1.716 0 3.14-.644 3.5-1.582.858-2.235.79-2.418-.893-2.418-.825 0-1.5-.45-1.5-1s-1.8-1-4-1-4 .45-4 1m-18.741 6.25c-.543.688-.973 1.961-.956 2.829.043 2.257 8.872 2.62 10.682.439.715-.861 1.123-1.668.908-1.792-3.771-2.17-5.252-2.726-7.257-2.726-1.315 0-2.835.563-3.377 1.25m-18.064 6.305c-1.078 1.221-1.047 1.736.179 2.962 1.68 1.68 11.145 2.132 10.126.483-.34-.55.084-1 .941-1 1.862 0 2.009-1.15.359-2.8-1.705-1.705-10.011-1.451-11.605.355m-12.131 4.384c-2.166 1.371.337 3.852 3.532 3.501 3.202-.352 3.814-.93 3.059-2.897-.651-1.695-4.333-2.033-6.591-.604M781.5 265c-.34.55-1.716 1-3.059 1s-2.441.45-2.441 1-1.109 1-2.465 1c-3.605 0-4.535 2.713-4.535 13.234 0 9.58.759 11.766 4.085 11.766 2.236 0 12.082-3.096 13.665-4.297 1.566-1.188 1.814-23.169.25-22.203-.55.34-1-.084-1-.941 0-1.722-3.511-2.159-4.5-.559m-4.25 6.584-3.25 1.422.079 7.747c.043 4.261.306 7.185.583 6.497.278-.687 1.346-1.25 2.374-1.25 4.843 0 6.965-2.109 6.95-6.911-.027-9.105-.886-10.063-6.736-7.505m-176.878 11.409c-.48.461-1.997 1.022-3.372 1.246-2.206.361-2.284.505-.663 1.225 1.139.507 3.011.26 4.929-.648 2.327-1.102 2.707-1.612 1.535-2.062-.856-.329-1.95-.221-2.429.239M293.71 291c-.287 1.1-.115 2 .384 2 .498 0 .906-.188.906-.418s.273-1.13.607-2 .161-1.582-.383-1.582c-.545 0-1.226.9-1.514 2m-6.46 4.793c-1.788 1.993-3.25 4.232-3.25 4.975 0 .766-.5 1.041-1.155.637-.634-.393-.891-.289-.57.231s2.304 1.055 4.405 1.189c3.744.238 8.321 3.678 9.467 7.115.529 1.589 3.853 2.377 3.853.912 0-.533.423-.708.94-.389.938.579 5.06-3.163 5.06-4.593 0-.413-.461-1.037-1.025-1.385s-.901-.263-.75.191c.151.453-.062.937-.475 1.074-1.776.592-2.75.149-2.75-1.25 0-.825-.418-1.5-.929-1.5-.51 0-1.603.675-2.428 1.5-2.192 2.192-2.723 1.842-1.618-1.065 1.289-3.392 1.23-4.09-.225-2.635s-3.8 1.58-3.8.2c0-.55.623-1 1.383-1 1.412 0 2.846-3.438 1.85-4.433-.772-.773-3.315 1.491-2.733 2.433.614.994-2.346 3.487-3.167 2.667-.34-.34-.115-1.225.501-1.967.826-.995.82-1.646-.025-2.491-.858-.858-.727-1.303.524-1.783.917-.352 1.667-1.042 1.667-1.533 0-1.651-1.48-.748-4.75 2.9m294.846 272.755c-.124 240.546.046 276.737 1.309 278 1.086 1.086 4.112 1.452 11.995 1.452h10.543l.031-277 .03-277h-2.943c-1.619 0-3.221-.45-3.561-1s-4.363-1-8.939-1h-8.322zM317.004 299.496c-1.29 1.373-2.043 2.798-1.675 3.167s.671.145.671-.496c0-.642.804-1.167 1.787-1.167 1.071 0 1.848-.802 1.938-2 .191-2.53.107-2.514-2.721.496m-12.545 10.571c-1.139 1.842.371 2.246 2.065.552 1.398-1.398 1.412-1.619.106-1.619-.831 0-1.809.48-2.171 1.067m472.208-.4c-1.625 1.624-.669 6.209 1.264 6.063 1.062-.08 1.766-.411 1.566-.735-.201-.325.03-1.229.512-2.009 1.357-2.196-1.564-5.098-3.342-3.319m-445.044 1.873c-.78 2.034-.813 5.46-.052 5.46 1.358 0 3.548-3.144 3.252-4.669-.442-2.281-2.439-2.775-3.2-.791m-.623 9.082c0 1.389.252 1.43 1.75.283a91 91 0 0 1 2.167-1.622c.229-.156-.559-.283-1.75-.283-1.332 0-2.167.625-2.167 1.622m6 4.937c0 1.407.408 2.307.906 1.999s.671-1.46.383-2.559c-.719-2.752-1.289-2.504-1.289.56m-64.248.293c-1.512.906-2.749 2.211-2.75 2.898S269.55 330 269 330s-1.045 2.813-1.1 6.25c-.074 4.645-.305 5.608-.9 3.75-.695-2.169-.812-1.97-.885 1.5-.131 6.217 1.173 7.307 4.001 3.347 3.064-4.291 5.884-9.533 5.884-10.939 0-.605.84-2.294 1.868-3.754 3.352-4.764.147-7.459-5.116-4.302m502.751 2.139c-.806 2.539.106 4.009 2.489 4.009 1.956 0 3.591-3.247 2.514-4.991-1.076-1.741-4.343-1.099-5.003.982m-185.215 8.288c-5.285 2.546-5.259 2.369-4.991 34.42.222 26.424.065 25.74 6.421 27.954 5.085 1.771 7.356 1.636 10.032-.597 2.241-1.869 2.25-1.992 2.25-31.766 0-21.915-.32-30.21-1.2-31.09-1.758-1.758-7.687-1.247-12.512 1.079M683 337.791c0 .401-1.42.724-3.155.719-4.853-.015-4.616 2.213.345 3.245 2.371.493 4.213 1.379 4.094 1.968-.124.615.729.865 2 .588 1.786-.391 1.925-.277.716.587-1.482 1.058-.409 1.64 2.25 1.22.413-.065.75.332.75.882s.9 1 2 1 2 .45 2 1 .477 1 1.059 1 .779-.453.437-1.007c-.343-.554.094-1.282.971-1.619 3.737-1.434 12.671 15.387 12.791 24.085.039 2.772.262 3.956.497 2.629.333-1.883.63-2.103 1.355-1 .628.956.862-.105.725-3.283-.112-2.583-.57-4.469-1.019-4.191-.721.445-1.299-2.696-.91-4.938.079-.454-.318-.54-.881-.191-.564.348-1.025-.069-1.025-.926s-.45-1.559-1-1.559-1-.681-1-1.514c0-4.046-5.87-10.449-9.705-10.586l-2.795-.099L696 345c1.947-.624 2.076-.823.583-.9-1.054-.055-1.638-.379-1.297-.719.887-.888-1.852-3.381-3.715-3.381-.864 0-1.571-.45-1.571-1s-.675-1-1.5-1c-2.037 0-1.894 1.671.25 2.92.962.561 1.3 1.019.75 1.018-1.422-.002-4.573-2.531-3.941-3.163.29-.291-.167-.794-1.016-1.12s-1.543-.265-1.543.136m-298.5 4.569c5.778 3.213 8.396 6.64 5.073 6.64-.865 0-1.573.815-1.573 1.812s-1.35 2.81-3 4.03c-2.7 1.996-4.43 5.16-2 3.658.55-.34 1-.093 1 .548s-.687.902-1.526.58c-1.051-.403-2.044.499-3.186 2.893-.912 1.914-2.025 3.479-2.473 3.479-1.597 0-.781 4.659 1.185 6.77 1.1 1.18 2 2.53 2 3 0 .469.81 1.725 1.8 2.791.991 1.067 2.102 2.727 2.469 3.689.368.962 1.507 1.75 2.533 1.75s1.913.563 1.973 1.25c.059.688.325 2.15.59 3.25s.526 2.45.581 3 .978-.125 2.054-1.5c1.811-2.315 1.956-4.199 1.962-25.5.005-15.309-.319-22.498-.968-21.5-.84 1.29-1.676 1.116-5.986-1.25-2.755-1.512-5.796-2.745-6.759-2.738-.962.006.951 1.513 4.251 3.348m-54.912 5.15c-1.171.887-2.914 1.207-4.5.828-1.423-.341-2.259-.264-1.856.17s-.193 1.591-1.323 2.571c-1.626 1.41-1.838 2.185-1.017 3.72.571 1.066.753 2.222.406 2.57s-.137.631.468.631 1.385.9 1.734 2c1.228 3.869 4.778 2.182 7.367-3.5.751-1.65 1.764-3.781 2.25-4.736 1.186-2.332 1.099-3.646-.117-1.764-.78 1.207-.972 1.049-.985-.809-.01-1.493.393-2.057 1.14-1.596.715.443.883.275.44-.44-.917-1.486-1.661-1.42-4.007.355M776 346.933c0 .513-.9 1.218-2 1.567-1.859.59-2 1.513-2 13.067V374h3.5c1.925 0 3.5-.45 3.5-1s.852-1 1.893-1c2.721 0 3.107-1.811 3.107-14.582V346h-4c-2.2 0-4 .42-4 .933m-94.595 2.222c-.429.693-.276.883.383.476 2.176-1.345 8.211 6.103 8.227 10.152.008 2.044.632 5.517 1.386 7.717.755 2.2 1.67 5.575 2.035 7.5.652 3.443.629 3.429-1.387-.859-1.127-2.398-2.074-5.323-2.104-6.5-.03-1.178-.921 1.165-1.98 5.206s-3.425 10.348-5.259 14.015c-3.164 6.324-3.307 7.07-2.771 14.522l.565 7.855 6.323-4.759c5.822-4.382 12.254-11.726 15.088-17.23 3.523-6.84 3.538 3.802.019 13.208-3.262 8.718-11.262 15.889-20.096 18.015-4.278 1.03-5.572 2.125-7.781 6.586-1.346 2.717-2.808 4.941-3.25 4.941-4.399 0 6.203 7.728 11.741 8.559 7.025 1.053 8.076.221 12.984-10.281 2.46-5.264 4.472-9.976 4.472-10.472 0-.497.9-2.765 2-5.042s2-4.929 2-5.893.45-2.031 1-2.371c2.331-1.441.659-27.163-2.08-32-.311-.55-1.164-2.901-1.894-5.224-.731-2.323-2.048-5.048-2.927-6.055-.88-1.006-2.09-2.706-2.69-3.776-1.306-2.329-10.412-9.433-12.1-9.44-.655-.003-1.512.515-1.904 1.15m14.928.583c0 1.829 2.423 4.839 3.239 4.024.262-.263-.183-1.024-.988-1.693-.806-.668-1.219-1.857-.918-2.642s.125-1.427-.392-1.427c-.518 0-.941.782-.941 1.738m-54.812 2.238c-.983 1.087-2.178 1.736-2.655 1.441S638 353.835 638 355s-.357 1.898-.792 1.628c-.436-.269-.861.413-.944 1.517-.174 2.306 1.696 1.234 5.056-2.9 1.009-1.241 2.506-2.928 3.328-3.75 1.253-1.253 1.265-1.495.078-1.495-.779 0-2.221.889-3.205 1.976m15.729-.48c-1.859 2.111-1.566 2.504 1.872 2.504 2.499 0 2.9-.268 2.009-1.342-.612-.738-.818-1.638-.456-2s.021-.641-.758-.62-1.979.677-2.667 1.458m6.276 2.004c2.678 7.497 3.598 12.219 4.156 21.331.498 8.151.972 10.482 2.226 10.96.875.335 2.464 1.418 3.531 2.409 2.91 2.702 3.309 2.357 5.511-4.772 2.648-8.574 4.075-17.584 3.87-24.428l-.165-5.5L682 360c-.36 3.575-.732 5.686-.827 4.691s-.626-1.529-1.18-1.187c-.554.343-1.282-.094-1.618-.97-.393-1.023-1.286-1.38-2.493-.996-1.085.344-1.882.118-1.882-.533 0-.622-.788-1.051-1.75-.953-3.344.34-3.864-.068-3.669-2.881.128-1.843-.462-3.24-1.692-4.009-1.476-.921-1.892-.904-1.904.08-.011.866-.352.791-1.095-.242-.866-1.204-.938-1.106-.364.5M280 358.031c0 1.083-.389 1.969-.863 1.969-1 0-6.602 11.767-6.665 14-.024.825.679 2.175 1.562 3s1.897 2.288 2.254 3.25 1.338 1.75 2.181 1.75c.842 0 1.531.75 1.531 1.667 0 .916.292 1.375.648 1.018s1.533.356 2.614 1.583l1.964 2.232-.863-4.5c-.475-2.475-.738-8.55-.586-13.5s.044-9.963-.241-11.14c-.701-2.892-3.536-3.958-3.536-1.329m363.377 2.27c-6.841 7.587-9.879 11.995-9.561 13.87.17 1.006-.169 1.829-.753 1.829-.585 0-1.063.849-1.063 1.888 0 1.657.812 1.892 6.645 1.926 3.655.021 6.918.442 7.25.935 1.176 1.744 4.679 2.636 10.964 2.793l6.359.158-.662-4.987c-.808-6.092-4.423-13.453-9.207-18.749-4.49-4.97-5.209-4.946-9.972.337M704 366.059c0 .582.412.805.915.494s1.142 0 1.421.691c.305.758.537.562.585-.494.043-.962-.596-1.75-1.421-1.75s-1.5.477-1.5 1.059m-278.178 2.691c-.098 1.512-.101 3.65-.007 4.75s.559 6.275 1.033 11.5l.861 9.5.146-10.75c.08-5.913-.215-10.75-.654-10.75s-.616-1.575-.391-3.5.135-3.5-.201-3.5c-.335 0-.689 1.238-.787 2.75m76.527 5.25c0 4.675.173 6.587.383 4.25s.211-6.163 0-8.5c-.21-2.337-.383-.425-.383 4.25m-200.935-.354c-.895 3.082-1.243 5.885-.771 6.229.471.344.902 1.188.957 1.875.306 3.829.488 4.313 1.407 3.746.554-.343 1.295.126 1.646 1.042.362.942.046 2.03-.728 2.509-3.56 2.2.383 1.738 4.209-.493 6.962-4.061 7.146-4.213 6.701-5.55-.319-.955-.831-.865-2.058.362-.899.899-2.904 1.631-4.456 1.627l-2.821-.006 3-1.987c1.65-1.093 2.438-1.99 1.75-1.993-.687-.004-1.25-.682-1.25-1.507s.477-1.5 1.059-1.5.781.45.441 1c-.58.938 1.417 1.443 4.25 1.075.688-.09 1.25.47 1.25 1.242 0 .955.791 1.254 2.464.935 2.072-.396 2.399-.136 2.057 1.638-.466 2.419.076 2.656 1.9.832 1.63-1.63.314-2.965-4.717-4.784-2.013-.728-6.135-3.702-9.16-6.609l-5.501-5.285zm90.41 3.4c-.212 2.225-.041 4.587.38 5.25.421.662.772-1.159.781-4.046.018-6.235-.618-6.895-1.161-1.204m76.519 5.454c.003 4.4.179 6.076.39 3.724s.209-5.952-.006-8-.388-.124-.384 4.276m33.967 7c.005 3.3.192 4.529.415 2.732s.218-4.497-.01-6c-.229-1.503-.411-.032-.405 3.268m271.87-2.992c-2.828 3.252-2.759 6.004.225 8.988 2.063 2.063 2.748 2.244 4.814 1.269 3.565-1.683 6.695-9.765 3.781-9.765-.55 0-1-.675-1-1.5 0-2.525-5.347-1.836-7.82 1.008m-487.424 3.156c.691.279 1.06.825.82 1.214s.503.778 1.653.864c1.15.087 2.368.607 2.707 1.155.354.572 1.196.64 1.974.159.97-.6.467-1.034-1.765-1.524-1.717-.377-3.379-1.101-3.693-1.609-.313-.508-1.106-.887-1.761-.844-.852.056-.834.223.065.585m-8.617 5.25c1.299 1.053 2.553 1.723 2.788 1.49.514-.511-3.067-3.327-4.288-3.372-.473-.018.202.829 1.5 1.882m352.34.434c-4.922 2.806-8.484 5.919-8.549 7.47-.057 1.36-.235 1.3-.93-.318-.554-1.29-.884 1.839-.93 8.809-.045 6.968.285 10.589.93 10.191.55-.34 1 .084 1 .941 0 2.539 2.74 1.778 4.284-1.191 4.088-7.861 6.167-11.25 6.902-11.25.447 0 .814-.9.814-2s.45-2 1-2 1-.9 1-2 .398-2 .883-2c.486 0 1.103-1.012 1.372-2.25.268-1.238.819-3.038 1.223-4 .882-2.099-5.521-2.385-8.999-.402M502.407 414c0 9.075.152 12.788.337 8.25s.185-11.962 0-16.5-.337-.825-.337 8.25m84.15-9.777c-1.337 1.908-1.555 7.103-1.543 36.75.007 18.99.27 35.485.584 36.655.765 2.85 4.428 4.372 10.52 4.372 8.283 0 7.882 2.026 7.882-39.814V405.23l-2.465-1.615c-3.91-2.562-13.017-2.193-14.978.608m166.771 5.277c.005 3.85.185 5.302.402 3.228.216-2.075.213-5.225-.008-7s-.398-.078-.394 3.772m22.172-2.161c-1.707 2.156-3.5 5.584-3.5 6.693 0 1.778 5.304 6.557 5.759 5.19.224-.672 1.158-1.226 2.074-1.23 1.574-.007 4.167-4.063 4.167-6.517 0-1.589-4.343-5.483-6.064-5.437-.79.021-1.886.606-2.436 1.301M753.374 427.5c.002 6.05.167 8.396.366 5.213.199-3.182.197-8.132-.004-11-.201-2.867-.364-.263-.362 5.787M353 421c0 .55-.675 1-1.5 1s-1.5.45-1.5 1-.9 1-2 1-2 .45-2 1 .648 1 1.441 1 1.719-.45 2.059-1 1.491-1 2.559-1c1.274 0 1.941-.687 1.941-2 0-1.1-.225-2-.5-2s-.5.45-.5 1m279.397 11.75c-4.701 7.925-8.397 16.32-8.397 19.071 0 2.508 2.496 7.35 3.348 6.497.359-.358.652.114.652 1.049 0 2.149 6.404 8.633 8.526 8.633.875 0 1.314.45.974 1-.345.559.423 1 1.741 1 1.297 0 2.851.492 3.453 1.094.601.601 1.929.879 2.95.616 1.492-.384 1.404-.501-.453-.594-1.27-.064-2.038-.555-1.706-1.092.766-1.239-1.623-13.316-2.797-14.142-.82-.577-.687-3.307.89-18.234.394-3.723.219-6.251-.48-6.95-.604-.604-1.098-1.908-1.098-2.898 0-4.085-3.655-1.706-7.603 4.95M777 431c0 .55-.482 1-1.071 1-3.998 0-6.039 19.033-2.429 22.643.825.825 1.5 1.018 1.5.428 0-.589.932-1.071 2.071-1.071 3.952 0 4.778-2.158 5.112-13.364l.317-10.64-2.75.002c-1.513.001-2.75.452-2.75 1.002m-274.63 13c0 5.775.165 8.137.367 5.25s.202-7.613 0-10.5-.367-.525-.367 5.25m149.108-3.965c-1.56 2.525-.12 18.422 2.243 24.759l.856 2.295 3.962-2.838c2.178-1.56 5.761-3.906 7.961-5.212l4-2.375-3 3.244c-1.65 1.784-5.111 4.434-7.691 5.888s-4.943 3.332-5.25 4.174a52 52 0 0 1-1.194 2.932c-.486 1.077-.081 1.241 1.751.707a77 77 0 0 1 4.884-1.212c1.375-.284 2.928-.94 3.45-1.457s1.76-.94 2.75-.94 1.8-.45 1.8-1 .635-1 1.41-1c1.606 0 12.59-10.227 12.59-11.723 0-.539 1.35-2.393 3-4.12 1.65-1.726 2.993-3.705 2.985-4.398-.01-.778-.296-.877-.75-.259-.404.55-2.76 2.097-5.235 3.437-3.26 1.765-4.122 1.972-3.128.75 1.208-1.484 1.117-1.687-.75-1.687-1.167 0-2.122.354-2.122.787s-.934.858-2.076.944c-1.638.123-1.839-.129-.951-1.198.774-.933.798-1.557.076-2.003-.577-.356-1.049-.171-1.049.411s-.702 1.059-1.559 1.059-1.281-.45-.941-1q.945-1.53-3.75-1.052c-.962.098-1.75-.301-1.75-.885s-.587-1.063-1.305-1.063c-.717 0-3.024-1.575-5.125-3.5-4.056-3.714-5.067-4.124-6.092-2.465M370 445c0 .55-1.35 1-3 1s-3 .45-3 1-1.35 1-3 1-3 .45-3 1-1.575 1-3.5 1-3.5.45-3.5 1-1.35 1-3 1-3 .45-3 1-1.35 1-3 1-3 .45-3 1-1.575 1-3.5 1-3.5.45-3.5 1-1.312 1-2.917 1-3.066.337-3.25.75c-.183.413-2.319 1.453-4.747 2.311-2.57.91-4.516 2.262-4.659 3.237-.199 1.356.118 1.481 1.663.654 1.308-.7 1.91-.696 1.91.013 0 .569 1.35 1.035 3 1.035s3 .352 3 .782 1.238.884 2.75 1.009 2.9.672 3.083 1.218 1.646.991 3.25.991 2.917.45 2.917 1 1.35 1 3 1 3 .45 3 1 1.157 1 2.571 1c3.284 0 6.379 2.795 4.429 4-1.073.663-1.022 1.121.266 2.409 2.101 2.101 2.734 2.007 2.734-.409 0-1.556.667-2 3-2 3.224 0 4.144 2.456 1.8 4.8-.933.933-.502 1.2 1.941 1.2 1.728 0 3.419.45 3.759 1s1.716 1 3.059 1 2.441.45 2.441 1 1.323 1 2.941 1 3.219.45 3.559 1 1.69 1 3 1 2.66.45 3 1 1.941 1 3.559 1 2.941.45 2.941 1 1.602 1 3.559 1c2.118 0 3.309.405 2.941 1s.823 1 2.941 1c1.957 0 3.559.45 3.559 1s1.35 1 3 1 3 .45 3 1 1.35 1 3 1 3 .45 3 1 1.35 1 3 1 3 .45 3 1 1.323 1 2.941 1 3.219.45 3.559 1 1.69 1 3 1 2.66.45 3 1c1.247 2.017 7.5 1.183 7.5-1 0-2.533 3.502-2.713 4.88-.25.822 1.469.39 1.933-2.701 2.895l-3.679 1.145 3.75.105c2.063.058 3.75.555 3.75 1.105s1.35 1 3 1 3-.45 3-1c0-.571 2.98-1 6.941-1 3.818 0 7.219.45 7.559 1s1.69 1 3 1 2.66.45 3 1 1.69 1 3 1 2.66.45 3 1 1.933 1 3.54 1c3.071 0 4.856 3.222 3.599 6.498-.417 1.086.107 1.502 1.892 1.502 1.358 0 2.469-.45 2.469-1s-.45-1-1-1c-1.853 0-1.019-1.762 1.096-2.315 3.136-.82 5.059.252 4.366 2.433-.33 1.04-.119 1.882.471 1.882.587 0 1.067-.45 1.067-1s1.35-1 3-1 3-.45 3-1 1.098-1 2.441-1 2.719-.45 3.059-1 1.491-1 2.559-1 1.941-.45 1.941-1 1.35-1 3-1 3-.45 3-1 1.152-1 2.559-1c1.451 0 2.292-.433 1.941-1-.361-.583.656-1 2.441-1 4.438 0 3.749-1.745-1.191-3.017-21.152-5.443-33.304-15.296-35.491-28.776-.699-4.308-2.291-6.207-5.201-6.207-1.147 0-2.867-.395-3.822-.877-2.917-1.474-8.755-3.123-11.057-3.123-1.198 0-2.179-.45-2.179-1s-1.827-1-4.059-1c-2.451 0-3.814-.396-3.441-1 .361-.583-.656-1-2.441-1-1.682 0-3.059-.45-3.059-1s-1.35-1-3-1-3-.45-3-1-1.575-1-3.5-1-3.5-.45-3.5-1-1.323-1-2.941-1-3.219-.45-3.559-1-1.941-1-3.559-1-2.941-.45-2.941-1-1.575-1-3.5-1-3.5-.45-3.5-1-1.575-1-3.5-1-3.5-.45-3.5-1-1.575-1-3.5-1-3.5-.45-3.5-1-1.8-1-4-1-4-.45-4-1-1.35-1-3-1-3-.45-3-1-1.35-1-3-1-3-.45-3-1c0-.583-3.333-1-8-1s-8 .417-8 1m37.2 12.2c-.66.66-1.2 2.267-1.2 3.571 0 3.096-2.215 5.229-5.429 5.229-1.414 0-2.571.45-2.571 1s-.873 1-1.941 1-2.219.45-2.559 1c-.345.559-5.024 1-10.601 1-11.551 0-15.323 1.746-12.733 5.894 1.221 1.955 2.192 2.106 13.575 2.106 7.506 0 12.259.388 12.259 1 0 .55 1.35 1 3 1s3 .45 3 1 1.144 1 2.542 1c2.826 0 7.004 3.308 6.075 4.81-.327.53.07 1.515.883 2.19s1.231 1.626.93 2.113 1.448.887 3.889.887c4.998 0 7.202-1.783 6.181-5-.795-2.506 1.012-5 3.622-5 1.033 0 1.878-.45 1.878-1s.661-1 1.47-1 3.072-.9 5.03-2c2.885-1.621 5.414-2 13.33-2 10.077 0 12.17-.722 12.17-4.2 0-1.107-.738-1.8-1.917-1.8-1.054 0-2.094-.534-2.312-1.187-.298-.895-2.324-.943-8.235-.193-7.497.95-15.149.101-17.154-1.905-.394-.393-1.99-.715-3.549-.715s-2.833-.45-2.833-1-1.35-1-3-1c-2.619 0-3-.356-3-2.8 0-3.75-1.673-5.2-6-5.2-1.98 0-4.14.54-4.8 1.2m217.17 10.023c.192 3.857 5.538 10.777 8.326 10.777.717 0 1.304.45 1.304 1s.337.947.75.882c1.993-.315 3.306.219 2.75 1.118-.364.589.743 1.006 2.691 1.015 2.552.012 2.966.246 1.809 1.024-1.934 1.3 2.792.853 4.894-.462.767-.48 2.792-.856 4.5-.836s2.435-.211 1.615-.515q-1.49-.554 2-1.814c3.48-1.256 3.47-1.26-3.009-1.436-4.846-.131-5.864-.379-4-.976 2.027-.649 1.587-.82-2.321-.9-2.769-.058-5.442-.721-6.279-1.558-.802-.801-2.194-1.175-3.093-.83-1.109.426-1.398.244-.897-.567.406-.657.368-1.13-.086-1.051-2.033.353-3.324-.198-3.324-1.42 0-.729-1.224-2.416-2.72-3.75-1.496-1.333-2.115-1.636-1.377-.674s.892 1.75.341 1.75-1.688-1.012-2.53-2.25c-1.495-2.199-1.525-2.166-1.344 1.473m.896 1.659c.084 1.117.328 1.857.542 1.644s2.837 1.605 5.829 4.042c2.993 2.438 5.837 4.432 6.32 4.432s1.591.273 2.461.607c3.56 1.366 1.261-1.627-2.813-3.661-2.417-1.208-5.459-3.152-6.761-4.321-5.249-4.713-5.745-4.957-5.578-2.743M750.389 481.5c.001 7.15.161 9.944.353 6.208.193-3.735.192-9.585-.003-13-.194-3.414-.352-.358-.35 6.792M689 478.933c0 1.022 6.251 5.149 6.866 4.534.741-.741-2.06-3.465-2.979-2.897-.488.301-.887.12-.887-.404s-.675-1.211-1.5-1.528-1.5-.184-1.5.295m-190.732 5.157c-.346 4.594 14.818 14.182 26.732 16.903 3.025.691 6.805 1.65 8.399 2.132 3.953 1.193 14.339 1.107 15.101-.125.34-.55 1.465-1 2.5-1s2.203-.52 2.595-1.155c.415-.67.277-.884-.327-.511-.572.354-1.244-.139-1.492-1.095-.593-2.289.156-4.399 1.309-3.686.503.311.915.088.915-.494s-.873-1.059-1.941-1.059-2.219-.45-2.559-1-2.815-1-5.5-1-5.16.45-5.5 1-2.815 1-5.5 1-5.16-.45-5.5-1-2.59-1-5-1-4.66-.45-5-1-1.69-1-3-1-2.66-.45-3-1-1.716-1-3.059-1-2.441-.45-2.441-1-.9-1-2-1-2-.342-2-.759c0-.418-.808-1.265-1.796-1.882-1.479-.923-1.821-.794-1.936.731m88.289 2.183c-2.251 3.435-3.234 72.92-1.057 74.727.813.675 1.29 1.53 1.061 1.901s.768.773 2.217.893c1.448.12 3.081.665 3.628 1.212 1.495 1.495 8.537 1.194 10.165-.435 1.185-1.185 1.429-7.544 1.429-37.3 0-39.316-.246-41.249-5.25-41.263-1.513-.004-2.75-.458-2.75-1.008 0-2.159-7.891-1.096-9.443 1.273M697 484.619c0 1.047 5.171 6.381 6.187 6.381.447 0 .813-.477.813-1.059s-.409-.806-.909-.497-2.075-.824-3.5-2.518-2.591-2.732-2.591-2.307m-54.364 6.017c-1.45 1.45-2.636 3.25-2.636 4s-.562 1.251-1.25 1.114-1.138.313-1 1-.2 1.25-.75 1.25-1 .73-1 1.622c0 1.244.313 1.363 1.342.509.738-.612 1.676-.78 2.083-.372.408.407.592.066.408-.759-.183-.825.23-1.387.917-1.25s1.25-.452 1.25-1.309c0-.964.477-1.285 1.25-.84.688.396.912.347.498-.11s-.007-1.653.905-2.66c1.819-2.01 3.891-2.52 2.752-.676-.446.721-.274.882.457.43.644-.398.912-1.142.595-1.654-.53-.858.894-1.367 2.867-1.025.454.079.54-.318.191-.881-1.22-1.975-6.195-1.072-8.879 1.611m51.907-.705c-.317.512-.118 1.213.441 1.559s1.016.298 1.016-.105c0-.404 1.237.356 2.75 1.687 2.645 2.328 2.638 2.297-.187-.826-3.289-3.634-3.227-3.599-4.02-2.315m-30.327 6.936c1.72 3.871 3.388 6.877 3.706 6.678s.436 4.1.261 9.552c-.327 10.258.526 12.903 4.162 12.903.819 0 1.674.558 1.902 1.241.59 1.77 3.267-1.074 4.009-4.259.319-1.365 1.286-4.957 2.15-7.982s1.523-8.425 1.466-12-.31-5.712-.561-4.75-1.235 1.75-2.184 1.75-2.333.563-3.074 1.25c-1.077 1-1.205 1-.641 0 .388-.687.229-1.25-.353-1.25s-1.059.45-1.059 1-.9 1-2 1-2-.45-2-1-.958-1-2.128-1c-1.921 0-2.075-.414-1.591-4.25.295-2.337.319-3.462.054-2.5-.57 2.072-2.335 2.353-2.335.372 0-.757-.655-1.921-1.456-2.585-.815-.677-.079 1.889 1.672 5.83m22.975-4.933c.664 1.063 1.68 1.851 2.258 1.75.627-.11 1.035 1.905 1.012 4.995-.021 2.848.242 5.005.585 4.792 1.576-.973 4.554 22.517 3.54 27.922-1.026 5.47-2.054 4.32-2.367-2.648-.359-8.005-.71-11.095-1.393-12.287-.302-.527-.889-2.308-1.305-3.958-.752-2.987-.763-2.978-2.539 2.136-.98 2.825-3.385 8.513-5.344 12.641-3.08 6.491-3.431 7.957-2.6 10.857.529 1.844.962 4.593.962 6.109 0 3.465.743 3.45 5.661-.112 4.866-3.525 20.443-22.167 16.471-19.713-.763.472-.997-.058-.709-1.607.235-1.271.462-3.125.503-4.12.045-1.105.524-1.531 1.23-1.095 1.98 1.224.258-5.942-3.138-13.059-1.716-3.595-3.349-6.537-3.628-6.537s-.23.45.11 1 .168 1-.382 1-1.283-.457-1.628-1.016c-.346-.559-1.047-.758-1.559-.441-.512.316-.931-.75-.931-2.369 0-2.026-.769-3.448-2.465-4.559-3.232-2.117-3.816-2.038-2.344.319m17.673 2.983c2.111 3.093 3.962 8.769 5.08 15.583.487 2.967.914 3.984 1.05 2.5.126-1.375.399-3.962.606-5.75s-.069-3.25-.612-3.25-.988-.585-.988-1.301c0-1.839-2.352-6.682-3.25-6.691-.413-.004-.75-.833-.75-1.841s-.652-1.834-1.449-1.834c-1.185 0-1.128.472.313 2.584m-61.161 4.875c-2.037 2.086-3.703 4.115-3.703 4.509s-1.35 2.13-3 3.856c-1.65 1.727-3 4.198-3 5.491 0 1.294-.45 2.352-1 2.352s-1 .9-1 2-.45 2-1 2-1 .702-1 1.559.419 1.3.931.984 1.214-.117 1.561.443c.423.686 1.298.662 2.67-.073 1.192-.637 4.185-.845 7.19-.498 15.332 1.769 23.091-.694 17.49-5.552-1.864-1.616-2-2.221-.996-4.425 1.396-3.064.644-4.793-5.085-11.688-4.763-5.732-5.343-5.787-10.058-.958m106.549.708c.011 2.2.216 2.982.455 1.738s.23-3.044-.02-4-.446.062-.435 2.262M309 499c0 1.174.769 1.174 3.5 0 1.772-.762 1.687-.867-.75-.93-1.512-.038-2.75.38-2.75.93m9 2.128c0 .75-1.303.919-3.895.505-4.346-.695-5.238.269-4.037 4.367l.733 2.5.163-2.5.163-2.5.928 2.314c.51 1.273 1.331 2.066 1.823 1.761s1.123.321 1.402 1.388c.279 1.068-.007 2.152-.636 2.41s-.158.505 1.047.548 2.469.529 2.809 1.079 1.716 1 3.059 1 2.441.45 2.441 1 .873 1 1.941 1 2.219.45 2.559 1 1.154.993 1.809.985c.716-.01.592-.403-.309-.985-1.219-.788-1.09-.972.691-.985 2.528-.017 3.921-1.602 2.065-2.351-.998-.402-.999-.522-.006-.585.688-.043 1.25-.754 1.25-1.579 0-1.374 1.221-1.959 3.324-1.594.454.079.557-.29.229-.82-.327-.53.202-1.427 1.176-1.994 1.48-.862 1.238-1.036-1.479-1.062-1.788-.016-3.25-.48-3.25-1.03s-1.35-1-3-1-3-.45-3-1-1.35-1-3-1-3-.45-3-1-.9-1-2-1-2 .508-2 1.128m386.407 24.943c.088 15.12-13.107 31.793-25.251 31.907-1.491.014-2.533.749-2.866 2.022-.288 1.1-.921 2-1.407 2-.485 0-.883.801-.883 1.779 0 .979-.9 2.428-2 3.221-3.035 2.187-2.423 4.279 2.11 7.218 4.293 2.784 13.024 4.509 16.782 3.316 1.716-.544 2.127-.238 2.208 1.649.091 2.126.154 2.152.757.317.361-1.1 1.675-3.913 2.92-6.25s1.917-4.257 1.493-4.265-.318-.346.235-.75c1.269-.927 3.495-7.227 3.495-9.889 0-1.107.337-2.35.749-2.761 2.37-2.371 4.123-28.358 2.333-34.585-.442-1.538-.702.414-.675 5.071M407.5 522.695c.884.856 8.197 3.305 9.866 3.305 2.195 0 .054-1.871-2.616-2.286-1.788-.278-4.375-.839-5.75-1.246-1.618-.479-2.147-.399-1.5.227M634 535c0 .55-.9 1-2 1s-2 .42-2 .933-.877 1.211-1.949 1.551-3.322 1.901-5 3.468c-2.944 2.75-3.051 3.153-3.051 11.449V562h3c2.333 0 3-.444 3-2 0-1.1.45-2 1-2s1-.707 1-1.571c0-.865.563-2.16 1.25-2.878s1.925-2.316 2.75-3.551 2.063-2.833 2.75-3.551c.688-.718 1.25-1.704 1.25-2.19s.9-2.746 2-5.023c2.55-5.277 2.557-5.236-1-5.236-1.65 0-3 .45-3 1m75.549 19.569c-.335 2.162-1.691 7.306-3.014 11.431-1.495 4.664-2.051 7.859-1.47 8.45.584.593.935-.065.935-1.75 0-1.485.45-2.7 1-2.7s1-1.125 1-2.5.45-2.5 1-2.5 1-1.575 1-3.5.45-3.5 1-3.5c1.243 0 1.286-4 .064-5.931-.66-1.043-1.07-.367-1.515 2.5M585.528 570.25c-1.25 3.985-1.829 72.75-.613 72.75.597 0 1.085.482 1.085 1.071 0 1.711 2.292 3.406 5 3.7 1.375.149 3.887.492 5.581.763 2.122.34 3.757-.092 5.25-1.388 2.15-1.864 2.169-2.188 2.136-37.263-.031-33.117-.154-35.527-1.911-37.633-1.032-1.237-2.565-2.25-3.407-2.25s-1.809-.45-2.149-1-2.789-1-5.442-1c-4.128 0-4.927.325-5.53 2.25m49.14.224c-1.959 1.96-4.945 8.255-8.309 17.522-2.279 6.274-3.022 10-1.74 8.718.775-.775 3.381 1.749 3.381 3.274 0 .621.461.845 1.025.497.563-.349.96-.263.881.191-.368 2.119.226 3.324 1.639 3.324.85 0 2.698 1.152 4.107 2.561 3.266 3.266 3.302 3.191 2.164-4.561-.875-5.961-.487-19.181.777-26.5.754-4.362-1.589-7.361-3.925-5.026m63.086 14.776c-4.996 8.528-12.358 17.469-17.761 21.568-2.471 1.875-4.572 3.819-4.668 4.32s.054.451.333-.113c.28-.564 1.371-1.025 2.425-1.025 1.055 0 1.917-.45 1.917-1s.707-1 1.571-1c1.826 0 4.429-2.344 4.429-3.988 0-.621.52-.809 1.155-.417.69.427.884.276.48-.376-.37-.599.46-2.223 1.846-3.609 1.385-1.385 2.519-3.016 2.519-3.624 0-.607.52-.783 1.155-.391.663.411.884.278.52-.311-.348-.564.244-2.037 1.316-3.274 1.072-1.236 2.218-3.094 2.547-4.129.328-1.034 1.016-1.881 1.529-1.881s.933-.927.933-2.059.45-1.781 1-1.441 1-.309 1-1.441c0-2.929-.177-2.755-4.246 4.191m-45.835-3.098c-1.491 2.785-.489 16.098 1.695 22.531 1.902 5.605 1.278 6.214-6.614 6.453-4.993.151-4.763.233 2.5.89 5.963.54 8.739.374 10.904-.651 1.597-.756 3.509-1.375 4.25-1.375.74 0 1.346-.45 1.346-1s.702-1 1.559-1c.924 0 1.268-.47.846-1.155-.423-.684-.277-.884.36-.49.591.365 1.753-.016 2.583-.846S673.32 604 673.886 604c1.231 0 12.114-10.977 12.114-12.218 0-.476.9-1.832 2-3.012 1.1-1.181 2-2.737 2-3.459 0-.721.45-1.311 1-1.311s1-.74 1-1.645q-.002-1.643-5.489 3.547c-3.02 2.855-7.055 5.845-8.968 6.645-4.241 1.772-4.608 1.79-4.005.203.517-1.363-8.902-6.75-11.804-6.75-.954 0-1.734-.42-1.734-.933s-.897-1.217-1.994-1.565-2.65-1.289-3.452-2.091c-1.278-1.278-1.604-1.186-2.635.741m11.985 16.951c-1.978 1.649-4.535 3.069-5.681 3.155-1.147.087-1.888.475-1.647.864s-.129.909-.82 1.156-.949.779-.574 1.184c.716.772 10.756-5.478 12.847-7.998 2.052-2.471-.329-1.525-4.125 1.639M315.5 601.577c-4.95 1.882-14.175 5.42-20.5 7.861-6.325 2.442-13.187 5.007-15.25 5.701-4.165 1.402-5.368 4.861-1.691 4.861 1.132 0 1.781.45 1.441 1-.361.583.656 1 2.441 1 1.682 0 3.059.45 3.059 1s1.098 1 2.441 1 2.719.45 3.059 1 1.69 1 3 1 2.66.45 3 1 1.716 1 3.059 1 2.441.45 2.441 1 1.35 1 3 1 3 .45 3 1 1.35 1 3 1 3 .45 3 1 1.35 1 3 1 3 .45 3 1 1.35 1 3 1 3 .45 3 1 .873 1 1.941 1 2.219.45 2.559 1 1.716 1 3.059 1 2.441.45 2.441 1 1.35 1 3 1 3 .45 3 1 1.35 1 3 1 3 .45 3 1 1.35 1 3 1 3 .45 3 1 1.35 1 3 1 3 .45 3 1 1.377 1 3.059 1c1.785 0 2.802.417 2.441 1s.656 1 2.441 1c1.682 0 3.059.45 3.059 1s1.098 1 2.441 1 2.719.45 3.059 1 1.716 1 3.059 1 2.441.45 2.441 1 1.35 1 3 1 3 .45 3 1 1.35 1 3 1 3 .45 3 1 1.35 1 3 1 3 .45 3 1 .873 1 1.941 1 2.219.45 2.559 1 1.69 1 3 1 2.66.45 3 1 1.69 1 3 1 2.66.45 3 1 1.716 1 3.059 1 2.441.45 2.441 1 1.35 1 3 1 3 .45 3 1 1.35 1 3 1 3 .45 3 1 1.35 1 3 1 3 .45 3 1 1.35 1 3 1 3 .45 3 1 .873 1 1.941 1 2.219.45 2.559 1 1.716 1 3.059 1 2.441.45 2.441 1 1.35 1 3 1 3 .45 3 1 1.35 1 3 1 3 .45 3 1 1.35 1 3 1 3 .45 3 1 1.377 1 3.059 1c1.785 0 2.802.417 2.441 1-.369.596.843 1 3 1s3.369.404 3 1 .843 1 3 1 3.369.404 3 1c-.349.565.47 1 1.882 1 1.375 0 2.778.45 3.118 1s1.716 1 3.059 1 2.441.45 2.441 1 1.35 1 3 1 3 .45 3 1 1.35 1 3 1 3 .45 3 1 1.35 1 3 1 3 .45 3 1 1.125 1 2.5 1 2.5.45 2.5 1 1.35 1 3 1 3 .45 3 1 1.125 1 2.5 1 2.5.45 2.5 1 1.35 1 3 1 3 .45 3 1 1.35 1 3 1 3 .45 3 1 1.35 1 3 1 3 .45 3 1c0 1.869 3.862 1.01 4.5-1 1.048-3.303-.357-6-3.126-6-1.407 0-2.223-.436-1.874-1 .361-.583-.656-1-2.441-1-1.682 0-3.059-.45-3.059-1s-1.35-1-3-1-3-.45-3-1-1.377-1-3.059-1c-1.785 0-2.802-.417-2.441-1 .349-.565-.47-1-1.882-1-1.375 0-2.778-.45-3.118-1s-1.716-1-3.059-1-2.441-.45-2.441-1-1.35-1-3-1-3-.45-3-1-1.377-1-3.059-1-2.803-.414-2.491-.919c.313-.506-.179-1.667-1.093-2.581-1.549-1.549-1.485-1.826.947-4.081 1.435-1.33 3.555-2.419 4.711-2.419s1.884-.355 1.616-.788.943-1.363 2.691-2.065c1.748-.703 3.959-1.699 4.914-2.212s2.643-.935 3.75-.935 2.014-.45 2.014-1 .9-1 2-1 2-.45 2-1 1.083-1 2.406-1c1.867 0 2.296-.424 1.913-1.888-.347-1.329-2.619-2.543-7.656-4.096-3.94-1.213-13.698-4.413-21.686-7.111-8.317-2.809-16.329-4.905-18.75-4.905-2.325 0-4.227-.45-4.227-1s-1.35-1-3-1-3-.45-3-1-1.35-1-3-1-3-.45-3-1-1.35-1-3-1-3-.45-3-1-1.377-1-3.059-1c-1.785 0-2.802-.417-2.441-1 .34-.55-.315-1-1.455-1-2.033 0-6.026-1.81-7.079-3.209-.293-.39-3.668-1.797-7.5-3.127s-13.491-4.67-21.466-7.423-17.875-6.222-22-7.708-14.475-5.114-23-8.062c-8.525-2.949-24.725-8.578-36-12.509s-21.175-7.296-22-7.478-5.55 1.21-10.5 3.093m304.501 4.096c.001.455 1.126 2.134 2.5 3.733 1.375 1.598 2.499 2.563 2.499 2.144s-1.125-2.098-2.5-3.732-2.499-2.599-2.499-2.145M682.5 615c.37.599-.91 1.006-3.191 1.015-2.828.012-3.422.265-2.309.985 1.173.758.914.973-1.191.985-1.48.008-2.976.476-3.324 1.04-.349.563-.263.96.191.881 3.149-.547 10.343.254 9.824 1.094-.362.585.676 1 2.5 1 1.715 0 2.91.337 2.655.75s.66.817 2.033.9c7.116.427 17.421 16.116 19.279 29.35l.632 4.5 1.276-3c.702-1.65 1.038-4.35.748-6-1.383-7.855-2.015-10.035-3.278-11.297-.75-.75-1.048-1.89-.662-2.534.494-.825.257-.81-.806.05-1.252 1.013-2.137.463-5.255-3.267-2.062-2.466-6.444-6.727-9.737-9.468s-5.403-4.987-4.687-4.99.013-.679-1.562-1.5c-3.366-1.755-3.975-1.851-3.136-.494m6.5 2.885c0 .613.591 1.115 1.313 1.115 1.861 0 10.097 7.771 13.132 12.39 2.481 3.777 2.555 3.811 2.555 1.191 0-1.545-.428-2.435-1-2.081-.55.34-1-.084-1-.941s-.525-1.559-1.167-1.559c-.641 0-.858-.308-.482-.684.889-.889-5.333-7.316-7.082-7.316-.737 0-2.449-.727-3.804-1.615-1.514-.992-2.465-1.185-2.465-.5m-54.025 2.243c.752.805 2.395 1.549 3.652 1.653 1.256.104 2.641.249 3.078.323.437.073 2.595.011 4.795-.138 3.565-.242 3.348-.349-2-.993-3.3-.397-7.101-1.079-8.446-1.516-2.119-.687-2.264-.597-1.079.671m-372.725 3.618c-1.571.529-1.787 57.149-.249 65.258 1.145 6.038 2.158 7.006 9.893 9.454 3.083.976 6.618 2.172 7.856 2.658s3.262 1.274 4.5 1.75a90 90 0 0 1 4.768 2.045c1.384.648 3.522 1.254 4.75 1.346 1.227.093 2.232.425 2.232.737 0 .313 2.137 1.193 4.75 1.956s5.425 1.708 6.25 2.101c3.997 1.906 16.863 6.757 19 7.164.825.157 1.725.532 2 .834 1.085 1.193 11.273 3.903 12.352 3.287.631-.361.806-.28.389.179-.901.992 6.205 3.666 7.997 3.01.681-.249 1.131 0 1 .555-.247 1.045 8.686 4.778 13.524 5.652 1.519.274 3.009.897 3.309 1.383.301.487 1.645.885 2.988.885s2.441.352 2.441.782 2.137 1.395 4.75 2.145 5.2 1.672 5.75 2.049c.55.378 3.925 1.689 7.5 2.916s7.4 2.649 8.5 3.162c4.212 1.963 10.748 3.911 11.521 3.433.445-.275.959-.133 1.144.316.498 1.21 15.976 7.209 18.585 7.202 1.238-.003 2.25.445 2.25.995s.681 1 1.514 1c.832 0 2.295.397 3.25.883 3.159 1.607 6.66 2.961 13.236 5.117 3.575 1.172 7.4 2.551 8.5 3.065 3.868 1.805 13.834 4.935 15.716 4.935 1.046 0 1.656.399 1.355.886s.46 1.111 1.691 1.386 6.063 1.942 10.738 3.703c4.675 1.762 9.625 3.573 11 4.024s5.648 1.986 9.496 3.41c3.847 1.425 8.036 2.591 9.309 2.591 1.287 0 2.039.443 1.695 1-.351.567.49 1 1.941 1 1.407 0 2.559.45 2.559 1s.563 1.002 1.25 1.003c.688.002 4.625 1.386 8.75 3.076 4.125 1.689 8.96 3.15 10.746 3.246s3.247.438 3.25.758c.002.321.659.584 1.46.584s1.224-.375.941-.834c-.789-1.277 1.047-.989 2.414.378.948.948 1.685.737 3.394-.971 2.153-2.154 2.184-2.645 2.302-36.205.066-18.711-.157-34.468-.494-35.015-.741-1.198-27.006-10.119-27.028-9.18-.009.363-.419.022-.912-.757s-2.267-1.416-3.941-1.416-2.815-.37-2.536-.822-.19-.554-1.044-.227-1.552.112-1.552-.48c0-.591-.675-.816-1.5-.5-.826.317-1.5.03-1.5-.638s-.674-.955-1.5-.638c-.825.316-1.5.23-1.5-.192 0-1.207-6.857-3.376-8.149-2.578-.721.445-.89.28-.446-.437.722-1.169-1.058-1.643-4.843-1.292-1.066.099-1.632-.127-1.256-.502.907-.908-15.357-6.448-16.626-5.663-.599.37-.666.089-.17-.713.594-.962.362-1.15-.846-.686-.915.351-1.664.172-1.664-.398 0-.601-.892-.753-2.125-.361-1.43.454-1.902.312-1.441-.433.679-1.098-1.127-1.581-4.742-1.267-.995.086-1.571-.227-1.28-.697.744-1.204-21.015-8.494-22.609-7.575-.716.414-.956.371-.532-.095.886-.975-14.09-6.703-15.403-5.891-.477.295-.868.148-.868-.326 0-.473-4.286-2.346-9.524-4.161-8.188-2.836-9.767-3.11-11.25-1.947-1.539 1.205-1.585 1.172-.428-.308 1.138-1.455.891-1.76-2-2.469-1.814-.445-3.748-.823-4.298-.84s-1.225-.284-1.5-.593c-1.421-1.598-37.99-14.2-38.015-13.101-.009.365-.346.19-.75-.389-.951-1.362-21.215-8.579-22.265-7.929-.44.271-.95.107-1.135-.365-.446-1.143-14.861-6.256-15.873-5.631-.435.269-.942.122-1.127-.327-.304-.74-22.555-8.968-25.918-9.583-.779-.143-3.159-1.014-5.289-1.936S288.316 632 287.779 632s-2.395-.666-4.128-1.481c-5.473-2.572-14.85-5.514-15.768-4.946-.486.3-.883.121-.883-.397 0-1.124-2.987-2.023-4.75-1.43m466.115 9.754c.003 5.5.171 7.622.373 4.716.203-2.905.201-7.405-.004-10s-.371-.216-.369 5.284m-65.964-6.347-2.099 1.018 2.444 6.052c2.647 6.554 4.202 15.203 4.234 23.552.017 4.604.318 5.388 2.365 6.166 1.289.49 3.118 1.665 4.064 2.611 1.08 1.08 2.071 1.368 2.665.774 1.936-1.936 5.909-22.762 5.785-30.326-.096-5.92-.278-6.762-.859-4-.405 1.925-.796 2.941-.868 2.257-.165-1.553-8.31-1.423-9.367.15-.504.751-.739.702-.75-.157-.008-.687-.84-1.25-1.848-1.25s-1.834-.675-1.834-1.5.204-1.296.453-1.048c.602.602 3.214-2.05 3.214-3.264 0-1.899-4.542-2.517-7.599-1.035m-18.167 2.679c-.918 2.393-4.437 6.161-5.272 5.645-.405-.251-.674.327-.599 1.284.076.962-.455 1.616-1.187 1.464-.738-.153-1.026.209-.651.815.458.742 1.227.589 2.405-.477.953-.862 2.071-1.229 2.484-.815.414.414.603.077.419-.748-.184-.83.258-1.377.991-1.225.729.151 1.04-.187.691-.75-.348-.564-.038-1.025.689-1.025s2.16-1.117 3.185-2.481c1.024-1.365 2.326-2.195 2.891-1.846.566.35.743.173.393-.393-1-1.617-5.763-1.209-6.439.552m43.711 1.852c.58 1.202 1.055 3.789 1.055 5.75s.373 3.566.828 3.566c1.064 0 3.196 9.186 3.093 13.326l-.079 3.174-1.004-2.75c-.553-1.513-1.642-2.75-2.421-2.75s-1.441-.788-1.471-1.75c-.029-.962-.862.778-1.851 3.867-.988 3.09-3.288 8.224-5.11 11.41-3.136 5.481-3.252 6.026-2.15 10.147.641 2.395 1.165 5.473 1.165 6.84 0 6.008 9.224-1.417 18.441-14.844 4.629-6.745 6.602-5.868 4.608 2.049C700.045 681.65 689.59 694 682.494 694c-1.487 0-2.346.431-1.994 1 .34.55-.29 1-1.399 1-1.354 0-2.919 1.561-4.762 4.75-1.509 2.612-3.651 5.563-4.76 6.556-1.254 1.125-1.625 2.068-.981 2.5 8.875 5.955 10.049 6.001 14.324.565 1.143-1.452 2.078-2.333 2.078-1.956 0 1.437-3.015 6.431-4.229 7.004-1.678.791 7.322-.134 9.524-.979 5.554-2.131-3.043 9.468-10.525 14.2-4.571 2.892-8.79 3.316-6.642.668.754-.931.868-1.39.251-1.021-.616.369-2.162-.231-3.434-1.335s-3.356-2.219-4.629-2.479c-1.274-.26-3.447-.708-4.829-.995s-3.815-1.886-5.408-3.553c-3.653-3.822-4.338-2.815-4.253 6.255.068 7.2 2.122 19.287 2.901 17.07.242-.687.899-1.25 1.461-1.25s2.887-1.256 5.167-2.792c6.869-4.626 7.396-4.57 2.167.232-2.739 2.513-5.777 4.824-6.752 5.133-1.285.408-1.612 1.207-1.187 2.901.442 1.76.095 2.493-1.405 2.97-2.635.836-12.104.266-11.518-.694.252-.413-.413-.75-1.479-.75-3.498 0-4.382-2.378-3.791-10.2.741-9.795 2.332-24.434 3.158-29.05 1.059-5.918-2.711-5.169-6.487 1.289C625.914 723.262 621.508 738 625 738c.55 0 1 .75 1 1.667 0 .916.292 1.375.648 1.018.887-.887 4.449 3.35 3.757 4.469-.305.492-.183.831.271.752 2.024-.351 3.39.178 2.824 1.094-.34.55.084 1 .941 1s1.559.45 1.559 1 .9 1 2 1 2 .45 2 1c0 2.033 16.652 1.174 21.511-1.11 2.469-1.161 4.489-2.511 4.489-3 0-.49.59-.89 1.311-.89.722 0 2.278-.9 3.459-2 1.18-1.1 2.543-2 3.028-2 1.226 0 8.202-7.667 8.202-9.015 0-.607.45-.825 1-.485s1-.046 1-.858.403-1.625.894-1.809c.902-.336 4.039-5.211 6.328-9.833.68-1.375 1.524-2.725 1.873-3 1.047-.823 4.686-8.392 5.059-10.521.19-1.089.654-2.212 1.031-2.498.376-.285.87-1.635 1.096-3s.654-3.156.951-3.981c2.148-5.971 3.041-12.185 3.377-23.487.464-15.6-.068-19.375-3.248-23.076-1.329-1.548-2.705-3.967-3.057-5.375-.352-1.409-1.915-3.755-3.472-5.213-1.558-1.458-2.864-3.258-2.902-4s-.457-.449-.93.651c-.781 1.818-.866 1.768-.93-.559-.038-1.407-.77-3.432-1.625-4.5-1.502-1.875-1.519-1.867-.5.243m-43.269 7.431c-2.078 1.714-3.568 3.327-3.309 3.585s-1.05 2.08-2.907 4.048c-1.857 1.969-3.167 3.917-2.912 4.33.256.413-.101.979-.792 1.258-.986.397-.979.523.033.585.849.052.593.826-.75 2.268-3.883 4.168-2.791 5.349 4.593 4.97 4.703-.242 6.873.041 7.448.97.667 1.08 1.447 1.082 4.409.011 2.197-.794 5.139-1.041 7.555-.633 3.781.639 3.956.552 3.956-1.981 0-5.185-3.258-12.597-7.718-17.557-5.281-5.874-4.834-5.787-9.606-1.854m-58.636 13.851c-2.242 1.944-2.242 1.947-2.209 35.929.034 34.307.222 36.301 3.756 39.834.698.699 2.176 1.271 3.283 1.271s2.29.45 2.63 1c.932 1.507 7.443 1.2 9.071-.429 1.921-1.92 2.13-69.687.228-73.716-2.222-4.71-12.944-7.198-16.759-3.889M708.343 668.5c.003 4.4.179 6.076.39 3.724s.209-5.952-.006-8-.388-.124-.384 4.276M631 675.852c-11.128 5.635-11 5.442-11 16.577 0 9.404.041 9.571 2.372 9.571 1.974 0 3.021-1.339 6.25-7.999 2.133-4.4 4.215-8 4.628-8 .413-.001.75-.676.75-1.501s.36-1.5.799-1.5c.835 0 3.201-5.78 3.201-7.821 0-1.674-2.919-1.393-7 .673m77.583 13.898c-.35 2.063-.997 6-1.438 8.75-1.486 9.26-7.603 21.464-13.344 26.617-.99.89-1.801 2.146-1.801 2.792s-.9 2.141-2 3.321-2 2.989-2 4.018-.445 1.595-.989 1.259c-.552-.341-.742.03-.431.84.306.798.006 1.791-.666 2.206-.834.515-.965.339-.414-.553.524-.848.418-1.067-.302-.622-.611.377-.885 1.275-.609 1.994s-.189 1.881-1.032 2.581c-.844.701-1.277 1.691-.962 2.2s1.851-.538 3.414-2.329c1.564-1.79 2.624-3.608 2.358-4.04-.267-.431-.008-.784.574-.784s1.059-.735 1.059-1.633.791-2.36 1.757-3.25c.966-.889 2.384-2.839 3.151-4.333s1.776-2.48 2.243-2.191.849-.428.849-1.593c0-1.192.448-1.841 1.025-1.485.563.349.96.263.881-.191-.428-2.466.21-4.371 1.249-3.729.68.421.884.277.496-.35-.879-1.424.315-4.384 1.479-3.665.506.313.855.198.776-.256-.428-2.467.228-5.359 1.094-4.824.567.351 1-.49 1-1.941 0-1.407.45-2.559 1-2.559s1-1.312 1-2.917.563-3.143 1.25-3.421c1-.403 1-.52 0-.583-.687-.043-1.243-.867-1.235-1.829.013-1.496.157-1.532.985-.25.683 1.057.974-.346.985-4.75.017-7.1-.474-7.975-1.402-2.5m2.649-.75c0 1.925.206 2.712.457 1.75.252-.962.252-2.538 0-3.5-.251-.962-.457-.175-.457 1.75m-125.975 46.488c-.684.777-1.213 2.447-1.175 3.712.037 1.265.064 10.175.061 19.8-.013 33.463.805 43 3.684 43 .482 0 2.289 1.35 4.016 3s3.818 3 4.648 3 1.509.45 1.509 1c0 1.736 2.107 1.086 4.056-1.25 1.747-2.094 1.88-4.428 1.911-33.566.023-21.871-.316-31.968-1.125-33.479-1.776-3.319-3.494-4.705-5.83-4.705-1.171 0-1.852-.45-1.512-1 .993-1.607-8.81-1.14-10.243.488M679.23 744c-1.18 1.1-3.14 2-4.355 2s-1.917.292-1.56.648-.252 1.43-1.354 2.386c-1.731 1.501-1.789 1.818-.43 2.34.907.347 1.314.184.962-.385-.343-.556.537-.989 2.007-.989 1.491 0 2.352-.431 2-1-.541-.876-.148-1.067 2.02-.979 1.15.047 3.089-2.482 3.218-4.196.171-2.272.114-2.268-2.508.175m-54.395 6.324c1.201 1.278 1.954 2.553 1.674 2.834-.28.28.178.509 1.018.509 1.091 0 .751-.811-1.187-2.834-1.493-1.558-2.933-2.833-3.201-2.833s.495 1.046 1.696 2.324M634 755c0 .55.563 1.007 1.25 1.015q1.25.016-.25.985c-1.668 1.078-.616 1.4 3.5 1.07 1.663-.133 1.747.014.5.87-1.663 1.141-.664 1.463 3.5 1.13 1.663-.133 1.747.014.5.87-1.137.78-.532 1.009 2.5.945 3.47-.073 3.669-.19 1.5-.885l-2.5-.801 2.596-.099c1.428-.055 4.033-.817 5.789-1.692 1.755-.876 3.873-1.331 4.705-1.012.86.33 1.25.154.903-.407-.337-.545-5.1-.989-10.611-.989-6.412 0-9.778-.359-9.382-1 .351-.567-.49-1-1.941-1-1.407 0-2.559.45-2.559 1"/></svg>