<svg xmlns="http://www.w3.org/2000/svg" viewBox="0 0 1024 1024"><path fill="#00e5cc" d="M285.023 263.777c-8.513.153-15.915.715-16.45 1.25s-1.981.973-3.214.973-2.519.45-2.859 1-1.491 1-2.559 1-1.941.45-1.941 1-.9 1-2 1-2 .45-2 1-.611 1-1.357 1C250.786 272 236 286.677 236 288.52c0 .814-.45 1.48-1 1.48s-1 .9-1 2-.45 2-1 2-1 .9-1 2-.45 2-1 2-1 1.323-1 2.941-.45 3.219-1 3.559c-.661.409-1 70.237-1 206.238 0 204.22.061 208.439 3.123 214.498.482.955.877 2.418.877 3.25 0 .833.45 1.514 1 1.514s1 .59 1 1.311c0 .722.9 2.278 2 3.459 1.1 1.18 2 2.59 2 3.133 0 1.556 12.949 14.097 14.556 14.097.794 0 1.444.45 1.444 1s.9 1 2 1 2 .45 2 1 .681 1 1.514 1c.832 0 2.295.406 3.25.903 6.928 3.601 6.811 3.598 159.984 3.549 114.82-.037 149.526-.326 150.45-1.25.661-.661 2.21-1.202 3.443-1.202s2.519-.45 2.859-1 1.491-1 2.559-1 1.941-.45 1.941-1 .9-1 2-1 2-.45 2-1 .653-1 1.452-1c1.632 0 16.548-14.53 16.548-16.12 0-.562.679-1.702 1.509-2.532s1.254-1.923.941-2.429c-.312-.505-.091-.919.491-.919s1.059-.862 1.059-1.917c0-1.054.446-2.066.991-2.25.546-.183 1.094-1.57 1.218-3.083.125-1.513.579-2.75 1.009-2.75s.782-2.223.782-4.941.45-5.219 1-5.559c.646-.4 1-19.51 1-54.059V602h-34v51.134c0 50.322-.255 55.029-3.353 61.866-1.306 2.882-6.172 7.927-9.404 9.75C566.39 726.359 274 726.607 274 725c0-.55-.69-1-1.533-1-1.75 0-7.802-5.88-8.292-8.056-.179-.794-.741-1.594-1.25-1.777-1.248-.45-1.248-403.884 0-404.334.509-.183 1.071-.983 1.25-1.777.49-2.176 6.542-8.056 8.292-8.056.843 0 1.533-.45 1.533-1 0-1.607 292.39-1.359 295.243.25 1.219.688 3.579 2.6 5.244 4.25 2.89 2.865 3.854 4.493 6.388 10.797.783 1.947 1.125 18.734 1.125 55.25V422h34v-40.889c0-41.794-1.373-76.348-3.058-76.944-.518-.184-.942-1.646-.942-3.25s-.45-2.917-1-2.917-1-1.04-1-2.311c0-1.272-.9-3.278-2-4.459s-2-2.593-2-3.14c0-1.569-14.934-16.09-16.548-16.09-.799 0-1.452-.45-1.452-1s-.9-1-2-1-2-.45-2-1-.9-1-2-1-2-.45-2-1-1.312-1-2.917-1-3.074-.474-3.267-1.053c-.324-.97-244.674-1.96-288.793-1.17M670 433.826v29.825l-2.314 2.175-2.315 2.174H422v88h243.651l2.175 2.314c2.129 2.267 2.174 2.913 2.174 31.441 0 16.02.368 29.354.818 29.632s1.449-.37 2.221-1.441c.771-1.07 1.868-1.946 2.437-1.946s2.946-1.8 5.281-4c2.336-2.2 4.723-4 5.304-4s.779-.45.439-1 .029-1 .82-1c.792 0 3.255-1.763 5.475-3.917 2.221-2.155 4.222-3.733 4.448-3.506.227.226 2.405-1.499 4.841-3.833s4.806-4.311 5.267-4.392 2.826-1.988 5.256-4.237 4.608-3.982 4.84-3.852 2.488-1.676 5.014-4.013 5.057-4.25 5.625-4.25.754-.45.414-1 .017-1 .793-1 2.823-1.35 4.55-3 3.619-3 4.207-3 .79-.45.45-1 .017-1 .793-1 2.823-1.35 4.55-3 3.619-3 4.207-3 .79-.45.45-1 .017-1 .793-1 2.823-1.35 4.55-3 3.495-3 3.929-3c.435 0 3.15-2.25 6.033-5s5.571-5 5.974-5 2.643-1.8 4.978-4 4.466-4 4.734-4c.597 0 3.965-2.732 7.089-5.75 1.281-1.237 2.701-2.25 3.156-2.25s3.175-2.24 6.045-4.978 5.248-4.65 5.282-4.25c.035.401.492-.343 1.016-1.651.944-2.359-.228-5.121-2.175-5.121-.468 0-2.845-1.846-5.283-4.102s-4.587-3.947-4.777-3.758c-.189.188-2.311-1.566-4.715-3.898-2.403-2.333-5.017-4.242-5.809-4.242s-1.16-.45-.82-1 .142-1-.439-1-2.968-1.8-5.304-4c-2.335-2.2-4.585-4-5-4-.414 0-2.664-1.8-5-4s-4.585-4-5-4c-.414 0-2.664-1.8-5-4s-4.574-4-4.975-4-2.795-1.913-5.321-4.25-4.9-4.244-5.277-4.237-2.482-1.681-4.679-3.75-4.323-3.763-4.726-3.763-3.091-2.25-5.974-5-5.598-5-6.033-5c-.434 0-2.203-1.35-3.929-3-1.727-1.65-3.512-3-3.968-3s-3.187-2.25-6.07-5-5.582-5-5.997-5-2.749-1.846-5.187-4.102-4.587-3.956-4.777-3.777c-.189.178-2.547-1.787-5.24-4.367s-5.199-4.505-5.568-4.276c-.369.228-1.303-.461-2.075-1.532-.771-1.07-1.753-1.946-2.182-1.946-.428 0-.779 13.422-.779 29.826"/></svg>