<svg xmlns="http://www.w3.org/2000/svg" viewBox="0 0 1024 1024"><path fill="#00e5cc" d="M310.5 233c-42.406.359-59.562.829-61 1.669-2.043 1.195-72.576 72.073-75.75 76.122-1.655 2.111-1.75 14.973-1.749 237.97l.001 235.739 2.249 2.59c1.237 1.424 3.53 2.906 5.095 3.293 3.791.937 661.494.946 665.226.01 3.226-.81 4.552-1.888 6.27-5.098.868-1.621 1.158-61.038 1.158-237.15V313.158l-6.657-7.329c-19.746-21.738-69.982-70.887-73.419-71.831-3.936-1.08-360.653-1.852-461.424-.998M266 280v26h492v-52H266zm-37.814 5.109c-8.363 8.31-16.132 16.41-17.264 18L208.864 306H244v-18c0-9.9-.137-18-.304-18s-7.147 6.799-15.51 15.109m551.532-10.042c-.3 2.234-.292 10.108.018 17.498L780.3 306h16.85c9.267 0 16.85-.388 16.85-.863s-2.138-2.888-4.75-5.363-8.575-8.47-13.25-13.321c-4.675-4.852-10.128-10.312-12.119-12.135l-3.618-3.313zM193.999 406.733c-.001 43.872-.054 138.851-.119 211.065-.064 72.214.139 131.554.452 131.867.598.598 10.668-9.299 10.668-10.484 0-.377 3.762-4.577 8.361-9.334s9.422-10.155 10.718-11.997 3.964-4.925 5.929-6.85 4.279-4.522 5.141-5.771 3.209-4.044 5.213-6.21l3.643-3.938-.252-183.79L243.5 327.5l-24.75-.267-24.75-.268zm72.643-79.041c-.353.353-.642 81.566-.642 180.475V688l83.75.032c90.908.034 85.852-.28 88.865 5.526 1.66 3.201 1.767 6.509.314 9.699-2.481 5.445 1.438 5.211-91.429 5.448-47.3.12-86.29.236-86.644.257-1.108.065-6.322 5.379-8.87 9.038-1.341 1.925-5.036 6.063-8.212 9.195S238 733.276 238 733.749s-2.588 3.546-5.75 6.829-6.752 7.243-7.977 8.801-5.387 6.225-9.25 10.373-7.023 8.15-7.023 8.894c0 1.136 49.034 1.354 304 1.354 253.104 0 304-.224 304-1.337 0-.736-3.407-4.898-7.571-9.25s-8.776-9.47-10.25-11.373c-1.473-1.903-5.041-5.951-7.929-8.996s-5.25-5.834-5.25-6.198c0-.363-3.825-4.608-8.5-9.433s-8.5-9.201-8.5-9.725c0-2.051-4.441-4.688-7.903-4.694-180.932-.291-171.887.004-174.939-5.699-2.528-4.724-.588-12.32 3.639-14.248 1.541-.702 29.25-1.047 84.168-1.047 45.029 0 82.583-.273 83.453-.607 2.248-.863 2.45-358.846.203-359.708-1.995-.766-489.214-.759-489.979.007m513.368 4.935c.005 3.23-.031 86.081-.082 184.113-.083 161.976.055 178.385 1.506 179.836.878.879 2.827 3.223 4.331 5.211s5.773 6.753 9.485 10.589 6.75 7.33 6.75 7.763 3.6 4.476 8 8.984c4.4 4.507 8 8.584 8 9.058 0 1.07 10.667 11.819 11.728 11.819.845 0 .556-421.049-.288-421.894-.286-.286-11.527-.707-24.98-.936l-24.46-.416zM504.5 386.506c-.55.26-5.05.92-10 1.468-13.82 1.528-17.464 2.159-18.065 3.132-.304.492-1.434.894-2.51.894-2.77 0-9.925 2.338-9.925 3.243 0 .417-.663.757-1.473.757-2.012 0-10.527 4.206-10.527 5.199 0 .441-.801.801-1.779.801-.979 0-2.428.9-3.221 2s-2.01 2-2.704 2-2.957 1.542-5.029 3.427a982 982 0 0 1-8.517 7.627c-2.613 2.31-4.75 4.653-4.75 5.206s-.819 1.733-1.821 2.623c-1.001.889-2.913 3.642-4.25 6.117-1.336 2.475-2.766 4.65-3.179 4.833-.413.184-.75 1.196-.75 2.25s-.45 1.917-1 1.917-1 .9-1 2-.45 2-1 2-1 .873-1 1.941-.45 2.219-1 2.559-1 1.69-1 3-.45 2.66-1 3-1 1.626-1 2.859-.406 2.669-.903 3.191c-2.171 2.284-3.874 29.629-2.058 33.024 2.217 4.141 4.604 4.426 37.054 4.426h30.998l2.454-2.455c1.914-1.913 2.455-3.496 2.455-7.179 0-2.598.432-6.106.96-7.795s1.527-5.208 2.219-7.821 1.579-4.75 1.972-4.75.997-.892 1.344-1.983c.89-2.805 8.037-10.017 9.927-10.017.868 0 1.578-.36 1.578-.801 0-1.628 14.886-3.547 18.802-2.424 2.034.583 5.723 1.652 8.198 2.376 16.105 4.709 20.689 30.504 7.793 43.849-4.466 4.622-13.292 12.486-15.922 14.187-1.435.928-4.853 3.853-7.597 6.5a1071 1071 0 0 1-9.381 8.926c-4.851 4.542-8.159 8.46-10.671 12.637-.909 1.513-2.006 2.75-2.438 2.75-.431 0-.784.9-.784 2s-.45 2-1 2-1 .681-1 1.514c0 .832-.397 2.295-.883 3.25-4.678 9.195-6.231 18.111-6.781 38.94-.592 22.404-4.211 20.304 34.914 20.264 24.718-.025 31.624-.315 33.038-1.388 2.614-1.983 3.712-6.944 3.712-16.776 0-8.62.418-10.451 4.193-18.377 2.308-4.846 4.975-7.957 10.08-11.756 2.075-1.544 4.867-3.902 6.204-5.239 1.338-1.338 2.836-2.432 3.329-2.432s2.202-1.242 3.796-2.761c1.594-1.518 4.473-3.866 6.398-5.218 3.996-2.805 21-19.874 21-21.081 0-.438.641-1.438 1.425-2.222 4.05-4.05 9.448-17.032 12.465-29.982 2.658-11.408.576-37.027-3.92-48.236-2.862-7.134-3.539-8.5-4.214-8.5-.416 0-.756-.9-.756-2s-.45-2-1-2-1-.59-1-1.311c0-.722-.9-2.278-2-3.459-1.1-1.18-2-2.632-2-3.227 0-1.409-18.594-20.003-20.003-20.003-.595 0-2.047-.9-3.227-2-1.181-1.1-2.737-2-3.459-2-.721 0-1.311-.45-1.311-1s-.9-1-2-1-2.004-.337-2.008-.75c-.009-.898-4.852-3.25-6.691-3.25-.716 0-1.301-.34-1.301-.757 0-.905-7.155-3.243-9.925-3.243-1.076 0-2.206-.402-2.51-.894-.624-1.01-4.836-1.694-18.565-3.015-17.297-1.663-23.489-2.064-24.5-1.585m-11 18.66c-10.778 2.114-26.303 6.707-27.116 8.022-.276.447-1.375.812-2.443.812s-1.941.45-1.941 1-.9 1-2 1-2 .374-2 .831-1.229 1.47-2.731 2.25c-3.537 1.838-16.35 14.651-18.188 18.188-.78 1.502-1.738 2.731-2.129 2.731-.39 0-1.269 1.35-1.952 3s-1.638 3-2.121 3-.879.863-.879 1.917-.356 2.066-.79 2.25c-1.745.735-5.873 15.773-6.886 25.083l-.517 4.75 14.096.214c7.754.118 16.677.231 19.83.25l5.733.036.825-4c.453-2.2 1.073-5.462 1.376-7.25.304-1.788.953-3.25 1.442-3.25.49 0 .891-.693.891-1.54 0-5.602 15.16-22.942 21.095-24.129 1.598-.32 2.905-.877 2.905-1.238 0-3.922 28.821-4.595 38.636-.902C541.348 442.974 554 456.312 554 464.93c0 1.074.45 2.23 1 2.57.563.348 1 5.157 1 11s-.437 10.652-1 11c-.55.34-1 1.734-1 3.099 0 2.995-3.576 10.281-6.143 12.518-1.022.89-1.857 2.17-1.857 2.846 0 1.319-14.864 16.037-16.196 16.037-.44 0-2.711 1.8-5.047 4s-4.593 4-5.018 4C518.698 532 504 546.75 504 547.795c0 .455-.788 1.701-1.75 2.767-2.242 2.485-6.25 10.201-6.25 12.033 0 .773-.405 1.405-.899 1.405-1.185 0-2.133 7.024-2.736 20.25-.488 10.704-.48 10.75 1.823 10.772 1.271.012 8.837.167 16.812.344 17.347.385 17 .48 17-4.607 0-2.215.427-5.654.949-7.643 2.966-11.296 3.559-13.116 4.269-13.116.43 0 .782-.59.782-1.311 0-.722.9-2.278 2-3.459 1.1-1.18 2-2.593 2-3.14 0-1.269 14.78-16.09 16.046-16.09.522 0 2.619-1.575 4.66-3.5s3.998-3.5 4.349-3.5c.352 0 1.72-.951 3.042-2.113 1.322-1.163 3.97-3.3 5.885-4.75 4.844-3.668 11.087-9.98 13.983-14.137 1.341-1.925 2.685-3.725 2.987-4 1.136-1.036 5.048-9.247 5.048-10.595 0-.773.45-1.405 1-1.405s1-1.548 1-3.441.45-3.719 1-4.059c1.293-.799 1.326-27.814.04-31.929-.528-1.689-1.527-5.208-2.219-7.821s-1.609-4.75-2.039-4.75-.782-.632-.782-1.405c0-1.832-4.008-9.548-6.25-12.033-.962-1.066-1.75-2.316-1.75-2.777 0-1.181-7.819-8.838-12-11.75-1.925-1.341-3.725-2.706-4-3.032-.955-1.133-13.181-7.003-14.586-7.003-.778 0-1.414-.45-1.414-1s-1.013-1.007-2.25-1.015-4.275-.756-6.75-1.663c-9.054-3.317-38.958-5.223-49.5-3.156m-19.639 228.745-2.361 1.912v32.409c0 34.893-.167 33.735 5.291 36.656 1.642.879 10.601 1.143 33.185.978 33.867-.248 33.493-.181 36.867-6.55 1.62-3.058 1.619-59.584-.001-62.611-2.568-4.798-1.833-4.705-37.16-4.705-31.453 0-33.602.115-35.821 1.911m15.619 16.122c-.777 1.257-.701 35.8.082 37.067.306.495 9.529.9 20.497.9H530v-18.893c0-16.305-.217-18.976-1.582-19.5-2.803-1.076-38.25-.688-38.938.426"/></svg>