<svg xmlns="http://www.w3.org/2000/svg" viewBox="0 0 1024 1024"><path fill="#00e5cc" d="M356 254.953c-10.277.637-20 2.71-20 4.265 0 .43-.59.782-1.311.782-.722 0-2.209.788-3.305 1.75s-2.839 2.23-3.872 2.817-2.358 1.902-2.945 2.922-2.305 3.195-3.817 4.832-2.75 3.546-2.75 4.244-.446 1.418-.991 1.602c-.546.183-1.094 1.571-1.218 3.083-.125 1.512-.534 2.75-.908 2.75-1.726 0-2.163 14.518-2.523 83.774l-.385 74.274 16.762-.274 16.763-.274.257-71.246c.238-66.065.383-71.398 2-73.329 4.159-4.968-7.557-4.716 219.743-4.727 213.64-.011 217.894.054 221.222 3.382 1.637 1.636 1.914 431.42.278 431.42-.55 0-1.004.563-1.008 1.25s-1.068 1.741-2.364 2.342c-2.919 1.352-430.047 1.253-433.128-.101-2.541-1.117-4.5-3.041-4.5-4.42 0-.589-.45-1.071-1-1.071-.656 0-1-21.5-1-62.5V600h8.393c6.731 0 8.513.313 9 1.582.334.87.607 26.522.607 57.004v55.423l205-.014 205-.014V310H364l-.107 56.5c-.059 31.075-.107 59.65-.107 63.5s.048 8.125.107 9.5L364 442h54v-38.941c0-40.045.197-42.001 3.892-38.657.971.879 2.193 1.598 2.716 1.598s1.599.9 2.392 2 2.017 2 2.721 2c.703 0 1.279.45 1.279 1s.454 1 1.009 1 2.422 1.35 4.148 3c1.727 1.65 3.522 3 3.989 3s2.51 1.566 4.539 3.48 3.868 3.3 4.087 3.082c.219-.219 2.27 1.365 4.557 3.52s4.497 3.918 4.908 3.918 1.836.946 3.166 2.103c1.33 1.156 2.796 2.163 3.258 2.237.461.074 2.637 1.828 4.834 3.897s4.559 3.763 5.25 3.763 1.255.374 1.255.831 1.226 1.47 2.723 2.25c1.498.78 4.478 3.107 6.621 5.169 2.143 2.063 4.292 3.75 4.774 3.75s2.538 1.566 4.567 3.48 3.87 3.298 4.092 3.077 1.779.912 3.461 2.52 3.441 2.923 3.908 2.923 2.51 1.566 4.539 3.48 3.868 3.3 4.087 3.082c.219-.219 2.27 1.365 4.557 3.52s4.524 3.918 4.97 3.918 2.248 1.348 4.005 2.995c1.758 1.648 3.538 2.998 3.955 3 .418.003 2.172 1.355 3.898 3.005 1.727 1.65 3.542 3 4.033 3s1.86.9 3.04 2c1.181 1.1 2.764 2 3.518 2 .753 0 1.092.45.752 1s-.137 1 .45 1c.588 0 2.481 1.35 4.207 3 1.727 1.65 3.522 3 3.989 3s2.761 1.8 5.097 4c2.335 2.2 4.61 4 5.056 4s2.248 1.348 4.005 2.995c1.758 1.648 3.558 2.998 4 3 .443.003 2.243 1.353 4 3s3.538 2.998 3.955 3c.418.003 2.172 1.355 3.898 3.005 1.727 1.65 3.522 3 3.989 3s2.51 1.566 4.539 3.48 3.868 3.301 4.087 3.082 2.018 1.131 4 3c1.981 1.869 3.781 3.218 4 3 .219-.219 2.248 1.344 4.509 3.474l4.111 3.873-3.187 3.045c-1.753 1.675-3.574 3.046-4.048 3.046-.473 0-2.273 1.35-4 3s-3.526 3-4 3c-.473 0-2.273 1.35-4 3s-3.483 3-3.903 3c-.421 0-2.637 1.763-4.925 3.918s-4.338 3.739-4.557 3.52-2.058 1.168-4.087 3.082-4.026 3.482-4.437 3.485-2.186 1.352-3.944 3c-1.757 1.647-3.603 2.995-4.101 2.995-.499 0-2.319 1.35-4.046 3-1.726 1.65-3.483 3-3.903 3-.421 0-2.637 1.763-4.925 3.918s-4.412 3.666-4.721 3.357c-.308-.309-.845.178-1.191 1.082S546.259 566 545.614 566s-1.804.876-2.575 1.946c-.772 1.071-1.698 1.765-2.057 1.543-.36-.223-2.265 1.114-4.234 2.971s-3.758 3.197-3.976 2.978c-.219-.219-2.019 1.131-4 3-1.982 1.869-3.782 3.219-4 3-.219-.219-2.058 1.168-4.087 3.082s-4.026 3.482-4.437 3.485-2.186 1.352-3.944 3c-1.757 1.647-3.557 2.997-4 3-.442.002-2.242 1.352-4 3-1.757 1.647-3.603 2.995-4.101 2.995-.499 0-2.319 1.35-4.046 3-1.726 1.65-3.483 3-3.903 3-.421 0-2.676 1.8-5.011 4s-4.629 4-5.097 4c-.467 0-2.262 1.35-3.989 3s-3.526 3-4 3c-.473 0-2.273 1.35-4 3s-3.593 3-4.148 3-1.009.45-1.009 1-.576 1-1.279 1c-.704 0-1.928.9-2.721 2s-1.95 2-2.572 2-2.544 1.35-4.271 3-3.483 3-3.903 3c-.421 0-2.787 1.905-5.259 4.234s-4.571 4.016-4.665 3.75c-.093-.266-1.334.529-2.757 1.766s-2.925 2.25-3.336 2.25-2.572 1.688-4.802 3.75c-4.688 4.336-9.868 7.483-10.795 6.557-.352-.352-.64-18.115-.64-39.474V582H306.23l-.676 5.415c-1.078 8.626.041 12.585 3.557 12.585H312v64.333c0 35.384.317 64.651.704 65.038.388.388.846 1.925 1.018 3.417.515 4.464 2.655 11.212 3.555 11.212.463 0 .585.414.273.919-.313.506.111 1.599.941 2.429s1.509 2.018 1.509 2.64c0 .621.45.852 1 .512s1 .132 1 1.049c0 1.87 8.808 10.424 10.75 10.44.688.006 1.25.461 1.25 1.011s.9 1 2 1 2 .45 2 1 .81 1 1.8 1 2.228.408 2.75.907c2.414 2.304 21.747 2.54 220.95 2.693 204.073.158 230.5-.157 230.5-2.743 0-.471 1.04-.857 2.311-.857 1.272 0 3.202-.787 4.289-1.75 1.088-.962 2.582-1.882 3.32-2.044 1.986-.434 15.119-14.334 14.496-15.342-.294-.475-.057-.864.525-.864s1.059-.81 1.059-1.8.437-2.237.971-2.771c.535-.535 1.123-1.963 1.308-3.175s.648-2.514 1.029-2.895.692-100.823.692-223.205c0-221.124-.057-225.321-3.123-231.39-.482-.955-.877-2.418-.877-3.25 0-.833-.45-1.514-1-1.514s-1-.646-1-1.435c0-1.596-10.569-12.565-12.107-12.565-.537 0-1.943-.9-3.123-2s-3.187-2-4.459-2-2.311-.353-2.311-.785c0-2.807-15.736-3.018-220.5-2.966-114.95.029-213.725.346-219.5.704M436 427.8c0 19.296-.367 30.167-1.04 30.84-.713.713-36.963.904-115.25.609-62.815-.238-115.448-.117-116.96.268l-2.75.7V564l6.25.038c3.438.022 55.923.017 116.634-.011 80.856-.036 110.75.254 111.75 1.084 1.099.912 1.366 6.978 1.366 31.011 0 32.695-.085 32.292 5.696 26.873 1.757-1.647 3.603-2.995 4.101-2.995.499 0 2.319-1.35 4.046-3 1.726-1.65 3.483-3 3.903-3 .421 0 2.637-1.763 4.925-3.918s4.338-3.739 4.557-3.52 2.019-1.131 4-3c1.982-1.869 3.782-3.219 4-3 .219.219 2.058-1.168 4.087-3.082s4.072-3.48 4.539-3.48 2.226-1.315 3.908-2.923 3.24-2.742 3.461-2.52c.222.221 2.063-1.163 4.092-3.077s4.072-3.48 4.539-3.48 2.262-1.35 3.989-3 3.526-3 4-3c.473 0 2.273-1.35 4-3s3.48-3.002 3.898-3.005c.417-.002 2.197-1.352 3.955-3 1.757-1.647 3.56-2.995 4.005-2.995.446 0 2.682-1.763 4.97-3.918s4.338-3.739 4.557-3.52 2.019-1.131 4-3c1.982-1.869 3.782-3.219 4-3 .219.219 2.019-1.131 4-3 1.982-1.869 3.782-3.219 4-3 .219.219 1.945-1.061 3.835-2.844s3.73-3.237 4.089-3.23c.358.007 2.259-1.45 4.223-3.238 1.965-1.788 3.967-3.25 4.45-3.25s2.291-1.35 4.018-3 3.526-3 4-3c.473 0 2.273-1.35 4-3s3.48-3.01 3.898-3.023c1.331-.041 8.259-6.732 8.259-7.977s-6.928-7.936-8.259-7.977c-.418-.013-2.172-1.373-3.898-3.023-1.727-1.65-3.547-3-4.046-3-.498 0-2.344-1.348-4.101-2.995s-3.538-2.998-3.955-3c-.418-.003-2.172-1.355-3.898-3.005-1.727-1.65-3.522-3-3.989-3s-2.761-1.8-5.097-4c-2.335-2.2-4.61-4-5.056-4s-2.248-1.348-4.005-2.995c-1.758-1.648-3.558-2.998-4-3-.443-.003-2.243-1.353-4-3s-3.558-2.998-4-3c-.443-.003-2.243-1.353-4-3s-3.532-2.998-3.944-3c-.411-.003-2.408-1.571-4.437-3.485s-3.87-3.298-4.092-3.077-1.779-.912-3.461-2.52-3.446-2.923-3.919-2.923c-.474 0-2.274-1.35-4-3-1.727-1.65-3.522-3-3.989-3s-2.51-1.566-4.539-3.48-3.868-3.301-4.087-3.082-2.018-1.131-4-3c-1.981-1.869-3.781-3.218-4-3-.219.219-2.27-1.365-4.557-3.52S470.174 422 469.763 422s-1.764-.883-3.005-1.963c-1.242-1.08-2.595-1.98-3.007-2.001s-2.66-1.838-4.995-4.037-4.589-3.999-5.01-3.999-2.177-1.35-3.903-3c-1.727-1.65-3.583-3-4.124-3s-1.712-.829-2.602-1.843c-1.534-1.748-5.33-4.157-6.551-4.157-.311 0-.566 13.41-.566 29.8"/></svg>