<svg xmlns="http://www.w3.org/2000/svg" viewBox="0 0 1024 1024"><path fill="#00e5cc" d="M380.5 284.054c-3.3 1.717-6.675 3.658-7.5 4.315s-3.525 2.272-6 3.588-4.725 2.652-5 2.968c-.463.532-2.444 1.716-7.5 4.481-1.1.602-2.225 1.33-2.5 1.618s-2.637 1.638-5.25 2.999c-2.613 1.36-4.75 2.812-4.75 3.225s-.59.752-1.311.752c-.722 0-2.278.9-3.459 2-1.18 1.1-2.84 2-3.688 2s-1.542.45-1.542 1-.497 1-1.105 1-3.105 1.35-5.55 3-4.695 3-5 3-2.555 1.35-5 3-4.788 3-5.207 3-1.636.788-2.705 1.75-3.967 2.839-6.439 4.171c-2.472 1.331-7.113 4.144-10.315 6.25S284.525 342 284.118 342s-1.613.788-2.679 1.751c-1.067.963-4.076 2.834-6.689 4.157-2.613 1.324-4.75 2.861-4.75 3.416s-.262.748-.581.428c-.489-.489-5.224 2.157-8.919 4.985-.55.421-3.137 1.848-5.75 3.171-2.613 1.324-4.75 2.861-4.75 3.416s-.262.748-.581.428c-.491-.491-5.344 2.227-8.919 4.994-.55.425-3.138 1.894-5.75 3.262s-4.75 2.827-4.75 3.24-.444.752-.986.752c-.931 0-17.945 9.811-19.014 10.964-.275.296-1.85 1.193-3.5 1.992s-3.9 2.18-5 3.069-5.375 3.602-9.5 6.029-7.65 4.758-7.833 5.18c-.184.421-1.196.766-2.25.766s-1.917.395-1.917.879c0 .483-1.35 1.438-3 2.121s-3 1.638-3 2.121-.444.879-.986.879c-1.855 0-18.072 10.244-19.544 12.347-2.241 3.199-2.182 106.396.065 114.126 1.271 4.372 5.465 10.596 5.465 8.111 0-.4.711-.016 1.581.854.869.869 1.994 1.325 2.5 1.012.505-.312.919-.091.919.491s.59 1.059 1.312 1.059 3.175.9 5.452 2 4.501 2 4.942 2 4.513 1.8 9.049 4 8.645 4 9.131 4 2.142.652 3.678 1.449 3.162 1.22 3.614.941c.452-.28.822-.031.822.551s.9 1.059 2 1.059 2 .45 2 1 .68 1 1.511 1 3.531.9 6 2l8.978 4c2.469 1.1 5.169 2 6 2s1.511.45 1.511 1 .624 1 1.386 1 2.642.652 4.178 1.449 3.162 1.22 3.614.941c.452-.28.822-.031.822.551s.624 1.059 1.386 1.059 2.642.652 4.178 1.449 3.162 1.22 3.614.941c.452-.28.822-.031.822.551s.81 1.059 1.8 1.059 2.227.378 2.75.84c.522.462 2.525 1.417 4.45 2.123s6.425 2.65 10 4.32 7.063 3.039 7.75 3.043 1.25.382 1.25.841.59.833 1.312.833 3.175.9 5.452 2 4.531 2 5.01 2 3.658 1.35 7.065 3c3.406 1.65 6.551 3 6.989 3s2.659.9 4.936 2 4.531 2 5.01 2 3.658 1.35 7.065 3c3.406 1.65 6.551 3 6.989 3s2.659.9 4.936 2 4.527 2 5 2 2.857.97 5.298 2.157c2.441 1.186 5.001 2.161 5.688 2.166.688.006 1.25.385 1.25.844s.81.833 1.8.833 2.228.383 2.75.851c.523.468 4.1 2.081 7.95 3.584 7.752 3.027 11.019 4.424 20.295 8.678 3.462 1.588 6.64 2.887 7.062 2.887s2.63.9 4.907 2 4.527 2 5 2 2.675.877 4.892 1.948c2.218 1.072 4.665 2.084 5.438 2.25s1.631.527 1.906.802c.73.73 7.287 3.172 8.75 3.259.688.041 1.25.449 1.25.908 0 .458.599.833 1.331.833.731 0 3.509 1.103 6.173 2.452s5.215 2.222 5.669 1.941c.455-.281.827-.034.827.548s.59 1.059 1.312 1.059 3.175.9 5.452 2 4.527 2 5 2 2.723.9 5 2 4.836 2 5.688 2 1.548.45 1.548 1 .59 1 1.312 1 3.284.953 5.694 2.117 4.857 2.195 5.438 2.29 3.698 1.393 6.927 2.883c3.229 1.491 6.182 2.71 6.562 2.71s2.688.97 5.129 2.157c2.441 1.186 5.001 2.161 5.688 2.166.688.006 1.25.385 1.25.844s.606.833 1.346.833 2.653.626 4.25 1.391 4.704 2.153 6.904 3.084 4.781 2.105 5.736 2.609 2.643.916 3.75.916 2.014.45 2.014 1 .59 1 1.312 1 3.175.9 5.452 2 4.501 2 4.942 2 4.401 1.721 8.798 3.825 9.571 4.448 11.496 5.208 4.593 1.941 5.928 2.623c1.336.683 2.798 1.013 3.25.734.452-.28.822-.031.822.551s.563 1.06 1.25 1.061c.688.002 5.525 1.863 10.75 4.137s10.063 4.148 10.75 4.164c.688.017 1.25.405 1.25.864s.59.833 1.312.833 3.175.9 5.452 2 4.836 2 5.688 2 1.548.34 1.548.755c0 .744 6.313 3.244 8.75 3.465.688.062 1.25.488 1.25.947s.569.833 1.265.833 3.958 1.313 7.25 2.918 6.66 3.068 7.485 3.25c.825.183 1.796.741 2.157 1.24.853 1.18 6.567-1.583 10.049-4.861 1.489-1.401 3.064-2.548 3.5-2.548.437-.001 2.101-1.126 3.7-2.5 1.598-1.375 3.177-2.499 3.51-2.499s1.939-1.237 3.57-2.75 3.129-2.591 3.329-2.397 1.45-.592 2.778-1.747c1.327-1.154 2.677-2.054 3-2 .322.055 1.674-.847 3.004-2.003s2.798-2.103 3.262-2.103c.465 0 2.149-1.246 3.743-2.77 1.594-1.523 3.276-2.827 3.737-2.897s1.926-1.072 3.254-2.227c1.327-1.154 2.677-2.054 3-2 .322.055 1.559-.734 2.748-1.753s5.197-3.878 8.906-6.353c3.708-2.475 6.745-4.837 6.748-5.25s.595-.75 1.316-.75 2.184-.795 3.25-1.767c1.067-.972 4.502-3.455 7.636-5.518 3.133-2.063 6.283-4.305 7-4.983s2.54-1.871 4.053-2.651 2.75-1.793 2.75-2.25.59-.831 1.311-.831c.722 0 2.184-.787 3.25-1.75 1.067-.962 3.623-2.875 5.682-4.25s3.746-2.783 3.75-3.129c.004-.345 1.357-1.188 3.007-1.871s3-1.532 3-1.885c0-.354 1.8-1.755 4-3.115s4-2.761 4-3.115c0-.353 1.35-1.202 3-1.885s3-1.608 3-2.054.787-1.062 1.75-1.368c.962-.306 2.875-1.573 4.25-2.817s3.737-2.9 5.25-3.68 2.75-1.793 2.75-2.25.59-.831 1.311-.831c.722 0 2.184-.788 3.25-1.75 1.067-.962 3.623-2.875 5.682-4.25s3.746-2.837 3.75-3.25.57-.752 1.257-.755c.688-.002 2.6-1.27 4.25-2.817 1.65-1.546 3.378-2.848 3.839-2.892.462-.044 1.928-1.027 3.258-2.183 1.33-1.157 2.78-2.103 3.222-2.103s1.676-.795 2.742-1.767 4.502-3.455 7.636-5.518c3.133-2.063 6.283-4.305 7-4.983s2.54-1.871 4.053-2.651 2.75-1.793 2.75-2.25.608-.831 1.352-.831c.743 0 2.687-1.237 4.319-2.75s3.583-2.891 4.335-3.062c.752-.172 2.117-1.176 3.032-2.232.916-1.056 1.873-1.712 2.127-1.458s2.018-.992 3.921-2.768c1.903-1.777 4.687-3.869 6.187-4.649s2.727-1.793 2.727-2.25.639-.831 1.421-.831 3.416-1.995 5.855-4.434c3.987-3.987 4.513-5.071 5.22-10.75 1.084-8.719 1.674-68.15.909-91.631-.707-21.729-.697-21.702-8.681-24.207-2.323-.729-4.652-1.698-5.174-2.152s-1.709-.826-2.636-.826-2.942-.652-4.478-1.449-3.162-1.22-3.614-.941c-.452.28-.822.031-.822-.551s-.81-1.059-1.8-1.059-2.227-.385-2.75-.855c-.522-.47-5.225-2.297-10.45-4.061s-10.419-3.654-11.543-4.203c-1.123-.548-2.698-1.128-3.5-1.288-.801-.16-2.209-.619-3.129-1.019s-2.269-.839-3-.974c-.73-.136-2.903-.911-4.828-1.723s-5.525-2.095-8-2.851-4.928-1.746-5.45-2.2-1.709-.826-2.636-.826-2.942-.652-4.478-1.449-3.162-1.22-3.614-.941c-.452.28-.822.113-.822-.37s-2.279-1.499-5.063-2.257c-2.785-.759-5.287-1.74-5.559-2.181s-1.504-.802-2.737-.802-2.668-.398-3.191-.884c-.522-.485-3.875-1.857-7.45-3.047s-7.281-2.592-8.236-3.116-2.333-.953-3.063-.953c-.729 0-3.188-.9-5.465-2s-4.746-2-5.488-2c-.741 0-1.785-.437-2.319-.971-.535-.535-1.862-1.142-2.95-1.35s-2.654-.656-3.479-.994c-.825-.339-4.2-1.564-7.5-2.722s-6.919-2.549-8.043-3.092-2.698-1.119-3.5-1.28c-.801-.162-2.582-.758-3.957-1.325s-2.837-.832-3.25-.59c-.413.243-.75.047-.75-.436s-2.279-1.499-5.063-2.257c-2.785-.759-5.287-1.74-5.559-2.181s-1.504-.802-2.737-.802-2.669-.398-3.191-.884c-.523-.485-3.875-1.873-7.45-3.082s-7.85-2.803-9.5-3.542-6.6-2.512-11-3.94c-4.4-1.429-8.781-3.037-9.736-3.575-.955-.537-2.553-.977-3.55-.977-.998 0-2.251-.437-2.785-.971-.535-.535-1.862-1.13-2.95-1.324s-3.721-1.107-5.851-2.029-4.466-1.676-5.191-1.676-1.597-.45-1.937-1-1.626-1-2.859-1-2.669-.398-3.191-.884c-.523-.485-3.875-1.857-7.45-3.047s-7.281-2.592-8.236-3.116-2.616-.953-3.691-.953-2.233-.45-2.573-1-1.407-1-2.371-1-3.616-.9-5.893-2-4.81-2-5.629-2-1.767-.45-2.107-1-1.44-1-2.445-1-3.083-.652-4.619-1.449-3.162-1.22-3.614-.941c-.452.28-.822.031-.822-.551s-.81-1.059-1.8-1.059-2.228-.385-2.75-.855c-.523-.471-5.45-2.37-10.95-4.221-5.5-1.852-11.093-3.919-12.428-4.594s-2.798-.999-3.25-.72c-.452.28-.822.13-.822-.333 0-.462-2.138-1.466-4.75-2.231s-7.776-2.633-11.475-4.151c-3.698-1.519-7.748-2.903-9-3.078s-2.5-.558-2.775-.852-3.875-1.615-8-2.935-7.95-2.709-8.5-3.084c-.999-.681-12.11-4.836-14-5.235-.55-.116-1.25-.546-1.556-.956s-1.768-.846-3.25-.968c-1.482-.123-2.694-.575-2.694-1.005s-1.04-.782-2.312-.782-4.175-.9-6.452-2-4.81-2-5.629-2-1.767-.45-2.107-1-1.626-1-2.859-1-2.669-.398-3.191-.884c-.523-.485-3.875-1.857-7.45-3.047s-7.281-2.592-8.236-3.116-2.553-.953-3.55-.953c-.998 0-2.241-.395-2.764-.877s-4.1-2.015-7.95-3.406a2023 2023 0 0 1-14-5.127c-11.053-4.102-13.998-4.177-21-.536m5 7.289c-1.65.622-3.229 1.438-3.509 1.814-.281.375-1.163.831-1.961 1.013-.799.181-2.342 1.118-3.43 2.08-1.087.962-2.567 1.75-3.289 1.75-.721 0-1.311.338-1.311.752 0 .413-2.137 1.869-4.75 3.235s-5.333 3.042-6.047 3.723c-.713.682-2.963 2.016-5 2.963s-3.928 2.005-4.203 2.349-2.522 1.719-4.994 3.053-5.37 3.213-6.439 4.175-2.479 1.75-3.133 1.75-1.758.686-2.454 1.524-1.474 1.316-1.729 1.06c-.255-.255-1.401.409-2.546 1.476s-2.672 1.94-3.394 1.94c-.721 0-1.311.338-1.311.752 0 .413-2.137 1.865-4.75 3.225s-4.979 2.786-5.259 3.168-1.163.843-1.961 1.025c-.799.181-2.342 1.118-3.43 2.08-1.087.962-2.567 1.75-3.289 1.75-.721 0-1.311.338-1.311.752 0 .413-2.137 1.871-4.75 3.24-2.613 1.368-5.2 2.847-5.75 3.285-2.828 2.251-13.553 8.723-14.457 8.723-.574 0-1.043.338-1.043.752 0 .413-2.137 1.865-4.75 3.225s-4.975 2.744-5.25 3.073c-.275.33-2.525 1.691-5 3.025s-5.083 2.976-5.797 3.65-2.963 2.001-5 2.948-3.928 2.005-4.203 2.349-2.525 1.719-5 3.053-4.725 2.667-5 2.963c-.746.803-17.943 10.962-18.556 10.962-.29 0-1.494.9-2.674 2-1.181 1.1-2.737 2-3.459 2-.721 0-1.311.338-1.311.752 0 .413-2.138 1.871-4.75 3.24-2.613 1.368-5.622 3.28-6.689 4.248-1.066.968-2.528 1.76-3.25 1.76-.721 0-1.311.45-1.311 1s-.9 1-2 1-2 .361-2 .803-2.243 1.904-4.984 3.25-4.992 2.73-5 3.076c-.009.345-1.366 1.188-3.016 1.871s-3 1.638-3 2.121-.707.879-1.571.879c-.865 0-2.237.665-3.05 1.478s-2.243 1.937-3.178 2.499c-1.577.947-1.56 1.131.24 2.522 1.068.826 2.643 1.515 3.5 1.532s4.248 1.368 7.534 3c3.286 1.633 6.548 2.969 7.25 2.969.701 0 1.275.375 1.275.833 0 .459.563.867 1.25.908 1.463.087 8.02 2.529 8.75 3.259.275.275 1.133.636 1.906.802s3.22 1.178 5.438 2.25c2.217 1.071 4.419 1.948 4.892 1.948s2.723.9 5 2 4.51 2 4.963 2c.452 0 2.73.833 5.062 1.852a771 771 0 0 0 9.739 4.147c3.025 1.262 6.857 2.874 8.515 3.583 5.586 2.388 8.979 3.724 10.041 3.955.581.126 3.028 1.182 5.438 2.346s4.752 2.117 5.205 2.117c.777 0 4.794 1.674 14.578 6.076 2.352 1.058 4.939 1.924 5.75 1.924s1.473.369 1.473.819c0 .451 2.25 1.432 5 2.181s5 1.73 5 2.181c0 .45.697.819 1.548.819s3.411.9 5.688 2 4.498 2 4.936 2 3.583 1.35 6.989 3c3.407 1.65 6.585 3 7.065 3 .479 0 2.733.9 5.01 2s4.527 2 5 2 2.723.9 5 2 4.73 2 5.452 2 1.312.375 1.312.833c0 .459.563.867 1.25.908 1.463.087 8.02 2.529 8.75 3.259.275.275 1.133.636 1.906.802s3.22 1.178 5.438 2.25c2.217 1.071 4.419 1.948 4.892 1.948s2.723.9 5 2 4.527 2 5 2 2.723.9 5 2 4.73 2 5.452 2 1.312.45 1.312 1 .886 1 1.97 1c1.083 0 3.572.9 5.53 2s3.942 2 4.408 2 2.59.755 4.72 1.677 4.347 1.769 4.928 1.883c.581.113 3.028 1.159 5.438 2.323s4.769 2.117 5.242 2.117 2.723.9 5 2 4.73 2 5.452 2 1.312.375 1.312.833c0 .459.563.838 1.25.844.688.005 3.247.98 5.688 2.166 2.441 1.187 4.825 2.157 5.298 2.157s2.723.9 5 2 4.498 2 4.936 2 3.583 1.35 6.989 3c3.407 1.65 6.585 3 7.065 3 .479 0 2.733.9 5.01 2s4.527 2 5 2 2.723.9 5 2 4.492 2 4.922 2c.431 0 3.384 1.21 6.562 2.689s6.23 2.798 6.78 2.931c1.911.46 8.003 2.883 8.5 3.38.52.52 3.658 1.78 13 5.22 3.025 1.114 5.928 2.42 6.45 2.903.523.482 1.76.877 2.75.877s1.8.45 1.8 1 .697 1 1.548 1 3.411.9 5.688 2 4.73 2 5.452 2 1.312.375 1.312.833c0 .459.563.838 1.25.844.688.005 3.247.98 5.688 2.166 2.441 1.187 4.825 2.157 5.298 2.157s2.723.9 5 2 4.618 2.014 5.202 2.031 3.751 1.368 7.037 3c3.286 1.633 6.683 2.969 7.55 2.969.866 0 2.003.38 2.525.844s3.65 1.884 6.95 3.156 6.428 2.692 6.95 3.156 1.648.858 2.5.875 4.239 1.368 7.525 3c3.286 1.633 6.548 2.969 7.25 2.969.701 0 1.275.525 1.275 1.167 0 .641.282.884.627.54.345-.345 1.897.03 3.45.833 3.063 1.584 7.923 1.97 7.923.629 0-.457 1.237-1.47 2.75-2.25s3.87-2.432 5.24-3.669c1.369-1.238 2.762-2.25 3.094-2.25.333 0 1.879-1.095 3.437-2.434 1.558-1.338 4.767-3.428 7.132-4.645s5.055-3.046 5.978-4.066c.924-1.02 2.284-1.855 3.024-1.855s1.345-.374 1.345-.831 1.237-1.47 2.75-2.25 3.622-2.207 4.689-3.169c1.066-.962 2.528-1.75 3.25-1.75.721 0 1.311-.374 1.311-.831s1.237-1.47 2.75-2.25 3.337-1.973 4.053-2.651c.717-.678 3.867-2.92 7-4.983s6.569-4.546 7.636-5.518c1.066-.972 2.322-1.767 2.792-1.767s1.397-.477 2.061-1.059c.664-.583 2.558-1.926 4.208-2.986 6.196-3.978 6.939-4.497 8.884-6.205 1.096-.963 2.583-1.75 3.305-1.75.721 0 1.311-.374 1.311-.831s1.237-1.47 2.75-2.25 3.622-2.207 4.689-3.169c1.066-.962 2.528-1.75 3.25-1.75.721 0 1.311-.374 1.311-.831s1.231-1.47 2.736-2.25 3.642-2.19 4.75-3.132 2.362-1.719 2.787-1.727 1.83-1.037 3.124-2.287c2.243-2.169 7.545-5.457 8.603-5.335.275.031 2.029-1.404 3.898-3.19s4.007-3.248 4.75-3.248 1.352-.374 1.352-.831 1.237-1.469 2.75-2.248 2.975-1.673 3.25-1.985c.9-1.022 9.487-6.69 10-6.601.275.047 1.625-.892 3-2.087s2.725-2.096 3-2c.275.095 1.625-.796 3-1.98 2.811-2.421 8.979-6.712 30-20.867 7.975-5.37 15.095-10.357 15.821-11.082.727-.726 1.67-1.319 2.095-1.319s2.08-1.124 3.678-2.499c1.599-1.374 3.469-2.499 4.156-2.5.688 0 1.25-.421 1.25-.934s.847-1.201 1.881-1.529c6.667-2.116 7.116-5.832.869-7.19-1.513-.329-2.75-.917-2.75-1.306 0-.39-.562-.751-1.25-.804-1.598-.121-14.087-4.546-14.75-5.226-.275-.281-1.175-.637-2-.79s-2.4-.672-3.5-1.153-4.7-1.862-8-3.069-6.9-2.572-8-3.032-4.925-1.819-8.5-3.019-6.928-2.58-7.45-3.065c-.523-.486-1.766-.884-2.764-.884s-2.595-.395-3.55-.877c-.955-.483-3.536-1.443-5.736-2.135s-5.8-2.065-8-3.053-7.15-2.832-11-4.099c-3.85-1.266-7.225-2.535-7.5-2.819s-1.4-.667-2.5-.851-2.428-.746-2.95-1.25-1.895-.916-3.05-.916-2.527-.372-3.05-.826-2.975-1.445-5.45-2.2-6.075-2.039-8-2.851-4.156-1.596-4.957-1.742-2.377-.717-3.5-1.269c-1.124-.553-6.318-2.431-11.543-4.175-9.356-3.123-18.615-6.519-24.5-8.985-1.65-.692-3.89-1.427-4.979-1.633-1.088-.207-2.415-.813-2.95-1.348-.534-.534-1.561-.971-2.282-.971s-3.218-.851-5.55-1.89c-2.331-1.04-6.388-2.452-9.015-3.138-2.626-.685-5.015-1.635-5.309-2.109-.293-.475-1.605-.863-2.915-.863s-2.66-.45-3-1-1.288-1-2.107-1-3.352-.9-5.629-2-4.929-2-5.893-2-2.031-.45-2.371-1-1.212-1-1.937-1-3.061-.754-5.191-1.676-4.762-1.835-5.851-2.029c-1.088-.194-2.415-.789-2.95-1.324-.534-.534-1.787-.971-2.785-.971-.997 0-2.595-.414-3.55-.92s-4.436-1.892-7.736-3.08-6.781-2.574-7.736-3.08-2.424-.92-3.264-.92-2.309-.414-3.264-.92-4.436-1.892-7.736-3.08-6.781-2.574-7.736-3.08-2.424-.92-3.264-.92-2.309-.429-3.264-.953-4.661-1.926-8.236-3.116-6.927-2.562-7.45-3.047c-.522-.486-1.958-.884-3.191-.884s-2.519-.45-2.859-1-1.288-1-2.107-1-3.352-.9-5.629-2-4.929-2-5.893-2-2.031-.45-2.371-1-1.69-1-3-1-2.66-.45-3-1-1.491-1-2.559-1-1.941-.477-1.941-1.059-.337-.86-.75-.617c-.413.242-1.875-.023-3.25-.59s-3.156-1.163-3.957-1.325c-.802-.161-2.377-.739-3.5-1.285s-4.968-1.979-8.543-3.185-6.95-2.524-7.5-2.931-2.125-.976-3.5-1.265c-2.162-.454-19.699-6.602-24-8.413-.825-.348-1.95-.761-2.5-.918-2.716-.778-13.124-4.761-14-5.358-.55-.375-4.375-1.763-8.5-3.084-4.125-1.32-7.725-2.642-8-2.935s-1.175-.66-2-.813c-.825-.154-2.4-.693-3.5-1.2s-4.025-1.589-6.5-2.406c-2.475-.816-8.325-2.9-13-4.63-9.265-3.428-17.212-6.019-18-5.869-.275.053-1.85.605-3.5 1.226m58.99 93.673c-.346.559-1.011.78-1.478.491s-1.45.041-2.181.734c-.732.692-2.569 1.898-4.081 2.678s-2.75 1.793-2.75 2.25-.59.831-1.311.831c-.722 0-2.184.788-3.25 1.75-1.067.962-3.177 2.389-4.689 3.169s-2.75 1.793-2.75 2.25-.587.831-1.305.831c-2.277 0-8.695 6.643-8.695 9 0 1.333 1.639 3.729 4.073 5.955 3.782 3.456 4.14 4.248 4.993 11.043.506 4.026 1.074 7.475 1.263 7.664 1.255 1.256 10.173 5.146 10.844 4.731.455-.281.827-.034.827.548s.59 1.059 1.312 1.059 3.175.9 5.452 2 4.542 2 5.034 2 2.201.644 3.798 1.432c5.702 2.811 13.196 5.443 13.795 4.844.335-.335.609-.084.609.557 0 .642.624 1.167 1.386 1.167s2.642.652 4.178 1.449 3.162 1.22 3.614.941c.452-.28.822-.031.822.551s.873 1.059 1.941 1.059 2.167.365 2.443.812 3.79 1.902 7.809 3.234c4.019 1.331 9.298 3.419 11.73 4.639s4.796 1.989 5.25 1.708c.455-.281.827-.034.827.548s.873 1.059 1.941 1.059 2.219.45 2.559 1 1.407 1 2.371 1 3.616.9 5.893 2 4.527 2 5 2 2.723.9 5 2 4.746 2 5.488 2c.741 0 1.912.563 2.6 1.25 1.6 1.596 21.084 1.49 29.889-.163 5.109-.959 7.567-.898 13.556.339 8.022 1.657 13.605 1.215 16.395-1.297.994-.896 3.045-2.268 4.558-3.048s2.75-1.793 2.75-2.25.59-.831 1.311-.831c.722 0 2.278-.9 3.459-2 1.18-1.1 2.53-2 3-2 .469 0 1.725-.8 2.791-1.777 1.067-.978 3.514-2.874 5.439-4.213 6.585-4.584 7.992-9.547 3.75-13.227-2.49-2.161-12.085-6.783-14.08-6.783-.698 0-1.707-.437-2.241-.971-.535-.535-1.862-1.13-2.95-1.324s-3.721-1.107-5.851-2.029-4.216-1.676-4.636-1.676-2.02-.652-3.556-1.449-3.162-1.22-3.614-.941c-.452.28-.822.13-.822-.333 0-.462-2.072-1.452-4.604-2.2s-6.336-2.196-8.452-3.218c-2.116-1.023-4.235-1.859-4.708-1.859s-2.723-.9-5-2-4.56-2-5.073-2-2.191-.652-3.727-1.449-3.162-1.22-3.614-.941c-.452.28-.822.031-.822-.551s-.68-1.059-1.511-1.059-3.418-.847-5.75-1.882S534.925 413.68 533 413s-5.408-2.083-7.739-3.118c-2.332-1.035-4.829-1.882-5.55-1.882s-1.739-.398-2.261-.884c-.523-.485-3.875-1.873-7.45-3.083s-8.408-3.063-10.739-4.117S494.368 398 493.57 398c-.799 0-1.73-.45-2.07-1s-1.407-1-2.371-1-3.616-.9-5.893-2-4.746-2-5.488-2c-.741 0-1.785-.437-2.319-.971-.535-.535-1.862-1.13-2.95-1.324s-3.721-1.107-5.851-2.029-4.466-1.676-5.191-1.676-1.597-.45-1.937-1c-.812-1.313-14.197-1.299-15.01.016m-1.971 8.234c-2.68 1.788-5.562 3.7-6.404 4.25a27 27 0 0 0-2.894 2.25c-.75.688-1.712 1.25-2.137 1.25s-2.08 1.124-3.678 2.499c-1.599 1.374-3.42 2.499-4.049 2.5-2.661.003-2.054 3.005 1.163 5.753 4.022 3.436 5.48 6.814 5.48 12.698 0 4.242 2.635 7.55 6.013 7.55.596 0 2.946.9 5.223 2s4.527 2 5 2 2.592.836 4.708 1.859c2.116 1.022 5.919 2.47 8.452 3.218 2.532.748 4.604 1.738 4.604 2.2s.37.613.822.333 2.078.144 3.614.941 3.416 1.449 4.178 1.449 1.386.375 1.386.833c0 .459.563.867 1.25.908 1.912.114 8.172 2.653 8.862 3.594.336.46.909.769 1.273.687.841-.188 11.545 3.663 13.851 4.984.955.547 2.138.994 2.628.994s2.634.755 4.764 1.677 4.322 1.766 4.872 1.876 3.025 1.101 5.5 2.204 8.1 3.463 12.5 5.244c15.875 6.427 15.049 6.264 24.457 4.826 9.408-1.437 23.234-1.614 29.711-.38 4.233.807 8.612-1.334 15.747-7.697 1.079-.962 2.552-1.75 3.274-1.75.721 0 1.311-.374 1.311-.831s1.237-1.47 2.75-2.25c4.108-2.12 8.303-6.282 7.477-7.419-.938-1.291-4.89-3.5-6.262-3.5-.584 0-2.924-.9-5.201-2s-4.527-2-5-2-2.723-.9-5-2-4.527-2-5-2-2.592-.836-4.708-1.859c-2.116-1.022-5.919-2.47-8.452-3.218-2.532-.748-4.604-1.738-4.604-2.2s-.37-.613-.822-.333-2.078-.144-3.614-.941-3.416-1.449-4.178-1.449-1.386-.477-1.386-1.059-.37-.831-.822-.551-1.924-.064-3.271-.763c-1.348-.699-4.578-1.9-7.179-2.667-2.6-.768-4.728-1.775-4.728-2.237s-.37-.613-.822-.333-2.078-.144-3.614-.941-3.196-1.449-3.689-1.449-2.804-.862-5.136-1.916c-2.331-1.054-7.164-2.907-10.739-4.117s-6.927-2.598-7.45-3.083c-.522-.486-1.76-.884-2.75-.884s-1.8-.477-1.8-1.059-.37-.831-.822-.551-1.924-.064-3.271-.763c-1.348-.699-4.578-1.9-7.179-2.667-2.6-.768-4.728-1.673-4.728-2.012s-.625-.615-1.389-.615-3.126-.839-5.25-1.865-4.751-2.014-5.84-2.195-2.415-.767-2.95-1.302c-.534-.534-1.561-.971-2.282-.971s-3.218-.86-5.55-1.911c-15.242-6.871-19.487-7.33-26.22-2.839m10.148 19.417c-1.068 1.067-.768 4.514.333 3.833.55-.34 1-.141 1 .441s.59 1.059 1.312 1.059 3.175.9 5.452 2 4.599 2 5.161 2 2.946.868 5.298 1.928 8.102 3.36 12.777 5.112c4.675 1.751 9.85 3.77 11.5 4.488 2.604 1.131 7.531 3.055 20 7.805 1.65.628 3.337 1.036 3.75.905s.75.212.75.762.81 1 1.8 1 2.237.437 2.771.971c.535.535 1.862 1.13 2.95 1.324s3.721 1.107 5.851 2.029 4.183 1.676 4.562 1.676 2.553.9 4.83 2 4.527 2 5 2 2.723.9 5 2 4.81 2 5.629 2 1.767.45 2.107 1c.969 1.568 8.462 1.181 10.169-.526 1.88-1.88 1.04-4.474-1.45-4.474-1.014 0-3.706-.9-5.983-2s-4.527-2-5-2-2.723-.9-5-2-4.56-2-5.073-2-2.191-.652-3.727-1.449-3.162-1.22-3.614-.941c-.452.28-.822.13-.822-.333 0-.462-2.128-1.469-4.728-2.237-2.601-.767-5.831-1.968-7.179-2.667s-2.819-1.042-3.271-.763c-.452.28-.822.031-.822-.551s-.81-1.059-1.8-1.059-2.228-.396-2.75-.879c-.523-.484-2.681-1.433-4.797-2.11s-5.008-1.833-6.428-2.569c-1.42-.737-2.951-1.111-3.403-.832-.452.28-.822.031-.822-.551s-.873-1.059-1.941-1.059-2.219-.45-2.559-1-1.407-1-2.371-1-3.616-.9-5.893-2-4.527-2-5-2-2.723-.9-5-2-4.549-2-5.05-2-4.185-1.35-8.186-3c-6.796-2.802-13.799-3.868-15.333-2.333M161.982 434.75c-.01 1.512-.011 24.8-.001 51.75l.016 49 2.19 1.813c1.204.997 3.455 2.065 5.001 2.375 1.547.309 2.812.881 2.812 1.27 0 .39.563.713 1.25.719.688.005 3.247.98 5.688 2.166 2.441 1.187 4.825 2.157 5.298 2.157s2.723.9 5 2 4.73 2 5.452 2 1.312.34 1.312.755c0 .416 1.463 1.262 3.25 1.881 5.309 1.837 10.215 3.829 10.75 4.364.275.275 1.175.649 2 .832s4.193 1.645 7.485 3.25 6.753 2.918 7.691 2.918 1.984.45 2.324 1 1.491 1 2.559 1 1.941.45 1.941 1 .9 1 2 1 2 .477 2 1.059.37.831.822.551 2.078.144 3.614.941 3.416 1.449 4.178 1.449 1.386.45 1.386 1 .697 1 1.548 1 3.411.9 5.688 2 4.73 2 5.452 2 1.312.477 1.312 1.059.37.831.822.551 2.078.144 3.614.941 3.416 1.449 4.178 1.449 1.386.45 1.386 1 .697 1 1.548 1 3.411.9 5.688 2 4.73 2 5.452 2 1.312.477 1.312 1.059.37.831.822.551 2.078.144 3.614.941S293.62 592 294.098 592c.479 0 3.657 1.35 7.063 3 3.407 1.65 6.789 3 7.516 3s1.323.375 1.323.833c0 .459.563.838 1.25.844.688.005 3.247.98 5.688 2.166 2.441 1.187 4.825 2.157 5.298 2.157s2.723.9 5 2 4.73 2 5.452 2 1.312.375 1.312.833c0 .459.563.838 1.25.844.688.005 3.247.98 5.688 2.166 2.441 1.187 4.79 2.157 5.22 2.157.431 0 3.384 1.216 6.562 2.702s6.005 2.731 6.28 2.767c1.366.178 17.627 6.951 18.45 7.684.522.466 1.528.847 2.234.847s4.071 1.35 7.477 3 6.789 3 7.516 3 1.323.375 1.323.833c0 .459.563.838 1.25.844.688.005 3.247.98 5.688 2.166 2.441 1.187 4.825 2.157 5.298 2.157s2.723.9 5 2 4.527 2 5 2 2.723.9 5 2 4.73 2 5.452 2 1.312.477 1.312 1.059.37.831.822.551 2.078.144 3.614.941 3.416 1.449 4.178 1.449 1.386.45 1.386 1 .668 1 1.484 1 4.271 1.35 7.677 3c3.407 1.65 6.789 3 7.516 3s1.323.477 1.323 1.059.37.831.822.551 2.078.144 3.614.941 3.416 1.449 4.178 1.449 1.386.477 1.386 1.059.37.831.822.551 2.078.144 3.614.941 3.177 1.449 3.647 1.449 4.537 1.8 9.039 4 8.588 4 9.08 4 2.757.9 5.034 2 4.73 2 5.452 2 1.312.375 1.312.833c0 .459.563.867 1.25.908 1.463.087 8.02 2.529 8.75 3.259.275.275 1.04.605 1.699.733s4.002 1.591 7.427 3.25c3.426 1.659 6.824 3.017 7.551 3.017s1.323.45 1.323 1 1.098 1 2.441 1 2.719.45 3.059 1 1.379 1.014 2.309 1.031c.93.018 4.38 1.368 7.666 3 3.286 1.633 6.316 2.969 6.734 2.969.417 0 3.546 1.35 6.952 3s6.789 3 7.516 3 1.323.375 1.323.833c0 .459.563.838 1.25.844.688.005 3.247.98 5.688 2.166 2.441 1.187 4.825 2.157 5.298 2.157s2.723.9 5 2 4.73 2 5.452 2 1.312.375 1.312.833c0 .459.563.838 1.25.844.688.005 3.247.98 5.688 2.166 2.441 1.187 4.783 2.157 5.205 2.157s3.6 1.289 7.062 2.865c9.483 4.316 11.539 5.058 12.195 4.401.33-.329.6-24.835.6-54.457V622.95l-2.75-1.036c-1.513-.57-4.057-1.684-5.654-2.475s-3.509-1.439-4.25-1.439c-.74 0-1.346-.45-1.346-1s-.9-1-2-1-2-.375-2-.833c0-.459-.562-.838-1.25-.844-.687-.005-3.247-.98-5.688-2.166-2.441-1.187-4.825-2.157-5.298-2.157s-2.723-.9-5-2-4.73-2-5.452-2-1.312-.45-1.312-1-1.098-1-2.441-1-2.719-.45-3.059-1-1.491-1-2.559-1-1.941-.45-1.941-1-.697-1-1.548-1-3.411-.9-5.688-2-4.51-2-4.963-2c-.777 0-4.794-1.674-14.578-6.076-2.352-1.058-4.939-1.924-5.75-1.924s-1.473-.477-1.473-1.059-.37-.831-.822-.551-1.914-.054-3.25-.741c-1.335-.687-7.378-3.222-13.428-5.634s-12.476-5.203-14.28-6.201c-1.805-.998-3.942-1.814-4.75-1.814-.809 0-1.47-.45-1.47-1s-1.098-1-2.441-1-2.719-.45-3.059-1-1.288-1-2.107-1-3.352-.9-5.629-2-4.618-2.014-5.202-2.031-3.751-1.368-7.037-3c-3.286-1.633-6.345-2.969-6.798-2.969s-2.686-.9-4.963-2-4.527-2-5-2-2.723-.9-5-2-4.73-2-5.452-2-1.312-.45-1.312-1-.613-1-1.362-1c-1.446 0-14.943-5.276-17.874-6.987-.955-.557-2.418-1.013-3.25-1.013-.833 0-1.514-.477-1.514-1.059s-.37-.831-.822-.551-2.078-.144-3.614-.941-3.416-1.449-4.178-1.449-1.386-.375-1.386-.833c0-.459-.562-.838-1.25-.844-.687-.005-3.247-.98-5.688-2.166-2.441-1.187-4.916-2.171-5.5-2.188s-3.751-1.368-7.037-3c-3.286-1.633-6.746-2.969-7.691-2.969s-1.994-.45-2.334-1-1.271-1-2.07-1-3.359-.847-5.691-1.882a6432 6432 0 0 1-8.978-4c-2.607-1.165-5.419-2.118-6.25-2.118s-1.511-.375-1.511-.833c0-.459-.562-.867-1.25-.908-1.463-.087-8.02-2.529-8.75-3.259-.275-.275-1.021-.599-1.658-.719-.637-.121-4.012-1.504-7.5-3.074s-7.917-3.456-9.842-4.191-3.927-1.714-4.45-2.176c-.522-.462-1.557-.84-2.298-.84s-3.211-.9-5.488-2-4.527-2-5-2-2.723-.9-5-2-4.527-2-5-2-2.723-.9-5-2-4.73-2-5.452-2-1.312-.477-1.312-1.059-.372-.829-.827-.548-3.005-.593-5.669-1.941-5.238-2.452-5.722-2.452c-.483 0-2.741-.9-5.018-2s-4.527-2-5-2-2.723-.9-5-2-4.73-2-5.452-2-1.312-.477-1.312-1.059-.37-.831-.822-.551-2.078-.144-3.614-.941-3.416-1.449-4.178-1.449-1.386-.45-1.386-1-.697-1-1.548-1-3.411-.9-5.688-2-4.527-2-5-2-2.723-.9-5-2-4.73-2-5.452-2-1.312-.375-1.312-.833c0-.459-.562-.838-1.25-.844-.687-.005-3.247-.98-5.688-2.166-2.441-1.187-5.028-2.157-5.75-2.157s-1.312-.477-1.312-1.059-.37-.831-.822-.551-2.078-.144-3.614-.941-3.213-1.449-3.727-1.449-2.796-.9-5.073-2-4.51-2-4.963-2c-.777 0-4.794-1.674-14.578-6.076-2.352-1.058-4.939-1.924-5.75-1.924s-1.473-.34-1.473-.757c0-.735-6.947-3.243-8.984-3.243-.559 0-1.024 1.238-1.034 2.75m696.268 35.851c-1.788 1.399-3.25 2.264-3.25 1.921s-1.462.747-3.25 2.423c-1.788 1.675-3.743 3.048-4.345 3.05-.602.003-1.91.905-2.905 2.005s-2.415 2-3.155 2-1.345.395-1.345.879c0 .483-1.35 1.438-3 2.121s-3 1.608-3 2.054-.845 1.079-1.878 1.407-3.17 1.708-4.75 3.066c-1.579 1.359-3.397 2.471-4.039 2.472s-1.316.392-1.5.87-4.608 3.731-9.833 7.23-10.372 7.158-11.439 8.131c-1.066.974-2.528 1.77-3.25 1.77-.721 0-1.311.374-1.311.831s-1.237 1.47-2.75 2.25-3.622 2.207-4.689 3.169c-1.066.962-2.491 1.75-3.166 1.75-.676 0-1.378.356-1.562.792-.183.435-3.255 2.798-6.827 5.25s-6.946 4.822-7.5 5.267c-.553.445-2.356 1.676-4.006 2.736-1.65 1.059-3.881 2.495-4.958 3.191s-2.587 1.842-3.355 2.548C755.401 541.425 742.284 550 741.561 550c-.3 0-1.634.946-2.964 2.103-1.33 1.156-2.582 1.944-2.781 1.75s-1.45.66-2.778 1.897-3.005 2.25-3.727 2.25c-.721 0-1.313.337-1.316.75s-3.04 2.772-6.75 5.243c-3.71 2.47-7.617 5.283-8.684 6.25s-2.528 1.757-3.25 1.757c-.721 0-1.311.374-1.311.831s-1.237 1.47-2.75 2.25-3.622 2.207-4.689 3.169c-1.066.962-2.528 1.75-3.25 1.75-.721 0-1.311.374-1.311.831s-1.237 1.47-2.75 2.25-3.622 2.207-4.689 3.169c-1.066.962-2.3 1.75-2.742 1.75s-1.968 1.013-3.392 2.25-2.664 2.026-2.757 1.752c-.094-.273-1.699.964-3.568 2.75s-3.8 3.248-4.291 3.248c-.968 0-6.041 3.442-9.212 6.25-1.087.962-2.566 1.75-3.288 1.75-.721 0-1.311.374-1.311.831s-1.237 1.47-2.75 2.25-3.622 2.207-4.689 3.169c-1.066.962-2.3 1.75-2.742 1.75s-1.82.883-3.061 1.963c-1.242 1.08-2.483 1.885-2.758 1.789-.275-.095-1.718.885-3.206 2.18l-2.706 2.353-.016 52.35c-.008 28.793.237 53.008.546 53.811.645 1.683 2.953.676 7.322-3.196 1.397-1.237 2.812-2.25 3.144-2.25s1.912-1.124 3.51-2.499c1.599-1.374 3.431-2.499 4.073-2.5.641 0 1.316-.357 1.5-.793.183-.435 3.255-2.798 6.827-5.25s7.368-5.246 8.438-6.208 2.307-1.75 2.749-1.75 1.968-1.013 3.392-2.25 2.786-2.127 3.03-1.977 1.578-.863 2.965-2.25c1.388-1.388 2.882-2.523 3.322-2.523s2.106-1.124 3.704-2.499 3.24-2.499 3.648-2.5c.409 0 1.907-1.014 3.331-2.251s2.664-2.043 2.757-1.789c.094.253 1.444-.647 3-2 1.557-1.354 3.132-2.452 3.5-2.441.369.011 1.974-1.227 3.568-2.75 1.594-1.524 3.306-2.77 3.805-2.77.498 0 2.344-1.348 4.101-2.995s3.759-2.998 4.446-3c.688-.003 1.25-.379 1.25-.836s1.237-1.47 2.75-2.25 3.622-2.207 4.689-3.169c1.066-.962 2.528-1.75 3.25-1.75.721 0 1.314-.337 1.318-.75s1.691-1.875 3.75-3.25 4.615-3.288 5.682-4.25c1.066-.962 2.528-1.75 3.25-1.75.721 0 1.311-.353 1.311-.784s1.237-1.518 2.75-2.414c1.513-.895 4.1-2.792 5.75-4.214s3.334-2.586 3.742-2.587c.409 0 1.759-.884 3-1.964s2.494-1.867 2.782-1.75 1.863-1.029 3.5-2.548 3.764-3.011 4.726-3.317 1.75-.922 1.75-1.368 1.35-1.371 3-2.054 3.003-1.526 3.007-1.871c.004-.346 1.691-1.754 3.75-3.129s4.615-3.288 5.682-4.25c1.066-.962 2.322-1.75 2.791-1.75.47 0 1.82-.9 3-2 1.181-1.1 2.737-2 3.459-2 .721 0 1.311-.353 1.311-.784s1.237-1.518 2.75-2.414c1.513-.895 4.1-2.792 5.75-4.214s3.356-2.586 3.792-2.587c.435 0 1.758-.901 2.938-2.001s2.737-2 3.459-2c.721 0 1.314-.337 1.318-.75s1.685-1.875 3.736-3.25 4.784-3.4 6.073-4.5 2.549-1.871 2.8-1.714 1.138-.398 1.973-1.232c.835-.835 4.081-3.212 7.214-5.282s6.746-4.665 8.027-5.768c1.282-1.102 2.529-1.881 2.773-1.731.243.15 1.561-.846 2.929-2.214l2.486-2.486-.259-51.508-.259-51.507zm-646.119 32.741c-1.129 1.361-.572 2.658 1.143 2.658.517 0 .701-.624.408-1.387-.382-.994.083-1.253 1.643-.913 1.761.383 1.889.269.675-.598-1.966-1.404-2.534-1.369-3.869.24M210 508.886c0 4.403 5.724 14.057 7.363 12.418.33-.331-.182-1.322-1.138-2.202-2.731-2.516-4.438-6.554-4.066-9.619.197-1.624-.186-2.986-.909-3.229-.819-.276-1.25.632-1.25 2.632m18.75 4.685c-.412.419-.75 1.844-.75 3.167 0 3.413-2.28 5.262-6.488 5.262-2.165 0-3.381.403-3.012 1 1.112 1.8 8.489 1.199 9.208-.75.356-.962 1.05-2.022 1.543-2.355.494-.333.751-2.063.573-3.845s-.662-2.898-1.074-2.479m20.5 5.925c-1.651 1.875-1.64 10.14.015 10.775.922.354 1.164-.57.893-3.411-.488-5.122 1.187-7.066 5.766-6.689 3.461.284 8.076 3.589 8.076 5.784 0 .575.466 1.045 1.035 1.045 1.524 0-.854-4.07-3.942-6.749-3-2.602-9.834-3.037-11.843-.755M266 531.433c0 4.499-7.829 8.415-10.196 5.1-.382-.536-1.024-.646-1.427-.244-.402.403.136 1.388 1.196 2.19 2.231 1.687 8.427 2.027 8.427.462 0-.582.45-.781 1-.441s1-.309 1-1.441.45-2.059 1-2.059 1-.873 1-1.941-.45-2.219-1-2.559-1 .08-1 .933m21.25 4.063c-1.528 1.735-1.624 3.504-.191 3.504.582 0 .762-.48.399-1.067-.362-.587.281-1.313 1.43-1.614s1.843-.945 1.542-1.433c-.763-1.233-1.719-1.05-3.18.61m-1.182 8.454c-.052 2.63.21 3.172 1.099 2.283.864-.864.881-1.763.068-3.45-1.033-2.144-1.104-2.073-1.167 1.167m16.146.234c2.07 5.937-2.372 11.408-7.175 8.837-2.504-1.34-4.27-.424-2.01 1.042 6.342 4.115 10.971 1.196 10.971-6.919 0-4.294-.363-5.811-1.39-5.811-1.094 0-1.178.607-.396 2.851m491.036.464c-1.788.881-3.25 2.022-3.25 2.536s-.414.678-.919.366-1.599.111-2.429.941S784.727 550 784.22 550c-.508 0-2.453 1.461-4.322 3.248-1.869 1.786-3.474 3.023-3.568 2.75s-1.334.515-2.757 1.752-2.95 2.25-3.392 2.25-1.679.788-2.749 1.75-4.867 3.751-8.438 6.197-6.769 4.847-7.106 5.336-.939.803-1.339.7-1.816.758-3.146 1.914c-1.33 1.157-2.78 2.103-3.222 2.103s-1.676.795-2.742 1.767-4.502 3.455-7.636 5.518c-3.133 2.063-6.283 4.337-7 5.054s-1.681 1.338-2.142 1.38c-.462.041-1.928 1.022-3.258 2.178-1.33 1.157-2.835 2.103-3.344 2.103-.51 0-3.327 2.362-6.26 5.25-6.466 6.365-7.799 10.221-7.799 22.569 0 11.628 1.078 14.181 5.986 14.181 2.556 0 4.335.712 5.877 2.354 2.603 2.771 5.815 2.527 9.284-.705 1.268-1.182 2.469-1.99 2.669-1.796.199.194 1.341-.481 2.537-1.5s3.406-2.492 4.911-3.272 2.736-1.793 2.736-2.25.59-.831 1.311-.831c.722 0 2.278-.9 3.459-2 1.18-1.1 2.548-2 3.04-2 .491 0 2.308-1.352 4.037-3.005s3.335-2.89 3.569-2.75 1.479-.645 2.768-1.745 3.575-2.639 5.08-3.419 2.736-1.793 2.736-2.25.608-.831 1.352-.831c.743 0 2.766-1.352 4.495-3.005s3.484-3.019 3.899-3.037 1.77-.915 3.012-1.995 2.637-1.963 3.101-1.963c2.843 0 13.795-16.625 12.005-18.222-.2-.179.649-1.412 1.886-2.74s2.25-2.799 2.25-3.268c0-.47.9-1.82 2-3 1.797-1.929 2-3.529 2-15.759 0-16.38-.5-17.444-6.75-14.363M327 549c0 .55-.675 1-1.5 1-.833 0-1.5.889-1.5 2 0 1.1.342 2 .759 2 .418 0 1.322-.9 2.009-2 1.885-3.019 5.938-2.526 9.36 1.137 1.612 1.726 3.19 2.878 3.507 2.561.704-.704-3.496-5.018-6.396-6.57-2.61-1.397-6.239-1.471-6.239-.128m465.75 1.08c-.962.561-1.75.768-1.75.461s-1.417.796-3.148 2.45-3.757 3.009-4.5 3.009c-.744 0-1.352.374-1.352.831s-1.237 1.47-2.75 2.25-3.87 2.432-5.24 3.669c-1.369 1.237-2.762 2.25-3.094 2.25-.333 0-1.912 1.124-3.51 2.499-1.599 1.374-3.24 2.499-3.648 2.5-.409 0-1.907 1.014-3.331 2.251s-2.81 2.108-3.083 1.934c-.272-.173-1.277.586-2.233 1.688s-2.353 2.144-3.105 2.316-2.703 1.549-4.335 3.062-3.576 2.75-4.319 2.75c-.744 0-1.352.374-1.352.831s-1.237 1.47-2.75 2.25-3.622 2.207-4.689 3.169c-1.066.962-2.528 1.75-3.25 1.75-.721 0-1.314.337-1.318.75s-1.691 1.874-3.75 3.249-4.338 3.061-5.064 3.75c-.727.688-1.701 1.251-2.165 1.251s-2.704 1.688-4.98 3.75c-4.667 4.231-5.972 8.121-6.01 17.918-.033 8.493.428 9.332 5.125 9.332 2.521 0 4.688.702 6.032 1.954 1.892 1.763 2.364 1.815 4.831.54 1.504-.778 3.089-1.095 3.522-.704.432.39.463.148.067-.54-.445-.773-.124-1.25.84-1.25.857 0 1.559-.42 1.559-.933s.845-1.2 1.878-1.528 3.17-1.708 4.75-3.066c1.579-1.359 3.435-2.471 4.122-2.472.688 0 1.25-.346 1.25-.767 0-.643 5.455-4.672 11.823-8.734.862-.55 2.465-1.788 3.561-2.75s2.355-1.75 2.797-1.75 1.968-1.013 3.392-2.25 2.664-2.043 2.757-1.789c.094.253 1.444-.647 3-2 1.557-1.354 2.907-2.237 3-1.963.094.273 1.699-.964 3.568-2.75S779.712 596 780.22 596c1.965 0 4.132-3.486 6.839-11 .693-1.925 2.989-5.792 5.101-8.592l3.84-5.093v-11.157c0-11.351-.168-11.873-3.25-10.078m-452.083 7.587c-.367.366-.667 2.301-.667 4.3s-.54 4.173-1.2 4.833c-3.183 3.183-12.198-1.038-13.229-6.194-.322-1.609-.861-2.65-1.198-2.312-1.805 1.805 3.466 10.542 5.574 9.239.579-.358 1.053.051 1.053.908 0 1.186 1.101 1.559 4.607 1.559 3.612 0 4.487-.313 4.051-1.449-.361-.94-.076-1.265.811-.924 1.06.406 1.357-.732 1.318-5.051-.053-5.882-.07-5.959-1.12-4.909m23.326 9.841c-1.879 2.264-.673 10.139 1.986 12.97 6.306 6.712 15.132 1.51 11.636-6.858-2.645-6.329-10.512-9.859-13.622-6.112m1.486 2.156c-3.352 3.352.072 10.49 5.69 11.861 2.17.529 2.994.155 4.406-1.999 3.873-5.911-5.192-14.766-10.096-9.862M774 575.203c-4.125 2.832-7.65 5.519-7.833 5.973-.184.453-.904.824-1.602.824s-2.573 1.246-4.167 2.768c-1.594 1.523-4.473 3.527-6.398 4.453s-4.625 2.719-6 3.982-3.737 2.936-5.25 3.716-2.75 1.793-2.75 2.25-.608.831-1.352.831c-.743 0-2.764 1.35-4.491 3s-3.653 3-4.281 3-1.869.819-2.759 1.819-2.405 2.112-3.367 2.469c-1.855.688-2.514 5.712-.75 5.712.55 0 1-.45 1-1s.59-1 1.311-1c.722 0 2.184-.788 3.25-1.75 1.067-.962 3.176-2.389 4.689-3.169s2.75-1.793 2.75-2.25.563-.832 1.25-.832c.688-.001 2.557-1.126 4.156-2.5s3.177-2.499 3.51-2.499 1.725-1.039 3.094-2.309c1.37-1.269 2.791-2.282 3.16-2.25.368.033 1.718-.853 3-1.967 1.281-1.114 2.708-2.081 3.169-2.147.462-.067 1.928-1.068 3.258-2.224s2.752-2.109 3.161-2.116c.408-.008 1.867-.92 3.242-2.029s5.313-4.032 8.75-6.498c4.791-3.437 6.25-5.064 6.25-6.971 0-3.073.852-3.362-8 2.714m-371.584 6.438c.527 1.373.38 1.435-.893.378-1.252-1.039-1.523-.99-1.523.277 0 .847-.294 2.365-.654 3.372-.484 1.356.115 1.117 2.304-.918 2.78-2.583 7.152-3.614 8.712-2.054 1.075 1.074 3.721 1.247 3.074.2a1.1 1.1 0 0 0-1.512-.349c-.516.319-1.208-.124-1.538-.984-.406-1.057-1.895-1.563-4.6-1.563-3.298 0-3.889.288-3.37 1.641M416 592.571c0 6.148-5.08 10.447-8.077 6.837-.632-.762-1.513-1.161-1.958-.886-.887.548-3.965-5.022-3.965-7.176 0-.74-.45-1.346-1-1.346s-1 .9-1 2 .45 2 1 2 1 .605 1 1.345c0 1.556 3.406 4.916 4.189 4.133.289-.289 1.095.16 1.791.998 1.546 1.863 5.898 1.933 8.27.132 1.941-1.474 2.604-12.608.75-12.608-.55 0-1 2.057-1 4.571m24.269 3.525c-2.883 1.067-3.932 11.748-1.364 13.904.327.275 1.094 1.4 1.704 2.5 1.209 2.181 2.605 2.359 3.252.416.268-.802-.179-1.008-1.276-.587-1.037.398-1.443.25-1.051-.384.351-.568.089-1.694-.581-2.502-.671-.808-1.303-3.848-1.405-6.755l-.185-5.285 4.26.144c2.343.079 4.849-.23 5.568-.687.955-.605.768-.856-.691-.928a78 78 0 0 1-4.113-.338c-1.162-.132-3.015.094-4.118.502m13.723 12.654c-.007 4.177-.332 4.901-2.7 6Q448.6 616 447.6 615c-1.292-1.292-3.6-1.292-3.6 0 0 .55.81 1 1.8 1s2.227.391 2.75.87c.546.5 2.333.286 4.2-.503 3.106-1.312 3.25-1.616 3.25-6.87 0-3.023-.45-5.497-1-5.497s-1.004 2.138-1.008 4.75m24.161 4.117c-3.979 3.451-2.767 11.61 2.507 16.884 2.755 2.755 10.351 3.638 12.532 1.457 1.219-1.219 1.568-11.781.427-12.922-1.395-1.395-2.466.987-1.539 3.423 3.092 8.134-5.181 12.28-11.632 5.83-3.868-3.868-4.105-13.539-.331-13.539 1.035 0 1.883-.675 1.883-1.5 0-2.009-1.244-1.89-3.847.367m5.111-.573c.221.663 1.258 1.372 2.305 1.575 1.046.202 2.699 1.287 3.673 2.41s2.041 1.772 2.37 1.442c.901-.901-4.341-5.784-6.695-6.237-1.284-.247-1.904.057-1.653.81M525 628.93c0 .55.9 1.481 2 2.07 1.286.688 2 .714 2 .07 0-.55-.9-1.481-2-2.07-1.286-.688-2-.714-2-.07m5.011 6.091c.595 1.111.841 2.41.546 2.886-.294.477.135 1.422.954 2.102 2.134 1.771 2.057-3.298-.082-5.438-2.15-2.149-2.713-1.971-1.418.45m-13.989 6.178c-.026 1.97 6.351 7.177 8.082 6.6.643-.215-.13-1.213-1.717-2.22-1.588-1.006-3.664-2.785-4.615-3.954-1.463-1.8-1.731-1.865-1.75-.426m38.228 3.326c-2.317 2.475-3.066 7.853-1.25 8.975.55.34 1 1.491 1 2.559s.45 1.941 1 1.941 1 .49 1 1.09c0 4.256 11.12 6.645 14.345 3.081 1.77-1.956 2.322-9.764.73-10.338-.509-.183-1.071-.997-1.25-1.809-.692-3.145-7.28-8.043-10.71-7.963-1.438.034-3.628 1.143-4.865 2.464m1.927 1.787c-3.395 3.613-2.675 8.171 2.122 13.438 2.292 2.516 8.051 3.091 10.022 1 3.375-3.579.112-14.75-4.309-14.75-.621 0-.91-.357-.64-.793 1.256-2.033-5.175-1.045-7.195 1.105"/></svg>