<svg xmlns="http://www.w3.org/2000/svg" viewBox="0 0 1024 1024"><path fill="#00e5cc" d="M287.859 261.25c-1.943 1.788-3.809 4.375-4.146 5.75-.872 3.55-1.071 264.712-.206 269.25.394 2.063 1.116 3.75 1.604 3.75.489 0 .777.563.639 1.25-.137.688.313 1.137 1 1 .688-.138 1.25.128 1.25.589 0 3.085 5.403 3.161 225.547 3.161C659.849 546 734 545.664 734 545c0-.55.735-1 1.634-1s2.698-1.237 3.998-2.75l2.366-2.75.001-135.22.001-135.219-2.116-3.781c-2.261-4.039-3.801-5.449-5.086-4.655-.439.271-.798.016-.798-.566 0-.742-66.213-1.059-221.305-1.059H291.391zm222.076 1.601c-2.357 1.909-1.819 4.605 1.247 6.246 2.611 1.398 4.818-.481 4.818-4.103 0-3.435-3.111-4.535-6.065-2.143M303.25 273.986l-3.25 1.985v125.586c0 107.508.206 125.792 1.429 127.014C302.658 529.8 332.145 530 512.518 530h209.661l1.882-2.25c1.82-2.176 1.882-6.329 1.895-126.587.011-99.419-.242-124.57-1.26-125.5-4.073-3.721.396-3.644-211.917-3.653-203.983-.008-206.315.014-209.529 1.976m2.996 127.764.254 121.75 205.742.252 205.742.253.258-119.253c.142-65.588.116-120.49-.058-122.002l-.317-2.75H305.992zm62.296-100.441c-2.443 1.486-4.884 3.691-4.088 3.691.329 0-.089 1.328-.928 2.95-2.2 4.254-2.322 183.288-.128 187.517 1.514 2.917 3.944 5.312 7.389 7.283C373.601 504.359 654 504.607 654 503c0-.55.695-1 1.545-1 2.51 0 5.927-4.232 6.46-8 .272-1.925.495-44.72.495-95.1v-91.6l-3.65-3.65-3.65-3.65-142.35.059c-108.281.045-142.819.344-144.308 1.25M376 307c0 .55-.9 1-2 1-1.403 0-2.005.672-2.015 2.25-.013 1.819-.201 1.963-.985.75-.675-1.045-.974.7-.985 5.75L370 324l5.25-.116c2.887-.064 4.457-.323 3.488-.576s-1.491-.899-1.158-1.437c.332-.537-.225-1.741-1.238-2.674-2.002-1.844-2.74-7.225-.946-6.898.607.11 1.02-.275.918-.857s1.564-1.162 3.702-1.288c6.039-.356 9.244 6.732 4.599 10.172-.793.587-.721.984.248 1.371 1.151.46 1.151.68 0 1.409-.769.487 58.003.87 134.887.879L656 324v-6.633c0-6.28-1.823-10.154-4.903-10.418-6.151-.528-229.266-.127-230.847.415-2.213.758-3.258 4.636-1.25 4.636 1.955 0 1.007 5.645-1.314 7.826-2.959 2.779-4.801 2.745-7.512-.14-2.766-2.945-2.775-6.43-.021-8.819 1.184-1.027 1.747-1.901 1.25-1.944-1.152-.097-3.011-.459-9.369-1.822C395.541 305.708 376 305.633 376 307m17.25 4.496c-2.31 2.623-1.557 8.043 1.297 9.343 3.525 1.606 4.23 1.488 6.748-1.134 3.041-3.167 3.154-4.598.576-7.342-2.475-2.635-6.692-3.059-8.621-.867M572.464 412.25c.384 1.238 1.125 5.625 1.647 9.75 2.008 15.866 2.038 16 3.656 16 .862 0 1.288-.279.947-.619-.886-.886 4.77-5.381 6.772-5.381.283 0 .515.563.515 1.25.001.688 1.113 2.543 2.472 4.122 1.358 1.58 2.738 3.718 3.066 4.75s1.015 1.878 1.528 1.878.947.563.965 1.25c.07 2.744 2.743 5.039 4.24 3.641 1.199-1.121 1.109-1.861-.62-5.101-1.113-2.084-2.39-3.79-2.838-3.79s-.814-.59-.814-1.311c0-.722-.9-2.278-2-3.459-2.103-2.257-2.751-7.23-.941-7.23.582 0 .734-.526.336-1.17-.471-.762-.198-.968.782-.592 3.726 1.43 4.336-1.132.939-3.947-1.853-1.535-3.425-2.567-3.493-2.293-.068.273-1.652-.964-3.521-2.75s-4.007-3.248-4.75-3.248-1.352-.45-1.352-1-.927-1-2.059-1-1.781-.45-1.441-1c.353-.571-.528-1-2.058-1-2.314 0-2.581.303-1.978 2.25M293 552.997c-.825.535-2.738.979-4.25.988-1.512.008-2.75.465-2.75 1.015s-.707 1-1.571 1c-.865 0-2.215.643-3 1.429-.786.785-1.429 2.135-1.429 3 0 .864-.45 1.571-1 1.571s-1 .9-1 2-.45 2-1 2-1 .873-1 1.941-.45 2.219-1 2.559-1 1.716-1 3.059-.369 2.441-.819 2.441c-.451 0-1.44 2.279-2.198 5.063-.759 2.785-1.74 5.287-2.181 5.559s-.802 1.594-.802 2.937-.45 2.441-1 2.441-1 1.098-1 2.441-.45 2.719-1 3.059-1 1.491-1 2.559-.45 1.941-1 1.941-1 1.35-1 3-.45 3-1 3-1 .624-1 1.386-.652 2.642-1.449 4.178-1.22 3.162-.941 3.614c.28.452.031.822-.551.822s-1.059.873-1.059 1.941-.45 2.219-1 2.559-1 1.44-1 2.445-.652 3.083-1.449 4.619-1.22 3.162-.941 3.614c.28.452.031.822-.551.822s-1.059.873-1.059 1.941-.45 2.219-1 2.559-1 1.716-1 3.059-.45 2.441-1 2.441-1 .873-1 1.941-.45 2.219-1 2.559-1 1.69-1 3-.45 2.66-1 3-1 1.716-1 3.059-.45 2.441-1 2.441-1 .873-1 1.941-.45 2.219-1 2.559-1 1.716-1 3.059-.45 2.441-1 2.441-1 .873-1 1.941-.45 2.219-1 2.559-1 1.679-1 2.976-.446 2.507-.991 2.691c-.546.183-1.094 1.57-1.218 3.083-.125 1.513-.579 2.75-1.009 2.75s-.782.873-.782 1.941-.45 2.219-1 2.559-1 1.44-1 2.445-.652 3.083-1.449 4.619-1.22 3.162-.941 3.614c.28.452.031.822-.551.822s-1.059.873-1.059 1.941-.45 2.219-1 2.559-1 1.716-1 3.059-.45 2.441-1 2.441-1 .873-1 1.941-.45 2.219-1 2.559-1 1.407-1 2.371-.904 3.624-2.009 5.911-2.103 5.296-2.218 6.688-.561 2.53-.991 2.53-.782 1.35-.782 3 .45 3 1 3 1 .717 1 1.594c0 .876.9 1.829 2 2.116s2 .921 2 1.407c0 .509 124.755.883 294.5.883 195.667 0 294.5-.336 294.5-1 0-.55.482-1 1.071-1 2.518 0 3.929-3.028 3.929-8.429 0-3.064-.45-5.571-1-5.571s-1-1.098-1-2.441-.45-2.719-1-3.059-1-1.491-1-2.559-.477-1.941-1.059-1.941-.831-.37-.551-.822-.144-2.078-.941-3.614-1.449-3.615-1.449-4.619c0-1.005-.45-2.105-1-2.445s-1-1.491-1-2.559-.45-1.941-1-1.941-1-1.098-1-2.441-.45-2.719-1-3.059-1-1.491-1-2.559-.45-1.941-1-1.941-1-1.35-1-3-.45-3-1-3-1-1.098-1-2.441-.45-2.719-1-3.059-1-1.491-1-2.559-.45-1.941-1-1.941-1-.906-1-2.014-.45-2.907-1-4l-2-3.972c-.55-1.093-1-2.893-1-4s-.45-2.014-1-2.014-1-1.098-1-2.441-.45-2.719-1-3.059-1-1.491-1-2.559-.45-1.941-1-1.941-1-1.098-1-2.441-.45-2.719-1-3.059-1-1.491-1-2.559-.352-1.941-.782-1.941-.884-1.237-1.009-2.75-.672-2.9-1.218-3.083-.991-1.395-.991-2.691c0-1.297-.45-2.636-1-2.976s-1-1.491-1-2.559-.45-1.941-1-1.941-1-1.35-1-3-.45-3-1-3-1-.697-1-1.548-.9-3.411-2-5.688-2-4.929-2-5.893-.45-2.031-1-2.371-1-1.491-1-2.559-.45-1.941-1-1.941-1-1.098-1-2.441-.45-2.719-1-3.059-1-1.491-1-2.559-.45-1.941-1-1.941-1-1.098-1-2.441-.45-2.719-1-3.059-1-1.69-1-3-.45-2.66-1-3-1-1.491-1-2.559-.45-1.941-1-1.941-1-1.098-1-2.441-.45-2.719-1-3.059-1-1.491-1-2.559-.45-1.941-1-1.941-1-.69-1-1.533c0-2.447-6.339-8.114-10.078-9.009-5.037-1.206-441.072-1.66-442.922-.461m8.25 10.499c-.687.781-1.25 2.114-1.25 2.962s-.45 1.542-1 1.542-1 1.35-1 3-.45 3-1 3-1 1.35-1 3-.477 3-1.059 3-.831.37-.551.822-.144 2.078-.941 3.614-1.449 3.416-1.449 4.178-.45 1.386-1 1.386-1 1.35-1 3-.369 3-.819 3c-.451 0-1.432 2.25-2.181 5s-1.673 5-2.053 5-.97 1.688-1.31 3.75-1.298 5.039-2.128 6.614-1.509 3.488-1.509 4.25-.45 1.386-1 1.386-1 1.098-1 2.441-.45 2.719-1 3.059-1 1.941-1 3.559-.45 2.941-1 2.941-1 .9-1 2-.45 2-1 2-1 .906-1 2.014-.45 2.907-1 4l-2 3.972c-1.379 2.739-1.256 9.358.2 10.814 1.792 1.792 485.432 1.742 487.121-.05 1.579-1.674 2.061-6.396.738-7.214-.582-.359-1.059-1.548-1.059-2.64s-1.105-3.091-2.455-4.441c-2.395-2.396-2.828-2.455-18-2.455-9.697 0-15.545-.376-15.545-1 0-.55.563-1.007 1.25-1.015q1.25-.016-.25-.985c-1.009-.652 3.028-.974 12.321-.985 10.63-.011 14.152-.345 15.25-1.444 1.64-1.639 1.913-6.154.429-7.071-.55-.34-1-1.716-1-3.059s-.45-2.441-1-2.441-1-1.144-1-2.542-.9-3.508-2-4.688c-1.15-1.235-2-3.529-2-5.4 0-1.788-.45-3.53-1-3.87s-1-1.478-1-2.529-.834-3.394-1.852-5.208-2.861-6.215-4.093-9.781c-3.127-9.052-4.423-11.982-5.299-11.982-.416 0-.763-1.013-.771-2.25-.022-3.301-2.324-9.362-4.446-11.707L721.69 562l-209.595.038c-179.754.033-209.773.24-210.845 1.458m353.958 75.18c-.992.398-1.021.844-.127 1.921.884 1.066 4.14 1.403 13.541 1.403 12.089 0 14.634-.722 10.444-2.965-1.94-1.038-21.434-1.331-23.858-.359M430.5 670.311c-2.889 3.162-4.5 8.515-4.5 14.951 0 3.091-.375 5.852-.834 6.136s-.934 3.271-1.056 6.639c-.121 3.368-.646 7.242-1.165 8.609-.52 1.366-.945 4.248-.945 6.405s-.538 5.93-1.195 8.387c-1.548 5.787 1.485 12.562 5.624 12.562.864 0 1.571.45 1.571 1 0 1.729 166.443 1.339 169.802-.398 6.747-3.489 7.3-7.223 4.236-28.602-.591-4.125-1.529-10.65-2.084-14.5s-1.266-9.25-1.58-12-1.271-5.788-2.127-6.75c-.857-.962-1.15-1.753-.652-1.756s-.384-.679-1.959-1.5c-2.474-1.29-13.665-1.486-82-1.433l-79.136.061zm11 4.852c-2.75.456-5.562.906-6.25 1-.802.109-1.25 1.883-1.25 4.945 0 2.626-.45 5.052-1 5.392s-1 3.966-1 8.059-.414 7.441-.921 7.441-1.166 3.263-1.467 7.25c-.3 3.987-.827 9.837-1.171 13l-.626 5.75h83.664c72.843 0 83.857-.193 85.156-1.492.821-.821 1.208-1.954.859-2.517-.348-.564-1.087-4.73-1.643-9.258a1365 1365 0 0 0-1.93-14.983c-.507-3.712-1.295-9.788-1.753-13.5-1.017-8.25-1.619-9.679-4.657-11.063-2.858-1.302-138.177-1.325-146.011-.024M212.245 751.75c-.183 3.634 5.089 11.779 6.9 10.66.47-.29.855-.103.855.417 0 .521 1.463 1.304 3.25 1.741 5.837 1.428 569.422 1.719 575.75.297 6.126-1.377 10.861-4.454 10.945-7.115.03-.962.505-1.75 1.055-1.75 1.159 0 1.367-3.655.247-4.347-.414-.256-2.551.161-4.75.926-3.378 1.175-48.962 1.393-294.263 1.406C219.775 754 214 753.938 214 750.757c0-1.608-1.671-.662-1.755.993"/></svg>