<svg xmlns="http://www.w3.org/2000/svg" viewBox="0 0 1024 1024"><path fill="#00e5cc" d="M257.488 361.354c-5.32 2.477-9.29 6.843-11.897 13.082-1.334 3.194-1.591 8.628-1.591 33.686V438l3.25.015c10.887.049 24.67 6.125 33.403 14.722 11.596 11.418 15.115 20.814 16.021 42.785.352 8.513.813 15.478 1.025 15.478s3.629-.654 7.593-1.452c15.288-3.081 27.454-3.548 92.457-3.548 76.951 0 89.973.987 104.299 7.909l3.952 1.91V368.624l-2.25-3.308c-4.575-6.725 3.503-6.317-124.901-6.306l-116.349.01zm268.012-.814c-1.65.822-4.013 3.055-5.25 4.963l-2.25 3.469v146.957l4.476-1.919c16.959-7.269 26.387-7.991 104.53-8.001 65.307-.009 80.453.622 94.439 3.934 2.169.514 4.236.754 4.593.534.356-.221.925-7.056 1.264-15.189.686-16.477 2.154-22.469 7.799-31.843 8.946-14.854 26.152-25.36 41.649-25.43L780 438l-.01-30.25c-.009-29.761-.048-30.333-2.392-35.367-2.506-5.382-6.759-9.299-12.87-11.852-5.479-2.289-234.632-2.281-239.228.009m-292 90.649c-5.227 1.988-17.073 9.717-22.262 14.526-.721.668-2.644 2.003-4.274 2.966-4.059 2.397-3.775 2.934 2.286 4.323 12.344 2.83 17.961 5.347 25.25 11.312 14.634 11.977 21.23 25.992 22.206 47.184.303 6.6.858 12.578 1.232 13.284.737 1.393 11.009-8.985 24.814-25.069L286 515.93v-12.633c0-27.739-6.479-41.467-23.5-49.795-6.748-3.302-22.992-4.597-29-2.313m531 .855c-11.283 4.377-20.993 15.074-23.934 26.365-.995 3.818-1.532 11.216-1.616 22.257l-.127 16.54 2.838 3.112c1.562 1.711 5.368 5.827 8.459 9.147 3.092 3.319 7.592 8.362 10 11.206s4.83 5.058 5.38 4.919c.555-.139 1.295-5.861 1.662-12.865.462-8.795 1.348-14.786 2.927-19.788 6.501-20.597 24.922-37.054 44.161-39.451 6.419-.8 7.115-2.014 2.86-4.986-14.976-10.459-24.165-16.355-27.009-17.332-5.45-1.872-19.782-1.382-25.601.876M192.78 484.03c-16.228 2.734-26.774 14.021-27.588 29.526-.727 13.854 5.391 23.509 19.146 30.216 3.581 1.746 6.883 3.749 7.337 4.451.454.703 1.05 26.405 1.325 57.116l.5 55.839 2.361 1.911c2.177 1.762 4.222 1.911 26.25 1.911H246v-68.316c0-44.11-.379-70.419-1.069-74.25-4.631-25.709-27.508-42.555-52.151-38.404m625.22-.015c-18.729 2.487-33.167 15.588-37.999 34.481-1.907 7.456-2.001 11.086-2.001 77.164V665h48.091l2.454-2.455 2.455-2.454V605.48c0-37.059.346-55.258 1.076-56.622.591-1.105 3.922-3.287 7.402-4.848 7.808-3.503 13.403-8.443 16.59-14.648 3.442-6.7 3.529-21.749.162-28.085-6.762-12.729-21.671-19.461-38.23-17.262m-461 34.062c-39.472.523-44.241.767-51.5 2.631-10.534 2.704-13.008 3.752-14.758 6.25-.803 1.147-2.986 3.768-4.851 5.825a2937 2937 0 0 0-10.732 11.963l-7.342 8.222 116.842.034c64.262.018 117.853.303 119.091.632 2.242.597 2.25.556 2.25-11.445v-12.043l-3.595-2.964c-4.028-3.32-13.408-6.499-23.905-8.103-8.628-1.317-63.556-1.771-121.5-1.002m185.5 1.364c-10.672 2.139-17.617 4.803-21.111 8.099L518 530.736v23.514l3.125-.625c1.719-.344 54.819-.625 118-.625 82.386 0 114.875-.309 114.875-1.092 0-1.254-2.574-4.674-7.832-10.408-2.018-2.2-6.112-6.854-9.098-10.343-6.626-7.742-8.17-8.445-25.57-11.648-10.585-1.948-159.32-2.008-169-.068M259.913 565.87c-4.29 3.473-4.005 32.103.359 36.169 2.067 1.925 4.283 1.961 121.742 1.961h119.637l2.175-2.314c2.04-2.173 2.174-3.274 2.174-17.928v-15.613l-2.635-2.072c-2.632-2.071-2.757-2.073-121.889-2.073-114.992 0-119.337.067-121.563 1.87m260.722.203L518 568.145v15.753c0 15.174.085 15.833 2.314 17.928l2.315 2.174h119.575c116.236 0 119.64-.053 121.935-1.911 2.216-1.794 2.383-2.688 2.715-14.54.414-14.773-.168-18.832-3.089-21.553-3.443-3.208-239.049-3.134-243.13.077M509 611.982c-1.375 1.065-4.66 2.405-7.299 2.978-5.954 1.29-234.418 1.406-239.951.121l-3.75-.87V665l254.25-.006 254.25-.006.238-5.244c.131-2.884-.029-14.311-.356-25.394l-.595-20.149-3.08.883c-4.531 1.299-234.518 1.191-240.338-.113-2.566-.575-5.906-1.929-7.422-3.008-3.311-2.358-2.878-2.36-5.947.019"/></svg>