<svg xmlns="http://www.w3.org/2000/svg" viewBox="0 0 1024 1024"><path fill="#00e5cc" d="M171.328 71.5c.005 3.85.185 5.302.402 3.228.216-2.075.213-5.225-.008-7s-.398-.078-.394 3.772m243.275-4.333c.283.458-.835.833-2.485.833s-3.278.45-3.618 1-1.69 1-3 1-2.66.45-3 1-1.716 1-3.059 1-2.441.45-2.441 1-1.377 1-3.059 1c-1.785 0-2.802.417-2.441 1s-.656 1-2.441 1c-1.682 0-3.059.45-3.059 1s-1.35 1-3 1-3 .398-3 .883c0 .486-.935 1.128-2.077 1.427-2.033.531-2.071 1.006-1.814 22.337.33 27.38.693 32.02 2.501 32.02.909 0 1.39-1.155 1.39-3.334 0-2.666.4-3.333 2-3.333 1.556 0 2 .667 2 3 0 1.65.45 3 1 3 .639 0 1 8.681 1 24.044 0 22.344.124 24.023 1.75 23.75 2.372-.398 3.348-4.985 3.934-18.492.478-11.023 1.028-12.739 4.319-13.47.824-.183 2.298-1.204 3.277-2.27 1.148-1.249 3.162-1.96 5.668-2 2.137-.034 4.224-.4 4.636-.812s2.024-.75 3.583-.75c1.558 0 2.833-.45 2.833-1s.627-1 1.393-1 1.666-.712 2-1.582c1.241-3.234.612-70.829-.675-72.505-1.227-1.6-5.073-2.297-4.115-.746M382.5 83.724C375.44 85.459 376.743 94 384.068 94c3.837 0 5.856-2.273 5.9-6.643.041-4.002-1.977-4.983-7.468-3.633M817.5 85c.34.55.141 1-.441 1S816 86.9 816 88c0 1.556.667 2 3 2 1.65 0 3 .45 3 1s1.368 1 3.041 1c2.919 0 3.031-.159 2.804-4l-.236-4h-5.364c-3.321 0-5.128.381-4.745 1m121-.509c-.55.184-2.237.607-3.75.941-2.318.511-2.75 1.122-2.75 3.886 0 3.159.13 3.265 3.492 2.873 1.921-.224 3.244-.809 2.941-1.299-.303-.491.633-.892 2.079-.892 4.278 0 7.371-3.917 3.238-4.1-2.159-.095-2.148-.132.25-.9 2.27-.727 2.178-.803-1-.821-1.925-.012-3.95.129-4.5.312M801.615 87.44c.737 1.919 5.384 4.909 6.222 4.003.365-.394.101-.918-.587-1.163-.687-.246-1.25-1.309-1.25-2.363 0-1.372-.702-1.917-2.469-1.917-1.737 0-2.305.426-1.916 1.44m151.06-.782c-.362.362-.156 1.262.456 2 .7.844.737 1.342.098 1.342-.558 0-1.278.685-1.6 1.523-.769 2.005 2.879.179 4.138-2.071.469-.838 2.175-1.918 3.793-2.402 2.726-.814 2.606-.884-1.643-.964-2.521-.047-4.88.21-5.242.572M168.232 90c0 1.925.206 2.713.457 1.75.252-.963.252-2.537 0-3.5-.251-.963-.457-.175-.457 1.75M964 90c0 1.1.45 2 1 2s1-.9 1-2-.45-2-1-2-1 .9-1 2m-170.972.466c-.669.807-.985 2.044-.701 2.75.329.82.544.662.594-.435.043-.945.642-1.581 1.329-1.414.688.168.91.116.494-.116s-.502-.833-.191-1.336c.898-1.453-.187-1.061-1.525.551M564 91c0 .55-.707 1-1.571 1-2.021 0-4.429 2.408-4.429 4.429 0 .864-.45 1.571-1 1.571-.615 0-1 5-1 13 0 14.486.535 15.432 5.662 10 3.843-4.071 8.337-4.206 8.34-.25.002 2.341.447 2.781 3 2.96l2.998.209V96h-2.5c-1.375 0-2.5-.45-2.5-1s1.125-1 2.5-1c1.833 0 2.5-.533 2.5-2 0-1.778-.667-2-6-2-3.333 0-6 .444-6 1m274.578 4.658c-.35.912-.594 12.612-.542 26L838.13 146H922V94h-41.393c-37.625 0-41.451.151-42.029 1.658M595.25 98.662c-.954.385-1.25 6.524-1.25 25.921V150h43.559c28.785 0 43.349-.339 42.941-1-.34-.55-.141-1 .441-1 1.785 0 1.429-46.773-.37-48.571-1.41-1.411-81.931-2.134-85.321-.767m337.156 1.724c-.293.762-.382 3.349-.198 5.75.324 4.224.35 4.179.814-1.387.485-5.838.341-6.859-.616-4.363m-371.156 1.11c-3.14 3.566-.117 12.331 4.301 12.471 2.807.089 6.434-2.601 6.441-4.776.005-1.283.452-2.034 1.008-1.691.55.34 1-.11 1-1s-.45-1.34-1-1-1-.116-1-1.012c0-4.036-7.896-6.234-10.75-2.992M792 104c0 3.63.238 4 2.571 4 1.415 0 3.251.679 4.081 1.509s1.875 1.283 2.322 1.007c1.399-.864 1.961 3.695 1.447 11.74-.318 4.995-.126 7.744.543 7.744.57 0 1.036.735 1.036 1.633s.93 2.439 2.066 3.424 1.99 2.091 1.897 2.457.776 1.751 1.931 3.079c1.154 1.327 2.054 2.677 2 3-.055.322.847 1.674 2.003 3.004s2.103 2.897 2.103 3.482c0 2.322 3.029 3.921 7.429 3.921H828l-.079-4.75c-.043-2.613-.306-4.187-.583-3.5-.6 1.487-7.945 1.694-8.838.25-.36-.582.764-1.049 2.691-1.118l3.309-.119-3-.847c-2.399-.678-2.048-.759 1.75-.401 4.876.459 5.431.086 3.75-2.515q-.969-1.5-.985-.25c-.01.848-1.797 1.25-5.55 1.25-5.225 0-5.475-.112-4.465-2 .854-1.596.76-2-.465-2-1.124 0-1.535-1.07-1.535-4 0-3.92-.071-4-3.571-4-5.384 0-6.429-1.693-6.429-10.417 0-8.349 1.598-11.583 5.722-11.583 1.253 0 2.278-.493 2.278-1.096 0-1.718-4.005-6.906-5.318-6.889-.698.009-.567.413.318.985 1.213.784 1.069.972-.75.985-1.237.008-2.25.465-2.25 1.015s-1.8 1-4 1c-3.333 0-4-.333-4-2q0-2-2-2c-1.667 0-2 .667-2 4m158.29-2c-.288 1.1-.868 2-1.29 2s-1.002.9-1.29 2c-.416 1.591-.03 2 1.884 2 4.89 0 6.517 3.2 6.196 12.184-.32 8.954-.385 9.045-7.712 10.879-2.432.609-3.915 1.42-3.295 1.803 1.101.681 1.33 5.044.259 4.946-3.797-.344-4.509.258-2.318 1.96 2.809 2.183 1.743 4.143-2.845 5.226-3.149.743-3.192.804-.629.9 4.681.174 3.022 2.102-1.809 2.102-2.785 0-4.319.389-3.941 1 .34.55.141 1-.441 1s-1.059.9-1.059 2c0 1.708.667 2 4.571 2 4.752 0 7.429-1.617 7.429-4.488 0-.896.45-1.352 1-1.012s1-.084 1-.941.45-1.559 1-1.559 1-.675 1-1.5.45-1.5 1-1.5 1-.675 1-1.5.395-1.5.879-1.5c.483 0 1.438-1.35 2.121-3s1.638-3 2.121-3 .879-.9.879-2 .45-2 1-2c.597 0 1-3.857 1-9.571 0-10.895.793-12.429 6.429-12.429 3.393 0 3.571-.169 3.571-3.393 0-2.172-.569-3.612-1.582-4-2.203-.846-2.103-.932-2.768 2.393-.505 2.525-1.07 3-3.568 3-2.238 0-3.405-.738-4.741-3-2.04-3.454-4.293-3.9-5.051-1m-74.65 3.693c-3.797.612-9.052 6.044-9.487 9.807-.191 1.65-.744 3.484-1.229 4.077-2.313 2.825 5.715 14.423 9.984 14.423 1.086 0 2.252.45 2.592 1s1.491 1 2.559 1 1.941-.45 1.941-1 1.137-1 2.527-1c3.583 0 9.134-5.377 9.929-9.619.788-4.196-.326-12.58-1.568-11.812-.488.302-.888.04-.888-.581 0-1.46-2.528-3.988-3.988-3.988-.621 0-.852-.45-.512-1s-.252-1-1.316-1-3.228-.173-4.809-.384-4.162-.177-5.735.077m-249.364 6.079c-3.754 2.916-3.497 24.228.291 24.228.788 0 1.433.366 1.433.813s2.025.918 4.5 1.046c2.702.14 4.5-.199 4.5-.848 0-.759.576-.773 1.934-.046 3.626 1.941 11.041.081 11.058-2.774.004-.72.458-1.031 1.008-.691.64.396 1-2.823 1-8.941 0-5.706-.403-9.559-1-9.559-.55 0-1-.482-1-1.071 0-4.213-18.869-5.928-23.724-2.157m165.662 4.978c-.186 14.227.285 24.789 1.118 25.083.519.184.944 1.36.944 2.614 0 3.004 4.635 7.553 7.695 7.553 1.361 0 2.152.438 1.805 1-.384.621 1.49 1 4.941 1 6.036 0 6.944-1.088 3.809-4.561-.962-1.067-2.389-3.177-3.169-4.689s-1.793-2.75-2.25-2.75-.831-.59-.831-1.311c0-.722-.788-2.207-1.75-3.301-3.619-4.115-4.25-6.406-4.25-15.433 0-5.794-.361-8.85-1-8.455-.55.34-1 .141-1-.441S796.65 112 795 112c-2.904 0-3.002.153-3.062 4.75m169.682-3c-.283.963-.822 5.475-1.199 10.027-.691 8.361-2.623 12.742-8.767 19.884-1.023 1.188-1.9 2.538-1.951 3-.05.461-.904 1.711-1.897 2.778-3.344 3.589-2.332 4.561 4.753 4.561 4.118 0 6.329-.372 5.941-1-.34-.55.104-1 .986-1 2.019 0 6.514-4.414 6.514-6.396 0-.817.45-1.764 1-2.104.597-.369 1-6.844 1-16.059V112h-2.933c-1.93 0-3.108.598-3.447 1.75M628 126.238c0 5.056 1.544 7.762 4.429 7.762 1.263 0 1.571-1.242 1.571-6.333v-6.334h-3c-2.926 0-3 .122-3 4.905m-460.748.262c.011 2.2.216 2.982.455 1.738s.23-3.044-.02-4-.446.062-.435 2.262M565.5 125c.34.55.115 1-.5 1s-.84.45-.5 1c1.096 1.774 3.381 1.065 3.225-1-.083-1.1-.756-2-1.497-2-.74 0-1.068.45-.728 1m-9.5 14.559c0 7.451.355 11.339 1 10.941.55-.34 1 .309 1 1.441 0 1.307.65 2.059 1.779 2.059.979 0 2.428.9 3.221 2 1.155 1.603 2.589 2 7.221 2H576v-28h-3c-2.197 0-3 .471-3 1.759 0 3.755-3.649 4.447-6.372 1.21-1.375-1.633-3.229-2.969-4.122-2.969s-1.346-.45-1.006-1-.084-1-.941-1c-1.322 0-1.559 1.757-1.559 11.559m11.838-1.362c-.711 3.944.116 5.797 2.431 5.444 4.742-.724 4.747-6.733.006-7.444-1.445-.216-2.14.354-2.437 2m255.412.492c.962.252 2.538.252 3.5 0 .962-.251.175-.457-1.75-.457s-2.712.206-1.75.457M932 140.774c0 1.71.443 3.382.985 3.717.615.38.749-.63.356-2.691-.842-4.422-1.341-4.803-1.341-1.026M424 143c0 .55-.9 1-2 1s-2 .45-2 1-1.098 1-2.441 1-2.719.45-3.059 1-3.111 1-6.158 1c-4.886 0-5.876.36-8.388 3.049-1.567 1.677-3.21 2.915-3.651 2.75-.442-.164-1.21 6.428-1.706 14.65-.671 11.103-.607 15.048.25 15.333.634.212 1.153 1.247 1.153 2.301 0 1.387.704 1.917 2.545 1.917 2.686 0 7.455-3.988 7.455-6.234 0-.728.9-1.973 2-2.766s2-2.269 2-3.28.421-1.578.935-1.26c.515.318 2.179-.665 3.698-2.183 1.518-1.519 3.541-2.63 4.493-2.469 2.775.47 5.633-2.616 5.084-5.489-.351-1.838-.704-2.146-1.329-1.161-.585.923-.855.465-.866-1.467-.008-1.545.384-2.563.871-2.261.488.301 1.121-.347 1.407-1.441.35-1.34 1.366-1.989 3.113-1.989 1.427 0 2.594-.41 2.594-.912 0-.501-.788-.784-1.75-.628-2.892.468-4.467-1.386-2.688-3.165.858-.858 1.247-2.321.905-3.4-.575-1.811.931-2.535 4.033-1.94.55.106.006-.741-1.208-1.881-2.317-2.176-5.292-2.779-5.292-1.074m-9.497 6.991q-1.273 4.01 2.939 4.009c2.319 0 3.652-2.253 2.812-4.75-.69-2.051-5.043-1.49-5.751.741M428 151c0 1.311.485 1.751 1.5 1.362.825-.317 1.5-.93 1.5-1.362s-.675-1.045-1.5-1.362c-1.015-.389-1.5.051-1.5 1.362m-21.921 1.75c-.043.688-.416 1.197-.829 1.132-2.566-.406-3.25.437-3.25 4.001 0 3.182.406 3.993 2.25 4.487 3.178.851 3.193.848 5.761-1.379 2.087-1.81 2.184-2.257.984-4.5-.733-1.37-1.894-2.491-2.581-2.491-.686 0-1.474-.562-1.752-1.25-.403-1-.52-1-.583 0m26.528 2.832c-2.618 6.822 1.383 16.418 6.845 16.418 2.164 0 2.548-.452 2.548-3 0-1.65-.45-3-1-3s-1-1.35-1-3-.45-3-1-3-1-.707-1-1.571c0-3.431-4.298-5.7-5.393-2.847m389.143.124c1.237.238 3.263.238 4.5 0 1.237-.239.225-.434-2.25-.434s-3.487.195-2.25.434m112.514.012c1.52.229 3.77.223 5-.014s-.014-.425-2.764-.418-3.756.202-2.236.432M414 162.559c0 .857-.403 1.31-.895 1.006-1.787-1.105-2.234 2.867-.468 4.159 2.124 1.553 3.363 1.633 3.363.217 0-.582.45-.781 1-.441s1-.11 1-1c0-1.028.456-1.344 1.25-.867.744.447.642-.036-.25-1.191-2.831-3.666-5-4.482-5-1.883M379.349 170c0 4.675.173 6.588.383 4.25s.211-6.162 0-8.5c-.21-2.338-.383-.425-.383 4.25m-2.479 6.65c-1.077 3.672.071 7.552 1.739 5.884.765-.765 1.384-1.986 1.376-2.713-.012-1.014-.226-.988-.923.113-.665 1.05-.995.514-1.235-2-.266-2.79-.445-3.031-.957-1.284m-7.87 2.567c0 .889-.562 1.843-1.25 2.121-.77.31-.6.534.441.583 2.205.103 3.34-1.79 1.922-3.208-.817-.817-1.113-.683-1.113.504m520.25 73.472c.962.252 2.538.252 3.5 0 .962-.251.175-.457-1.75-.457s-2.712.206-1.75.457m-.25 2.048c1.375.256 2.725.819 3 1.253s1.08.163 1.789-.601c1.088-1.171.617-1.368-3-1.253-2.79.089-3.415.299-1.789.601m15 4.274c0 .544.45.989 1 .989s1 .715 1 1.59c0 .874 1.013 2.434 2.25 3.466 1.636 1.365 1.841 1.895.75 1.941-1.131.048-1.04.331.369 1.15 3.502 2.035 4.589-5.41 1.259-8.622-1.456-1.405-6.628-1.806-6.628-.514M870.269 278.5c.023 7.515.205 8.882.731 5.5.385-2.475.767-3.637.85-2.583.261 3.335 1.178 1.061 1.693-4.202.287-2.927.066-5.339-.523-5.703-.561-.346-1.073.184-1.138 1.179s-.462.459-.882-1.191c-.496-1.949-.752.504-.731 7M108.5 279.767c-8.459.563-11.781 2.643-12.353 7.733-.185 1.65-.744 3.15-1.242 3.333S94 293.181 94 295.642c0 2.729-.39 4.235-1 3.858-.612-.378-1 1.176-1 4s-.388 4.378-1 4c-.611-.378-1 1.156-1 3.941 0 2.507-.45 4.559-1 4.559s-1 1.59-1 3.533C88 323.952 93.504 330 97.526 330c1.523 0 2.33.425 1.956 1.029-.432.699 9.025.993 29.386.915 21.809-.084 30.153-.434 30.498-1.28.339-.828.499-.804.555.086.043.688.781 1.25 1.638 1.25.924 0 1.268-.47.846-1.155-.485-.784-.269-.879.674-.296 2.072 1.281 19.804 1.773 17.921.498-1.187-.805-.917-1.02 1.295-1.032 5.206-.028 7.843-4.026 7.6-11.522-.116-3.571-.589-6.493-1.053-6.493s-.842-1.762-.842-3.917-.43-4.066-.956-4.25c-.526-.183-1.068-2.02-1.205-4.083-.136-2.062-.606-3.75-1.043-3.75-.438 0-.796-2.052-.796-4.559 0-2.785-.389-4.319-1-3.941-.567.351-1-.49-1-1.941 0-1.407-.418-2.559-.929-2.559-.51 0-1.596-.667-2.411-1.483-1.381-1.38-55.466-2.73-70.16-1.75M912 295.833c0 3.445-.441 6.167-1 6.167-.55 0-1 1.158-1 2.573 0 1.915.448 2.486 1.75 2.231 1.527-.298 1.707-1.361 1.414-8.323-.404-9.573-1.164-11.302-1.164-2.648m-771.618-1.771c-1.148 1.149-3.463 2.102-5.222 2.153-1.738.049-3.16.471-3.16.937s-.819.848-1.82.848c-1 0-2.8 1.128-4 2.508-2.278 2.62-2.895 5.492-1.18 5.492.55 0 1 .707 1 1.571 0 1.885 1.619 3.527 5 5.071 3.075 1.404 19.318 1.681 18.473.315-.325-.527-.082-.957.539-.957 1.644 0 3.988-2.603 3.988-4.429a1.57 1.57 0 0 0-1.559-1.571c-.857 0-1.281-.45-.941-1s.141-1-.441-1c-1.699 0-1.219-2.811.659-3.862 1.472-.824 1.185-1.217-2.007-2.739-2.814-1.341-3.585-2.22-3.151-3.588.823-2.593-3.51-2.417-6.178.251m204.118 2.984c1.502.68.756.889-3 .841-2.75-.036-5.562-.025-6.25.024-.95.068-1.25 4.403-1.25 18.089v18h49.779c48.632 0 49.813.046 51.221 2 1.216 1.687 2.589 2 8.78 2 4.637 0 7.111-.368 6.72-1-.34-.55.11-1 1-1s1.34-.45 1-1-.141-1 .441-1c.701 0 1.059-5.406 1.059-16 0-8.8-.398-16-.883-16-.486 0-1.119-.9-1.407-2-.349-1.336-1.364-2-3.057-2-1.394 0-2.802-.433-3.129-.962-.377-.609-1.589-.58-3.309.081-3.134 1.204-84.208.849-84.212-.369-.002-.413-.48-.75-1.062-.75s-.781.45-.441 1-.11 1-1 1-1.34-.45-1-1c.389-.629-1.723-.974-5.691-.93-4.615.052-5.772.314-4.309.976m224.75.45c-.687.781-1.25 2.114-1.25 2.962s-.501 1.542-1.113 1.542c-.672 0-.937 1.207-.667 3.043.329 2.246.097 2.909-.887 2.531-.733-.281-1.333-.113-1.333.374s.466 1.041 1.036 1.231c.633.211 1.052 4.909 1.078 12.072.023 6.45.457 11.984.964 12.297s.922 1.251.922 2.082c0 4.412-.621 4.37 65.429 4.37H696v-44l-62.75.038c-52.914.032-62.946.261-64 1.458M864 299c0 .55-1.35 1-3 1s-3 .45-3 1-.801 1-1.779 1c-.979 0-2.428.9-3.221 2s-2.038 2-2.766 2c-1.603 0-6.234 4.468-6.234 6.014 0 .607-.52.783-1.155.391-.684-.423-.884-.277-.49.36.365.591-.016 1.753-.846 2.583S840 317.564 840 318.429s-.45 1.571-1 1.571-1 .9-1 2-.45 2-1 2c-.606 0-1 4.333-1 11s.394 11 1 11c.55 0 1 .693 1 1.54 0 4.791 12.619 20.46 16.479 20.46.836 0 1.521.45 1.521 1s.9 1 2 1 2 .45 2 1 1.827 1 4.059 1c2.451 0 3.814.396 3.441 1-.388.628 1.843 1 6 1s6.388-.372 6-1c-.357-.578.59-1 2.241-1 1.572 0 3.286-.411 3.809-.914.522-.502 2.075-1.064 3.45-1.25s3.533-1.348 4.795-2.586 2.657-2.25 3.097-2.25c1.438 0 5.108-3.698 5.108-5.147 0-.776.9-2.06 2-2.853s2-2.044 2-2.78.45-1.06 1-.72c.583.361 1-.656 1-2.441 0-1.682.45-3.059 1-3.059s1.007-2.363 1.015-5.25c.012-3.954.275-4.88 1.065-3.75.772 1.104.886.443.431-2.5-.34-2.2-.862-6.137-1.161-8.75s-.95-4.75-1.447-4.75c-.496 0-.903-1.125-.903-2.5s-.374-2.5-.831-2.5-1.47-1.232-2.25-2.738C902.964 311.49 895.387 304 893.526 304c-.839 0-1.526-.45-1.526-1s-.9-1-2-1-2-.45-2-1-.873-1-1.941-1-2.219-.45-2.559-1c-.341-.552-4.844-1-10.059-1-5.627 0-9.441.404-9.441 1m-258.8 4.2c-.66.66-1.2 1.972-1.2 2.917s-.562 1.923-1.25 2.175c-1 .366-1 .723 0 1.783.688.729 1.25 3.26 1.25 5.625 0 3.633.31 4.3 2 4.3 1.627 0 2-.667 2-3.571 0-1.965.69-4.262 1.534-5.106.88-.88 1.278-2.341.933-3.428-.383-1.205-.122-1.896.716-1.897.996-.002 1.236 1.705.985 7l-.332 7.002H620v-4c0-3.333.333-4 2-4 1.552 0 2 .667 2 2.977 0 3.952 3.677 6.472 8.043 5.514 2.664-.586 3.038-1.032 2.537-3.028-.323-1.287-.136-2.62.416-2.961 1.829-1.13 1.041-4.432-1.447-6.062-2.536-1.661-6.277-1.213-7.875.945-.596.804-.968.766-1.333-.135-.31-.762-2.428-1.25-5.424-1.25-4.542 0-6.602-1.266-3.667-2.254.975-.328.948-.787-.122-2.083-1.606-1.946-4.603-2.295-3.54-.413.564 1 .436 1-.641 0-1.703-1.58-4.195-1.602-5.747-.05m34.522 3.811C637.8 309.257 637.484 311 639 311c.55 0 1 2.025 1 4.5v4.5h4c2.2 0 4-.45 4-1s-.9-1-2-1c-2.423 0-2.801-4.342-.573-6.57 1.237-1.237 1.638-1.006 3 1.725.865 1.734 1.573 3.887 1.573 4.786 0 1.098.984 1.709 3 1.862 2.721.207 3-.052 3-2.787 0-1.659.399-3.016.887-3.016.922 0 2.097-5.683 1.333-6.447-.752-.752-4.22 1.867-4.22 3.188 0 2.061-1.568 1.434-2.972-1.188-1.08-2.018-1.854-2.354-4.419-1.916-2.11.361-2.681.228-1.775-.414 1.076-.762 1.012-1.068-.332-1.584-2.472-.949-2.897-.827-4.78 1.372M356 315.947V326h3.917c2.196 0 4.139-.549 4.424-1.25.399-.986.701-.974 1.424.053.698.99 4.7 1.258 16.686 1.118 11.624-.136 15.969.141 16.534 1.054.544.881.963.919 1.449.132.413-.668 4.034-1.107 9.125-1.107H418v-16h-22.779c-21.024 0-22.882-.143-24.114-1.852-1.047-1.453-2.818-1.895-8.221-2.053l-6.886-.201zm83.59-6.021c-1.601.9-3.257 2.523-3.68 3.606s-.801 1.613-.84 1.179c-.038-.435-.698-.21-1.465.5-.767.709-1.191 1.626-.941 2.039s-.724.75-2.164.75c-1.491 0-2.352.431-2 1 .34.55.109 1-.512 1-1.171 0-3.988 2.422-3.988 3.429 0 .314.9.571 2 .571s2 .45 2 1 1.104 1 2.453 1c5.194 0 11.442-4.477 11.514-8.25.018-.962.483-1.75 1.033-1.75s1-.9 1-2 .483-2 1.073-2c1.641 0 .637-3.283-1.073-3.511-.825-.11-2.81.536-4.41 1.437m468.175 2.324c.317 1.238 1.4 3.726 2.406 5.53s1.829 3.942 1.829 4.75c0 .809.45 1.47 1 1.47s1 2.16 1 4.8c0 5.794 1.211 7.2 6.2 7.2h3.8v-12c0-8.925-.32-12.004-1.25-12.015q-1.25-.016.25-.985c1.032-.667-1.198-.974-7.156-.985-8.485-.015-8.645.03-8.079 2.235M564.272 317c0 2.475.195 3.488.434 2.25.238-1.238.238-3.262 0-4.5-.239-1.238-.434-.225-.434 2.25m302.978-1.296c-1.788.233-3.25.734-3.25 1.115s-1.35 1.29-3 2.021-3 1.991-3 2.803-.45 1.197-1 .857-1 .309-1 1.441-.45 2.059-1 2.059-1 1.35-1 3-.45 3-1 3-1 1.8-1 4 .45 4 1 4 1 1.377 1 3.059c0 1.785.417 2.802 1 2.441.55-.34 1 .011 1 .78 0 1.811 6.486 7.72 8.473 7.72.84 0 1.527.45 1.527 1 0 .578 3.186 1 7.559 1 4.785 0 7.332-.367 6.941-1-.34-.55.309-1 1.441-1s2.059-.45 2.059-1 .845-1 1.879-1c1.144 0 2.364-1.172 3.121-3 .683-1.65 1.528-3 1.878-3 1.094 0 3.122-7.784 3.122-11.984 0-2.209-.45-4.016-1-4.016s-1-1.125-1-2.5-.45-2.5-1-2.5-1-.47-1-1.045c0-1.567-4.695-5.955-6.371-5.955-.804 0-1.612-.39-1.796-.867-.407-1.059-10.113-2.01-14.583-1.429m-223.047 9.29c-1.626 2.859-2.018 2.998-8.703 3.092-11.127.158-15.929-.172-16.95-1.163-.523-.508-2.012-.923-3.309-.923-1.318 0-2.086-.441-1.741-1 .361-.583-.656-1-2.441-1-1.682 0-3.059.245-3.059.545 0 1.445 5.156 5.455 7.014 5.455 1.157 0 1.826.45 1.486 1-.373.604.99 1 3.441 1 2.232 0 4.059.45 4.059 1 0 .572 3.02 1 7.059 1 4.451 0 6.831-.369 6.441-1-.368-.595.823-1 2.941-1 1.957 0 3.559-.45 3.559-1s1.125-1 2.5-1 2.5.375 2.5.833c0 .459.655.834 1.456.834s1.274-.295 1.051-.655c-.222-.361.241-1.899 1.03-3.42 2.945-5.677-5.146-8.2-8.334-2.598M88.343 339.5c.003 4.4.179 6.076.39 3.724s.209-5.952-.006-8-.388-.124-.384 4.276m94.532-5c-.843 3.371-.167 10.442.957 10.011.732-.281 1.901-.511 2.598-.511.734 0 1.303-1.323 1.355-3.152.05-1.734.626-3.484 1.281-3.889 1.925-1.19.058-2.959-3.125-2.959-1.618 0-2.997.225-3.066.5m-91.907 4.439c.69 1.29.702 2.147.035 2.559-1.555.961-1.183 2.502.604 2.502 1.002 0 1.395.553 1.044 1.468-.9 2.344 1.074 2.762 2.62.555.775-1.106 1.706-1.788 2.069-1.517s.397.157.077-.256c-.321-.413-1.08-.75-1.687-.75-.606 0-1.482-1.462-1.945-3.25-.481-1.856-1.488-3.25-2.349-3.25-1.181 0-1.282.419-.468 1.939m348.782.767c1.238.238 3.262.238 4.5 0 1.238-.239.225-.434-2.25-.434s-3.488.195-2.25.434M168 343.77c0 .741-.449 1.071-.997.732-.663-.41-.663.263 0 2.006 1.519 3.994 1.212 5.492-1.125 5.492-1.767 0-1.916.25-.887 1.489.68.819 1.635 1.242 2.122.941.488-.301.887-.063.887.531 0 1.081 4.02.763 6.027-.478.583-.36 1.605-.204 2.27.348.826.686 1.81.564 3.109-.386 1.638-1.197 1.686-1.473.346-1.987-1.703-.653-3.119-4.458-1.658-4.458.498 0 .906.525.906 1.167 0 .641.297.869.661.506.363-.364-.178-2.218-1.203-4.121-1.543-2.865-2.12-3.253-3.353-2.256-.976.789-1.255.814-.811.072.456-.761-.463-1.101-2.808-1.039-2.211.059-3.486.586-3.486 1.441m33.648 107.704c-.308.804-.195 1.688.252 1.964 1.643 1.016 6.535 2.663 5.838 1.966-.397-.396-.219-1.324.393-2.062.852-1.026.732-1.371-.509-1.467-2.449-.189-3.02-.34-4.267-1.135-.633-.402-1.396-.075-1.707.734M454.313 457c.225 8.53 1.687 9.397 1.687 1v-6h27.559c18.118 0 27.347-.343 26.941-1-.388-.628-10.989-1-28.495-1h-27.876zM514 450.939c0 .555 10.828 1.067 26.418 1.25 14.531.171 26.654.547 26.942.836.287.288.629 11.426.758 24.75.13 13.324.607 24.225 1.059 24.225.453 0 .915-8.212 1.029-18.25l.205-18.25L571 479l.589 13.5.205-19.821c.167-16.049-.066-20.094-1.223-21.25-1.695-1.696-56.571-2.17-56.571-.49M452.336 459c0 4.125.177 5.813.392 3.75s.216-5.437 0-7.5c-.215-2.062-.392-.375-.392 3.75m-234.804-.25c.758 1.512 2.861 3.35 4.673 4.084 6.359 2.574 8.31 3.407 10.031 4.283.955.486 2.53.847 3.5.804s1.227-.297.57-.565c-.656-.267-.946-1.131-.643-1.921.371-.967-.136-1.435-1.556-1.435-1.159 0-2.107-.477-2.107-1.059s-.414-.803-.919-.491-1.599-.111-2.429-.941-2.441-1.509-3.581-1.509c-1.139 0-2.071-.45-2.071-1s-.873-1-1.941-1-2.219-.45-2.559-1c-1.409-2.281-2.238-.783-.968 1.75M458 485v29h108v-58h-13.059c-8.451 0-12.841.353-12.441 1 .34.55 2.729 1.032 5.309 1.07 3.541.053 4.201.281 2.691.93-1.772.762-1.687.867.75.93l2.75.07v49.911l-38.75.294c-21.312.162-39.312.134-40-.062-1.955-.558-1.801-50.143.156-50.143.914 0 1.224-.7.884-2-.467-1.787-1.364-2-8.407-2H458zm34.676-28.285c-.301.487 2.425.976 6.057 1.087s6.334-.068 6.003-.399c-1.026-1.026-11.483-1.622-12.06-.688m31.622-.084c.74.741 10.765.639 11.521-.116.283-.283-2.336-.515-5.819-.515s-6.049.284-5.702.631M278 459c0 .55.468 1 1.039 1 .6 0 .494.59-.25 1.395-.709.767-1.696 1.148-2.194.846-.497-.303-.583-.03-.19.604 1.764 2.856 5.002-.168 3.849-3.595-.5-1.487-2.254-1.682-2.254-.25m6.459.067c-.794 1.285-.599 1.488 2.291 2.376 1.36.418 2.25.27 2.25-.376 0-.587-1.012-1.099-2.25-1.137-2.147-.067-2.158-.11-.25-.93 1.63-.701 1.688-.872.309-.93-.93-.038-1.988.41-2.35.997m215.291.68c6.738.173 17.763.173 24.5 0s1.225-.315-12.25-.315-18.988.142-12.25.315m40.012-.04c1.244.239 3.044.23 4-.02s-.062-.446-2.262-.435-2.982.216-1.738.455m-250.8 4.089c-3.203.209-4.898.871-5.759 2.25-.733 1.174-.817 1.954-.211 1.954.554 0 1.008.9 1.008 2 0 4.013 9.449 1.66 10.255-2.553.645-3.377-.231-3.981-5.293-3.651m-39.265.904c-3.303.856.178 3.301 4.675 3.285 3.034-.012 3.73-.273 2.628-.985-1.09-.704-1.142-.974-.191-.985.72-.008 1.031-.465.691-1.015-.625-1.011-4.49-1.16-7.803-.3m-27.135 7.943c.393 2.671 1.058 5.082 1.476 5.357s.969 1.625 1.225 3 .481-1.1.501-5.5c.025-5.375-.226-7.18-.764-5.5-.498 1.556-.838 1.862-.9.809-.055-.93-.585-1.991-1.177-2.357-.749-.463-.859.815-.361 4.191m5.508 5.972c-.111 6.941.196 10.385.926 10.385.6 0 1.019.563.929 1.25-.293 2.262.064 4.094.679 3.479.332-.332 2.676.687 5.209 2.263 2.534 1.577 4.976 2.638 5.428 2.359 1.46-.902.748-24.351-.739-24.351-.714 0-3.767-1.298-6.783-2.885l-5.484-2.884zm14.799-9.273c.612.738.78 1.71.372 2.159-.407.45.046.535 1.009.19 1.127-.405 1.75-.135 1.75.757 0 .762.506 1.554 1.123 1.76.618.206 1.467 2.156 1.885 4.333l.762 3.959.115-5.182c.103-4.641-.188-5.398-2.789-7.25-3.376-2.404-5.992-2.853-4.227-.726m23.013-.092c-.066.688-.046 1.813.043 2.5.09.688-.307 1.25-.881 1.25s-1.044-.675-1.044-1.5c0-.993-.993-1.5-2.938-1.5-2.286 0-2.905.428-2.792 1.931.08 1.062.451 1.742.824 1.511.374-.231 1.235.25 1.915 1.069.787.948 2.916 1.464 5.863 1.421 4.065-.059 4.354-.199 2.378-1.152-2.957-1.427-3.122-5.241-.193-4.475 1.688.441 1.846.283.878-.884-1.457-1.755-3.894-1.858-4.053-.171M722 473c0 .55-.707 1-1.571 1-2.021 0-4.429 2.408-4.429 4.429 0 .864-.358 1.571-.796 1.571-.437 0-.906 1.639-1.041 3.642s-.676 4.449-1.204 5.434-.966 3.06-.974 4.608c-.02 3.749-2.432 10.533-3.404 9.575-.424-.417-.675-.084-.558.741.447 3.135-.055 8.099-.773 7.656-1.888-1.164-1.186 7.036.784 9.15 4.789 5.141 5.408 5.194 60.102 5.194 53.762 0 52.534.1 57.559-4.705 2.432-2.325 3.306-9.558 1.305-10.795-.55-.34-1.007-1.604-1.015-2.809s-.704-4.173-1.548-6.595c-.843-2.422-1.301-5.009-1.016-5.75s.08-1.346-.452-1.346c-.533 0-.969-1.762-.969-3.917s-.408-4.066-.908-4.25c-.499-.183-1.059-1.908-1.245-3.833-.362-3.754-3.738-8-6.361-8-.882 0-1.326-.45-.986-1 .409-.661-14.823-1-44.941-1-29.706 0-45.559.348-45.559 1m-467.895 52.844c-.034 49.31.063 52.266 1.679 51.002 5.577-4.362 5.267-1.31 5.153-50.679-.107-46.323-.401-50.167-3.829-50.167-1.068 0-2.172-.562-2.455-1.25s-.529 22.305-.548 51.094M232 480.935c0 6.533 1.406 10.065 4.007 10.065 1.131 0 2.379-.788 2.774-1.75.472-1.149.921.139 1.306 3.75.476 4.462.618 3.596.75-4.589.16-9.911.118-10.111-2.384-11.25-5.219-2.379-6.453-1.657-6.453 3.774m46-3.841c0 .498-1.913.92-4.25.938-3.974.03-7.75 1.711-7.75 3.451 0 .419.569.29 1.265-.288.696-.577 3.058-1.245 5.25-1.485 2.192-.239 4.66-.687 5.485-.993.825-.307 2.163-.74 2.974-.963.994-.272.75-.593-.75-.985-1.223-.32-2.224-.174-2.224.325M452.382 490.5c.002 6.6.164 9.17.359 5.711.196-3.459.195-8.859-.003-12s-.358-.311-.356 6.289m2.23-6.25c-.652 4.505-.029 18.667.861 19.556.29.29.527-4.948.527-11.639 0-12.816-.372-14.937-1.388-7.917m-249.542.977c.089 1.609 1.765 5.575 1.86 4.401.038-.48.745-.313 1.57.372 1.249 1.036 1.5.908 1.5-.763 0-1.104-1.125-2.744-2.5-3.645-1.815-1.189-2.481-1.289-2.43-.365m566.93-.31c0 .595-.801 1.083-1.779 1.083-.979 0-2.405.868-3.17 1.929-1.072 1.487-2.602 1.928-6.694 1.928-4.34 0-5.765.46-7.831 2.526-2.473 2.473-3.504 7.617-1.526 7.617.55 0 1 .513 1 1.14 0 2.951 9.473 7.67 12.102 6.029 1.029-.643 2.783-1.169 3.898-1.169s2.869.526 3.898 1.169c2.19 1.367 7.45-.686 10.559-4.121 1.807-1.997 1.799-2.091-.303-3.914-2.386-2.07-2.834-4.739-.904-5.388 1.842-.62-.972-3.746-3.372-3.746-1.034 0-1.878-.701-1.878-1.559 0-.857-.399-1.312-.887-1.011s-.825-.186-.75-1.083c.075-.898-.425-1.83-1.113-2.073s-1.25.047-1.25.643M249.197 494.5c-.118 2.75-.465 7.475-.77 10.5-.428 4.235-.302 5.102.548 3.769.663-1.04.97-5.232.77-10.5-.184-4.823-.43-6.519-.548-3.769m-15.963 1.794c.954.772 1.442 1.697 1.084 2.055s-.195.651.363.651 1.056 1.453 1.106 3.23.569 3.389 1.153 3.583c.583.195 1.06 1.216 1.06 2.27s.563 1.924 1.25 1.932c.93.012.907.233-.092.866-.967.613-.549 1.006 1.5 1.408 3.591.704 4.37-.079 5.039-5.065.519-3.872.398-4.084-3.329-5.833-2.127-.998-4.466-2.398-5.196-3.11s-2.305-1.766-3.5-2.343c-1.963-.947-2.005-.913-.438.356m221.934 13.374c-.092 2.843-.441 5.88-.775 6.75-.472 1.229.072 1.582 2.441 1.582 1.676 0 3.326.45 3.666 1s2.729.947 5.309.882c4.211-.107 4.384-.197 1.691-.882-2.101-.535-.329-.799 5.917-.882 4.904-.065 8.6-.434 8.214-.82s-6.199-.724-12.917-.75L456.5 516.5l-.582-6-.582-6zM568 510.5c0 1.375.173 2.5.383 2.5s.599-1.125.862-2.5.09-2.5-.384-2.5c-.473 0-.861 1.125-.861 2.5M452.232 513c0 1.925.206 2.712.457 1.75.252-.962.252-2.538 0-3.5-.251-.962-.457-.175-.457 1.75m60.138 4.046c-.974.341.83.621 4.008.621 3.587 0 5.215-.315 4.295-.83-1.595-.893-5.439-.796-8.303.209M535.5 517c-4.684.643-4.507.696 2.809.843 4.989.1 7.586-.204 7.191-.843-.663-1.072-2.182-1.072-10 0m26 0c-6.004.555-6.324.672-2.25.823 2.612.098 4.75.627 4.75 1.177 0 2.073 5.567 1.101 5.725-1 .083-1.1-.159-1.921-.537-1.823-.378.097-3.838.467-7.688.823m-75.732.725c1.797.222 4.497.218 6-.01 1.503-.229.032-.411-3.268-.405s-4.529.192-2.732.415m-11.018 1.998c1.788.222 4.712.222 6.5 0 1.788-.221.325-.403-3.25-.403s-5.038.182-3.25.403m37.012-.016c1.244.239 3.044.23 4-.02s-.062-.446-2.262-.435-2.982.216-1.738.455m24.022.031c2.905.203 7.405.201 10-.004s.216-.371-5.284-.369-7.622.171-4.716.373M218 521.07c-1.375.471-3.625 1.094-5 1.384-4.879 1.031-5.694 2.21-3.089 4.469 1.291 1.119 2.739 1.793 3.218 1.497s.871-.061.871.521.927 1.059 2.059 1.059 1.781.45 1.441 1 .309 1 1.441 1 2.059.45 2.059 1 .675 1 1.5 1 1.5.45 1.5 1 .863 1 1.917 1 2.117.563 2.363 1.25c.245.688.713 1.007 1.039.711.326-.297-.078-2.486-.898-4.866s-1.761-6.3-2.092-8.711c-.649-4.733-2.288-5.385-8.329-3.314m233.897 3.768c-.768.914-1.552 2.787-1.742 4.162s-.753 2.65-1.25 2.833c-.498.184-.905 1.646-.905 3.25s-.45 2.917-1 2.917-1 1.827-1 4.059c0 2.451-.396 3.814-1 3.441-.595-.368-1 .823-1 2.941 0 1.957-.45 3.559-1 3.559s-1 1.35-1 3-.45 3-1 3-1 2.25-1 5v5h48l.024-3.25c.014-1.788.48-5.222 1.035-7.632 1.156-5.012 1.217-4.853-2.077-5.399-1.365-.226-3.278-.757-4.25-1.179s-3.023-.248-4.556.387c-3.222 1.335-20.831 1.275-26.426-.09-3.707-.904-5.209-3.818-2.75-5.337.55-.34 1-1.679 1-2.976s.43-2.507.956-2.691 1.068-2.02 1.205-4.083c.136-2.062.606-3.75 1.043-3.75.438 0 .796-1.35.796-3s.45-3 1-3c1.476 0 1.215-1.703-.353-2.305-.744-.286-1.982.229-2.75 1.143m114.605-1.073c1.29.947 3.105 4.803 4.345 9.235.539 1.925 1.897 6.409 3.019 9.964s1.818 6.685 1.548 6.955-7.183.376-15.362.236c-9.369-.161-15.106.124-15.506.771-.349.564-2.354.86-4.456.658s-4.444.026-5.206.509c-.998.632-1.035.881-.134.892.888.011 1.25 2.19 1.25 7.515v7.5h23.571c20.684 0 23.776-.205 25.242-1.67 1.214-1.214 1.331-1.782.428-2.083-.683-.228-1.241-1.726-1.241-3.33s-.45-2.917-1-2.917-1-1.35-1-3-.45-3-1-3-1-1.602-1-3.559c0-2.118-.405-3.309-1-2.941-.596.369-1-.843-1-3s-.404-3.369-1-3c-.595.368-1-.823-1-2.941 0-1.957-.45-3.559-1-3.559s-1-1.41-1-3.133c0-3.553-3.105-6.876-6.403-6.852-1.153.009-1.646.346-1.095.75m258.83 4.811c-.9 1.908-.868 2.424.155 2.424 1.578 0 2.58-2.274 1.658-3.765-.4-.648-1.128-.11-1.813 1.341m-115.082-.202c.962.741 1.75 1.914 1.75 2.609 0 .942.34.98 1.342.148.738-.612 1.71-.78 2.16-.372.45.407.522.223.16-.411-.362-.633-2.122-1.639-3.91-2.236-2.794-.932-3.006-.895-1.502.262M245.349 538c0 4.675.173 6.587.383 4.25s.211-6.163 0-8.5c-.21-2.337-.383-.425-.383 4.25m2.952 2.582.199 11.082-3.25-1c-1.787-.55-3.25-1.374-3.25-1.832s-.562-.842-1.25-.854-2.348-.866-3.69-1.898l-2.439-1.875-3.287 3.648c-1.808 2.006-3.298 4.21-3.311 4.897s-.65 1.25-1.416 1.25-1.663.704-1.993 1.563c-.33.86-1.053 1.284-1.607.941-.554-.342-1.007.042-1.007.854s-.562 1.702-1.25 1.98c-.747.301-.545.536.5.583.963.043 1.75.529 1.75 1.079s.675 1 1.5 1 1.5.45 1.5 1 .694 1 1.542 1 2.508.9 3.688 2 2.625 1.993 3.209 1.985c.583-.009.386-.494-.439-1.079-1.172-.83-.9-.967 1.25-.623 3.112.497 3.167.41 1.646-2.599-.899-1.779-.609-1.67 1.561.588 1.465 1.524 3.156 2.467 3.758 2.095.656-.405.808-.214.38.478-.392.635-.236 1.155.346 1.155s1.059.52 1.059 1.155c0 .655-.866.371-2-.655-3.103-2.808-2.356-.169.923 3.262 1.608 1.682 2.658 3.324 2.333 3.648s.106.59.955.59c3.541 0 5.197-9.081 2.598-14.25q-.879-1.749.278-1.75c.792 0 .725-.534-.215-1.692-.932-1.15-.971-1.451-.122-.941.688.413 1.25.312 1.25-.225 0-.536-.562-1.179-1.25-1.428-.974-.353-.936-.978.174-2.833 1.603-2.68 1.674-15.376.114-20.381-.684-2.194-.882-.024-.737 8.082m472.827-7.682c-.754.478-1.167 1.482-.917 2.232.316.949.819.681 1.657-.885 1.329-2.484 1.259-2.613-.74-1.347m103.206 7.832c.354.573.014 1.564-.756 2.203-.889.738-1.622.802-2.009.177-.901-1.458-4.887-.92-6.287.849-1.724 2.179-1.563 3.707.468 4.423.962.34 2.425.876 3.25 1.193 1.333.511 1.333.451 0-.546-1.27-.949-1.194-1.096.5-.961 5.781.463 6.445.082 6.306-3.612-.073-1.948-.579-3.818-1.124-4.155-.545-.336-.701-.143-.348.429m-355.584 9.974c1.238.238 3.262.238 4.5 0 1.238-.239.225-.434-2.25-.434s-3.488.195-2.25.434m235 96c1.237.238 3.263.238 4.5 0 1.237-.239.225-.434-2.25-.434s-3.487.195-2.25.434m15.5-.017c.962.252 2.538.252 3.5 0 .962-.251.175-.457-1.75-.457s-2.712.206-1.75.457m7.512.018c1.244.239 3.044.23 4-.02s-.062-.446-2.262-.435-2.982.216-1.738.455m111.826.435c.265.429-30.908.806-69.273.838-40.464.034-70.135.44-70.663.968-.546.546 30.183.949 76.914 1.009 42.803.054 77.94.215 78.082.358.143.143.327 18.468.41 40.722l.151 40.463-3.855.608c-2.76.436-3.145.67-1.354.824 1.375.119 3.474.4 4.666.623 2.017.379 2.191-.053 2.549-6.324.312-5.467.905-50.649.923-70.413.005-5.255-1.479-8.818-3.673-8.818-.806 0-1.465-.405-1.465-.899 0-.495-3.126-.863-6.947-.819-3.82.045-6.73.432-6.465.86M700 652.988c0 .566 2.555 1.012 5.8 1.012 7.137 0 7.936.744 7.246 6.746l-.546 4.754-5.25.302-5.25.303-.118-3.303c-.066-1.816-.066-3.639 0-4.052.065-.413-.332-.75-.882-.75-.644 0-1 10.655-1 29.965 0 28.602.088 30.012 1.934 31 3.327 1.78 146.844 1.4 148.637-.394 1.18-1.179 1.429-7.101 1.429-33.975v-32.547l-76-.037c-50.617-.024-76 .302-76 .976m-542.077.251c-1.727 5.893-1.103 59.014.714 60.678.35.32.838.021 1.083-.667.246-.687 1.111-1.25 1.922-1.25.812 0 1.24-.382.951-.849s.697-1.48 2.191-2.25c1.494-.771 3.909-2.638 5.367-4.151s3.15-2.75 3.759-2.75c.61 0 2.521-1.35 4.247-3 1.727-1.65 3.567-3 4.09-3s2.212-1.35 3.753-3 3.522-3 4.401-3c.88 0 1.599-.45 1.599-1s1.35-1 3-1 3 .374 3 .831 1.238 1.47 2.75 2.25 3.943 2.656 5.401 4.169 3.397 2.75 4.309 2.75 1.38.45 1.04 1-.122 1 .485 1c.606 0 2.29 1.101 3.741 2.446s3.006 2.22 3.456 1.941c.45-.278.818-.028.818.554 0 2.274 3.337.872 7-2.941 2.114-2.2 4.343-4 4.955-4 .611 0 2.687-1.575 4.612-3.5s3.852-3.5 4.282-3.5 3.611-2.699 7.067-5.998c3.455-3.298 6.758-5.704 7.338-5.345.618.382.76.174.341-.502-.392-.635-.192-1.155.445-1.155s2.419-1.35 3.96-3c4.16-4.453 8.227-3.805 14.124 2.25 1.473 1.513 3.17 2.75 3.771 2.75.6 0 3.834 2.7 7.186 6s6.504 6 7.005 6 2.766 1.8 5.033 4 4.553 4 5.08 4 2.687 1.8 4.801 4 4.355 4 4.981 4 .816.52.424 1.155c-.422.681-.277.884.353.494.588-.363 2.971 1.169 5.297 3.404 5.604 5.384 6.328 4.42 6.223-8.285-.047-5.647-.129-19.595-.182-30.996L324 653.045l-83-.034c-45.65-.018-83.034.085-83.077.228M152.272 660c0 2.475.195 3.487.434 2.25.238-1.237.238-3.263 0-4.5-.239-1.237-.434-.225-.434 2.25m606.928-.8c-.856.856-1.2 7.111-1.2 21.8s.344 20.944 1.2 21.8c.77.77 4.711 1.2 11 1.2h9.8v4.8c0 7.469-1.237 7.2 33.069 7.2h30.669l.487-3.25c.267-1.788.336-10.9.153-20.25s-.343-17.76-.355-18.689c-.025-1.819-3.315-2.562-14.523-3.279-3.3-.211-6.337-.417-6.75-.458s-.75-2.131-.75-4.645c0-7.639.912-7.429-32.229-7.429-21.511 0-29.692.321-30.571 1.2M216 664.933c0 .513-.9 1.218-2 1.567s-2 1.279-2 2.067-.45 1.433-1 1.433-1 2.045-1 4.545c0 4.525 3.136 9.455 6.014 9.455.607 0 .826.45.486 1-.381.617 1.343 1 4.5 1s4.881-.383 4.5-1c-.34-.55-.109-1 .512-1 1.644 0 3.988-2.603 3.988-4.429 0-.864.354-1.571.787-1.571 1.135 0 1.262-3.852.149-4.539-.515-.319-.936-1.485-.936-2.591 0-2.165-2.182-4.87-3.929-4.87-.589 0-1.071-.45-1.071-1s-2.025-1-4.5-1-4.5.42-4.5.933m489.85 2.79c-3.394.359-3.675.645-4 4.081-.558 5.894.065 8.196 2.22 8.196 1.061 0 1.93.45 1.93 1s-.855 1-1.899 1c-1.544 0-1.974.89-2.298 4.75-.219 2.612-.036 4.901.406 5.085s.549.747.238 1.25c-.943 1.527 8.567 1.044 10.124-.514 1.616-1.615 1.963-8.571.429-8.571-.55 0-1-1.35-1-3s.45-3 1-3c1.84 0 1.067-6.55-1.039-8.811-1.121-1.204-2.134-2.113-2.25-2.021s-1.854.342-3.861.555m-251.6 8.802c-1.238 1.322-2.25 3.121-2.25 3.998s-.45 1.317-1 .977c-.567-.351-1 .49-1 1.941 0 1.407-.45 2.559-1 2.559s-1 .873-1 1.941-.45 2.219-1 2.559-1 1.716-1 3.059-.45 2.441-1 2.441-1 .9-1 2-.354 2-.787 2-.892 1.373-1.02 3.05l-.232 3.051 5.769-.301c5.467-.284 5.756-.429 5.495-2.756-.151-1.351-.797-2.779-1.435-3.174-2.979-1.841 1.315-3.685 8.756-3.762 6.865-.07 7.454.085 7.454 1.967 0 1.124-.45 1.765-1 1.425s-1 .084-1 .941-.45 1.559-1 1.559-1 .638-1 1.417-.562 1.643-1.25 1.921c-.687.277 13.412.54 31.333.583 25.398.062 32.604-.197 32.674-1.171.601-8.34 1.744-14.765 2.638-14.83.608-.043 3.471-.081 6.362-.083 2.931-.002 5.007-.41 4.691-.92-.319-.517 2.076-.917 5.493-.917 3.373 0 6.059.443 6.059 1 0 .55 1.548 1 3.441 1s3.719-.45 4.059-1c.948-1.534 2.5-1.187 2.5.559 0 .857.45 1.281 1 .941.966-.597 1.402 1.85 1.07 6-.135 1.692.012 1.769.957.5.856-1.15 1.018-.275.692 3.75l-.425 5.25h8.353c7.686 0 8.353-.16 8.353-2 0-1.1-.369-2-.819-2-.451 0-1.432-2.25-2.181-5s-1.73-5-2.181-5c-.45 0-.819-.9-.819-2s-.45-2-1-2-1-1.098-1-2.441-.45-2.719-1-3.059-1-1.287-1-2.104c0-3.267-4.69-6.396-9.586-6.396h-4.677l.524 3.911c.645 4.807 1.099 4.682-15.511 4.282l-12.75-.307V674l-36.75.061-36.75.061zM152.32 684c0 3.575.182 5.038.403 3.25s.222-4.712 0-6.5c-.221-1.788-.403-.325-.403 3.25m329.118 25.762c-35.288.232-40.012.448-41.622 1.905-2.42 2.19-2.746 26.546-.387 28.904 1.189 1.19 8.029 1.429 40.931 1.429h39.504l2.068-2.904c1.649-2.316 2.068-4.425 2.068-10.406 0-7.095 2.625-15.357 5.25-16.523.413-.184.75-.701.75-1.15 0-1.349-6.954-1.529-48.562-1.255M565 710.929c0 .51.707 1.635 1.571 2.5.865.864 1.263 1.571.885 1.571s.041 1.109.929 2.465c1.113 1.698 1.615 4.729 1.616 9.75.001 6.327.33 7.667 2.5 10.191 1.375 1.598 2.499 3.285 2.499 3.75s2.025.844 4.5.844c2.501 0 4.5-.471 4.5-1.059 0-.582.422-.798.938-.479 1.332.823 1.17-25.131-.175-28.083-1.029-2.258-1.558-2.379-10.424-2.379-5.136 0-9.339.418-9.339.929m-111.34 4.244c-11.872.905-13.676 2.378-3.66 2.989 3.025.184 5.831.786 6.235 1.336.472.644.74.601.75-.119.01-.751 3.703-1.169 11.198-1.267 6.151-.08 11.401-.363 11.667-.629 2.104-2.104-12.261-3.371-26.19-2.31m-1.91 6.57c-4.262.188-7.75.772-7.75 1.299 0 .575 7.194.958 18 .958 9.9 0 18-.384 18-.853 0-.873-13.212-2.309-17.901-1.946-1.429.111-6.087.355-10.349.542m-7.75 7.19c0 1.858 4.762 2.451 18.378 2.287 14.123-.169 17.622-.624 17.622-2.287 0-.543-7.534-.933-18-.933s-18 .39-18 .933m251.616 3.254c.276.447 3.025.813 6.11.813 3.084 0 5.42-.176 5.191-.39-.85-.796-11.785-1.205-11.301-.423m-242.866 1.602c-6.55.216-8.75.629-8.75 1.643 0 2.219 2.443 2.568 18 2.568 15.403 0 18-.357 18-2.471 0-.898-2.479-1.312-8.685-1.449-4.777-.105-8.94-.278-9.25-.385s-4.502-.065-9.315.094M694 740.571c0 5.403.103 5.419 36.179 5.547 18.326.065 31.971.462 30.321.882-1.676.426 5.605.757 16.5.75 10.892-.007 17.955-.339 16-.75-1.925-.405 8.875-.708 24-.673 18.054.042 23.893.274 17 .673-10.215.592-10.066.613 5.5.789 10.632.12 15.497-.145 14.5-.789-1.201-.776-1.223-.972-.11-.985 1.904-.021 4.04-3.04 4.078-5.765L858 738H694zM152 749c0 2.852.455 5 1.059 5 .582 0 .781.45.441 1-.41.664 26.389.976 79.691.93 45.737-.04 79.448-.441 78.309-.93-1.957-.841-1.954-.861.111-.93 1.654-.055 2.016-.571 1.67-2.381-.556-2.91 1.903-5.083 4.737-4.183 1.524.484 2.066 1.413 1.942 3.332-.311 4.813-.067 5.162 3.611 5.162 4.786 0 6.429-1.898 6.429-7.429V744H152zm694.762-2.293c1.244.239 3.044.23 4-.02s-.062-.446-2.262-.435-2.982.216-1.738.455m-125.512 1.035c3.712.192 9.788.192 13.5 0 3.712-.193.675-.35-6.75-.35s-10.462.157-6.75.35m83.5-.005c2.888.202 7.612.202 10.5 0s.525-.367-5.25-.367-8.138.165-5.25.367m-41.5 3.91c-.827.344-1.25 2.825-1.25 7.327v6.807l3.75.464c5.757.713 23.044.294 23.917-.578.426-.427.251-1.1-.389-1.495-.641-.396-1.303-3.409-1.471-6.696l-.307-5.976-11.5-.187c-6.325-.102-12.062.048-12.75.334M243 763.833c0 .642-1.238 1.228-2.75 1.303-2.524.125-2.556.173-.385.585 2.433.461 5.035-1.154 3.818-2.371-.375-.376-.683-.158-.683.483m645 103.334c0 .641-.296.87-.658.508s-1.262-.156-2 .456c-1.077.894-1.342 8.205-1.342 37.037v35.923l2.455 2.454 2.454 2.455h29.077c25.176 0 29.156-.205 29.664-1.53.339-.883-.308-2.306-1.532-3.367-2.226-1.931-3.281-11.94-1.118-10.603.55.34 1-.084 1-.941s.681-1.559 1.514-1.559c.832 0 2.421-.562 3.53-1.25 2.07-1.283 4.523.523 3.331 2.452-.271.439-.054.798.483.798.536 0 1.189-.562 1.451-1.25.318-.836 1.329-.364 3.055 1.426s2.176 2.84 1.358 3.171c-.944.382-.937.513.028.574 1.473.093 1.717 4.079.25 4.079-.55 0-1 .9-1 2 0 1.492-.667 2-2.622 2-2.132 0-2.406.261-1.464 1.397 1.274 1.535 4.812 1.014 6.836-1.006 1.871-1.868 1.738-72.165-.142-74.641-1.223-1.611-4.246-1.75-37.968-1.75-27.25 0-36.64.299-36.64 1.167m-137.522 7.144c-1.936 2.095-2.025 3.499-2.069 32.689-.041 26.559.156 30.657 1.522 31.718 1.908 1.482 11.468 1.737 10.569.282-.34-.55-1.749-1-3.13-1-4.942 0-5.789-2.188-6.352-16.41-.802-20.255.188-44.487 1.86-45.517.758-.467 1.093-1.311.744-1.876-.349-.564-.069-1.254.622-1.533.852-.343.774-.512-.244-.524-.825-.01-2.41.967-3.522 2.171m-107.315 1.278c-.784.887-1.03 2.217-.596 3.212.661 1.513.792 1.48 1.195-.301.249-1.1.91-2.562 1.468-3.25 1.453-1.79-.464-1.475-2.067.339m156.438 6.709.222 6.202-.754-5-.755-5-.157 5.75c-.134 4.904.105 5.75 1.622 5.75 2.169 0 2.787-9.354.805-12.184-.987-1.409-1.165-.599-.983 4.482M70.75 880.357c-1.513 1.307-2.75 2.921-2.75 3.588 0 .666-1.8 2.941-4 5.055s-4 4.553-4 5.422S59.55 896 59 896s-1 1.087-1 2.417-.562 2.611-1.25 2.85 30.106.457 68.431.484c75.66.056 72.456.297 66.485-5.001-1.159-1.029-1.453-1.75-.713-1.75.692 0-.139-1.306-1.847-2.901-1.708-1.596-3.106-3.411-3.106-4.034s-1.586-2.717-3.524-4.655-3.271-3.933-2.961-4.434c.334-.541-21.004-.926-52.727-.951l-53.288-.043zM266 880c0 1.1.422 2 .938 2s.87-.9.787-2-.505-2-.938-2-.787.9-.787 2m13.25-.523c-.687.791-1.25 2.133-1.25 2.981s-.45 1.542-1 1.542-1 .927-1 2.059-.357 1.839-.792 1.569c-.436-.269-.864.451-.95 1.601-.087 1.15-.743 2.462-1.458 2.916-.999.634-1.011.828-.05.84.688.008 1.25.69 1.25 1.515 0 1.692 6.663 1.983 40.5 1.771 27.583-.174 25.5.005 25.5-2.188 0-1.054-.506-2.085-1.125-2.291-.619-.207-1.125-1.594-1.125-3.084s-.394-2.708-.875-2.708-.875-.702-.875-1.559-.375-1.327-.833-1.044c-.459.283-.909-.14-1-.941l-.334-2.896c-.248-2.147-52.72-2.226-54.583-.083m64.951 1.584c.124 1.617.579 2.939 1.012 2.939s.787.59.787 1.311c0 .722.9 2.278 2 3.459 1.1 1.18 2 3.29 2 4.688 0 1.506.568 2.542 1.393 2.542 1.597 0 3.068-3.049 1.891-3.92-.864-.64-4.612-7.993-4.883-9.58-.094-.55-.275-1.45-.404-2s-.212-1.244-.185-1.542-.824-.609-1.892-.689c-1.561-.118-1.898.431-1.719 2.792m13.799-.519c0 1.398.9 3.508 2 4.688 1.1 1.181 2 2.737 2 3.459 0 .721.34 1.311.756 1.311s1.353 1.35 2.084 3c1.493 3.374 7.16 4.515 7.16 1.441 0-.857-.45-1.281-1-.941s-1-.088-1-.95c0-.863-1.35-2.981-3-4.707-1.65-1.727-3-3.543-3-4.037 0-.963-4.549-5.806-5.455-5.806-.3 0-.545 1.144-.545 2.542m-106.25-.853c-.963.252-1.75 1.351-1.75 2.443s-.45 1.708-1 1.368-1 .084-1 .941-.45 1.559-1 1.559-1 .702-1 1.559c0 .924-.47 1.268-1.155.846-.663-.411-.884-.278-.52.311.348.564-.257 2.053-1.346 3.308-2.527 2.913-2.502 3.976.092 3.976 2.252 0 4.929-2.173 4.929-4 0-.629.679-1.822 1.509-2.652s1.254-1.923.941-2.429c-.312-.505-.091-.919.491-.919s1.066-1.013 1.074-2.25c.013-1.819.201-1.963.985-.75.755 1.169.973.893.985-1.25.008-1.513-.098-2.698-.235-2.634s-1.037.322-2 .573m12.56 4.39c.397 1.518.159 1.931-.883 1.531-.999-.383-1.427.194-1.427 1.921 0 2.83.557 3.055 2.571 1.04 1.689-1.688 1.92-6.571.312-6.571-.638 0-.883.89-.573 2.079m378.324 3.743c-.453 1.826-.556 3.589-.229 3.916 1.13 1.13 1.735-.557 1.395-3.892l-.341-3.346zM920.5 887c.351.567-.49 1-1.941 1-1.407 0-2.447.337-2.309.75s-.196.75-.74.75c-1.109 0-2.367 5.315-1.716 7.25.718 2.137 3.28 1.383 6.305-1.856 1.595-1.708 2.901-2.581 2.901-1.941 0 .641.409.912.91.603 1.879-1.162 4.09.71 4.09 3.462 0 1.888-.98 3.629-3 5.329-2.012 1.693-3.005 3.451-3.015 5.338-.012 2.185-.233 2.479-.985 1.315s-.973-.868-.985 1.321c-.017 3.251 2.028 5.71 4.664 5.609 1.639-.064 1.621-.156-.179-.93-1.71-.735-1.746-.87-.25-.93.962-.038 1.75-.772 1.75-1.629s.45-1.281 1-.941 1-.128 1-1.04 1.35-2.919 3-4.46 3-3.773 3-4.96.45-1.88 1-1.54c.585.362 1-.676 1-2.5s-.415-2.862-1-2.5c-.55.34-1-.341-1-1.512 0-2.507-2.203-4.988-4.429-4.988-.864 0-1.571-.45-1.571-1s-1.827-1-4.059-1c-2.451 0-3.814.396-3.441 1m-660.333 4c.183.825-.229 1.388-.917 1.25-.687-.138-1.25.2-1.25.75s.86 1 1.912 1c1.883 0 2.285-2.136.7-3.721-.428-.428-.629-.104-.445.721m161.833.059c0 .582-.45.781-1 .441s-1-.141-1 .441.675 1.059 1.5 1.059 1.5-.675 1.5-1.5-.225-1.5-.5-1.5-.5.477-.5 1.059M362 901c0 .55 1.688.993 3.75.985 2.789-.012 3.366-.264 2.25-.985-1.971-1.274-6-1.274-6 0m-308.75 4.465c-.842.978-1.25 5.177-1.25 12.882v11.43l3.25.554c6.067 1.034 23.364 1.65 20.75.739-1.476-.514 18.598-.845 49-.807 28.325.035 49.025.403 46 .819-3.392.467-.326.583 8 .305 7.425-.248 14.4-.627 15.5-.843s2.338-.425 2.75-.467c1.542-.158.851-23.119-.743-24.713-1.256-1.256-4.313-1.405-19.25-.936-21.659.679-27.678.684-80.757.071-35.882-.414-42.182-.274-43.25.966M235 905c1.213.784 1.069.972-.75.985-2.19.015-2.25.295-2.25 10.586 0 14.889-1.783 13.944 26.16 13.864 21.293-.061 25.952-.512 23.153-2.242-.71-.439-1.135-4.273-1.146-10.339l-.017-9.642 12.675-.293c18.341-.424 38.126-.301 38.666.239.454.453.738 14.598.363 18.092-.103.962-.675 1.757-1.271 1.765s-.463.408.294.888c.758.48 7.205.93 14.328 1l12.951.127-.315-3.652c-.248-2.879.159-3.966 1.922-5.137 1.23-.817 2.237-1.033 2.237-.48s.9 1.241 2 1.529c1.466.383 2 1.364 2 3.675 0 2.129-.375 2.921-1.155 2.44-.715-.443-.883-.275-.44.44 1.054 1.706 12.406 1.486 14.166-.274 1.027-1.026 1.429-3.96 1.429-10.418 0-10.085-.484-12.146-2.857-12.168-1.428-.014-1.447-.145-.143-1.004 1.002-.66-10.185-.964-33.69-.914-24.104.051-35.303.412-35.548 1.147-.25.751-.998.73-2.494-.071-2.756-1.475-72.549-1.617-70.268-.143m88.264.718c1.52.229 3.77.223 5-.014s-.014-.425-2.764-.418-3.756.202-2.236.432m36.06.06c-.646.412-1.321 2.542-1.5 4.735-.317 3.903-.399 3.98-3.851 3.68-3.198-.279-3.548-.056-3.751 2.396-.296 3.57 1.371 5.411 4.9 5.411 2.691 0 2.878-.26 2.878-4v-4h4c3.778 0 4-.167 4-3 0-1.65-.45-3-1-3s-1-.675-1-1.5c0-1.578-2.679-1.991-4.676-.722M199.252 910.5c.011 2.2.216 2.982.455 1.738s.23-3.044-.02-4-.446.062-.435 2.262m-69.002-1.14c-3.135 1.552-3.827 14.206-.935 17.098 1.831 1.83 31.685 2.341 31.685.542 0-.55.482-1 1.071-1 1.594 0 3.929-2.633 3.929-4.429 0-2.152 1.27-1.971 3 .429 1.096 1.52 2.589 2 6.221 2 4.547 0 4.779-.134 4.78-2.75l.001-2.75 2.483 2.886c2.873 3.342 9.228 4.044 11.95 1.322 1.71-1.71 2.228-9.236.565-8.208-.55.34-1-.084-1-.941 0-.87-.847-1.559-1.917-1.559-1.054 0-2.179-.562-2.5-1.25-.466-1-.7-1-1.166 0-.321.688-1.281 1.25-2.133 1.25-1.996 0-5.437 3.944-4.609 5.284.364.589.143.722-.52.311-.635-.392-1.155-1.331-1.155-2.086s-1.238-2.224-2.75-3.265c-3.015-2.074-7.513-1.284-9.968 1.75-.895 1.106-1.227 1.162-1.25.211-.018-.713-1.137-2.4-2.487-3.75-2.39-2.391-2.828-2.452-16.75-2.332-8.234.071-15.249.595-16.545 1.237m206.95-.16c-1.676 1.676-1.497 5.646.338 7.481 1.384 1.384 1.734 1.311 3.5-.725 2.439-2.812 2.468-4.188.133-6.301-2.183-1.976-2.423-2.003-3.971-.455m-197.45.532c2.338.211 6.162.211 8.5 0 2.338-.21.425-.383-4.25-.383s-6.588.173-4.25.383m-80.409 1.676A185 185 0 0 1 56 913.01c-2.009.93-2.436 4.524-.961 8.085 1.335 3.223.422 3.093 23.211 3.311 5.363.052 9.753.319 9.756.594.013 1.18 11.409.949 12.184-.248.642-.993.987-.979 1.664.071.948 1.469 18.146 1.449 18.146-.021 0-.441.707-.802 1.571-.802 4.945 0 6.231-8.775 1.719-11.727-2.441-1.597-5.664-1.773-32.409-1.773-16.334 0-30.527.408-31.54.908m179.909 2.088c-1.689 1.919-1.583 7.314.179 9.075.785.786 2.842 1.429 4.571 1.429 3.993 0 6-2.007 6-6 0-1.729-.643-3.786-1.429-4.571-1.826-1.827-7.691-1.785-9.321.067m126.616 1.404c-1.537 1.859-2.121 5.376-.753 4.53.488-.301.887.101.887.894 0 1.687 3.137 2.714 6 1.966 2.3-.602 2.813-5.409.75-7.023-2.408-1.884-5.494-2.048-6.884-.367M252 918.041c0 1.753.563 2.007 4 1.804 3.102-.183 4-.641 4-2.041 0-1.438-.811-1.804-4-1.804-3.36 0-4 .327-4 2.041m9.481-1.01c-1.093 1.769.97 3.16 4.147 2.797 4.02-.459 3.803-3.238-.284-3.634-1.736-.169-3.474.208-3.863.837M921.2 919.2c-1.642 1.642-1.505 3.638.378 5.521 1.437 1.437 1.807 1.348 4.149-.994s2.431-2.712.994-4.149c-1.883-1.883-3.879-2.02-5.521-.378m-583.95.462c-1.698.685-1.582 5.148.179 6.909 1.615 1.616 5.023 1.969 4.067.422-.343-.554.081-1.277.941-1.607 2-.768 1.997-2.809-.008-4.815-1.592-1.591-2.913-1.823-5.179-.909M949.025 929c-1.306 2.635-.424 8.619 1.409 9.563 2.432 1.254 5.557-.176 5.581-2.554.014-1.34.135-1.341 1.076-.009.943 1.333.997 1.333.486 0-.317-.825-.853-2.288-1.193-3.25-.839-2.377-2.384-2.215-2.384.25 0 3.572-3.536 1.913-4.263-2-.256-1.375-.576-2.275-.712-2m-305.875 3.628c-.083 1.72.429 3.607 1.136 4.194.969.805 1.285.607 1.285-.804 0-1.029-.323-1.672-.717-1.428-.395.244-.906-.801-1.136-2.323-.407-2.695-.422-2.685-.568.361m-520.9-.912c1.513.229 3.987.229 5.5 0s.275-.416-2.75-.416-4.263.187-2.75.416m155-.027c.962.252 2.538.252 3.5 0 .962-.251.175-.457-1.75-.457s-2.712.206-1.75.457m26.478.033c1.775.221 4.925.224 7 .008 2.074-.217.622-.397-3.228-.402-3.85-.004-5.548.173-3.772.394m30.522.017c3.163.198 8.337.198 11.5 0s.575-.361-5.75-.361-8.913.163-5.75.361m357.632 3.311c-.066.797-.066 1.787 0 2.2.065.413-1.795.757-4.132.765s-4.925.467-5.75 1.018c-1.069.715.195.926 4.396.735 6.373-.29 9.338-2.434 6.832-4.94-.971-.971-1.253-.924-1.346.222m104.746 2.158c.27.435-6.538.792-15.128.792-10.157 0-15.402.35-15 1 1.042 1.686 30.348 1.295 32.071-.429 1.921-1.92 1.8-2.475-.502-2.301-1.062.08-1.71.502-1.441.938m-8.86 4.517c1.797.222 4.497.218 6-.01 1.503-.229.032-.411-3.268-.405s-4.529.192-2.732.415"/></svg>