<svg xmlns="http://www.w3.org/2000/svg" viewBox="0 0 1024 1024"><path fill="#00e5cc" d="M238.5 191.157c-5.382 3.265-5-13.109-5 214.188 0 167.102.255 210.073 1.25 210.405.688.229 1.25 1.081 1.25 1.892 0 .812.412 1.222.915.911s1.09-.039 1.304.604c.425 1.276 66.233 1.317 68.236.043.575-.366 18.595-1.021 40.045-1.456s54.525-1.226 73.5-1.757 42.825-1.196 53-1.478 25.7-.749 34.5-1.038c8.8-.288 32.425-.966 52.5-1.506 82.047-2.207 111.136-3.005 144-3.953 18.975-.548 49.35-1.241 67.5-1.541 33.487-.554 37.19-.972 40.75-4.603 1.653-1.685 1.75-11.049 1.749-168.076l-.001-166.292-2.249-2.612c-1.419-1.649-3.725-2.848-6.249-3.25-4.93-.786-17.653-2.496-27-3.629-3.85-.467-10.6-1.357-15-1.979a768 768 0 0 0-16.5-2.105 1782 1782 0 0 1-16.25-1.95l-15.5-1.947A1893 1893 0 0 1 700 248.04a3380 3380 0 0 0-31.25-4.071c-14.162-1.771-23.167-2.916-31.25-3.973-4.4-.576-11.6-1.471-16-1.989-4.4-.519-11.375-1.401-15.5-1.961s-11.325-1.481-16-2.046-11.65-1.445-15.5-1.956-11.05-1.429-16-2.041c-14.945-1.849-24.607-3.061-32.5-4.078A8577 8577 0 0 0 495 222l-16-2-16-2c-4.4-.55-11.488-1.433-15.75-1.963a1664 1664 0 0 1-15.25-1.979c-7.609-1.032-17.028-2.236-31.5-4.028-4.4-.545-11.6-1.445-16-2s-11.6-1.451-16-1.992-11.825-1.457-16.5-2.038-12.325-1.52-17-2.086A1291 1291 0 0 1 320 200c-3.575-.486-10.55-1.388-15.5-2.005a3291 3291 0 0 1-30.5-3.933c-29.603-3.964-33.261-4.263-35.5-2.905m7.75 15.246-2.25 2.612v190.793c0 201.768-.141 195.6 4.491 196.397 2.393.412 96.986-.844 166.509-2.21 27.225-.535 73.575-1.42 103-1.967s60.7-1.227 69.5-1.51c8.8-.284 31.975-.746 51.5-1.028 140.753-2.027 161.313-2.66 163.69-5.037 1.069-1.069 1.31-29.596 1.31-154.707V276.349l-2.25-2.056c-2.41-2.202-4.753-2.794-17.25-4.355a6416 6416 0 0 1-30.5-3.87c-4.125-.536-11.55-1.457-16.5-2.046s-12.487-1.51-16.75-2.047c-4.263-.536-11.35-1.425-15.75-1.975l-16-2-16-2-16-2-16-2-16-2-16-2a6316 6316 0 0 0-32.5-3.994c-4.4-.526-11.6-1.425-16-1.998s-11.825-1.485-16.5-2.026a1586 1586 0 0 1-16-1.948c-4.125-.53-10.65-1.236-14.5-1.569s-7.9-1.006-9-1.496-4.925-1.12-8.5-1.399-10.1-.963-14.5-1.52-12.275-1.49-17.5-2.075c-9.371-1.049-17.306-2.014-32-3.891-12.621-1.612-25.117-3.173-33.25-4.151-11.853-1.427-33.165-4.1-46.75-5.865-4.125-.536-11.55-1.457-16.5-2.046s-12.6-1.526-17-2.082-11.15-1.236-15-1.512c-3.85-.275-7.9-.909-9-1.408-1.1-.5-5.15-1.159-9-1.466s-10.6-.991-15-1.521c-20.84-2.512-21.78-2.498-24.25.37m25.426 84.999c-.697 1.817.142 2.598 2.791 2.598 3.321 0 7.517 2.323 7.525 4.167.004.916.454 1.816.999 2 .546.183 1.094 1.571 1.218 3.083.251 3.044 2.117 3.567 4.439 1.245 3.148-3.148.803-12.495-3.136-12.495-.896 0-1.352-.45-1.012-1 .388-.627-1.787-1-5.834-1-4.613 0-6.605.4-6.99 1.402m136.332 50.277.008 33.821 2.644 1.228c2.298 1.066 2.869.968 4.359-.75 3.508-4.044 8.981-1.439 8.981 4.274 0 3.721-2.803 5.528-6.421 4.14-1.035-.397-1.579-.053-1.579 1.001 0 .884.45 1.607 1 1.607s1 .675 1 1.5c0 1.235 1.798 1.5 10.18 1.5 8.316 0 11.063.399 15 2.178 4.262 1.926 6.556 4.822 3.82 4.822-.65 0-1 13.833-1 39.5V476h21.767l.523-2.738c.838-4.382.808-158.647-.03-159.863-1.266-1.834-5.951-2.498-24.76-3.51-9.9-.533-21.937-1.207-26.75-1.5l-8.75-.531zm3.855-22.872c-1.388.973-1.863 2.561-1.863 6.227 0 7.753 1.234 8.203 24.869 9.079 10.797.4 20.872 1.042 22.389 1.425 1.576.399 4.04.167 5.75-.541 2.833-1.174 2.992-1.546 2.992-6.996 0-3.421-.507-6.149-1.25-6.725-3.649-2.828-49.333-4.961-52.887-2.469m2.285 21.306c-.182 3.086.175 3.869 2.066 4.538 4.974 1.759 7.786.33 7.786-3.957 0-3.292-2.089-4.818-6.214-4.54-3.193.215-3.432.475-3.638 3.959m12.503.355c-.847 2.208.962 2.84 9.539 3.337 7.291.422 7.81.319 7.81-1.546 0-1.531-.875-2.142-3.75-2.617-6.834-1.13-12.992-.756-13.599.826M415.2 349.2c-.66.66-1.2 2.91-1.2 5v3.8h10v-3.571c0-5.531-5.331-8.698-8.8-5.229m11.8 4.679c0 1.828.587 2.122 4.25 2.126 2.337.002 9.313.296 15.5.652 9.899.571 11.25.457 11.25-.945 0-2.377-.309-2.438-16.25-3.225-14.593-.721-14.75-.706-14.75 1.392m-13 11.897c0 3.859 1.9 6.224 5 6.224 2.846 0 5-2.286 5-5.306 0-3.332-2.099-4.817-6.398-4.528-3.375.227-3.602.455-3.602 3.61M486 364c0 1.1.45 2 1 2s1-.9 1-2-.45-2-1-2-1 .9-1 2m-58.254 1.587c-2.39 2.39-.258 3.187 10.363 3.876 10.898.706 14.806-.04 12.341-2.355-1.214-1.141-21.711-2.514-22.704-1.521m57.99 7.011c-.802.801.247 3.402 1.371 3.402.491 0 .893-.9.893-2 0-1.949-1.061-2.606-2.264-1.402m-58.335 6.801c-1.038 2.703-.204 2.884 15.586 3.391 13.207.424 15.013.292 15.013-1.095 0-2.415-.66-2.553-15.805-3.293-12.74-.622-14.211-.523-14.794.997m-150.639.308c1.244.239 3.044.23 4-.02s-.062-.446-2.262-.435-2.982.216-1.738.455m5.488 3.982c.962.252 2.538.252 3.5 0 .962-.251.175-.457-1.75-.457s-2.712.206-1.75.457m202.927 37.978c.486 2.509 2.823 2.853 2.823.416 0-1.228-.646-2.083-1.573-2.083-.932 0-1.442.68-1.25 1.667M652.272 424c0 2.475.195 3.488.434 2.25.238-1.238.238-3.262 0-4.5-.239-1.238-.434-.225-.434 2.25M486 431.833c0 1.192.41 2.167.912 2.167 1.016 0 .864-2.557-.216-3.638-.383-.382-.696.28-.696 1.471m169.861 1.108c1.298 1.132 2.836 2.059 3.416 2.059 1.23 0 1.171-.05-2.777-2.362l-3-1.757zm-170.125 7.657c-.802.801.247 3.402 1.371 3.402.491 0 .893-.9.893-2 0-1.949-1.061-2.606-2.264-1.402m18.014.108c1.238.238 3.262.238 4.5 0 1.238-.239.225-.434-2.25-.434s-3.488.195-2.25.434m-6.5 2.983c.962.252 2.538.252 3.5 0 .962-.251.175-.457-1.75-.457s-2.712.206-1.75.457m206.25 3.745c-4.921 2.326-5.033 2.333-7.064.465-1.136-1.045-2.418-1.899-2.85-1.899-1.025 0-9.586 9.067-9.586 10.154 0 .46-2.25 3.134-5 5.942s-5 5.763-5 6.564-.45 1.18-1 .84-1-.142-1 .439-1.8 2.968-4 5.304c-2.2 2.335-4 4.712-4 5.281s-.9 1.683-2 2.476c-2.991 2.156-2.494 3.649 3 9 2.75 2.679 5 5.376 5 5.994s.399.878.886.576c.488-.301 1.135.401 1.438 1.56.529 2.024.958 2.083 10.863 1.484 5.672-.343 10.988-.66 11.813-.704.825-.045 3.439.416 5.81 1.023 6.367 1.631 10.274-.483 12.541-6.788 1.027-2.857 3.536-6.581 6.189-9.184 5.314-5.215 5.404-6.264 1.46-16.961-1.65-4.475-3-9.665-3-11.533 0-2.389-.964-4.521-3.248-7.182-5.294-6.169-4.603-5.993-11.252-2.851M486 451.833c0 1.192.41 2.167.912 2.167 1.016 0 .864-2.557-.216-3.638-.383-.382-.696.28-.696 1.471m11.75 1.873c1.238.238 3.262.238 4.5 0 1.238-.239.225-.434-2.25-.434s-3.488.195-2.25.434m131.711 20.044-5.624 5.75 3.538 3.068c3.776 3.275 10.906 5.432 17.958 5.432 2.299 0 5.64.419 7.424.93 3.755 1.077 4.079.53 1.177-1.987-1.136-.985-1.923-2.005-1.75-2.266.486-.729-14.864-16.677-16.052-16.677-.576 0-3.578 2.587-6.671 5.75m-163.948 96.077c-.364.949-.035 1.204 1.028.796.898-.345 1.303-.18.952.388-.342.553.516.989 1.948.989 1.407 0 2.506.337 2.441.75-.29 1.833.198 3.25 1.118 3.25 1.515 0 1.196-4.947-.424-6.567-1.756-1.755-6.336-1.5-7.063.394m-3.513 5.77c0 1.163.421 1.248 2 .403 1.1-.589 2-1.184 2-1.322s-.9-.32-2-.403c-1.163-.088-2 .466-2 1.322m309.25 17.899c-.687.781-1.25 2.961-1.25 4.846v3.426l10.819.161 10.819.16 1.224-2.685c1.074-2.357.952-2.973-.994-5.044-2.002-2.131-3.048-2.356-10.792-2.322-6.115.027-8.935.445-9.826 1.458M703.2 597.2c-2.756 2.756-.327 6.554 3.3 5.162 2.461-.945 1.183-6.362-1.5-6.362-.33 0-1.14.54-1.8 1.2M720 599c0 2.303.451 3 1.941 3 2.446 0 3.369-1.448 2.556-4.009-1.052-3.315-4.497-2.542-4.497 1.009m16.303-1.05c-.091 4.622 5.153 5.607 5.501 1.033.21-2.748-.024-2.998-2.62-2.8-1.799.137-2.862.789-2.881 1.767m16.72-.478c-.978 1.178-.897 1.797.406 3.099 1.943 1.944 4.571.395 4.571-2.693 0-2.276-3.208-2.537-4.977-.406M774.5 597c.34.55 3.516 1 7.059 1 3.627 0 6.441-.437 6.441-1 0-.572-3.02-1-7.059-1-4.451 0-6.831.369-6.441 1m-277 38.552c-14.3.68-28.587 1.283-31.75 1.342L460 637v11h22v14.304l10.656-.652c5.86-.359 12.16-.652 14-.652H510v-6.071c0-7.641 1.174-8.925 8.179-8.943 9.226-.023 9.821-.423 9.821-6.603 0-4.963-.176-5.371-2.25-5.225-1.237.087-13.95.714-28.25 1.394M533 661l-4.5.5.316 4c1.079 13.688 1.189 29.789.21 30.968-1.149 1.385-6.811 2.063-29.526 3.535-7.7.5-16.392 1.198-19.316 1.553-7.82.95-8.113.288-8.152-18.377-.038-18.33-.206-18.676-8.532-17.636-5.382.673-7.556 3.068-4.5 4.957.649.401 1 22.177 1 62.059V794h3.3c1.815 0 3.728-.41 4.25-.911.523-.501 5-1.175 9.95-1.497s13.275-1.051 18.5-1.618 12.875-1.278 17-1.578 7.927-.962 8.45-1.471 4.198-.925 8.168-.925 7.93-.273 8.8-.607c1.418-.544 1.582-6.79 1.582-60.3 0-34.149-.386-60.1-.903-60.643-.497-.522-1.059-1.625-1.25-2.45-.267-1.155-1.381-1.385-4.847-1m-23 3.666c-1.375.131-6.931.53-12.347.887l-9.848.648.602 2.65c.332 1.457.893 5.056 1.248 7.998l.645 5.35 11.1-.671c14.46-.874 14.6-.922 14.6-5.036 0-1.856-.45-3.652-1-3.992s-1-2.14-1-4c0-3.777-.415-4.175-4-3.834M483.096 669c-.062 1.925-.403 5.915-.758 8.867-.632 5.263-.602 5.345 1.509 4.215 2.532-1.355 2.793-6.173.681-12.582l-1.318-4zm77.848 103.939c-.855.519-4.568 1.04-8.25 1.159l-6.694.217-.118 7.093c-.066 3.9-.096 7.34-.067 7.642s-1.557.659-3.524.791c-1.966.132-4.382.672-5.367 1.2s-5.197.959-9.358.959-7.566.417-7.566.927c0 .509-3.712 1.168-8.25 1.463-7.699.502-13.353 1.071-36.25 3.647-17.123 1.927-22.691 2.172-23.813 1.05-.598-.598-3.022-1.087-5.387-1.087s-4.3-.405-4.3-.899c0-.495-2.025-1.17-4.5-1.5l-9-1.202c-2.475-.33-4.5-1.005-4.5-1.5 0-.494-1.774-.899-3.943-.899-2.887 0-4.342-.569-5.431-2.124-1.221-1.742-2.083-1.997-4.807-1.42-4.215.894-18.873 2.457-29.569 3.154-4.538.295-8.25.954-8.25 1.463s-4.248.927-9.441.927c-5.215 0-9.718.448-10.059 1-.34.55-3.94 1-8 1s-7.66.45-8 1 .282 1 1.382 1 2.278.45 2.618 1 2.14 1 4 1 3.66.45 4 1 2.616 1 5.059 1 4.441.45 4.441 1 1.8 1 4 1 4 .45 4 1 1.773 1 3.941 1 4.19.402 4.494.894 2.355 1.167 4.559 1.5l8.012 1.212c2.204.333 4.255 1.008 4.559 1.5s2.326.894 4.494.894 3.941.45 3.941 1 1.773 1 3.941 1 4.19.402 4.494.894 2.243 1.131 4.309 1.419S418.525 817.36 421 818s6.3 1.397 8.5 1.684 4.428.925 4.95 1.418c.523.494 2.408.898 4.191.898s3.49.402 3.794.894c.519.841 3.094 1.37 13.315 2.738 2.337.313 4.25.974 4.25 1.469 0 .494 1.71.899 3.8.899s4.278.478 4.863 1.063c1.265 1.265 20.105.645 31.337-1.032 4.125-.615 10.425-1.361 14-1.656s6.928-.95 7.45-1.456c.522-.505 3.983-.919 7.691-.919s7.019-.45 7.359-1 3.651-1 7.359-1 7.168-.414 7.691-.919c.887-.859 4.081-1.253 21.2-2.62 3.712-.296 7.65-.952 8.75-1.458 1.89-.869 5.409-1.285 22-2.603 3.85-.306 7.428-.971 7.95-1.478s3.695-.922 7.05-.922 6.528-.415 7.05-.922 4.1-1.172 7.95-1.478c16.591-1.318 20.11-1.734 22-2.603 1.1-.506 4.925-1.142 8.5-1.414s9.875-.975 14-1.562c12.808-1.823 22.23-2.993 29.25-3.632 3.712-.338 6.75-1.014 6.75-1.502s.99-.887 2.2-.887c3.759 0 .624-1.766-4.2-2.366-12.053-1.5-16.589-2.236-17.564-2.851-.586-.369-3.173-.781-5.75-.914-2.577-.134-4.686-.609-4.686-1.056s-2.223-.813-4.941-.813-5.219-.45-5.559-1-2.976-1-5.859-1-5.668-.406-6.191-.903-2.975-1.157-5.45-1.468c-11.616-1.459-13.633-1.802-15.5-2.634-1.1-.49-4.138-1.139-6.75-1.443l-9.5-1.104c-2.612-.304-5.65-.953-6.75-1.443-1.897-.845-5.213-1.399-15.5-2.589-2.475-.286-5.4-.921-6.5-1.411-4.75-2.117-31.803-3.733-34.556-2.066m165.744 29.706c-.686.686-10.648 2.024-22.188 2.978-3.85.319-7.428.984-7.95 1.478-.523.495-3.695.899-7.05.899s-6.528.415-7.05.922-4.1 1.172-7.95 1.478c-16.591 1.318-20.11 1.734-22 2.603-1.1.506-4.925 1.154-8.5 1.441-16.408 1.315-19.63 1.699-21.5 2.559-1.1.506-4.925 1.154-8.5 1.441-16.408 1.315-19.63 1.699-21.5 2.559-1.1.506-5.15 1.167-9 1.469-15.469 1.215-19.5 1.734-19.5 2.511 0 .446-3.712 1.073-8.25 1.393-4.538.319-11.625 1.051-15.75 1.626A5499 5499 0 0 1 525.5 830a7815 7815 0 0 0-14.5 1.992c-4.125.572-10.875 1.452-15 1.956s-9.34 1.221-11.59 1.594l-4.089.678.081 5.972.081 5.972 4.008-.592c2.205-.325 6.934-.839 10.509-1.141s7.4-.952 8.5-1.445 4.475-1.127 7.5-1.408 8.875-.96 13-1.509a516 516 0 0 1 14.275-1.67c3.726-.369 7.016-1.06 7.309-1.535S549.215 838 553 838s7.16-.45 7.5-1 3.715-1 7.5-1 7.16-.45 7.5-1 3.49-1 7-1 6.66-.45 7-1 3.49-1 7-1 6.66-.45 7-1 3.49-1 7-1 6.66-.45 7-1 3.49-1 7-1 6.66-.45 7-1 3.49-1 7-1 6.614-.375 6.898-.834 3.347-.935 6.809-1.058c3.461-.123 6.72-.647 7.243-1.166.522-.518 3.695-.942 7.05-.942s6.528-.415 7.05-.922 4.1-1.16 7.95-1.452c3.85-.291 10.263-1.001 14.25-1.577 18.83-2.724 22.149-3.164 27.75-3.683 7.594-.704 8.5-1.503 8.5-7.488 0-4.444-.208-4.878-2.333-4.878-1.284 0-2.624.29-2.979.645"/></svg>