<svg xmlns="http://www.w3.org/2000/svg" viewBox="0 0 1024 1024"><path fill="#00e5cc" d="M348.75 187.77c-4.812.17-8.75.656-8.75 1.082s-2.109.883-4.686 1.017-5.079.486-5.561.784c-.482.297-2.311.767-4.064 1.042-1.754.276-3.464.946-3.801 1.489-.336.543-.912.899-1.278.792-.367-.107-1.667.126-2.889.518-1.221.391-2.888.866-3.703 1.054s-1.64.818-1.833 1.398c-.193.579-1.466 1.054-2.827 1.054-1.396 0-2.206.436-1.858 1 .34.55-.309 1-1.441 1s-2.059.477-2.059 1.059-.414.803-.919.491-1.529-.002-2.274.691c-.745.692-2.019 1.405-2.831 1.584s-1.626.741-1.809 1.25-.904.925-1.602.925-2.681 1.35-4.408 3c-1.726 1.65-3.509 3-3.961 3-1.529 0-17.231 16.135-16.637 17.096.324.524.219.83-.235.679s-.934.064-1.069.479-1.598 2.169-3.25 3.899c-1.653 1.729-3.005 3.559-3.005 4.067 0 .507-.679 1.602-1.509 2.432s-1.254 1.923-.941 2.429c.312.505.162.919-.334.919-.936 0-4.943 7.371-5.435 10-.155.825-.648 1.77-1.097 2.1-.45.33-.966 1.23-1.148 2s-.625 2.3-.984 3.4c-.36 1.1-.593 2.4-.518 2.888.075.489-.307 1.164-.85 1.5-1.094.678-2.17 5.259-2.845 12.112-.244 2.475-.898 5.422-1.453 6.55-1.603 3.253.082 36.035 1.924 37.428.379.287.814 2.097.967 4.022.152 1.925.714 3.65 1.25 3.833.535.184.973 1.646.973 3.25s.477 2.917 1.059 2.917.803.414.491.919-.002 1.519.691 2.25c.692.732 1.376 2.05 1.518 2.929.443 2.734 4.913 10.896 5.595 10.215.355-.355.646.329.646 1.52s.477 2.167 1.059 2.167.826.376.542.836.932 2.373 2.703 4.25c1.771 1.878 3.44 3.864 3.708 4.414s.859.876 1.312.725.562.15.241.67c-.617.999 16.339 18.535 17.144 17.73.259-.259 1.847.844 3.529 2.452S293.699 390 294.19 390s1.86.9 3.04 2c1.181 1.1 2.737 2 3.459 2 .721 0 1.311.45 1.311 1s.9 1 2 1 2 .45 2 1 .9 1 2 1 2 .378 2 .84 1.913 1.406 4.25 2.097 4.94 1.607 5.783 2.033c.843.427 2.98 1.094 4.75 1.482 3.772.829 3.963 1.675 1.114 4.951-1.156 1.33-2.137 2.796-2.178 3.258-.042.461-.675 1.438-1.407 2.17-.732.731-1.098 1.706-.815 2.164s.057.987-.503 1.174-1.305 4.05-1.655 8.585l-.635 8.246-7.602.024c-4.181.013-11.436.289-16.121.614-8.307.574-17.544-1.802-18.814-4.841-.184-.438-1.196-.797-2.25-.797s-1.917-.45-1.917-1-.632-1-1.405-1c-1.666 0-9.948-4.17-10.428-5.25-.184-.413-1.196-.75-2.25-.75s-1.917-.45-1.917-1c0-.564-2.833-1-6.5-1s-6.5.436-6.5 1c0 .55-.513 1-1.14 1-3.505 0-3.796 2.89-3.827 38l-.031 34.5 2.527 2.938c4.536 5.274 11.315 4.426 26.802-3.353 6.968-3.5 12.669-6.751 12.669-7.224 0-.474.337-.787.75-.697s1.875-.115 3.25-.456c3.436-.852 32.712-1.504 33.923-.755.608.375 1.096 17.66 1.287 45.576.182 26.559.702 45.585 1.271 46.471.529.825 1.058 2.13 1.174 2.9.117.77.73 1.72 1.364 2.112.633.391 1.141 1.111 1.128 1.6-.043 1.669 4.348 6.149 8.353 8.52 4.469 2.645-1.809 2.448 87.405 2.746 35.219.118 36.351.182 34.748 1.953-.912 1.007-1.319 2.204-.905 2.66.414.457.25.543-.364.193-1.352-.771-4.701 2.666-3.636 3.73.414.414.241.603-.384.419-.624-.183-5.421 3.795-10.659 8.841s-9.712 8.986-9.942 8.756-2.633 1.705-5.34 4.299c-2.708 2.594-5.078 4.57-5.267 4.392-.19-.179-2.294 1.479-4.677 3.684s-4.506 3.835-4.718 3.622c-.213-.212-2.047 1.179-4.076 3.093s-4.08 3.48-4.558 3.48C398.61 644 382 660.964 382 662.514c0 .817-.34 1.486-.757 1.486-.416 0-1.316 1.793-2 3.984-1.595 5.112-1.808 94.549-.227 95.526.559.346.767 1.031.463 1.524-.7 1.132 7.287 8.966 9.142 8.966.758 0 1.379.45 1.379 1s.873 1 1.941 1 2.219.45 2.559 1 2.193 1 4.118 1 3.247.41 2.937.911c-.805 1.302 9.847 2.253 24.945 2.228 16.371-.028 29.5-1.014 29.5-2.215 0-.508 2.4-.924 5.333-.924s5.651-.317 6.038-.704c.388-.388 1.925-.837 3.417-.999 2.662-.288 7.696-1.517 13.783-3.365 1.689-.512 4.052-.932 5.25-.932s2.179-.382 2.179-.848 1.412-.888 3.137-.937 3.615-.567 4.2-1.152S501.36 768 502.533 768s2.451-.317 2.838-.704c.388-.388 1.917-.867 3.398-1.066 1.481-.198 2.927-.669 3.212-1.045.286-.377 1.644-.844 3.019-1.038s2.725-.646 3-1.004c.275-.357 1.85-.806 3.5-.997s3.45-.628 4-.971c.55-.344 2.117-.778 3.481-.965 1.365-.187 2.715-.65 3-1.029s1.869-.845 3.519-1.036 3.758-.753 4.684-1.247 2.614-.898 3.75-.898 2.066-.354 2.066-.787.82-.849 1.823-.925c1.003-.075 5.84-1.336 10.75-2.801s10.615-2.892 12.677-3.169l3.75-.504.183 25.343c.101 13.939.244 26.918.317 28.843s.216 7.513.317 12.417.462 8.638.802 8.297c.341-.34 1.277.039 2.081.843s1.875 1.206 2.381.893.919-.091.919.491 1.313 1.059 2.917 1.059 3.066.422 3.25.939c.183.516 1.458 1.123 2.833 1.348s3.625.875 5 1.442 3.3.884 4.277.703c.977-.18 1.513.099 1.191.62-.322.522.566 1.004 1.973 1.073s2.896.218 3.309.332l3.25.891c9.95 2.727 51.612 2.57 55.468-.209.568-.409 2.607-.877 4.532-1.041s3.725-.601 4-.97 2.075-.819 4-1 3.725-.623 4-.982 1.85-.809 3.5-1 3.45-.626 4-.968 1.89-.759 2.979-.928c1.088-.169 2.415-.744 2.95-1.279.534-.534 1.781-.971 2.771-.971s1.8-.477 1.8-1.059.37-.831.822-.551 2.078-.144 3.614-.941 3.416-1.449 4.178-1.449 1.386-.477 1.386-1.059.414-.803.919-.491 1.529.002 2.274-.691c.745-.692 2.015-1.408 2.821-1.589.807-.182 1.696-.632 1.977-1 .28-.369 1.184-.816 2.009-.995s1.651-.744 1.835-1.256c.185-.512.696-.709 1.137-.436s1.357-.175 2.037-.994 1.789-1.489 2.465-1.489 2.606-1.315 4.288-2.923 3.26-2.722 3.506-2.476c.761.761 12.732-11.597 12.732-13.143 0-.802.45-1.458 1-1.458s1-.81 1-1.8.563-2.364 1.25-3.054c.974-.977 1.188-12.025.971-49.95-.272-47.387-.336-48.81-2.407-52.946-1.171-2.337-2.534-4.25-3.03-4.25s-.657-.397-.357-.882c.712-1.152-8.393-10.257-9.545-9.545-.485.3-.882.145-.882-.345s-1.237-1.529-2.75-2.309-3.349-1.986-4.081-2.678c-.731-.693-1.706-1.027-2.164-.744-.459.284-.985.096-1.17-.416s-.999-1.077-1.811-1.256-2.086-.892-2.831-1.584-1.768-1.004-2.274-.691c-.505.312-.919.091-.919-.491s-.81-1.059-1.8-1.059-2.237-.437-2.771-.971c-.535-.535-1.862-1.142-2.95-1.35s-2.654-.608-3.479-.888c-5.846-1.983-8.92-2.761-11.75-2.973-1.788-.134-3.25-.552-3.25-.93s-1.913-.94-4.25-1.25c-13.962-1.852-16.361-2.254-17.414-2.917-1.767-1.112-58.293-.999-59.664.12-.645.526-4.094.993-7.665 1.038-3.572.045-6.647.541-6.834 1.101-.187.561-2.751 1.02-5.697 1.02s-5.636.45-5.976 1-2.391 1-4.559 1-3.941.393-3.941.873-2.102.916-4.671.967c-2.568.052-4.931.461-5.25.91s-1.254.815-2.079.813c-2.73-.007-14 2.698-14 3.361 0 .358-1.412.758-3.138.89-1.726.131-3.639.552-4.25.934-.612.383-1.787.792-2.612.91-1.498.213-8.163 2.1-11 3.114-.825.294-2.617.721-3.981.947-1.365.226-2.715.72-3 1.096s-1.869.828-3.519 1.003-3.427.737-3.95 1.25c-.522.513-2.21.932-3.75.932s-2.8.375-2.8.833c0 .459-.562.841-1.25.849s-2.712.345-4.5.747c-1.788.401-3.25.506-3.25.233s5.4-6.008 12.001-12.745 11.807-12.443 11.57-12.679 1.575-2.436 4.026-4.887 4.186-4.894 3.855-5.429c-.33-.534-.23-.848.224-.697.453.151.934-.064 1.069-.479s1.598-2.169 3.25-3.899c1.653-1.729 3.005-3.752 3.005-4.495s.374-1.352.831-1.352 1.47-1.231 2.25-2.736 2.319-3.791 3.419-5.08 1.988-2.646 1.974-3.014c-.014-.369.757-1.57 1.713-2.67s1.843-2.45 1.97-3 1.044-1.872 2.037-2.939S554 602.226 554 601.74s.679-1.562 1.509-2.392 1.262-1.91.959-2.399c-1.003-1.624 3.798-1.982 30.532-2.279 25.451-.282 26.655-.384 30.424-2.563 4.66-2.694 9.796-7.942 9.013-9.209-.305-.494-.078-.898.504-.898s1.059-.863 1.059-1.917.554-2.101 1.23-2.326c.919-.307 1.285-6.422 1.448-24.198.119-13.083.393-23.963.608-24.179.7-.699 50.708-.901 50.965-.205.137.371.906.821 1.71 1s2.351 1.113 3.439 2.075c1.087.962 2.53 1.75 3.205 1.75s1.378.416 1.562.925c.183.509.997 1.071 1.809 1.25s2.086.892 2.831 1.584 1.768 1.004 2.274.691c.505-.312.919-.168.919.322s1.237 1.528 2.75 2.307c1.513.78 2.979 1.72 3.259 2.089.281.37 1.17.82 1.977 1.002.806.181 2.076.897 2.821 1.589.745.693 1.768 1.004 2.274.691.505-.312.919-.168.919.322s1.237 1.529 2.75 2.309 3.349 1.986 4.081 2.678c.731.693 1.744 1.004 2.25.691.505-.312.919-.168.919.322s1.237 1.529 2.75 2.309 3.349 1.986 4.081 2.678c.731.693 1.744 1.004 2.25.691.505-.312.919-.162.919.334s2.138 1.979 4.75 3.295c2.612 1.317 4.979 2.702 5.259 3.077.281.376 1.163.832 1.961 1.014.799.181 2.342 1.118 3.43 2.08 1.087.962 2.991 1.75 4.23 1.75 1.238 0 2.53.45 2.87 1 .348.563 5.177 1 11.059 1 6.294 0 10.441-.397 10.441-1 0-.55.695-1 1.545-1s2.716-1.171 4.147-2.601l2.601-2.601-.005-81.003c-.003-46.267-.387-81.279-.897-81.649-.49-.355-1.04-1.321-1.222-2.146-.446-2.026-2.714-3.256-8.669-4.701-5.515-1.339-15.765-1.7-16.871-.595-.388.388-1.925.866-3.417 1.062s-2.863.782-3.047 1.302c-.185.519-.711.713-1.17.429-.458-.283-1.433.051-2.164.744-.732.692-2.568 1.898-4.081 2.678s-2.75 1.819-2.75 2.309-.414.634-.919.322c-.506-.313-1.529-.002-2.274.691-.745.692-2.015 1.408-2.821 1.589-.807.182-1.696.632-1.977 1.002-.28.369-1.746 1.309-3.259 2.089-1.513.779-2.75 1.817-2.75 2.307s-.414.634-.919.322c-.506-.313-1.529-.002-2.274.691-.745.692-2.015 1.408-2.821 1.589-.807.182-1.696.632-1.977 1.002-.28.369-1.746 1.309-3.259 2.089-1.513.779-2.75 1.817-2.75 2.307s-.414.634-.919.322c-.506-.313-1.519.001-2.25.697-.732.695-3.469 2.345-6.081 3.666s-4.75 2.807-4.75 3.303-.414.646-.919.334c-.506-.313-1.519-.002-2.25.691-.732.692-2.568 1.898-4.081 2.678s-2.75 1.819-2.75 2.309-.414.634-.919.322c-.506-.313-1.519.004-2.25.702-3.493 3.336-6.928 3.748-31.271 3.748-28.075 0-25.56 1.139-25.56-11.582 0-4.945-.413-8.418-1-8.418-.55 0-1-.9-1-2s-.477-2-1.059-2-.797-.424-.476-.943c.819-1.326-6.34-8.252-7.677-7.426-.62.383-.815.222-.448-.372.357-.577-.052-1.318-.909-1.647s-1.295-1.023-.975-1.542c.764-1.235 6.473-4.07 8.198-4.07.74 0 1.346-.45 1.346-1s.9-1 2-1 2-.45 2-1 .59-1 1.311-1c.722 0 2.249-.873 3.394-1.94s2.271-1.751 2.502-1.52 2.04-1.109 4.021-2.978c1.982-1.869 3.799-3.202 4.039-2.962.587.587 18.733-17.523 18.733-18.696 0-.507 1.35-2.335 3-4.061 1.65-1.727 3-3.748 3-4.491 0-.744.385-1.352.855-1.352.953 0 9.139-15.756 9.515-18.314.131-.895.552-1.941.934-2.324.383-.382.696-1.745.696-3.029s.45-2.333 1-2.333 1-1.8 1-4 .45-4 1-4c.554 0 1-2.647 1-5.941 0-3.268.45-6.219 1-6.559.568-.351 1-5.324 1-11.5s-.432-11.149-1-11.5c-.55-.34-1-2.841-1-5.559s-.45-4.941-1-4.941-1-1.8-1-4-.45-4-1-4-1-1.35-1-3-.45-3-1-3-1-1.35-1-3-.45-3-1-3-1-.9-1-2-.477-2-1.059-2-.803-.414-.491-.919.002-1.529-.691-2.274c-.692-.745-1.408-2.015-1.589-2.821-.182-.807-.783-1.747-1.336-2.088-.552-.342-.983-1.021-.956-1.51.026-.488-.735-1.788-1.691-2.888s-1.856-2.45-2-3-1.144-2.016-2.224-3.258S664 230.614 664 230.16c0-1.106-16.183-17.31-16.736-16.758-.238.239-2.306-1.329-4.593-3.484S637.983 206 637.339 206s-1.322-.416-1.506-.925-.997-1.071-1.809-1.25-2.086-.892-2.831-1.584-1.837-.961-2.428-.596c-.598.37-.787.199-.425-.386.779-1.26-2.076-2.54-3.585-1.608-.627.388-.771.184-.35-.496.632-1.024-1.199-1.661-3.655-1.273-.413.065-.75-.332-.75-.882s-.81-1-1.8-1-2.237-.437-2.771-.971c-.535-.535-1.862-1.11-2.95-1.279s-2.461-.609-3.049-.977-2.269-.886-3.734-1.152-3.037-.714-3.494-.996-2.939-.623-5.516-.756c-2.577-.134-4.686-.609-4.686-1.056s-7.65-.813-17-.813c-10.667 0-17 .373-17 1 0 .55-2.25 1-5 1s-5 .45-5 1-1.5 1-3.333 1-3.645.312-4.026.692c-.381.381-1.684.844-2.895 1.029s-2.64.773-3.175 1.308c-.534.534-1.781.971-2.771.971s-1.8.477-1.8 1.059-.414.803-.919.491-1.529-.002-2.274.691c-.745.692-2.019 1.405-2.831 1.584s-1.627.744-1.811 1.256c-.185.512-.711.7-1.17.416-.458-.283-1.443.051-2.188.744-.745.692-2.019 1.405-2.831 1.584s-1.626.741-1.809 1.25-.861.925-1.506.925c-.644 0-3.044 1.763-5.332 3.918s-4.355 3.723-4.593 3.484c-.558-.558-16.736 15.658-16.736 16.775 0 .463-1.35 2.254-3 3.98-1.65 1.727-3 3.555-3 4.063s-.679 1.602-1.509 2.432-1.254 1.923-.941 2.429c.312.505.162.919-.334.919-1.081 0-5.549 8.433-5.549 10.474 0 .791-.375 1.206-.834.923-.714-.442-1.047 1.001-.748 3.241.047.351-.4.939-.995 1.306-.594.368-1.181 1.88-1.303 3.362-.303 3.652-2.993 3.816-3.542.215-.166-1.088-.739-2.415-1.274-2.95-.534-.534-.971-1.781-.971-2.771s-.477-1.8-1.059-1.8-.803-.414-.491-.919.002-1.529-.691-2.274c-.692-.745-1.405-2.019-1.584-2.831s-.744-1.627-1.256-1.811c-.512-.185-.7-.711-.416-1.17.283-.458-.051-1.433-.744-2.164-.692-.732-1.898-2.569-2.678-4.081s-1.819-2.75-2.309-2.75-.657-.376-.373-.836-1.144-2.598-3.175-4.75-3.699-4.139-3.708-4.414-.387-.376-.84-.225c-.454.151-.568-.14-.255-.647.721-1.167-10.435-12.238-11.604-11.515-.477.295-.743.097-.592-.439s-.175-1.126-.725-1.312-2.536-1.787-4.414-3.558-3.708-3.038-4.068-2.815-1.285-.472-2.057-1.543c-.771-1.07-2.01-1.946-2.753-1.946s-2.03-.679-2.86-1.509-1.923-1.254-2.429-.941c-.505.312-.919.091-.919-.491s-.707-1.059-1.571-1.059c-.865 0-2.251-.679-3.081-1.509s-1.923-1.254-2.429-.941c-.505.312-.919.091-.919-.491s-.873-1.059-1.941-1.059-2.219-.45-2.559-1-1.498-1-2.573-1-2.736-.395-3.691-.877c-3.163-1.598-8.838-3.123-11.623-3.123-1.509 0-3.502-.388-4.429-.863-2.138-1.095-15.095-1.765-26.434-1.367m-7.525 9.373c-.399.381-2.525.822-4.725.98s-4.675.601-5.5.984c-2.428 1.13-9.916 3.226-11.52 3.226-.814 0-1.48.375-1.48.834s-.632.833-1.405.833c-1.667 0-9.526 3.962-11.426 5.759-.731.693-1.744 1.004-2.25.691-.505-.312-.919-.168-.919.322s-1.238 1.529-2.75 2.309-3.792 2.44-5.065 3.688-2.805 1.966-3.404 1.596c-.652-.404-.803-.21-.376.48.392.635.228 1.155-.365 1.155-1.057 0-14.54 12.965-14.54 13.981 0 .286-.371.395-.824.244-.454-.151-.59.105-.304.568.287.464-.467 1.937-1.676 3.275s-2.835 3.67-3.615 5.182-1.819 2.75-2.309 2.75-.634.414-.322.919c.313.506-.111 1.599-.941 2.429S264 251.564 264 252.429s-.337 1.575-.75 1.579c-.898.009-3.25 4.852-3.25 6.691 0 .716-.352 1.301-.782 1.301s-.882 1.212-1.005 2.694-.568 2.944-.989 3.25-.915 2.131-1.096 4.056-.621 3.725-.978 4c-.358.275-.8 2.749-.983 5.498s-.707 5.448-1.164 6c-1.079 1.302-1.084 19.695-.005 21.002.453.55.94 3.25 1.081 6s.587 5.45.991 6c.405.55.89 2.35 1.079 4s.637 3.225.994 3.5c.358.275.81 1.625 1.004 3s.688 2.75 1.098 3.056.843 1.736.962 3.178c.12 1.442.572 2.403 1.005 2.135.715-.442 1.238 1.905.882 3.955-.079.454.222.599.669.322s1.443.928 2.213 2.676c.771 1.748 1.995 3.777 2.722 4.509.726.731 1.022 1.813.657 2.404-.394.637-.194.783.49.36.635-.392 1.155-.217 1.155.39 0 .606 1.101 2.29 2.446 3.741s2.314 2.894 2.153 3.206c-.308.594 16.492 17.568 17.388 17.568.282 0 .389.371.238.824-.151.454.158.558.686.231.528-.326 2.022.428 3.32 1.676s3.01 2.418 3.805 2.599 1.674.668 1.955 1.08c.28.413 1.939 1.372 3.687 2.132s2.916 1.806 2.595 2.325c-.32.518-.12.657.444.308s3.221.48 5.904 1.841c2.684 1.362 5.64 2.478 6.57 2.48s1.969.454 2.309 1.004 1.626 1 2.859 1 2.781.54 3.441 1.2 1.2.937 1.2.616 3.262.056 7.25.838c9.578 1.878 30.473 1.872 38.5-.011 3.438-.806 6.25-1.225 6.25-.932s.563.11 1.25-.408c.688-.519 3.275-1.524 5.75-2.235 5.079-1.458 20.778-8.906 22.821-10.827.737-.693 1.823-.961 2.414-.596.637.394.783.194.36-.49-.392-.635-.24-1.155.338-1.155s2.216-1.012 3.64-2.25 2.78-2.134 3.015-1.992c.589.355 15.411-14.539 15.417-15.492.002-.421 1.352-2.204 3-3.962 1.647-1.757 2.995-3.585 2.995-4.061s.8-1.738 1.779-2.804c2.111-2.302 7.512-13.099 7.962-15.918.174-1.088.753-2.415 1.288-2.95.534-.534.971-1.916.971-3.071s.381-2.528.846-3.05c3.233-3.629 4.878-35.953 2.339-45.963-.699-2.758-1.438-6.133-1.643-7.5-.205-1.368-.685-3.487-1.066-4.708-.382-1.222-.607-2.522-.5-2.889.107-.366-.181-.942-.641-1.278-.754-.553-3.122-6.153-3.631-8.588-.112-.537-.771-1.586-1.463-2.331s-1.004-1.768-.691-2.274c.312-.505.168-.919-.322-.919s-1.509-1.238-2.266-2.75-2.027-3.537-2.824-4.5-1.154-1.75-.795-1.75-1.146-1.91-3.345-4.245-3.998-4.596-3.998-5.026c0-1.019-8.71-9.729-9.729-9.729-.43 0-2.614-1.687-4.853-3.75s-4.712-3.896-5.495-4.075c-.782-.179-1.573-.741-1.756-1.25s-.998-.925-1.809-.925c-.861 0-1.179-.481-.763-1.155.423-.684.277-.884-.36-.49-.591.365-1.683.097-2.428-.596-.745-.692-2.015-1.408-2.821-1.589-.807-.182-1.696-.632-1.977-1-.28-.369-1.184-.816-2.009-.995s-1.651-.744-1.835-1.256c-.185-.512-.711-.7-1.17-.416-.458.283-1.433-.051-2.164-.744-.732-.692-2.456-1.418-3.831-1.612s-2.725-.654-3-1.022c-.275-.367-2.075-.816-4-.997s-3.725-.621-4-.978c-.275-.358-.95-.66-1.5-.672s-5.275-.593-10.5-1.29c-9.631-1.286-27.447-1.314-28.775-.045m218.203-.026c-.301.486-2.518.883-4.928.883s-4.66.45-5 1-2.166 1-4.059 1-3.441.45-3.441 1-.624 1-1.386 1-2.642.652-4.178 1.449-3.162 1.22-3.614.941c-.452-.28-.822-.031-.822.551s-.862 1.059-1.917 1.059c-1.054 0-2.066.416-2.25.925-.183.509-1.008 1.071-1.833 1.25s-1.729.626-2.009.995c-.281.368-1.149.818-1.93 1-.782.181-2.425 1.164-3.652 2.183s-2.608 1.913-3.07 1.988-2.386 1.594-4.276 3.377-3.619 3.059-3.842 2.836c-.515-.515-13.219 12.143-13.226 13.177-.002.423-1.27 2.119-2.817 3.769-1.546 1.65-2.848 3.378-2.892 3.839-.044.462-.914 1.843-1.933 3.07s-1.999 2.874-2.178 3.661-.741 1.58-1.25 1.763c-.509.184-.925 1.196-.925 2.25s-.45 1.917-1 1.917-1 .9-1 2-.45 2-1 2-1 .9-1 2-.352 2-.782 2-.882 1.212-1.005 2.694-.558 2.944-.968 3.25-.901 2.131-1.092 4.056-.641 3.725-1 4c-2.328 1.783-2.166 39.378.194 45 .346.825.747 2.625.891 4s.597 2.75 1.007 3.056.846 1.768.968 3.25c.123 1.482.575 2.694 1.005 2.694s.782.612.782 1.36c0 1.456 6.036 13.8 7.164 14.649.371.281.824 1.16 1.006 1.955.181.795 1.351 2.507 2.599 3.805s2.002 2.792 1.676 3.32c-.327.528-.223.837.231.686.453-.151 1.049.163 1.324.699.771 1.504 15.057 15.525 15.823 15.531.372.002 2.115 1.352 3.873 3 1.757 1.647 3.585 2.995 4.061 2.995s1.738.804 2.804 1.787c1.758 1.621 9.736 5.706 18.189 9.314 1.788.763 3.251 1.615 3.252 1.893s1.4.604 3.109.724 3.621.587 4.248 1.038 2.491.959 4.141 1.129 3.45.674 4 1.121c1.835 1.489 32.537 1.196 39.274-.376 3.424-.799 6.226-1.212 6.226-.919 0 .294.626.015 1.391-.62.764-.635 2.789-1.253 4.498-1.373s3.108-.555 3.109-.968.663-.75 1.472-.75 3.022-.872 4.919-1.938 4.274-2.078 5.28-2.25c1.007-.171 2.703-1.1 3.77-2.062 1.066-.962 2.528-1.75 3.25-1.75.721 0 1.311-.374 1.311-.831s1.237-1.47 2.75-2.25 4.1-2.654 5.75-4.164 3.346-2.748 3.769-2.75c1.002-.006 13.73-12.734 13.736-13.736.002-.423 1.352-2.207 3-3.965 1.647-1.757 2.995-3.696 2.995-4.309 0-.612.52-.792 1.155-.4.684.423.884.277.49-.36-.365-.591-.097-1.673.596-2.404 1.797-1.9 5.759-9.759 5.759-11.426 0-.773.477-1.405 1.059-1.405s.803-.414.491-.919-.002-1.519.691-2.25c.692-.732 1.418-2.456 1.612-3.831s.646-2.725 1.004-3c.357-.275.806-1.85.997-3.5s.626-3.45.967-4c1.015-1.638 1.237-5.211 1.332-21.5.086-14.819-.171-18.661-1.473-22-.322-.825-.809-2.85-1.082-4.5-.701-4.236-1.759-7.831-2.647-9-.419-.55-.916-1.9-1.106-3s-.912-2.599-1.604-3.331-1.027-1.706-.744-2.164c.284-.459.096-.985-.416-1.17s-1.077-.999-1.256-1.811-.892-2.086-1.584-2.831-.961-1.837-.596-2.428c.394-.637.194-.783-.49-.36-.635.392-1.155.204-1.155-.417 0-.622-.679-1.81-1.509-2.64s-1.211-1.992-.846-2.583c.394-.637.194-.783-.49-.36-.635.392-1.155.204-1.155-.417 0-.622-.679-1.81-1.509-2.64s-1.247-1.934-.926-2.453c.321-.52.145-.821-.391-.67s-1.015-.067-1.064-.485c-.155-1.305-10.556-11.479-11.61-11.356-.55.064-.888-.446-.75-1.134.137-.687-.143-1.137-.624-1-.481.138-2.394-1.1-4.25-2.75-1.857-1.65-4.613-3.639-6.126-4.419s-2.75-1.819-2.75-2.309-.414-.634-.919-.322c-.506.313-1.599-.111-2.429-.941S624.436 208 623.571 208s-1.571-.45-1.571-1-.9-1-2-1-2-.477-2-1.059-.414-.803-.919-.491-1.519.002-2.25-.691c-.732-.692-2.456-1.418-3.831-1.612s-2.725-.646-3-1.004c-.275-.357-1.85-.805-3.5-.994s-3.45-.67-4-1.07-3.025-.848-5.499-.997c-2.475-.149-4.725-.605-5-1.014-.715-1.06-29.917-1.013-30.573.049M352 210.782c0 .43-1.212.882-2.694 1.005s-2.944.558-3.25.968-1.231.891-2.056 1.07-1.65.741-1.833 1.25-.834.925-1.446.925c-1.579 0-6.721 5.116-6.721 6.687 0 .722-.45 1.313-1 1.313s-1 .81-1 1.8-.542 2.342-1.204 3.004c-1.401 1.401-1.551 18.056-.172 19.059.482.35 1.022 1.312 1.201 2.137s.741 1.65 1.25 1.833.925.883.925 1.554 1.575 2.747 3.5 4.613 3.5 3.062 3.5 2.657.985.183 2.189 1.304c1.203 1.121 2.778 2.095 3.5 2.164 2.69.256 3.162.393 3.894 1.125 1.935 1.934 17.417-.335 17.417-2.552 0-.449.414-.56.919-.248s1.599-.111 2.429-.941 1.913-1.509 2.406-1.509 1.954-1.125 3.246-2.5 2.028-2.5 1.635-2.5c-.392 0 .205-.985 1.326-2.189 1.121-1.203 2.039-3.191 2.039-4.416s.488-2.391 1.085-2.59c1.548-.516 1.507-14.821-.046-15.781-.665-.411-1.171-1.035-1.124-1.386.293-2.196-.117-3.491-1.665-5.254-.962-1.096-2.23-2.839-2.817-3.872s-1.918-2.358-2.958-2.945-2.508-1.634-3.263-2.326-1.787-1.004-2.293-.691c-.505.312-.919.091-.919-.491S366.677 212 365.059 212s-3.219-.45-3.559-1c-.723-1.17-9.5-1.372-9.5-.218m218.558.124c-.372.602-2.14 1.094-3.928 1.094-1.891 0-4.169.854-5.441 2.039-1.204 1.121-2.189 1.708-2.189 1.304 0-.405-1.575.791-3.5 2.657s-3.5 3.786-3.5 4.268-.679 1.554-1.509 2.384-1.254 1.923-.941 2.429c.312.505.091.919-.491.919-1.377 0-1.434 18.65-.059 19.5.55.34 1 1.491 1 2.559s.45 1.941 1 1.941 1 .587 1 1.304 1.575 2.83 3.5 4.696 3.5 3.079 3.5 2.696.9.204 2 1.304 2.675 2.056 3.5 2.125c2.824.235 3.334.376 4.083 1.125 2.284 2.284 20.266-1.317 21.25-4.255.184-.547.893-.995 1.576-.995s2.299-1.125 3.591-2.5 2.028-2.5 1.635-2.5c-.392 0 .205-.985 1.326-2.189 1.828-1.962 2.505-3.862 2.157-6.061-.065-.412.332-.75.882-.75.583 0 1-3.333 1-8s-.417-8-1-8c-.55 0-.947-.338-.882-.75.333-2.109-.291-4.07-1.868-5.866-.962-1.096-2.249-2.869-2.859-3.939s-1.295-1.72-1.523-1.445-1.502-.512-2.83-1.75-3.005-2.25-3.727-2.25c-.721 0-1.311-.401-1.311-.891 0-.833-2.208-1.377-11.133-2.741-2.145-.328-3.91-.108-4.309.538m-219.156 8.563c-1.704.569-3.841 1.651-4.75 2.405s-1.652 1.059-1.652.677-.675-.019-1.5.806-1.5 2.009-1.5 2.631-.52.809-1.155.417c-.684-.423-.884-.277-.49.36.365.591.032 1.706-.741 2.478-.95.95-1.403 3.778-1.403 8.757s.453 7.807 1.403 8.757c.773.772 1.235 1.705 1.027 2.074s.688 1.697 1.991 2.954c1.302 1.257 2.368 1.975 2.368 1.595 0-.379.788-.006 1.75.831 4.003 3.478 12.428 3.839 18.401.789 2.008-1.026 3.958-1.558 4.333-1.182.376.375.533.007.349-.818-.184-.83.258-1.377.991-1.225.729.151 1.059-.156.734-.681a1.125 1.125 0 0 1 .362-1.545c4.44-2.744 5.441-15.264 1.665-20.828-1.328-1.957-2.115-3.857-1.75-4.223s-.01-.515-.835-.331c-.83.184-1.377-.258-1.225-.991.151-.729-.136-1.071-.637-.761s-1.467-.107-2.147-.926S364.91 220 363.878 220s-1.878-.354-1.878-.786c0-1.129-6.951-.962-10.598.255m218.048-.553c-.522.504-1.843 1.067-2.934 1.25-2.191.369-8.45 5.942-7.866 7.003.203.369-.332 1.37-1.188 2.227-1.99 1.989-2.187 14.391-.281 17.701 2.607 4.53 8.16 8.903 11.305 8.903.833 0 1.514.337 1.513.75-.001.929 6.474.746 10.452-.295 9.55-2.5 16.694-17.728 12.166-25.932-4.714-8.539-18.952-15.672-23.167-11.607m-280.2 46.846c-2.887.188-5.25.796-5.25 1.349 0 .554-.414.751-.919.439-.506-.313-1.615.127-2.465.977-.849.849-1.818 1.49-2.152 1.423-2.408-.483-10.095 9.551-10.787 14.081-.16 1.055-.604 2.229-.985 2.61-.907.908-.897 9.82.012 10.73.388.388.866 1.925 1.062 3.417s.779 2.862 1.295 3.045c.517.184.939.936.939 1.671 0 1.741 8.755 10.496 10.496 10.496.735 0 1.487.446 1.671.991.183.546 1.571 1.094 3.083 1.218 1.512.125 2.75.579 2.75 1.009 0 .967 10.402 1.046 11.362.086.383-.382 1.393-.798 2.245-.923 4.783-.702 14.393-7.99 14.393-10.916 0-.714.416-1.448.925-1.632s1.071-1.008 1.25-1.833.775-1.821 1.325-2.214c2.118-1.512 1.131-16.171-1.424-21.138-1.315-2.556-2.77-4.648-3.233-4.648s-.843-.717-.843-1.594c0-.876-.9-1.829-2-2.116s-2-.85-2-1.249c0-1.261-8.35-4.94-12-5.288-1.925-.184-5.863-.18-8.75.009m215-.006c-1.238.211-2.25.828-2.25 1.373 0 .544-.414.733-.919.421-.506-.313-1.599.111-2.429.941s-1.9 1.509-2.378 1.509c-3.076 0-10.83 11.553-10.492 15.634.118 1.427-.216 2.216-.789 1.862-.612-.379-.993 1.518-.993 4.945 0 3.057.352 5.559.782 5.559s.884 1.238 1.009 2.75.675 2.901 1.224 3.085.761.718.472 1.186.581 1.956 1.933 3.308c1.352 1.353 2.186 2.732 1.853 3.065-.334.333.144.606 1.06.606.917 0 1.667.374 1.667.831s1.238 1.469 2.75 2.248 2.983 1.727 3.269 2.104c.285.378 1.731.849 3.212 1.047 1.481.199 3.01.678 3.398 1.066.942.941 9.838.904 10.788-.046.732-.732 1.204-.869 3.894-1.125.722-.069 2.297-1.043 3.5-2.164 1.204-1.121 2.189-1.708 2.189-1.304 0 .405 1.575-.791 3.5-2.657s3.5-3.942 3.5-4.613.416-1.37.925-1.554 1.071-1.008 1.25-1.833.628-1.73.997-2.011c.37-.281.743-3.431.829-7 .247-10.224.078-12.156-1.001-11.489-.561.346-1-.437-1-1.782 0-2.852-7.007-10.633-12.204-13.552-3.458-1.942-14.378-3.288-19.546-2.41m127.493.069c-2.759.722-9.743 4.544-9.743 5.332 0 .464-.492.73-1.093.593s-1.614.624-2.25 1.691-2.178 3.009-3.426 4.315c-1.248 1.305-2.033 2.756-1.744 3.223s.019 1.019-.6 1.225c-1.601.534-1.528 18.782.079 19.775.663.41 1.166 1.032 1.119 1.383-.316 2.364.29 3.657 3.21 6.845 3.295 3.597 9.323 7.527 12.512 8.158.931.184 2.479.675 3.439 1.09 3.231 1.399 12.944-.481 18.511-3.582 9.145-5.094 13.253-13.346 12.805-25.722-.146-4.043-.67-7.643-1.164-8s-1.044-1.326-1.223-2.151-.741-1.65-1.25-1.833-.925-.834-.925-1.446c0-1.534-5.096-6.721-6.604-6.721-.676 0-1.379-.416-1.563-.925s-1.008-1.071-1.833-1.25-1.781-.71-2.125-1.182c-.602-.825-13.588-1.483-16.132-.818m-223.493 2.336c-2.337 1.133-4.25 2.461-4.25 2.95s-.75.889-1.667.889c-.916 0-1.374.292-1.017.649.356.357-.414 1.594-1.712 2.75-4.037 3.593-5.837 8.886-5.804 17.063.017 4.1.394 8.037.837 8.747.444.71.907 1.958 1.03 2.773s.699 1.64 1.279 1.833c.579.193 1.054.898 1.054 1.565 0 1.523 6.663 7.814 10 9.442 4.869 2.375 18 4.191 18 2.489 0-.481 1.212-.975 2.694-1.098 1.482-.122 2.944-.558 3.25-.968s1.136-.863 1.845-1.008c1.677-.342 10.106-8.771 10.448-10.448.145-.709.644-1.568 1.111-1.908.466-.341.916-1.803 1-3.25.083-1.446.489-2.63.902-2.63.945-.001.995-10.423.054-11.363-.382-.383-.798-1.393-.923-2.245-.64-4.362-9.403-16.183-10.67-14.393-.195.275-1.145-.292-2.113-1.259-.968-.968-2.173-1.504-2.679-1.191s-.919.091-.919-.491c0-2.057-17.013-1.196-21.75 1.102m-123.691 7.114c-3.056 1.928-6.559 5.527-6.559 6.739 0 .607-.357.884-.792.614-.436-.269-.864.458-.951 1.616-.088 1.158-.686 3.377-1.329 4.931-.894 2.157-.894 3.493 0 5.65.643 1.554 1.241 3.773 1.329 4.931s.515 1.885.951 1.616c.435-.27.792.002.792.602 0 1.686 6.282 7.485 8.513 7.86 1.093.183 2.415.746 2.937 1.25 1.869 1.802 5.581 1.129 13.55-2.459 2.979-1.341 6.37-4.648 6.83-6.661.182-.795.698-1.674 1.147-1.955.449-.28.816-3.842.815-7.916-.002-6.38-.327-7.758-2.344-9.932-1.287-1.389-2.071-2.963-1.74-3.498.331-.534.163-.702-.371-.371-.535.331-2.082-.428-3.439-1.686-2.88-2.67-15.806-3.56-19.339-1.331m123.941 3.116c-2.2 2.279-4.593 5.191-5.317 6.471-1.667 2.944-1.31 14.144.509 15.969.729.731 1.157 1.631.949 2-.208.368.688 1.697 1.991 2.954 1.302 1.257 2.368 1.975 2.368 1.595 0-.379.788-.058 1.75.715 5.279 4.238 10.219 5.007 15.3 2.379 1.622-.839 2.95-1.237 2.95-.884s1.983-1.321 4.407-3.719c2.424-2.399 4.247-4.621 4.052-4.938s.295-1.833 1.092-3.369c1.63-3.141 1.921-8.675.533-10.114-.504-.522-1.067-1.843-1.25-2.934-.369-2.191-5.942-8.45-7.003-7.866-.369.203-1.298-.26-2.067-1.029-.947-.947-3.788-1.393-8.83-1.386-7.401.01-7.452.028-11.434 4.156m95.5-3.303c0 .502-.695.912-1.545.912-2.694 0-8.455 7.146-8.455 10.486 0 .833-.45 1.514-1 1.514-1.502 0-1.202 6.381.449 9.564.797 1.536 1.288 3.052 1.092 3.369-.704 1.139 8.014 8.575 10.459 8.92 1.375.194 2.74.737 3.033 1.207 1.324 2.125 13.014-1.104 16.601-4.585 6.062-5.883 6.937-22.532 1.365-25.976-.567-.35-.73-1.126-.361-1.723s.233-.815-.301-.484c-.535.331-2.106-.449-3.49-1.733-2.177-2.018-3.557-2.338-10.182-2.359-4.216-.013-7.665.386-7.665.888m125.19.533c-.72.782-1.744 1.155-2.275.827s-.841-.001-.69.728c.151.728-.287 1.211-.975 1.074s-1.25.452-1.25 1.309c0 .924-.47 1.268-1.155.846-.684-.423-.884-.277-.49.36.365.591.06 1.677-.678 2.415-1.85 1.85-2.209 14.943-.491 17.918 1.42 2.46 7.814 9.333 7.814 8.4 0-.313 1.013-.012 2.25.668 2.535 1.393 10.75 1.883 10.75.642 0-.445.681-.808 1.514-.808 3.343 0 8.998-4.584 11.403-9.246 4.056-7.862-.239-23.05-6.953-24.584-.795-.182-1.674-.695-1.955-1.141-.927-1.477-15.384-.968-16.819.592m-276.69.144c-6.511 1.207-11.666 5.249-14.94 11.715-2.229 4.404-2.586 8.29-1.66 18.081.055.584 1.018 2.047 2.139 3.25 1.121 1.204 1.718 2.189 1.326 2.189-.393 0 .343 1.125 1.635 2.5s2.908 2.5 3.591 2.5 1.401.475 1.594 1.054 1.118 1.167 2.054 1.305c.937.137 2.016.563 2.399.945 1.089 1.09 11.362.815 11.362-.304 0-.55.337-.947.75-.882 2.195.347 4.097-.327 6.042-2.139 1.193-1.111 2.515-2.124 2.939-2.25a.77.77 0 0 0 .519-.979c-.137-.412.088-.637.5-.5.413.138.75.014.75-.273s1.012-1.611 2.25-2.939c2.514-2.698 2.5-2.623 2.36-13.037-.056-4.124-.553-7.649-1.106-7.833-.552-.184-1.004-.934-1.004-1.667 0-1.419-5.305-6.875-6.413-6.596-.362.092-1.354-.529-2.203-1.378-.85-.85-1.921-1.313-2.379-1.03-.459.284-.985.066-1.17-.484-.352-1.049-7.914-1.882-11.335-1.248m220.178.043c-6.792.433-17.504 7.343-16.679 10.759.095.39-.314 1.01-.909 1.377-.594.368-1.181 1.88-1.303 3.362-.123 1.482-.575 2.694-1.005 2.694-.95 0-1.052 6.397-.117 7.332.366.366.796 1.897.957 3.402s.761 2.894 1.335 3.085 1.043.848 1.043 1.46c0 1.579 5.116 6.721 6.687 6.721.722 0 1.313.45 1.313 1s.873 1 1.941 1 2.219.45 2.559 1c.807 1.305 11.5 1.305 11.5 0 0-.55.337-.947.75-.882 2.195.347 4.097-.327 6.042-2.139 1.193-1.111 2.499-1.951 2.902-1.865s1.2-.674 1.77-1.687 1.603-2.46 2.295-3.215c.693-.755 1.027-1.749.744-2.207-.284-.459-.009-1.003.61-1.209 2.324-.775 1.845-13.341-.7-18.369-2.516-4.97-6.124-8.724-7.542-7.847-.479.296-.871.061-.871-.521s-.9-1.059-2-1.059-2-.398-2-.883c0-1.191-3.49-1.681-9.322-1.309m-225.235 11.646c-3.493 3.543-4.656 12.185-2.344 17.408 2.162 4.884 14.35 8.582 17.732 5.379.731-.692 1.813-.961 2.404-.596.637.394.783.194.36-.49-.411-.666-.111-1.155.709-1.155 2.239 0 4.922-9.774 3.774-13.75-.516-1.788-.724-3.25-.463-3.25.837 0-4.142-4.452-6.485-5.799-4.205-2.417-12.218-1.266-15.687 2.253m217.626.264c-2.925 2.965-3.357 4.068-3.425 8.748-.098 6.808 2.625 12.521 6.37 13.364.807.182 1.696.685 1.977 1.119.28.434 2.534.757 5.009.717 9.575-.155 15.878-11.07 11.762-20.369-3.64-8.22-15.229-10.132-21.693-3.579M391.537 330.94c-.366.592-1.715.885-2.999.653-3.226-.585-10.982 3.549-15.106 8.051-3.041 3.32-3.664 4.622-3.347 6.994.047.351-.434.96-1.07 1.353s-1.303 3.143-1.482 6.112c-.922 15.283 10.261 26.986 25.288 26.465 9.366-.325 9.571-.365 11.795-2.318 1.096-.962 2.839-2.23 3.872-2.817s2.358-1.937 2.945-3 1.368-2.162 1.737-2.442c.368-.281.818-1.17 1-1.977.181-.806.897-2.076 1.589-2.821.693-.745 1.023-1.737.734-2.205s-.068-1.132.491-1.478c1.169-.723 1.391-9.802.266-10.927-.732-.732-.869-1.204-1.125-3.894-.069-.722-1.043-2.297-2.164-3.5-1.121-1.204-1.712-2.189-1.313-2.189s-.552-1.334-2.114-2.964c-1.562-1.631-3.221-2.729-3.687-2.441-.466.287-.847.101-.847-.415 0-1.042-4.152-2.892-8-3.565-1.375-.24-3.242-.732-4.149-1.094-.907-.361-1.948-.173-2.314.419m72.676 1.754c-.122 1.482-.558 2.944-.968 3.25s-.873 1.231-1.029 2.056c-.514 2.72-6.496 14-7.425 14-.5 0-.653.414-.341.919.313.506-.111 1.599-.941 2.429S452 357.273 452 357.78c0 .508-1.315 2.3-2.923 3.982s-2.705 3.277-2.438 3.543c.647.648-15.66 17.015-19.282 19.352-1.571 1.014-3.829 2.677-5.017 3.696s-2.325 1.694-2.524 1.5c-.2-.194-1.45.659-2.778 1.897s-3.005 2.25-3.727 2.25c-.721 0-1.311.45-1.311 1s-.664 1-1.476 1-2.927.883-4.702 1.962l-3.225 1.962 22.451.288c37.092.476 103.694-.6 101.452-1.639-1.1-.51-2.225-1.191-2.5-1.514s-2.638-1.663-5.25-2.98-4.75-2.773-4.75-3.236-.59-.843-1.311-.843c-.722 0-2.278-.9-3.459-2-1.18-1.1-2.579-2-3.107-2-1.255 0-22.123-20.87-22.123-22.125 0-.529-1.101-2.15-2.446-3.601s-2.22-3.006-1.941-3.456c.278-.45.099-.818-.397-.818s-1.985-2.137-3.309-4.75-2.744-4.9-3.157-5.083c-.413-.184-.75-.987-.75-1.786 0-.798-.714-2.541-1.586-3.872-.873-1.332-1.32-2.852-.994-3.38.326-.527.098-1.123-.506-1.324s-1.169-1.59-1.256-3.085c-.212-3.657-3.142-3.679-3.445-.026m-149.447-.748c-2.053.304-4.603 1.305-5.665 2.222s-2.115 1.484-2.339 1.26-1.697.938-3.272 2.582c-1.575 1.645-2.537 2.99-2.138 2.99s-.192.985-1.313 2.189c-1.121 1.203-2.039 3.202-2.039 4.441s-.45 2.53-1 2.87c-1.158.716-1.366 9.801-.25 10.917.732.732.869 1.204 1.125 3.894.069.722 1.043 2.297 2.164 3.5 1.121 1.204 1.712 2.189 1.313 2.189s.552 1.334 2.114 2.964c1.562 1.631 3.183 2.753 3.602 2.494.418-.259.912-.051 1.097.461s1.01 1.077 1.835 1.256 1.764.683 2.087 1.121c1.425 1.93 17.315 1.057 21.228-1.166 4.306-2.448 8.504-6.352 8.912-8.288.15-.712.84-1.904 1.532-2.649s1.004-1.768.691-2.274c-.312-.505-.091-.919.491-.919 1.37 0 1.425-14.656.059-15.5-.55-.34-1-1.491-1-2.559s-.45-1.941-1-1.941-1-.638-1-1.419c0-1.743-5.597-7.135-9.57-9.219-3.137-1.645-11.569-2.322-17.664-1.416m217.484-.21c-1.237.222-2.25.848-2.25 1.393 0 .544-.414.733-.919.421-.506-.313-1.615.127-2.465.977-.849.849-1.898 1.573-2.33 1.609-.432.035-.674.469-.536.964s-.312.787-1 .65-1.138.313-1 1-.087 1.137-.5 1-.95.2-1.194.75-1.257 1.872-2.25 2.939-1.862 2.528-1.931 3.25c-.16 1.677-.373 2.413-1.317 4.557-.729 1.656-.373 6.889.767 11.254.287 1.1.556 2.478.598 3.061.043.584.89 1.934 1.883 3s1.938 2.389 2.1 2.939.699.887 1.194.75c.495-.138.788.242.65.843-.137.601.631 1.614 1.708 2.25s2.575 1.724 3.33 2.416c.755.693 1.749 1.027 2.207.744.459-.284 1.007.002 1.218.635.828 2.485 14.977 1.998 20.355-.701 6.921-3.473 12.179-9.704 11.55-13.687-.065-.413.332-.75.882-.75 1.326 0 1.31-14.69-.016-15.51-.559-.346-.78-1.011-.491-1.478s-.073-1.45-.805-2.181-1.373-1.701-1.423-2.152c-.204-1.802-4.988-6.57-8.765-8.734-3.895-2.231-13.182-3.297-19.25-2.209m70 .03c-1.237.205-2.25.792-2.25 1.304 0 .511-.587.93-1.305.93-.717 0-2.923 1.483-4.902 3.295-13.36 12.238-10.523 32.938 5.637 41.119 4.961 2.512 19.601 2.992 20.376.669.201-.603.74-.864 1.199-.58.458.283 1.452-.051 2.207-.744.755-.692 2.223-1.739 3.263-2.326s2.371-1.918 2.958-2.958 1.634-2.508 2.326-3.263 1.004-1.787.691-2.293c-.312-.505-.141-.919.382-.919.522 0 1.177-1.462 1.454-3.25.278-1.788.848-4.333 1.267-5.656.543-1.715.429-2.201-.395-1.691-.819.505-1.158-.767-1.158-4.344 0-2.894-.453-5.059-1.059-5.059-.582 0-.803-.415-.489-.922.651-1.054-8.563-10.868-10.606-11.296-.74-.155-1.643-.692-2.005-1.194-.665-.919-13.413-1.515-17.591-.822m-284.75 7.88c-4.76 1.087-9.5 4.252-9.5 6.342 0 .621-.355.911-.788.643s-.885.693-1.005 2.135-.552 2.872-.962 3.178c-1.992 1.487-.477 9.661 2.435 13.137.728.87.986 1.954.572 2.41s-.189.506.498.11c.795-.457 1.25-.091 1.25 1.007 0 .949.301 1.424.669 1.056s1.467.055 2.444.938c1.589 1.438 8.311 1.986 14.887 1.214 1.341-.157 8.745-6.816 7.579-6.816-.262 0 .192-1.601 1.009-3.557 1.519-3.635 1.667-11.443.216-11.443-.442 0-.804-.695-.804-1.545 0-1.773-4.362-6.455-6.014-6.455-.607 0-.872-.375-.589-.833.283-.459-.028-.842-.691-.852s-3.006-.267-5.206-.572-4.9-.348-6-.097m70.25.316c-1.512.476-2.75.664-2.75.418 0-.825-6.486 6.221-7.75 8.42-.687 1.195-1.25 4.435-1.25 7.2 0 10.042 6.375 16 17.118 16 5.909 0 6.306-.163 10.315-4.25 4.912-5.006 8.596-15.75 5.4-15.75-.458 0-.833-.845-.833-1.878s-.67-2.433-1.489-3.113-1.199-1.704-.845-2.277c.373-.604.159-.742-.511-.327-.703.434-1.155.037-1.155-1.013 0-.949-.301-1.424-.669-1.056s-1.38.032-2.25-.745c-2.022-1.807-9.761-2.753-13.331-1.629m144.083.963c-.183.509-.997 1.071-1.809 1.25-2.572.566-6.024 5.329-6.024 8.311 0 .833-.45 1.514-1 1.514-2.573 0 .087 11.699 3.08 13.549.524.324.768.896.541 1.27-.226.375.217 1.261.984 1.97s1.395.977 1.395.595c0-.381.875.098 1.944 1.065 1.824 1.651 10.937 2.521 14.906 1.424 2.196-.607 8.15-6.711 8.15-8.355 0-.835.402-1.518.894-1.518 1.274 0 1.035-11.105-.289-13.44-1.453-2.564-4.681-5.754-7.397-7.31-2.517-1.443-14.878-1.704-15.375-.325m66.576 3.42c-5.165 5.265-6.241 14.274-2.356 19.73 2.805 3.938 6.304 7.321 8.068 7.798 3.811 1.031 13.106.231 14.766-1.271.977-.883 2.114-1.268 2.527-.854s.603.077.419-.748c-.202-.909.258-1.369 1.167-1.167.825.184 1.162-.005.748-.419-.414-.413.021-1.606.966-2.65 1.204-1.331 1.715-3.6 1.706-7.582-.015-7.425-.216-7.949-4.913-12.837-3.988-4.15-4.001-4.155-11.507-4.155-7.493 0-7.526.012-11.591 4.155m164.258 59.322c-.367.366-.667 36.358-.667 79.981v79.314l2.387.599c3.857.968 11.013.062 12.331-1.561 2.077-2.557 1.796-155.343-.289-157.429-1.597-1.596-12.363-2.304-13.762-.904M748 408.743c-1.925.934-4.099 2.278-4.831 2.986-.731.709-1.744 1.034-2.25.721-.505-.312-.919-.162-.919.334s-2.138 1.982-4.75 3.303-5.349 2.971-6.081 3.666c-.731.696-1.744 1.01-2.25.697-.505-.312-.919-.168-.919.322s-1.237 1.529-2.75 2.309-3.349 1.986-4.081 2.678c-.731.693-1.744 1.004-2.25.691-.505-.312-.919-.162-.919.334s-2.138 1.982-4.75 3.303-5.349 2.971-6.081 3.666c-.731.696-1.744 1.01-2.25.697-.505-.312-.919-.168-.919.322s-1.237 1.528-2.75 2.307c-1.513.78-2.979 1.72-3.259 2.089-.281.37-1.168.82-1.971 1.002-.804.181-2.825 1.563-4.491 3.069l-3.029 2.739.12 37.002c.084 25.694.463 37.416 1.242 38.353.616.743.787 1.719.379 2.169-.407.45-.215.517.428.149.644-.368 1.769-.084 2.5.632s2.788 1.897 4.568 2.625c1.781.728 2.949 1.791 2.596 2.363-.355.574-.162.741.432.374.591-.365 1.673-.094 2.404.602.732.695 3.469 2.345 6.081 3.666s4.75 2.807 4.75 3.303.414.646.919.334c.506-.313 1.519.001 2.25.697.732.695 3.469 2.345 6.081 3.666s4.75 2.807 4.75 3.303.414.646.919.334c.506-.313 1.519.001 2.25.697.732.695 3.469 2.345 6.081 3.666s4.75 2.807 4.75 3.303.414.646.919.334c.506-.313 1.519-.002 2.25.691 1.455 1.376 9.23 5.759 10.217 5.759.818 0 .781-134.203-.04-144.75-.353-4.538-.913-8.24-1.244-8.227s-2.177.786-4.102 1.72m-410.167 2.182c-.183.509-.985 1.071-1.781 1.25-1.884.423-5.899 4.129-5.411 4.994.208.369-.226 1.273-.964 2.011-.822.822-1.433 4.145-1.576 8.581l-.235 7.239 7.317.189c4.024.104 36.792.217 72.817.25 71.814.067 68.461-.217 71.422 6.052 4.243 8.981 2.659 35.812-2.375 40.258-3.113 2.749 2.587 2.556-81.089 2.736-36.049.077-66.095.481-66.769.898-1.474.911-1.696 90.265-.225 90.797.487.176 1.032.975 1.211 1.775.477 2.135 3.896 5.356 7.325 6.9 4.254 1.916 270.898 1.818 275.198-.101 3.09-1.379 6.162-4.243 7.996-7.456 1.421-2.489 1.732-156.417.318-157.291-.469-.289-1-1.176-1.182-1.971-.4-1.753-3.649-5.083-6.622-6.786-2.687-1.54-274.821-1.861-275.375-.325M246 460v32h3.36c3.11 0 15.717-5.548 16.473-7.25.184-.413 1.196-.75 2.25-.75s1.917-.45 1.917-1 .707-1 1.571-1c.865 0 2.251-.679 3.081-1.509s1.933-1.248 2.45-.928c.58.358.837-6.845.67-18.737l-.272-19.319-10.261-5.076c-5.643-2.792-10.03-5.381-9.75-5.754.281-.372.229-.47-.116-.217s-1.897-.197-3.45-1-3.971-1.46-5.373-1.46H246zm40.521-13.75c-.413 1.795-.142 23.136.362 28.5.092.989 16.746 1.25 79.617 1.25H446v-32H287.038zm168.381-.551c-.138 2.548-.146 15.566-.014 23.551L455 476h17v-31.728l-8.5-.187c-7.559-.167-8.511.012-8.598 1.614m180.952 1.102c-4.411.285-4.665.463-5.004 3.5-.329 2.944-.323 34.978.01 59.449L631 520h47v-72.962l-2.25-.505c-2.233-.502-30.986-.309-39.896.268M584.25 539.82c-1.237.175-2.25.764-2.25 1.309s-.392.747-.871.451c-1.268-.784-4.588 2.396-7.017 6.721-2.254 4.012-2.998 13.699-1.053 13.699.582 0 .809.404.504.898-.924 1.496 5.221 7.263 9.204 8.638 4.18 1.444 12.509 1.135 13.049-.483.193-.579.91-1.053 1.593-1.053s2.299-1.125 3.591-2.5 1.933-2.507 1.424-2.515c-.508-.009-.325-.395.408-.86 1.167-.74 1.617-5.538 1.248-13.296-.044-.919-2.094-3.685-4.556-6.147-4.525-4.525-8.574-5.814-15.274-4.862m-1.088 9.852c-3.209 3.435-3.116 9.517.197 12.83 1.931 1.93 8.033 1.936 9.632.009.68-.819 1.552-1.294 1.938-1.055 1.896 1.172 1.032-8.236-.992-10.809-2.351-2.989-8.384-3.535-10.775-.975m-209.806 6.127c-4.855.281-5.168.465-5.579 3.269-.24 1.633.102 3.417.76 3.962.759.631 16.108.897 42.079.731l40.884-.261.31-3.75.311-3.75-8.811-.015c-4.845-.008-21.41-.12-36.81-.25-15.4-.129-30.315-.101-33.144.064m110.394 39.89c-.962.252-1.75 1.012-1.75 1.689s-2.794 4.132-6.21 7.677-6.228 6.67-6.25 6.945-.411.376-.864.225c-.454-.151-.586.112-.294.585.292.472-1.442 2.795-3.853 5.161-2.411 2.367-4.323 5.11-4.249 6.097.074.986.441 1.605.814 1.374s2.732 1.548 5.242 3.953 4.727 4.209 4.927 4.009 2.023 1.202 4.051 3.115 3.869 3.367 4.089 3.23 1.95 1.161 3.844 2.885c3.913 3.56 7.277 4.945 8.238 3.39.359-.581 1.083-.791 1.609-.466.525.325.832-.005.681-.734-.151-.728.288-1.211.975-1.074.688.138 1.138-.312 1-1s.313-1.137 1-1c.688.138 1.138-.157 1-.654-.137-.498 2.563-3.889 6-7.537 3.438-3.647 6.25-7.092 6.25-7.654s.52-.702 1.155-.31c.712.441.883.275.446-.432-.392-.634.434-2.289 1.845-3.7 1.405-1.405 2.554-2.873 2.554-3.264s1.8-2.62 3.999-4.955 4.016-4.583 4.037-4.995 1.016-1.874 2.212-3.249c1.195-1.375 2.095-2.725 2-3s.627-1.421 1.606-2.548c3.643-4.189 2.296-4.459-21.687-4.336-12.467.064-23.455.322-24.417.573m57.635.076c-2.255 1.485-2.477 4.842-.443 6.683 1.684 1.523 2.158 1.578 3.264.379 1.75-1.899 3.794-5.57 3.794-6.813 0-1.163-4.945-1.349-6.615-.249m-80.224 5.708c-3.564 3.917-3.972 5.962-1.411 7.071 2.406 1.042 4.562 1.435 3.824.697-.335-.335.793-2.057 2.508-3.825 2.298-2.372 2.941-3.767 2.45-5.316-.98-3.088-3.788-2.565-7.371 1.373m71.02 7.37c-1.18 1.023-1.917 2.088-1.639 2.366.279.278-.18 1.075-1.018 1.771-1.911 1.586-1.948 3.739-.095 5.591 2.418 2.419 5.574 1.139 6.396-2.595.179-.812.741-1.626 1.25-1.809 1.558-.562 1.029-3.763-.913-5.52-1.717-1.554-1.978-1.541-3.981.196m-85.123 6.64c-3.117 3.058-3.332 3.621-2.272 5.947 1.457 3.197 2.262 3.213 5.185.101 1.276-1.358 2.817-2.186 3.424-1.84.608.346.783.273.39-.162s-.073-1.708.712-2.828c1.257-1.795 1.223-2.191-.285-3.337-2.482-1.886-3.327-1.635-7.154 2.119M522 623.284c-2.264 1.844-4.705 6.989-4.253 8.966.834 3.65 6.548.635 8.517-4.494.976-2.545-2.348-6.032-4.264-4.472m-88.983 4.658c-1.916 1.588-3.754 2.721-4.084 2.517-.759-.469-.945 2.35-.35 5.291.529 2.616 1.938 2.872 4.069.741.83-.83 1.934-1.247 2.453-.926.52.321.821.004.67-.704s.737-1.748 1.975-2.312c2.67-1.214 3.13-5.997.668-6.942-1.974-.757-1.343-1.03-5.401 2.335m11.535 8.153c-3.272 3.248-6.334 5.905-6.804 5.905s-2.295 1.348-4.052 2.995c-1.758 1.648-3.538 2.998-3.955 3-.418.003-2.172 1.355-3.898 3.005-1.727 1.65-3.547 3-4.046 3-.498 0-2.344 1.348-4.101 2.995s-3.538 2.998-3.955 3c-.418.003-2.172 1.355-3.898 3.005-1.727 1.65-3.532 3-4.012 3-.481 0-3.451 2.487-6.602 5.527-5.489 5.296-5.648 5.59-3.788 7 1.068.81 2.53 1.473 3.25 1.473s1.31.337 1.311.75 1.666.869 3.7 1.015 3.946.596 4.248 1c1.098 1.468 21.014 2.202 35.002 1.291 4.658-.304 7.114-.996 8.83-2.488 1.308-1.138 2.633-2.068 2.945-2.068s2.413-1.687 4.67-3.75c2.256-2.062 4.432-3.75 4.835-3.75s2.832-2.011 5.397-4.469c2.565-2.457 5.059-4.224 5.542-3.925.483.298.755.172.604-.282s.07-.929.492-1.057c1.762-.537 7.733-7.325 7.733-8.793 0-.875-.376-1.359-.836-1.075s-2.486-1.039-4.503-2.941-4.005-3.458-4.419-3.458-2.663-1.8-4.998-3.999-4.513-3.954-4.839-3.898c-.327.055-2.588-1.745-5.026-4.001-5.842-5.406-7.614-5.168-14.827 1.993M510 638.059c0 .582-.461.774-1.025.426s-.913-.263-.777.191c.136.453-.56 2.031-1.547 3.507-1.417 2.12-1.561 3.116-.687 4.75 1.203 2.248 2.558 2.649 3.546 1.051.346-.559 1.058-.751 1.584-.426.525.325.832-.005.681-.734-.152-.733.395-1.175 1.225-.991.825.184 1.162-.005.748-.419-.414-.413-.08-1.495.742-2.403 1.334-1.474 1.277-1.885-.537-3.831-2.178-2.338-3.953-2.841-3.953-1.121m-91.438 1.309c-4.982 2.909-8.562 7.023-8.562 9.837 0 3.382 2.054 3.487 5.808.295 1.294-1.1 2.557-1.871 2.808-1.714 1.173.735 3.384-2.96 3.384-5.656 0-3.602-.842-4.278-3.438-2.762M617.5 651.243c-1.65.566-3.562 1.179-4.25 1.362-1.832.487-1.606 6.365.25 6.52.825.069 2.063.167 2.75.219 3.566.27 7.879-2.332 7.568-4.566-.284-2.033-2.155-4.95-2.997-4.672-.176.059-1.671.57-3.321 1.137m13.332 1.227c-1.703 3.737.337 5.53 6.29 5.53H642v-8h-5.021c-4.37 0-5.168.321-6.147 2.47m20.861-1.77c-1.355.351-1.73 1.261-1.5 3.634.302 3.112.406 3.171 6.057 3.466 5.725.299 5.75.287 5.75-2.55 0-4.72-3.57-6.296-10.307-4.55m-155.29 2.064c-3.274 3.035-4.233 5.502-3.105 7.986 1.295 2.849 1.515 2.816 5.509-.816 3.271-2.975 3.997-6.476 1.693-8.169-1.469-1.079-1.994-.951-4.097.999m-95.882 1.212c-1.007 1.113-2.232 2.024-2.721 2.024-1.303 0-5.082 4.077-6.719 7.25-.78 1.513-1.793 2.75-2.25 2.75s-.831 1.203-.831 2.674v2.675l2.324-2.184c1.278-1.201 2.666-1.842 3.084-1.424.417.417.609.309.425-.241-.183-.55.114-1.225.66-1.5 2.35-1.183 9.506-8.781 9.492-10.079-.035-3.184-1.565-4.043-3.464-1.945m270.729-1.314c-.687.278-1.25 2.042-1.25 3.921 0 2.874.358 3.419 2.25 3.428 1.237.006 3.938.29 6 .631 3.717.614 3.75.59 3.75-2.768 0-3.075-.367-3.502-3.984-4.631-4.24-1.323-4.806-1.371-6.766-.581m-78.389 3.005c-.596.719-.795 2.46-.441 3.869.58 2.311 1.058 2.533 4.861 2.263 4.991-.354 6.719-1.711 6.719-5.277 0-2.511-.211-2.611-5.027-2.391-2.765.126-5.515.817-6.112 1.536m-11.474 1.346c-.506.506-2.375 1.03-4.153 1.166-2.939.224-3.234.546-3.234 3.534 0 1.922.519 3.319 1.25 3.364.688.042 2.038.227 3 .411s1.75-.075 1.75-.576c0-.502.81-.912 1.8-.912 2.291 0 4.2-1.893 4.2-4.165 0-2.132-3.29-4.145-4.613-2.822M690 659.782c0 3.385.283 3.805 2.694 4.005 1.482.122 2.944.577 3.25 1.01 1.245 1.764 5.928 1.183 6.561-.813.649-2.043-.296-6.526-1.188-5.635-.275.275-2.596-.136-5.158-.913-6.274-1.905-6.159-1.949-6.159 2.346m-128.202 1.316c-.164.486-1.552.988-3.084 1.115-1.962.161-2.956.903-3.358 2.506-.797 3.173.25 5.347 2.362 4.906 8.242-1.72 8.282-1.745 8.282-5.133 0-3.097-3.383-5.829-4.202-3.394M710 666.094c0 2.252.544 3.235 2 3.616 1.1.288 2 .947 2 1.466 0 .518.414.686.919.374s1.519-.002 2.25.691c.732.692 2.568 1.404 4.081 1.581 3.197.373 3.819-2.824 1.218-6.263-.807-1.068-1.468-1.652-1.468-1.299s-1.913-.226-4.25-1.287c-5.84-2.651-6.75-2.5-6.75 1.121m-228.275 1.264c-3.899 3.571-4.531 5.436-2.525 7.442 1.842 1.842 3.226 1.465 6.652-1.809 3.641-3.479 3.691-3.728 1.351-6.768l-1.753-2.277zm154.045-1.794c-.202.201-5.97.436-12.819.52-6.848.085-12.901.51-13.451.946s-3.7.925-7 1.088-6.45.611-7 .996-2.8.825-5 .979-4.45.571-5 .928c-1.111.72-11.026 2.958-14.972 3.379-1.392.148-2.83.569-3.196.935s-1.49.665-2.499.665c-1.716 0-2.764 4.957-1.797 8.5.15.55.541 10.225.869 21.5l.595 20.5 3-.3c3.582-.359 5.179-.657 8.5-1.587 1.375-.385 3.625-.843 5-1.018a57 57 0 0 0 5-.917c1.375-.328 4.3-.81 6.5-1.069 2.2-.26 4.9-.727 6-1.038s4.025-.727 6.5-.924 5.175-.638 6-.98 7.575-.827 15-1.078 13.837-.487 14.25-.523.75-11.541.75-25.566-.337-25.534-.75-25.577c-.413-.042-1.507-.222-2.432-.401s-1.847-.16-2.048.042m-97.79 2.451c-3.378 2.548-2.392 6.571 1.52 6.202 6.001-.566 8.533-2.205 8.292-5.369-.205-2.688-.497-2.887-3.935-2.685-2.042.121-4.687.954-5.877 1.852m111.833 22.659c.18 13.654.704 25.213 1.167 25.686.462.473 4.368 1.062 8.68 1.309s8.965.793 10.34 1.213 4.513.868 6.974.995 4.711.587 5 1.022 2.266.849 4.392.92 4.376.534 5 1.029c.624.496 2.484 1.139 4.134 1.431 5.457.965 8.846 1.817 9.93 2.495.588.368 1.668.76 2.398.871s2.081.537 3 .947c.92.411 3.52 1.259 5.779 1.886l4.108 1.14.602-11.235c.331-6.179.329-17.266-.004-24.638l-.606-13.404-4.104-2.173c-2.256-1.196-4.665-2.172-5.353-2.171s-1.25-.474-1.25-1.056-.337-.86-.75-.617c-.413.242-1.875-.024-3.25-.593-1.375-.568-3.617-1.22-4.981-1.448-1.365-.227-2.715-.722-3-1.098s-1.644-.803-3.019-.947-3.175-.553-4-.908c-.825-.356-2.849-.838-4.499-1.072s-3.449-.763-4-1.174c-.55-.412-3.251-.864-6.001-1.005s-5.45-.579-6-.974c-.55-.394-5.503-.838-11.006-.987l-10.006-.27zm-127.063-18.01c-4.287 1.26-4.75 1.686-4.75 4.366 0 3.477 1.726 3.818 7.378 1.457 3.6-1.505 4.103-2.51 2.802-5.603-.61-1.45-1.171-1.472-5.43-.22M732 676.757c0 1.872 1.123 3.788 3.5 5.969 1.925 1.767 3.5 2.923 3.5 2.569s1.125.413 2.5 1.705c2.803 2.633 3.028 2.342 1.316-1.703-1.242-2.935-8.662-11.297-10.024-11.297-.436 0-.792 1.241-.792 2.757m-226.202.341c-.164.486-1.536.987-3.048 1.111-2.477.205-2.75.604-2.75 4.025 0 3.604.153 3.786 3 3.569 1.65-.126 3-.583 3-1.016s.9-.787 2-.787c2.868 0 2.911-6.529.048-7.277-1.074-.281-2.086-.112-2.25.375m45.574 1.912c-.48.47-2.222.997-3.872 1.172s-3.233.626-3.519 1.003c-.285.376-1.635.87-3 1.096s-3.156.674-3.981.994c-2.229.866-24.097 7.517-27.059 8.23-1.407.339-3.207.746-4 .904-.792.159-2.116.55-2.941.869-.825.32-4.875 1.563-9 2.763a3157 3157 0 0 0-10.687 3.128l-3.187.945.332 9.193c.183 5.056.673 16.282 1.089 24.947l.756 15.755 2.848-.217c1.567-.12 2.849-.572 2.849-1.005s1.71-.787 3.8-.787 4.228-.411 4.75-.914 2.3-1.064 3.95-1.246c1.65-.183 3.225-.626 3.5-.983.275-.358 1.625-.81 3-1.004s2.733-.661 3.019-1.038c.285-.376 1.635-.87 3-1.096s3.156-.65 3.981-.942c4.047-1.431 21.686-6.948 23-7.194.825-.155 2.286-.621 3.246-1.038.961-.416 2.873-.821 4.25-.901 1.376-.079 2.503-.452 2.503-.828.001-.376 1.238-.826 2.751-1l2.75-.316.199-18c.311-28.206-.729-36.014-4.327-32.49m-67.622 4.758c-2.047.998-2.75 2.073-2.75 4.203 0 3.041 1.536 4.185 4 2.978.825-.403 2.738-1.223 4.25-1.82 2.158-.852 2.75-1.74 2.75-4.123 0-3.433-2.869-3.864-8.25-1.238M387 686.009c0 2.557 4.804 7.394 7.75 7.804 1.882.262 2.25-.155 2.25-2.551 0-2.406-.724-3.215-4.527-5.063-5.512-2.678-5.473-2.677-5.473-.19m80 1.873c-3.198.565-3.527.944-3.812 4.403-.305 3.691-.243 3.768 2.5 3.103 6.364-1.541 7.312-2.236 7.312-5.363 0-3.171-.06-3.193-6-2.143M730 702c0 7.7.373 14 .829 14s3.154-2.475 5.995-5.5 4.888-5.5 4.548-5.5-.075-.653.588-1.452.934-2.306.603-3.35c-.577-1.818-10.77-12.198-11.979-12.198-.321 0-.584 6.3-.584 14m-283.75-10.538c-1.546.695-2.25 1.877-2.25 3.775 0 2.645.212 2.763 4.941 2.763 5.051 0 5.886-.506 6.554-3.975.635-3.295-4.472-4.711-9.245-2.563M406 694.13c0 2.94.424 3.513 3.25 4.393 5.123 1.597 6.75.851 6.75-3.096 0-2.684-.406-3.427-1.875-3.427-1.031 0-3.281-.281-5-.625-3.007-.601-3.125-.497-3.125 2.755m21.192-1.423c-3.044.394-3.284.683-3 3.611.305 3.153.358 3.182 5.808 3.182h5.5V696c0-3.813-1.056-4.231-8.308-3.293m-40.681 8.636c-.264 1.186-.375 12.158-.246 24.382l.235 22.226 3.059 2.774c7.342 6.659 8.126 4.927 8.245-18.225.104-20.261-.808-28.519-3.304-29.896-1.1-.607-2.225-1.368-2.5-1.692-1.599-1.88-5.034-1.61-5.489.431M460 704.017c-14.967 3.194-29.639 4.009-46.25 2.567l-8.75-.759-.123 9.838c-.221 17.778.121 38.756.661 40.456.309.974 2.079 1.948 4.246 2.338 6.416 1.152 28.577 1.503 31.729.502 1.657-.527 5.605-1.017 8.772-1.09 3.168-.073 6.002-.524 6.297-1.001S459.09 756 461.5 756s4.66-.45 5-1 1.69-1 3-1 2.699-.513 3.086-1.139c.818-1.324.679-25.711-.232-40.611-.718-11.739.445-10.964-12.354-8.233m276.159 18.396c-7.172 7.469-8.13 11.512-3.651 15.407 1.379 1.199 2.841 2.182 3.25 2.185.408.002 2.18 1.352 3.938 3 1.757 1.647 3.445 2.995 3.75 2.995s.554-6.75.554-15-.379-15-.841-15c-.463 0-3.613 2.886-7 6.413m-83.113 3.032c-2.948 3.551-.913 6.036 5.204 6.355 5.743.299 5.75.297 5.75-2.592 0-2.49-.536-3.052-3.866-4.05-4.962-1.486-5.639-1.459-7.088.287m-35.296.274c-3.392.363-3.75.683-3.75 3.341 0 2.901.074 2.94 5.563 2.94h5.564l-.314-3.242c-.335-3.472-.869-3.702-7.063-3.039m15.25 2.164c0 3.137 1.763 4.078 7.691 4.103 3.727.016 4.733-1.161 3.884-4.543-.557-2.219-1.116-2.443-6.094-2.443-5.374 0-5.481.056-5.481 2.883m39.454-.623c-1.565 4.078-.118 6.061 5.312 7.279 5.146 1.155 5.28 1.128 5.862-1.192.806-3.212-1.21-5.347-5.05-5.347-1.748 0-3.703-.525-4.345-1.167-.89-.89-1.313-.788-1.779.427m-72.954.639c-3.655.549-4.027.887-4.319 3.923l-.318 3.321 4.818-.688c5.707-.816 6.599-1.47 6.154-4.511-.39-2.664-.968-2.85-6.335-2.045m-18.75 3.508c-4.546.888-4.75 1.073-4.75 4.306 0 3.349.032 3.372 3.75 2.745 6.43-1.085 7.251-1.513 7.235-3.775-.026-3.717-1.098-4.28-6.235-3.276m111.881-.705C690.964 732.37 692.02 738 694 738c1.1 0 2 .362 2 .804s1.8.911 4 1.041c3.706.219 4 .044 4-2.376 0-3.127-1.613-4.844-5-5.321-1.375-.194-3.228-.741-4.119-1.215s-1.902-.578-2.25-.231M562 735.39c-4.184 1.11-4.521 1.448-4.804 4.8-.28 3.31-.095 3.593 2.249 3.458 1.404-.082 2.554-.429 2.554-.773.001-.344 1.351-.895 3.001-1.225 2.652-.53 3-1.008 3-4.125 0-1.939-.337-3.481-.75-3.427s-2.775.636-5.25 1.292m150 4.574c0 3.491 1.431 5.358 4.5 5.87 1.1.183 2.428.746 2.95 1.25s1.985.916 3.25.916c4.439 0 2.074-6.706-2.761-7.83-.781-.182-1.649-.632-1.93-1-.28-.369-.959-.749-1.509-.846s-1.788-.482-2.75-.857c-1.442-.561-1.75-.122-1.75 2.497m-164.129-.502c-.224.224-1.524.593-2.889.819-4.695.778-5.982 1.833-5.982 4.901 0 2.742.248 2.947 3.25 2.68 4.543-.405 7.75-2.647 7.75-5.418 0-2.182-1.22-3.891-2.129-2.982m52.129 5.96c0 1.865.748 2.649 3.25 3.405 7.6 2.298 7.75 2.272 7.75-1.314 0-3.742-1.209-4.513-7.082-4.513-3.479 0-3.918.271-3.918 2.422m-72.65-.372c-.491.491-1.783 1.031-2.871 1.2s-2.541.659-3.229 1.088c-1.713 1.069-1.629 6.662.101 6.662 2.476 0 8.134-2.237 9.293-3.674 2.165-2.685-.929-7.641-3.294-5.276m132.4.352c-4.15 1.485-4.006 6.598.185 6.598 5.428 0 8.065-1.632 8.065-4.991 0-3.329-2.226-3.763-8.25-1.607m15.948.55c.499 1.91 6.295 2.645 6.3.798.001-.413.704-.75 1.561-.75s1.281-.45.941-1-2.574-1-4.965-1c-3.819 0-4.286.237-3.837 1.952m-56.775.746c-.042.441-.224 1.57-.405 2.508-.48 2.493 1.85 3.965 7.034 4.445l4.573.423-.312-3.787-.313-3.787-5.25-.302c-2.888-.167-5.284.058-5.327.5M638 750.5v3.5h11v-7h-11zm58-1.529c0 .392-1.913 1.254-4.25 1.917-2.337.662-5.15 1.582-6.25 2.044-2.503 1.051-9.346 3.079-12 3.556-1.1.197-2 .43-2 .516s-2.025.683-4.5 1.326l-4.5 1.17-.151 18.915c-.164 20.401.642 32.179 2.184 31.926.532-.087 2.767-.296 4.967-.463s4.225-.615 4.5-.993 1.85-.912 3.5-1.186c1.65-.275 4.275-.997 5.834-1.606s3.246-.853 3.75-.541.916.188.916-.275c0-.462 2.072-1.452 4.604-2.2s6.288-2.173 8.345-3.166c2.057-.994 4.361-1.943 5.121-2.109s1.992-.869 2.737-1.561c.745-.693 1.768-1.004 2.274-.691.505.312.919.168.919-.322s1.237-1.529 2.75-2.309 3.349-1.986 4.081-2.678c.731-.693 1.744-1.004 2.25-.691.505.312.919.168.919-.322s1.229-1.529 2.731-2.309 4.741-3.303 7.199-5.605 4.898-3.92 5.424-3.595c.525.324.634.07.241-.564-.427-.691-.063-1.155.905-1.155.89 0 1.359-.419 1.043-.931s-.118-1.213.441-1.559 1.016-1.229 1.016-1.963c0-1.45-5.488-7.742-6.537-7.494-.353.084-1.627-.681-2.831-1.7s-4.201-2.944-6.66-4.278-4.747-2.835-5.084-3.336-.786-.762-1-.582c-.593.502-8.888-2.39-8.888-3.099 0-.342-1.212-.722-2.694-.845-1.482-.122-2.944-.589-3.25-1.036-.686-1.004-8.056-1.192-8.056-.206m36 1.6c0 2.485 1.99 5.424 3.679 5.434.451.002 2.259 1.352 4.017 3 3.888 3.644 4.304 3.689 4.304.462 0-2.551-4.446-7.713-8.8-10.217-2.976-1.712-3.2-1.619-3.2 1.321m-224.237.632c-.145.429-1.501.882-3.013 1.006-2.474.204-2.75.606-2.75 4.003 0 3.681 2.242 4.88 4.641 2.48.381-.38 1.742-.692 3.026-.692 2.049 0 2.333-.479 2.333-3.938 0-3.313-.315-3.914-1.987-3.788-1.093.082-2.106.5-2.25.929M584 777.5c0 14.575.337 26.418.75 26.318 1.456-.353 9.25 2.511 9.25 3.399 0 .496.412.646.916.335.504-.312 2.191-.064 3.75.55s4.409 1.339 6.334 1.611 3.95.819 4.5 1.215 3.025.822 5.5.948c2.475.125 5.85.637 7.5 1.137 3.466 1.05 25.599.673 29.901-.509l2.902-.797-.652-16.513c-.358-9.082-.651-20.379-.65-25.104l.001-8.59-12.251-.051c-22.109-.092-33.542-1.839-49.028-7.491-4.458-1.627-8.245-2.958-8.414-2.958S584 762.925 584 777.5m-96-20.351c0 .468-.81.851-1.8.851-2.265 0-4.2 1.886-4.2 4.093 0 2.269 2.226 2.989 5.943 1.923 1.681-.482 3.057-.651 3.057-.375s.706-.205 1.57-1.068c2.502-2.503 1.456-6.054-1.82-6.174-1.512-.055-2.75.282-2.75.75m-100 4.897c0 3.168 1.408 5.198 4.014 5.784.807.182 1.696.632 1.977 1 .28.369 1.521.811 2.759.983 4.113.572 2.896-6.937-1.242-7.662-1.095-.193-3.233-.992-4.75-1.776-2.724-1.409-2.758-1.388-2.758 1.671m83.356-1.002c-.489.489-2.365 1.001-4.17 1.139-3.106.236-3.265.438-2.983 3.783.32 3.81.651 3.932 7.047 2.595 3.412-.713 3.75-1.079 3.75-4.065 0-3.297-1.951-5.145-3.644-3.452m-20.646 4.157c-.666.422-2.222.775-3.46.784-1.788.012-2.247.58-2.235 2.765.022 3.948 1.456 5.934 3.225 4.466.766-.636 2.814-1.265 4.55-1.397 3.543-.27 4.23-1.263 3.504-5.062-.504-2.637-2.854-3.292-5.584-1.556m-44.272 3.19c-.875 3.487 1.064 5.038 6.812 5.449l4.75.34v-3.59c0-1.974-.113-3.61-.25-3.635-7.756-1.391-10.696-1.018-11.312 1.436m22.812-1.654c-2.961.355-3.25.696-3.25 3.826V774h5.383c4.911 0 5.425-.214 5.849-2.435.795-4.155-1.587-5.595-7.982-4.828M740 784.5c-1.866 1.925-3.867 3.504-4.446 3.508-1.541.011-3.302 4.359-2.589 6.392.337.962.943 1.725 1.347 1.697 1.205-.085 5.086-4.4 6.607-7.347.78-1.513 1.695-2.75 2.032-2.75s.706-1.125.82-2.5c.262-3.171.274-3.174-3.771 1m-18.167 12.425c-.183.509-.977 1.071-1.763 1.25-4.833 1.098-9.014 10.407-4.32 9.619.962-.162 1.979-.595 2.259-.964.281-.368 1.149-.818 1.93-1 5.057-1.175 8.705-9.83 4.144-9.83-1.054 0-2.066.416-2.25.925m-22.656 11.102c-3.928 1.882-5.112 3.505-4.438 6.084.598 2.285 1.894 2.358 6.639.376 1.992-.833 3.629-1.17 3.637-.75.044 2.183 1.957-2.649 1.97-4.976.018-3.19-2.241-3.403-7.808-.734M584 814.5c0 3.242 1.635 4.899 5.25 5.322 2.387.279 2.75-.027 2.75-2.322 0-3.242-1.635-4.899-5.25-5.322-2.387-.279-2.75.027-2.75 2.322m98.55-.442c-1.622.482-3.138.687-3.369.457-.949-.949-3.181 2.527-3.181 4.954 0 2.42.294 2.595 4 2.376 2.2-.13 4-.546 4-.924s.933-.932 2.074-1.23c1.578-.413 1.996-1.198 1.75-3.29-.375-3.177-1.213-3.55-5.274-2.343m-81.911 2.636c-.351.352-.639 2.083-.639 3.848 0 2.802.411 3.301 3.25 3.943 7.799 1.762 7.892 1.734 7.557-2.286-.28-3.355-.615-3.725-3.841-4.245-1.944-.313-4.018-.868-4.61-1.234s-1.365-.378-1.717-.026m59.111 2.708c-2.257.808-2.75 1.585-2.75 4.336 0 3.32.037 3.346 3.75 2.72 6.972-1.176 7.25-1.369 7.25-5.041 0-3.774-1.982-4.258-8.25-2.015m-41.324 3.037c-.932 3.715.821 5.169 6.547 5.43l5.027.23v-3.443c0-3.794-.561-4.174-6.712-4.548-3.791-.23-4.278.003-4.862 2.331m20.824-1.786c-.687.283-1.25 2.051-1.25 3.93V828h11.121l-.311-3.743c-.299-3.612-.45-3.75-4.31-3.93-2.2-.103-4.562.044-5.25.326"/></svg>