<svg xmlns="http://www.w3.org/2000/svg" viewBox="0 0 1024 1024"><path fill="#00e5cc" d="M487.785 294.548c-.301.302-3.639.961-7.417 1.464-18.15 2.421-31.331 5.958-34.375 9.225-2.502 2.687-2.504 2.666.538 6.203 2.324 2.702 2.789 2.852 5.749 1.849 7.05-2.389 24.934-6.242 38.768-8.352 8.131-1.24 35.584-.696 46.952.931 3.575.511 9.101 1.265 12.279 1.674 3.179.409 6.018 1.13 6.309 1.601s1.86.857 3.485.857 3.736.4 4.691.888c.955.489 6.236 2.317 11.736 4.063 10.488 3.328 12.068 3.972 25 10.188 8.783 4.222 13.257 6.733 15.225 8.545.708.652 2.184 1.47 3.281 1.818s1.994.998 1.994 1.444 1.35 1.371 3 2.054 3 1.562 3 1.952c0 .391 1.237 1.346 2.75 2.122 1.513.777 3.425 2.112 4.25 2.967.825.854 3.075 2.655 5 4 4.514 3.155 26.764 25.394 29.974 29.959 1.353 1.925 3.022 4.079 3.708 4.786.686.708 2.036 2.62 2.999 4.25.962 1.63 2.103 2.964 2.535 2.964s.784.59.784 1.311c0 .722.788 2.184 1.75 3.25.962 1.067 2.389 3.177 3.169 4.689s1.793 2.75 2.25 2.75.831.863.831 1.917.355 2.066.789 2.25c.727.307 10.148 19.067 12.471 24.833.554 1.375 1.368 3.4 1.808 4.5s1.342 3.8 2.004 6c.663 2.2 1.53 4.9 1.928 6 1.947 5.388 3 9.34 3 11.262 0 1.166.39 2.361.867 2.656s1.182 2.684 1.565 5.309A901 901 0 0 0 714.014 479c1.574 9.79 4.075 41.43 3.469 43.885-.324 1.311-1.029 7.611-1.567 14-1.064 12.629-2.228 22.708-3.881 33.615-1.963 12.946-2.571 16.527-6.116 36a1221 1221 0 0 0-1.852 10.5c-2 11.684-2.568 12.445-7.28 9.75-5.993-3.428-5.834-2.641-4.506-22.293 2.3-34.013.214-66.413-6.371-98.957-.556-2.75-1.261-6.69-1.566-8.756s-.958-4.005-1.45-4.309S682 490.36 682 488.5s-.45-3.66-1-4-1-1.551-1-2.69c0-2.942-6.178-21.269-9.117-27.046-.486-.955-.883-2.418-.883-3.25 0-.833-.45-1.514-1-1.514s-1-.9-1-2-.45-2-1-2-1-.632-1-1.405c0-1.666-4.17-9.948-5.25-10.428-.413-.184-.75-1.159-.75-2.167s-.337-1.983-.75-2.167-1.841-2.358-3.175-4.833-2.706-4.725-3.049-5-1.705-2.075-3.029-4c-3.199-4.652-8.516-10-9.942-10-.63 0-2.292 1.146-3.694 2.548l-2.547 2.547 3.304 5.453c1.818 2.998 3.605 5.452 3.972 5.452s1.227 1.35 1.91 3 1.583 3 2 3 1.317 1.35 2 3 1.638 3 2.121 3 .879.863.879 1.917.339 2.066.754 2.25c1.411.623 11.246 21.894 11.246 24.322 0 .831.45 1.511 1 1.511s1 1.035 1 2.3.372 2.728.826 3.25 1.406 2.975 2.114 5.45 1.653 5.4 2.099 6.5 1.089 3.35 1.43 5a162 162 0 0 0 1.53 6.5c3.652 14.054 5.291 23.354 8.195 46.5 1.451 11.572 1.738 62.801.404 72.25-.792 5.609-1.12 6.25-3.193 6.25-3.061 0-7.405-2.03-7.405-3.461 0-1.714-2.393-6.522-3.25-6.531-.413-.004-.75-.647-.75-1.429s-2.061-3.482-4.579-6-5.218-4.579-6-4.579-1.421-.45-1.421-1-.81-1-1.8-1-2.34-.54-3.001-1.201c-2.496-2.496-21.02-1.453-26.878 1.514-6.062 3.071-12.321 8.298-12.321 10.291 0 .768-.399 1.396-.886 1.396-2.402 0-5.363 9.611-7.086 23a1401 1401 0 0 1-2.031 15c-.99 6.966-1.517 10.843-4.007 29.5a1977 1977 0 0 1-1.931 14c-.549 3.85-1.449 10.375-2.001 14.5a1318 1318 0 0 1-1.96 14c-2.641 17.954-3.079 23.005-2.496 28.764.349 3.445 1.031 6.509 1.516 6.809s.882 1.418.882 2.486.45 1.941 1 1.941 1 .646 1 1.435c0 1.868 10.697 12.565 12.565 12.565.789 0 1.435.34 1.435.757 0 2.55 21.353 4.54 25.764 2.401.955-.464 3.907-1.894 6.561-3.179s6.254-4.005 8-6.043l3.175-3.707 11.5-.462c10.834-.436 21.939-2.856 22.833-4.977.184-.434 1.196-.79 2.25-.79s1.917-.45 1.917-1 .9-1 2-1 2-.42 2-.933.876-1.21 1.947-1.55c2.664-.846 16.053-14.233 16.053-16.051 0-.806.397-1.466.883-1.466 2.066 0 7.865-14.576 9.945-25 2.691-13.486 3.569-35.728 1.758-44.5-.894-4.33-8.508-20.5-9.653-20.5-.385 0-.903-.788-1.152-1.75-.603-2.335.341-8.841 4.173-28.75 1.432-7.438 2.078-11.186 6.12-35.5 7.992-48.079 7.635-82.626-1.215-117.5-2.004-7.895-9.254-29.626-10.048-30.117-.446-.276-.811-1.374-.811-2.442s-.45-1.941-1-1.941-1.006-.788-1.013-1.75c-.012-1.726-7.552-17.279-8.847-18.25-.367-.275-1.744-2.637-3.061-5.25s-2.773-4.75-3.236-4.75-.843-.59-.843-1.311c0-.722-.9-2.278-2-3.459-1.1-1.18-2-2.53-2-3 0-.469-.8-1.725-1.777-2.791-.978-1.067-2.873-3.514-4.212-5.439s-3.614-4.625-5.057-6-2.815-3.076-3.049-3.779c-.547-1.648-20.988-22.221-22.078-22.221-.454 0-2.679-1.8-4.946-4s-4.578-4-5.134-4c-.557 0-1.74-.821-2.63-1.825C637.06 333.853 622.435 324 621.045 324c-.575 0-1.045-.366-1.045-.814 0-1.355-25.289-13.665-33.5-16.307-2.2-.708-4.428-1.645-4.95-2.083s-1.766-.796-2.764-.796-2.595-.406-3.55-.903c-2.22-1.153-14.102-4.292-22.736-6.006-12.976-2.575-19.857-3.091-41.199-3.091-12.632 0-23.214.247-23.516.548m-61.562 19.009c-1.223.856-2.223 2.041-2.223 2.632s-.838 1.804-1.861 2.694c-9.485 8.24-12.384 34.038-6.222 55.367.595 2.063 1.503 5.212 2.015 7a392 392 0 0 0 1.589 5.391c.507 1.658-.379 3.219-3.933 6.928-2.523 2.634-4.588 5.102-4.588 5.484 0 .383-1.575 2.415-3.5 4.517-1.925 2.101-3.5 4.408-3.5 5.125 0 .718-.374 1.305-.831 1.305s-1.469 1.238-2.248 2.75-1.65 2.975-1.933 3.25c-3.607 3.501-9.013 21.705-8.944 30.116.044 5.361 1.879 14.141 3.241 15.502.393.394.715 1.54.715 2.549s.45 1.833 1 1.833 1.001.563 1.001 1.25c.001 1.153 2.294 4.264 6.817 9.25 9.465 10.432 27.651 15.328 44.794 12.058 3.798-.724 4.153-.604 4.65 1.579.296 1.3 1.305 5.063 2.242 8.363 2.939 10.349 2.577 19.352-.934 23.267-3.657 4.077-7.886 6.233-12.224 6.233-3.854 0-4.041-.554-1.346-4 2.227-2.847 2.724-11.316.9-15.321-1.979-4.342-12.63-8.543-14.4-5.679-.34.55-1.287 1-2.104 1s-2.534 1.047-3.813 2.327c-8.742 8.741-4.786 22.937 8.243 29.584 5.777 2.947 18.558 2.954 24.323.013 4.83-2.464 10.851-8.23 10.851-10.391 0-.843.352-1.533.782-1.533 1.691 0 3.446-9.132 2.839-14.777-1.122-10.43-1.822-14.229-2.727-14.788-.492-.304-.894-1.507-.894-2.673s-.554-3.651-1.23-5.522c-1.109-3.066-1.034-3.51.75-4.483 1.854-1.011 8.429-7.496 11.23-11.075.688-.879 1.25-2.292 1.25-3.14s.34-1.542.757-1.542c3.829 0 4.38-22.456.745-30.401-2.687-5.874-11.376-15.599-13.937-15.599-.861 0-1.565-.45-1.565-1s-.81-1-1.8-1-2.228-.423-2.75-.94c-.523-.518-4.55-1.264-8.95-1.658-8.435-.757-10.408-1.907-10.468-6.105-.018-1.212-.538-3.462-1.157-5-4.472-11.125-4.77-12.789-2.757-15.407 1.01-1.314 1.848-2.952 1.86-3.64.012-.687.396-1.25.853-1.25s1.469-1.238 2.248-2.75 1.644-2.975 1.919-3.25c1.322-1.317 5.002-8.959 5.002-10.386 0-.888.352-1.614.782-1.614 3.231 0 5.022-25.888 2.291-33.123-3.095-8.199-4.385-10.176-10.841-16.618-4.662-4.653-8.115-5.43-12.009-2.702m2.595 13.943c-.626 1.375-1.419 2.5-1.76 2.5-3.172 0-4.751 25.711-2.18 35.5 1.591 6.056 3.205 10.5 3.815 10.5 1.449 0 6.348-8.806 10.178-18.297 1.458-3.611 1.461-17.784.004-21.406-2.43-6.044-3.434-7.864-5.271-9.547-2.561-2.347-3.437-2.21-4.786.75m-31.818.227c-1.638.622-10.194 6.265-11 7.255-.275.338-2.057 1.703-3.961 3.034-9.281 6.49-33.399 30.601-40.067 40.055-1.33 1.886-3.217 4.301-4.195 5.368-.977 1.066-1.777 2.322-1.777 2.791 0 .47-.9 1.82-2 3-1.1 1.181-2 2.737-2 3.459 0 .721-.338 1.311-.752 1.311-.413 0-1.865 2.137-3.225 4.75s-2.71 4.975-2.999 5.25c-1.303 1.242-5.024 8.935-5.024 10.386 0 .888-.45 1.614-1 1.614s-1 .9-1 2-.45 2-1 2-1 .606-1 1.346-.626 2.653-1.391 4.25c-3.26 6.805-4.657 10.451-7.627 19.904-4.841 15.404-4.982 15.945-4.982 19.121 0 1.638-.404 3.407-.898 3.929-.493.522-1.159 2.975-1.48 5.45s-1.141 8.55-1.824 13.5c-2.847 20.623-1.126 56.935 4.194 88.5.603 3.575 1.527 9.2 2.054 12.5 1.92 12.012 3.602 21.339 6.042 33.5.967 4.816 2.859 16.056 2.892 17.179.011.373-.656 1.354-1.482 2.18-2.327 2.327-9.175 16.675-10.09 21.141-1.201 5.861-.986 26.91.358 35 1.973 11.877 2.973 16.87 4.06 20.268 1.628 5.091 6.311 14.232 7.291 14.232.486 0 .883.616.883 1.368 0 1.783 13.429 15.316 16.012 16.136 1.094.347 1.988 1.05 1.988 1.563s.9.933 2 .933 2 .45 2 1 .606 1 1.346 1 2.853.751 4.694 1.67c5.279 2.633 10.626 3.589 22.576 4.033 10.561.393 11.17.533 12.205 2.802.598 1.314 2.346 3.195 3.883 4.179 1.538.985 3.413 2.381 4.167 3.102.753.722 2.675 1.573 4.27 1.892s3.143.972 3.439 1.451c1.463 2.368 25.42.132 25.42-2.372 0-.417.615-.757 1.366-.757 1.94 0 12.634-10.507 12.634-12.414 0-.872.45-1.586 1-1.586s1-.81 1-1.8.387-2.227.859-2.75c1.136-1.257 3.269-12.434 2.584-13.542-.295-.477-.978-4.363-1.52-8.637a1097 1097 0 0 0-1.988-14.771c-.552-3.85-1.423-10.15-1.935-14s-1.432-10.375-2.046-14.5a1736 1736 0 0 1-3.873-27.5 817 817 0 0 0-2.079-14.5c-.556-3.575-1.454-10.1-1.996-14.5-1.944-15.801-3.654-20.547-10.007-27.763-6.487-7.371-13.563-10.159-25.748-10.148-6.63.006-10.674.434-11.45 1.21-.661.661-2.011 1.201-3.001 1.201s-1.8.45-1.8 1-.639 1-1.421 1C366.73 596 358 604.73 358 606.579c0 .782-.45 1.421-1 1.421s-1 .624-1 1.386c0 4.585-4.052 8.406-9.06 8.544-3.953.108-5.283-13.196-4.59-45.93.591-27.866 1.678-39.52 5.597-60 2.786-14.557 4.443-21.541 6.406-27 .89-2.475 1.624-5.486 1.632-6.691s.465-2.469 1.015-2.809 1-1.69 1-3 .45-2.66 1-3 1-1.716 1-3.059.369-2.441.819-2.441c.451 0 1.432-2.25 2.181-5s1.73-5 2.181-5c.45 0 .819-.9.819-2s.45-2 1-2 1-.9 1-2 .45-2 1-2 1-.863 1-1.917.337-2.066.75-2.25c.721-.32 4.545-6.918 6.708-11.575.573-1.233 1.379-2.246 1.792-2.25s.75-.497.75-1.095c0-1.218 5.663-9.601 8.047-11.913.852-.825 2.642-3.064 3.979-4.976s5.029-6.113 8.203-9.337c6.308-6.407 6.763-7.695 3.771-10.687-4.01-4.01-5.727-2.922-19.5 12.353-3.3 3.659-6.181 7.194-6.401 7.855-.221.66-1.234 2.094-2.25 3.185S374 415.761 374 416.23s-.9 1.82-2 3c-1.1 1.181-2 2.737-2 3.459 0 .721-.379 1.311-.843 1.311s-1.92 2.137-3.236 4.75-2.625 4.975-2.908 5.25c-1.148 1.118-5.013 9.286-5.013 10.595 0 .773-.45 1.405-1 1.405s-1 .59-1 1.312-.9 3.175-2 5.452-2 4.617-2 5.201-.397 1.844-.883 2.799c-1.916 3.766-3.877 9.007-5.232 13.986a807 807 0 0 1-1.951 7 260 260 0 0 0-2.046 7.75c-.539 2.2-1.437 5.8-1.996 8-1.867 7.341-3.22 15.002-5.874 33.25-3.673 25.259-3.889 71.035-.42 88.988.501 2.593.254 3.376-1.236 3.928-1.024.378-2.087.946-2.362 1.261-1.788 2.049-7.048 4.092-7.427 2.884-.746-2.381-2.779-12.441-4.61-22.811-.534-3.025-1.437-7.975-2.006-11-7.753-41.196-10.549-74.553-8.13-97 1.875-17.406 3.899-29.7 6.172-37.5.641-2.2 1.405-5.243 1.699-6.762.293-1.519.931-3.009 1.417-3.309.487-.301.885-1.619.885-2.929s.45-2.66 1-3 1-1.716 1-3.059.34-2.441.757-2.441c.416 0 1.332-1.913 2.036-4.25 1.249-4.144 11.057-24.754 12.255-25.75.331-.275 1.693-2.525 3.027-5s2.988-5.095 3.675-5.821c.688-.727 1.25-1.67 1.25-2.095s1.124-2.08 2.499-3.678c1.374-1.599 2.499-3.264 2.5-3.701s1.095-1.89 2.433-3.228c1.337-1.337 3.7-4.117 5.25-6.177 3.572-4.747 27.008-28.3 28.16-28.3.474 0 2.274-1.35 4.001-3 1.726-1.65 3.48-3.006 3.898-3.013.711-.013 2.041-.985 9.337-6.826 3.892-3.115 4.072-7.773.357-9.186-1.411-.536-2.648-.939-2.75-.896s-.86.335-1.685.648m103.5 16.376c-11.938.619-16.821 1.214-23.5 2.866-13.257 3.279-17.008 5.134-16.985 8.396.037 5.058 3.906 6.42 11.776 4.146 8.91-2.575 12.288-3.35 18.209-4.176 8.432-1.176 37.703-.866 45 .477 3.575.658 8.075 1.45 10 1.76s4.4.93 5.5 1.376c1.1.447 6.639 2.302 12.308 4.122s10.533 3.673 10.809 4.119 1.337.811 2.359.811c1.021 0 2.007.337 2.191.75s2.358 1.798 4.833 3.08c9.15 4.737 12.536 6.712 14.433 8.42 2.3 2.07 4.415 2.181 6.817.358 2.661-2.02 2.069-8.608-.774-8.608-.72 0-1.459-.364-1.643-.808-.482-1.169-9.496-7.192-10.763-7.192-.589 0-1.07-.45-1.07-1s-.9-1-2-1-2-.45-2-1-.9-1-2-1-2-.45-2-1-.81-1-1.8-1-2.228-.398-2.75-.884c-.522-.485-3.875-1.865-7.45-3.065s-7.4-2.551-8.5-3.003-4.025-1.358-6.5-2.017c-18.581-4.94-31.577-6.115-54.5-4.928m-216.562 27.179c-.86.67-2.66 3.243-4 5.718-1.341 2.475-2.663 4.725-2.938 5-.929.929-4.05 6.477-5.766 10.25-.938 2.063-2.05 3.75-2.47 3.75s-.764.567-.764 1.261-1.789 4.856-3.975 9.25-3.986 8.467-4 9.051-.925 2.925-2.025 5.202-2 4.81-2 5.629-.45 1.767-1 2.107-1 1.626-1 2.859-.372 2.669-.826 3.191c-.454.523-1.419 2.975-2.144 5.45a454 454 0 0 1-2.761 9c-.794 2.475-1.873 6.75-2.399 9.5a576 576 0 0 1-1.914 9.5c-4.409 20.743-5.01 26.954-5.61 58-.534 27.596-.241 33.13 2.754 52 2.241 14.118 6.288 31.947 7.997 35.236.497.955.903 2.616.903 3.691s.45 2.233 1 2.573 1 1.941 1 3.559.45 2.941 1 2.941 1 1.098 1 2.441.361 2.664.802 2.937 1.422 2.774 2.181 5.559c.758 2.784 1.747 5.063 2.198 5.063s.819.762.819 1.693c0 2.843 13.992 29.821 16.173 31.183 1.613 1.007 2.655 1.024 4.936.079 3.599-1.491 3.86-5.182.752-10.675-2.668-4.716-8.116-15.636-10.119-20.28a857 857 0 0 0-3.626-8.239c-1.164-2.607-2.116-5.419-2.116-6.25s-.45-1.511-1-1.511-1-1.098-1-2.441-.45-2.719-1-3.059-1-1.69-1-3-.4-2.629-.89-2.932c-.489-.302-1.131-2.016-1.427-3.809-.296-1.792-1.021-5.172-1.611-7.509-3.411-13.523-4.379-17.876-6.056-27.25-6.037-33.741-4.406-81.924 3.876-114.5a415 415 0 0 0 1.93-8c.502-2.2 1.641-6.025 2.531-8.5s1.624-5.294 1.632-6.264.535-2.77 1.171-4c1.96-3.791 2.46-5.074 3.894-9.986.763-2.613 1.738-4.75 2.168-4.75s.782-.9.782-2 .45-2 1-2 1-.665 1-1.478c0-1.448 13.789-29.537 14.983-30.522 1.7-1.401 5.017-8.43 5.017-10.629 0-4.593-4.493-6.872-8.062-4.089m449.812.11c-1.848 1.403-2.532 8.608-.817 8.608.513 0 1.217.897 1.565 1.994s1.193 2.559 1.876 3.25C738.103 386.99 754 418.876 754 420.598c0 .771.45 1.402 1 1.402s1 .906 1 2.014.437 2.795.971 3.75c1.47 2.626 8.653 24.983 10.037 31.236.67 3.025 1.617 6.534 2.105 7.797s.887 3.536.887 5.05.412 3.18.916 3.703c.503.522 1.123 3.65 1.377 6.95.253 3.3 1.078 10.725 1.833 16.5 3.021 23.103.906 70.392-4.001 89.5-.565 2.2-1.493 6.025-2.062 8.5s-1.532 6.3-2.142 8.5-1.339 5.462-1.623 7.25-.918 3.25-1.407 3.25c-.49 0-.891 1.323-.891 2.941s-.45 3.219-1 3.559-1 1.716-1 3.059-.369 2.441-.819 2.441c-.451 0-1.432 2.25-2.181 5s-1.73 5-2.181 5c-.45 0-.819.59-.819 1.312s-.9 3.175-2 5.452-2 4.836-2 5.688-.45 1.548-1 1.548-1 .9-1 2-.45 2-1 2-1 .43-1 .956-1.35 3.246-3 6.044c-3.446 5.844-3.771 8.993-1.171 11.345 2.491 2.254 5.07 2.078 7.306-.5 2.746-3.167 15.649-29.932 18.003-37.345.699-2.2 1.628-4.427 2.066-4.95.438-.522.796-1.985.796-3.25s.352-2.3.782-2.3 1.367-2.138 2.083-4.75 1.681-5.65 2.143-6.75c.463-1.1 1.12-3.35 1.461-5s1.079-4.8 1.638-7c1.66-6.521 4-18.828 6.085-32 1.639-10.358 1.667-67.806.038-79-1.403-9.64-2.761-17.362-4.177-23.75-.579-2.613-1.469-6.663-1.978-9a152 152 0 0 0-2.082-8.25c-.637-2.2-1.397-5.243-1.691-6.762-.293-1.519-.931-3.009-1.417-3.309-.487-.301-.885-1.619-.885-2.929s-.45-2.66-1-3-1-1.69-1-3-.45-2.66-1-3-1-1.271-1-2.07-.857-3.359-1.904-5.691a378 378 0 0 1-3.75-8.706c-2.418-5.85-12.331-25.383-13.21-26.03-.377-.276-1.798-2.64-3.159-5.253s-2.812-4.75-3.225-4.75-.752-.605-.752-1.345c0-3.587-5.144-5.621-8.25-3.263M617 380.98c-1.522.963-1.683 5.539-1.936 55.084L615 448.628l-6.08-.44c-3.344-.242-7.057.006-8.25.552-6.488 2.967-8.054 3.91-10.719 6.457-3.636 3.475-5.951 8.873-5.951 13.878 0 4.026 1.735 8.925 3.161 8.925.461 0 .839.645.839 1.433s.9 1.718 2 2.067 2 1.054 2 1.567.873.933 1.941.933 2.219.45 2.559 1c1.954 3.161 13.85.467 21-4.756 8.599-6.281 8.5-5.649 8.5-54.41 0-46.305.051-45.853-5.179-45.819-1.276.009-2.996.443-3.821.965m-197.75 24.56c-1.788 1.872-3.251 3.753-3.252 4.182-.002.428-1.351 2.353-2.998 4.278s-2.996 4.063-2.998 4.75c-.001.688-.339 1.254-.752 1.258-.898.009-3.25 4.852-3.25 6.691 0 .716-.399 1.301-.887 1.301-1.602 0-4.221 16.07-3.504 21.5.742 5.617 2.692 12.5 3.542 12.5.393 0 1.011.936 1.374 2.08 1.014 3.192 5.954 7.421 12.785 10.943 5.686 2.932 7.005 3.2 16.201 3.291 11.301.113 12.812-.358 11.555-3.6-.472-1.218-1.406-4.239-2.076-6.714s-1.558-5.4-1.973-6.5c-2.237-5.928-5.017-15.526-5.017-17.322 0-1.133-.45-2.338-1-2.678s-1-1.422-1-2.405c0-1.666-2.754-8.095-3.467-8.095-.177 0-1.782 1.365-3.568 3.032-4.276 3.995-4.884 12.698-1.215 17.372 2.608 3.321 2.82 5.169.821 7.167-3.024 3.024-10.571.597-10.571-3.4 0-.644-.34-1.171-.757-1.171-1.129 0-3.243-7.467-3.243-11.455 0-7.193 9.955-22.545 14.621-22.545 1.581 0 1.882-3.571.379-4.5-.55-.34-1-1.498-1-2.573s-.423-2.736-.94-3.691-1.2-2.974-1.519-4.486c-.754-3.578-2.305-3.383-6.291.79m-183.677 7.614c-.865 1.734-1.573 3.984-1.573 5 0 1.015-.352 1.846-.782 1.846s-1.405 2.137-2.168 4.75c-.762 2.613-1.705 5.425-2.095 6.25-1.338 2.829-2.955 8.643-2.955 10.621 0 1.088-.378 2.406-.839 2.929s-1.395 3.65-2.075 6.95c-.679 3.3-1.629 7.575-2.111 9.5-1.954 7.806-3.284 15.319-5.134 29-1.598 11.818-2.2 60.008-.894 71.5 1.87 16.44 3.953 29.342 6.097 37.75a944 944 0 0 1 1.873 7.5c2.619 10.703 4.004 15.104 6.058 19.25.47.949 2.172 1.5 4.634 1.5 3.765 0 3.901-.12 4.198-3.698.169-2.034-.451-5.859-1.378-8.5s-2.078-6.489-2.558-8.552a537 537 0 0 0-1.941-8c-1.101-4.377-2.187-10.436-3.898-21.75-5.387-35.625-4.715-71.327 2.014-107 .57-3.025 1.271-7.075 1.558-9 .286-1.925.88-4.4 1.319-5.5 1.616-4.041 3.077-9.187 3.077-10.835 0-.93.398-2.474.885-3.429.486-.955 1.868-4.886 3.069-8.736 1.202-3.85 3.054-8.908 4.116-11.239 3.325-7.303 1.945-11.261-3.925-11.261-2.365 0-3.331.667-4.572 3.154m543.677-1.658c-.687.781-1.25 2.121-1.25 2.978 0 2.457 2.407 9.526 3.243 9.526.417 0 .757 1.035.757 2.3s.372 2.728.826 3.25 1.406 2.975 2.114 5.45 1.653 5.4 2.099 6.5 1.089 3.35 1.43 5 1.05 4.688 1.576 6.75c4.626 18.162 5.249 21.535 8.169 44.25 3.472 27.005.603 74.238-6.151 101.25-.585 2.337-1.483 5.938-1.997 8a294 294 0 0 1-2.069 7.75c-2.047 7.208-2.23 8.434-1.621 10.862 1.823 7.265 11.624 1.786 11.624-6.498 0-1.04.424-2.673.942-3.628 2.266-4.179 6.489-25.491 9.756-49.236.416-3.025.754-19 .75-35.5-.006-27.867-.668-38.536-3.383-54.5a549 549 0 0 1-1.633-10.273c-.383-2.625-1.088-5.014-1.565-5.309s-.867-1.94-.867-3.656c0-3.436-.012-3.479-6.155-22.762-2.366-7.425-4.648-13.65-5.073-13.833-.425-.184-.772-1.127-.772-2.097 0-.969-.708-3.182-1.573-4.916-1.746-3.501-6.758-4.406-9.177-1.658m-491.984 3.983c-1.16 1.318-4.501 8.234-6.412 13.271a144 144 0 0 1-1.816 4.5c-1.666 3.898-8.259 24.072-9.232 28.25-.512 2.2-1.368 6.25-1.901 9l-1.939 10c-2.843 14.648-3.39 22.665-3.342 49 .028 15.535.556 31.339 1.186 35.5a1535 1535 0 0 0 2.192 14c.581 3.575 1.316 8.19 1.633 10.256s.979 4.005 1.471 4.309.894 1.507.894 2.673c0 2.252 1.663 8.109 3.123 10.998.482.955.877 2.868.877 4.25s.45 2.514 1 2.514 1 1.04 1 2.312c0 4.161 3.801 10.6 6.685 11.324 2.773.696 6.315-2.235 6.315-5.226 0-1.348-4.285-15.016-5.928-18.91-.81-1.919-2.012-6.205-3.997-14.25-9.455-38.312-9.079-85.54.977-122.75.595-2.2 1.442-5.575 1.884-7.5.977-4.257 5.684-18.368 7.505-22.5.727-1.65 2.088-4.8 3.024-7 .937-2.2 2.115-4.781 2.619-5.736 3.306-6.268-3.37-13.341-7.818-8.285m245.998.002c-.916 1.041-1.305 9.892-1.5 34.147l-.264 32.741-6-.242c-7.766-.313-12.479 1.691-18.491 7.864-14.169 14.546-.708 34.918 19.007 28.766 2.191-.684 3.984-1.584 3.984-2 0-.417.587-.757 1.305-.757 1.727 0 7.874-5.845 9.465-9 1.152-2.287 1.637-16.144 2.143-61.25.051-4.553.508-7.75 1.109-7.75.562 0 3.599 2.578 6.75 5.729l5.728 5.729V467.5l3.258.314c1.791.173 3.816-.277 4.5-1 3.118-3.298 5.107-15.852 2.742-17.314-.55-.34-1-1.407-1-2.37s-.9-2.719-2-3.9c-1.1-1.18-2-2.58-2-3.111 0-.53-2.578-3.137-5.729-5.792-7.958-6.705-9.557-8.388-11.235-11.827-4.025-8.248-8.397-10.855-11.772-7.019m195.986.015c-1.785 2.027-1.546 5.719.659 10.159 3.548 7.148 6.091 13.316 6.091 14.775 0 .799.45 1.73 1 2.07s1 1.716 1 3.059.401 2.441.891 2.441c.489 0 1.132 1.462 1.427 3.25.541 3.272 1.635 7.866 3.63 15.25 5.684 21.031 7.496 36.417 7.479 63.5-.016 25.24-1.828 40.571-7.445 63-.619 2.475-1.369 5.967-1.665 7.759s-.938 3.507-1.427 3.809-.89 1.622-.89 2.932-.45 2.66-1 3-1 1.626-1 2.859-.39 2.669-.868 3.191c-2.148 2.352-2.103 7.399.084 9.437 1.189 1.107 2.651 2.013 3.25 2.013 2.336 0 5.534-3.211 5.534-5.557 0-1.344.45-2.443 1-2.443s1-1.35 1-3 .45-3 1-3 1-1.35 1-3 .45-3 1-3 1-1.26 1-2.8.378-3.228.839-3.75c.461-.523 1.395-3.65 2.075-6.95.679-3.3 1.62-7.575 2.091-9.5.47-1.925 1.353-6.875 1.962-11a724 724 0 0 1 2.204-13.878c1.131-6.574 1.38-56.422.291-58.184-.331-.535-1.02-4.452-1.533-8.705-1.654-13.728-2.832-20.114-6.036-32.733-.559-2.2-1.265-5.243-1.57-6.762-.304-1.519-.952-3.009-1.438-3.309-.487-.301-.885-1.619-.885-2.929s-.361-2.605-.802-2.878c-.441-.272-1.422-2.774-2.181-5.559-.758-2.784-1.747-5.063-2.198-5.063s-.819-1.098-.819-2.441-.45-2.719-1-3.059-1-1.491-1-2.559-.394-1.941-.875-1.941-1.124-1.244-1.428-2.764c-1.19-5.953-7.303-9.311-10.447-5.74M444 429c0 1.65.45 3 1 3s1 .906 1 2.014.406 2.795.903 3.75c.496.955 1.46 3.761 2.142 6.236s2.525 8.378 4.097 13.119S456 466.504 456 467.44c0 .937.687 2.39 1.526 3.229 1.368 1.368 1.886 1.133 5-2.267 1.911-2.086 3.474-4.38 3.474-5.097s.34-1.305.757-1.305c2.385 0 4.462-17.128 2.243-18.5-.55-.34-1-1.486-1-2.548 0-3.372-9.02-12.952-12.195-12.952-.993 0-1.805-.45-1.805-1s-2.25-1-5-1c-4.889 0-5 .067-5 3m159.276 30.326c-6.171 2.247-10.103 9.544-7.359 13.657 1.817 2.724 12.204 1.987 15.275-1.084 4.637-4.637 4.804-11.181.314-12.308-1.276-.32-2.925-.775-3.663-1.011-.739-.235-2.794.101-4.567.746M519.5 493.351c-10.634 4.033-10.079 15.117.744 14.871 9.848-.225 15.625-9.892 8.506-14.233-3.617-2.205-4.888-2.293-9.25-.638m22.293 45.189c-.297.297-2.96.996-5.917 1.552A812 812 0 0 0 517 543.866c-2.475.527-6.975 1.467-10 2.09a768 768 0 0 0-10 2.133c-6.083 1.356-12.768 2.708-17 3.441-1.925.334-4.507 1.098-5.737 1.7l-2.236 1.094-.264 33.032-.263 33.032-5.731-.265c-9.385-.436-16.286 2.983-22.269 11.032-2.887 3.884-4.495 13.112-2.5 14.345.55.34 1 1.281 1 2.092 0 1.612 5.339 7.167 8.8 9.158 5.668 3.26 18.145.906 23.954-4.52 7.075-6.609 7.246-7.461 7.246-36.138 0-28.453-.243-27.389 6.5-28.453 3.92-.618 8.748-1.593 18.25-3.685 7.47-1.645 17.781-3.729 28.75-5.811 2.75-.522 5.351-.62 5.779-.217.429.403.654 6.961.5 14.573l-.279 13.84-7.151-.234c-4.229-.137-7.421.202-7.81.831-.361.585-1.53 1.064-2.598 1.064s-1.941.374-1.941.831-1.11 1.425-2.467 2.152c-8.079 4.323-10.844 19.76-4.787 26.716 2.657 3.051 9.738 6.301 13.73 6.301 4.044 0 11.524-2.105 11.524-3.243 0-.417.563-.758 1.25-.758 1.972-.002 6.328-4.188 8.638-8.299 2.06-3.668 2.112-4.84 2.112-47.53 0-32.71-.303-44.073-1.2-44.97-1.194-1.194-7.976-1.691-9.007-.66M535 551c-.825.533-2.941.976-4.703.985-1.762.008-4.237.422-5.5.92-2.107.829-4.791 1.423-19.297 4.268-2.75.539-6.35 1.348-8 1.798s-5.812 1.408-9.25 2.129l-6.25 1.313v7.793c0 4.287.428 7.794.951 7.794s3.561-.699 6.75-1.553c3.19-.853 8.274-2.02 11.299-2.592 5.473-1.035 8.512-1.646 19-3.818 7.867-1.63 14.994-3.032 18.75-3.688l3.25-.568V550l-2.75.015c-1.513.009-3.425.452-4.25.985m-158.496 52.309c-3.636 2.17-10.504 9.401-10.504 11.059 0 .898-.501 1.632-1.113 1.632-1.28 0-.636 15.971 1.108 27.5.996 6.585 1.628 11.158 3.97 28.75.531 3.987 1.45 10.625 2.042 14.75s1.534 11.1 2.095 15.5c.995 7.8 1.669 12.653 3.755 27 .559 3.85 1.334 9.475 1.721 12.5 1.132 8.839 5.499 15.959 11.422 18.625 8.501 3.827 12.714 4.3 18.929 2.125 5.79-2.027 14.071-9.628 14.071-12.916 0-1.009.493-1.834 1.097-1.834 1.222 0 .676-13.826-.989-25-1.391-9.343-3.253-22.901-6.11-44.5a842 842 0 0 0-1.996-14 612 612 0 0 1-1.994-14.5 889 889 0 0 0-3.782-27c-2.173-13.816-10.617-21.053-24.436-20.941-4.01.032-8.188.595-9.286 1.25m250.017.964c-7.493 4.194-11.791 10.611-12.878 19.227-.277 2.2-.985 7.487-1.573 11.75a3749 3749 0 0 0-2.035 15c-.917 6.886-1.697 12.434-4.076 29A862 862 0 0 0 604 694c-.88 7.197-1.964 15.004-4.023 29-3.019 20.507-2.36 25.46 4.348 32.69 6.694 7.215 16.108 10.108 23.378 7.185 13.774-5.537 15.303-8.377 18.788-34.875.325-2.475 1.038-7.65 1.585-11.5s1.459-10.375 2.029-14.5 1.426-10.2 1.904-13.5 1.328-9.6 1.889-14 1.507-11.375 2.102-15.5c2.616-18.13 3.071-22.052 3.639-31.342.445-7.283.25-10.532-.75-12.5-1.917-3.773-9.328-11.158-11.198-11.158-.865 0-1.851-.45-2.191-1-1.25-2.023-14.703-1.12-18.979 1.273m-96.964 12.954c-10.681 3.878-10.202 15.24.635 15.077 7.598-.115 14.641-8.614 10.537-12.717-3.476-3.477-6.398-4.094-11.172-2.36M348 629c-.825.533-2.512.976-3.75.985-1.238.008-2.25.465-2.25 1.015s-.9 1-2 1-2 .45-2 1-.9 1-2 1-2 .353-2 .784-1.409 1.617-3.131 2.634c-8.704 5.142-17.359 19.476-19.841 32.861-1.261 6.803-.9 11.968 2.01 28.781.529 3.058.962 6.744.962 8.191s.45 2.909 1 3.249 1 1.453 1 2.473c0 6.264 14.318 25.208 21.25 28.116 1.512.635 2.75 1.549 2.75 2.032s.9.879 2 .879 2 .45 2 1 1.098 1 2.441 1 2.68.387 2.973.86c.677 1.097 16.673 2.427 18.901 1.573.92-.354 1.42-1.053 1.11-1.555-.31-.501-.969-4.392-1.463-8.645a715 715 0 0 0-1.931-14.983 3403 3403 0 0 1-4.1-29.75c-1.513-11.368-2.685-19.865-3.931-28.5-1.341-9.293-2.983-22.038-3.608-28-.961-9.175-2.191-10.715-6.392-8m323.431.112c-.378.611-1.095 4.324-1.594 8.25-1.538 12.113-2.72 20.821-3.888 28.638a861 861 0 0 0-1.959 14c-.462 3.575-1.323 9.987-1.915 14.25l-2.15 15.5c-2.409 17.354-2.899 21.111-3.812 29.225-.524 4.661-.701 8.883-.393 9.382 1.237 2 24.28-1.417 24.28-3.6 0-.417.9-.757 2-.757s2-.395 2-.879c0-.483 1.237-1.397 2.75-2.032 7.222-3.029 18.019-17.151 21.644-28.309 1.381-4.252 1.765-6.395 3.724-20.78.562-4.125 1.269-9.261 1.572-11.413.682-4.845-2.697-21.545-4.864-24.037-.454-.522-.826-1.76-.826-2.75s-.374-1.8-.831-1.8-1.47-1.237-2.25-2.75c-1.557-3.017-10.537-12.25-11.914-12.25-.474 0-1.457-.565-2.184-1.256-2.222-2.112-15.374-7.744-18.083-7.744-.341 0-.929.5-1.307 1.112m-212.313 2.611c-6.874 1.3-10.124 12.374-4.411 15.027 3.771 1.751 5.954 1.569 10.274-.859 7.457-4.192 8.546-12.936 1.78-14.289-3.142-.628-3.732-.619-7.643.121"/></svg>