<svg xmlns="http://www.w3.org/2000/svg" viewBox="0 0 1024 1024"><path fill="#00e5cc" d="M321 292.955c-.825.558-4.897 1.021-9.05 1.03-4.153.008-7.978.426-8.5.928-.522.503-5.225 1.157-10.45 1.453s-12.2.996-15.5 1.554c-3.3.557-7.687 1.303-9.75 1.656-2.062.354-3.75 1.044-3.75 1.533 0 .49-1.35.891-3 .891s-3 .45-3 1-.9 1-2 1-2 .45-2 1-.59 1-1.311 1c-.722 0-2.288.909-3.481 2.021s-2.452 1.961-2.797 1.888c-.908-.192-11.538 10.297-10.991 10.845.253.252-.413 1.396-1.48 2.541s-1.94 2.672-1.94 3.394c0 .721-.45 1.311-1 1.311s-1 1.35-1 3-.45 3-1 3-1 1.485-1 3.3-.428 3.728-.952 4.252-1.068 2.67-1.209 4.77-.613 4.038-1.048 4.307-.791 2.037-.791 3.93-.45 3.441-1 3.441-1 1.605-1 3.566-.432 4.372-.959 5.358c-.528.985-1.07 3.431-1.204 5.434-.135 2.003-.604 3.642-1.041 3.642-.438 0-.796 1.773-.796 3.941s-.45 4.219-1 4.559-1 2.14-1 4-.45 3.66-1 4-1 2.616-1 5.059-.45 4.441-1 4.441-1 1.773-1 3.941-.45 4.219-1 4.559-1 2.579-1 4.976-.43 4.507-.956 4.691c-.526.183-1.068 2.021-1.205 4.083-.136 2.063-.606 3.75-1.043 3.75-.438 0-.796 1.773-.796 3.941s-.402 4.19-.894 4.494-1.131 2.243-1.419 4.309-1.051 5.781-1.695 8.256-1.401 6.413-1.682 8.75-.916 4.25-1.411 4.25c-.494 0-.899 1.773-.899 3.941s-.45 4.219-1 4.559-1 1.971-1 3.625-.432 3.813-.959 4.799c-.528.985-1.07 3.431-1.204 5.434-.135 2.003-.604 3.642-1.041 3.642-.438 0-.796 1.773-.796 3.941s-.45 4.219-1 4.559-1 2.616-1 5.059-.45 4.441-1 4.441-1 1.773-1 3.941-.45 4.219-1 4.559-1 1.797-1 3.238-.42 4.002-.932 5.691c-.513 1.689-1.376 4.871-1.918 7.071a266 266 0 0 1-2.132 8c-.63 2.2-1.285 4.675-1.455 5.5-1.161 5.646-1.934 8.111-2.692 8.58-.479.296-.871 1.636-.871 2.979s-.45 2.441-1 2.441-1 .9-1 2-.367 2-.814 2c-1.166 0-5.186 7.826-5.186 10.095 0 1.048-.45 1.905-1 1.905s-1 .707-1 1.571c0 .865-.679 2.251-1.509 3.081s-1.254 1.923-.941 2.429c.312.505.091.919-.491.919s-1.059.661-1.059 1.47-.872 3.022-1.938 4.919-2.078 4.274-2.25 5.28c-.171 1.007-.879 2.43-1.571 3.162-.693.731-1.027 1.706-.744 2.164.284.459.096.985-.416 1.17s-1.077.999-1.256 1.811-.892 2.086-1.584 2.831-1.004 1.768-.691 2.274c.312.505.091.919-.491.919s-1.059.873-1.059 1.941-.45 2.219-1 2.559-1 2.166-1 4.059-.473 3.441-1.051 3.441c-1.843 0 .191 41.444 2.132 43.45.505.523.919 3.56.919 6.75 0 3.2.448 5.8 1 5.8.55 0 1 2.448 1 5.441s.45 5.719 1 6.059 1 2.526 1 4.859.404 4.668.898 5.191c.833.882 1.223 2.909 2.734 14.2.313 2.337.974 4.25 1.469 4.25.494 0 .846.337.781.75-.348 2.199.329 4.099 2.157 6.061 1.121 1.204 1.718 2.189 1.326 2.189-.393 0 .343 1.125 1.635 2.5s2.945 2.5 3.674 2.5 1.213.337 1.076.75c-.138.413-.005.75.295.75s1.792 1.246 3.315 2.769 3.152 2.533 3.619 2.244 1.001-.106 1.186.406c.184.512.999 1.077 1.811 1.256s2.086.892 2.831 1.584 1.737 1.023 2.205.734 1.132-.068 1.478.491c.345.559 1.726 1.016 3.069 1.016s2.441.45 2.441 1 1.71 1 3.8 1 4.228.401 4.75.891c2.599 2.438 38.366 2.747 44.45.384.825-.32 2.625-.752 4-.959 1.375-.208 3.175-.656 4-.997s2.39-.79 3.479-.998 2.415-.815 2.95-1.35c.534-.534 1.781-.971 2.771-.971s1.8-.477 1.8-1.059.414-.803.919-.491 1.529.002 2.274-.691c.745-.692 2.019-1.405 2.831-1.584s1.626-.741 1.809-1.25.932-.925 1.663-.925c1.964 0 13.691-11.888 12.935-13.112-.446-.722 3.821-.874 13.71-.489 53.687 2.091 64.226 2.538 71.359 3.029 49.455 3.402 242.4 1.764 351.25-2.981 13.408-.585 15.25-.477 15.25.889 0 1.939 9.92 11.832 11.12 11.09.484-.299.88-.067.88.515s.975 1.059 2.167 1.059 1.859.307 1.483.683c-.819.819 6.478 4.356 7.581 3.674.423-.261.769.002.769.584s.873 1.059 1.941 1.059 2.219.45 2.559 1 1.69 1 3 1 2.66.45 3 1 2.579 1 4.976 1 4.52.487 4.718 1.082c.485 1.454 39.712 1.412 41.169-.045.57-.57 2.447-1.037 4.17-1.037 1.724 0 3.445-.312 3.826-.692.381-.381 1.684-.844 2.895-1.029s2.64-.773 3.175-1.308c.534-.534 1.781-.971 2.771-.971s1.8-.45 1.8-1 .9-1 2-1 2-.45 2-1 .735-1 1.633-1 2.439-.93 3.424-2.066 2.163-2.081 2.617-2.1.676-.552.493-1.184c-.184-.633.008-.808.425-.391.962.962 5.408-3.142 5.408-4.992 0-.762.45-1.107 1-.767s1-.084 1-.941.45-1.559 1-1.559 1-.873 1-1.941.45-2.219 1-2.559 1-2.076 1-3.859.424-3.668.943-4.191 1.049-3.312 1.178-6.2c.13-2.888.606-5.25 1.058-5.25.451 0 .821-2.25.821-5s.45-5 1-5 1-2.223 1-4.941.45-5.219 1-5.559 1-2.976 1-5.859.414-5.669.919-6.191c1.94-2.005 3.997-45.45 2.151-45.45-.588 0-1.07-1.548-1.07-3.441s-.45-3.719-1-4.059-1-1.491-1-2.559-.45-1.941-1-1.941-1-.9-1-2-.45-2-1-2-1-1.152-1-2.559c0-1.451-.433-2.292-1-1.941-.569.352-1-.509-1-2s-.431-2.352-1-2c-.565.349-1-.47-1-1.882 0-1.375-.45-2.778-1-3.118s-1-1.491-1-2.559-.45-1.941-1-1.941-1-.9-1-2-.45-2-1-2-1-.9-1-2-.477-2-1.059-2-.803-.414-.491-.919-.111-1.599-.941-2.429-1.509-2.171-1.509-2.979-1.35-4.036-3-7.173-3-6.332-3-7.102c0-.769-.45-1.398-1-1.398s-1-.9-1-2-.352-2-.782-2-.884-1.237-1.009-2.75-.672-2.9-1.218-3.083-.991-2.096-.991-4.25-.45-3.917-1-3.917-1-1.998-1-4.441-.45-4.719-1-5.059-1-2.14-1-4-.45-3.66-1-4-1-2.076-1-3.859-.404-3.669-.898-4.191c-.493-.523-1.179-2.975-1.523-5.45-1.39-9.982-1.828-12.036-2.685-12.565-.492-.304-.894-2.075-.894-3.935s-.45-3.66-1-4-1-2.391-1-4.559-.405-3.941-.899-3.941c-.495 0-1.149-1.913-1.454-4.25-1.063-8.149-1.874-11.772-2.757-12.318-.49-.303-.89-2.297-.89-4.432s-.45-4.16-1-4.5-1-2.391-1-4.559-.45-3.941-1-3.941-1-1.8-1-4-.45-4-1-4-1-1.935-1-4.3-.404-4.728-.898-5.25c-.493-.523-1.168-2.863-1.5-5.2-1.488-10.498-1.868-12.296-2.708-12.815-.492-.304-.894-2.075-.894-3.935s-.45-3.66-1-4-1-2.365-1-4.5-.45-4.16-1-4.5-1-2.365-1-4.5-.45-4.16-1-4.5-1-2.14-1-4-.45-3.66-1-4-1-2.14-1-4-.45-3.66-1-4-1-2.59-1-5-.45-4.66-1-5-1-2.391-1-4.559-.45-3.941-1-3.941-1-1.8-1-4-.45-4-1-4-1-1.548-1-3.441-.45-3.719-1-4.059-1-1.491-1-2.559-.477-1.941-1.059-1.941-.803-.414-.491-.919-.111-1.599-.941-2.429-1.509-2.018-1.509-2.64c0-.621-.45-.852-1-.512s-1-.122-1-1.027c0-1.95-10.66-12.473-12.634-12.473-.751 0-1.366-.45-1.366-1s-.694-1-1.542-1-2.508-.9-3.688-2-3.161-2-4.4-2c-1.238 0-2.53-.45-2.87-1s-2.166-1-4.059-1-3.441-.45-3.441-1c0-.552-2.6-1-5.8-1-3.19 0-6.227-.401-6.75-.891s-5-1.194-9.95-1.563c-4.95-.37-13.05-1.121-18-1.67-11.844-1.313-20.525-1.3-34.5.053-6.325.612-16.675 1.336-23 1.609s-13.525.734-16 1.025c-22.991 2.707-182.845 3.794-226 1.538-38.185-1.997-72.761-4.248-86-5.599-3.078-.315-6.16-.115-7 .453M307.5 299c-.34.55-4.162 1-8.494 1s-8.994.425-10.36.945c-1.367.519-5.221 1.043-8.566 1.164-3.344.12-6.08.595-6.08 1.055s-1.8.836-4 .836-4 .45-4 1-.612 1-1.36 1c-8.876 0-30.64 20.624-30.64 29.035 0 1.016-.45 2.125-1 2.465s-1 2.14-1 4-.45 3.66-1 4-1 2.14-1 4-.45 3.66-1 4-1 2.391-1 4.559-.45 3.941-1 3.941-1 1.998-1 4.441-.45 4.719-1 5.059-1 2.391-1 4.559-.45 3.941-1 3.941-1 1.8-1 4-.45 4-1 4-1 1.998-1 4.441-.45 4.719-1 5.059-1 2.14-1 4-.45 3.66-1 4-1 2.391-1 4.559-.45 3.941-1 3.941-1 2.25-1 5-.45 5-1 5-1 1.8-1 4-.45 4-1 4-1 1.998-1 4.441-.45 4.719-1 5.059-1 2.14-1 4-.45 3.66-1 4-1 2.14-1 4-.45 3.66-1 4-1 2.391-1 4.559-.45 3.941-1 3.941-1 1.998-1 4.441-.45 4.719-1 5.059-1 2.14-1 4-.45 3.66-1 4-1 2.59-1 5-.45 4.66-1 5-1 2.14-1 4-.45 3.66-1 4-1 2.391-1 4.559-.405 3.941-.9 3.941-.9 1.521-.9 3.379-.495 4.304-1.1 5.434c-.605 1.131-1.1 3.409-1.1 5.062s-.4 3.254-.89 3.557c-.883.546-1.694 4.169-2.757 12.318-.305 2.337-.959 4.25-1.454 4.25-.494 0-.899 1.8-.899 4s-.45 4-1 4-1 1.935-1 4.3-.483 4.783-1.074 5.374c-1.433 1.433-1.594 22.812-.185 24.526.588.715 1.224 2.2 1.414 3.3s1.333 3.094 2.541 4.432c1.209 1.338 2.055 2.688 1.882 3-.377.682 3.504 4.541 4.922 4.894.55.136 2.016 1.131 3.258 2.211s2.929 1.963 3.75 1.963c.82 0 1.492.45 1.492 1s.9 1 2 1 2 .352 2 .782 1.237.884 2.75 1.009 2.9.672 3.083 1.218 1.898.991 3.809.991 3.222.411 2.911.914c-2.536 4.103 112.86 2.231 117.947-1.913.55-.448 2.8-.938 5-1.089s4.724-.625 5.608-1.053 3.278-.89 5.32-1.027c2.042-.138 3.932-.606 4.201-1.041S356.64 606 358.5 606s3.66-.45 4-1 2.14-1 4-1 3.66-.45 4-1 2.166-1 4.059-1 3.441-.45 3.441-1 1.323-1 2.941-1 3.219-.45 3.559-1 1.69-1 3-1 2.66-.45 3-1 1.948-1 3.573-1 3.736-.395 4.691-.877c3.302-1.669 8.89-3.123 11.998-3.123 1.716 0 3.398-.45 3.738-1s2.526-1 4.859-1 4.668-.406 5.191-.903c1.036-.985 7.054-1.898 17.95-2.723 3.85-.291 7.428-.945 7.95-1.452s4.595-.922 9.05-.922 8.559-.459 9.121-1.021c1.2-1.2 84.804-1.463 86.683-.272.658.417 5.696 1.092 11.196 1.501 15.324 1.14 20.816 1.806 23 2.788 1.1.495 4.025 1.122 6.5 1.393s6.975.993 10 1.603 7.19 1.359 9.256 1.664c2.066.306 4.005.958 4.309 1.45s1.876.894 3.494.894 2.941.354 2.941.787 1.455.898 3.234 1.034 3.668.681 4.2 1.213c.531.531 2.226.966 3.766.966s2.8.45 2.8 1 1.548 1 3.441 1 3.688.4 3.991.89c.302.489 2.129 1.164 4.059 1.5l7.009 1.219c1.925.336 3.5.965 3.5 1.4s1.913 1.033 4.25 1.332c2.337.298 6.725 1.044 9.75 1.659s7.525 1.36 10 1.656 4.928.944 5.45 1.441 3.758.903 7.191.903 6.482.389 6.776.865c1.482 2.399 85.87 3.517 97.583 1.293a957 957 0 0 1 9.75-1.805c1.788-.315 3.25-.973 3.25-1.462 0-.49.632-.891 1.405-.891 1.991 0 9.64-4.089 12.527-6.696 1.338-1.209 2.811-1.963 3.275-1.676.463.286.719-.075.568-.804-.151-.728.287-1.212.975-1.074s1.137-.313 1-1c-.138-.688.346-1.126 1.074-.975s1.09-.105.804-.568c-.287-.464.467-1.954 1.676-3.312s2.345-3.123 2.526-3.922c.182-.8.633-1.683 1.004-1.964.37-.28.823-1.859 1.006-3.509.182-1.65.743-3.427 1.246-3.95 1.236-1.285 1.166-10.276-.086-11.05-.55-.34-1-2.421-1-4.625 0-2.203-.432-4.813-.959-5.799-.528-.985-1.07-3.431-1.204-5.434-.135-2.003-.604-3.642-1.041-3.642-.438 0-.796-1.8-.796-4s-.45-4-1-4-1-1.773-1-3.941-.45-4.219-1-4.559-1-2.616-1-5.059-.45-4.441-1-4.441-1-1.773-1-3.941-.45-4.219-1-4.559-1-2.166-1-4.059-.45-3.441-1-3.441-1-1.773-1-3.941-.45-4.219-1-4.559-1-2.14-1-4-.45-3.66-1-4-1-2.616-1-5.059-.45-4.441-1-4.441-1-1.8-1-4-.405-4-.899-4c-.495 0-1.156-1.913-1.469-4.25-1.437-10.739-1.928-13.284-2.653-13.75-.428-.275-.913-2.075-1.077-4s-.605-3.95-.981-4.5c-.69-1.009-1.55-5.446-2.568-13.25-.305-2.337-.959-4.25-1.454-4.25-.494 0-.899-1.71-.899-3.8s-.408-4.228-.907-4.75c-.917-.961-1.863-5.441-2.788-13.2-.278-2.337-.866-4.25-1.305-4.25s-1.029-1.913-1.31-4.25-1.042-6.275-1.69-8.75-1.409-6.413-1.69-8.75-.916-4.25-1.411-4.25c-.494 0-.899-1.8-.899-4s-.45-4-1-4-1-1.773-1-3.941-.45-4.219-1-4.559-1-2.616-1-5.059-.45-4.441-1-4.441-1-1.773-1-3.941-.45-4.219-1-4.559-1-2.076-1-3.859-.412-3.669-.916-4.191c-.504-.523-1.067-1.85-1.25-2.95s-.635-2.229-1.004-2.509c-.368-.281-.818-1.164-1-1.964-.181-.799-1.318-2.564-2.526-3.922-1.209-1.358-1.963-2.848-1.676-3.312.286-.463-.075-.719-.804-.568-.728.151-1.212-.287-1.074-.975s-.313-1.137-1-1c-.688.138-1.126-.346-.975-1.074s-.113-1.085-.587-.792c-.473.292-2.432-.912-4.351-2.676s-4.132-3.354-4.914-3.533c-.783-.179-1.574-.744-1.758-1.256-.185-.512-.711-.7-1.17-.416-.458.283-1.625-.276-2.593-1.244-.968-.967-1.791-1.565-1.831-1.327-.039.238-1.196.076-2.571-.36s-3.85-1.001-5.5-1.255-3.428-.88-3.95-1.39-3.758-.927-7.191-.927-6.46-.354-6.727-.786-4.433-.915-9.258-1.072c-4.824-.156-9.553-.702-10.507-1.213-.955-.511-5.14-.929-9.301-.929H700v4.3c0 2.365-.409 4.728-.908 5.25-.85.89-1.301 3.803-2.703 17.45-.311 3.025-.975 5.927-1.477 6.45-.502.522-.912 3.56-.912 6.75 0 3.2-.448 5.8-1 5.8-.55 0-1 2.385-1 5.3s-.404 5.728-.898 6.25c-.845.895-1.391 3.784-2.731 14.45-.311 2.475-.971 4.927-1.468 5.45-.497.522-.903 2.408-.903 4.191s-.45 3.519-1 3.859-1 1.941-1 3.559-.45 2.941-1 2.941-1 1.35-1 3-.45 3-1 3-1 1.098-1 2.441-.45 2.719-1 3.059-1 1.491-1 2.559-.45 1.941-1 1.941-1 .9-1 2-.45 2-1 2-1 .702-1 1.559-.45 1.281-1 .941-1 .309-1 1.441-.45 2.059-1 2.059-1 .702-1 1.559-.45 1.281-1 .941-1 .124-1 1.03c0 1.797-13.845 15.684-14.954 14.998-.375-.231-1.313.455-2.085 1.526-.771 1.07-2.203 1.946-3.182 1.946-.978 0-1.779.45-1.779 1s-.9 1-2 1-2 .45-2 1-.873 1-1.941 1-2.219.45-2.559 1-1.69 1-3 1-2.66.45-3 1-2.166 1-4.059 1-3.441.45-3.441 1-1.323 1-2.941 1-3.219.45-3.559 1-2.526 1-4.859 1-4.669.414-5.191.919c-1.02.987-8.433 1.753-25.95 2.681-6.05.32-11.526 1.017-12.17 1.547-1.383 1.14-108.62 1.41-110.452.278-.66-.409-7.091-1.105-14.289-1.549-17.839-1.099-24.914-1.907-26.039-2.975-.522-.495-3.11-.901-5.75-.901s-4.8-.354-4.8-.787-1.455-.898-3.234-1.034-3.668-.681-4.2-1.213c-.531-.531-2.226-.966-3.766-.966s-2.8-.352-2.8-.782-1.238-.884-2.75-1.009-2.9-.672-3.083-1.218-1.395-.991-2.691-.991c-1.297 0-2.636-.45-2.976-1s-1.491-1-2.559-1-1.941-.45-1.941-1-.702-1-1.559-1-1.281-.45-.941-1-.309-1-1.441-1-2.059-.45-2.059-1-.702-1-1.559-1-1.281-.45-.941-1-.067-1-.905-1c-1.69 0-13.748-11.943-13.107-12.981.223-.36-.471-1.286-1.542-2.058-1.07-.771-1.946-2.203-1.946-3.182 0-.978-.45-1.779-1-1.779s-1-.675-1-1.5-.337-1.504-.75-1.508c-1.015-.01-3.25-4.957-3.25-7.191 0-.991-.45-1.801-1-1.801s-1-.873-1-1.941-.45-2.219-1-2.559-1-1.941-1-3.559-.45-2.941-1-2.941-1-1.548-1-3.441-.402-3.69-.894-3.994c-.917-.566-1.778-5.056-2.743-14.315-.302-2.887-.956-5.25-1.456-5.25-.499 0-.907-2.212-.907-4.917s-.426-5.066-.946-5.25c-.521-.183-1.056-2.497-1.19-5.141s-.608-5.034-1.054-5.309c-.445-.276-.81-3.084-.81-6.242s-.409-6.169-.908-6.691c-.907-.95-1.558-5.57-2.702-19.2-.335-3.988-1.009-7.25-1.499-7.25s-.891-.9-.891-2c0-1.832-.667-2-7.941-2-4.368 0-8.219.45-8.559 1m20.5-.064c0 .585.45 1.064 1 1.064.554 0 1 2.647 1 5.941 0 3.268.45 6.219 1 6.559s1 3.04 1 6 .45 5.66 1 6 1 3.516 1 7.059.408 6.441.907 6.441 1.164 2.363 1.477 5.25c1.559 14.364 1.866 16.319 2.708 17.2.499.522.908 2.858.908 5.191s.45 4.519 1 4.859 1 2.616 1 5.059.45 4.441 1 4.441 1 1.323 1 2.941.45 3.219 1 3.559 1 1.626 1 2.859.437 2.678.971 3.212c.535.535 1.114 1.862 1.288 2.95.41 2.573 5.655 13.473 7.567 15.729.816.962 1.188 1.75.825 1.75-.362 0 1.34 2.115 3.781 4.699 2.442 2.585 4.21 5.071 3.93 5.525-.281.454.085.702.814.551.728-.151 1.2.321 1.049 1.049-.151.729.105 1.09.568.804.464-.287 2.03.58 3.481 1.926 1.451 1.345 3.135 2.446 3.741 2.446s.825.45.485 1 .309 1 1.441 1 2.059.477 2.059 1.059.419.8.931.484 1.196-.147 1.52.377c.768 1.243 6.472 4.08 8.203 4.08.74 0 1.346.45 1.346 1s.9 1 2 1c1.81 0 2-.667 2-7v-7h-6c-5.333 0-6-.222-6-1.999 0-1.989.68-2 130-1.993 129.182.006 130 .018 130 1.999 0 1.714-.672 1.993-4.8 1.993-2.64 0-5.34.54-6 1.2-1.304 1.304-1.626 9.678-.435 11.3 1.012 1.378 3.235 1.721 3.235.5 0-.55 1.377-1 3.059-1 1.785 0 2.802-.417 2.441-1-.548-.887 1.555-1.488 3.824-1.094.454.079.54-.318.191-.881-.348-.564.013-1.025.804-1.025.79 0 1.992-.67 2.672-1.489s1.553-1.293 1.94-1.054c.388.24 1.336-.44 2.108-1.511.771-1.07 2.203-1.946 3.182-1.946.978 0 1.666-.562 1.529-1.25-.138-.687.312-1.138 1-1s1.137-.313 1-1c-.138-.688.312-1.138 1-1s1.137-.313 1-1c-.138-.688.313-1.138 1-1s1.25-.358 1.25-1.102c0-.743 1.237-2.663 2.75-4.267 1.513-1.603 3.389-4.145 4.169-5.648s1.793-2.733 2.25-2.733.831-.9.831-2 .45-2 1-2 1-.9 1-2 .45-2 1-2 1-1.35 1-3 .45-3 1-3 1-1.35 1-3 .45-3 1-3 1-1.8 1-4 .45-4 1-4 1-1.8 1-4 .45-4 1-4 1-1.935 1-4.3.409-4.728.908-5.25c.842-.881 1.149-2.836 2.708-17.2.313-2.887.939-5.25 1.391-5.25s1.075-2.812 1.383-6.25c1.222-13.626 1.83-17.75 2.617-17.75.452 0 1.048-2.812 1.324-6.25.276-3.437.652-7.375.835-8.75l.334-2.5-9 .191c-4.95.105-15.525.657-23.5 1.227-37.678 2.689-42.467 2.887-100.5 4.15-65.839 1.433-141.274-.136-198-4.119-27.355-1.921-36.5-2.175-36.5-1.013m34 55.975c0 .599-.9 1.089-2 1.089s-2 .45-2 1-.546.887-1.213.75c-.668-.137-1.674.762-2.238 2-.563 1.238-1.367 2.25-1.786 2.25s-.763 2.25-.763 5 .45 5 1 5 1 1.548 1 3.441.45 3.719 1 4.059 1 1.941 1 3.559.45 2.941 1 2.941 1 .9 1 2 .45 2 1 2 1 .69 1 1.533c0 .844 1.56 3.094 3.467 5 1.906 1.907 4.156 3.467 5 3.467.843 0 1.533.45 1.533 1s.873 1 1.941 1 2.175.379 2.461.842c1.181 1.91 39.788 2.621 141.098 2.599 101.424-.022 134.5-.659 134.5-2.591 0-.467 1.096-.85 2.435-.85 3.283 0 13.565-10.219 13.565-13.482 0-1.293.446-2.501.991-2.685.546-.183 1.094-1.571 1.218-3.083.125-1.512.579-2.75 1.009-2.75s.782-1.323.782-2.941.45-3.219 1-3.559c1.157-.715 1.38-11.5.237-11.5-.419 0-1.223-1.012-1.786-2.25-.564-1.238-1.57-2.137-2.238-2-.667.138-1.213-.2-1.213-.75s-.9-1-2-1-2-.488-2-1.085c0-.73-2.21-.898-6.75-.512-47.653 4.052-244.052 4.058-287 .009-4.201-.396-6.25-.233-6.25.499m-.305 4.732c-3.997 2.164-6.395 7.524-4.868 10.878.645 1.415 1.189 3.564 1.208 4.776.02 1.212.658 3.328 1.419 4.702l1.383 2.499.741-2.954c.408-1.625 1.887-4.1 3.287-5.499l2.544-2.545H512.6c141.373 0 145.245.05 147.295 1.905 1.158 1.048 2.105 2.934 2.105 4.191 0 5.154 2.82 3.695 3.687-1.907.271-1.754.903-3.339 1.403-3.522 1.937-.71.965-7.771-1.34-9.743-3.612-3.089-6.078-4.134-8.75-3.707-16.848 2.687-217.819 4.998-232 2.667-1.925-.317-14.3-.972-27.5-1.456s-26.025-1.088-28.5-1.342c-2.915-.299-5.488.073-7.305 1.057M367.2 377.2c-.66.66-1.2 2.91-1.2 5v3.8h21.393c23.623 0 22.607.296 22.607-6.582V376h-20.8c-14.844 0-21.144.344-22 1.2M414 381v5h196v-10H414zm200-.013v5.051l22.25-.269 22.25-.269-.194-2.5c-.59-7.59 1.808-6.849-22.518-6.963L614 375.936zm-248 10.981c0 1.174.658 2.032 1.559 2.032.924 0 1.268.47.846 1.155-.423.684-.277.884.36.49.591-.365 1.753.016 2.583.846S373.763 398 374.87 398s2.29.45 2.63 1c.37.599 7.027 1 16.608 1h15.991l-.225-4.93-.225-4.93-21.825-.102c-21.306-.1-21.824-.054-21.824 1.93m48.381 3.301.119 5.231 7 .682c8.491.827 184.866.999 186.994.182 1.084-.416 1.506-2.092 1.506-5.98v-5.403l-97.869.029-97.869.028zM615.2 391.2c-.66.66-1.2 2.91-1.2 5v3.8h15.55c11.677 0 16.252-.364 18.373-1.46 1.553-.803 3.105-1.178 3.45-.833.345.344.627.101.627-.54 0-.642.707-1.167 1.571-1.167 2.021 0 4.429-2.408 4.429-4.429 0-2.048-40.769-2.402-42.8-.371m-216.687 36.758c-.799 2.519-.397 14.088.471 13.552.363-.224 1.916.244 3.452 1.041 5.233 2.715 5.564 2.266 5.564-7.551v-9h-4.433c-3.522 0-4.56.402-5.054 1.958m14.687-.758c-1.603 1.603-1.603 15.997 0 17.6.66.66 2.91 1.2 5 1.2h3.8v-20h-3.8c-2.09 0-4.34.54-5 1.2m14.527 9.028c-.665 12.079-.788 11.772 4.707 11.772 5.035 0 5.566-1.232 5.566-12.925 0-7.691-.923-9.075-6.055-9.075h-3.654zM442 437.814v11.913l4.75-.114 4.75-.113.167-11.575.166-11.575-4.916-.225-4.917-.224zm15.2-10.614c-.784.784-1.2 4.911-1.2 11.899v10.7l4.571.363c2.513.2 4.763.17 5-.066.236-.236.429-5.754.429-12.263V426h-3.8c-2.09 0-4.34.54-5 1.2m14 0c-.783.783-1.2 4.906-1.2 11.878 0 12.137.578 13.239 6.68 12.737l3.82-.315-.073-6.5c-.04-3.575-.153-9.312-.25-12.75L480 426h-3.8c-2.09 0-4.34.54-5 1.2M486 439v13h10v-11.8c0-13.248-.416-14.2-6.2-14.2H486zm15.25-12.338c-.906.366-1.25 3.924-1.25 12.921V452h10.088l-.148-13-.148-13-3.646.079c-2.005.043-4.208.306-4.896.583m13.95.538c-.798.798-1.2 5.156-1.2 13V452h10v-26h-3.8c-2.09 0-4.34.54-5 1.2m14 0c-1.259 1.259-1.743 20.222-.593 23.218.426 1.11 1.917 1.582 5 1.582H538v-26h-3.8c-2.09 0-4.34.54-5 1.2m14.398 2.05c-.358 1.788-.35 7.637.018 13l.67 9.75h3.657c5.527 0 6.057-1.117 6.057-12.771 0-11.714-.722-13.229-6.304-13.229-3.087 0-3.514.338-4.098 3.25M558 438.679c0 9.196.317 12.318 1.25 12.31.688-.006 2.938-.29 5-.631l3.75-.62v-23.837l-5 .228-5 .228zm15.2-11.479c-1.256 1.256-1.731 18.252-.593 21.218.426 1.11 1.917 1.582 5 1.582H582v-24h-3.8c-2.09 0-4.34.54-5 1.2m14.8 3.596c0 2.701-.292 7.704-.649 11.118l-.649 6.208 4.872-.311 4.872-.311.853-4.336c.469-2.385.481-7.11.027-10.5l-.826-6.164-4.25-.307-4.25-.308zm14 5.253v10.05l4.868-.222 4.868-.222.185-8.411c.216-9.782-.57-11.244-6.043-11.244H602zm15.227-8.876c-.76.76-1.227 4.198-1.227 9.027v7.8h3c1.65 0 3-.45 3-1s.9-1 2-1c1.829 0 2-.667 2-7.804v-7.805l-3.773-.223c-2.075-.122-4.325.33-5 1.005M475 486.987c-.825.54-4.736.989-8.691.998-3.955.008-7.469.465-7.809 1.015s-3.04 1-6 1-5.66.45-6 1-1.948 1-3.573 1c-4.496 0-12.927 5.665-12.927 8.687 0 .722-.372 1.313-.827 1.313s-1.358 3.488-2.007 7.75c-1.46 9.597-1.596 52.25-.166 52.25.55 0 .887.492.75 1.093-.138.601.65 1.614 1.75 2.25s2.277 1.536 2.616 1.999c.712.973 17.624.227 32.884-1.45 19.913-2.189 100.896-1.252 103.45 1.197.523.501 6.172.911 12.554.911h11.604l3.446-3.556c1.895-1.955 3.391-3.868 3.323-4.25-.067-.381.086-1.238.341-1.902.255-.665.174-4.04-.179-7.5-.354-3.461-1.015-14.617-1.468-24.792-.854-19.167-1.663-25.37-3.183-24.431-.488.302-.888-.185-.888-1.081 0-3.245-8.049-8.488-13.03-8.488-1.634 0-2.97-.45-2.97-1 0-.552-2.6-1-5.8-1-3.19 0-6.227-.414-6.75-.919-1.66-1.606-13.956-2.236-51.95-2.662-23.279-.261-37.556-.051-38.5.568m5.5 4.013c-1.1.473-5.623.891-10.05.93-4.427.038-8.477.476-9 .973s-2.975 1.151-5.45 1.454c-13.642 1.669-15.718 2.398-20.75 7.286-3.222 3.13-3.25 3.24-3.25 12.757 0 5.733-.403 9.6-1 9.6-.629 0-1 6.515-1 17.545 0 24.859-1.788 23.629 30 20.649 5.225-.49 10.175-1.147 11-1.461 1.711-.651 36.932-2.011 44.5-1.719 14.718.57 38.276 2.088 47.5 3.061 16.441 1.736 28.995 2 28.727.606-.125-.65.26-1.094.856-.987 1.44.259 1.454.012 1.358-24.065-.045-11.479-.501-21.971-1.012-23.315s-.929-4.16-.929-6.257c0-2.156-.647-4.349-1.489-5.048-.819-.68-1.199-1.704-.845-2.277.359-.581.163-.745-.442-.37-.597.369-1.351.242-1.675-.282-.947-1.533-6.656-4.08-9.144-4.08-1.258 0-2.565-.45-2.905-1s-3.265-1-6.5-1-6.16-.45-6.5-1-4.39-1-9-1-8.66-.45-9-1c-.866-1.401-7.849-1.251-9.3.2-.66.66-1.2 2.717-1.2 4.571 0 5.989-.825 6.229-21.429 6.229-13.483 0-18.571-.32-18.571-1.167 0-.641-.296-.87-.658-.508-1.291 1.29-3.342-1.624-3.342-4.747 0-5.134-3.869-6.998-9.5-4.578m13.907 1.513c-1.279 5.098.337 5.572 18.556 5.439l16.656-.121.231-3.916.231-3.915h-35.043zM332 501c0 .55-1.307 1-2.905 1-3.03 0-11.095 3.77-11.095 5.186 0 .447-.689.814-1.531.814-.843 0-1.824.788-2.181 1.75s-1.468 2.478-2.469 3.367c-1 .89-1.819 2.352-1.819 3.25s-.45 1.633-1 1.633c-.569 0-1 2.933-1 6.8 0 3.74-.404 7.228-.899 7.75-.494.522-1.17 4.1-1.501 7.95-.332 3.85-1.067 10.6-1.634 15-2.177 16.896-2.229 19.425-.479 23.114 2.249 4.74 7.279 9.386 10.161 9.386 1.294 0 2.352.45 2.352 1 0 1.428 13.235 1.249 18.016-.243 2.191-.684 3.984-1.611 3.984-2.059s.414-.56.919-.248 1.599-.111 2.429-.941 2.036-1.509 2.68-1.509c1.978 0 9.972-9.186 9.972-11.459 0-1.178.407-2.569.905-3.091.835-.877 1.282-5.061 2.717-25.45.291-4.125.944-7.928 1.453-8.45 1.326-1.362 1.199-23.55-.134-23.55-.582 0-.79-.435-.462-.966.725-1.173-6.462-8.163-7.643-7.433-.46.284-.836.04-.836-.542S348.677 502 347.059 502s-3.219-.45-3.559-1-3.066-1-6.059-1-5.441.45-5.441 1m348.5 0c-.34.55-1.941 1-3.559 1s-2.941.477-2.941 1.059-.387.82-.861.527c-1.123-.694-8.247 6.43-7.553 7.553.293.474.055.861-.527.861-1.333 0-1.456 20.193-.132 21.55.51.522 1.19 4.775 1.512 9.45.321 4.675.837 12.212 1.146 16.75s.979 8.25 1.488 8.25c.51 0 .927 1.35.927 3s.477 3 1.059 3 .818.389.524.865c-.706 1.143 7.163 9.135 8.994 9.135.783 0 1.423.45 1.423 1s.9 1 2 1 2 .45 2 1 1.377 1 3.059 1c1.785 0 2.802.417 2.441 1-.394.637 2.49 1 7.941 1 5.039 0 8.559-.411 8.559-1 0-.55 1.071-1 2.379-1 2.683 0 11.054-7.49 10.099-9.035-.328-.531-.119-.965.463-.965 1.321 0 1.453-16.191.143-17.55-.947-.983-1.76-7.775-2.688-22.45-.295-4.675-.955-8.928-1.466-9.45-.512-.522-.93-3.11-.93-5.75s-.45-4.8-1-4.8-1-.735-1-1.633-.93-2.439-2.066-3.424-2.148-2.163-2.25-2.617-.521-.714-.934-.576c-.412.137-.637-.088-.5-.5.138-.413-.2-.95-.75-1.194s-1.872-1.257-2.939-2.25-2.528-1.806-3.25-1.806c-.721 0-1.311-.45-1.311-1s-1.323-1-2.941-1-3.219-.45-3.559-1-3.265-1-6.5-1-6.16.45-6.5 1M332 505c0 .55-1.35 1-3 1s-3 .374-3 .831-1.234 1.47-2.743 2.25c-3.35 1.733-8.655 7.003-9.035 8.975-.154.794-.746 2.371-1.317 3.503s-.896 3.947-.722 6.253l.317 4.194 3.5-3.001c1.925-1.65 4.288-3.001 5.25-3.003.962-.001 1.75-.401 1.75-.889 0-1.922 16.586-3.927 18.302-2.211.604.604 2.066 1.098 3.25 1.098 1.183 0 3.597 1.381 5.363 3.07 2.587 2.471 3.492 2.837 4.649 1.877 2.035-1.689 1.993-14.24-.053-15.938-.819-.68-1.242-1.635-.941-2.122.301-.488-.18-.887-1.07-.887-.968 0-1.332-.464-.905-1.155.415-.67.277-.884-.327-.511-.573.354-1.597-.026-2.277-.845S346.712 506 345.437 506c-1.276 0-2.597-.45-2.937-1s-2.841-1-5.559-1-4.941.45-4.941 1m350 0c0 .55-1.157 1-2.571 1s-3.251.679-4.081 1.509-2.035 1.208-2.679.84-.87-.336-.504.072c.365.408-.422 2.343-1.75 4.3-2.676 3.943-3.226 10.405-1.254 14.732 1.11 2.437 2.839 3.475 2.839 1.704 0-.463 1.969-1.855 4.375-3.093 4.804-2.471 22.708-3.316 23.444-1.106.194.58.727.823 1.186.539s1.529.18 2.379 1.03c.849.849 1.898 1.545 2.33 1.546.432 0 1.802.884 3.044 1.964 3.168 2.755 3.242 2.662 3.242-4.037 0-3.333-.444-6-1-6-.55 0-1-.725-1-1.61 0-1.801-7.775-9.71-10.042-10.215-.802-.179-1.608-.741-1.791-1.25-.184-.509-1.845-.925-3.691-.925-1.847 0-3.636-.45-3.976-1s-2.391-1-4.559-1-3.941.45-3.941 1m-352.55 21.916c-.522.504-1.85 1.067-2.95 1.25s-2.872 1.122-3.939 2.084c-1.066.962-2.324 1.75-2.795 1.75s-1.982 1.125-3.357 2.5-2.199 2.5-1.832 2.5.099.686-.597 1.524c-1.857 2.238-.965 2.466 3.52.902 4.678-1.632 25.048-1.966 26-.426.34.55 1.491 1 2.559 1s1.945.337 1.949.75 1.175 1.292 2.603 1.954c2.592 1.204 2.594 1.201 1.904-2.5-.38-2.037-.764-4.154-.853-4.704-.935-5.771-18.208-12.446-22.212-8.584m348.624 3.595c-1.334 1.314-2.909 2.115-3.5 1.779s-.74-.242-.333.208c.408.45.197 1.474-.469 2.276-2.056 2.478-3.47 7.81-2.655 10.013.426 1.152.865 5.511.976 9.686s.585 7.828 1.054 8.118.853 2.333.853 4.539c0 2.245.665 4.678 1.509 5.522.83.83 1.247 1.934.926 2.453-.321.52.012.821.741.67.728-.151 1.2.321 1.049 1.049-.151.729.105 1.09.568.804.464-.287 1.959.467 3.324 1.676 3.468 3.069 6.52 4.696 8.81 4.696 1.075 0 2.233.45 2.573 1s3.291 1 6.559 1c3.294 0 5.941-.446 5.941-1 0-.55.845-1 1.878-1s2.433-.67 3.113-1.489 1.635-1.242 2.122-.941c.488.301.887-.18.887-1.07 0-.968.464-1.332 1.155-.905.64.396.885.279.551-.262-.332-.537.048-2.233.845-3.769 1.631-3.144 1.921-8.676.53-10.114-.506-.522-1.156-3.875-1.445-7.45-.763-9.434-1.765-15.427-2.677-16.009-.439-.281-.947-1.156-1.129-1.945-.537-2.335-6.041-7.379-10.691-9.796-6.412-3.333-19.568-3.185-23.065.261M320 543c0 .55-.874 1-1.943 1-1.783 0-5.057 3.381-5.057 5.223 0 1.158 4.438.939 5.656-.279.67-.67 6.049-.944 14.702-.75 15.548.349 17.475-.617 9.867-4.944-2.691-1.53-23.225-1.751-23.225-.25m0 10c0 .55-1.35 1-3 1s-3 .45-3 1-.81 1-1.8 1c-3.08 0-4.2 2.186-4.2 8.2 0 3.2-.448 5.8-1 5.8-2.028 0 .546 7.984 3.08 9.549.524.324.651 1.078.282 1.675-.383.618-.209.8.403.421.591-.365 1.753.016 2.583.846s2.216 1.509 3.081 1.509 1.571.45 1.571 1c0 1.304 10.574 1.299 13.013-.007 1.034-.554 2.997-1.099 4.362-1.212 1.364-.113 2.262-.56 1.994-.993s.159-.788.95-.788 2.005-.686 2.701-1.524 1.474-1.316 1.729-1.061c1.603 1.604 6.829-6.886 7.642-12.415a153 153 0 0 1 1.176-6.759c.826-4.061-.812-6.241-4.689-6.241-1.583 0-2.878-.45-2.878-1 0-.611-4.667-1-12-1s-12 .389-12 1m-148.771 22.581c-.699.759-1.262 1.614-1.25 1.899.118 2.922-.125 3.548-1.134 2.925-.643-.398-.885-.279-.546.269.334.541-.946 4.073-2.846 7.848-1.899 3.775-3.453 7.452-3.453 8.171s-.45 1.307-1 1.307-1 .9-1 2-.45 2-1 2-1 1.152-1 2.559c0 1.68-.397 2.314-1.155 1.846-.64-.396-.885-.279-.551.262.332.537-.048 2.233-.845 3.769S154 613.815 154 614.531s-.456 1.454-1.013 1.64c-2.18.727-1.33 15.769 1.169 20.7 2.427 4.789 9.972 13.129 11.877 13.129.597 0 .807.45.467 1s.309 1 1.441 1 2.059.45 2.059 1 .9 1 2 1 2 .45 2 1 .9 1 2 1 2 .45 2 1 .9 1 2 1 2 .401 2 .891c0 .489 1.463 1.132 3.25 1.427s5.275 1.063 7.75 1.706c9.987 2.594 44.119 3.211 45.594.824.288-.466 2.046-.848 3.906-.848s3.66-.45 4-1 2.129-1 3.976-1 3.507-.407 3.691-.905c.183-.497 1.458-1.06 2.833-1.25s3.099-.912 3.831-1.604 1.631-1.077 2-.855c.368.222 1.277-.254 2.021-1.058 1.15-1.244 1.039-1.544-.75-2.012-1.156-.302-2.102-.947-2.102-1.433 0-.485-1.35-.883-3-.883s-3-.45-3-1-1.548-1-3.441-1-3.719-.45-4.059-1-2.391-1-4.559-1-3.941-.45-3.941-1-1.8-1-4-1-4-.45-4-1-1.998-1-4.441-1-4.719-.45-5.059-1-2.14-1-4-1-3.66-.45-4-1-1.69-1-3-1-2.66-.45-3-1-1.491-1-2.559-1-1.941-.45-1.941-1-.854-1-1.898-1C196.493 634 176 617.919 176 613.519c0-.836-.45-1.519-1-1.519s-1-.9-1-2-.45-2-1-2c-.619 0-1-5.333-1-14 0-7.765.406-14 .912-14 .849 0 .825-4.618-.028-5.432-.211-.201-.956.254-1.655 1.013m679.156-.143c-.335.873-.103 2.197.516 2.943 1.521 1.832 1.691 28.922.185 29.424-.597.199-1.086 1.224-1.086 2.278s-.477 1.917-1.059 1.917-.803.414-.491.919.002 1.538-.691 2.293c-.692.755-1.78 2.253-2.416 3.33s-1.649 1.845-2.25 1.708c-.601-.138-.981.312-.843 1 .137.688-.312 1.137-1 1-.688-.138-1.138.087-1 .5s-.122.833-.576.934-1.632 1.114-2.617 2.25-2.526 2.066-3.424 2.066-1.633.379-1.633.843c0 1.05-8.506 5.49-10.518 5.49-.815 0-1.482.375-1.482.834s-.873.833-1.941.833-2.219.45-2.559 1-1.626 1-2.859 1-2.676.435-3.207.966c-.532.532-2.422 1.077-4.2 1.213s-3.234.601-3.234 1.034-1.605.787-3.566.787-4.372.432-5.358.959c-.985.528-3.462 1.072-5.504 1.209-2.042.138-3.932.606-4.201 1.041s-1.947.791-3.73.791-3.676.435-4.207.966c-.532.532-2.422 1.077-4.2 1.213s-3.234.601-3.234 1.034-1.35.787-3 .787-3 .45-3 1-.675 1-1.5 1-1.5.367-1.5.814c0 1.149 7.812 5.186 10.035 5.186 1.016 0 2.125.45 2.465 1s1.69 1 3 1 2.66.45 3 1 2.076 1 3.859 1 3.71.469 4.282 1.041c2.136 2.136 48.958.132 50.415-2.158.306-.48 1.768-.974 3.25-1.096s2.694-.575 2.694-1.005.632-.782 1.405-.782c1.832 0 9.548-4.008 12.033-6.25 1.066-.962 2.316-1.75 2.777-1.75s2.863-2.025 5.338-4.5 4.193-4.5 3.818-4.5-.029-.788.767-1.75c4.097-4.95 6.023-20.489 2.925-23.587-.585-.585-1.063-1.905-1.063-2.934s-.679-2.551-1.509-3.381-1.254-1.923-.941-2.429c.312-.505.091-.919-.491-.919s-1.059-.9-1.059-2-.45-2-1-2-1-.873-1-1.941-.45-2.219-1-2.559-1-1.743-1-3.118c0-1.412-.435-2.231-1-1.882-.564.348-1-.462-1-1.858 0-1.361-.416-2.625-.925-2.809-.509-.183-1.071-.997-1.25-1.809s-.892-2.086-1.584-2.831-1.004-1.768-.691-2.274c.312-.505.091-.919-.491-.919s-1.059-.707-1.059-1.571c0-2.605-2.856-4.967-3.615-2.991M479.588 586.75c-.411.413-5.548 1.071-11.417 1.464-11.341.759-22.851 2.061-32.671 3.696-3.3.549-8.252 1.374-11.004 1.834-2.753.459-5.492 1.135-6.086 1.503s-2.762.781-4.816.92c-2.054.138-3.954.607-4.223 1.042s-2.011.791-3.871.791-3.66.45-4 1-2.166 1-4.059 1-3.441.45-3.441 1-1.323 1-2.941 1-3.219.45-3.559 1-2.166 1-4.059 1-3.441.45-3.441 1-1.323 1-2.941 1-3.219.45-3.559 1-2.14 1-4 1-3.66.45-4 1-2.14 1-4 1-3.66.45-4 1-1.971 1-3.625 1-3.764.4-4.691.888c-2.519 1.329-17.093 3.415-40.184 5.751-9.323.944-83.497.87-89.75-.088-2.887-.443-5.25-1.198-5.25-1.678s-1.35-.873-3-.873-3-.352-3-.782-1.212-.882-2.694-1.005-2.944-.558-3.25-.968-1.231-.891-2.056-1.07-1.65-.741-1.833-1.25-1.196-.925-2.25-.925-1.917-.45-1.917-1-.702-1-1.559-1c-.924 0-1.268-.47-.846-1.155.435-.703.276-.883-.408-.461-1.146.709-11.187-8.766-11.187-10.557 0-1.046-2.491-3.827-3.429-3.827-1.013 0-.606 11.86.429 12.5.55.34 1 1.524 1 2.63 0 1.107.679 2.692 1.509 3.522s1.211 1.992.846 2.583c-.394.637-.194.783.49.36.635-.392 1.155-.221 1.155.379 0 1.205 6.605 8.131 7.573 7.94.333-.066 1.609.714 2.836 1.733s2.874 1.999 3.661 2.178 1.58.741 1.763 1.25c.184.509 1.196.925 2.25.925s1.917.45 1.917 1 .9 1 2 1 2 .45 2 1 1.098 1 2.441 1 2.719.45 3.059 1 1.941 1 3.559 1 2.941.45 2.941 1 1.8 1 4 1 4 .45 4 1 1.998 1 4.441 1 4.719.45 5.059 1 2.14 1 4 1 3.66.45 4 1 2.14 1 4 1 3.66.45 4 1 1.941 1 3.559 1 2.941.45 2.941 1 1.35 1 3 1 3 .45 3 1 1.35 1 3 1 3 .398 3 .883c0 .486.9 1.119 2 1.407 1.532.4 2 1.364 2 4.116 0 1.977.45 3.594 1 3.594.57 0 1 2.959 1 6.878 0 8.564.325 8.826 11.25 9.059 8.231.176 8.75.064 8.75-1.875 0-1.134.45-2.062 1-2.062s1-1.35 1-3 .45-3 1-3 1-.646 1-1.435c0-2.536 10.874-12.565 13.624-12.565 1.408 0 2.225-.435 1.876-1-.367-.594.803-1 2.882-1 1.925 0 3.778-.45 4.118-1s2.365-1 4.5-1 4.16.45 4.5 1 2.391 1 4.559 1 3.941.45 3.941 1 .9 1 2 1 2 .477 2 1.059.396.814.88.515c1.16-.717 11.12 9.119 11.12 10.981 0 .795.45 1.445 1 1.445s1 .873 1 1.941.45 2.219 1 2.559 1 2.166 1 4.059V676h15.591l.251-3.719c.137-2.046.567-3.959.954-4.25.387-.292.85-1.206 1.029-2.031s.744-1.651 1.256-1.835c.512-.185.715-.687.449-1.116-.705-1.141 7.346-9.049 9.214-9.049.874 0 1.296-.293.938-.652-1.005-1.004 4.198-3.348 7.432-3.348 1.587 0 2.886-.45 2.886-1 0-.571 3-1 7-1s7 .429 7 1c0 .55 1.602 1 3.559 1 2.118 0 3.309.405 2.941 1-.349.565.471 1 1.886 1 2.719 0 13.028 9.522 12.04 11.12-.299.484-.067.88.515.88s1.059.9 1.059 2 .45 2 1 2 1 1.748 1 3.883c0 3.397.345 3.974 2.75 4.599 4.197 1.092 137.203 1.85 141.25.805 3.223-.832 3.524-1.235 3.807-5.095.17-2.306.759-4.192 1.31-4.192.55 0 .745-.414.433-.919-.313-.506.111-1.599.941-2.429s1.509-2.018 1.509-2.64c0-.621.45-.852 1-.512s1-.144 1-1.075c0-1.899 4.794-6.422 6.809-6.424.72 0 1.09-.356.822-.789C598.587 651.522 610.323 648 617 648c14.734 0 31 11.979 31 22.83 0 4.22 1.691 5.17 9.2 5.17 6.543 0 6.8-.092 6.8-2.441 0-1.343.45-2.719 1-3.059s1-1.44 1-2.445c0-2.412 2.518-7.204 3.348-6.373.359.358.652-.15.652-1.13 0-1.994 6.669-8.552 8.695-8.552.718 0 1.305-.45 1.305-1s.862-1 1.917-1c1.054 0 2.066-.43 2.25-.956.183-.526 2.021-1.068 4.083-1.205 2.063-.136 3.75-.606 3.75-1.043 0-1.164 8.771-.975 9.5.204.34.55 1.928 1 3.529 1 3.22 0 9.538 3.194 12.052 6.094.892 1.028 1.914 1.578 2.271 1.221.356-.357.648.002.648.798 0 .795.9 2.094 2 2.887s2 2.242 2 3.221c0 .978.45 1.779 1 1.779s1 .873 1 1.941.45 2.219 1 2.559 1 1.716 1 3.059c0 2.405.132 2.441 8.878 2.441 10.546 0 10.703-.13 11.48-9.5 1.025-12.371 1.744-15.034 3.892-14.43.138.039 1.568-.613 3.178-1.448 1.611-.836 3.298-1.291 3.75-1.012.452.28.822.031.822-.551s1.35-1.059 3-1.059 3-.45 3-1 1.323-1 2.941-1 3.219-.45 3.559-1 2.616-1 5.059-1 4.441-.45 4.441-1 1.8-1 4-1 4-.45 4-1 1.8-1 4-1 4-.45 4-1 1.8-1 4-1 4-.45 4-1 1.074-1 2.386-1 3.642-.652 5.178-1.449 3.162-1.22 3.614-.941c.452.28.822.031.822-.551s.632-1.059 1.405-1.059c1.666 0 9.948-4.17 10.428-5.25.184-.413 1.223-.75 2.309-.75s1.698-.45 1.358-1-.13-1 .467-1c2.609 0 12.033-11.346 12.033-14.486 0-.833.384-1.514.854-1.514s.946-3.487 1.058-7.75l.205-7.75-2.059 2.208c-1.132 1.215-2.058 2.638-2.058 3.163 0 1.626-12.007 13.243-13.032 12.609-.532-.329-.968-.205-.968.275 0 1.187-7.745 5.245-10.011 5.245-1.002 0-1.972.422-2.156.939-.183.516-1.458 1.122-2.833 1.346s-3.175.668-4 .987c-4.541 1.755-12.087 2.07-48.5 2.028-37.153-.043-50.019-.655-68-3.236-3.85-.552-9.025-1.268-11.5-1.591s-5.4-.983-6.5-1.468c-1.1-.484-3.575-1.113-5.5-1.396-7.038-1.034-10.544-1.764-12.5-2.602-2.103-.9-5.824-1.789-11.25-2.688-1.788-.296-3.25-.939-3.25-1.428 0-.49-1.548-.891-3.441-.891s-3.719-.45-4.059-1-1.626-1-2.859-1-2.781-.54-3.441-1.2-1.2-.916-1.2-.57-1.462.178-3.25-.375-4.825-1.238-6.75-1.523-3.928-.927-4.45-1.425c-.523-.499-2.66-.907-4.75-.907s-3.8-.45-3.8-1-1.935-1-4.3-1-4.727-.409-5.25-.908-3.425-1.182-6.45-1.517-9.1-1.047-13.5-1.581-12.275-1.231-17.5-1.55-11.075-.996-13-1.506c-4.157-1.101-65.332-1.274-66.412-.188m8.912 10.275c-2.2.473-8.023.886-12.94.917-9.034.059-19.607 1.527-22.796 3.166-.955.49-2.245.892-2.866.892-.62 0-2.651 1.663-4.513 3.695-3.339 3.646-3.385 3.821-3.385 13 0 5.537.405 9.305 1 9.305.55 0 1 1.8 1 4s.45 4 1 4 1 1.998 1 4.441.45 4.719 1 5.059 1 1.941 1 3.559.45 2.941 1 2.941 1 .71 1 1.578c0 1.976 7.848 9.634 9.087 8.868.502-.31.913-.087.913.495s.873 1.059 1.941 1.059 2.219.45 2.559 1 3.426 1 6.859 1 6.703.462 7.268 1.027c2.171 2.171 80.368.117 81.206-2.132.184-.492 1.392-.895 2.685-.895 3.939 0 13.482-10.31 13.482-14.565 0-1.889.45-3.435 1-3.435s1-1.8 1-4 .45-4 1-4 1-1.71 1-3.8.415-4.228.921-4.75c.837-.863 1.552-11.171 1.215-17.505-.156-2.923-6.13-9.945-8.462-9.945-.856 0-1.805-.402-2.109-.894-1.834-2.969-72.167-6.424-83.065-4.081m-4.5 4.885c-9.075.324-16.956.889-17.514 1.253-.558.365-3.483.791-6.5.946-3.017.156-6.085.874-6.817 1.596-.731.722-1.755 1.051-2.274.73s-.821.012-.67.741c.151.728-.321 1.2-1.049 1.049-.729-.151-1.071.136-.761.637s-.107 1.467-.926 2.147c-1.654 1.373-2.198 14.991-.598 14.991.875 0 1.659 3.343 2.756 11.75.305 2.337.959 4.25 1.454 4.25.494 0 .899 1.763.899 3.917s.416 4.066.925 4.25c.509.183 1.071.988 1.25 1.788.706 3.158 7.237 8.045 10.752 8.045 1.075 0 2.192.384 2.482.853s3.994.945 8.232 1.057 8.52.641 9.519 1.175c2.36 1.264 54.592 1.126 55.378-.146.319-.516 4.378-.939 9.021-.939 4.961 0 8.441-.412 8.441-1 0-.55.681-1 1.514-1 3.34 0 10.486-5.761 10.486-8.455 0-.85.401-1.545.891-1.545.875 0 1.659-3.343 2.756-11.75.305-2.337.914-4.25 1.353-4.25.922 0 1.899-6.514 2.454-16.366.337-5.992.11-7.154-1.784-9.119-1.193-1.238-2.471-2.082-2.839-1.874-.369.208-1.269-.214-2-.936s-3.796-1.44-6.808-1.595-6.162-.634-7-1.063c-2.09-1.072-52.793-1.861-73.023-1.137m384.75 44.126c-1.513 1.649-2.75 3.516-2.75 4.148s-.27.879-.6.549-2.156.956-4.057 2.857-3.881 3.195-4.4 2.875c-.519-.321-.943-.19-.943.29 0 1.21-7.765 5.245-10.095 5.245-1.048 0-1.905.45-1.905 1s-.873 1-1.941 1-2.219.45-2.559 1-2.166 1-4.059 1-3.441.412-3.441.915c0 1.24-11.062 2.225-25 2.225s-25-.985-25-2.225c0-.503-1.8-.915-4-.915s-4-.45-4-1-1.35-1-3-1-3-.45-3-1-.824-1-1.831-1c-1.006 0-4.023-1.11-6.704-2.467l-4.873-2.468-1.296 3.083c-.713 1.695-1.292 5.392-1.288 8.217.008 5.194 2.147 7.635 6.691 7.635.716 0 1.301.45 1.301 1s1.098 1 2.441 1 2.719.45 3.059 1 2.076 1 3.859 1 3.668.404 4.191.898c3.553 3.357 57.347 3.357 60.9 0 .522-.494 1.895-.898 3.05-.898s2.537-.437 3.071-.971c.535-.535 1.862-1.114 2.95-1.288 3.085-.492 13.711-5.937 16.411-8.408 1.338-1.224 2.811-1.992 3.275-1.705s.719-.075.568-.804c-.151-.728.288-1.212.975-1.074s1.138-.312 1-1 .346-1.126 1.074-.975 1.071-.136.761-.637.107-1.467.926-2.147 1.489-1.882 1.489-2.672.38-1.202.844-.916c.464.287.94-2.472 1.059-6.132.118-3.659.44-7.017.715-7.462 1.229-1.989-1.378-.488-3.868 2.227M152 649.346c0 5.038 1.957 10.891 4.08 12.203.524.324.687 1.019.362 1.545-.325.525.005.832.734.681.728-.151 1.2.321 1.049 1.049-.151.729.113 1.085.587.792.473-.292 2.432.912 4.351 2.676s4.127 3.357 4.905 3.538c.777.182 1.642.632 1.923 1 .914 1.202 4.946 3.17 6.495 3.17.833 0 1.514.477 1.514 1.059s.37.831.822.551 2.078.144 3.614.941 3.551 1.449 4.478 1.449 2.114.404 2.636.898c2.715 2.564 45.983 3.498 56.45 1.217 3.025-.659 6.967-1.454 8.759-1.767s3.507-.969 3.809-1.458c.303-.49 1.622-.89 2.932-.89s2.66-.45 3-1 1.524-1 2.63-1c4.678 0 6.619-8.611 3.574-15.852l-1.296-3.083-4.856 2.459c-2.67 1.352-5.575 2.575-6.454 2.717s-1.848.594-2.154 1.004-1.768.846-3.25.968c-1.482.123-2.694.526-2.694.896 0 .695-2.569 1.234-14.5 3.038-9.126 1.381-28.391 1.384-36 .006-3.3-.598-7.687-1.376-9.75-1.729s-3.75-.945-3.75-1.315-1.238-.775-2.75-.9c-1.512-.124-2.9-.672-3.083-1.218s-1.108-.991-2.054-.991c-3.609 0-12.185-5.338-18.545-11.543-3.639-3.551-6.831-6.457-7.093-6.457s-.475 2.406-.475 5.346m170.25 2.4c-2.337.203-4.25.793-4.25 1.311 0 .519-.863.943-1.917.943s-2.066.416-2.25.925c-.183.509-.988 1.071-1.788 1.25-2.217.496-5.512 4-7.071 7.521-.769 1.738-1.753 2.941-2.186 2.673s-.788 4.04-.788 9.572c0 6.039.4 10.059 1 10.059.55 0 1 .927 1 2.059s.45 1.781 1 1.441 1-.126 1 .474c0 1.412 6.172 7.427 8.056 7.851.794.179 1.594.741 1.777 1.25.184.509 1.395.925 2.691.925 1.297 0 2.636.45 2.976 1 1.031 1.668 15.401 1.242 17.152-.509.83-.83 1.923-1.254 2.429-.941.505.312.919.168.919-.322s1.238-1.529 2.75-2.309 3.2-1.869 3.75-2.419 1.639-2.237 2.419-3.75 1.793-2.75 2.25-2.75.831-1.098.831-2.441.45-2.719 1-3.059 1-2.841 1-5.559-.45-4.941-1-4.941-1-1.145-1-2.544-1.101-3.731-2.446-5.182-2.213-3.017-1.926-3.481c.286-.463-.075-.719-.804-.568-.728.151-1.2-.321-1.049-1.049.151-.729-.105-1.09-.568-.804-.464.287-1.954-.467-3.312-1.676s-3.123-2.345-3.922-2.526c-.8-.182-1.683-.648-1.964-1.037s-2.309-.828-4.509-.976-4.675-.385-5.5-.525-3.413-.088-5.75.114m371.657-.332c-.224.217-1.982.541-3.907.719s-3.729.635-4.009 1.015c-.281.381-1.164.84-1.964 1.022-.799.181-2.564 1.318-3.922 2.526-1.358 1.209-2.907 1.927-3.442 1.596-.534-.331-.702-.163-.371.371.331.535-.387 2.089-1.596 3.454-3.073 3.473-4.696 6.521-4.696 8.822 0 1.082-.537 3.146-1.194 4.588-.926 2.032-.926 3.051 0 4.534.657 1.051 1.194 3.075 1.194 4.497s.679 3.264 1.509 4.094 1.247 1.934.926 2.453c-.321.52-.145.821.391.67s1.106.175 1.268.725c.433 1.473 2.319 3.343 2.974 2.949.312-.188 1.755.759 3.206 2.105 1.451 1.345 3.532 2.446 4.623 2.446s2.263.45 2.603 1 3.715 1 7.5 1 7.16-.45 7.5-1 1.716-1 3.059-1 2.441-.45 2.441-1 .687-1 1.526-1c3.205 0 12.474-11.092 12.474-14.927 0-1.075.45-2.233 1-2.573s1-2.365 1-4.5-.45-4.16-1-4.5-1-1.524-1-2.63c0-1.107-.679-2.692-1.509-3.522s-1.211-1.992-.846-2.583c.394-.637.194-.783-.49-.36-.635.392-1.155.204-1.155-.417 0-.622-.643-1.774-1.429-2.559-.785-.786-1.937-1.429-2.559-1.429-.621 0-.809-.52-.417-1.155.423-.684.277-.884-.36-.49-.591.365-1.753-.016-2.583-.846S708.473 654 707.655 654s-1.638-.382-1.822-.848c-.341-.869-11.192-2.45-11.926-1.738M403 653c-.825.533-2.738.976-4.25.985-1.512.008-2.75.465-2.75 1.015s-.788 1.01-1.75 1.023-4.174 2.488-7.138 5.5-5.089 5.477-4.724 5.477-.023 1.328-.862 2.95c-4.912 9.498 1.396 23.593 13.335 29.8 6.842 3.557 27.092 2.81 27.131-1 .004-.413.908-.75 2.008-.75s1.888-.562 1.75-1.25.346-1.126 1.074-.975 1.038-.19.687-.757c-.351-.568.066-1.302.926-1.632.859-.33 1.563-1.227 1.563-1.993s.45-1.393 1-1.393 1-.9 1-2 .45-2 1-2c.583 0 1-3.333 1-8s-.417-8-1-8c-.55 0-1-.707-1-1.571 0-.865-.679-2.251-1.509-3.081s-1.247-1.934-.926-2.453c.321-.52-.012-.821-.741-.67-.728.151-1.212-.287-1.074-.975s-.313-1.137-1-1c-.687.138-1.126-.346-.975-1.074s-.15-1.062-.67-.741c-.519.321-1.56.017-2.313-.676-2.487-2.287-5.729-3.759-8.278-3.759-1.383 0-2.514-.45-2.514-1 0-1.279-7.021-1.279-9 0m209.831.035c-.918.536-2.831 1.07-4.25 1.188s-2.581.565-2.581.995-.743.782-1.651.782c-2.123 0-11.744 9.873-12.183 12.5-.183 1.1-.746 2.428-1.25 2.95-1.191 1.235-1.191 11.865 0 13.1.504.522 1.067 1.85 1.25 2.95.373 2.233 9.912 12.57 10.987 11.905.377-.233 1.365.256 2.195 1.086 1.781 1.781 22.652 2.25 22.652.509 0-.55.927-1 2.059-1s1.781-.45 1.441-1-.092-1 .551-1c1.946 0 9.949-8.763 9.949-10.894 0-1.093.45-2.266 1-2.606 1.431-.884 1.237-13.103-.25-15.764-.687-1.23-1.882-3.024-2.655-3.986s-1.078-1.75-.679-1.75c.4 0 .052-.675-.773-1.5s-2.009-1.5-2.631-1.5-.809-.52-.417-1.155c.423-.684.277-.884-.36-.49-.591.365-1.69.097-2.443-.596-2.311-2.125-5.667-3.759-7.719-3.759-1.075 0-2.233-.45-2.573-1-.786-1.272-7.47-1.248-9.669.035M322.5 659c-.34.55-1.491 1-2.559 1s-1.941.477-1.941 1.059-.388.819-.863.526c-.967-.598-7.137 5.789-7.137 7.388 0 .565-.45 1.027-1 1.027-.578 0-1 3.186-1 7.559 0 4.785.367 7.332 1 6.941.55-.34 1-.141 1 .441 0 .708 6.294 1.059 19 1.059h19l.093-3.25c.2-7.006-.32-12.272-1.269-12.859-.547-.338-.898-.957-.779-1.376.342-1.204-5.063-6.515-6.63-6.515-.778 0-1.415-.34-1.415-.757 0-2.233-14.233-4.293-15.5-2.243m367 .343c-1.65.622-3.225 1.362-3.5 1.644s-1.4 1.007-2.5 1.611-2.49 2.064-3.089 3.244-1.387 1.849-1.75 1.485c-.364-.363-.661.09-.661 1.006 0 .917-.45 1.667-1 1.667-.583 0-1 3.333-1 8v8h40v-8c0-4.667-.417-8-1-8-.55 0-1-.695-1-1.545s-1.105-2.65-2.455-4-3.15-2.455-4-2.455-1.545-.45-1.545-1-.873-1-1.941-1-2.219-.45-2.559-1c-.808-1.308-8.179-1.097-12 .343M398 660.756c0 .416-1.35 1.353-3 2.084-1.65.73-3 1.991-3 2.803s-.45 1.197-1 .857-1 .309-1 1.441-.45 2.059-1 2.059-1 1.35-1 3-.45 3-1 3-1 1.575-1 3.5.45 3.5 1 3.5 1 .675 1 1.5c0 1.279 2.713 1.5 18.418 1.5 10.13 0 19.13-.273 20-.607 1.802-.691 2.348-11.393.582-11.393-.55 0-1.001-1.013-1.001-2.25-.002-2.879-3.501-6.943-8.299-9.638-3.776-2.12-19.7-3.217-19.7-1.356m209.189 1.283c-1.204 1.121-2.189 1.712-2.189 1.313s-1.334.552-2.964 2.114c-1.631 1.562-2.729 3.221-2.441 3.687.287.466.046.847-.536.847S598 671.35 598 673s-.45 3-1 3c-1.534 0-1.187 6.956.429 8.571 2.088 2.089 37.054 2.089 39.142 0 1.623-1.622 1.986-10.571.429-10.571-.55 0-1-1.152-1-2.559 0-1.451-.433-2.292-1-1.941-.55.34-1-.116-1-1.012 0-6.853-20.966-11.895-26.811-6.449m-283.787 1.335c-1.704.621-3.841 1.746-4.75 2.5s-1.652 1.073-1.652.709-.628-.082-1.395.628c-.767.709-1.213 1.59-.991 1.958.222.369-.275 1.349-1.105 2.179-.908.908-1.509 3.341-1.509 6.105v4.597l16.231-.275 16.232-.275-.326-4.499c-.179-2.475-.697-4.729-1.151-5.01s-.974-1.17-1.156-1.977c-.621-2.757-4.481-5.244-9.987-6.432-1.462-.315-3.262-.745-4-.955-.739-.21-2.737.126-4.441.747M692 663c0 .55-.681 1-1.514 1-2.842 0-8.486 3.943-8.486 5.929 0 .589-.45 1.071-1 1.071s-1 2.475-1 5.5v5.5h32v-4.514c0-7.119-4.951-13.486-10.486-13.486-.833 0-1.514-.45-1.514-1s-1.8-1-4-1-4 .45-4 1m-292.219 2.082c-.154.422-.936.914-1.736 1.093-2.395.535-6.045 4.593-6.045 6.721 0 1.092-.45 2.264-1 2.604s-1 1.941-1 3.559V682h34v-2.941c0-1.618-.45-3.219-1-3.559s-1-1.743-1-3.118c0-1.412-.435-2.231-1-1.882-.55.34-1 .109-1-.512 0-1.324-1.669-2.97-4.856-4.789-2.414-1.377-14.867-1.473-15.363-.117m208.293 1.429c-1.334 1.314-2.866 2.117-3.404 1.785-.539-.333-.689-.136-.336.436.354.573-.026 1.597-.845 2.277S602 673.09 602 674.122s-.45 1.878-1 1.878-1 1.35-1 3v3h34v-3c0-1.65-.45-3-1-3s-1-.681-1-1.514c0-2.982-3.452-7.745-6.024-8.311-.812-.179-1.626-.741-1.809-1.25s-3.334-.898-7-.865c-5.639.052-7.041.429-9.093 2.451m-453.438 3.995c-.315.822-.137 1.494.395 1.494.533 0 .969 2.16.969 4.8s.406 5.228.903 5.75 1.163 2.975 1.48 5.45c.318 2.475.856 6.638 1.198 9.25s1.025 4.75 1.52 4.75c.494 0 .899.707.899 1.571 0 .865.679 2.251 1.509 3.081s1.247 1.934.926 2.453c-.321.52.012.821.741.67.728-.151 1.2.321 1.049 1.049-.151.729.105 1.09.568.804.464-.287 1.937.467 3.275 1.676 2.887 2.607 10.536 6.696 12.527 6.696.773 0 1.405.477 1.405 1.059s.37.831.822.551 2.078.144 3.614.941 3.866 1.449 5.178 1.449 2.386.362 2.386.804 1.895.917 4.211 1.053c2.317.137 4.753.698 5.414 1.247 2.246 1.864 42.375-.216 42.375-2.197 0-.499.907-.907 2.016-.907 2.816 0 9.984-2.329 9.984-3.243 0-.417.681-.757 1.514-.757 1.665 0 5.144-1.797 7.278-3.759.753-.693 1.852-.961 2.443-.596.637.394.783.194.36-.49-.416-.674-.099-1.155.76-1.155 1.829 0 2.477-33.368.67-34.485-.578-.357-2.464.056-4.191.918-1.728.862-3.753 1.567-4.501 1.567s-2.142.395-3.097.877c-3.322 1.679-8.898 3.123-12.057 3.123-1.748 0-3.179.385-3.179.855 0 3.212-48.021 3.244-51.45.034-.523-.489-2.66-.889-4.75-.889s-3.8-.45-3.8-1-1.35-1-3-1-3-.45-3-1-.854-1-1.898-1c-2.138 0-13.231-5.59-14.198-7.155-.345-.559-1.027-.994-1.516-.967-.488.026-1.807-.751-2.93-1.727-3.358-2.92-4.22-3.214-4.822-1.645m710.32 1.388c-1.863 1.627-3.74 2.739-4.172 2.473-.431-.267-.784-.079-.784.417 0 1.081-8.433 5.549-10.474 5.549-.791 0-1.206.375-.923.834.454.735-1.761 1.282-3.853.951-.413-.065-.75.332-.75.882s-1.323 1-2.941 1-3.219.45-3.559 1-2.076 1-3.859 1-3.668.401-4.191.891c-3.2 3.002-47.801 3.027-50.9.028-.523-.505-2.66-.919-4.75-.919s-3.8-.45-3.8-1-.981-1-2.179-1c-2.18 0-8.879-2.043-9.821-2.995-.275-.278-1.4-.659-2.5-.848s-2.399-.413-2.887-.5c-.487-.086-1.28 1.193-1.76 2.843-1.039 3.563-.983 31.698.061 31.053.397-.245 1.833.542 3.191 1.751s3.127 2.342 3.932 2.521 1.614.744 1.798 1.256c.185.512.711.7 1.17.416.458-.283 1.433.051 2.164.744.732.692 2.456 1.418 3.831 1.612s2.725.646 3 1.004c.275.357 1.85.805 3.5.994s3.45.703 4 1.143c2.491 1.993 40.5 3.827 40.5 1.954 0-.521 2.031-.948 4.514-.948s5.295-.406 6.25-.903c.955-.496 3.761-1.494 6.236-2.217s5.593-1.869 6.928-2.546c1.336-.678 2.798-1.003 3.25-.724.452.28.822.108.822-.382s1.237-1.518 2.75-2.286c4.069-2.066 13.201-11.173 13.227-13.192.013-.962.377-1.75.81-1.75s.898-1.455 1.034-3.234.681-3.668 1.213-4.2c.531-.531.966-2.874.966-5.207s.45-4.519 1-4.859 1-2.646 1-5.125.419-5.289.93-6.245c1.922-3.59-.438-4.323-3.974-1.236m-545.761 1.661c-2.038 2.309 1.127 5.266 3.305 3.088 1.673-1.674 2.061-4.108.5-3.143-.55.34-1 .141-1-.441 0-1.478-1.259-1.256-2.805.496M334 675c0 2.333.444 3 2 3q2 0 2-2c0-1.1-.477-2-1.059-2s-.781-.45-.441-1-.084-1-.941-1c-1.066 0-1.559.95-1.559 3m353.5-2c.34.55.141 1-.441 1s-1.059.45-1.059 1 .872 1 1.938 1c1.321 0 1.89-.636 1.787-2-.083-1.1-.756-2-1.497-2-.74 0-1.068.45-.728 1m14.5 1q0 2 2 2c1.145 0 2-.667 2-1.559 0-.857-.45-1.281-1-.941s-1 .141-1-.441-.45-1.059-1-1.059-1 .9-1 2m-304 2q0 2 2 2t2-2-2-2-2 2m14 0q0 2 2 2t2-2-2-2-2 2m196 0q0 2 2 2t2-2-2-2-2 2m14 .016c0 1.624.583 1.971 3 1.787 1.735-.132 3-.796 3-1.575 0-.74-.45-1.068-1-.728s-1 .141-1-.441-.9-1.059-2-1.059c-1.339 0-2 .667-2 2.016M278 694.74c0 12.4.339 17.293 1.25 18.039 2.244 1.837 30.857 3.661 90.25 5.753 8.8.309 18.025.75 20.5.978 8.049.743 239.097.548 240.312-.203.649-.401 16.256-1.094 34.684-1.541 30.858-.748 49.525-1.604 72.254-3.313l8.75-.658V678l-4.75.011c-10.968.025-15.25 2.54-15.25 8.954 0 .912-.9 2.624-2 3.805-1.1 1.18-2 2.478-2 2.883 0 1.294-5.324 6.347-6.687 6.347-.722 0-1.313.45-1.313 1s-.675 1-1.5 1-1.5.45-1.5 1-1.125 1-2.5 1-2.5.45-2.5 1c0 .603-4.147 1-10.441 1-5.882 0-10.711-.437-11.059-1-.34-.55-1.491-1-2.559-1s-1.941-.45-1.941-1-.587-1-1.305-1c-1.969 0-8.695-6.532-8.695-8.444 0-.921-.45-1.396-1-1.056s-1-.084-1-.941-.45-1.559-1-1.559-1-1.35-1-3-.45-3-1-3-1-.9-1-2c0-1.804-.667-2-6.8-2-7.214 0-9.2.979-9.2 4.533 0 1.174-.313 2.447-.696 2.829s-.808 1.462-.945 2.399c-.138.936-.725 1.861-1.305 2.054-.579.193-1.054.898-1.054 1.565 0 1.56-7.202 8.62-8.792 8.62-.664 0-1.208.45-1.208 1s-.9 1-2 1-2 .45-2 1-1.323 1-2.941 1-3.219.45-3.559 1-3.265 1-6.5 1-6.16-.45-6.5-1-1.941-1-3.559-1-2.941-.45-2.941-1-.9-1-2-1-2-.45-2-1-.63-1-1.4-1c-1.819 0-8.6-6.781-8.6-8.6 0-.77-.45-1.4-1-1.4s-1-.873-1-1.941-.45-2.219-1-2.559-1-1.716-1-3.059V682H438v3c0 1.65-.477 3-1.059 3s-.803.414-.491.919.002 1.529-.691 2.274c-.692.745-1.393 1.971-1.557 2.725-.559 2.571-9.44 10.082-11.92 10.082-1.345 0-2.128.439-1.782 1 .367.594-.803 1-2.882 1-1.925 0-3.778.45-4.118 1s-3.066 1-6.059 1-5.441-.45-5.441-1-1.8-1-4-1-4-.45-4-1-.735-1-1.633-1-2.439-.93-3.424-2.066-2.163-2.148-2.617-2.25-.714-.521-.576-.934c.137-.412-.313-.637-1-.5-.688.138-1.138-.312-1-1s-.155-1.137-.65-1c-.495.138-.936-.096-.979-.519-.044-.424-.989-1.746-2.1-2.939-1.812-1.945-2.486-3.847-2.139-6.042.065-.413-.332-.75-.882-.75s-1-.845-1-1.878c0-3.197-2.456-4.245-9.419-4.02-6.124.198-6.581.372-6.581 2.497 0 1.255-.45 2.561-1 2.901s-1 1.491-1 2.559-.477 1.941-1.059 1.941-.827.375-.543.834c.624 1.011-8.521 10.939-10.469 11.364-.76.166-1.991.869-2.736 1.561-.745.693-1.768 1.004-2.274.691-.505-.312-.919-.091-.919.491 0 1.384-20.646 1.441-21.5.059-.34-.55-1.491-1-2.559-1s-1.941-.477-1.941-1.059-.421-.799-.935-.481c-.515.318-2.182-.668-3.705-2.191s-2.966-2.544-3.206-2.269-.935-.375-1.545-1.445-1.897-2.843-2.859-3.939-1.75-2.583-1.75-3.305c0-.721-.45-1.311-1-1.311s-1-1.35-1-3-.45-3-1-3-1-.675-1-1.5-.337-1.506-.75-1.514c-.413-.007-4.462-.294-9-.637l-8.25-.624zM496 698c0 1.917.667 2 16 2s16-.083 16-2-.667-2-16-2-16 .083-16 2m-332 18.514c0 2.472 11.188 14.685 14.027 15.311.81.179 1.623.741 1.806 1.25s1.196.925 2.25.925 1.917.45 1.917 1 .9 1 2 1 2 .45 2 1 1.548 1 3.441 1 3.719.45 4.059 1 2.391 1 4.559 1 3.941.45 3.941 1c0 1.307 34.486 1.345 36.924.041.985-.528 3.462-1.072 5.504-1.209 2.042-.138 3.932-.606 4.201-1.041S252.19 738 253.5 738s2.66-.45 3-1 1.716-1 3.059-1 2.441-.45 2.441-1 .863-1 1.917-1 2.066-.416 2.25-.925c.183-.509.995-1.071 1.804-1.25s2.834-1.56 4.5-3.07 3.399-2.748 3.85-2.75c.452-.003 1.497-.68 2.322-1.505s1.188-1.5.806-1.5-.15-.655.515-1.456c.664-.801.901-1.953.527-2.559-.706-1.142-5.603-1.006-6.5.181-.281.371-1.163.822-1.961 1.004-.799.181-2.342 1.118-3.43 2.08-1.781 1.576-3.739 2.202-5.85 1.868-.413-.065-.75.332-.75.882s-.873 1-1.941 1-2.219.45-2.559 1-2.14 1-4 1-3.66.45-4 1-2.526 1-4.859 1-4.711.47-5.285 1.044c-2.119 2.119-45.512.131-46.921-2.15-.304-.492-1.876-.894-3.494-.894s-2.941-.45-2.941-1-1.098-1-2.441-1-2.719-.45-3.059-1-1.491-1-2.559-1-1.941-.45-1.941-1-.59-1-1.311-1c-.722 0-2.249-.873-3.394-1.94s-2.291-1.731-2.546-1.476-1.033-.222-1.729-1.06c-1.219-1.468-3.02-2.071-3.02-1.01m693.009.975c-.68.819-1.635 1.242-2.122.941-.488-.301-.887-.147-.887.344 0 1.182-11.779 7.226-14.081 7.226-.991 0-2.079.45-2.419 1s-2.166 1-4.059 1-3.441.45-3.441 1-2.223 1-4.941 1-5.219.45-5.559 1c-.745 1.206-35.5 1.389-35.5.187 0-.447-2.127-.923-4.727-1.058-2.599-.135-5.012-.707-5.362-1.272-.349-.565-1.034-.939-1.523-.83-1.586.354-10.388-2.364-10.388-3.208 0-.45-1.152-.819-2.559-.819-1.451 0-2.292-.433-1.941-1 .34-.55-.309-1-1.441-1s-2.059-.45-2.059-1-.9-1-2-1-2-.45-2-1c0-1.531-5.714-1.189-6.315.378-.291.758-.024 1.883.593 2.5s.775 1.122.351 1.122-.097.675.728 1.5 2.009 1.5 2.631 1.5.809.52.417 1.155c-.423.684-.277.884.36.49.591-.365 1.673-.069 2.404.657.732.727 2.761 1.951 4.509 2.722s2.959 1.755 2.691 2.188.89.788 2.572.788 3.059.45 3.059 1 .873 1 1.941 1 2.219.45 2.559 1 1.851 1 3.359 1 3.168.404 3.691.898c2.407 2.274 42.743 4.209 44.803 2.149.576-.576 2.337-1.047 3.913-1.047s3.623-.404 4.55-.898c.926-.493 2.809-1.056 4.184-1.25s3.099-.919 3.831-1.611c.731-.693 1.744-1.004 2.25-.691.505.312.919.091.919-.491s.9-1.059 2-1.059 2-.45 2-1 .717-1 1.593-1c1.979 0 13.8-11.861 14.201-14.25.359-2.141-1.111-2.278-2.785-.261"/></svg>