<svg xmlns="http://www.w3.org/2000/svg" viewBox="0 0 1024 1024"><path fill="#00e5cc" d="M259.75 277.303c-2.062.577-3.75 1.42-3.75 1.873s-.693.824-1.54.824c-2.069 0-9.591 3.885-11.46 5.919-.825.898-2.711 2.402-4.191 3.341-3.581 2.274-8.162 9.073-10.268 15.24-1.793 5.249-2.285 7.729-6.548 33a1143 1143 0 0 1-1.917 11l-2.083 11.5c-.648 3.575-1.566 8.75-2.039 11.5s-1.314 7.475-1.868 10.5a874 874 0 0 0-2.081 12c-.592 3.575-1.551 9.2-2.133 12.5-.581 3.3-1.445 8.25-1.918 11-.474 2.75-1.314 7.475-1.868 10.5-.972 5.31-2.331 13.043-4.132 23.5-.474 2.75-1.348 7.7-1.942 11-1.828 10.157-2.966 16.745-3.971 23-1.201 7.468-2.811 16.46-4.119 23-.55 2.75-1.4 7.7-1.889 11-.488 3.3-1.416 8.7-2.061 12-1.172 5.998-2.115 11.159-3.928 21.5-.53 3.025-1.455 8.2-2.056 11.5-.6 3.3-1.498 8.7-1.994 12s-1.355 8.475-1.908 11.5a1535 1535 0 0 0-2.132 12c-.619 3.575-1.498 8.525-1.954 11s-1.335 7.425-1.954 11a692 692 0 0 1-2.2 12c-3.005 15.391-.851 52.733 3.315 57.45.461.523.839 1.53.839 2.239 0 2.087 2.461 4.782 23.559 25.811 21.922 21.849 22.643 22.5 24.899 22.5.848 0 1.542.45 1.542 1s.9 1 2 1 2 .399 2 .887c0 .487 1.463 1.244 3.25 1.681s127.835.94 280.106 1.117c245.496.286 277.363.15 281.328-1.196 4.931-1.674 10.538-4.382 11.316-5.464.275-.383 1.308-1.137 2.295-1.675 3.077-1.679 41.705-40.585 41.705-42.005 0-.74.34-1.345.756-1.345 4.852 0 8.725-44.158 5.437-62-.659-3.575-1.647-9.087-2.196-12.25-.548-3.163-1.468-8.337-2.043-11.5A1547 1547 0 0 1 846.07 588a771 771 0 0 0-2.119-12c-.566-3.025-1.42-7.75-1.898-10.5-.477-2.75-1.344-7.7-1.925-11-.582-3.3-1.541-8.925-2.133-12.5a859 859 0 0 0-2.081-12c-.553-3.025-1.386-8.2-1.852-11.5-.465-3.3-1.52-9.375-2.344-13.5a463 463 0 0 1-2.688-15c-.655-4.125-1.425-8.4-1.712-9.5s-.884-4.25-1.327-7a904 904 0 0 0-3.947-22.5c-1.069-5.62-2.334-12.837-4.119-23.5-.553-3.3-1.457-8.475-2.011-11.5-.553-3.025-1.438-8.2-1.967-11.5a1110 1110 0 0 0-3.901-22.75c-.575-3.163-1.46-8.113-1.966-11-1.573-8.981-3.211-18.041-4.205-23.25-1.144-6.001-2.336-12.733-3.805-21.5a3319 3319 0 0 0-1.949-11.5c-.915-5.327-4.051-15.339-5.324-17-4.222-5.507-6.642-7.985-10.167-10.411-6.051-4.163-11.483-7.089-13.16-7.089-.809 0-1.47-.45-1.47-1s-1.098-1-2.441-1-2.719-.45-3.059-1c-.881-1.426-497.644-1.127-502.75.303m4.25 7.889c-13.712 5.795-25.919 14.723-25.977 18.999-.013.93-.421 1.937-.908 2.238-.857.53-1.55 3.291-2.653 10.571-.291 1.925-.763 4.4-1.048 5.5s-.946 4.7-1.468 8c-.523 3.3-1.382 8.475-1.909 11.5-.526 3.025-1.464 8.425-2.083 12s-1.532 8.75-2.03 11.5-1.36 7.7-1.917 11a1895 1895 0 0 1-4.053 23.25A1547 1547 0 0 0 216.07 422c-.599 3.575-1.531 8.975-2.07 12s-1.436 8.2-1.993 11.5c-.984 5.836-2.215 12.776-4.077 23-.501 2.75-1.348 7.7-1.882 11-.535 3.3-1.46 8.7-2.056 12s-1.472 8.25-1.946 11c-1.801 10.457-3.16 18.19-4.132 23.5a1346 1346 0 0 0-3.837 22c-1.637 9.833-3.034 17.9-4.157 24-.557 3.025-1.4 7.75-1.874 10.5-2.235 12.98-3.031 17.44-4.103 23a462 462 0 0 0-1.971 11c-2.143 13.182-3.043 18.393-3.972 23-2.086 10.342-2.237 12.514-1.063 15.347.657 1.587 2.403 3.508 3.879 4.268s2.909 1.608 3.184 1.883c.435.437 2.875 1.801 11.5 6.429 1.1.59 2.225 1.298 2.5 1.573s2.525 1.591 5 2.925 4.725 2.695 5 3.025c.275.329 2.637 1.712 5.25 3.073s4.75 2.812 4.75 3.225.862.752 1.917.752c1.054 0 2.123.563 2.375 1.25.947 2.583 2.828-1.016 3.844-7.356.981-6.117 1.921-11.447 3.95-22.394.51-2.75 1.161-6.8 1.447-9s.927-5.575 1.424-7.5 1.416-6.875 2.043-11 1.521-9.075 1.987-11 1.312-6.425 1.88-10c.569-3.575 1.537-9.65 2.152-13.5s1.537-8.382 2.05-10.071.931-4.337.931-5.884.415-4.44.921-6.429c.507-1.989 1.45-6.766 2.095-10.616 1.247-7.437 2.671-12.894 4.107-15.736.482-.955.877-2.216.877-2.802 0-1.25 7.864-17.217 8.844-17.958.367-.277 2.01-2.304 3.652-4.504 3.065-4.108 13.525-14.5 14.595-14.5.329 0 1.905-1.124 3.503-2.499s3.469-2.499 4.156-2.5c.688 0 1.25-.361 1.25-.802 0-.993 8.515-5.199 10.527-5.199.81 0 1.473-.352 1.473-.782s2.137-1.347 4.75-2.039 6.29-1.748 8.173-2.346c3.769-1.197 39.406-1.366 41.3-.195 1.098.678 13.928 1.688 36.777 2.893 5.775.305 15.752.985 22.172 1.511 6.42.527 15.645.972 20.5.989s12.203.49 16.328 1.052c7.498 1.02 111.669 1.394 119.5.428 2.2-.271 12.775-.951 23.5-1.51s26.025-1.463 34-2.01 21.054-1.365 29.065-1.819 15.095-1.153 15.743-1.553c.648-.401 8.944-.745 18.435-.765 16.818-.036 19.297.277 31.266 3.946 4.164 1.276 13.919 6.266 14.324 7.328.184.479.778.872 1.32.872 3.021 0 23.847 18.419 23.847 21.091 0 .421.621 1.387 1.38 2.146 2.164 2.165 9.62 16.726 9.62 18.789 0 1.021.398 2.102.885 2.403.486.3 1.134 1.79 1.438 3.309s1.037 4.787 1.627 7.262c1.123 4.703 2.286 10.995 6.009 32.5.572 3.3 1.52 8.475 2.108 11.5s1.47 8.2 1.962 11.5c.491 3.3 1.322 8.25 1.847 11s1.48 7.925 2.124 11.5 1.581 8.75 2.081 11.5c.501 2.75 1.348 7.475 1.882 10.5s1.437 7.975 2.006 11 1.294 7.525 1.61 10c.767 6.006 2.44 10.198 3.808 9.538.612-.295 1.901-.814 2.863-1.154s1.75-1.015 1.75-1.501c0-.485.9-.883 2-.883s2-.374 2-.831 1.232-1.47 2.738-2.25 5.548-3.106 8.982-5.169 6.702-3.75 7.262-3.75 1.018-.398 1.018-.883c0-.486.788-1.133 1.75-1.439 2.084-.661 7.169-3.699 8.975-5.362.708-.652 2.156-1.461 3.219-1.798 4.456-1.414 4.754-8.944 1.031-26.018-.48-2.2-1.383-7.15-2.007-11-.623-3.85-1.509-8.575-1.968-10.5s-1.339-6.65-1.955-10.5c-1.545-9.655-2.968-18.08-4.053-24a459 459 0 0 1-1.549-9c-.348-2.2-1.002-6.025-1.453-8.5-.45-2.475-1.325-7.425-1.944-11a1416 1416 0 0 0-4.076-22.5 631 631 0 0 1-2.034-11.5l-2.082-12.5c-.55-3.3-1.417-8.363-1.927-11.25s-1.335-7.613-1.834-10.5c-2.015-11.655-3.22-18.507-4.133-23.5l-1.92-10.5a888 888 0 0 1-2-11.5c-.572-3.437-1.532-9.062-2.133-12.5-.601-3.437-1.465-8.5-1.92-11.25l-1.987-12a1288 1288 0 0 0-3.914-22.5c-.923-5.047-1.757-9.781-4.139-23.5-.891-5.128-1.881-10.468-3.893-21-.63-3.3-1.367-7.575-1.638-9.5-.948-6.743-2.746-14.509-3.577-15.45-.461-.522-.849-1.647-.862-2.5-.063-4.259-13.148-13.688-26.274-18.932-3.853-1.54-492.057-1.467-495.703.074m215.929 9.212c-.307.307-7.279 1.053-15.494 1.658-21.743 1.6-34.647 3.138-49.935 5.95-3.3.607-7.69 1.35-9.756 1.651-2.066.302-4.005.951-4.309 1.443s-1.957.894-3.673.894-4.502.42-6.191.932c-1.689.513-4.984 1.413-7.321 2-8.731 2.194-12.806 3.318-14.75 4.068-1.1.425-4.025 1.352-6.5 2.06s-4.928 1.66-5.45 2.114-1.766.826-2.764.826-2.595.413-3.55.918c-4.252 2.249-11.346 5.082-12.725 5.082-.831 0-1.511.45-1.511 1s-.636 1-1.414 1c-1.348 0-13.539 5.813-14.586 6.955-.464.506-2.549 1.743-7.5 4.451-1.1.602-2.225 1.357-2.5 1.679s-1.227.997-2.115 1.5c-8.21 4.65-19.664 16.559-24.63 25.607-10.629 19.367-4.161 38.018 20.305 58.558 2.13 1.788 4.244 3.25 4.698 3.25s1.792.9 2.972 2c1.181 1.1 2.737 2 3.459 2 .721 0 1.311.45 1.311 1s.9 1 2 1 2 .45 2 1 .9 1 2 1 2 .37 2 .823c0 1.204 18.96 9.75 27 12.17 2.475.745 4.928 1.727 5.45 2.181s1.958.826 3.191.826 2.519.45 2.859 1 1.69 1 3 1 2.628.398 2.929.885c.3.486 1.79 1.134 3.309 1.438s4.675 1.032 7.012 1.615c2.337.584 6.163 1.533 8.5 2.108s6.05 1.503 8.25 2.062c2.2.56 6.025 1.411 8.5 1.893s5.85 1.143 7.5 1.471c11.384 2.259 24.393 4.271 32.5 5.026 3.025.281 11.575 1.062 19 1.735 28.443 2.577 90.847 1.45 121-2.184 12.706-1.532 35.045-5.537 45-8.068 2.475-.629 6.19-1.38 8.256-1.668s4.005-.927 4.309-1.419 1.507-.894 2.673-.894c2.252 0 8.109-1.663 10.998-3.123.955-.482 2.501-.877 3.434-.877 2.142 0 13.51-3.935 14.78-5.116.522-.486 1.557-.884 2.298-.884s3.211-.9 5.488-2 4.73-2 5.452-2 1.312-.45 1.312-1 .685-1 1.522-1c1.519 0 17.53-7.693 18.478-8.878.275-.344 1.737-1.263 3.25-2.043 1.513-.779 2.75-1.791 2.75-2.248s.608-.831 1.352-.831c.743 0 2.764-1.35 4.491-3s3.524-3 3.996-3c2.27 0 14.393-14.601 17.435-21 5.525-11.623 6.046-21.442 1.603-30.236-.482-.955-.877-2.418-.877-3.25 0-.833-.34-1.514-.756-1.514s-1.403-1.462-2.194-3.249C736.86 357.803 718.244 340 715.261 340c-.694 0-1.261-.374-1.261-.831s-1.237-1.469-2.75-2.248-2.975-1.648-3.25-1.93C706.188 333.135 677.773 320 675.57 320c-.799 0-1.73-.45-2.07-1s-1.716-1-3.059-1-2.441-.45-2.441-1-1.323-1-2.941-1-3.219-.45-3.559-1-1.69-1-3-1-2.628-.398-2.929-.885c-.3-.486-1.79-1.134-3.309-1.438s-4.675-1.032-7.012-1.615c-12.917-3.227-13.525-3.369-26-6.103-14.771-3.236-35.01-6.046-58.25-8.086-12.812-1.125-80.194-2.346-81.071-1.469m-7.034 6.034c-.295.295-6.355.99-13.466 1.544-13.48 1.051-22.446 2.123-33.429 3.997-3.575.61-9.2 1.528-12.5 2.041-5.745.893-10.917 1.956-18.5 3.804-4.615 1.124-4.772 1.165-6.24 1.629-2.658.841-14.388 3.781-17.022 4.268-1.519.28-3.009.908-3.309 1.394-.301.487-1.87.885-3.488.885s-2.943.337-2.946.75-3.49 1.858-7.75 3.212-10.34 3.717-13.511 5.25-6.396 2.788-7.167 2.788-1.55.337-1.734.75-2.358 1.798-4.833 3.08c-9.15 4.737-12.536 6.712-14.433 8.42-1.069.962-2.294 1.75-2.722 1.75-.867 0-7.4 5.628-12.808 11.036-15.241 15.237-17.004 32.18-5.037 48.388 3.999 5.415 15.62 15.99 19.532 17.772 1.357.619 2.468 1.503 2.468 1.965 0 .461.59.839 1.311.839.722 0 2.278.9 3.459 2 1.18 1.1 2.84 2 3.688 2s1.542.45 1.542 1 .9 1 2 1 2 .45 2 1 .9 1 2 1 2 .45 2 1 .9 1 2 1 2 .45 2 1 .68 1 1.511 1 3.643.945 6.25 2.1c2.606 1.154 5.864 2.557 7.239 3.116s3.281 1.415 4.236 1.901 2.616.883 3.691.883 2.233.45 2.573 1 1.69 1 3 1 2.66.45 3 1 1.572 1 2.738 1c2.252 0 8.109 1.663 10.998 3.123.955.482 3.066.877 4.691.877s3.196.39 3.491.867 2.459 1.145 4.809 1.484c2.35.34 6.298 1.033 8.773 1.541 16.568 3.399 18.594 3.747 35.5 6.086 17.904 2.479 27.067 3.191 49.377 3.841 36.146 1.053 76.189-.481 98.123-3.758 17.303-2.586 29.398-4.658 35-5.997 4.061-.971 6.966-1.603 16.5-3.59 1.65-.343 3.9-.978 5-1.411 4.489-1.764 9.264-3.063 11.262-3.063 1.166 0 2.398-.45 2.738-1s1.69-1 3-1 2.66-.45 3-1 1.69-1 3-1 2.66-.45 3-1 1.716-1 3.059-1 2.441-.369 2.441-.819c0-.451 2.25-1.432 5-2.181s5-1.73 5-2.181c0-.45.612-.819 1.36-.819 1.643 0 14.003-6.191 14.473-7.25.184-.413 1.196-.75 2.25-.75s1.917-.338 1.917-.752c0-.413 2.138-1.876 4.75-3.25s6.054-3.736 7.648-5.248 3.297-2.75 3.784-2.75c1.288 0 6.703-5.707 11.401-12.017 9.041-12.142 10.718-22.952 5.384-34.716-1.668-3.68-3.378-6.932-3.798-7.228-.421-.297-1.851-2.114-3.179-4.039-2.958-4.292-7.288-8.472-11.113-10.732-1.582-.934-2.877-2.052-2.877-2.484s-.59-.784-1.311-.784c-.722 0-2.184-.792-3.25-1.76-1.067-.968-4.077-2.88-6.689-4.248s-4.75-2.827-4.75-3.24-.9-.752-2-.752-2-.45-2-1-.9-1-2-1-2-.45-2-1-.9-1-2-1-2-.45-2-1-.68-1-1.511-1-3.418-.862-5.75-1.916-6.039-2.496-8.239-3.204-4.427-1.646-4.95-2.084c-.522-.438-1.985-.796-3.25-.796s-2.3-.45-2.3-1-1.098-1-2.441-1-2.688-.4-2.991-.89c-.302-.489-2.016-1.131-3.809-1.427-1.792-.296-5.059-1.001-7.259-1.566s-5.35-1.307-7-1.648-3.9-1.005-5-1.476c-1.889-.809-4.282-1.318-12.5-2.659-1.925-.314-3.95-.888-4.5-1.276s-3.024-.827-5.498-.976-4.949-.556-5.5-.904c-1.218-.768-9.141-1.864-38.002-5.254-10.041-1.179-93.599-2.492-94.605-1.486m5.605 6.077c-.55.225-6.4.893-13 1.485-23.302 2.09-38.025 4.339-52.5 8.019-2.475.629-6.19 1.38-8.256 1.668s-4.005.927-4.309 1.419-1.48.894-2.613.894c-2.134 0-14.007 3.56-17.058 5.115-.955.487-2.198.885-2.761.885-1.616 0-22.898 9.699-24.003 10.939-.275.308-2.525 1.652-5 2.986s-4.725 2.687-5 3.006-2.183 1.834-4.239 3.367c-4.851 3.616-9.75 8.865-9.756 10.452-.003.688-.402 1.25-.888 1.25-2.581 0-6.617 11.588-6.617 19s4.036 19 6.617 19c.486 0 .883.584.883 1.297 0 1.338 7.025 8.703 8.301 8.703.395 0 2.13 1.35 3.856 3 1.727 1.65 3.748 3 4.491 3 .744 0 1.352.374 1.352.831s1.238 1.469 2.75 2.248 2.975 1.644 3.25 1.919c1.317 1.322 8.959 5.002 10.386 5.002.888 0 1.614.45 1.614 1s.81 1 1.8 1 2.228.398 2.75.884c.522.485 3.875 1.865 7.45 3.065s7.4 2.549 8.5 2.998c2.254.918 13.937 4.372 20 5.911 48.41 12.292 117.139 15.124 174.5 7.19 9.604-1.328 23.908-4.025 31.75-5.985l8.5-2.125c2.337-.583 5.493-1.31 7.012-1.615s3.009-.952 3.309-1.438c.301-.487 1.619-.885 2.929-.885s2.66-.45 3-1 1.69-1 3-1 2.66-.45 3-1 1.271-1 2.07-1c2.296 0 19.679-7.935 20.263-9.25.184-.413 1.159-.75 2.167-.75s1.983-.337 2.167-.75 2.328-1.838 4.767-3.168c2.439-1.329 5.335-3.129 6.437-4 4.592-3.629 12.629-11.437 12.629-12.269 0-.493.9-1.863 2-3.043s2-2.737 2-3.459c0-.721.34-1.311.757-1.311 1.308 0 3.243-7.755 3.243-13s-1.935-13-3.243-13c-.417 0-.757-.481-.757-1.07 0-2.792-11.987-16.93-14.354-16.93-.501 0-1.639-.819-2.529-1.821-.889-1.001-3.642-2.913-6.117-4.25-2.475-1.336-4.725-2.723-5-3.082-.465-.606-6.823-3.652-18.239-8.736-2.607-1.161-5.329-2.111-6.05-2.111s-1.739-.372-2.261-.826c-.523-.454-2.975-1.401-5.45-2.104s-5.534-1.681-6.797-2.174-3.374-.896-4.691-.896-2.672-.45-3.012-1-1.851-1-3.359-1-3.168-.412-3.691-.916c-.522-.503-2.525-1.042-4.45-1.198s-3.95-.595-4.5-.977-3.025-.941-5.5-1.243-6.975-1.012-10-1.578c-7.681-1.437-20.4-3.001-34.5-4.244-11.758-1.035-77.03-2.134-79-1.329m10 5.617c-26.362.926-58.083 4.947-77 9.761-2.2.559-5.35 1.297-7 1.638s-3.9.973-5 1.406c-3.998 1.571-9.176 3.063-10.633 3.063-.82 0-3.263.835-5.429 1.856s-6.075 2.47-8.688 3.219-4.75 1.713-4.75 2.143-.632.782-1.405.782c-1.666 0-9.948 4.17-10.428 5.25-.184.413-1.196.75-2.25.75s-1.917.374-1.917.831-1.238 1.47-2.75 2.25-3.87 2.431-5.24 3.669c-1.369 1.238-2.795 2.25-3.168 2.25-1.861 0-8.777 8.234-11.623 13.836-3.969 7.813-4.379 15.718-1.17 22.546 3.015 6.412 17.22 20.549 20.701 20.6.688.01 1.25.413 1.25.897 0 .483 1.35 1.438 3 2.121s3 1.638 3 2.121.9.879 2 .879 2 .45 2 1 .606 1 1.346 1 2.653.626 4.25 1.391 4.479 2.09 6.404 2.944c4.562 2.025 24.433 8.68 29.25 9.796a643 643 0 0 1 8 1.924c8.818 2.188 25.493 5.338 36.25 6.847 51.95 7.289 124.551 4.247 166-6.954 7.384-1.995 11.978-3.089 15.25-3.63 1.788-.295 3.25-.938 3.25-1.427s1.04-.891 2.312-.891 4.175-.9 6.452-2 4.617-2 5.201-2c1.04 0 2.266-.515 6.771-2.844 1.23-.636 2.918-1.156 3.75-1.156.833 0 1.514-.45 1.514-1s.9-1 2-1 2-.45 2-1 .9-1 2-1 2-.45 2-1 .9-1 2-1 2-.374 2-.831 1.237-1.47 2.75-2.25 3.351-1.988 4.087-2.684 2.985-2.496 5-4c9.281-6.929 14.163-15.681 14.163-25.392 0-9.544-7.648-21.978-16.869-27.425-1.722-1.017-3.131-2.148-3.131-2.512 0-.365-1.35-1.223-3-1.906s-3-1.638-3-2.121-.862-.879-1.917-.879c-1.054 0-2.066-.337-2.25-.75-.584-1.315-17.967-9.25-20.263-9.25-.799 0-1.73-.45-2.07-1s-1.498-1-2.573-1-2.736-.404-3.691-.897c-1.722-.89-12.049-4.009-19.736-5.961-15.976-4.057-27.555-6.04-53.5-9.166-17.001-2.048-48.074-2.807-75.5-1.844M404 357.046c-18.975.3-34.624.638-34.775.75-.94.698-2.521 6.7-3.346 12.704-.529 3.85-1.215 8.674-1.523 10.719C363.246 388.587 350.458 388 512 388c124.457 0 145.346-.204 146.571-1.429 1.661-1.66 1.825-5.782.47-11.807a851 851 0 0 1-2.183-10.108c-.966-4.618-1.717-6.032-3.576-6.739-2.688-1.022-196.863-1.701-249.282-.871m-30.765 6.204c-.939 1.162-1.382 3.404-2.867 14.5l-.569 4.25h284.402l-.569-4.25c-1.485-11.096-1.928-13.338-2.867-14.5-1.482-1.834-276.048-1.834-277.53 0M318 491.949c-6.451.767-18 4.15-18 5.273 0 .428-.9.778-2 .778s-2 .45-2 1-.9 1-2 1-2 .395-2 .879c0 .483-1.35 1.438-3 2.121s-3 1.562-3 1.952c0 .391-1.232 1.349-2.738 2.129-3.306 1.714-9.877 8.121-13.248 12.919-1.353 1.925-3.259 4.372-4.237 5.439-.977 1.066-1.777 2.491-1.777 3.166 0 .676-.337 1.378-.75 1.562-.711.316-4.63 8.034-6.263 12.333-1.696 4.469-3.528 12.413-5.879 25.5-.543 3.025-1.453 7.975-2.021 11a463 463 0 0 0-1.599 9c-.833 5.15-2.353 13.742-3.538 20a595 595 0 0 0-1.954 11c-1.773 10.692-2.989 17.558-3.982 22.5-.553 2.75-1.475 7.7-2.049 11-.575 3.3-1.498 8.475-2.051 11.5a754 754 0 0 0-1.834 10.5c-.455 2.75-1.166 6.462-1.579 8.25l-.751 3.25h564.512l-.726-3.75c-1.857-9.594-2.695-14.16-3.529-19.25-1.095-6.681-2.505-14.482-4.066-22.5-.643-3.3-1.547-8.475-2.009-11.5a276 276 0 0 0-1.847-10.5 670 670 0 0 1-2.046-10.75c-.571-3.163-1.474-8.112-2.005-11-1.906-10.358-2.972-16.353-4.043-22.75-2.364-14.106-3.107-18.649-3.644-22.256-.307-2.066-.961-4.005-1.453-4.309s-.894-1.393-.894-2.421c0-2.291-7.728-17.781-10.203-20.453-.989-1.066-1.797-2.312-1.797-2.768 0-2.41-20.05-19.793-22.83-19.793-.552 0-1.153-.337-1.337-.75-.465-1.047-8.531-4.871-13.333-6.321-2.2-.664-5.125-1.572-6.5-2.016-4.816-1.558-21.626-1.985-35.5-.902-7.7.601-19.175 1.495-25.5 1.987-6.325.493-18.925 1.337-28 1.876s-18.812 1.289-21.638 1.667l-5.138.687-.583 5.636c-.32 3.1-1.041 8.111-1.602 11.136s-1.476 8.2-2.033 11.5c-1.881 11.137-2.28 12.998-2.894 13.5-.337.275-1.102 1.385-1.701 2.468-3.054 5.52-1.123 5.38-75.007 5.459-74.495.08-72.039.265-76.233-5.738-2.183-3.123-3.062-6.212-4.323-15.189-.502-3.575-1.348-9.2-1.88-12.5s-1.245-8.324-1.585-11.165l-.617-5.166-5.633-.631c-3.098-.347-12.383-1.108-20.633-1.69-8.25-.583-19.95-1.43-26-1.884-37.763-2.833-47.704-3.181-57.5-2.015M433.682 503.1c.229 2.97.81 7.2 1.291 9.4s1.39 7.375 2.02 11.5c1.604 10.494 3.049 14.916 5.413 16.572 2.123 1.487 134.265 2.259 138.049.807 2.338-.897 4.821-6.11 5.659-11.879.4-2.75 1.248-8.15 1.886-12 2.077-12.541 2.732-17.985 2.262-18.815-.253-.449-6.154-.449-13.111 0-16.915 1.09-112 1.019-129.769-.097l-14.117-.887zM350.5 565.676c-17.361 3.988-23.227 28.365-9.638 40.053 1.451 1.248 3.201 2.269 3.888 2.27.688 0 1.25.358 1.25.794 0 3.017 9.826 3.207 166.11 3.207 175.196 0 164.22.436 171.629-6.818 5.615-5.497 6.742-8.371 6.686-17.059-.067-10.309-2.865-15.455-11.051-20.32L675.5 565.5l-161.5-.141c-88.825-.078-162.4.065-163.5.317m3 5.039c-8.403 2.028-12.177 5.825-14.962 15.055-1.78 5.897 4.728 16.608 11.533 18.983 5.231 1.826 321.935 1.823 325.172-.003 14.314-8.074 13.676-27.146-1.115-33.338-2.86-1.197-27.336-1.394-161-1.296-86.695.064-158.528.333-159.628.599m-2.25 8.739c-2.876 2.986-3.25 4.017-3.25 8.96 0 3.072.45 5.586 1 5.586s1 .689 1 1.531c0 .843.788 1.822 1.75 2.177.962.356 1.99.998 2.284 1.429.492.72 16.778 1.009 50.966.902 12.722-.039 13.658-.178 16.25-2.407 1.512-1.3 2.75-3.073 2.75-3.939s.45-1.853 1-2.193c2.864-1.77-1.337-12.421-5.679-14.4-1.598-.728-12.966-1.087-33.618-1.06l-31.203.039zm252.55-1.375c-4.554 3.399-7.534 11.731-4.8 13.421.55.34 1 1.327 1 2.193s1.237 2.639 2.75 3.939l2.75 2.366 32.25.001C658.584 600 670 599.646 670 599c0-.55.623-1 1.385-1 2.409 0 4.882-5.066 4.882-10s-2.473-10-4.882-10c-.762 0-1.385-.45-1.385-1 0-.646-11.229-.989-31.75-.968-30.245.03-31.878.127-34.45 2.047M630.926 581c-26.084.553-26.926.772-26.926 7 0 3.429 1.426 5.366 4.72 6.411 2.838.901 52.96 1.038 56.977.156 4.286-.942 6.222-4.115 5.097-8.357-1.468-5.539-4.666-5.957-39.868-5.21m-275.416 2.399c-4.044 4.044-2.736 9.953 2.455 11.093 4.143.91 54.286.881 57.166-.034 3.442-1.092 4.869-2.984 4.869-6.458 0-6.423-.21-6.467-32.667-6.805l-29.313-.306zM178 669.135c0 5.197 2.046 17.052 3.161 18.315.462.523.839 1.571.839 2.331 0 2.034 42.468 44.219 44.517 44.219 2.046 0 1.951-1.89-1.69-33.545l-1.156-10.046-4.01-1.95c-2.205-1.073-4.493-2.402-5.085-2.955-.941-.878-3.033-2.079-12.076-6.931-1.1-.59-2.225-1.298-2.5-1.573s-1.512-1.062-2.75-1.75l-4.5-2.5c-1.238-.687-2.475-1.475-2.75-1.75-.687-.687-10.864-6-11.493-6-.279 0-.507 1.861-.507 4.135m661.5-1.361c-2.75 1.499-5.225 2.985-5.5 3.301s-2.525 1.666-5 3-4.725 2.684-5 3-2.525 1.666-5 3-4.65 2.762-4.833 3.175c-.184.413-.99.75-1.792.75s-2.425.9-3.605 2-2.737 2-3.459 2c-.721 0-1.311.42-1.311.933s-.836 1.198-1.857 1.522c-1.462.464-2.012 2.023-2.579 7.317-.396 3.7-1.144 10.328-1.662 14.728-2.304 19.563-2.344 22.602-.285 21.871 2.505-.888 44.353-42.515 44.37-44.135.007-.695.433-2.045.947-3 2.467-4.588 4.311-22.276 2.316-22.212-.413.014-3 1.251-5.75 2.75M230.379 698.25c.368 3.438 1.097 9.85 1.621 14.25s1.217 10.925 1.54 14.5c.903 9.987 1.096 10.467 4.746 11.787 5.281 1.909 546.593 1.753 549.208-.159 1.338-.979 2.111-3.341 2.697-8.25 1.019-8.542 2.676-23.849 3.478-32.128l.605-6.25H229.711zm190.135 3.059c-2.763 1.657-6.511 5.94-6.513 7.441 0 .688-.451 1.25-1.001 1.25-2.068 0-1.058 9.225 1.486 13.566 4.544 7.754 7.326 8.434 34.509 8.434 25.567 0 28.484-.479 33.505-5.5 4.385-4.385 5.959-9.523 4.365-14.25-1.626-4.821-5.554-10.25-7.416-10.25-.797 0-1.449-.45-1.449-1 0-1.519-54.93-1.224-57.486.309m124.204.367c-3.305 1.739-7.44 7.666-8.261 11.84-1.181 6.005 4.78 14.852 11.614 17.237 5.813 2.03 50.077 1.728 54.229-.37 4.114-2.079 7.7-5.365 7.7-7.057 0-.729.45-1.326 1-1.326 1.436 0 1.235-10.616-.25-13.208-1.703-2.972-4.968-6.303-7.511-7.664-3.401-1.82-54.938-1.337-58.521.548m-118.081 4.041c-8.678.937-11.89 10.876-5.56 17.206l3.077 3.077h24.473c26.922 0 28.968-.383 31.856-5.967 3.371-6.52.095-12.644-7.514-14.044-4.53-.834-39.241-1.037-46.332-.272m124.628-.036c-4.041.554-9.265 5.598-9.265 8.946 0 3.73 2.68 8.156 5.967 9.856 3.896 2.015 49.093 2.241 53.296.267 5.752-2.702 6.953-11.625 2.203-16.375l-2.807-2.807-23.08-.165c-12.693-.091-24.535.034-26.314.278"/></svg>