<svg xmlns="http://www.w3.org/2000/svg" viewBox="0 0 1024 1024"><path fill="#00e5cc" d="M209.2 330.2c-.66.66-1.2 1.704-1.2 2.32 0 1.189-4.506 5.479-5.758 5.481-.408.001-1.98 1.066-3.492 2.367l-2.75 2.365V697h632V342.735l-2.153-1.868c-1.184-1.027-2.514-1.867-2.955-1.867-1.345 0-5.972-5.079-6.935-7.613L815.05 329H512.725c-233.808 0-302.597.272-303.525 1.2m-50.7 1.83c-14.557.436-20.169.986-24 2.35-7.92 2.819-14.5 5.904-14.5 6.798 0 .452-.862.822-1.917.822-1.054 0-2.066.337-2.25.75-.183.413-2.29 2.079-4.682 3.704-5.446 3.7-15.01 14.107-17.641 19.196-1.095 2.118-2.256 4.075-2.58 4.35-1.133.961-6.202 12.091-6.96 15.281l-.765 3.219-.245-3c-.224-2.762-.303-2.683-.99 1-.715 3.83-.745 3.766-.692-1.5.059-5.953 1.436-11.295 2.71-10.508.436.27 1.091-1.099 1.455-3.041.365-1.943 1.55-5.603 2.635-8.133 1.085-2.531 1.736-4.837 1.447-5.126s-.525 0-.525.641c0 .642-.675 1.167-1.5 1.167s-1.5.59-1.5 1.311c0 .722-.9 2.278-2 3.459-1.1 1.18-2 2.814-2 3.629 0 .816-.486 1.784-1.081 2.151-.595.368-.811 1.744-.481 3.059.436 1.735.184 2.391-.919 2.391-.944 0-1.519.924-1.519 2.441 0 1.343-.469 2.731-1.042 3.085-2.468 1.525.019 15.474 2.758 15.474.963 0 1.3 25.506 1.557 117.75l.329 117.75 2.6 8.762c7.606 25.626 23.666 42.783 48.571 51.888l8.727 3.191 24.25.432 24.25.432V332l-3.75-.114a246 246 0 0 1-6.25-.27c-1.375-.085-11.05.101-21.5.414m65.5.97c0 .55-.9 1-2 1s-2 .45-2 1-.707 1-1.571 1c-2.021 0-4.429 2.408-4.429 4.429 0 .864-.45 1.571-1 1.571s-1 .9-1 2-.45 2-1 2c-.663 0-1 56.5-1 167.5s.337 167.5 1 167.5c.55 0 1 1.152 1 2.559 0 1.451.433 2.292 1 1.941.55-.34 1-.126 1 .474 0 .601 1.56 2.653 3.467 4.559l3.466 3.467h26.45c20.223 0 26.57.294 26.958 1.25.404.997.687.995 1.398-.01.714-1.01 47.265-1.19 233.826-.907 128.114.195 233.385.377 233.935.405s14.245-.153 30.433-.401c27.927-.429 29.521-.555 31.174-2.46.958-1.105 2.113-1.917 2.567-1.806s1.27-.759 1.813-1.934c.543-1.176 1.331-2.137 1.75-2.137s.763-1.152.763-2.559c0-1.451.433-2.292 1-1.941.665.411 1-55.99 1-168.441C814 401.02 813.663 344 813 344c-.55 0-1-.69-1-1.533 0-2.52-6.65-8.467-9.467-8.467-1.393 0-2.533-.45-2.533-1 0-.664-96.667-1-288-1s-288 .336-288 1m610 180.941c0 138.654.281 182.114 1.179 182.67 1.669 1.031 37.05.487 44.612-.686 28.733-4.459 49.254-22.784 60.386-53.925l2.323-6.5.274-118.974c.242-105.223.449-119.071 1.794-119.824.986-.552 1.291-1.571.869-2.901q-.652-2.054.456-1.367c.609.376 1.107.207 1.107-.375s-.337-1.059-.75-1.059-.591-3.825-.397-8.5c.238-5.741-.006-8.5-.75-8.5-.607 0-1.103-.9-1.103-2s-.45-2-1-2-1-.9-1-2-.45-2-1-2-1-.707-1-1.571c0-1.479-2.245-4.429-3.371-4.429-.593 0-.409.861 2.341 10.932 1.117 4.088 2.03 8.386 2.03 9.55s.371 2.546.824 3.068c.454.523.538 2.3.188 3.95l-.637 3-.762-3.5c-2.276-10.447-17.412-34.681-23.793-38.097-1.213-.649-3.325-2.218-4.693-3.486-3.571-3.312-17.552-9.926-24.958-11.808-4.928-1.253-11.519-1.609-29.75-1.609H834zM852 343l2.5.801-2.821.099c-2.964.105-4.866 1.477-5.924 4.272-.348.92-1.673 1.82-2.944 2-4.539.644-3.406 13.828 1.189 13.828 1.476 0 4 2.524 4 4 0 3.256 5.404 5.196 7.8 2.8.66-.66 1.2-.799 1.2-.309 0 1.613 2.936-2.953 2.968-4.616.02-.994 1.197-1.858 3.032-2.225 2.182-.436 3-1.168 3-2.684 0-1.146.45-1.806 1-1.466.585.362 1-.676 1-2.5s-.415-2.862-1-2.5c-.567.351-1-.49-1-1.941 0-1.798-.536-2.559-1.8-2.559-2.304 0-4.2-1.896-4.2-4.2 0-1.264-.761-1.8-2.559-1.8-1.451 0-2.292-.433-1.941-1 .368-.596-.719-.96-2.691-.9-3.111.093-3.159.147-.809.9m-691.75 8.25c.137.688-.312 1.137-1 1-1.799-.36-1.646 8.497.179 10.321 1.073 1.074 4.304 1.429 13 1.429 11.303 0 11.573-.052 11.672-2.25.237-5.26-.37-9.162-1.62-10.412-1.847-1.847-22.599-1.929-22.231-.088m718.381 23.067c-3.103 3.103-4.491 5.422-4.936 8.25-.713 4.528.061 10.778 1.395 11.266.501.184.91 1.373.91 2.643 0 1.271.704 2.58 1.563 2.91.86.33 1.277 1.064.926 1.632s-.042.908.687.757c.733-.152 1.175.395.991 1.225-.184.825-.012 1.178.381.785s1.656-.055 2.806.75c3.498 2.45 13.794 1.231 17.184-2.035 3.823-3.683 7.649-22.5 4.575-22.5-.612 0-1.113-.695-1.113-1.545 0-2.001-4.454-6.455-6.455-6.455-.85 0-1.545-.45-1.545-1 0-.565-2.842-1-6.526-1-6.361 0-6.636.11-10.843 4.317m-747.881 5.488c-2.613.167-4.75.73-4.75 1.25s-1.04.945-2.311.945c-1.272 0-3.278.9-4.459 2s-2.63 2-3.222 2c-1.643 0-8.008 6.729-8.008 8.467 0 .843-.45 1.533-1 1.533s-1 .9-1 2-.45 2-1 2-1 1.377-1 3.059c0 1.785-.417 2.802-1 2.441-.633-.391-1 2.156-1 6.941 0 4.373.422 7.559 1 7.559.55 0 1 1.275 1 2.833s.314 3.148.697 3.531c.384.384 1.451 3.591 2.371 7.127 4.292 16.5 17.061 25.945 32.604 24.118 14.899-1.751 24.551-12.152 27.216-29.326 1.413-9.104 1.489-26.634.112-25.783-.567.351-1-.49-1-1.941 0-1.407-.45-2.559-1-2.559s-1-.9-1-2-.343-2-.763-2c-.419 0-1.223-1.012-1.786-2.25-.564-1.238-1.57-2.138-2.238-2s-1.1-.088-.963-.5-.2-.923-.75-1.134c-.55-.212-1.588-1.224-2.307-2.25s-2.181-1.866-3.25-1.866-1.943-.45-1.943-1-1.125-1-2.5-1-2.5-.407-2.5-.903c0-1.055-7.437-1.729-14.25-1.292m812.265 9.445c.013 1.819.201 1.963.985.75 1.253-1.939 1.253-3 0-3-.55 0-.993 1.012-.985 2.25m-819.574 1.192c-1.889 1.403-1.881 1.438.283 1.289 1.223-.084 2.446-.733 2.719-1.442.651-1.698-.595-1.635-3.002.153m.551 8.553c.971.6.82.915-.597 1.249-1.768.417-1.777.498-.132 1.213 1.033.449 2.378.256 3.25-.468 2.146-1.781 1.843-2.468-1.167-2.643-1.701-.098-2.187.134-1.354.649M144 400.967c0 2.8.219 3.097 1.5 2.033 1.197-.993 1.5-.993 1.5 0s.303.993 1.5 0c1.817-1.508 1.986-3.343.25-2.714-.687.249-2.037-.233-3-1.071-1.621-1.412-1.75-1.283-1.75 1.752M856.5 399c.34.55-.324 1-1.474 1-2.387 0-9.026 6.184-9.026 8.408 0 .811-.45 1.752-1 2.092s-1 2.418-1 4.618c0 2.412.397 3.755 1 3.382.583-.361 1 .656 1 2.441 0 1.682.45 3.059 1 3.059s1 .86 1 1.911c0 2.519 5.133 6.756 9.72 8.022 4.475 1.236 7.803.531 11.907-2.521 1.719-1.279 3.294-2.232 3.5-2.119.205.114.276.035.158-.174-.118-.21.445-1.323 1.25-2.473.806-1.15 1.465-3.367 1.465-4.928 0-1.636.423-2.575 1-2.218 1.98 1.224 1.096-9.82-1-12.5-1.076-1.375-1.966-3.062-1.978-3.75-.012-.687-.922-1.25-2.022-1.25s-2-.45-2-1-1.152-1-2.559-1c-1.451 0-2.292-.433-1.941-1 .381-.617-1.343-1-4.5-1s-4.881.383-4.5 1m53.25 1.264c-2.062 1.149-3.75 2.703-3.75 3.454s-.9 2.332-2 3.512c-2.148 2.306-2.968 12.77-1 12.77.55 0 1 .681 1 1.514 0 1.909 1.891 5.237 4.577 8.053 9.191 9.637 25.381 2.974 25.438-10.471.012-2.69.26-3.218.985-2.096.744 1.151.969.802.969-1.5 0-2.225-.239-2.622-.925-1.538-.648 1.026-.907.209-.867-2.732.067-4.8-5.165-11.23-9.136-11.23-1.187 0-1.881-.45-1.541-1 1.199-1.94-9.813-.927-13.75 1.264m-775.622 7.3c-1.109 1.41-1.766 3.215-1.461 4.011.39 1.016.075 1.263-1.056.829-2.041-.783-2.057.007-.04 2.025.888.887 3.257 1.571 5.441 1.571 4.066 0 6.221-1.59 3.546-2.616-.872-.335-1.846-2.331-2.191-4.493-.73-4.564-1.502-4.806-4.239-1.327m748.652 20.374c-4.546 2.272-6.78 4.41-6.78 6.491 0 .864-.45 1.571-1 1.571-.584 0-1 3.353-1 8.059 0 4.642.389 7.818.919 7.491.505-.312 1.205.74 1.556 2.338 2.507 11.411 25.775 10.657 27.37-.888.19-1.375.753-2.65 1.25-2.833 1.818-.67 1.05-13.303-.914-15.05-1.001-.889-2.112-2.405-2.469-3.367s-1.338-1.75-2.181-1.75c-.842 0-1.531-.45-1.531-1s-1.602-1-3.559-1c-2.118 0-3.309-.405-2.941-1 1.035-1.674-4.733-1.054-8.72.938m-366.701 22.015c-.078 6.332-.046 6.411 1.671 4.203a232 232 0 0 1 3.999-4.953c1.237-1.487 2.249-3.032 2.25-3.434.002-1.398-5.187-2.084-5.985-.791-.604.977-.89.952-1.314-.115-.298-.75-.578 1.541-.621 5.09M625.2 445.2c-.9.9-1.2 13.351-1.2 49.879v48.678l2.75 1.122c1.93.788 16.77 1.048 49.75.872l47-.251.284-51c.194-34.858-.038-50.525-.735-49.5-.685 1.01-1.023 1.091-1.034.25-.021-1.78-95.036-1.829-96.815-.05m-16.651 7.05c-2.46 3.438-4.926 6.778-5.479 7.423s-4.529 6.047-8.836 12.003c-6.455 8.927-28.115 38.173-30.976 41.824-.432.55-2.941 3.925-5.577 7.5s-5.336 7.175-6.001 8-2.312 3.075-3.661 5-3.033 4.098-3.743 4.828c-2.032 2.093-3.502 5.28-2.771 6.008.669.666 61.702.758 68.745.104 2.86-.266 3.75-.789 3.75-2.203 0-1.02.45-1.577 1-1.237s1 .168 1-.382-.45-1.278-1-1.618c-.631-.39-.918-9.183-.778-23.809l.221-23.191.557 23c.453 18.723.598 14.399.778-23.25.251-52.384.53-50.84-7.229-40m5.833 28.25c.002 6.6.164 9.17.359 5.711.196-3.459.195-8.859-.003-12s-.358-.311-.356 6.289M128 474.763c0 .419-1.013 1.207-2.25 1.75s-2.694 1.999-3.237 3.237-1.331 2.25-1.75 2.25-.763 3.627-.763 8.059c0 5.118.365 7.833 1 7.441.55-.34 1 .354 1 1.541 0 5.563 9.763 10.979 17.25 9.57 5.218-.982 10.75-6.98 10.75-11.656 0-1.14.45-1.795 1-1.455.625.386 1-1.656 1-5.441 0-3.373-.443-6.059-1-6.059-.55 0-1-.695-1-1.545 0-2.029-4.466-6.455-6.514-6.455-.882 0-1.326-.45-.986-1 .391-.633-2.156-1-6.941-1-4.157 0-7.559.343-7.559.763m752 10.18c-.825.454-2.85 1.439-4.5 2.19s-3.225 1.59-3.5 1.865c-.275.276-1.4 1.023-2.5 1.659s-1.888 1.649-1.75 2.25-.242.98-.843.843-1.614.644-2.25 1.736-1.945 2.72-2.907 3.617-1.75 2.366-1.75 3.264-.45 1.633-1 1.633-1 1.827-1 4.059c0 2.451-.396 3.814-1 3.441-.628-.388-1 1.823-1 5.941 0 3.706.435 6.559 1 6.559.55 0 1 1.575 1 3.5s.43 3.5.955 3.5 1.24 1.688 1.589 3.75c2.883 17.037 16.329 28.056 32.956 27.005 17.471-1.105 28.448-13.8 28.488-32.946.007-3.13.462-5.969 1.012-6.309s1-2.643 1-5.118-.397-4.255-.882-3.955c-.486.3-.906-1.183-.936-3.295-.058-4.252-3.125-10.623-6.496-13.495-1.202-1.024-2.074-2.037-1.936-2.25s-.079-.5-.48-.637c-.402-.137-1.913-1.488-3.358-3s-3.367-2.75-4.27-2.75-1.642-.45-1.642-1-1.35-1-3-1-3-.45-3-1c0-1.207-15.819-1.257-18-.057M100 503c0 .55-.707 1-1.571 1-2.021 0-4.429 2.408-4.429 4.429 0 .864-.45 1.571-1 1.571s-1 .9-1 2-.45 2-1 2-1 2.052-1 4.559.401 4.311.89 4.009c.49-.303 1.177.975 1.527 2.839 1.937 10.327 14.031 14.933 23.348 8.892 2.292-1.486 3.975-2.893 3.74-3.127s.232-1.696 1.035-3.249c.877-1.696 1.46-5.653 1.46-9.907 0-6.748-.164-7.246-3.467-10.549-1.906-1.907-3.931-3.467-4.5-3.467-.568 0-1.033-.45-1.033-1 0-.564-2.833-1-6.5-1s-6.5.436-6.5 1m53.695 2.385c-2.032 1.862-3.695 4.112-3.695 5s-.45 1.615-1 1.615c-.556 0-1 2.667-1 6s.444 6 1 6c.55 0 1 .9 1 2s.477 2 1.059 2 .823.381.536.847c-1.557 2.518 7.754 8.153 13.471 8.153 9.147 0 14.002-5.954 14.72-18.054l.448-7.554-4.696-4.696c-4.664-4.664-4.742-4.696-11.422-4.696-6.248 0-6.987.24-10.421 3.385m724.639-1.885c.091.55-.3.92-.87.821-.569-.098-1.035.69-1.035 1.75 0 2.559.517 2.38 4.839-1.67.645-.604 1.974-.889 2.952-.633.979.256 1.78.016 1.78-.533s-1.762-.939-3.916-.867c-2.154.073-3.842.582-3.75 1.132m16.277-.481c1.161.447 2.383 1.523 2.715 2.389.359.936 1.605 1.493 3.067 1.372 1.355-.113 2.244-.559 1.976-.992s.007-.788.611-.788c3.584 0-2.009-2.524-5.866-2.647-3.321-.106-4.022.08-2.503.666m-8.111 11.462c-2.521 2.077-2.76 2.633-1.5 3.48 3.172 2.133 5 1.233 5-2.461 0-4.162.233-4.094-3.5-1.019m-8.5 4.91c0 .214 1.575.574 3.5.799s3.5.049 3.5-.391c0-.439-1.575-.799-3.5-.799s-3.5.176-3.5.391M130.5 531c.34.55-.354 1-1.541 1s-3.689 1.53-5.559 3.4c-3.27 3.27-3.4 3.69-3.4 11 0 4.4.421 7.6 1 7.6.55 0 1 .718 1 1.596 0 .877.935 2.909 2.079 4.515 5.205 7.31 16.695 8.079 22.152 1.482 3.081-3.724 3.264-4.058 3.614-6.593.19-1.375.753-2.65 1.25-2.833 1.242-.458 1.151-10.167-.095-10.167-.55 0-.947-.337-.882-.75.578-3.656-3.846-9.25-7.313-9.25-1.058 0-1.645-.45-1.305-1 .386-.625-1.676-1-5.5-1s-5.886.375-5.5 1M865 571c1.138.736.716.973-1.75.985-1.788.008-3.25.465-3.25 1.015s-.695 1-1.545 1c-2.254 0-6.455 4.565-6.455 7.014 0 1.157-.45 1.826-1 1.486-1.917-1.185-1.216 13.879.75 16.1.962 1.088 1.896 2.636 2.075 3.439.305 1.369 1.056 1.947 2.9 2.23.426.065 1.647.932 2.714 1.925s3.316 1.885 5 1.981c5.383.308 11.051-.32 11.394-1.262.184-.502.992-.913 1.796-.913 2.185 0 6.371-4.608 6.371-7.014 0-1.157.45-1.826 1-1.486.635.392 1-2.323 1-7.441 0-4.706-.416-8.059-1-8.059-.55 0-1-.695-1-1.545 0-1.74-4.349-6.455-5.955-6.455-.575 0-1.045-.45-1.045-1s-1.687-1.007-3.75-1.015c-2.789-.012-3.366-.264-2.25-.985 1.09-.704.27-.969-3-.969s-4.09.265-3 .969m-720.75 5.525c-2.066 2.207-2.25 3.353-2.25 13.998 0 7.475.355 11.375 1 10.977.55-.34 1 .084 1 .941 0 2.204 24.378 2.324 26.571.13 1.067-1.066 1.429-4.244 1.429-12.545 0-15.296-.719-16.051-15.205-15.965-9.54.057-10.46.238-12.545 2.464"/></svg>