<svg xmlns="http://www.w3.org/2000/svg" viewBox="0 0 1024 1024"><path fill="#00e5cc" d="M631.733 202.601c-.209.208-3.046.799-6.306 1.312-8.458 1.333-13.638 2.294-33.427 6.199-10.302 2.033-15.801 3.04-21 3.845-6.661 1.031-10.224 1.689-20 3.689-7.629 1.562-14.132 2.743-24 4.361-5.294.868-8.808 1.512-21.25 3.893-8.193 1.567-16.759 3.135-20.25 3.705-1.65.269-3.675.738-4.5 1.04s-4.2.939-7.5 1.413c-10.057 1.443-12.856 1.933-16.5 2.887-1.925.503-6.875 1.449-11 2.102s-13.125 2.299-20 3.658c-6.875 1.36-14.975 2.9-18 3.424-14.714 2.545-17.863 3.069-22.5 3.744-8.168 1.187-9.488 2.347-9.577 8.412-.042 2.868-.263 6.115-.491 7.215s-1.079 14.375-1.891 29.5c-3.079 57.332-4.959 89.816-6.539 113-.995 14.601-1.251 19.016-2.957 51-.513 9.625-1.176 21.325-1.473 26-.296 4.675-1.017 17.05-1.601 27.5s-1.259 21.025-1.499 23.5-.706 10.35-1.034 17.5-.762 16.15-.961 20c-2.457 47.378-2.743 52.282-5.452 93.5-.56 8.525-1.475 23.825-2.033 34a4417 4417 0 0 1-2.011 34c-.549 8.525-1.279 21.632-1.625 29.128l-.627 13.627 3.386 1.055c1.862.58 5.635 1.306 8.385 1.614 9.002 1.006 21.696 2.969 38.5 5.953 4.675.831 10.3 1.75 12.5 2.042 3.791.504 12.17 1.736 21 3.086 2.2.337 5.8 1.016 8 1.51s6.25 1.114 9 1.377c2.75.264 6.35.724 8 1.023 3.562.644 8.645 1.405 17.5 2.618 3.575.49 9.2 1.39 12.5 2.001s8.7 1.507 12 1.992 8.475 1.319 11.5 1.852c7.772 1.371 18.715 3.043 24 3.666 2.475.293 6.75.958 9.5 1.48s6.8 1.149 9 1.394 4.9.665 6 .933c2.018.493 9.326 1.625 24 3.718 8.886 1.268 10.644 1.543 15 2.35 3.263.604 6.767 1.169 16 2.578 3.3.503 8.925 1.433 12.5 2.065 10.259 1.815 12.513 1.547 30.318-3.607 5.661-1.638 9.682-4.571 9.682-7.06 0-.676.378-1.378.84-1.562.462-.183 2.809-4.158 5.217-8.833s4.959-9.099 5.669-9.831c.711-.731 1.037-1.744.724-2.25-.312-.505-.029-.919.63-.919.865 0 1.022-1.599.567-5.75-1.191-10.866-2.552-21.762-3.653-29.25a720 720 0 0 1-2.013-15c-.501-4.125-1.364-11.1-1.917-15.5a2298 2298 0 0 1-2.002-16.5c-.547-4.675-1.478-12.1-2.069-16.5s-1.465-11.69-1.944-16.2-1.144-8.645-1.48-9.189c-.336-.543-.764-101.253-.951-223.8-.187-122.546-.633-223.486-.992-224.311-.564-1.294-14.3-7.344-18.626-8.202-.825-.164-1.725-.541-2-.838-.725-.783-7.819-2.808-8.267-2.359m-11.233 9.034c-1.1.222-4.475.84-7.5 1.373-3.025.534-10 1.822-15.5 2.864s-12.925 2.396-16.5 3.008c-7.635 1.308-9.801 1.724-16.5 3.17a295 295 0 0 1-10.5 2.013c-3.025.514-7.75 1.366-10.5 1.892s-7.587 1.427-10.75 2.001-8.337 1.516-11.5 2.094a2001 2001 0 0 1-22.75 3.984c-2.75.467-7.363 1.325-10.25 1.907-5.512 1.112-9.017 1.778-23.75 4.515-4.95.92-11.25 2.093-14 2.607s-6.35 1.147-8 1.408-6.6 1.162-11 2.002-10.7 1.998-14 2.573-8.25 1.482-11 2.014c-2.75.533-6.125 1.129-7.5 1.324-4.144.59-9 1.837-9 2.312 0 .807 2.451 2.779 5.25 4.223 1.512.78 2.75 1.793 2.75 2.25s.59.831 1.311.831c.722 0 2.184.788 3.25 1.75 1.067.962 3.177 2.389 4.689 3.169s2.75 1.819 2.75 2.309.399.643.887.342c.487-.301 1.442.122 2.122.941S414.78 272 415.434 272s2.061.792 3.127 1.76c1.067.968 4.076 2.88 6.689 4.248s4.75 2.827 4.75 3.24.59.752 1.311.752c.722 0 2.184.792 3.25 1.76 1.067.968 4.076 2.88 6.689 4.248 2.612 1.369 4.75 2.827 4.75 3.24s.59.752 1.311.752c.722 0 2.184.788 3.25 1.751 1.067.963 4.076 2.834 6.689 4.157 2.613 1.324 4.75 2.812 4.75 3.308s.368.675.818.397c.45-.279 1.929.482 3.287 1.691 1.358 1.208 3.127 2.342 3.932 2.521s1.613.741 1.796 1.25.886.925 1.562.925c.675 0 2.1.788 3.166 1.75 1.067.962 3.177 2.389 4.689 3.169s2.75 1.793 2.75 2.25.9.831 2 .831 2 .45 2 1 .59 1 1.311 1c.722 0 2.278.9 3.459 2 1.18 1.1 2.53 2 3 2 .469 0 1.838.918 3.041 2.039 1.204 1.121 2.189 1.81 2.189 1.53 0-.511 6.417 3.49 8.75 5.456.688.58 1.25.741 1.25.359 0-.381.788-.042 1.75.754.962.797 2.987 2.067 4.5 2.824s2.75 1.75 2.75 2.207.59.831 1.311.831c.722 0 2.297.918 3.5 2.039 1.204 1.121 2.189 1.81 2.189 1.53 0-.443 5.661 2.998 8.5 5.167.55.42 2.237 1.403 3.75 2.183s2.75 1.793 2.75 2.25.59.831 1.311.831c.722 0 2.297.918 3.5 2.039 1.204 1.121 2.189 1.727 2.189 1.345s.788-.007 1.75.833c3.539 3.087 6.199 3.986 7.524 2.542 1.934-2.108 3.726-5.592 3.726-7.245 0-.833.477-1.514 1.059-1.514s.828-.374.545-.831c-.282-.458 1.941-5.729 4.941-11.714S574 325.994 574 325.286c0-.707.45-1.286 1-1.286s1-.9 1-2 .45-2 1-2 1-.9 1-2 .45-2 1-2 1-.691 1-1.536 2.7-7.056 6-13.804c3.3-6.747 6-12.806 6-13.464s.45-1.196 1-1.196 1-.9 1-2 .45-2 1-2 1-.681 1-1.514c0-.832.427-2.295.95-3.25 2.634-4.815 9.05-18.949 9.05-19.938 0-.622.337-1.281.75-1.465 1.08-.48 5.25-8.762 5.25-10.428 0-.773.477-1.405 1.059-1.405s.803-.414.491-.919-.002-1.529.691-2.274c.692-.745 1.39-2.019 1.551-2.831.16-.812 1.623-4.014 3.25-7.116s2.958-6.364 2.958-7.25c0-.885.477-1.61 1.059-1.61s.803-.414.491-.919-.002-1.529.691-2.274c.692-.745 1.32-1.794 1.394-2.331s.442-1.988.817-3.226c.71-2.341-.594-2.695-5.952-1.615m16.3 1.466c-.545 1.633.102 599.134.649 599.681.257.257 4.102-.385 8.544-1.428l8.076-1.895-.016-295.425c-.013-237.295-.266-295.661-1.285-296.619-1.301-1.223-12.526-5.415-14.501-5.415-.605 0-1.265.495-1.467 1.101M628 220.5c0 .825-.525 1.5-1.167 1.5-.641 0-.907.259-.591.575.316.317-.899 3.579-2.702 7.25-7.292 14.853-12.54 25.97-12.54 26.564 0 .346-2.925 6.612-6.5 13.925s-6.5 13.834-6.5 14.491-.477 1.195-1.059 1.195-.803.414-.491.919.002 1.529-.691 2.274c-.692.745-1.405 2.019-1.584 2.831s-.744 1.627-1.256 1.811c-.512.185-.7.711-.416 1.17.283.458-.051 1.433-.744 2.164-.692.732-1.381 2.075-1.531 2.985s-2.062 5.135-4.25 9.389-3.978 8.346-3.978 9.095-.477 1.362-1.059 1.362-.803.414-.491.919.002 1.529-.691 2.274c-.692.745-1.408 2.015-1.589 2.821-.182.807-.632 1.696-1 1.977-.369.28-.793 1.103-.943 1.828s-2.063 5.104-4.25 9.73c-2.187 4.625-3.977 8.869-3.977 9.431s-.45 1.02-1 1.02-.893.337-.762.75c.349 1.101-2.359 7.25-3.193 7.25-.391 0-.724.563-.739 1.25s-2.34 5.922-5.167 11.633S552 381.882 552 382.633c0 .752-.45 1.367-1 1.367s-1 .9-1 2-.45 2-1 2-1 .9-1 2-.45 2-1 2-1 .9-1 2-.45 2-1 2-1 .9-1 2-.45 2-1 2-1 .691-1 1.536-2.7 7.056-6 13.804c-3.3 6.747-6 12.806-6 13.464s-.45 1.196-1 1.196-1 .9-1 2-.45 2-1 2-1 .9-1 2-.45 2-1 2-1 .9-1 2-.45 2-1 2-1 .9-1 2-.477 2-1.059 2-.803.414-.491.919.002 1.519-.691 2.25c-.692.732-1.381 2.075-1.531 2.985s-2.062 5.135-4.25 9.389-3.978 8.346-3.978 9.095-.45 1.362-1 1.362-1 .9-1 2-.45 2-1 2-1 .9-1 2-.477 2-1.059 2-.803.414-.491.919.002 1.529-.691 2.274c-.692.745-1.405 2.019-1.584 2.831s-.744 1.627-1.256 1.811c-.512.185-.7.711-.416 1.17.283.458-.051 1.443-.744 2.188-.692.745-1.387 2.019-1.544 2.831s-2.029 5.076-4.16 9.476-4.475 9.462-5.209 11.25-1.701 3.25-2.149 3.25-.559.414-.247.919-.111 1.599-.941 2.429-1.509 2.216-1.509 3.081-.477 1.571-1.059 1.571-.803.414-.491.919.002 1.529-.691 2.274c-.692.745-1.408 2.019-1.591 2.831-.182.812-1.645 4.169-3.25 7.461S474 546.002 474 546.652s-.337 1.331-.75 1.515c-.814.361-4.303 7.366-6.268 12.583-.674 1.788-1.647 3.25-2.162 3.25-.516 0-.682.414-.37.919s.002 1.529-.691 2.274c-.692.745-1.398 1.987-1.568 2.759s-3.433 7.761-7.25 15.531S448 600.147 448 600.805s-.45 1.195-1 1.195-1 .9-1 2-.375 2-.833 2c-.459 0-.834.565-.834 1.257 0 .691-1.925 5.197-4.278 10.013-3.717 7.609-4.099 8.979-2.916 10.458 2.581 3.226 17.523 17.775 19.44 18.929 1.056.636 1.809 1.649 1.671 2.25s.313.98 1 .843c.688-.138 1.138.312 1 1s.313 1.137 1 1c.688-.138 1.126.346.975 1.074s.096 1.096.548.816c.452-.279 6.528 5.054 13.501 11.853s13.619 13.019 14.769 13.825 8.977 8.15 17.393 16.323 19.273 18.459 24.125 22.859 14.085 13.233 20.515 19.628c6.431 6.395 12.162 11.795 12.736 12s10.633 9.597 22.352 20.872c26.262 25.265 37.806 36.184 40.086 37.916 1.666 1.265 1.75-12.909 1.75-294.294C630 318.207 629.664 219 629 219c-.55 0-1 .675-1 1.5m-246.398 50.25a11866 11866 0 0 0-3.575 62.25c-.945 17.324-1.683 29.88-3.997 68-.517 8.525-1.192 20-1.499 25.5s-.801 14.05-1.098 19-.986 17.325-1.532 27.5A4564 4564 0 0 1 368 506c-2.548 40.704-4.854 82.264-5.576 100.5-.282 7.15-.944 15.445-1.469 18.434-.525 2.988-.947 9.738-.938 15 .009 5.261-.435 15.641-.987 23.066-2.457 33.07-5.366 87.691-4.873 91.5.334 2.585 1.457.848 8.115-12.559 4.251-8.557 7.728-16.095 7.728-16.75s.45-1.191 1-1.191 1-.9 1-2 .375-2 .833-2c.459 0 .834-.562.835-1.25 0-.687 3.675-8.664 8.166-17.726S390 683.975 390 683.274s.45-1.274 1-1.274 1-.498 1-1.107c0-1.642 6.166-14.339 7.152-14.726.466-.184.848-1.196.848-2.25s.477-1.917 1.059-1.917.803-.414.491-.919-.002-1.529.691-2.274c.692-.745 1.407-2.019 1.588-2.831s2.094-5.092 4.25-9.511 3.921-8.582 3.921-9.25.45-1.215 1-1.215 1-.9 1-2 .45-2 1-2 1-.9 1-2 .477-2 1.059-2 .803-.414.491-.919.111-1.599.941-2.429S420 622.67 420 622.091c0-.578 2.698-6.573 5.996-13.321 3.298-6.749 5.998-12.832 6-13.52S432.45 594 433 594s1-.9 1-2 .45-2 1-2 1-.688 1-1.529 3.6-8.846 8-17.789 8-16.805 8-17.471.45-1.211 1-1.211 1-.9 1-2 .45-2 1-2 1-.9 1-2 .45-2 1-2 1-.9 1-2 .375-2 .833-2c.459 0 .834-.577.834-1.283s2.325-6.008 5.166-11.784c2.842-5.775 5.167-11.047 5.167-11.716 0-.67.45-1.217 1-1.217s1-.9 1-2 .45-2 1-2 .893-.337.762-.75c-.226-.712 1.335-4.15 10.351-22.785 2.138-4.419 3.887-8.582 3.887-9.25s.525-1.215 1.167-1.215c.641 0 .888-.279.547-.619-.72-.72 6.101-14.717 7.415-15.216.486-.185.652-.711.368-1.17-.283-.458.051-1.433.744-2.164.692-.732 1.381-2.075 1.531-2.985s2.062-5.135 4.25-9.389 3.978-8.346 3.978-9.095.45-1.362 1-1.362 1-.595 1-1.323c0-1.431 5.806-13.856 6.859-14.677.352-.275.79-1.175.973-2s1.645-4.193 3.25-7.485 2.918-6.554 2.918-7.25.45-1.265 1-1.265 1-.9 1-2 .45-2 1-2 1-.68 1-1.51c0-.831 2.25-6.141 5-11.799s5-10.747 5-11.309c0-1.168-4.587-5.382-5.859-5.382-.465 0-2.156-1.238-3.76-2.75s-4.145-3.389-5.648-4.169-2.733-1.793-2.733-2.25-.608-.831-1.352-.831c-.743 0-2.764-1.35-4.491-3s-3.526-3-4-3c-.473 0-2.172-1.238-3.776-2.75s-4.145-3.389-5.648-4.169-2.733-1.793-2.733-2.25-.608-.831-1.352-.831c-.743 0-2.656-1.246-4.25-2.77-1.594-1.523-3.271-2.834-3.728-2.912-.456-.078-2.256-1.419-4-2.98-1.743-1.561-4.408-3.477-5.92-4.257s-2.75-1.793-2.75-2.25-.562-.833-1.25-.836c-.687-.002-2.688-1.352-4.446-3S466.701 318 466.203 318c-.499 0-2.321-1.352-4.05-3.005-1.73-1.652-3.411-2.956-3.738-2.897s-1.572-.726-2.768-1.745-3.853-2.978-5.904-4.353-3.732-2.837-3.736-3.25-.597-.75-1.318-.75-2.278-.9-3.459-2c-1.18-1.1-2.503-2.001-2.938-2.001-.436-.001-2.099-1.126-3.698-2.5s-3.177-2.499-3.51-2.499-1.727-1.012-3.099-2.25-5.417-4.258-8.99-6.713c-3.572-2.455-7.06-5.013-7.751-5.685s-2.153-1.506-3.25-1.854S406 275.476 406 275s-.788-1.125-1.75-1.442c-.962-.318-3.273-1.923-5.136-3.568-1.862-1.644-3.666-2.99-4.01-2.99s-1.758-1.012-3.142-2.25c-2.34-2.09-8.204-5.75-9.213-5.75-.244 0-.76 5.288-1.147 11.75m50.488 17.415c3.977 3.586 8.129 6.79 11.16 8.613 1.512.909 2.75 2.006 2.75 2.438 0 .431.481.784 1.07.784 1.116 0 9.483 5.476 11.716 7.667.708.695 2.62 2.051 4.25 3.014s2.964 2.103 2.964 2.535.563.786 1.25.789c.688.002 2.688 1.352 4.446 3s3.557 2.996 4 2.996c.442.001 2.111 1.126 3.71 2.5s3.177 2.499 3.51 2.499 1.828 1.135 3.324 2.522 2.994 2.466 3.329 2.397c.335-.068 1.698.822 3.028 1.978s2.798 2.103 3.262 2.103c.465 0 2.257 1.35 3.984 3s3.508 3 3.959 3 1.693.788 2.759 1.75c1.067.962 3.623 2.875 5.682 4.25s3.746 2.837 3.75 3.25.57.751 1.257.751c.688.001 2.557 1.126 4.156 2.5s3.191 2.499 3.541 2.499 2.306 1.574 4.346 3.499c2.04 1.924 3.974 3.453 4.297 3.397.324-.056 1.596.732 2.828 1.751s3.073 2.333 4.093 2.92c4.158 2.391 3.943 3.565-3.395 18.477-3.913 7.951-7.114 15.019-7.115 15.706 0 .688-.451 1.25-1.001 1.25s-1 .9-1 2-.477 2-1.059 2-.803.414-.491.919.002 1.529-.691 2.274c-.692.745-1.408 2.015-1.589 2.821-.182.807-.632 1.696-1 1.977-.369.28-.783 1.215-.922 2.077-.139.863-3.401 7.809-7.25 15.436S508 445.963 508 446.686s-.477 1.314-1.059 1.314-.803.414-.491.919.002 1.519-.691 2.25c-.692.732-1.37 2.006-1.506 2.831s-2.048 5.053-4.25 9.395c-2.202 4.343-4.003 8.505-4.003 9.25s-.45 1.355-1 1.355-1 .9-1 2-.477 2-1.059 2-.803.414-.491.919.002 1.529-.691 2.274c-.692.745-1.405 2.019-1.584 2.831s-.741 1.626-1.25 1.809-.925 1.196-.925 2.25-.477 1.917-1.059 1.917-.828.374-.546.83c.282.457-1.491 4.825-3.941 9.706S478 509.993 478 510.705s-.45 1.295-1 1.295-1 .9-1 2-.45 2-1 2-1 .9-1 2-.337 2.004-.75 2.008c-.898.009-3.25 4.852-3.25 6.691 0 .716-.45 1.301-1 1.301s-1 .9-1 2-.375 2-.833 2c-.459 0-.838.563-.844 1.25s-4.581 10.503-10.167 21.813S446 576.16 446 576.813s-.477 1.187-1.059 1.187-.803.414-.491.919.002 1.529-.691 2.274c-.692.745-1.388 1.957-1.547 2.694-.158.736-2.97 6.825-6.25 13.53S430 610.146 430 610.804s-.337 1.2-.75 1.204c-.898.009-3.25 4.852-3.25 6.691 0 .716-.45 1.301-1 1.301s-1 .9-1 2-.45 2-1 2-1 .9-1 2-.45 2-1 2c-1.929 0-.976 5.115 1.394 7.485 1.317 1.317 2.594 2.194 2.839 1.949.244-.245 2.997 2.027 6.117 5.049s5.878 5.387 6.13 5.256c.252-.132 2.968 2.123 6.036 5.011s5.894 5.256 6.281 5.263 3.911 3.101 7.832 6.876 7.601 7.032 8.178 7.237 3.716 2.902 6.976 5.992 6.41 5.79 7 6 3.703 2.857 6.918 5.882c3.214 3.025 7.409 6.695 9.322 8.156s5.064 4.161 7.004 6 5.09 4.533 7 5.987 5.515 4.603 8.011 7c2.495 2.396 6.095 5.552 8 7.013 1.904 1.461 5.151 4.273 7.214 6.25s4.09 3.594 4.502 3.594 3.299 2.362 6.417 5.25c7.064 6.543 23.647 20.122 25.184 20.622.63.205-3.108-3.62-8.307-8.5-5.198-4.879-15.223-14.609-22.277-21.622S525.567 717 525.105 717s-6.993-6.075-14.514-13.5-14.002-13.5-14.405-13.5-7.598-6.736-15.989-14.969-15.581-15.096-15.977-15.25a.833.833 0 0 1-.47-1.031c.137-.412-.313-.637-1-.5-.688.138-1.138-.312-1-1s-.313-1.137-1-1c-.688.138-1.138-.312-1-1s-.313-1.137-1-1c-.688.138-1.126-.346-.975-1.074s-.101-1.092-.561-.808c-.459.284-6.78-5.275-14.046-12.354s-12.751-13.153-12.19-13.501c.562-.347 1.022-1.504 1.022-2.572s.45-1.941 1-1.941 1-.9 1-2 .45-2 1-2 1-.9 1-2 .45-2 1-2 1-.73 1-1.622c0-1.762 5.742-14.069 24.918-53.407 3.895-7.99 7.082-15.078 7.082-15.75 0-.671.477-1.221 1.059-1.221s.803-.414.491-.919-.002-1.529.691-2.274c.692-.745 1.408-2.015 1.589-2.821.182-.807.632-1.696 1-1.977.369-.28.799-1.122.958-1.872.158-.749 2.97-6.849 6.25-13.554S488 505.854 488 505.196s.477-1.196 1.059-1.196.803-.414.491-.919-.002-1.529.691-2.274c.692-.745 1.408-2.015 1.589-2.821.182-.807.632-1.696 1-1.977.369-.28.777-1.056.908-1.724s3.394-7.667 7.25-15.553c3.857-7.887 7.012-14.878 7.012-15.536s.45-1.196 1-1.196 1-.9 1-2 .45-2 1-2 1-.9 1-2 .477-2 1.059-2 .803-.414.491-.919.111-1.599.941-2.429 1.509-2.216 1.509-3.081.375-1.571.833-1.571c.459 0 .835-.562.837-1.25s2.777-6.883 6.167-13.768S530 417.91 530 417.232s.45-1.232 1-1.232 1-.9 1-2 .375-2 .833-2c.459 0 .847-.562.864-1.25.016-.687 2.791-6.858 6.166-13.712S546 383.997 546 383.288s.45-1.288 1-1.288 1-.9 1-2 .34-2 .755-2c.416 0 1.262-1.462 1.881-3.25a153 153 0 0 1 2.494-6.593c1.321-3.222 1.262-3.428-1.63-5.745-1.65-1.321-3.562-2.404-4.25-2.407-.687-.003-1.25-.455-1.25-1.005s-.562-1.001-1.25-1.001c-.687-.001-2.543-1.113-4.122-2.472-1.58-1.358-3.718-2.738-4.75-3.066S534 351.446 534 350.933s-.59-.933-1.311-.933c-.722 0-2.202-.788-3.289-1.75s-2.636-1.896-3.439-2.075c-.804-.179-1.611-.741-1.794-1.25s-.886-.925-1.562-.925c-.675 0-2.1-.788-3.166-1.75-1.067-.962-3.176-2.389-4.689-3.169s-2.75-1.793-2.75-2.25-.59-.831-1.311-.831c-.722 0-2.184-.788-3.25-1.751-1.067-.963-4.076-2.834-6.689-4.157-2.613-1.324-4.75-2.786-4.75-3.249s-.59-.843-1.311-.843c-.722 0-2.278-.9-3.459-2-1.18-1.1-2.53-2-3-2-.469 0-1.838-.918-3.041-2.039-1.204-1.121-2.189-1.81-2.189-1.53 0 .443-5.661-2.998-8.5-5.167-.55-.42-2.238-1.403-3.75-2.183s-2.75-1.819-2.75-2.309-.414-.634-.919-.322c-.506.313-1.519.002-2.25-.691-.732-.692-2.569-1.898-4.081-2.678s-2.75-1.793-2.75-2.25-.59-.831-1.311-.831c-.722 0-2.278-.9-3.459-2-1.18-1.1-2.53-2-3-2-.469 0-1.748-.788-2.842-1.75s-2.867-2.23-3.939-2.817c-13.476-7.379-13.936-7.592-11.359-5.268m172.235 53.431c-.581 1.513.255 18.626 1.118 22.904.222 1.1.438 2.364.48 2.809.043.445.527.531 1.077.191 1.265-.782 1.346-25.5.083-25.5-.504 0-1.143.563-1.421 1.25-.314.78-.534.623-.583-.417-.043-.916.484-1.893 1.171-2.171.979-.395.972-.521-.031-.583-.705-.043-1.557.639-1.894 1.517M578 375c0 .55.627 1 1.393 1s1.677.739 2.024 1.643c.346.904.883 1.39 1.192 1.081s1.536.285 2.727 1.32 2.4 1.786 2.687 1.669c.288-.117 1.611.799 2.939 2.037s2.799 2.25 3.268 2.25c.47 0 1.82.9 3 2 1.181 1.1 2.737 2 3.459 2 .721 0 1.311.379 1.311.843 0 1.177 8.869 5.621 9.653 4.837.691-.691-6.489-7.68-7.89-7.68-.466 0-1.813-.9-2.993-2-1.181-1.1-2.737-2-3.459-2-.721 0-1.311-.379-1.311-.843s-2.138-1.926-4.75-3.25-4.9-2.744-5.083-3.157c-.184-.413-1.223-.75-2.309-.75s-1.698-.45-1.358-1c.351-.567-.49-1-1.941-1-1.407 0-2.559.45-2.559 1M409.25 652.785c-3.988 8.122-7.25 15.318-7.25 15.991s-.337 1.228-.75 1.232c-.898.009-3.25 4.852-3.25 6.691 0 .716-.45 1.301-1 1.301s-1 .9-1 2-.375 2-.833 2c-.459 0-.847.563-.863 1.25-.015.688-3.24 7.775-7.165 15.75-3.926 7.975-7.138 15.063-7.138 15.75-.001.688-.338 1.254-.751 1.258-.898.009-3.25 4.852-3.25 6.691 0 .716-.45 1.301-1 1.301s-1 .9-1 2-.45 2-1 2-1 .9-1 2-.45 2-1 2-1 .9-1 2-.375 2-.833 2c-.459 0-.834.565-.834 1.257 0 .691-1.815 5.078-4.034 9.75-10.358 21.804-11.213 23.953-9.549 24.026.413.018 3.675.456 7.25.974 3.575.517 8.3 1.185 10.5 1.484 3.871.526 11.279 1.746 18.5 3.048 1.925.347 6.425 1.019 10 1.494s9.425 1.356 13 1.958 9.425 1.521 13 2.042c6.887 1.005 14.992 2.294 25.25 4.016 8.101 1.36 16.637 2.704 24.75 3.895 3.575.525 12.35 1.883 19.5 3.018s14.575 2.288 16.5 2.563 5.075.744 7 1.04 4.85.738 6.5.981c12.77 1.879 17.404 2.689 20.071 3.51 1.689.519 4.467.944 6.174.944 1.706 0 5.274.444 7.929.987 2.654.543 9.776 1.711 15.826 2.595s13.475 1.994 16.5 2.467c3.025.472 7.075 1.102 9 1.399s6.54 1.065 10.255 1.707 7.071.853 7.456.468c.72-.72-7.6-9.057-13.751-13.779-1.903-1.461-5.047-4.161-6.987-6s-5.09-4.546-7-6.016-6.071-5.182-9.247-8.25c-3.175-3.068-6.114-5.578-6.531-5.578s-3.015-2.138-5.775-4.75c-2.759-2.612-7.216-6.536-9.904-8.719-2.689-2.184-6.365-5.446-8.169-7.25S548.69 748 548.229 748s-3.641-2.7-7.066-6-6.565-6-6.977-6-3.108-2.25-5.991-5-5.57-5-5.971-5c-.402 0-3.999-3.142-7.994-6.982-3.996-3.84-7.594-6.997-7.997-7.014s-3.116-2.276-6.03-5.018c-2.913-2.742-5.613-4.991-6-4.996s-3.06-2.256-5.941-5-5.582-4.99-6.003-4.99-4.042-3.15-8.048-7-7.629-7-8.052-7c-.422 0-3.571-2.7-6.996-6s-6.575-6-7-6-3.575-2.7-7-6-6.551-6.005-6.945-6.01c-.395-.006-2.992-2.143-5.771-4.75-7.023-6.589-13.088-11.242-14.638-11.231-.72.004-4.571 6.654-8.559 14.776m252.577 79.298c-.13 10.91-.022 58.651.149 65.367.043 1.679 1.748-.703 5.513-7.7 3.6-6.691 4.083-11.985 2.032-22.25-.718-3.591-1.522-9.29-2.54-18-.642-5.5-1.363-11.125-1.601-12.5s-.858-6.05-1.378-10.389c-1.423-11.87-1.984-10.46-2.175 5.472"/></svg>