<svg xmlns="http://www.w3.org/2000/svg" viewBox="0 0 1024 1024"><path fill="#00e5cc" d="M514 229.239c-3.025 1.696-5.725 3.348-6 3.672s-1.175.735-2 .914-1.65.741-1.833 1.25-1.159.925-2.167.925-1.983.338-2.167.75-4.27 2.764-9.083 5.224c-4.812 2.461-8.75 4.85-8.75 5.309s-.414.579-.919.267c-.506-.313-1.529-.002-2.274.691-.745.692-2.019 1.405-2.831 1.584s-1.627.744-1.811 1.256c-.185.512-.711.7-1.17.416-.458-.283-1.433.056-2.164.755s-4.369 2.795-8.081 4.659-6.75 3.797-6.75 4.298-.414.653-.919.341c-.506-.313-1.529-.002-2.274.691-.745.692-2.019 1.405-2.831 1.584s-1.626.741-1.809 1.25-1.159.925-2.167.925-1.983.342-2.167.759c-.183.418-4.27 2.733-9.083 5.145-4.812 2.412-8.75 4.797-8.75 5.3s-.414.658-.919.346-1.529-.002-2.274.691c-.745.692-2.019 1.405-2.831 1.584s-1.626.741-1.809 1.25-1.196.925-2.25.925-1.917.45-1.917 1-.863 1-1.917 1-2.066.337-2.25.75c-.183.413-3.371 2.32-7.083 4.239s-6.75 3.859-6.75 4.309-.414.564-.919.252c-.506-.313-1.529-.002-2.274.691-.745.692-2.019 1.405-2.831 1.584s-1.626.741-1.809 1.25-1.159.925-2.167.925-1.983.353-2.167.784-3.868 2.519-8.188 4.639-9.378 5.377-11.239 7.237l-3.382 3.383.238 70.229c.188 55.548.499 70.176 1.488 69.978a1.25 1.25 0 0 1 1.477 1c.125.687.462-30.091.75-68.396.485-64.525.652-69.788 2.275-71.581.964-1.064 1.414-2.308 1-2.764-.414-.457-.271-.557.316-.223s2.179-.381 3.537-1.59c1.358-1.208 3.127-2.342 3.932-2.521s1.614-.744 1.798-1.256c.185-.512.711-.7 1.17-.416.458.283 1.433-.051 2.164-.744.732-.692 5.269-3.273 10.081-5.733 4.813-2.461 8.75-4.85 8.75-5.309s.414-.579.919-.267c.506.313 1.529.002 2.274-.691.745-.692 2.019-1.405 2.831-1.584s1.626-.741 1.809-1.25S408.992 290 410 290s1.983-.337 2.167-.75 4.158-2.734 8.833-5.158 8.725-4.674 9-5 1.175-.738 2-.917 1.651-.744 1.835-1.256c.185-.512.711-.7 1.17-.416.458.283 1.433-.051 2.164-.744.732-.692 5.269-3.273 10.081-5.733 4.813-2.461 8.75-4.85 8.75-5.309s.414-.579.919-.267c.506.313 1.529.002 2.274-.691.745-.692 2.019-1.405 2.831-1.584s1.626-.741 1.809-1.25S464.992 260 466 260s1.983-.339 2.167-.754 3.371-2.283 7.083-4.15 6.75-3.804 6.75-4.305.414-.653.919-.341c.506.313 1.529.002 2.274-.691.745-.692 2.019-1.405 2.831-1.584s1.626-.741 1.809-1.25S490.992 246 492 246s1.983-.338 2.167-.75 4.158-2.734 8.833-5.16c4.675-2.425 8.651-4.79 8.835-5.256.185-.465.711-.615 1.17-.331.458.283 1.443-.051 2.188-.744.745-.692 2.015-1.408 2.821-1.589.807-.182 1.696-.632 1.977-1 .28-.369 1.184-.816 2.009-.995s1.651-.744 1.835-1.256c.185-.512.742-.68 1.239-.373s.635-.14.308-.994c-.915-2.383-5.275-1.736-11.382 1.687m12.637 3.172c-.652.599-1.845 1.238-2.651 1.419-.807.182-1.696.635-1.977 1.007-.28.372-4.446 2.687-9.259 5.144-4.812 2.457-8.75 4.843-8.75 5.302s-.414.579-.919.267c-.506-.313-1.599.111-2.429.941S498.436 248 497.571 248s-1.571.45-1.571 1-.863 1-1.917 1-2.066.339-2.25.754c-.183.415-3.371 2.283-7.083 4.15s-6.75 3.804-6.75 4.305-.414.653-.919.341c-.506-.313-1.529-.002-2.274.691-.745.692-2.015 1.408-2.821 1.589-.807.182-1.696.636-1.977 1.009-.28.373-5.346 3.132-11.259 6.131S448 274.804 448 275.271c0 .466-.414.591-.919.279-.506-.313-1.529-.002-2.274.691-.745.692-2.019 1.405-2.831 1.584s-1.627.744-1.811 1.256c-.185.512-.711.7-1.17.416-.458-.283-1.433.053-2.164.747s-6.168 3.736-12.079 6.759-10.749 5.861-10.75 6.306-.416.553-.921.241-1.519-.001-2.25.692c-.732.694-6.168 3.718-12.081 6.721S388 306.804 388 307.271s-.414.591-.919.279c-.506-.313-1.529-.002-2.274.691-.745.692-2.019 1.405-2.831 1.584s-1.626.741-1.809 1.25-1.196.925-2.25.925-1.917.45-1.917 1-.689 1-1.531 1c-.843 0-1.822.788-2.177 1.75-.356.962-1.008 1.997-1.451 2.298-.57.388-1.278 97.447-.865 118.702.034 1.789 2.317 1.542 4.624-.5 1.088-.962 2.631-1.899 3.43-2.08.798-.182 1.68-.636 1.961-1.009.28-.373 5.346-3.132 11.259-6.131s10.75-5.834 10.75-6.301c0-.466.414-.591.919-.279.506.313 1.529.002 2.274-.691.745-.692 2.015-1.408 2.821-1.589.807-.182 1.696-.635 1.977-1.007.28-.372 4.447-2.687 9.259-5.144s8.75-4.843 8.75-5.302.414-.579.919-.267c.506.313 1.529.002 2.274-.691.745-.692 2.019-1.405 2.831-1.584s1.626-.741 1.809-1.25S436.992 402 438 402s1.983-.339 2.167-.754 3.371-2.283 7.083-4.15 6.75-3.804 6.75-4.305.414-.653.919-.341c.506.313 1.529.002 2.274-.691.745-.692 2.019-1.405 2.831-1.584s1.627-.744 1.811-1.256c.185-.512.711-.7 1.17-.416.458.283 1.433-.052 2.164-.745s4.369-2.83 8.081-4.748 6.75-3.858 6.75-4.308c0-.451.414-.564.919-.252.506.313 1.529.002 2.274-.691.745-.692 2.019-1.405 2.831-1.584s1.626-.741 1.809-1.25 1.196-.925 2.25-.925 1.917-.45 1.917-1 .863-1 1.917-1 2.066-.337 2.25-.75c.183-.413 3.371-2.32 7.083-4.239s6.75-3.859 6.75-4.309.414-.564.919-.252c.506.313 1.529.002 2.274-.691.745-.692 2.019-1.405 2.831-1.584s1.626-.741 1.809-1.25S518.992 358 520 358s1.983-.35 2.167-.777 2.691-1.931 5.573-3.342l5.241-2.566-.241-59.824-.24-59.825-2.339-.173c-1.287-.094-2.872.318-3.524.918M522 239.005c0 .388-3.937 2.672-8.75 5.076-4.812 2.404-8.979 4.683-9.259 5.065-.281.381-1.17.842-1.977 1.024-.806.181-2.076.897-2.821 1.589-.745.693-1.768 1.004-2.274.691-.505-.312-.919-.159-.919.341 0 .501-3.038 2.438-6.75 4.305s-6.9 3.735-7.083 4.15c-.184.415-1.159.754-2.167.754s-1.983.416-2.167.925-1.008 1.071-1.833 1.25-1.729.626-2.009.995c-.281.368-1.17.818-1.977 1-.806.181-2.076.897-2.821 1.589-.745.693-1.768 1.004-2.274.691-.505-.312-.919-.159-.919.341 0 .501-3.038 2.431-6.75 4.289-3.712 1.859-6.979 3.69-7.259 4.07-.281.379-1.17.838-1.977 1.02-.806.181-2.076.897-2.821 1.589-.745.693-1.768 1.004-2.274.691-.505-.312-.92-.204-.921.241s-4.838 3.279-10.75 6.298c-5.911 3.02-10.977 5.796-11.257 6.17-.281.374-1.17.829-1.977 1.011-.806.181-2.076.897-2.821 1.589-.745.693-1.768 1.004-2.274.691-.505-.312-.919-.192-.919.267s-3.937 2.845-8.75 5.302c-4.812 2.457-8.979 4.772-9.259 5.144s-1.17.825-1.977 1.007c-.806.181-2.076.897-2.821 1.589-.745.693-1.768 1.004-2.274.691-.505-.312-.919-.182-.919.291 0 .472-3.116 2.411-6.925 4.309-3.808 1.897-7.071 4.125-7.25 4.95s-.1 26.025.175 56l.5 54.5 2.412-.34c1.326-.187 3.05-.979 3.83-1.759.781-.781 1.833-1.164 2.339-.851.505.312.919.159.919-.341 0-.501 3.038-2.438 6.75-4.305s6.9-3.735 7.083-4.15c.184-.415 1.159-.754 2.167-.754s1.983-.416 2.167-.925.997-1.071 1.809-1.25 2.086-.892 2.831-1.584 1.768-1.004 2.274-.691c.505.312.919.192.919-.267s3.938-2.845 8.75-5.302c4.813-2.457 8.979-4.772 9.259-5.144s1.17-.825 1.977-1.007c.806-.181 2.076-.897 2.821-1.589.745-.693 1.768-1.004 2.274-.691.505.312.919.157.919-.346s3.938-2.881 8.75-5.285c4.813-2.404 8.979-4.683 9.259-5.065.281-.381 1.17-.842 1.977-1.024.806-.181 2.076-.897 2.821-1.589.745-.693 1.768-1.004 2.274-.691.505.312.919.157.919-.346s3.938-2.888 8.75-5.3c4.813-2.412 8.9-4.727 9.083-5.145.184-.417 1.003-.759 1.822-.759.818 0 2.167-.679 2.997-1.509s1.923-1.254 2.429-.941c.505.312.919.182.919-.29s5.738-3.761 12.75-7.309 12.9-6.788 13.083-7.201c.184-.413 1.196-.75 2.25-.75s1.917-.361 1.917-.803 2.259-1.904 5.02-3.25c2.899-1.414 5.234-3.292 5.526-4.447.279-1.1.383-26.075.231-55.5l-.277-53.5-3.25-.1c-1.788-.055-3.25.217-3.25.605m-2.6 6.745c-1.088.963-2.631 1.899-3.43 2.08-.798.182-1.68.632-1.961 1-.28.369-1.184.816-2.009.995s-1.65.741-1.833 1.25-1.159.925-2.167.925-1.983.342-2.167.759c-.183.418-4.27 2.733-9.083 5.145-4.812 2.412-8.75 4.797-8.75 5.3s-.414.658-.919.346-1.529-.002-2.274.691c-.745.692-2.015 1.408-2.821 1.589-.807.182-1.696.636-1.977 1.009-.28.373-5.346 3.132-11.259 6.131S458 278.804 458 279.271c0 .466-.414.591-.919.279-.506-.313-1.529-.002-2.274.691-.745.692-2.015 1.408-2.821 1.589-.807.182-1.696.635-1.977 1.007-.28.372-4.446 2.687-9.259 5.144-4.812 2.457-8.75 4.843-8.75 5.302s-.414.579-.919.267c-.506-.313-1.529-.002-2.274.691-.745.692-2.019 1.405-2.831 1.584s-1.627.744-1.811 1.256c-.185.512-.711.7-1.17.416-.458-.283-1.433.051-2.164.744-.732.692-5.268 3.273-10.081 5.733-4.812 2.461-8.75 4.85-8.75 5.309s-.414.579-.919.267c-.506-.313-1.529-.002-2.274.691-.745.692-2.019 1.405-2.831 1.584s-1.626.741-1.809 1.25-1.159.925-2.167.925-1.983.337-2.167.75-2.47 1.833-5.083 3.157-4.75 2.813-4.75 3.309-.45.624-1 .284c-.662-.409-1 16.823-1 50.941 0 28.357.387 51.559.86 51.559 1.622 0 13.14-6.334 13.14-7.226 0-.491.414-.636.919-.324.506.313 1.529.002 2.274-.691.745-.692 2.019-1.405 2.831-1.584s1.626-.741 1.809-1.25S400.992 412 402 412s1.983-.337 2.167-.75 4.271-2.764 9.083-5.224 8.75-4.85 8.75-5.309.414-.579.919-.267c.506.313 1.599-.111 2.429-.941s2.179-1.509 2.997-1.509 1.638-.337 1.822-.75c.183-.413 4.271-2.764 9.083-5.224s8.75-4.85 8.75-5.309.414-.579.919-.267c.506.313 1.599-.111 2.429-.941s2.179-1.509 2.997-1.509 1.638-.337 1.822-.75c.183-.413 4.271-2.764 9.083-5.224s8.75-4.85 8.75-5.309.414-.579.919-.267c.506.313 1.529.002 2.274-.691.745-.692 2.019-1.405 2.831-1.584s1.626-.741 1.809-1.25S482.992 368 484 368s1.983-.337 2.167-.75 5.17-3.225 11.081-6.25c5.912-3.025 10.749-5.864 10.75-6.309s.416-.553.921-.241 1.519-.001 2.25-.696c.732-.696 4.031-2.627 7.331-4.292l6-3.026.277-48.968c.153-26.932.031-49.98-.269-51.218-.655-2.7-2.427-2.873-5.108-.5m58.886 7.763c-1.188.831-2.173 2.294-2.19 3.25-.017.955-.56 4.57-1.208 8.032-1.343 7.173-.401 10.195 3.769 12.095 5.562 2.534 14.695.696 15.704-3.161.971-3.716-1.381-19.131-3.126-20.479-2.24-1.732-10.337-1.568-12.949.263m-9.121 26.811c-1.201 1.278-1.879 2.628-1.507 3 .371.372.198.676-.386.676-1.101 0-9.272 15.878-9.272 18.017 0 1.498 6.906 7.937 8.695 8.108 1.688.162 2.392.368 4.742 1.39 2.625 1.142 24.564 1.21 27.063.084 1.1-.496 2.667-1.034 3.482-1.196s1.64-.769 1.833-1.349c.193-.579.919-1.054 1.613-1.054 3.487 0 6.497-9.692 3.572-11.5-.55-.34-1-1.491-1-2.559s-.477-1.941-1.059-1.941-.803-.414-.491-.919.002-1.529-.691-2.274c-.692-.745-1.4-1.99-1.571-2.767-.172-.778-1.214-2.195-2.316-3.151s-1.913-2.093-1.803-2.527c.367-1.446-3.276-2.999-3.781-1.612-.25.688-1.317 1.25-2.371 1.25s-1.917.407-1.917.904c0 1.29-12.663 1.063-15.559-.28-1.334-.618-2.429-1.461-2.433-1.874-.016-1.55-2.739-.666-4.843 1.574m14.323 39.926c-.421 1.727-.034 48.03.416 49.583.053.184.612.162 1.242-.048.936-.312 1.602-35.92.937-50.035-.119-2.511-1.945-2.16-2.595.5M574 345.059c0 .582-.414.803-.919.491s-1.529-.002-2.274.691c-.745.692-2.015 1.408-2.821 1.589-.807.182-1.696.641-1.977 1.02-.28.38-3.547 2.211-7.259 4.07-3.712 1.858-6.75 3.788-6.75 4.289s-.414.653-.919.341c-.506-.313-1.599.111-2.429.941S546.436 360 545.571 360s-1.571.45-1.571 1-.707 1-1.571 1c-1.516 0-4.429 2.255-4.429 3.429 0 1.045 3.736.589 6.371-.777 1.429-.742 2.306-1.642 1.947-2-.358-.359.324-.652 1.515-.652 1.192 0 2.167-.477 2.167-1.059s.414-.803.919-.491 1.519-.006 2.25-.708c.732-.701 6.168-3.694 12.081-6.65s10.75-5.788 10.75-6.293.45-.639 1-.299 1-.084 1-.941c0-.892-.855-1.559-2-1.559-1.1 0-2 .477-2 1.059m16.613-.241c-.523.846 2.685 3.612 3.818 3.292.352-.1 1.336.514 2.185 1.363.85.85 1.959 1.29 2.465.977.505-.312.919-.162.919.334s2.138 1.985 4.75 3.309 4.9 2.744 5.083 3.157c.184.413 1.003.75 1.822.75.818 0 2.167.679 2.997 1.509s1.923 1.254 2.429.941c.505-.312.919-.182.919.29s5.737 3.761 12.75 7.309 12.9 6.788 13.083 7.201c.184.413 1.003.75 1.822.75.818 0 2.167.679 2.997 1.509s1.923 1.254 2.429.941c.505-.312.919-.187.919.279 0 .467 4.837 3.305 10.75 6.308s11.349 6.027 12.081 6.721c.731.693 1.744 1.005 2.25.692.505-.312.919-.187.919.279 0 .467 4.837 3.306 10.75 6.309s10.9 5.799 11.083 6.212c.184.413 1.196.75 2.25.75s1.917.45 1.917 1 .9 1 2 1 2 .45 2 1 .9 1 2 1 2 .45 2 1 .9 1 2 1 2 .399 2 .886 1.575 1.634 3.5 2.547 3.5 2.069 3.5 2.567-1.575 1.654-3.5 2.567-3.5 2.086-3.5 2.606-.414.689-.919.377c-.506-.313-1.599.111-2.429.941S710.436 426 709.571 426s-1.571.45-1.571 1-.862 1-1.917 1c-1.054 0-2.066.337-2.25.75-.183.413-2.471 1.833-5.083 3.157s-4.75 2.813-4.75 3.309-.414.646-.919.334c-.506-.313-1.529-.002-2.274.691-.745.692-2.019 1.405-2.831 1.584s-1.626.741-1.809 1.25-1.159.925-2.167.925-1.983.342-2.167.759c-.183.418-4.27 2.733-9.083 5.145-4.812 2.412-8.75 4.797-8.75 5.3s-.414.658-.919.346-1.599.111-2.429.941-2.216 1.509-3.081 1.509-1.571.45-1.571 1-.862 1-1.917 1c-1.054 0-2.066.337-2.25.75-.183.413-4.27 2.764-9.083 5.224-4.812 2.461-8.75 4.85-8.75 5.309s-.414.579-.919.267c-.506-.313-1.529-.002-2.274.691-.745.692-2.015 1.408-2.821 1.589-.807.182-1.696.641-1.977 1.02-.28.38-3.547 2.211-7.259 4.07-3.712 1.858-6.75 3.788-6.75 4.289s-.414.653-.919.341c-.506-.313-1.529-.002-2.274.691-.745.692-2.019 1.405-2.831 1.584s-1.626.741-1.809 1.25-1.159.925-2.167.925-1.983.339-2.167.754-3.371 2.283-7.083 4.15-6.75 3.778-6.75 4.246c0 .467-.9.85-2 .85s-2 .477-2 1.059-.414.803-.919.491-1.519.005-2.25.705c-.732.701-5.268 3.245-10.081 5.654-4.812 2.41-8.75 4.765-8.75 5.236 0 .47-.9.855-2 .855s-2 .477-2 1.059-.414.803-.919.491-1.599.111-2.429.941-2.216 1.509-3.081 1.509-1.571.45-1.571 1-.9 1-2 1-2 .45-2 1-.9 1-2 1-2 .366-2 .813c0 .448-1.555 1.424-3.455 2.169s-3.223 1.73-2.941 2.187-.413.831-1.545.831-2.059.477-2.059 1.059-.414.803-.919.491-1.599.111-2.429.941-2.179 1.509-2.997 1.509-1.638.342-1.822.759c-.183.418-4.27 2.733-9.083 5.145-4.812 2.412-8.75 4.797-8.75 5.3s-.414.658-.919.346-1.519.01-2.25.717-5.486 3.344-10.563 5.86-8.941 4.867-8.584 5.224-.326.649-1.517.649c-1.192 0-2.167.477-2.167 1.059s-.414.803-.919.491-1.529-.002-2.274.691c-.745.692-2.015 1.408-2.821 1.589-.807.182-1.696.643-1.977 1.024-.28.382-4.446 2.661-9.259 5.065-4.812 2.404-8.75 4.782-8.75 5.285s-.414.658-.919.346-1.529-.002-2.274.691c-.745.692-2.019 1.405-2.831 1.584s-1.626.741-1.809 1.25-1.159.925-2.167.925-1.983.337-2.167.75-2.47 1.833-5.083 3.157-4.75 2.691-4.75 3.037c0 1.025-5.998 1.556-10.5.931-.825-.115-1.5-.516-1.5-.892s-3.038-2.212-6.75-4.079-6.9-3.735-7.083-4.15c-.184-.415-1.196-.754-2.25-.754s-1.917-.45-1.917-1-.863-1-1.917-1-2.066-.416-2.25-.925c-.183-.509-.997-1.071-1.809-1.25s-2.086-.892-2.831-1.584-1.768-1.004-2.274-.691c-.505.312-.919.159-.919-.341 0-.501-3.038-2.438-6.75-4.305s-6.9-3.735-7.083-4.15c-.184-.415-1.196-.754-2.25-.754s-1.917-.45-1.917-1-.9-1-2-1-2-.45-2-1-.9-1-2-1-2-.45-2-1-.9-1-2-1-2-.45-2-1-.927-1-2.059-1-1.781-.45-1.441-1c.352-.569-.509-1-2-1-1.44 0-2.402-.349-2.139-.776.264-.426-1.958-1.889-4.937-3.25s-5.418-2.811-5.42-3.224-.867-.75-1.921-.75-2.066-.416-2.25-.925c-.183-.509-.997-1.071-1.809-1.25s-2.086-.892-2.831-1.584-1.73-1.027-2.188-.744c-.459.284-.985.096-1.17-.416s-.999-1.077-1.811-1.256-2.086-.892-2.831-1.584-1.73-1.027-2.188-.744c-.459.284-.985.096-1.17-.416s-.999-1.077-1.811-1.256-2.086-.892-2.831-1.584-1.768-1.004-2.274-.691c-.505.312-.919.159-.919-.341 0-.501-3.038-2.438-6.75-4.305s-6.9-3.735-7.083-4.15c-.184-.415-1.196-.754-2.25-.754s-1.917-.45-1.917-1-.707-1-1.571-1c-.865 0-2.251-.679-3.081-1.509s-1.923-1.254-2.429-.941c-.505.312-.919.183-.919-.288s-3.379-2.571-7.508-4.668c-8.443-4.286-9.391-5.174-6.507-6.089 1.108-.352 2.015-1.059 2.015-1.572s.9-.933 2-.933 2-.45 2-1 .9-1 2-1 2-.45 2-1 .863-1 1.917-1 2.066-.339 2.25-.754c.183-.415 3.371-2.283 7.083-4.15s6.75-3.804 6.75-4.305.414-.653.919-.341c.506.313 1.529.002 2.274-.691.745-.692 2.019-1.405 2.831-1.584s1.626-.741 1.809-1.25 1.196-.925 2.25-.925 1.917-.45 1.917-1 .863-1 1.917-1 2.066-.339 2.25-.754c.183-.415 3.37-2.283 7.083-4.15s6.75-3.804 6.75-4.305.414-.653.919-.341c.506.313 1.529.002 2.274-.691.745-.692 2.019-1.405 2.831-1.584s1.626-.741 1.809-1.25 1.196-.925 2.25-.925 1.917-.45 1.917-1 .863-1 1.917-1 2.066-.337 2.25-.75c.183-.413 2.47-1.833 5.083-3.157 4.559-2.311 5.878-4.278 3.75-5.593-.55-.34-1-.141-1 .441s-.863 1.059-1.917 1.059-2.066.342-2.25.759c-.183.418-4.27 2.733-9.083 5.145-4.812 2.412-8.75 4.797-8.75 5.3s-.414.658-.919.346-1.529-.002-2.274.691c-.745.692-2.015 1.408-2.821 1.589-.807.182-1.696.632-1.977 1-.28.369-1.184.816-2.009.995s-1.65.741-1.833 1.25-1.159.925-2.167.925-1.983.337-2.167.75-5.171 3.208-11.083 6.212c-5.913 3.003-10.75 5.842-10.75 6.309 0 .466-.414.591-.919.279-.506-.313-1.599.111-2.429.941S288.436 484 287.571 484s-1.571.45-1.571 1-.863 1-1.917 1-2.066.337-2.25.75c-.183.413-4.27 2.764-9.083 5.224l-8.75 4.475v221.383l3 1.328c1.65.731 3 1.668 3 2.084s.9.756 2 .756 2 .45 2 1 .707 1 1.571 1c.865 0 2.269.697 3.121 1.549s2.845 1.808 4.429 2.125c1.583.317 2.879.905 2.879 1.306 0 .402 3.938 2.704 8.75 5.116 4.813 2.412 8.9 4.727 9.083 5.145.184.417 1.003.759 1.822.759.818 0 2.167.679 2.997 1.509s1.923 1.254 2.429.941c.505-.312.919-.157.919.346s3.938 2.888 8.75 5.3c4.813 2.412 8.9 4.727 9.083 5.145.184.417 1.159.759 2.167.759s1.983.416 2.167.925.997 1.071 1.809 1.25 2.086.892 2.831 1.584 1.768 1.004 2.274.691c.505-.312.919-.157.919.346s3.938 2.885 8.75 5.295c4.813 2.409 9.349 4.953 10.081 5.654s1.706 1.041 2.164.758c.459-.284.985-.096 1.17.416s.999 1.077 1.811 1.256 2.086.892 2.831 1.584 1.768 1.004 2.274.691c.505-.312.919-.192.919.267s3.938 2.848 8.75 5.309c4.813 2.46 8.9 4.811 9.083 5.224.184.413 1.159.75 2.167.75s1.983.416 2.167.925.997 1.071 1.809 1.25 2.086.892 2.831 1.584 1.768 1.004 2.274.691c.505-.312.919-.162.919.334s2.137 1.985 4.75 3.309 4.9 2.744 5.083 3.157c.184.412 1.159.75 2.167.75s1.983.416 2.167.925 1.008 1.071 1.833 1.25 1.788.722 2.14 1.206c1.458 2.008 9.645.439 11.86-2.272.275-.337 1.738-1.25 3.25-2.03l2.75-1.417V693.3c0-89.892.182-102.433 1.494-102.936.822-.316 1.246-.976.941-1.469-.304-.492.374-.895 1.506-.895s2.059-.45 2.059-1 .863-1 1.917-1 2.066-.342 2.25-.759c.183-.418 4.271-2.733 9.083-5.145s8.75-4.797 8.75-5.3.414-.658.919-.346 1.529.002 2.274-.691c.745-.692 2.015-1.408 2.821-1.589.807-.182 1.696-.643 1.977-1.024.28-.382 4.447-2.661 9.259-5.065s8.75-4.755 8.75-5.226c0-.47.9-.855 2-.855s2-.477 2-1.059.414-.803.919-.491 1.599-.111 2.429-.941 2.179-1.509 2.997-1.509 1.638-.342 1.822-.759c.183-.418 4.271-2.733 9.083-5.145s8.75-4.797 8.75-5.3.414-.658.919-.346 1.599-.111 2.429-.941 2.179-1.509 2.997-1.509 1.638-.342 1.822-.759c.183-.418 4.271-2.733 9.083-5.145s8.75-4.77 8.75-5.241c0-.47.9-.855 2-.855s2-.477 2-1.059.414-.803.919-.491 1.519-.026 2.25-.752c.732-.727 2.761-1.951 4.509-2.722s2.959-1.755 2.691-2.188.44-.788 1.572-.788 2.059-.375 2.059-.833c0-.459.563-.855 1.25-.881s2.038-.375 3-.774c1.636-.679 1.75.72 1.75 21.452 0 22.629.385 25.036 4 25.036.629 0 1.822.679 2.652 1.509s1.923 1.254 2.429.941c.505-.312.919-.162.919.334s2.138 1.979 4.75 3.295c2.612 1.317 5.022 2.77 5.353 3.229.332.46 1.795.967 3.25 1.126 4.212.463 3.123-1.879-2.103-4.521-2.612-1.321-5.349-2.971-6.081-3.666-.731-.696-1.706-1.033-2.164-.75-.459.284-.985.096-1.17-.416s-.993-1.077-1.798-1.256-2.503-1.247-3.773-2.374c-2.246-1.992-2.325-2.656-2.843-23.873-.585-23.947-.377-24.888 5.695-25.743l2.384-.335.27 21.789c.242 19.598.443 21.853 2 22.427.951.351 1.959.972 2.239 1.381.281.408 1.17.891 1.977 1.073.806.181 2.076.897 2.821 1.589.745.693 1.768 1.004 2.274.691.505-.312.919-.091.919.491s.638 1.059 1.417 1.059 1.566.337 1.75.75c.485 1.093 8.771 5.25 10.463 5.25 1.13 0 1.21-.43.37-2-.589-1.1-1.73-2-2.535-2s-1.465-.45-1.465-1-.9-1-2-1-2-.45-2-1-.694-1-1.542-1-2.508-.9-3.688-2c-1.926-1.794-3.83-2.464-6.02-2.118-.413.065-.75-.782-.75-1.882q0-2 2-2c1.1 0 2-.45 2-1 0-2.066 4.771-.881 13 3.227 4.675 2.334 9.099 4.817 9.831 5.518s1.744 1.018 2.25.705c.505-.312.919-.091.919.491s.9 1.059 2 1.059 2-.285 2-.633c0-1.185-4.255-4.327-5.129-3.787-.479.296-.871.061-.871-.521s-.927-1.059-2.059-1.059-1.84-.355-1.572-.788-.943-1.41-2.691-2.17-3.407-1.719-3.687-2.132c-.281-.412-1.17-.898-1.977-1.08-.806-.181-2.076-.897-2.821-1.589-.745-.693-1.707-1.041-2.138-.775-1.264.781-2.109-11.172-2.002-28.322l.098-15.948 2.735-2.348c1.504-1.291 3.382-2.494 4.174-2.673s1.59-.741 1.773-1.25c.184-.509 1.159-.925 2.167-.925s1.983-.339 2.167-.754 3.371-2.283 7.083-4.15 6.75-3.804 6.75-4.305.414-.653.919-.341c.506.313 1.529.002 2.274-.691.745-.692 2.019-1.405 2.831-1.584s1.626-.741 1.809-1.25S634.992 484 636 484s1.983-.339 2.167-.754 3.371-2.283 7.083-4.15 6.75-3.804 6.75-4.305.414-.653.919-.341c.506.313 1.599-.111 2.429-.941s2.179-1.509 2.997-1.509 1.638-.342 1.822-.759c.183-.418 4.271-2.733 9.083-5.145s8.75-4.797 8.75-5.3.414-.658.919-.346 1.529.002 2.274-.691c.745-.692 2.015-1.408 2.821-1.589.807-.182 1.696-.632 1.977-1 .782-1.029 14.707-8.17 15.93-8.17.687 0 1.079 3.084 1.079 8.5 0 6.889.284 8.5 1.5 8.5 1.229 0 1.5-1.73 1.5-9.571 0-9.893.26-10.611 4.775-13.179 3.805-2.164 4.225-1.55 4.225 6.168 0 14.367 2.814 14.726 3.215.411.284-10.125.299-10.179 3.285-11.927 4.486-2.625 4.5-2.602 4.5 7.205 0 7.894.211 9.026 1.582 8.5.87-.334 1.77-.607 2-.607s.418-8.114.418-18.031c0-16.26-.172-18.095-1.75-18.677-.962-.356-1.979-.98-2.259-1.389-.281-.408-1.17-.891-1.977-1.073-.806-.181-2.076-.897-2.821-1.589-.745-.693-1.768-1.004-2.274-.691-.505.312-.919.157-.919-.346s-3.937-2.885-8.75-5.295c-4.812-2.409-9.349-4.953-10.081-5.654s-1.744-1.018-2.25-.705c-.505.312-.919.155-.919-.349 0-.505-4.837-3.338-10.75-6.297s-10.9-5.722-11.083-6.142c-.184-.419-1.003-.762-1.822-.762-.818 0-2.167-.679-2.997-1.509s-1.923-1.254-2.429-.941c-.505.312-.919.091-.919-.491s-.9-1.059-2-1.059-2-.385-2-.855c0-.471-3.937-2.829-8.75-5.241-4.812-2.412-8.9-4.727-9.083-5.145-.184-.417-1.003-.759-1.822-.759-.818 0-2.167-.679-2.997-1.509s-1.923-1.254-2.429-.941c-.505.312-.919.091-.919-.491s-.9-1.059-2-1.059-2-.45-2-1-.9-1-2-1-2-.385-2-.855c0-.471-3.937-2.829-8.75-5.241-4.812-2.412-8.9-4.727-9.083-5.145-.184-.417-1.196-.759-2.25-.759s-1.917-.45-1.917-1-.9-1-2-1-2-.45-2-1-.9-1-2-1-2-.45-2-1-.927-1-2.059-1-1.781-.45-1.441-1-.282-1-1.382-1-2.227.368-2.505.818M528.6 358.542c-.801.802-2.127 1.458-2.945 1.458s-1.638.337-1.822.75c-.183.413-5.058 3.177-10.833 6.144s-10.725 5.667-11 6-1.175.752-2 .931-1.65.741-1.833 1.25-1.159.925-2.167.925-1.983.337-2.167.75-4.158 2.734-8.833 5.158-8.725 4.674-9 5-1.175.738-2 .917-1.651.744-1.835 1.256c-.185.512-.711.7-1.17.416-.458-.283-1.433.051-2.164.744-.732.692-5.268 3.273-10.081 5.733-4.812 2.461-8.75 4.85-8.75 5.309s-.414.579-.919.267c-.506-.313-1.529-.002-2.274.691-.745.692-2.019 1.405-2.831 1.584s-1.626.741-1.809 1.25-1.159.925-2.167.925-1.983.337-2.167.75-3.371 2.32-7.083 4.239-6.75 3.859-6.75 4.309-.414.564-.919.252c-.506-.313-1.529-.002-2.274.691-.745.692-2.015 1.408-2.821 1.589-.807.182-1.696.632-1.977 1-.28.369-1.184.816-2.009.995s-1.65.741-1.833 1.25-1.159.925-2.167.925-1.983.337-2.167.75-4.158 2.734-8.833 5.16c-4.675 2.425-8.65 4.787-8.833 5.25-.184.462-1.196.84-2.25.84s-1.917.45-1.917 1-.863 1-1.917 1-2.066.337-2.25.75c-.183.413-2.92 2.083-6.083 3.711-3.163 1.629-5.779 3.429-5.814 4s-.243 2.614-.463 4.539c-.713 6.258.332 9 3.429 9 2.32 0 13.533-5.147 15.098-6.93.275-.314 1.175-.716 2-.895s1.651-.744 1.835-1.256c.185-.512.711-.7 1.17-.416.458.283 1.433-.052 2.164-.745s7.069-4.182 14.081-7.754 12.75-6.86 12.75-7.308.414-.558.919-.246 1.519.002 2.25-.691c.732-.692 5.269-3.273 10.081-5.733 4.813-2.461 8.75-4.85 8.75-5.309s.414-.579.919-.267c.506.313 1.529.002 2.274-.691.745-.692 2.015-1.408 2.821-1.589.807-.182 1.696-.632 1.977-1 .28-.369 5.234-3.097 11.009-6.064s10.725-5.667 11-6 1.175-.752 2-.931 1.65-.741 1.833-1.25S478.992 402 480 402s1.983-.337 2.167-.75 4.158-2.734 8.833-5.16c4.675-2.425 8.651-4.79 8.835-5.256.185-.465.711-.615 1.17-.331.458.283 1.433-.052 2.164-.745.732-.694 6.168-3.718 12.081-6.721s10.75-5.815 10.75-6.249.605-.788 1.345-.788c2.882 0 4.751-3.758 5.335-10.725.626-7.463-.874-9.938-4.08-6.733m44.816 3.009c-9.901 2.971-14.581 7.387-12.328 11.632 1.321 2.489 4.934 5.456 6.162 5.059.413-.133.75.11.75.54 0 1.549 9.656 3.586 17 3.586s17-2.037 17-3.586c0-.43.597-.782 1.326-.782 1.797 0 5.347-4.141 5.143-6-.09-.825-.233-2.282-.317-3.237-.19-2.175-6.846-6.463-10.734-6.916-1.605-.187-3.21-.744-3.567-1.239-1.811-2.509-3.851.491-3.851 5.661 0 6.3-1.127 7.731-6.093 7.731-4.226 0-4.825-.914-5.553-8.479-.571-5.934.021-5.458-4.938-3.97m-10.976 20.546c-.751 1.215 3.45 5.089 4.689 4.323.479-.296.871-.061.871.521s1.26 1.059 2.8 1.059 3.282.482 3.872 1.072c1.121 1.121 17.725.839 22.278-.379 6.774-1.812 12.772-6.138 8.913-6.428-1.475-.111-1.867.282-1.426 1.432.471 1.227.309 1.337-.717.486-.981-.815-2.091-.684-4.273.504-4.217 2.296-24.654 2.306-29.07.014-1.718-.892-3.405-1.339-3.75-.994-.345.344-.627.149-.627-.433 0-1.479-2.801-2.405-3.56-1.177M458 419.059c0 .582-.414.803-.919.491s-1.599.111-2.429.941-2.179 1.509-2.997 1.509-1.638.337-1.822.75c-.183.413-4.158 2.734-8.833 5.158s-8.725 4.674-9 5-1.175.738-2 .917-1.65.741-1.833 1.25-1.196.925-2.25.925-1.917.398-1.917.883c0 .486-.9 1.119-2 1.407-1.147.3-2 1.364-2 2.494 0 2.16 2.293 4.59 3.342 3.541.362-.362.658-.204.658.351s2.137 2.087 4.75 3.403c2.613 1.317 4.979 2.702 5.259 3.077.281.376 1.149.832 1.93 1.014.78.181 2.249 1.005 3.262 1.83 3.352 2.728 6.094 2.778 11.299.207 2.75-1.358 5.225-2.748 5.5-3.088.275-.341 1.175-.765 2-.944s1.65-.741 1.833-1.25 1.196-.925 2.25-.925 1.917-.45 1.917-1 .863-1 1.917-1 2.066-.337 2.25-.75c.183-.413 4.72-2.997 10.083-5.743s9.75-5.509 9.75-6.14c0-1.043-7.142-4.972-10.189-5.605-.695-.144-1.873-.829-2.618-1.521-.745-.693-1.73-1.027-2.188-.744-.459.284-.985.096-1.17-.416s-.992-1.077-1.796-1.256c-.803-.179-2.351-1.113-3.439-2.075-1.087-.962-2.567-1.75-3.289-1.75-.721 0-1.311-.45-1.311-1s-.9-1-2-1-2 .477-2 1.059m134.8 2.141c2.558 2.558 1.406 4.061-2.55 3.328-2.062-.382-3.9-1.108-4.083-1.612-1.032-2.837-10.167.145-10.167 3.319 0 1.603 5.865 4.967 7.21 4.136.434-.269.79-.012.79.57s.9 1.059 2 1.059 2 .45 2 1 .687 1 1.527 1 3.146 1.462 5.125 3.25 3.993 3.137 4.474 3 .874.2.874.75c0 2.176 10.375 1.105 13.25-1.368 2.538-2.183 3.957-7.632 1.987-7.632-.419 0-1.207-.976-1.75-2.168s-1.868-2.655-2.945-3.25-2.584-1.657-3.349-2.36c-3.651-3.353-17.666-6.295-14.393-3.022m128.315 2.522c-.679.727-1.658 1.06-2.175.741s-.94-.175-.94.321-2.138 1.985-4.75 3.309-4.9 2.744-5.083 3.157c-.184.413-.977.75-1.764.75-1.482 0-5.52 1.996-6.412 3.17-.281.368-1.17.818-1.977 1-.806.181-2.076.897-2.821 1.589-.745.693-1.768 1.004-2.274.691-.505-.312-.919-.162-.919.334s-2.138 1.985-4.75 3.309-4.9 2.744-5.083 3.157c-.184.413-1.159.75-2.167.75s-1.983.416-2.167.925-1.008 1.071-1.833 1.25-1.729.626-2.009.995c-.281.368-1.17.818-1.977 1-.806.181-2.076.897-2.821 1.589-.745.693-1.768 1.004-2.274.691-.505-.312-.919-.159-.919.341 0 .501-3.038 2.431-6.75 4.289-3.712 1.859-6.979 3.69-7.259 4.07-.281.379-1.17.838-1.977 1.02-.806.181-2.076.897-2.821 1.589-.745.693-1.768 1.004-2.274.691-.505-.312-.919-.159-.919.341 0 .501-3.038 2.438-6.75 4.305s-6.9 3.735-7.083 4.15c-.184.415-1.196.754-2.25.754s-1.917.45-1.917 1-.707 1-1.571 1c-.865 0-2.251.679-3.081 1.509s-1.923 1.254-2.429.941c-.505-.312-.919-.157-.919.346s-3.937 2.885-8.75 5.295c-4.812 2.409-9.349 4.953-10.081 5.654s-1.706 1.041-2.164.758c-.459-.284-.985-.096-1.17.416s-.999 1.077-1.811 1.256-2.086.892-2.831 1.584-1.768 1.004-2.274.691c-.505-.312-.919-.162-.919.334s-2.138 1.985-4.75 3.309-4.9 2.744-5.083 3.157c-.184.413-1.196.75-2.25.75s-1.917.45-1.917 1-.9 1-2 1-2 .45-2 1-.9 1-2 1-2 .385-2 .855c0 .471-3.937 2.829-8.75 5.241-4.812 2.412-8.9 4.727-9.083 5.145-.184.417-1.196.759-2.25.759s-1.917.45-1.917 1-.9 1-2 1-2 .45-2 1-.9 1-2 1-2 .45-2 1-.927 1-2.059 1-1.843.349-1.58.776c.264.426-1.958 1.889-4.937 3.25s-5.418 2.811-5.42 3.224-.904.75-2.004.75-2 .45-2 1-.707 1-1.571 1c-.865 0-2.251.679-3.081 1.509s-1.923 1.254-2.429.941c-.505-.312-.919-.091-.919.491s-.9 1.059-2 1.059-2 .45-2 1-.975 1-2.167 1-1.873.293-1.514.652c.358.359-2.604 2.259-6.584 4.224-3.979 1.964-7.834 4.15-8.566 4.857-.731.707-1.744 1.03-2.25.717-.505-.312-.919-.155-.919.349 0 .505-4.838 3.332-10.75 6.283-5.913 2.95-10.979 5.678-11.259 6.061s-1.17.845-1.977 1.027c-.806.181-2.076.897-2.821 1.589-.745.693-1.768 1.004-2.274.691-.505-.312-.919-.157-.919.346s-3.937 2.881-8.75 5.285c-4.812 2.404-8.979 4.683-9.259 5.065-.281.381-1.163.842-1.961 1.024-.799.181-2.342 1.118-3.43 2.08-1.087.962-2.567 1.75-3.289 1.75-.907 0-1.311 1.542-1.311 5 0 4.261.283 5 1.917 5 1.054 0 2.066-.416 2.25-.925.183-.509.997-1.071 1.809-1.25s2.086-.892 2.831-1.584 1.768-1.004 2.274-.691c.505.312.919.091.919-.491s.9-1.059 2-1.059 2-.45 2-1 .675-1 1.5-1 1.502-.337 1.504-.75 2.475-1.875 5.496-3.25 5.494-2.837 5.496-3.25.904-.75 2.004-.75 2-.45 2-1 .9-1 2-1 2-.45 2-1 .9-1 2-1 2-.379 2-.843 2.137-1.926 4.75-3.25 4.9-2.744 5.083-3.157c.184-.413 1.196-.75 2.25-.75s1.917-.45 1.917-1 .9-1 2-1 2-.45 2-1 .9-1 2-1 2-.45 2-1 .863-1 1.917-1 2.066-.416 2.25-.925c.183-.509.99-1.071 1.794-1.25.803-.179 2.351-1.113 3.439-2.075 1.087-.962 2.567-1.75 3.289-1.75.721 0 1.311-.45 1.311-1s.9-1 2-1 2-.45 2-1 .9-1 2-1 2-.45 2-1 .9-1 2-1 2-.45 2-1 .975-1 2.167-1 1.873-.293 1.514-.652c-.358-.359 2.604-2.259 6.584-4.224s7.385-3.921 7.568-4.348c.184-.427 1.196-.776 2.25-.776s1.917-.45 1.917-1 .9-1 2-1 2-.45 2-1 .927-1 2.059-1 1.781-.45 1.441-1c-.352-.569.509-1 2-1s2.352-.431 2-1 .509-1 2-1c1.44 0 2.402-.349 2.139-.776-.264-.426 1.958-1.889 4.937-3.25s5.418-2.811 5.42-3.224.711-.75 1.575-.75c.865 0 2.251-.679 3.081-1.509s1.923-1.254 2.429-.941c.505.312.919.157.919-.346s3.938-2.888 8.75-5.3c4.813-2.412 8.9-4.727 9.083-5.145.184-.417 1.003-.759 1.822-.759.818 0 2.167-.679 2.997-1.509s1.923-1.254 2.429-.941c.505.312.919.159.919-.341 0-.501 3.038-2.438 6.75-4.305s6.9-3.735 7.083-4.15c.184-.415 1.196-.754 2.25-.754s1.917-.45 1.917-1 .9-1 2-1 2-.45 2-1 .927-1 2.059-1 1.781-.45 1.441-1 .327-1 1.483-1c1.155 0 3.067-.9 4.247-2 1.954-1.82 3.874-2.479 6.094-2.094.454.079.587-.242.296-.712-.291-.471 1.025-1.466 2.925-2.212 1.9-.745 3.455-1.721 3.455-2.169s.9-.813 2-.813 2-.45 2-1 .707-1 1.571-1c.865 0 2.251-.679 3.081-1.509s1.923-1.254 2.429-.941c.505.312.919.162.919-.334s2.138-1.982 4.75-3.303 5.349-2.971 6.081-3.666c.731-.696 1.744-1.01 2.25-.697.505.312.919.091.919-.491s.707-1.059 1.571-1.059c.865 0 2.251-.679 3.081-1.509s1.923-1.254 2.429-.941c.505.312.919.162.919-.334s2.138-1.985 4.75-3.309 4.9-2.744 5.083-3.157c.184-.413 1.196-.75 2.25-.75s1.917-.45 1.917-1 .9-1 2-1 2-.45 2-1 .707-1 1.571-1c.865 0 2.251-.679 3.081-1.509s1.923-1.254 2.429-.941c.505.312.919.162.919-.334s2.138-1.985 4.75-3.309 4.9-2.744 5.083-3.157c.184-.413 1.196-.75 2.25-.75s1.917-.45 1.917-1 .9-1 2-1 2-.45 2-1 .707-1 1.571-1c2.8 0 4.429-2.71 4.429-7.366 0-4.76-2.029-5.969-4.885-2.912m-181.486 7.801c-.476 1.243-.22 1.328 1.394.465 2.318-1.241 2.537-1.988.584-1.988-.766 0-1.656.685-1.978 1.523m-7.022 3.013c-.845.844-1.788 1.486-2.096 1.425-1.353-.267-2.943.838-2.259 1.57.933 1 5.456-1.327 6.164-3.172.682-1.778.088-1.72-1.809.177m6.643 2.112c-1.788.881-3.25 2.247-3.25 3.036s.412 1.18.915.869 1.078-.073 1.279.53c.241.723 1.628.493 4.086-.679 3.924-1.872 4.777-3.784 2.138-4.797-1.925-.739-1.304-.864-5.168 1.041M548.5 441c-.972 1.573.404 3 2.892 3 2.954 0 3.869-.981 2.477-2.658-1.307-1.575-4.482-1.777-5.369-.342m-19.535 1.022c-.691.427-.968 1.528-.615 2.447.811 2.114 5.01 1.658 5.438-.59.348-1.825-2.87-3.065-4.823-1.857m-14.358 2.514c-.845.844-1.777 1.519-2.071 1.5-1.883-.126-2.382.119-2.878 1.413q-.56 1.452.893.893c.797-.306 1.449-.958 1.449-1.449s.337-.84.75-.775c1.888.299 3.081-.236 3.612-1.618.734-1.914.183-1.902-1.755.036m26.06.131c-1.742 1.742-.47 3.333 2.666 3.333 4.151 0 5.156-.907 2.901-2.619-1.888-1.434-4.511-1.771-5.567-.714m14.516 2.188c-1.75.829-3.183 1.903-3.183 2.385 0 .483-.508.564-1.13.18-.675-.417-.95-.161-.685.636.638 1.912 5.567 3.034 7.077 1.611.681-.642 2.46-1.797 3.954-2.568 5.115-2.638-.662-4.787-6.033-2.244M520 448c0 1.737.511 2.074 2.75 1.816 1.637-.188 2.75-.923 2.75-1.816s-1.113-1.628-2.75-1.816c-2.239-.258-2.75.079-2.75 1.816m51.199-1.175c.193.729.739 1.253 1.214 1.165.475-.089 1.285.44 1.801 1.175.768 1.093.875 1.095.587.01-.193-.729-.739-1.253-1.214-1.165-.475.089-1.285-.44-1.801-1.175-.768-1.093-.875-1.095-.587-.01m-152.795 1.33c-.363.588-.062 1.439.67 1.891 1.424.88 2.926.368 2.926-.998 0-1.346-2.875-2.059-3.596-.893M534 448.93c0 .512-1.013 1.108-2.25 1.325-2.171.379-2.179.423-.25 1.246 1.1.469 2.372 1.336 2.826 1.926.574.746.981.691 1.333-.177.279-.687 1.37-1.25 2.424-1.25 2.705 0 2.38-1.468-.63-2.839-3.079-1.403-3.453-1.428-3.453-.231m-112 1.913c0 .463 2.137 1.923 4.75 3.244s5.345 2.967 6.071 3.657c1.683 1.6 1.846 1.578 1.846-.244 0-.825-.407-1.5-.905-1.5s-1.584-.679-2.414-1.509-1.923-1.254-2.429-.941c-.505.312-.919.072-.919-.535 0-.606-.788-.97-1.75-.809-.978.164-1.64-.258-1.5-.956.137-.687-.425-1.25-1.25-1.25s-1.5.379-1.5.843m89.573.678c-2.09 1.581-2.056 1.699.941 3.253 1.494.774 2.512.68 3.941-.365 1.902-1.391 1.902-1.428-.014-2.877-2.391-1.809-2.491-1.809-4.868-.011M566 451c0 .55-.9 1-2 1s-2 .45-2 1-.9 1-2 1-2 .45-2 1-.933 1-2.073 1c-3.107 0-2.047 3.426 1.176 3.801 1.998.233 11.965-4.087 14.766-6.401.203-.168-.327-1.001-1.179-1.852-1.735-1.736-4.69-2.081-4.69-.548m-22 2c0 .55-.675 1-1.5 1s-1.5.45-1.5 1 .675 1 1.5 1 1.5.45 1.5 1c0 1.449 2.19 1.171 4.495-.571 1.671-1.263 1.76-1.653.548-2.403-.796-.491-1.806-.672-2.245-.401s-.798.016-.798-.566-.45-1.059-1-1.059-1 .45-1 1m-18.75.775c-2.44.395-2.692.979-1.342 3.11 1.102 1.741 6.092.678 6.092-1.297 0-1.654-1.706-2.306-4.75-1.813m58.142 1.4c-.419.677-.256.859.403.452.608-.376 1.581.207 2.163 1.294.917 1.713.589 2.2-2.45 3.642-1.929.916-3.508 2.133-3.508 2.706s.947.184 2.105-.864 2.17-1.761 2.25-1.585c.357.788 5.645-1.886 5.645-2.854 0-.596-.45-.806-1-.466s-1 .25-1-.2c0-1.579-3.849-3.354-4.608-2.125m153.246-.479c-.383.382-1.417.801-2.299.93-1.652.243-13.449 6.247-14.339 7.298-.275.325-3.538 2.158-7.25 4.073s-6.75 3.851-6.75 4.301-.414.564-.919.252c-.506-.313-1.529-.002-2.274.691-.745.692-2.015 1.408-2.821 1.589-.807.182-1.696.635-1.977 1.008-.28.372-3.547 2.244-7.259 4.159s-6.75 3.824-6.75 4.242-.862.761-1.917.761c-1.054 0-2.066.337-2.25.75-.183.413-3.371 2.32-7.083 4.239s-6.75 3.859-6.75 4.309-.414.564-.919.252c-.506-.313-1.529-.002-2.274.691-.745.692-2.019 1.405-2.831 1.584s-1.626.741-1.809 1.25-.883.925-1.555.925c-3.257 0-12.175 11.053-12.935 16.031-.16 1.055-.604 2.229-.985 2.61-.38.381-.692 2.897-.692 5.591s-.417 5.678-.926 6.629-1.088 4.276-1.286 7.388c-.199 3.112-.683 5.979-1.075 6.371s-.713 2.918-.713 5.612-.393 5.657-.873 6.584c-.481.926-1.141 4.515-1.467 7.975s-.794 6.617-1.04 7.014-.56 3.192-.698 6.209c-.139 3.017-.589 6.425-1 7.572-.822 2.294-1.377 27.007-1.098 48.914.166 13.052.335 14.182 2.49 16.688 1.271 1.478 2.958 2.828 3.749 3 .79.171 1.75.749 2.133 1.283 1.525 2.129 1.718-1.256 1.854-32.504.078-17.851.539-33.198 1.024-34.105s.953-4.058 1.041-7.005.509-6.042.936-6.88.894-3.988 1.036-7 .605-6.602 1.026-7.977 1.044-4.975 1.383-8c1.181-10.526 2.335-18.527 3.282-22.75.525-2.337.777-4.25.562-4.25s.277-1.293 1.094-2.873 1.204-3.155.859-3.5c-.344-.345-.132-.627.473-.627s1.4-.949 1.769-2.109c.799-2.517 9.335-11.251 11.456-11.721.819-.182 1.719-.638 2-1.014.28-.375 2.647-1.76 5.259-3.077s4.75-2.799 4.75-3.295.414-.646.919-.334c.506.313 1.519.002 2.25-.691.732-.692 5.269-3.273 10.081-5.733 4.813-2.461 8.75-4.85 8.75-5.309s.414-.579.919-.267c.506.313 1.529.002 2.274-.691.745-.692 2.015-1.408 2.821-1.589.807-.182 1.696-.635 1.977-1.008.28-.372 3.547-2.244 7.259-4.159s6.75-3.851 6.75-4.301.414-.564.919-.252c.506.313 1.519-.005 2.25-.705.732-.701 5.269-3.245 10.081-5.654 4.813-2.41 8.75-4.958 8.75-5.663 0-2.304-7.715-5.38-9.362-3.732m-233.719 1.354c-1.795 1.11-.299 3.95 2.081 3.95 1.135 0 2.321-.672 2.636-1.494.316-.822 1.046-1.203 1.623-.846.578.357.762.183.41-.386-.848-1.373-5.225-2.166-6.75-1.224m71.84.178c-2.428.826-2.571 1.103-1.252 2.422 1.874 1.874 5.871 1.381 6.282-.774.407-2.137-1.631-2.805-5.03-1.648m-85.57 1.811c-2.561 2.386-2.78 3.125-.689 2.323.825-.317 1.5-.978 1.5-1.469s.337-.84.75-.775c1.993.315 3.306-.219 2.75-1.118-.908-1.47-1.867-1.238-4.311 1.039m46.504-.27c-1.046.231-1.672 1.101-1.486 2.065.425 2.208 5.154 2.244 5.578.042.351-1.82-1.374-2.708-4.092-2.107m-21.026.898c-1.742 1.742-.47 3.333 2.666 3.333 4.057 0 5.02-.79 3.191-2.619-1.45-1.45-4.722-1.849-5.857-.714M484 461.059c0 .582-.414.803-.919.491s-1.519.01-2.25.718c-.732.707-3.689 2.44-6.572 3.851s-4.986 2.82-4.676 3.131c.668.668 11.6-4.929 12.513-6.405.345-.559.915-.977 1.266-.93 1.871.25 2.638-.016 2.638-.915 0-.55-.45-1-1-1s-1 .477-1 1.059m10.709-.435c-1.717 1.718-.556 3.376 2.364 3.376 2.388 0 2.999-.391 2.74-1.75-.341-1.79-3.829-2.901-5.104-1.626m52.541.038c-1.644.664-1.604 2.988.063 3.628 1.675.643 6.687-.291 6.687-1.246 0-.604-4.661-3.213-5.297-2.965-.112.043-.765.306-1.453.583m18 0c-.687.278-1.25 1.142-1.25 1.921s.563 1.469 1.25 1.532c4.703.433 8.291-1.53 5.742-3.141-1.599-1.011-3.724-1.126-5.742-.312m-58.812 3.043c-1.373 1.373-1.436 1.792-.322 2.15.761.245 1.721.94 2.134 1.545.526.772 1.007.702 1.612-.235.474-.735 1.16-1.264 1.525-1.175 1.853.448 3.049-.882 1.661-1.848-.799-.555-1.811-.788-2.25-.517s-.798.016-.798-.566c0-1.578-1.634-1.282-3.562.646m19.562-.646c0 .582-.445.784-.989.448-.574-.355-.73.063-.372.995.761 1.983 6.486 1.671 7.164-.391.277-.842.012-1.114-.673-.691-.622.384-1.13.221-1.13-.361s-.9-1.059-2-1.059-2 .477-2 1.059m218.5 2.069c-3.3 1.697-6.151 3.49-6.335 3.985s-.711.668-1.17.384c-.458-.283-1.433.052-2.164.745s-4.369 2.83-8.081 4.748-6.75 3.858-6.75 4.308c0 .451-.414.564-.919.252-.506-.313-1.519-.002-2.25.691-.732.692-5.268 3.273-10.081 5.733-4.812 2.461-8.75 4.85-8.75 5.309s-.414.579-.919.267c-.506-.313-1.519.003-2.25.702s-4.369 2.795-8.081 4.659-6.75 3.797-6.75 4.298-.414.653-.919.341c-.506-.313-1.529-.002-2.274.691-.745.692-2.019 1.405-2.831 1.584s-1.626.741-1.809 1.25-.883.925-1.555.925c-3.129 0-11.984 10.787-12.977 15.807-.184.931-.6 2.368-.925 3.193s-.791 3.3-1.035 5.5-.69 4.675-.99 5.5-.764 3.75-1.031 6.5-.714 5.675-.995 6.5-.754 4.331-1.052 7.791c-.297 3.46-.741 6.617-.987 7.014s-.564 3.192-.707 6.209-.605 6.611-1.026 7.986c-2.708 8.84-3.878 75.213-1.383 78.445 1.494 1.935 9.173 2.48 10.47.744.289-.387 3.564-2.271 7.276-4.186s6.75-3.851 6.75-4.301.414-.564.919-.252c.506.313 1.599-.111 2.429-.941s2.179-1.509 2.997-1.509 1.638-.337 1.822-.75c.183-.413 2.471-1.833 5.083-3.157s4.75-2.813 4.75-3.309.414-.646.919-.334c.506.313 1.519.002 2.25-.691.732-.692 5.156-3.243 9.831-5.669s8.651-4.79 8.835-5.256c.185-.465.711-.615 1.17-.331.458.283 1.433-.051 2.164-.744.732-.692 5.269-3.273 10.081-5.733 4.813-2.461 8.75-4.824 8.75-5.25s.597-.776 1.326-.776c1.921 0 5.505-4.128 8.193-9.438 2.247-4.439 2.345-5.594 2.562-30.338.125-14.148.574-26.849 1-28.224.425-1.375 1.016-5.331 1.312-8.791s.741-6.617.987-7.014.557-3.192.691-6.209c.135-3.017.614-6.225 1.065-7.129s.895-4.053.987-7 .514-6.298.937-7.448.889-4.3 1.035-7 .603-6.034 1.015-7.409c.413-1.375 1-4.975 1.305-8s.837-6.736 1.185-8.246c.901-3.919-2.038-9.76-4.897-9.733-1.212.012-4.903 1.41-8.203 3.107m-167.929-.557c-1.95 1.95-1.997 2.53-.148 1.82.782-.3 1.668-1.186 1.968-1.968.71-1.849.13-1.802-1.82.148m-91.066 1c-2.417 1.826-.796 3.296 3.157 2.862 3.392-.373 3.866-1.048 2.028-2.885-1.9-1.901-2.643-1.898-5.185.023m54.495-.693c0 .617-.9 1.122-2 1.122-2.721 0-2.517 1.385.436 2.966 2.088 1.117 2.678 1.063 4.12-.379.925-.925 1.516-1.788 1.313-1.918s-1.157-.838-2.119-1.574q-1.749-1.338-1.75-.217m16.25.342c-3.185 1.537-2.954 3.142.388 2.695.351-.047 1.026.515 1.5 1.25.719 1.113 1.005 1.113 1.724 0 .474-.735 1.16-1.264 1.525-1.175 2.221.537 2.913-.919 1.113-2.343-2.327-1.842-3.192-1.901-6.25-.427m-39.101 2.384c-1.147 1.297-1.072 1.739.5 2.93 2.294 1.738 2.41 1.736 4.792-.066 1.922-1.453 1.922-1.483 0-2.936-2.456-1.858-3.599-1.842-5.292.072m54.465-.041c-.33.86-1.022 1.303-1.538.984s-1.22-.122-1.566.437c-.899 1.454 1.669 1.196 3.74-.376 1.896-1.44 2.28-2.608.857-2.608-.491 0-1.163.704-1.493 1.563m-73.52.526c-2.33.932-2.346 1.008-.5 2.405 2.54 1.922 5.326 1.879 6.083-.095 1.047-2.728-1.697-3.864-5.583-2.31m32.98 1.847c-1.334.341-2.63 1.232-2.88 1.981-.273.82-.004 1.084.676.663.622-.384 1.13-.221 1.13.361s.9 1.059 2 1.059 2-.477 2-1.059.45-.781 1-.441c1.452.897 1.229-1.078-.25-2.219-.687-.53-2.342-.685-3.676-.345m17.926.027c-3.381.848-3.212 3.455.25 3.853 1.558.18 2.75-.171 2.75-.809 0-.619.45-.847 1-.507s1-.035 1-.834c0-1.866-1.845-2.495-5-1.703m-73 1.596c0 .857.45 1.281 1 .941s1-.141 1 .441c0 1.514 2.894 1.308 4.524-.322 1.829-1.829.866-2.619-3.191-2.619-2.352 0-3.333.459-3.333 1.559m-13.202.691c-.74.688-2.01 1.399-2.822 1.581s-1.841.979-2.287 1.771c-.447.792-1.234 1.179-1.75.86-.517-.319-.939-.103-.939.479 0 1.575 1.379 1.286 3.561-.747 1.953-1.819 2.693-2.194 4.332-2.194.491 0 1.152-.675 1.469-1.5.701-1.828.217-1.905-1.564-.25m46.306-.336c-1.937 1.227-.61 4.086 1.896 4.086s3.833-2.859 1.896-4.086c-.768-.486-1.621-.883-1.896-.883s-1.128.397-1.896.883m-20.04 1.025c-1.963 1.243.4 4.16 2.759 3.406.922-.295 2.273-.717 3.001-.938 1.057-.32 1.021-.705-.178-1.904-1.706-1.706-3.492-1.886-5.582-.564m68.686 1.325c-2.062 1.149-3.75 2.412-3.75 2.808 0 .953 8.945-3.354 8.976-4.322.036-1.118-1.077-.795-5.226 1.514m-89.083.403c-1.66 1.659-.488 3.333 2.333 3.333 2.333 0 3-.444 3-2 0-1.979-3.75-2.917-5.333-1.333m52.583-.005c-.687.278-1.25 1.142-1.25 1.921 0 1.761 3.055 2.152 6.824.872 1.06-.36 1.025-.749-.178-1.952-1.517-1.517-3.106-1.765-5.396-.841m15.25 1.35c-1.65 1.026-3.468 2.23-4.039 2.677-.572.446-1.692.96-2.491 1.141-.798.182-1.68.64-1.961 1.019-.28.379-6.253 3.605-13.273 7.17-8.686 4.411-12.677 6.96-12.492 7.981.405 2.233 5.9 2.429 8.307.296 1.115-.988 2.68-1.945 3.479-2.126.798-.182 1.68-.633 1.961-1.002.28-.369 4.334-2.655 9.009-5.079s8.651-4.789 8.835-5.255c.185-.465.711-.615 1.17-.331.458.283 1.443-.051 2.188-.744.745-.692 2.019-1.405 2.831-1.584s1.626-.741 1.809-1.25 1.196-.925 2.25-.925 1.917-.45 1.917-1c0-.92-1.417-1.408-3.25-1.118-.413.065-.75-.332-.75-.882 0-1.482-2.116-1.093-5.5 1.012m-54.5 1.047c0 .582-.45.781-1 .441s-1-.115-1 .5-.52.797-1.155.405c-.715-.443-.883-.275-.44.44.392.635 1.324 1.155 2.071 1.155.746 0 1.586.563 1.865 1.25.396.977.711.958 1.445-.085.516-.735 1.236-1.264 1.601-1.175 1.853.448 3.049-.882 1.661-1.848-.799-.555-1.811-.788-2.25-.517s-.798.016-.798-.566-.45-1.059-1-1.059-1 .477-1 1.059m18 .875c0 1.64.634 2.066 3.073 2.066 4.049 0 3.758-3.344-.332-3.816-2.206-.255-2.741.087-2.741 1.75m50.607.602c-.845.844-1.777 1.519-2.071 1.5-2.119-.142-2.568.103-1.97 1.071.491.794.892.77 1.421-.086.405-.655 1.024-1.153 1.375-1.106 1.846.247 2.476-.051 3-1.415.734-1.914.183-1.902-1.755.036m-90.357.684c-2.172 1.048-3.041 2.702-1.5 2.854.413.041 1.655.247 2.76.457 3.332.635 5.145-1.019 3.224-2.94-1.818-1.818-1.532-1.794-4.484-.371M514 479c0 .55-.712 1-1.583 1s-1.422.484-1.225 1.075.746 1.003 1.221.915c.475-.089 1.251.44 1.725 1.175.719 1.113 1.005 1.113 1.724 0 .474-.735 1.16-1.264 1.525-1.175 1.853.448 3.049-.882 1.661-1.848-.799-.555-1.811-.788-2.25-.517s-.798.016-.798-.566-.45-1.059-1-1.059-1 .45-1 1m-22.851 2.604c-1.478 1.671 1.265 4.834 3.351 3.863.55-.256 1.788-.743 2.75-1.083 2.43-.857 2.18-1.677-.957-3.134-3.322-1.543-3.476-1.532-5.144.354m-17.649.178c-1.1.227-2.45.923-3 1.548s-.594.814-.099.419c.496-.395 1.43.005 2.076.889 1.363 1.864 5.523 1.036 5.523-1.098 0-1.609-1.805-2.314-4.5-1.758m-19.028 1.138c.623 1.034.447 1.263-.649.842-2.651-1.017-4.405.799-2.557 2.647.875.875 2.105 1.591 2.734 1.591 1.166 0 4.539-2.903 3.869-3.331-.203-.129-1.243-.895-2.311-1.702-1.612-1.218-1.797-1.226-1.086-.047m50.778.855c-2.427.393-2.691.981-1.372 3.062 1.137 1.793 5.522 1.08 5.911-.961.355-1.863-1.294-2.626-4.539-2.101M440 485.059c0 .582-.414.803-.919.491s-1.519.023-2.25.747c-.732.723-2.156 1.627-3.164 2.009-1.845.699-1.854 3.194-.012 3.194.543 0 1.775.788 2.738 1.75.962.962 1.943 1.75 2.178 1.75.932 0 .329-1.016-1.76-2.961-2.162-2.015-2.165-2.061-.25-3.845 1.983-1.847 2.685-2.194 4.439-2.194.55 0 1-.45 1-1s-.45-1-1-1-1 .477-1 1.059m43.744.386c-3.887 2.842.447 5.935 4.418 3.154 2.101-1.472 2.111-1.556.261-2.241-1.058-.392-2.151-1.044-2.429-1.45-.279-.406-1.291-.164-2.25.537M464 486.993c0 .619-.508.811-1.13.427-.685-.423-.949-.151-.672.691.748 2.275 8.06 2.471 7.629.204-.38-2.004-5.827-3.241-5.827-1.322m-21.333 1.674c-2.035 2.034.938 4.645 4.083 3.587 2.329-.784 1.445-4.254-1.083-4.254-1.284 0-2.634.3-3 .667m51.656.934c-.338.88-.088 1.926.555 2.323 1.894 1.171 7.122-.001 7.122-1.597 0-.795-.45-1.167-1-.827s-1 .141-1-.441c0-1.698-5.001-1.221-5.677.542M456 491c0 .55-.9 1-2 1s-2 .45-2 1-.9 1-2 1-2 .45-2 1c0 .92 1.417 1.408 3.25 1.118.413-.065.75.332.75.882 0 1.721 2.52 1.095 5.038-1.25 1.328-1.238 2.549-2.104 2.714-1.925.164.179.849.118 1.523-.135.828-.312.578-.973-.775-2.043-2.281-1.805-4.5-2.124-4.5-.647m18 .883c0 2.063 3.041 3.328 5.035 2.095 2.001-1.237.276-3.978-2.504-3.978-1.812 0-2.531.535-2.531 1.883m14 1.047c0 .512-1.012 1.108-2.25 1.325-2.171.379-2.179.423-.25 1.246 1.1.469 2.266 1.246 2.591 1.727.624.924 5.909-1.068 5.909-2.228 0-.609-4.422-3-5.547-3-.249 0-.453.419-.453.93m-60 2.601c0 .843.788 1.83 1.75 2.194.962.365 2.349 1.255 3.081 1.978s1.744 1.06 2.25.747c.505-.312.919-.091.919.491s.9 1.059 2 1.059 2-.45 2-1-.675-1-1.5-1-1.5-.45-1.5-1-.675-1-1.5-1-1.5-.45-1.5-1-.9-1-2-1-2-.45-2-1-.45-1-1-1-1 .689-1 1.531m38-.767c0 .42-1.8 1.544-4 2.497-4.493 1.947-5.404 4.739-1.547 4.739 2.943 0 7.547-1.964 7.547-3.22 0-.494.359-.676.798-.405 1.934 1.195 3.566-1.153 1.936-2.784-1.64-1.64-4.734-2.18-4.734-.827m49.75 2.628c-.962.731-1.75 1.686-1.75 2.123s.824.049 1.831-.862c1.007-.912 2.204-1.319 2.66-.905.457.414.506.19.11-.498-.86-1.495-.683-1.504-2.851.142m-42.5 3.245c-3.988 1.99-7.25 3.935-7.25 4.322 0 1.345 5.1 3.492 5.815 2.448.377-.551 3.272-2.251 6.435-3.778 5.725-2.764 7.18-4.866 4.168-6.022-.87-.334-1.657-.603-1.75-.598s-3.43 1.637-7.418 3.628m20.323-1.116c-1.06.802-1.735 1.59-1.5 1.752s1.147.84 2.027 1.508c1.278.97 2.263.884 4.887-.424l3.287-1.64-2.387-1.323c-3.038-1.684-3.944-1.665-6.314.127M450 500.751c0 .796 3.78 3.457 4.27 3.005.152-.141 1.364.756 2.692 1.994s2.968 2.25 3.643 2.25c.676 0 1.378.416 1.562.925.183.509.99 1.071 1.794 1.25.803.179 2.351 1.113 3.439 2.075 1.087.962 2.53 1.75 3.205 1.75s1.378.416 1.562.925c.183.509 1.008 1.071 1.833 1.25s1.813.762 2.196 1.296c.382.534 1.044.622 1.471.196.91-.91-1.698-2.766-2.869-2.042-.439.271-.798.093-.798-.397s-1.238-1.528-2.75-2.307c-1.512-.78-2.979-1.72-3.259-2.089-.281-.37-1.163-.82-1.961-1.002-.799-.181-2.325-1.102-3.392-2.045-1.068-.944-2.263-1.517-2.656-1.274s-1.51-.437-2.482-1.511-2.157-1.712-2.634-1.417-.866.167-.866-.283c0-.451-.9-1.381-2-2.068s-2-.903-2-.481m-183.442 1.024c-2.776 2.777.996 11.024 5.512 12.05.786.179 1.58.741 1.763 1.25.184.509 1.196.925 2.25.925s1.917.45 1.917 1 .9 1 2 1 2 .45 2 1 .9 1 2 1 2 .45 2 1 .863 1 1.917 1 2.066.337 2.25.75c.183.413 2.47 1.833 5.083 3.157s4.75 2.787 4.75 3.25.9.843 2 .843 2 .477 2 1.059.414.803.919.491 1.599.111 2.429.941 2.216 1.509 3.081 1.509 1.571.477 1.571 1.059.414.803.919.491 1.599.111 2.429.941 2.216 1.509 3.081 1.509 1.573.337 1.575.75 2.441 1.864 5.42 3.224 5.201 2.824 4.937 3.25.448.776 1.58.776 2.059.45 2.059 1 .9 1 2 1 2 .45 2 1 .9 1 2 1 2 .477 2 1.059.414.803.919.491 1.599.111 2.429.941 2.179 1.509 2.997 1.509 1.638.343 1.822.762c.183.42 5.17 3.183 11.083 6.142s10.75 5.792 10.75 6.297.414.661.919.349 1.529-.002 2.274.691c.745.692 2.019 1.405 2.831 1.584s1.626.741 1.809 1.25 1.196.925 2.25.925 1.917.45 1.917 1 .9 1 2 1 2 .45 2 1 .9 1 2 1 2 .366 2 .813c0 .448 1.555 1.424 3.455 2.169s3.223 1.73 2.941 2.187.413.831 1.545.831 2.059.45 2.059 1 .9 1 2 1 2 .45 2 1 .863 1 1.917 1 2.066.337 2.25.75c.326.733 10.323 6.25 11.326 6.25.279 0 .5-2.362.491-5.25l-.015-5.25-4.985-2.447c-2.741-1.346-4.984-2.808-4.984-3.25s-.9-.803-2-.803-2-.45-2-1-.9-1-2-1-2.004-.337-2.008-.75c-.009-.877-4.834-3.25-6.608-3.25-.67 0-1.367-.337-1.551-.75s-3.371-2.32-7.083-4.239-6.75-3.859-6.75-4.309-.414-.564-.919-.252c-.506.313-1.529.002-2.274-.691-.745-.692-2.015-1.408-2.821-1.589-.807-.182-1.696-.632-1.977-1-.28-.369-1.184-.816-2.009-.995s-1.65-.741-1.833-1.25-1.196-.925-2.25-.925-1.921-.337-1.925-.75c-.009-.898-4.852-3.25-6.691-3.25-.716 0-1.301-.45-1.301-1s-.59-1-1.311-1c-.722 0-2.202-.788-3.289-1.75s-2.636-1.896-3.439-2.075c-.804-.179-1.612-.744-1.796-1.256-.185-.512-.711-.7-1.17-.416-.458.283-1.443-.051-2.188-.744-.745-.692-2.019-1.405-2.831-1.584s-1.627-.744-1.811-1.256c-.185-.512-.711-.7-1.17-.416-.458.283-1.443-.051-2.188-.744-.745-.692-2.019-1.405-2.831-1.584s-1.626-.741-1.809-1.25S331.008 534 330 534s-1.983-.337-2.167-.75-2.47-1.833-5.083-3.157-4.75-2.813-4.75-3.309-.414-.646-.919-.334c-.506.313-1.529.002-2.274-.691-.745-.692-2.019-1.405-2.831-1.584s-1.627-.744-1.811-1.256c-.185-.512-.711-.7-1.17-.416-.458.283-1.443-.051-2.188-.744-.745-.692-2.015-1.408-2.821-1.589-.807-.182-1.696-.636-1.977-1.009-.28-.373-5.346-3.132-11.259-6.131S280 507.196 280 506.729c0-.466-.414-.591-.919-.279-.506.313-1.529.002-2.274-.691-.745-.692-2.015-1.408-2.821-1.589-.807-.182-1.696-.671-1.977-1.088-.69-1.026-4.757-2.001-5.451-1.307m173.874.335c-.873 1.412 2.676 3.975 4.819 3.48.964-.222 1.498.008 1.187.51-.311.503.251 1.223 1.249 1.601.997.378 2.412 1.279 3.144 2.002.731.724 1.744 1.06 2.25.747.505-.312.919-.14.919.384s.652 1.202 1.449 1.508c2.544.976.621-1.97-2.252-3.451-1.483-.765-3.569-2.179-4.636-3.141-1.066-.962-2.528-1.75-3.25-1.75-.721 0-1.311-.402-1.311-.893 0-1.362-2.851-2.158-3.568-.997m44.672 1.804c-1.952 1.236-.601 4.086 1.936 4.086 1.157 0 2.777-.674 3.601-1.498 1.331-1.331 1.204-1.61-1.136-2.5-3.12-1.186-2.679-1.178-4.401-.088m17.467.657c-1.95 1.95-1.997 2.53-.148 1.82.782-.3 1.668-1.186 1.968-1.968.71-1.849.13-1.802-1.82.148m88.691 3.235c-1.782.85-3.503 2.377-3.825 3.392-.794 2.501-.85 39.723-.061 40.511.676.676 5.334-1.464 7.374-3.388 1.388-1.309 1.833-38.886.485-40.941-.527-.803-1.65-.682-3.973.426M476 509.059c0 .582-.508.745-1.13.361-.675-.417-.95-.161-.685.636.559 1.675 5.156 2.969 6.843 1.927 2.007-1.241.288-3.983-2.497-3.983-1.392 0-2.531.477-2.531 1.059m11.179 3.447c-5.444 2.805-7.885 4.558-7.059 5.068.719.445 1.431.274 1.654-.397.216-.647 1.218-1.177 2.226-1.177s1.983-.337 2.167-.75 2.47-1.833 5.083-3.157 4.75-2.787 4.75-3.25-.113-.794-.25-.734c-.137.059-3.995 2.038-8.571 4.397m-220.508 5.195c-.273.99-.491 45.519-.485 98.954l.011 97.156 2.409 2.094c1.325 1.152 3.081 2.095 3.902 2.095.82 0 1.492.45 1.492 1s.702 1 1.559 1 1.281.45.941 1 .309 1 1.441 1 2.059.45 2.059 1 .9 1 2 1 2 .45 2 1 .9 1 2 1 2 .45 2 1 .9 1 2 1 2 .45 2 1 .9 1 2 1 2.002.337 2.004.75 2.441 1.864 5.42 3.224 5.194 2.835 4.922 3.275-.124.682.33.538c1.276-.407 7.324 2.347 7.324 3.334 0 .484.9.879 2 .879s2 .477 2 1.059.414.803.919.491 1.599.111 2.429.941 2.216 1.509 3.081 1.509 1.573.337 1.575.75 2.441 1.864 5.42 3.224 5.201 2.824 4.937 3.25.396.776 1.466.776c2.503 0 7.343 2.497 6.491 3.348-.358.359.324.652 1.515.652 1.192 0 2.167.477 2.167 1.059s.414.803.919.491 1.599.111 2.429.941 2.216 1.509 3.081 1.509 1.571.45 1.571 1 .863 1 1.917 1 2.066.339 2.25.754c.183.415 3.371 2.283 7.083 4.15s6.75 3.804 6.75 4.305.414.653.919.341c.506-.313 1.599.111 2.429.941s2.216 1.509 3.081 1.509 1.575.337 1.579.75c.009.877 4.834 3.25 6.608 3.25.67 0 1.367.337 1.551.75s2.47 1.833 5.083 3.157 4.75 2.813 4.75 3.309.414.646.919.334c.506-.313 1.599.111 2.429.941s2.216 1.509 3.081 1.509 1.571.45 1.571 1 .9 1 2 1 2 .366 2 .813c0 .448 1.555 1.424 3.455 2.169s3.281 1.636 3.069 1.979.483.689 1.545.769c1.896.143 1.931-1.678 1.931-100.792C422 596.667 421.987 596 420 596c-1.1 0-2-.45-2-1s-.9-1-2-1c-1.986 0-2 .667-2 94.441 0 70.308-.295 94.623-1.155 95.154-.715.443-.883.275-.44-.44.468-.758-.166-1.155-1.846-1.155-1.407 0-2.559-.477-2.559-1.059s-.414-.803-.919-.491-1.529.002-2.274-.691c-.745-.692-2.019-1.405-2.831-1.584s-1.626-.741-1.809-1.25S399.008 776 398 776s-1.983-.339-2.167-.754-3.371-2.283-7.083-4.15-6.75-3.804-6.75-4.305-.414-.653-.919-.341c-.506.313-1.529.002-2.274-.691-.745-.692-2.019-1.405-2.831-1.584s-1.626-.741-1.809-1.25S373.008 762 372 762s-1.983-.337-2.167-.75-4.27-2.764-9.083-5.224c-4.812-2.461-8.75-4.85-8.75-5.309s-.414-.579-.919-.267c-.506.313-1.599-.111-2.429-.941S346.473 748 345.655 748s-1.638-.339-1.822-.754c-.183-.415-3.371-2.283-7.083-4.15s-6.75-3.804-6.75-4.305-.414-.653-.919-.341c-.506.313-1.529.002-2.274-.691-.745-.692-2.019-1.405-2.831-1.584s-1.626-.741-1.809-1.25-1.196-.925-2.25-.925-1.917-.45-1.917-1-.863-1-1.917-1-2.066-.339-2.25-.754c-.183-.415-3.371-2.283-7.083-4.15s-6.75-3.804-6.75-4.305-.414-.653-.919-.341c-.506.313-1.529.002-2.274-.691-.745-.692-2.015-1.408-2.821-1.589-.807-.182-1.696-.649-1.977-1.038-.28-.39-3.765-2.31-7.744-4.268-3.98-1.958-6.942-3.853-6.584-4.212s.127-.652-.514-.652c-.881 0-1.167-23.243-1.167-94.82v-94.819l-2.25-1.931c-3.085-2.646-6.456-2.994-7.079-.729m11.984 5.756c-.785 2.045-.804 168.63-.021 176.278.657 6.407 1.893 7.744 4.386 4.741.696-.838 1.479-1.31 1.742-1.048s1.098-.145 1.857-.904c1.981-1.981 2.071-175.036.092-176.845-3.809-3.485-7.212-4.423-8.056-2.222M474.5 523c.34.55 1.604.993 2.809.985 1.781-.013 1.91-.197.691-.985-1.97-1.273-4.287-1.273-3.5 0m-183.461 91.359.015 86.358 2.783 2.392c1.531 1.315 3.431 2.537 4.223 2.716s1.59.741 1.773 1.25c.184.509 1.196.925 2.25.925s1.917.45 1.917 1 .863 1 1.917 1 2.066.337 2.25.75c.183.413 4.271 2.764 9.083 5.224s8.75 4.85 8.75 5.309.414.579.919.267c.506-.313 1.529-.002 2.274.691.745.692 2.019 1.405 2.831 1.584s1.626.741 1.809 1.25 1.159.925 2.167.925 1.983.337 2.167.75 3.371 2.32 7.083 4.239 6.75 3.859 6.75 4.309.414.564.919.252c.506-.313 1.599.111 2.429.941s2.216 1.509 3.081 1.509 1.571.45 1.571 1 .863 1 1.917 1 2.066.339 2.25.754c.183.415 3.371 2.283 7.083 4.15s6.75 3.778 6.75 4.246c0 .467.9.85 2 .85s2 .45 2 1 .9 1 2 1 2 .45 2 1 .863 1 1.917 1 2.066.354 2.25.787c.183.432 2.922 2.041 6.087 3.575s6.319 3.354 7.01 4.045 2.489 1.565 3.996 1.943l2.74.688v-87.519c0-71.535-.24-87.519-1.311-87.519-.722 0-2.202-.788-3.289-1.75s-2.636-1.896-3.439-2.075c-.804-.179-1.612-.744-1.796-1.256-.185-.512-.711-.7-1.17-.416-.458.283-1.443-.051-2.188-.744-.745-.692-2.019-1.405-2.831-1.584s-1.627-.744-1.811-1.256c-.185-.512-.711-.7-1.17-.416-.458.283-1.433-.053-2.164-.747s-6.168-3.736-12.079-6.759-10.749-5.861-10.75-6.306-.416-.553-.921-.241-1.529.002-2.274-.691c-.745-.692-2.019-1.405-2.831-1.584s-1.626-.741-1.809-1.25S357.008 562 356 562s-1.983-.339-2.167-.754-3.371-2.283-7.083-4.15-6.75-3.804-6.75-4.305-.414-.653-.919-.341c-.506.313-1.529.002-2.274-.691-.745-.692-2.015-1.408-2.821-1.589-.807-.182-1.696-.632-1.977-1-.28-.369-1.184-.816-2.009-.995s-1.65-.741-1.833-1.25S327.008 546 326 546s-1.983-.342-2.167-.759c-.183-.418-4.27-2.733-9.083-5.145-4.812-2.412-8.75-4.797-8.75-5.3s-.414-.658-.919-.346-1.529.002-2.274-.691c-.745-.692-2.019-1.405-2.831-1.584s-1.626-.741-1.809-1.25-1.196-.925-2.25-.925-1.917-.45-1.917-1-.67-1-1.488-1c-1.306 0-1.487 10.56-1.473 86.359m337.59-47.655c-.388.388-1.786.85-3.108 1.027-3.137.42-8.961 2.871-10.671 4.491-.743.703-5.287 3.292-10.1 5.752s-8.75 4.85-8.75 5.309-.414.579-.919.267c-.506-.313-1.519-.001-2.25.692s-4.369 2.83-8.081 4.748-6.75 3.858-6.75 4.308c0 .451-.414.564-.919.252-.506-.313-1.599.111-2.429.941S572.473 596 571.655 596s-1.638.337-1.822.75c-.183.413-2.471 1.833-5.083 3.157s-4.75 2.813-4.75 3.309-.414.646-.919.334c-.506-.313-1.519.003-2.25.702s-4.369 2.795-8.081 4.659-6.75 3.797-6.75 4.298-.414.653-.919.341c-.506-.313-1.577.089-2.381.893s-1.664 1.26-1.91 1.013c-.247-.246-1.48.65-2.741 1.992-1.988 2.116-2.31 3.56-2.421 10.858-.127 8.374-.11 8.435 3.325 11.647 1.899 1.776 5.162 3.969 7.25 4.874s3.797 1.989 3.797 2.409.9.764 2 .764 2 .342 2 .761c0 .418 3.038 2.33 6.75 4.25s6.9 3.826 7.083 4.239c.184.413 1.196.75 2.25.75s1.917.342 1.917.761c0 .418 3.038 2.327 6.75 4.242s6.975 3.767 7.25 4.116 4.325 2.602 9 5.007c4.675 2.406 8.725 4.646 9 4.978s3.425 2.132 7 4 6.729 3.697 7.009 4.066 1.17.818 1.977 1c.806.181 2.076.897 2.821 1.589.745.693 1.768 1.004 2.274.691.505-.312.919-.163.919.331 0 2.536 15.301 3.867 22.51 1.958 3.375-.893 11.49-5.087 11.49-5.938 0-.441.862-.801 1.917-.801 1.054 0 2.066-.337 2.25-.75.183-.413 3.371-2.32 7.083-4.239s6.75-3.859 6.75-4.309.414-.564.919-.252c.506.313 1.519.001 2.25-.693s3.019-2.151 5.081-3.237c3.725-1.962 3.75-2.017 3.75-8.247 0-3.45-.424-6.273-.943-6.273-.948 0-8.124 3.932-9.057 4.963-.275.304-3.538 2.119-7.25 4.034s-6.75 3.851-6.75 4.301-.419.561-.931.245-1.204-.133-1.539.408-3.628 2.461-7.319 4.266c-7.743 3.788-20.773 4.929-25.899 2.27-1.468-.762-3.038-1.156-3.49-.877-.452.28-.822.031-.822-.551s-.707-1.059-1.571-1.059c-.865 0-2.251-.679-3.081-1.509s-1.923-1.254-2.429-.941c-.505.312-.919.199-.919-.252 0-.45-3.038-2.389-6.75-4.308-3.712-1.918-7.349-4.055-8.081-4.748s-1.744-1.005-2.25-.692c-.505.312-.919.159-.919-.341 0-.501-3.038-2.431-6.75-4.289-3.712-1.859-6.975-3.677-7.25-4.039-.275-.363-3.774-2.347-7.776-4.409s-7.521-4.143-7.819-4.626-.962-.62-1.474-.303c-.512.316-.931.206-.931-.245s-3.038-2.389-6.75-4.308c-3.712-1.918-7.349-4.055-8.081-4.748s-1.744-1.005-2.25-.692c-.505.312-.919.185-.919-.282 0-.468-2.429-2.08-5.398-3.583-6.332-3.207-8.411-5.276-6.858-6.829.974-.974 16.781 6.18 18.265 8.267.281.394 1.17.865 1.977 1.047.806.181 2.076.897 2.821 1.589.745.693 1.768 1.004 2.274.691.505-.312.919-.162.919.334s2.138 1.985 4.75 3.309 4.9 2.744 5.083 3.157c.184.413 1.196.75 2.25.75s1.917.342 1.917.761c0 .418 3.038 2.33 6.75 4.249s7.349 4.055 8.081 4.748 1.744 1.005 2.25.692c.505-.312.919-.199.919.252 0 .45 3.038 2.389 6.75 4.308 3.712 1.918 7.349 4.055 8.081 4.748s1.744 1.005 2.25.692c.505-.312.919-.162.919.334s2.138 1.985 4.75 3.309 4.9 2.744 5.083 3.157c.184.413 1.196.75 2.25.75s1.917.379 1.917.842c0 1.257 7.152 3.158 11.882 3.158 4.625 0 12.118-2.042 12.118-3.302 0-.449.414-.56.919-.248s1.519-.003 2.25-.702 4.369-2.795 8.081-4.659 6.75-3.797 6.75-4.298.414-.653.919-.341c.506.313 1.519-.001 2.25-.697.732-.695 3.469-2.345 6.081-3.666s4.75-2.807 4.75-3.303.414-.646.919-.334c.506.313 1.577-.089 2.381-.893s1.74-1.183 2.081-.843.619-.104.619-.988c0-2.243-1.585-2.985-3.169-1.484-.732.693-4.369 2.83-8.081 4.748s-6.75 3.858-6.75 4.308c0 .451-.414.564-.919.252-.506-.313-1.599.111-2.429.941S662.436 660 661.571 660s-1.571.394-1.571.875c0 1.018-5.582 2.467-8.5 2.206-3.626-.325-16.934-7.423-20.5-10.934l-3.5-3.446V619.6c0-16.005.363-31.8.806-35.1 1.235-9.188 1.978-18.5 1.477-18.5-.247 0-.767.317-1.154.704M431.75 593.803c-.962.189-1.75.761-1.75 1.27 0 .51-.9.927-2 .927-1.987 0-2 .667-2 101 0 55.55.231 101 .514 101 .75 0 4.721-2.289 6.666-3.842 1.552-1.239 1.679-8.44 1.666-94.5-.015-99.163-.227-106.417-3.096-105.855M730 622.293c-1.925 1.17-3.65 2.482-3.833 2.917s-1.159.79-2.167.79-1.983.359-2.167.797-2.443 1.778-5.023 2.977c-3.285 1.527-4.647 2.738-4.549 4.045.136 1.796.284 1.789 3.94-.162 2.089-1.116 3.799-2.421 3.799-2.902 0-.48.414-.617.919-.305.506.313 1.519-.015 2.25-.729.732-.713 2.92-2.042 4.863-2.952 3.661-1.716 7.968-5.033 7.968-6.136 0-1.168-2.472-.484-6 1.66m5.189 5.746c-1.204 1.121-2.189 1.741-2.189 1.378s-.657-.117-1.459.549-4.515 2.8-8.25 4.743c-3.735 1.942-7.066 3.966-7.403 4.497s-.899.926-1.25.879c-2.305-.308-2.638.561-2.638 6.881v6.966l5.75-3.133c3.163-1.724 5.901-3.512 6.085-3.973s.711-.607 1.17-.323c.458.283 1.443-.051 2.188-.744.745-.692 1.955-1.388 2.688-1.545s1.992-.944 2.798-1.75c.805-.805 1.882-1.464 2.392-1.464.511 0 .929-.638.929-1.417s.48-1.576 1.067-1.772c1.287-.429 2.429-11.811 1.184-11.811-.481 0-1.859.918-3.062 2.039M704 637.059c0 .582-.414.803-.919.491s-1.519.001-2.25.697c-.732.695-3.469 2.345-6.081 3.666l-4.75 2.401v13.843c0 8.562.381 13.843 1 13.843.55 0 1.007-.337 1.016-.75.008-.413 2.258-1.851 5-3.197s4.984-2.835 4.984-3.309.414-.606.919-.294c.506.313 1.58-.092 2.387-.899 1.553-1.553 2.464-22.381 1.131-25.855-.716-1.867-2.437-2.316-2.437-.637m-134 60.394c0 .799 1.688 2.238 3.75 3.198s3.979 2.07 4.259 2.467 1.17.87 1.977 1.052c.806.181 2.076.897 2.821 1.589.745.693 1.768 1.004 2.274.691.505-.312.919-.162.919.334s2.138 1.985 4.75 3.309 4.9 2.744 5.083 3.157c.184.413 1.003.75 1.822.75.818 0 2.167.679 2.997 1.509s1.923 1.254 2.429.941c.505-.312.919-.199.919.252 0 .45 3.038 2.389 6.75 4.308 3.712 1.918 7.326 4.032 8.029 4.697 1.513 1.429 4.221.638 4.221-1.232 0-2.655-1.264-4.475-3.107-4.475-1.041 0-1.893-.45-1.893-1s-.9-1-2-1-2-.45-2-1-.9-1-2-1-2-.45-2-1-.9-1-2-1-2-.45-2-1-.862-1-1.917-1c-1.054 0-2.066-.416-2.25-.925-.183-.509-.997-1.071-1.809-1.25s-2.086-.892-2.831-1.584-1.73-1.027-2.188-.744c-.459.284-.985.096-1.17-.416s-1.01-1.077-1.835-1.256-1.729-.626-2.009-.995c-.281-.368-1.17-.818-1.977-1-.806-.181-2.076-.897-2.821-1.589-.745-.693-1.73-1.027-2.188-.744-.459.284-.985.16-1.17-.274-.585-1.376-7.87-5.223-9.892-5.223-1.069 0-1.943.654-1.943 1.453m57.919 5.428c-.398 32.391-.119 33.485 8.567 33.554 8.404.067 8.34.229 8.47-21.424l.114-18.875-8.535.063-8.535.063zM698 697.059c0 .582-.414.803-.919.491s-1.529-.002-2.274.691c-.745.692-2.019 1.405-2.831 1.584s-1.627.744-1.811 1.256c-.185.512-.711.7-1.17.416-.458-.283-1.433.055-2.164.751-.732.697-8.869 5.06-18.081 9.696S652 720.765 652 721.245s-.467.585-1.037.232c-.653-.404-.951.629-.805 2.793l.231 3.433 3.555-2.068c1.956-1.138 3.707-2.424 3.891-2.858s.711-.558 1.17-.274c.458.283 1.433-.056 2.164-.755s4.369-2.795 8.081-4.659 6.75-3.797 6.75-4.298.414-.653.919-.341c.506.313 1.519-.003 2.25-.702s4.369-2.795 8.081-4.659 6.75-3.797 6.75-4.298.414-.653.919-.341c.506.313 1.615-.127 2.465-.977.849-.849 1.833-1.463 2.185-1.363.906.256 4.431-2.394 4.431-3.331 0-.428-1.35-.779-3-.779s-3 .477-3 1.059m-131.994 8.191c.005 2.616.64 3.61 3.25 5.097 1.784 1.016 3.355 1.805 3.491 1.754.135-.052 1.333.851 2.66 2.005 1.328 1.155 2.578 1.941 2.777 1.747s1.45.66 2.778 1.897 2.799 2.25 3.269 2.25c.469 0 1.397.456 2.061 1.014 2.32 1.948 8.708 5.922 8.708 5.417 0-.28.985.409 2.189 1.53 1.203 1.121 2.778 2.039 3.5 2.039.721 0 1.311.374 1.311.831s1.237 1.47 2.75 2.25 3.643 2.226 4.735 3.213c1.145 1.034 2.134 1.349 2.336.743.192-.577.725-.818 1.184-.534s1.545-.196 2.414-1.065c.87-.87 1.581-1.269 1.581-.887s.675.134 1.5-.551c2.268-1.882 1.854-2.74-2.25-4.665-2.062-.968-4.349-2.343-5.081-3.056-.731-.714-1.744-1.042-2.25-.729-.505.312-.919.199-.919-.252 0-.45-3.038-2.389-6.75-4.308-3.712-1.918-7.349-4.055-8.081-4.748s-1.744-1.005-2.25-.692c-.505.312-.919.192-.919-.267s-3.937-2.848-8.75-5.309c-4.812-2.46-9.349-5.041-10.081-5.733-.731-.693-1.744-1.004-2.25-.691-.505.312-.919.091-.919-.491s-.45-1.059-1-1.059-.997 1.462-.994 3.25M696 707.239c-3.025 1.696-5.725 3.351-6 3.679s-4.437 2.606-9.25 5.063-8.75 4.843-8.75 5.302-.414.579-.919.267c-.506-.313-1.519-.001-2.25.692s-4.369 2.83-8.081 4.748c-7.68 3.97-8.468 5.967-3.316 8.412 3.189 1.513 3.688 1.508 7-.072 1.961-.935 3.566-2.067 3.566-2.515s.59-.815 1.311-.815c.722 0 2.202-.788 3.289-1.75s2.631-1.899 3.43-2.08c.798-.182 1.68-.632 1.961-1.002.28-.369 1.746-1.309 3.259-2.089 1.513-.779 2.75-1.791 2.75-2.248s.59-.831 1.311-.831c.722 0 2.184-.788 3.25-1.75 1.067-.962 3.176-2.389 4.689-3.169s2.75-1.793 2.75-2.25.59-.831 1.311-.831c.722 0 2.184-.813 3.25-1.806 1.983-1.847 2.685-2.194 4.439-2.194.55 0 1-1.35 1-3 0-3.96-2.621-3.898-10 .239m-410.5-.466c-1.65.95-3.166 1.818-3.369 1.929-.799.438 2.602 2.928 7.119 5.211 2.613 1.321 4.75 2.781 4.75 3.244s.9.843 2 .843 2 .45 2 1 .9 1 2 1 2 .477 2 1.059.414.803.919.491 1.519.003 2.25.702 4.369 2.795 8.081 4.659 6.75 3.771 6.75 4.239.9.85 2 .85 2 .45 2 1 .9 1 2 1 2 .45 2 1 .9 1 2 1 2 .477 2 1.059.414.803.919.491 1.519.005 2.25.705c.732.701 5.269 3.245 10.081 5.654 4.813 2.41 8.75 4.765 8.75 5.236 0 .47.9.855 2 .855s2 .45 2 1 .863 1 1.917 1 2.066.342 2.25.759c.183.418 4.271 2.733 9.083 5.145s8.75 4.77 8.75 5.241c0 .47.9.855 2 .855s2 .45 2 1 .9 1 2 1 2 .45 2 1 .863 1 1.917 1 2.066.353 2.25.784c.257.606 12.537 7.123 17.052 9.049.43.184.781-1.423.781-3.569 0-3.902-2.54-7.287-6.07-8.089-.786-.179-1.58-.741-1.763-1.25-.184-.509-1.196-.925-2.25-.925s-1.917-.45-1.917-1-.9-1-2-1-2-.45-2-1-.9-1-2-1-2-.366-2-.813c0-.448-1.555-1.424-3.455-2.169s-3.223-1.73-2.941-2.187-.413-.831-1.545-.831-2.059-.477-2.059-1.059-.414-.803-.919-.491-1.599-.111-2.429-.941-2.179-1.509-2.997-1.509-1.638-.342-1.822-.759c-.183-.418-4.27-2.733-9.083-5.145-4.812-2.412-8.75-4.797-8.75-5.3s-.414-.658-.919-.346-1.529.002-2.274-.691c-.745-.692-2.015-1.408-2.821-1.589-.807-.182-1.696-.637-1.977-1.011-.28-.375-6.247-3.579-13.259-7.121S320 721.212 320 720.74s-.414-.602-.919-.29c-.506.313-1.599-.111-2.429-.941S314.473 718 313.655 718s-1.638-.339-1.822-.754c-.183-.415-3.371-2.283-7.083-4.15s-6.75-3.804-6.75-4.305-.414-.653-.919-.341c-.506.313-1.529.002-2.274-.691-.745-.692-1.794-1.338-2.331-1.435s-1.651-.424-2.476-.727-2.85.226-4.5 1.176M618 739.241c-3.025 1.698-5.651 3.465-5.835 3.929s-.711.611-1.17.327c-.458-.283-1.433.051-2.164.744-.732.692-2.568 1.898-4.081 2.678s-2.75 1.819-2.75 2.309-.414.634-.919.322c-.506-.313-1.519.001-2.25.697-.732.695-3.469 2.345-6.081 3.666s-4.75 2.807-4.75 3.303-.414.646-.919.334c-.506-.313-1.519-.002-2.25.691-.732.692-2.568 1.898-4.081 2.678s-2.75 1.819-2.75 2.309-.414.634-.919.322c-.506-.313-1.599.111-2.429.941S572.746 766 572.26 766s-1.859.909-3.052 2.021-2.403 2.011-2.689 2c-2.114-.085-2.519.158-2.519 1.51 0 2.653 3.011 2.83 7.332.432 2.292-1.273 4.393-2.576 4.668-2.896s3.538-2.149 7.25-4.064 6.75-3.851 6.75-4.301.414-.564.919-.252c.506.313 1.519-.005 2.25-.706.732-.7 3.469-2.391 6.081-3.757s4.75-2.848 4.75-3.294.414-.555.919-.243 1.519-.015 2.25-.729c.732-.713 2.998-2.078 5.034-3.034 2.037-.955 4.287-2.305 5-3s2.985-2.054 5.047-3.022c2.063-.967 3.75-2.214 3.75-2.771s.563-.694 1.25-.306.256-.26-.958-1.441c-1.215-1.181-2.34-2.112-2.5-2.069s-2.767 1.466-5.792 3.163M648 737c0 .55-.691 1-1.535 1-2.589 0 .036 3.553 3.747 5.071 1.808.739 3.887 1.93 4.619 2.646s1.744 1.046 2.25.733c.505-.312.919-.162.919.334s2.138 1.982 4.75 3.303 5.349 2.971 6.081 3.666c.731.696 1.744 1.01 2.25.697.505-.312.919-.162.919.334s2.138 1.982 4.75 3.303 5.349 2.971 6.081 3.666c.731.696 1.744 1.01 2.25.697.505-.312.919-.162.919.334s2.138 1.979 4.75 3.295c2.612 1.317 4.979 2.702 5.259 3.077.281.376 1.17.832 1.977 1.014.806.181 2.076.897 2.821 1.589.745.693 1.768 1.004 2.274.691.505-.312.919-.091.919.491s.9 1.059 2 1.059c2.994 0 2.491-3.409-.75-5.079-1.513-.78-2.975-1.698-3.25-2.041s-2.866-1.855-5.759-3.361c-2.892-1.505-5.51-3.146-5.819-3.645-.308-.498-.979-.648-1.491-.331-.512.316-.931.175-.931-.315s-1.237-1.529-2.75-2.309-3.349-1.986-4.081-2.678c-.731-.693-1.744-1.004-2.25-.691-.505.312-.919.168-.919-.322s-1.237-1.529-2.75-2.309-3.349-1.986-4.081-2.678c-.731-.693-1.744-1.004-2.25-.691-.505.312-.919.168-.919-.322s-1.237-1.529-2.75-2.309-3.349-1.986-4.081-2.678c-.731-.693-1.706-1.027-2.164-.744-.459.284-.985.096-1.17-.416s-.992-1.077-1.796-1.256c-.803-.179-2.351-1.113-3.439-2.075-2.172-1.923-4.6-2.319-4.6-.75m-17.5 6.195c-1.1.624-2.225 1.398-2.5 1.72s-3.425 2.113-7 3.981-6.725 3.671-7 4.007c-.275.337-3.538 2.179-7.25 4.094s-6.75 3.824-6.75 4.242-.862.761-1.917.761c-1.054 0-2.066.337-2.25.75-.183.413-2.471 1.833-5.083 3.157s-4.75 2.813-4.75 3.309-.414.646-.919.334c-.506-.313-1.519-.002-2.25.691-.732.692-3.356 2.35-5.831 3.684s-4.775 2.835-5.112 3.336-1.011.892-1.5.871c-1.038-.046-.58 4.987.562 6.182.428.448 1.413.223 2.188-.5s2.07-1.463 2.876-1.644c.807-.182 1.696-.632 1.977-1 .28-.369 1.184-.816 2.009-.995s1.65-.741 1.833-1.25 1.196-.925 2.25-.925 1.917-.45 1.917-1 .9-1 2-1 2-.45 2-1 .9-1 2-1 2-.477 2-1.059.414-.803.919-.491 1.529.002 2.274-.691c.745-.692 2.015-1.408 2.821-1.589.807-.182 1.696-.632 1.977-1 .28-.369 1.184-.816 2.009-.995s1.651-.744 1.835-1.256c.185-.512.711-.7 1.17-.416.458.283 1.443-.051 2.188-.744.745-.692 2.019-1.405 2.831-1.584s1.626-.741 1.809-1.25 1.196-.925 2.25-.925 1.917-.477 1.917-1.059.414-.803.919-.491 1.529.002 2.274-.691c.745-.692 2.019-1.405 2.831-1.584s1.627-.744 1.811-1.256c.185-.512.711-.7 1.17-.416.458.283 1.433-.051 2.164-.744 5.262-4.979 4.433-5.22 35.545 10.32 15.832 7.907 28.936 14.725 29.119 15.149.184.425 1.003.772 1.822.772.818 0 2.178.691 3.022 1.535 1.192 1.191 1.85 1.272 2.945.364 2.535-2.104 1.065-5.906-3.185-8.238-2.165-1.189-4.166-2.462-4.446-2.831-.281-.368-1.17-.818-1.977-1-.806-.181-2.076-.897-2.821-1.589-.745-.693-1.768-1.004-2.274-.691-.505.312-.919.168-.919-.322s-1.237-1.529-2.75-2.309-3.349-1.986-4.081-2.678c-.731-.693-1.744-1.004-2.25-.691-.505.312-.919.162-.919-.334s-2.138-1.982-4.75-3.303-5.349-2.971-6.081-3.666c-.731-.696-1.744-1.01-2.25-.697-.505.312-.919.203-.919-.243s-2.138-1.928-4.75-3.294-5.349-3.057-6.081-3.757c-.731-.701-1.744-1.019-2.25-.706-.505.312-.919.175-.919-.305 0-3.405-13.236-6.468-17.5-4.05M560 779.893c0 3.822 2.169 6.261 3.562 4.006 1.292-2.09 1.163-5.899-.2-5.899-.749 0-1.362-.45-1.362-1s-.45-1-1-1-1 1.752-1 3.893m149.75-2.463c-1.111.82-1.75 2.622-1.75 4.939 0 3.357.154 3.552 1.936 2.439 2.259-1.411 2.926-3.441 2.132-6.488-.49-1.881-.808-2.003-2.318-.89"/></svg>