<svg xmlns="http://www.w3.org/2000/svg" viewBox="0 0 1024 1024"><path fill="#00e5cc" d="M326.5 271c-22.876.545-22.931.558-29.65 7-3.861 3.702-5.85 4.697-5.85 2.929 0-.59-.675-.397-1.5.428s-1.5 2.207-1.5 3.072c0 .864-.45 1.571-1 1.571-2.059 0-1.138 7.821 1 8.5 1.992.632 2 1.513 2 218.163 0 241.695-.49 224.468 6.612 232.329 1.872 2.073 5.763 4.835 8.646 6.138l5.242 2.37 201.5-.028 201.5-.028 5.583-2.59c6.287-2.917 11.412-8.369 13.496-14.356 1.171-3.367 1.393-38.559 1.406-223.027C734 295.597 734.011 294.434 736 293c2.41-1.737 2.575-5.54.427-9.846-1.702-3.412-2.418-3.763-4.15-2.031-.83.83-1.942.189-4.27-2.462-3.85-4.385-7.787-6.435-13.872-7.223-5.684-.736-358.38-1.135-387.635-.438m178.055 30.309c-1.07.655-2.843 1.979-3.939 2.941s-2.583 1.75-3.305 1.75c-.721 0-1.311.45-1.311 1s-.801 1-1.779 1c-.979 0-2.428.9-3.221 2s-2.242 2-3.221 2c-.978 0-1.779.374-1.779.831s-1.231 1.47-2.736 2.25-3.715 2.253-4.911 3.272-2.327 1.695-2.514 1.502-1.868 1.111-3.737 2.897c-1.869 1.787-3.778 3.248-4.243 3.248-.464 0-1.932.946-3.262 2.103-1.33 1.156-2.571 1.945-2.758 1.752s-1.868 1.111-3.737 2.897c-1.869 1.787-3.787 3.248-4.262 3.248s-3.221 2.245-6.102 4.99-5.582 4.994-6.002 5c-2.214.03-17.352 16.823-18.489 20.51-.862 2.796-1.382 17.24-1.729 48-.789 69.981-4.023 137.607-9.564 200-.537 6.05-1.393 15.95-1.901 22s-1.433 15.95-2.056 22c-.622 6.05-1.507 16.175-1.966 22.5s-1.154 12.959-1.545 14.743c-.728 3.319 1.312 12.5 2.6 11.704.378-.234 1.243.245 1.923 1.064s2.054 1.489 3.054 1.489 2.097.45 2.437 1 2.166 1 4.059 1c2.774 0 3.441.387 3.441 2 0 1.1-.45 2-1 2s-1 1.155-1 2.566-.466 3.436-1.035 4.5c-1.579 2.95 2.081 8.934 5.464 8.934.864 0 1.571.45 1.571 1s1.35 1 3 1 3 .45 3 1 1.485 1 3.3 1 3.728.414 4.25.919c.523.506 3.875 1.159 7.45 1.451s12.35 1.059 19.5 1.702c17.142 1.542 63.248 1.586 76.5.073a3352 3352 0 0 1 15.75-1.764c2.888-.311 5.25-.974 5.25-1.474 0-.499 1.35-.907 3-.907s3-.45 3-1 .9-1 2-1 2-.509 2-1.13c0-.778 1.478-.915 4.75-.439 7.048 1.025 15.25.196 15.25-1.54 0-.49 1.323-.891 2.941-.891s3.219-.45 3.559-1 2.166-1 4.059-1 3.441-.45 3.441-1 .822-1 1.826-1 2.819-1.058 4.033-2.35l2.208-2.35-.465-53.9c-.256-29.645-.951-59.525-1.546-66.4a24516 24516 0 0 0-2.091-24c-.556-6.325-1.238-15.55-1.516-20.5s-.928-9.9-1.445-11-1.155-5.6-1.418-10-1.016-14.75-1.675-23c-1.478-18.511-1.496-44.544-.039-58.5a6787 6787 0 0 0 2.152-21c.581-5.775 1.504-14.55 2.052-19.5s1.237-12.825 1.53-17.5c.294-4.675.953-8.928 1.464-9.45.512-.522.93-4.595.93-9.05s.407-8.528.905-9.05 1.176-4.55 1.507-8.95 1.063-12.275 1.628-17.5c2.353-21.796 2.338-24.969-.135-27.601C615.558 311.9 606 310.777 606 313c0 .55-.9 1-2 1s-2 .45-2 1-.661 1-1.47 1-3.072.9-5.03 2-4.447 2-5.53 2-1.97.45-1.97 1-.9 1-2 1-2 .45-2 1-.906 1-2.014 1-2.795.397-3.75.883c-1.747.889-5.321 2.387-9.486 3.975-1.237.472-4.205 1.822-6.595 3-4.499 2.218-10.051 2.808-11.705 1.243-.523-.494-4.1-1.159-7.95-1.478-23.404-1.938-22.93-1.588-24.155-17.835-.79-10.478-7.356-16.419-13.79-12.479m1.195 6.496c-.962.188-1.75.759-1.75 1.268 0 .51-.608.927-1.352.927-.743 0-2.764 1.35-4.491 3s-3.653 3-4.281 3-1.869.788-2.759 1.75-2.292 1.896-3.117 2.075-1.65.741-1.833 1.25-.917.925-1.63.925-3.112 1.763-5.332 3.917c-2.221 2.155-4.222 3.733-4.448 3.506-.227-.226-2.522 1.611-5.102 4.083S464.496 338 463.923 338c-.572 0-.763.45-.423 1s-.119 1-1.019 1c-.901 0-3.298 1.728-5.326 3.839-2.029 2.111-4.197 4.024-4.818 4.25-2.343.853-14.337 12.943-14.337 14.452 0 .868-.45 1.299-1 .959s-1 .084-1 .941-.34 1.559-.757 1.559c-.844 0-3.243 7.078-3.243 9.568 0 .879.563 1.392 1.25 1.14s1.138-.964 1-1.583.2-1.125.75-1.125 1 .45 1 1 .707 1 1.571 1c2.814 0 4.429 2.71 4.429 7.429 0 2.514.358 4.571.796 4.571.437 0 .901 1.576 1.031 3.502.377 5.598-7.368 12.557-10.496 9.429-.758-.758-1.225 7.741-1.609 29.25-.297 16.676-.788 31.371-1.091 32.656s-.608 9.996-.68 19.357c-.071 9.361-.52 18.21-.996 19.663-.476 1.454-1.104 9.843-1.395 18.643-.708 21.427-2.14 44.012-2.864 45.183-.323.523-.66 6.546-.747 13.384-.088 6.838-.513 12.883-.946 13.433s-1.063 5.725-1.401 11.5-1.041 14.775-1.559 20a4957 4957 0 0 0-2.071 21.5c-.621 6.6-1.535 15.825-2.032 20.5s-1.19 14.237-1.54 21.25-1.033 12.75-1.518 12.75c-1.496 0-.972 3.751.608 4.358 1.559.598 13.199-8.385 14.181-10.944.296-.771.941-1.154 1.434-.849.492.304.895-.076.895-.845 0-.77 1.15-1.923 2.556-2.564 1.406-.64 2.309-1.565 2.006-2.055s.069-1.129.827-1.42c1.73-.664 9.298-10.575 13.118-17.181 13.482-23.314 26.642-58.841 34.078-92 3.246-14.475 9.374-45.679 10.408-53 .621-4.4 1.808-12.275 2.638-17.5 1.33-8.378 2.529-18.928 6.366-56 2.452-23.69 4.981-63.215 6.079-95 .503-14.575 1.184-29.087 1.512-32.25.384-3.698.226-5.75-.443-5.75-.572 0-1.176-2.146-1.343-4.769-.248-3.92-.613-4.707-2.052-4.426m108.488 15.391c-.548 2.097-.609 2.108-1.336.25-.589-1.507-.777-1.178-.832 1.457l-.07 3.403 2-2.306c1.1-1.268 2-2.912 2-3.653 0-2.118-1.128-1.574-1.762.849M604 325c0 .55-1.35 1-3 1-1.725 0-3.007.531-3.015 1.25q-.016 1.25-.985-.25c-.712-1.102-.973-.404-.985 2.633-.012 3.285-.425 4.241-2.015 4.657-1.1.287-2 1.041-2 1.675s.45.875 1 .535 1-.141 1 .441.477 1.059 1.059 1.059.781-.45.441-1 .335-1 1.5-1 1.84-.45 1.5-1-.19-1 .334-1 1.186.609 1.471 1.353c.649 1.69-3.004 4.951-4.506 4.023-.705-.436-.823-.224-.325.581.456.738.209 1.621-.591 2.115-1.106.684-.985 1.133.62 2.307 1.097.802 2.22 1.208 2.495.902.276-.305-.06-.756-.748-1.001-2.01-.718-1.46-1.699 1.75-3.12 1.65-.73 3-1.965 3-2.744s.375-1.416.833-1.416c.907 0 1.147-1.492 1.168-7.25.007-2.062.46-3.75 1.006-3.75a1 1 0 1 0-1.007-1m7.286 8.5c.008 2.75.202 3.756.432 2.236s.223-3.77-.014-5-.425.014-.418 2.764M581 332.965c1.158.775.758 1.008-1.75 1.02-2.85.013-3.25.343-3.25 2.682 0 1.466.292 2.375.648 2.018s1.501.333 2.542 1.534l1.892 2.182.576-2.201c.614-2.35 1.937-2.916 2.545-1.09.232.694.87.507 1.706-.5.951-1.147.997-1.61.158-1.61-.648 0 .033-1.042 1.513-2.315l2.691-2.315-5.385-.205c-3.885-.148-4.968.075-3.886.8m27.262 14.452c-.017 15.587-.646 25.577-1.531 24.318-.509-.723-.64 1.25-.317 4.765.403 4.371.281 5.457-.449 4-.728-1.454-.862-.227-.492 4.5.346 4.419.196 6.02-.467 5-.712-1.095-1.023-.151-1.153 3.5-.356 10.015-3.059 39.486-4.963 54.107-.581 4.46-.951 9.41-.822 11 .485 6.004-.103 14.49-.967 13.955-.512-.316-.869 3.861-.828 9.691.058 8.405.23 9.528.957 6.247.487-2.2.747-6.368.578-9.263-.188-3.217.081-5.113.692-4.879.612.235 1.087-3.151 1.223-8.728.126-5.143.671-9.261 1.25-9.454.61-.204 1.027-4.345 1.027-10.2 0-5.493.443-10.132 1-10.476.552-.341 1-4.824 1-10s.448-9.659 1-10c.55-.34 1-4.641 1-9.559 0-5.294.408-8.941 1-8.941.588 0 1-3.48 1-8.441 0-4.643.45-8.719 1-9.059s1-4.39 1-9 .45-8.66 1-9 1-2.868 1-5.618c0-3.523-.341-4.789-1.154-4.287-.851.526-.98-.988-.489-5.774.529-5.162.383-6.488-.711-6.488-1.053 0-1.378 1.894-1.384 8.084m-.03 16.583c0 1.925.206 2.712.457 1.75.252-.962.252-2.538 0-3.5-.251-.962-.457-.175-.457 1.75m-5.932 27c0 3.025.187 4.262.416 2.75s.229-3.988 0-5.5-.416-.275-.416 2.75m-8.285 106.691c.009.995.452 2.484.985 3.309.758 1.173.973.914.985-1.191.008-1.48-.435-2.969-.985-3.309s-.993.196-.985 1.191m.61 8.434c-.344 1.719-.625 4.617-.625 6.441s-.507 3.629-1.126 4.012c-.711.439-.939 2.579-.62 5.809.278 2.812.211 8.589-.149 12.838-.394 4.654-.292 7.362.258 6.812.502-.502 1.115-5.093 1.362-10.204.247-5.11.833-10.007 1.301-10.881.787-1.471 1.297-17.952.555-17.952-.182 0-.612 1.406-.956 3.125m3.275 34.125c-.055 6.749-.42 11.127-.814 9.75-.413-1.445-.797 2.247-.91 8.75-.207 11.941-.178 12.008 4.929 11.417 1.12-.13 1.753 29.072 1.448 66.833-.479 59.437-.485 59.652-1.553 58-.736-1.138-.973-.716-.985 1.75-.015 3.231-.044 3.25-5.015 3.25-3.687 0-5-.378-5-1.441 0-.793-.45-1.719-1-2.059-.649-.401-1 4.323-1 13.441V724h3.559c2.118 0 3.309-.405 2.941-1-.373-.604.99-1 3.441-1 2.232 0 4.059-.45 4.059-1s.707-1 1.571-1c4.402 0 4.429-.302 4.429-49.87 0-30.262-.356-47.232-1-47.63-.583-.361-1-6.01-1-13.559 0-7.118-.401-12.941-.891-12.941s-1.158-6.638-1.484-14.75c-.765-19.029-1.591-30.368-2.349-32.25-1.003-2.493-1.022-2.69-1.151-12-.194-13.933-2.108-11.137-2.225 3.25m-7.233 4.417c-.938.937-.833 4.333.133 4.333.44 0 .8-1.125.8-2.5 0-2.776.003-2.77-.933-1.833m-.525 15.113c.137 2.321.631 4.22 1.099 4.22s.545-1.687.172-3.75c-.949-5.248-1.566-5.477-1.271-.47m-2.011 16.351c-.057 5.703-.554 13.744-1.105 17.869-.941 7.052-1.918 29.207-1.191 27.003.185-.558.635-.831 1-.606.366.226.762-5.397.88-12.495.119-7.097.696-13.801 1.283-14.898 1.211-2.263 1.227-24.021.019-25.976-.43-.696-.829 3.4-.886 9.103M543.252 655.5c.011 2.2.216 2.982.455 1.738s.23-3.044-.02-4-.446.062-.435 2.262M606.3 661c0 3.025.187 4.263.416 2.75s.229-3.987 0-5.5-.416-.275-.416 2.75M582 671.274c0 2.535.419 4.867.931 5.184 1.064.657.836-8.025-.239-9.099-.381-.381-.692 1.381-.692 3.915m7.355 12.226c-.003 4.95.166 7.101.376 4.78.209-2.321.212-6.371.005-9-.206-2.629-.378-.73-.381 4.22m-7.123.5c0 1.925.206 2.712.457 1.75.252-.962.252-2.538 0-3.5-.251-.962-.457-.175-.457 1.75m9.068 10c0 3.025.187 4.263.416 2.75s.229-3.987 0-5.5-.416-.275-.416 2.75m-8.028 6c0 2.475.195 3.487.434 2.25.238-1.237.238-3.263 0-4.5-.239-1.237-.434-.225-.434 2.25m3.038 18.5c.005 3.3.192 4.529.415 2.732s.218-4.497-.01-6c-.229-1.503-.411-.032-.405 3.268m-5.326 1.703c-.266 3.137-.119 5.337.326 4.89.446-.448.664-3.014.485-5.703l-.327-4.89z"/></svg>