<svg xmlns="http://www.w3.org/2000/svg" viewBox="0 0 1024 1024"><path fill="#00e5cc" d="M171.349 74c0 4.675.173 6.587.383 4.25.211-2.338.211-6.163 0-8.5-.21-2.338-.383-.425-.383 4.25M356.8 67.2c.933.933 1.467.933 2.4 0s.667-1.2-1.2-1.2-2.133.267-1.2 1.2M414 67c0 .55-1.35 1-3 1s-3 .45-3 1-1.35 1-3 1-3 .45-3 1-1.098 1-2.441 1-2.719.45-3.059 1-1.491 1-2.559 1-1.941.45-1.941 1-1.35 1-3 1-3 .45-3 1-1.35 1-3 1-3 .45-3 1-.645 1-1.433 1-1.73.939-2.094 2.086c-.814 2.565-.249 50.257.645 54.414l.645 3 .119-2.809c.065-1.545.46-2.597.879-2.339.419.259 1.656-.225 2.75-1.075 1.611-1.253 1.657-1.432.239-.943-1.357.468-1.75.049-1.75-1.865 0-1.802.54-2.469 2-2.469 1.556 0 2 .667 2 3 0 1.65.45 3 1 3 .639 0 1 8.646 1 23.938 0 23.321.052 23.934 2 23.787 1.1-.083 2.058-.392 2.129-.688.723-3.013 1.099-7.306 1.508-17.214.476-11.553 1.005-13.245 4.366-13.991.824-.183 2.298-1.204 3.277-2.27 1.12-1.219 3.161-1.961 5.5-2 2.046-.035 4.242-.402 4.881-.816.638-.415 2.326-.85 3.75-.968s2.589-.514 2.589-.879c0-.366.9-.901 2-1.189 1.953-.511 2-1.364 2-36.688 0-30.01-.243-36.408-1.429-37.593C416.933 65.79 414 65.515 414 67m-52.921 13.707c.598 1.573.569 2.194-.082 1.791-2.15-1.329-.787 1.11 1.587 2.839 3.38 2.461 5.805 1.477 5.125-2.08-.454-2.375-.361-2.502.734-1.004.69.944 1.526 1.444 1.858 1.112.89-.889-1.897-3.365-3.789-3.365-.896 0-1.37-.42-1.053-.934.317-.513-.744-.896-2.359-.85-2.679.076-2.856.295-2.021 2.491m21.492 3.017C376.05 85.386 377.03 94 383.74 94c4.333 0 6.26-1.946 6.26-6.322 0-4.329-1.93-5.356-7.429-3.954M820 85c2.369.759 2.329.806-.75.9-4.566.14-4.808 4.1-.25 4.1 1.65 0 3 .45 3 1s1.35 1 3 1c2.667 0 3-.333 3-3 0-1.725-.531-3.007-1.25-3.015q-1.25-.016.25-.985c1.061-.686-.108-.945-4-.885-4.246.065-4.93.267-3 .885m118.5-.345c-6.848 1.448-6.504 1.147-6.421 5.614.043 2.327.306 3.669.583 2.981.278-.687 1.844-1.25 3.48-1.25 1.729 0 2.717-.419 2.358-1-.352-.57.513-1 2.012-1 2.365 0 5.488-1.951 5.488-3.429 0-.314-.9-.571-2-.571s-2-.45-2-1c0-1.035-.162-1.051-3.5-.345m-586.882 2.897c-.327.854-.197 1.306.289 1.006s1.171.202 1.522 1.118c.351.915.065 2.019-.637 2.452-1.016.628-1.022 1.042-.034 2.03.989.989 1.242.896 1.242-.458 0-.935.675-1.7 1.5-1.7 1.57 0 1.921-1.738.893-4.418-.78-2.032-3.999-2.052-4.775-.03M802 87.477c0 1.789 4.771 5.107 5.781 4.022.396-.425.157-.974-.531-1.219-.687-.246-1.25-1.309-1.25-2.363 0-1.25-.696-1.917-2-1.917-1.1 0-2 .665-2 1.477m150.405-.322c-.443.715-.275.883.44.44 2.039-1.26 1.231 1.605-.998 3.538-1.685 1.461-1.81 1.867-.571 1.867 1.709 0 4.724-2.58 4.724-4.043 0-.495 1.462-1.322 3.25-1.838 3.194-.922 3.169-.94-1.441-1.029-2.58-.049-5.012.43-5.404 1.065M168.252 91.5c.011 2.2.216 2.982.455 1.738s.23-3.044-.02-4-.446.062-.435 2.262m795.49-1.071c.279 1.459.978 2.232 1.751 1.935 1.585-.608.75-4.364-.971-4.364-.779 0-1.071.909-.78 2.429M564 91c0 .55-.707 1-1.571 1-1.804 0-3.78 1.869-4.254 4.024-.179.812-.741 1.626-1.25 1.809s-.925 6.146-.925 13.25c0 14.394.993 16.073 5.863 9.908 3.265-4.134 8.136-4.279 8.139-.241.002 2.341.447 2.781 3 2.96l2.998.209V96h-2.5c-1.375 0-2.5-.45-2.5-1s1.125-1 2.5-1c1.833 0 2.5-.533 2.5-2 0-1.778-.667-2-6-2-3.333 0-6 .444-6 1m-216.362 1.5c-.316.825-.153 1.5.362 1.5s.668.701.34 1.557c-.329.857-1.215 1.321-1.969 1.032s-1.371-.09-1.371.442c0 .533.563.953 1.25.934 1.716-.049 6.558-2.885 5-2.93-.687-.019-1.25-.935-1.25-2.035 0-2.343-1.53-2.667-2.362-.5M839.2 95.2c-.869.869-1.2 8.044-1.2 26V146h84V94h-40.8c-30.4 0-41.106.306-42 1.2M351 98.885c0 1.438.461 1.875 1.542 1.46 1.707-.655 1.497-2.499-.354-3.116-.66-.22-1.188.517-1.188 1.656m244.2.315c-.869.869-1.2 8.044-1.2 26V150h42.571c35.562 0 42.807-.235 44-1.429 2.104-2.103 2.104-47.039 0-49.142-1.931-1.932-83.45-2.15-85.371-.229m-33.95 2.296c-2.132 2.422-1.605 9.598.75 10.214 1.1.288 2 .921 2 1.407 0 1.245 2.141 1.097 5.293-.367 3.11-1.444 3.926-8.673 1.278-11.321-1.826-1.827-7.691-1.785-9.321.067M792 104c0 3.881.101 4 3.393 4 2.155 0 3.612.571 3.993 1.563.33.86 1.006 1.313 1.502 1.006 1.605-.992 2.038 2.192 1.482 10.901-.372 5.813-.199 8.53.542 8.53.599 0 1.088.9 1.088 2s.343 2 .763 2c.419 0 1.207.85 1.75 1.889 1.975 3.779 7.975 12.111 8.721 12.111.421 0 .766.707.766 1.571 0 2.814 2.71 4.429 7.429 4.429H828v-4.691c0-3.961-.194-4.436-1.25-3.05-1.937 2.542-8.293.935-8.13-2.055.084-1.543-.452-2.204-1.785-2.204-1.562 0-1.722-.342-.888-1.9.769-1.438.656-2.038-.465-2.469-.815-.312-1.482-1.734-1.482-3.159 0-1.806.378-2.363 1.25-1.839.849.51.81.209-.122-.941-.862-1.062-2.816-1.692-5.25-1.692-2.133 0-3.878-.477-3.878-1.059s-.45-.781-1-.441c-.637.394-1-2.486-1-7.93 0-9.391 1.447-12.57 5.722-12.57 1.358 0 2.278-.606 2.278-1.5 0-.825-.45-1.5-1-1.5s-1-.624-1-1.387c0-.776-1.321-1.58-3-1.826-1.927-.283-3-.007-3 .773 0 1.228-4.708 2.371-6.84 1.66-.638-.213-1.16-1.249-1.16-2.303 0-1.25-.696-1.917-2-1.917-1.667 0-2 .667-2 4m140 .833c0 2.842.395 5.167.877 5.167.802 0 .341-8.95-.51-9.917-.202-.229-.367 1.909-.367 4.75M950.29 102c-.288 1.1-.868 2-1.29 2s-1.002.9-1.29 2c-.416 1.591-.03 2 1.884 2 4.796 0 6.406 3.125 6.406 12.433 0 9.172.355 8.642-6.75 10.072-3.089.622-4.036 2.518-3.368 6.745.065.412-.22.697-.632.632-.413-.066-1.875-.018-3.25.106l-2.5.225 2.75 1.086c1.513.598 2.743 1.338 2.735 1.644-.05 1.825-2.269 3.433-5.631 4.082-3.825.739-3.83.746-.604.86 5.033.178 3.834 2.115-1.309 2.115-2.785 0-4.319.389-3.941 1 .34.55.141 1-.441 1S932 151.35 932 153c0 2.865.191 2.999 4.25 2.985 3.112-.012 3.849-.275 2.75-.985-1.27-.821-1.22-.972.321-.985 2.268-.019 4.679-2.339 4.679-4.503 0-.896.45-1.352 1-1.012s1-.084 1-.941.45-1.559 1-1.559 1-.927 1-2.059.45-1.781 1-1.441 1-.084 1-.941.395-1.559.879-1.559c.483 0 1.438-1.35 2.121-3s1.638-3 2.121-3 .879-.9.879-2 .45-2 1-2c.597 0 1-3.857 1-9.571 0-10.895.793-12.429 6.429-12.429 3.5 0 3.571-.08 3.571-4 0-3.333-.333-4-2-4-1.804 0-2.626 2.036-2.118 5.25.065.412-1.432.75-3.325.75-2.766 0-3.793-.591-5.216-3-2.04-3.454-4.293-3.9-5.051-1m-606.783.011c.336.544-.035.989-.826.989s-2.054.761-2.809 1.692c-.932 1.15-.971 1.451-.122.941 1.489-.895 1.484-.937.366 2.963-.836 2.913-.748 3.056 1.592 2.609 1.362-.26 2.052-.75 1.533-1.089-1.587-1.037-2.137-6.116-.661-6.116.716 0 1.623.52 2.015 1.155.443.715.275.883-.44.44-.635-.392-1.155-.285-1.155.239 0 1.93 2.683 1.904 3.896-.038.71-1.137.787-1.718.178-1.342-.591.365-1.074.011-1.074-.788s-.698-1.72-1.552-2.048c-.89-.341-1.291-.173-.941.393m9.243-.322c-.962.252-1.75.848-1.75 1.325 0 1.716 1.533 1.634 3.25-.173 1.773-1.865 1.635-1.971-1.5-1.152m-16.435 1.689c.291.758.099 1.808-.426 2.333-.607.607-.406.956.553.956.968 0 1.439-.835 1.315-2.334-.106-1.283-.593-2.333-1.082-2.333s-.651.62-.36 1.378m539.325 2.329c-3.562.557-9.042 5.955-9.433 9.293-.161 1.375-.804 3.522-1.43 4.77-.857 1.712-.846 2.561.043 3.45.649.649 1.18 1.78 1.18 2.513 0 2.36 6.764 8.267 9.467 8.267 1.393 0 2.533.45 2.533 1s.9 1 2 1 2-.45 2-1 1.17-1 2.6-1c3.35 0 8.91-5.493 9.839-9.721.842-3.834-.303-12.481-1.551-11.71-.488.302-.888.04-.888-.581 0-1.46-2.528-3.988-3.988-3.988-.621 0-.852-.45-.512-1 .355-.575-.576-1.006-2.191-1.014-1.545-.007-3.709-.174-4.809-.37s-3.287-.155-4.86.091m-510.561 3.102c-.043.72-.524 1.034-1.068.698-.575-.356-.729.065-.367 1.008.406 1.057.962 1.279 1.601.64.539-.539.74-1.582.446-2.317-.427-1.073-.549-1.079-.612-.029M347 110.976c0 1.735.32 1.923 1.869 1.094 1.027-.55 2.04-.903 2.25-.785s.231-.01.048-.285c-.184-.275-.634-.507-1-.515-.367-.009-1.229-.373-1.917-.809-.855-.543-1.25-.132-1.25 1.3m-10.75-.314c-1.674.676-1.583 1.996.184 2.674.964.37 1.385-.086 1.287-1.393-.081-1.069-.163-1.907-.184-1.864s-.599.306-1.287.583m291.75.397c0 .582-.399.812-.887.511-1.824-1.128-2.939 2.169-3.356 9.93-.48 8.915.595 14.5 2.79 14.5.799 0 1.453.45 1.453 1s2.025 1 4.5 1 4.5-.466 4.5-1.035c0-.714.601-.714 1.934 0 3.626 1.941 11.041.081 11.058-2.774.004-.72.458-1.031 1.008-.691.641.396 1-3.009 1-9.5s-.359-9.896-1-9.5c-.55.34-1 .109-1-.512 0-3.051-2.922-3.988-12.429-3.988-6.069 0-9.571.387-9.571 1.059m164 15.881c0 9.373.378 15.06 1 15.06.55 0 1 .585 1 1.301 0 4.022 4.677 8.699 8.699 8.699.716 0 1.301.45 1.301 1s2.25 1 5 1c5.461 0 6.302-1.181 3.25-4.561-.962-1.067-2.389-3.177-3.169-4.689s-1.793-2.75-2.25-2.75-.831-.59-.831-1.311c0-.722-.788-2.184-1.75-3.25-3.305-3.662-4.233-6.956-4.491-15.939l-.259-9-3.75-.31-3.75-.311zm169.569-12.69c-.258 1.237-.753 5.715-1.1 9.95-.633 7.736-2.753 12.414-8.815 19.461-1.023 1.188-1.9 2.538-1.951 3-.05.461-.904 1.711-1.897 2.778-3.275 3.515-2.313 4.561 4.194 4.561 3.333 0 6-.444 6-1 0-.55.695-1 1.545-1 1.972 0 6.455-4.442 6.455-6.396 0-.817.45-1.764 1-2.104.564-.349 1.007-5.278 1.015-11.309.011-7.272.326-10.211.985-9.191.692 1.071.945.07.885-3.5-.067-3.989-.246-4.495-.885-2.5-.715 2.231-.811 2.097-.9-1.25-.093-3.472-.321-3.75-3.081-3.75-2.286 0-3.09.525-3.45 2.25m-333.208 8.251c-.264.689-.341 3.446-.171 6.126.285 4.483.53 4.898 3.06 5.189 2.727.314 2.75.268 2.75-5.633 0-5.601-.151-5.979-2.579-6.443-1.545-.295-2.771.01-3.06.761m-292.641 1.743c.951 1.05 1.887 1.436 2.079.858.543-1.628-.134-2.498-2.053-2.639-1.663-.123-1.664-.03-.026 1.781M167.272 127c0 2.475.195 3.488.434 2.25.238-1.238.238-3.263 0-4.5-.239-1.237-.434-.225-.434 2.25M556 139.559c0 7.451.355 11.339 1 10.941.55-.34 1 .309 1 1.441 0 1.307.65 2.059 1.779 2.059.979 0 2.376.828 3.105 1.84.992 1.376 2.812 1.893 7.221 2.052l5.895.213V130h-3c-2.197 0-3 .471-3 1.759 0 3.755-3.649 4.447-6.372 1.21-1.375-1.633-3.229-2.969-4.122-2.969s-1.346-.45-1.006-1-.084-1-.941-1c-1.322 0-1.559 1.757-1.559 11.559m11.828-1.309c-.643 3.569.175 5.827 2 5.526 3.706-.612 5.334-4.214 2.972-6.576-1.944-1.944-4.531-1.398-4.972 1.05m-232.092-.652c-.902.901.339 3.473 1.369 2.837.492-.304.895-1.201.895-1.994 0-1.473-1.191-1.916-2.264-.843m486.514 1.091c.962.252 2.538.252 3.5 0 .962-.251.175-.457-1.75-.457s-2.712.206-1.75.457M423 143c0 .55-.675 1-1.5 1s-1.5.45-1.5 1-1.098 1-2.441 1-2.719.45-3.059 1-3.087 1-6.104 1c-4.336 0-5.974.472-7.808 2.25-1.277 1.238-3.039 2.7-3.916 3.25-2.025 1.271-3.767 30.5-1.817 30.5.63 0 1.145.9 1.145 2 0 4.91 7.55 1.28 10.919-5.25.78-1.512 1.793-2.75 2.25-2.75s.831-.9.831-2c0-1.135.667-2 1.542-2 .848 0 2.508-.9 3.688-2s3.187-2 4.459-2 2.311-.45 2.311-1 .684-1 1.519-1c1.696 0 1.026-4.942-.835-6.159-.623-.407-.373-1.295.654-2.322.914-.914 1.662-2.08 1.662-2.59 0-.511 1.125-.929 2.5-.929s2.5-.424 2.5-.943-.891-.771-1.979-.561c-2.502.482-3.563-1.137-1.989-3.034.662-.798.968-2.354.68-3.457-.426-1.626-.035-2.005 2.07-2.005h2.595l-2.147-2c-2.241-2.088-6.23-2.728-6.23-1m-43.595 16.5c.001 8.8.154 12.266.34 7.703.185-4.564.184-11.764-.003-16s-.338-.503-.337 8.297m36.758-10.902c-2.615 1.832-2.787 4.011-.413 5.232 2.668 1.372 4.25.309 4.25-2.854 0-3.617-1.097-4.297-3.837-2.378M428 151.107c0 .609.661.853 1.468.544 2.282-.876 2.99 1.294 2.724 8.349-.234 6.185-.076 6.686 3.263 10.34 3.137 3.434 3.669 3.679 5.027 2.321 1.692-1.692 2.078-6.661.518-6.661-.55 0-1-1.602-1-3.559 0-2.118-.405-3.309-1-2.941-.567.351-1-.49-1-1.941 0-1.407-.45-2.559-1-2.559s-1-.723-1-1.607c0-.981-.556-1.394-1.427-1.059-.785.301-1.965-.101-2.622-.893-1.412-1.702-3.951-1.916-3.951-.334m-21.921 1.643c-.043.688-.979 1.25-2.079 1.25-3.132 0-2.907 7.524.25 8.37 3.178.851 3.193.848 5.761-1.379 2.087-1.81 2.184-2.257.984-4.5-.733-1.37-1.894-2.491-2.581-2.491-.686 0-1.474-.562-1.752-1.25-.403-1-.52-1-.583 0m415.671 2.956c1.237.238 3.263.238 4.5 0 1.237-.239.225-.434-2.25-.434s-3.487.195-2.25.434M414 162.59c0 .841-.418 1.27-.928.954-.853-.527-2.69 3.224-1.913 3.907 1.255 1.105 4.841 1.518 4.841.557 0-.619.399-.88.886-.578 1.076.664 2.123-2.831 1.241-4.142-1.216-1.811-4.127-2.303-4.127-.698m-80 5.197c0 .433.91.856 2.022.94s1.76-.271 1.441-.788c-.703-1.136-3.463-1.258-3.463-.152m34.118 4.963c.34 2.152-.242 4.623-.883 3.75-1.219-1.658-4.23-1.406-4.305.361-.059 1.37-.188 1.34-.789-.185-.697-1.769-2.625-2.441-2.656-.926-.009.412-.376 1.318-.817 2.012-.56.883.119 1.445 2.266 1.875 1.686.337 3.066.894 3.067 1.238 0 .344 1.122.69 2.493.769s2.244-.259 1.94-.75c-.303-.492-.075-.894.507-.894s1.066-1.238 1.074-2.75c.012-2.143.23-2.419.985-1.25.78 1.207.972 1.049.985-.809.008-1.288-.427-2.036-.985-1.691-.55.34-1 .141-1-.441s-.45-1.059-1-1.059-.947.338-.882.75m8.601 4.94c-.283 1.479-.139 3.617.32 4.75.625 1.543.85.868.898-2.69.07-5.288-.437-6.146-1.218-2.06M888 253.5c0 2.23.4 3.033 1.353 2.716.469-.157 2.401-.343 4.292-.414s3.64-.455 3.886-.853-.11-.703-.792-.679c-5.165.186-8.128-.372-6.739-1.27 1.282-.828 1.246-.972-.25-.985-.962-.008-1.75.66-1.75 1.485m18.25 3.75c.138.688-.312 1.137-1 1s-1.25.2-1.25.75.45 1 1 1 1.007 1.462 1.015 3.25c.012 2.466.249 2.888.985 1.75.766-1.186.973-.968.985 1.037.027 4.453 4.987 3.475 5.705-1.125.137-.874-1.261-3.236-3.106-5.25-3.502-3.824-4.756-4.521-4.334-2.412m-35.996 20.25c-.012 6.063.232 8.021.746 6 .468-1.838.809-2.258.882-1.083.272 4.41 1.461.078 1.685-6.143.21-5.802.06-6.484-1.082-4.923-1.247 1.706-1.351 1.675-1.769-.52-.244-1.282-.452 1.719-.462 6.669m-761.192 1.559c.996.631.132.915-2.812.926-2.338.008-4.25.465-4.25 1.015s-.707 1-1.571 1c-2.149 0-3.86 2.002-4.274 5-.19 1.375-.753 2.65-1.25 2.833-.498.184-.905 2.07-.905 4.191s-.45 4.136-1 4.476-1 2.616-1 5.059S91.55 308 91 308s-1 2.052-1 4.559-.355 4.34-.788 4.072c-1.254-.775-1.315 4.308-.079 6.618 2.015 3.764 5.722 6.751 8.381 6.751 1.432 0 2.335.435 2.006.967-.381.616 14.475.974 40.993.988 27.135.013 41.378-.323 40.979-.967-.341-.552.519-.988 1.949-.988 1.407 0 2.559-.398 2.559-.883 0-.486.9-1.119 2-1.407 1.794-.469 2-1.364 2-8.675 0-5.181-.365-7.928-1-7.535-.604.373-1-.99-1-3.441 0-2.232-.45-4.059-1-4.059s-1-1.8-1-4-.45-4-1-4-1-2.052-1-4.559c0-2.785-.389-4.319-1-3.941-.567.351-1-.49-1-1.941 0-1.407-.418-2.559-.929-2.559-.51 0-1.698-.77-2.639-1.711-1.431-1.431-3.897-1.73-15.064-1.825-7.343-.063-13.626-.389-13.963-.725s-1.792-.162-3.235.386c-3.254 1.237-11.407.866-12.42-.565-.499-.705-1.085-.557-1.75.44-.687 1.03-1.235 1.157-1.75.404-.461-.673-4.969-1.126-11.688-1.175-6.927-.05-10.411.254-9.5.83m31.513 15c-1.136 1.146-3.287 1.941-5.25 1.941-1.829 0-3.325.45-3.325 1s-.819 1-1.82 1c-1 0-2.8 1.128-4 2.508-2.278 2.62-2.895 5.492-1.18 5.492.55 0 1 .707 1 1.571 0 1.703 2.461 4.634 3.238 3.857.263-.262 1.046.21 1.742 1.048 1.418 1.709 6.567 2.066 7.522.521.414-.67 1.241-.67 2.493 0 2.423 1.297 8.005 1.299 8.005.003 0-.55.482-1 1.071-1 1.445 0 3.929-2.568 3.929-4.061 0-.663-.998-2.07-2.218-3.128-1.866-1.619-1.985-2.071-.75-2.852.807-.511 1.018-.942.468-.959s-.352-.44.439-.941c1.118-.707.613-1.305-2.257-2.674-2.789-1.329-3.556-2.208-3.122-3.574.799-2.518-3.414-2.344-5.985.248M347 296.554c-.825.178-4.087.608-7.25.956l-5.75.634V334h49.779c48.632 0 49.813.046 51.221 2 .889 1.234 2.602 2.006 4.471 2.015 2.323.012 2.68.241 1.529.985-1.165.753-.872.973 1.309.985 1.621.009 2.548-.408 2.191-.985-.361-.583.656-1 2.441-1 1.682 0 3.059-.477 3.059-1.059s.45-.781 1-.441 1-.084 1-.941.45-1.559 1-1.559c.624 0 1-5.926 1-15.779 0-14.488-.159-15.894-1.946-17.182-1.071-.772-1.719-1.771-1.441-2.221.678-1.098 1.997-1.063-49.137-1.317-24.764-.122-46.082-.559-47.375-.969-1.716-.544-2.15-.42-1.606.461.571.922.262.948-1.309.107-1.13-.605-2.197-1.048-2.37-.984s-.991.261-1.816.438m222.25.942c-.687.781-1.25 2.114-1.25 2.962s-.562 1.549-1.25 1.557q-1.25.016.25.985c.904.584 1.026.975.307.985-.678.008-1.014.939-.779 2.159.567 2.947-.684 4.706-1.63 2.29-.446-1.14-.725.941-.678 5.066.074 6.422.138 6.628.78 2.5l.7-4.5.323 5.5c.178 3.025.25 7.075.162 9-.186 4.019 1.687 10.913 3.463 12.75.942.974 15.035 1.25 63.781 1.25H696v-44l-62.75.038c-52.914.032-62.946.261-64 1.458m340.915 5.004c-.083 3.706.196 5.479.729 4.637.729-1.151.939-1.151 1.348 0 .266.75.774 1.097 1.128.773.921-.844-.449-6.979-1.424-6.377-.445.276-.998-.744-1.228-2.266s-.479-.067-.553 3.233M864 299c0 .55-1.312 1-2.917 1s-3.066.416-3.25.925c-.183.509-.988 1.071-1.788 1.25s-2.516 1.346-3.814 2.594-2.851 1.966-3.45 1.596c-.652-.404-.803-.21-.376.48.392.635.204 1.155-.417 1.155-1.46 0-3.988 2.528-3.988 3.988 0 .621-.52.809-1.155.417-.684-.423-.884-.277-.49.36.365.591-.016 1.753-.846 2.583S840 317.564 840 318.429s-.45 1.571-1 1.571-1 .9-1 2-.395 2-.877 2c-1.214 0-1.442 19.453-.254 21.687 1.652 3.107 3.619 8.774 3.344 9.637-.144.454.199.54.762.191.564-.348 1.025-.147 1.025.448 0 1.661 10.756 12.037 12.478 12.037.837 0 1.522.45 1.522 1s.927 1 2.059 1 1.781.45 1.441 1c-.373.604.99 1 3.441 1 2.232 0 4.059.45 4.059 1 0 .557 2.686 1 6.059 1 3.785 0 5.827-.375 5.441-1-.378-.611 1.156-1 3.941-1 2.507 0 4.559-.45 4.559-1s1.152-1 2.559-1c1.451 0 2.292-.433 1.941-1-.34-.55-.109-1 .512-1 .622 0 1.81-.679 2.64-1.509s1.934-1.247 2.453-.926c.52.321.821-.012.67-.741-.151-.728.288-1.211.975-1.074.688.138 1.25-.452 1.25-1.309s.45-1.281 1-.941 1-.209 1-1.22.9-2.487 2-3.28 2-2.242 2-3.221c0-.978.45-1.779 1-1.779s1-.9 1-2 .45-2 1-2 .947-.337.882-.75c-.535-3.384.373-10.484 1.118-8.75.693 1.612.873 1.284.93-1.691.038-2.03-.38-3.969-.93-4.309s-1-2.643-1-5.118c0-2.745-.39-4.259-1-3.882-.583.361-1-.656-1-2.441 0-1.682-.42-3.059-.933-3.059s-1.218-.902-1.568-2.004C904.61 313.195 895.462 304 893.565 304c-.861 0-1.565-.45-1.565-1s-.9-1-2-1-2-.45-2-1-1.377-1-3.059-1c-1.785 0-2.802-.417-2.441-1 .396-.64-2.823-1-8.941-1-5.706 0-9.559.403-9.559 1m-258.8 4.2c-.66.66-1.2 1.972-1.2 2.917s-.562 1.923-1.25 2.175c-1 .366-1 .723 0 1.783.688.729 1.25 3.26 1.25 5.625 0 5.79 3.449 6.41 3.834.69.134-1.986.936-4.303 1.782-5.149.847-.847 1.321-2.372 1.055-3.39s.037-1.852.673-1.853c.796-.002 1.053 2.175.824 7l-.332 7.002H620v-4c0-3.333.333-4 2-4 1.552 0 2 .667 2 2.977 0 3.952 3.677 6.472 8.043 5.514 2.664-.586 3.038-1.032 2.537-3.028-.323-1.287-.136-2.62.416-2.961 1.497-.925 1.214-3.435-.591-5.24-1.977-1.977-7.238-2.086-8.569-.179-.757 1.086-1.107 1.125-1.495.167-.31-.762-2.428-1.25-5.424-1.25-4.576 0-6.542-1.231-3.667-2.297.911-.338.766-.97-.536-2.333-1.446-1.513-1.946-1.611-2.625-.513-.585.945-1.046 1.021-1.523.25-.904-1.463-3.862-1.411-5.366.093m34.435 3.913c-1.302 1.521-1.505 2.417-.722 3.2.598.598 1.087 3.022 1.087 5.387v4.3h4c2.2 0 4-.45 4-1s-.9-1-2-1c-2.47 0-2.949-6.422-.548-7.343 1.531-.588 4.548 4.245 4.548 7.284 0 1.098.984 1.709 3 1.862 2.721.207 3-.052 3-2.787 0-1.659.398-3.016.883-3.016 1.191 0 2.168-5.288 1.169-6.321-.968-1.001-5.247 4.196-4.479 5.439.3.485.068.882-.514.882s-1.073-.788-1.091-1.75c-.057-3.134-2.33-5.095-5.256-4.535-2.045.391-2.712.12-2.712-1.098 0-2.265-2.216-2.013-4.365.496M356 316v10h3.917c2.155 0 4.179-.562 4.5-1.25.466-1 .7-1 1.166 0 .788 1.688 17.536 1.731 19.217.05.933-.933 1.2-.932 1.2.005 0 .813 1.87 1.169 5.75 1.095 3.163-.061 6.2-.01 6.75.113s5.163.171 10.25.105L418 326v-16l-7.25-.067c-3.988-.037-14.225-.012-22.75.054-14.565.114-15.589-.003-16.971-1.933-1.235-1.725-2.555-2.054-8.25-2.054H356zm83.59-6.074c-1.601.9-3.257 2.523-3.68 3.606s-.801 1.53-.84.995c-.038-.534-.771.028-1.627 1.25-.856 1.223-2.457 2.223-3.559 2.223-1.101 0-1.724.45-1.384 1s.109 1-.512 1c-1.171 0-3.988 2.422-3.988 3.429 0 .314.681.571 1.514.571.832 0 2.339.516 3.349 1.146 3.611 2.256 13.137-2.99 13.137-7.235 0-1.051.477-1.911 1.059-1.911s.803-.414.491-.919.147-1.635 1.021-2.509c3.443-3.443-.162-5.357-4.981-2.646m467.16.736c.688.278 1.25 1.592 1.25 2.921 0 1.33.337 2.421.75 2.425.898.009 3.25 4.852 3.25 6.691 0 .716.45 1.301 1 1.301s1 2.16 1 4.8c0 5.794 1.211 7.2 6.2 7.2h3.8v-12c0-8.925-.32-12.004-1.25-12.015q-1.25-.016.25-.985c1.023-.661-1.522-.949-8-.906-5.225.035-8.937.291-8.25.568m-39.5 5.042c-1.788.233-3.25.734-3.25 1.115s-1.35 1.29-3 2.021-3 1.991-3 2.803-.45 1.197-1 .857-1 .309-1 1.441-.45 2.059-1 2.059-1 1.35-1 3-.45 3-1 3-1 1.8-1 4 .45 4 1 4 1 1.377 1 3.059c0 1.785.417 2.802 1 2.441.55-.34 1 .011 1 .78 0 1.811 6.486 7.72 8.473 7.72.84 0 1.527.45 1.527 1 0 .578 3.186 1 7.559 1 4.785 0 7.332-.367 6.941-1-.344-.556.407-1.001 1.691-1.001 2.789-.002 7.809-4.094 7.809-6.365 0-.899.34-1.634.757-1.634 1.195 0 3.243-7.568 3.243-11.984 0-2.209-.45-4.016-1-4.016s-1-.9-1-2-.45-2-1-2-1-.695-1-1.545c0-1.96-4.437-6.455-6.371-6.455-.804 0-1.612-.39-1.796-.867-.407-1.059-10.113-2.01-14.583-1.429m-223.047 9.29c-1.508 2.651-2.274 3.012-6.703 3.157-9.134.3-17.988-.268-18.95-1.216-.523-.514-2.012-.935-3.309-.935-1.318 0-2.086-.441-1.741-1 .361-.583-.656-1-2.441-1-1.682 0-3.059.257-3.059.571 0 1.007 2.817 3.429 3.988 3.429.621 0 .852.45.512 1-.352.569.509 1 2 1s2.352.431 2 1c-.373.604.99 1 3.441 1 2.232 0 4.059.45 4.059 1 0 .572 3.02 1 7.059 1 4.451 0 6.831-.369 6.441-1-.368-.595.823-1 2.941-1 1.957 0 3.559-.45 3.559-1s1.125-1 2.5-1 2.5.477 2.5 1.059c0 1.753 1.774.1 3.409-3.178 2.965-5.942-4.894-8.707-8.206-2.887M88.355 339.5c-.003 4.95.166 7.101.376 4.78.209-2.321.212-6.371.005-9-.206-2.629-.378-.73-.381 4.22m2.895-4.838C88.442 335.796 90.766 350 93.76 350c.747 0 1.109-.403.805-.895-.305-.493.129-1.157.964-1.478 1.224-.469 1.319-.211.491 1.335-1.323 2.472.437 3.724 2.431 1.73 2.568-2.568 7.225-.722 6.643 2.632-.079.454.271.569.777.256.898-.555.046-6.287-1.245-8.377-.351-.568-.105-1.21.548-1.428.658-.219.9-1.139.544-2.068-.383-.998-1.263-1.435-2.18-1.083-.916.351-1.544.041-1.553-.767-.011-.987-.22-1.035-.766-.176-.546.857-1.431.649-3.235-.763-1.482-1.16-1.778-1.694-.734-1.324.986.349 1.75.137 1.75-.487 0-.609-1.013-1.114-2.25-1.122-1.819-.013-1.963-.201-.75-.985 1.638-1.059-2.274-1.337-4.75-.338m90.75.703c0 .751-1 2.663-2.223 4.25-1.411 1.831-1.594 2.384-.5 1.513 2.362-1.882 5.064.31 4.435 3.597-.411 2.152-.307 2.219 1.251.808.935-.845 2-1.236 2.368-.869.368.368.708-.418.755-1.747s.193-3.879.324-5.667c.224-3.063.046-3.25-3.086-3.25-2.142 0-3.324.485-3.324 1.365m-20.644 5.149a1.464 1.464 0 0 1-1.887.836c-2.175-.835-4.111 1.728-3.655 4.838.495 3.373 2.186 4.82 2.186 1.871 0-1.132.402-2.059.894-2.059s.83 1.087.75 2.416-.336 2.225-.57 1.991-1.414.504-2.623 1.639c-2.029 1.907-2.322 1.94-3.824.438-.895-.895-1.627-1.129-1.627-.52 0 .781-.564.804-1.919.079-1.357-.726-2.03-.697-2.295.099-.245.735-.934.568-1.982-.481-2.145-2.145-8.792-1.956-8.834.251-.025 1.287-.237 1.233-1.117-.281-.823-1.417-.755-2.079.281-2.735 1.121-.71 1.098-.871-.134-.896-1.085-.022-1.165-.243-.29-.8.884-.561.725-1.072-.589-1.893-1.221-.762-2.254-.801-3.21-.121-1.172.833-1.149.921.134.518.992-.31 1.597.187 1.687 1.387.126 1.68-.121 1.629-2.411-.494-2.37-2.198-2.675-2.25-4.278-.732-.949.899-1.49 2.063-1.201 2.586.292.53.701.42.924-.25.221-.661.799-1.201 1.286-1.201s.598.749.247 1.664c-.411 1.071-.246 1.422.462.984.605-.374 1.424-.158 1.819.481.5.81-.083 1.008-1.931.655-1.457-.279-2.649-.05-2.649.508s-.84.045-1.867-1.139c-2.073-2.39-4.095-2.824-4.203-.903-.039.688-.457.35-.93-.75s-.891-1.512-.93-.917c-.038.596-.725 1.084-1.526 1.084s-1.256-.324-1.011-.72-.181-1.24-.947-1.875c-2.03-1.685-2.65.85-.876 3.585.966 1.49 1.065 2.364.32 2.825-.594.367-.973.296-.842-.158.13-.453-.338-1.861-1.04-3.129-.702-1.267-1.198-3.292-1.102-4.5.29-3.626.013-4.695-1.213-4.695-.641 0-.87.296-.508.658s.099 1.335-.584 2.163c-.989 1.199-.986 1.59.015 1.927.691.233.942.932.557 1.555-2.196 3.553-.258 10.726 2.32 8.587.752-.624 1.367-.742 1.367-.262.001 1.126 24.078 1.144 25.821.019.727-.469 3.427-.527 6-.129 6.069.94 12.181 1.14 12.18.399-.001-.861 3.339-.768 4.499.125 1.536 1.182 8.822.912 10.442-.386 1.115-.894 1.272-.872.691.094-.523.87.027 1.25 1.808 1.25 1.407 0 2.559-.477 2.559-1.059s.446-.783.992-.446 1.783.153 2.75-.41c1.669-.973 1.67-1.026.008-1.055-1.844-.032-2.082-.756-1.769-5.393.144-2.134-.147-2.669-1.144-2.103-1.037.589-1.074.475-.165-.509 2.011-2.178.486-3.767-3.224-3.358-1.999.22-3.448-.065-3.448-.679 0-.741-.6-.737-2 .012-1.105.591-2 .659-2 .152 0-1.557-4.076-2.117-4.644-.638m-25.022 1.236c0 .688.599 1.25 1.333 1.25.733 0 1.333-.436 1.333-.969s.675-.709 1.5-.393c.825.317 1.5.096 1.5-.491 0-.586-1.275-.972-2.832-.857-1.558.116-2.833.773-2.834 1.46m44.095 2.25c0 1.1.353 2 .785 2s.786-.9.786-2-.354-2-.786-2-.785.9-.785 2m-60.954.041c-.354.572-1.618.768-2.809.434-1.714-.48-1.853-.387-.666.444 2.115 1.481 3.691 1.329 4.362-.419.657-1.714.075-2.016-.887-.459m27.025-.314c-1.1.273-2.365 1.13-2.811 1.906-.447.775-1.347 1.102-2 .728-.654-.375-.846-.304-.427.158 1.251 1.376 8.738 1.74 8.738.425 0-.637.661-.904 1.468-.595s1.734.132 2.06-.395c.458-.74-4.012-3.36-4.843-2.838-.102.064-1.085.339-2.185.611M101 352c0 .55-.75 1-1.667 1-1.936 0-.978 1.288 1.196 1.607.857.126 1.471-.582 1.471-1.695 0-1.052-.225-1.912-.5-1.912s-.5.45-.5 1m382.331 97.96c-14.392.297-26.505.877-26.916 1.29s9.789.782 22.668.821c12.88.039 25.105.277 27.167.528 3.251.396 3.75.187 3.75-1.571 0-1.115-.113-1.933-.25-1.818-.137.116-12.026.453-26.419.75m30.668.79c.001 1.194 22.802 1.918 40.233 1.278 3.152-.115 7.528.094 9.723.464l3.992.675.276 32.403c.181 21.171-.07 32.367-.723 32.298-2.274-.239-3.585.185-3.083.998.828 1.339 5.583.076 5.583-1.483 0-.76.45-1.383 1-1.383s.993-.788.985-1.75c-.013-1.496-.157-1.532-.985-.25-.639.989-.901-5.826-.77-20l.2-21.5.57 18c.556 17.549.575 17.303.785-9.821.175-22.702-.042-28.079-1.182-29.219-1.951-1.951-56.605-2.636-56.604-.71m-312.761 1.24c-1.227 1.965-.4 2.433 3.4 1.925.351-.047.97.451 1.375 1.107.443.715 1.608.916 2.915.501 3.009-.955.847-3.523-2.967-3.523-1.537 0-2.946-.454-3.131-1.01-.185-.555-.901-.105-1.592 1m252.97 4.76c.144 3.438.607 6.25 1.027 6.25 1.133 0 .899-9.257-.278-11-.724-1.073-.938.279-.749 4.75M458 485.016v29.016l54-.049 54-.049V456l-10.75.015c-10.689.016-18.115 1.689-9.75 2.198 2.2.133-9.725.488-26.5.787l-30.5.544 31.75.228L552 460v49.953l-37.75.274c-20.762.15-38.762.129-40-.047l-2.25-.319V484.93c0-22.601.156-24.93 1.667-24.93.916 0 1.37-.296 1.008-.658s-.156-1.262.456-2c.918-1.106-.49-1.342-8.009-1.342H458zm40-28.065c0 .592 2.176 1.049 5 1.049 2.75 0 5-.37 5-.821 0-.452-2.25-.924-5-1.05-2.969-.135-5 .198-5 .822m16.638.089c2.687 1.021 18.362.788 18.362-.273 0-.432-4.612-.73-10.25-.663-6.47.078-9.462.423-8.112.936m20.488-.118c-.761.471-.055.804 1.814.857 1.683.048 3.06-.237 3.06-.633 0-1.002-3.365-1.157-4.874-.224m-314.823 2.509c1.13.857 1.373 1.51.651 1.751-1.019.34 1.231 1.49 12.506 6.391 1.627.707 3.315 1.066 3.75.798.434-.269.797.1.805.82.011.89.251.957.75.209.404-.605 1.41-1.351 2.235-1.657.954-.353.322-.817-1.734-1.271-1.778-.394-3.047-1.017-2.819-1.386s-.56-.744-1.751-.834c-1.192-.09-2.323-.633-2.515-1.208-.191-.574-1.21-1.044-2.264-1.044s-1.917-.45-1.917-1-.873-1-1.941-1-2.219-.45-2.559-1-1.604-.986-2.809-.968c-2.066.03-2.088.109-.388 1.399m55.697-.218c0 .433.918.787 2.039.787 1.695 0 1.822.236.75 1.395-.709.767-1.696 1.148-2.194.846-.497-.303-.583-.03-.19.604.392.635 1.388 1.155 2.213 1.155s1.241-.419.925-.931-.138-1.201.397-1.532c1.578-.975.065-3.413-2.021-3.256-1.055.08-1.919.499-1.919.932m8.399 1.623c.597.967 4.234.864 5.247-.149.378-.378-.764-.687-2.538-.687s-2.994.376-2.709.836M250 465c-2.124.68-1.86.816 1.75.9 2.338.055 4.25-.35 4.25-.9 0-1.153-2.401-1.153-6 0m33.232 1c-.74 1.186-.838 2-.24 2 .554 0 1.008.9 1.008 2 0 1.456.667 2 2.453 2 3.287 0 7.547-2.02 7.547-3.579 0-.691.273-1.969.607-2.839 1.011-2.634-9.715-2.24-11.375.418m287 3c0 1.925.206 2.712.457 1.75.252-.962.252-2.538 0-3.5-.251-.962-.457-.175-.457 1.75m-344.896 6c0 4.125.177 5.813.392 3.75s.216-5.437 0-7.5c-.215-2.062-.392-.375-.392 3.75m41.164-6c-.34.55.282 1 1.382 1s2.278-.45 2.618-1-.282-1-1.382-1-2.278.45-2.618 1m-38.5 9.851c0 9.156 1.35 15.254 3.292 14.87.614-.122 1.138.304 1.163.946s.455 1.541.955 2c.529.484.609.309.191-.417-.974-1.693.583-1.578 2.958.218 2.692 2.037 3.425 1.888 3.541-.718.096-2.164.131-2.155.93.25.524 1.577.799-2.02.747-9.75-.058-8.5-.435-12.25-1.231-12.25-1.72 0-6.529-2.391-6.538-3.25-.004-.413-1.358-.75-3.008-.75h-3zm30-8.359c0 2.424 4.739 5.465 8.297 5.325 3.097-.121 3.641-.391 2.494-1.236-.806-.595-1.729-1.756-2.05-2.581-.359-.924-.613-1.02-.662-.25-.113 1.788-2.079 1.552-2.079-.25q0-1.5-3-1.5c-1.65 0-3 .222-3 .492m-9.417 3.258c-.303.962-.147 3.1.347 4.75.836 2.791.904 2.67.984-1.75.089-4.935-.384-6.003-1.331-3m473.941-.711c.327.528-.365.961-1.536.961-2.941 0-4.985 2.32-5.003 5.679-.012 2.189-.233 2.485-.985 1.321-.707-1.093-.974-.299-.985 2.929-.008 2.436-.447 5.811-.975 7.5s-1.527 5.208-2.219 7.821-1.722 4.757-2.289 4.765-.357.452.468.985q1.5.969.25.985c-.724.009-1.25 1.302-1.25 3.074 0 1.682-.337 2.851-.75 2.597s-.868 1.227-1.013 3.291c-.291 4.15 3.414 9.053 6.84 9.053.993 0 2.083.45 2.423 1 .915 1.481 102.964 1.357 105.739-.128 5.821-3.115 9.054-11.093 5.845-14.422-.503-.523-1.056-2.525-1.228-4.45s-.66-3.751-1.084-4.059c-.424-.307-.845-2.426-.934-4.709s-.54-3.916-1-3.632c-.461.285-.838-1.309-.838-3.541s-.45-4.059-1-4.059-1-1.701-1-3.779c0-2.598-.609-4.218-1.946-5.182-1.071-.772-1.719-1.771-1.441-2.221S815.94 474 814.5 474c-1.523 0-2.355-.426-1.989-1.019.424-.686-14.258-.999-44.976-.961-28.912.036-45.388.409-45.011 1.019m-468.419 52.805c-.034 49.31.063 52.266 1.679 51.002 5.565-4.353 5.258-1.353 5.148-50.268-.1-44.754-.321-50.074-2.039-49.012-.491.304-.893.075-.893-.507s-.637-1.059-1.417-1.059c-.779 0-1.647-.562-1.93-1.25s-.529 22.305-.548 51.094M232 480.351c0 6.131 1.752 10.649 4.129 10.649 1.064 0 2.223-.755 2.577-1.677.576-1.5.723-1.474 1.399.25.466 1.19.781-.595.825-4.662.065-6.123-.111-6.672-2.477-7.75-5.053-2.303-6.453-1.61-6.453 3.19m45.789-3.2c-.85.54-.352.824 1.461.834 1.512.008 2.75-.36 2.75-.818 0-1.068-2.537-1.077-4.211-.016m-9.539 2.069c-1.238.597-2.25 1.557-2.25 2.133 0 .644.461.586 1.2-.153.66-.66 2.937-1.2 5.059-1.2 2.318 0 3.612-.399 3.241-1-.792-1.281-4.361-1.173-7.25.22m-63.18 9.576c.089 5.957 1.356 9.584 2.43 6.954.393-.962 1.491-1.75 2.44-1.75 4.095 0 3.166-4.66-1.536-7.704L205 484.092zM772 484.917c0 .595-.801 1.083-1.779 1.083-.979 0-2.428.9-3.221 2-1.131 1.569-2.589 2-6.766 2-4.32 0-5.788.463-7.779 2.455-2.418 2.417-3.406 7.545-1.455 7.545.55 0 1 .9 1 2 0 1.145.667 2 1.559 2 .924 0 1.268.47.846 1.155-.393.634-.289.891.231.57s2.436.138 4.259 1.021c2.621 1.269 3.707 1.359 5.196.429a7.36 7.36 0 0 1 7.807-.006c2.19 1.367 7.45-.686 10.559-4.121 1.807-1.997 1.799-2.091-.303-3.914-2.386-2.07-2.834-4.739-.904-5.388 1.842-.62-.972-3.746-3.372-3.746-1.034 0-1.878-.701-1.878-1.559 0-.857-.399-1.312-.887-1.011s-.825-.186-.75-1.083c.075-.898-.425-1.83-1.113-2.073s-1.25.047-1.25.643m-317.522 5.182c-.403 1.838-.232 3.547.421 4.2.801.801 1.101-.042 1.101-3.099 0-4.973-.579-5.393-1.522-1.101M452.336 496c0 4.125.177 5.813.392 3.75s.216-5.437 0-7.5c-.215-2.062-.392-.375-.392 3.75m-203.27-1.5c-.129.55-.391 3.25-.582 6-.324 4.649-.279 4.764.64 1.644.543-1.846.805-4.546.582-6s-.512-2.194-.64-1.644m205.331 12.388-.103 10.883 3.719 1.115c4.557 1.365 24.351 1.512 23.524.175-.786-1.273 3.602-.976 5.405.366 1.085.808 1.256.764.691-.177-.583-.971 1.441-1.21 9.058-1.07l9.809.18-7.5.64c-4.125.352 8.475.65 28 .663 19.525.012 33.25-.286 30.5-.663l-5-.686 5.5-.259c5.334-.252 5.394-.286 2-1.142-4.12-1.039-7.994-.383-8.015 1.356-.012.948-.191.955-.779.03-.572-.899-12.553-1.276-47.735-1.5L456.5 516.5l-.285-10.25c-.378-13.603-1.688-13.143-1.818.638m-219.924-8.844c-.325.526-.114.956.468.956s1.059.682 1.059 1.516c0 2.766 2.471 9.484 3.493 9.499.554.009.47.357-.185.774-.761.484-.016 1.126 2.059 1.776 3.229 1.01 3.254.992 3.474-2.524.121-1.947.463-4.331.759-5.298.56-1.825-3.188-4.05-5.005-2.971-.497.295-.583.017-.19-.617.422-.685.078-1.155-.846-1.155-.857 0-1.559-.402-1.559-.893 0-1.319-2.84-2.175-3.527-1.063m-22.102 3.43c-.311.811.153 2.193 1.032 3.072 1.463 1.463 1.597 1.423 1.597-.475 0-1.139-.477-2.071-1.059-2.071s-.781-.45-.441-1 .352-1 .028-1c-.325 0-.845.663-1.157 1.474M452.252 512.5c.011 2.2.216 2.982.455 1.738s.23-3.044-.02-4-.446.062-.435 2.262m17.012 6.218c1.52.229 3.77.223 5-.014s-.014-.425-2.764-.418-3.756.202-2.236.432m56.512.015c2.352.212 5.952.209 8-.006s.124-.388-4.276-.384c-4.4.003-6.076.179-3.724.39M220 521c0 .55-1.581 1-3.514 1s-4.52.563-5.75 1.25a679 679 0 0 1-2.605 1.452c-.843.463 2.851 3.298 4.298 3.298.864 0 1.571.45 1.571 1s.927 1 2.059 1 1.781.45 1.441 1 .309 1 1.441 1 2.059.45 2.059 1 .675 1 1.5 1 1.5.45 1.5 1 .863 1 1.917 1 2.117.563 2.363 1.25c.245.688.706 1.014 1.023.726.318-.288-.295-3.17-1.363-6.405-1.067-3.235-1.94-7.162-1.94-8.726 0-2.494-.37-2.845-3-2.845-1.65 0-3 .45-3 1m27.779 15.579L247.5 550.5l-2.5-.353c-1.375-.194-2.725-.705-3-1.134-.275-.43-2.213-1.74-4.307-2.912-3.4-1.903-3.968-1.969-5.321-.616-.833.833-2.144 1.515-2.912 1.515-.84 0-1.164.607-.813 1.522.376.981-1.057 3.05-4.032 5.82-4.815 4.484-5.501 5.658-3.304 5.658.722 0 2.278.9 3.459 2 1.18 1.1 2.634 2 3.23 2s2.05.9 3.23 2 2.625 1.993 3.209 1.985c.583-.009.386-.452-.439-.985-1.175-.759-.922-.973 1.167-.985 1.466-.008 2.87.548 3.119 1.235.359.993.882.997 2.537.02 1.354-.798 2.302-.877 2.705-.225.341.553.081.881-.579.73s-1.428.356-1.708 1.127c-.369 1.016.077 1.248 1.624.844 1.173-.307 2.428-.081 2.789.502.415.673.17.761-.669.242-1.004-.62-1.134-.355-.536 1.096.434 1.053.811 2.477.837 3.164s.61 1.25 1.297 1.25c.688 0 1.479.563 1.758 1.25.381.941.769.879 1.568-.25 1.564-2.212 1.316-6.632-.473-8.421-.86-.86-1.283-2.017-.941-2.571.343-.555.161-1.008-.405-1.008-.565 0-.768-.675-.452-1.5.317-.825.167-1.5-.333-1.5s-.953-1.575-1.008-3.5c-.054-1.925.306-3.5.802-3.5s.901-.638.901-1.417.552-1.6 1.226-1.825c.904-.301 1.156-3.926.962-13.821-.357-18.226-2.051-19.181-2.409-1.358m320.068-11.712c1.332 1.156 2.153 3.04 2.153 4.941 0 1.691.45 3.352 1 3.692s1 1.61 1 2.823.892 4.645 1.981 7.626c1.09 2.982 1.787 5.617 1.548 5.855-.377.377-22.974 1.087-35.279 1.109l-4.25.007V568h23.878c21.045 0 24.04-.197 25.25-1.663 1.07-1.296 1.097-1.755.122-2.083-.687-.231-1.25-1.733-1.25-3.337s-.45-2.917-1-2.917-1-1.35-1-3-.45-3-1-3-1-1.602-1-3.559c0-2.118-.405-3.309-1-2.941-.596.369-1-.843-1-3s-.404-3.369-1-3-1-.843-1-3-.404-3.369-1-3c-.598.369-1-.867-1-3.074 0-4.077-2.844-7.426-6.306-7.426-1.945 0-1.941.051.153 1.867m-116.597.629c-.687.781-1.25 2.564-1.25 3.962s-.401 2.542-.891 2.542c-.489 0-1.164 1.575-1.5 3.5l-1.217 6.992c-.335 1.921-1.01 3.244-1.5 2.941-.491-.303-.892 1.051-.892 3.008s-.45 3.559-1 3.559-1 1.35-1 3-.45 3-1 3-1 1.313-1 2.917-.558 3.102-1.241 3.33c-.903.301-.786.869.429 2.083 1.464 1.465 4.548 1.67 25.098 1.67h23.429l.635-5.75c.349-3.163.898-6.696 1.22-7.852.515-1.848.003-2.217-4.242-3.049-2.655-.521-6.337-.634-8.182-.253-4.079.844-23.82.46-26.918-.523-2.278-.724-3.057-3.942-1.228-5.073.55-.34 1-1.716 1-3.059s.45-2.441 1-2.441 1-1.8 1-4 .45-4 1-4 1-1.26 1-2.8.54-3.34 1.2-4c.933-.933.767-1.192-.75-1.162-1.073.021-2.512.677-3.2 1.458M708 527.992c0 1.104.477 2.008 1.059 2.008s.744.51.358 1.134c-.489.791.297.988 2.592.651 3.254-.477 6.991 1.776 6.991 4.215 0 .55.498 1 1.107 1s.864.634.567 1.408c-.352.917.378 1.639 2.09 2.069 2.016.506 2.301.865 1.217 1.535-.777.48-1.9.562-2.495.181-.594-.381-.291.039.674.933s1.549 1.832 1.297 2.083c-.251.252.218.458 1.043.458s1.5-.552 1.5-1.227c0-1.868 3.056-2.635 4.814-1.207 1.318 1.07 1.46 1 .915-.457-.375-1.001-.075-2.049.717-2.5.749-.427 1.518-2.351 1.708-4.276.384-3.886.811-3.694-8.654-3.9-4.274-.093-5.569-.409-4.5-1.1 1.282-.828 1.246-.972-.25-.985-.962-.008-1.75.435-1.75.985s-.477 1-1.059 1-.84-.355-.572-.788-.943-1.363-2.691-2.065c-1.748-.703-3.966-1.702-4.928-2.221-1.399-.754-1.75-.54-1.75 1.066m116.582 2.175c-.488 1.551-1.564 6.563-1.944 9.063-.145.951-.611 2.076-1.034 2.5s-.621.149-.437-.609c.2-.827-.577-1.461-1.939-1.585-1.619-.146-2.436.446-2.841 2.057-.312 1.244-1.194 2.503-1.96 2.797-1.713.657-.747 3.61 1.18 3.61.766 0 1.393.45 1.393 1s.788.993 1.75.985c1.459-.013 1.507-.169.29-.939-1.06-.671-.578-.899 1.753-.833 3.195.091 7.221-2.494 7.192-4.618-.009-.602-.477-.42-1.042.405-.723 1.058-.806.026-.281-3.5 1.107-7.429.985-10.759-.411-11.238-.688-.236-1.439.172-1.669.905m-579.735 4.583c-.191 2.612-.069 6.325.271 8.25.417 2.359.662.812.75-4.75.144-8.994-.468-11.09-1.021-3.5M798 531c0 .55-1.913 1.007-4.25 1.015s-3.8.346-3.25.75 1 1.373 1 2.152.625 1.625 1.389 1.879c.799.267 1.111.012.734-.597-1.009-1.632 1.045-2.382 2.546-.93 1.088 1.053 2.426.883 7.331-.931 3.3-1.221 5.186-2.246 4.191-2.279s-1.531-.509-1.191-1.059c.378-.611-1.156-1-3.941-1-2.507 0-4.559.45-4.559 1m-62.457 4.931c-.317.512-.115 1.216.449 1.564.563.348.823 1.738.578 3.089s-.037 2.205.461 1.897.847-2.117.775-4.02c-.126-3.358-1.087-4.433-2.263-2.53m9.121 5.635c.673 1.755.817 1.765 2.163.143.808-.974.606-1.326-.821-1.434q-1.893-.143-1.342 1.291m39.02 1.535c-.302 1.155-.939 1.86-1.414 1.566-.476-.294-1.519-.072-2.318.493-1.184.839-1.129.925.298.466.962-.31 1.75-.067 1.75.54s.9-.04 2-1.439c2.187-2.78 2.47-3.727 1.117-3.727-.486 0-1.131.945-1.433 2.101M840.5 646.976c-5.677.536-56.369.918-134.25 1.012-6.158.007-10.25.411-10.25 1.012 0 .55.337.947.75.882.413-.066 35.962-.066 79 0L854 650v82h-5.667c-7.227 0-6.603.613 1.275 1.251l6.108.496.668-15.624c.785-18.362.753-64.626-.047-67.873-.304-1.237-1.18-2.25-1.945-2.25s-1.392-.45-1.392-1c0-1.064-1.455-1.067-12.5-.024M700 684.965c0 31 .11 33.023 1.842 33.951 2.774 1.484 146.995 1.464 148.785-.021 1.114-.925 1.37-7.387 1.358-34.267-.01-21.758-.348-32.613-.985-31.628q-.969 1.5-.985.25c-.012-.989-15.69-1.25-75.015-1.25h-75zM152.426 674.5c.001 12.1.145 16.913.321 10.695s.175-16.118-.001-22c-.177-5.882-.321-.795-.32 11.305m5.147-20.618c-.925 1.497-.144 58.887.814 59.786.488.457 1.088.27 1.333-.418.246-.687 1.111-1.25 1.922-1.25.812 0 1.218-.418.902-.928s.298-1.204 1.362-1.542 3.633-2.17 5.71-4.072 4.181-3.458 4.678-3.458 2.165-1.35 3.706-3 3.341-3 4-3 2.459-1.35 4-3 3.522-3 4.401-3c.88 0 1.599-.45 1.599-1s1.35-1 3-1 3 .374 3 .831 1.238 1.47 2.75 2.25 3.943 2.656 5.401 4.169S209.341 698 210 698s2.459 1.35 4 3 3.522 3 4.401 3c.88 0 1.599.45 1.599 1 0 2.219 3.375.773 7-3 2.114-2.2 4.34-4 4.948-4s3.13-2.025 5.605-4.5 4.908-4.5 5.407-4.5 3.222-2.255 6.051-5.011 5.629-4.711 6.221-4.345c.64.395.787.196.363-.489-.403-.653-.132-1.155.625-1.155.736 0 1.987-.9 2.78-2s2.044-2 2.78-2 1.06-.45.72-1c-.884-1.43 4.093-1.246 6.737.25 1.215.688 3.414 2.487 4.887 4s3.17 2.75 3.771 2.75c.6 0 3.834 2.7 7.186 6s6.519 6 7.04 6 2.531 1.586 4.469 3.524 4.018 3.218 4.622 2.845c.659-.407.812-.217.383.476-.392.635-.207 1.155.411 1.155s3.232 2.138 5.809 4.75 5.907 5.38 7.401 6.151 2.48 1.783 2.191 2.25-.016.849.605.849c.622 0 1.81.679 2.64 1.509s1.923 1.254 2.429.941c1.747-1.08 1.161-62.143-.603-62.82-2.556-.981-164.296-.734-164.905.252m543.879 5.743c.339 5.675 1.47 7.421 4.432 6.843.889-.173 2.598-.349 3.799-.391 2.201-.078 2.82-1.153 3.745-6.514.737-4.269-.889-5.563-6.992-5.563h-5.319zm57.798-.129c-1.741 1.977-1.786 41.568-.05 43.304.77.77 4.711 1.2 11 1.2h9.8v4.571c0 7.661-1.045 7.429 33.429 7.429H844l.121-2.75c.316-7.158-.112-40.575-.525-40.987-.257-.258-5.222-.968-11.032-1.579L822 669.574v-4.359c0-7.396.789-7.22-32.179-7.177-24.038.031-29.546.294-30.571 1.458M216 664.883c0 .486-.9 1.119-2 1.407-1.1.287-2 1.24-2 2.116s-.45 1.594-1 1.594-1 2.045-1 4.545c0 4.525 3.136 9.455 6.014 9.455.607 0 .826.45.486 1-.378.611 1.156 1 3.941 1 2.507 0 4.559-.45 4.559-1s.482-1 1.071-1c1.594 0 3.929-2.633 3.929-4.429 0-.864.45-1.571 1-1.571s1-.873 1-1.941-.45-2.219-1-2.559-1-1.524-1-2.63c0-2.165-2.182-4.87-3.929-4.87-.589 0-1.071-.45-1.071-1s-2.025-1-4.5-1-4.5.398-4.5.883m485.848 5.367c-.166 2.443-.154 5.25.033 8 .074 1.09.967 1.776 2.369 1.818l2.25.067-2.296 1.106c-2.047.986-2.274 1.737-2.086 6.932l.21 5.827h4.408c2.486 0 5.03-.623 5.835-1.429 1.616-1.615 1.963-8.571.429-8.571-.55 0-1-1.35-1-3s.45-3 1-3c1.357 0 1.264-4.327-.161-7.453-1.657-3.637-10.749-3.883-10.991-.297m-247.598 6.275c-1.238 1.322-2.25 3.121-2.25 3.998s-.45 1.317-1 .977c-.567-.351-1 .49-1 1.941 0 1.407-.45 2.559-1 2.559s-1 .873-1 1.941-.45 2.219-1 2.559-1 1.716-1 3.059-.34 2.441-.757 2.441c-.745 0-3.243 6.958-3.243 9.034 0 .666 2.16.953 5.75.766 5.446-.284 5.735-.43 5.475-2.756-.151-1.351-.729-2.737-1.284-3.08-3.003-1.856.413-3.585 7.472-3.781 6.613-.184 7.401-.003 7.874 1.808.29 1.106.118 1.76-.38 1.451-.499-.308-.907-.065-.907.541 0 1.846-3.353 4.8-6 5.286-1.375.252 13.25.516 32.5.586l35 .128.296-7.704c.163-4.237.486-7.895.719-8.128s3.137-.406 6.453-.386c3.334.021 5.779-.365 5.471-.864-.307-.497 2.159-.901 5.502-.901 3.373 0 6.059.443 6.059 1 0 .55 1.548 1 3.441 1s3.719-.45 4.059-1c.948-1.534 2.5-1.187 2.5.559 0 .857.45 1.281 1 .941s1 .282 1 1.382.501 2.31 1.113 2.688c.69.426.944 2.73.668 6.059l-.446 5.371h8.333c8.272 0 8.332-.018 8.332-2.559 0-1.451-.433-2.292-1-1.941-.583.361-1-.656-1-2.441 0-1.682-.45-3.059-1-3.059s-1-1.152-1-2.559-.374-2.328-.832-2.045-1.438-1.716-2.18-4.441S573.27 682 572.819 682c-.45 0-.819-.707-.819-1.571 0-.865-.679-2.251-1.509-3.081s-1.254-1.923-.941-2.429c.322-.521-2.091-.919-5.568-.919h-6.135l.324 3.75.324 3.75-14.247.277-14.248.278V674l-36.75.061-36.75.061zM152.365 706.5c.003 5.5.171 7.622.373 4.716.203-2.905.201-7.405-.004-10s-.371-.216-.369 5.284m286.876 5.486c-1.863 2.982-1.707 26.691.188 28.585 1.189 1.19 7.989 1.429 40.633 1.429h39.205l2.365-2.75c2.042-2.373 2.366-3.799 2.367-10.405.001-7.25 2.598-15.499 5.251-16.678 3.931-1.748-4.588-2.167-44.009-2.167-43.575 0-44.793.053-46 1.986m127.793 3.419c2.375 4.327 2.966 6.623 2.966 11.513 0 6.166 1.063 9.222 4.232 12.173.952.887 1.44 1.904 1.083 2.261-.357.356 1.703.648 4.577.648 3.229 0 4.99-.382 4.608-1-.34-.55-.141-1 .441-1 1.753 0 1.406-26.796-.37-28.571-1.038-1.039-4.033-1.429-10.966-1.429h-9.537zm-120.784.301c-1.238.238-2.25.852-2.25 1.364 0 .539 7.564.93 18 .93 16.289 0 20.902-.672 16.418-2.393-1.749-.671-28.598-.589-32.168.099M152.328 726.5c.005 3.85.185 5.302.402 3.228.216-2.075.213-5.225-.008-7s-.398-.078-.394 3.772m299.922-4.815c-15.433.74-8.801 2.315 9.75 2.315 11.333 0 18-.37 18-1 0-.55-.113-1.008-.25-1.018-5.861-.426-21.332-.593-27.5-.297M444 729c0 .55 1.462 1.057 3.25 1.128s4.375.29 5.75.488c3.99.576 23.854.377 25.501-.255C482.899 728.674 478.19 728 462 728c-11.333 0-18 .37-18 1m251.692 1.641c-1.66 1.66 1.587 3.103 6.051 2.69 6.143-.568 6.786-1.331 1.124-1.331-2.457 0-4.925-.457-5.484-1.017s-1.32-.713-1.691-.342m98.076 2.084c1.797.222 4.497.218 6-.01 1.503-.229.032-.411-3.268-.405s-4.529.192-2.732.415m38.994-.018c1.244.239 3.044.23 4-.02s-.062-.446-2.262-.435-2.982.216-1.738.455M444 735.356c0 2.302 2.33 2.644 18 2.644 15.489 0 18-.352 18-2.525 0-1.028-3.883-1.336-18-1.429-14.995-.099-18 .119-18 1.31m250.418 5.114c-1.223 4.872.88 5.52 18.261 5.63 9.481.059 14.819.42 13.321.9-1.642.526.417.777 6 .732 8.307-.067 8.364-.083 2.5-.732-4.037-.447-.438-.696 11-.762 10.274-.059 16.209.243 15 .762-1.231.529 4.267.886 14.309.93 10.635.046 16.094-.278 15.691-.93-.408-.66 9.526-.936 29.191-.811 18.522.117 26.401.424 20.809.811l-9 .622 11.5.089c7.046.055 10.532-.22 9-.711-2.455-.786-2.445-.803.5-.908 2.199-.079 3.323-.803 4.209-2.712 2.589-5.579 5.61-5.38-81.619-5.38h-80.052zm-454.168 3.285-88.25.256v4.994c0 2.849.455 4.995 1.059 4.995.582 0 .781.45.441 1-.41.664 26.656 1 80.441 1 75.452 0 83.688-.257 80.059-2.5-1.476-.912-1.214-4.077.452-5.46 3.347-2.778 7.423 1.685 4.348 4.76-.933.933-.878 1.203.25 1.215 1.233.013 1.226.161-.05.985-1.064.687.19.974 4.309.985 3.622.009 5.576-.362 5.191-.985-.34-.55-.141-1 .441-1 1.195 0 1.489-9.705.309-10.191-.413-.17-40.462-.194-89-.054m478 3.934c.962.252 2.538.252 3.5 0 .962-.251.175-.457-1.75-.457s-2.712.206-1.75.457m92 0c.962.252 2.538.252 3.5 0 .962-.251.175-.457-1.75-.457s-2.712.206-1.75.457M762 758.58c0 4.081.337 7.447.75 7.479 8.579.675 19.491.886 22.043.427l3.292-.593-.292-7.196-.293-7.197-12.75-.17-12.75-.171zM238 762q0 2 2 2t2-2-2-2-2 2m5 .434c0 1.887-.617 2.527-2.75 2.85-2.56.387-2.525.427.5.566 2.978.137 3.25-.101 3.25-2.85 0-1.65-.225-3-.5-3s-.5 1.095-.5 2.434M888 867c0 .55-.702 1-1.559 1s-1.281.45-.941 1 .141 1-.441 1c-.725 0-1.059 11.195-1.059 35.545v35.546l2.455 2.454 2.454 2.455 29.296-.015c29.791-.016 33.409-.38 29.773-3.001-1.088-.784-1.978-2.028-1.978-2.764s-.45-1.06-1-.72c-.617.381-1-1.343-1-4.5s.383-4.881 1-4.5c.55.34 1-.084 1-.941 0-.877.85-1.559 1.941-1.559 1.068 0 2.219-.45 2.559-1 1.067-1.726 3.336-1.091 4.042 1.132.53 1.671.864 1.833 1.542.75.688-1.098 1.385-.826 3.391 1.324 3.017 3.234 3.254 6.827.579 8.755-1.071.772-1.719 1.771-1.441 2.221s-.379.818-1.46.818c-1.48 0-1.835.499-1.437 2.021.395 1.511.851 1.753 1.809.958.917-.761 1.395-.719 1.683.146.258.774 1.193.361 2.598-1.147 2.176-2.335 2.194-2.661 2.194-38.806 0-33.543-.14-36.558-1.75-37.78-2.194-1.665-74.25-2.046-74.25-.392m-240.75 5.689c.962.252 2.538.252 3.5 0 .962-.251.175-.457-1.75-.457s-2.712.206-1.75.457m8.518.036c1.797.222 4.497.218 6-.01 1.503-.229.032-.411-3.268-.405s-4.529.192-2.732.415m26.232-.162c3.568.788 10 .925 10 .213 0-.427-2.587-.724-5.75-.66s-5.075.265-4.25.447m69 .722c-.825.672-1.7 1.896-1.944 2.719-1.098 3.695-1.182 57.085-.095 60.378l1.135 3.439 15.952.129c9.458.076 15.952-.257 15.952-.818 0-.543-5.803-1-13.605-1.072-10.949-.102-13.913-.435-15.185-1.708-2.109-2.109-2.548-59.397-.46-60.099.688-.231 1.25-1.027 1.25-1.77s1.237-1.538 2.75-1.767c2.346-.355 2.235-.434-.75-.534-1.925-.065-4.175.431-5 1.103m11-.311c3.241 1.003 35.991.82 35.361-.199-.263-.426-8.89-.73-19.17-.675-10.475.056-17.592.44-16.191.874m-118.393 2.608c-.806 2.099-.769 2.418.276 2.418.486 0 1.119-.9 1.407-2 .617-2.362-.802-2.714-1.683-.418M691 875c-1.3.84-1.279.971.155.985 1.352.012 1.556.747 1.118 4.015-.402 2.995-.189 4 .845 4.001 1.038 0 1.296-1.245 1.035-5-.361-5.211-.671-5.605-3.153-4.001m-620.25 5.368c-1.513 1.3-2.75 2.91-2.75 3.577s-1.8 2.941-4 5.055-4 4.58-4 5.481-.45 1.359-1 1.019c-.581-.359-1 .629-1 2.358 0 1.636-.562 3.21-1.25 3.498-.687.287 30.109.513 68.437.501 75.525-.022 72.461.207 66.632-4.974-1-.89-1.819-2.061-1.819-2.602s-1.35-2.397-3-4.124-3-3.608-3-4.181c0-.574-1.56-2.603-3.467-4.509L177.067 878l-51.784.001-51.783.001zm181.5-1.118c.137.688-.312 1.138-1 1s-1.197.087-1.132.5c.315 1.993-.219 3.306-1.118 2.75-.55-.34-1 .084-1 .941s-.45 1.559-1 1.559-1 .702-1 1.559c0 .924-.47 1.268-1.155.846-.69-.427-.884-.276-.48.376.37.599-.433 2.196-1.785 3.548-2.617 2.617-2.428 3.671.658 3.671 2.111 0 4.762-2.227 4.762-4 0-.629.679-1.822 1.509-2.652s1.254-1.923.941-2.429c-.312-.505-.091-.919.491-.919s1.059-.702 1.059-1.559.45-1.281 1-.941c.583.361 1-.656 1-2.441 0-1.682-.45-3.059-1-3.059s-.887.563-.75 1.25M266 880c0 1.1.45 2 1 2s1-.9 1-2-.45-2-1-2-1 .9-1 2m13.25-.504c-.687.781-1.25 2.114-1.25 2.962s-.45 1.542-1 1.542-1 .927-1 2.059-.375 1.827-.833 1.544c-.459-.283-.881.028-.938.691-.364 4.184-.748 5.706-1.442 5.706-.433 0-.787.399-.787.887 0 1.141 14.935 1.465 55.25 1.197 12.055-.079 12.75-.193 12.75-2.084 0-1.1-.337-2.004-.75-2.008-.958-.01-3.25-4.903-3.251-6.941-.001-.853-1.066-2.788-2.367-4.301l-2.365-2.75-25.383.038c-20.637.031-25.618.304-26.634 1.458m64.75 1.108c0 1.364.9 3.446 2 4.626s2 2.737 2 3.459c0 .721.45 1.311 1 1.311s1 1.35 1 3c0 3.233 2.324 4.205 3.393 1.418.861-2.243.792-2.418-.952-2.418-.857 0-1.299-.421-.981-.935.318-.515-.338-2.567-1.457-4.56s-2.119-4.633-2.221-5.866c-.27-3.266-3.782-3.298-3.782-.035m14.431-.184c-.435 1.732.003 3.129 1.475 4.71 1.152 1.236 2.094 2.837 2.094 3.559 0 .721.34 1.311.756 1.311s1.353 1.35 2.084 3c1.037 2.344 1.965 3 4.244 3 3.364 0 3.614-.623 1.159-2.883-.966-.889-2.392-2.854-3.169-4.367-.776-1.513-1.786-2.75-2.243-2.75s-.831-.695-.831-1.545-1.114-2.66-2.476-4.022l-2.475-2.475zm441.271.254c.354 2.199.219 2.493-.608 1.326-.802-1.132-1.067-.087-1.079 4.25-.015 5.668.77 6.952 2.749 4.5 1.276-1.581.924-10.462-.47-11.856-.728-.728-.908-.187-.592 1.78m-535.717 3.576c-.013 1.819-.201 1.963-.985.75-.764-1.182-.973-.952-.985 1.083-.008 1.421-.352 2.921-.765 3.334-.413.412-.77 1.275-.795 1.916-.025.642-.588 1.055-1.25.917-.663-.138-1.205.2-1.205.75s.9 1 2 1 1.947-.337 1.882-.75c-.315-1.993.219-3.306 1.118-2.75.55.34 1-.084 1-.941s.45-1.559 1-1.559 1-1.35 1-3-.45-3-1-3-1.007 1.013-1.015 2.25M643.232 887c0 1.925.206 2.712.457 1.75.252-.962.252-2.538 0-3.5-.251-.962-.457-.175-.457 1.75m48.8.191c-.018 1.48.398 2.957.924 3.282s.675 1.325.33 2.223q-.628 1.635.544.909c1.623-1.003 1.463-4.835-.298-7.164-1.409-1.862-1.47-1.832-1.5.75M920.5 887c.352.569-.509 1-2 1s-2.352.431-2 1c.34.55-.032 1-.827 1-1.422 0-2.67 4.51-1.893 6.84.583 1.749 3.28 1.393 5.103-.673 1.829-2.073 5.616-3.296 7.713-2.492 2.566.985 1.641 5.912-1.587 8.462-1.645 1.3-2.995 3.151-3 4.113S921.55 908 921 908c-1.518 0-1.195 4.948.429 6.571 2.368 2.369 4.563 1.744 4.641-1.321.063-2.437.168-2.522.93-.75.752 1.751.868 1.645.93-.849.044-1.814 1.159-3.866 3.07-5.651 1.962-1.832 3.005-3.788 3.015-5.651.012-2.207.234-2.511.985-1.349.734 1.135.973.695.985-1.809.009-1.955-.394-3.056-.985-2.691-.55.34-1-.367-1-1.574 0-2.366-3.704-6.227-5.129-5.346-.479.296-.871.061-.871-.521S926.173 886 923.941 886c-2.451 0-3.814.396-3.441 1m-353.75 4.706c1.237.238 3.263.238 4.5 0 1.237-.239.225-.434-2.25-.434s-3.487.195-2.25.434m126.857 4.876c-.936 2.438-.719 5.418.393 5.418.55 0 1-1.575 1-3.5 0-3.795-.44-4.401-1.393-1.918m-440.845 4.125c1.244.239 3.044.23 4-.02s-.062-.446-2.262-.435-2.982.216-1.738.455m17.988.03c2.887.202 7.613.202 10.5 0s.525-.367-5.25-.367-8.137.165-5.25.367M359 901c-1.735.556-.204.81 5 .83 5.045.02 6.845-.252 5.5-.83-2.473-1.063-7.182-1.063-10.5 0m-305.75 4.455c-.842.984-1.25 5.191-1.25 12.886v11.426l2.75.595c1.513.327 9.95.778 18.75 1.001 9.558.242 13.182.122 9-.299-3.85-.387 14.825-.721 41.5-.742s46.7.314 44.5.745c-2.254.441 2.547.568 11 .291 8.25-.27 15.787-.717 16.75-.992 2.391-.684 2.644-22.615.288-24.971-1.736-1.736-43.538-2.011-43.538-.287 0 .597-.665.616-1.75.052-3.239-1.685-96.546-1.404-98 .295M235 905c1.213.784 1.069.972-.75.985-2.203.015-2.25.258-2.25 11.574 0 6.732.382 11.323.915 10.994.503-.311 1.103 0 1.335.691.324.969 5.741 1.202 23.74 1.018 22.383-.229 25.808-.533 23.323-2.069-.711-.439-1.135-4.278-1.146-10.362l-.017-9.664 17.675-.104c19.071-.113 26.682-.849 22.175-2.145-1.627-.468-.23-.704 4-.676 5.415.035 5.832.146 2.5.665-3.626.565-3.766.69-1.5 1.344 1.375.397 3.535.728 4.799.735 2.256.014 2.296.201 2.127 10.014-.095 5.5-.567 10-1.049 10s-.877.45-.877 1c0 .619 5.359 1 14.077 1h14.076l-.309-3.593c-.365-4.229 2.441-7.245 4.866-5.232 1.985 1.646 3.83-.388 2.503-2.759-1.934-3.456 4.585-6.218 7.587-3.216 2.956 2.956-.166 8.248-4.26 7.221-2.096-.526-2.351-.197-2.704 3.499l-.389 4.08h5.848c3.354 0 6.382-.535 7.102-1.254 1.372-1.372 1.46-18.445.116-22.496l-.746-2.25-72.134.015c-46.94.01-71.609.354-70.633.985m124.25.662c-.701.283-1.25 2.224-1.25 4.421 0 3.91-.008 3.917-4.041 3.917h-4.04l.236 4c.232 3.924.308 4 4.041 4 3.762 0 3.804-.044 3.804-3.94 0-3.83.104-3.948 3.75-4.25 3.256-.269 3.792-.672 4.066-3.06.174-1.513-.163-2.75-.75-2.75-.586 0-1.066-.675-1.066-1.5 0-1.461-2.23-1.855-4.75-.838m-228 3.585c-3.02.969-3.257 1.368-3.356 5.648-.172 7.498.215 10.356 1.588 11.73 1.506 1.506 30.518 1.744 30.518.251 0-.482.845-.876 1.879-.876 1.144 0 2.364-1.172 3.121-3 1.463-3.532 2.066-3.683 4-1 1.096 1.52 2.589 2 6.221 2 4.539 0 4.781-.138 4.811-2.75.029-2.488.157-2.585 1.349-1.016.724.954 1.61 1.442 1.968 1.084s.651.099.651 1.015c0 2.548 8.125 2.685 10.63.18 1.575-1.575 1.917-8.969.37-8.013-.55.34-1-.084-1-.941 0-2.973-8.829-2.069-11.632 1.191-1.847 2.147-2.366 2.371-2.367 1.023-.003-4.514-8.024-5.85-12.251-2.04-1.496 1.348-1.75 1.363-1.75.102 0-.811-1.128-2.455-2.508-3.655-2.32-2.017-3.496-2.172-15.75-2.078-7.283.056-14.705.571-16.492 1.145M199.232 911c0 1.925.206 2.712.457 1.75.252-.962.252-2.538 0-3.5-.251-.962-.457-.175-.457 1.75m137.968-1.8c-2.377 2.377-1.485 6.8 1.371 6.8 4.512 0 6.117-2.638 3.379-5.553-2.62-2.789-3.086-2.911-4.75-1.247m-196.45.537c2.887.202 7.613.202 10.5 0s.525-.367-5.25-.367-8.137.165-5.25.367m-81.413 1.671A179 179 0 0 1 56 913.01c-2.009.93-2.436 4.524-.961 8.085L56.243 924h15.878c11.684 0 15.879.317 15.879 1.2 0 .933.267.933 1.2 0 1.513-1.513 22.232-1.708 21.3-.2-.876 1.417.839 1.242 2.447-.25 1.077-1 1.205-1 .641 0-.465.824-.004 1.25 1.353 1.25 1.132 0 2.059-.45 2.059-1s1.382-1 3.071-1c4.036 0 5.929-2.046 5.929-6.406 0-6.849-1.212-7.094-35.121-7.094-16.338 0-30.532.408-31.542.908m179.913 2.088c-1.689 1.919-1.583 7.314.179 9.075.785.786 2.842 1.429 4.571 1.429 3.993 0 6-2.007 6-6 0-1.729-.643-3.786-1.429-4.571-1.826-1.827-7.691-1.785-9.321.067M252 918c0 1.667.667 2 4 2s4-.333 4-2-.667-2-4-2-4 .333-4 2m9.481-.969c-1.093 1.769.97 3.16 4.147 2.797 4.02-.459 3.803-3.238-.284-3.634-1.736-.169-3.474.208-3.863.837m660.09 1.54c-3.324 3.325-.136 9.156 3.304 6.042.983-.89 2.013-1.391 2.289-1.115s.507-.286.512-1.248-.889-2.538-1.986-3.5c-2.414-2.117-2.19-2.107-4.119-.179m-583.821 1.118c-2.145.561-2.346 4.858-.321 6.882 1.615 1.616 5.023 1.969 4.067.422-.343-.554.081-1.277.941-1.607 2.679-1.028.454-6.725-2.437-6.238-.275.046-1.288.29-2.25.541m-51.293 9.242c.64 1.034 13.543 1.35 13.543.331 0-.419-3.16-.848-7.022-.952-3.862-.105-6.797.175-6.521.621m17.543.155c0 .524 1.18.739 2.623.478 3.734-.678 3.899-1.245.391-1.345-1.658-.047-3.014.343-3.014.867m388 1.831c0 .504.558 1.102 1.241 1.33.891.297.748.907-.509 2.164-.963.963-1.495 2.164-1.182 2.67.332.537-3.824.919-9.991.919-6.685 0-10.559.384-10.559 1.046 0 1.512 22.627 1.108 22.787-.406.066-.627.403-2.827.748-4.89.505-3.017.319-3.75-.953-3.75-.87 0-1.582.413-1.582.917m-567.238.79c1.244.239 3.044.23 4-.02s-.062-.446-2.262-.435-2.982.216-1.738.455m152.988-.001c1.238.238 3.262.238 4.5 0 1.238-.239.225-.434-2.25-.434s-3.488.195-2.25.434m31.012.001c1.244.239 3.044.23 4-.02s-.062-.446-2.262-.435-2.982.216-1.738.455m22.488.035c3.712.192 9.788.192 13.5 0 3.712-.193.675-.35-6.75-.35s-10.462.157-6.75.35m623.479-.138c-.401.401-.729 1.554-.729 2.563 0 2.395-1.202 2.328-3-.167-1.987-2.757-3.001-2.503-2.992.75.01 3.513 4.374 6.011 6.604 3.78.764-.763 1.388-1.896 1.388-2.518 0-.638.544-.803 1.25-.379.954.573.986.409.134-.691-.613-.793-1.298-2.033-1.521-2.754s-.733-.985-1.134-.584M798 937c0 .55-2.25 1-5 1s-5 .45-5 1c0 1.557 8.949 1.194 10.571-.429 1.676-1.675 1.825-2.571.429-2.571-.55 0-1 .45-1 1m-132 2c-2.369.759-2.329.806.75.9 1.788.055 3.25-.35 3.25-.9 0-1.13-.471-1.13-4 0m117.5 0c-.34.55.335 1 1.5 1s1.84-.45 1.5-1-1.015-1-1.5-1-1.16.45-1.5 1m-100.75 2.706c1.237.238 3.263.238 4.5 0 1.237-.239.225-.434-2.25-.434s-3.487.195-2.25.434m79.514.012c1.52.229 3.77.223 5-.014s-.014-.425-2.764-.418-3.756.202-2.236.432"/></svg>