<svg xmlns="http://www.w3.org/2000/svg" viewBox="0 0 1024 1024"><path fill="#00e5cc" d="M423.958 186.944c-1.398.424-6.669.862-11.713.973-5.045.111-10.426.558-11.959.994s-6.611.862-11.286.947c-23.062.418-41.211 2.954-43.718 6.109-1.519 1.912-1.684 107.192-.291 186.533.511 29.15.985 114.066 1.053 188.702l.123 135.702-2.083 2.237c-1.146 1.23-2.084 2.62-2.084 3.089 0 .47-.9 1.82-2 3-1.1 1.181-2 2.737-2 3.459 0 .721-.374 1.311-.831 1.311s-1.47 1.231-2.25 2.736-2.19 3.642-3.132 4.75-1.7 2.386-1.684 2.84c.015.454-.873 1.607-1.975 2.563s-2.144 2.353-2.316 3.104c-.171.752-1.083 2.299-2.025 3.437-.942 1.139-1.822 2.52-1.955 3.07-.132.55-1.305 2.063-2.604 3.363-2.402 2.402-4.228 6.14-4.228 8.657 0 1.799 4.869 6.679 5.979 5.993.468-.289 1.001-.106 1.186.406.184.512.999 1.077 1.811 1.256s2.086.892 2.831 1.584 1.768 1.004 2.274.691c.505-.312.919-.091.919.491s.632 1.059 1.405 1.059c1.666 0 9.948 4.17 10.428 5.25.184.412 1.196.75 2.25.75s1.917.45 1.917 1 .553 1 1.229 1 11.318 5.025 23.65 11.167 23.029 11.166 23.771 11.166 1.35.326 1.35.724c0 .721 7.791 4.682 10.189 5.181.695.144 1.873.829 2.618 1.521.745.693 1.73 1.027 2.188.744.459-.284.985-.096 1.17.416s.999 1.077 1.811 1.256 2.086.892 2.831 1.584 1.73 1.027 2.188.744c.459-.284.985-.096 1.17.416s.999 1.077 1.811 1.256 2.086.892 2.831 1.584 1.768 1.004 2.274.691c.505-.312.919-.091.919.491s.862 1.059 1.917 1.059c1.054 0 2.066.416 2.25.925.183.509.997 1.071 1.809 1.25s2.086.892 2.831 1.584 1.768 1.004 2.274.691c.505-.312.919-.091.919.491s.9 1.059 2 1.059 2 .45 2 1 .585 1 1.301 1c1.839 0 6.682 2.352 6.691 3.25.004.413.908.75 2.008.75s2 .45 2 1 .9 1 2 1 2 .45 2 1 .9 1 2 1 2 .45 2 1 .9 1 2 1 2 .45 2 1 .873 1 1.941 1 2.219.45 2.559 1c.725 1.174 10.157 1.363 10.865.219.266-.43 1.972-.895 3.793-1.034 1.82-.139 3.744-.687 4.276-1.219.531-.531 2.424-.966 4.207-.966s3.519-.45 3.859-1 2.14-1 4-1 3.66-.45 4-1 2.391-1 4.559-1 3.941-.45 3.941-1 1.5-1 3.333-1 3.651-.317 4.038-.704c.388-.388 1.89-.864 3.34-1.058s3.427-.777 4.396-1.295c2.592-1.388 7.595-1.148 10.816.517 1.553.803 3.105 1.178 3.45.833.345-.344.627-.101.627.54 0 .642.661 1.167 1.47 1.167s3.15.944 5.204 2.098c4.137 2.323 5.951 2.153 22.326-2.098 1.925-.5 5.413-1.379 7.75-1.954s5.938-1.475 8-2c12.006-3.056 19.515-4.846 23.75-5.665 1.65-.318 3.758-.985 4.684-1.48.927-.496 2.646-.901 3.822-.901 3.423 0 6.994-4.688 6.994-9.184.001-2.116.885-2.521 10.25-4.688 5.638-1.305 11.6-2.737 13.25-3.183s5.025-1.325 7.5-1.955 8.775-2.426 14-3.99 11.525-3.359 14-3.99c2.475-.63 5.882-1.565 7.571-2.078s3.805-.932 4.703-.932c4.69 0 6.726-2.167 6.726-7.161 0-2.661-.45-4.839-1-4.839s-1-.621-1-1.379c0-.759-1.8-3.234-3.999-5.501-2.2-2.267-4.017-4.458-4.037-4.871-.021-.412-.921-1.765-2.001-3.007-1.08-1.241-1.963-2.637-1.963-3.101 0-.465-1.35-2.257-3-3.984s-3-3.483-3-3.903c0-.421-1.799-2.675-3.998-5.009s-3.684-4.245-3.3-4.245.214-.484-.376-1.074c-.763-.763-.925-67.193-.557-228.957.481-211.541.399-228.064-1.148-230.425-.917-1.399-2.294-2.544-3.061-2.544s-1.543-.395-1.727-.877c-.183-.483-2.358-1.166-4.833-1.518s-6.75-1.078-9.5-1.612c-2.75-.535-7.376-1.266-10.279-1.625-2.904-.36-5.518-1.04-5.809-1.511s-2.282-.857-4.424-.857-5.04-.522-6.441-1.161l-2.547-1.16-.032-20.09c-.035-22.442-.333-23.589-6.128-23.589-1.892 0-3.868-.41-4.39-.912-.523-.502-3.425-1.144-6.45-1.428s-7.975-.994-11-1.579a602 602 0 0 0-12-2.151c-3.575-.599-8.975-1.519-12-2.044a537 537 0 0 0-11-1.764c-3.025-.445-6.175-1.08-7-1.41-1.862-.745-7.783-1.667-15-2.335-3.025-.279-6.4-.907-7.5-1.394-1.1-.488-4.25-1.121-7-1.408-11.713-1.221-15.111-1.727-17-2.528-1.1-.467-5.15-1.346-9-1.954s-8.575-1.371-10.5-1.695c-10.084-1.698-16.038-2.547-21-2.993-3.025-.272-6.4-.899-7.5-1.393-1.941-.872-5.628-1.484-16-2.654-2.75-.31-5.464-.941-6.031-1.401s-3.403-.946-6.303-1.079c-2.899-.132-5.5-.609-5.778-1.059-.61-.987-3.954-.931-7.43.125m-2.526 5.946c.302.489 2.016 1.122 3.809 1.408 3.032.482 5.669.93 13.259 2.249 1.65.287 5.475.782 8.5 1.1 3.025.317 5.928.977 6.45 1.465s3.11.888 5.75.888 4.8.408 4.8.907 2.363 1.156 5.25 1.459 8.175.985 11.75 1.515a792 792 0 0 0 11.5 1.615c2.75.357 5.9 1.044 7 1.525s4.025 1.106 6.5 1.39 7.2.951 10.5 1.484 8.025 1.242 10.5 1.575 5.4.859 6.5 1.169 4.25.927 7 1.37 7.925 1.323 11.5 1.956c6.283 1.112 14.641 2.382 24 3.646 2.475.335 4.95.934 5.5 1.331.55.398 3.209.837 5.909.976s5.992.664 7.315 1.167c2.539.966 15.994 1.3 15.069.375-.747-.747-14.038-3.231-28.793-5.38-3.575-.521-9.2-1.472-12.5-2.114-14.616-2.842-20.672-3.909-33.25-5.856-3.163-.49-7.1-1.167-8.75-1.504s-5.925-1.083-9.5-1.658c-3.575-.576-8.419-1.474-10.764-1.997-2.346-.523-6.058-.951-8.25-.951s-3.986-.45-3.986-1-2.385-1-5.3-1-5.728-.409-6.25-.908c-.933-.891-5.792-1.615-18.2-2.711-3.437-.303-6.25-.883-6.25-1.288 0-.404-2.335-.842-5.189-.972-2.855-.131-5.667-.532-6.25-.893s-3.041-.805-5.462-.987c-2.42-.183-5.203-.762-6.184-1.287-2.252-1.205-14.224-1.263-13.483-.064M400 194.822c0 .937 1.569 1.274 12.75 2.743 2.887.379 5.25.998 5.25 1.375 0 .378 2.109.795 4.686.929 2.577.133 5.164.545 5.75.914 1.069.675 8.764 1.871 18.064 2.809 2.75.278 5.9.903 7 1.391 1.1.487 4.475 1.131 7.5 1.43s7.975 1.03 11 1.624 7.525 1.303 10 1.574 5.4.898 6.5 1.393 4.25 1.126 7 1.404c2.75.277 7.813.974 11.25 1.548 14.056 2.348 18.943 3.128 22.75 3.63 2.2.29 4.9.928 6 1.419 1.1.49 4.025 1.114 6.5 1.388 4.266.471 6.877.869 23.5 3.578 11.372 1.853 19.5 2.38 19.5 1.264 0-.969-2.486-1.654-10-2.756-4.368-.641-13.527-2.205-17.5-2.989-1.65-.326-5.25-.845-8-1.154s-5.675-.884-6.5-1.276c-.825-.393-3.524-.835-5.998-.982s-4.864-.493-5.312-.769c-.447-.277-2.248-.69-4.001-.919a129 129 0 0 1-6.189-.988c-1.65-.314-4.575-.79-6.5-1.057s-5.075-.901-7-1.409c-1.925-.509-5.161-.927-7.191-.93s-3.916-.371-4.192-.816c-.275-.446-2.635-.921-5.244-1.056s-5.223-.544-5.809-.91c-1.018-.635-5.166-1.341-16.064-2.732-2.75-.351-5.9-1.035-7-1.52s-4.475-1.107-7.5-1.382c-9.148-.832-14.395-1.657-16.5-2.595-1.1-.49-4.025-1.113-6.5-1.384-13.22-1.45-15.71-1.797-18-2.503-3.812-1.177-14-1.384-14-.286m-25 2.139c.825.554 2.956 1.015 4.736 1.024 1.779.008 5.154.469 7.5 1.025 4.703 1.113 19.998 3.783 26.264 4.584 2.2.281 4.9.903 6 1.381 1.1.479 4.475 1.141 7.5 1.472s7.975 1.064 11 1.629 8.2 1.407 11.5 1.871 8.925 1.36 12.5 1.992 9.2 1.583 12.5 2.114c3.3.532 8.475 1.429 11.5 1.996 12.733 2.384 26.879 4.722 33.5 5.538 3.451.426 6.712.985 8.5 1.458 11.445 3.027 36.799 6.057 35.692 4.265-.331-.535-3.884-1.534-7.897-2.221-4.012-.687-8.195-1.487-9.295-1.777-1.1-.291-4.587-.93-7.75-1.42-20.76-3.22-21.86-3.409-37.25-6.41-1.65-.321-5.25-.84-8-1.151s-5.225-.919-5.5-1.349-3.2-1.007-6.5-1.282c-8.275-.691-14.468-1.646-17.899-2.759-1.595-.518-4.857-.941-7.25-.941s-4.351-.45-4.351-1c0-.556-2.667-1-6-1-3.3 0-6-.366-6-.813s-2.101-.922-4.668-1.055-5.38-.593-6.25-1.022-3.828-.895-6.574-1.036c-2.745-.14-5.347-.475-5.782-.744-.435-.268-3.139-.709-6.009-.978-2.869-.27-5.892-.736-6.717-1.037s-3.3-.769-5.5-1.042-4.675-.839-5.5-1.258c-2.385-1.211-19.798-1.263-18-.054M350.17 308.25c.102 60.638.501 126.45.886 146.25s.786 81.699.892 137.554c.105 55.854.526 102.095.935 102.757.525.849 1.387.464 2.927-1.307 1.2-1.381 2.08-2.622 1.954-2.757-.372-.403 2.601-4.142 4.438-5.579 1.598-1.252 7.918-.073 9.798 1.827.275.278 1.154.648 1.954.823s4.175 1.582 7.5 3.127 7.621 3.401 9.546 4.125 4.976 2.129 6.78 3.123 3.942 1.807 4.75 1.807c.809 0 1.47.477 1.47 1.059s.372.829.827.548 3.005.593 5.669 1.941 5.442 2.452 6.173 2.452c.732 0 1.331.45 1.331 1s.788 1.014 1.75 1.031c.962.018 4.439 1.368 7.725 3 3.286 1.633 6.548 2.969 7.25 2.969.701 0 1.275.375 1.275.833 0 .459.563.838 1.25.844.688.005 3.247.98 5.688 2.166 2.441 1.187 5.028 2.157 5.75 2.157s1.312.477 1.312 1.059.414.803.919.491 1.519-.002 2.25.691c.732.692 2.155 1.4 3.162 1.571 1.006.172 3.383 1.185 5.28 2.25 1.897 1.066 4.111 1.938 4.919 1.938.809 0 1.47.45 1.47 1s.697 1 1.548 1 3.411.9 5.688 2 4.73 2 5.452 2 1.312.477 1.312 1.059.372.829.827.548 3.005.593 5.669 1.941 5.442 2.452 6.173 2.452c.732 0 1.331.375 1.331.833 0 .459.563.834 1.25.835s4.168 1.426 7.735 3.167 7.054 3.165 7.75 3.165 1.265.45 1.265 1 .337.888.75.751c1.174-.391 13.091 5.19 13.966 6.54.431.665 1.009 13.564 1.284 28.666l.5 27.456 5 2.703c2.75 1.487 5.788 2.744 6.75 2.793.962.05 1.75.541 1.75 1.091s.9 1 2 1 2 .398 2 .883c0 .486 1.013 1.103 2.25 1.372 1.237.268 3.038.819 4 1.223 1.664.7 1.75-13.746 1.75-295.266V232.21l-4.25-.608c-2.337-.334-6.837-.885-10-1.225-3.163-.339-5.75-1.013-5.75-1.497s-2.385-.88-5.3-.88-5.728-.409-6.25-.908-3.2-1.15-5.95-1.446-7.7-1.013-11-1.593-8.25-1.336-11-1.68-5.45-.944-6-1.332-3.209-.82-5.909-.959-5.992-.664-7.315-1.167-4.402-.915-6.841-.915-4.435-.366-4.435-.813-1.98-.916-4.399-1.041-5.904-.659-7.743-1.187c-1.84-.527-5.009-.959-7.042-.959-2.034 0-3.923-.365-4.199-.81s-2.627-.92-5.227-1.055c-2.599-.134-5.438-.596-6.308-1.025s-3.832-.889-6.582-1.022c-2.75-.134-5.427-.658-5.95-1.165-.522-.508-3.245-.923-6.05-.923s-5.528-.409-6.05-.908-3.2-1.15-5.95-1.446-7.7-1.02-11-1.61c-3.3-.589-8.7-1.342-12-1.672-3.3-.331-6.45-.918-7-1.306s-2.926-.82-5.281-.961c-2.355-.14-5.727-.669-7.493-1.176s-4.232-.921-5.478-.921h-2.265zm266.421-80.94c-1.294.946-1.94 3.163-2.328 8-.707 8.81-2.263 8.597-2.263-.31v-7h-10v5c0 4.889.067 5 3 5 2.333 0 3 .444 3 2s-.667 2-3 2h-3v19c0 18.333-.07 19-2 19s-2-.667-2-19.125V241.75l-3.125.625c-1.719.344-3.969.625-5 .625-1.766 0-1.875 1.076-1.875 18.441 0 10.844-.4 18.688-.971 19.041-1.122.694-2.133-2.84-1.854-6.482.105-1.375.109-8.687.008-16.25L585 244h-3.573c-4.59 0-4.521-3.204.085-4.002 2.797-.485 2.988-.805 2.988-5.008 0-4.264-.151-4.503-3-4.751-4.846-.42-5.488.647-5.755 9.563-.21 7.024-.492 8.179-1.995 8.188-1.522.009-1.75-1.034-1.75-7.99v-8h-12v592h2.941c1.618 0 3.219-.45 3.559-1s1.716-1 3.059-1H572V548c0-242.889.17-274 1.5-274s1.5 31 1.5 273v273l3.25-.015c6.273-.03 6.22.154 6.556-22.947.255-17.529.547-21.038 1.75-21.038 1.213 0 1.444 3.377 1.444 21.107 0 19.72.115 21.058 1.75 20.359.962-.412 2.993-.962 4.512-1.223 1.519-.26 2.932-.759 3.139-1.108.208-.349.54-19.535.738-42.635.199-23.1.607-42.225.908-42.5s.281-7.25-.043-15.5-.393-29.4-.154-47c.537-39.455.504-35.383.423-51.5-.037-7.425-.073-15.075-.08-17s-.343-16.437-.746-32.25l-.733-28.75H602v276h2.301c1.265 0 3.511-.563 4.992-1.25l2.691-1.25.008-22.333c.006-17.209.29-22.24 1.236-21.924 1.462.487 1.387-.614 1.601 23.507L615 810h4.393c3.204 0 4.615-.474 5.214-1.75.911-1.94 1.822-576.404.921-579.996-.659-2.626-5.883-3.178-8.937-.944m-26.393 2.403c-2.066.395-2.271.917-2 5.113.297 4.599.358 4.675 3.802 4.759 5.49.132 6-.351 6-5.692 0-5.278-.543-5.569-7.802-4.18m15.409 19.869c-.836 2.179-.768 10.913.078 10.066.377-.377.94-2.589 1.25-4.917l.565-4.231 5.25-.302 5.25-.303v7.053c0 4.035.428 7.052 1 7.052.583 0 1-3.333 1-8v-8h-6.893c-5.363 0-7.028.351-7.5 1.582m-24.94 8.085c-1.054 1.053-.776 6.333.333 6.333.55 0 1-1.575 1-3.5 0-3.597-.182-3.984-1.333-2.833M612 262c0 1.1.45 2 1 2s1-.9 1-2-.45-2-1-2-1 .9-1 2m-6.241 1.517c.538 2.819 4.168 3.246 5.042.594.29-.879.02-1.119-.734-.652-.656.405-2.005.002-2.998-.897-1.702-1.539-1.777-1.485-1.31.955M568 264.571c0 1.063 3.091 3.672 3.667 3.096.314-.315-.125-1.268-.977-2.119-1.587-1.588-2.69-1.988-2.69-.977m44 161.512c0 124.423.254 155.999 1.25 155.667 1.342-.447 2.502-292.56 1.213-305.5-2.035-20.44-2.463 5.567-2.463 149.833m18.195-151.333c.301 4.683.354 4.751 3.805 4.844 1.925.051 3.95-.233 4.5-.632s4.932-.922 9.737-1.163c15.18-.763 13.302-2.805-5.01-5.448-2.35-.339-4.514-1.007-4.809-1.484s-2.334-.867-4.532-.867h-3.996zm29.359 6.029c-.262.263-4.657.886-9.765 1.386s-11.651 1.159-14.539 1.464l-5.25.556-.192 213.658c-.106 117.511-.243 217.707-.305 222.657-.259 20.839-.655 70.213-.582 72.75.088 3.066 2.616 3.606 8.508 1.818 5.683-1.725 11.054-3.032 13.571-3.301 1.375-.147 2.725-.559 3-.917.275-.357 2.075-.784 4-.948s3.98-.645 4.566-1.07c.587-.425 2.519-.883 4.294-1.018s4.107-1.066 5.183-2.069c1.933-1.8 1.957-4.969 1.957-253.837V279.894l-6.984.204c-3.842.112-7.2.419-7.462.681m-69.104 6.136c-.522.504-2.075 1.066-3.45 1.25l-2.5.335-.254 121.939c-.202 96.89.004 122.102 1 122.734C587.062 534.326 596 534.182 596 533c0-.55.337-.947.75-.882.413.066 1.763.066 3 0L602 532V410.429c0-104.029-.206-121.778-1.429-123-1.586-1.587-8.636-1.944-10.121-.514m2.296 2.89-4.754.305.254 120.175.254 120.176 4.5-.321c2.475-.177 4.598-.416 4.717-.531.404-.39.586-239.64.183-239.876-.22-.128-2.539-.096-5.154.072m51.004 51.587c-1.655 1.256-1.75 10.865-1.75 176.968 0 180.253-.037 178.344 3.417 174.89.412-.413 1.162-.806 1.666-.875s1.367-.181 1.917-.25c.662-.083 1-59.542 1-176.125V340l-2.25.032c-1.237.017-3.038.629-4 1.36M654 515.611v175.612l3.75-.701c2.063-.385 3.886-.834 4.052-.997.607-.595 1.203-344.656.602-347.053-.527-2.1-1.207-2.472-4.512-2.472H654zm3.25-173.903c-.993.365-1.25 35.953-1.25 173.375 0 172.25.008 172.917 2 172.917 2.171 0 2.085 11.277 2.221-291.328.013-29.605-.369-54.186-.849-54.625-.479-.438-1.434-.591-2.122-.339m-12.562 1.938c-.971.971-.862 346.129.11 346.729 3.152 1.948 3.186-.1 2.944-173.845-.235-167.902-.37-175.568-3.054-172.884M376 429.331c0 .953.563 1.89 1.25 2.082.688.193 3.163.854 5.5 1.469a528 528 0 0 1 8 2.182c2.063.585 4.425 1.192 5.25 1.349s2.175.514 3 .795c5.644 1.918 8.86 2.792 10.274 2.792 5.468 0 6.726 1.908 6.726 10.204 0 6.954-.206 7.849-1.75 7.59-.962-.162-1.989-.611-2.281-.998-.291-.387-2.204-.817-4.25-.954-2.045-.138-3.719-.609-3.719-1.046s-1.131-.796-2.514-.796-3.295-.395-4.25-.877c-2.889-1.46-8.746-3.123-10.998-3.123-1.166 0-2.398-.45-2.738-1s-2.166-1-4.059-1H376v10c0 6 .4 10 1 10 .588 0 1-3.494 1-8.481v-8.481l4.75.635c2.613.349 4.975.953 5.25 1.343.471.667 3.185 1.333 10.759 2.642 1.793.31 3.507.963 3.809 1.452.303.49 2.098.89 3.991.89s3.441.45 3.441 1 1.815 1 4.034 1h4.034l-.284-10.75-.284-10.75-3-.285c-1.65-.157-3.9-.71-5-1.228s-3.125-1.108-4.5-1.311-3.175-.599-4-.881c-6.206-2.121-9.058-2.795-11.821-2.795-1.748 0-3.179-.45-3.179-1s-1.71-1-3.8-1-4.34-.54-5-1.2c-.933-.933-1.2-.815-1.2.531m64 35.776c0 17.82-.118 19.056-1.75 18.348-.962-.418-3.217-.966-5.009-1.218s-3.507-.858-3.809-1.347c-.303-.49-2.098-.89-3.991-.89s-3.441-.45-3.441-1-.9-1-2-1c-3.652 0-.938 3.666 3.128 4.225 1.305.179 2.872.64 3.484 1.024.611.384 2.524.806 4.25.937 1.726.132 3.138.544 3.138.917 0 .969 6.806 1.635 8.159.799.787-.486 1.074-6.092.94-18.336l-.193-17.635 3.547.239c1.951.131 3.547.548 3.547.925s1.688.978 3.75 1.334c9.874 1.706 11.023 1.746 11.793.415.428-.739.423-1.024-.009-.634-.433.391-2.01.078-3.504-.695s-3.8-1.553-5.124-1.735-2.906-.645-3.518-1.029-2.524-.806-4.25-.937c-1.726-.132-3.138-.594-3.138-1.027s-1.35-.787-3-.787h-3zm32-9.576c0 1.649 1.078 2.234 5 2.714 1.375.168 3 .62 3.612 1.004.611.384 2.524.806 4.25.937 1.726.132 3.138.594 3.138 1.027s1.581.787 3.514.787 4.295.406 5.25.903c1.716.892 8.332 2.959 11.236 3.51.825.157 2.175.54 3 .852.825.313 2.737.839 4.25 1.171 2.716.595 2.75.7 2.75 8.466 0 7.024-.214 7.921-2 8.388-1.1.287-2 .115-2-.384 0-.498-1.155-.906-2.566-.906s-3.358-.424-4.327-.943-2.851-1.124-4.184-1.346-3.098-.634-3.923-.916c-6.036-2.062-8.988-2.795-11.262-2.795-1.441 0-2.867-.4-3.17-.89-.302-.489-2.016-1.132-3.809-1.428-1.792-.297-4.497-.849-6.009-1.227l-2.75-.688v10.956c0 11.82.775 13.277 7.061 13.277 1.081 0 2.748.406 3.703.903 1.716.892 8.332 2.959 11.236 3.51.825.157 2.175.514 3 .795 5.859 1.991 8.905 2.792 10.621 2.792 1.088 0 2.406.411 2.929.914s2.3 1.048 3.95 1.212 3.563.708 4.25 1.209c.893.65 1.25.304 1.25-1.213 0-1.932-1.945-2.762-5.25-2.24-.413.065-.75-.332-.75-.882s-1.155-1-2.566-1-3.412-.453-4.447-1.007c-1.034-.554-3.03-1.102-4.434-1.218s-2.553-.514-2.553-.884-1.462-.925-3.25-1.234c-7.776-1.345-10.283-1.984-10.781-2.749-.291-.449-2.204-.929-4.25-1.066-2.045-.138-3.719-.609-3.719-1.046s-.9-.796-2-.796c-1.835 0-2-.667-2-8.077v-8.076l3.75.281c2.063.155 4.425.596 5.25.979 1.628.757 8.579 2.846 11 3.306.825.157 2.175.564 3 .905s2.625.758 4 .927c1.375.168 2.95.586 3.5.93.55.343 2.35.78 4 .971s3.225.641 3.5 1 2.075.811 4 1.004l3.5.35.283-11.25c.269-10.702.184-11.256-1.75-11.375-2.182-.134-2.714-.25-5.033-1.093-.825-.301-3.413-1.049-5.75-1.664a531 531 0 0 1-8-2.182c-2.062-.585-4.425-1.192-5.25-1.349a25 25 0 0 1-3-.818c-.825-.293-3.525-1.067-6-1.719s-5.882-1.605-7.571-2.118c-4.276-1.298-5.429-1.171-5.429.599m113.315 84.719c-.441.688-.815 10.666-.831 22.174-.025 17.566-.267 20.998-1.507 21.381-5.096 1.574-4.978.532-4.969 43.6l.008 40.095 2.491 1.156c1.433.664 2.729.771 3.051.25.308-.498 2.333-.906 4.501-.906s3.941-.477 3.941-1.059.408-.807.906-.499c1.601.989 1.966-8.212 1.684-42.442-.364-44.233.016-40-3.59-40h-3v-22.5c0-21.14-.453-24.726-2.685-21.25m21.352 44.417c-.367.366-.667 6.216-.667 13 0 11.067.18 12.336 1.75 12.365 1.667.03 1.667.095 0 1.36-1.472 1.117-1.75 3.002-1.75 11.852 0 10.025.106 10.558 2.25 11.266l2.25.744-2.25.443c-2.189.43-2.25.778-2.25 12.904 0 13.53.326 14.287 5.588 12.966 3.05-.765 7.768-5.182 6.95-6.506-.314-.508-.113-1.205.446-1.551 2.27-1.403 1.18-13.816-1.485-16.916-2.699-3.138-3.146-4.112-1.387-3.025 1.974 1.22 2.857-1.891 2.859-10.069.002-10.635-.54-12.311-4.338-13.412-2.426-.703-2.634-.928-.922-.998 4.442-.181 6.292-3.737 6.257-12.029-.033-7.85-1.289-11.061-4.328-11.061-.902 0-1.64-.45-1.64-1 0-1.106-6.275-1.392-7.333-.333m-25.358 2.583c-.954 1.475-1.301 69.893-.382 75.445.619 3.74.697 3.799 4.601 3.456 6.801-.596 6.472 1.501 6.472-41.273V586h-4.941c-2.855 0-5.282.528-5.75 1.25m27.376.5c-1.227 2.128-.72 17.976.611 19.081 2.852 2.366 6.64 1.03 7.317-2.583.982-5.234-.054-15.282-1.683-16.312-1.74-1.102-5.649-1.218-6.245-.186m.515 25.45c-1.676 1.676-1.615 17.559.074 19.121 2.023 1.872 3.832 1.893 5.851.066 2.819-2.552 2.772-17.836-.059-19.352-2.542-1.36-4.393-1.308-5.866.165m-.118 26.201c-.744.897-1.058 4.586-.872 10.25l.29 8.849 3.447-.281c1.896-.154 3.643-.475 3.881-.714.809-.809 1.433-14.328.782-16.925-.739-2.942-5.452-3.68-7.528-1.179m-24.153 34.849c-.039 1.237-.282 3.983-.539 6.101s.04 4.462.66 5.209c.892 1.075.537 1.505-1.702 2.067-5.501 1.381-5.348.129-5.348 43.649 0 40.401.001 40.419 2.151 41.378 2.631 1.174 10.038-.515 12.862-2.933 1.877-1.607 1.939-3.104 1.714-41.362-.18-30.755-.515-39.788-1.486-40.112-.689-.23-.999-.829-.688-1.332s-.587-.915-1.994-.915c-2.502 0-2.559-.157-2.559-7 0-5.556-.31-7-1.5-7-.868 0-1.53.948-1.571 2.25m23.321 12.97c-2.153 1.039-2.25 1.617-2.25 13.433 0 6.791.337 12.294.75 12.229s1.65-.03 2.75.079c1.647.162 1.514.374-.75 1.201l-2.75 1.005v21.978l5.75-.26c7.019-.316 8.25-2.267 8.25-13.071 0-7.323-.811-9.004-5.188-10.76-2.286-.917-2.282-.928.371-.991 3.367-.079 4.188-2.36 3.985-11.063-.236-10.133-.852-11.841-4.874-13.522-1.946-.813-3.596-1.448-3.666-1.41-.07.037-1.141.556-2.378 1.152m-244.75 4.064c-.55.669-1.639 2.453-2.419 3.966s-1.793 2.75-2.25 2.75-.831.608-.831 1.352c0 .743-1.246 2.656-2.77 4.25-1.523 1.594-2.761 3.199-2.75 3.568.011.368-.88 1.725-1.98 3.014s-2.639 3.575-3.419 5.08-1.793 2.736-2.25 2.736-.832.563-.832 1.25c-.001.688-1.113 2.543-2.472 4.122-1.358 1.58-2.738 3.718-3.066 4.75S337.476 730 337 730s-1.155.914-1.51 2.032-1.745 3.133-3.09 4.477-2.389 2.721-2.32 3.058-.818 1.696-1.971 3.022-1.804 2.411-1.447 2.411c.356 0-.004.788-.8 1.75-2.912 3.519-4.467 7.542-3.094 8.003.697.234 1.833.948 2.524 1.586.69.639 1.92 1.307 2.732 1.485s5.991 2.54 11.509 5.25S350.114 768 350.783 768s1.217.45 1.217 1 .9 1 2 1 2.004.337 2.008.75c.009.898 4.852 3.25 6.691 3.25.716 0 1.301.45 1.301 1s.9 1 2 1 2.004.337 2.008.75c.009.898 4.852 3.25 6.691 3.25.716 0 1.301.45 1.301 1s.9 1 2 1 2 .477 2 1.059.414.803.919.491 1.529-.002 2.274.691c.745.692 2.019 1.405 2.831 1.584s1.627.744 1.811 1.256c.185.512.711.7 1.17.416.458-.283 1.443.051 2.188.744.745.692 2.019 1.405 2.831 1.584s1.627.744 1.811 1.256c.185.512.711.7 1.17.416.458-.283 1.443.051 2.188.744.745.692 2.015 1.408 2.821 1.589.807.182 1.696.632 1.977 1 .28.369 1.184.802 2.009.963 1.697.331 25.229 12.201 26 13.115.275.325 1.194.703 2.042.838s9.481 4.238 19.184 9.116c9.702 4.879 18.614 9.124 19.804 9.436 2.658.695 4.97-.104 4.97-1.716 0-.663.788-2.077 1.75-3.143.963-1.067 2.389-3.176 3.169-4.689s1.819-2.75 2.309-2.75.634-.414.322-.919c-.313-.506-.002-1.519.691-2.25.692-.732 1.898-2.568 2.678-4.081s1.793-2.75 2.25-2.75.831-.59.831-1.311c0-.722.788-2.184 1.75-3.25.962-1.067 2.389-3.176 3.169-4.689s1.793-2.75 2.25-2.75.831-.59.831-1.311c0-.722.788-2.184 1.75-3.25.962-1.067 2.389-3.176 3.169-4.689s1.793-2.75 2.25-2.75.831-.59.831-1.311c0-.722.788-2.184 1.75-3.25.962-1.067 2.389-3.176 3.169-4.689s1.793-2.75 2.25-2.75.831-.59.831-1.311c0-.722.788-2.207 1.75-3.301 2.103-2.391 4.514-6.467 4.069-6.879-.749-.695-17.383-8.509-18.113-8.509-.441 0-2.665-.9-4.942-2s-4.73-2-5.452-2-1.312-.375-1.312-.833c0-.459-.562-.838-1.25-.844-.687-.005-3.247-.98-5.688-2.166-2.441-1.187-4.803-2.157-5.249-2.157s-4.522-1.8-9.058-4-8.811-4-9.501-4-1.254-.375-1.254-.833c0-.459-.562-.838-1.25-.844-.687-.005-3.247-.98-5.688-2.166-2.441-1.187-5.028-2.157-5.75-2.157s-1.312-.477-1.312-1.059-.414-.803-.919-.491-1.529.002-2.274-.691c-.745-.692-1.977-1.395-2.737-1.561s-3.196-1.178-5.414-2.25c-2.217-1.071-4.622-1.948-5.344-1.948s-1.312-.477-1.312-1.059-.37-.831-.822-.551-2.078-.144-3.614-.941-3.416-1.449-4.178-1.449-1.386-.45-1.386-1-.668-1-1.484-1-4.271-1.35-7.677-3c-3.407-1.65-6.789-3-7.516-3s-1.323-.375-1.323-.833c0-.459-.562-.838-1.25-.844-.687-.005-3.247-.98-5.688-2.166-2.441-1.187-5.028-2.157-5.75-2.157s-1.312-.375-1.312-.833c0-.459-.562-.838-1.25-.844-.687-.005-3.247-.98-5.688-2.166-2.441-1.187-5.028-2.157-5.75-2.157s-1.312-.398-1.312-.883c0-.486-1.012-1.103-2.25-1.372-1.238-.268-2.925-.755-3.75-1.082s-1.95-.047-2.5.621m217.872-.034c-.754 1.081-1.022 35.881-.527 68.5L581 770h4.3c6.984 0 6.7 1.748 6.7-41.2V690h-4.878c-2.77 0-5.254.54-5.75 1.25m27.235.332c-1.409 3.672-.657 18.185.975 18.811 5.328 2.045 7.418-.719 7.418-9.809 0-5.777-.376-7.615-1.829-8.929-2.317-2.097-5.773-2.135-6.564-.073m.638 25.573c-.777.777-1.245 4.13-1.245 8.923 0 8.546 1.179 10.596 5.472 9.518 3.086-.774 3.719-3.078 3.329-12.117-.3-6.948-.314-6.98-3.306-7.274-1.653-.162-3.565.265-4.25.95m47.384 1.636c-.269.435-2.159.903-4.201 1.041s-4.519.681-5.504 1.209c-.986.527-3.146.959-4.799.959s-3.285.45-3.625 1-1.491 1-2.559 1c-1.877 0-1.941.962-1.941 29.093v29.092l5.25-.548c9.259-.965 13.749-1.826 14.315-2.743.304-.492 1.507-.894 2.673-.894 4.758 0 11.31-3.304 10.18-5.133-.248-.401.007-1.011.566-1.357 1.49-.921 1.357-47.666-.145-50.963-.98-2.152-1.824-2.547-5.44-2.547-2.355 0-4.501.356-4.77.791m.607 2.33c-.405.381-2.311.947-4.236 1.257-1.925.311-5.3 1.008-7.5 1.549s-5.237 1.281-6.75 1.645l-2.75.661v53.878l2.75-.397c1.513-.218 3.425-.66 4.25-.981 1.509-.588 5.52-1.376 12-2.358 1.925-.292 5.011-1.215 6.857-2.051l3.357-1.519-.547-26.153c-.301-14.383-.574-26.272-.607-26.418-.125-.554-6.121.225-6.824.887M608.25 739.22c-2.146 1.035-2.25 1.635-2.25 12.933V764h4c2.2 0 4-.343 4-.763 0-.419 1.013-1.207 2.25-1.75s2.25-1.512 2.25-2.154.337-1.504.75-1.916c.413-.413.75-3.606.75-7.097 0-10.779-4.196-14.743-11.75-11.1m.962 2.316c-.901 1.022-1.201 4.234-1 10.712.274 8.812.398 9.268 2.603 9.58 3.89.551 7.261-5.001 6.239-10.273-.101-.519.356-1.953 1.016-3.186.959-1.792.922-2.549-.185-3.771a132 132 0 0 1-2.674-3.063c-1.61-1.917-4.308-1.916-5.999.001m69.594 18.495c-.107 8.233-.22 16.431-.25 18.219-.052 2.995.218 3.276 3.433 3.581 1.919.182 5.069-.118 7-.667 1.931-.55 5.536-1.564 8.011-2.255 6.058-1.692 6.395-2.137 3.956-5.238-1.156-1.469-1.84-2.671-1.52-2.671s-.773-1.417-2.427-3.148c-1.655-1.732-3.009-3.536-3.009-4.009s-1.35-2.274-3-4c-1.65-1.727-3-3.748-3-4.491 0-.744-.36-1.352-.799-1.352s-1.902-1.783-3.25-3.962c-4.49-7.258-4.932-6.399-5.145 9.993m-29.056-12.639c-2.477 1.88-2.624 21.059-.168 22.001 2.861 1.098 10.185.657 10.675-.643.76-2.015.915-19.137.191-21.024-.815-2.124-8.043-2.349-10.698-.334m1.45 1.808c-1.249 1.249-1.699 14.335-.593 17.218.388 1.013 1.828 1.582 4 1.582H658v-20h-2.8c-1.54 0-3.34.54-4 1.2M522 767.311c0 .722-.788 2.202-1.75 3.289s-1.891 2.607-2.062 3.376c-.172.768-1.072 2.101-2 2.961-.929.86-1.834 2.238-2.013 3.063s-.741 1.65-1.25 1.833-.925.886-.925 1.562c0 .675-.788 2.1-1.75 3.166-.962 1.067-2.389 3.176-3.169 4.689s-1.793 2.75-2.25 2.75-.831.59-.831 1.311c0 .722-.788 2.184-1.75 3.25-.962 1.067-2.389 3.176-3.169 4.689s-1.793 2.75-2.25 2.75-.831.59-.831 1.311c0 .722-.788 2.184-1.75 3.25-.962 1.067-2.389 3.176-3.169 4.689s-1.819 2.75-2.309 2.75-.634.414-.322.919c.313.506.002 1.527-.691 2.269-.692.742-2.089 2.831-3.103 4.643l-1.843 3.295 3.843-.658c3.691-.632 4.919-.939 13.844-3.464 2.2-.623 4.774-1.24 5.721-1.373.947-.132 2.034-.553 2.417-.935.382-.383 2.169-.696 3.97-.696s3.552-.45 3.892-1 2.054-1.007 3.809-1.015c5.281-.026 5.383-.346 4.592-14.485-.4-7.15-.767-18.962-.814-26.25-.053-8.109-.475-13.25-1.087-13.25-.55 0-1 .59-1 1.311"/></svg>