<svg xmlns="http://www.w3.org/2000/svg" viewBox="0 0 1024 1024"><path fill="#00e5cc" d="M302.5 155c-.34.55-2.14 1-4 1s-3.66.45-4 1-1.716 1-3.059 1-2.441.45-2.441 1-1.087 1-2.417 1-2.566.338-2.75.75c-.183.412-2.47 1.833-5.083 3.157s-4.75 2.787-4.75 3.25-.707.843-1.571.843c-4.675 0-4.429-15.412-4.429 277.873v275.016l6.556 6.555c3.605 3.606 7.205 6.556 8 6.556s1.331.337 1.194.75c-.138.413-.025.762.25.777s2.703 2.139 5.396 4.719 5.199 4.505 5.568 4.276c.369-.228 1.303.461 2.075 1.532.771 1.07 2.23 1.946 3.241 1.946s1.56.45 1.22 1-.145 1 .433 1c.579 0 2.216 1.013 3.64 2.25s2.775 2.139 3.004 2.004c.229-.136 1.503.698 2.83 1.852s2.688 2.044 3.023 1.976 1.585.786 2.778 1.897c1.193 1.112 2.759 2.021 3.481 2.021.721 0 1.311.374 1.311.831s1.238 1.47 2.75 2.25 3.349 1.986 4.081 2.678c.731.693 1.744 1.004 2.25.691.505-.312.919-.091.919.491s.927 1.059 2.059 1.059 1.781.45 1.441 1 .084 1 .941 1 1.559.45 1.559 1 .863 1 1.917 1 2.066.416 2.25.925c.183.509.997 1.071 1.809 1.25s2.086.892 2.831 1.584 1.768 1.004 2.274.691c.505-.312.919-.091.919.491s.9 1.059 2 1.059 2 .45 2 1 .927 1 2.059 1 1.781.45 1.441 1c-.352.569.509 1 2 1s2.352.431 2 1c-.351.567.49 1 1.941 1 1.407 0 2.559.45 2.559 1s.9 1 2 1 2 .45 2 1 .9 1 2 1 2 .45 2 1 .9 1 2 1 2 .45 2 1 .9 1 2 1 2 .45 2 1 .873 1 1.941 1 2.219.45 2.559 1 1.716 1 3.059 1 2.441.45 2.441 1 .9 1 2 1 2 .45 2 1 1.125 1 2.5 1 2.5.45 2.5 1 1.125 1 2.5 1 2.5.45 2.5 1 .873 1 1.941 1 2.219.45 2.559 1 1.716 1 3.059 1 2.441.45 2.441 1 1.35 1 3 1 3 .45 3 1 1.35 1 3 1 3 .45 3 1 .873 1 1.941 1 2.219.45 2.559 1 1.716 1 3.059 1 2.441.45 2.441 1 1.35 1 3 1 3 .45 3 1 1.35 1 3 1 3 .45 3 1 1.323 1 2.941 1 3.219.45 3.559 1 1.69 1 3 1 2.66.45 3 1 2.166 1 4.059 1 3.441.45 3.441 1 1.323 1 2.941 1 3.219.45 3.559 1 2.166 1 4.059 1 3.441.45 3.441 1 1.323 1 2.941 1 3.219.45 3.559 1 2.14 1 4 1 3.66.45 4 1 2.166 1 4.059 1 3.441.45 3.441 1 1.773 1 3.941 1 4.219.45 4.559 1 2.616 1 5.059 1 4.441.45 4.441 1 1.773 1 3.941 1 4.219.45 4.559 1 2.616 1 5.059 1 4.441.45 4.441 1 1.762 1 3.917 1 4.066.426 4.25.946c.183.521 2.471 1.055 5.083 1.187s4.75.607 4.75 1.054 2.25.813 5 .813 5 .45 5 1 2.223 1 4.941 1 5.219.45 5.559 1 2.59 1 5 1 4.66.45 5 1 3.066 1 6.059 1 5.441.45 5.441 1c0 .554 2.647 1 5.941 1 3.268 0 6.219.45 6.559 1s3.265 1 6.5 1 6.16.45 6.5 1 3.291 1 6.559 1 5.941.412 5.941.915 2.813 1.158 6.25 1.456c3.438.297 9.625 1.005 13.75 1.572 29.166 4.012 35 4.536 35 3.146 0-.599.927-1.089 2.059-1.089s1.781-.45 1.441-1 .309-1 1.441-1 2.059-.45 2.059-1 .862-1 1.917-1c1.054 0 2.066-.339 2.25-.754.183-.415 3.483-2.326 7.333-4.246s7.15-3.831 7.333-4.246c.184-.415.971-.754 1.75-.754.78 0 1.417-.398 1.417-.883 0-.486.9-1.119 2-1.407 1.814-.474 2-1.364 2-9.569 0-9.237 1.27-14.141 3.661-14.141.736 0 1.339-.45 1.339-1s.9-1 2-1 2-.45 2-1 .675-1 1.5-1 1.5-.45 1.5-1 .9-1 2-1 2-.344 2-.764 1.709-1.504 3.797-2.409 5.238-2.992 7-4.637l3.203-2.992V568.599C758 384.428 757.719 326 756.833 326c-.641 0-.873-.293-.515-.652.831-.83-3.961-3.348-6.373-3.348-1.005 0-2.105-.45-2.445-1s-2.166-1-4.059-1-3.441-.45-3.441-1-1.237-1.033-2.75-1.073-4.1-.864-5.75-1.831l-3-1.758-.266-27.73-.266-27.731-2.438-2.438c-1.342-1.342-3.161-2.439-4.044-2.439s-1.385-.355-1.117-.788-.943-1.418-2.691-2.188-3.777-1.995-4.509-2.722c-.731-.726-1.744-1.065-2.25-.752-.505.312-.919.091-.919-.491s-.9-1.059-2-1.059-2-.45-2-1-.9-1-2-1-2-.45-2-1-.9-1-2-1-2-.45-2-1-.9-1-2-1-2-.45-2-1-.873-1-1.941-1-2.219-.45-2.559-1-1.716-1-3.059-1-2.441-.45-2.441-1-.9-1-2-1-2-.45-2-1-.873-1-1.941-1-2.219-.45-2.559-1-1.716-1-3.059-1-2.441-.45-2.441-1-.624-1-1.386-1-2.642-.652-4.178-1.449-3.162-1.22-3.614-.941c-.452.28-.822.031-.822-.551s-.873-1.059-1.941-1.059-2.219-.45-2.559-1-1.716-1-3.059-1-2.441-.45-2.441-1-1.35-1-3-1-3-.45-3-1-1.35-1-3-1-3-.45-3-1-.873-1-1.941-1-2.219-.45-2.559-1-1.69-1-3-1-2.66-.45-3-1-1.69-1-3-1-2.66-.45-3-1-1.69-1-3-1-2.66-.45-3-1-2.166-1-4.059-1-3.441-.45-3.441-1-1.35-1-3-1-3-.45-3-1-1.323-1-2.941-1-3.219-.45-3.559-1-2.166-1-4.059-1-3.441-.45-3.441-1-1.35-1-3-1-3-.45-3-1-1.8-1-4-1-4-.45-4-1-1.323-1-2.941-1-3.219-.45-3.559-1-2.166-1-4.059-1-3.441-.45-3.441-1-1.8-1-4-1-4-.45-4-1-1.8-1-4-1-4-.45-4-1-1.8-1-4-1-4-.45-4-1-1.773-1-3.941-1-4.219-.45-4.559-1-2.14-1-4-1-3.66-.45-4-1-2.616-1-5.059-1-4.441-.45-4.441-1-2.223-1-4.941-1-5.219-.45-5.559-1-2.616-1-5.059-1-4.441-.45-4.441-1-2.25-1-5-1-5-.45-5-1-2.25-1-5-1-5-.45-5-1c0-.556-2.667-1-6-1-3.3 0-6-.408-6-.907s-2.363-1.164-5.25-1.477c-14.364-1.559-16.319-1.866-17.2-2.708-.523-.499-3.695-.908-7.05-.908s-6.527-.414-7.05-.919-3.875-1.167-7.45-1.469-10.212-1.014-14.75-1.581-11.962-1.497-16.5-2.067c-13.146-1.65-29.275-3.001-42.5-3.56-6.738-.285-12.25-.943-12.25-1.461 0-1.287-24.704-1.231-25.5.057m-1.3 4.2c-2.005 2.005-1.368 2.8 2.241 2.8 1.893 0 3.719.45 4.059 1s2.391 1 4.559 1 3.941.45 3.941 1 1.548 1 3.441 1 3.719.45 4.059 1 2.14 1 4 1 3.66.45 4 1 2.14 1 4 1 3.66.45 4 1 2.14 1 4 1 3.66.45 4 1 2.14 1 4 1 3.66.45 4 1 2.14 1 4 1 3.66.45 4 1 2.193 1 4.118 1c2.079 0 3.249.406 2.882 1-.34.55-2.391 1-4.559 1s-3.941-.45-3.941-1-1.8-1-4-1-4-.45-4-1-1.8-1-4-1-4-.45-4-1-1.548-1-3.441-1-3.719-.45-4.059-1-2.14-1-4-1-3.66-.45-4-1-2.14-1-4-1-3.66-.45-4-1-2.391-1-4.559-1-3.941-.45-3.941-1-1.548-1-3.441-1-3.719-.45-4.059-1-2.14-1-4-1-3.66-.45-4-1c-.684-1.107-7.784-1.382-8.825-.342-1.324 1.325 1.662 3.342 4.947 3.342 1.858 0 3.378.45 3.378 1s1.8 1 4 1 4 .45 4 1 1.8 1 4 1 4 .45 4 1 1.8 1 4 1 4 .45 4 1 1.8 1 4 1 4 .45 4 1 1.8 1 4 1 4 .45 4 1 1.8 1 4 1 4 .45 4 1 1.8 1 4 1 4 .45 4 1 1.8 1 4 1 4 .45 4 1 1.8 1 4 1 4 .45 4 1 1.8 1 4 1 4 .45 4 1 1.8 1 4 1 4 .45 4 1 1.8 1 4 1 4 .45 4 1 1.8 1 4 1 4 .45 4 1 1.8 1 4 1 4 .45 4 1 1.8 1 4 1 4 .45 4 1 1.8 1 4 1 4 .45 4 1 1.8 1 4 1 4 .45 4 1-2.25 1-5 1-5-.45-5-1-1.8-1-4-1-4-.45-4-1-1.8-1-4-1-4-.45-4-1-1.8-1-4-1-4-.45-4-1-1.8-1-4-1-4-.45-4-1-1.8-1-4-1-4-.45-4-1-1.8-1-4-1-4-.45-4-1-1.8-1-4-1-4-.45-4-1-1.8-1-4-1-4-.45-4-1-1.8-1-4-1-4-.45-4-1-1.8-1-4-1-4-.45-4-1-1.8-1-4-1-4-.45-4-1-1.8-1-4-1-4-.45-4-1-1.8-1-4-1-4-.45-4-1-1.8-1-4-1-4-.45-4-1-1.8-1-4-1-4-.45-4-1-1.8-1-4-1-4-.45-4-1-1.8-1-4-1-4-.482-4-1.072c0-1.125-5.131-.922-6.009.238-.281.371-1.181.822-2 1.004-.82.181-2.283 1.192-3.252 2.246-2.011 2.188-.985 3.667 4.511 6.503 1.512.78 2.75 1.819 2.75 2.309s.414.634.919.322c.506-.313 1.599.111 2.429.941s2.216 1.509 3.081 1.509 1.571.45 1.571 1 .702 1 1.559 1 1.281.45.941 1c-.352.569.509 1 2 1s2.352.431 2 1 .509 1 2 1 2.352.431 2 1c-.349.565.47 1 1.882 1 1.375 0 2.778.45 3.118 1s1.491 1 2.559 1 1.941.45 1.941 1 .9 1 2 1 2 .45 2 1 .9 1 2 1 2 .45 2 1 1.098 1 2.441 1 2.719.45 3.059 1 1.491 1 2.559 1 1.941.45 1.941 1 .9 1 2 1 2 .45 2 1 1.098 1 2.441 1 2.719.45 3.059 1 1.69 1 3 1 2.66.45 3 1 1.491 1 2.559 1 1.941.45 1.941 1 1.35 1 3 1 3 .45 3 1 1.098 1 2.441 1 2.719.45 3.059 1 1.69 1 3 1 2.66.45 3 1 1.69 1 3 1 2.66.45 3 1 1.69 1 3 1 2.66.45 3 1 1.69 1 3 1 2.66.45 3 1 1.69 1 3 1 2.66.45 3 1 1.69 1 3 1 2.66.45 3 1 1.941 1 3.559 1 2.941.45 2.941 1 1.548 1 3.441 1 3.719.45 4.059 1 1.941 1 3.559 1 2.941.45 2.941 1 1.8 1 4 1 4 .45 4 1 1.548 1 3.441 1 3.719.45 4.059 1 2.193 1 4.118 1c2.079 0 3.249.406 2.882 1-.377.61 1.137 1 3.882 1 2.475 0 4.778.45 5.118 1s2.391 1 4.559 1 3.941.405 3.941.899c0 .495 2.025 1.17 4.5 1.5l9 1.202c2.475.33 4.5 1.005 4.5 1.5 0 .494 2.25.899 5 .899s5 .45 5 1 2.25 1 5 1 5 .45 5 1 2.25 1 5 1 5 .45 5 1 2.25 1 5 1 5 .45 5 1c0 .556 2.667 1 6 1s6 .444 6 1c0 .55 2.385 1 5.3 1s5.728.412 6.25.916c.885.853 3.445 1.19 20.45 2.694 3.575.316 6.95.921 7.5 1.345s4.354.866 8.453.982c4.1.116 8.233.627 9.185 1.137 2.315 1.239 8.862 1.184 8.862-.074 0-1.451 3.756-1.23 4.252.25.528 1.58 17.032 1.399 17.562-.192.194-.582 2.115-1.058 4.269-1.058s3.917-.45 3.917-1 1.581-1 3.514-1 4.295-.423 5.25-.94 2.992-1.205 4.528-1.529c3.741-.791 1.288-3.531-3.162-3.531-1.656 0-3.29-.45-3.63-1s-2.418-1-4.618-1c-2.412 0-3.755-.397-3.382-1 .34-.55.231-1-.242-1-1.496 0-6.242 2.468-6.25 3.25-.004.412-.908.75-2.008.75s-2 .45-2 1-.754 1-1.675 1c-1.478 0-1.448-.221.25-1.872 1.059-1.03 2.171-1.734 2.473-1.566.301.168 1.172-.08 1.935-.552 2.273-1.404-.682-4.01-4.546-4.01-1.826 0-3.597-.45-3.937-1s-2.14-1-4-1-3.66-.45-4-1-2.166-1-4.059-1-3.441-.45-3.441-1-1.773-1-3.941-1-4.219-.45-4.559-1-1.941-1-3.559-1-2.941-.45-2.941-1-1.8-1-4-1-4-.45-4-1-1.827-1-4.059-1c-2.451 0-3.814-.396-3.441-1 .378-.611-1.156-1-3.941-1-2.507 0-4.559-.45-4.559-1s-1.8-1-4-1-4-.45-4-1-1.8-1-4-1-4-.45-4-1-1.8-1-4-1-4-.45-4-1-1.8-1-4-1-4-.45-4-1-1.8-1-4-1-4-.45-4-1-1.8-1-4-1-4-.45-4-1-1.8-1-4-1-4-.45-4-1-1.8-1-4-1-4-.45-4-1-1.8-1-4-1-4-.45-4-1-1.8-1-4-1-4-.45-4-1-1.8-1-4-1-4-.45-4-1-1.8-1-4-1-4-.45-4-1-1.548-1-3.441-1-3.719-.45-4.059-1-2.354-1-4.476-1-4.022-.495-4.224-1.1-2.105-1.1-4.231-1.1c-2.626 0-3.416-.283-2.466-.885 1.918-1.214 8.897-1.148 8.897.085 0 .55 1.8 1 4 1s4 .45 4 1 1.773 1 3.941 1 4.19.402 4.494.894 2.243 1.15 4.309 1.462c8.951 1.352 11.256 1.916 11.256 2.753 0 .49 1.8.891 4 .891s4 .45 4 1 1.8 1 4 1 4 .45 4 1 1.548 1 3.441 1 3.719.45 4.059 1 2.391 1 4.559 1 3.941.45 3.941 1 1.8 1 4 1 4 .45 4 1 1.8 1 4 1 4 .45 4 1 1.8 1 4 1 4 .45 4 1 1.8 1 4 1 4 .45 4 1 1.8 1 4 1 4 .45 4 1 1.8 1 4 1 4 .45 4 1 1.8 1 4 1 4 .45 4 1 1.8 1 4 1 4 .45 4 1 1.8 1 4 1 4 .45 4 1 1.8 1 4 1 4 .45 4 1 1.8 1 4 1 4 .45 4 1 1.8 1 4 1 4 .45 4 1 1.548 1 3.441 1 3.719.45 4.059 1 2.14 1 4 1 3.66.45 4 1 2.14 1 4 1 3.66.45 4 1 2.14 1 4 1 3.66.45 4 1 2.14 1 4 1 3.66.45 4 1 2.391 1 4.559 1 3.941.45 3.941 1 1.8 1 4 1 4 .45 4 1 1.548 1 3.441 1 3.719.45 4.059 1 2.14 1 4 1 3.66.45 4 1 2.391 1 4.559 1 3.941.45 3.941 1 1.548 1 3.441 1 3.719.45 4.059 1 2.391 1 4.559 1 3.941.45 3.941 1 1.998 1 4.441 1 4.719-.45 5.059-1-.309-1-1.441-1-2.059-.45-2.059-1-1.548-1-3.441-1-3.719-.45-4.059-1-2.14-1-4-1-3.66-.45-4-1-2.14-1-4-1-3.66-.45-4-1-2.14-1-4-1-3.66-.45-4-1-2.14-1-4-1-3.66-.45-4-1-2.14-1-4-1-3.66-.45-4-1-1.941-1-3.559-1-2.941-.405-2.941-.899c0-.495-1.913-1.156-4.25-1.469-10.516-1.407-12.703-1.899-12.185-2.737.757-1.225 9.168-1.136 9.935.105.34.55 2.14 1 4 1s3.66.45 4 1 2.14 1 4 1 3.66.45 4 1 2.14 1 4 1 3.66.45 4 1 2.14 1 4 1 3.66.45 4 1 2.14 1 4 1 3.66.45 4 1 2.193 1 4.118 1c2.079 0 3.249.406 2.882 1-.373.604.99 1 3.441 1 2.232 0 4.059.405 4.059.899 0 .495 1.913 1.149 4.25 1.454s5.979.854 8.091 1.221c3.807.66 7.51-.514 10.48-3.324 1.469-1.389.037-3.441-2.845-4.075-.812-.179-1.626-.741-1.809-1.25s-1.196-.925-2.25-.925-1.917-.477-1.917-1.059-.414-.803-.919-.491-1.519.002-2.25-.691c-1.9-1.797-9.759-5.759-11.426-5.759-.773 0-1.405-.45-1.405-1s-.9-1-2-1-2-.45-2-1-.9-1-2-1-2-.45-2-1-1.152-1-2.559-1c-1.68 0-2.314-.397-1.846-1.155.396-.64.279-.885-.262-.551-.537.332-2.233-.048-3.769-.845S676.148 236 675.386 236s-1.386-.45-1.386-1-1.098-1-2.441-1-2.719-.45-3.059-1-1.491-1-2.559-1-1.941-.477-1.941-1.059-.37-.831-.822-.551-2.078-.144-3.614-.941-3.416-1.449-4.178-1.449-1.386-.45-1.386-1-1.35-1-3-1-3-.45-3-1-1.098-1-2.441-1-2.664-.361-2.937-.802-2.774-1.422-5.559-2.181c-2.784-.758-5.063-1.747-5.063-2.198s-1.35-.819-3-.819-3-.45-3-1-1.575-1-3.5-1-3.5-.45-3.5-1-1.377-1-3.059-1c-1.785 0-2.802-.417-2.441-1 .367-.594-.803-1-2.882-1-1.925 0-3.778-.45-4.118-1s-1.69-1-3-1-2.66-.45-3-1-1.941-1-3.559-1-2.941-.45-2.941-1-1.602-1-3.559-1c-2.118 0-3.309-.405-2.941-1 .373-.604-.99-1-3.441-1-2.232 0-4.059-.45-4.059-1s-1.35-1-3-1-3-.45-3-1-1.8-1-4-1-4-.45-4-1-1.8-1-4-1-4-.45-4-1-1.8-1-4-1-4-.45-4-1-1.548-1-3.441-1-3.719-.45-4.059-1-2.14-1-4-1-3.66-.45-4-1-2.14-1-4-1-3.66-.45-4-1-2.643-1-5.118-1c-2.745 0-4.259-.39-3.882-1 .381-.616-1.323-1-4.441-1-2.782 0-5.059-.45-5.059-1s-1.935-1-4.3-1-4.728-.404-5.25-.898c-.523-.493-2.863-1.168-5.2-1.5l-8.5-1.204c-2.337-.332-4.677-1.007-5.2-1.5-.522-.494-3.335-.898-6.25-.898s-5.3-.45-5.3-1-2.25-1-5-1-5-.45-5-1c0-.556-2.667-1-6-1s-6-.444-6-1-2.667-1-6-1c-3.3 0-6-.401-6-.891s-3.262-1.16-7.25-1.488-10.625-1.073-14.75-1.654c-4.125-.58-10.425-1.302-14-1.603-3.575-.302-6.95-.895-7.5-1.319s-4.354-.866-8.453-.982c-4.1-.116-8.233-.627-9.185-1.137-.952-.509-5.334-.926-9.737-.926s-8.285-.45-8.625-1c-.356-.576-5.677-1-12.559-1-7.294 0-11.941-.389-11.941-1 0-1.509-27.281-1.319-28.8.2M272 447.878c0 240.573.166 270.014 1.524 271.142.838.696 1.318 1.471 1.067 1.723-.566.566 6.033 7.257 7.157 7.257.448 0 3.13 2.208 5.96 4.907s5.319 4.733 5.531 4.52c.213-.212 2.047 1.179 4.076 3.093s4.198 3.48 4.82 3.48 1.937.93 2.922 2.066 2.163 2.081 2.617 2.1.714.439.576.934c-.137.495.65.9 1.75.9s2 .45 2 1 .702 1 1.559 1 1.281.45.941 1 .309 1 1.441 1 2.059.45 2.059 1 .59 1 1.311 1c.722 0 2.184.788 3.25 1.75 1.067.962 3.177 2.389 4.689 3.169s2.75 1.793 2.75 2.25.9.831 2 .831 2 .366 2 .813c0 .448 1.555 1.424 3.455 2.169s3.223 1.73 2.941 2.187.413.831 1.545.831 2.059.45 2.059 1 .9 1 2 1 2.002.337 2.004.75 2.475 1.875 5.496 3.25 5.494 2.837 5.496 3.25.931.75 2.063.75 1.781.45 1.441 1c-.349.565.47 1 1.882 1 1.375 0 2.778.45 3.118 1s1.491 1 2.559 1 1.941.45 1.941 1 .9 1 2 1 2 .45 2 1 .9 1 2 1 2 .45 2 1 .9 1 2 1 2 .45 2 1 1.152 1 2.559 1c1.451 0 2.292.433 1.941 1-.349.565.47 1 1.882 1 1.375 0 2.778.45 3.118 1s1.491 1 2.559 1 1.941.45 1.941 1 1.098 1 2.441 1 2.719.45 3.059 1 1.491 1 2.559 1 1.941.45 1.941 1 1.098 1 2.441 1 2.719.45 3.059 1 1.491 1 2.559 1 1.941.45 1.941 1 1.35 1 3 1 3 .45 3 1 1.098 1 2.441 1 2.719.45 3.059 1 1.491 1 2.559 1 1.941.45 1.941 1 1.35 1 3 1 3 .45 3 1 1.35 1 3 1 3 .45 3 1 .907 1 2.016 1c2.816 0 9.984 2.329 9.984 3.243 0 .417 1.548.757 3.441.757s3.719.45 4.059 1 1.941 1 3.559 1 2.941.45 2.941 1 1.35 1 3 1 3 .45 3 1 1.8 1 4 1 4 .45 4 1 1.548 1 3.441 1 3.719.45 4.059 1 2.14 1 4 1 3.66.45 4 1 2.14 1 4 1 3.66.45 4 1 2.391 1 4.559 1 3.941.45 3.941 1 1.8 1 4 1 4 .45 4 1 1.8 1 4 1 4 .45 4 1 1.998 1 4.441 1 4.719.45 5.059 1 2.365 1 4.5 1 4.16.45 4.5 1 2.616 1 5.059 1 4.441.45 4.441 1 2.385 1 5.3 1 5.727.404 6.25.898c.882.833 2.909 1.223 14.2 2.734l4.25.569V268.185l-5.75-.612a738 738 0 0 0-11.75-1.135c-3.3-.286-6.9-.935-8-1.441s-5.038-1.162-8.75-1.458c-17.119-1.367-20.313-1.761-21.2-2.62-.522-.505-3.308-.919-6.191-.919s-5.519-.45-5.859-1-2.841-1-5.559-1-4.941-.45-4.941-1-2.25-1-5-1-5-.45-5-1-2.25-1-5-1-5-.45-5-1-2.25-1-5-1-5-.45-5-1-1.935-1-4.3-1-4.728-.404-5.25-.898c-.523-.493-2.975-1.179-5.45-1.523-9.982-1.39-12.036-1.828-12.565-2.685-.304-.492-2.326-.894-4.494-.894s-3.941-.45-3.941-1-1.8-1-4-1-4-.45-4-1-1.8-1-4-1-4-.45-4-1-1.548-1-3.441-1-3.719-.45-4.059-1-1.572-1-2.738-1c-2.252 0-8.109-1.663-10.998-3.123-.955-.482-3.066-.877-4.691-.877s-3.233-.45-3.573-1-1.941-1-3.559-1-2.941-.45-2.941-1-1.35-1-3-1-3-.45-3-1-1.35-1-3-1-3-.45-3-1-1.35-1-3-1-3-.352-3-.782-1.238-.884-2.75-1.009-2.9-.672-3.083-1.218-1.646-.991-3.25-.991-2.917-.45-2.917-1-1.35-1-3-1-3-.45-3-1-1.35-1-3-1-3-.45-3-1-1.098-1-2.441-1-2.719-.45-3.059-1-1.69-1-3-1-2.66-.45-3-1-1.491-1-2.559-1-1.941-.45-1.941-1-.9-1-2-1-2-.45-2-1-1.098-1-2.441-1-2.719-.45-3.059-1-1.491-1-2.559-1-1.941-.477-1.941-1.059-.37-.831-.822-.551-2.078-.144-3.614-.941-3.416-1.449-4.178-1.449-1.386-.45-1.386-1-.9-1-2-1-2-.477-2-1.059-.414-.803-.919-.491-1.599-.111-2.429-.941-2.216-1.509-3.081-1.509-1.571-.477-1.571-1.059-.414-.803-.919-.491-1.529.002-2.274-.691c-.745-.692-2.019-1.405-2.831-1.584s-1.626-.741-1.809-1.25S293.008 188 292 188s-1.983-.339-2.167-.754-3.371-2.283-7.083-4.15-6.75-3.778-6.75-4.246c0-.467-.9-.85-2-.85-1.995 0-2 .667-2 269.878M370 181c0 1.279 7.021 1.279 9 0 1.074-.694.008-.974-3.75-.985-2.887-.008-5.25.435-5.25.985m8.5 2c-.373.604.99 1 3.441 1 2.232 0 4.059.45 4.059 1s1.773 1 3.941 1 4.219.45 4.559 1 2.166 1 4.059 1 3.441.45 3.441 1 1.8 1 4 1 4 .45 4 1 1.8 1 4 1 4 .45 4 1 1.8 1 4 1 4 .45 4 1 1.773 1 3.941 1 4.219-.45 4.559-1c.373-.604-.99-1-3.441-1-2.232 0-4.059-.45-4.059-1s-1.575-1-3.5-1-3.5-.45-3.5-1-1.8-1-4-1-4-.45-4-1-1.8-1-4-1-4-.45-4-1-1.8-1-4-1-4-.45-4-1-1.8-1-4-1-4-.45-4-1-1.998-1-4.441-1-4.719.45-5.059 1m122 12c-.34.55.335 1 1.5 1s1.84-.45 1.5-1-1.015-1-1.5-1-1.16.45-1.5 1m-66.5 2c0 .55 1.773 1 3.941 1s4.219-.45 4.559-1c.378-.611-1.156-1-3.941-1-2.507 0-4.559.45-4.559 1m8 2c0 .55 1.8 1 4 1s4 .45 4 1 1.8 1 4 1 4 .45 4 1 1.773 1 3.941 1 4.219-.45 4.559-1c.367-.594-.803-1-2.882-1-1.925 0-3.778-.45-4.118-1s-2.14-1-4-1-3.66-.45-4-1-2.616-1-5.059-1-4.441.45-4.441 1m60 2c0 .55.9 1 2 1s2-.45 2-1-.9-1-2-1-2 .45-2 1m-36 4c0 .55 1.8 1 4 1s4 .45 4 1 1.8 1 4 1 4 .45 4 1 1.485 1 3.3 1 3.801.501 4.413 1.113c.613.613 2.898.943 5.079.735 2.898-.276 3.834-.037 3.479.887-.342.893.722 1.265 3.622 1.265 2.259 0 4.107.45 4.107 1s1.8 1 4 1 4 .45 4 1 1.773 1 3.941 1 4.219-.45 4.559-1c.367-.594-.803-1-2.882-1-1.925 0-3.778-.45-4.118-1s-2.616-1-5.059-1-4.441-.45-4.441-1-1.323-1-2.941-1-3.219-.45-3.559-1-2.14-1-4-1-3.66-.45-4-1-2.14-1-4-1-3.66-.45-4-1-2.14-1-4-1-3.66-.45-4-1-2.616-1-5.059-1-4.441.45-4.441 1m38.5 2c-.34.55.309 1 1.441 1s2.059-.45 2.059-1-.648-1-1.441-1-1.719.45-2.059 1m-84 10c.34.55 1.266 1 2.059 1s1.441-.45 1.441-1-.927-1-2.059-1-1.781.45-1.441 1m101.5 2c0 .55 1.773 1 3.941 1s4.219-.45 4.559-1c.378-.611-1.156-1-3.941-1-2.507 0-4.559.45-4.559 1m74.8.2c.933.933 1.467.933 2.4 0s.667-1.2-1.2-1.2-2.133.267-1.2 1.2M530 221c0 .55 1.8 1 4 1s4 .45 4 1 1.548 1 3.441 1 3.719.45 4.059 1 2.14 1 4 1 3.66.45 4 1 2.418 1 4.618 1c2.412 0 3.755.397 3.382 1-.377.61 1.137 1 3.882 1 2.475 0 4.778-.45 5.118-1 .367-.594-.803-1-2.882-1-1.925 0-3.778-.45-4.118-1s-2.14-1-4-1-3.66-.45-4-1-2.14-1-4-1-3.66-.45-4-1-2.14-1-4-1-3.66-.45-4-1-2.616-1-5.059-1-4.441.45-4.441 1m106 8c0 .55.648 1 1.441 1s1.719-.45 2.059-1-.309-1-1.441-1-2.059.45-2.059 1m-66 2c0 .55 1.773 1 3.941 1s4.219.45 4.559 1 2.14 1 4 1 3.66.45 4 1 2.166 1 4.059 1 3.441.45 3.441 1 1.8 1 4 1 4 .401 4 .891c0 .841 1.128 1.137 10.259 2.69 2.068.352 4.007 1.04 4.309 1.529.303.49 2.072.89 3.932.89s3.66.45 4 1 2.59 1 5 1 4.66-.45 5-1c.373-.604-.99-1-3.441-1-2.232 0-4.059-.45-4.059-1s-1.8-1-4-1-4-.45-4-1-1.548-1-3.441-1-3.719-.45-4.059-1-2.14-1-4-1-3.66-.45-4-1-2.14-1-4-1-3.66-.45-4-1-2.391-1-4.559-1-3.941-.45-3.941-1-1.548-1-3.441-1-3.719-.45-4.059-1-2.616-1-5.059-1-4.441.45-4.441 1m58.397 2.167c-.283.458.412.833 1.544.833s2.059-.375 2.059-.833c0-.459-.695-.834-1.544-.834s-1.776.375-2.059.834M513 235c-1.213.784-1.069.972.75.985 1.237.008 2.25-.435 2.25-.985 0-1.253-1.061-1.253-3 0m47.5 12c-.34.55.057 1 .882 1s1.778-.45 2.118-1-.057-1-.882-1-1.778.45-2.118 1m41 12c.34.55-.309 1-1.441 1s-2.059.45-2.059 1c0 1.358 1.277 1.256 4.371-.348 2.592-1.345 2.544-2.652-.097-2.652-.765 0-1.114.45-.774 1m37.5 2c-.825.533-2.711.976-4.191.985-1.48.008-2.969.465-3.309 1.015s-2.14 1-4 1-3.66.45-4 1-1.829 1.007-3.309 1.015c-2.692.015-8.588 1.794-10.941 3.302-1.567 1.004-1.829 297.224-.265 299.683.786 1.236 1.308 1.28 2.971.25 1.109-.687 3.373-1.25 5.03-1.25s3.014-.45 3.014-1 1.35-1 3-1 3-.45 3-1 1.35-1 3-1 3-.45 3-1 1.35-1 3-1 3-.45 3-1 1.035-1 2.301-1c1.265 0 3.51-.563 4.988-1.25l2.687-1.25.01-148.75.011-148.75-3.749.015c-2.061.009-4.423.452-5.248.985m11 147.571C650 569.937 649.648 560 655.37 560c1.381 0 2.79.45 3.13 1s1.915 1 3.5 1 3.16.45 3.5 1 1.941 1 3.559 1 2.941.45 2.941 1 1.575 1 3.5 1 3.5.45 3.5 1 1.323 1 2.941 1 3.219.45 3.559 1 1.941 1 3.559 1 2.941.45 2.941 1 1.35 1 3 1 3 .45 3 1c0 1.642 4.736 1.131 5.393-.582.793-2.068.793-296.768 0-298.836-.334-.87-1.234-1.582-2-1.582s-1.393-.45-1.393-1-1.8-1-4-1-4-.45-4-1-1.8-1-4-1-4-.45-4-1-1.8-1-4-1-4-.45-4-1-1.8-1-4-1-4-.45-4-1-1.8-1-4-1-4-.45-4-1-2.25-1-5-1h-5zm70.5-143.259c-2.995 1.779-3.468 2.787-3.485 7.438-.008 2.337-.465 4.25-1.015 4.25s-1-1.773-1-3.941c0-3.754-1.945-6.724-2.774-4.236-.216.647-1.165 1.177-2.109 1.177-4.269 0-4.117-10.889-4.117 294.2V856h2.571c4.493 0 7.751-5.286 7.551-12.25-.171-5.942 1.745-4.354 2.078 1.722l.3 5.472 2.5-1.251 2.5-1.251.5-35.471c.275-19.509.805-34.571 1.177-33.471s.474-1.825.227-6.5l-.992-18.818c-.311-5.907-.138-10.824.405-11.5.522-.65.773-3.207.557-5.682-.756-8.668-.867-77.804-.124-77.345.413.255.75-.014.75-.596s-.486-1.059-1.08-1.059c-.725 0-.87-2.049-.442-6.25.975-9.555 1.024-50.907.087-72.857-.484-11.336-.464-19.838.049-20.155.499-.309.772-19.672.626-44.393-.541-91.058-.641-126.594-.426-150.845.417-47.01-.27-98.821-1.314-99.104-.55-.149-1.9.263-3 .916m-124.837 3.438c-.251.413-.299 104.025-.108 230.25s.369 257.288.396 291.25L596 852h10V270.321l-2.547-1.16c-2.883-1.314-7.107-1.537-7.79-.411M620 283c0 .55-.337.947-.75.882-2.969-.469-5.083.456-6.089 2.665-1.705 3.742-1.667 266.547.039 268.253 1.758 1.758 7.679 1.463 9.621-.478 1.349-1.349 1.721-3.95 1.895-13.25.398-21.37.207-88.507-.27-94.822-.26-3.437-.129-6.25.29-6.25.42 0 .66-2.137.534-4.75-.925-19.11-1.032-27.381-.319-24.75l.812 3 .119-2.691c.065-1.48-.389-3.004-1.008-3.387-.786-.485-.913-3.305-.42-9.309.389-4.737.564-14.913.389-22.613s-.323-23.45-.33-35c-.032-51.986-.312-58.5-2.513-58.5-1.1 0-2 .45-2 1m-4.452 5.665c-.84 3.345-.884 262.982-.045 264.339.845 1.368 3.841 1.252 5.297-.204.921-.921 1.2-32.044 1.2-134V286h-2.892c-2.298 0-3.028.547-3.56 2.665m99.978 6.47c.622 3.232 1.474 3.539 1.474.532 0-1.467-.424-2.667-.943-2.667s-.757.961-.531 2.135M710 309.066c0 4.33 5.315 4.041 5.816-.316.285-2.471.006-2.75-2.75-2.75s-3.066.311-3.066 3.066m5.62 10.557c-.33 1.038-.229 3.91.223 6.382l.823 4.495.417-5.346c.435-5.581-.421-8.817-1.463-5.531m13.58 1.577c-.66.66-1.2 3.36-1.2 6v4.8h4c2.2 0 4-.45 4-1s.81-1 1.8-1 2.228-.412 2.75-.916 1.85-1.067 2.95-1.25c1.798-.3 4.5-2.131 4.5-3.05 0-.197-1.462-.469-3.25-.603s-3.4-.68-3.583-1.213c-.184-.532-1.871-.968-3.75-.968s-3.417-.45-3.417-1c0-1.393-3.347-1.253-4.8.2M750 329c0 .55-1.35 1-3 1s-3 .45-3 1-1.125 1-2.5 1-2.5.45-2.5 1-1.125 1-2.5 1-2.5.45-2.5 1-.911 1-2.025 1c-1.249 0-2.395.975-2.992 2.544-.613 1.612-.971 90.942-.979 244-.012 240.954-.008 241.456 1.992 241.456 1.102 0 2.004-.45 2.004-1s.694-1 1.542-1 2.508-.9 3.688-2 2.737-2 3.459-2c.721 0 1.311-.45 1.311-1s.707-1 1.571-1c.865 0 2.251-.679 3.081-1.509s1.992-1.211 2.583-.846c.637.394.783.194.36-.49-.392-.635-.204-1.155.417-1.155 4.15 0 3.988 9.906 3.988-243.429C754 328.667 753.994 328 752 328c-1.1 0-2 .45-2 1m-33.748 15.5c.011 2.2.216 2.982.455 1.738s.23-3.044-.02-4-.446.062-.435 2.262m-.334 5.75c-.045.688-.286 2.488-.534 4-.25 1.519.011 2.75.582 2.75.569 0 1.034-1.8 1.034-4 0-3.593-.88-5.829-1.082-2.75m.354 11.75c0 2.475.195 3.488.434 2.25.238-1.238.238-3.262 0-4.5-.239-1.238-.434-.225-.434 2.25M742 368c0 1.1.45 2 1 2s1-.9 1-2-.45-2-1-2-1 .9-1 2m-8 14c0 1.1.45 2 1 2s1-.9 1-2-.45-2-1-2-1 .9-1 2m-17.768 7c0 1.925.206 2.712.457 1.75.252-.962.252-2.538 0-3.5-.251-.962-.457-.175-.457 1.75M734 394.059c0 1.132.45 1.781 1 1.441s1-1.266 1-2.059-.45-1.441-1-1.441-1 .927-1 2.059M734 406c0 1.1.45 2 1 2s1-.9 1-2-.45-2-1-2-1 .9-1 2m0 11c0 1.867.267 2.133 1.2 1.2s.933-1.467 0-2.4-1.2-.667-1.2 1.2m-60 3.059c0 1.132-.45 1.781-1 1.441s-1 .084-1 .941-.45 1.559-1 1.559-1 .45-1 1 1.098 1 2.441 1 2.719.45 3.059 1c1.153 1.865 4.5 1.121 4.5-1 0-1.1-.45-2-1-2s-1-.707-1-1.571c0-1.516-2.255-4.429-3.429-4.429-.314 0-.571.927-.571 2.059m41.761 5.691c-.276 4.262-.138 8.65.305 9.75.496 1.229.832-1.759.871-7.75.076-11.713-.485-12.668-1.176-2m-85.101-5c-.253.413-.617 2.1-.809 3.75-.337 2.879-.18 3.012 3.899 3.307 2.515.182 4.25-.124 4.25-.75 0-.581.707-1.057 1.571-1.057 1.98 0 4.923-2.858 3.911-3.798-.416-.386-.957-.139-1.202.548-.278.779-2.375 1.25-5.563 1.25-3.98 0-4.85-.267-3.917-1.2.66-.66 1.2-1.56 1.2-2 0-1.012-2.727-1.053-3.34-.05M675 424.5c0 .825.661 1.5 1.469 1.5.894 0 1.243-.586.893-1.5-.317-.825-.978-1.5-1.469-1.5s-.893.675-.893 1.5m-5 6.5c0 .864 2.921 1.486 5.25 1.118.413-.065.75.332.75.882s.9 1 2 1 2-.45 2-1-.873-1-1.941-1-2.219-.45-2.559-1-1.716-1-3.059-1-2.441.45-2.441 1m64 9.059c0 1.132.45 1.781 1 1.441s1-1.266 1-2.059-.45-1.441-1-1.441-1 .927-1 2.059M725.232 447c0 1.925.206 2.712.457 1.75.252-.962.252-2.538 0-3.5-.251-.962-.457-.175-.457 1.75M742 448c0 1.1.45 2 1 2s1-.9 1-2-.45-2-1-2-1 .9-1 2m-7.773 2.523c-.108 1.308.247 2.652.788 2.986.546.338.985-.505.985-1.891 0-3.255-1.516-4.192-1.773-1.095m-416.388 25.495c-.37 6.563-.149 7.982 1.244 7.982.504 0 .917-1.35.917-3 0-2.333.444-3 2-3 1.1 0 2 .45 2 1s1.35 1 3 1 3 .45 3 1c0 3.039 1.647.362 1.845-3 .133-2.255-.218-4-.804-4-.573 0-1.041.9-1.041 2 0 1.42-.667 2-2.301 2-3.525 0-7.682-2.297-7.691-4.25-.009-2.039 2.186-2.271 4.981-.525 1.547.967 2.219.967 3.186 0s.643-1.225-1.534-1.225c-1.585 0-2.496-.426-2.141-1 .367-.593-.793-1-2.852-1h-3.47zM716.232 479c0 1.925.206 2.712.457 1.75.252-.962.252-2.538 0-3.5-.251-.962-.457-.175-.457 1.75M338 484c0 3.333.444 6 1 6s1-2.667 1-6-.444-6-1-6-1 2.667-1 6m20 7c0 4.487.401 7 1.117 7 .624 0 .886-.882.593-2-.447-1.711-.03-2 2.884-2 1.873 0 3.406.45 3.406 1s.9 1 2 1q2 0 2 2c0 1.1.45 2 1 2s1-2.25 1-5-.45-5-1-5-1 .9-1 2q0 2-2 2c-1.1 0-2-.45-2-1s-1.302-1-2.893-1c-1.716 0-3.14-.644-3.5-1.582-.914-2.381-.87-2.418 2.893-2.418 1.925 0 3.5-.45 3.5-1s-1.35-1-3-1-3-.45-3-1-.45-1-1-1c-.571 0-1 3-1 7m376-5c0 1.1.45 2 1 2s1-.9 1-2-.45-2-1-2-1 .9-1 2m-366.5 3c-.34.55.057 1 .882 1s1.778-.45 2.118-1-.057-1-.882-1-1.778.45-2.118 1m-28 2c-.34.55.057 1 .882 1s1.778-.45 2.118-1-.057-1-.882-1-1.778.45-2.118 1m4 2c-.349.565.47 1 1.882 1 1.375 0 2.778.45 3.118 1 1.087 1.76 3.5 1.07 3.5-1 0-1.662-.667-2-3.941-2-2.168 0-4.219.45-4.559 1m34.5 2.531c0 2.444.539 3.736 1.75 4.194 2.844 1.077 4.25 2.964 4.25 5.704 0 1.414.45 2.571 1 2.571s1-.873 1-1.94c0-1.519.812-2.006 3.75-2.25 3.546-.293 3.767-.514 4.06-4.06.33-3.979-1.448-5.319-1.99-1.5-.285 2.006-.798 2.214-4.726 1.915-5.091-.387-7.094-1.966-7.094-5.594 0-1.414-.45-2.571-1-2.571s-1 1.589-1 3.531m364.393-2.06c.362 2.466 1.607 3.005 1.607.696 0-1.192-.41-2.167-.912-2.167-.501 0-.814.662-.695 1.471m-8.378 3.279c-.008 1.788.435 3.25.985 3.25 1.27 0 1.27-3.035 0-5-.736-1.138-.973-.716-.985 1.75M400 503c0 1.65.477 3 1.059 3s.781.45.441 1c-.349.565.47 1 1.882 1 1.375 0 2.778.45 3.118 1s1.716 1 3.059 1c1.774 0 2.441.546 2.441 2 0 1.556-.667 2-3 2-1.65 0-3-.45-3-1s-1.35-1-3-1-3 .45-3 1 1.35 1 3 1 3 .45 3 1 1.35 1 3 1 3 .45 3 1c0 2.767 1.624.514 1.829-2.538.28-4.153-1.599-6.462-5.258-6.462-1.414 0-2.571-.47-2.571-1.044s-.788-.911-1.75-.75q-1.75.296-2.07-1.956c-.175-1.238.162-2.25.75-2.25.589 0 1.07-.45 1.07-1s-.9-1-2-1c-1.556 0-2 .667-2 3m7.516-.027c-.368.597.403 1.027 1.842 1.027 1.361 0 2.676.563 2.922 1.25.245.688.786.934 1.202.548.95-.883-1.428-3.206-3.657-3.575-.921-.152-1.96.186-2.309.75M420 507c0 .55 1.35 1 3 1h3v7c0 4 .429 7 1 7 .55 0 1-2.212 1-4.917 0-4.199.401-5.215 2.75-6.968l2.75-2.052-2.691-.031c-1.48-.018-2.969-.482-3.309-1.032s-2.166-1-4.059-1-3.441.45-3.441 1m20 12c0 4 .429 7 1 7 .55 0 1-.845 1-1.878 0-2.4 3.126-5.214 3.746-3.372.231.688 1.643 1.25 3.137 1.25 3.303 0 5.117 1.646 5.117 4.641 0 1.233.45 2.519 1 2.859 1.948 1.204 1.213-12.617-.75-14.108-2.08-1.579-5.88-1.8-6.75-.392-.345.559.423 1 1.741 1 2.324 0 4.759 1.637 4.759 3.2 0 .44-1.8.8-4 .8s-4-.398-4-.883c0-.486-.974-1.138-2.164-1.45-2.663-.696-.811-3.667 2.286-3.667 1.033 0 1.878-.45 1.878-1s-1.8-1-4-1h-4zm22 0c0 .55 1.35 1 3 1h3v7c0 4 .429 7 1 7 .556 0 1-2.667 1-6 0-5.333.222-6 2-6 1.1 0 2-.45 2-1s-.927-1-2.059-1-1.781-.45-1.441-1c.378-.611-1.156-1-3.941-1-2.507 0-4.559.45-4.559 1m272 1c0 1.1.45 2 1 2s1-.9 1-2-.45-2-1-2-1 .9-1 2m-250 10c0 4.93.404 8 1.052 8 .664 0 .981-2.947.859-8-.106-4.4-.579-8-1.052-8-.472 0-.859 3.6-.859 8m232.286-3.5c.008 2.75.202 3.756.432 2.236s.223-3.77-.014-5-.425.014-.418 2.764m-222.575-.683c-1.367.263-1.711 1.434-1.711 5.828 0 6.133 1.428 8.355 5.37 8.355 1.381 0 2.79.45 3.13 1s2.166 1 4.059 1H508v-7c0-6.262-.205-7-1.941-7-1.068 0-2.19-.402-2.494-.894-.6-.972-7.092-1.821-9.854-1.289m248.986 1.576c-.409 1.041-.508 2.129-.221 2.417.913.912 1.715-.583 1.333-2.482-.35-1.74-.404-1.737-1.112.065M494 531.8c0 4.141 1.395 6.2 4.2 6.2.99 0 1.8.45 1.8 1s1.35 1 3 1c2.896 0 3-.159 3-4.571 0-5.812-1.617-7.429-7.429-7.429H494zm21.643-.05c-1.079 3.839-.399 12.25.99 12.25 1.005 0 1.367-1.599 1.367-6.035 0-5.657.121-5.97 1.934-5 2.467 1.32 7.759 1.341 8.566.035.367-.594-.803-1-2.882-1-1.925 0-3.778-.45-4.118-1-1.046-1.692-5.325-1.144-5.857.75M734 532c0 1.1.45 2 1 2s1-.9 1-2-.45-2-1-2-1 .9-1 2m-206 3c0 .55.45 1 1 1 .556 0 1 2.667 1 6 0 8.399 1.652 7.53 1.901-1 .189-6.46.046-7-1.848-7-1.129 0-2.053.45-2.053 1m18 2c0 .55 1.548 1 3.441 1s3.719.45 4.059 1 1.749 1 3.13 1c2.269 0 5.37 1.98 5.37 3.429 0 .314-2.25.571-5 .571s-5 .45-5 1 1.752 1 3.893 1c2.627 0 4.09.514 4.5 1.582.97 2.527.865 2.58-4.576 2.291-3.36-.178-5.324.147-5.583.926-.287.859 1.615 1.201 6.683 1.201H564v-5.571c0-6.594-1.4-8.429-6.429-8.429-1.964 0-3.571-.45-3.571-1s-1.8-1-4-1-4 .45-4 1m196 3c0 1.1.45 2 1 2s1-.9 1-2-.45-2-1-2-1 .9-1 2m-8 2.382c0 3.255 1.516 4.192 1.773 1.095.108-1.308-.247-2.652-.788-2.986-.546-.338-.985.505-.985 1.891m-18.403 3.461c-.543.878.196 6.284.964 7.051.241.242.439-1.436.439-3.727 0-4.1-.375-4.988-1.403-3.324M546 549c0 .55.9 1 2 1s2-.45 2-1-.9-1-2-1-2 .45-2 1m196 3c0 1.1.45 2 1 2s1-.9 1-2-.45-2-1-2-1 .9-1 2m-7.333.667c-.995.995-.805 3.333.271 3.333.516 0 .87-.9.787-2-.17-2.26-.153-2.239-1.058-1.333M647.5 561c-.34.55-1.69 1-3 1s-2.66.45-3 1-2.166 1-4.059 1-3.441.45-3.441 1-1.35 1-3 1-3 .45-3 1-1.323 1-2.941 1-3.219.45-3.559 1-1.491 1-2.559 1-1.941.45-1.941 1 1.773 1 3.941 1 4.219.45 4.559 1 3.876 1 7.859 1 7.669.417 8.191.927 4.55 1.171 8.95 1.468 12.275 1.022 17.5 1.612c20.653 2.33 26.708 2.343 29.155.063 1.859-1.732 1.947-2.07.534-2.07-.929 0-1.689-.45-1.689-1s-.981-1-2.179-1c-2.302 0-8.14-1.649-11.057-3.123-.955-.482-2.868-.877-4.25-.877s-2.514-.45-2.514-1-.981-1-2.179-1c-2.302 0-8.14-1.649-11.057-3.123-.955-.482-2.868-.877-4.25-.877s-2.514-.45-2.514-1-1.35-1-3-1-3-.45-3-1-.423-1-.941-1-1.219.45-1.559 1m95.2 1.341c-.283.737-.113 1.975.377 2.75.65 1.025.897.66.908-1.341.016-2.986-.474-3.524-1.285-1.409M734 566c0 1.1.45 2 1 2s1-.9 1-2-.45-2-1-2-1 .9-1 2m-18.274 7.25c.638 7.741.965 7.976 1.392.998.252-4.123.006-6.251-.721-6.25-.719.001-.953 1.831-.671 5.252m-107.119 2.332c-1.263 3.29-.679 275.946.593 277.218.66.66 2.658 1.2 4.441 1.2s3.519.45 3.859 1 3.291 1 6.559 1c3.294 0 5.941.446 5.941 1 0 .563 2.814 1 6.441 1 3.543 0 6.719.45 7.059 1s3.49 1 7 1 6.66.45 7 1 3.704 1 7.476 1 7.007.393 7.191.874c.183.481 4.271 1.075 9.083 1.321l8.75.446V584.233l-2.25-.708c-2.178-.685-14.937-2.151-27.25-3.131-3.3-.262-6.9-.893-8-1.402s-5.6-1.168-10-1.467c-19.031-1.291-23.054-1.728-23.95-2.6-1.656-1.612-9.265-1.11-9.943.657M734 578c0 1.1.45 2 1 2s1-.9 1-2-.45-2-1-2-1 .9-1 2m-34.5 3c-.34.55-1.716 1-3.059 1H694v140.938c0 138.636.032 140.935 1.931 140.792 1.062-.08 1.757-.426 1.545-.769s1.163-1.231 3.056-1.973l3.441-1.351.02-139.818c.02-137.908-.006-139.819-1.927-139.819-1.071 0-2.226.45-2.566 1m34.5 9c0 1.1.45 2 1 2s1-.9 1-2-.45-2-1-2-1 .9-1 2m8.015 6.75c.009.413.452 1.425.985 2.25.784 1.213.972 1.069.985-.75.008-1.237-.435-2.25-.985-2.25s-.993.337-.985.75m-7.985 3.7c-.022 2.151.269 2.651 1.074 1.846.791-.791.799-1.626.03-2.95-.941-1.618-1.077-1.482-1.104 1.104m8.306 8.117c-.331.862-.092 2.077.531 2.7.844.844 1.133.444 1.133-1.567 0-3.009-.749-3.518-1.664-1.133M734 612c0 1.1.45 2 1 2s1-.9 1-2-.45-2-1-2-1 .9-1 2m8.697 7.393c-.409 1.041-.508 2.129-.221 2.417.913.912 1.715-.583 1.333-2.482-.35-1.74-.404-1.737-1.112.065M742.275 632c-.083 1.1.271 2 .787 2s.938-.9.938-2-.354-2-.787-2-.855.9-.938 2M734 646.5c0 1.491.431 2.352 1 2 .55-.34 1-1.24 1-2s-.45-1.66-1-2c-.569-.352-1 .509-1 2m8.505 7.492c-.337.546-.153 1.783.41 2.75.879 1.508 1.029 1.367 1.055-.992.031-2.876-.431-3.431-1.465-1.758M734 658c0 1.1.45 2 1 2s1-.9 1-2-.45-2-1-2-1 .9-1 2m0 12c0 1.1.45 2 1 2s1-.9 1-2-.45-2-1-2-1 .9-1 2m0 11.441c0 2.227 1.566 2.67 1.73.49.08-1.062-.276-1.931-.792-1.931s-.938.648-.938 1.441m-18.311 22.927c-.432 1.577-.539 3.115-.238 3.417 1.043 1.043 1.698-.613 1.362-3.444l-.337-2.841zM738.232 720c0 1.925.206 2.712.457 1.75.252-.962.252-2.538 0-3.5-.251-.962-.457-.175-.457 1.75m-.043 35c.026 1.925.391 4.85.811 6.5.689 2.708.768 2.563.811-1.5.027-2.475-.338-5.4-.811-6.5-.691-1.608-.85-1.315-.811 1.5m-6.073 36.75c.129 8.6.574 8.014 1.14-1.5.204-3.437.005-6.25-.442-6.25-.448 0-.762 3.487-.698 7.75M716.349 804c0 4.675.173 6.587.383 4.25s.211-6.163 0-8.5c-.21-2.337-.383-.425-.383 4.25M732 807.333c0 2.064.487 2.667 2.155 2.667 2.129 0 2.132-.027.261-2.25-1.042-1.237-2.012-2.437-2.155-2.667-.144-.229-.261.784-.261 2.25m7.25-1.615c-1.718.616-1.578 2.282.191 2.282 1.656 0 2.967-1.649 1.825-2.296-.421-.239-1.328-.232-2.016.014"/></svg>