<svg xmlns="http://www.w3.org/2000/svg" viewBox="0 0 1024 1024"><path fill="#00e5cc" d="M508.5 235c-.34.55-1.491 1-2.559 1s-1.941.45-1.941 1-.697 1-1.548 1-3.411.9-5.688 2-4.51 2-4.963 2c-.452 0-2.955.952-5.562 2.116a656 656 0 0 1-8.239 3.609 196 196 0 0 0-6.404 2.884c-1.597.765-3.306 1.391-3.798 1.391s-2.757.9-5.034 2-4.73 2-5.452 2-1.312.45-1.312 1-.68 1-1.511 1-3.643.945-6.25 2.1c-2.606 1.154-5.864 2.557-7.239 3.116s-3.281 1.415-4.236 1.901-2.418.883-3.25.883c-.833 0-1.514.45-1.514 1s-.68 1-1.511 1-3.643.952-6.25 2.116a656 656 0 0 1-8.239 3.609 196 196 0 0 0-6.404 2.884c-1.597.765-3.289 1.391-3.761 1.391-.471 0-2.989.952-5.596 2.116a656 656 0 0 1-8.239 3.609 196 196 0 0 0-6.404 2.884c-1.597.765-3.306 1.391-3.798 1.391s-2.757.9-5.034 2-4.73 2-5.452 2-1.312.45-1.312 1-.697 1-1.548 1-3.411.9-5.688 2-4.527 2-5 2-2.723.9-5 2-4.73 2-5.452 2-1.312.45-1.312 1-.697 1-1.548 1-3.411.9-5.688 2-4.73 2-5.452 2-1.312.45-1.312 1-.697 1-1.548 1-3.411.9-5.688 2-4.51 2-4.963 2c-.452 0-2.955.952-5.562 2.116a656 656 0 0 1-8.239 3.609 196 196 0 0 0-6.404 2.884c-1.597.765-3.289 1.391-3.761 1.391-.471 0-2.877.9-5.346 2l-8.978 4c-2.469 1.1-5.169 2-6 2s-1.511.45-1.511 1-.697 1-1.548 1-3.411.9-5.688 2-4.73 2-5.452 2-1.312.45-1.312 1-.697 1-1.548 1-3.411.9-5.688 2-4.527 2-5 2-2.723.9-5 2-4.73 2-5.452 2-1.312.45-1.312 1-.697 1-1.548 1-3.411.9-5.688 2-4.527 2-5 2-2.723.9-5 2-4.73 2-5.452 2-1.312.45-1.312 1-.697 1-1.548 1-3.411.9-5.688 2-4.527 2-5 2-2.723.9-5 2-4.73 2-5.452 2-1.312.45-1.312 1-.697 1-1.548 1-3.411.9-5.688 2-4.527 2-5 2-2.723.9-5 2-4.73 2-5.452 2-1.312.45-1.312 1-.697 1-1.548 1-3.411.9-5.688 2-4.73 2-5.452 2-1.312.45-1.312 1-.697 1-1.548 1-3.411.9-5.688 2-4.51 2-4.963 2c-.452 0-2.955.952-5.562 2.116a656 656 0 0 1-8.239 3.609 196 196 0 0 0-6.404 2.884c-1.597.765-3.289 1.391-3.761 1.391-.471 0-2.989.952-5.596 2.116a619 619 0 0 1-7.739 3.395c-11.833 5.041-12.097 5.23-13.495 9.683-.744 2.368-1.725 4.733-2.179 5.256-.454.522-.826 1.766-.826 2.764s-.397 2.595-.883 3.55C81.51 429.923 80.156 433.424 78 440c-2.159 6.584-2.867 8.497-4.813 13C70.906 458.282 66 473.833 66 475.785c0 1.577 1.833 2.916 7.965 5.821 6.252 2.962 7.731 4.055 6.878 5.084-.598.72-1.933 1.31-2.965 1.31-1.033 0-1.878.45-1.878 1s-.9 1-2 1-2 .45-2 1-.662 1-1.47 1c-2.076 0-12.006 4.654-13.245 6.207-.567.711-1.63 3.093-2.362 5.293s-1.689 4.427-2.127 4.95c-.438.522-.796 1.895-.796 3.05s-.404 2.528-.898 3.05c-.494.523-2.31 5.225-4.035 10.45s-3.571 10.281-4.102 11.236-.965 2.553-.965 3.55c0 .998-.404 2.242-.898 2.764-.494.523-2.308 5.095-4.032 10.162-3.508 10.312-3.25 11.903 2.302 14.204 1.72.714 5.912 2.599 9.315 4.191S55.268 574 55.749 574c.482 0 2.738.9 5.015 2s4.836 2 5.688 2 1.548.45 1.548 1 .595 1 1.323 1c.727 0 4.109 1.35 7.516 3s6.861 3 7.677 3 1.484.45 1.484 1 .606 1 1.346 1 2.653.626 4.25 1.391 4.592 2.115 6.654 3l7.25 3.109c9.295 3.984 11.44 4.928 17.295 7.613 3.462 1.588 6.95 2.887 7.75 2.887s1.455.45 1.455 1 .606 1 1.346 1 2.653.626 4.25 1.391 4.479 2.063 6.404 2.884 5.633 2.445 8.239 3.609 5.419 2.116 6.25 2.116 1.511.45 1.511 1 .574 1 1.275 1c.702 0 3.964 1.336 7.25 2.969s6.762 2.982 7.725 3S178 626.45 178 627s.59 1 1.312 1 3.175.9 5.452 2 4.836 2 5.688 2 1.548.45 1.548 1 .59 1 1.312 1c1.227 0 8.009 2.865 11.924 5.037.955.53 2.418.963 3.25.963.833 0 1.514.45 1.514 1s.59 1 1.312 1 3.175.9 5.452 2 4.836 2 5.688 2 1.548.45 1.548 1 .606 1 1.346 1 2.653.626 4.25 1.391 4.704 2.171 6.904 3.125c2.2.953 6.784 3.027 10.187 4.609s6.89 2.875 7.75 2.875 1.563.45 1.563 1 .59 1 1.312 1 3.175.9 5.452 2 4.836 2 5.688 2 1.548.45 1.548 1 .59 1 1.312 1 3.175.9 5.452 2 4.836 2 5.688 2 1.548.45 1.548 1 .595 1 1.323 1c.727 0 4.109 1.35 7.516 3s6.567 3 7.023 3c.457 0 2.137.626 3.734 1.391s4.704 2.169 6.904 3.119 6.25 2.752 9 4.002 6.575 2.944 8.5 3.764 5.633 2.444 8.239 3.608 5.419 2.116 6.25 2.116 1.511.45 1.511 1 .595 1 1.323 1c.727 0 4.109 1.35 7.516 3s6.861 3 7.677 3 1.484.45 1.484 1 .606 1 1.346 1 2.653.626 4.25 1.391 4.479 2.062 6.404 2.881c7.682 3.272 11.632 5.009 14.404 6.337 1.597.765 3.509 1.391 4.25 1.391.74 0 1.346.45 1.346 1s.59 1 1.312 1 3.175.9 5.452 2 4.836 2 5.688 2 1.548.45 1.548 1 .59 1 1.312 1 3.175.9 5.452 2 4.836 2 5.688 2 1.548.45 1.548 1 .595 1 1.323 1c.727 0 4.109 1.35 7.516 3s6.861 3 7.677 3 1.484.45 1.484 1 .59 1 1.312 1 3.175.9 5.452 2 4.836 2 5.688 2 1.548.45 1.548 1 .59 1 1.312 1 3.175.9 5.452 2 4.836 2 5.688 2 1.548.45 1.548 1 .574 1 1.275 1c.702 0 3.964 1.336 7.25 2.969s6.763 2.982 7.725 3S486 760.45 486 761s.59 1 1.312 1 3.175.9 5.452 2 4.836 2 5.688 2 1.548.45 1.548 1 .595 1 1.323 1c.727 0 4.109 1.35 7.516 3s6.861 3 7.677 3 1.484.45 1.484 1 .873 1 1.941 1 2.219.45 2.559 1c1.396 2.259 13.5.322 13.5-2.161 0-.461.862-.839 1.917-.839 1.054 0 2.066-.337 2.25-.75.297-.668 9.624-5.871 15.575-8.689 1.233-.583 2.246-1.398 2.25-1.811s.87-.75 1.925-.75c1.054 0 2.066-.338 2.25-.75.183-.413 2.358-1.798 4.833-3.08 7.186-3.72 12.46-6.63 13-7.172.275-.276 4.325-2.485 9-4.909s8.65-4.786 8.833-5.249c.184-.462 1.159-.84 2.167-.84s1.983-.337 2.167-.75c.297-.668 9.624-5.871 15.575-8.689 1.233-.583 2.246-1.398 2.25-1.811s.87-.75 1.925-.75c1.054 0 2.066-.337 2.25-.75.183-.413 3.371-2.32 7.083-4.239s6.75-3.832 6.75-4.25.862-.761 1.917-.761c1.054 0 2.066-.338 2.25-.75.183-.413 4.158-2.734 8.833-5.16 4.675-2.425 8.65-4.787 8.833-5.25.184-.462 1.196-.84 2.25-.84s1.924-.337 1.933-.75 3.159-2.315 7-4.227 6.984-3.825 6.984-4.25.862-.773 1.917-.773c1.054 0 2.066-.338 2.25-.75.297-.668 9.624-5.871 15.575-8.689 1.233-.583 2.246-1.398 2.25-1.811s.87-.75 1.925-.75c1.054 0 2.066-.337 2.25-.75.183-.413 3.371-2.32 7.083-4.239s6.75-3.832 6.75-4.25.862-.761 1.917-.761c1.054 0 2.066-.337 2.25-.75.183-.413 4.158-2.734 8.833-5.16 4.675-2.425 8.65-4.787 8.833-5.25.184-.462 1.196-.84 2.25-.84s1.924-.337 1.933-.75 3.159-2.315 7-4.227 6.984-3.825 6.984-4.25.862-.773 1.917-.773c1.054 0 2.066-.338 2.25-.75.283-.638 7.208-4.477 15.575-8.636 1.233-.613 2.246-1.451 2.25-1.864s.87-.75 1.925-.75c1.054 0 2.066-.338 2.25-.75.32-.721 6.918-4.545 11.575-6.708 1.233-.573 2.246-1.379 2.25-1.792s.87-.75 1.925-.75c1.054 0 2.066-.337 2.25-.75.183-.413 4.158-2.734 8.833-5.16 4.675-2.425 8.65-4.787 8.833-5.25.184-.462 1.159-.84 2.167-.84s1.983-.337 2.167-.75 3.371-2.32 7.083-4.239 6.75-3.832 6.75-4.25.862-.761 1.917-.761c1.054 0 2.066-.338 2.25-.75.183-.413 3.371-2.32 7.083-4.239s6.75-3.832 6.75-4.25.863-.761 1.917-.761 2.066-.337 2.25-.75c.297-.668 9.624-5.871 15.575-8.689 1.233-.583 2.246-1.398 2.25-1.811s.87-.75 1.925-.75c1.054 0 2.066-.337 2.25-.75.183-.413 3.371-2.32 7.083-4.239s6.75-3.832 6.75-4.25.863-.761 1.917-.761 2.066-.337 2.25-.75c.183-.413 4.158-2.734 8.833-5.158s8.725-4.675 9-5.002 4.325-2.577 9-5.001 8.65-4.786 8.833-5.249c.184-.462.982-.84 1.775-.84.804 0 1.709-1.336 2.046-3.021.332-1.661.996-3.263 1.475-3.559s.871-1.546.871-2.779.409-2.669.91-3.191c.5-.523 3.212-7.925 6.025-16.45s5.553-16.281 6.09-17.236.975-2.424.975-3.264.397-2.309.883-3.264c6.436-12.65 5.759-16.813-3.133-19.275-4.091-1.132-4.907-2.846-1.75-3.671 1.1-.288 2-.921 2-1.407 0-.485.9-.883 2-.883s2-.344 2-.764 1.688-1.5 3.75-2.4c5.776-2.519 7.599-4.753 10.071-12.336 1.255-3.85 2.709-8.012 3.23-9.25.522-1.238 1.375-3.262 1.895-4.5.521-1.238 2.336-6.525 4.035-11.75s3.523-10.281 4.054-11.236.965-2.333.965-3.063c0-.729.9-3.188 2-5.465 3.695-7.648 2.478-9.652-8-13.179-6.568-2.211-8.465-2.92-13-4.858-1.375-.587-5.425-2.019-9-3.181s-7.281-2.541-8.236-3.065S947.34 390 946.5 390s-2.309-.397-3.264-.883c-3.189-1.623-6.683-2.968-13.236-5.099-3.575-1.162-7.281-2.541-8.236-3.065S919.34 380 918.5 380s-2.309-.397-3.264-.883c-3.189-1.623-6.683-2.968-13.236-5.099-3.575-1.162-7.281-2.541-8.236-3.065s-2.643-.953-3.75-.953-2.016-.337-2.019-.75-3.49-1.833-7.75-3.158-8.173-2.786-8.695-3.25-1.895-.842-3.05-.842-2.527-.404-3.05-.898-5.225-2.326-10.45-4.071-10.85-3.782-12.5-4.527-6.6-2.524-11-3.952c-4.4-1.429-8.781-3.037-9.736-3.575-.955-.537-2.553-.977-3.55-.977-.998 0-2.242-.404-2.764-.898-.523-.494-5.225-2.318-10.45-4.054-5.225-1.735-10.625-3.641-12-4.235-4.538-1.961-6.433-2.66-13-4.795-3.575-1.162-7.281-2.541-8.236-3.065S769.34 326 768.5 326s-2.309-.397-3.264-.883c-3.189-1.623-6.683-2.968-13.236-5.099-3.575-1.162-7.281-2.541-8.236-3.065s-2.643-.953-3.75-.953-2.016-.337-2.019-.75-3.49-1.833-7.75-3.158-8.172-2.786-8.695-3.25-1.766-.842-2.764-.842-2.595-.397-3.55-.883c-3.129-1.592-6.636-2.953-13.236-5.135-3.575-1.182-8.3-2.93-10.5-3.885s-6.025-2.345-8.5-3.09-4.927-1.727-5.45-2.181c-.522-.454-1.958-.826-3.191-.826s-2.519-.45-2.859-1-1.626-1-2.859-1-2.668-.398-3.191-.884c-.522-.485-3.875-1.865-7.45-3.065s-7.4-2.557-8.5-3.016c-1.1-.458-3.575-1.374-5.5-2.035s-4.4-1.577-5.5-2.035-4.925-1.785-8.5-2.947-7.281-2.541-8.236-3.065S619.34 272 618.5 272s-2.309-.397-3.264-.883c-3.189-1.623-6.683-2.968-13.236-5.099-3.575-1.162-7.281-2.541-8.236-3.065s-2.605-.953-3.667-.953-2.08-.347-2.264-.772c-.183-.424-5.058-2.306-10.833-4.181s-10.928-3.777-11.45-4.228-1.947-.819-3.167-.819-2.366-.347-2.55-.772c-.183-.424-5.058-2.306-10.833-4.181s-10.928-3.777-11.45-4.228c-.523-.45-1.958-.819-3.191-.819s-2.519-.45-2.859-1-1.679-1-2.976-1-2.507-.338-2.691-.752c-.401-.904-12.944-5.248-15.155-5.248-.858 0-1.838.45-2.178 1m-1.5 11.849c-2.475.908-4.65 1.989-4.833 2.401-.184.412-.977.75-1.764.75s-2.212.397-3.167.883-2.861 1.341-4.236 1.901c-1.375.559-4.633 1.962-7.239 3.116-2.607 1.155-5.419 2.1-6.25 2.1s-1.511.45-1.511 1-.59 1-1.312 1-3.175.9-5.452 2-4.836 2-5.688 2-1.548.45-1.548 1-.68 1-1.511 1-3.531.9-6 2l-8.978 4c-2.469 1.1-5.169 2-6 2s-1.511.45-1.511 1-.59 1-1.312 1-3.175.9-5.452 2-4.527 2-5 2-2.723.9-5 2-4.836 2-5.688 2-1.548.45-1.548 1-.59 1-1.312 1-3.175.9-5.452 2-4.542 2-5.034 2-2.201.626-3.798 1.391a196 196 0 0 1-6.404 2.884 656 656 0 0 0-8.239 3.609c-2.607 1.164-5.125 2.116-5.596 2.116s-2.164.626-3.761 1.391a196 196 0 0 1-6.404 2.884 656 656 0 0 0-8.239 3.609c-2.607 1.164-5.419 2.116-6.25 2.116s-1.511.369-1.511.819c0 .451-2.25 1.432-5 2.181s-5 1.73-5 2.181c0 .45-.59.819-1.312.819s-3.175.9-5.452 2-4.836 2-5.688 2-1.548.45-1.548 1-.59 1-1.312 1-3.175.9-5.452 2-4.527 2-5 2-2.723.9-5 2-4.836 2-5.688 2-1.548.369-1.548.819c0 .451-2.25 1.432-5 2.181s-5 1.73-5 2.181c0 .45-.59.819-1.312.819s-3.175.9-5.452 2-4.836 2-5.688 2-1.548.45-1.548 1-.681 1-1.514 1c-.832 0-2.295.397-3.25.883s-2.861 1.341-4.236 1.901c-1.375.559-4.633 1.962-7.239 3.116-2.607 1.155-5.419 2.1-6.25 2.1s-1.511.45-1.511 1-.59 1-1.312 1-3.175.9-5.452 2-4.527 2-5 2-2.723.9-5 2-4.836 2-5.688 2-1.548.45-1.548 1-.59 1-1.312 1-3.175.9-5.452 2-4.527 2-5 2-2.723.9-5 2-4.836 2-5.688 2-1.548.45-1.548 1-.59 1-1.312 1-3.175.9-5.452 2-4.527 2-5 2-2.723.9-5 2-4.836 2-5.688 2-1.548.45-1.548 1-.59 1-1.312 1-3.175.9-5.452 2-4.836 2-5.688 2-1.548.45-1.548 1-.663 1-1.473 1c-.811 0-3.398.865-5.75 1.922a525 525 0 0 1-8.277 3.619l-7.5 3.18c-1.925.815-4.4 1.827-5.5 2.247-3.107 1.187-6.58 2.646-11.739 4.932-2.607 1.155-5.419 2.1-6.25 2.1s-1.511.45-1.511 1-.59 1-1.312 1-3.175.9-5.452 2-4.556 2-5.065 2c-3.058 0-3.098 2.89-.061 4.405 1.759.877 3.6 1.595 4.092 1.595s2.757.9 5.034 2 4.73 2 5.452 2 1.312.45 1.312 1 .697 1 1.548 1 3.411.9 5.688 2 4.527 2 5 2 2.723.9 5 2 4.73 2 5.452 2 1.312.45 1.312 1 .697 1 1.548 1 3.411.9 5.688 2 4.73 2 5.452 2 1.312.369 1.312.819c0 .451 2.25 1.432 5 2.181s5 1.73 5 2.181c0 .45.697.819 1.548.819s3.411.9 5.688 2 4.73 2 5.452 2 1.312.45 1.312 1 .68 1 1.511 1 3.643.952 6.25 2.116a656 656 0 0 0 8.239 3.609c1.925.821 4.807 2.119 6.404 2.884S215.71 460 216.202 460s2.757.9 5.034 2 4.73 2 5.452 2 1.312.45 1.312 1 .697 1 1.548 1 3.411.9 5.688 2 4.51 2 4.963 2c.452 0 2.955.952 5.562 2.116a656 656 0 0 0 8.239 3.609c1.925.821 4.807 2.119 6.404 2.884S263.71 480 264.202 480s2.757.9 5.034 2c4.451 2.15 9.263 2.619 10.264 1 .34-.55 1.491-1 2.559-1s1.941-.45 1.941-1 .547-1 1.215-1c1.052 0 15.018-6.313 20.021-9.05.955-.523 2.418-.95 3.25-.95.833 0 1.514-.45 1.514-1s.9-1 2-1 2-.45 2-1 .571-1 1.269-1 5.889-2.25 11.534-5 10.924-5 11.731-5c.806 0 1.466-.45 1.466-1s.9-1 2-1 2-.45 2-1 .563-1.002 1.25-1.004 6.771-2.702 13.52-6S371.706 440 372.52 440s1.48-.45 1.48-1 .9-1 2-1 2-.45 2-1 .632-1 1.405-1c.774 0 3.136-.887 5.25-1.971 9.791-5.02 20.777-10.029 21.999-10.029.74 0 1.346-.45 1.346-1s.632-1 1.405-1c.774 0 3.136-.887 5.25-1.971 9.791-5.02 20.777-10.029 21.999-10.029.74 0 1.346-.45 1.346-1s.9-1 2-1 2-.45 2-1 .606-1 1.346-1c1.182 0 15.15-6.332 19.89-9.017.955-.54 2.418-.983 3.25-.983.833 0 1.514-.45 1.514-1s.9-1 2-1 2-.45 2-1 .632-1 1.405-1c.774 0 3.136-.887 5.25-1.971 9.791-5.02 20.777-10.029 21.999-10.029.74 0 1.346-.45 1.346-1s.632-1 1.405-1c.774 0 3.136-.885 5.25-1.968 8.444-4.321 16.77-8.032 18.022-8.032.728 0 1.323-.45 1.323-1s.547-1 1.215-1c1.096 0 12.113-5.009 22.13-10.061 2.114-1.066 4.476-1.939 5.25-1.939.773 0 1.405-.45 1.405-1s.547-1 1.215-1 4.831-1.751 9.25-3.891c14.932-7.23 16.908-8.109 18.223-8.109.722 0 1.312-.45 1.312-1s.9-1 2-1 2-.45 2-1 .563-1.002 1.25-1.004 6.771-2.702 13.52-6S619.706 324 620.52 324s1.48-.45 1.48-1 .9-1 2-1 2-.45 2-1 .541-1 1.202-1 5.831-2.25 11.489-5 10.968-5 11.799-5 1.51-.45 1.51-1 .9-1 2-1 2-.45 2-1 .9-1 2-1 2-.45 2-1 .788-1.014 1.75-1.032c.962-.017 2.579-.659 3.591-1.427 1.739-1.317 1.672-1.483-1.2-2.968-1.673-.865-3.739-1.573-4.591-1.573s-1.55-.45-1.55-1-1.098-1-2.441-1-2.719-.45-3.059-1-1.498-1-2.573-1-2.736-.429-3.691-.953-4.661-1.903-8.236-3.065-7.625-2.594-9-3.181c-5.09-2.175-6.703-2.76-16-5.801-9.3-3.042-12.739-4.338-16.236-6.117-.955-.486-2.424-.883-3.264-.883s-2.309-.429-3.264-.953-4.661-1.903-8.236-3.065c-6.553-2.131-10.047-3.476-13.236-5.099-.955-.486-2.424-.883-3.264-.883s-2.309-.429-3.264-.953-4.661-1.903-8.236-3.065c-6.553-2.131-10.047-3.476-13.236-5.099-.955-.486-2.553-.883-3.55-.883-.998 0-2.241-.369-2.764-.82s-4.325-1.885-8.45-3.186-7.95-2.67-8.5-3.042c-2.37-1.602-6.31-1.641-10.5-.103m171.571 61.188c-2.16 1.08-4.523 1.963-5.25 1.963-.726 0-1.321.45-1.321 1s-.547 1-1.215 1-4.831 1.758-9.25 3.906C643.404 324.72 640.587 326 639.323 326c-.728 0-1.323.45-1.323 1s-.632 1-1.405 1c-.774 0-3.136.887-5.25 1.971-9.791 5.02-20.777 10.029-21.999 10.029-.74 0-1.346.45-1.346 1s-.547 1-1.215 1-4.831 1.751-9.25 3.891c-14.932 7.23-16.908 8.109-18.223 8.109-.722 0-1.312.45-1.312 1s-.547 1-1.215 1-4.831 1.751-9.25 3.891c-14.932 7.23-16.908 8.109-18.223 8.109-.722 0-1.312.45-1.312 1s-.9 1-2 1-2 .45-2 1-.564 1-1.254 1-4.965 1.8-9.501 4-8.921 4-9.746 4c-.824 0-1.499.45-1.499 1s-.9 1-2 1-2 .45-2 1-.9 1-2 1-2 .45-2 1-.547 1-1.215 1c-1.052 0-15.018 6.313-20.021 9.05-.955.523-2.418.95-3.25.95-.833 0-1.514.45-1.514 1s-.9 1-2 1-2 .45-2 1-.541 1-1.202 1-5.831 2.25-11.489 5-10.968 5-11.799 5-1.51.45-1.51 1-.9 1-2 1-2 .45-2 1-.547 1-1.215 1-4.831 1.751-9.25 3.891c-14.932 7.23-16.908 8.109-18.223 8.109-.722 0-1.312.45-1.312 1s-.9 1-2 1-2 .45-2 1-.547 1-1.215 1-4.831 1.751-9.25 3.891c-14.932 7.23-16.908 8.109-18.223 8.109-.722 0-1.312.45-1.312 1s-.547 1-1.215 1-4.831 1.751-9.25 3.891c-14.932 7.23-16.908 8.109-18.223 8.109-.722 0-1.312.45-1.312 1s-.632 1-1.405 1c-.774 0-3.136.887-5.25 1.971-9.791 5.02-20.777 10.029-21.999 10.029-.74 0-1.346.45-1.346 1s-.9 1-2 1-2 .45-2 1-.632 1-1.405 1c-.774 0-3.136.885-5.25 1.968-8.444 4.321-16.77 8.032-18.022 8.032-.728 0-1.323.45-1.323 1s-.606 1-1.346 1c-1.608 0-7.413 2.8-8.096 3.906-.425.689 3.682 2.767 15.442 7.811 1.925.826 4.807 2.127 6.404 2.892s3.289 1.391 3.761 1.391c.471 0 2.877.9 5.346 2l8.978 4c2.469 1.1 5.169 2 6 2s1.511.45 1.511 1 .59 1 1.312 1 3.175.9 5.452 2 4.836 2 5.688 2 1.548.45 1.548 1 .68 1 1.511 1 3.531.9 6 2l8.978 4c2.469 1.1 5.169 2 6 2s1.511.45 1.511 1 .697 1 1.548 1 3.411.9 5.688 2 4.73 2 5.452 2 1.312.45 1.312 1 .697 1 1.548 1 3.411.9 5.688 2 4.73 2 5.452 2 1.312.45 1.312 1 .68 1 1.511 1 3.643.945 6.25 2.1c2.606 1.154 5.864 2.557 7.239 3.116s3.281 1.415 4.236 1.901 2.418.883 3.25.883c.833 0 1.514.45 1.514 1s.697 1 1.548 1 3.411.9 5.688 2 4.73 2 5.452 2 1.312.45 1.312 1 .697 1 1.548 1 3.411.9 5.688 2 4.498 2 4.936 2 3.583 1.35 6.989 3c3.407 1.65 6.569 3 7.027 3s2.966.952 5.573 2.116c4.723 2.11 7.874 3.468 14.989 6.462a442 442 0 0 1 8.027 3.5c2.352 1.057 4.939 1.922 5.75 1.922s1.473.45 1.473 1 .68 1 1.511 1 3.531.9 6 2l8.978 4c2.469 1.1 5.169 2 6 2s1.511.45 1.511 1 .697 1 1.548 1 3.411.9 5.688 2 4.73 2 5.452 2 1.312.45 1.312 1 .68 1 1.511 1 3.643.945 6.25 2.1c2.606 1.154 5.864 2.557 7.239 3.116s3.281 1.415 4.236 1.901 2.418.883 3.25.883c.833 0 1.514.45 1.514 1s.68 1 1.511 1c1.379 0 8.473 2.833 12.725 5.082.955.505 2.42.918 3.256.918 1.742 0 17.838-8.117 18.341-9.25.184-.413 1.159-.75 2.167-.75s1.983-.338 2.167-.752c.296-.669 8.912-5.299 27.333-14.689 3.3-1.683 6.15-3.396 6.333-3.809.184-.413 1.196-.75 2.25-.75s1.917-.45 1.917-1 .862-1 1.917-1c1.054 0 2.066-.337 2.25-.75.307-.691 8.267-5.018 23.333-12.685 3.3-1.679 6.225-3.281 6.5-3.561.542-.55 12.714-6.97 25.5-13.45 4.4-2.23 8.15-4.391 8.333-4.804.184-.413 1.196-.75 2.25-.75s1.921-.337 1.925-.75 1.017-1.232 2.25-1.821c8.6-4.109 27.302-14.064 27.575-14.679.184-.413 1.196-.75 2.25-.75s1.921-.337 1.925-.75 1.017-1.226 2.25-1.808c7.783-3.671 27.298-14.069 27.575-14.692.184-.413 1.196-.75 2.25-.75s1.921-.337 1.925-.75 1.017-1.224 2.25-1.804c7.885-3.707 27.299-14.04 27.575-14.678.184-.422 1.196-.768 2.25-.768s1.917-.45 1.917-1 .9-1 2-1 2.004-.337 2.008-.75 1.017-1.232 2.25-1.821c8.6-4.109 27.302-14.064 27.575-14.679.184-.413 1.196-.75 2.25-.75s1.921-.337 1.925-.75 1.017-1.226 2.25-1.808c7.783-3.671 27.298-14.069 27.575-14.692.184-.413 1.196-.75 2.25-.75s1.921-.337 1.925-.75 1.017-1.232 2.25-1.821c8.6-4.109 27.302-14.064 27.575-14.679.184-.413 1.196-.75 2.25-.75s1.917-.45 1.917-1 .9-1 2-1 2-.34 2-.755 5.737-3.678 12.75-7.25 12.9-6.832 13.083-7.245c.184-.413 1.196-.75 2.25-.75s1.917-.45 1.917-1 .9-1 2-1 2-.45 2-1 .563-1.01 1.25-1.022c2.051-.037 5.755-3.397 4.974-4.513-.398-.568-4.012-2.116-8.031-3.437-4.019-1.322-7.533-2.769-7.809-3.216s-1.382-.812-2.457-.812-2.736-.44-3.691-.977c-.955-.538-5.118-2.074-9.251-3.414-7.287-2.363-14.381-4.91-18.485-6.636-1.1-.463-4.925-1.801-8.5-2.973s-7.513-2.552-8.75-3.066l-4.5-1.868c-1.237-.514-5.175-1.894-8.75-3.066-6.576-2.156-10.077-3.51-13.236-5.117-.955-.486-2.553-.883-3.55-.883-.998 0-2.242-.379-2.764-.842-.523-.464-4.435-1.926-8.695-3.25s-7.747-2.745-7.75-3.158-.911-.75-2.019-.75c-1.107 0-2.795-.429-3.75-.953s-4.661-1.903-8.236-3.065c-6.553-2.131-10.047-3.476-13.236-5.099-.955-.486-2.424-.883-3.264-.883s-2.309-.429-3.264-.953-4.661-1.926-8.236-3.116-6.928-2.562-7.45-3.047-1.766-.884-2.764-.884-2.595-.434-3.55-.965-6.011-2.377-11.236-4.102-9.928-3.541-10.45-4.035c-.523-.494-1.895-.898-3.05-.898s-2.527-.379-3.05-.842c-.522-.464-4.435-1.926-8.695-3.25s-7.747-2.745-7.75-3.158-.911-.75-2.019-.75c-1.107 0-2.795-.429-3.75-.953s-4.661-1.903-8.236-3.065-7.625-2.594-9-3.181c-5.297-2.264-6.798-2.809-16.5-5.998-5.5-1.807-10.15-3.628-10.333-4.045-.184-.417-1.202-.758-2.264-.758s-2.712-.436-3.667-.968c-.955-.533-3.761-1.622-6.236-2.42s-5.175-1.695-6-1.994-3.268.34-5.429 1.419M961.5 426.806c-6.05 3.132-11.15 6.031-11.333 6.444-.184.413-1.196.75-2.25.75s-1.917.45-1.917 1-.9 1-2 1-2.004.337-2.008.75-1.017 1.224-2.25 1.803c-7.057 3.314-23.292 12.056-23.575 12.695-.184.414-1.196.752-2.25.752s-1.917.45-1.917 1-.9 1-2 1-2.004.337-2.008.75-1.017 1.224-2.25 1.803c-7.057 3.314-23.292 12.056-23.575 12.695-.184.414-1.196.752-2.25.752s-1.921.337-1.925.75-1.017 1.225-2.25 1.806c-8.163 3.844-31.302 16.077-31.575 16.694-.184.412-1.196.75-2.25.75s-1.921.337-1.925.75-1.017 1.232-2.25 1.821c-8.6 4.109-27.302 14.064-27.575 14.679-.184.413-1.196.75-2.25.75s-1.921.337-1.925.75-1.017 1.235-2.25 1.828c-6.508 3.13-31.313 15.999-31.742 16.468-.499.546-10.392 5.745-25.5 13.4-4.4 2.23-8.15 4.391-8.333 4.804-.184.413-1.196.75-2.25.75s-1.921.337-1.925.75-1.017 1.226-2.25 1.808c-7.783 3.671-27.298 14.069-27.575 14.692-.184.413-1.196.75-2.25.75s-1.921.337-1.925.75-1.017 1.229-2.25 1.813c-8.631 4.094-31.304 16.076-31.575 16.687-.184.413-1.159.75-2.167.75s-1.983.386-2.167.858-6.858 4.184-14.833 8.25-14.65 7.729-14.833 8.142c-.184.413-1.196.75-2.25.75s-1.921.337-1.925.75-1.017 1.232-2.25 1.821c-8.6 4.109-27.302 14.064-27.575 14.679-.184.413-1.196.75-2.25.75s-1.917.45-1.917 1-.707 1-1.571 1c-2.446 0-6.429 5.266-6.429 8.5 0 .84-.434 2.309-.965 3.264s-2.377 6.011-4.102 11.236-3.541 9.927-4.035 10.45-.898 1.895-.898 3.05-.372 2.528-.826 3.05c-1.167 1.342-3.597 9.361-3.013 9.944.647.647 5.821-1.789 5.831-2.744.004-.413.908-.75 2.008-.75s2.004-.337 2.008-.75 1.017-1.228 2.25-1.811c5.951-2.818 15.278-8.021 15.575-8.689.184-.413 1.196-.75 2.25-.75s1.921-.337 1.925-.75 1.017-1.228 2.25-1.813c4.597-2.178 23.261-11.956 23.742-12.437.541-.541 5.83-3.458 13-7.17 2.475-1.282 4.65-2.667 4.833-3.08.184-.413 1.196-.75 2.25-.75s1.917-.45 1.917-1 .9-1 2-1 2-.45 2-1 .9-1 2-1 2-.342 2-.761c0-.418 3.038-2.327 6.75-4.242s6.975-3.721 7.25-4.013c.516-.549 9.016-5.096 19.5-10.431 3.3-1.679 6.15-3.39 6.333-3.803.184-.413 1.196-.75 2.25-.75s1.921-.337 1.925-.75 1.017-1.228 2.25-1.811c5.951-2.818 15.278-8.021 15.575-8.689.184-.413 1.196-.75 2.25-.75s1.921-.337 1.925-.75 1.017-1.228 2.25-1.811c5.951-2.818 15.278-8.021 15.575-8.689.184-.413 1.196-.75 2.25-.75s1.921-.337 1.925-.75 1.017-1.224 2.25-1.804c6.453-3.032 19.286-10.044 19.575-10.696.184-.413 1.196-.75 2.25-.75s1.921-.337 1.925-.75 1.017-1.228 2.25-1.811c5.951-2.818 15.278-8.021 15.575-8.689.184-.413 1.196-.75 2.25-.75s1.917-.45 1.917-1 .9-1 2-1 2.004-.337 2.008-.75 1.017-1.228 2.25-1.811c4.056-1.921 15.232-7.928 15.742-8.463.456-.477 7.138-4.072 17.5-9.414 2.2-1.134 4.15-2.399 4.333-2.812.184-.413 1.196-.75 2.25-.75s1.921-.337 1.925-.75 1.017-1.234 2.25-1.826c7.399-3.552 19.292-10.037 19.575-10.674.184-.413 1.159-.75 2.167-.75s1.983-.341 2.167-.758c.3-.684 9.899-6.042 15.575-8.694 1.233-.577 2.246-1.385 2.25-1.798S888.9 500 890 500s2.004-.337 2.008-.75 1.017-1.224 2.25-1.804c6.453-3.032 19.286-10.044 19.575-10.696.184-.413 1.196-.75 2.25-.75s1.921-.337 1.925-.75 1.017-1.228 2.25-1.811c5.951-2.818 15.278-8.021 15.575-8.689.184-.413 1.196-.75 2.25-.75s1.917-.45 1.917-1 .9-1 2-1 2-.398 2-.883c0-.486.788-1.136 1.75-1.444 3.477-1.112 13.555-7.215 14.33-8.677 2.308-4.353 3.92-8.503 3.92-10.091 0-.983.45-2.065 1-2.405s1-1.498 1-2.573.429-2.736.953-3.691 1.926-4.661 3.116-8.236 2.562-6.928 3.047-7.45c1.075-1.155 1.182-5.572.134-5.494-.413.031-5.7 2.618-11.75 5.75M95.322 423.25c-.507.688-1.935 4.4-3.174 8.25-2.221 6.907-3.536 10.338-5.265 13.736-.486.955-.883 2.616-.883 3.691s-.45 2.233-1 2.573-1 1.641-1 2.892-.305 2.58-.678 2.952c-.692.692-5.352 13.975-5.01 14.283.718.647 13.218 6.373 13.914 6.373.479 0 2.733.9 5.01 2s4.73 2 5.452 2 1.312.45 1.312 1 .697 1 1.548 1 3.411.9 5.688 2 4.73 2 5.452 2 1.312.45 1.312 1 .68 1 1.511 1 3.643.952 6.25 2.116a656 656 0 0 0 8.239 3.609c1.925.821 4.807 2.119 6.404 2.884s3.509 1.391 4.25 1.391c.74 0 1.346.45 1.346 1s.68 1 1.511 1 3.643.952 6.25 2.116c4.424 1.976 5.964 2.642 14.489 6.265 7.201 3.061 11.391 4.905 14.154 6.228 1.597.765 3.312 1.391 3.813 1.391.5 0 3.918 1.394 7.596 3.098s7.587 3.44 8.687 3.858 3.955 1.724 6.345 2.902 4.773 2.142 5.298 2.142c.524 0 2.816.9 5.093 2s4.73 2 5.452 2 1.312.45 1.312 1 .68 1 1.511 1 3.531.9 6 2 6.422 2.859 8.785 3.909c6.871 3.054 9.704 3.076 9.704.077 0-1.107.434-2.795.965-3.75s2.355-6.011 4.054-11.236 3.514-10.513 4.035-11.75c2.422-5.761 2.945-7.134 4.88-12.817 2.482-7.289 2.638-10.433.518-10.433-.852 0-3.411-.9-5.688-2s-4.51-2-4.963-2c-.452 0-2.955-.952-5.562-2.116a656 656 0 0 0-8.239-3.609 196 196 0 0 1-6.404-2.884c-1.597-.765-3.509-1.391-4.25-1.391-.74 0-1.346-.45-1.346-1s-.697-1-1.548-1-3.411-.9-5.688-2-4.51-2-4.963-2c-.452 0-2.955-.952-5.562-2.116a656 656 0 0 0-8.239-3.609 196 196 0 0 1-6.404-2.884c-1.597-.765-3.509-1.391-4.25-1.391-.74 0-1.346-.352-1.346-.782s-2.072-1.393-4.604-2.141c-4.341-1.281-10.748-3.958-14.632-6.114-.955-.53-2.418-.963-3.25-.963-.833 0-1.514-.45-1.514-1s-.697-1-1.548-1-3.411-.9-5.688-2-4.73-2-5.452-2-1.312-.45-1.312-1-1.098-1-2.441-1-2.719-.45-3.059-1-1.491-1-2.559-1-1.941-.45-1.941-1-.68-1-1.511-1-3.643-.952-6.25-2.116a656 656 0 0 0-8.239-3.609 196 196 0 0 1-6.404-2.884c-1.597-.765-3.289-1.391-3.761-1.391-.471 0-2.989-.945-5.596-2.1-2.606-1.154-5.864-2.557-7.239-3.116s-3.281-1.415-4.236-1.901c-2.422-1.232-4.358-1.101-5.442.367m836.67 65.5c-.004.413-1.017 1.224-2.25 1.804-4.083 1.919-19.233 9.933-19.742 10.444-.636.639-7.62 4.448-15.433 8.419-3.337 1.696-6.217 3.42-6.4 3.833s-1.196.75-2.25.75-1.917.45-1.917 1-.9 1-2 1-2.004.337-2.008.75-1.017 1.228-2.25 1.811c-5.951 2.818-15.278 8.021-15.575 8.689-.184.413-1.159.75-2.167.75s-1.983.341-2.167.758c-.3.684-9.899 6.042-15.575 8.694-1.233.577-2.246 1.385-2.25 1.798s-.87.75-1.925.75c-1.054 0-2.066.378-2.25.84-.183.463-4.158 2.825-8.833 5.25-4.675 2.426-8.65 4.747-8.833 5.16-.184.413-1.196.75-2.25.75s-1.917.45-1.917 1-.9 1-2 1-2.004.337-2.008.75-1.017 1.228-2.25 1.811c-5.951 2.818-15.278 8.021-15.575 8.689-.184.413-1.196.75-2.25.75s-1.921.337-1.925.75-1.017 1.224-2.25 1.804c-6.453 3.032-19.286 10.044-19.575 10.696-.184.413-1.159.75-2.167.75s-1.983.378-2.167.84c-.183.463-4.158 2.825-8.833 5.25-4.675 2.426-8.65 4.747-8.833 5.16-.184.413-1.196.75-2.25.75s-1.917.45-1.917 1-.9 1-2 1-2 .349-2 .776c0 .426-3.937 2.786-8.75 5.243-4.812 2.457-8.975 4.707-9.25 4.998-.455.483-7.065 4.041-17.5 9.421-2.2 1.134-4.225 2.298-4.5 2.586-.456.477-7.138 4.072-17.5 9.414-2.2 1.134-4.15 2.399-4.333 2.812-.184.413-1.196.75-2.25.75s-1.917.45-1.917 1-.9 1-2 1-2.004.337-2.008.75-1.017 1.228-2.25 1.811c-4.224 2-15.242 7.939-15.742 8.485-.476.521-15.014 8.179-19.742 10.401-1.233.579-2.246 1.39-2.25 1.803s-.908.75-2.008.75-2 .45-2 1-.9 1-2 1-2 .349-2 .776c0 .426-3.937 2.789-8.75 5.25-4.812 2.46-8.9 4.811-9.083 5.224-.184.413-1.196.75-2.25.75s-1.917.45-1.917 1-.9 1-2 1-2 .348-2 .773-3.143 2.338-6.984 4.25-6.991 3.814-7 4.227-.916.75-2.016.75-2 .45-2 1-.9 1-2 1-2 .378-2 .839c0 1.507-4.996 3.161-9.547 3.161-2.449 0-4.453-.45-4.453-1s-.697-1-1.548-1-3.411-.9-5.688-2-4.527-2-5-2-2.723-.9-5-2-4.73-2-5.452-2-1.312-.45-1.312-1-.697-1-1.548-1-3.411-.9-5.688-2-4.73-2-5.452-2-1.312-.45-1.312-1-.9-1-2-1-2-.45-2-1-1.098-1-2.441-1-2.719-.45-3.059-1-1.491-1-2.559-1-1.941-.45-1.941-1-.697-1-1.548-1-3.411-.9-5.688-2-4.73-2-5.452-2-1.312-.45-1.312-1-.668-1-1.484-1-4.271-1.35-7.677-3c-3.407-1.65-6.585-3-7.065-3-.479 0-2.733-.9-5.01-2s-4.73-2-5.452-2-1.312-.45-1.312-1-.697-1-1.548-1-3.411-.9-5.688-2-4.73-2-5.452-2-1.312-.45-1.312-1-.697-1-1.548-1-3.411-.9-5.688-2-4.73-2-5.452-2-1.312-.45-1.312-1-.697-1-1.548-1-3.411-.9-5.688-2c-5.329-2.575-6.763-2.522-6.77.25-.014 5.957-1.976 9.75-5.041 9.75-1.624 0-2.953-.45-2.953-1s-.68-1-1.511-1-3.418-.847-5.75-1.882-5.814-2.472-7.739-3.194c-9.312-3.492-9.538-3.793-9.149-12.136l.351-7.522-3.351-1.283c-13.524-5.179-12.683-5.293-13.051 1.767-.287 5.507-.422 5.764-3.172 6.078-1.579.181-3.357-.157-3.95-.75S362.987 620 362.237 620s-4.147-1.286-7.55-2.858-8.136-3.682-10.517-4.688l-4.331-1.83.188-7.062c.248-9.37.217-9.562-1.575-9.562-.852 0-3.411-.9-5.688-2s-4.73-2-5.452-2-1.312-.45-1.312-1-.68-1-1.511-1-3.643-.952-6.25-2.116a656 656 0 0 0-8.239-3.609 196 196 0 0 1-6.404-2.884c-1.597-.765-3.509-1.391-4.25-1.391-.74 0-1.346-.45-1.346-1s-.697-1-1.548-1-3.411-.9-5.688-2-4.73-2-5.452-2-1.312-.369-1.312-.819c0-.451-2.25-1.432-5-2.181s-5-1.73-5-2.181c0-.45-.788-.833-1.75-.85s-4.439-1.368-7.725-3c-3.286-1.633-6.548-2.969-7.25-2.969-.701 0-1.275-.369-1.275-.819 0-.451-2.25-1.432-5-2.181s-5-1.73-5-2.181c0-.45-.697-.819-1.548-.819s-3.411-.9-5.688-2-4.73-2-5.452-2-1.312-.45-1.312-1-.697-1-1.548-1-3.411-.9-5.688-2-4.73-2-5.452-2-1.312-.45-1.312-1-.68-1-1.511-1-3.643-.952-6.25-2.116a656 656 0 0 0-8.239-3.609 196 196 0 0 1-6.404-2.884c-1.597-.765-3.509-1.391-4.25-1.391-.74 0-1.346-.45-1.346-1s-.68-1-1.511-1-3.643-.952-6.25-2.116a656 656 0 0 0-8.239-3.609 196 196 0 0 1-6.404-2.884c-1.597-.765-3.397-1.405-4-1.422-.603-.018-3.785-1.368-7.071-3-3.286-1.633-6.548-2.969-7.25-2.969-.701 0-1.275-.45-1.275-1s-.697-1-1.548-1-3.411-.9-5.688-2-4.498-2-4.936-2-3.583-1.35-6.989-3c-3.407-1.65-6.557-3-7-3-.444 0-3.594-1.35-7-3s-6.585-3-7.065-3c-.479 0-2.733-.9-5.01-2-5.156-2.491-6.372-2.491-11.528 0-2.277 1.1-4.836 2-5.688 2S84 496.45 84 497s-.585 1-1.301 1c-1.568 0-6.683 2.296-6.683 3s5.115 3 6.683 3c.716 0 1.301.34 1.301.755 0 .713 1.063 1.17 10.25 4.411 2.063.728 3.75 1.663 3.75 2.079 0 .415.787.769 1.75.786s4.439 1.368 7.725 3c3.286 1.633 6.351 2.969 6.813 2.969s3.847 1.394 7.525 3.098 7.587 3.44 8.687 3.858 3.955 1.724 6.345 2.902 4.773 2.142 5.298 2.142c.524 0 2.816.9 5.093 2s4.73 2 5.452 2 1.312.45 1.312 1 .697 1 1.548 1 3.411.9 5.688 2 4.73 2 5.452 2 1.312.34 1.312.755c0 .713 1.063 1.17 10.25 4.411 2.063.728 3.75 1.663 3.75 2.079 0 .415.68.755 1.511.755s3.643.952 6.25 2.116a656 656 0 0 0 8.239 3.609c1.925.821 4.807 2.119 6.404 2.884s3.509 1.391 4.25 1.391c.74 0 1.346.45 1.346 1s.68 1 1.511 1c1.406 0 4.482 1.224 15.266 6.076 2.352 1.058 4.939 1.924 5.75 1.924s1.473.45 1.473 1 .9 1 2 1 2 .375 2 .833c0 .459.563.885 1.25.947 2.437.221 8.75 2.721 8.75 3.465 0 .415.787.769 1.75.786s4.439 1.368 7.725 3c3.286 1.633 6.345 2.969 6.798 2.969s2.686.9 4.963 2 4.73 2 5.452 2 1.312.45 1.312 1 .606 1 1.346 1 2.653.626 4.25 1.391 4.479 2.063 6.404 2.884 5.633 2.445 8.239 3.609 5.419 2.116 6.25 2.116 1.511.45 1.511 1 .668 1 1.484 1 4.271 1.35 7.677 3c3.407 1.65 6.585 3 7.065 3 .479 0 2.733.9 5.01 2s4.73 2 5.452 2 1.312.45 1.312 1 .697 1 1.548 1 3.411.9 5.688 2 4.73 2 5.452 2 1.312.45 1.312 1 .697 1 1.548 1 3.411.9 5.688 2 4.73 2 5.452 2 1.312.45 1.312 1 .68 1 1.511 1 3.643.952 6.25 2.116a512 512 0 0 0 7.739 3.382c1.65.695 4.688 1.993 6.75 2.883 2.063.891 5.325 2.294 7.25 3.119s5.188 2.228 7.25 3.119c4.331 1.869 8.683 3.722 14 5.959a442 442 0 0 1 8.027 3.5c2.352 1.057 4.939 1.922 5.75 1.922s1.473.45 1.473 1 .68 1 1.511 1 3.643.952 6.25 2.116a656 656 0 0 0 8.239 3.609c1.925.821 4.807 2.119 6.404 2.884s3.509 1.391 4.25 1.391c.74 0 1.346.45 1.346 1s.697 1 1.548 1 3.411.9 5.688 2 4.73 2 5.452 2 1.312.45 1.312 1 .68 1 1.511 1 3.643.952 6.25 2.116c4.424 1.976 5.964 2.642 14.489 6.265 7.201 3.061 11.391 4.905 14.154 6.228 1.597.765 3.509 1.391 4.25 1.391.74 0 1.346.45 1.346 1s.697 1 1.548 1 3.411.9 5.688 2 4.527 2 5 2 2.723.9 5 2 4.73 2 5.452 2 1.312.45 1.312 1 .697 1 1.548 1 3.411.9 5.688 2 4.73 2 5.452 2 1.312.45 1.312 1 .585 1 1.301 1c1.839 0 6.682-2.352 6.691-3.25.004-.413.908-.75 2.008-.75s2-.45 2-1 .9-1 2-1 2-.349 2-.776c0-.426 3.938-2.789 8.75-5.25 4.813-2.46 8.9-4.811 9.083-5.224.184-.413 1.196-.75 2.25-.75s1.921-.337 1.925-.75 1.017-1.228 2.25-1.811c4.056-1.921 15.232-7.928 15.742-8.463.456-.477 7.138-4.072 17.5-9.414 2.2-1.134 4.15-2.399 4.333-2.812.184-.413 1.159-.75 2.167-.75s1.983-.337 2.167-.75c.32-.721 6.918-4.545 11.575-6.708 1.233-.573 2.246-1.379 2.25-1.792S644.9 652 646 652s2.001-.337 2.002-.75 4.838-3.225 10.75-6.25c5.911-3.025 10.898-5.837 11.081-6.25.184-.413 1.196-.75 2.25-.75s1.921-.337 1.925-.75 1.017-1.245 2.25-1.851c6.018-2.955 11.276-5.975 11.575-6.649.184-.413 1.196-.75 2.25-.75s1.921-.337 1.925-.75 1.017-1.228 2.25-1.811c5.951-2.818 15.278-8.021 15.575-8.689.184-.413 1.196-.75 2.25-.75s1.921-.337 1.925-.75 1.017-1.234 2.25-1.826c4.701-2.257 19.265-9.947 19.742-10.424.638-.638 7.637-4.455 15.433-8.417 3.337-1.696 6.217-3.42 6.4-3.833s1.196-.75 2.25-.75 1.917-.342 1.917-.761c0-.418 3.038-2.33 6.75-4.25s6.9-3.826 7.083-4.239c.184-.413 1.196-.75 2.25-.75s1.921-.337 1.925-.75 1.017-1.228 2.25-1.811c5.951-2.818 15.278-8.021 15.575-8.689.184-.413 1.159-.75 2.167-.75s1.983-.378 2.167-.84c.183-.463 4.158-2.825 8.833-5.25 4.675-2.426 8.65-4.747 8.833-5.16.184-.413 1.196-.75 2.25-.75s1.917-.342 1.917-.761c0-.418 3.038-2.33 6.75-4.25s6.9-3.826 7.083-4.239c.184-.413 1.196-.75 2.25-.75s1.921-.337 1.925-.75 1.017-1.228 2.25-1.811c5.951-2.818 15.278-8.021 15.575-8.689.184-.413 1.196-.75 2.25-.75s1.921-.337 1.925-.75 1.017-1.228 2.25-1.811c5.951-2.818 15.278-8.021 15.575-8.689.184-.413 1.196-.75 2.25-.75s1.921-.337 1.925-.75 1.017-1.228 2.25-1.811c3.873-1.834 15.219-7.916 15.742-8.439.541-.541 5.83-3.458 13-7.17 2.475-1.282 4.65-2.667 4.833-3.08.184-.413 1.196-.75 2.25-.75s1.917-.45 1.917-1 .9-1 2-1 2-.356 2-.791 2.494-2.054 5.542-3.597c4.516-2.287 5.326-3.066 4.377-4.209-1.197-1.443-7.913-1.996-7.927-.653m-654.942 14c-1.331 4.56-1.839 5.845-4.05 10.236-.55 1.093-1 2.803-1 3.8 0 .998-.379 2.241-.842 2.764-.464.522-1.926 4.435-3.25 8.695s-2.745 7.747-3.158 7.75-.75 1.103-.75 2.446-.389 2.682-.865 2.976-1.135 2.195-1.464 4.225c-.611 3.76 1.014 6.25 4.127 6.326.714.018 3.161.932 5.438 2.032s4.73 2 5.452 2 1.312.45 1.312 1 .703 1 1.563 1 4.347 1.294 7.75 2.875c6.245 2.902 10.575 4.816 17.437 7.703a442 442 0 0 1 8.027 3.5c2.352 1.057 4.939 1.922 5.75 1.922s1.473.45 1.473 1 .697 1 1.548 1 3.411.9 5.688 2 4.73 2 5.452 2 1.312.45 1.312 1 .697 1 1.548 1 3.411.9 5.688 2 4.73 2 5.452 2 1.312.45 1.312 1 .68 1 1.511 1 3.643.952 6.25 2.116a656 656 0 0 0 8.239 3.609c1.925.821 4.807 2.119 6.404 2.884S373.71 598 374.202 598s2.757.9 5.034 2 4.73 2 5.452 2 1.312.45 1.312 1 .606 1 1.346 1 2.653.626 4.25 1.391 4.479 2.063 6.404 2.884 5.633 2.445 8.239 3.609 5.419 2.116 6.25 2.116 1.511.45 1.511 1 .788 1.014 1.75 1.031c.962.018 4.439 1.368 7.725 3 3.286 1.633 6.351 2.969 6.813 2.969s3.847 1.394 7.525 3.098 7.812 3.556 9.187 4.116c1.375.561 3.281 1.417 4.236 1.903s2.418.883 3.25.883c.833 0 1.514.45 1.514 1s.68 1 1.511 1 3.643.952 6.25 2.116a656 656 0 0 0 8.239 3.609c1.925.821 4.807 2.119 6.404 2.884s3.509 1.391 4.25 1.391c.74 0 1.346.45 1.346 1s.697 1 1.548 1 3.411.9 5.688 2 4.498 2 4.936 2 3.583 1.35 6.989 3c3.407 1.65 6.789 3 7.516 3s1.323.45 1.323 1 .697 1 1.548 1 3.411.9 5.688 2 4.73 2 5.452 2 1.312.45 1.312 1 .68 1 1.511 1 3.643.952 6.25 2.116a512 512 0 0 0 7.739 3.382c8.325 3.51 11.149 4.749 12.736 5.586 3.349 1.766 4.526.942 6.187-4.334 1.633-5.184 2.971-8.599 4.694-11.986.486-.955.883-2.424.883-3.264s.434-2.309.965-3.264 2.382-6.011 4.113-11.236 3.483-9.95 3.894-10.5 1.019-2.438 1.351-4.195c.538-2.84.259-3.367-2.513-4.75-1.714-.855-3.503-1.555-3.975-1.555-.471 0-2.989-.952-5.596-2.116a656 656 0 0 0-8.239-3.609 196 196 0 0 1-6.404-2.884c-1.597-.765-3.277-1.391-3.734-1.391s-3.617-1.35-7.023-3c-3.407-1.65-6.789-3-7.516-3s-1.323-.369-1.323-.819c0-.451-2.25-1.432-5-2.181s-5-1.73-5-2.181c0-.45-.697-.819-1.548-.819s-3.411-.9-5.688-2-4.618-2.014-5.202-2.031-3.751-1.368-7.037-3c-3.286-1.633-6.345-2.969-6.798-2.969s-2.686-.9-4.963-2-4.533-2-5.015-2-3.659-1.294-7.062-2.875c-3.403-1.582-7.987-3.656-10.187-4.609-2.2-.954-5.307-2.36-6.904-3.125S456.307 572 455.835 572c-.471 0-2.989-.952-5.596-2.116a617 617 0 0 0-7.989-3.5c-1.788-.761-4.937-2.105-7-2.986a466 466 0 0 0-6.25-2.617c-1.375-.558-3.281-1.412-4.236-1.898s-2.418-.883-3.25-.883c-.833 0-1.514-.45-1.514-1s-.697-1-1.548-1-3.411-.9-5.688-2-4.498-2-4.936-2-3.583-1.35-6.989-3c-3.407-1.65-6.676-3.014-7.266-3.031s-3.762-1.368-7.048-3c-3.286-1.633-6.328-2.969-6.76-2.969-.433 0-2.919-.945-5.526-2.1-2.606-1.154-5.639-2.447-6.739-2.873-1.1-.425-4.025-1.684-6.5-2.796-8.448-3.797-21.573-9.377-26.5-11.265-1.1-.422-4.133-1.712-6.739-2.866-2.607-1.155-5.419-2.1-6.25-2.1s-1.511-.45-1.511-1-.697-1-1.548-1-3.411-.9-5.688-2-4.73-2-5.452-2-1.312-.45-1.312-1-.697-1-1.548-1-3.411-.9-5.688-2-4.498-2-4.936-2-3.583-1.35-6.989-3c-8.006-3.878-8.154-3.852-9.789 1.75m665.45-1.018c-1.1.275-2.225.822-2.5 1.217s-3.425 2.251-7 4.126c-3.575 1.874-6.65 3.749-6.833 4.167-.184.417-1.196.758-2.25.758s-1.921.337-1.925.75-1.017 1.234-2.25 1.826c-7.399 3.552-19.292 10.037-19.575 10.674-.184.413-1.196.75-2.25.75s-1.917.342-1.917.761c0 .418-3.038 2.33-6.75 4.25s-6.9 3.826-7.083 4.239c-.184.413-1.196.75-2.25.75s-1.921.337-1.925.75-1.017 1.228-2.25 1.811c-5.951 2.818-15.278 8.021-15.575 8.689-.184.413-1.159.75-2.167.75s-1.983.378-2.167.84c-.183.463-4.158 2.825-8.833 5.25-4.675 2.426-8.65 4.747-8.833 5.16-.184.413-1.196.75-2.25.75s-1.921.337-1.925.75-1.017 1.228-2.25 1.811c-5.951 2.818-15.278 8.021-15.575 8.689-.184.413-1.159.75-2.167.75s-1.983.378-2.167.84c-.183.463-4.158 2.825-8.833 5.25-4.675 2.426-8.65 4.747-8.833 5.16-.184.413-1.159.75-2.167.75s-1.983.378-2.167.84c-.183.463-4.158 2.825-8.833 5.25-4.675 2.426-8.65 4.747-8.833 5.16-.184.413-1.196.75-2.25.75s-1.917.342-1.917.761c0 .418-3.038 2.33-6.75 4.25s-6.9 3.826-7.083 4.239c-.184.413-1.196.75-2.25.75s-1.921.337-1.925.75-1.017 1.228-2.25 1.811c-5.951 2.818-15.278 8.021-15.575 8.689-.184.413-1.159.75-2.167.75s-1.983.341-2.167.758c-.3.684-9.899 6.042-15.575 8.694-1.233.577-2.246 1.385-2.25 1.798s-.908.75-2.008.75-2.004.337-2.008.75-1.017 1.224-2.25 1.804c-6.453 3.032-19.286 10.044-19.575 10.696-.184.413-1.196.75-2.25.75s-1.917.349-1.917.776c0 .426-3.937 2.786-8.75 5.243-4.812 2.457-8.975 4.696-9.25 4.974-.538.546-5.772 3.435-13 7.177-2.475 1.282-4.65 2.667-4.833 3.08-.184.413-1.196.75-2.25.75s-1.917.45-1.917 1-.9 1-2 1-2 .342-2 .761c0 .418-3.038 2.33-6.75 4.25s-6.9 3.826-7.083 4.239c-.184.413-1.196.75-2.25.75s-1.921.337-1.925.75-1.017 1.234-2.25 1.826c-7.399 3.552-19.292 10.037-19.575 10.674-.184.413-1.196.75-2.25.75s-1.917.349-1.917.776c0 .426-3.937 2.789-8.75 5.25-4.812 2.46-8.9 4.811-9.083 5.224-.184.413-1.159.75-2.167.75s-1.983.373-2.167.83-3.258 2.363-6.833 4.236c-8.478 4.442-8.017 3.835-11.963 15.742-1.878 5.669-3.78 10.533-4.226 10.809s-.811 1.381-.811 2.456-.44 2.736-.977 3.691c-1.102 1.957-6.023 16.799-6.023 18.163 0 .908 4.1.219 5-.839.516-.607 5.154-3.196 13-7.258 2.475-1.282 4.65-2.667 4.833-3.08.184-.413 1.196-.75 2.25-.75s1.917-.349 1.917-.776c0-.426 3.938-2.789 8.75-5.25 4.813-2.46 8.9-4.811 9.083-5.224.184-.413 1.196-.75 2.25-.75s1.917-.342 1.917-.761c0-.418 3.038-2.33 6.75-4.25s6.9-3.826 7.083-4.239c.184-.413 1.196-.75 2.25-.75s1.921-.337 1.925-.75 1.017-1.228 2.25-1.811c5.951-2.818 15.278-8.021 15.575-8.689.184-.413 1.159-.75 2.167-.75s1.983-.337 2.167-.75c.32-.721 6.918-4.545 11.575-6.708 1.233-.573 2.246-1.379 2.25-1.792S642.9 704 644 704s2.004-.337 2.008-.75 1.017-1.228 2.25-1.811c5.951-2.818 15.278-8.021 15.575-8.689.184-.413 1.196-.75 2.25-.75s1.921-.337 1.925-.75 1.017-1.219 2.25-1.792c3.155-1.465 11.143-5.859 11.742-6.458.453-.453 6.758-3.848 17.5-9.424 2.2-1.142 4.15-2.413 4.333-2.826.184-.413 1.196-.75 2.25-.75s1.917-.342 1.917-.761c0-.418 3.038-2.327 6.75-4.242s6.975-3.71 7.25-3.989c.538-.546 5.763-3.431 13-7.178 2.475-1.282 4.65-2.667 4.833-3.08.184-.413 1.196-.75 2.25-.75s1.921-.337 1.925-.75 1.017-1.228 2.25-1.811c5.951-2.818 15.278-8.021 15.575-8.689.184-.413 1.159-.75 2.167-.75s1.983-.337 2.167-.75c.32-.721 6.918-4.545 11.575-6.708 1.233-.573 2.246-1.379 2.25-1.792S780.9 628 782 628s2.004-.337 2.008-.75 1.017-1.228 2.25-1.811c5.951-2.818 15.278-8.021 15.575-8.689.184-.413 1.159-.75 2.167-.75s1.983-.378 2.167-.84c.183-.463 4.158-2.824 8.833-5.249s8.725-4.633 9-4.909c.54-.542 5.814-3.452 13-7.172 2.475-1.282 4.65-2.667 4.833-3.08.184-.413 1.196-.75 2.25-.75s1.917-.342 1.917-.761c0-.418 3.038-2.33 6.75-4.25s6.9-3.826 7.083-4.239c.184-.413 1.196-.75 2.25-.75s1.921-.337 1.925-.75 1.017-1.228 2.25-1.811c5.951-2.818 15.278-8.021 15.575-8.689.184-.413 1.196-.75 2.25-.75s1.917-.342 1.917-.761c0-.418 3.038-2.327 6.75-4.242s6.975-3.71 7.25-3.989c.453-.46 6.668-3.81 17.5-9.432 2.2-1.142 4.15-2.413 4.333-2.826.184-.413 1.196-.75 2.25-.75s1.917-.378 1.917-.839c0-.462 1.046-1.317 2.325-1.899 1.828-.833 3.119-3.488 6.033-12.411 3.556-10.889 4.827-14.291 6.759-18.087.486-.955.883-2.616.883-3.691s.398-2.201.885-2.502c.486-.3 1.098-1.79 1.358-3.309.261-1.519.811-3.55 1.223-4.512.766-1.792.499-1.884-2.966-1.018m-879.264 9.262c-.68 1.088-1.236 2.795-1.236 3.792 0 .998-.379 2.242-.842 2.764-.464.522-1.926 4.435-3.25 8.695s-2.745 7.747-3.158 7.75-.75 1.103-.75 2.446-.45 2.719-1 3.059-1 1.69-1 3-.45 2.66-1 3-1 1.626-1 2.859-.403 2.669-.895 3.191c-2.057 2.185-2.34 7.427-.435 8.058 2.21.732 7.763 3.099 11.734 5.001 1.597.765 3.509 1.391 4.25 1.391.74 0 1.346.45 1.346 1s.697 1 1.548 1 3.411.9 5.688 2 4.73 2 5.452 2 1.312.45 1.312 1 .787 1.014 1.75 1.031c.963.018 4.439 1.368 7.725 3 3.286 1.633 6.351 2.969 6.813 2.969s3.622 1.294 7.025 2.875c3.403 1.582 7.987 3.656 10.187 4.609 2.2.954 5.307 2.36 6.904 3.125s3.509 1.391 4.25 1.391c.74 0 1.346.45 1.346 1s.59 1 1.312 1 3.175.9 5.452 2 4.836 2 5.688 2 1.548.45 1.548 1 .787 1.014 1.75 1.031c.963.018 4.439 1.368 7.725 3 3.286 1.633 6.548 2.969 7.25 2.969.701 0 1.275.45 1.275 1s.697 1 1.548 1 3.411.9 5.688 2 4.73 2 5.452 2 1.312.45 1.312 1 .703 1 1.563 1 4.347 1.294 7.75 2.875c3.403 1.582 7.987 3.656 10.187 4.609 2.2.954 5.307 2.36 6.904 3.125s3.509 1.391 4.25 1.391c.74 0 1.346.45 1.346 1s.787 1.026 1.75 1.058c.963.031 3.974 1.109 6.692 2.394 5.385 2.547 7.558 2.382 7.558-.573 0-1.048.434-2.688.965-3.643s2.377-6.011 4.102-11.236 3.541-9.928 4.035-10.45c.494-.523.898-1.958.898-3.191s.45-2.519 1-2.859 1-1.641 1-2.892.308-2.583.685-2.96c.949-.949 3.282-7.809 3.3-9.706.009-.892-1.799-2.32-4.235-3.344-2.338-.983-5.6-2.367-7.25-3.074l-6.5-2.787c-1.925-.825-5.187-2.228-7.25-3.118-2.062-.891-5.213-2.242-7-3.003a623 623 0 0 1-7.989-3.5c-2.607-1.164-5.419-2.116-6.25-2.116s-1.511-.45-1.511-1-.697-1-1.548-1-3.411-.9-5.688-2-4.73-2-5.452-2-1.312-.45-1.312-1-.697-1-1.548-1-3.411-.9-5.688-2-4.73-2-5.452-2-1.312-.45-1.312-1-.68-1-1.511-1-3.643-.952-6.25-2.116a656 656 0 0 0-8.239-3.609 196 196 0 0 1-6.404-2.884c-1.597-.765-3.509-1.391-4.25-1.391-.74 0-1.346-.45-1.346-1s-.68-1-1.511-1-3.643-.952-6.25-2.116a617 617 0 0 0-7.989-3.5 5399 5399 0 0 1-14-5.993 217 217 0 0 1-6.654-3c-1.597-.765-3.306-1.391-3.798-1.391s-2.757-.9-5.034-2-4.73-2-5.452-2S80 515.55 80 515s-.68-1-1.511-1-3.418-.864-5.75-1.919c-6.908-3.128-8.141-3.269-9.503-1.087M245.05 590.75c-.762 2.612-1.708 5.425-2.101 6.25-1.614 3.384-2.928 6.835-4.949 13-2.156 6.576-3.51 10.077-5.117 13.236-.486.955-.883 2.568-.883 3.584s-.308 2.155-.685 2.532-1.242 2.303-1.922 4.281c-1.124 3.271-1.063 3.641.686 4.098 1.056.276 1.921.9 1.921 1.386s.59.883 1.312.883c1.227 0 8.009 2.865 11.924 5.037.955.53 2.418.963 3.25.963.833 0 1.514.45 1.514 1s.697 1 1.548 1 3.411.9 5.688 2 4.73 2 5.452 2 1.312.45 1.312 1 .668 1 1.484 1 4.271 1.35 7.677 3c3.407 1.65 6.789 3 7.516 3s1.323.45 1.323 1 .68 1 1.511 1 3.643.952 6.25 2.116a656 656 0 0 0 8.239 3.609c1.925.821 4.807 2.119 6.404 2.884s3.509 1.391 4.25 1.391c.74 0 1.346.45 1.346 1s.697 1 1.548 1 3.411.9 5.688 2 4.73 2 5.452 2 1.312.45 1.312 1 .697 1 1.548 1 3.411.9 5.688 2 4.73 2 5.452 2 1.312.45 1.312 1 .668 1 1.484 1 4.271 1.35 7.677 3c3.407 1.65 6.789 3 7.516 3s1.323.45 1.323 1 .697 1 1.548 1 3.411.9 5.688 2 4.73 2 5.452 2 1.312.45 1.312 1 .668 1 1.484 1 4.271 1.35 7.677 3c3.407 1.65 6.789 3 7.516 3s1.323.45 1.323 1 .697 1 1.548 1 3.411.9 5.688 2 4.73 2 5.452 2 1.312.45 1.312 1 .668 1 1.484 1 4.271 1.35 7.677 3c3.407 1.65 6.789 3 7.516 3s1.323.45 1.323 1 .697 1 1.548 1 3.411.9 5.688 2 4.73 2 5.452 2 1.312.45 1.312 1 .697 1 1.548 1 3.411.9 5.688 2 4.73 2 5.452 2 1.312.45 1.312 1 .655 1 1.455 1 4.288 1.299 7.75 2.887c6.054 2.776 10.596 4.778 17.545 7.732 7.975 3.389 10.941 4.69 13.654 5.99 1.597.765 3.509 1.391 4.25 1.391.74 0 1.346.45 1.346 1s.668 1 1.484 1 4.271 1.35 7.677 3c3.407 1.65 6.557 3 7 3 .444 0 3.594 1.35 7 3s6.676 2.998 7.266 2.995c.59-.002 2.648-4.95 4.573-10.995s3.837-10.993 4.25-10.995c.413-.003.75-1.055.75-2.338s.303-2.636.673-3.006c.369-.37 2.57-6.35 4.889-13.289 3.948-11.813 4.097-12.649 2.327-13.111-1.039-.272-1.889-.892-1.889-1.378s-.68-.883-1.511-.883-3.643-.952-6.25-2.116a656 656 0 0 0-8.239-3.609 196 196 0 0 1-6.404-2.884c-1.597-.765-3.509-1.391-4.25-1.391-.74 0-1.346-.45-1.346-1s-.697-1-1.548-1-3.411-.9-5.688-2-4.73-2-5.452-2-1.312-.369-1.312-.819c0-.451-2.25-1.432-5-2.181s-5-1.73-5-2.181c0-.45-.655-.819-1.455-.819s-4.288-1.299-7.75-2.887-7.87-3.559-9.795-4.381-5.3-2.269-7.5-3.215c-2.2-.947-4.9-2.061-6-2.477s-3.955-1.72-6.345-2.898-4.744-2.142-5.234-2.142c-.489 0-3.676-1.35-7.082-3-3.407-1.65-6.585-3-7.065-3-.479 0-2.733-.9-5.01-2s-4.73-2-5.452-2-1.312-.45-1.312-1-.697-1-1.548-1-3.411-.9-5.688-2-4.73-2-5.452-2-1.312-.45-1.312-1-.697-1-1.548-1-3.411-.9-5.688-2-4.527-2-5-2-2.723-.9-5-2-4.73-2-5.452-2-1.312-.45-1.312-1-.703-1-1.563-1-4.347-1.295-7.75-2.878c-12.226-5.686-15.689-7.122-17.176-7.122-.831 0-1.511-.45-1.511-1s-.697-1-1.548-1-3.411-.9-5.688-2-4.73-2-5.452-2-1.312-.45-1.312-1-.655-1-1.455-1-4.513-1.399-8.25-3.109-7.92-3.562-9.295-4.116c-1.375-.555-3.281-1.406-4.236-1.892s-2.418-.883-3.25-.883c-.833 0-1.514-.45-1.514-1s-.697-1-1.548-1-3.411-.9-5.688-2-4.73-2-5.452-2-1.312-.45-1.312-1-.68-1-1.511-1-3.643-.952-6.25-2.116a656 656 0 0 0-8.239-3.609 196 196 0 0 1-6.404-2.884c-1.597-.765-3.509-1.391-4.25-1.391-.74 0-1.346-.45-1.346-1s-.68-1-1.511-1-3.531-.9-6-2l-8.978-4c-2.469-1.1-4.621-2-4.782-2s-.916 2.138-1.679 4.75M342 603.756c0 6.305-.592 5.693 9 9.31 1.925.726 4.976 2.133 6.78 3.127s3.942 1.807 4.75 1.807c.809 0 1.47.45 1.47 1s1.35 1 3 1c2.99 0 3-.02 3-5.822v-5.821l-5.25-2.279a4289 4289 0 0 0-8.75-3.787 216 216 0 0 1-6.404-2.9c-6.119-2.931-7.596-2.083-7.596 4.365m4-.231c0 .894 1.24 1.773 3 2.125 1.65.33 3 .994 3 1.475s.59.875 1.312.875 3.175.9 5.452 2 4.746 2 5.488 2c.741 0 1.888.54 2.548 1.2.933.933 1.198.767 1.192-.75-.007-1.878-3.874-4.45-6.691-4.45-.716 0-1.301-.45-1.301-1s-.59-1-1.312-1-3.175-.9-5.452-2c-4.95-2.392-7.236-2.542-7.236-.475m151.653 2.225c-.32.962-1.266 3.55-2.102 5.75-2.545 6.695-1.014 11.255 1.595 4.75.607-1.513 1.488-3.65 1.958-4.75 2.775-6.493 2.908-7.5.988-7.5-1.022 0-2.12.788-2.439 1.75m-9.928 2.71c-13.063 6.812-8.675 25.54 5.984 25.54 8.849 0 15.394-8.75 12.925-17.28-1.319-4.553-4.634-6.552-4.634-2.793 0 1.14.45 2.073 1 2.073 2.677 0 .642 9.501-2.766 12.909-2.497 2.497-10.634 2-13.652-.833-4.899-4.6-3.11-14.711 3.029-17.119 1.884-.74 3.277-1.792 3.095-2.338-.546-1.639-2.051-1.687-4.981-.159M390 623.822v5.821l4.82 2.179c2.651 1.198 5.118 2.178 5.484 2.178s3.404 1.327 6.753 2.95c9.846 4.769 10.392 4.644 10.72-2.45.262-5.677.131-6.067-2.449-7.25-1.5-.687-3.067-1.25-3.482-1.25s-3.589-1.289-7.051-2.865c-14.951-6.805-14.795-6.812-14.795.687m4-.297c0 .838 1.231 1.992 2.735 2.564s4.204 1.686 6 2.476c1.796.789 4.953 2.17 7.015 3.068 2.063.898 4.087 1.824 4.5 2.059.413.234.75-.391.75-1.389 0-1.094-1.291-2.37-3.25-3.213-1.788-.769-5.275-2.265-7.75-3.326s-5.281-2.341-6.236-2.846c-2.518-1.331-3.764-1.13-3.764.607M536 625c0 .55-.59 1-1.311 1-.722 0-2.278.9-3.459 2-1.18 1.1-2.53 2-3 2-.469 0-1.725.81-2.791 1.8-1.067.991-2.839 2.195-3.939 2.676-1.932.846-1.924.889.25 1.269 1.237.217 2.25.813 2.25 1.325 0 .511.68.93 1.511.93 1.335 0 6.362 2.001 13.237 5.268 3.055 1.451 3.568.61 2.392-3.921-.55-2.116-1.553-6.434-2.229-9.597-1.048-4.897-2.911-7.937-2.911-4.75m-18 17q0 2 2 2c1.1 0 2 .369 2 .819 0 .451 2.25 1.432 5 2.181s5 1.73 5 2.181c0 .45.81.819 1.8.819s2.301.501 2.913 1.113 1.602.81 2.2.441c2.301-1.422.886-3.285-4.163-5.477a1077 1077 0 0 1-9.489-4.179c-5.422-2.428-7.261-2.402-7.261.102"/></svg>