<svg xmlns="http://www.w3.org/2000/svg" viewBox="0 0 1024 1024"><path fill="#00e5cc" d="M254 221c0 .556-2.667 1-6 1s-6 .444-6 1c0 .55-2.25 1-5 1s-5 .45-5 1-1.548 1-3.441 1-3.719.45-4.059 1-1.941 1-3.559 1-2.941.45-2.941 1-1.35 1-3 1-3 .45-3 1-1.125 1-2.5 1-2.5.45-2.5 1-1.125 1-2.5 1-2.5.45-2.5 1-.9 1-2 1-2 .45-2 1-.9 1-2 1-2 .45-2 1-.9 1-2 1-2 .45-2 1-.702 1-1.559 1-1.301.418-.985.928-.221 1.185-1.191 1.498c-2.366.765-4.265 5.118-4.265 9.773 0 3.115-.356 3.801-1.97 3.801-4.328 0-14.026 7.431-14.029 10.75 0 .688-.451 1.25-1.001 1.25s-1 .9-1 2-.45 2-1 2-1 .9-1 2-.45 2-1 2-1 .927-1 2.059-.45 1.781-1 1.441c-.567-.351-1 .49-1 1.941 0 1.407-.45 2.559-1 2.559s-1 .9-1 2-.45 2-1 2-1 .9-1 2-.45 2-1 2-1 .9-1 2-.45 2-1 2-1 .9-1 2-.45 2-1 2-1 .873-1 1.941-.45 2.219-1 2.559-1 1.743-1 3.118c0 1.412-.435 2.231-1 1.882-.567-.351-1 .49-1 1.941 0 1.407-.45 2.559-1 2.559s-1 .9-1 2-.45 2-1 2-1 1.377-1 3.059c0 1.785-.417 2.802-1 2.441-.567-.351-1 .49-1 1.941 0 1.407-.45 2.559-1 2.559s-1 1.35-1 3-.45 3-1 3-1 1.125-1 2.5-.45 2.5-1 2.5-1 1.125-1 2.5-.45 2.5-1 2.5-1 1.35-1 3-.45 3-1 3-1 1.35-1 3-.45 3-1 3-1 1.35-1 3-.45 3-1 3-1 1.35-1 3-.45 3-1 3-1 1.35-1 3-.45 3-1 3-1 1.35-1 3-.45 3-1 3-1 1.323-1 2.941-.45 3.219-1 3.559-1 2.166-1 4.059-.45 3.441-1 3.441-1 1.323-1 2.941-.45 3.219-1 3.559-1 2.166-1 4.059-.401 3.441-.891 3.441c-.489 0-1.164 1.575-1.5 3.5l-1.219 7.009c-.336 1.93-1.011 3.757-1.5 4.059s-.89 2.072-.89 3.932-.45 3.66-1 4-1 2.365-1 4.5-.45 4.16-1 4.5-1 2.391-1 4.559-.45 3.941-1 3.941-1 1.773-1 3.941-.45 4.219-1 4.559-1 2.616-1 5.059S97.55 468 97 468s-1 1.773-1 3.941-.45 4.219-1 4.559-1 3.066-1 6.059-.405 5.441-.899 5.441c-.853 0-1.426 3.053-2.72 14.5-.311 2.75-.974 5.428-1.473 5.95S88 511.533 88 514.141s-.45 5.019-1 5.359-1 3.04-1 6-.45 5.66-1 6-1 3.265-1 6.5-.45 6.16-1 6.5-1 3.876-1 7.859-.416 7.668-.925 8.191c-.961.988-1.778 9.524-2.626 27.45-.273 5.775-.904 11.4-1.402 12.5-2.889 6.375-2.787 93.5.109 93.5.464 0 .844 3.798.844 8.441s.45 8.719 1 9.059 1 2.841 1 5.559.45 4.941 1 4.941 1 1.998 1 4.441.45 4.719 1 5.059 1 1.941 1 3.559.45 2.941 1 2.941 1 1.548 1 3.441.45 3.719 1 4.059 1 1.491 1 2.559.45 1.941 1 1.941 1 .9 1 2 .45 2 1 2 1 1.152 1 2.559c0 1.451.433 2.292 1 1.941.55-.34 1 .309 1 1.441S94.45 762 95 762s1 .9 1 2 .45 2 1 2 1 .631 1 1.402c0 1.901 19.891 21.783 21.066 21.057.514-.317.934-.184.934.296 0 1.21 7.765 5.245 10.095 5.245 1.048 0 1.905.45 1.905 1s1.35 1 3 1 3 .45 3 1 1.323 1 2.941 1 3.219.45 3.559 1 2.166 1 4.059 1 3.441.45 3.441 1 2.25 1 5 1 5 .45 5 1 2.277 1 5.059 1c3.118 0 4.822.384 4.441 1-.383.62 1.47 1 4.882 1 3.025 0 5.778.45 6.118 1s3.265 1 6.5 1 6.16-.45 6.5-1 1.491-1 2.559-1 1.941-.45 1.941-1 .702-1 1.559-1 1.281-.45.941-1-.001-1 .754-1c1.542 0 6.746-5.079 6.746-6.584 0-.536.9-1.623 2-2.416s2-2.269 2-3.28.45-1.56 1-1.22 1-.084 1-.941.45-1.559 1-1.559 1-.9 1-2 .45-2 1-2 1-.9 1-2 .45-2 1-2 1-.975 1-2.167.293-1.873.652-1.515c.851.852 3.348-3.988 3.348-6.491 0-1.07.45-1.667 1-1.327.567.351 1-.49 1-1.941 0-1.407.45-2.559 1-2.559s1-.9 1-2 .45-2 1-2 1-.873 1-1.941.45-2.219 1-2.559 1-1.716 1-3.059.45-2.441 1-2.441 1-.873 1-1.941.45-2.219 1-2.559 1-1.743 1-3.118c0-1.412.435-2.231 1-1.882s1-.47 1-1.882c0-1.375.45-2.778 1-3.118s1-1.716 1-3.059.45-2.441 1-2.441 1-1.125 1-2.5.45-2.5 1-2.5 1-1.125 1-2.5.45-2.5 1-2.5 1-1.35 1-3 .45-3 1-3 1-1.377 1-3.059c0-1.785.417-2.802 1-2.441.565.349 1-.47 1-1.882 0-1.375.45-2.778 1-3.118s1-1.941 1-3.559.45-2.941 1-2.941 1-1.125 1-2.5.45-2.5 1-2.5 1-1.35 1-3 .45-3 1-3 1-1.35 1-3 .45-3 1-3 1-1.35 1-3 .45-3 1-3 1-1.35 1-3 .45-3 1-3 1-1.35 1-3 .45-3 1-3 1-1.35 1-3 .45-3 1-3 1-1.377 1-3.059c0-1.785.417-2.802 1-2.441.567.351 1-.49 1-1.941 0-1.407.45-2.559 1-2.559s1-1.35 1-3 .45-3 1-3 1-.873 1-1.941.45-2.219 1-2.559 1-1.491 1-2.559.45-1.941 1-1.941 1-.675 1-1.5.45-1.5 1-1.5 1-.9 1-2 .45-2 1-2 1-.675 1-1.5.45-1.5 1-1.5 1-.576 1-1.279c0-.704.9-1.928 2-2.721s2.001-1.905 2.001-2.471c.002-1.582 4.18-5.878 7.249-7.454 1.512-.777 2.75-1.787 2.75-2.244s.702-.831 1.559-.831 1.281-.45.941-1 .309-1 1.441-1 2.059-.45 2.059-1 .9-1 2-1 2-.45 2-1 .9-1 2-1 2-.45 2-1 1.35-1 3-1 3-.45 3-1 2.25-1 5-1 5-.45 5-1c0-.571 3-1 7-1s7 .429 7 1 3 1 7 1c4.143 0 7 .421 7 1.032 0 .814 179.061.847 271.5.05 3.3-.028 9.802.218 14.448.548 4.933.35 10.549.135 13.5-.518 2.779-.615 9.274-1.202 14.434-1.305 5.278-.106 8.559-.511 7.5-.927-1.035-.407 3.181-.771 9.368-.81 6.88-.043 11.25.318 11.25.93 0 .55 1.155 1 2.566 1s3.412.453 4.447 1.007c1.034.554 3.03 1.102 4.434 1.218s2.553.563 2.553.993.801.782 1.779.782c.979 0 2.428.9 3.221 2s2.021 2 2.73 2c.708 0 2.701 1.35 4.427 3 3.343 3.194 7.843 4.055 7.843 1.5 0-.825-.43-1.5-.955-1.5s-2.079-1.125-3.454-2.5-3.096-2.5-3.825-2.5c-.728 0-1.966-.89-2.75-1.978-1.048-1.453-1.632-1.652-2.205-.75-.613.964-.784.959-.796-.022-.008-.687-.722-1.25-1.586-1.25-1.979 0-4.569-2.509-3.631-3.518.386-.416.027-.538-.798-.273-.825.266-2.85.039-4.5-.503-8.005-2.633-26.645-3.469-38.5-1.728-11.121 1.634-47.785 2.445-49.413 1.094-.804-.667-40.68-.989-117.652-.949-64.039.033-115.31.425-113.935.869 1.612.522-1.473.844-8.691.908-6.495.058-11.45-.32-11.809-.9-.34-.55-3.966-1-8.059-1-4.294 0-7.441-.423-7.441-1 0-.625-6-1-16-1s-16 .375-16 1c0 .55-1.602 1-3.559 1-2.118 0-3.309.405-2.941 1 .361.583-.656 1-2.441 1-1.682 0-3.059.45-3.059 1s-.9 1-2 1-2 .45-2 1-.9 1-2 1-2 .45-2 1-.9 1-2 1-2 .45-2 1-.702 1-1.559 1-1.281.45-.941 1-.143 1-1.074 1c-.93 0-2.498.93-3.483 2.066s-2.163 2.148-2.617 2.25-.714.521-.576.934c.137.413-.425.75-1.25.75s-1.512.337-1.527.75c-.047 1.34-7.715 9.175-8.353 8.537-.341-.341-.62.156-.62 1.105s-.45 1.448-1 1.108-1 .084-1 .941-.374 1.559-.831 1.559-1.467 1.237-2.243 2.75c-.777 1.513-2.232 3.503-3.235 4.424s-1.793 1.934-1.757 2.25c.227 1.987-.057 2.618-.934 2.076-.558-.345-1 .416-1 1.72 0 1.286-.9 2.987-2 3.78s-2 2.242-2 3.221c0 .978-.45 1.779-1 1.779s-1 .927-1 2.059-.45 1.781-1 1.441-1 .271-1 1.358c0 1.086-.338 2.125-.75 2.309-1.217.54-7.25 12.952-7.25 14.914 0 .991.45 2.079 1 2.419.569.352 1-.509 1-2s.431-2.352 1-2c.55.34 1-.309 1-1.441s.338-2.063.75-2.067c.898-.009 3.25-4.852 3.25-6.691 0-.716.366-1.301.813-1.301.448 0 1.432-1.575 2.187-3.5s1.739-3.5 2.187-3.5.813-.927.813-2.059.45-1.781 1-1.441 1-.224 1-1.252.9-2.837 2-4.018 2-2.867 2-3.747c0-.881.45-1.323 1-.983s1 .117 1-.495c0-.613 1.275-2.478 2.833-4.145 1.979-2.118 2.834-2.554 2.834-1.446 0 .872-.375 1.586-.834 1.586s-.833.927-.833 2.059-.45 1.781-1 1.441c-.567-.351-1 .49-1 1.941 0 1.407-.45 2.559-1 2.559s-1 1.125-1 2.5-.45 2.5-1 2.5-1 1.125-1 2.5-.45 2.5-1 2.5-1 1.377-1 3.059c0 1.785-.417 2.802-1 2.441-.596-.369-1 .843-1 3s-.404 3.369-1 3-1 .843-1 3-.404 3.369-1 3c-.583-.361-1 .656-1 2.441 0 1.682-.45 3.059-1 3.059s-1 1.575-1 3.5-.45 3.5-1 3.5-1 .873-1 1.941-.45 2.219-1 2.559-1 1.69-1 3-.45 2.66-1 3-1 1.968-1 3.618c0 1.745-.418 2.742-1 2.382-.583-.361-1 .656-1 2.441 0 1.682-.45 3.059-1 3.059s-1 1.35-1 3-.45 3-1 3-1 1.35-1 3-.45 3-1 3-1 1.35-1 3-.45 3-1 3-1 1.377-1 3.059c0 1.785-.417 2.802-1 2.441-.567-.351-1 .49-1 1.941 0 1.407-.45 2.559-1 2.559s-1 1.35-1 3-.45 3-1 3-1 .9-1 2-.45 2-1 2-1 1.377-1 3.059c0 1.785-.417 2.802-1 2.441-.567-.351-1 .49-1 1.941 0 1.407-.45 2.559-1 2.559s-1 1.125-1 2.5-.45 2.5-1 2.5-1 1.125-1 2.5-.45 2.5-1 2.5-1 .9-1 2-.45 2-1 2-1 .9-1 2-.45 2-1 2-1 .873-1 1.941-.45 2.219-1 2.559-1 1.491-1 2.559-.338 1.943-.75 1.945-1.875 2.475-3.25 5.496-2.838 5.494-3.25 5.496-.75.931-.75 2.063-.45 1.781-1 1.441-1 .084-1 .941-.34 1.559-.756 1.559-1.348 1.339-2.073 2.976c-.724 1.636-1.847 2.874-2.494 2.75s-1.081.288-.963.917c.118.628-.669 1.374-1.75 1.656-2.062.54-2.818-1.653-.964-2.799.55-.34 1-1.69 1-3s.45-2.66 1-3 1-1.716 1-3.059.45-2.441 1-2.441 1-1.323 1-2.941.45-3.219 1-3.559 1-1.69 1-3 .45-2.66 1-3 1-1.716 1-3.059.45-2.441 1-2.441 1-1.35 1-3 .45-3 1-3 1-1.35 1-3 .45-3 1-3 1-1.35 1-3 .45-3 1-3 1-1.35 1-3 .45-3 1-3 1-1.377 1-3.059c0-1.785.417-2.802 1-2.441.565.349 1-.47 1-1.882 0-1.375.45-2.778 1-3.118s1-1.716 1-3.059.45-2.441 1-2.441 1-.873 1-1.941.45-2.219 1-2.559 1-1.716 1-3.059.45-2.441 1-2.441 1-1.377 1-3.059c0-1.785.417-2.802 1-2.441.567.351 1-.49 1-1.941 0-1.407.45-2.559 1-2.559s1-.873 1-1.941.45-2.219 1-2.559 1-1.716 1-3.059.45-2.441 1-2.441 1-.9 1-2 .45-2 1-2 1-1.377 1-3.059c0-1.785.417-2.802 1-2.441.567.351 1-.49 1-1.941 0-1.407.45-2.559 1-2.559s1-.9 1-2 .45-2 1-2 1-1.125 1-2.5.45-2.5 1-2.5c1.302 0 1.302-4.695 0-5.5-.567-.351-1 .49-1 1.941 0 1.407-.45 2.559-1 2.559s-1 .9-1 2-.45 2-1 2-1 .9-1 2-.45 2-1 2-1 .9-1 2-.45 2-1 2-1 .873-1 1.941-.45 2.219-1 2.559-1 1.716-1 3.059-.45 2.441-1 2.441-1 .9-1 2-.45 2-1 2-1 1.377-1 3.059c0 1.785-.417 2.802-1 2.441-.567-.351-1 .49-1 1.941 0 1.407-.45 2.559-1 2.559s-1 1.377-1 3.059c0 1.785-.417 2.802-1 2.441s-1 .656-1 2.441c0 1.682-.45 3.059-1 3.059s-1 1.125-1 2.5-.45 2.5-1 2.5-1 .873-1 1.941-.45 2.219-1 2.559-1 1.716-1 3.059-.45 2.441-1 2.441-1 1.35-1 3-.45 3-1 3-1 1.377-1 3.059c0 1.785-.417 2.802-1 2.441-.565-.349-1 .47-1 1.882 0 1.375-.45 2.778-1 3.118s-1 1.69-1 3-.45 2.66-1 3-1 1.69-1 3-.45 2.66-1 3-1 1.69-1 3-.45 2.66-1 3-1 1.69-1 3-.45 2.66-1 3-1 1.69-1 3-.45 2.66-1 3-1 1.69-1 3-.45 2.66-1 3-1 1.679-1 2.976-.446 2.507-.991 2.691c-.546.183-1.094 1.57-1.218 3.083-.125 1.513-.579 2.75-1.009 2.75s-.782.707-.782 1.571c0 3.418-2.609 4.429-11.429 4.429-5.047 0-8.571-.411-8.571-1 0-.55-1.773-1-3.941-1s-4.219-.45-4.559-1-2.643-1-5.118-1c-2.745 0-4.259-.39-3.882-1 .381-.616-1.323-1-4.441-1-2.782 0-5.059-.45-5.059-1s-1.05-1-2.333-1-2.627-.293-2.985-.651c-.887-.887 2.405-3.278 4.568-3.317.963-.018 1.75-.482 1.75-1.032s.702-1 1.559-1 1.281-.45.941-1 .126-1 1.035-1 1.886-.895 2.172-1.989.919-1.742 1.407-1.441c.487.302.886-.154.886-1.011s.45-1.559 1-1.559 1-.927 1-2.059.45-1.781 1-1.441c.569.352 1-.509 1-2s.431-2.352 1-2 1-.509 1-2 .431-2.352 1-2c.567.351 1-.49 1-1.941 0-1.407.45-2.559 1-2.559s1-1.125 1-2.5.45-2.5 1-2.5 1-1.575 1-3.5.45-3.5 1-3.5 1-1.323 1-2.941.45-3.219 1-3.559 1-2.193 1-4.118c0-2.079.406-3.249 1-2.882.595.368 1-.823 1-2.941 0-1.957.45-3.559 1-3.559s1-1.575 1-3.5.45-3.5 1-3.5 1-1.602 1-3.559c0-2.118.405-3.309 1-2.941.596.369 1-.843 1-3s.404-3.369 1-3c.595.368 1-.823 1-2.941 0-1.957.45-3.559 1-3.559s1-1.35 1-3 .45-3 1-3 1-1.35 1-3 .45-3 1-3 1-1.35 1-3 .45-3 1-3 1-1.35 1-3 .45-3 1-3 1-1.35 1-3 .45-3 1-3 1-1.35 1-3 .45-3 1-3 1-1.377 1-3.059c0-1.785.417-2.802 1-2.441.565.349 1-.47 1-1.882 0-1.375.45-2.778 1-3.118s1-1.716 1-3.059.45-2.441 1-2.441 1-1.35 1-3 .45-3 1-3 1-1.377 1-3.059c0-1.785.417-2.802 1-2.441.567.351 1-.49 1-1.941 0-1.407.45-2.559 1-2.559s1-1.377 1-3.059c0-1.785.417-2.802 1-2.441.567.351 1-.49 1-1.941 0-1.407.45-2.559 1-2.559s1-1.377 1-3.059c0-1.785.417-2.802 1-2.441.567.351 1-.49 1-1.941 0-1.407.45-2.559 1-2.559s1-1.125 1-2.5.45-2.5 1-2.5 1-1.125 1-2.5.45-2.5 1-2.5 1-.873 1-1.941.45-2.219 1-2.559 1-1.743 1-3.118c0-1.412.435-2.231 1-1.882.567.351 1-.49 1-1.941 0-1.407.45-2.559 1-2.559s1-.9 1-2 .45-2 1-2 1-.873 1-1.941.45-2.219 1-2.559 1-1.491 1-2.559.45-1.941 1-1.941 1-1.152 1-2.559c0-1.451.433-2.292 1-1.941.569.352 1-.509 1-2s.431-2.352 1-2 1-.509 1-2 .431-2.352 1-2 1-.509 1-2 .431-2.352 1-2c.567.351 1-.49 1-1.941 0-1.407.45-2.559 1-2.559s1-.9 1-2 .45-2 1-2 1-.9 1-2 .45-2 1-2 1-.927 1-2.059.45-1.781 1-1.441c.569.352 1-.509 1-2s.431-2.352 1-2 1-.509 1-2c0-1.44.374-2.387.831-2.104s1.441-1.041 2.187-2.941 1.721-3.455 2.169-3.455.813-.9.813-2 .45-2 1-2 1-.927 1-2.059.45-1.781 1-1.441c.558.345 1-.416 1-1.72 0-1.286.9-2.987 2-3.78s2-2.242 2-3.221c0-.978.45-1.779 1-1.779s1-.675 1-1.5.45-1.5 1-1.5 1-.675 1-1.5.45-1.5 1-1.5 1-.9 1-2 .45-2 1-2 1-.927 1-2.059.45-1.781 1-1.441 1-.084 1-.941.45-1.559 1-1.559 1-.9 1-2 .45-2 1-2 1-.59 1-1.311c0-.722.9-2.278 2-3.459 1.1-1.18 2-2.615 2-3.188s.45-1.042 1-1.042 1-.675 1-1.5.45-1.5 1-1.5 1-.927 1-2.059.45-1.781 1-1.441 1 .122 1-.485c0-.606 1.101-2.29 2.446-3.741s2.22-3.006 1.941-3.456c-.278-.45.154-.818.96-.818.973 0 1.29.672.943 2-.293 1.118-.031 2 .593 2 .615 0 1.117-.873 1.117-1.941s.45-2.219 1-2.559 1-1.743 1-3.118c0-1.412.435-2.231 1-1.882.567.351 1-.49 1-1.941 0-1.407.374-2.559.831-2.559s1.467-1.238 2.243-2.75c.777-1.512 2.203-3.478 3.169-4.367.966-.89 1.757-2.352 1.757-3.25s.405-1.521.9-1.383.834.025.752-.25 1.314-2.029 3.1-3.898 3.248-3.786 3.248-4.259 1.35-2.274 3-4c1.65-1.727 3-3.555 3-4.063 0-1.368 2.664-3.783 3.381-3.066.34.341.619-.031.619-.827s.9-2.094 2-2.887 2-2.017 2-2.721c0-.703.45-1.279 1-1.279s1-.702 1-1.559.45-1.281 1-.941 1-.084 1-.941.45-1.559 1-1.559 1-.801 1-1.779c0-.979.9-2.428 2-3.221s2-2.269 2-3.28.45-1.56 1-1.22c.569.352 1-.509 1-2s.431-2.352 1-2 1-.509 1-2 .431-2.352 1-2c.567.351 1-.49 1-1.941 0-1.407.45-2.559 1-2.559s1-1.827 1-4.059c0-2.451.396-3.814 1-3.441.592.366 1-.767 1-2.774 0-1.866.269-3.662.598-3.99 1.119-1.12 3.402.472 3.402 2.371 0 1.041.45 1.893 1 1.893s1 .694 1 1.542.9 2.508 2 3.688 2 2.737 2 3.459c0 .721.45 1.311 1 1.311s1 .702 1 1.559.337 1.371.75 1.141c.989-.552 7.288 5.929 6.514 6.702-.328.329.153.598 1.069.598.917 0 1.667.354 1.667.787s.9.855 2 .938c2.89.218 2.633-.214-4-6.725-3.3-3.239-6-6.391-6-7.004s-.45-.836-1-.496-1-.309-1-1.441-.45-2.059-1-2.059-1-.702-1-1.559-.45-1.281-1-.941c-.569.352-1-.509-1-2s-.431-2.352-1-2-1-.509-1-2-.431-2.352-1-2c-.596.369-1-.843-1-3s-.404-3.369-1-3c-.625.386-1-1.656-1-5.441 0-3.373-.443-6.059-1-6.059-.55 0-1-2.448-1-5.441s-.45-5.719-1-6.059-1-2.643-1-5.118c0-2.745-.39-4.259-1-3.882-.622.385-1.006-1.576-1.015-5.191-.011-4.119-.298-5.373-.985-4.309s-.974-.169-.985-4.25c-.008-3.163-.465-5.75-1.015-5.75s-1-2.277-1-5.059c0-3.118-.384-4.822-1-4.441-.617.381-1-1.343-1-4.5s-.383-4.881-1-4.5c-.61.377-1-1.137-1-3.882 0-2.475-.45-4.778-1-5.118s-1-2.643-1-5.118c0-2.745-.39-4.259-1-3.882-.616.381-1-1.323-1-4.441 0-2.782-.45-5.059-1-5.059s-1-2.25-1-5-.45-5-1-5-1-2.25-1-5 .45-5 1-5 1-1.125 1-2.5.45-2.5 1-2.5 1-.627 1-1.393c0-1.162 1.985-2.607 3.582-2.607.23 0 .418 1.125.418 2.5s-.45 2.5-1 2.5c-.563 0-1 2.814-1 6.441 0 3.543.45 6.719 1 7.059s1 2.391 1 4.559.45 3.941 1 3.941 1 2.25 1 5 .45 5 1 5 1 2.052 1 4.559c0 2.785.389 4.319 1 3.941.618-.382 1.006 1.41 1.015 4.691.011 3.797.292 4.882.985 3.809.687-1.064.974.19.985 4.309.009 3.615.393 5.576 1.015 5.191s1 1.509 1 5 .379 5.384 1 5c.617-.381 1 1.343 1 4.5s.383 4.881 1 4.5c.616-.381 1 1.303 1 4.382 0 2.75.45 5.278 1 5.618s1 2.643 1 5.118c0 2.745.39 4.259 1 3.882.616-.381 1 1.323 1 4.441 0 2.782.45 5.059 1 5.059s1.007 2.363 1.015 5.25c.011 3.758.291 4.824.985 3.75.928-1.436 1.594 2.901 1.052 6.85-.102.743.294 1.054.881.691.624-.385 1.067.196 1.067 1.4 0 1.132.45 2.059 1 2.059s1 .9 1 2 .45 2 1 2 1 .801 1 1.779c0 .979.9 2.428 2 3.221s2 2.092 2 2.887c0 .796.28 1.167.622.825s2.331 1.158 4.421 3.333S381.58 398 382.481 398c.983 0 1.352.461.924 1.155-.442.714-.275.883.438.442 1.119-.692 7.319 2.143 7.99 3.653.184.413 2.348.75 4.809.75 2.729 0 4.235.39 3.858 1-.406.657 8.176 1 25 1s25.406-.343 25-1c-.364-.589.743-1.006 2.691-1.015 2.504-.012 2.944-.251 1.809-.985-.875-.566-13.061-.976-29.25-.985-17.823-.01-27.75-.373-27.75-1.015 0-.55-2.025-1-4.5-1s-4.5-.45-4.5-1-.702-1-1.559-1-1.281-.45-.941-1-.196-1.014-1.191-1.032c-2.209-.039-5.526-2.417-4.627-3.317.358-.358.106-.651-.561-.651-1.19 0-6.621-4.884-6.621-5.955 0-.3-.337-.432-.75-.295-.413.138-.75-.65-.75-1.75s-.45-2-1-2-1-.702-1-1.559-.45-1.281-1-.941c-.569.352-1-.509-1-2s-.431-2.352-1-2c-1.028.635-1.405-1.114-1.186-5.5.113-2.27.042-2.316-.775-.5-.665 1.481-.917.509-.969-3.75-.038-3.163-.52-5.75-1.07-5.75s-1-2.25-1-5-.45-5-1-5-1-1.8-1-4-.45-4-1-4-1-2.277-1-5.059c0-3.118-.384-4.822-1-4.441-.617.381-1-1.343-1-4.5s-.383-4.881-1-4.5c-.616.381-1-1.323-1-4.441 0-2.782-.45-5.059-1-5.059s-1.007-2.363-1.015-5.25c-.011-3.758-.291-4.824-.985-3.75-.682 1.055-.978-.43-1-5s-.318-6.055-1-5c-.687 1.064-.974-.19-.985-4.309-.009-3.615-.393-5.576-1.015-5.191s-1-1.509-1-5-.379-5.384-1-5c-.61.377-1-1.137-1-3.882 0-2.475-.45-4.778-1-5.118s-1-3.741-1-7.559c0-3.961.429-6.941 1-6.941.55 0 1-1.377 1-3.059 0-1.785.417-2.802 1-2.441.55.34 1 .126 1-.474 0-1.657 6.719-8.026 8.467-8.026.843 0 1.533-.45 1.533-1 0-.556 2.667-1 6-1 3.3 0 6-.421 6-.936 0-.514 4.613-1.182 10.25-1.484 5.637-.301 16.55-1.014 24.25-1.583 7.7-.57 22.325-1.279 32.5-1.576s18.927-.963 19.45-1.481c.575-.569 24.454-.884 60.5-.798 32.752.078 57.75.49 55.55.915-2.896.56-1.102.758 6.5.717 22.472-.121 33.555.341 31.5 1.312-1.364.645.178.769 4.855.391 8.608-.696 28.21.581 24.645 1.605l-2.5.719 2.5.026c1.375.015 4.884-.312 7.798-.727s5.528-.382 5.809.073 2.145.827 4.142.827c4.816 0 15.251 2.189 15.251 3.2 0 .44.675.8 1.5.8s1.5.45 1.5 1c0 1.681 2.96 1.115 5.23-1l2.147-2h-2.688c-1.479 0-2.689-.45-2.689-1s-1.35-1-3-1-3-.358-3-.796c0-.437-1.584-.902-3.521-1.032-1.937-.131-4.524-.596-5.75-1.034s-5.339-.892-9.14-1.008c-3.8-.116-7.4-.53-8-.92-1.204-.785-17.338-1.965-39.589-2.895-9.394-.393-13.443-.866-11.5-1.342 1.65-.405-9.6-.849-25-.986-15.4-.138-26.425-.582-24.5-.987s-11.913-.796-30.75-.868c-21.48-.083-34.25.229-34.25.835 0 .584-10.008 1.169-25.25 1.477-38.131.77-55.148 1.56-56.2 2.609-.523.521-6.062.947-12.309.947-7.318 0-11.139.356-10.741 1 .392.635-2.323 1-7.441 1-4.706 0-8.059.416-8.059 1 0 .55-1.602 1-3.559 1-2.118 0-3.309.405-2.941 1 .392.635-2.323 1-7.441 1-4.706 0-8.059.416-8.059 1 0 .564-2.833 1-6.5 1s-6.5.436-6.5 1c0 .55-2.052 1-4.559 1-2.785 0-4.319-.389-3.941-1 .351-.567-.49-1-1.941-1-1.407 0-2.559-.45-2.559-1 0-.556-2.667-1-6-1-5.333 0-6-.222-6-2 0-1.1-.45-2-1-2s-1-1.152-1-2.559-.399-2.313-.886-2.011c-.488.301-1.121-.347-1.407-1.441-.399-1.527-1.368-1.989-4.172-1.989-2.181 0-3.404-.403-3.035-1 .403-.651-5.156-1-15.941-1-10.373 0-16.559.374-16.559 1m496.25-.226c-4.254.69-2.242 1.805 3.676 2.039 3.26.129 6.212-.227 6.559-.79.348-.562.044-1.052-.676-1.087s-2.659-.168-4.309-.295-4.013-.067-5.25.133m-14.723 2.182c-.325.526-1.171.734-1.881.462-.716-.275-1.804.633-2.446 2.042l-1.156 2.537 3.728-2.341c2.05-1.288 4.403-2.602 5.228-2.92 1.027-.396.809-.603-.691-.657-1.205-.043-2.457.351-2.782.877M257 225c-.825.533-4.312.976-7.75.985-3.49.008-6.25.457-6.25 1.015 0 .55-2.025 1-4.5 1s-4.5.45-4.5 1-1.8 1-4 1-4 .45-4 1-1.323 1-2.941 1-3.219.45-3.559 1-1.69 1-3 1-2.66.45-3 1-1.716 1-3.059 1-2.441.45-2.441 1-.9 1-2 1-2 .45-2 1-.9 1-2 1-2 .45-2 1-.9 1-2 1-2 .45-2 1-.695 1-1.545 1c-2.186 0-8.455 7.034-8.455 9.486 0 .283 2.277.514 5.059.514 3.118 0 4.822-.384 4.441-1-.368-.595.823-1 2.941-1 1.957 0 3.559-.45 3.559-1s1.8-1 4-1 4-.45 4-1 1.323-1 2.941-1 3.219-.45 3.559-1 2.391-1 4.559-1 3.941-.45 3.941-1 1.935-1 4.3-1 4.727-.406 5.25-.903c.892-.848 3.789-1.341 15.95-2.716 2.75-.311 5.428-.974 5.95-1.473s3.785-.908 7.25-.908c3.533 0 6.3-.439 6.3-1 0-.571 2.98-1 6.941-1 3.818 0 7.219-.45 7.559-1s2.365-1 4.5-1 4.074-.338 4.308-.75c.902-1.589-3.026-6.759-5.384-7.085-1.333-.184-2.852-.746-3.374-1.25-1.27-1.223-25.642-1.148-27.55.085m519.757.171c-.758.482.204.804 2.428.814 2.027.008 4.899.476 6.382 1.04 3.448 1.311 7.713.271 5.035-1.228-.948-.53-2.395-.707-3.215-.392-.881.338-1.228.147-.849-.467.755-1.221-7.812-1.017-9.781.233m-154.995 1.536c1.244.239 3.044.23 4-.02s-.062-.446-2.262-.435-2.982.216-1.738.455m23.488 1.982c.962.252 2.538.252 3.5 0 .962-.251.175-.457-1.75-.457s-2.712.206-1.75.457M808 233c0 .55 1.35 1 3 1s3 .45 3 1 .9 1 2 1 2-.45 2-1-.9-1-2-1-2-.45-2-1-1.35-1-3-1-3 .45-3 1m-74.45 3.898c.522.493 2.75 1.132 4.95 1.418s5.688.76 7.75 1.051 3.75.128 3.75-.361c0-.49-.895-.719-1.988-.508-1.094.21-2.637-.266-3.429-1.058-.889-.889-3.456-1.44-6.712-1.44-3.152 0-4.889.361-4.321.898m-39.05 1.547c1.65.806 4.013 1.485 5.25 1.51 1.352.027 2.25.667 2.25 1.604 0 .857.45 1.281 1 .941s1-.141 1 .441-.378 1.059-.839 1.059c-.462 0-1.37 1.238-2.017 2.75-1.048 2.45-1.021 2.552.249.933.784-.999 1.655-1.674 1.936-1.5.281.175 1.675-.695 3.098-1.933 1.424-1.238 2.935-2.25 3.358-2.25s1.541-.9 2.483-2c1.645-1.921 1.617-2-.719-2-1.337 0-2.709.45-3.049 1s-1.068 1-1.618 1-.722-.45-.382-1c.377-.609-1.115-1-3.816-1-2.439 0-5.953-.229-7.809-.51l-3.375-.509zM296 239c0 .583-3.314 1-7.941 1-4.368 0-8.219.45-8.559 1s-3.993 1-8.118 1c-4.745 0-7.273.367-6.882 1 .388.628-1.823 1-5.941 1-3.706 0-6.559.435-6.559 1 0 .55-2.223 1-4.941 1s-5.219.45-5.559 1-2.59 1-5 1-4.66.45-5 1-2.59 1-5 1-4.66.45-5 1-2.14 1-4 1-3.66.45-4 1-2.166 1-4.059 1-3.441.45-3.441 1-1.323 1-2.941 1-3.219.45-3.559 1-2.166 1-4.059 1-3.441.45-3.441 1-1.35 1-3 1-3 .45-3 1-1.35 1-3 1-3 .45-3 1-.72 1-1.6 1c-2.076 0-8.4 6.324-8.4 8.4 0 .88-.45 1.6-1 1.6s-1 .863-1 1.917-.338 2.066-.75 2.25c-1.08.48-5.25 8.762-5.25 10.428 0 .773-.45 1.405-1 1.405s-1 .9-1 2-.45 2-1 2-1 .9-1 2-.45 2-1 2-1 .9-1 2-.45 2-1 2-1 .9-1 2-.45 2-1 2-1 1.152-1 2.559c0 1.451-.433 2.292-1 1.941-.583-.361-1 .656-1 2.441 0 1.682-.45 3.059-1 3.059s-1 .9-1 2-.45 2-1 2-1 1.098-1 2.441-.45 2.719-1 3.059-1 1.491-1 2.559-.45 1.941-1 1.941-1 1.098-1 2.441-.45 2.719-1 3.059-1 1.491-1 2.559-.45 1.941-1 1.941-1 1.35-1 3-.45 3-1 3-1 1.125-1 2.5-.45 2.5-1 2.5-1 1.377-1 3.059c0 1.785-.417 2.802-1 2.441s-1 .656-1 2.441c0 1.682-.45 3.059-1 3.059s-1 1.35-1 3-.45 3-1 3-1 1.602-1 3.559c0 2.118-.405 3.309-1 2.941s-1 .823-1 2.941c0 1.957-.45 3.559-1 3.559s-1 1.575-1 3.5-.45 3.5-1 3.5-1 1.35-1 3-.45 3-1 3-1 1.548-1 3.441-.45 3.719-1 4.059-1 1.941-1 3.559-.45 2.941-1 2.941-1 1.548-1 3.441-.45 3.719-1 4.059-1 2.14-1 4-.45 3.66-1 4-1 2.166-1 4.059-.45 3.441-1 3.441-1 1.773-1 3.941-.45 4.219-1 4.559-1 2.391-1 4.559-.45 3.941-1 3.941-1 1.8-1 4-.45 4-1 4-1 1.998-1 4.441-.45 4.719-1 5.059-1 2.59-1 5-.45 4.66-1 5-1 2.391-1 4.559-.408 3.941-.907 3.941-1.154 2.363-1.456 5.25c-1.017 9.751-1.747 14.242-2.642 16.25-.843 1.893-1.315 5.001-2.621 17.25-.307 2.888-.967 5.25-1.467 5.25-.499 0-.907 3.15-.907 7 0 4-.429 7-1 7-.561 0-1 2.767-1 6.3 0 3.465-.417 6.727-.927 7.25s-1.171 4.55-1.468 8.95-1.01 12.275-1.585 17.5c-3.358 30.533-4.355 78.364-2.189 105 1.762 21.67 2.18 25.31 3.16 27.5.493 1.1 1.146 3.913 1.452 6.25 1.265 9.651 1.813 12.29 2.663 12.815.492.304.894 1.876.894 3.494S90.45 740 91 740s1 1.35 1 3 .45 3 1 3 1 .612 1 1.36c0 1.643 6.191 14.003 7.25 14.473.413.184.75 1.196.75 2.25s.338 1.804.75 1.667c.412-.138.924.2 1.137.75.71 1.834 14.869 15.5 16.059 15.5.645 0 .894.45.554 1s.309 1 1.441 1 2.059.34 2.059.756 1.463 1.353 3.25 2.084c1.788.73 4.206 1.786 5.375 2.346 1.471.705 2.759.679 4.184-.084 1.133-.606 2.995-1.102 4.139-1.102 3.792 0 15.052-8.923 15.052-11.927 0-.655.45-.913 1-.573s1-.309 1-1.441.45-2.059 1-2.059 1-1.152 1-2.559c0-1.451.433-2.292 1-1.941.583.361 1-.656 1-2.441 0-1.682.45-3.059 1-3.059s1-1.098 1-2.441.45-2.719 1-3.059 1-1.941 1-3.559.45-2.941 1-2.941 1-1.548 1-3.441.45-3.719 1-4.059 1-1.69 1-3 .45-2.66 1-3 1-1.941 1-3.559.45-2.941 1-2.941 1-1.35 1-3 .45-3 1-3 1-1.602 1-3.559c0-2.118.405-3.309 1-2.941s1-.823 1-2.941c0-1.957.45-3.559 1-3.559s1-1.575 1-3.5.45-3.5 1-3.5 1-1.35 1-3 .45-3 1-3 1-1.35 1-3 .45-3 1-3 1-1.35 1-3 .45-3 1-3 1-1.35 1-3 .45-3 1-3 1-1.35 1-3 .45-3 1-3 1-1.35 1-3 .45-3 1-3 1-1.152 1-2.559c0-1.451.433-2.292 1-1.941.583.361 1-.656 1-2.441 0-1.682.45-3.059 1-3.059s1-1.35 1-3 .45-3 1-3 1-1.35 1-3 .45-3 1-3 1-1.152 1-2.559c0-1.451.433-2.292 1-1.941.583.361 1-.656 1-2.441 0-1.682.45-3.059 1-3.059s1-1.125 1-2.5.45-2.5 1-2.5 1-1.125 1-2.5.45-2.5 1-2.5 1-1.35 1-3 .45-3 1-3 1-1.152 1-2.559c0-1.451.433-2.292 1-1.941.569.352 1-.509 1-2s.431-2.352 1-2c.583.361 1-.656 1-2.441 0-1.682.45-3.059 1-3.059s1-.9 1-2 .45-2 1-2 1-1.152 1-2.559c0-1.451.433-2.292 1-1.941.585.362 1-.676 1-2.5s.415-2.862 1-2.5c.567.351 1-.49 1-1.941 0-1.407.45-2.559 1-2.559s1-.9 1-2 .45-2 1-2 1-1.152 1-2.559c0-1.451.433-2.292 1-1.941.569.352 1-.509 1-2s.431-2.352 1-2c.567.351 1-.49 1-1.941 0-1.407.45-2.559 1-2.559s1-1.152 1-2.559c0-1.451.433-2.292 1-1.941.569.352 1-.509 1-2s.431-2.352 1-2c.55.34 1-.335 1-1.5s.45-1.84 1-1.5c.567.351 1-.49 1-1.941 0-1.407.45-2.559 1-2.559s1-.9 1-2 .45-2 1-2 1-.624 1-1.386c0-2.075 2.6-6.681 3.348-5.932.359.358.652-.575.652-2.074 0-1.563.427-2.462 1-2.108.569.352 1-.509 1-2s.431-2.352 1-2c.55.34 1-.309 1-1.441s.45-2.059 1-2.059 1-.9 1-2 .45-2 1-2 1-.675 1-1.5.45-1.5 1-1.5 1-.927 1-2.059.45-1.781 1-1.441 1-.309 1-1.441.45-2.059 1-2.059 1-.694 1-1.542.9-2.508 2-3.688 2-2.989 2-4.018.45-1.592 1-1.252 1-.309 1-1.441.45-2.059 1-2.059 1-.59 1-1.311c0-.722.9-2.278 2-3.459 1.1-1.18 2-2.84 2-3.688s.45-1.542 1-1.542 1-.702 1-1.559.45-1.281 1-.941 1-.309 1-1.441.45-2.059 1-2.059 1-.702 1-1.559.45-1.281 1-.941 1-.309 1-1.441.45-2.059 1-2.059 1-.702 1-1.559.45-1.281 1-.941 1-.309 1-1.441.45-2.059 1-2.059 1-.702 1-1.559.45-1.281 1-.941 1-.309 1-1.441.45-2.059 1-2.059 1-.702 1-1.559.45-1.281 1-.941 1-.209 1-1.22.9-2.487 2-3.28 2-2.017 2-2.721c0-.703.45-1.279 1-1.279s1-.675 1-1.5.45-1.5 1-1.5 1-.702 1-1.559.45-1.281 1-.941 1-.035 1-.834.739-1.736 1.643-2.083c.904-.346 1.362-.911 1.018-1.255-.343-.344.297-1.424 1.423-2.401s2.13-2.147 2.232-2.601c.101-.454.521-.713.934-.576.413.138.75-.358.75-1.102 0-.743 1.352-2.766 3.005-4.495s3.115-3.484 3.25-3.899a.787.787 0 0 1 .995-.504c.413.138.75-.358.75-1.102 0-.743 1.35-2.764 3-4.491s3-3.619 3-4.207.45-.79 1-.45 1-.084 1-.941.45-1.559 1-1.559 1-.675 1-1.5.45-1.5 1-1.5 1-.702 1-1.559.382-1.323.849-1.034 1.477-.697 2.243-2.191c.767-1.494 2.185-3.444 3.151-4.333s1.757-2.577 1.757-3.75.45-2.133 1-2.133 1-.9 1-2 .45-2 1-2 1-1.125 1-2.5.45-2.5 1-2.5 1-1.35 1-3 .45-3 1-3c.573 0 1.007-3.094 1.015-7.25.011-5.05.31-6.795.985-5.75.734 1.135.973.695.985-1.809.008-1.82-.401-3.052-.908-2.738-.519.32-1.157-2.83-1.455-7.191-.833-12.184-1.738-18.262-2.719-18.262-.496 0-.91-2.587-.918-5.75-.011-4.081-.297-5.315-.985-4.25-.682 1.055-.978-.43-1-5s-.318-6.055-1-5-.978-.43-1-5-.318-6.055-1-5c-.694 1.074-.974.008-.985-3.75-.008-2.887-.465-5.25-1.015-5.25s-1-2.277-1-5.059c0-3.118-.384-4.822-1-4.441-.617.381-1-1.343-1-4.5s-.383-4.881-1-4.5-1-1.343-1-4.5-.383-4.881-1-4.5c-.621.384-1-1.509-1-5s-.379-5.384-1-5c-.611.378-1-1.156-1-3.941 0-2.507-.45-4.559-1-4.559s-1-1.125-1-2.5-.45-2.5-1-2.5-1-.675-1-1.5-.45-1.5-1-1.5-1-.707-1-1.571c0-1.503-2.731-4.929-3.929-4.929-.314 0-.458-.338-.321-.75s-.425-.75-1.25-.75-1.5-.45-1.5-1-.927-1-2.059-1-1.781-.45-1.441-1c.373-.604-.99-1-3.441-1-2.232 0-4.059-.45-4.059-1s-1.8-1-4-1-4 .45-4 1m38-.041c0 .606-2.511 1.041-6 1.041-6.562 0-8.162 2-4 5 1.1.793 2 2.269 2 3.28s.45 1.56 1 1.22 1 .068 1 .906.9 2.005 2 2.594c1.761.943 2 .76 2-1.524 0-1.475.431-2.327 1-1.976.55.34 1-.119 1-1.019 0-.901 1.8-3.367 4-5.481s4-4.016 4-4.226c0-.211-1.8-.489-4-.619-2.255-.133-4 .218-4 .804m423.937 1.259c-1.065.395-1.937.865-1.937 1.045 0 .325 5.424.916 9.75 1.061 1.237.042 2.25.436 2.25.876s2.25.8 5 .8 5-.45 5-1c0-.97-2.671-1.47-6.25-1.17-.962.08-1.75-.255-1.75-.745 0-1.136-9.494-1.819-12.063-.867M792.5 247c.34.55 2.129 1 3.976 1s3.507.391 3.691.869c.183.477 2.901 1.075 6.04 1.328 4.828.39 5.444.261 4-.837-.939-.713-3.368-1.311-5.398-1.328s-3.969-.482-4.309-1.032-2.418-1-4.618-1c-2.412 0-3.755.397-3.382 1m45.5 5c0 3.778-.167 4-3 4-1.65 0-3-.45-3-1s-1.827-1-4.059-1c-2.451 0-3.814.396-3.441 1 .34.55 1.716 1 3.059 1s2.441.41 2.441.911 2.657 1.064 5.904 1.25c5.002.287 5.781.11 5.099-1.161-.951-1.77-1.003-2.083-1.003-6 0-1.65-.45-3-1-3s-1 1.8-1 4m-533.393 1.582c-.847 2.207-.757 4.418.18 4.418.433 0 .89-1.35 1.016-3 .251-3.289-.25-3.883-1.196-1.418M303.5 265c.34.55-.283 1-1.384 1-1.102 0-2.631.897-3.399 1.994s-1.694 1.696-2.057 1.333-.66 3.491-.66 8.565c0 5.896.361 9.003 1 8.608.612-.378 1 1.176 1 4s.388 4.378 1 4c.55-.34 1 .104 1 .986 0 3.548 4.61 6.514 10.121 6.514 2.867 0 4.928-.284 4.581-.632-.348-.347.702-1.877 2.333-3.401 2.545-2.377 2.965-3.499 2.965-7.927 0-3.184-.383-4.922-1-4.54-.621.384-1-1.509-1-5s-.379-5.384-1-5c-.55.34-1-.309-1-1.441s-.381-2.059-.847-2.059-1.314-1.012-1.883-2.25c-1.013-2.2-1.033-2.191-.903.404.073 1.46.47 2.446.883 2.191s.75 1.364.75 3.596.45 4.059 1 4.059c.593 0 1 3.667 1 9 0 8.333-.148 9-2 9-1.1 0-2 .45-2 1s-1.35 1-3 1-3-.45-3-1-.9-1-2-1c-1.556 0-2-.667-2-3 0-1.65-.45-3-1-3s-1.007-2.363-1.015-5.25c-.011-3.758-.291-4.824-.985-3.75-.685 1.06-.974-.284-.985-4.576-.018-7.418 2.375-10.424 8.299-10.424 2.028 0 3.686-.45 3.686-1s-1.012-1.007-2.25-1.015c-1.819-.013-1.963-.201-.75-.985 1.165-.753.872-.973-1.309-.985-1.621-.009-2.548.408-2.191.985m550.5 3.5c0 .825.45 1.5 1 1.5s1 1.152 1 2.559c0 1.451.433 2.292 1 1.941.55-.34 1 .309 1 1.441s.45 2.059 1 2.059 1 .9 1 2 .45 2 1 2 1-1.35 1-3-.45-3-1-3-1-.59-1-1.311c0-.722-.9-2.278-2-3.459-1.1-1.18-2-2.615-2-3.188s-.45-1.042-1-1.042-1 .675-1 1.5M774 287c0 1.153 2.401 1.153 6 0 2.124-.68 1.86-.816-1.75-.9-2.337-.055-4.25.35-4.25.9m-6 3.176c-1.925 1.119-3.636 2.396-3.803 2.837s-1.178 1.813-2.25 3.048c-2.056 2.37-2.5 3.939-1.116 3.939.457 0 1.433-1.124 2.168-2.498s1.546-2.29 1.801-2.036c.255.255 1.709-.87 3.233-2.501 1.523-1.631 3.489-2.965 4.368-2.965s1.599-.45 1.599-1c0-1.503-2.098-1.092-6 1.176m31.262 1.647c.076 1.014.723 1.844 1.438 1.844 1.668 0 1.638-.471-.139-2.248-1.251-1.252-1.42-1.199-1.299.404M222 303c0 .55-.695 1-1.545 1s-2.652 1.106-4.003 2.457c-2.427 2.427-2.455 2.661-2.289 19 .092 9.099.543 16.543 1.002 16.543s.835.719.835 1.599c0 .879 1.35 2.86 3 4.401s3 3.323 3 3.96.45.88 1 .54 1 .11 1 1 .45 1.34 1 1 1 .159 1 1.108.269 1.456.598 1.128c.773-.774 7.254 5.525 6.702 6.514-.23.413 2.384.75 5.808.75s5.959-.266 5.633-.592 3.03-4.17 7.457-8.543c4.427-4.374 7.795-8.205 7.486-8.515-.31-.309-1.744.619-3.188 2.063s-3.116 2.322-3.715 1.952c-.652-.404-.803-.21-.376.48.422.685.078 1.155-.846 1.155-.857 0-1.559.695-1.559 1.545 0 2.001-4.454 6.455-6.455 6.455-.85 0-1.545.45-1.545 1s-1.35 1-3 1-3-.45-3-1-.702-1-1.559-1-1.274-.461-.926-1.025c.349-.563.038-.901-.691-.75-.728.151-1.211-.288-1.074-.975.138-.688-.155-1.138-.65-1s-1.034-.2-1.198-.75-2.909-3.563-6.1-6.695L218 343.111l-.1-7.306c-.07-5.183-.332-6.579-.9-4.805-.511 1.596-.837-1.569-.9-8.75-.061-6.9.287-11.25.9-11.25.55 0 1-.675 1-1.5s.702-1.5 1.559-1.5 1.281-.45.941-1c-.378-.612 1.176-1 4-1s4.378-.388 4-1c-.398-.644 3.323-1 10.441-1 6.706 0 11.059.394 11.059 1 0 .55 1.595 1 3.545 1 2.509 0 4.327.781 6.215 2.669 2.652 2.652 2.667 2.75 2.398 15.75-.149 7.194-.696 13.231-1.215 13.414-.996.352-1.352 8.167-.372 8.167 2.881 0 3.429-3.356 3.429-20.988 0-9.971-.368-17.903-.818-17.625s-1.449-.37-2.221-1.441c-.771-1.07-2.203-1.946-3.182-1.946-.978 0-1.779-.45-1.779-1 0-.627-6.333-1-17-1s-17 .373-17 1m532.252 10.5c.011 2.2.216 2.982.455 1.738s.23-3.044-.02-4-.446.062-.435 2.262m-488.98 2.5c0 2.475.195 3.488.434 2.25.238-1.238.238-3.262 0-4.5-.239-1.238-.434-.225-.434 2.25m405.196 2.101c-.367 1.155-.241 2.526.279 3.046.595.595.978-.186 1.033-2.101.101-3.557-.374-3.9-1.312-.945M240 319c0 .55.45 1 1 1s1 1.083 1 2.406c0 1.914.409 2.3 2 1.884 2.538-.664 2.514-.867-.455-3.835-2.653-2.654-3.545-3.02-3.545-1.455m516 1.633c0 1.448.93 3.439 2.066 4.424s2.036 2.051 2 2.367c-.208 1.824.034 2.576.828 2.576.492 0 .83-1.087.75-2.416s-.325-2.235-.546-2.015c-.562.561-3.098-4.5-3.098-6.183 0-.762-.45-1.386-1-1.386s-1 1.185-1 2.633m13.25-1.137c-1.901 2.159-1.51 4.504.75 4.504 1.556 0 2-.667 2-3 0-3.266-.809-3.709-2.75-1.504m40.75.171c0 1.1-.313 2.313-.696 2.695-1.019 1.019-1.273 3.737-.293 3.131 1.088-.672 2.356-6.459 1.584-7.231-.327-.328-.595.305-.595 1.405m-575.73 2.402c-.08 1.062.276 1.931.792 1.931 1.139 0 1.254-2.686.146-3.372-.436-.269-.858.379-.938 1.441m561.73-.635c0 .789-1.236 1.634-2.75 1.879-1.513.245-.66.419 1.895.385 4.234-.055 4.545-.222 3.51-1.879-1.361-2.18-2.655-2.367-2.655-.385m-116 2.448c0 1.65.45 3.278 1 3.618.582.36 1-.637 1-2.382 0-1.65-.45-3.278-1-3.618-.582-.36-1 .637-1 2.382m86 10.991c0 .48 2.246 1.984 4.991 3.342s4.67 2.791 4.277 3.183c-.392.393 3.212.576 8.008.408 4.797-.168 8.722-.643 8.723-1.056 0-.413 1.378-.75 3.06-.75 1.785 0 2.802-.417 2.441-1-.34-.55-.025-1 .7-1 .726 0 1.863-.871 2.528-1.935 1.046-1.676.944-1.916-.76-1.788-1.082.082-1.968.503-1.968.936s-.702.787-1.559.787-1.281.45-.941 1c.369.596-.843 1-3 1s-3.369.404-3 1c.387.627-1.736.994-5.691.985-4.442-.011-5.865-.302-4.809-.985 1.124-.726.61-.973-2.051-.985-3.659-.015-8.927-1.939-8.941-3.265-.004-.413-.458-.75-1.008-.75s-1 .393-1 .873M886 338c0 1.1.45 2 1 2s1-.9 1-2-.45-2-1-2-1 .9-1 2m-170 9c1.116.721.539.973-2.25.985-2.062.008-3.75.355-3.75.771s-1.35 1.353-3 2.084c-3.431 1.518-3.95 3.16-1 3.16 1.1 0 2-.45 2-1s1.152-1 2.559-1 2.301-.417 1.987-.926c-.773-1.25 9.553-2.466 13.941-1.642 1.932.362 3.513 1.088 3.513 1.613s.9.955 2 .955 2 .45 2 1 .9 1 2 1 2-.257 2-.571c0-1.194-2.925-3.429-4.488-3.429-.896 0-1.352-.45-1.012-1 .377-.611-1.255-1.027-4.191-1.07-3.607-.053-4.309-.285-2.809-.93 1.399-.601.048-.876-4.5-.914-4.545-.039-6.049.236-5 .914m-42 6.241c0 2.397-.54 4.899-1.2 5.559s-.853 1.2-.429 1.2c2.942 0 5.176-8.926 2.629-10.5-.608-.376-1 1.09-1 3.741m-503.25-.873c-1.512 1.3-2.75 3.126-2.75 4.057s-.45 1.415-1 1.075c-.611-.378-1 1.156-1 3.941 0 2.507-.45 4.559-1 4.559-.589 0-1 3.52-1 8.559 0 5.451.363 8.335 1 7.941.615-.38 1 1.285 1 4.327 0 2.719.672 6.233 1.494 7.809.821 1.575 1.496 2.509 1.5 2.075.003-.435.634-.21 1.401.5.767.709 1.191 1.626.941 2.039s.698.75 2.105.75 2.559.45 2.559 1 1.35 1 3 1 3-.45 3-1c0-.614 4.853-1 12.559-1 8.118 0 12.34-.354 11.941-1-.354-.573.545-1 2.108-1 1.499 0 2.457-.268 2.129-.596-.778-.779 7.847-9.404 9.403-9.404.656 0 .914-.28.572-.622s1.158-2.331 3.333-4.421C227.907 379.247 229.861 372 227 372c-.55 0-1-.69-1-1.533 0-1.748-6.369-8.467-8.026-8.467-.6 0-.807-.461-.459-1.025s.263-.901-.191-.75c-.453.151-.824.03-.824-.27 0-1.017-5.402-5.955-6.514-5.955-.607 0-.819-.461-.471-1.025.349-.563.263-.96-.191-.881-3.389.588-19.418-.423-17.324-1.094 1.619-.519-1.199-.835-8-.899-9.673-.091-10.716.088-13.25 2.267M286 351c1.688.54-.365.833-6.315.9l-8.814.1-10.436 10.31c-8.912 8.804-10.435 10.775-10.435 13.5 0 1.754.45 3.19 1 3.19s1 .479 1 1.065 2.25 3.256 5 5.935 5 5.424 5 6.102.273.958.607.625c.792-.793 3.321 1.545 2.729 2.523-.25.413.248.75 1.105.75s1.559.45 1.559 1 1.35 1 3 1 3 .412 3 .916 5.512 1.148 12.25 1.432c6.738.283 12.7.553 13.25.6 4.981.425 10.5-2.432 10.5-5.436 0-.896.45-1.352 1-1.012.613.379 1.006-1.243 1.015-4.191.011-3.474.285-4.392.985-3.309.653 1.011.969-2.742.969-11.5s-.316-12.511-.969-11.5c-.709 1.098-.973.351-.985-2.783-.012-3.544-.614-4.883-3.482-7.75L305.067 350l-10.784.1c-6.945.064-9.893.384-8.283.9m-104.567 2.791c-9.18.308-11.433 1.332-11.433 5.197 0 1.171-.45 1.852-1 1.512-.648-.401-1 4.303-1 13.382 0 8.255.41 14.254 1 14.618.55.34 1 1.512 1 2.604s1.105 3.091 2.455 4.441c2.295 2.296 3.136 2.455 13 2.455 6.363 0 10.545-.397 10.545-1 0-.55 2.535-1 5.633-1 4.076 0 6.083-.484 7.264-1.75.897-.962 2.495-2.23 3.55-2.817 1.056-.587 2.399-1.918 2.986-2.958 1.633-2.894 3.262-4.446 3.948-3.761.34.341.619-.031.619-.827s.9-2.094 2-2.887 2-2.044 2-2.78.45-1.06 1-.72 1-.309 1-1.441-.45-2.059-1-2.059-1-.927-1-2.059-.45-1.781-1-1.441-1 .132-1-.463c0-.594-2.465-3.546-5.478-6.559S210.557 358 209.963 358s-.803-.45-.463-1-.309-1-1.441-1-2.059-.416-2.059-.924c0-1.072-12.086-1.704-24.567-1.285M272 355c0 .55-.715 1-1.589 1-1.937 0-15.576 13.924-14.827 15.136.294.475.057.864-.525.864S254 373.582 254 375.516c0 3.042 1.01 4.526 7.484 11 4.116 4.116 7.968 7.484 8.559 7.484s.797.45.457 1c-.388.628 1.843 1 6 1s6.388.372 6 1c-1.091 1.766 21.018 1.285 22.491-.489.68-.819 1.635-1.242 2.122-.941.488.301.887-.379.887-1.511s.45-2.059 1-2.059c.628 0 1-6.353 1-17.059 0-11.118-.348-16.844-1-16.441-.55.34-1 .109-1-.512 0-3.439-2.675-3.988-19.429-3.988-10.381 0-16.571.374-16.571 1m428.548.077c.225.364-.706 1.958-2.068 3.543-2.563 2.979-3.223 5.38-1.48 5.38.55 0 1-.849 1-1.887s1.346-2.951 2.991-4.25c3.472-2.743 3.788-3.797 1.078-3.593-1.062.08-1.746.443-1.521.807m37.452-.416c0 .295 1.265 1.73 2.811 3.188s3.174 3.551 3.617 4.651c.475 1.18.988 1.513 1.251.811.246-.654-.258-2.265-1.12-3.58-.861-1.315-1.227-2.73-.813-3.144s.079-.604-.746-.42c-.825.183-1.419-.136-1.319-.709.099-.574-.688-1.108-1.75-1.188s-1.931.096-1.931.391m-27.25 6.045c1.237.238 3.263.238 4.5 0 1.237-.239.225-.434-2.25-.434s-3.487.195-2.25.434m10.75 2.365c3.3.445 7.462.928 9.25 1.073l3.25.265v11.354c0 8.329-.308 11.165-1.155 10.642-.715-.443-.883-.275-.44.44.395.64.151 1.155-.546 1.155-.94 0-.971.288-.123 1.136.847.847 1.552.719 2.776-.505 1.427-1.427 1.548-3.267.929-14.136L734.729 362l-9.614.131c-9.411.128-9.488.148-3.615.94m-26.833 1.596c-.367.366-.674 1.829-.682 3.25-.009 1.485-.328 2.092-.75 1.429-.404-.635-.752 1.937-.773 5.716s.31 6.323.735 5.654c.518-.816.806-.558.874.784.073 1.455.335 1.219.959-.865.723-2.413 1.164-16.635.516-16.635-.117 0-.513.3-.879.667M746 375.059c0 7.118-.356 10.839-1 10.441-.567-.351-1 .49-1 1.941 0 1.407.257 2.559.571 2.559 1.517 0 3.431-3.156 3.444-5.679.01-1.713.319-2.344.788-1.605.425.668.88-2.628 1.011-7.326.158-5.642-.109-8.326-.787-7.906-.576.355-1.027-.271-1.027-1.425 0-1.132-.45-2.059-1-2.059-.606 0-1 4.353-1 11.059m-562-4.118c0 .518.45 1.219 1 1.559s1 2.466 1 4.726c0 5.632 1.103 4.086 1.534-2.151.31-4.479.123-5.075-1.591-5.075-1.069 0-1.943.423-1.943.941m106.636.553c.316.822.976 1.246 1.469.941 1.412-.872 1.044-2.435-.574-2.435-.892 0-1.243.587-.895 1.494m-109.386 2.002c-1.547 1.757-1.635 4.504-.143 4.504.609 0 .841-.692.517-1.538-.336-.875.049-1.783.893-2.107.816-.313 1.483-.971 1.483-1.462 0-1.311-1.32-1.022-2.75.603m513.002 2.004c.011 2.2.216 2.982.455 1.738s.23-3.044-.02-4-.446.062-.435 2.262m12.034 1c.008 2.75.202 3.756.432 2.236s.223-3.77-.014-5-.425.014-.418 2.764m-416.145 0c0 1.1.386 2.9.859 4l.859 2v-2c0-1.1-.386-2.9-.859-4l-.859-2zM656 379.059c0 .582-.562.721-1.25.308-.86-.516-.824-.226.113.93.75.925 1.763 1.434 2.25 1.133 1.213-.749 1.124-3.43-.113-3.43-.55 0-1 .477-1 1.059m-2.573 4.247c-1.831 2.099-2.554 6.044-.848 4.629.781-.649 1.421-1.8 1.421-2.557 0-.758.45-1.378 1-1.378s1-.45 1-1c0-1.349-1.26-1.199-2.573.306m41.879 2.026c.382 1.007.694 2.47.694 3.25s.45 1.418 1 1.418c1.59 0 1.16-2.984-.694-4.821-1.587-1.573-1.65-1.563-1 .153M235 387c0 .55-.456 1-1.014 1-1.009 0-18.007 16.525-17.993 17.493.069 4.944-.167 5.927-.962 4.007-.485-1.17-.853 5.421-.888 15.875-.033 9.831.206 17.609.53 17.285s1.836.744 3.36 2.375c1.917 2.053 3.723 2.965 5.868 2.965 1.705 0 3.099.45 3.099 1 0 .613 4.833 1 12.5 1s12.5-.387 12.5-1c0-.55 1.602-1 3.559-1 2.118 0 3.309-.405 2.941-1-.34-.55.116-1 1.012-1 2.048 0 4.488-2.376 4.488-4.37 0-.831.45-1.79 1-2.13s.993-2.504.985-4.809c-.012-3.074-.274-3.791-.985-2.691-.653 1.01-.974-2.826-.985-11.75-.009-8.156-.399-13.25-1.015-13.25-.55 0-1-.429-1-.952 0-.524-2.25-3.203-5-5.953s-5-5.498-5-6.106c0-.609-.338-.915-.75-.68-.988.563-5.298-3.928-4.518-4.707.331-.331-.625-.602-2.124-.602-1.563 0-2.462-.427-2.108-1 .373-.604-.99-1-3.441-1-2.232 0-4.059.45-4.059 1m3 2c0 .55-.685 1-1.522 1-1.37 0-12.515 10.253-12.489 11.489.006.281-.23.495-.525.475-.949-.063-3.464 2.857-3.464 4.024 0 .621-.45.852-1 .512-.636-.393-1.006 2.41-1.015 7.691-.011 5.734-.316 7.844-.985 6.809-.661-1.023-.974 1.763-.985 8.75-.008 5.637.383 10.25.868 10.25.486 0 1.119.9 1.407 2 .318 1.219 1.364 2 2.675 2 1.184 0 1.875.45 1.535 1-.403.652 5.343 1 16.5 1s16.903-.348 16.5-1c-.351-.567.49-1 1.941-1 1.514 0 2.457-.511 2.309-1.25-.137-.687.313-1.137 1-1 1.993.399 2.13-28.836.139-29.583-.489-.184-.889-1.428-.889-2.765 0-1.72-2.433-4.838-8.325-10.666C242.146 389.31 238 386.358 238 389m423.25 2.496c-1.423 1.616-1.597 2.504-.491 2.504.418 0 1.322-.9 2.009-2 1.426-2.283.36-2.637-1.518-.504m14.18 2.029c.405 2.186 1.15 4.125 1.654 4.308.504.184.916 1.196.916 2.25s.477 1.917 1.059 1.917.817.392.521.871c-.628 1.016 3.171 5.711 3.972 4.91.297-.297-.831-3.237-2.506-6.534S678 394.714 678 394.055s-.744-1.942-1.653-2.851c-1.538-1.538-1.602-1.376-.917 2.321m22.57-2.954c0 .747 2.688 3.429 3.437 3.429.319 0 .018-.9-.669-2-1.172-1.877-2.768-2.701-2.768-1.429m33.802 8.524c-.235.705-4.18 1.082-11.084 1.059-6.052-.02-10.718.374-10.718.905 0 .518.927.941 2.059.941s1.815.395 1.516.878 3.017.837 7.368.787c4.351-.051 7.692-.446 7.425-.879-.267-.432.698-.786 2.144-.786 2.365 0 5.488-1.951 5.488-3.429 0-1.059-3.83-.582-4.198.524M628 400.986c1.096.719.237.987-3.191.999-2.58.008-4.969.465-5.309 1.015-.381.616 1.303 1 4.382 1 2.75 0 5.278-.45 5.618-1s1.566-1 2.726-1c2.914 0 1.946-.589-2.226-1.355-2.462-.452-3.055-.351-2 .341m208.5.014c.34.55 1.379 1.007 2.309 1.015 1.466.014 1.492.154.191 1.059-1.111.773-.461.912 2.5.536 2.2-.279 6.58-.787 9.734-1.129 6.972-.755 8.387-2.148 2.183-2.148-2.715 0-3.985.324-3.206.818.772.491-.638.825-3.52.834-2.955.009-4.571-.371-4.191-.985.369-.596-.843-1-3-1s-3.369.404-3 1m-116.75.706c1.237.238 3.263.238 4.5 0 1.237-.239.225-.434-2.25-.434s-3.487.195-2.25.434M468 403c-1.168.755-.837 1.015 1.5 1.174 1.65.112-1.05.481-6 .82-6.327.433-2.169.664 14 .779 14.891.105 22.471-.173 21.5-.79-1.087-.69-.329-.957 2.75-.968 2.337-.008 4.25-.465 4.25-1.015 0-1.314-35.966-1.314-38 0m50 .057c-1.333.912-1.333 1.009 0 .866 4.354-.465 10.054.181 9.5 1.077-.398.644 2.878.958 9.191.882 6.666-.081 8.848-.363 6.809-.882-2.295-.584-1.355-.795 4-.897 4.923-.094 6.555-.421 5.5-1.103-2.025-1.309-33.078-1.258-35 .057m56 .13c0 .447 2.277.813 5.059.813 3.253 0 4.829-.372 4.415-1.042-.743-1.202-9.474-.992-9.474.229m18.5-.187c-.381.616 1.323 1 4.441 1 2.782 0 5.059-.45 5.059-1s-1.998-1-4.441-1-4.719.45-5.059 1m15.5 0c-1.118.723-.56.973 2.191.985 2.03.008 3.969-.435 4.309-.985.797-1.29-4.504-1.29-6.5 0m-98.75.689c.962.252 2.538.252 3.5 0 .962-.251.175-.457-1.75-.457s-2.712.206-1.75.457m-3 2.05c3.163.198 8.337.198 11.5 0s.575-.361-5.75-.361-8.913.163-5.75.361m46-.004c2.612.206 6.888.206 9.5 0s.475-.375-4.75-.375-7.362.169-4.75.375m37.049.01c4.84.184 12.49.183 17-.002 4.511-.185.551-.335-8.799-.334s-13.04.153-8.201.336m29.951-.056c.962.252 2.538.252 3.5 0 .962-.251.175-.457-1.75-.457s-2.712.206-1.75.457M378.5 409c.34.55 1.266 1 2.059 1s1.441-.45 1.441-1-.927-1-2.059-1-1.781.45-1.441 1m3.5 1.571c0 1.229 2.622 2.946 5 3.274 1.375.19 2.65.753 2.833 1.25.184.498 1.984.937 4 .975 3.024.058 3.316.23 1.667.977-1.394.631-.788.721 2 .297 4.569-.696 5.855-1.344 2.667-1.344-1.192 0-2.167-.45-2.167-1s-1.462-1.007-3.25-1.015c-2.466-.012-2.888-.249-1.75-.985 1.099-.71.362-.973-2.75-.985-2.337-.008-4.25-.465-4.25-1.015s-.9-1-2-1-2 .257-2 .571m391.5.78c-2.925 1.109-6.108 3.483-5.369 4.005.203.143 2.844-.986 5.869-2.51 5.486-2.764 5.189-3.653-.5-1.495m11-.854c.55.187 2.7.624 4.778.972 2.078.347 3.507 1.07 3.175 1.606-.331.536-.231.91.223.831 2.466-.428 4.371.21 3.729 1.249-.411.663-.278.884.311.52 1.074-.663 5.603 2.672 4.766 3.51-.265.265.193.482 1.018.482 1.8 0 1.792.068.339-3.12-.638-1.401-1.988-2.547-3-2.547-1.011 0-1.839-.45-1.839-1s-.873-1-1.941-1-2.219-.45-2.559-1-2.729-.964-5.309-.921-4.241.232-3.691.418M408 415c1.925.405 2.686.796 1.691.868-.995.073-1.531.582-1.191 1.132.8 1.294 24.498 1.294 26.5 0 1.139-.736.658-1.009-2-1.135-3.304-.156-3.248-.205 1-.865 2.689-.418-2.341-.707-12.5-.718-9.733-.011-15.504.296-13.5.718m45.5 0c3.215.576 3.449.744 1.191.858-1.591.08-2.541.576-2.191 1.142.36.583 5.991 1 13.5 1s13.14-.417 13.5-1c.381-.616-1.612-1.068-5.191-1.177l-5.809-.176 7-.647c4.98-.46 2.24-.657-9.5-.682-9.584-.02-14.823.266-12.5.682m50.75-.265c2.613.206 6.887.206 9.5 0 2.612-.206.475-.375-4.75-.375s-7.363.169-4.75.375m46 .004c3.163.198 8.337.198 11.5 0s.575-.361-5.75-.361-8.913.163-5.75.361M593 415l7.5.64-6.5.195c-9.273.279-5.673 2.15 4 2.079 8.821-.064 14.259-1.627 7-2.012-4.369-.231-4.325-.258 1.5-.902 4.332-.479 2.246-.66-7.5-.652-11.139.01-12.189.124-6 .652m-130.238.707c1.244.239 3.044.23 4-.02s-.062-.446-2.262-.435-2.982.216-1.738.455M501 416.9c0 1.122 11.149 1.187 14.801.086 1.898-.573.103-.84-6.051-.9-4.812-.047-8.75.319-8.75.814m45 .151c0 .666 3.027.982 8.25.861 12.426-.287 14.025-1.759 2-1.842-6.545-.045-10.25.31-10.25.981m217.886 1.2c-1.438 1.237-3.512 3.925-4.61 5.973s-2.171 3.548-2.386 3.333c-.214-.215-.39.697-.39 2.026 0 3.146.089 3.092 2.17-1.333.971-2.062 2.567-4.622 3.547-5.689.981-1.066 1.783-2.33 1.783-2.809 0-.478.563-.546 1.25-.151.688.396.916.351.509-.099s-.24-1.422.372-2.16c1.672-2.014.692-1.617-2.245.909m-73.886.315c0 1.45 2.644 5.216 5.909 8.415 1.975 1.935 4.23 4.757 5.01 6.269s1.793 2.75 2.25 2.75.831.765.831 1.7c0 1.229.302 1.398 1.093.607 1.387-1.387-.315-4.768-4.259-8.458-1.559-1.458-2.834-3.058-2.834-3.555s-1.523-2.566-3.385-4.599c-3.179-3.47-4.615-4.444-4.615-3.129m116.429 7.635c-.412.715-.363.947.109.518.472-.43 1.428.245 2.125 1.5.917 1.653 1.276 1.833 1.302.653.051-2.374-2.566-4.351-3.536-2.671m-574.429.37c0 .315.679 1.251 1.509 2.081s1.211 1.992.846 2.583c-.394.637-.194.783.49.36.685-.422 1.155-.078 1.155.846 0 3.814 6.008 1.606 8.75-3.216 1.837-3.23 1.845-3.225-5.75-3.225-3.85 0-7 .257-7 .571m132 .47c-1.059.714.778.93 6.244.735 4.258-.152 7.746-.613 7.75-1.026.009-1.128-12.268-.872-13.994.291m17.5-.041c-2.768.704-2.806.771-.5.866 1.375.057 3.175-.333 4-.866 1.702-1.1.822-1.1-3.5 0M236 429c0 .55.477 1 1.059 1s.781.45.441 1c-.351.567.49 1 1.941 1 1.892 0 2.559-.521 2.559-2 0-1.556-.667-2-3-2-1.65 0-3 .45-3 1m158.143 1.89c-.959.608-.597.86 1.232.86 1.424 0 2.345-.394 2.048-.875-.674-1.091-1.54-1.087-3.28.015M478 432q0 2 2 2t2-2-2-2-2 2m16 0q0 2 2 2t2-2-2-2-2 2m16 0q0 2 2 2t2-2-2-2-2 2m16 0q0 2 2 2t2-2-2-2-2 2m16 0q0 2 2 2t2-2-2-2-2 2m-200 1.213c0 .433-.801.787-1.779.787-.979 0-2.428.9-3.221 2s-2.052 2-2.797 2c-1.532 0-14.524 13.012-13.757 13.779.272.273 1.799-.9 3.393-2.607 1.594-1.706 3.254-2.78 3.69-2.387s.518.233.183-.357c-.598-1.051 2.537-4.428 4.111-4.428.44 0 1.672-.813 2.738-1.806s3.369-2.438 5.117-3.212c1.748-.773 2.959-1.761 2.691-2.194s.691-.788 2.131-.788 2.358-.421 2.039-.936c-.687-1.113-4.539-.986-4.539.149m436-.32c0 .491.704 1.163 1.563 1.493.904.347 1.264 1.131.854 1.857-.551.976-.423.992.572.071 1.039-.96.985-1.483-.282-2.75-1.76-1.759-2.707-1.994-2.707-.671M916 436c0 2.2.45 4 1 4s1 .9 1 2 .45 2 1 2 1-.9 1-2-.45-2-1-2-1-1.8-1-4-.45-4-1-4-1 1.8-1 4m-132-1.091c1.294.915 1.26 1.062-.25 1.076-1.078.009-1.75.783-1.75 2.015 0 1.355.667 2 2.066 2 2.492 0 2.434-5.077-.066-5.749-1.333-.358-1.333-.285 0 .658M365 437c1.074.694.008.974-3.75.985-2.887.008-5.25.465-5.25 1.015s-1.377 1-3.059 1c-1.785 0-2.802.417-2.441 1 .345.558-.416 1-1.72 1-1.286 0-2.987.9-3.78 2s-2.042 2-2.776 2-3.96 2.675-7.169 5.944-6.109 5.669-6.444 5.333c-.336-.336-.611.391-.611 1.615 0 1.428-.414 1.97-1.155 1.513-.684-.423-.884-.277-.49.36.365.591-.016 1.753-.846 2.583s-1.509 2.243-1.509 3.14c0 .896-.45 1.352-1 1.012-.567-.351-1 .49-1 1.941 0 1.407-.45 2.559-1 2.559s-1 1.35-1 3-.45 3-1 3c-.621 0-.994 5.406-.985 14.25.011 9.57.334 13.757.985 12.75.71-1.099.973-.362.985 2.75.008 2.337.465 4.25 1.015 4.25s1 1.152 1 2.559c0 1.451.433 2.292 1 1.941.55-.34 1 .309 1 1.441s.45 2.059 1 2.059 1 .927 1 2.059.45 1.781 1 1.441 1 .084 1 .941.45 1.559 1 1.559 1 .75 1 1.667c0 .916.262 1.405.582 1.085s2.84 1.63 5.601 4.333 5.649 4.915 6.418 4.915 1.399.45 1.399 1 .927 1 2.059 1 1.781.45 1.441 1c-.352.569.509 1 2 1s2.352.431 2 1c-.369.596.843 1 3 1s3.369.404 3 1c-.378.612 1.201 1 4.075 1 2.581 0 6.447.526 8.591 1.168 2.972.89 4.176.89 5.066 0 .642-.642 3.778-1.168 6.968-1.168 3.2 0 5.8-.448 5.8-1 0-.55 1.35-1 3-1s3-.45 3-1 .9-1 2-1 2-.45 2-1 .9-1 2-1 2-.45 2-1 .75-1 1.667-1c.916 0 1.387-.28 1.045-.622-.964-.964 7.324-8.474 8.53-7.729.587.363.782.199.433-.365-.746-1.207 2.726-5.55 3.677-4.599.356.357.648-.102.648-1.018 0-.917.45-1.667 1-1.667s1-.927 1-2.059.45-1.781 1-1.441c.569.352 1-.509 1-2s.431-2.352 1-2c.599.37 1.006-.91 1.015-3.191.012-2.828.265-3.422.985-2.309.692 1.07.978-.076 1-4 .017-3.025.381-4.948.81-4.274.428.674.759-2.326.734-6.667-.024-4.341-.381-8.23-.794-8.642-.413-.413-.75-2.7-.75-5.084s-.45-4.333-1-4.333-1-1.602-1-3.559c0-2.118-.405-3.309-1-2.941-.569.352-1-.509-1-2s-.431-2.352-1-2c-.55.34-1-.104-1-.986 0-.883-1.09-2.695-2.422-4.027s-2.69-3.265-3.017-4.295-1.712-2.47-3.078-3.201-2.483-1.703-2.483-2.16-.576-.831-1.279-.831c-.704 0-1.928-.9-2.721-2s-2.044-2-2.78-2c-.757 0-1.028-.502-.625-1.155.423-.684.277-.884-.36-.49-.591.365-1.753-.016-2.583-.846S396.436 442 395.571 442s-1.571-.45-1.571-1-1.377-1-3.059-1c-1.785 0-2.802-.417-2.441-1 .381-.617-1.343-1-4.5-1s-4.881-.383-4.5-1c.393-.636-2.403-.994-7.691-.985-5.734.011-7.844.316-6.809.985m275 1.922c0 .593-1.35 1.078-3 1.078s-3 .352-3 .782-2.138 1.412-4.75 2.182c-6.348 1.871-9.647 5.036-5.25 5.036 1.1 0 2-.45 2-1s.62-1 1.378-1 1.954-.695 2.66-1.546c.705-.85 1.885-1.314 2.622-1.031s1.34.078 1.34-.454c0-.533 1.763-.969 3.917-.969s4.066-.432 4.25-.959c.477-1.374 18.084-1.512 20.607-.162 1.152.617 3.249 1.121 4.66 1.121s2.566.45 2.566 1 .9 1 2 1 2 .45 2 1 .9 1 2 1 2 .374 2 .831 1.237 1.47 2.75 2.25 3.943 2.656 5.401 4.169 3.172 2.75 3.809 2.75.837.52.445 1.155c-.443.715-.275.883.44.44.635-.392 1.155-1.188 1.155-1.769 0-1.45-7.084-7.826-8.695-7.826-.718 0-1.305-.45-1.305-1s-.707-1-1.571-1c-.865 0-2.269-.697-3.121-1.549s-2.845-1.808-4.429-2.125c-1.583-.317-2.879-.872-2.879-1.233s-1.149-.752-2.553-.868-3.317-.597-4.25-1.069c-2.613-1.319-23.197-1.527-23.197-.234m66.001.328c.002 1.335 4.305 6.75 5.365 6.75 1.513 0 .432-3.293-1.821-5.545-2.756-2.757-3.546-3.026-3.544-1.205m50.014 1.5c-.008 1.788.435 3.25.985 3.25 1.27 0 1.27-3.035 0-5-.736-1.138-.973-.716-.985 1.75M358.5 443c.361.583-.656 1-2.441 1-1.682 0-3.059.45-3.059 1s-.9 1-2 1-2 .45-2 1-.675 1-1.5 1-1.5.45-1.5 1-.567 1-1.259 1c-.693 0-1.822.9-2.509 2s-1.716 2-2.286 2c-1.078 0-5.383 3.937-5.741 5.25-.113.413-.411.637-.662.5-.837-.458-3.479 3.724-3.511 5.559-.018.995-.482 1.531-1.032 1.191-.569-.352-1 .509-1 2s-.431 2.352-1 2c-.583-.361-1 .656-1 2.441 0 1.682-.45 3.059-1 3.059s-1 1.8-1 4-.45 4-1 4c-.596 0-.994 3.74-.985 9.25.011 6.342.32 8.778.985 7.75.71-1.099.973-.362.985 2.75.008 2.337.465 4.25 1.015 4.25s1 1.377 1 3.059c0 1.785.417 2.802 1 2.441.569-.352 1 .509 1 2s.431 2.352 1 2c.55-.34 1 .084 1 .941s.45 1.559 1 1.559 1 .695 1 1.545c0 1.82 4.511 6.61 5.394 5.728.333-.334.606-.049.606.632 0 1.735 2.552 4.095 4.429 4.095.864 0 1.571.45 1.571 1s.702 1 1.559 1 1.281.45.941 1 .309 1 1.441 1 2.059.45 2.059 1 1.35 1 3 1 3 .45 3 1 1.602 1 3.559 1c2.118 0 3.309.405 2.941 1-.398.644 3.343 1 10.5 1s10.898-.356 10.5-1c-.368-.595.823-1 2.941-1 1.957 0 3.559-.45 3.559-1s1.377-1 3.059-1c1.785 0 2.802-.417 2.441-1-.34-.55.084-1 .941-1s1.559-.45 1.559-1 .927-1 2.059-1 1.781-.45 1.441-1 .084-1 .941-1 1.559-.477 1.559-1.059.432-.792.959-.466c1.086.671 7.041-5.167 7.041-6.903 0-.622.9-1.779 2-2.572s2-2.494 2-3.78c0-1.304.442-2.065 1-1.72.569.352 1-.509 1-2s.431-2.352 1-2c.581.359 1-.629 1-2.358 0-1.636.475-3.134 1.056-3.327 1.472-.491 1.513-27.646.044-29.115-.605-.605-1.1-1.937-1.1-2.959s-.45-1.581-1-1.241c-.567.351-1-.49-1-1.941 0-1.407-.45-2.559-1-2.559s-.947-.337-.882-.75c.315-1.993-.219-3.306-1.118-2.75-.55.34-1-.318-1-1.463 0-3.501-12.648-15.037-16.486-15.037-.833 0-1.514-.45-1.514-1s-1.152-1-2.559-1c-1.451 0-2.292-.433-1.941-1 .369-.596-.843-1-3-1s-3.369-.404-3-1c.401-.649-4.343-1-13.5-1s-13.901.351-13.5 1m126.917.301c-2.007 2.329-1.218 4.289 1.818 4.52 2.621.2 2.871-.046 2.583-2.541-.343-2.979-2.647-4.014-4.401-1.979m15.875.15c-1.548 1.761.665 3.887 3.081 2.959 1.993-.765 2.02-1.16.198-2.981-1.715-1.716-1.752-1.716-3.279.022m17.375-.784c-1.351 1.35-.675 5.333.904 5.333 2.93 0 4.813-2.759 3.072-4.5-1.618-1.618-2.919-1.891-3.976-.833m16.583-.005c-.687.278-1.25 1.599-1.25 2.937 0 2.055.44 2.399 2.833 2.217 1.79-.136 2.834-.783 2.834-1.754 0-1.369-2.013-4.187-2.846-3.983-.176.043-.883.306-1.571.583m71.056.755c.107.595-.327.984-.963.864-1.253-.237-1.222 2.174.045 3.44.428.428.629.104.445-.721-.202-.909.258-1.369 1.167-1.167.825.184 1.166 0 .759-.408-.408-.407-.303-1.27.234-1.916.67-.807.528-1.176-.453-1.176-.786 0-1.341.488-1.234 1.084m-7.173 8.204c-.988 1.116-1.059 1.802-.258 2.47.609.509.886.621.614.248-.271-.372.252-1.501 1.164-2.508s1.25-1.814.752-1.793-1.52.733-2.272 1.583m-280.778 1.144c.365.591-.069 1.806-.965 2.702s-1.371 1.885-1.057 2.2c.707.706 3.667-2.149 3.667-3.537 0-.556-.52-1.333-1.155-1.725-.684-.423-.884-.277-.49.36M596 454.882c0 2.607 1.541 3.56 1.729 1.068.079-1.051-.278-2.171-.793-2.489s-.936.321-.936 1.421M365.5 455c.369.596-.843 1-3 1s-3.369.404-3 1c.352.569-.509 1-2 1s-2.352.431-2 1c.34.55-.093 1-.963 1-.869 0-4.046 2.465-7.059 5.478s-5.478 6.19-5.478 7.059c0 .87-.45 1.303-1 .963-.569-.352-1 .509-1 2s-.431 2.352-1 2c-.612-.378-1 1.176-1 4s-.388 4.378-1 4c-.614-.38-.994 1.236-.985 4.191.011 3.474.285 4.392.985 3.309.694-1.074.974-.008.985 3.75.008 2.887.465 5.25 1.015 5.25s1 .9 1 2 .45 2 1 2 1 .685 1 1.522c0 2.014 10.514 12.478 12.537 12.478.87 0 1.303.45.963 1-.351.567.49 1 1.941 1 1.407 0 2.559.45 2.559 1s1.827 1 4.059 1c2.451 0 3.814.396 3.441 1-.386.625 1.676 1 5.5 1s5.886-.375 5.5-1c-.373-.604.99-1 3.441-1 2.232 0 4.059-.45 4.059-1s.695-1 1.545-1c1.399 0 6.455-4.224 6.455-5.392 0-.266-.9-.416-2-.333s-2 .505-2 .938-.9.787-2 .787-2 .45-2 1-1.152 1-2.559 1c-1.451 0-2.292.433-1.941 1 .395.639-2.656 1-8.441 1-5.373 0-9.059-.407-9.059-1 0-.55-1.377-1-3.059-1-1.785 0-2.802-.417-2.441-1 .34-.55-.32-1-1.467-1-2.105 0-11.033-8.071-11.033-9.974 0-.564-.45-1.026-1-1.026s-1-.927-1-2.059-.45-1.781-1-1.441c-.596.369-1-.843-1-3s-.404-3.369-1-3c-.635.392-1-2.323-1-7.441 0-4.706.416-8.059 1-8.059.55 0 1-1.35 1-3s.45-3 1-3 1-.927 1-2.059.45-1.781 1-1.441 1 .126 1-.474c0-.601 1.56-2.653 3.467-4.559 1.906-1.907 3.958-3.467 4.559-3.467.6 0 .814-.45.474-1s.309-1 1.441-1 2.059-.45 2.059-1 .9-1 2-1 2-.45 2-1c0-.603 4.167-1 10.5-1s10.5.397 10.5 1c0 .55 1.152 1 2.559 1 1.451 0 2.292.433 1.941 1s.49 1 1.941 1c3.45 0 3.233-1.478-.441-3-1.65-.683-3-1.638-3-2.121s-1.35-.879-3-.879-3-.45-3-1c0-.578-3.186-1-7.559-1-4.785 0-7.332.367-6.941 1m-51.229 5.05c-.079 1.051.184 2.113.585 2.361s.794-.41.873-1.461-.184-2.113-.585-2.361-.794.41-.873 1.461m279.229-.762c-1.08 1.309-1.887 4.712-1.117 4.712.259 0 1.144-1.35 1.967-3 1.502-3.01 1.021-3.979-.85-1.712m204.75-.068c-2.433 1.174-3.024 2.8-1 2.748 1.425-.036 4.75-2.366 4.75-3.328 0-.873-1.083-.706-3.75.58m-368.27 1.53c.6 1.238.832 2.25.516 2.25s.005.628.715 1.395c1.55 1.677 3.209 1.014 1.745-.698a89 89 0 0 1-2.545-3.197c-1.472-1.936-1.486-1.928-.431.25m292.02.667c0 1.42.505 2.583 1.122 2.583.732 0 .645.589-.25 1.692-.932 1.15-.971 1.451-.122.941.796-.478 1.25-.159 1.25.879 0 .897.675 2.306 1.5 3.131.932.932 1.5 1.063 1.5.347 0-.634 1.765.684 3.922 2.928 2.156 2.245 4.181 4.082 4.5 4.082 1.279 0 .459-2.75-1.422-4.77-1.1-1.18-2-2.66-2-3.287s-1.237-2.347-2.75-3.822-3.232-3.541-3.821-4.592c-1.666-2.97-3.429-3.027-3.429-.112M606.29 462c-.288 1.1-.921 2-1.407 2-.485 0-.883.9-.883 2s-.45 2-1 2-1 .9-1 2-.401 2-.891 2c-.489 0-1.178 1.688-1.529 3.75-1.886 11.076-1.855 10.98-2.651 8.25l-.73-2.5-.099 2.691c-.055 1.48.35 2.969.9 3.309s1 4.39 1 9 .45 8.66 1 9 1 1.941 1 3.559.45 2.941 1 2.941 1 .9 1 2 .45 2 1 2 1 .9 1 2 .45 2 1 2 1 .702 1 1.559c0 .924.47 1.268 1.155.846.688-.426.884-.276.485.369-.832 1.345 10.671 13.226 12.805 13.226.855 0 1.555.379 1.555.843s2.138 1.926 4.75 3.25 4.9 2.744 5.083 3.157c.184.413 1.196.75 2.25.75s1.917.478 1.917 1.063c0 .715 5.06.987 15.454.831 8.5-.128 15.224-.607 14.941-1.063-.464-.751 1.968-1.239 5.422-1.089.724.032 1.068-.19.765-.494-.59-.59 4.001-3.248 5.611-3.248 1.208 0 8.807-7.836 8.807-9.082 0-1.648-2.524-.965-4 1.082-.793 1.1-2.494 2-3.78 2-1.304 0-2.065.442-1.72 1 .556.899-.757 1.433-2.75 1.118-.413-.065-.75.332-.75.882s-1.152 1-2.559 1c-1.451 0-2.292.433-1.941 1 .375.607-1.076 1.006-3.691 1.015-3.151.012-3.906.276-2.809.985 1.013.655-2.492.974-10.809.985-7.955.01-12.09-.339-11.691-.985.371-.601-.923-1-3.242-1-3.905 0-9.236-1.873-9.25-3.25-.004-.413-.71-.75-1.567-.75-.924 0-1.268-.47-.846-1.155.427-.69.276-.884-.376-.48-.599.37-2.223-.46-3.609-1.846-1.385-1.385-3.005-2.519-3.598-2.519-1.646 0-8.012-6.727-8.012-8.467 0-.843-.337-1.537-.75-1.541-1.159-.012-3.248-5.094-3.265-7.941-.012-2.014-.22-2.235-.985-1.051-.784 1.213-.972 1.069-.985-.75-.008-1.238-.52-2.25-1.137-2.25-.732 0-.645-.589.25-1.692.754-.931.896-1.408.315-1.06-1.704 1.018-3.799-10.481-3.007-16.506 1.444-10.989 1.801-12.771 2.67-13.307.492-.304.894-1.614.894-2.911s.352-2.507.783-2.691c.988-.42 5.217-7.626 5.217-8.89 0-1.827-3.194-.917-3.71 1.057m166.064.687c.378.378 1.465.77 2.416.871.952.101 2.63.498 3.73.882 1.32.461 1.15.176-.5-.835-2.47-1.516-6.976-2.248-5.646-.918M791 463c-1.173.758-.914.973 1.191.985 1.48.008 2.969-.435 3.309-.985.789-1.277-2.524-1.277-4.5 0m-286.768 6c0 1.925.206 2.712.457 1.75.252-.962.252-2.538 0-3.5-.251-.962-.457-.175-.457 1.75m3.018-2.338c-2.08.839-1.777 41.338.309 41.338.857 0 1.281.45.941 1s.309 1 1.441 1 2.066-.562 2.074-1.25c.011-.842.349-.76 1.038.25 1.41 2.07.94-16.903-.477-19.25-.763-1.262-.711-2.304.183-3.736.683-1.093 1.241-4.693 1.241-8 0-5.347.222-6.014 2-6.014 1.1 0 1.947.337 1.882.75s.017 4.575.183 9.25l.302 8.5.633-8 .633-8 .184 7.75L520 490h2.839c2.073 0 3.154-.688 4-2.547 1.423-3.123 1.531-9.453.161-9.453-.55 0-1-.695-1-1.545 0-2.43-4.648-6.455-7.455-6.455-1.4 0-2.545-.45-2.545-1s-1.377-1-3.059-1c-1.785 0-2.802-.417-2.441-1 .641-1.037-1.074-1.216-3.25-.338M310 470.059c0 1.132-.45 1.781-1 1.441-.61-.377-1 1.137-1 3.882 0 2.475.45 4.778 1 5.118.604.373 1-.99 1-3.441 0-2.232.45-4.059 1-4.059s1-1.125 1-2.5-.45-2.5-1-2.5-1 .927-1 2.059m90.75 2.019c.688.727 1.25 2.609 1.25 4.181 0 1.651.422 2.598 1 2.241.645-.398 1 3.509 1 11s-.355 11.398-1 11c-.585-.362-1 .676-1 2.5s-.415 2.862-1 2.5c-.55-.34-1 .084-1 .941s-.477 1.559-1.059 1.559-.817.392-.521.871-.352 1.898-1.441 3.153c-2.347 2.706-2.679 4.819-.398 2.538.869-.869 2.063-1.282 2.654-.917.614.38.785.197.4-.426-.37-.599.46-2.223 1.846-3.609 1.385-1.385 2.519-3.241 2.519-4.124s.45-1.326 1-.986c.599.37 1.006-.91 1.015-3.191.009-2.109.353-3.278.772-2.619.416.654.822-3.362.902-8.925.091-6.343-.191-9.584-.756-8.69-.629.993-.907.27-.918-2.384-.009-2.281-.416-3.561-1.015-3.191-.55.34-1-.068-1-.906s-1.012-2.045-2.25-2.681c-1.857-.956-2.032-.927-1 .165M620 476.417c0 .779-.388 1.566-.863 1.75s-1.136 2.583-1.47 5.333c-.595 4.896-.578 4.938.817 2 .784-1.65 1.446-3.817 1.471-4.816s.511-2.686 1.08-3.75c.714-1.333.714-1.934 0-1.934-.569 0-1.035.637-1.035 1.417m-326 3.524c0 1.068.45 2.219 1 2.559.567.351 1-.49 1-1.941 0-1.407-.45-2.559-1-2.559s-1 .873-1 1.941m12.097 11.968c.081 7.196.542 12.814 1.025 12.515 1.253-.774 1.114-24.16-.147-24.94-.684-.422-.976 3.723-.878 12.425m130.653-12.337c-.413.419-.736 2.149-.72 3.845.026 2.61.19 2.81 1.066 1.304 1.143-1.964.848-6.362-.346-5.149M587.232 486c0 1.925.206 2.712.457 1.75.252-.962.252-2.538 0-3.5-.251-.962-.457-.175-.457 1.75m-295.217.691c.009 1.545.452 3.484.985 4.309.723 1.118.973.56.985-2.191.008-2.03-.435-3.969-.985-4.309-.577-.357-.994.57-.985 2.191m147.237.809c.011 2.2.216 2.982.455 1.738s.23-3.044-.02-4-.446.062-.435 2.262m145.091 4c.003 4.4.179 6.076.39 3.724s.209-5.952-.006-8-.388-.124-.384 4.276m-161.033 0c.005 3.3.192 4.529.415 2.732s.218-4.497-.01-6c-.229-1.503-.411-.032-.405 3.268m15.962 4.5c0 2.475.195 3.488.434 2.25.238-1.238.238-3.262 0-4.5-.239-1.238-.434-.225-.434 2.25m59.166-3.1c.439.71-.425 1.1-2.438 1.1-1.824 0-2.862.415-2.5 1 .369.596-.843 1-3 1s-3.369.404-3 1c.556.899-.757 1.433-2.75 1.118-1.968-.31-.441 3.702 1.797 4.721 3.346 1.525 3.453 1.499 3.453-.839 0-1.145.667-2 1.559-2 .857 0 1.281-.45.941-1-.369-.596.843-1 3-1s3.369-.404 3-1c-.34-.55.309-1 1.441-1 2.671 0 2.639-1.619-.062-3.065-1.49-.797-1.918-.808-1.441-.035m246.057.108c-.337.546-.136.992.446.992s1.059.9 1.059 2 .45 2 1 2 1 .702 1 1.559.45 1.281 1 .941 1-1.287 1-2.104c0-2.014-4.73-6.642-5.505-5.388M523 495c1.138.736.716.973-1.75.985-2.578.012-3.25.428-3.25 2.015 0 1.145.667 2 1.559 2 .857 0 1.281-.45.941-1-.369-.596.843-1 3-1s3.369-.404 3-1c-.34-.55.196-1.007 1.191-1.015 1.534-.013 1.581-.163.309-.985-.825-.533-2.625-.969-4-.969-1.979 0-2.187.202-1 .969m180.773 1.409c-.33 1.725-.079 2.262.883 1.893 1.477-.567 1.877-4.302.461-4.302-.486 0-1.091 1.084-1.344 2.409m-169.891.341a5.8 5.8 0 0 0 .017 1.554c.263 1.55-2.781 3.696-5.244 3.696-1.369 0-2.638.407-2.822.905-.183.497-1.458 1.06-2.833 1.25-2.729.377-5.601 2.577-4.63 3.548.334.334 2.909-.135 5.721-1.043 2.812-.909 5.587-1.359 6.166-1.001.615.38.756.171.338-.504-.636-1.03 1.993-1.724 4.729-1.249.454.079.54-.318.191-.881-.55-.891 1.453-1.504 3.735-1.143.413.065.75-1.232.75-2.882 0-2.667-.333-3-3-3-1.65 0-3.053.337-3.118.75m84.199 2c-.044 1.788.369 3.25.919 3.25s1 .707 1 1.571c0 1.467 2.242 4.429 3.352 4.429.272 0-.176-1.344-.996-2.987-.819-1.643-1.163-3.556-.763-4.25.4-.695.345-.915-.123-.489-.468.425-1.403-.475-2.079-2l-1.229-2.774zM750 502c0 1.1.343 2 .763 2 .419 0 1.207.983 1.75 2.185 1.203 2.663 3.487 3.579 3.487 1.398 0-.871-.34-1.583-.756-1.583s-1.353-1.35-2.084-3c-1.518-3.431-3.16-3.95-3.16-1m-459.985 6.917c-.008 4.079.217 7.184.501 6.901.93-.93 1.227-11.617.361-12.983-.506-.798-.853 1.647-.862 6.082m207.235-5.837c1.189.692 2.311.692 3.5 0 1.428-.831 1.105-1.019-1.75-1.019s-3.178.188-1.75 1.019m72.002 2.42c.011 2.2.216 2.982.455 1.738s.23-3.044-.02-4-.446.062-.435 2.262m-258.95 12.821c-.342.553-.102.674.543.274.761-.469 1.155.181 1.155 1.905 0 1.491.431 2.352 1 2s1 .509 1 2c0 1.536.424 2.356 1.027 1.984 1.299-.804.869-3.566-.835-5.363-.719-.758-1.099-1.921-.845-2.583.553-1.44-2.17-1.634-3.045-.217M668 519c0 .55-1.602 1-3.559 1-2.118 0-3.309.405-2.941 1 .353.571-.587 1.03-2.191 1.07-6.355.159-6.793 1.79-.5 1.86 3.47.038 6.09-.285 5.822-.718s.831-1.371 2.441-2.084c2.826-1.25 3.983-3.128 1.928-3.128-.55 0-1 .45-1 1m26.274 1.769c-1.779 2.182-1.93 2.796-.752 3.054 1.818.398 4.478-2.127 4.478-4.252 0-2.287-1.199-1.902-3.726 1.198M429.5 523.327c-.55.688-1.141 1.88-1.312 2.649-.172.768-1.072 2.101-2 2.961-.929.86-1.838 2.238-2.021 3.062-.385 1.731-10.974 12.001-12.374 12.001-1.496 0-4.106 3.026-3.275 3.798.416.386.957.14 1.202-.548.246-.687 1.009-1.25 1.697-1.25 1.416 0 13.916-12.294 14.395-14.159.172-.668 1.184-1.971 2.25-2.895s1.938-2.442 1.938-3.372c0-.931.445-1.417.989-1.081.566.35.734-.051.393-.941-.701-1.825-.612-1.814-1.882-.225M764 526c0 1.1.344 2 .764 2s1.544 1.8 2.497 4 2.211 4 2.795 4 .784.45.444 1-.141 1 .441 1 1.059.9 1.059 2 .45 2 1 2 1 .9 1 2 .45 2 1 2 1 .694 1 1.542.9 2.508 2 3.688l2 2.147v-2.688c0-1.479-.45-2.689-1-2.689s-1-.59-1-1.311c0-.722-.9-2.278-2-3.459-1.1-1.18-2-2.84-2-3.688s-.45-1.542-1-1.542-1-.948-1-2.107c0-1.353-.481-1.922-1.344-1.591-.978.375-1.21-.184-.852-2.057.403-2.106.183-2.454-1.208-1.92-1.088.417-1.459.262-1.03-.432.745-1.205-1.43-5.893-2.735-5.893-.457 0-.831.9-.831 2m-447.012-1c-.707 1.451-.591 4.873.15 4.415.474-.293.862.169.862 1.026s.45 1.559 1 1.559 1 .765 1 1.7c0 1.4.221 1.466 1.25.375 1-1.06 1-1.417 0-1.783-.687-.252-1.25-1.321-1.25-2.375s-.417-1.917-.927-1.917c-.509 0-1.132-.788-1.384-1.75-.251-.962-.567-1.525-.701-1.25m277.237.976c.309 1.661 2.665 4.468 3.254 3.878.211-.211-.496-1.502-1.572-2.869s-1.833-1.821-1.682-1.009M322 534.61c0 1.885 9.247 9.543 10.277 8.513.831-.831.79-1.123-.155-1.123-.704 0-3.008-1.8-5.122-4-3.674-3.824-5-4.723-5-3.39m174 .39c1.123.726.603.973-2.071.985l-3.572.015-.228 5-.228 5 11.8.158c6.489.086 12.474.112 13.299.057s5.438-.185 10.25-.289l8.75-.189v-3.44c0-5.977-.963-6.289-19.679-6.367-10.328-.043-16.049-.402-14.821-.93 1.634-.702 1.36-.869-1.5-.914-2.612-.041-3.12.19-2 .914m11.728-.278c1.775.221 4.925.224 7 .008 2.074-.217.622-.397-3.228-.402-3.85-.004-5.548.173-3.772.394m-9.99 2.968c-5.647.402-5.758.468-5.543 3.285l.219 2.875 19.793.109 19.793.11v-3.035c0-1.669-.337-3.048-.75-3.065-10.774-.438-29.137-.591-33.512-.279M331.5 545c-.34.55.084 1 .941 1s1.559.45 1.559 1 .9 1 2 1 2-.45 2-1-.9-1-2-1-2-.45-2-1-.423-1-.941-1-1.219.45-1.559 1m318.25 2.706c1.237.238 3.263.238 4.5 0 1.237-.239.225-.434-2.25-.434s-3.487.195-2.25.434M337.5 549c-.34.55.084 1 .941 1s1.559.45 1.559 1 .9 1 2 1c2.369 0 2.509-.634.571-2.571-1.657-1.658-4.18-1.871-5.071-.429m61.812 1.645c.413.413-.267 1.296-1.511 1.962-2.257 1.207-2.256 1.21.372 1.052 1.45-.088 2.45-.458 2.225-.824s.132-.845.795-1.066c.711-.237.418-.704-.713-1.138-1.056-.405-1.581-.399-1.168.014M345.5 553c-.349.565.47 1 1.882 1 1.375 0 2.778-.45 3.118-1 .349-.565-.47-1-1.882-1-1.375 0-2.778.45-3.118 1m5.044 1.928c-.541.876 6.093.768 6.974-.112.338-.339-.991-.616-2.954-.616s-3.772.328-4.02.728m7.018 1.972c-.338.546 6.027.931 15.641.947 9.546.015 15.633-.33 14.807-.841-1.894-1.171-29.73-1.267-30.448-.106M640 557c0 .55 1.013.993 2.25.985 1.819-.013 1.963-.201.75-.985-1.939-1.253-3-1.253-3 0m8.75-.294c1.237.238 3.263.238 4.5 0 1.237-.239.225-.434-2.25-.434s-3.487.195-2.25.434M509 561.322c0 .805.675 1.723 1.5 2.04s1.5.332 1.5.035-.675-1.215-1.5-2.04c-1.301-1.301-1.5-1.306-1.5-.035m278.605 9.307c.388 1.579 1.085 3.021 1.55 3.204s.845 1.395.845 2.691c0 1.297.45 2.636 1 2.976s1 1.299 1 2.13c0 1.469 2.276 4.37 3.429 4.37.314 0 .571-.9.571-2s-.45-2-1-2-1-.726-1-1.614c0-1.793-3.776-9.122-5.799-11.257-1.076-1.135-1.179-.877-.596 1.5M626.75 588.737c2.888.202 7.612.202 10.5 0s.525-.367-5.25-.367-8.138.165-5.25.367m169.25.204c0 .518.45 1.219 1 1.559s1 1.716 1 3.059.45 2.441 1 2.441 1 .9 1 2 .417 2 .927 2c.509 0 1.119.563 1.354 1.25s.263.125.062-1.25c-.743-5.089-6.343-14.852-6.343-11.059M944.888 592c-1.176 2.88-1.087 18.588.098 17.409.679-.676.986-4.484.805-10-.16-4.9-.567-8.234-.903-7.409M736 609.031c0 .568.608 1.265 1.352 1.55.826.317 1.169 1.473.883 2.969-.257 1.348-.078 2.452.398 2.454s1.981 2.441 3.341 5.42 2.824 5.201 3.25 4.937.776.448.776 1.58.45 2.059 1 2.059 1 .702 1 1.559.45 1.281 1 .941c1.235-.763 1.332-4.5.117-4.5-1.498 0-1.921-4.918-.523-6.078 1.499-1.244-2.092-7.887-4.277-7.91-.65-.006-1.446-.844-1.769-1.86s-1.724-2.367-3.114-3c-3.099-1.412-3.434-1.424-3.434-.121m73.69 10.469c.801 5.137 3.04 10.5 4.382 10.5.576 0 .787.419.471.931s-.118 1.213.441 1.559 1.016-.272 1.016-1.372-.45-2.278-1-2.618-1-1.498-1-2.573c0-1.844-1.784-5.831-3.1-6.927-.33-.275-.878-1.175-1.217-2s-.337.3.007 2.5m-59.514 4.591c-.647 1.035-1.162 2.225-1.146 2.645s.503-.048 1.081-1.041c.83-1.427 1.349-1.558 2.47-.628 1.792 1.488 1.869.24.095-1.534-1.1-1.1-1.525-1.005-2.5.558m11.006 15.409c1.354 2.971 2.753 3.284 2.548.569-.08-1.062-.502-1.71-.938-1.441-.435.27-.792.013-.792-.569s-.44-1.059-.979-1.059c-.595 0-.532.979.161 2.5m-8.662 1.437c-.338 1.066-.073 2.979.589 4.25 2.452 4.712 2.891 5.82 2.891 7.299 0 .833.45 1.514 1 1.514s1-1.575 1-3.5-.45-3.5-1-3.5-1-1.125-1-2.5c0-1.532-.569-2.5-1.469-2.5-.894 0-1.243-.586-.893-1.5.317-.825.333-1.5.036-1.5-.296 0-.816.872-1.154 1.937m193.766 4.563c.008 2.75.202 3.756.432 2.236s.223-3.77-.014-5-.425.014-.418 2.764M820 647.97c0 1.083.9 3.572 2 5.53s2 4.222 2 5.03c0 .809.45 1.47 1 1.47s1-.9 1-2-.45-2-1-2-1-1.104-1-2.453c0-2.88-1.954-7.547-3.161-7.547-.461 0-.839.886-.839 1.97m-59.282 14.698c-.404.643-.066 3.739.752 6.88s1.203 6.172.854 6.736c-.363.589-.142.721.521.311.73-.451 1.155.044 1.155 1.346 0 1.132.45 2.059 1 2.059s1 .9 1 2 .401 2 .891 2c.875 0 1.659 3.343 2.756 11.75.305 2.337.959 4.25 1.454 4.25.494 0 .899.9.899 2s.45 2 1 2 1 .697 1 1.548.932 3.439 2.071 5.75c2.278 4.621 2.906 6.592 3.65 11.452.274 1.788.899 3.25 1.388 3.25.49 0 .891 1.602.891 3.559 0 2.118.405 3.309 1 2.941.866-.535 1.522 2.357 1.094 4.824-.079.454.318.54.881.191.616-.38 1.025.611 1.025 2.485 0 1.715.355 2.899.788 2.631.703-.435 1.589 1.242 4.154 7.869.426 1.1 1.738 3.955 2.916 6.345s2.142 4.976 2.142 5.75c0 .773.45 1.405 1 1.405s1 .9 1 2 .395 2 .879 2c.952 0 2.852 4.282 3.326 7.5.162 1.1 1.083 2.728 2.045 3.617.962.89 1.75 2.352 1.75 3.25s.45 1.633 1 1.633 1 1.152 1 2.559.368 2.332.818 2.054 1.42.329 2.155 1.35c.736 1.02 1.902 1.638 2.592 1.374.692-.266 1.583.559 1.988 1.841.403 1.277 1.456 3.003 2.34 3.836s2.087 2.378 2.674 3.433c.587 1.056 1.937 2.399 3 2.986s2.207 1.441 2.542 1.898c1.859 2.536 27.891-.194 27.891-2.924 0-1.347-7.762-1.027-16.424.678-2.709.533-5.184.586-5.5.119-.317-.467-1.364-1.14-2.326-1.496-.962-.355-1.75-1.334-1.75-2.177 0-.842-.45-1.531-1-1.531s-1-.707-1-1.571c0-1.429-.143-1.429-1.571 0-.865.864-1.906 1.571-2.313 1.571-2.461 0-11.743-13.963-10.327-15.533.391-.433.149-.464-.539-.068-.773.445-1.25.124-1.25-.84 0-.857-.337-1.566-.75-1.575s-1.851-2.258-3.197-5-2.808-4.984-3.25-4.984-.803-.697-.803-1.548-.9-3.411-2-5.688-2-4.73-2-5.452-.394-1.312-.875-1.312-1.134-1.296-1.451-2.879c-.317-1.584-1.273-3.577-2.125-4.429S792 746.012 792 744.63c0-1.381-.45-2.79-1-3.13s-1.007-2.279-1.015-4.309c-.012-2.751-.262-3.309-.985-2.191-.966 1.495-1.552-1.206-1.052-4.85.102-.743-.294-1.054-.881-.691-.921.569-1.596-2.111-1.185-4.709.065-.413-.332-.75-.882-.75s-1.01-.562-1.022-1.25-.902-2.375-1.978-3.75-1.966-3.711-1.978-5.191-.472-2.969-1.022-3.309-1-1.69-1-3-.45-2.66-1-3-1-1.904-1-3.476c0-1.571-.446-3.007-.991-3.191-.546-.183-1.094-1.57-1.218-3.083-.125-1.513-.579-2.75-1.009-2.75s-.782-.9-.782-2-.45-2-1-2-1-.862-1-1.917c0-1.054-.45-2.066-.999-2.25-.55-.183-1.06-2.962-1.134-6.176-.084-3.643-.455-5.337-.985-4.5-.801 1.263-1.298-.851-1.152-4.896.024-.682-.355-.993-.843-.691-.488.301-.887-.154-.887-1.011s-.417-1.559-.927-1.559c-.509 0-1.082-.788-1.273-1.75-.235-1.186-.584-1.373-1.082-.582m67.295 6.082c.019 2.44 5.613 18.276 6.917 19.58 2.502 2.502-.311-8.653-4.559-18.08-1.638-3.634-2.378-4.105-2.358-1.5M944 685.667c0 3.116.287 5.379.637 5.029.98-.98 1.171-10.696.21-10.696-.466 0-.847 2.55-.847 5.667m-159.965-1.117c.02.522.714 2.075 1.542 3.45l1.506 2.5-.654-2.5c-.682-2.608-2.458-5.167-2.394-3.45M836 692.441c0 1.343.45 2.719 1 3.059.583.361 1-.656 1-2.441 0-1.682-.45-3.059-1-3.059s-1 1.098-1 2.441m2.482 6.747c-.35.91-.151 2.561.441 3.668s1.077 3.167 1.077 4.578.45 2.566 1 2.566 1 1.098 1 2.441.45 2.719 1 3.059 1 1.661 1 2.937.614 2.827 1.364 3.45c1.09.905 1.316.678 1.128-1.127-.13-1.243-.301-4.285-.38-6.76-.105-3.304-.4-4.101-1.112-3-.783 1.212-.972 1.065-.985-.764-.008-1.245-.424-3.045-.924-4-.501-.955-1.599-3.304-2.442-5.22-1.184-2.693-1.676-3.108-2.167-1.828m-38.455 24.905c1.398 4.876 2.556 6.436 3.313 4.465.374-.977.229-1.41-.351-1.051-.878.542-1.446-2.084-1.102-5.09.068-.596-.5-1.084-1.264-1.084-1.04 0-1.189.692-.596 2.76M848.514 732c.346 1.925.865 5.637 1.154 8.249s.932 4.499 1.428 4.191c.497-.307.904.369.904 1.501s.378 2.059.84 2.059c.775 0 1.874 2.983 4.418 12 .543 1.925 1.382 4.281 1.865 5.236.482.955.877 2.418.877 3.25 0 .833.477 1.514 1.059 1.514s.803.414.491.919.111 1.599.941 2.429 1.509 1.999 1.509 2.598c0 1.433 7.089 8.299 7.817 7.571.309-.31-.423-1.253-1.627-2.097-1.205-.843-2.19-2.215-2.19-3.048s-.701-2.216-1.558-3.072c-.856-.857-1.311-2.198-1.011-2.981s.153-1.18-.326-.884c-.48.297-1.43-.805-2.11-2.448-.681-1.643-1.633-2.987-2.116-2.987s-.879-1.098-.879-2.441-.45-2.719-1-3.059-1.003-1.604-1.006-2.809-.608-3.345-1.344-4.755-1.296-3.955-1.244-5.655-.243-2.882-.656-2.627-.75-.469-.75-1.609c0-1.139-.423-2.854-.94-3.809s-1.172-2.861-1.456-4.236-1.238-3.4-2.119-4.5c-1.527-1.908-1.572-1.839-.971 1.5M932 747.441c0 2.227 1.566 2.67 1.73.49.08-1.062-.276-1.931-.792-1.931s-.938.648-.938 1.441m-7.248 14.774c-2.141 2.679-.674 4.85 1.684 2.492 1.609-1.609 2.148-4.717.814-4.694-.413.008-1.537.998-2.498 2.202m-110.361 3.627c.06 1.629.412 2.775.783 2.547s.864.155 1.095.849c.232.694.218-.088-.029-1.738-.615-4.092-1.985-5.32-1.849-1.658m93.482 15.331c-1.305 1.28-3.61 2.966-5.123 3.746-3.231 1.667-3.575 3.081-.75 3.081 1.1 0 2-.45 2-1s.695-1 1.545-1c2.334 0 6.912-4.943 5.7-6.155q-.999-1-3.372 1.328M874 786.839c0 1.021 4.445 3.134 6.797 3.231 1.402.058 1.35.222-.297.93-1.71.735-1.746.87-.25.93 3.78.152-.728 4.07-4.683 4.07-.736 0-2.588.648-4.115 1.44l-2.776 1.441 2.569.644c1.413.355 3.481.157 4.596-.44s2.957-1.085 4.093-1.085 2.066-.352 2.066-.782 1.237-.884 2.75-1.009 2.9-.672 3.083-1.218 1.196-.991 2.25-.991 1.917-.36 1.917-.8c0-1.479-2.382-3.2-4.45-3.215-2.281-.017-9.132-2.233-10.198-3.3-.964-.964-3.352-.854-3.352.154"/></svg>