<svg xmlns="http://www.w3.org/2000/svg" viewBox="0 0 1024 1024"><path fill="#00e5cc" d="M376.918 58.25c-1.516 4.607-.626 6.589 2.082 4.64 1.263-.908 1.222-.989-.262-.511-1.457.469-1.655.138-1.142-1.906.46-1.831-.15-3.829-.678-2.223m-16.612 3.167c.107.596-.368.971-1.056.833-.687-.138-1.25.2-1.25.75 0 1.56 1.527 1.18 3.349-.833 1.361-1.504 1.399-1.834.211-1.834-.797 0-1.361.488-1.254 1.084M148.679 69.5c.317 2.75.745 5.188.949 5.417.703.787.172-5.419-.677-7.917-.573-1.686-.662-.872-.272 2.5m22.593.5c0 2.475.195 3.487.434 2.25.238-1.237.238-3.263 0-4.5-.239-1.237-.434-.225-.434 2.25M414 67c0 .55-1.35 1-3 1s-3 .45-3 1-1.098 1-2.441 1-2.719.45-3.059 1-1.69 1-3 1-2.605.361-2.878.802c-.272.441-2.774 1.422-5.559 2.181-2.784.758-5.063 1.747-5.063 2.198s-1.35.819-3 .819-3 .45-3 1-.9 1-2 1c-1.975 0-2 .667-2 53 0 29.15.337 52.993.75 52.985 2.679-.055 2.961-2.426 3.024-25.485.036-13.2.101-24.592.146-25.316.05-.834 1.09-1.201 2.83-1l2.75.316.268 23.75c.254 22.46.37 23.75 2.143 23.75 2.775 0 3.283-2.187 3.832-16.5.503-13.121 1.141-15.5 4.159-15.5.911 0 2.305-.9 3.098-2 1.096-1.52 2.589-2 6.221-2 2.628 0 4.779-.45 4.779-1s1.035-1 2.301-1c1.265 0 3.511-.562 4.992-1.25l2.691-1.25.008-37.75L420 66h-3c-1.65 0-3 .45-3 1m-31.673 16.696c-3.185.62-4.893 6.021-2.678 8.469 3.89 4.298 10.257 1.337 10.319-4.798.029-2.834-2.355-4.857-4.968-4.217-.275.067-1.478.313-2.673.546m433.688 3.054c-.014 2.948.264 3.25 2.985 3.25 1.65 0 3 .398 3 .883 0 .486.788 1.162 1.75 1.501.962.34 2.285.87 2.939 1.18.801.379 1.291-.845 1.5-3.746.28-3.881.608-4.371 3.311-4.945 1.858-.394-.141-.681-5.25-.755-5.989-.086-8.254.225-8.265 1.132q-.016 1.25-.985-.25c-.736-1.138-.973-.716-.985 1.75M932 96.833c0 13.589.427 15.43 2.793 12.052.906-1.294 1.096-2.349.493-2.744-2.125-1.39-2.324-13.9-.201-12.588.503.311.915.088.915-.494S936.675 92 937.5 92s1.5-.45 1.5-1 1.479-1 3.287-1c2.652 0 3.319-.418 3.45-2.16.09-1.188.748-2.531 1.463-2.985.744-.472-2.229-.831-6.95-.84L932 84zm20.273-10.54c1.575 2.405.375 5.707-2.074 5.707-.595 0-1.321.388-1.614.862s.243.758 1.191.631C953.677 92.969 956 91.665 956 90c0-.972.871-1.994 1.935-2.273 2.378-.622 6.065 1.808 6.065 3.996 0 .886.296 1.314.658.952s1.262-.156 2 .456c1.02.847 1.342.758 1.342-.372 0-2.263-4.97-6.743-7.636-6.884-3.594-.19-4.135-.313-4.947-1.125-.413-.412-1.627-.75-2.699-.75-1.801 0-1.835.173-.445 2.293m-150.61.889c1.19.575 2.385 1.895 2.657 2.932.271 1.037 1.177 1.886 2.013 1.886s1.666.645 1.844 1.433c.28 1.244.579 1.244 2.264 0 1.763-1.301 1.779-1.433.179-1.433-2.187 0-4.62-2.333-4.62-4.429 0-1.12-.933-1.552-3.25-1.503-2.989.062-3.076.151-1.087 1.114M168.32 94c0 3.575.182 5.037.403 3.25s.222-4.713 0-6.5c-.221-1.787-.403-.325-.403 3.25m626.188-4.987c.281.454-.172 1.508-1.006 2.343-.835.834-1.176 1.711-.76 1.948.417.238 1.742-.588 2.945-1.836 2.114-2.193 2.122-2.285.248-2.775-1.066-.278-1.708-.135-1.427.32M564 91c0 .55-.707 1-1.571 1-1.465 0-5.235 2.964-4.679 3.679.708.91.113 2.354-.75 1.821-.657-.406-1 8.49-1 25.941 0 17.039.358 26.559 1 26.559.55 0 1 .707 1 1.571 0 1.804 1.869 3.78 4.024 4.254.812.179 1.626.741 1.809 1.25s2.996.925 6.25.925H576v-28h-3c-2.061 0-3 .492-3 1.571 0 .865-.732 2.304-1.628 3.199-1.503 1.504-1.845 1.384-4.485-1.571-1.573-1.759-3.54-3.199-4.373-3.199-2.821 0-1.705-4.875 1.953-8.533 4.443-4.444 8.532-4.787 8.535-.717.002 2.341.447 2.781 3 2.96l2.998.209V96h-2.5c-1.375 0-2.5-.45-2.5-1s1.125-1 2.5-1c1.833 0 2.5-.533 2.5-2 0-1.778-.667-2-6-2-3.333 0-6 .444-6 1m-412.85 4.668c-.083 1.193-.441 2.993-.797 4-.498 1.409-.364 1.571.578.704.674-.621 1.033-2.421.797-4-.302-2.024-.473-2.231-.578-.704M838 120v26h84V94h-84zm-244 3.989V150h88.034l-.267-25.75-.267-25.75-43.75-.261-43.75-.26zM562.5 101c.34.55-.084 1-.941 1-2.739 0-2.042 7.219.949 9.82 2.62 2.278 5.492 2.895 5.492 1.18 0-.55.9-1 2-1 1.479 0 2-.667 2-2.559 0-1.451.433-2.292 1-1.941.55.34 1 .141 1-.441s-.45-1.059-1-1.059-1-.707-1-1.571c0-.865-.643-2.215-1.429-3-1.615-1.616-9.049-2.011-8.071-.429m229.5 3.062c0 3.563.245 3.938 2.571 3.938 1.415 0 3.251.679 4.081 1.509s1.923 1.254 2.429.941c.536-.331.919 3.628.919 9.491 0 6.039.4 10.059 1 10.059.55 0 1 .9 1 2s.45 2 1 2 1.001.563 1.002 1.25 1.351 2.825 2.998 4.75 2.996 4.063 2.998 4.75c.001.688.452 1.25 1.002 1.25s1 .675 1 1.5.45 1.5 1 1.5 1 .47 1 1.045 1.088 2.134 2.417 3.463l2.417 2.417 60.487-.212c33.268-.117 60.09-.458 59.605-.758s.008-1.187 1.096-1.971S944 150.857 944 150s.9-2.207 2-3 2-2.269 2-3.28.45-1.56 1-1.22 1-.084 1-.941.45-1.559 1-1.559 1-.675 1-1.5.45-1.5 1-1.5 1-.675 1-1.5.45-1.5 1-1.5 1-.927 1-2.059.45-1.781 1-1.441c.641.396 1-2.916 1-9.219 0-10.979 1.197-13.281 6.906-13.281 2.634 0 2.917-.346 3.265-4 .344-3.607.158-4-1.895-4-1.402 0-2.276.603-2.276 1.571 0 1.957-2.386 4.429-4.274 4.429-1.559 0-4.56-2.921-4.624-4.5-.07-1.748-5.102-1.825-5.102-.078 0 2.11-3.122 5.621-4.333 4.872-.541-.334-.658-.089-.262.551.392.635 1.958 1.155 3.48 1.155 4.979 0 7.115 3.569 7.115 11.886 0 8.537-.915 9.866-7.404 10.756-3.973.544-4.408.84-3.561 2.423 1.147 2.143 1.274 4.984.215 4.817-1.79-.283-10.544.155-10.167.508.23.214 2.401.661 4.827.993 2.425.331 4.573.767 4.773.967 1.077 1.077-1.307 3.767-4.04 4.559-2.489.721-2.675.929-.893 1.001 4.082.163 2.34 2.088-2 2.208-2.337.066-4.587.066-5 0-.413-.065-.75 1.232-.75 2.882v3H828v-3.3c0-3.058-.239-3.3-3.258-3.3-1.791 0-4.154-.392-5.25-.871-1.736-.759-1.541-.961 1.508-1.568l3.5-.698-4-.147c-2.98-.109-3.618-.394-2.5-1.116 1.206-.779 1.046-.972-.817-.985-1.86-.012-2.192-.41-1.683-2.015.382-1.204.18-2-.509-2-.714 0-1.021-1.412-.818-3.75.323-3.701.276-3.754-3.563-4.069-5.664-.464-6.61-1.916-6.61-10.145 0-8.947 1.708-12.036 6.654-12.036h3.424l-2.028-2.176c-1.115-1.197-2.288-2.997-2.606-4-.613-1.933-3.444-2.561-3.444-.765 0 .582-.45.781-1 .441s-1 .084-1 .941c0 1.152-1.044 1.559-4 1.559-3.175 0-4-.369-4-1.787 0-1.071-.802-1.848-2-1.938-1.687-.127-2 .466-2 3.787m34.29-.062c-.288 1.1-.921 2-1.407 2-.485 0-.883.45-.883 1s.638 1 1.417 1 1.643.563 1.921 1.25c.277.688.54-.662.583-3 .083-4.477-.749-5.624-1.631-2.25m50.082 1.907c-3.674.697-8.372 4.002-8.372 5.889 0 .727-.45 1.044-1 .704-.591-.365-1 .756-1 2.741 0 1.847-.54 3.899-1.2 4.559-.933.933-.933 1.467 0 2.4.66.66 1.2 2.025 1.2 3.033s1.626 3.46 3.614 5.447c3.438 3.438 3.942 3.614 10.365 3.614 6.148 0 7.055-.276 10.152-3.095 3.915-3.562 6.89-11.578 5-13.468-.622-.622-1.131-2.193-1.131-3.49 0-1.318-.441-2.086-1-1.741-.55.34-1 .109-1-.512 0-3.699-9.235-7.293-15.628-6.081m-250.217 6.428c-3.469 3.693-3.219 20.379.353 23.485 2.801 2.436 10.004 3.057 10.784.93.366-1 .723-1 1.783 0 2.466 2.326 10.899.395 10.917-2.5.004-.687.458-1.25 1.008-1.25 1.466 0 1.252-15.584-.25-18.225-2.482-4.363-3.221-4.631-12.952-4.683-8.635-.047-9.681.154-11.643 2.243m165.712 2.915c-.363 8.859.448 26.29 1.237 26.583.493.184.896 1.448.896 2.809 0 1.396.436 2.206 1 1.858.55-.34 1 .309 1 1.441s.59 2.059 1.311 2.059c.722 0 2.278.9 3.459 2 1.401 1.306 3.529 2 6.129 2 2.191 0 4.261.45 4.601 1s1.604.964 2.809.921 1.629-.306.941-.583c-.687-.278-1.25-1.282-1.25-2.233 0-.95-.788-2.6-1.75-3.666-.962-1.067-2.389-3.177-3.169-4.689s-1.793-2.75-2.25-2.75-.831-.59-.831-1.311c0-.722-.788-2.207-1.75-3.301-3.606-4.1-4.25-6.413-4.25-15.267 0-9.538-.321-10.121-5.582-10.121-2.034 0-2.439.516-2.551 3.25m169.985 0c-.374 8.205-1.969 17.75-2.967 17.75-.487 0-.885.469-.885 1.042s-.9 2.008-2 3.188-2 2.737-2 3.459c0 .721-.374 1.311-.831 1.311s-1.47 1.238-2.25 2.75-2.161 3.573-3.068 4.58c-.906 1.006-1.865 2.961-2.129 4.343-.438 2.29-.246 2.453 2.149 1.832 1.446-.375 4.54-.912 6.876-1.194s3.997-.917 3.691-1.411c-.306-.495.178-.9 1.074-.9 6.497 0 9.886-14.853 8.613-37.75-.1-1.806-.718-2.25-3.125-2.25-2.688 0-3.015.338-3.148 3.25M631 115c-1.213.784-1.069.972.75.985 1.237.008 2.25-.435 2.25-.985 0-1.253-1.061-1.253-3 0m-464.859 9.5c0 4.788.271 6.368.859 5 .473-1.1.859-3.35.859-5s-.386-3.9-.859-5c-.588-1.368-.859.212-.859 5M628 126.8c0 5.074 1.24 7.2 4.2 7.2 1.533 0 1.8-.889 1.8-6v-6h-3c-2.917 0-3 .133-3 4.8m-62.5-1.8c.34.55.115 1-.5 1s-.84.45-.5 1c1.087 1.76 3.5 1.07 3.5-1 0-1.145-.667-2-1.559-2-.857 0-1.281.45-.941 1M380 129.883c0 1.043.893 2.117 2 2.407 1.591.416 2 .03 2-1.884 0-1.739-.554-2.406-2-2.406-1.292 0-2 .667-2 1.883m552 7.558c0 4.093.394 7.685.876 7.982s.782-2.395.667-5.984c-.116-3.59.165-6.758.623-7.042 1.373-.848.943-2.397-.666-2.397-1.199 0-1.5 1.493-1.5 7.441M567.71 138c-.751 2.871.281 6 1.978 6 1.838 0 4.312-2.427 4.312-4.229 0-3.634-5.405-5.156-6.29-1.771M826 141.5c0 1.925.176 3.5.391 3.5.214 0 .574-1.575.799-3.5s.049-3.5-.391-3.5c-.439 0-.799 1.575-.799 3.5M421.23 144c-1.18 1.1-3.29 2-4.688 2s-2.542.45-2.542 1-2.519 1-5.599 1c-4.931 0-5.933.358-8.401 3-1.541 1.65-3.23 3-3.753 3-2.198 0-2.979 29.452-.855 32.25 2.636 3.472 10.608-.108 10.608-4.764 0-.882.45-1.326 1-.986s1-.084 1-.941.45-1.559 1-1.559 1-.645 1-1.433.9-1.718 2-2.067 2-1.054 2-1.567 1.152-.933 2.559-.933c1.451 0 2.292-.433 1.941-1-.361-.583.656-1 2.441-1 1.682 0 3.059-.45 3.059-1s2.185-1 4.855-1c4.236 0 5.191.405 7.488 3.178 1.448 1.749 2.751 2.986 2.895 2.75 2.417-3.954 2.722-5.134 1.785-6.885-.563-1.051-1.023-3.066-1.023-4.477s-.45-2.566-1-2.566-1.014-1.012-1.032-2.25c-.017-1.238-.67-3.092-1.449-4.122-2.169-2.864-4.519.048-4.519 5.601 0 5.095-1.3 6.771-5.255 6.771-2.782 0-2.847-.121-2.55-4.75.279-4.35.537-4.777 3.055-5.066 1.512-.174 2.75-.711 2.75-1.193s-.826-.717-1.835-.523c-2.332.449-5.264-1.377-3.415-2.127.688-.279 1.25-1.82 1.25-3.424 0-2.426.411-2.917 2.441-2.917 1.343 0 2.762-.52 3.154-1.155.423-.684.277-.884-.36-.49-.591.365-1.753-.016-2.583-.846-2.075-2.075-4.866-1.89-7.422.491m-6.001 5.171c-1.69 1.69-1.543 4.494.271 5.191 2.669 1.024 4.628-.447 4.304-3.231-.335-2.88-2.659-3.876-4.575-1.96M428 150.938c0 .516.869.872 1.931.792s1.71-.502 1.441-.938c-.686-1.108-3.372-.993-3.372.146M402 158c0 4.107.594 4.571 5.322 4.157 6.996-.612 5.376-8.157-1.751-8.157-3.5 0-3.571.08-3.571 4m11.173 4.758c-2.364 4.884-2.418 5.242-.78 5.242.884 0 1.621.563 1.639 1.25.019.769.539.582 1.349-.484.724-.954 1.61-1.442 1.968-1.084s.651-.099.651-1.015c0-.917.482-1.667 1.071-1.667.59 0 .397-.675-.428-1.5s-2.009-1.5-2.631-1.5-.852-.45-.512-1 .254-.996-.191-.992-1.406 1.242-2.136 2.75M105.5 279c.34.55.006 1-.742 1-4.548 0-8.758 4.69-8.758 9.758 0 1.319-.441 2.087-1 1.742-.611-.378-1 1.156-1 3.941 0 2.507-.45 4.559-1 4.559s-1 1.8-1 4-.45 4-1 4-1 1.8-1 4-.45 4-1 4-1 1.62-1 3.6c0 3.868 5.239 10.4 8.341 10.4.848 0 1.819.45 2.159 1 .396.641 15.51 1 42.059 1 26.961 0 41.441-.349 41.441-1 0-.55.9-1 2-1s2-.45 2-1 .702-1 1.559-1 1.281-.45.941-1-.141-1 .441-1 1.059-.863 1.059-1.917.563-2.179 1.25-2.5c1-.466 1-.7 0-1.166-.688-.321-1.25-2.345-1.25-4.5s-.45-3.917-1-3.917-1-1.998-1-4.441-.45-4.719-1-5.059-1-2.391-1-4.559-.45-3.941-1-3.941-1-1.59-1-3.533c0-3.799-5.394-10.467-8.467-10.467-.843 0-1.533-.45-1.533-1 0-.647-12.186-1-34.559-1-22.785 0-34.348.341-33.941 1m34.665 15.324c-1.201 1.278-1.965 2.543-1.698 2.81s-1.846.52-4.695.563c-4.453.067-5.503.48-7.471 2.941-2.412 3.013-2.982 5.362-1.301 5.362.55 0 1 .707 1 1.571 0 2.771 5.35 6.429 9.403 6.429 1.337 0 2.619-.562 2.851-1.25.332-.989 1.209-.967 4.199.107 3.9 1.4 6.909.659 10.297-2.536 1.68-1.583 1.589-4.321-.143-4.321-1.973 0-2.794-2.782-1.522-5.158.592-1.107.928-2.102.746-2.211s-1.574-.824-3.093-1.589c-1.981-.999-2.598-1.908-2.182-3.217.869-2.74-3.682-2.385-6.391.499m548.592.252c-.208.208-26.77.563-59.027.789-62.487.437-61.73.374-61.73 5.123 0 .896-.45 1.352-1 1.012-.595-.368-1 .823-1 2.941 0 1.957-.45 3.559-1 3.559-.6 0-1 4-1 10s.4 10 1 10c.55 0 1.001 1.462 1.001 3.25.001 1.974.93 4.33 2.367 6l2.365 2.75H696v-21.933c0-21.854-.008-21.935-2.25-22.689-3.019-1.014-4.536-1.258-4.993-.802m-340.507 3.201-14.25.278V334h99.198l2.802 3c2.839 3.039 8.165 4.16 9.5 2 .34-.55 1.743-1 3.118-1s2.273-.368 1.995-.818.37-1.449 1.441-2.221c1.782-1.285 1.946-2.69 1.946-16.727 0-14.885-.07-15.395-2.424-17.749l-2.424-2.424-43.326-.28c-23.829-.155-49.739-.156-57.576-.004M864 299c0 .55-1.35 1-3 1s-3 .45-3 1-.801 1-1.779 1c-.979 0-2.428.9-3.221 2s-2.032 2-2.754 2c-1.908 0-8.246 6.636-8.246 8.633 0 .935-.293 1.407-.652 1.049-.841-.842-3.348 3.975-3.348 6.432 0 1.037-.45 1.886-1 1.886-.608 0-1 4.48-1 11.441 0 6.549.428 11.705 1 12.059.55.34 1 1.491 1 2.559s.45 1.941 1 1.941 1 .745 1 1.656c0 2.705 14.704 16.344 17.621 16.344 1.41 0 2.228.435 1.879 1-.367.594.803 1 2.882 1 1.925 0 3.778.45 4.118 1s3.49 1 7 1 6.66-.45 7-1 1.915-1 3.5-1 3.16-.45 3.5-1 1.491-1 2.559-1 1.941-.45 1.941-1 .702-1 1.559-1 1.281-.45.941-1 .135-1 1.056-1c1.662 0 8.444-6.616 8.444-8.237 0-.466.9-1.813 2-2.993 1.1-1.181 2-3.214 2-4.518 0-1.325.441-2.098 1-1.752.84.519 1.641-6.675 1.094-9.824-.079-.454.371-.507.999-.119 1.133.701 1.079-.179-.722-11.813-.32-2.066-.985-4.005-1.477-4.309s-.894-1.426-.894-2.494-.42-1.941-.933-1.941-1.218-.902-1.568-2.004C904.595 313.15 895.448 304 893.506 304c-.893 0-1.346-.45-1.006-1 .351-.567-.49-1-1.941-1-1.407 0-2.559-.45-2.559-1s-1.125-1-2.5-1-2.5-.45-2.5-1c0-.596-3.833-1-9.5-1s-9.5.404-9.5 1m-258.75 3.662c-.687.278-1.25 1.555-1.25 2.838s-.562 2.596-1.25 2.917c-1 .466-1 .7 0 1.166.751.351 1.25 2.545 1.25 5.5 0 4.25.271 4.917 2 4.917 1.696 0 2-.667 2-4.393 0-3.958 1.053-5.607 3.582-5.607.23 0 .418 2.25.418 5v5h8v-4c0-3.333.333-4 2-4 1.481 0 2 .667 2 2.571 0 4.582 4.674 7.264 9.477 5.438 2.311-.879 2.542-1.281 1.474-2.568-.959-1.156-.985-1.807-.109-2.683 2.856-2.856-.239-7.108-5.073-6.97-1.69.048-3.489.678-3.997 1.399-.727 1.033-1.033 1.046-1.431.063-.31-.762-2.428-1.25-5.424-1.25-4.542 0-6.602-1.266-3.667-2.254 1.327-.447-.66-3.746-2.256-3.746-1.283 0-1.856 3.877-.638 4.315 2.082.748-.162 1.881-2.35 1.187-1.987-.631-2.018-.773-.422-1.94 3.069-2.244-.327-4.516-4.334-2.9m35.333 2.472c.239.387-.265 1.405-1.122 2.262-1.183 1.183-1.305 2.026-.509 3.515.576 1.076 1.048 3.562 1.048 5.523 0 3.502.073 3.566 4.059 3.566 2.451 0 3.814-.396 3.441-1-.34-.55-1.266-1-2.059-1-1.889 0-1.899-4.685-.014-6.57 1.237-1.237 1.638-1.006 3 1.725.865 1.734 1.573 3.983 1.573 4.999 0 1.384.75 1.846 3 1.846 2.667 0 3-.333 3-3 0-1.65.399-3 .887-3 .487 0 1.084-1.35 1.326-3s.105-3-.304-3c-1.894 0-3.909 1.344-3.909 2.607 0 1.864-1.012 1.759-2.486-.257-.663-.907-2.738-2.167-4.61-2.799s-3.324-1.593-3.225-2.135c.098-.543-.657-.987-1.677-.987s-1.659.317-1.419.705M356 316v10h3.917c2.155 0 4.179-.562 4.5-1.25.466-1 .7-1 1.166 0 .788 1.688 17.536 1.731 19.217.05.933-.933 1.2-.933 1.2 0 0 1.62 7.659 1.574 8.417-.05.466-1 .7-1 1.166 0 .415.888 3.745 1.25 11.5 1.25H418v-15.89l-11-.03c-7.337-.02-11 .335-11 1.067 0 .759-.385.781-1.25.071-.687-.565-5.911-1.057-11.608-1.094-9.113-.059-10.569-.311-12.117-2.095-1.438-1.658-2.973-2.029-8.392-2.029H356zm86-7.07c0 .512-1.001 1.075-2.225 1.25s-2.726 1.33-3.339 2.564-1.412 1.947-1.775 1.583c-.364-.363-.661.315-.661 1.506 0 1.645-.603 2.167-2.5 2.167-1.375 0-2.5.45-2.5 1s-.482 1-1.071 1c-1.17 0-4.396 2.899-3.798 3.412 1.381 1.186 5.074 2.588 6.817 2.588 4.015 0 11.052-5.204 11.052-8.174 0-1.004.477-1.826 1.059-1.826s.803-.414.491-.919.111-1.599.941-2.429c2.151-2.151 1.887-4.652-.491-4.652-1.1 0-2 .419-2 .93m465.646 1.834c-.26.42.482 2.782 1.648 5.25 3.547 7.508 4.675 11.292 4.691 15.736L914 336h10v-26h-7.941c-4.368 0-8.153.344-8.413.764m-38.896 5.041c-2.062.174-3.75.655-3.75 1.069s-1.575 1.371-3.5 2.126-3.5 1.991-3.5 2.746-.45 1.094-1 .754-1 .309-1 1.441-.45 2.059-1 2.059-1 1.548-1 3.441-.45 3.719-1 4.059-1 1.941-1 3.559.45 2.941 1 2.941 1 1.377 1 3.059c0 1.785.417 2.802 1 2.441.55-.34 1-.096 1 .541 0 1.739 6.564 7.959 8.4 7.959.88 0 1.6.45 1.6 1 0 .571 3 1 7 1s7-.429 7-1c0-.55.707-1 1.571-1 .865 0 2.199-.562 2.966-1.25.766-.687 1.972-1.757 2.678-2.377 2.806-2.463 4.785-5.492 4.785-7.325 0-1.062.45-2.208 1-2.548s1-2.841 1-5.559-.45-4.941-1-4.941-1-.9-1-2-.45-2-1-2-1-.675-1-1.5-.45-1.5-1-1.5-1-.675-1-1.5-.675-1.5-1.5-1.5-1.5-.45-1.5-1-.638-1-1.417-1-1.566-.385-1.75-.856c-.397-1.022-7.827-1.782-13.083-1.339m-224.547 9.189c-1.602 2.815-2.09 3.001-8.203 3.129-10.172.212-16.415-.222-17.45-1.213-.523-.501-1.985-.91-3.25-.91s-2.3-.45-2.3-1-1.125-1-2.5-1-2.5.257-2.5.571c0 1.96 10.008 7.429 13.595 7.429 1.323 0 2.405.45 2.405 1 0 .554 2.647 1 5.941 1 3.268 0 6.219-.45 6.559-1s2.166-1 4.059-1 3.441-.45 3.441-1c0-1.408 3.75-1.251 4.226.177.568 1.705 2.414.25 4.183-3.296 2.965-5.942-4.894-8.707-8.206-2.887M168.1 344.813c-1.48 2.766 2.081 6.112 4.429 4.163.862-.716 1.433-2.24 1.269-3.388-.401-2.808-4.324-3.341-5.698-.775m371.15 104.954c-15.691.166-25.25.639-25.25 1.25 0 .618 9.56.989 25.75.998 14.163.009 26.319.377 27.015.818.984.625 1.205 7.746 1 32.191l-.265 31.389-55.5.043-55.5.044-.264-32.25-.264-32.25h27.014c17.343 0 27.014-.358 27.014-1 0-1.737-54.821-1.322-56.571.429-1.771 1.77-2.135 25.125-.375 24.038.696-.431.974 1.093.819 4.494-.13 2.83-.604 5.373-1.054 5.651-1.423.879-.999 31.351.456 32.806 1.901 1.901 115.511 1.939 117.411.039 1.866-1.866 1.927-65.727.064-67.2-2.054-1.624-5.119-1.769-31.5-1.49m-338.94 9.232c.104 4.949.568 8.999 1.031 9s.688-3.02.5-6.711l-.341-6.713 3.888-.919 3.889-.92-3.253-1.368c-5.785-2.432-5.923-2.249-5.714 7.631m15.565-2.499c-.575 2.298.19 3.292 4.04 5.25 2.433 1.238 5.248 2.25 6.254 2.25 1.007 0 1.831.45 1.831 1s.873 1 1.941 1 2.219.45 2.559 1 1.293 1 2.118 1 1.217-.457.872-1.016-1.117-.715-1.714-.346c-.653.404-.797.205-.361-.5.398-.644 1.142-.912 1.654-.595.512.316.931.098.931-.484s-.9-1.059-2-1.059-2-.45-2-1-.9-1-2-1-2-.45-2-1-.681-1-1.514-1c-.832 0-2.407-.45-3.5-1l-3.972-2c-2.221-1.118-2.955-1.235-3.139-.5m62.77.983c-.341.888-1.286 1.257-2.357.919-1.707-.54-1.708-.499-.021.889 1.041.857 1.511 2.124 1.143 3.082-.343.895-.148 1.627.433 1.627 1.531 0 2.972-2.992 2.433-5.051-.294-1.128.205-1.938 1.381-2.242 1.568-.404 1.524-.492-.3-.591-1.179-.064-2.399.551-2.712 1.367M458 485.016v29.016l54-.049 54-.049V456H458zM284 460c0 1.429.667 2 2.333 2 3.1 0 3.879-.931 2.191-2.619-2.04-2.04-4.524-1.7-4.524.619m191.221-.269-3.279.4.093 24.955.093 24.955 39.936-.064 39.936-.063V460h-35.418c-19.48 0-36.018-.15-36.75-.334-.733-.184-2.808-.154-4.611.065m-266.099 1.173c-.758.48-1.069 1.373-.691 1.984.855 1.383 5.569 1.478 5.569.112 0-.55-.927-1-2.059-1s-1.781-.45-1.441-1c.752-1.217.427-1.24-1.378-.096M255 463c1.108.716.454.977-2.5 1-2.2.017-4.675.467-5.5 1-1.282.828-1.246.972.25.985.963.008 1.75.465 1.75 1.015s2.223 1 4.941 1 5.219-.45 5.559-1 .104-1-.524-1c-.629 0-.946-.562-.706-1.25.241-.687 1.223-1.107 2.184-.933 1.036.188 1.478-.117 1.087-.75-.362-.587-2.32-1.06-4.35-1.052-2.751.012-3.309.262-2.191.985m11 1.5c.685.825 1.626 1.5 2.091 1.5s.587-.675.271-1.5c-.317-.825-1.258-1.5-2.091-1.5-1.234 0-1.284.279-.271 1.5m17.378.859c-.617.705-1.067 2.376-1 3.712.23 4.57 11.622 3.355 11.622-1.24 0-1.007.45-1.831 1-1.831s1-.45 1-1c0-1.487-11.289-1.166-12.622.359m-61.1 6.045c.307 2.972 1.252 6.685 2.1 8.25 1.511 2.789 1.543 2.701 1.582-4.404.025-4.461-.367-7.25-1.019-7.25-.582 0-.781-.45-.441-1s-.146-1-1.081-1c-1.458 0-1.62.767-1.141 5.404M228 477.8c0 5.65.416 10.2.934 10.2.513 0 1.076 1.238 1.25 2.75.249 2.165.905 2.818 3.083 3.068 1.522.175 2.573.632 2.335 1.016-.237.385.655 1.212 1.983 1.838 1.818.858 2.419.854 2.43-.016.009-.653.452-.504 1.019.344.693 1.037.95-2.279.831-10.75-.157-11.182-.332-12.25-2.018-12.25-1.016 0-1.847-.45-1.847-1s-.9-1-2-1-2-.45-2-1-.81-1-1.8-1-2.34-.54-3-1.2c-.933-.933-1.2 1.067-1.2 9m37.5-8.8c.373.604-.99 1-3.441 1-4.485 0-5.558 2.142-2.309 4.608 2.054 1.559 11.688 1.91 10.75.392-.34-.55.281-1 1.379-1 1.38 0 1.95-.617 1.846-2-.083-1.1-.617-2.007-1.188-2.015-.57-.009-.362-.452.463-.985 1.083-.7.165-.974-3.309-.985-2.955-.009-4.571.371-4.191.985m-65.5 8.941c0 4.918.359 9.163.799 9.435.439.271.777-3.752.75-8.94s-.387-9.434-.799-9.435c-.412 0-.75 4.022-.75 8.94m47.5-7.362c.63.265.95 8.655.866 22.671-.084 13.924.175 20.753.692 18.25.455-2.2.853-12.437.884-22.75.053-17.241-.083-18.744-1.692-18.671-.963.043-1.3.268-.75.5M722 473c0 .55-.707 1-1.571 1-2.021 0-4.429 2.408-4.429 4.429 0 .864-.45 1.571-1 1.571s-1 1.8-1 4-.45 4-1 4-1 1.8-1 4-.45 4-1 4-1 1.8-1 4-.45 4-1 4-1 1.827-1 4.059c0 2.451-.396 3.814-1 3.441-2.049-1.266-1.125 7.969.946 9.461 1.071.772 1.719 1.771 1.441 2.221s.422.818 1.554.818 2.059.45 2.059 1c0 .654 18.833 1 54.5 1 29.975 0 54.5-.34 54.5-.756s1.35-1.353 3-2.084c1.759-.778 3-2.086 3-3.16 0-1.009.563-2.096 1.25-2.417 1-.466 1-.7 0-1.166-.688-.321-1.25-2.345-1.25-4.5s-.45-3.917-1-3.917-1-1.8-1-4-.45-4-1-4-1-1.548-1-3.441-.45-3.719-1-4.059-1-2.166-1-4.059-.45-3.441-1-3.441-1-1.827-1-4.059-.399-3.813-.886-3.511c-.488.301-1.121-.347-1.407-1.441S816.47 474 815.594 474c-.877 0-1.594-.45-1.594-1 0-.652-16-1-46-1s-46 .348-46 1m-468 53.5c0 28.325.338 51.485.75 51.467s1.875-.969 3.25-2.113l2.5-2.079.204-46.888.204-46.889-2.5-2.499c-1.374-1.374-2.928-2.499-3.453-2.499-.594 0-.955 19.468-.955 51.5m-21.333-49.833c-1.638 1.637-.644 10.356 1.414 12.414 1.94 1.94 2.206 1.97 3.897.439 1.423-1.287 1.928-1.359 2.339-.331.289.721.557-1.389.596-4.689.066-5.569-.122-6.09-2.62-7.25-3.016-1.4-4.641-1.569-5.626-.583M268.5 479c-.34.55-1.491 1-2.559 1s-1.941.45-1.941 1 .9 1 2 1 2-.45 2-1 1.238-1.007 2.75-1.015 3.425-.452 4.25-.985c1.118-.723.56-.973-2.191-.985-2.03-.008-3.969.435-4.309.985m503.5 6c0 .55-.801 1-1.779 1-.979 0-2.428.9-3.221 2-1.036 1.438-2.589 2-5.521 2-4.655 0-9.46 1.902-9.471 3.75-.004.688-.458 1.25-1.008 1.25s-1 .81-1 1.801c0 2.76 2.342 7.182 3.809 7.191.72.004 1.031.458.691 1.008s.315 1 1.455 1c1.139 0 2.966.558 4.059 1.241 1.581.987 2.391.987 3.972 0 2.417-1.509 6.469-1.603 9.071-.211 2.224 1.191 6.248-.5 9.349-3.927 1.874-2.069 1.87-2.129-.252-3.969-2.386-2.07-2.834-4.739-.904-5.388 2.25-.757-1.239-3.746-4.372-3.746-1.94 0-2.878-.508-2.878-1.559 0-.879.48-1.263 1.1-.879.773.477.762.049-.035-1.441C773.892 483.93 772 483.238 772 485m-570.748 7.5c.011 2.2.216 2.982.455 1.738s.23-3.044-.02-4-.446.062-.435 2.262M234 499c0 .55.45 1 1 1s1 1.35 1 3 .45 3 1 3 1 .605 1 1.345c0 3.496 6.236 6.088 7.393 3.073 1.945-5.068-1.22-10.771-4.798-8.646-.497.295-.583.017-.19-.617.422-.685.078-1.155-.846-1.155-.857 0-1.559-.45-1.559-1s-.9-1-2-1-2 .45-2 1m-23.985 3.25c.01 1.463.288 1.821.796 1.022.573-.902 1.157-.703 2.205.75 1.906 2.644 4.984 2.594 4.984-.081 0-1.132-.414-1.803-.919-1.491-.506.313-1.599-.111-2.429-.941-2.264-2.264-4.655-1.882-4.637.741M220 521c0 .55-2.052 1-4.559 1-2.785 0-4.319.389-3.941 1 .34.55-.309 1-1.441 1s-2.059.45-2.059 1 .702 1 1.559 1c.924 0 1.268.47.846 1.155-.423.684-.277.884.36.49.591-.365 1.753.016 2.583.846s2.243 1.509 3.14 1.509c.896 0 1.352.45 1.012 1s.309 1 1.441 1 2.059.45 2.059 1 .675 1 1.5 1 1.5.45 1.5 1 .9 1 2 1 2 .54 2 1.2c0 .861.306.894 1.082.118.743-.743.765-1.668.072-2.95-.555-1.027-1.554-4.68-2.219-8.118-1.146-5.93-1.355-6.25-4.072-6.25-1.574 0-2.863.45-2.863 1m233.395 1.83c.398.644.246 1.17-.336 1.17s-1.059.702-1.059 1.559-.461 1.274-1.025.926c-.563-.349-.96-.263-.881.191.404 2.329-.195 6.379-.882 5.955-.433-.268-.886.698-1.006 2.147s-.665 3.081-1.212 3.628S446 540.66 446 542.2s-.45 2.8-1 2.8-1 1.35-1 3-.45 3-1 3-1 1.602-1 3.559c0 2.118-.405 3.309-1 2.941s-1 .823-1 2.941c0 1.957-.45 3.559-1 3.559s-1 .9-1 2c0 1.949.667 2 26.008 2 25.395 0 25.981-.045 24.81-1.92-.929-1.488-.931-3.077-.008-7.076 1.576-6.829 1.635-6.577-1.879-8.033-2.255-.934-7.496-1.132-19.75-.745-9.175.289-17.243.319-17.931.067-1.481-.544-1.699-4.293-.25-4.293.55 0 1-1.35 1-3s.45-3 1-3 1-1.323 1-2.941.45-3.219 1-3.559 1-2.001 1-3.692c0-1.901.821-3.785 2.153-4.941 1.184-1.027 1.671-1.867 1.082-1.867s-1.857-.301-2.817-.67c-1.191-.457-1.516-.298-1.023.5m18.855.886c1.512.229 3.988.229 5.5 0s.275-.416-2.75-.416-4.262.187-2.75.416m72.03.02c2.629.207 6.679.204 9-.005 2.321-.21.17-.379-4.78-.376s-6.849.175-4.22.381m21.702.004c2.694 1.057 4.018 3.077 4.018 6.13 0 1.656.45 3.29 1 3.63s1 1.941 1 3.559.45 2.941 1 2.941 1 1.155 1 2.566.486 3.474 1.081 4.585.888 2.214.651 2.45c-.236.236-8.935.562-19.331.724-19.862.308-23.03.826-21.764 3.554.414.892.928 4.434 1.143 7.871l.391 6.25h24.914c24.248 0 24.915-.054 24.915-2 0-1.1-.45-2-1-2s-1-1.35-1-3-.45-3-1-3-1-1.35-1-3-.45-3-1-3-1-.981-1-2.179c0-2.302-1.649-8.14-3.123-11.057-.482-.955-.877-2.868-.877-4.25s-.45-2.514-1-2.514-1-1.35-1-3-.45-3-1-3-1-.675-1-1.5c0-1.081-1.048-1.478-3.75-1.421-2.062.043-3.083.341-2.268.661M200 527c0 1.65.45 3 1 3s1-1.35 1-3-.45-3-1-3-1 1.35-1 3m506.75-.338c.688.278 1.257 1.48 1.265 2.671.009 1.289.313 1.708.75 1.033.404-.624 1.635-1.359 2.735-1.634 1.816-.454 1.793-.511-.25-.616-1.237-.064-2.25-.566-2.25-1.116s-.788-.964-1.75-.921c-1.045.047-1.247.282-.5.583M247.854 539l-.354 11.5-2.5-.279c-1.375-.154-2.65-.717-2.833-1.25-.184-.534-1.196-.971-2.25-.971s-1.917-.45-1.917-1-.477-1-1.059-1-.781.45-.441 1 .156 1-.41 1c-.565 0-.768.675-.452 1.5.317.826.03 1.5-.638 1.5s-.955.674-.638 1.5c.394 1.028-.49 1.944-2.813 2.915-4.94 2.064-7.803 8.585-3.77 8.585.979 0 2.428.9 3.221 2s2.205 2 3.137 2c.933 0 1.923.563 2.201 1.25.403 1 .52 1 .583 0 .043-.687.706-1.25 1.472-1.25s1.659-.694 1.985-1.543c.433-1.128 1.068-1.291 2.357-.607 1.227.651 2.158.512 3.054-.457 1.053-1.137 1.053-1.393 0-1.394-.709-.001.011-1.119 1.6-2.486l2.889-2.484-.181-12.847c-.247-17.623-1.771-22.501-2.243-7.182M242 530.566c0 .311.497 1.494 1.104 2.628s1.28 4.552 1.495 7.596c.61 8.642 1.401 7.444 1.401-2.123 0-8-.154-8.667-2-8.667-1.1 0-2 .255-2 .566m-42 12.979c0 2.551 4.684 6.72 5.414 4.818.388-1.011-.101-1.73-1.41-2.072-1.826-.478-2.443-1.508-2.122-3.541.065-.413-.332-.75-.882-.75s-1 .695-1 1.545m8 7.348c0 1.014 3.046 2.395 3.743 1.697.252-.251.161-.937-.202-1.523-.798-1.291-3.541-1.426-3.541-.174M697 647c0 .55-.675 1-1.5 1-1.753 0-2.203 9.448-.5 10.5.611.378 1-1.156 1-3.941V650h158v82h-77.8c-59.178 0-78.087-.287-79-1.2-.881-.881-1.2-9.304-1.2-31.667 0-16.756-.287-30.179-.639-29.828-.351.352-.799 15.057-.995 32.678l-.356 32.039 81.745-.033 81.745-.033-.25-39.367c-.138-21.652-.25-40.473-.25-41.825s-.84-3.427-1.867-4.611L853.265 646h-78.132c-51.422 0-78.133.342-78.133 1m-544.829 47.25c.12 32.183.388 42.144.882 32.75.391-7.425.764-27.723.829-45.106l.118-31.607 6.75-.47c3.713-.259 13.05-.371 20.75-.251 7.7.121 43.813.268 80.25.327L328 650v94h-87.427c-82.422 0-87.453-.1-87.884-1.75-.251-.962-.509 1.288-.573 5-.071 4.157.291 6.75.943 6.75.582 0 .777.456.433 1.013-1.083 1.752 173.356 1.282 175.109-.472 1.163-1.162 1.399-10.267 1.399-53.97V648H152zM700 686v34h152v-68H700zm-542.457-31.75c-.637 2.019-1.279 46.669-.769 53.5.33 4.422.87 6.25 1.846 6.25.759 0 1.38-.374 1.38-.831s1.238-1.47 2.75-2.25 3.943-2.656 5.401-4.169S171.341 704 172 704s2.459-1.35 4-3 3.23-3 3.753-3 2.262-1.237 3.866-2.75c1.603-1.513 4.145-3.389 5.648-4.169s2.733-1.793 2.733-2.25c0-1.72 5.59-.787 7 1.169.793 1.1 2.038 2 2.766 2s2.373 1.013 3.654 2.25c3.564 3.443 6.521 5.75 7.371 5.75.422 0 1.416.9 2.209 2s2.269 2 3.28 2 1.56.45 1.22 1c-.362.585.676 1 2.5 1 1.715 0 2.882-.382 2.593-.849s.697-1.48 2.191-2.25c1.494-.771 4.81-3.524 7.37-6.119 2.559-2.595 5.22-4.845 5.913-5s3.925-2.869 7.184-6.032c3.258-3.163 6.379-5.75 6.935-5.75s2.273-1.35 3.814-3 3.323-3 3.96-3 .88-.45.54-1c-.884-1.431 4.097-1.245 6.718.25 1.205.688 4.32 3.388 6.922 6s5.138 4.75 5.636 4.75 3.05 2.025 5.67 4.5 5.157 4.5 5.637 4.5c.481 0 3.349 2.475 6.374 5.5s5.888 5.5 6.362 5.5 3.014 2.032 5.642 4.514 6.075 5.28 7.659 6.216 2.88 2.054 2.88 2.486c0 .431.45.784 1 .784 1.886 0 1.311-63.667-.582-64.393-3.397-1.303-164.459-.675-164.875.643M702 658.418c0 6.742.609 7.582 5.5 7.582 4.535 0 5.224-.7 6.159-6.26.657-3.904-1.61-5.74-7.088-5.74H702zm57.25 1.078c-1.741 1.977-1.786 41.568-.05 43.304.77.77 4.711 1.2 11 1.2h9.8v4.571c0 7.661-1.045 7.429 33.429 7.429H844v-44h-22l-.008-5.75c-.011-8.343.334-8.258-33.441-8.212-22.941.031-28.279.297-29.301 1.458m-546 8.044c-4.211 4.409-4.543 10.258-.795 14.005 1.35 1.35 2.951 2.455 3.559 2.455.607 0 .826.45.486 1-1.71 2.767 8.765.578 11.961-2.5 1.886-1.815 3.597-7.842 2.531-8.908-.546-.546-.992-1.834-.992-2.863 0-3.349-5.251-6.765-10.236-6.66-2.355.049-4.169 1.016-6.514 3.471m489.357 2.042c-.334.87-.607 3.57-.607 6V680h4.571c6.591 0 8.419-2.937 6.07-9.75-.974-2.826-9.001-3.36-10.034-.668M454 675.282c-.825.67-1.654 2.118-1.842 3.218-.187 1.1-.75 2.15-1.25 2.333-.499.184-.908 1.421-.908 2.75 0 1.33-.45 2.417-1 2.417s-1 .873-1 1.941-.45 2.219-1 2.559-1 1.716-1 3.059-.45 2.441-1 2.441-1 .9-1 2-.45 2-1 2-1 1.35-1 3v3h44c28.667 0 44-.348 44-1 0-.55-.45-1-1-1-1.372 0-1.266-10.634.132-13.246 1.104-2.064 1.165-2.069 2.524-.209 1.17 1.599 1.709 1.708 3.355.68 1.079-.674 3.093-1.225 4.475-1.225 1.383 0 2.514-.45 2.514-1s1.773-1 3.941-1 4.219.45 4.559 1 2.193 1 4.118 1c2.472 0 3.313.367 2.865 1.25-.35.688.31.174 1.466-1.142s2.202-2.215 2.326-2c2.182 3.799 2.725 5.269 2.725 7.378 0 1.383.45 2.514 1 2.514s1 1.125 1 2.5-.45 2.5-1 2.5-1 .675-1 1.5c0 1.222 1.667 1.5 9 1.5h9v-3c0-1.65-.45-3-1-3s-1-1.152-1-2.559c0-1.451-.433-2.292-1-1.941-.583.361-1-.656-1-2.441 0-1.682-.45-3.059-1-3.059s-1-.9-1-2-.45-2-1-2-1-.916-1-2.035-.727-3.145-1.615-4.5c-.888-1.356-1.306-2.465-.929-2.465.378 0 .012-.675-.813-1.5-1.038-1.038-3.586-1.5-8.272-1.5-5.266 0-6.504.267-5.571 1.2.66.66 1.2 2.46 1.2 4v2.8h-14c-15.207 0-16.01-.376-12.965-6.066 1.015-1.897.297-1.933-37.25-1.902-28.567.024-38.666.341-39.785 1.25M702.112 688l.216 6h4.715c5.817 0 8.196-3.594 5.957-9-1.143-2.76-1.638-3-6.174-3h-4.931zm-240.509 7.731c-.327.326-2.621.517-5.099.423-3.9-.147-4.504.099-4.504 1.838 0 1.104.4 2.008.889 2.008s.826.788.75 1.75c-.216 2.715 9.206 2.606 11.647-.134.982-1.103 1.657-2.654 1.5-3.448-.31-1.565-4.218-3.403-5.183-2.437m81.059 3.019c-.251.413 1.297.818 3.441.9 2.143.083 3.897-.255 3.897-.75 0-1.082-6.688-1.219-7.338-.15M543 703c0 .55 1.548 1 3.441 1s3.719-.45 4.059-1c.373-.604-.99-1-3.441-1-2.232 0-4.059.45-4.059 1m-6 2c0 .55.873 1 1.941 1s2.219-.45 2.559-1c.351-.567-.49-1-1.941-1-1.407 0-2.559.45-2.559 1m-7 4c0 .652-15.524 1-44.571 1-37.296 0-44.805.233-46 1.429-2.061 2.06-2.061 27.082 0 29.142 1.194 1.195 8.571 1.429 45 1.429 42.904 0 43.571-.031 43.571-2 0-1.1-.34-2-.757-2-1.252 0-3.243-7.662-3.243-12.484 0-2.484.45-4.516 1-4.516s1-1.125 1-2.5.45-2.5 1-2.5 1-.614 1-1.364 1.186-2.55 2.636-4c2.034-2.033 2.263-2.636 1-2.636-.9 0-1.636.45-1.636 1m32-.367c0 .348.788 1.36 1.75 2.25 3.909 3.612 6.25 10.06 6.25 17.212 0 3.937-.43 6.905-1 6.905-.55 0-1 1.152-1 2.559 0 1.451-.433 2.292-1 1.941-.55-.34-1 .084-1 .941 0 2.17 16.417 2.285 18.571.13C585.665 739.478 586 736.057 586 726c0-16.23.163-16-11.37-16-4.681 0-8.79-.45-9.13-1-.675-1.092-3.5-1.389-3.5-.367m-116.25 7.056c-5.647 1.476.226 2.311 16.25 2.311 16.289 0 20.902-.672 16.418-2.393-1.795-.689-29.989-.618-32.668.082M444 723c0 .63 6.667 1 18 1s18-.37 18-1-6.667-1-18-1-18 .37-18 1m116.755 4.5c-.263 1.375-.09 2.5.384 2.5.473 0 .861-1.125.861-2.5s-.173-2.5-.383-2.5-.599 1.125-.862 2.5M444 729c0 .885 8.592 1.301 30.167 1.462 3.274.024 5.319-.42 5.583-1.212.323-.969-3.644-1.25-17.667-1.25-11.389 0-18.083.37-18.083 1m0 6.393c0 2.184 1.719 2.427 17.781 2.517 15.826.088 18.219-.243 18.219-2.517 0-1.139-3.281-1.393-18-1.393s-18 .254-18 1.393m250 6.178c0 6.851-5.379 6.429 81.929 6.429 47.992 0 79.071-.365 79.071-.929 0-.51.72-1.649 1.601-2.529 1.045-1.045 1.386-2.459.981-4.072l-.62-2.47H694zm-148.463-.51c.703 1.136 3.463 1.258 3.463.152 0-.433-.91-.856-2.022-.94s-1.76.271-1.441.788m-231.946 8.562c-.978 2.55 1.935 5.166 4.178 3.751.952-.601 1.731-1.943 1.731-2.983 0-2.573-4.969-3.218-5.909-.768m449.659 1.873c-.724.822-1.25 4.132-1.25 7.861v6.442l4.75.463c6.631.646 22.109.212 22.965-.644.39-.39.164-1.582-.503-2.65S788 758.546 788 755.514V750l-11.75.038c-8.858.029-12.058.387-13 1.458M238 762c0 3.778.167 4 3 4 2.667 0 3-.333 3-3 0-1.725-.531-3.007-1.25-3.015q-1.25-.016.25-.985c1.138-.736.716-.973-1.75-.985-3.128-.014-3.25.136-3.25 3.985m-37.5 7c-.408.66 13.156 1 39.941 1 26.373 0 40.559-.35 40.559-1s-13.98-1-39.941-1c-25.549 0-40.164.36-40.559 1m553.924 2.123c-.223.361 8.856.728 20.175.816 15.011.117 20.392-.144 19.886-.964-.754-1.219-39.304-1.076-40.061.148m130.826 96.373c-1.962 2.228-1.793 75.104.179 77.075 2.125 2.126 75.017 2.126 77.142 0s2.126-75.017 0-77.142c-2.117-2.118-75.454-2.054-77.321.067m-238.162 4.345c-4.054.573-4.781 2.234-5.002 11.44-.197 8.207-.089 8.719 1.852 8.719 1.907 0 2.062-.588 2.062-7.839 0-7.431.133-7.901 2.547-9 3.99-1.818 40.169-1.588 42.024.268C691.744 876.601 692 882.076 692 906s-.256 29.399-1.429 30.571C689.428 937.715 685.124 938 669 938c-23.632 0-23 .256-23-9.322 0-4.761-.387-6.612-1.468-7.027-2.238-.859-2.686.726-2.435 8.611.242 7.617 1.359 9.626 5.403 9.722 1.66.039 1.745.211.5 1.016-.994.642 5.838.975 20.25.985 13.844.009 21.75-.349 21.75-.985 0-.55.828-1 1.839-1 3.68 0 4.161-3.932 4.161-34 0-34.132.133-33.556-7.961-34.496-5.447-.632-35.865-.382-40.951.337m105.299-.187c-4.066.864-4.445 3.955-4.357 35.58.087 31.31.282 32.766 4.399 32.766.864 0 1.571.45 1.571 1 0 .635 7.667 1 21 1s21-.365 21-1c0-.55.707-1 1.571-1 3.068 0 4.106-2.46 4.334-10.268.205-7.02.05-7.732-1.682-7.732-1.666 0-1.935.851-2.125 6.72-.12 3.696-.696 7.296-1.28 8-1.63 1.964-41.413 1.828-43.389-.149-1.174-1.173-1.428-6.663-1.421-30.75l.008-29.321 2.691-1.25c3.585-1.665 37.127-1.738 40.746-.089 2.414 1.099 2.547 1.569 2.547 9 0 7.172.17 7.839 2 7.839 1.844 0 2-.667 2-8.571 0-12.499 1.265-11.898-25.427-12.076-12.14-.081-23.024.054-24.186.301M69.25 881.54c-1.787 1.872-3.25 3.866-3.25 4.432 0 .565-.45 1.028-1 1.028s-1 .576-1 1.279c0 .704-.9 1.928-2 2.721s-2 2.269-2 3.28-.45 1.56-1 1.22-1 .084-1 .941S57.55 898 57 898s-1 .9-1 2c0 1.982.64 1.999 70.25 1.921 38.637-.043 69.688-.306 69-.583-.687-.278-1.25-1.142-1.25-1.921s-.45-1.417-1-1.417-1-.679-1-1.509-1.35-2.922-3-4.648c-1.65-1.727-3-3.583-3-4.124s-.791-1.712-1.757-2.602-2.392-2.854-3.169-4.367l-1.412-2.75-53.581.069-53.581.068zm181.013-.771c-1.23 1.502-2.242 3.194-2.25 3.76-.007.566-.913 1.678-2.013 2.471s-2 2.143-2 3-.9 2.207-2 3c-2.713 1.955-2.514 3 .571 3 2.661 0 5.429-2.025 5.429-3.97 0-.613.9-2.08 2-3.26 1.1-1.181 2-2.737 2-3.459 0-.721.45-1.311 1-1.311s1-.9 1-2 .45-2 1-2 1-.45 1-1c0-1.993-3.552-.897-5.737 1.769m14.987-1.273c-.687.781-1.264 2.001-1.282 2.712-.037 1.494-2.471 4.955-3.067 4.361-.22-.221-.472.785-.559 2.234-.087 1.45-.649 2.799-1.25 3-1.621.54-1.324 4.197.341 4.197.788 0 1.72-.907 2.072-2.015.351-1.108.963-1.814 1.359-1.569.397.245.794-.529.884-1.72.09-1.192.633-2.323 1.208-2.515.574-.191 1.044-1.21 1.044-2.264 0-1.055.525-1.917 1.167-1.917.641 0 .865-.302.496-.67-.368-.369.017-1.719.857-3 1.401-2.139 1.38-2.327-.247-2.292-.975.021-2.335.677-3.023 1.458m12.959 1.254c-.124 1.513-.672 2.9-1.218 3.083s-.991.881-.991 1.551c0 1.774-2.373 6.599-3.25 6.608-.413.004-.75.863-.75 1.907 0 1.539.902 1.982 4.75 2.331 7.373.669 58.368.779 60.95.13 2.287-.574 3.254-3.866 1.329-4.527-.533-.183-1.096-1.458-1.25-2.833s-1.096-3.253-2.095-4.174c-.998-.921-1.786-1.934-1.75-2.25.555-4.861 2.279-4.576-27.716-4.576h-27.782zm65.988.25c.126 1.65.583 3 1.016 3s.787.59.787 1.311c0 .722.9 2.278 2 3.459 1.1 1.18 2 3.29 2 4.688 0 1.875.525 2.542 2 2.542q2 0 2-2c0-1.1-.398-2-.883-2-.801 0-1.767-2.147-2.653-5.9-.182-.77-.809-1.695-1.393-2.056s-1.162-1.868-1.284-3.35c-.153-1.844-.791-2.694-2.021-2.694-1.382 0-1.745.694-1.569 3m13.803-.367c0 1.448.788 3.36 1.75 4.25.962.889 1.896 2.292 2.075 3.117s.741 1.65 1.25 1.833.939.859.957 1.5c.109 4.008 7.968 7.673 7.968 3.716 0-1.192-.45-1.889-1-1.549s-1-.309-1-1.441-.45-2.059-1-2.059-1-.702-1-1.559-.382-1.323-.849-1.034-1.48-.697-2.25-2.191c-1.417-2.748-5.353-7.216-6.356-7.216-.3 0-.545 1.185-.545 2.633m561.5 7.429c-1.65 1.054-3.562 2.194-4.25 2.534-1.881.93-1.623 7.404.295 7.404 1.82 0 6.61-4.511 5.728-5.394-.334-.333.389-.606 1.606-.606 2.582 0 8.231 5.13 6.343 5.759-.672.224-1.222 1.041-1.222 1.816 0 .774-1.35 2.698-3 4.275-1.65 1.576-3 3.605-3 4.508s-.45 1.642-1 1.642-1 .9-1 2c0 1.556.667 2 3 2 2.05 0 3-.493 3-1.559 0-.924.47-1.268 1.155-.846.693.429.883.276.476-.383-.373-.604.907-2.684 2.845-4.622 2.018-2.018 3.524-4.52 3.524-5.857 0-1.283.489-2.822 1.087-3.42.783-.783.783-1.275 0-1.759-.598-.37-1.087-1.77-1.087-3.113 0-1.419-.523-2.336-1.25-2.191-.687.138-1.138-.312-1-1 .145-.727-.772-1.25-2.191-1.25-1.343 0-2.719-.45-3.059-1-.925-1.497-3.637-1.086-7 1.062m-499.041 3.005c-.363.586-.399 1.327-.08 1.646.59.589 157.62 1.054 157.621.466 0-.177-.643-.965-1.429-1.75-1.825-1.825-154.988-2.181-156.112-.362M238 901c0 .657 23.667 1 69 1s69-.343 69-1-23.667-1-69-1-69 .343-69 1M52 916.893c0 11.311.215 12.99 1.75 13.685 2.289 1.036 114.128 1.832 129.96.925 16.283-.933 16.29-.94 16.29-14.429 0-6.54-.358-9.971-1-9.574-.55.34-1-.309-1-1.441V904H52zm181.25-11.397c-.836.95-1.25 5.02-1.25 12.301 0 10.874.002 10.883 2.75 12.246 3.488 1.729 141.25 2.685 141.25.98 0-.563.9-1.023 2-1.023 1.885 0 2-.667 2-11.571 0-8.696-.355-11.927-1.429-13-2.134-2.134-143.441-2.069-145.321.067M358 910v4h-4c-3.701 0-3.999.206-3.985 2.75.022 3.819 1.014 5.015 4.488 5.41 2.321.263 3.075.904 3.343 2.84.657 4.754 3.849 6.448 6.725 3.571 3.031-3.03-.367-7.96-4.704-6.826-1.781.466-1.968.103-1.685-3.266.259-3.086.751-3.856 2.645-4.14 6.681-1.004 6.456-8.339-.256-8.339-2.333 0-2.571.37-2.571 4m-200-1.042c0 .56-5.282.95-12.75.941-7.012-.009-13.762.01-15 .042-2.11.055-2.25.488-2.25 6.937 0 9.726-.855 9.401 24.211 9.211l11.712-.089 1.066-3.958c1.198-4.45 3.011-6.274 3.011-3.03 0 5.548 9.29 6.995 11.753 1.83 3.603-7.555-5.874-12.922-11.725-6.641-1.778 1.908-2.028 1.959-2.028.416 0-1.987-1.527-3.758-4.705-5.459-2.631-1.408-3.295-1.449-3.295-.2m122 7.842c0 5.511.448 9.248 1.2 10 1.889 1.889 48.15 1.688 49.731-.217.736-.887 1.105-4.624.986-10l-.189-8.583H280zm57.25-7.304c-2.492 2.83-1.564 6.504 1.643 6.504 3.586 0 4.71-2.431 2.607-5.641-1.771-2.702-2.501-2.85-4.25-.863m-281.097 3.371c-2.407 2.088-2.72 4.794-.992 8.586l1.16 2.547h33.411c36.96 0 36.268.122 36.268-6.372 0-6.545-.454-6.628-36.069-6.628-29.44 0-31.774.129-33.778 1.867m130.886-1.039c-1.353.202-3.03 1.11-3.727 2.019-1.354 1.768-1.452 8.357-.112 7.529.44-.272.8.208.8 1.065 0 2.072 8.525 2.177 10.571.13 4.525-4.524-.563-11.78-7.532-10.743m52.211 1.668c-1.689 1.919-1.583 7.314.179 9.075.785.786 2.842 1.429 4.571 1.429 3.993 0 6-2.007 6-6 0-1.729-.643-3.786-1.429-4.571-1.826-1.827-7.691-1.785-9.321.067m126.358 2.083c-.333.869-.333 2.669.001 4 1.01 4.022 8.391 2.834 8.391-1.35 0-3.671-7.136-5.924-8.392-2.65M252 918.029c0 1.704 1.91 2.165 5.75 1.388 4.151-.84 2.711-3.525-1.75-3.262-2.942.174-4 .669-4 1.874m9.481-.998c-1.093 1.769.97 3.16 4.147 2.797 4.02-.459 3.803-3.238-.284-3.634-1.736-.169-3.474.208-3.863.837M921.2 919.2c-1.765 1.765-1.463 4.155.696 5.503 1.555.971 2.201.847 3.59-.688 3.267-3.61-.857-8.244-4.286-4.815M336 922.571c0 4.698 2.708 6.175 5.748 3.136 3.126-3.126 1.828-5.707-2.87-5.707-2.424 0-2.878.405-2.878 2.571m613.603 4.929c-1.044.79-2.351 1.156-2.905.813s-.717-.153-.364.419c.354.573-.026 1.597-.845 2.277-2.86 2.374-.7 10.968 2.761 10.983.962.004 1.75.458 1.75 1.008 0 2.122 5.228.509 8.725-2.692 1.955-1.79 2.491-6.496 1.051-9.229-1.951-3.702-3.865-3.83-3.591-.239.126 1.662.587 2.801 1.022 2.532 1.404-.868.843 3.721-.636 5.199-3.644 3.644-8.778.568-8.4-5.033.266-3.953 1.517-4.754 2.009-1.288.587 4.127 3.292 2.635 3.627-2 .334-4.611-.782-5.341-4.204-2.75"/></svg>