<svg xmlns="http://www.w3.org/2000/svg" viewBox="0 0 1024 1024"><path fill="#00e5cc" d="M368.5 269c-.34.55-2.841 1-5.559 1s-4.941.45-4.941 1-1.35 1-3 1-3 .354-3 .787-1.006.863-2.235.956c-1.23.092-2.392.638-2.584 1.213-.191.574-1.462 1.044-2.823 1.044-1.396 0-2.206.436-1.858 1 .34.55-.335 1-1.5 1s-1.84.45-1.5 1-.309 1-1.441 1-2.059.477-2.059 1.059-.368.832-.818.554c-.45-.279-1.936.482-3.303 1.691-1.367 1.208-3.309 2.662-4.317 3.232-1.007.57-1.741 1.392-1.631 1.826.215.846-3.013 3.924-6.672 6.363-1.233.821-1.987 1.906-1.676 2.409.311.504.04.792-.602.641s-1.688.59-2.324 1.648-2.395 3.261-3.907 4.898-2.75 3.546-2.75 4.244-.416 1.418-.925 1.602c-.509.183-1.071.99-1.25 1.794-.179.803-1.113 2.351-2.075 3.439-.962 1.087-1.75 3.044-1.75 4.348 0 1.325-.441 2.098-1 1.752-.567-.351-1 .49-1 1.941 0 1.407-.45 2.559-1 2.559s-1 .9-1 2-.45 2-1 2-1 1.377-1 3.059c0 1.785-.417 2.802-1 2.441-.565-.349-1 .47-1 1.882 0 1.375-.45 2.778-1 3.118s-1 1.716-1 3.059-.45 2.441-1 2.441-1.007 1.913-1.015 4.25c-.012 3.112-.275 3.849-.985 2.75-.709-1.097-.973-.342-.985 2.809-.009 2.615-.408 4.066-1.015 3.691-.595-.368-1 .823-1 2.941 0 1.957-.45 3.559-1 3.559s-1 1.773-1 3.941-.45 4.219-1 4.559-1 2.868-1 5.618c0 3.079.384 4.763 1 4.382.561-.347 1 .438 1 1.786 0 2.468 2.743 5.714 4.829 5.714.644 0 1.171.45 1.171 1s.624 1 1.386 1 2.642.652 4.178 1.449 3.162 1.22 3.614.941c.452-.28.822 7.844.822 18.051 0 11.706.369 18.559 1 18.559.55 0 1 2.025 1 4.5s.45 4.5 1 4.5 1 1.35 1 3 .45 3 1 3 1 .81 1 1.801c0 2.234 2.235 7.181 3.25 7.191.413.004.75.862.75 1.906 0 2.335 14.239 17.102 16.491 17.102.895 0 1.349.45 1.009 1-.355.575.576 1.007 2.191 1.015 2.181.012 2.474.232 1.309.985-1.213.784-1.069.972.75.985 1.238.008 2.25.465 2.25 1.015s1.35 1 3 1 3 .45 3 1 .624 1 1.386 1 2.642.652 4.178 1.449 3.162 1.22 3.614.941c.452-.28.822-.031.822.551s1.377 1.059 3.059 1.059c1.785 0 2.802.417 2.441 1-.538.87 1.49 1.475 3.75 1.118.413-.065.75.332.75.882s1.157 1 2.571 1 3.207.635 3.983 1.411c.805.805 2.344 1.167 3.585.842 1.492-.39 1.949-.205 1.458.589-.47.762.16 1.158 1.844 1.158 1.407 0 2.559.45 2.559 1s1.377 1 3.059 1c1.785 0 2.802.417 2.441 1-.34.55.084 1 .941 1 2.092 0 2.653.167 5.487 1.638 1.336.693 2.731 1.073 3.1.845 1.396-.863 3.403 4.486 2.152 5.737-1.471 1.471-1.644 16.185-.18 15.28.55-.34 1 .084 1 .941s.45 1.559 1 1.559.888.563.75 1.25c-.137.688.313 1.137 1 1 .688-.138 1.138.312 1 1s.263 1.154.89 1.037c.818-.153 1.115 4.315 1.049 15.816-.07 12.333.215 16.22 1.238 16.852.731.452 1.042 1.285.692 1.853-.351.567-.071 1.64.622 2.385.692.745 1.408 2.015 1.589 2.821.182.807.712 1.703 1.178 1.991s.852 6.161.858 13.051l.011 12.528-3.122.238c-1.717.131-3.602.579-4.189.996-.586.417-2.416.892-4.066 1.056s-3.427.709-3.95 1.212c-.522.503-2.66.914-4.75.914s-3.8.405-3.8.9-1.673.9-3.717.9-3.881.495-4.083 1.1-2.328 1.1-4.724 1.1-4.636.45-4.976 1-2.14 1-4 1-3.66.45-4 1-2.14 1-4 1-3.66.45-4 1-2.391 1-4.559 1-3.941.45-3.941 1-2.052 1-4.559 1c-2.785 0-4.319.389-3.941 1 .377.61-1.137 1-3.882 1-2.475 0-4.778.45-5.118 1s-2.391 1-4.559 1-3.941.45-3.941 1-2.052 1-4.559 1c-2.785 0-4.319.389-3.941 1 .378.612-1.176 1-4 1-2.619 0-4.367.406-4.039.938.327.528-1.211.912-3.522.881-2.255-.032-4.605.447-5.22 1.062S285.89 626 283.8 626s-3.8.397-3.8.882-1.797.907-3.994.937-4.539.392-5.205.804c-.666.411-2.468.886-4.006 1.054-2.694.295-2.8.134-2.937-4.435l-.142-4.742-.685 4c-.376 2.2-.673-4.97-.66-15.934.018-14.672-.293-20.04-1.179-20.335-.663-.221-.988-.753-.722-1.182.562-.91-7.162-9.049-8.589-9.049-.53 0-1.931-.9-3.111-2s-2.737-2-3.459-2c-.721 0-1.311-.45-1.311-1s-.927-1-2.059-1-1.781-.45-1.441-1-.084-1-.941-1-1.559-.45-1.559-1-.9-1-2-1-1.888-.562-1.75-1.25-.312-1.137-1-1c-.687.138-1.25-.2-1.25-.75 0-.615-5-1-13-1h-13v192h13c8.483 0 13-.368 13-1.059 0-.582.368-.832.818-.554.45.279 2.126-.707 3.726-2.191 1.599-1.483 3.144-2.6 3.432-2.483s1.424-.57 2.524-1.526 2.45-1.856 3-2 2.125-1.239 3.5-2.435 2.582-1.966 2.682-1.713c.44 1.113 8.275-6.716 8.295-8.289.013-.962.473-1.75 1.023-1.75s1-1.773 1-3.941.45-4.219 1-4.559c.6-.371 1-7.095 1.001-16.809V690.5l2.63-.152c1.447-.084 2.959-.685 3.361-1.336.403-.65 1.131-1.121 1.62-1.046.488.075 1.788-.158 2.888-.518 1.1-.359 2.598-.798 3.328-.974.731-.176 2.081-.648 3-1.048.92-.4 2.27-.85 3-1 .731-.15 2.081-.6 3-1 .92-.4 2.27-.85 3-1 .731-.15 2.081-.599 3-.999.92-.4 2.562-.898 3.651-1.106s2.415-.815 2.95-1.35c.534-.534 1.979-.971 3.212-.971s2.519-.45 2.859-1 1.491-1 2.559-1 1.941-.45 1.941-1 1.35-1 3-1 3-.45 3-1 1.35-1 3-1 3-.45 3-1 1.35-1 3-1 3-.45 3-1 1.35-1 3-1 3-.477 3-1.059.337-.86.75-.617c.413.242 1.875-.023 3.25-.589 1.375-.567 3.39-1.202 4.479-1.411s2.415-.818 2.95-1.353c.534-.534 1.979-.971 3.212-.971s2.519-.45 2.859-1 1.491-1 2.559-1 1.941-.352 1.941-.782 1.238-.884 2.75-1.009 2.9-.672 3.083-1.218 1.646-.991 3.25-.991 2.917-.45 2.917-1 1.35-1 3-1 3-.352 3-.782 1.212-.882 2.694-1.005 2.994-.709 3.362-1.303c.367-.595.842-.96 1.056-.813.213.147 1.513-.086 2.888-.517s3.39-.976 4.479-1.211c1.088-.234 2.415-.863 2.95-1.398.534-.534 1.979-.971 3.212-.971s2.519-.45 2.859-1 1.491-1 2.559-1 1.941-.45 1.941-1 1.35-1 3-1 3-.45 3-1 1.35-1 3-1 3-.45 3-1 1.05-1 2.333-1 2.647-.313 3.029-.696 1.393-.798 2.245-.923 2.302-.554 3.221-.954c.92-.4 2.562-.898 3.651-1.106s2.415-.815 2.95-1.35c.534-.534 2.033-.971 3.33-.971 1.318 0 2.086-.441 1.741-1-.361-.583.656-1 2.441-1 1.682 0 3.059-.477 3.059-1.059s.372-.829.827-.548c2.186 1.351 14.699-7.222 15.4-10.551.15-.712.84-1.904 1.532-2.649s1.004-1.768.691-2.274c-.312-.505-.091-.919.491-.919s1.059-1.323 1.059-2.941.45-3.219 1-3.559c.557-.344 1-4.969 1-10.434v-9.816l3.125-.625c1.719-.344 4.419-.625 6-.625s2.875-.45 2.875-1 .9-1 2-1 2-.45 2-1 .563-.888 1.25-.75c.688.137 1.137-.313 1-1-.138-.688.087-1.138.5-1 .412.137.975-.195 1.25-.739.275-.543 2.637-3.229 5.25-5.968s4.75-5.369 4.75-5.844 2.925-3.832 6.5-7.46 6.5-6.222 6.5-5.763.829.084 1.842-.833c1.831-1.657 9.152-1.971 9.156-.393.001.413.812.75 1.802.75s2.237.437 2.771.971c.535.535 1.862 1.143 2.95 1.353s3.104.844 4.479 1.411c1.375.566 2.837.831 3.25.589.413-.243.75.035.75.617s.624 1.059 1.386 1.059 2.642.652 4.178 1.449 3.162 1.22 3.614.941c.452-.28.822-.031.822.551s1.377 1.059 3.059 1.059c1.785 0 2.802.417 2.441 1-.538.87 1.49 1.475 3.75 1.118.413-.065.75.332.75.882s1.35 1 3 1 3 .45 3 1 1.125 1 2.5 1 2.5.45 2.5 1 1.125 1 2.5 1 2.5.45 2.5 1 1.377 1 3.059 1c1.785 0 2.802.417 2.441 1-.538.87 1.49 1.475 3.75 1.118.413-.065.75.332.75.882s1.313 1 2.917 1 3.066.416 3.25.925c.183.509 1.008 1.071 1.833 1.25s1.725.616 2 .972 1.625.806 3 1 3.099.92 3.831 1.612 1.744 1.004 2.25.691c.505-.312.919-.091.919.491s1.35 1.059 3 1.059 3 .45 3 1 1.377 1 3.059 1c1.785 0 2.802.417 2.441 1-.528.855.766 1.232 3.138.915.351-.047.939.4 1.306.995.368.594 1.88 1.181 3.362 1.303 1.482.123 2.694.575 2.694 1.005s.81.782 1.8.782 2.237.437 2.771.971c.535.535 1.862 1.11 2.95 1.279s2.576.68 3.305 1.135c2.074 1.293 20.524 1.065 20.966-.26.206-.619 1.687-1.125 3.291-1.125 1.605 0 2.917-.45 2.917-1s.337-.947.75-.882c2.199.348 4.099-.329 6.061-2.157 1.204-1.121 2.189-1.745 2.189-1.385s1.064-.043 2.365-.896c1.554-1.018 2.704-1.211 3.351-.564.542.542 1.953 1.059 3.135 1.148s2.149.516 2.149.949.81.787 1.8.787 2.228.412 2.75.916 1.85 1.067 2.95 1.25 2.279.715 2.619 1.182 1.76.916 3.154 1 2.327.489 2.072.902c-.398.645 1.132.954 3.293.665.351-.047.914.356 1.25.897.337.54 1.737 1.141 3.112 1.335s2.77.721 3.101 1.171c.786 1.07 15.386 1.12 17.086.058.722-.451 1.98-.92 2.795-1.043s1.64-.699 1.833-1.279c.193-.579 1.354-1.054 2.58-1.054s3.315-1.013 4.643-2.25 2.651-2.25 2.939-2.25c.287 0 .399-.371.248-.824-.151-.454.166-.552.705-.219 1.28.791 18.318-16.247 17.527-17.527-.333-.539-.235-.856.219-.705s.907-.097 1.008-.551c.102-.454 1.086-1.607 2.188-2.563s2.144-2.353 2.316-3.104c.171-.752 1.146-2.371 2.165-3.598s1.79-2.512 1.714-2.855c-.076-.344.557-1.321 1.406-2.17.85-.85 1.313-1.921 1.03-2.379-.284-.459-.096-.985.416-1.17s1.077-.999 1.256-1.811.892-2.086 1.584-2.831.961-1.837.596-2.428c-.394-.637-.194-.783.49-.36 1.128.696 1.581-.527 1.207-3.255-.102-.743.294-1.054.881-.691.929.574 1.553-1.38 1.185-3.709-.065-.413.332-.75.882-.75s1-.81 1-1.8.437-2.237.971-2.771c.535-.535 1.11-1.862 1.279-2.95s.699-2.606 1.177-3.373.832-2.687.787-4.268.339-2.614.852-2.297c.514.317.99-.575 1.059-1.982.141-2.887.257-3.405 1.265-5.669.394-.886.84-2.772.992-4.191.151-1.419.798-3.211 1.438-3.982.639-.77.829-1.769.421-2.219-.407-.45-.215-.517.428-.149.644.368 1.779.103 2.524-.59.745-.692 2.019-1.405 2.831-1.584s1.626-.741 1.809-1.25.859-.927 1.5-.93c1.829-.008 13.829-11.923 13.137-13.043-.34-.551-.023-.878.706-.727.728.151 1.212-.287 1.074-.975s.088-1.137.5-1c.413.138.833-.122.934-.576s1.114-1.632 2.25-2.617 2.066-2.526 2.066-3.424.337-1.52.75-1.383c.413.138.75.005.75-.295s1.246-1.792 2.769-3.315 2.509-3.19 2.191-3.705c-.318-.514-.101-.935.481-.935s1.059-.927 1.059-2.059.45-1.781 1-1.441c.569.352 1-.509 1-2s.431-2.352 1-2 1-.509 1-2 .431-2.352 1-2c.55.34 1.056-.084 1.125-.941.23-2.87.371-3.388 1.125-4.142 1.158-1.158.91-26.2-.266-26.927-.559-.346-.78-1.011-.491-1.478s-.041-1.46-.734-2.205c-.692-.745-1.4-1.99-1.571-2.767-.172-.778-1.214-2.195-2.316-3.151s-2.086-2.109-2.188-2.563c-.101-.454-.521-.714-.934-.576-.412.137-.637-.296-.5-.963.138-.668-.763-1.674-2-2.238-1.237-.563-2.25-1.367-2.25-1.786s-.707-.763-1.571-.763c-.865 0-2.207-.635-2.983-1.411-.805-.805-2.344-1.167-3.585-.842-1.492.39-1.949.205-1.458-.589.49-.794-.403-1.158-2.844-1.158-1.957 0-3.559-.45-3.559-1s-1.312-1-2.917-1-3.066-.422-3.25-.939c-.183-.516-1.458-1.122-2.833-1.346s-3.252-.736-4.172-1.138-2.269-.822-3-.932-1.828-.514-2.44-.897c-.611-.382-2.524-.803-4.25-.934-1.726-.132-3.138-.594-3.138-1.027s-1.35-.787-3-.787-3-.45-3-1-1.312-1-2.917-1-3.066-.407-3.25-.905c-.183-.497-1.458-1.06-2.833-1.25s-2.779-.727-3.121-1.195c-.341-.468-2.253-.85-4.247-.85-1.995 0-3.376-.405-3.07-.9s-1.046-.9-3.003-.9-3.559-.45-3.559-1-1.35-1-3-1-3-.45-3-1-1.35-1-3-1-3-.45-3-1-1.074-1-2.386-1-3.618-.639-5.124-1.421c-1.506-.781-3.358-1.183-4.114-.893-.757.29-1.376.03-1.376-.579S719.65 372 718 372s-3-.45-3-1-1.602-1-3.559-1c-2.118 0-3.309-.405-2.941-1s-.823-1-2.941-1c-1.957 0-3.559-.45-3.559-1s-1.602-1-3.559-1c-2.118 0-3.309-.405-2.941-1 .369-.596-.843-1-3-1s-3.369-.404-3-1c.599-.969-2.05-1.436-5.859-1.034-1.11.118-1.59-.239-1.191-.885.432-.699-.611-1.081-2.95-1.081-2.157 0-3.369-.404-3-1 .368-.595-.823-1-2.941-1-1.957 0-3.559-.45-3.559-1s-1.35-1-3-1-3-.45-3-1-1.35-1-3-1-3-.45-3-1-1.323-1-2.941-1-3.219-.45-3.559-1-2.193-1-4.118-1c-2.079 0-3.249-.406-2.882-1 .369-.596-.843-1-3-1s-3.369-.404-3-1-.843-1-3-1-3.369-.404-3-1c.368-.595-.823-1-2.941-1-1.957 0-3.559-.45-3.559-1s-1.35-1-3-1-3-.45-3-1-1.538-1-3.417-1-3.59-.521-3.802-1.158-1.833-1.116-3.602-1.066-2.955-.329-2.638-.842c.317-.514-1.025-.934-2.982-.934s-3.559-.45-3.559-1-1.35-1-3-1-3-.45-3-1-1.35-1-3-1-3-.45-3-1-1.913-1.007-4.25-1.015c-3.112-.012-3.849-.275-2.75-.985 1.097-.709.342-.973-2.809-.985-2.615-.009-4.066-.408-3.691-1.015.369-.596-.843-1-3-1s-3.369-.404-3-1c.368-.595-.823-1-2.941-1-1.957 0-3.559-.45-3.559-1s-1.35-1-3-1-3-.45-3-1-1.35-1-3-1-3-.45-3-1-1.913-1.007-4.25-1.015c-3.112-.012-3.849-.275-2.75-.985 1.097-.709.342-.973-2.809-.985-2.615-.009-4.066-.408-3.691-1.015.615-.996-1.321-1.408-4.859-1.034-1.11.118-1.59-.239-1.191-.885.431-.697-.594-1.081-2.891-1.081-1.957 0-3.559-.45-3.559-1s-1.35-1-3-1-3-.45-3-1-1.35-1-3-1-3-.45-3-1-1.913-1.007-4.25-1.015c-3.112-.012-3.849-.275-2.75-.985 1.554-1.005-.991-1.496-5.359-1.034-1.11.118-1.59-.239-1.191-.885.431-.697-.594-1.081-2.891-1.081-1.957 0-3.559-.45-3.559-1s-1.35-1-3-1-3-.45-3-1-1.35-1-3-1-3-.45-3-1-1.538-1-3.417-1-3.59-.521-3.802-1.158-1.833-1.116-3.602-1.066-2.955-.329-2.638-.842c.317-.514-1.025-.934-2.982-.934s-3.559-.45-3.559-1-1.35-1-3-1-3-.45-3-1-1.35-1-3-1-3-.45-3-1-1.602-1-3.559-1c-2.118 0-3.309-.405-2.941-1 .374-.605-1.009-1-3.5-1s-3.874-.395-3.5-1c.369-.596-.843-1-3-1s-3.369-.404-3-1c.368-.595-.823-1-2.941-1-1.957 0-3.559-.45-3.559-1s-1.35-1-3-1-3-.45-3-1-1.575-1-3.5-1-3.5-.45-3.5-1-1.602-1-3.559-1c-2.118 0-3.309-.405-2.941-1s-.823-1-2.941-1c-1.957 0-3.559-.45-3.559-1s-1.8-1-4-1-4-.45-4-1c0-.596-3.814-1-9.441-1-5.215 0-9.718.448-10.059 1m-1.275 4.175c-.52.52-2.809.972-5.086 1.004-2.276.031-4.139.454-4.139.939s-1.157.882-2.571.882-3.251.679-4.081 1.509-1.923 1.254-2.429.941c-.505-.312-.919-.091-.919.491s-.681 1.059-1.514 1.059c-1.549 0-5.581 1.968-6.495 3.17-.281.368-1.16.818-1.955 1-.795.181-2.507 1.351-3.805 2.599s-2.792 2.002-3.32 1.676c-.528-.327-.837-.068-.686.574s-.595 1.688-1.658 2.324c-2.49 1.49-7.734 6.734-9.224 9.224-.636 1.063-1.682 1.809-2.324 1.658s-.901.158-.574.686c.326.528-.551 2.104-1.949 3.502s-2.485 2.817-2.416 3.154-.708 1.615-1.727 2.842-1.999 2.874-2.178 3.661-.744 1.581-1.256 1.765c-.512.185-.7.711-.416 1.17.283.458-.051 1.443-.744 2.188-.692.745-1.405 2.019-1.584 2.831s-.744 1.627-1.256 1.811c-.512.185-.7.711-.416 1.17.283.458-.18 1.529-1.03 2.379-.849.849-1.528 1.786-1.509 2.08.176 2.635-.117 3.559-.964 3.036-.583-.361-1 .656-1 2.441 0 1.682-.45 3.059-1 3.059s-1 1.35-1 3-.45 3-1 3-1 1.377-1 3.059c0 1.785-.417 2.802-1 2.441-.595-.368-1 .823-1 2.941 0 1.957-.45 3.559-1 3.559s-1 1.602-1 3.559c0 2.118-.405 3.309-1 2.941-.61-.377-1 1.137-1 3.882 0 2.475-.423 4.762-.941 5.082-1.23.76-.565 10.222.838 11.912.597.719.752 1.642.344 2.049-.407.408-.066.592.759.408.825-.183 1.388.23 1.25.917-.148.739.795 1.25 2.309 1.25 1.451 0 2.292.433 1.941 1-.361.583.656 1 2.441 1 1.682 0 3.059.45 3.059 1s1.35 1 3 1 3 .45 3 1 1.152 1 2.559 1c1.58 0 2.303.414 1.891 1.081-.399.646.081 1.003 1.191.885 3.538-.374 5.474.038 4.859 1.034-.361.583.656 1 2.441 1 1.682 0 3.059.45 3.059 1s1.35 1 3 1 3 .45 3 1 .337.947.75.882c2.26-.357 4.288.248 3.75 1.118-.361.583.656 1 2.441 1 1.682 0 3.059.45 3.059 1s1.35 1 3 1 3 .477 3 1.059.37.831.822.551 2.078.144 3.614.941 3.416 1.449 4.178 1.449 1.386.45 1.386 1 1.35 1 3 1 3 .477 3 1.059.37.831.822.551 2.078.144 3.614.941 3.615 1.449 4.619 1.449c1.005 0 2.105.45 2.445 1s1.491 1 2.559 1 1.941.45 1.941 1 1.35 1 3 1 3 .45 3 1 1.152 1 2.559 1c1.451 0 2.292.433 1.941 1-.361.583.656 1 2.441 1 1.682 0 3.059.45 3.059 1s1.35 1 3 1 3 .45 3 1 1.05 1 2.333 1 2.671.337 3.084.75c.754.754 1.272.895 4.142 1.125.857.069 1.281.575.941 1.125-.361.583.656 1 2.441 1 1.682 0 3.059.45 3.059 1s1.35 1 3 1 3 .477 3 1.059.337.86.75.617c.413-.242 1.875.023 3.25.59s3.167 1.165 3.982 1.328 1.64.772 1.833 1.352c.193.579 1.664 1.054 3.268 1.054 1.605 0 2.917.45 2.917 1s1.098 1 2.441 1 2.719.45 3.059 1 1.641 1 2.892 1 2.612.337 3.025.75c.754.754 1.272.895 4.142 1.125.857.069 1.281.575.941 1.125-.361.583.656 1 2.441 1 1.682 0 3.059.45 3.059 1s1.377 1 3.059 1c1.785 0 2.802.417 2.441 1-.362.585.676 1 2.5 1s2.862.415 2.5 1c-.361.583.656 1 2.441 1 1.682 0 3.059.45 3.059 1s1.35 1 3 1 3 .45 3 1 1.152 1 2.559 1c1.58 0 2.303.414 1.891 1.081-.399.646.081 1.003 1.191.885 3.538-.374 5.474.038 4.859 1.034-.361.583.656 1 2.441 1 1.682 0 3.059.45 3.059 1s1.35 1 3 1 3 .45 3 1 1.656 1 3.679 1 5.157.535 6.964 1.188c2.509.907 3.826.913 5.571.022 1.257-.641 3.411-1.303 4.786-1.471 1.375-.167 4.032-1.077 5.904-2.022s4.261-1.717 5.309-1.717 1.627-.45 1.287-1c-.355-.575.576-1.007 2.191-1.015 2.181-.012 2.474-.232 1.309-.985s-.872-.973 1.309-.985c1.615-.008 2.546-.44 2.191-1.015-.362-.585.676-1 2.5-1s2.862-.415 2.5-1c-.607-.982 1.295-1.404 4.75-1.052.962.098 1.75-.301 1.75-.885 0-1.185 16.199-1.53 17.359-.371.381.381 1.684.844 2.895 1.029s2.64.773 3.175 1.308c.534.534 2.033.971 3.33.971 1.436 0 2.098.423 1.691 1.081-.399.646.081 1.003 1.191.885 3.538-.374 5.474.038 4.859 1.034-.361.583.656 1 2.441 1 1.682 0 3.059.45 3.059 1s1.35 1 3 1 3 .45 3 1 1.05 1 2.333 1 2.671.337 3.084.75c.754.754 1.272.895 4.142 1.125.857.069 1.281.575.941 1.125-.373.604.99 1 3.441 1 2.232 0 4.059.391 4.059.869s2.334.922 5.186.987c2.853.064 5.643.573 6.2 1.13 1.26 1.26 8.663 1.326 11.873.106 1.313-.5 4.155-1.049 6.315-1.221 2.159-.172 5.019-.866 6.354-1.541 1.336-.675 2.798-.999 3.25-.72.452.28.822.031.822-.551s.863-1.059 1.917-1.059 2.066-.416 2.25-.925c.183-.509.977-1.071 1.764-1.25.786-.179 2.766-1.563 4.398-3.075s3.375-2.75 3.874-2.75c.498 0 2.344-1.348 4.101-2.995s3.558-2.998 4-3c.443-.003 2.243-1.353 4-3s3.558-2.998 4-3c.443-.003 2.243-1.353 4-3s3.759-2.998 4.446-3c.688-.003 1.25-.379 1.25-.836s1.237-1.47 2.75-2.25 3.622-2.207 4.689-3.169c1.066-.962 2.528-1.75 3.25-1.75.721 0 1.311-.374 1.311-.831s1.237-1.47 2.75-2.25 3.622-2.207 4.689-3.169c1.066-.962 2.473-1.75 3.127-1.75s1.758-.686 2.454-1.524 1.479-1.31 1.742-1.048 1.134-.181 1.938-.985 1.944-1.163 2.535-.798.797.217.459-.33c-.337-.547 1.73-2.052 4.596-3.343 2.865-1.292 5.809-2.943 6.541-3.67.731-.726 1.706-1.088 2.164-.805s.985.096 1.17-.416.999-1.077 1.811-1.256 2.086-.892 2.831-1.584 1.73-1.027 2.188-.744c.459.284.993.038 1.188-.545s1.02-1.215 1.835-1.404 2.482-.663 3.703-1.054c1.222-.392 2.522-.625 2.889-.518.366.107.961-.282 1.322-.866.36-.583 1.761-1.184 3.112-1.335s2.681-.566 2.956-.922 1.625-.806 3-1 2.725-.638 3-.987c.275-.348 2.525-.888 5-1.199s4.612-.588 4.75-.616c1.597-.325-.423-2.67-2.444-2.838-1.482-.122-2.944-.558-3.25-.968s-1.681-.9-3.056-1.09-2.65-.753-2.833-1.25c-.184-.498-1.646-.905-3.25-.905s-2.917-.45-2.917-1-.337-.947-.75-.882c-2.588.409-6.274-.271-5.782-1.066.322-.521-.214-.8-1.191-.62s-2.902-.136-4.277-.703-3.617-1.218-4.981-1.446c-1.365-.227-2.715-.722-3-1.098s-1.644-.844-3.019-1.038-2.725-.644-3-1-1.625-.806-3-1-2.725-.644-3-1-1.625-.806-3-1-2.775-.795-3.112-1.335c-.336-.541-.899-.944-1.25-.897-2.83.378-5.652-.084-5.179-.849.317-.513-.716-.896-2.297-.852s-3.501-.311-4.268-.791-2.511-1.026-3.875-1.213c-1.365-.187-2.715-.649-3-1.025-.286-.377-1.644-.84-3.019-1.03s-2.65-.753-2.833-1.25c-.184-.498-1.646-.905-3.25-.905s-2.917-.45-2.917-1-1.602-1-3.559-1c-2.175 0-3.313-.398-2.926-1.025.349-.563.263-.96-.191-.881-2.818.489-6.357-.231-5.774-1.175.399-.646-.081-1.003-1.191-.885-3.468.366-5.479-.031-4.9-.968.317-.513-.802-.894-2.488-.846s-3.583-.432-4.217-1.066c-.635-.635-2.414-1.154-3.954-1.154s-2.8-.45-2.8-1-1.35-1-3-1-3-.45-3-1-1.602-1-3.559-1c-2.297 0-3.322-.384-2.891-1.081.399-.646-.081-1.003-1.191-.885-3.431.362-5.482-.027-4.921-.934.306-.495-1.075-.9-3.07-.9s-3.906-.383-4.247-.85c-.342-.468-1.746-1.005-3.121-1.195s-2.65-.753-2.833-1.25c-.184-.498-1.646-.905-3.25-.905s-2.917-.45-2.917-1-1.35-1-3-1-3-.45-3-1-1.602-1-3.559-1-3.299-.42-2.982-.934c.317-.513-.802-.894-2.488-.846s-3.583-.432-4.217-1.066c-.635-.635-2.414-1.154-3.954-1.154s-2.8-.45-2.8-1-1.35-1-3-1-3-.45-3-1-1.35-1-3-1-3-.45-3-1-1.602-1-3.559-1c-2.118 0-3.309-.405-2.941-1 .369-.596-.843-1-3-1-1.99 0-3.358-.42-3.041-.934.317-.513-.802-.894-2.488-.846s-3.583-.432-4.217-1.066c-.635-.635-2.414-1.154-3.954-1.154s-2.8-.45-2.8-1-1.35-1-3-1-3-.45-3-1-1.35-1-3-1-3-.45-3-1-1.602-1-3.559-1-3.318-.391-3.023-.868-.241-.865-1.191-.863c-3.958.012-5.314-.319-4.789-1.169.306-.495-1.075-.9-3.07-.9s-3.906-.383-4.247-.85c-.342-.468-1.746-1.009-3.121-1.203s-2.725-.644-3-1-1.625-.806-3-1-2.725-.644-3-1-1.625-.806-3-1-2.775-.795-3.112-1.335c-.336-.541-.899-.944-1.25-.897-2.568.343-5.675-.047-5.293-.665.255-.413-1.174-.842-3.176-.955-2.001-.113-3.796-.675-3.987-1.25S496.521 306 494.917 306s-2.917-.352-2.917-.782-1.238-.884-2.75-1.009-2.9-.672-3.083-1.218-1.646-.991-3.25-.991-2.917-.45-2.917-1-.337-.947-.75-.882c-2.569.406-6.276-.267-5.791-1.052.317-.513-.87-.892-2.638-.842-1.769.05-3.389-.429-3.602-1.066-.212-.637-1.923-1.158-3.802-1.158s-3.417-.45-3.417-1-1.35-1-3-1-3-.45-3-1-1.35-1-3-1-3-.45-3-1-1.602-1-3.559-1-3.318-.391-3.023-.868-.241-.865-1.191-.863c-3.958.012-5.314-.319-4.789-1.169.306-.495-1.115-.9-3.157-.9-2.043 0-3.879-.495-4.081-1.1s-1.679-1.1-3.283-1.1-2.917-.354-2.917-.787-1.412-.895-3.138-1.027-3.639-.552-4.25-.934c-.612-.383-1.71-.786-2.44-.897-.731-.11-2.081-.53-3-.932-.92-.402-2.789-.916-4.153-1.142-1.365-.226-2.715-.72-3-1.096s-1.644-.844-3.019-1.038-2.725-.654-3-1.022c-.275-.367-2.075-.816-4-.997s-3.725-.644-4-1.029c-.765-1.07-19.697-1.002-20.775.076M304 405.622c0 3.023-.357 5.276-.793 5.006-.435-.269-.89.8-1.01 2.375-.121 1.576.236 3.147.792 3.49S304 420.89 304 425.5s.45 8.66 1 9 1 2.129 1 3.976.491 3.521 1.092 3.721 1.163 1.588 1.25 3.083.495 2.719.908 2.719c.413.001.75.901.75 2.001s.45 2 1 2 1 .863 1 1.917.416 2.066.925 2.25c.509.183 1.071.99 1.25 1.794.179.803 1.113 2.351 2.075 3.439.962 1.087 1.75 2.567 1.75 3.289 0 .721.563 1.199 1.25 1.061.688-.137 1.137.313 1 1-.138.688.312 1.138 1 1s1.126.346.975 1.074.19 1.038.757.687c.568-.351 1.302.066 1.632.926.33.859 1.227 1.563 1.993 1.563s1.393.477 1.393 1.059.414.803.919.491 1.599.111 2.429.941 2.018 1.509 2.64 1.509c.621 0 .852.45.512 1-.361.583.656 1 2.441 1 1.682 0 3.059.45 3.059 1s1.098 1 2.441 1 2.719.45 3.059 1 1.491 1 2.559 1 1.941.45 1.941 1 1.05 1 2.333 1 2.671.337 3.084.75c.754.754 1.272.895 4.142 1.125.857.069 1.281.575.941 1.125-.361.583.656 1 2.441 1 1.682 0 3.059.45 3.059 1s1.152 1 2.559 1c1.451 0 2.292.433 1.941 1-.369.596.843 1 3 1s3.369.404 3 1c-.361.583.656 1 2.441 1 1.682 0 3.059.45 3.059 1s1.152 1 2.559 1c1.451 0 2.292.433 1.941 1-.361.583.656 1 2.441 1 1.682 0 3.059.45 3.059 1s1.35 1 3 1 3 .477 3 1.059.37.831.822.551 2.078.144 3.614.941 3.416 1.449 4.178 1.449 1.386.45 1.386 1 1.098 1 2.441 1 2.719.45 3.059 1 1.491 1 2.559 1 1.941.45 1.941 1 1.35 1 3 1 3 .45 3 1 .337.947.75.882c2.26-.357 4.288.248 3.75 1.118-.361.583.656 1 2.441 1 1.682 0 3.059.45 3.059 1s1.098 1 2.441 1 2.719.45 3.059 1 1.491 1 2.559 1 1.941.45 1.941 1 1.35 1 3 1 3 .45 3 1 .337.947.75.882c2.26-.357 4.288.248 3.75 1.118-.361.583.656 1 2.441 1 1.682 0 3.059.45 3.059 1s1.05 1 2.333 1 2.645.312 3.026.692c.381.381 1.684.844 2.895 1.029s2.64.773 3.175 1.308c.534.534 1.781.971 2.771.971s1.8.45 1.8 1 1.05 1 2.333 1 2.647.313 3.029.696 1.462.808 2.399.945c.936.138 1.861.725 2.054 1.305.193.579 1.664 1.054 3.268 1.054 1.605 0 2.917.477 2.917 1.059s.37.831.822.551 2.078.144 3.614.941 3.668 1.449 4.737 1.449c1.07 0 1.667.45 1.327 1-.361.583.656 1 2.441 1 1.682 0 3.059.436 3.059.969s.617.731 1.371.442 2.072.175 2.929 1.031c.856.857 2.489 1.558 3.629 1.558 1.139 0 2.071.45 2.071 1s1.05 1 2.333 1 2.647.313 3.029.696 1.462.808 2.399.945c.936.138 1.861.725 2.054 1.305.193.579 1.664 1.054 3.268 1.054 1.605 0 2.917.45 2.917 1s1.152 1 2.559 1c1.451 0 2.292.433 1.941 1-.361.583.656 1 2.441 1 1.682 0 3.059.45 3.059 1s1.098 1 2.441 1 2.719.45 3.059 1 1.491 1 2.559 1 1.941.45 1.941 1 1.05 1 2.333 1 2.671.337 3.084.75c.754.754 1.272.895 4.142 1.125.857.069 1.281.575.941 1.125-.361.583.656 1 2.441 1 1.682 0 3.059.45 3.059 1s1.098 1 2.441 1 2.719.45 3.059 1 1.491 1 2.559 1 1.941.45 1.941 1 1.35 1 3 1 3 .477 3 1.059.37.831.822.551 2.078.144 3.614.941 3.416 1.449 4.178 1.449 1.386.45 1.386 1 1.05 1 2.333 1 2.647.313 3.029.696 1.462.808 2.399.945c.936.138 1.861.725 2.054 1.305.193.579 1.664 1.054 3.268 1.054 1.605 0 2.917.354 2.917.787s.914.856 2.03.94c2.451.185 2.316-2.289-.28-5.166-.962-1.066-1.75-2.978-1.75-4.25s-.45-2.311-1-2.311-1-1.377-1-3.059c0-1.785-.417-2.802-1-2.441-.612.378-1-1.176-1-4s-.388-4.378-1-4c-.631.39-1-1.99-1-6.441 0-4.039-.428-7.059-1-7.059-.611 0-.994-4.573-.985-11.75.011-8.292.315-11.309 1.034-10.25.744 1.096.986.02.899-4-.23-10.679.038-14.126 1.052-13.5.621.384 1-1.509 1-5s.379-5.384 1-5c.612.378 1-1.176 1-4 0-2.54.405-4.368.9-4.062s.9-1.115.9-3.157c0-2.043.495-3.879 1.1-4.081 1.578-.526 1.357-5.086-.329-6.771-.785-.786-2.837-1.429-4.559-1.429s-2.911-.355-2.643-.788-.718-.887-2.191-1.008c-1.473-.122-2.828-.667-3.011-1.213-.184-.545-1.646-.991-3.25-.991s-2.917-.45-2.917-1-1.152-1-2.559-1c-1.58 0-2.303-.414-1.891-1.081.399-.646-.081-1.003-1.191-.885-3.538.374-5.474-.038-4.859-1.034.361-.583-.656-1-2.441-1-1.682 0-3.059-.354-3.059-.787s-1.433-.897-3.184-1.03c-1.75-.134-3.663-.623-4.25-1.088-1.64-1.3-18.905-1.452-18.106-.159.573.926-3.001 1.641-5.784 1.158-.454-.079-.54.318-.191.881.371.6-.452 1.025-1.985 1.025-1.491 0-2.352.431-2 1 .354.573-.545 1-2.108 1-1.499 0-2.434.291-2.079.646.835.835-8.063 5.354-10.541 5.354-1.04 0-1.612.45-1.272 1 .384.621-1.509 1-5 1s-5.384.379-5 1c.34.55.168 1-.382 1s-1.278-.45-1.618-1-3.291-1-6.559-1-5.941-.352-5.941-.782-1.238-.884-2.75-1.009-2.9-.672-3.083-1.218-1.346-.991-2.584-.991-2.587-.337-3-.75c-.754-.754-1.272-.895-4.142-1.125-.857-.069-1.281-.575-.941-1.125.361-.583-.656-1-2.441-1-1.682 0-3.059-.45-3.059-1s-1.098-1-2.441-1-2.719-.45-3.059-1-1.69-1-3-1-2.66-.45-3-1-1.491-1-2.559-1-1.941-.45-1.941-1-1.35-1-3-1-3-.45-3-1-1.35-1-3-1-3-.477-3-1.059-.37-.831-.822-.551-2.078-.144-3.614-.941-3.416-1.449-4.178-1.449-1.386-.45-1.386-1-1.35-1-3-1-3-.45-3-1-1.35-1-3-1-3-.477-3-1.059-.37-.831-.822-.551-2.139-.176-3.75-1.012c-1.61-.835-3.041-1.487-3.178-1.448-1.346.379-3.264-.099-2.881-.718.268-.433-.693-.885-2.135-1.005s-2.872-.552-3.178-.962-1.681-.904-3.056-1.098-2.725-.644-3-1-1.4-.797-2.5-.981-2.428-.746-2.95-1.25-1.76-.916-2.75-.916-1.8-.337-1.801-.75-1.184-.819-2.63-.902c-1.447-.084-2.959-.685-3.361-1.336-.403-.65-.906-1.062-1.12-.915-.325.224-2.611-.367-6.138-1.587-.413-.143-1.452-.316-2.309-.385s-1.281-.575-.941-1.125c.361-.583-.656-1-2.441-1-1.682 0-3.059-.477-3.059-1.059s-.337-.86-.75-.617c-.413.242-1.875-.023-3.25-.589-1.375-.567-3.39-1.202-4.479-1.411s-2.415-.818-2.95-1.353c-.534-.534-1.781-.971-2.771-.971s-1.8-.45-1.8-1-1.35-1-3-1-3-.45-3-1-1.05-1-2.333-1-2.671-.337-3.084-.75c-.754-.754-1.272-.895-4.142-1.125-.857-.069-1.34-.48-1.072-.913s-.693-.885-2.135-1.005-2.872-.552-3.178-.962-1.681-.904-3.056-1.098-2.775-.795-3.112-1.335c-.336-.541-.899-.944-1.25-.897-2.372.317-3.666-.06-3.138-.915.361-.583-.656-1-2.441-1-1.682 0-3.059-.394-3.059-.875s-1.176-.875-2.614-.875-2.95-.545-3.362-1.21c-.411-.666-1.035-1.172-1.386-1.125-2.282.305-3.678-.042-3.211-.797.3-.486-1.248-.907-3.441-.938l-3.986-.055zm480-2.641c0 .309-2.941 1.121-6.535 1.803s-7.081 1.346-7.75 1.478-1.46.564-1.759.963-1.649.849-3 1c-3.07.344-7.626 4.743-5.972 5.765.632.391 1.277 1.34 1.434 2.11s.749 2.525 1.316 3.9.832 2.837.59 3.25c-.243.413-.075.75.373.75s1.413 1.353 2.145 3.006 1.706 2.774 2.164 2.49 1.49.143 2.294.947 1.672 1.251 1.93.994c1.128-1.128 10.77 9.773 10.77 12.177 0 1.415.435 2.235 1 1.886.972-.601 1.405.707 1.075 3.25-.09.688.307 1.25.881 1.25s1.044 1.35 1.044 3 .45 3 1 3 1 2.223 1 4.941.45 5.219 1 5.559c1.468.908 1.319 25.227-.158 25.719-1.551.517-.203 5.85 1.396 5.525.662-.134 2.567-1.479 4.233-2.989s3.378-2.748 3.805-2.75c.955-.006 9.153-8.122 9.6-9.505.178-.55.762-.876 1.298-.725s.73-.121.432-.604c-.299-.483 1.355-2.86 3.675-5.281 2.321-2.422 4.377-4.85 4.569-5.397.193-.546.755-.88 1.25-.743.495.138.9-.65.9-1.75s.45-2 1-2 .947-.337.882-.75c-.315-1.993.219-3.306 1.118-2.75.55.34 1-.335 1-1.5s.45-1.84 1-1.5c.569.352 1-.509 1-2s.431-2.352 1-2c.583.361 1-.656 1-2.441 0-1.682.423-3.059.939-3.059.542 0 .94-5.944.94-14.022 0-8.49-.371-13.792-.94-13.441-.516.32-.939-.121-.939-.978l-.001-2.058c-.001-.274-1.557-2.148-3.458-4.164s-3.181-4.11-2.844-4.655c.336-.545.129-.692-.462-.327s-1.753-.016-2.583-.846-2.018-1.509-2.64-1.509c-.621 0-.809-.52-.417-1.155.396-.64.279-.885-.262-.551-.537.332-2.182-.022-3.655-.786S809 404.286 809 404.489s-1.462-.118-3.25-.716c-3.355-1.123-21.75-1.793-21.75-.792m-32.258 11.135c-.967.546-2.274.673-2.904.284-.708-.438-.874-.267-.433.445.642 1.039-1.263 1.677-3.729 1.249-.454-.079-.56.285-.236.809s-.295 1.233-1.374 1.576c-1.187.377-1.745 1.194-1.41 2.066.304.794.901 1.229 1.325.967s4.056.64 8.07 2.005c8.43 2.868 8.289 2.842 7.36 1.339-.389-.629-.67-2.437-.625-4.018.044-1.581-.339-2.614-.852-2.297-.833.515-1.411-1.66-1.028-3.865.079-.454-.279-.563-.796-.244-.516.319-1.09.156-1.275-.364-.206-.582-1.009-.564-2.093.048m-17.895 8.767c-.191.532-1.011 1.113-1.823 1.292s-2.086.892-2.831 1.584-1.837.961-2.428.596c-.637-.394-.783-.194-.36.49.416.674.098 1.155-.763 1.155-.811 0-1.625.416-1.809.925s-.956 1.071-1.718 1.25-2.52 1.342-3.907 2.585-2.714 2.067-2.95 1.831-1.403.418-2.594 1.453-2.5 1.9-2.911 1.923c-.41.022-1.833.985-3.16 2.139-1.328 1.155-2.567 1.942-2.754 1.749s-1.868 1.111-3.737 2.897c-1.869 1.787-3.778 3.248-4.243 3.248-.464 0-1.932.946-3.262 2.103-1.33 1.156-2.571 1.951-2.758 1.766s-2.111 1.335-4.276 3.377c-2.165 2.043-4.125 3.525-4.356 3.294s-1.525.688-2.878 2.04c-1.352 1.352-2.89 2.191-3.418 1.865-.528-.327-.837-.223-.686.231.151.453-.061.938-.472 1.078-.41.139-1.833 1.198-3.16 2.352-1.328 1.155-2.792 2.14-3.254 2.191-.461.05-1.711.904-2.778 1.897-1.714 1.597-2.984 2.017-5.199 1.721-.351-.047-.939.4-1.306.995-.368.594-1.88 1.181-3.362 1.303-1.482.123-2.694.575-2.694 1.005s-2.169.782-4.82.782c-4.384 0-9.156 2.862-9.176 5.503-.002.273-.004 1.424-.004 2.556 0 1.204-.443 1.785-1.067 1.4-.587-.363-.983-.052-.881.691.428 3.123-.122 5.925-1.052 5.35-.605-.374-1 1.009-1 3.5s-.395 3.874-1 3.5c-.626-.387-1.006 1.743-1.015 5.691-.011 4.442-.302 5.865-.985 4.809-.645-.997-.975 4.922-.985 17.667-.01 12.452.351 19.288 1.03 19.515.575.191 1.137 1.986 1.25 3.987s.542 3.431.955 3.176c.645-.398.954 1.132.665 3.293-.047.351.367.918.919 1.26.553.341 1.154 1.257 1.336 2.034.181.778 1.774 2.985 3.538 4.905 1.764 1.919 2.932 3.936 2.595 4.481s-.129.692.462.327 1.753.016 2.583.846 2.216 1.509 3.081 1.509 1.571.45 1.571 1 .337.947.75.882c2.26-.357 4.288.248 3.75 1.118-.361.583.656 1 2.441 1 1.682 0 3.059.45 3.059 1s.337.947.75.882c2.26-.357 4.288.248 3.75 1.118-.361.583.656 1 2.441 1 1.682 0 3.059.354 3.059.787s.972.861 2.16.95c1.188.09 2.488.693 2.888 1.341.401.648 1.192.891 1.76.541.567-.351 1.688.02 2.492.824s1.726 1.197 2.05.874 1.711.148 3.084 1.048c1.372.899 3.186 1.635 4.031 1.635s1.535.54 1.535 1.2c0 .933.267.933 1.2 0s.933-1.467 0-2.4c-.66-.66-1.2-1.972-1.2-2.917s-.506-1.885-1.125-2.091-1.125-1.586-1.125-3.065c0-1.48-.394-2.447-.875-2.15-.886.548-1.259-2.125-.899-6.439.123-1.481-.209-2.112-.89-1.691-1.223.756-1.193 1.329-1.208-22.847-.006-9.603.4-17.159.94-17.5.523-.33.975-2.582 1.006-5.004.03-2.422.467-4.672.97-5s.952-2.127.998-3.998.449-3.672.895-4c.447-.329.939-1.723 1.092-3.098s.717-2.65 1.25-2.833c.534-.184.971-1.646.971-3.25s.47-2.917 1.044-2.917.971-.562.881-1.25c-.442-3.408.094-5.268 1.08-3.75.753 1.158.93.9.777-1.134-.212-2.809 5.9-15.866 7.427-15.866.5 0 .653-.414.341-.919-.313-.506-.002-1.529.691-2.274.692-.745 1.408-2.015 1.589-2.821.182-.807.632-1.696 1.002-1.977.369-.28 1.309-1.747 2.089-3.259.779-1.512 1.791-2.75 2.248-2.75s.831-.608.831-1.352c0-.743 1.237-2.69 2.75-4.327s3.271-3.841 3.907-4.898c.636-1.058 1.649-1.811 2.25-1.673s.98-.313.843-1c-.138-.687.313-1.138 1-1s1.137-.313 1-1c-.138-.687.313-1.138 1-1s1.137-.313 1-1c-.138-.687.313-1.137 1-1s1.138-.313 1-1 .313-1.137 1-1c.688.138 1.138-.242 1-.843s.625-1.614 1.695-2.25 2.843-1.945 3.939-2.907 2.546-1.75 3.221-1.75 1.378-.416 1.562-.925c.183-.509 1.008-1.071 1.833-1.25s1.779-.706 2.119-1.173c.341-.466 1.803-.916 3.25-1 1.446-.083 2.63-.297 2.63-.473.002-.747-2.799-3.045-3.21-2.634-.55.549-9.84-2.478-11.442-3.728-.693-.542-1.291-.515-1.5.066M750 433.202c0 .439-.681.798-1.514.798-1.549 0-5.581 1.968-6.495 3.17-.281.368-1.126.818-1.879 1-.753.181-2.44 1.367-3.749 2.634s-2.837 2.021-3.396 1.676c-.559-.346-.893-.033-.742.696.151.728-.287 1.211-.975 1.074s-1.138.313-1 1-.312 1.138-1 1-1.137.313-1 1c.138.688-.312 1.138-1 1s-1.137.313-1 1c.138.688-.312 1.138-1 1s-1.137.313-1 1c.138.688-.346 1.126-1.074.975s-1.09.105-.804.568c.287.464-.58 2.03-1.926 3.481-1.345 1.451-2.446 3.008-2.446 3.459s-1.427 2.384-3.172 4.294-3.053 3.473-2.908 3.473-.292 1.223-.974 2.719-1.692 2.438-2.247 2.095-.709-.14-.344.451.097 1.683-.596 2.428c-.692.745-1.405 2.019-1.584 2.831s-.741 1.626-1.25 1.809-.925 1.196-.925 2.25-.477 1.917-1.059 1.917-.803.414-.491.919-.127 1.615-.977 2.465c-.849.849-1.528 1.786-1.509 2.08.166 2.481-.081 3.582-.714 3.191-.413-.255-.819.678-.902 2.072s-.685 2.863-1.336 3.265c-.65.403-1.144 1.019-1.097 1.37.307 2.296-.044 3.676-.815 3.2-.495-.306-.9 1.075-.9 3.07s-.383 3.906-.85 4.247c-.467.342-.996 1.966-1.175 3.609s-.662 3.444-1.074 4c-.412.557-.87 3.037-1.019 5.511s-.6 4.725-1.001 5c-.402.276-.834 4.326-.959 9.001-.126 4.675-.622 8.895-1.102 9.377-.483.485-.499 1.864-.035 3.084.462 1.214.968 6.219 1.126 11.123s.601 9.141.985 9.416.857 1.625 1.051 3 .578 2.725.853 3c.647.647 5.258 10.414 5.086 10.773-.302.627 4.914 5.227 5.928 5.227.607 0 .819.461.471 1.025-.349.563-.263.96.191.881 2.059-.357 4.396.169 3.95.89-.271.438 3.528.918 8.441 1.066 5.825.176 8.933-.101 8.933-.796 0-.586 1.125-1.066 2.5-1.066s2.5-.45 2.5-1 .675-1 1.5-1 1.5-.45 1.5-1 .927-1 2.059-1 1.781-.45 1.441-1-.084-1 .57-1c1.375 0 17.93-16.295 17.93-17.649 0-.498 1.237-2.298 2.75-3.999s2.896-3.715 3.075-4.473c.179-.759.741-1.529 1.25-1.712s.925-.998.925-1.809c0-.861.481-1.179 1.155-.763.684.423.884.277.49-.36-.365-.591-.097-1.683.596-2.428.692-.745 1.405-2.019 1.584-2.831s.741-1.626 1.25-1.809.925-1.196.925-2.25.477-1.917 1.059-1.917.803-.414.491-.919.127-1.615.977-2.465c.849-.849 1.528-1.786 1.509-2.08-.166-2.481.081-3.582.714-3.191.413.255.819-.678.902-2.072s.685-2.863 1.336-3.265c.65-.403 1.121-1.131 1.046-1.62-.075-.488.158-1.788.518-2.888.359-1.1.798-2.598.974-3.328.176-.731.649-2.081 1.051-3 .402-.92.916-2.789 1.142-4.153.226-1.365.767-2.715 1.201-3s.824-1.869.867-3.519.547-5.025 1.121-7.5 1.054-6.214 1.068-8.309c.013-2.095.387-3.585.83-3.311.947.586.976-24.407.03-25.88-.353-.55-.782-2.8-.953-5s-.653-4.245-1.072-4.544-.885-1.649-1.036-3-.842-3.055-1.534-3.787-1.004-1.744-.691-2.25c.312-.505.168-.919-.322-.919s-1.529-1.238-2.309-2.75c-2.125-4.119-5.151-6.843-9.246-8.324-2.02-.73-3.673-1.585-3.673-1.899s-3.15-.583-7-.597-7 .334-7 .772m-4.333 12.621c-.917.178-1.667.741-1.667 1.25 0 .51-.337.874-.75.809-2.19-.346-4.094.324-6.02 2.118-1.18 1.1-2.518 2-2.972 2-1.516 0-11.321 10.603-10.534 11.391.427.427.172.626-.567.442-.739-.183-1.864.532-2.5 1.589s-2.057 3.005-3.157 4.33c-1.1 1.324-1.775 2.495-1.5 2.602s-.513 1.28-1.75 2.608-2.25 3.005-2.25 3.727c0 .721-.45 1.311-1 1.311s-1 .863-1 1.917-.416 2.066-.925 2.25c-.509.183-1.071.997-1.25 1.809s-.892 2.086-1.584 2.831-1.027 1.73-.744 2.188c.284.459.021.999-.583 1.2-.604.202-1.169 1.547-1.256 2.99s-.495 2.415-.908 2.16-.806.239-.875 1.096c-.16 1.999-.295 2.46-1.75 5.981-.663 1.608-.968 3.544-.677 4.302.291.759.084 1.105-.459.769-.544-.336-1.058.428-1.141 1.698-.193 2.927-.395 3.946-1.147 5.809-3.06 7.573-4.521 38.998-1.905 40.97.387.291.749 1.093.804 1.78s.168 2.177.25 3.309c.093 1.281.586 1.789 1.305 1.346.714-.442.883-.275.442.438-.798 1.291 2.305 7.157 3.785 7.157.523 0 .643.308.267.684-.853.854 5.298 7.316 6.964 7.316.671 0 1.388.503 1.593 1.118s1.936 1.198 3.847 1.295c1.911.098 4.031.521 4.711.941.682.422 1.236.293 1.236-.288 0-.578 1.688-1.011 3.75-.96 3.88.094 12.25-3.41 12.25-5.129 0-.538.563-.864 1.25-.727.688.138 1.126-.346.975-1.074s.18-1.044.736-.7c1.191.736 15.039-13.216 15.039-15.152 0-.728.374-1.324.831-1.324s1.469-1.237 2.248-2.75 1.72-2.979 2.089-3.259c.37-.281.82-1.17 1.002-1.977.181-.806.897-2.076 1.589-2.821.693-.745.961-1.837.596-2.428-.37-.598-.199-.787.386-.425 1.28.791 2.524-2.068 1.602-3.68-.365-.638-.284-.815.18-.394.938.853 4.586-6.28 3.834-7.497-.261-.423.002-.769.584-.769s1.059-1.377 1.059-3.059c0-1.785.417-2.802 1-2.441.94.581 1.281-.687 1.269-4.727-.002-.95.386-1.486.863-1.191s.935-.391 1.018-1.523.195-2.621.25-3.309c.055-.687.477-1.526.938-1.864.461-.337.87-2.682.908-5.211s.449-4.364.912-4.077c.92.568 1.034-1.748 1.031-20.981-.001-9.168-.359-13.104-1.241-13.649-.682-.421-1.008-1.374-.725-2.117s.056-2.476-.503-3.851c-.56-1.375-1.145-3.13-1.302-3.9s-.803-1.72-1.437-2.112c-.633-.391-1.226-1.111-1.316-1.6-.091-.488-.524-.768-.962-.622-.439.146-.664-.375-.5-1.158.32-1.535-4.951-6.605-6.87-6.607-.641 0-1.335-.506-1.54-1.123-.351-1.051-12.165-1.823-16.126-1.055m-1.909 5.329c-.142.384-.92.844-1.729 1.023s-2.834 1.56-4.5 3.07-3.387 2.748-3.824 2.75c-.983.006-4.801 3.945-6.362 6.564-.636 1.067-1.682 1.817-2.324 1.666s-.885.183-.539.742c.345.559-.511 2.155-1.903 3.547-1.393 1.392-2.558 2.859-2.591 3.259s-.843 1.627-1.799 2.727-1.843 2.336-1.971 2.746c-.748 2.413-6.842 14.31-7.472 14.589-.416.185-.525.711-.241 1.17.283.458-.051 1.433-.744 2.164-.692.732-1.383 2.436-1.534 3.787s-.752 2.752-1.335 3.112c-.584.361-1.022.943-.975 1.294.357 2.668-.081 4.653-.914 4.139-.549-.339-.927.196-.841 1.191.313 3.608-.179 6.414-1.034 5.886-.48-.297-.915 1.553-.966 4.112-.052 2.558-.489 4.912-.972 5.231-1.17.771-1.272 31.409-.107 32.129.5.309 1.01 1.774 1.132 3.256.123 1.482.575 2.694 1.005 2.694s.782.845.782 1.878.686 2.446 1.524 3.142 1.316 1.474 1.061 1.729c-.656.655 4.095 5.251 5.429 5.251.607 0 .896.337.641.75s.678.819 2.072.902 2.813.534 3.154 1c.748 1.025 5.185 1.098 6.731.111.611-.391 2.493-.815 4.181-.944s2.889-.525 2.669-.88c-.361-.585 4.34-3.343 5.538-3.249.591.047 15.361-14.96 15.444-15.69.031-.275.427-.376.88-.225.454.151.562-.15.241-.67-.321-.519.096-1.623.926-2.453s1.509-2.018 1.509-2.64c0-.621.52-.809 1.155-.417.684.423.884.277.49-.36-.365-.591-.097-1.673.596-2.404 1.76-1.86 7.759-13.822 7.759-15.471 0-.748.45-1.36 1-1.36s1-1.35 1-3 .477-3 1.059-3 .86-.337.617-.75c-.242-.413.024-1.875.593-3.25.568-1.375 1.22-3.617 1.448-4.981.227-1.365.722-2.715 1.098-3s.841-2.093 1.032-4.016.744-4.238 1.228-5.144c1.216-2.271.951-36.197-.288-36.978-.54-.341-1.051-1.76-1.135-3.154-.083-1.394-.489-2.327-.902-2.072-.684.422-1.192-1.974-.844-3.979.079-.454-.318-.54-.881-.191-.564.348-1.025.177-1.025-.381 0-1.608-4.46-5.638-7.747-6.999-3.069-1.271-16.022-1.234-16.495.047m-12.694 23.657c-1.385.719-2.754 1.619-3.041 2-.288.38-1.423 1.212-2.523 1.848s-1.888 1.649-1.75 2.25-.087.98-.5.843-.966.2-1.23.75-1.727 2.304-3.25 3.898c-1.524 1.594-2.77 3.469-2.77 4.167s-.416 1.418-.925 1.602c-.509.183-1.071.997-1.25 1.809s-.892 2.086-1.584 2.831-1.027 1.73-.744 2.188c.284.459.021.999-.583 1.2-.604.202-1.169 1.547-1.256 2.99s-.495 2.415-.908 2.16-.817.464-.9 1.596a550 550 0 0 1-.25 3.309c-.055.688-.489 1.534-.965 1.88-.476.347-.866 2.94-.866 5.763s-.398 5.378-.884 5.678c-1.26.779-1.101 8.429.175 8.429.608 0 .865 1.236.603 2.899-.657 4.169 3.725 12.555 7.521 14.393 2.521 1.221 6.841 1.514 12.418.841.606-.073 2.516-1.485 4.245-3.138s3.484-3.115 3.899-3.25a.787.787 0 0 0 .504-.995c-.138-.413.296-.638.963-.5.668.137 1.674-.763 2.238-2 .563-1.237 1.367-2.25 1.786-2.25s.763-.927.763-2.059.45-1.781 1-1.441 1-.046 1-.858.416-1.625.925-1.809 1.071-.997 1.25-1.809.892-2.086 1.584-2.831 1.004-1.768.691-2.274c-.312-.505-.091-.919.491-.919s1.059-.81 1.059-1.8.411-2.228.914-2.75 1.064-2.3 1.246-3.95c.183-1.65.71-3.275 1.172-3.612 1.289-.939.837-27.165-.481-27.98-.609-.377-.822-1.147-.472-1.712.763-1.235-4.211-7.418-5.385-6.692-.453.279-.988.013-1.19-.592-.526-1.578-9.758-1.653-12.74-.103M618 478.038c0 1.079-.4 1.962-.889 1.962s-.868.563-.842 1.25c.131 3.543-.367 5.808-1.169 5.312-.495-.306-.9 1.075-.9 3.07s-.424 3.906-.943 4.247c-.519.342-1.014 2.62-1.101 5.062s-.558 4.693-1.049 5-.931 3.481-.98 7.052c-.048 3.572-.538 6.644-1.088 6.827-1.302.434-1.277 26.424.029 29.858.535 1.409 1.023 4.767 1.084 7.464s.501 5.144.979 5.439.869 1.545.869 2.778.412 2.668.916 3.191 1.067 1.85 1.25 2.95.635 2.229 1.004 2.509c.368.281.818 1.17 1 1.977.181.806.897 2.076 1.589 2.821.693.745.961 1.837.596 2.428-.394.637-.194.783.49.36.635-.392 1.155-.221 1.155.379 0 1.421 6.605 8.026 8.026 8.026.6 0 .771.52.379 1.155-.396.64-.279.885.262.551.537-.332 2.111-.015 3.497.704 3.138 1.628 20.864 2.163 21.794.658.36-.582 1.866-1.159 3.348-1.281 1.482-.123 2.694-.575 2.694-1.005s.707-.782 1.571-.782c4.884 0 4.823-5.017-.071-5.834-1.1-.183-2.427-.746-2.95-1.25-.522-.504-1.76-.916-2.75-.916s-1.8-.477-1.8-1.059-.414-.803-.919-.491-1.615-.127-2.465-.977c-.849-.849-1.786-1.528-2.08-1.509-2.369.158-3.417-.191-5.152-1.714-1.096-.962-2.817-2.216-3.823-2.786-1.007-.57-1.657-1.266-1.446-1.546s-.861-1.755-2.384-3.278-2.466-3.26-2.096-3.859c.404-.652.21-.803-.48-.376-1.128.696-1.581-.527-1.207-3.255.102-.743-.294-1.054-.881-.691-1.004.62-1.348-.586-1.336-4.686.002-.95-.386-1.486-.863-1.191-.811.501-1.35-3.335-.91-6.476.108-.766-.324-1.714-.959-2.107-1.431-.884-1.563-31.032-.14-31.913.521-.322.965-3.053.988-6.068s.517-5.639 1.098-5.833c.58-.193 1.055-2.114 1.055-4.268s.45-3.917 1-3.917 1-1.35 1-3 .45-3 1-3 1-1.312 1-2.917.563-3.126 1.25-3.383c.782-.292.501-.725-.75-1.157-1.1-.379-2.705-1.059-3.567-1.51s-4.125-.852-7.25-.89c-5.003-.059-5.683.167-5.683 1.895m116.75.004c-.962.582-1.75.778-1.75.436 0-.341-.711.09-1.581.96-.869.869-2.005 1.318-2.524.997s-.821.012-.67.741c.151.728-.287 1.211-.975 1.074s-1.138.313-1 1-.346 1.126-1.074.975-1.042.183-.696.742c.345.559-.443 2.087-1.751 3.395-1.309 1.308-2.96 3.782-3.67 5.496s-1.7 2.864-2.2 2.555-.844-.191-.765.263c.348 2.005-.16 4.401-.844 3.979-.413-.255-.819.678-.902 2.072s-.534 2.813-1 3.154c-.467.34-1.007 1.744-1.201 3.119s-.659 2.725-1.034 3c-.712.524-.785 1.153-.988 8.559-.069 2.507-.53 4.309-1.025 4.003-.968-.598-.743 6.023.371 10.938.866 3.822 2.632 7.583 4.459 9.5 1.929 2.023 10.467 1.746 12.622-.409.885-.885 2.034-1.347 2.553-1.026s.821-.012.67-.741c-.151-.728.288-1.211.975-1.074.688.138 1.138-.312 1-1s.313-1.137 1-1c.688.138 1.138-.312 1-1s.313-1.137 1-1c.688.138 1.25-.65 1.25-1.75s.45-2 1-2 1-.702 1-1.559c0-.924.47-1.268 1.155-.846.684.423.884.277.49-.36-.365-.591-.097-1.683.596-2.428.692-.745 1.405-2.019 1.584-2.831s.741-1.626 1.25-1.809.925-1.346.925-2.584.317-2.567.704-2.954c.388-.388.867-1.917 1.066-3.398.198-1.481.684-2.927 1.079-3.212.723-.523.798-1.075 1.026-7.578.069-1.957.492-3.332.941-3.055 1.167.722 1.476-8.326.332-9.723-.525-.639-1.11-2.513-1.301-4.163s-.914-3.599-1.606-4.331c-.693-.731-.961-1.813-.596-2.404.394-.637.194-.783-.49-.36-.662.408-1.155.118-1.155-.679 0-.766-.562-1.45-1.25-1.519-.687-.07-2.375-.373-3.75-.674s-3.288-.072-4.25.509m-338.229 29.892c-1.053 3.319-.347 15.989.879 15.766.605-.11.987.363.85 1.05s.313 1.138 1 1 1.137.313 1 1 .088 1.138.5 1 .824.15.915.638c.09.489.638 1.181 1.217 1.539.662.409 1.095 6.865 1.167 17.37.068 9.869.491 16.487 1.033 16.152.82-.506 1.392 1.685 1.012 3.875-.079.454.318.54.881.191.564-.348 1.025-.141 1.025.459 0 1.317 6.607 8.086 7.257 7.435.252-.251 1.027.229 1.723 1.067s2.361 1.524 3.701 1.524c1.341 0 2.186.407 1.878.904-.312.505 2.086.843 5.441.766 3.3-.076 6-.483 6-.904s.681-.766 1.514-.766q3.009-.001 9.304-5.5c1.888-1.65 3.827-2.888 4.308-2.75s.761-.313.624-1c-.138-.688.312-1.138 1-1s1.137-.313 1-1c-.138-.688.425-1.1 1.25-.917s1.151-.015.724-.442c-.906-.907 9.134-11.391 10.909-11.391.66 0 1.376-.526 1.59-1.168.264-.792 4.243-1.222 12.333-1.335 15.311-.212 26.146-1.433 27.53-3.101.842-1.014.5-1.462-1.498-1.963-1.423-.357-2.588-1.078-2.588-1.6 0-.523-.337-.752-.75-.509-.413.242-1.875-.023-3.25-.59s-3.13-1.159-3.9-1.316-1.67-.652-2-1.102c-.33-.449-1.725-.975-3.1-1.169s-2.725-.644-3-1-1.4-.804-2.5-.997-2.287-.813-2.638-1.378a1.22 1.22 0 0 0-1.67-.391c-.567.351-1.63.071-2.361-.622-.732-.692-2.436-1.383-3.787-1.534s-2.701-.601-3-1-1.444-.875-2.544-1.059-2.427-.746-2.95-1.25c-.522-.504-1.76-.916-2.75-.916s-1.8-.477-1.8-1.059-.37-.831-.822-.551-2.038-.123-3.524-.894c-2.899-1.505-2.869-1.496-5.213-1.496-.857 0-1.351-.337-1.096-.75s-.678-.819-2.072-.902-2.813-.534-3.154-1c-.34-.467-1.519-.998-2.619-1.182s-2.427-.746-2.95-1.25c-.522-.504-1.76-.916-2.75-.916s-1.8-.477-1.8-1.059-.37-.831-.822-.551-2.078-.144-3.614-.941-3.416-1.449-4.178-1.449-1.386-.45-1.386-1-1.35-1-3-1-3-.45-3-1-.337-.947-.75-.882c-2.26.357-4.288-.248-3.75-1.118.361-.583-.656-1-2.441-1-1.682 0-3.059-.477-3.059-1.059s-.337-.86-.75-.617c-.413.242-1.875-.024-3.25-.593-4.725-1.954-6.812-1.897-7.479.203m29.076 39.224c.492.795.03.978-1.479.583-3.026-.791-7.168 3.351-6.377 6.377.395 1.509.212 1.971-.583 1.479-.751-.463-1.153.097-1.143 1.594.013 1.906.201 2.047 1.079.809.827-1.167.962-.873.609 1.325-.335 2.08.184 3.417 1.967 5.069 4.99 4.628 17.467 1.057 16.488-4.719-.196-1.157.1-1.634.761-1.225.598.37 1.081-.028 1.081-.891 0-.857-.502-1.559-1.117-1.559-.614 0-.896-.843-.626-1.873.601-2.302-3.994-6.933-6.512-6.561-.965.142-1.501-.152-1.191-.654S428.165 546 427 546c-1.35 0-1.858.42-1.403 1.158m-3.147 5.296c-3.242 3.296-1.754 9.774 2.453 10.674 6.972 1.49 11.623-5.902 6.686-10.628-2.715-2.6-6.608-2.619-9.139-.046m64.05 2.603c-2.2.455-6.986.854-10.636.885-11.08.097-11.574.659-11.793 13.444l-.186 10.806 5.808-.346c4.24-.252 6.463-.938 8.239-2.542 1.338-1.208 2.87-1.927 3.405-1.596s.696.155.36-.39c-.337-.545.943-2.64 2.845-4.657s3.458-4.005 3.458-4.419 1.8-2.664 4-4.999c6.316-6.705 4.87-8.331-5.5-6.186m-30.194 12.36c.107.596-.368.971-1.056.833-.687-.138-1.137.313-1 1s-.312 1.138-1 1-1.137.242-1 .843-.619 1.614-1.682 2.25-3.184 2.394-4.716 3.907c-1.531 1.513-3.475 2.75-4.318 2.75-.844 0-1.534.45-1.534 1s-1.35 1-3 1-3 .45-3 1c0 .556-2.667 1-6 1s-6-.444-6-1c0-.55-.337-.947-.75-.882-2.26.357-4.288-.248-3.75-1.118.352-.569-.509-1-2-1-1.44 0-2.398-.357-2.128-.792.269-.436-.379-.858-1.441-.938-1.795-.135-1.931.597-1.931 10.432 0 11.751-.718 13.205-6.55 13.266-1.678.018-3.527.509-4.111 1.093-.583.583-2.923 1.086-5.2 1.118-2.276.031-4.139.454-4.139.939s-1.8.882-4 .882-4 .45-4 1-1.762 1-3.917 1-4.07.46-4.257 1.021c-.187.562-2.043 1.086-4.125 1.164s-4.018.519-4.302.979-2.515.836-4.958.836-4.441.45-4.441 1-1.8 1-4 1-4 .45-4 1-1.71 1-3.8 1-4.277.477-4.861 1.061c-.583.583-2.923 1.086-5.2 1.118-2.276.031-4.139.454-4.139.939s-1.8.882-4 .882-4 .45-4 1-1.71 1-3.8 1-4.235.435-4.766.966c-.532.532-2.422 1.077-4.2 1.213s-3.234.601-3.234 1.034-2.277.787-5.059.787c-3.118 0-4.822.384-4.441 1 .378.611-1.156 1-3.941 1-2.507 0-4.559.45-4.559 1s-1.71 1-3.8 1-4.277.477-4.861 1.061c-.583.583-2.917 1.086-5.186 1.117-2.269.032-3.88.454-3.58.94.508.822-3.303 1.367-6.467.924-.766-.108-1.678.266-2.027.83-.349.565-2.197 1.221-4.107 1.458-1.909.238-4.935.98-6.722 1.649l-3.25 1.217.1 24.652c.056 13.914.448 23.563.9 22.152.709-2.215.812-2.065.9 1.317.092 3.499.288 3.755 2.35 3.068 1.238-.412 3.037-.764 4-.781.962-.018 1.75-.386 1.75-.818s1.377-.786 3.059-.786c1.785 0 2.802-.417 2.441-1-.369-.596.843-1 3-1s3.369-.404 3-1c-.521-.843 3.07-1.542 5.75-1.118.413.065.75-.332.75-.882s.873-1 1.941-1 2.219-.45 2.559-1 1.626-1 2.859-1 2.678-.437 3.212-.971c.535-.535 1.862-1.142 2.95-1.35s2.731-.706 3.651-1.106 2.369-.829 3.221-.954 1.862-.541 2.245-.923c.382-.383 1.708-.696 2.945-.696 1.238 0 2.4-.446 2.584-.991.183-.546 1.571-1.094 3.083-1.218 1.512-.125 2.75-.579 2.75-1.009s1.35-.782 3-.782 3-.45 3-1 1.35-1 3-1 3-.45 3-1 1.377-1 3.059-1c1.785 0 2.802-.417 2.441-1-.615-.996 1.321-1.408 4.859-1.034 1.11.118 1.59-.239 1.191-.885-.664-1.074 1.17-1.499 4.809-1.115 1.11.118 1.59-.239 1.191-.885-.411-.665.295-1.081 1.832-1.081 1.375 0 2.778-.45 3.118-1s1.44-1 2.445-1 3.083-.652 4.619-1.449 3.162-1.22 3.614-.941c.452.28.822.031.822-.551s1.35-1.059 3-1.059 3-.45 3-1 1.35-1 3-1 3-.45 3-1 1.35-1 3-1 3-.45 3-1 1.377-1 3.059-1c1.785 0 2.802-.417 2.441-1-.349-.565.47-1 1.882-1 1.375 0 2.778-.45 3.118-1s1.626-1 2.859-1 2.678-.437 3.212-.971c.535-.535 1.862-1.143 2.95-1.353s3.104-.844 4.479-1.411c1.375-.566 2.837-.831 3.25-.589.413.243.75-.035.75-.617s1.35-1.059 3-1.059 3-.45 3-1 1.35-1 3-1 3-.45 3-1 1.35-1 3-1 3-.45 3-1 1.377-1 3.059-1c1.785 0 2.802-.417 2.441-1-.34-.55.257-1 1.327-1s3.177-.639 4.683-1.421c1.506-.781 3.358-1.183 4.114-.893.757.29 1.376.03 1.376-.579s.857-1.107 1.905-1.107c4.177 0 15.095-7.243 15.095-10.014 0-.607.52-.783 1.155-.391.684.423.884.277.49-.36-.365-.591-.097-1.673.596-2.404.692-.732 1.414-2.231 1.604-3.331s.717-2.453 1.171-3.007c2.154-2.627.731-40.16-1.522-40.16-.761 0-1.295.488-1.188 1.084M210 659.961V752h8.481c7.969 0 8.513-.136 9.019-2.25.296-1.237.417-42.525.269-91.75l-.269-89.5-8.75-.289-8.75-.289zm22 .062v90.023l2.33-1.526c1.281-.84 2.703-1.188 3.16-.774.457.415.507.192.111-.496-.433-.754-.149-1.25.718-1.25.79 0 2.005-.686 2.701-1.524s1.476-1.313 1.735-1.054c.258.258 1.882-.854 3.607-2.472s3.491-2.943 3.921-2.945c1.709-.01 7.292-6.719 8.53-10.25.904-2.579 1.244-8.419 1.093-18.762l-.219-15.018-3.842.262c-2.113.145-3.843.6-3.844 1.013s-1.351.75-3.001.75h-3l-.137-23.25c-.075-12.788-.134-24.038-.13-25 .003-.962-.385-1.75-.863-1.75-.479 0-.802-2.138-.72-4.75l.15-4.75.7 4.5.7 4.5.15-5.75c.13-4.987.415-5.767 2.15-5.875 1.1-.069 2.338-.218 2.75-.332.412-.113 2.1-.569 3.75-1.012 5.514-1.482 5.5-1.431 5.5-20.57 0-10.869-.386-17.924-.991-18.128-.546-.183-1.091-1.538-1.213-3.011-.121-1.473-.575-2.459-1.008-2.191s-.788-.01-.788-.617c0-1.489-3.869-5.188-7.25-6.933-1.512-.78-2.75-1.793-2.75-2.25s-.59-.831-1.311-.831c-.722 0-2.278-.9-3.459-2-1.18-1.1-2.642-2-3.247-2-.606 0-.78-.52-.388-1.155.423-.684.277-.884-.36-.49-.591.365-1.753-.016-2.583-.846S232.886 570 232.571 570 232 610.51 232 660.023"/></svg>