<svg xmlns="http://www.w3.org/2000/svg" viewBox="0 0 1024 1024"><path fill="#00e5cc" d="M330.5 279.748c-9.9.137-18.9.684-20 1.216-1.1.533-5.375 1.185-9.5 1.449-4.125.265-10.875.971-15 1.568s-9.863 1.338-12.75 1.645c-2.887.308-5.25.967-5.25 1.467 0 .499-1.548.907-3.441.907s-3.719.45-4.059 1-1.491 1-2.559 1-1.941.477-1.941 1.059-.414.803-.919.491-1.599.111-2.429.941S250.68 294 250.114 294c-1.277 0-13.338 12.109-12.698 12.749.255.255-.409 1.401-1.476 2.546-1.741 1.869-2.402 3.78-2.058 5.955.065.413-.332.75-.882.75s-1 1.35-1 3-.45 3-1 3-1 2.223-1 4.941-.45 5.219-1 5.559-1 3.029-1 5.976-.425 5.507-.944 5.691c-.519.183-1.046 2.92-1.171 6.083s-.6 5.75-1.056 5.75-.829 2.16-.829 4.8-.406 5.228-.903 5.75c-.845.889-1.267 3.311-2.649 15.2-.304 2.613-.953 5.65-1.443 6.75-.87 1.952-1.513 5.854-2.636 16-.304 2.75-.962 5.428-1.461 5.95s-.908 3.245-.908 6.05-.424 5.528-.943 6.05-1.049 3.313-1.178 6.2c-.13 2.887-.606 5.25-1.058 5.25-.451 0-.821 2.223-.821 4.941s-.45 5.219-1 5.559-1 2.421-1 4.625c0 2.203-.399 4.764-.887 5.691-.834 1.584-1.519 5.936-2.781 17.684-.296 2.75-.901 5.45-1.346 6s-.934 3.25-1.088 6c-.153 2.75-.658 5.261-1.121 5.579-.464.319-.886 2.69-.937 5.27s-.487 4.933-.967 5.23c-.48.296-.873 2.961-.873 5.921s-.45 5.66-1 6-1 2.421-1 4.625c0 2.203-.419 4.789-.931 5.746s-1.075 3.74-1.25 6.184-.603 4.67-.951 4.945c-.347.275-.91 2.75-1.25 5.5s-1.088 7.925-1.662 11.5-1.291 8.75-1.592 11.5-.957 5.427-1.456 5.95c-.499.522-.908 3.245-.908 6.05s-.406 5.527-.903 6.05-1.155 2.975-1.463 5.45-1.046 7.425-1.641 11-1.328 8.75-1.629 11.5c-.302 2.75-.957 5.428-1.456 5.95s-.908 3.308-.908 6.191-.402 5.49-.894 5.794-1.154 2.243-1.471 4.309-1.096 6.681-1.731 10.256c-2.042 11.491-1.116 49 1.209 49 .488 0 .887.886.887 1.97 0 2.429 3.564 8.917 6.112 11.127 1.038.901 1.888 2.059 1.888 2.574 0 1.559 6.575 7.421 7.399 6.597.422-.423.618-.318.434.232-.183.55-.004 1.121.399 1.268s4.412 3.86 8.909 8.25 8.555 7.982 9.016 7.982 2.75 1.8 5.086 4c2.335 2.2 4.646 4 5.134 4s1.625.85 2.526 1.888c2.187 2.522 8.689 6.112 11.068 6.112 1.051 0 2.189.45 2.529 1 .41.663 90.379.985 266.809.956 278.544-.046 272.709.042 277.639-4.179 1.036-.887 2.062-1.434 2.281-1.215.218.219 2.018-1.131 3.999-3s3.782-3.219 4-3c.219.219 2.058-1.168 4.087-3.082s4.073-3.48 4.542-3.48 4.904-3.937 9.856-8.75c4.952-4.812 9.825-9.23 10.829-9.817 1.003-.587 2.304-1.923 2.891-2.969.587-1.047 2.283-3.09 3.769-4.54s2.836-3.253 3-4.007.865-1.979 1.557-2.724c.693-.745 1.004-1.768.691-2.274-.312-.505-.091-.919.491-.919s1.059-1.71 1.059-3.8.424-4.228.943-4.75 1.037-4.213 1.152-8.2.623-7.25 1.13-7.25c1.094 0 .398-13.765-1.149-22.75-1.759-10.216-3.037-18.434-3.694-23.75-.34-2.75-.966-5.225-1.391-5.5-.718-.465-1.121-3.058-2.607-16.75-.313-2.888-.977-5.25-1.477-5.25-.499 0-.907-2.448-.907-5.441s-.365-5.666-.81-5.942-.92-2.664-1.054-5.309-.669-4.958-1.19-5.141c-.52-.184-.946-2.681-.946-5.55 0-2.87-.409-5.645-.908-6.167s-1.162-3.2-1.473-5.95c-1.375-12.161-1.868-15.058-2.716-15.95-.497-.522-.903-3.083-.903-5.691s-.45-5.019-1-5.359-1-2.815-1-5.5-.45-5.16-1-5.5-1-3.04-1-6-.45-5.66-1-6-1-2.976-1-5.859-.409-5.669-.908-6.191-1.162-3.2-1.473-5.95c-1.253-11.08-1.854-14.5-2.549-14.5-.4 0-.832-2.578-.96-5.728-.127-3.151-.605-5.964-1.061-6.25-.457-.287-1.092-2.772-1.413-5.522-1.47-12.618-1.889-15.062-2.733-15.95-.497-.522-.903-3.308-.903-6.191s-.45-5.519-1-5.859-1-2.841-1-5.559-.45-4.941-1-4.941-1-2.448-1-5.441-.45-5.719-1-6.059-1-2.841-1-5.559-.366-4.941-.813-4.941-.922-2.101-1.055-4.668-.667-5.463-1.187-6.434-.945-3.506-.945-5.632-.412-4.294-.916-4.816c-.503-.523-1.128-3.65-1.387-6.95-.543-6.905-1.542-13.333-2.409-15.5-.584-1.458-1.783-8.842-2.922-18-.308-2.475-.966-4.927-1.463-5.45-.497-.522-.903-2.858-.903-5.191s-.45-4.519-1-4.859-1-1.491-1-2.559-.45-1.941-1-1.941-1-.9-1-2-.477-2-1.059-2-.799-.421-.481-.935c.318-.515-.668-2.182-2.191-3.705s-2.769-3.015-2.769-3.315-.337-.433-.75-.295c-.412.137-.637-.313-.5-1 .138-.688-.312-1.138-1-1s-1.137-.088-1-.5c.138-.413-.122-.833-.576-.934s-1.588-1.064-2.52-2.138c-1.966-2.267-8.163-5.912-10.823-6.366-1.007-.171-2.064-.62-2.35-.997-.285-.376-1.731-.847-3.212-1.045-1.481-.199-3.01-.678-3.398-1.066-.387-.387-2.564-.704-4.838-.704s-4.56-.41-5.083-.912c-.992-.952-7.43-1.785-20.949-2.709-4.399-.301-8.631-1.072-9.403-1.713-1.265-1.049-306.268-1.805-370.598-.918m14.75 10.891c-.773.326-1.25 2.52-1.25 5.749v5.221l3.971.234c4.457.263 5.478-1.411 4.853-7.955-.284-2.973-.691-3.412-3.324-3.582-1.65-.107-3.562.043-4.25.333m13.95.561c-1.649 1.649-1.513 8.295.198 9.716.77.638 3.02 1.051 5 .918l3.602-.243v-5.188c0-3.809-.421-5.35-1.582-5.796-2.549-.978-5.924-.701-7.218.593m14.8 4.74V302h8.1l-.3-5.75-.3-5.75-3.75-.31-3.75-.311zm14-1.003c0 5.319 1.254 7.063 5.078 7.063 3.708 0 5.098-2.107 4.733-7.176l-.311-4.324-4.75-.113-4.75-.114zm15.2-3.737c-1.453 1.453-1.543 4.767-.225 8.235.824 2.167 1.6 2.565 5 2.565H412v-12h-3.8c-2.09 0-4.34.54-5 1.2M418 296v5.591l3.602.243c4.702.316 6.398-1.23 6.398-5.834s-1.696-6.15-6.398-5.834l-3.602.243zm15.246-4.846c-1.589 1.589-1.62 8.072-.046 9.646 1.375 1.375 5.674 1.566 7.611.338.868-.55 1.206-2.489 1-5.735-.305-4.813-.375-4.908-3.815-5.199-1.928-.162-4.065.265-4.75.95M448 296v6h3.899c3.879 0 3.901-.023 4.25-4.334.566-6.99.194-7.666-4.222-7.666H448zm15.2-4.8c-1.552 1.552-1.552 8.048 0 9.6.66.66 2.37 1.2 3.8 1.2 3.553 0 5-1.737 5-6s-1.447-6-5-6c-1.43 0-3.14.54-3.8 1.2m13.866 1.126c-.486 1.28-.572 3.867-.189 5.75.645 3.178.998 3.446 4.909 3.731l4.214.308v-5.451c0-5.797-.73-6.664-5.607-6.664-1.637 0-2.734.767-3.327 2.326m15.601-1.659c-1.441 1.44-.702 10.106.915 10.726 2.549.978 5.924.701 7.218-.593 1.552-1.552 1.552-8.048 0-9.6-1.276-1.276-7.015-1.652-8.133-.533m14.308 1.898c-2.416 6.356-.479 9.666 5.423 9.269l3.602-.243V290h-4.025c-3.4 0-4.176.398-5 2.565m16.275-1.903c-1.931.779-1.647 9.972.332 10.731C528.755 303.378 532 301.3 532 296c0-5.251-3.569-7.428-8.75-5.338m13.996.492c-1.686 1.686-1.582 8.322.152 9.762.77.638 3.039 1.05 5.044.915l3.645-.246-.293-5.542-.294-5.543-3.504-.296c-1.928-.162-4.065.265-4.75.95M552 296v6.115l4.25-.308 4.25-.307v-11l-4.25-.307-4.25-.308zm15.246-4.846c-1.686 1.686-1.582 8.322.152 9.762.77.638 3.039 1.05 5.044.915l3.645-.246-.293-5.542-.294-5.543-3.504-.296c-1.928-.162-4.065.265-4.75.95M582 296v6h8v-12h-8zm14.667-5.333c-1.139 1.138-.732 8.868.533 10.133.66.66 2.37 1.2 3.8 1.2 3.553 0 5-1.737 5-6 0-1.98-.54-4.14-1.2-4.8-1.276-1.276-7.015-1.652-8.133-.533m14.161 1.812c-.761 1.669-.825 3.547-.197 5.75.842 2.952 1.344 3.301 5.151 3.578l4.218.308V290h-4.021c-3.31 0-4.222.439-5.151 2.479M626 295.796v5.795l3.602.243c4.682.315 6.398-1.228 6.398-5.756 0-4.667-1.439-6.078-6.2-6.078H626zm15.227-4.623c-1.574 1.574-1.592 8.062-.027 9.627.66.66 2.91 1.2 5 1.2h3.8v-11.609l-3.773-.223c-2.075-.122-4.325.33-5 1.005M656 296v6h3.889c3.6 0 3.932-.241 4.473-3.25.321-1.788.406-4.15.188-5.25s-.431-2.337-.473-2.75c-.043-.413-1.877-.75-4.077-.75h-4zm15.2-4.8c-.66.66-1.2 2.82-1.2 4.8 0 4.775 1.459 6 7.143 6 3.768 0 5.064-.457 6.3-2.223 2.179-3.11 1.991-7.475-.377-8.742-2.644-1.415-10.394-1.307-11.866.165M324 295.254c0 5.526 1.28 6.746 7.078 6.746 5.649 0 7.163-1.502 6.737-6.68l-.315-3.82-6.75-.296-6.75-.295zm-16.5-2.235c-1.65.462-5.925 1.099-9.5 1.417-10.315.917-18.415 2.056-19.502 2.742-.551.348-3.026.766-5.5.929-2.474.162-4.723.608-4.998.991s-1.625.855-3 1.049-2.729.654-3.009 1.023c-.281.368-1.164.818-1.964 1-.799.181-2.564 1.318-3.922 2.526-1.358 1.209-2.848 1.963-3.312 1.676-.463-.286-.719.075-.568.804.151.728-.288 1.211-.975 1.074-.688-.138-1.138.312-1 1s-.346 1.126-1.074.975-1.071.136-.761.637-.107 1.467-.926 2.147-1.489 1.882-1.489 2.672-.355 1.218-.788.95-.885.693-1.005 2.135-.568 2.872-.998 3.178-.915 2.356-1.077 4.556c-.163 2.2-.709 4.428-1.214 4.95s-.918 2.858-.918 5.191-.45 4.519-1 4.859-1 2.976-1 5.859-.409 5.669-.908 6.191-1.145 3.2-1.434 5.95c-.29 2.75-1.027 7.475-1.638 10.5-1.255 6.209-2.82 15.543-3.606 21.5-.29 2.2-.928 4.9-1.419 6-.843 1.893-1.315 5.001-2.621 17.25-.307 2.887-.887 5.25-1.288 5.25s-.836 2.349-.967 5.219-.615 5.683-1.076 6.25c-.778.958-1.151 3.382-2.659 17.281-.313 2.887-.977 5.25-1.477 5.25-.499 0-.907 2.448-.907 5.441s-.45 5.719-1 6.059-1 2.976-1 5.859-.409 5.669-.908 6.191-1.154 3.2-1.456 5.95c-.301 2.75-.993 7.7-1.536 11a437 437 0 0 0-1.654 11c-.366 2.75-.987 5.45-1.38 6s-.835 3.025-.984 5.499c-.149 2.475-.593 4.725-.986 5-.394.276-.836 2.751-.983 5.501s-.683 5.427-1.19 5.95c-.508.522-.923 3.11-.923 5.75s-.37 4.8-.821 4.8c-.452 0-.928 2.362-1.058 5.25-.129 2.888-.66 5.677-1.178 6.2-.519.522-.943 3.308-.943 6.191s-.368 5.469-.819 5.747-.926 2.892-1.057 5.809-.663 5.73-1.181 6.253c-.519.522-.943 3.11-.943 5.75s-.412 4.8-.915 4.8-1.153 2.813-1.444 6.25c-.802 9.449-1.658 15.033-2.646 17.25-.49 1.1-1.148 4.25-1.463 7-1.303 11.391-1.77 14.046-2.629 14.95-.497.523-.903 3.308-.903 6.191s-.45 5.519-1 5.859c-2.898 1.791 1.132 10.5 4.859 10.5.465 0 2.259 1.352 3.988 3.005s3.335 2.89 3.569 2.75 1.472.657 2.754 1.771c1.281 1.114 2.631 2.014 3 2 .368-.014 1.718.886 3 2 1.281 1.114 2.631 2.014 3 2 .368-.014 1.718.886 3 2 1.281 1.114 2.78 2.143 3.33 2.287s1.931 1.032 3.07 1.974 2.709 1.862 3.491 2.043c.781.182 1.669.733 1.973 1.225s1.655 1.019 3.001 1.17c2.22.249 2.521-.189 3.237-4.725.434-2.75 1.226-7.587 1.759-10.75S233.45 658.3 234 655l2.044-12.25c.574-3.437 1.271-8.5 1.548-11.25s.909-5.9 1.404-7 1.131-4.025 1.415-6.5c.483-4.221 1.044-7.803 3.639-23.25.578-3.437 1.294-8.612 1.593-11.5s.95-5.25 1.45-5.25c.499 0 .907-2.448.907-5.441s.45-5.719 1-6.059 1-2.59 1-5 .45-4.66 1-5 1-1.69 1-3 .45-2.66 1-3 1-1.491 1-2.559.45-1.941 1-1.941 1-.837 1-1.86c0-2.345 6.027-14.14 7.226-14.14.491 0 .631-.422.313-.937-.71-1.148 21.114-23.063 22.968-23.063.729 0 1.476-.416 1.66-.925s1.008-1.071 1.833-1.25 1.729-.626 2.009-.995c.281-.368 1.17-.818 1.977-1 .806-.181 2.076-.897 2.821-1.589.745-.693 1.768-1.004 2.274-.691.505.312.919.091.919-.491s.873-1.059 1.941-1.059 2.219-.45 2.559-1 2.129-1 3.976-1 3.507-.426 3.691-.946c.183-.521 2.47-1.055 5.083-1.187s4.75-.607 4.75-1.054c0-1.136 20.385-1.023 21.55.119.522.512 5 1.15 9.95 1.416 10.806.582 20.904 1.494 25 2.257 2.851.531 13.023 1.502 33 3.152 4.95.409 9.455 1.041 10.011 1.404.556.364 1.88.027 2.941-.75 1.062-.776 1.507-1.414.989-1.417s.408-.71 2.057-1.569c1.814-.946 3.985-1.306 5.5-.91 8.737 2.281 110.947 4.53 115.962 2.551 4.148-1.636 33.941-1.842 34.931-.241.63 1.018 2.992 1.188 10.214.735 5.167-.324 14.12-.818 19.895-1.098s11.4-.936 12.5-1.457c1.1-.522 6.05-1.173 11-1.447 4.95-.273 13.725-.978 19.5-1.566 17.548-1.786 31-2.245 31-1.056 0 .61 2.132 1.064 5 1.064 2.75 0 5 .45 5 1s1.35 1 3 1 3 .45 3 1 1.098 1 2.441 1 2.719.45 3.059 1 1.491 1 2.559 1 1.941.477 1.941 1.059.414.803.919.491 1.519-.002 2.25.691c.732.692 2.568 1.898 4.081 2.678s2.75 1.793 2.75 2.25.664.831 1.476.831c1.599 0 19.917 17.941 19.126 18.732-.265.264.626 1.586 1.978 2.939s2.222 2.841 1.933 3.308c-.289.468-.106 1.001.406 1.186.512.184 1.077.999 1.256 1.811s.892 2.086 1.584 2.831 1.004 1.768.691 2.274c-.312.505-.091.919.491.919s1.059.873 1.059 1.941.45 2.219 1 2.559 1 1.69 1 3 .45 2.66 1 3 1 1.69 1 3 .45 2.66 1 3 1 2.616 1 5.059.408 4.441.907 4.441 1.152 2.362 1.45 5.25 1.015 8.063 1.593 11.5l2.1 12.5c.578 3.438 1.294 8.612 1.593 11.5s.95 5.25 1.45 5.25c.499 0 .907 2.61.907 5.8s.424 6.227.942 6.75c.519.522 1.043 3.763 1.164 7.2.122 3.438.557 6.25.966 6.25.703 0 1.213 3.455 2.473 16.75.299 3.163.953 6.65 1.451 7.75s1.122 4.25 1.384 7c.865 9.075 1.695 11.686 3.492 10.986.896-.349 2.06-.713 2.589-.81s1.851-.964 2.939-1.926c1.087-.962 2.567-1.75 3.289-1.75.721 0 1.311-.374 1.311-.831s1.237-1.47 2.75-2.25 3.622-2.207 4.689-3.169c1.066-.962 2.528-1.75 3.25-1.75.721 0 1.311-.374 1.311-.831s1.237-1.47 2.75-2.25 3.622-2.207 4.689-3.169c1.066-.962 2.3-1.75 2.742-1.75s1.892-.946 3.222-2.103c1.33-1.156 2.582-1.944 2.782-1.75s1.636-.827 3.192-2.27c2.386-2.213 2.656-2.946 1.726-4.684-.607-1.134-1.103-4.09-1.103-6.568 0-2.479-.45-4.785-1-5.125s-1-3.04-1-6-.45-5.66-1-6-1-3.066-1-6.059-.45-5.441-1-5.441-1-2.055-1-4.566-.425-5.36-.945-6.332-1.056-3.893-1.19-6.492c-.135-2.6-.609-4.952-1.055-5.227s-.81-2.409-.81-4.742-.406-4.669-.903-5.191-1.155-2.975-1.463-5.45c-1.5-12.053-2.236-16.589-2.851-17.564-.369-.586-.781-3.173-.914-5.75-.134-2.577-.567-4.686-.963-4.686-.397 0-.973-2.362-1.28-5.25-1.306-12.249-1.778-15.357-2.621-17.25-.845-1.897-1.399-5.213-2.589-15.5-.286-2.475-.921-5.4-1.411-6.5-.491-1.1-1.14-4.025-1.443-6.5a4596 4596 0 0 1-1.182-9.768c-.347-2.898-1.024-5.512-1.505-5.809s-.875-2.899-.875-5.782-.406-5.669-.903-6.191c-.848-.892-1.341-3.789-2.716-15.95-.311-2.75-.974-5.427-1.473-5.95-.499-.522-.908-3.308-.908-6.191s-.45-5.519-1-5.859-1-3.04-1-6-.45-5.66-1-6-1-2.526-1-4.859-.424-4.669-.943-5.191-1.049-3.313-1.178-6.2c-.13-2.887-.606-5.25-1.058-5.25-.451 0-.821-2.16-.821-4.8s-.413-5.228-.918-5.75-1.037-2.75-1.182-4.95c-.144-2.2-.648-4.789-1.118-5.753-.47-.963-.896-3.785-.946-6.269s-.483-4.76-.963-5.057c-.48-.296-.873-2.792-.873-5.546 0-2.753-.408-5.768-.906-6.7-.498-.931-1.028-3.714-1.176-6.184-.149-2.47-.593-4.941-.987-5.491s-.963-3.025-1.265-5.5c-.768-6.304-2.263-13.93-3.465-17.675-.56-1.746-.759-3.433-.443-3.75.316-.316.05-.575-.591-.575-.642 0-1.167-.681-1.167-1.514 0-3.212-8.717-13.556-12.061-14.311-.792-.179-1.589-.741-1.772-1.25s-1.196-.925-2.25-.925-1.917-.398-1.917-.883c0-.486-1.237-1.189-2.75-1.562-8.003-1.974-21.787-4.255-30.75-5.09-3.3-.307-7.305-.987-8.899-1.512-1.595-.524-5.307-.953-8.25-.953H690v4.545c0 3.497-.568 5.114-2.461 7.007l-2.462 2.462-149.288.007c-82.109.004-163.515.001-180.903-.007L323.273 306l-2.637-2.636c-2.043-2.043-2.636-3.619-2.636-7V292l-3.75.09c-2.062.05-5.1.468-6.75.929m170.364 22.752c-11.148.152-19.864.672-19.864 1.185 0 .504-4.613 1.131-10.25 1.395-14.799.694-24.111 1.708-25.2 2.745-.522.497-3.56.904-6.75.904-3.2 0-5.8.448-5.8 1 0 .55-2.385 1-5.3 1s-5.727.404-6.25.898c-.522.493-2.975 1.179-5.45 1.523-9.982 1.39-12.036 1.828-12.565 2.685-.304.492-2.075.894-3.935.894s-3.66.45-4 1-1.941 1-3.559 1-2.941.45-2.941 1-1.35 1-3 1-3 .45-3 1-1.35 1-3 1-3 .45-3 1-1.35 1-3 1-3 .45-3 1-1.098 1-2.441 1-2.719.45-3.059 1-1.491 1-2.559 1-1.941.477-1.941 1.059-.372.829-.827.548-3.005.593-5.669 1.941-5.442 2.452-6.173 2.452c-.732 0-1.331.45-1.331 1s-.863 1-1.917 1-2.066.337-2.25.75c-.183.413-2.47 1.833-5.083 3.157s-4.75 2.787-4.75 3.25-.59.843-1.311.843c-.722 0-2.278.9-3.459 2-1.18 1.1-2.556 2-3.056 2-1.23 0-15.394 14.113-14.78 14.727.266.267-.622 1.591-1.974 2.944s-2.198 2.879-1.88 3.394c.318.514.101.935-.481.935S282 385.35 282 387s-.45 3-1 3c-1.125 0-1.408 14.259-.304 15.362.382.383.805 1.442.939 2.354.364 2.481 4.554 10.284 5.522 10.284.464 0 .843.662.843 1.472 0 1.551 12.684 14.528 14.2 14.528.486 0 1.85.9 3.03 2 1.181 1.1 2.737 2 3.459 2 .721 0 1.311.383 1.311.85 0 .468 3.038 2.379 6.75 4.246s6.9 3.735 7.083 4.15c.184.415.92.754 1.636.754s2.559.652 4.095 1.449 3.232 1.177 3.769.845c.541-.334.658-.089.262.551-.632 1.024 1.199 1.661 3.655 1.273.413-.065.75.332.75.882s.873 1 1.941 1 2.219.45 2.559 1 1.626 1 2.859 1 2.669.412 3.191.916 1.85 1.067 2.95 1.25 2.233.642 2.519 1.019c.285.376 1.635.838 3 1.025s2.981.655 3.593 1.039c.611.384 2.524.806 4.25.937 1.726.132 3.138.594 3.138 1.027s1.323.787 2.941.787 3.219.45 3.559 1 2.076 1 3.859 1 3.676.435 4.207.966c.532.532 2.456 1.08 4.276 1.219 1.821.139 3.527.604 3.793 1.034.266.429 2.391.781 4.724.781s4.668.41 5.191.912 3.425 1.161 6.45 1.466 8.875 1.032 13 1.616c29.509 4.177 47.216 5.27 86.5 5.341 32.62.058 52.24-.639 57-2.026 1.1-.321 5.825-.964 10.5-1.429s11.2-1.119 14.5-1.451 6.428-1.015 6.95-1.517 3.308-.912 6.191-.912 5.464-.36 5.736-.801c.272-.44 2.436-.914 4.809-1.053s4.742-.679 5.264-1.2 2.66-.946 4.75-.946 3.8-.354 3.8-.787 1.462-.897 3.25-1.031c2.83-.212 5.933-.997 11.75-2.974a27 27 0 0 1 3-.795c2.904-.551 9.52-2.618 11.236-3.51.955-.497 2.616-.903 3.691-.903s2.233-.45 2.573-1 1.491-1 2.559-1 1.941-.477 1.941-1.059.37-.831.822-.551 2.078-.144 3.614-.941 3.416-1.449 4.178-1.449 1.386-.477 1.386-1.059.414-.803.919-.491 1.529.002 2.274-.691c.745-.692 2.015-1.408 2.821-1.589.807-.182 1.747-.783 2.088-1.336.342-.552.909-.966 1.26-.919 2.197.294 3.489-.117 5.238-1.665 1.088-.962 2.631-1.899 3.43-2.08.798-.182 1.68-.632 1.961-1.002.28-.369 1.746-1.309 3.259-2.089 1.513-.779 2.75-1.791 2.75-2.248s.608-.831 1.352-.831c.743 0 2.69-1.238 4.327-2.75s3.841-3.271 4.898-3.907c1.058-.636 1.81-1.649 1.673-2.25-.138-.601.312-.981 1-.843.687.137 1.137-.313 1-1-.138-.688.087-1.138.5-1 .412.137.757.025.766-.25s1.678-2.261 3.708-4.414 3.483-4.251 3.228-4.664c-.256-.413.013-.91.596-1.105.584-.194 1.162-1.02 1.285-1.835s.634-2.14 1.136-2.945c1.301-2.086.998-20.97-.359-22.327-.61-.61-1.11-1.92-1.11-2.91s-.45-1.8-1-1.8-1-.666-1-1.479c0-1.93-19.887-21.709-21.084-20.969-.504.311-.916.166-.916-.324s-1.237-1.529-2.75-2.309-3.349-1.986-4.081-2.678c-.731-.693-1.744-1.004-2.25-.691-.505.312-.919.167-.919-.324 0-1.175-11.772-7.226-14.057-7.226-.977 0-1.926-.416-2.11-.925s-1.008-1.071-1.833-1.25-1.75-.66-2.056-1.07-1.768-.846-3.25-.968c-1.482-.123-2.694-.575-2.694-1.005s-.873-.782-1.941-.782-2.219-.45-2.559-1-1.716-1-3.059-1-2.441-.45-2.441-1-1.35-1-3-1-3-.45-3-1-1.323-1-2.941-1-3.219-.45-3.559-1-2.14-1-4-1-3.66-.45-4-1-2.14-1-4-1-3.66-.45-4-1-2.14-1-4-1-3.66-.45-4-1-2.526-1-4.859-1-4.668-.406-5.191-.903-2.975-1.155-5.45-1.463-7.425-1.047-11-1.641c-29.46-4.902-66.234-6.889-115.136-6.222m-6.307 5.006c-.397.398-6.197 1.07-12.889 1.495-24.959 1.584-28.19 1.895-29.118 2.801-.522.51-3.785.927-7.25.927-3.533 0-6.3.439-6.3 1 0 .55-2.223 1-4.941 1s-5.219.45-5.559 1-2.59 1-5 1-4.66.45-5 1-2.59 1-5 1-4.66.45-5 1-2.129 1-3.976 1-3.507.43-3.691.956-2.02 1.068-4.083 1.205c-2.062.136-3.75.606-3.75 1.043 0 .438-1.323.796-2.941.796s-3.219.45-3.559 1-1.69 1-3 1-2.66.45-3 1-1.44 1-2.445 1-3.083.652-4.619 1.449-3.162 1.22-3.614.941c-.452-.28-.822-.031-.822.551S344.843 346 343.429 346s-3.251.679-4.081 1.509-1.923 1.254-2.429.941c-.505-.312-.919-.091-.919.491s-.9 1.059-2 1.059-2 .45-2 1-.632 1-1.405 1c-1.667 0-9.526 3.962-11.426 5.759-.731.693-1.744 1.004-2.25.691-.505-.312-.919-.168-.919.322s-1.238 1.529-2.75 2.309-3.349 1.986-4.081 2.678c-.731.693-1.813.961-2.404.596-.637-.394-.783-.194-.36.49.392.635.229 1.155-.362 1.155-1.664 0-16.043 14.774-16.043 16.484 0 .834-.45 1.516-1 1.516s-1 .863-1 1.917-.492 2.08-1.094 2.281c-1.448.483-1.405 19.136.045 19.619.577.192 1.049 1.019 1.049 1.838 0 .818.679 2.167 1.509 2.997s1.348 1.81 1.151 2.179 3.055 4.044 7.226 8.169 7.667 7.275 7.769 7 1.233.412 2.515 1.526c1.281 1.114 2.708 2.081 3.169 2.147.462.067 1.843.955 3.07 1.974s2.874 1.999 3.661 2.178 1.58.741 1.763 1.25c.184.509 1.196.925 2.25.925s1.917.45 1.917 1 .9 1 2 1 2 .477 2 1.059.414.803.919.491 1.599.111 2.429.941S333.763 446 334.87 446s2.29.45 2.63 1 1.491 1 2.559 1 1.941.375 1.941.833c0 .459.563.885 1.25.947 2.437.221 8.75 2.721 8.75 3.465 0 .415 1.35.755 3 .755s3 .45 3 1 1.548 1 3.441 1 3.719.45 4.059 1 1.69 1 3 1 2.66.45 3 1 2.14 1 4 1 3.66.45 4 1 2.076 1 3.859 1 3.668.404 4.191.898c.958.905 5.554 1.733 15.2 2.739 2.887.302 5.25.918 5.25 1.37s3.038 1.091 6.75 1.419 9.675.858 13.25 1.177 6.95.932 7.5 1.36 4.8.868 9.444.977 9.144.561 10 1.005c1.925.999 33.019 2.397 50.556 2.273 23.076-.163 49.763-2.006 75-5.178 4.4-.553 10.475-1.28 13.5-1.615s5.928-1.018 6.45-1.517 3.335-.908 6.25-.908 5.3-.45 5.3-1 1.773-1 3.941-1 4.219-.45 4.559-1 2.579-1 4.976-1 4.507-.43 4.691-.956c.183-.526 2.021-1.068 4.083-1.205 2.063-.136 3.75-.606 3.75-1.043 0-.438 1.313-.796 2.917-.796s3.066-.422 3.25-.939c.183-.516 1.458-1.122 2.833-1.346s3.252-.736 4.172-1.138 2.369-.833 3.221-.958 1.862-.541 2.245-.923c.382-.383 1.719-.696 2.97-.696s2.552-.45 2.892-1 1.716-1 3.059-1 2.441-.45 2.441-1 .599-1 1.331-1c.731 0 3.509-1.103 6.173-2.452s5.284-2.179 5.824-1.845c.546.337.665.094.267-.548-.632-1.024 1.199-1.661 3.655-1.273.413.065.75-.261.75-.725s2.138-1.923 4.75-3.244 5.349-2.971 6.081-3.666c.731-.696 1.813-.967 2.404-.602.637.394.783.194.36-.49-.392-.635-.212-1.155.4-1.155.613 0 2.552-1.348 4.309-2.995s3.549-2.998 3.979-3c1.002-.006 7.744-6.72 7.771-7.738.011-.422.791-1.701 1.733-2.842 2.553-3.092 4.213-6.209 4.213-7.911 0-.833.407-1.514.905-1.514.497 0 .905-3.6.905-8s-.408-8-.905-8-.905-.681-.905-1.514c0-1.665-1.797-5.144-3.759-7.278-.693-.753-.961-1.852-.596-2.443.394-.637.194-.783-.49-.36-.635.392-1.155.221-1.155-.379 0-1.24-6.519-8.024-7.717-8.031-.43-.002-2.221-1.352-3.979-3-1.757-1.647-3.696-2.995-4.309-2.995-.612 0-.792-.52-.4-1.155.423-.684.277-.884-.36-.49-.591.365-1.673.097-2.404-.596-.732-.692-2.568-1.898-4.081-2.678s-2.75-1.819-2.75-2.309-.414-.634-.919-.322c-.506.313-1.711-.223-2.679-1.191-.968-.967-1.791-1.577-1.831-1.354-.039.223-1.735-.196-3.768-.932-2.033-.735-3.426-1.774-3.095-2.309s.162-.702-.375-.37-2.233-.048-3.769-.845-3.416-1.449-4.178-1.449-1.386-.375-1.386-.833c0-.459-.562-.867-1.25-.908-1.463-.087-8.02-2.529-8.75-3.259-.275-.275-1.625-.659-3-.853s-2.725-.646-3-1.004c-.275-.357-1.85-.8-3.5-.983s-3.427-.743-3.95-1.246c-.522-.503-2.21-.914-3.75-.914s-2.8-.375-2.8-.833c0-.459-.666-.834-1.48-.834-1.358 0-5.03-.954-13.091-3.401-1.689-.512-4.502-.932-6.25-.932s-3.179-.37-3.179-.821c0-.452-2.349-.929-5.219-1.06s-5.683-.615-6.25-1.076c-.567-.46-3.281-1.089-6.031-1.396-2.75-.308-7.925-1.063-11.5-1.679s-10.212-1.344-14.75-1.618c-4.538-.273-8.25-.87-8.25-1.325 0-1.721-88.766-3.927-90.443-2.248m4.14 3.859c-.422.423-6.264 1.139-12.982 1.591-21.498 1.449-25.715 1.917-25.715 2.855 0 .505-2.925.918-6.5.918-3.667 0-6.5.436-6.5 1 0 .55-2.475 1-5.5 1s-5.5.45-5.5 1-1.773 1-3.941 1-4.219.45-4.559 1-1.941 1-3.559 1-2.941.358-2.941.796c0 .437-1.687.907-3.75 1.043-2.062.137-3.9.679-4.083 1.205s-1.898.956-3.809.956c-2.063 0-3.225.407-2.858 1 .361.583-.656 1-2.441 1-1.682 0-3.059.45-3.059 1s-1.35 1-3 1-3 .45-3 1-.9 1-2 1-2 .45-2 1-.813 1-1.807 1c-2.426 0-15.32 6.54-14.504 7.356.354.354-.331.644-1.522.644s-2.167.477-2.167 1.059-.376.826-.836.542-2.41.927-4.334 2.691-4.359 3.729-5.413 4.365-1.805 1.649-1.667 2.25-.242.98-.843.843c-.601-.138-1.614.624-2.25 1.691s-2.178 3.009-3.426 4.315c-1.248 1.305-2.009 2.794-1.691 3.309.318.514.211.935-.238.935-1.456 0-3.302 7.818-3.302 13.984 0 3.344.444 6.016 1 6.016.55 0 1 1.35 1 3s.45 3 1 3 1 .66 1 1.466c0 1.634 13.975 15.892 14.784 15.083.282-.282 1.262.351 2.178 1.407s2.294 2.06 3.062 2.232c.769.171 2.288 1.1 3.376 2.062 1.087.962 2.567 1.75 3.289 1.75.721 0 1.311.45 1.311 1s.9 1 2 1 2 .45 2 1 .9 1 2 1 2 .45 2 1 .624 1 1.386 1 2.642.652 4.178 1.449 3.162 1.22 3.614.941c.452-.28.822-.031.822.551s.81 1.059 1.8 1.059 2.237.437 2.771.971c.535.535 1.862 1.142 2.95 1.35s2.654.608 3.479.888c5.963 2.023 8.924 2.791 10.762 2.791 1.166 0 2.398.45 2.738 1s2.14 1 4 1 3.66.45 4 1 2.076 1 3.859 1 3.669.406 4.191.903c.523.497 2.975 1.155 5.45 1.463s7.425 1.028 11 1.601c39.08 6.258 81.342 7.082 130 2.535 3.575-.334 7.4-1.013 8.5-1.51 1.1-.496 4.475-1.105 7.5-1.353 7.896-.648 14.241-1.726 16.184-2.751.927-.488 3.038-.888 4.691-.888s3.227-.356 3.496-.791 2.194-.906 4.278-1.046c2.085-.14 4.029-.574 4.32-.963s1.881-.863 3.531-1.054 3.45-.627 4-.968c.55-.342 1.598-.712 2.328-.823.731-.11 2.081-.528 3-.928.92-.4 2.562-.898 3.651-1.106s2.415-.815 2.95-1.35c.534-.534 1.979-.971 3.212-.971s2.519-.45 2.859-1 1.491-1 2.559-1 1.941-.477 1.941-1.059.414-.803.919-.491 1.529.002 2.274-.691c.745-.692 2.019-1.405 2.831-1.584s1.627-.744 1.811-1.256c.185-.512.711-.7 1.17-.416.458.283 1.443-.051 2.188-.744.745-.692 2.015-1.408 2.821-1.589.807-.182 1.696-.632 1.977-1.002.28-.369 1.746-1.309 3.259-2.089 1.513-.779 2.75-1.817 2.75-2.307s.408-.638.906-.33c1.187.734 17.094-15.058 17.094-16.97 0-.81.45-1.472 1-1.472s1-.873 1-1.941.45-2.219 1-2.559 1-4.416 1-9.059c0-4.961-.412-8.441-1-8.441-.55 0-1-1.04-1-2.311 0-1.272-.9-3.278-2-4.459s-2-2.521-2-2.98c0-1.508-8.604-9.313-9.394-8.523-.425.425-.623.323-.439-.227.183-.55-.039-1.083-.493-1.184-.454-.102-1.607-1.086-2.563-2.188s-2.367-2.144-3.135-2.316c-.769-.171-2.288-1.1-3.376-2.062-1.087-.962-2.567-1.75-3.289-1.75-.721 0-1.311-.45-1.311-1s-.9-1-2-1-2-.45-2-1-.9-1-2-1-2-.45-2-1-1.377-1-3.059-1c-1.785 0-2.802-.417-2.441-1 .351-.567-.49-1-1.941-1-1.407 0-2.559-.45-2.559-1s-.873-1-1.941-1-2.219-.45-2.559-1-1.69-1-3-1-2.66-.45-3-1-1.69-1-3-1-2.66-.45-3-1-2.166-1-4.059-1-3.441-.45-3.441-1-1.8-1-4-1-4-.45-4-1-1.773-1-3.941-1-4.219-.45-4.559-1-2.526-1-4.859-1-4.668-.41-5.191-.912-3.425-1.161-6.45-1.466-8.875-1.044-13-1.642c-18.38-2.666-88.389-5.258-90.303-3.344m-14.268 6.331c-.511.509-5.092 1.009-10.179 1.111s-9.25.576-9.25 1.053c0 .478-2.673.869-5.941.869s-6.219.45-6.559 1-2.59 1-5 1-4.66.45-5 1-2.59 1-5 1-4.631.402-4.935.894-2.243 1.142-4.309 1.444c-6.986 1.021-10.754 1.935-11.275 2.735-.285.438-1.731.959-3.212 1.157s-3.01.678-3.398 1.066c-.387.387-1.728.704-2.979.704s-2.552.45-2.892 1-1.69 1-3 1-2.66.45-3 1-1.524 1-2.63 1c-1.107 0-2.692.679-3.522 1.509s-1.923 1.254-2.429.941c-.505-.312-.919-.091-.919.491s-.585 1.059-1.301 1.059c-1.839 0-6.682 2.352-6.691 3.25-.004.413-.715.75-1.579.75-.865 0-2.251.679-3.081 1.509s-1.992 1.211-2.583.846c-.637-.394-.783-.194-.36.49.422.685.078 1.155-.846 1.155-.857 0-1.559.374-1.559.831s-1.232 1.47-2.738 2.25c-8.85 4.587-15.442 15.335-15.336 25.004.095 8.59.261 9.915 1.241 9.915.458 0 .833.687.833 1.527s1.462 3.146 3.25 5.125c1.787 1.98 3.138 3.993 3 4.474s.143.761.624.624c.481-.138 2.494 1.212 4.474 3s4.087 3.25 4.684 3.25.765.52.373 1.155c-.423.684-.277.884.36.49.591-.365 1.683-.097 2.428.596.745.692 2.019 1.405 2.831 1.584s1.626.741 1.809 1.25.998.925 1.809.925c.861 0 1.179.481.763 1.155-.423.684-.277.884.36.49.591-.365 1.673-.097 2.404.596.732.692 2.231 1.409 3.331 1.593s2.428.746 2.95 1.25 1.76.916 2.75.916 1.8.477 1.8 1.059.37.831.822.551 2.078.144 3.614.941 3.416 1.449 4.178 1.449 1.386.45 1.386 1 1.35 1 3 1 3 .45 3 1 1.548 1 3.441 1 3.719.45 4.059 1 1.941 1 3.559 1 2.941.405 2.941.899c0 .495 2.025 1.17 4.5 1.5l9 1.202c2.475.33 4.5 1.005 4.5 1.5 0 .494 2.385.899 5.3.899s5.728.412 6.25.916c.927.893 6.21 1.558 21.45 2.697 4.125.308 7.984.962 8.576 1.452 1.186.982 79.688.504 93.417-.569 4.671-.365 8.73-1.049 9.021-1.519.291-.471 3.107-.96 6.258-1.087 3.15-.128 5.728-.564 5.728-.969s2.362-.97 5.25-1.257 7.725-1.029 10.75-1.651 7.413-1.374 9.75-1.672c2.337-.299 4.25-.947 4.25-1.442 0-.494 1.155-.899 2.566-.899s3.412-.453 4.447-1.007c1.034-.554 3.03-1.102 4.434-1.218s2.553-.563 2.553-.993 1.313-.782 2.917-.782 3.066-.446 3.25-.991c.183-.546 1.538-1.091 3.011-1.213 1.473-.121 2.459-.575 2.191-1.008-.432-.698 1.839-1.229 3.881-.906.413.065.75-.332.75-.882s.624-1 1.386-1 2.642-.652 4.178-1.449 3.162-1.22 3.614-.941c.452.28.822.143.822-.303s2.138-1.924 4.75-3.284c2.612-1.361 4.979-2.786 5.259-3.168s1.164-.843 1.964-1.025c.799-.181 2.564-1.318 3.922-2.526 1.358-1.209 2.848-1.963 3.312-1.676.463.286.719-.075.568-.804-.151-.728.175-1.269.725-1.201s2.475-1.395 4.278-3.25 3.054-3.373 2.78-3.373.614-1.638 1.972-3.64c1.359-2.001 2.47-4.675 2.47-5.941 0-1.265.481-2.598 1.068-2.961 1.13-.698.984-7.608-.179-8.458-.375-.275-.842-1.625-1.036-3s-.92-3.099-1.612-3.831-1.082-1.631-.865-2c.447-.759-11.949-13.333-12.923-13.109-.347.08-1.635-.688-2.862-1.707s-2.87-2.002-3.652-2.183c-.781-.182-1.649-.635-1.93-1.006-.849-1.128-13.193-7.164-14.649-7.164-.748 0-1.36-.477-1.36-1.059s-.37-.831-.822-.551-2.078-.144-3.614-.941-3.416-1.449-4.178-1.449-1.386-.352-1.386-.782-1.212-.882-2.694-1.005-2.944-.56-3.25-.971c-.306-.412-1.906-.905-3.556-1.096s-3.45-.628-4-.971c-.55-.344-2.125-.776-3.5-.961s-2.65-.759-2.833-1.275c-.184-.517-2.231-.939-4.55-.939s-4.644-.404-5.167-.898c-.522-.493-2.75-1.145-4.95-1.449-2.2-.303-6.475-1.054-9.5-1.668s-7.75-1.334-10.5-1.599-5.9-.897-7-1.404c-4.535-2.091-103.097-3.98-105.071-2.015M441 356.984c-.852.56-9.791.992-20.691 1.001-11.698.009-19.432.405-19.809 1.015-.353.572-5.491 1-12 1s-11.647.428-12 1c-.34.55-2.391 1-4.559 1s-3.941.45-3.941 1-.605 1-1.345 1c-1.988 0-4.655 3.34-4.655 5.829 0 1.194-.414 2.171-.921 2.171s-1.146 3.262-1.422 7.25c-.275 3.988-.81 8.938-1.188 11-.457 2.493-.316 3.75.422 3.75.61 0 1.109.9 1.109 2s.525 2 1.167 2c.641 0 .87.296.508.658-1.138 1.138 1.465 3.342 3.947 3.342 1.308 0 2.378.45 2.378 1 0 .662 45.814 1 135.441 1 89.215 0 135.652-.341 136.059-1 .34-.55 1.638-1 2.885-1 2.41 0 7.095-4.187 5.957-5.324-.371-.372-.15-.676.491-.676q1.167 0 1.167-7c0-4-.429-7-1-7-.556 0-1-2.667-1-6s-.444-6-1-6c-.55 0-1-.707-1-1.571 0-2.021-2.408-4.429-4.429-4.429-.864 0-1.571-.45-1.571-1s-1.8-1-4-1-4-.404-4-.897c0-.494-5.737-1.188-12.75-1.542s-21.3-1.096-31.75-1.648c-26.963-1.422-144.614-2.169-146.5-.929m18.5 4.03c-2.75.446-14.986.85-27.191.898-13.618.054-22.43.474-22.809 1.088-.361.584-6.032 1-13.625 1-7.153 0-13.801.425-14.773.945s-3.754 1.05-6.184 1.178c-4.716.248-8.143 2.748-8.752 6.385-.183 1.096-.746 2.419-1.25 2.942-1.563 1.621-1.13 19.479.513 21.121 1.665 1.666 14.571 2.045 14.571.429 0-.55-.562-1.001-1.25-1.001-3.577-.004-6.75-4.674-6.75-9.937 0-5.851 1.489-8.062 5.429-8.062 1.414 0 2.571-.45 2.571-1s1.71-1 3.8-1c3.962 0 6.2-1.386 6.2-3.84 0-4.155-1.654-4.095 113.75-4.128 76.949-.022 110.25.288 110.25 1.027 0 .582.399.812.887.511 1.207-.746 3.19 1.804 3.382 4.35.13 1.731.823 2.08 4.123 2.08 6.489 0 13.608 3.109 13.608 5.942 0 .597.521 1.919 1.158 2.939.695 1.112.829 2.607.336 3.737-.452 1.035-.881 2.332-.953 2.882-.073.55-.674.887-1.336.75-.663-.138-1.093.087-.955.5.137.412-.15.824-.638.915-.489.09-1.164.579-1.5 1.085-.337.507-1.512 1.431-2.612 2.055-1.638.929-.72 1.14 5.07 1.165 6.11.026 7.333-.275 9.011-2.22 2.132-2.469 3.248-9.75 1.496-9.75-.64 0-1.077-2.253-1.077-5.55 0-3.052-.657-6.82-1.46-8.373s-1.253-3.105-1-3.45.159-.401-.209-.125-1.38-.122-2.25-.885c-2.402-2.109-23.2-4-62.081-5.645-31.338-1.326-111.216-1.977-117.5-.958m-64.29 12.382c-.436.607-1.413 2.342-2.17 3.854-1.052 2.1-2.106 2.754-4.459 2.765-3.417.017-11.223 2.462-10.831 3.392.137.326.25 1.034.25 1.572 0 1.82 251.518 1.307 253.031-.517.69-.831 1.077-1.627.862-1.77-1.726-1.142-8.225-2.692-11.285-2.692-3.911 0-6.608-1.784-6.608-4.37 0-.831-.562-1.876-1.25-2.321-2.03-1.314-216.596-1.228-217.54.087M379 391c0 .55.675 1 1.5 1s1.5.45 1.5 1 1.152 1 2.559 1c1.451 0 2.292.433 1.941 1s.49 1 1.941 1c1.407 0 2.559.45 2.559 1 0 .661 38.5 1 113.5 1s113.5-.339 113.5-1c0-.55.9-1 2-1s2-.45 2-1 .694-1 1.542-1 2.508-.9 3.688-2l2.147-2H504.189c-82.793 0-125.189.339-125.189 1m-63.564 108.103c-.305.493-2.102.897-3.995.897s-3.441.34-3.441.755c0 .662-3.371 2.073-7.976 3.339-.812.223-2.086.973-2.831 1.665s-1.768 1.004-2.274.691c-.505-.312-.919-.168-.919.322s-1.227 1.529-2.727 2.309-4.536 3.107-6.745 5.169c-2.209 2.063-4.389 3.75-4.844 3.75-1.071 0-3.684 2.613-3.684 3.684 0 .455-1.687 2.635-3.75 4.844s-4.389 5.245-5.169 6.745-1.819 2.727-2.309 2.727-.634.414-.322.919c.313.506-.111 1.599-.941 2.429S262 541.564 262 542.429s-.477 1.571-1.059 1.571-.803.414-.491.919-.111 1.599-.941 2.429-1.509 2.666-1.509 4.081c0 1.414-.354 2.571-.787 2.571s-.898 1.455-1.034 3.234-.681 3.668-1.213 4.2c-.531.531-.966 3.126-.966 5.766s-.45 4.8-1 4.8-1 2.448-1 5.441-.45 5.719-1 6.059-1 2.976-1 5.859-.409 5.668-.908 6.191c-.85.89-1.301 3.803-2.703 17.45-.311 3.025-.975 5.928-1.477 6.45s-.912 3.11-.912 5.75-.45 4.8-1 4.8c-.563 0-1 2.814-1 6.441 0 3.543-.45 6.719-1 7.059s-1 3.04-1 6-.45 5.66-1 6-1 2.841-1 5.559-.379 4.941-.842 4.941c-.464 0-.94 3.004-1.059 6.675s-.64 7.467-1.157 8.434c-1.309 2.445-1.277 2.51 1.808 3.781 3.21 1.322 532.358 1.118 535.75-.207 1.803-.704 1.967-1.538 1.663-8.482-.185-4.235-.754-8.205-1.265-8.822s-.98-3.438-1.044-6.272-.507-5.393-.985-5.688S770 652.46 770 649.5s-.45-5.66-1-6-1-3.066-1-6.059-.45-5.441-1-5.441c-.552 0-1-2.6-1-5.8 0-3.19-.41-6.228-.912-6.75s-1.162-3.425-1.467-6.45c-1.184-11.737-1.758-15.573-2.616-17.5-.895-2.008-1.625-6.499-2.642-16.25-.302-2.888-.956-5.25-1.456-5.25-.499 0-.907-2.223-.907-4.941s-.45-5.219-1-5.559-1-2.076-1-3.859-.412-3.669-.916-4.191c-.504-.523-1.067-1.85-1.25-2.95s-.559-2.225-.834-2.5c-.509-.509-2.924-6.709-3.296-8.461-.112-.528-.992-1.851-1.954-2.939-.962-1.087-1.75-2.53-1.75-3.205s-.416-1.378-.925-1.562c-.509-.183-1.071-.973-1.25-1.756-.179-.782-1.769-2.994-3.533-4.914s-2.968-3.878-2.676-4.351c.293-.474-.063-.738-.792-.587-.728.151-1.212-.287-1.074-.975s-.313-1.137-1-1c-.688.138-1.126-.346-.975-1.074s-.097-1.095-.551-.814c-.454.28-2.86-1.374-5.347-3.676s-5.16-4.335-5.94-4.516-1.647-.635-1.928-1.006c-.989-1.313-13.314-7.164-15.09-7.164-.991 0-2.079-.45-2.419-1s-1.626-1-2.859-1-2.71-.469-3.284-1.043c-1.233-1.233-33.523-.623-48.857.923-19.038 1.92-32.046 3.16-42.5 4.052-5.775.493-12.374 1.214-14.664 1.602l-4.165.706-.585 5.38c-.322 2.959-.851 7.967-1.174 11.13s-.998 6.178-1.5 6.7-.912 2.858-.912 5.191-.45 4.519-1 4.859-1 1.941-1 3.559-.45 2.941-1 2.941-.888.492-.75 1.093c.137.601-.65 1.614-1.75 2.25s-2.225 1.384-2.5 1.662c-2.66 2.689-9.629 2.995-68.199 2.995-64.362 0-64.026.023-69.551-4.779-1.238-1.076-2.25-2.69-2.25-3.588s-.45-1.633-1-1.633-1-2.25-1-5-.408-5-.907-5c-.867 0-1.462-3.909-2.703-17.75-.308-3.437-.972-6.25-1.475-6.25s-.915-.857-.915-1.903c0-2.086-.255-2.135-21.5-4.108-6.05-.561-15.5-1.463-21-2.003s-13.6-1.255-18-1.589-8.48-.997-9.066-1.472c-1.412-1.145-38.284-.977-38.998.178m113.487 4.499c-1.099 1.331-1.138 1.819-.173 2.144.812.273 1.25 2.495 1.25 6.337 0 3.254.408 5.917.907 5.917.852 0 1.141 1.753 2.671 16.25.334 3.163 1.015 5.75 1.515 5.75.499 0 .907.822.907 1.826s1.042 2.804 2.314 4l2.315 2.174h128.462l2.209-2.25c1.216-1.237 2.365-3.825 2.555-5.75s.75-4.258 1.245-5.184.9-3.739.9-6.25.366-4.566.813-4.566.922-2.101 1.055-4.668.667-5.463 1.187-6.434.945-3.858.945-6.415v-4.648l-9.75.61c-40.169 2.513-77.112 2.491-129.827-.076-8.701-.424-10.271-.256-11.5 1.233M346 571c0 .55-.9 1-2 1s-2 .477-2 1.059-.377.826-.837.541c-.461-.284-2.577 1.264-4.703 3.441-2.126 2.178-3.517 3.959-3.092 3.959.426 0 .064.711-.806 1.581-.869.869-1.344 1.963-1.055 2.431s.068 1.132-.491 1.478c-1.314.812-1.329 12.199-.016 13.01.55.34 1 1.278 1 2.085 0 2.359 8.689 10.412 11.484 10.643 1.384.114 2.516.56 2.516.99s71.55.782 159 .782c105.333 0 159-.338 159-1 0-.55 1.08-1 2.4-1 2.566 0 9.6-6.24 9.6-8.517 0-.724.478-1.476 1.062-1.67 1.407-.469 1.389-17.163-.019-17.632-.574-.191-1.043-1.21-1.043-2.264 0-1.055-.343-1.917-.763-1.917-.419 0-1.207-1.013-1.75-2.25s-2-2.694-3.237-3.237-2.25-1.331-2.25-1.75-.873-.763-1.941-.763-2.219-.45-2.559-1c-.408-.66-54.51-1-159.059-1C399.48 570 346 570.338 346 571m1.5 4.35c-1.65.63-4.094 2.134-5.432 3.344s-2.87 1.929-3.405 1.598-.673-.118-.308.473-.016 1.753-.846 2.583-1.509 2.666-1.509 4.081c0 1.414-.45 2.571-1 2.571-1.474 0-1.215 4.356.449 7.564.797 1.536 1.31 3.05 1.141 3.364-.619 1.149 5.981 6.582 8.41 6.924 1.375.194 3.175.687 4 1.097 2.495 1.238 308.983.524 312.75-.729 1.788-.594 3.25-.883 3.25-.642 0 1.328 6.345-5.503 7.635-8.22 1.518-3.201 1.693-12.363.255-13.367-.401-.281-.878-1.16-1.06-1.955-.672-2.94-7.214-8.036-10.316-8.036-.833 0-1.514-.444-1.514-.988 0-1.498-308.56-1.164-312.5.338m8 6.15c-4.859 1.215-6.722 2.331-5.957 3.569.316.512.098.931-.484.931-.628 0-1.059 2.444-1.059 6 0 3.333.444 6 1 6 .55 0 .887.492.75 1.093-.823 3.598 8.314 4.907 34.25 4.907 27.941 0 34-1.156 34-6.488 0-.896.45-1.352 1-1.012.617.381 1-1.343 1-4.5s-.383-4.881-1-4.5c-.55.34-1-.116-1-1.012 0-2.85-2.558-4.339-8.613-5.013-9.645-1.073-49.569-1.055-53.887.025m240.5.188c-3.448.682-6 3.184-6 5.884 0 1.244-.562 2.465-1.25 2.714-1 .362-1 .876 0 2.57.688 1.164 1.25 2.798 1.25 3.63 0 .833.45 1.514 1 1.514s.888.492.75 1.093c-.288 1.259 1.29 2.204 6.321 3.785 4.623 1.453 55.929 1.564 55.929.122 0-.55.695-1 1.545-1 6.15 0 8.764-11.811 3.874-17.5l-2.579-3-29.17-.153c-16.044-.084-30.295.07-31.67.341m-242.75 5.791c-1.678 1.929-1.59 7.994.136 9.427.981.814 9.949 1.125 30.674 1.064l29.288-.087 1.326-2.556c1.693-3.264 1.667-4.129-.183-5.979-.83-.83-1.269-1.898-.975-2.373 1.01-1.635-58.841-1.134-60.266.504m242 .017c-1.591 1.807-1.623 7.731-.05 9.304 1.757 1.757 59.462 1.71 61.121-.05 1.774-1.881 1.941-4.536.492-7.809L655.512 586l-29.506.038c-24.198.031-29.731.293-30.756 1.458m227 75.099c-1.788 1.402-3.25 2.288-3.25 1.969 0-.32-1.417.773-3.148 2.427-1.732 1.655-3.528 3.009-3.993 3.009s-2.008 1.013-3.432 2.25-2.674 2.025-2.781 1.75c-.106-.275-1.28.513-2.608 1.75s-3.005 2.25-3.727 2.25c-.721 0-1.311.374-1.311.831s-1.237 1.47-2.75 2.25-3.349 1.986-4.081 2.678c-.731.693-1.706 1.027-2.164.744-.459-.284-.985-.11-1.17.385-.184.496-1.91 1.775-3.835 2.842l-3.5 1.942v9.414c0 7.869.246 9.352 1.5 9.037.825-.208 2.043-.395 2.706-.417s.974-.414.691-.873c-.283-.458.187-.833 1.044-.833s1.559-.374 1.559-.831 1.231-1.47 2.736-2.25 3.642-2.19 4.75-3.132 2.239-1.621 2.514-1.508 2.467-1.705 4.871-4.037c2.403-2.333 4.77-4.242 5.259-4.242.488 0 2.301-1.35 4.027-3 1.727-1.65 3.774-3 4.55-3s1.133-.45.793-1-.078-1 .583-1c1.761 0 6.765-5.548 7.444-8.252.322-1.282.447-4.89.279-8.017l-.306-5.686zM184 667.953c0 6.631 1.507 12.47 2.983 11.558.379-.235 2.339 1.129 4.354 3.03s4.002 3.57 4.414 3.708.625.622.474 1.075c-.151.454.113.585.587.292.473-.292 2.407.912 4.297 2.676 1.891 1.764 4.664 3.847 6.164 4.627s2.727 1.793 2.727 2.25.59.831 1.311.831c.722 0 2.278.9 3.459 2 1.18 1.1 2.548 2 3.04 2 .491 0 2.198 1.237 3.792 2.75s4.153 2.897 5.687 3.077l2.788.326-.288-9.277-.289-9.277-5.5-2.862c-3.025-1.575-5.651-3.287-5.835-3.806s-.696-.721-1.137-.448-1.357-.175-2.037-.994-1.789-1.489-2.465-1.489-2.565-1.237-4.197-2.75-3.583-2.891-4.335-3.062c-.752-.172-2.149-1.214-3.105-2.316s-1.961-1.861-2.233-1.688c-.273.174-1.66-.697-3.083-1.934s-2.922-2.251-3.331-2.251c-.408-.001-2.049-1.126-3.648-2.5-4.208-3.619-4.594-3.245-4.594 4.454m633.196 21.714c-1.817 1.861-3.799 3.078-4.404 2.704-.663-.409-.817-.221-.387.474.392.635.238 1.155-.344 1.155-.581 0-2.717 1.566-4.746 3.48s-3.877 3.291-4.108 3.06-1.525.688-2.878 2.04c-1.352 1.352-2.949 2.155-3.548 1.785-.652-.404-.803-.21-.376.48.392.635.204 1.155-.417 1.155-.622 0-1.81.679-2.64 1.509s-1.992 1.211-2.583.846c-.637-.394-.783-.194-.36.49.416.674.098 1.155-.763 1.155-.811 0-1.625.416-1.809.925s-.997 1.071-1.809 1.25-2.086.892-2.831 1.584-1.702 1.044-2.127.782c-1.046-.647-3.066 3.969-3.066 7.006 0 1.349-.403 2.453-.895 2.453s-1.067 1.8-1.276 4c-.405 4.239.893 5.245 3.191 2.476.696-.838 1.464-1.325 1.707-1.082s2.315-1.321 4.602-3.476 4.49-3.918 4.893-3.918 3.277-2.465 6.387-5.477 6.057-5.229 6.548-4.926.769.026.618-.616.592-1.688 1.651-2.324c2.971-1.785 12.574-11.479 12.574-12.694 0-.595.52-.76 1.155-.368.684.423.884.277.49-.36-.365-.591-.097-1.673.596-2.404 1.506-1.592 2.178-5.472 1.057-6.102-.439-.246-2.285 1.076-4.102 2.938m-629.422-.417c.323 1.237 1.185 2.849 1.916 3.581s1.03 1.813.665 2.404c-.394.637-.194.783.49.36.635-.392 1.155-.229 1.155.362 0 1.209 14.541 16.04 15.734 16.048.421.003 3.587 2.703 7.036 6s6.598 5.997 7 6c.401.002 2.168 1.352 3.926 3 1.757 1.647 3.696 2.995 4.309 2.995.612 0 .893.357.623.792-.269.436.384.859 1.452.939 1.561.118 1.898-.431 1.719-2.792-.124-1.617-.579-2.939-1.012-2.939s-.787-1.715-.787-3.811c0-3.894-2.806-8.189-5.35-8.189-.7 0-2.145-.813-3.211-1.806-1.067-.993-2.389-1.91-2.939-2.037s-2.016-1.114-3.258-2.194-2.637-1.963-3.101-1.963c-.465 0-2.149-1.246-3.743-2.77-1.594-1.523-3.348-2.89-3.898-3.037s-2.016-1.15-3.258-2.23-2.73-1.963-3.309-1.963c-.578 0-.73-.52-.338-1.155.427-.69.276-.884-.376-.48-.599.37-2.223-.46-3.609-1.846-1.385-1.385-2.934-2.519-3.442-2.519s-1.483-.675-2.168-1.5c-1.821-2.195-2.899-1.831-2.226.75M234 699.892c0 9.455.099 9.911 2.25 10.351 1.238.253 39.375.415 84.75.359l82.5-.102.298-6.25c.179-3.766.742-6.25 1.416-6.25.616 0 .834-.285.485-.634-.348-.349.252-1.759 1.334-3.135s1.967-2.89 1.967-3.366c0-.48-38.926-.865-87.5-.865H234zm185.461-8.986c-.529.51-1.857 1.077-2.953 1.26-2.233.374-6.45 3.97-5.867 5.003.208.369-.233 1.28-.978 2.025-1.624 1.624-2.324 17.779-.811 18.715.543.335 1.136 1.27 1.318 2.077.399 1.774 1.684 3.102 4.605 4.764 3.606 2.051 177.818 1.8 179.877-.259.83-.83 1.934-1.247 2.453-.926.52.321.821-.012.67-.741-.151-.728.321-1.2 1.049-1.049.729.151 1.089-.106.802-.572-.288-.465.128-2.103.925-3.639 1.646-3.171 1.963-13.128.449-14.064-.55-.34-1-1.503-1-2.586 0-2.576-5.802-8.914-8.161-8.914-1.011 0-1.839-.44-1.839-.978 0-1.294-169.199-1.409-170.539-.116M600 690.571c0 .315.679 1.251 1.509 2.081s1.254 1.923.941 2.429c-.312.505-.091.919.491.919s1.059 1.35 1.059 3 .424 3 .943 3 1.08 1.909 1.25 4.242l.307 4.241 83.5.046c45.925.026 84.063-.131 84.75-.348 1.692-.535 1.737-17.294.05-18.981-1.245-1.245-174.8-1.869-174.8-.629m-176 15.974c0 8.985 2.164 13.455 6.514 13.455.882 0 1.326.45.986 1-.405.655 7.156 1 21.941 1 15.211 0 22.559-.345 22.559-1.059 0-.582.423-.797.94-.478 1.132.699 5.06-3.3 5.06-5.152 0-.721.45-1.311 1-1.311 1.616 0 1.237-12.906-.429-14.571-1.171-1.172-6.571-1.429-30-1.429H424zm102.667-7.878c-1.114 1.113-.789 16.527.333 15.833.55-.34 1 .116 1 1.012 0 1.866 1.584 3.66 4.705 5.33 2.881 1.542 45.295 1.634 45.295.099 0-.582.385-.821.855-.531.916.567 3.856-2.499 5.895-6.146 1.64-2.935 1.549-12.287-.142-14.514-1.21-1.593-3.833-1.75-29.302-1.75-15.385 0-28.273.3-28.639.667m-98.551 9.083c.439 9.662 1.944 10.25 26.248 10.25 15.953 0 19.61-.264 20.627-1.489.68-.819 1.646-1.235 2.147-.926s.815.193.696-.261c-.118-.453.131-2.286.555-4.074.423-1.788.473-4.6.111-6.25l-.659-3h-49.986zm102.003-.231c-.23 5.679.317 6.763 4.656 9.231 3.472 1.975 39.868 1.749 41.877-.259.83-.83 2.035-1.208 2.679-.84s.876.342.518-.058-.216-2.302.315-4.226c.532-1.924.676-4.818.322-6.432l-.645-2.935h-49.499zM434 708.934c0 2.399.435 3.066 2 3.066 1.1 0 2-.477 2-1.059s.488-.758 1.084-.389c.69.427.963-.188.75-1.691-.244-1.728-1.071-2.446-3.084-2.677-2.471-.285-2.75-.006-2.75 2.75m12-.375c0 1.407.412 2.305.915 1.994s1.143 0 1.423.691c.797 1.964 2.525-1.052 1.923-3.355-.776-2.967-4.261-2.42-4.261.67m11.638-1.059c-.873 2.275.348 4.5 2.469 4.5 1.437 0 1.893-.723 1.893-3 0-3.275-3.251-4.394-4.362-1.5m11.809-.585c.311.503.004 1.101-.682 1.33-.912.304-.798.864.423 2.085 2.69 2.69 4.812 2.104 4.812-1.33 0-2.552-.382-3-2.559-3-1.407 0-2.305.412-1.994.915M536 709c0 3.626 2.804 4.145 4.833.895.723-1.157.831-1.806.241-1.441-.591.365-1.074-.038-1.074-.895 0-.892-.855-1.559-2-1.559-1.556 0-2 .667-2 3m12 .073c0 4.049 3.344 3.758 3.816-.332.255-2.206-.087-2.741-1.75-2.741-1.64 0-2.066.634-2.066 3.073m10.667-2.406c-1.068 1.067-.768 4.514.333 3.833.55-.34 1-.141 1 .441s.702 1.059 1.559 1.059 1.281-.45.941-1-.141-1 .441-1 1.059-.9 1.059-2c0-1.979-3.75-2.917-5.333-1.333M570 709c0 2.333.444 3 2 3s2-.667 2-3-.444-3-2-3-2 .667-2 3m-333.849 10.94c.128 2.168.597 3.716 1.041 3.441.444-.274.808 1.103.808 3.06s.45 3.559 1 3.559 1 .707 1 1.571c0 4.672-14.474 4.431 264.179 4.394 275.762-.038 264.886.145 265.655-4.465.183-1.1.746-2.427 1.25-2.95.504-.522.916-1.958.916-3.191s.45-2.519 1-2.859 1-1.941 1-3.559V716H606.472l-1.702 3.928c-1.822 4.205-6.604 9.293-7.952 8.459-.45-.278-.818-.028-.818.554 0 .738-27.709 1.059-91.305 1.059h-91.304l-3.696-3.385c-2.032-1.862-3.695-4.112-3.695-5s-.45-1.615-1-1.615-1-.9-1-2c0-1.984-.667-2-84.041-2h-84.04z"/></svg>