<svg xmlns="http://www.w3.org/2000/svg" viewBox="0 0 1024 1024"><path fill="#00e5cc" d="M496 156.178c-19.074.959-26.261 1.841-28.092 3.448-.88.773-2.146 4.636-2.83 8.636-.681 3.981-1.489 8.138-1.795 9.238-.307 1.1-.918 5.825-1.359 10.5s-1.268 11.425-1.838 15a548 548 0 0 0-1.811 12.41c-.854 6.513-.771 6.453-13.025 9.525-10.335 2.59-12.856 3.315-14.486 4.162-.955.497-2.451.903-3.324.903s-4.914 1.117-8.98 2.482c-7.66 2.571-9.998 2.502-10.932-.324-.301-.912-1.893-3.181-3.538-5.044s-2.99-3.68-2.99-4.041-1.575-2.326-3.5-4.367-3.5-4.05-3.5-4.464-1.8-2.664-4-4.999c-2.2-2.336-4-4.586-4-5 0-.415-1.8-2.665-4-5s-4-4.608-4-5.05c0-2.047-6.937-8.193-9.249-8.193-2.639 0-37.745 17.433-38.986 19.359-.404.628-.741.817-.75.421-.013-.609-5.131 2.37-8.515 4.956-.55.42-2.238 1.403-3.75 2.183s-2.75 1.793-2.75 2.25-.59.831-1.311.831c-.722 0-2.297.918-3.5 2.039-1.204 1.121-2.189 1.793-2.189 1.493 0-.609-9.79 6.121-11.75 8.078-1.486 1.482-1.686 11.003-.25 11.89.55.34 1 1.491 1 2.559s.45 1.941 1 1.941 1 .697 1 1.548.9 3.411 2 5.688 2 4.527 2 5 .9 2.723 2 5 2 4.73 2 5.452.45 1.312 1 1.312 1 .697 1 1.548.9 3.411 2 5.688 2 4.527 2 5 .9 2.723 2 5 2 4.483 2 4.903-5.85 6.709-13 13.975c-7.15 7.267-13 13.609-13 14.094 0 .486-1.105 1.987-2.455 3.337-2.417 2.418-7.545 3.406-7.545 1.455 0-.55-.873-1-1.941-1s-2.219-.45-2.559-1-1.716-1-3.059-1-2.441-.352-2.441-.782-2.137-1.407-4.75-2.172-6.226-2.213-8.03-3.218c-1.805-1.005-4.167-1.828-5.25-1.828s-1.97-.352-1.97-.782-2.072-1.393-4.604-2.141-6.336-2.196-8.452-3.218c-2.116-1.023-4.544-1.859-5.396-1.859-.851 0-1.548-.45-1.548-1s-1.635-1-3.634-1c-3.408 0-8.361 3.725-8.365 6.292 0 .435-.901 1.758-2.001 2.938s-2 2.737-2 3.459c0 .721-.42 1.311-.933 1.311s-1.201.847-1.529 1.881c-.329 1.035-1.475 2.893-2.547 4.129-1.072 1.237-1.707 2.64-1.411 3.119s.132.871-.364.871-1.982 2.137-3.303 4.75-2.971 5.349-3.666 6.081c-.696.731-1.033 1.706-.75 2.164.284.459.119.985-.366 1.17-1.032.392-7.131 12.263-7.131 13.878 0 .605-.697 1.797-1.549 2.649s-1.808 2.845-2.125 4.429c-.317 1.583-.97 2.879-1.451 2.879s-.875.661-.875 1.47-.9 3.072-2 5.03c-2.781 4.951-2.556 8.289.75 11.132 1.512 1.301 3.112 2.366 3.554 2.367.443 0 2.243 1.349 4 2.996s3.759 2.998 4.446 3c.688.003 1.253.342 1.257.755s1.685 1.875 3.736 3.25 4.784 3.4 6.073 4.5 2.646 1.991 3.014 1.98c.369-.011 1.974 1.227 3.568 2.75 1.594 1.524 3.278 2.77 3.743 2.77s1.86.883 3.101 1.963c1.242 1.08 2.708 2.087 3.258 2.238s2.519 1.708 4.375 3.458c2.95 2.783 3.29 3.603 2.703 6.512-.37 1.831-.926 4.796-1.236 6.588-.31 1.793-.963 3.507-1.452 3.809-.49.303-.89 1.558-.89 2.791s-.417 2.669-.927 3.191-1.114 2.3-1.342 3.95-.683 3.675-1.013 4.5-.797 3.3-1.04 5.5c-.89 8.057-1.906 9.255-8.368 9.866-8.757.829-21.03 2.387-28.31 3.593-3.575.593-8.75 1.314-11.5 1.603-7.227.761-14.785 2.574-16.011 3.842-5.368 5.55-5.482 79.797-.131 85.083 1.51 1.491 8.806 3.325 15.642 3.931 5.797.514 15.838 1.814 27.5 3.561 3.85.577 8.8 1.29 11 1.584 7.597 1.015 8.252 1.325 8.824 4.177.304 1.518 1.055 4.785 1.669 7.26s1.459 6.3 1.877 8.5c.971 5.103 4.019 15.476 5.213 17.736 1.784 3.379.947 6.25-2.833 9.719-2.062 1.893-3.903 3.307-4.089 3.141s-1.318.532-2.514 1.551-3.853 2.978-5.904 4.353-3.732 2.837-3.736 3.25-.597.75-1.318.75-2.278.9-3.459 2c-1.18 1.1-2.548 2-3.04 2-.491 0-2.306 1.35-4.033 3-1.726 1.65-3.48 3.002-3.898 3.005-.417.002-2.197 1.352-3.955 3-1.757 1.647-3.609 2.995-4.113 2.995-1.846 0-6.191 5.338-6.191 7.606 0 1.283.9 3.936 2 5.894s2 4.006 2 4.55c0 1.62 10.073 21.421 11.082 21.785.512.185.699.711.415 1.17-.283.458.056 1.433.755 2.164s2.795 4.369 4.659 8.081c1.863 3.713 3.846 6.75 4.405 6.75s.756.262.436.581c-.489.489 2.148 5.207 4.984 8.919.42.55 1.403 2.237 2.183 3.75s1.793 2.75 2.25 2.75.831.608.831 1.352c0 .743 1.33 2.743 2.956 4.444 3.327 3.482 7.136 3.537 14.19.207 2.005-.946 5.717-2.332 8.25-3.08 2.532-.748 4.604-1.711 4.604-2.141s1.098-.782 2.441-.782 2.664-.361 2.937-.802 2.774-1.422 5.559-2.181c2.784-.758 5.063-1.747 5.063-2.198s1.098-.819 2.441-.819 2.719-.45 3.059-1 1.271-1 2.07-1 3.359-.864 5.691-1.919c7.747-3.508 8.195-3.483 11.334.632 1.578 2.069 8.612 9.483 15.631 16.475 12.293 12.245 12.723 12.815 11.704 15.497-1.102 2.898-2.249 5.572-5.814 13.554-1.164 2.607-2.116 5.114-2.116 5.573 0 .458-1.35 3.62-3 7.027s-3 6.624-3 7.15c0 .959-2.642 7.137-6.138 14.356-2.14 4.418-2.436 10.235-.612 12.024 1.824 1.79 10.16 7.405 10.773 7.257.288-.069 1.611.887 2.939 2.124s2.799 2.25 3.268 2.25c.47 0 1.82.9 3 2 1.181 1.1 2.737 2 3.459 2 .721 0 1.311.338 1.311.752 0 .413 2.138 1.869 4.75 3.235s5.349 3.057 6.081 3.757c.731.701 1.744 1.019 2.25.706.505-.312.919-.162.919.334s2.137 1.982 4.75 3.303 5.349 2.971 6.081 3.666c.731.696 1.706 1.033 2.164.75.459-.284.985-.117 1.17.369.657 1.735 16.981 9.194 20.402 9.323 3.63.136 9.433-4.097 9.433-6.882 0-.722.374-1.313.831-1.313s1.47-1.227 2.25-2.727 3.107-4.536 5.169-6.745c2.063-2.209 3.75-4.361 3.75-4.782 0-.42 1.35-2.177 3-3.903 1.65-1.727 3-3.522 3-3.989s1.8-2.761 4-5.097c2.2-2.335 4-4.607 4-5.047 0-.441 1.1-1.901 2.445-3.246s2.838-3.148 3.32-4.008c.774-1.384 1.771-1.262 8.698 1.064 4.304 1.444 8.66 2.689 9.681 2.766s1.856.494 1.856.927 1.155.787 2.566.787 3.358.424 4.327.943 2.851 1.092 4.184 1.275 2.923.647 3.535 1.031c.611.384 2.558.808 4.326.943s3.431.597 3.697 1.027 1.348.781 2.405.781c2.026 0 2.46 1.162 3.359 9 .283 2.475 1.026 7.65 1.65 11.5s1.507 9.7 1.962 13c.959 6.949 2.616 18.173 3.565 24.144.452 2.844 1.328 4.457 2.791 5.144 10.187 4.779 83.285 4.559 88.169-.265 1.559-1.54 3.463-8.75 3.47-13.139.003-2.136.419-5.459.925-7.384.505-1.925 1.158-5.525 1.45-8s.763-5.625 1.046-7c.539-2.611 1.367-10.268 2.223-20.554l.503-6.055 4.174-1.102c2.295-.606 6.873-1.667 10.173-2.357s6.427-1.632 6.95-2.093c.522-.461 1.673-.839 2.557-.839s6.306-1.542 12.05-3.426l10.443-3.426 3.541 3.676c1.947 2.022 4.632 5.251 5.967 7.176s3.003 4.095 3.709 4.821c.706.727 1.283 1.646 1.283 2.042s1.575 2.39 3.5 4.431 3.5 4.093 3.5 4.56 1.35 2.262 3 3.989 3 3.526 3 4c0 .473 1.35 2.273 3 4s3.014 3.48 3.032 3.898c.089 2.147 5.2 6.303 8.173 6.647 2.862.33 27.514-10.683 29.795-13.312.275-.317 3.425-2.104 7-3.972s6.725-3.679 7-4.024 2.638-1.742 5.25-3.103c2.613-1.36 4.75-2.812 4.75-3.225s.59-.752 1.311-.752c.722 0 2.184-.787 3.25-1.75 1.067-.962 3.176-2.389 4.689-3.169s2.75-1.793 2.75-2.25.587-.831 1.305-.831c3.33 0 8.695-6.679 8.695-10.826 0-2.231-.45-4.334-1-4.674s-1-1.491-1-2.559-.45-1.941-1-1.941-1-.9-1-2-.45-2-1-2-1-1.098-1-2.441-.45-2.719-1-3.059-1-1.491-1-2.559-.375-1.941-.833-1.941c-.459 0-.838-.562-.844-1.25-.005-.687-.98-3.247-2.166-5.688-1.187-2.441-2.157-5.028-2.157-5.75s-.45-1.312-1-1.312-1-.697-1-1.548-.9-3.411-2-5.688-2-4.73-2-5.452-.358-1.312-.796-1.312c-.437 0-.9-1.554-1.028-3.453-.216-3.213.778-4.469 14.306-18.08 7.996-8.044 14.311-14.993 14.034-15.442-.709-1.146 2.135-2.077 4.234-1.385.962.317 3.658 1.428 5.989 2.468s4.682 1.892 5.223 1.892c.542 0 2.909.862 5.261 1.916 9.779 4.38 11.233 4.921 11.987 4.455.434-.269.79-.111.79.352s2.138 1.454 4.75 2.204 5.2 1.704 5.75 2.119c2.49 1.881 16.405 5.793 18.605 5.231 2.315-.591 6.891-4.952 6.894-6.569 0-.435.901-1.758 2.001-2.938s2-2.737 2-3.459c0-.721.379-1.311.843-1.311s1.923-2.138 3.244-4.75 2.994-5.372 3.717-6.131c.724-.76 2.07-3.122 2.992-5.25s2.02-3.869 2.44-3.869.764-.862.764-1.917c0-1.054.395-2.066.878-2.25 1.182-.448 9.122-16.388 9.122-18.311 0-.837.45-1.522 1-1.522s1-.629 1-1.398c0-.77 1.35-3.965 3-7.102s3-6.729 3-7.983c0-2.029-5.358-8.517-7.034-8.517-.36 0-1.962-1.124-3.56-2.499s-3.468-2.499-4.156-2.5-1.253-.338-1.257-.751-1.685-1.875-3.736-3.25-4.708-3.334-5.904-4.353-2.327-1.695-2.514-1.502-1.868-1.111-3.737-2.897c-1.869-1.787-3.778-3.248-4.243-3.248-.464 0-1.932-.946-3.262-2.103-1.33-1.156-2.691-2.049-3.024-1.983s-2.174-1.448-4.09-3.364c-3.316-3.316-4.836-8.55-2.483-8.55.55 0 1-.953 1-2.119 0-1.165.938-5.103 2.084-8.75C799.61 579.91 800 578.428 800 576.255c0-1.156.518-4.348 1.152-7.092 1.306-5.659-1.325-4.718 19.848-7.103 5.225-.589 11.975-1.508 15-2.043s9.325-1.415 14-1.956c14.953-1.731 15.165-1.878 16.763-11.561 3.206-19.429 1.669-73.21-2.202-77.082-1.442-1.442-8.811-2.959-21.561-4.439-5.225-.607-12.2-1.509-15.5-2.004s-9.375-1.404-13.5-2.02c-11.922-1.78-11.724-1.705-12.324-4.695-.521-2.602-1.198-5.4-3.748-15.51-.59-2.337-1.314-5.713-1.61-7.5-.295-1.788-.938-3.25-1.427-3.25s-.898-1.012-.906-2.25-.708-4.243-1.556-6.679c-1.372-3.94-1.376-4.521-.035-5.272.829-.464 2.092-1.396 2.807-2.072s2.983-2.354 5.042-3.728 3.746-2.836 3.75-3.249.615-.75 1.359-.75c.743 0 2.663-1.238 4.267-2.75 1.603-1.512 4.145-3.389 5.648-4.169s2.733-1.793 2.733-2.25.608-.831 1.352-.831c.743 0 2.764-1.35 4.491-3s3.48-3.001 3.898-3.001c.417-.001 2.066-1.126 3.665-2.5 1.598-1.375 3.2-2.499 3.56-2.499 1.524 0 7.034-6.398 7.034-8.167 0-1.061-.9-3.792-2-6.069s-2-4.73-2-5.452-.45-1.312-1-1.312-1.002-.788-1.004-1.75c-.004-2.098-11.816-25.606-13.106-26.085-.496-.185-.671-.711-.387-1.17.283-.458-.058-1.433-.759-2.164-.7-.732-2.391-3.468-3.757-6.081s-2.822-4.75-3.235-4.75c-.414 0-.752-.59-.752-1.311 0-.722-.788-2.184-1.75-3.25-.962-1.067-2.389-3.177-3.169-4.689s-1.793-2.75-2.25-2.75-.832-.562-.832-1.25c-.003-2.965-4.694-6.75-8.365-6.75-1.999 0-3.634.375-3.634.833 0 .459-.562.838-1.25.844-.687.005-3.247.98-5.688 2.166-2.441 1.187-4.825 2.157-5.298 2.157s-2.723.9-5 2-4.527 2-5 2-2.723.9-5 2-4.527 2-5 2-2.723.9-5 2-4.527 2-5 2-2.723.9-5 2c-5.862 2.832-10.764 2.022-10.764-1.779 0-.507-6.3-7.262-14-15.01-13.214-13.296-15.376-16.242-13-17.711.55-.34 1-1.716 1-3.059s.45-2.441 1-2.441 1-.59 1-1.312.9-3.175 2-5.452 2-4.597 2-5.157.872-2.571 1.938-4.468 2.078-4.274 2.25-5.28c.171-1.007.879-2.43 1.571-3.162.693-.731 1.004-1.744.691-2.25-.312-.505-.091-.919.491-.919s1.059-.59 1.059-1.312.9-3.175 2-5.452 2-4.746 2-5.488c0-.741.49-1.838 1.089-2.437 2.432-2.432 1.421-10.14-1.681-12.807-1.599-1.376-3.47-2.502-4.158-2.503-.687 0-1.25-.375-1.25-.832s-1.237-1.47-2.75-2.25-3.622-2.206-4.689-3.169c-1.066-.963-2.324-1.75-2.795-1.75s-1.991-1.134-3.376-2.519c-1.386-1.386-2.94-2.259-3.455-1.941-.514.318-.935.178-.935-.312s-1.237-1.529-2.75-2.309-3.349-1.986-4.081-2.678c-.731-.693-1.744-1.004-2.25-.691-.505.312-.919.159-.919-.341 0-.501-3.038-2.438-6.75-4.305s-6.9-3.735-7.083-4.15c-.184-.415-1.196-.754-2.25-.754s-1.917-.45-1.917-1-.9-1-2-1-2-.45-2-1-.9-1-2-1-2-.45-2-1-.873-1-1.941-1-2.219-.45-2.559-1-1.716-1-3.059-1-2.441-.45-2.441-1-1.04-1-2.311-1c-2.527 0-5.73 2.578-8.441 6.795-.957 1.488-2.949 4.055-4.427 5.705s-2.612 3.225-2.521 3.5-1.738 2.523-4.066 4.995c-2.329 2.472-4.234 4.833-4.234 5.247s-1.566 2.414-3.48 4.443-3.3 3.868-3.082 4.087c.219.219-1.365 2.27-3.52 4.557s-3.918 4.56-3.918 5.048c0 2.417-4.405 4.638-7.919 3.992-1.969-.361-3.806-.949-4.081-1.305-.643-.833-8.583-3.397-10.52-3.397-.814 0-1.48-.375-1.48-.834s-1.058-.833-2.351-.833-3.655-.398-5.25-.883c-3.184-.971-8.393-2.363-15.56-4.159-4.592-1.151-4.668-1.236-5.174-5.813-.666-6.016-2.282-18.541-3.696-28.645-.615-4.4-1.493-10.925-1.95-14.5-1.865-14.592-2.319-15.415-9.083-16.447-10.09-1.54-37.833-2.234-54.936-1.375m-1.156 13.041-16.657 1.022-.689 2.63c-.627 2.39-1.224 7.056-2.96 23.129-.327 3.025-1.014 7.075-1.527 9s-1.161 5.975-1.439 9c-1.669 18.146-2.098 19.15-8.872 20.776-10.831 2.6-13.873 3.224-15.728 3.224-1.099 0-2.781.406-3.736.903-1.957 1.017-8.846 3.101-11.457 3.466-.947.132-2.034.553-2.417.935-.382.383-1.469.696-2.414.696s-2.976.652-4.512 1.449-3.162 1.22-3.614.941c-.452-.28-.822-.141-.822.308 0 1.028-7.166 3.302-10.408 3.302-1.526 0-3.311-1.122-4.766-2.997-1.279-1.648-3.778-4.686-5.553-6.75s-3.237-4.083-3.25-4.485-2.045-2.843-4.517-5.423-4.296-4.888-4.054-5.13-.884-1.852-2.502-3.577c-1.617-1.726-2.943-3.468-2.945-3.87-.003-.403-2.027-2.843-4.499-5.423s-4.299-4.885-4.061-5.124-.643-1.51-1.96-2.827c-2.37-2.37-7.485-3.323-7.485-1.394 0 .55-.9 1-2 1s-2 .45-2 1-.9 1-2 1-2 .45-2 1-.9 1-2 1-2 .45-2 1-.9 1-2 1-2 .342-2 .761c0 .418-3.038 2.327-6.75 4.242s-6.975 3.744-7.25 4.064-2.512 1.674-4.972 3.008c-2.459 1.334-5.533 3.325-6.83 4.425s-2.435 1.793-2.528 1.539c-.094-.253-1.444.647-3 2-1.557 1.354-3.035 2.332-3.286 2.175-.64-.401-3.384 2.458-3.384 3.527 0 .486.9 2.746 2 5.023s2 4.836 2 5.688.45 1.548 1 1.548 1 .873 1 1.941.45 2.219 1 2.559 1 1.716 1 3.059.45 2.441 1 2.441 1 .59 1 1.312.9 3.175 2 5.452 2 4.836 2 5.688.45 1.548 1 1.548 1 .59 1 1.312.9 3.175 2 5.452 2 4.836 2 5.688.34 1.548.755 1.548c1.521 0 3.129 7.348 2.05 9.365-1.606 3.001-10.803 11.622-16.647 15.606-1.187.809-2.164 1.934-2.171 2.5s-3.045 4.194-6.75 8.061-7.968 8.667-9.472 10.664c-5.884 7.812-9.286 8.498-18.965 3.821-2.297-1.109-4.563-2.017-5.036-2.017s-2.723-.9-5-2-4.73-2-5.452-2-1.312-.375-1.312-.833c0-.459-.562-.876-1.25-.927-1.322-.098-8.223-2.531-13.25-4.67-17.008-7.237-16.826-7.197-18.494-4.082-.739 1.382-1.663 2.512-2.054 2.512s-1.269 1.35-1.952 3-1.638 3-2.121 3-.879.59-.879 1.311c0 .722-.788 2.202-1.75 3.289-.963 1.088-1.899 2.631-2.08 3.43-.182.798-.657 1.68-1.056 1.961-1.092.766-15.126 29.317-15.12 30.759.004.688-.444 1.25-.994 1.25-1.535 0-1.186 4.956.464 6.607.806.805 1.67 1.336 1.92 1.179.251-.157 1.62.726 3.043 1.964s2.922 2.251 3.331 2.251c.408.001 2.049 1.126 3.648 2.5 1.598 1.375 3.177 2.499 3.51 2.499s1.725 1.012 3.094 2.25c1.37 1.238 4.174 3.375 6.233 4.75s3.746 2.837 3.75 3.25.57.752 1.257.755c.688.002 2.688 1.352 4.446 3s3.598 2.995 4.091 2.995c1.619 0 10.213 8.766 10.213 10.417 0 2.589-2.41 9.583-3.302 9.583-.449 0-.588.37-.308.822s-.144 2.078-.941 3.614-1.449 3.615-1.449 4.619c0 1.005-.4 2.074-.89 2.377-.835.516-1.19 1.988-2.729 11.318-.34 2.063-.931 4.2-1.313 4.75-.383.55-.821 2.767-.974 4.926s-.686 5.002-1.186 6.315-.908 3.43-.908 4.703c0 3.626-5.982 5.19-29 7.583-5.775.6-11.85 1.315-13.5 1.587-1.65.273-6.15.885-10 1.36-11.513 1.421-11.132 1.11-12.07 9.86-1.017 9.493-1.032 38.022-.023 48.339.875 8.961.433 8.624 13.093 9.985 8.808.948 14.886 1.747 29 3.815 3.85.564 9.7 1.302 13 1.641 7.075.725 9.108 2.212 9.85 7.202 1.423 9.563 4.7 23.962 7.497 32.934.557 1.787.707 3.257.333 3.265s-.12.371.565.806 1.346 2.003 1.468 3.485c.123 1.482.477 2.694.787 2.694s1.178 2.08 1.928 4.623l1.365 4.622-3.396 3.164c-1.869 1.74-4.972 4.26-6.897 5.6s-4.372 3.236-5.439 4.214c-1.066.977-2.528 1.777-3.25 1.777-.721 0-1.314.337-1.318.75s-1.685 1.875-3.736 3.25-4.708 3.334-5.904 4.353-2.552 1.91-3.014 1.98-2.143 1.374-3.737 2.897c-1.594 1.524-3.286 2.77-3.759 2.77-.474 0-2.274 1.35-4 3-1.727 1.65-3.748 3-4.491 3-.744 0-1.355 1.013-1.358 2.25-.006 2.289 11.844 26.974 13.241 27.583.421.184.765 1.003.765 1.822 0 .818.679 2.167 1.509 2.997s1.254 1.923.941 2.429c-.312.505-.162.919.334.919s1.979 2.138 3.295 4.75c1.317 2.612 2.647 4.975 2.956 5.25.308.275 1.761 2.525 3.228 5 4.725 7.972 3.886 7.562 10.392 5.075 3.215-1.229 6.626-2.649 7.581-3.155s2.333-.92 3.063-.92c.729 0 3.188-.9 5.465-2s4.746-2 5.488-2c.741 0 1.776-.398 2.298-.884.523-.485 3.875-1.871 7.45-3.078 3.575-1.208 7.832-2.803 9.46-3.546 1.627-.743 3.315-1.131 3.75-.863.434.269.79.012.79-.57s.873-1.059 1.941-1.059 2.219-.45 2.559-1c1.33-2.151 6.408-1.071 8.227 1.75.975 1.513 4.698 5.82 8.273 9.573s6.679 7.327 6.898 7.943c.508 1.431 4.377 5.316 5.812 5.836.604.219 4.966 4.095 9.694 8.614 7.623 7.287 8.596 8.617 8.596 11.75 0 1.944-.45 3.534-1 3.534s-1 .9-1 2-.45 2-1 2-1 1.098-1 2.441-.45 2.719-1 3.059-1 1.491-1 2.559-.477 1.941-1.059 1.941-.829.372-.548.827-.593 3.005-1.941 5.669-2.452 5.442-2.452 6.173c0 .732-.45 1.331-1 1.331s-1 .697-1 1.548-.9 3.411-2 5.688-2 4.51-2 4.963c0 .452-.864 2.73-1.919 5.062-3.738 8.255-3.645 9.178 1.169 11.66 1.512.779 2.75 1.791 2.75 2.248s.59.831 1.311.831c.722 0 2.184.792 3.25 1.76 1.067.968 4.076 2.88 6.689 4.248s4.75 2.827 4.75 3.24.9.752 2 .752 2 .45 2 1 .59 1 1.311 1c.722 0 2.278.9 3.459 2 1.18 1.1 2.803 2 3.605 2s1.608.352 1.792.783c.183.43 4.706 2.94 10.05 5.578 9.53 4.703 13.783 5.388 13.783 2.22 0-.706 1.35-2.697 3-4.424 1.65-1.726 3-3.526 3-4 0-.473 1.35-2.273 3-4s3-3.483 3-3.903c0-.421 1.8-2.676 4-5.011s4-4.629 4-5.097c0-.467 1.352-2.264 3.005-3.993s3.032-3.484 3.066-3.899c.035-.415 1.329-2.145 2.876-3.845s3.33-4.058 3.962-5.239c1.563-2.921 5.438-3.699 10.43-2.093 2.289.737 4.386 1.599 4.661 1.916.486.56 8.805 3.303 20 6.594 6.308 1.855 11.576 3.154 18 4.438l7.757 1.552c3.868.774 5.697 4.137 6.759 12.423.387 3.025 1.12 8.2 1.629 11.5a1222 1222 0 0 1 3.735 26.25c.485 3.712 1.208 8.371 1.607 10.352l.727 3.602 18.458.963c12.107.631 23.74.617 33.806-.042l15.348-1.004.563-2.815c.31-1.549.669-3.151.798-3.561.382-1.207 1.7-10.141 2.767-18.745.545-4.4 1.472-11.6 2.059-16s1.317-10.25 1.621-13c.713-6.455 2.462-9.099 6.559-9.916 1.819-.363 5.557-1.116 8.307-1.673s6.8-1.261 9-1.564 4.427-.956 4.95-1.449c.522-.494 1.958-.898 3.191-.898s2.519-.45 2.859-1 1.498-1 2.573-1 2.736-.406 3.691-.903c.955-.496 3.761-1.474 6.236-2.173s4.927-1.644 5.45-2.098c.522-.454 1.985-.826 3.25-.826s2.3-.45 2.3-1c0-1.761 6.594-1.106 8.345.829.91 1.006 1.655 2.135 1.655 2.509s1.35 2.093 3 3.819c1.65 1.727 3 3.522 3 3.989s1.566 2.51 3.48 4.539 3.301 3.868 3.082 4.087 1.131 2.018 3 4c1.869 1.981 3.219 3.781 3 4s1.131 2.018 3 4c1.869 1.981 3.218 3.781 3 4-.219.219 1.365 2.27 3.52 4.557s3.918 4.532 3.918 4.987.669 1.496 1.486 2.313c1.315 1.315 2.439.994 9.75-2.786 4.545-2.349 8.414-4.625 8.597-5.057.184-.432 1.003-.786 1.822-.786.818 0 2.167-.679 2.997-1.509s1.923-1.254 2.429-.941c.505.312.919.203.919-.243s2.138-1.928 4.75-3.294 5.349-3.057 6.081-3.757c.731-.701 1.744-1.019 2.25-.706.505.312.919.168.919-.322s1.237-1.529 2.75-2.309 3.2-1.763 3.75-2.183c2.843-2.172 8.5-5.61 8.5-5.165 0 .28 1.224-.625 2.719-2.011 2.139-1.983 2.459-2.782 1.5-3.741-.67-.67-1.219-2.254-1.219-3.519s-.45-2.3-1-2.3-1-.9-1-2-.45-2-1-2-1-.59-1-1.312-.9-3.175-2-5.452-2-4.836-2-5.688-.45-1.548-1-1.548-1-.59-1-1.312-.9-3.175-2-5.452-2-4.51-2-4.963-1.336-3.512-2.969-6.798-2.982-6.736-3-7.666-.481-1.969-1.031-2.309c-2.798-1.73-.924-6.447 4.744-11.937 3.159-3.059 6.092-5.563 6.518-5.563.998 0 13.733-12.715 13.754-13.731.008-.423 3.793-4.706 8.411-9.519 7.955-8.292 11.456-10.367 13.073-7.75.34.55 1.212 1 1.937 1s3.061.754 5.191 1.676 4.762 1.835 5.851 2.029c1.088.194 2.415.789 2.95 1.324.534.534 1.781.971 2.771.971s1.8.45 1.8 1 1.098 1 2.441 1 2.719.45 3.059 1 1.69 1 3 1 2.66.45 3 1 1.491 1 2.559 1 1.941.477 1.941 1.059.37.831.822.551 2.078.144 3.614.941 3.416 1.449 4.178 1.449 1.386.45 1.386 1 1.098 1 2.441 1 2.719.45 3.059 1c1.793 2.9 4.772.779 8.425-6 1.334-2.475 2.695-4.725 3.025-5 .329-.275 1.712-2.638 3.073-5.25s2.812-4.75 3.225-4.75.752-.862.752-1.917c0-1.054.346-2.066.769-2.25 1.069-.463 13.231-24.797 13.231-26.472 0-.748.45-1.361 1-1.361s1-1.35 1-3c0-1.854-.516-3-1.352-3-.743 0-2.764-1.35-4.491-3s-3.526-3-4-3c-.473 0-2.172-1.237-3.776-2.75s-4.145-3.389-5.648-4.169-2.733-1.793-2.733-2.25-.562-.841-1.25-.854-2.987-1.588-5.11-3.5-4.149-3.484-4.5-3.493c-.352-.009-2.163-1.359-4.026-3s-3.68-2.984-4.041-2.984c-1.879 0-8.073-7.249-8.073-9.448 0-2.42 6.348-23.418 8.098-26.788.496-.955.902-2.949.902-4.429s.432-4.075.96-5.764c.527-1.689 1.511-6.527 2.186-10.752 1.544-9.663 1.899-9.835 25.354-12.321 7.592-.805 18.64-2.247 22-2.872 1.65-.307 5.25-.781 8-1.053 9.109-.902 9.192-.972 10.014-8.411 1.069-9.678 1.114-31.873.092-45.305l-.887-11.643-5.609-1.064c-3.086-.585-8.31-1.351-11.61-1.702s-8.7-1.058-12-1.571-9.15-1.34-13-1.838c-20.166-2.611-20.974-2.937-21.848-8.827-.751-5.062-2.316-12.886-3.545-17.712-.559-2.2-1.297-5.35-1.638-7s-.984-3.9-1.43-5-1.391-4.025-2.099-6.5-1.66-4.928-2.114-5.45-.826-1.985-.826-3.25-.45-2.3-1-2.3-1-1.35-1-3 .477-3 1.059-3 .781-.45.441-1 .084-1 .941-1 1.562-.337 1.566-.75 1.691-1.874 3.75-3.249 5.093-3.734 6.743-5.245 3.334-2.749 3.742-2.751c.409-.003 1.907-1.018 3.331-2.255 1.423-1.238 2.664-2.026 2.757-1.752.094.273 1.699-.964 3.568-2.75s3.786-3.248 4.259-3.248 2.274-1.35 4-3c1.727-1.65 3.748-3 4.491-3 .744 0 1.352-.374 1.352-.831s1.237-1.47 2.75-2.25c3.882-2.003 5.25-3.486 5.25-5.689 0-2.128-15.876-34.537-17.177-35.063-.452-.184-.823-1.196-.823-2.25s-.374-1.917-.831-1.917-1.453-1.238-2.214-2.75-3.148-5.331-5.304-8.485c-4.209-6.158-5.209-6.432-11.513-3.162-1.372.712-2.864 1.066-3.316.787-.452-.28-.822-.031-.822.551s-.873 1.059-1.941 1.059-2.219.45-2.559 1-1.407 1-2.371 1-3.616.9-5.893 2-4.836 2-5.688 2-1.548.45-1.548 1-.624 1-1.386 1-2.642.652-4.178 1.449-3.162 1.22-3.614.941c-.452-.28-.822-.031-.822.551s-.81 1.059-1.8 1.059-2.228.395-2.75.877c-2.496 2.306-12.766 5.025-14.847 3.931-2.301-1.209-6.875-6.274-6.608-7.318.092-.358-7.768-8.587-17.466-18.285l-17.633-17.633.655-4.036c.36-2.22 1.059-4.464 1.552-4.986.493-.523.897-1.557.897-2.298s.9-3.211 2-5.488 2-4.73 2-5.452.375-1.312.833-1.312c.459 0 .838-.562.844-1.25.005-.687.98-3.247 2.166-5.688 1.187-2.441 2.157-5.028 2.157-5.75s.45-1.312 1-1.312 1-.697 1-1.548.9-3.411 2-5.688 2-4.73 2-5.452.45-1.312 1-1.312 1-.9 1-2 .45-2 1-2c1.535 0 1.186-4.956-.464-6.607-.806-.806-1.67-1.336-1.92-1.179-.251.157-1.517-.614-2.814-1.714s-4.371-3.1-6.83-4.444c-2.46-1.345-5.067-3.032-5.793-3.75-.727-.718-1.708-1.306-2.179-1.306s-1.465-.562-2.209-1.25c-1.855-1.715-6.918-4.755-9.041-5.428-.962-.306-1.75-.953-1.75-1.439 0-.485-.9-.883-2-.883s-2-.45-2-1-.9-1-2-1-2.004-.338-2.008-.75c-.009-.898-4.852-3.25-6.691-3.25-.716 0-1.301-.45-1.301-1s-.9-1-2-1-2-.45-2-1c0-1.518-4.948-1.195-6.571.429-.786.785-1.429 1.8-1.429 2.255s-1.693 2.624-3.763 4.821-3.757 4.303-3.75 4.679-1.9 2.751-4.237 5.277-4.25 4.964-4.25 5.417c0 .454-1.35 2.238-3 3.965s-3 3.483-3 3.903c0 .421-1.8 2.676-4 5.011s-4 4.559-4 4.94c0 1.717-5.605 6.303-7.703 6.303-3.063 0-10.297-2.279-10.297-3.243 0-.417-1.098-.757-2.441-.757s-2.719-.45-3.059-1-1.69-1-3-1-2.629-.4-2.932-.89c-.302-.489-2.016-1.131-3.809-1.427-1.792-.296-5.059-1-7.259-1.565-5.004-1.284-12.218-2.982-15.5-3.649-8.844-1.795-11.919-2.966-12.835-4.888-1.135-2.381-2.545-11.486-5.28-34.081-3.65-30.153-2.37-27.113-11.728-27.862-16.224-1.298-27.253-1.404-43.313-.419m2.656 188.858c-5.5.407-12.025 1.268-14.5 1.913s-6.19 1.409-8.256 1.697-4.005.927-4.309 1.419-1.509.894-2.677.894c-2.468 0-13.809 3.816-15.208 5.116-.522.486-1.76.884-2.75.884s-1.8.45-1.8 1-.9 1-2 1-2 .45-2 1-.9 1-2 1-2 .45-2 1-.9 1-2 1-2 .45-2 1-.59 1-1.311 1c-.722 0-2.184.788-3.25 1.75-1.067.962-3.177 2.389-4.689 3.169s-2.75 1.793-2.75 2.25-.608.831-1.352.831c-.743 0-2.764 1.35-4.491 3s-3.497 3-3.935 3c-1.209 0-18.356 16.948-21.745 21.493-1.637 2.196-3.955 4.994-5.149 6.218-1.195 1.224-2.463 3.139-2.818 4.257s-.976 2.032-1.381 2.032c-.404 0-1.836 2.243-3.182 4.984s-2.784 4.992-3.197 5-.75.723-.75 1.587c0 .865-.679 2.251-1.509 3.081s-1.254 1.923-.941 2.429c.312.505.091.919-.491.919s-1.059.9-1.059 2-.45 2-1 2-1 .9-1 2-.45 2-1 2-1 .873-1 1.941-.45 2.219-1 2.559-1 1.69-1 3-.398 2.628-.885 2.929c-.486.3-1.134 1.79-1.438 3.309s-1.06 4.787-1.678 7.262c-4.251 17.016-5.452 31.736-4.109 50.37 1.301 18.053 2.019 23.456 3.216 24.195.492.304.894 1.48.894 2.613 0 2.09 4.036 14.906 4.983 15.822.284.275.667 1.4.851 2.5s.746 2.427 1.25 2.95c.504.522.916 1.76.916 2.75s.45 1.8 1 1.8 1 .9 1 2 .477 2 1.059 2 .803.414.491.919-.002 1.529.691 2.274c.692.745 1.405 2.019 1.584 2.831s.741 1.626 1.25 1.809.925.766.925 1.295c0 1.322 9.925 15.996 12.156 17.974.994.88 1.578 1.831 1.297 2.111-.642.642 21.345 22.787 22.625 22.787.517 0 2.353 1.35 4.079 3 1.727 1.65 3.748 3 4.491 3 .744 0 1.352.374 1.352.831s1.238 1.47 2.75 2.25 3.622 2.207 4.689 3.169c1.066.962 2.491 1.75 3.166 1.75.676 0 1.378.416 1.562.925.183.509.997 1.071 1.809 1.25s2.086.892 2.831 1.584 1.768 1.004 2.274.691c.505-.312.919-.091.919.491s.9 1.059 2 1.059 2 .45 2 1 .59 1 1.312 1 3.175.9 5.452 2 4.617 2 5.201 2 1.844.395 2.799.877c2.038 1.03 7.683 2.813 11.236 3.548 22.463 4.653 37.705 5.785 52.5 3.9 18.175-2.316 18.943-2.429 20.5-3.039a20 20 0 0 1 3-.873c2.904-.551 9.52-2.618 11.236-3.51.955-.497 2.616-.903 3.691-.903s2.233-.45 2.573-1 1.491-1 2.559-1 1.941-.45 1.941-1 .725-1 1.61-1c1.802 0 13.704-6.059 14.223-7.242.184-.417.886-.758 1.562-.758.675 0 2.204-.909 3.397-2.021s2.515-2.028 2.939-2.037 1.785-.899 3.027-1.979c1.241-1.08 2.637-1.963 3.101-1.963.465 0 2.149-1.246 3.743-2.77 1.594-1.523 3.253-2.761 3.686-2.75.984.025 21.712-20.501 21.712-21.5 0-.401 1.575-2.448 3.5-4.55s3.5-4.408 3.5-5.125c0-.718.374-1.305.831-1.305s1.47-1.237 2.25-2.75 2.207-3.622 3.169-4.689c.962-1.066 1.75-2.528 1.75-3.25 0-.721.45-1.311 1-1.311s1-.9 1-2 .45-2 1-2 1-.9 1-2 .45-2 1-2 1-.9 1-2 .45-2 1-2 1-.9 1-2 .352-2 .782-2 1.395-2.138 2.145-4.75 1.688-5.2 2.084-5.75 1.026-2.35 1.4-4 1.137-4.8 1.696-7c3.101-12.185 5.697-35.012 4.719-41.5-.373-2.475-.711-7.65-.752-11.5-.041-3.851-.782-10.151-1.647-14s-1.931-8.575-2.369-10.5c-1.222-5.364-6.119-19.381-7.146-20.45-.501-.523-.912-1.76-.912-2.75s-.45-1.8-1-1.8-1-.9-1-2-.45-2-1-2-1-.9-1-2-.477-2-1.059-2-.803-.414-.491-.919-.001-1.519-.697-2.25c-.695-.732-2.345-3.468-3.666-6.081s-2.75-4.75-3.177-4.75c-.426 0-1.031-.807-1.345-1.794-.313-.986-2.143-3.462-4.067-5.502s-3.498-4.128-3.498-4.64c0-1.171-20.977-22.064-22.152-22.064-.477 0-2.279-1.35-4.005-3-1.727-1.65-3.542-3-4.033-3s-1.86-.9-3.04-2c-1.181-1.1-2.737-2-3.459-2-.721 0-1.311-.379-1.311-.843s-2.138-1.926-4.75-3.25-4.9-2.744-5.083-3.157c-.184-.413-1.196-.75-2.25-.75s-1.917-.45-1.917-1-.9-1-2-1-2-.45-2-1-.873-1-1.941-1-2.219-.45-2.559-1-1.679-1-2.976-1-2.507-.356-2.691-.79c-.362-.859-8.924-3.867-15.333-5.387-18.979-4.5-31.185-5.363-53-3.746m1 12.944c-2.2.418-6.025 1.014-8.5 1.324s-6.525 1.039-9 1.618-5.973 1.335-7.774 1.68c-1.801.344-3.515 1.016-3.809 1.492s-1.543.865-2.776.865-2.668.378-3.191.84-2.525 1.409-4.45 2.105c-5.175 1.872-16.449 7.431-16.833 8.301-.184.415-.99.754-1.792.754s-2.425.9-3.605 2-2.737 2-3.459 2c-.721 0-1.314.337-1.318.75s-1.691 1.857-3.75 3.211c-4.616 3.035-28.188 26.123-28.22 27.641-.013.606-1.373 2.514-3.023 4.241s-3 3.508-3 3.959-.793 1.693-1.762 2.759c-2.736 3.01-11.874 22.151-14.294 29.939-1.196 3.85-2.573 7.781-3.059 8.736s-.885 3.066-.885 4.691-.365 3.18-.81 3.456-.914 2.506-1.041 4.958c-.127 2.451-.662 5.962-1.19 7.801-3.294 11.487 1.949 53.115 8.073 64.094.532.955.968 2.643.968 3.75s.45 2.014 1 2.014 1 .612 1 1.36c0 1.649 5.999 13.611 7.759 15.471.693.731 1.004 1.744.691 2.25-.312.505-.168.919.322.919s1.529 1.231 2.309 2.736 2.319 3.791 3.419 5.08 1.775 2.482 1.5 2.65c-.573.351 25.668 26.517 28.114 28.034 2.885 1.789 14.359 9.406 15.386 10.214 2.06 1.62 13.834 7.286 15.14 7.286.748 0 1.36.375 1.36.833 0 .459.563.876 1.25.929 1.212.092 12.202 3.683 16.25 5.31 3.597 1.446 20.771 3.697 34.74 4.555 9.546.586 16.491.04 28.26-2.222 6.814-1.309 8.198-1.634 10-2.349 1.1-.437 5.15-1.77 9-2.964 7.871-2.441 26.774-11.534 30.33-14.59 1.282-1.101 2.531-1.877 2.775-1.725.245.152 1.897-1.083 3.67-2.745 1.774-1.663 3.675-3.033 4.225-3.046 1.289-.031 25.5-24.459 25.5-25.729 0-.528 1.35-2.373 3-4.1s3-3.508 3-3.959.918-1.806 2.039-3.009c1.121-1.204 1.741-2.189 1.378-2.189s-.09-.689.609-1.531c1.859-2.241 7.974-14.634 7.974-16.162 0-.719.45-1.307 1-1.307s1-1.035 1-2.3.372-2.728.826-3.25c.454-.523 1.408-2.975 2.118-5.45.711-2.475 1.531-5.175 1.824-6s.684-2.4.869-3.5c.186-1.1.759-3.8 1.274-6 2.584-11.039 3.282-18.688 2.737-30-.666-13.852-2.785-29.463-4.614-34-.443-1.1-1.386-4.025-2.094-6.5s-1.66-4.928-2.114-5.45-.826-1.985-.826-3.25-.45-2.3-1-2.3-1-.612-1-1.36c0-1.288-5.628-13.008-7.27-15.14-1.438-1.866-8.73-13.565-8.73-14.005 0-.438-11.236-12.646-16.058-17.448-4.527-4.508-10.989-10.047-11.726-10.052-.394-.002-2.079-1.24-3.745-2.75s-3.627-2.874-4.357-3.031-1.987-.944-2.793-1.75c-.805-.805-1.85-1.464-2.321-1.464s-1.452-.562-2.179-1.25c-1.893-1.791-9.753-5.75-11.416-5.75-.773 0-1.405-.45-1.405-1s-.697-1-1.548-1-3.411-.9-5.688-2-4.929-2-5.893-2-2-.4-2.303-.89c-.302-.489-2.016-1.122-3.809-1.406-1.792-.285-5.059-1.032-7.259-1.66-10.569-3.017-36.026-4.728-45-3.023"/></svg>