<svg xmlns="http://www.w3.org/2000/svg" viewBox="0 0 1024 1024"><path fill="#00e5cc" d="M835.915 392.407c-.321.327-5.721 1.071-12 1.651-17.028 1.574-29.26 2.77-40.415 3.951-5.5.582-14.388 1.493-19.75 2.025s-14.138 1.406-19.5 1.945c-5.362.538-14.475 1.424-20.25 1.969s-15 1.47-20.5 2.055-14.388 1.499-19.75 2.031a13532 13532 0 0 0-38.75 3.894c-5.225.533-14.45 1.466-20.5 2.072s-15.05 1.509-20 2.007-14.175 1.395-20.5 1.993c-11.278 1.067-18.966 1.832-40 3.982-5.775.59-14.888 1.51-20.25 2.045a17046 17046 0 0 0-38.75 3.901 16605 16605 0 0 1-61 6.087c-5.775.565-14.887 1.468-20.25 2.006-5.363.539-14.25 1.429-19.75 1.979a17773 17773 0 0 0-39 3.928c-16.38 1.673-31.15 3.15-41 4.1-5.225.503-13.775 1.391-19 1.971s-14.225 1.496-20 2.035a6172 6172 0 0 0-40.75 3.945A3756 3756 0 0 1 204 455.94c-5.775.54-14.775 1.448-20 2.018-10.485 1.144-23.619 2.505-39.25 4.066-5.637.563-14.3 1.455-19.25 1.981-4.95.527-11.7 1.215-15 1.528-10.105.961-11.102 1.297-8.873 2.985 1.03.78 2.886 1.433 4.123 1.45 1.237.018 2.252.369 2.255.782s3.49 1.837 7.75 3.165 8.195 2.734 8.745 3.123 3.925 1.687 7.5 2.883 7.281 2.602 8.236 3.126 2.643.953 3.75.953 2.014.352 2.014.782 2.137 1.405 4.75 2.168c2.613.762 5.425 1.708 6.25 2.101 7.39 3.524 10.557 4.237 12.145 2.733 1.33-1.26 4.39-2.857 8.355-4.361 2.005-.761 6.379-1.34 25-3.31 17.851-1.888 28.832-3.105 37.5-4.153 4.675-.565 12.775-1.465 18-1.999a3398 3398 0 0 0 36.5-3.932 4231 4231 0 0 1 18.5-2.049 6498 6498 0 0 0 35.5-3.951c4.95-.562 13.05-1.46 18-1.996s12.825-1.458 17.5-2.048 12.775-1.49 18-2.001 13.55-1.382 18.5-1.938c4.95-.555 13.05-1.457 18-2.002 4.95-.546 12.825-1.43 17.5-1.963a6435 6435 0 0 1 37-4.117c9.087-.976 19.713-2.169 35-3.93 5.225-.602 13.775-1.554 19-2.115a5327 5327 0 0 0 36-3.995 2886 2886 0 0 1 17-1.888c12.78-1.374 26.502-2.927 36-4.076a2072 2072 0 0 1 17.25-1.994c4.813-.531 12.688-1.405 17.5-1.942 4.813-.537 13.025-1.439 18.25-2.004a4764 4764 0 0 0 18.5-2.044c4.95-.56 13.05-1.46 18-2 4.95-.541 13.05-1.443 18-2.005a8991 8991 0 0 1 35-3.922 3130 3130 0 0 0 35.5-4.09c4.675-.57 13-1.465 18.5-1.989 5.5-.525 14.05-1.417 19-1.983s13.05-1.471 18-2.011c22.741-2.484 26.269-2.898 30.329-3.557 5.074-.825 3.767-2.38-2.02-2.404-2.03-.008-3.94-.417-4.244-.909s-2.243-1.131-4.309-1.419-5.781-1.013-8.256-1.612a368 368 0 0 0-9-2.03 468 468 0 0 1-9-2c-13.523-3.176-25.907-4.839-27.085-3.638m80.823 20.189c-.328.327-4.79 1.016-9.917 1.53-9.176.921-17.566 1.833-35.321 3.841-4.95.559-13.275 1.474-18.5 2.033s-13.55 1.474-18.5 2.033c-18.197 2.058-26.213 2.942-35.5 3.916a3312 3312 0 0 0-37 4.097c-4.675.548-12.55 1.438-17.5 1.978-4.95.541-13.05 1.441-18 2-4.95.56-13.05 1.44-18 1.956-4.95.517-13.275 1.436-18.5 2.044-5.225.607-13.1 1.5-17.5 1.985-14.628 1.61-27.904 3.091-36.5 4.072-4.675.533-12.325 1.397-17 1.919s-12.325 1.386-17 1.919a6435 6435 0 0 1-37 4.117c-4.675.502-12.55 1.373-17.5 1.935a4231 4231 0 0 1-18.5 2.049c-16.944 1.832-41.298 4.567-53 5.952-13.923 1.647-37.736 4.281-55 6.084-8.991.938-15.329 1.634-35.75 3.926-4.812.54-12.913 1.44-18 2-27.746 3.054-39.658 4.407-53.25 6.049-4.675.565-12.55 1.455-17.5 1.979-4.95.523-13.05 1.405-18 1.961-4.95.555-13.05 1.449-18 1.987s-13.5 1.47-19 2.071-13.825 1.508-18.5 2.014c-4.675.507-12.775 1.396-18 1.976s-12.65 1.309-16.5 1.619-7.427.969-7.95 1.463c-.522.495-1.587.899-2.365.899s-2.905 1.626-4.725 3.614c-4.53 4.945-4.667 7.241-4.282 71.432l.322 53.547 2.828 2.827c3.562 3.56 8.64 3.371 38.172-1.42 3.3-.535 8.925-1.412 12.5-1.948s9.65-1.481 13.5-2.099c15.292-2.458 18.252-2.926 24.75-3.92 8.286-1.268 17.729-2.72 26-4 3.438-.531 9.4-1.414 13.25-1.961 6.847-.973 15.467-2.319 26.5-4.138 3.025-.499 8.65-1.378 12.5-1.954s9.813-1.482 13.25-2.013c3.437-.532 9.062-1.4 12.5-1.929a3199 3199 0 0 0 12.75-1.995c3.575-.568 9.425-1.47 13-2.006s9.425-1.435 13-2c3.575-.564 9.425-1.456 13-1.98a722 722 0 0 0 13-2.055 1158 1158 0 0 1 25-3.945c3.575-.525 9.425-1.45 13-2.057a512 512 0 0 1 13-2 499 499 0 0 0 13-2.006c3.575-.61 9.313-1.533 12.75-2.052 12.085-1.822 18.817-2.863 25.75-3.983 8.852-1.43 17.209-2.735 25.5-3.981 3.575-.538 9.2-1.421 12.5-1.964s8.925-1.42 12.5-1.949A750 750 0 0 0 596 566a512 512 0 0 1 13-2c3.575-.493 9.425-1.39 13-1.992 10.875-1.833 27.508-4.475 37.5-5.957 3.3-.49 9.15-1.353 13-1.919s9.925-1.524 13.5-2.13c7.754-1.313 16.138-2.64 25-3.958 12.912-1.92 19.616-2.977 26-4.099 10.734-1.887 37.442-6.017 48-7.422 2.475-.329 5.4-.83 6.5-1.113 1.1-.282 4.7-.921 8-1.418s8.925-1.397 12.5-2A535 535 0 0 1 825 530a516 516 0 0 0 13-1.998c7.754-1.313 16.138-2.64 25-3.958 3.575-.531 9.65-1.473 13.5-2.091s9.587-1.536 12.75-2.039 8.337-1.329 11.5-1.836 9.142-1.375 13.287-1.928c10.201-1.36 13.135-2.133 15.315-4.032 4.599-4.005 4.648-4.545 4.648-51.061 0-51.82.592-49.057-10.514-49.057-3.384 0-6.421.268-6.748.596m-3.973 3.973c-.525.525-4.089.97-27.765 3.467-4.675.493-12.325 1.377-17 1.964s-12.55 1.514-17.5 2.059c-19.989 2.202-25.363 2.827-33.5 3.896a908 908 0 0 1-17.5 2.087c-4.95.533-12.712 1.417-17.25 1.964l-16 1.927c-4.263.512-11.8 1.435-16.75 2.05a1244 1244 0 0 1-18.5 2.12c-5.225.552-12.875 1.414-17 1.915l-16 1.945a2733 2733 0 0 1-35 4.012c-4.675.502-12.1 1.408-16.5 2.013-8.58 1.18-19.855 2.53-33.5 4.012-4.675.508-12.437 1.39-17.25 1.962l-17.5 2.076c-4.812.572-12.575 1.456-17.25 1.967A1277 1277 0 0 0 544 460c-4.675.587-12.325 1.487-17 2s-12.325 1.397-17 1.964c-4.675.568-12.325 1.472-17 2.01a4470 4470 0 0 0-17 1.996 2717 2717 0 0 1-18 2.079c-5.225.584-13.325 1.498-18 2.032a6544 6544 0 0 1-17 1.911c-4.675.517-12.325 1.421-17 2.008a1277 1277 0 0 1-17 1.995c-8.437.921-18.135 2.082-33.5 4.008-7.379.925-13.249 1.594-35 3.988-4.4.485-12.275 1.391-17.5 2.015-5.225.623-13.325 1.544-18 2.046-12.069 1.295-25.279 2.806-34 3.888-15.489 1.922-26.775 3.238-35.5 4.141-30.04 3.107-30.394 3.182-34.378 7.293-4.507 4.65-4.911 10.051-4.508 60.126.406 50.307.455 50.941 4.174 54.233 2.569 2.273 3.214 2.37 12.212 1.852 5.225-.302 12.2-.973 15.5-1.492s9.262-1.427 13.25-2.018 10.512-1.564 14.5-2.161 10.175-1.477 13.75-1.956a755 755 0 0 0 13-1.881c3.575-.556 9.65-1.478 13.5-2.049s9.925-1.501 13.5-2.065 9.538-1.463 13.25-1.995c9.714-1.393 19.287-2.826 26.75-4.005 3.575-.565 9.537-1.463 13.25-1.995 9.714-1.393 19.287-2.826 26.75-4.005 3.575-.565 9.537-1.463 13.25-1.995 9.714-1.393 19.287-2.826 26.75-4.005 3.575-.565 9.537-1.463 13.25-1.995 9.714-1.393 19.287-2.826 26.75-4.005 3.575-.565 9.425-1.445 13-1.956s9.65-1.414 13.5-2.007 10.15-1.541 14-2.107 9.7-1.433 13-1.928 9.15-1.366 13-1.937 9.925-1.501 13.5-2.065 9.538-1.463 13.25-1.995c9.714-1.393 19.287-2.826 26.75-4.005a955 955 0 0 1 13-1.943 567 567 0 0 0 13-2.02c3.575-.607 9.538-1.53 13.25-2.052a1664 1664 0 0 0 26.75-3.985c3.575-.565 9.65-1.478 13.5-2.028 3.85-.551 9.813-1.437 13.25-1.968 3.438-.532 9.063-1.391 12.5-1.909a1019 1019 0 0 0 12.75-2.027c3.575-.596 9.875-1.526 14-2.067 4.125-.54 9.975-1.393 13-1.894 14.834-2.457 20.422-3.303 39.75-6.018A571 571 0 0 0 768 536c6.741-1.144 16.163-2.562 26.5-3.989 3.3-.455 9.15-1.336 13-1.958s9.925-1.566 13.5-2.097c3.575-.532 9.425-1.429 13-1.993s9.65-1.478 13.5-2.028c3.85-.551 9.813-1.437 13.25-1.968a7879 7879 0 0 1 12.5-1.922c3.438-.526 9.288-1.426 13-2l13-2.012c3.438-.531 8.275-1.222 10.75-1.535 9.779-1.236 15.543-2.97 18-5.417l2.5-2.49v-85.43l-2.424-2.58c-2.097-2.233-3.256-2.581-8.584-2.581-3.387 0-6.415.256-6.727.569m-.265 5.573c-4.4.381-12.05 1.21-17 1.843-9.948 1.272-19.171 2.357-33.5 3.939-5.225.577-12.875 1.532-17 2.121s-11.55 1.481-16.5 1.983c-4.95.501-13.05 1.389-18 1.974-16.54 1.954-35.581 4.18-51 5.962a3861 3861 0 0 0-33.75 4.065c-4.538.566-12.3 1.464-17.25 1.995s-12.825 1.453-17.5 2.047a1482 1482 0 0 1-33.5 3.895c-9.037.941-19.696 2.16-35.5 4.06-4.675.562-12.325 1.462-17 2s-12.1 1.415-16.5 1.949c-4.4.535-11.937 1.434-16.75 1.998-4.812.565-12.687 1.494-17.5 2.065-8.722 1.036-17.681 2.043-34.75 3.91a1331 1331 0 0 0-17.5 2.053 2271 2271 0 0 1-33 3.918c-8.949.991-22.133 2.541-35.5 4.174-17.393 2.125-24.364 2.933-33 3.826-8.873.918-19.843 2.164-36.5 4.146-4.675.557-12.325 1.429-17 1.94A1277 1277 0 0 0 330 490c-4.675.587-12.325 1.489-17 2.003a3584 3584 0 0 0-35 4.028c-4.675.565-12.55 1.446-17.5 1.958-14.832 1.533-26.535 2.868-35 3.993-4.4.585-12.275 1.496-17.5 2.024-21.784 2.204-23.013 2.532-24.89 6.651-.766 1.683-1.11 17.918-1.11 52.436v49.998l2.576 2.576c2.79 2.789 1.879 2.774 17.424.292 3.575-.57 9.65-1.473 13.5-2.006s9.925-1.399 13.5-1.927 9.875-1.455 14-2.061a2257 2257 0 0 0 26.5-4.055c3.3-.525 8.925-1.376 12.5-1.891a5523 5523 0 0 0 27.5-4.054c6.127-.917 15.216-2.223 27.25-3.913A571 571 0 0 0 350 594a713 713 0 0 1 13-2.057c3.575-.524 9.425-1.416 13-1.98s9.425-1.448 13-1.963a1079 1079 0 0 0 13-1.97c3.575-.569 9.65-1.462 13.5-1.986a924 924 0 0 0 14-2.037c3.85-.596 9.925-1.494 13.5-1.994s9.425-1.406 13-2.013a531 531 0 0 1 13-2.006c3.575-.496 9.2-1.386 12.5-1.977s8.25-1.293 11-1.561c2.75-.267 7.25-.919 10-1.449 5.187-.999 8.51-1.503 19.5-2.954a558 558 0 0 0 13.5-1.995c3.85-.624 9.925-1.554 13.5-2.065s9.425-1.391 13-1.956c3.575-.564 9.425-1.456 13-1.98 3.575-.525 9.425-1.45 13-2.057s9.538-1.53 13.25-2.052c13.182-1.852 20.333-2.897 26.75-3.911a1879 1879 0 0 1 26.75-3.998c3.712-.529 9.9-1.468 13.75-2.086 9.717-1.562 17.009-2.635 23.75-3.497 3.163-.405 5.75-1.059 5.75-1.455 0-.395 3.712-1.022 8.25-1.391 4.538-.37 10.95-1.075 14.25-1.567a3318 3318 0 0 0 27-4.145c3.3-.524 9.15-1.358 13-1.853s9.925-1.403 13.5-2.017c13.878-2.383 29.752-4.855 38.5-5.996 7.165-.935 16.359-2.332 27-4.104a1100 1100 0 0 1 25.25-3.895c11.562-1.648 20.296-2.982 26.75-4.086 8.486-1.452 17.1-2.718 23.5-3.453 6.032-.694 10.226-2.319 9.407-3.645-.289-.467-.048-.849.534-.849 1.647 0 1.46-78.747-.191-80.377-2.021-1.996-3.806-2.212-12.25-1.481m-1.833 4.525c-.367.366-.667 1.998-.667 3.625 0 2.78.188 2.92 3.125 2.333 1.719-.344 3.519-.625 4-.625s.875-1.35.875-3c0-2.733-.296-3-3.333-3-1.834 0-3.634.3-4 .667M921 428.969c0 2.228.374 2.825 1.5 2.393.825-.317 1.5-1.653 1.5-2.969 0-1.46-.585-2.393-1.5-2.393-.996 0-1.5.997-1.5 2.969m-20.75-1.307c-.687.278-1.25 1.817-1.25 3.421 0 2.736.248 2.917 4 2.917 3.905 0 4-.083 4-3.5 0-3.171-.259-3.493-2.75-3.421-1.513.043-3.312.306-4 .583m-10 1.369c-4.142 1.665-2.442 5.969 2.357 5.969 3.211 0 3.393-.188 3.393-3.5 0-3.756-1.232-4.285-5.75-2.469M878 433.617c0 3.262.22 3.557 2.25 3.013 1.237-.331 2.813-.609 3.5-.616.719-.008 1.25-1.288 1.25-3.014 0-2.762-.278-3-3.5-3-3.355 0-3.5.15-3.5 3.617m-9.25-1.928c-.962.252-1.788.762-1.833 1.134-.651 5.285-.719 5.177 3.25 5.177 3.714 0 3.833-.109 3.833-3.5 0-3.594-.739-3.99-5.25-2.811m-11.5.973c-.687.278-1.25 2.098-1.25 4.046 0 3.434.096 3.523 3.125 2.917 1.719-.344 3.519-.625 4-.625s.875-1.575.875-3.5c0-3.171-.259-3.493-2.75-3.421-1.513.043-3.312.306-4 .583m-8.75 1.271c-2.515.483-3.051 1.106-3.316 3.857-.301 3.126-.183 3.252 2.5 2.662 4.966-1.092 5.316-1.346 5.316-3.862 0-3.015-.647-3.397-4.5-2.657m72.5 3.45c0 2.39.517 3.519 1.762 3.844 1.498.392 1.706-.112 1.395-3.383-.475-4.974-3.157-5.366-3.157-.461m-85.25-1.694c-1.174.307-1.75 1.441-1.75 3.445 0 2.84.184 2.971 3.75 2.676 3.424-.283 3.777-.593 4.063-3.56.326-3.38-.917-3.905-6.063-2.561m75.5-.027c-.687.278-1.25 1.844-1.25 3.482 0 2.828.187 2.961 3.75 2.666 3.424-.283 3.777-.593 4.063-3.56.288-2.986.085-3.244-2.5-3.171-1.547.043-3.375.306-4.063.583m-86.5 1.027c-1.237.324-1.75 1.462-1.75 3.884 0 3.614.959 4.081 5.75 2.797 1.771-.475 2.25-1.323 2.25-3.987 0-3.5-1.194-4.015-6.25-2.694m76.5.017c-1.686.324-2.25 1.126-2.25 3.197 0 3.582.27 3.781 4.469 3.29 3.266-.381 3.531-.666 3.531-3.802 0-3.534-.392-3.717-5.75-2.685M812 441.5c0 3.693.936 4.16 5.75 2.87 1.674-.449 2.25-1.342 2.25-3.487 0-2.697-.258-2.883-4-2.883-3.905 0-4 .083-4 3.5m76.737-2.75c-.209.413-.46 2.044-.558 3.625-.167 2.71.002 2.839 2.947 2.25 1.718-.344 3.518-.625 3.999-.625s.875-1.35.875-3c0-2.752-.284-3-3.441-3-1.893 0-3.612.337-3.822.75m-86.07.917c-.367.366-.667 1.97-.667 3.563 0 2.666.259 2.872 3.25 2.583 2.858-.275 3.288-.705 3.563-3.563.289-2.991.083-3.25-2.583-3.25-1.593 0-3.197.3-3.563.667m77.083.022c-1.21.317-1.75 1.452-1.75 3.684 0 3.097.139 3.209 3.5 2.817 3.231-.377 3.5-.669 3.5-3.799 0-3.476-.77-3.872-5.25-2.702m-87 1c-1.21.317-1.75 1.452-1.75 3.684 0 3.097.139 3.209 3.5 2.817 3.231-.377 3.5-.669 3.5-3.799 0-3.476-.77-3.872-5.25-2.702m75.5-.048c-1.8.757-1.635 7.359.185 7.359 3.795 0 6.139-1.809 6.021-4.645-.12-2.875-2.917-4.099-6.206-2.714m-85 1.148c-2.986.31-3.25.623-3.25 3.854 0 3.443.068 3.501 3.25 2.82 3.841-.823 3.325-.366 4.113-3.652.75-3.13.277-3.477-4.113-3.022m-10.75 1.196c-2.52.44-3.05 1.043-3.313 3.769-.293 3.03-.107 3.246 2.781 3.246 3.329 0 4.377-1.41 3.857-5.185-.279-2.02-.751-2.28-3.325-1.83m83.5 2.64c0 3.527.085 3.608 3.125 3 1.719-.344 3.519-.625 4-.625s.875-1.35.875-3c0-2.833-.222-3-4-3-3.931 0-4 .063-4 3.625m-8.75-1.919c-1.723.332-2.25 1.12-2.25 3.364 0 2.682.296 2.93 3.5 2.93 3.333 0 3.5-.167 3.5-3.5 0-3.555-.198-3.671-4.75-2.794m74.417-.039c-1.352 1.351-.696 6.333.833 6.333 1.048 0 1.5-1.056 1.5-3.5 0-3.309-.839-4.328-2.333-2.833m-163 1c-.367.366-.667 2.175-.667 4.019 0 3.136.177 3.313 2.75 2.75 4.946-1.084 5.25-1.34 5.25-4.405 0-2.769-.289-3.031-3.333-3.031-1.834 0-3.634.3-4 .667m77.583.029c-2.936.578-3.397 7.313-.5 7.29 4.781-.037 6.364-1.177 6.054-4.358-.313-3.199-1.369-3.757-5.554-2.932m75-.034c-.687.278-1.25 1.817-1.25 3.421 0 2.418.413 2.917 2.418 2.917 4.15 0 5.582-1.054 5.582-4.107 0-2.904-2.793-3.827-6.75-2.231m-162 1.034c-1.708.336-2.25 1.135-2.25 3.315 0 3.499.579 3.891 4.804 3.248 3.012-.457 3.278-.778 3-3.622-.313-3.209-1.366-3.766-5.554-2.941m-10.059 1.154c-1.27.357-2.282.987-2.25 1.4s.059 1.904.059 3.313c0 2.29.347 2.53 3.25 2.25 2.967-.286 3.277-.639 3.56-4.063.326-3.934-.069-4.182-4.619-2.9m84.476-.183c-.367.366-.667 1.968-.667 3.56 0 2.732.209 2.876 3.75 2.583 3.424-.283 3.777-.593 4.063-3.56.298-3.09.147-3.25-3.083-3.25-1.868 0-3.697.3-4.063.667M900 449.299c0 3.182.125 3.285 3.5 2.891 3.099-.362 3.5-.74 3.5-3.299 0-2.637-.307-2.891-3.5-2.891-3.293 0-3.5.195-3.5 3.299m-86.25-1.61c-1.164.304-1.75 1.438-1.75 3.384 0 2.748.244 2.927 4 2.927 3.905 0 4-.083 4-3.5 0-3.628-1.148-4.144-6.25-2.811m77 .027c-2.295.348-2.75.912-2.75 3.411 0 2.848.183 2.979 3.75 2.683 3.424-.283 3.777-.593 4.063-3.56.215-2.229-.099-3.203-1-3.1-.722.082-2.55.337-4.063.566m-164.083.951c-.367.366-.667 2.076-.667 3.799 0 2.991.158 3.114 3.5 2.724 3.231-.377 3.5-.669 3.5-3.799 0-3.057-.279-3.391-2.833-3.391-1.559 0-3.134.3-3.5.667m77.583.039c-2.524.486-3.461 7.307-1 7.28 4.214-.046 5.75-1.275 5.75-4.603 0-3.43-.214-3.551-4.75-2.677m75.5-.017c-2.092.547-2.556 7.32-.5 7.297 4.214-.046 5.75-1.275 5.75-4.603 0-3.468-.772-3.864-5.25-2.694m-162 1.027c-2.404.364-2.75.863-2.75 3.957 0 2.818.323 3.417 1.582 2.934.87-.334 2.445-.607 3.5-.607 1.525 0 1.918-.716 1.918-3.5 0-1.925-.337-3.433-.75-3.35s-1.987.337-3.5.566m-12 .973c-1.245.326-1.75 1.465-1.75 3.945 0 3.418.074 3.481 3.75 3.176 3.546-.293 3.767-.514 4.06-4.06.325-3.927-.722-4.456-6.06-3.061M791 453.5c0 2.784.393 3.5 1.918 3.5 3.64 0 5.082-1.165 5.082-4.107 0-2.64-.307-2.893-3.5-2.893-3.333 0-3.5.167-3.5 3.5m76 0c0 3.666.947 4.158 5.6 2.909 1.497-.402 2.124-1.403 2.183-3.486.078-2.749-.151-2.923-3.85-2.923-3.828 0-3.933.093-3.933 3.5m-84.75-1.794c-1.779.342-2.25 1.109-2.25 3.663 0 3.102.138 3.213 3.5 2.821 3.231-.377 3.5-.669 3.5-3.799 0-3.438-.213-3.559-4.75-2.685m76.5.018c-2.282.339-2.75.908-2.75 3.342 0 2.686.295 2.934 3.5 2.934 2.783 0 3.531-.41 3.65-2 .082-1.1.195-2.525.25-3.167.12-1.395-.972-1.655-4.65-1.109M693 456.117c0 3.781.183 4.067 2.25 3.513 1.237-.331 3.038-.609 4-.616 1.331-.011 1.75-.853 1.75-3.514 0-3.417-.095-3.5-4-3.5h-4zm78.75-3.393c-2.397.356-2.75.857-2.75 3.903 0 3.426.073 3.488 3.75 3.183 3.541-.293 3.75-.5 3.75-3.727 0-3.657-.477-3.994-4.75-3.359m76.5.089c-3 .29-3.25.588-3.25 3.875 0 3.469.083 3.545 3.177 2.927 3.996-.8 4.03-.839 3.644-4.269-.288-2.556-.652-2.814-3.571-2.533m-164.5.876c-1.25.327-1.75 1.467-1.75 3.991 0 2.812.323 3.41 1.582 2.927.87-.334 2.67-.607 4-.607 2.097 0 2.418-.465 2.418-3.5 0-3.628-1.148-4.144-6.25-2.811m229.5.034c-2.837.353-3.25.777-3.25 3.34 0 2.76.241 2.937 4 2.937 3.905 0 4-.083 4-3.5 0-1.925-.337-3.428-.75-3.34s-2.212.342-4 .563m8.389-.029c-1.287 1.288-.636 5.306.861 5.306.924 0 1.5-.938 1.5-2.441 0-2.509-1.227-3.999-2.361-2.865m-247.389 1.012c-3.07.591-3.375 7.294-.332 7.294 3.825 0 5.082-1.14 5.082-4.607 0-3.441-.213-3.561-4.75-2.687m83.75 3.401c0 3.334.298 3.993 1.582 3.5.87-.334 2.67-.607 4-.607 2.097 0 2.418-.465 2.418-3.5 0-3.417-.095-3.5-4-3.5h-4zm76 0c0 3.334.298 3.993 1.582 3.5.87-.334 2.67-.607 4-.607 2.097 0 2.418-.465 2.418-3.5 0-3.417-.095-3.5-4-3.5h-4zm-85.25-2.418c-1.154.302-1.75 1.435-1.75 3.325 0 3.488.583 3.887 4.75 3.253 2.93-.445 3.25-.828 3.25-3.88 0-3.505-1.193-4.019-6.25-2.698m76.5.017c-1.83.352-2.25 1.096-2.25 3.989 0 3.448.094 3.536 3.125 2.93 1.719-.344 3.519-.625 4-.625s.875-1.575.875-3.5c0-3.654-.365-3.831-5.75-2.794m75.5-.017c-1.174.307-1.75 1.441-1.75 3.445 0 2.84.184 2.971 3.75 2.676 3.424-.283 3.777-.593 4.063-3.56.326-3.38-.917-3.905-6.063-2.561m-240.142 1.89c-1.393 3.63.299 6.03 3.948 5.604 3.169-.37 3.444-.673 3.444-3.792 0-3.188-.203-3.391-3.393-3.391-2.169 0-3.612.57-3.999 1.579m79.142-.863c-2.385.362-2.75.872-2.75 3.85 0 3.544.621 3.91 4.75 2.804 1.771-.475 2.25-1.323 2.25-3.987 0-1.86-.337-3.316-.75-3.233s-1.987.337-3.5.566m150.5-.01c-1.71.329-2.25 1.122-2.25 3.305 0 3.491.582 3.89 4.75 3.256 2.93-.445 3.25-.828 3.25-3.88 0-3.53-.393-3.713-5.75-2.681M650 461.117c0 3.781.183 4.067 2.25 3.513 1.237-.331 2.813-.609 3.5-.616.759-.009 1.25-1.388 1.25-3.514 0-3.333-.167-3.5-3.5-3.5-3.433 0-3.5.079-3.5 4.117m162.667-3.45c-.367.366-.667 1.941-.667 3.5 0 2.639.275 2.833 4 2.833 3.905 0 4-.083 4-3.5 0-3.3-.19-3.5-3.333-3.5-1.834 0-3.634.3-4 .667m-171.917 1.022c-1.245.326-1.75 1.465-1.75 3.945 0 3.418.074 3.481 3.75 3.176 3.546-.293 3.767-.514 4.06-4.06.325-3.927-.722-4.456-6.06-3.061m85.25 2.874c0 3.418.133 3.551 3.25 3.25 2.858-.275 3.288-.705 3.563-3.563.301-3.117.168-3.25-3.25-3.25-3.417 0-3.563.146-3.563 3.563m76 .236c0 3.753.042 3.794 3.5 3.391 3.231-.377 3.5-.669 3.5-3.799 0-3.209-.188-3.391-3.5-3.391-3.386 0-3.5.124-3.5 3.799m76-.299c0 3.613.607 3.98 4.75 2.87 1.674-.449 2.25-1.342 2.25-3.487 0-2.628-.309-2.883-3.5-2.883-3.333 0-3.5.167-3.5 3.5m-246.75-1.706c-2.984.305-3.25.619-3.25 3.83 0 3.429.072 3.491 3.75 3.186 3.298-.273 3.79-.656 4.078-3.182.406-3.553-.436-4.259-4.578-3.834m85.5-.105c-2.092.547-2.556 7.32-.5 7.297 4.214-.046 5.75-1.275 5.75-4.603 0-3.468-.772-3.864-5.25-2.694m152 0c-1.164.304-1.75 1.438-1.75 3.384 0 2.678.297 2.927 3.5 2.927 3.333 0 3.5-.167 3.5-3.5 0-3.594-.739-3.99-5.25-2.811m-163 1c-1.245.326-1.75 1.465-1.75 3.945 0 3.418.074 3.481 3.75 3.176 3.546-.293 3.767-.514 4.06-4.06.325-3.927-.722-4.456-6.06-3.061m85.25 2.918c0 2.878.32 3.484 1.582 3 .87-.334 2.445-.607 3.5-.607 1.464 0 1.918-.709 1.918-3 0-2.762-.278-3-3.5-3-3.353 0-3.5.151-3.5 3.607m-173.333-1.94c-.367.366-.667 1.941-.667 3.5 0 2.639.275 2.833 4 2.833 3.905 0 4-.083 4-3.5 0-3.3-.19-3.5-3.333-3.5-1.834 0-3.634.3-4 .667M780 464.56c0 3.494.07 3.555 3.69 3.25 3.343-.281 3.724-.616 4.055-3.56.36-3.193.294-3.25-3.689-3.25s-4.056.065-4.056 3.56m76-.06c0 3.613.607 3.98 4.75 2.87 1.674-.449 2.25-1.342 2.25-3.487 0-2.628-.309-2.883-3.5-2.883-3.333 0-3.5.167-3.5 3.5m-249.333-1.833c-.367.366-.667 2.166-.667 4 0 2.858.344 3.333 2.418 3.333 4.343 0 5.582-1.023 5.582-4.607 0-3.179-.21-3.393-3.333-3.393-1.834 0-3.634.3-4 .667m87 0c-.367.366-.667 1.968-.667 3.56 0 2.732.209 2.876 3.75 2.583 3.424-.283 3.777-.593 4.063-3.56.298-3.09.147-3.25-3.083-3.25-1.868 0-3.697.3-4.063.667m76 0c-.367.366-.667 2.223-.667 4.125 0 3.34.107 3.437 3.125 2.833 1.719-.344 3.519-.625 4-.625s.875-1.575.875-3.5c0-3.3-.19-3.5-3.333-3.5-1.834 0-3.634.3-4 .667m76 0c-.367.366-.667 2.175-.667 4.019 0 3.136.177 3.313 2.75 2.75 4.946-1.084 5.25-1.34 5.25-4.405 0-2.769-.289-3.031-3.333-3.031-1.834 0-3.634.3-4 .667M598 463.889c-1.915.528-2.574 1.456-2.818 3.965-.314 3.229-.265 3.27 3.5 2.96 3.624-.298 3.834-.504 4.128-4.064.328-3.962-.036-4.178-4.81-2.861m86.25-.183c-1.829.352-2.25 1.097-2.25 3.98 0 3.191.226 3.487 2.25 2.944 1.237-.331 3.038-.609 4-.616 1.331-.011 1.75-.853 1.75-3.514 0-3.654-.365-3.831-5.75-2.794m77 .088c-2.984.305-3.25.619-3.25 3.83 0 3.429.072 3.491 3.75 3.186 3.298-.273 3.79-.656 4.078-3.182.406-3.553-.436-4.259-4.578-3.834m75.5-.078c-2.407.365-2.75.861-2.75 3.975 0 3.453.093 3.54 3.125 2.934 1.719-.344 3.519-.625 4-.625s.875-1.575.875-3.5c0-2.213-.46-3.445-1.25-3.35-.687.082-2.487.337-4 .566m73.917-.049c-.367.366-.667 1.977-.667 3.579 0 2.763.168 2.877 3.25 2.216 4.429-.95 4.75-1.222 4.75-4.021 0-2.1-.466-2.441-3.333-2.441-1.834 0-3.634.3-4 .667M921 465.5c0 1.556.567 2.5 1.5 2.5s1.5-.944 1.5-2.5-.567-2.5-1.5-2.5-1.5.944-1.5 2.5m-333-.5c-3.238.463-3.5.762-3.5 4 0 3.399.101 3.49 3.5 3.155 4.34-.429 4.197-.269 3.816-4.305-.303-3.214-.458-3.33-3.816-2.85m86.5-.127c-2.506.531-3.052 1.18-3.318 3.946-.314 3.27-.272 3.306 3.5 2.995 3.624-.298 3.834-.504 4.128-4.064.171-2.062-.054-3.697-.5-3.632-.445.065-2.16.405-3.81.755m226.25-.184c-1.24.324-1.75 1.463-1.75 3.903 0 3.239.165 3.41 2.75 2.844 4.946-1.084 5.25-1.34 5.25-4.405 0-3.117-1.348-3.623-6.25-2.342m-152.5.973c-.687.278-1.25 1.817-1.25 3.421 0 2.736.248 2.917 4 2.917 3.905 0 4-.083 4-3.5 0-3.171-.259-3.493-2.75-3.421-1.513.043-3.312.306-4 .583m75.417.005c-.367.366-.667 1.968-.667 3.56 0 2.732.209 2.876 3.75 2.583 3.424-.283 3.777-.593 4.063-3.56.298-3.09.147-3.25-3.083-3.25-1.868 0-3.697.3-4.063.667M892 466c-3.129.447-3.534.859-3.824 3.893l-.324 3.393 3.698-.6c4.569-.742 4.665-.839 4.271-4.34-.298-2.639-.576-2.81-3.821-2.346m-318 4c0 4.141.513 4.505 4.75 3.37 1.771-.475 2.25-1.323 2.25-3.987 0-3.2-.19-3.383-3.5-3.383-3.417 0-3.5.095-3.5 4m86.667-3.333c-.367.366-.667 2.223-.667 4.125 0 3.34.107 3.437 3.125 2.833 1.719-.344 3.519-.625 4-.625s.875-1.575.875-3.5c0-3.3-.19-3.5-3.333-3.5-1.834 0-3.634.3-4 .667m78.186.002c-1.011.269-1.802 1.768-2.049 3.884-.352 3.014-.124 3.447 1.815 3.447 4.134 0 5.381-1.068 5.381-4.607 0-3.46-.793-3.88-5.147-2.724m75.897.047c-2.266.343-2.75.923-2.75 3.291 0 3.495.582 3.895 4.75 3.26 2.93-.445 3.25-.828 3.25-3.88 0-2.123-.467-3.331-1.25-3.237-.687.082-2.487.337-4 .566m-250 .973c-1.276.334-1.75 1.478-1.75 4.227v3.769l3.75-.609c2.069-.337 3.705-1.163 3.65-1.843-.055-.678-.168-2.358-.25-3.733-.15-2.503-1.289-2.885-5.4-1.811m87 0c-2.927.765-2.427 7.311.559 7.311 3.816 0 5.936-2.176 5.155-5.289-.667-2.656-1.78-3.05-5.714-2.022m226.917-.022c-.367.366-.667 1.941-.667 3.5 0 2.571.324 2.833 3.5 2.833 3.333 0 3.5-.167 3.5-3.5 0-3.176-.262-3.5-2.833-3.5-1.559 0-3.134.3-3.5.667m-324.417 1.039c-1.821.35-2.25 1.099-2.25 3.924 0 3.422.074 3.485 3.75 3.18 3.546-.293 3.767-.514 4.06-4.06.329-3.969.046-4.124-5.56-3.044m87 0c-1.821.351-2.25 1.099-2.25 3.927 0 3.339.144 3.48 3.25 3.18 2.967-.286 3.277-.639 3.56-4.063.322-3.885.206-3.962-4.56-3.044m84.75 3.401c0 3.334.298 3.993 1.582 3.5.87-.334 2.445-.607 3.5-.607 1.525 0 1.918-.716 1.918-3.5 0-3.333-.167-3.5-3.5-3.5-3.432 0-3.5.08-3.5 4.107m76-.544c0 3.418.133 3.551 3.25 3.25 2.858-.275 3.288-.705 3.563-3.563.301-3.117.168-3.25-3.25-3.25-3.417 0-3.563.146-3.563 3.563m68.25-2.75c-3 .29-3.25.588-3.25 3.875 0 3.469.083 3.545 3.177 2.927 3.996-.8 4.03-.839 3.644-4.269-.288-2.556-.652-2.814-3.571-2.533m-154 .849c-.687.278-1.25 2.095-1.25 4.038 0 3.176.227 3.472 2.25 2.93 1.237-.331 2.813-.609 3.5-.616.759-.009 1.25-1.388 1.25-3.514 0-3.537-1.807-4.429-5.75-2.838m76.5.027c-1.25.327-1.75 1.467-1.75 3.991 0 2.812.323 3.41 1.582 2.927.87-.334 2.445-.607 3.5-.607 1.525 0 1.918-.716 1.918-3.5 0-3.594-.739-3.99-5.25-2.811m-251.036.93c-.393.393-.714 2.271-.714 4.173 0 3.34.107 3.437 3.125 2.833 1.719-.344 3.547-.625 4.063-.625s.798-1.462.625-3.25c-.27-2.804-.729-3.291-3.349-3.547-1.67-.164-3.357.024-3.75.416M628 474.125c0 4.087.029 4.119 3.125 3.5 1.719-.344 3.519-.625 4-.625s.875-1.575.875-3.5c0-3.417-.095-3.5-4-3.5h-4zm77.25-3.463c-.687.278-1.25 2.069-1.25 3.982 0 3.406.076 3.47 3.75 3.166 3.546-.293 3.767-.514 4.06-4.06.293-3.533.148-3.745-2.5-3.671-1.545.043-3.372.306-4.06.583m77 .044c-1.821.35-2.25 1.099-2.25 3.924 0 3.422.074 3.485 3.75 3.18 3.546-.293 3.767-.514 4.06-4.06.329-3.969.046-4.124-5.56-3.044m73.75 3.313c0 3.864.106 3.996 2.75 3.417 4.946-1.084 5.25-1.34 5.25-4.405 0-2.87-.213-3.031-4-3.031h-4zm-324.623-2.254c-1.84 1.205-.461 7.235 1.655 7.235 3.707 0 4.968-1.169 4.968-4.607 0-3.039-.287-3.391-2.75-3.378-1.513.009-3.255.346-3.873.75m87.373-.093c-1.234.335-1.75 1.485-1.75 3.901 0 3.076.282 3.425 2.75 3.412 4.028-.023 5.455-1.312 5.08-4.594-.337-2.949-2.186-3.776-6.08-2.719m229 .052c-2.387.355-2.75.862-2.75 3.842 0 3.631.953 4.089 5.804 2.79 1.863-.499 2.245-1.198 2-3.66-.328-3.285-.856-3.596-5.054-2.972m73.869.083c-.274.444-.335 1.682-.135 2.75.199 1.069.397 2.307.439 2.752.209 2.207 2.077-.822 2.077-3.368 0-2.772-1.278-3.917-2.381-2.134m-399.369.899c-1.812.349-2.25 1.101-2.25 3.864 0 3.253.18 3.43 3.5 3.43 3.417 0 3.5-.095 3.5-4 0-4.087-.138-4.183-4.75-3.294m86 0c-1.821.35-2.25 1.099-2.25 3.924 0 3.422.074 3.485 3.75 3.18 3.546-.293 3.767-.514 4.06-4.06.329-3.969.046-4.124-5.56-3.044m85.14.721c-1.368 3.564.002 6.086 3.11 5.722 4.116-.481 4.5-.84 4.5-4.208 0-2.699-.29-2.941-3.531-2.941-2.137 0-3.748.564-4.079 1.427m76.277-.76c-1.517 1.517-.719 7.567.915 6.94.87-.334 2.67-.607 4-.607 2.097 0 2.418-.465 2.418-3.5 0-3.3-.19-3.5-3.333-3.5-1.834 0-3.634.3-4 .667m142.083.022c-2.956.773-2.369 6.311.668 6.311 4.15 0 5.582-1.054 5.582-4.107 0-2.968-1.416-3.467-6.25-2.204m-400 1.027c-2.478.376-2.75.817-2.75 4.457 0 3.274.3 3.926 1.582 3.434.87-.334 2.445-.607 3.5-.607 1.571 0 1.918-.724 1.918-4 0-2.2-.337-3.933-.75-3.85s-1.987.337-3.5.566m173.5.007c-2.983.371-3.25.696-3.25 3.965 0 3.456.093 3.543 3.125 2.937 1.719-.344 3.519-.625 4-.625s.875-1.575.875-3.5-.337-3.428-.75-3.34-2.212.342-4 .563m75.5-.007c-2.407.365-2.75.861-2.75 3.975 0 3.453.093 3.54 3.125 2.934 1.719-.344 3.519-.625 4-.625s.875-1.575.875-3.5c0-2.213-.46-3.445-1.25-3.35-.687.082-2.487.337-4 .566m73.917-.049c-.367.366-.667 1.941-.667 3.5 0 2.639.275 2.833 4 2.833 3.905 0 4-.083 4-3.5 0-3.3-.19-3.5-3.333-3.5-1.834 0-3.634.3-4 .667m67.583.056c-2.981.37-3.25.698-3.25 3.957 0 3.197.226 3.493 2.25 2.95 1.237-.331 3.038-.609 4-.616 1.331-.011 1.75-.853 1.75-3.514 0-1.925-.337-3.428-.75-3.34s-2.212.342-4 .563m-811.025 2.288c-1.71 2.739-1.774 112.095-.067 115.284 1.655 3.094 3.461 4.705 5.271 4.705.864 0 1.571.45 1.571 1s.9 1 2 1 2 .45 2 1 .9 1 2 1 2 .45 2 1 .632 1 1.405 1c.774 0 3.136.878 5.25 1.952 7.334 3.724 12.727 6.048 14.033 6.048.722 0 1.312.45 1.312 1s.59 1 1.312 1 3.175.9 5.452 2 4.836 2 5.688 2 1.548.45 1.548 1 .9 1 2 1 2 .45 2 1 .574 1 1.275 1c.702 0 3.964 1.336 7.25 2.969s6.2 2.983 6.475 3 .367-25.058.204-55.722.086-58.957.554-62.871l.849-7.116-3.553-1.196c-1.955-.658-4.679-1.677-6.054-2.264-4.488-1.917-6.44-2.649-10.5-3.938-2.2-.699-4.427-1.628-4.95-2.066-.522-.438-1.895-.796-3.05-.796s-2.527-.398-3.05-.884c-.522-.485-3.875-1.873-7.45-3.083s-8.3-2.981-10.5-3.936-6.025-2.345-8.5-3.09-4.927-1.727-5.45-2.181S97.655 476 96.5 476s-2.539-.439-3.075-.975c-.633-.633-1.404-.288-2.2.986m504.442-1.344c-.367.366-.667 2.223-.667 4.125 0 3.34.107 3.437 3.125 2.833 1.719-.344 3.519-.625 4-.625s.875-1.575.875-3.5c0-3.3-.19-3.5-3.333-3.5-1.834 0-3.634.3-4 .667m77.583.364c-1.64.659-2.25 1.727-2.25 3.937 0 2.871.213 3.032 4 3.032h4v-4c0-4.291-1.077-4.847-5.75-2.969m152.5-.315c-2.407.365-2.75.861-2.75 3.975 0 3.453.093 3.54 3.125 2.934 1.719-.344 3.519-.625 4-.625s.875-1.575.875-3.5c0-2.213-.46-3.445-1.25-3.35-.687.082-2.487.337-4 .566M498 479c0 4.141.513 4.505 4.75 3.37 1.771-.475 2.25-1.323 2.25-3.987 0-3.2-.19-3.383-3.5-3.383-3.417 0-3.5.095-3.5 4m88.75-3.311c-.962.252-1.756.987-1.764 1.634-.007.647-.293 2.22-.634 3.495-.581 2.168-.368 2.298 3.263 2 3.701-.303 3.9-.496 4.195-4.068.323-3.903-.328-4.297-5.06-3.061m161.917-.022c-.367.366-.667 1.97-.667 3.563 0 2.666.259 2.872 3.25 2.583 2.858-.275 3.288-.705 3.563-3.563.289-2.991.083-3.25-2.583-3.25-1.593 0-3.197.3-3.563.667m141.083.022c-3.966 1.037-1.578 6.311 2.857 6.311 3.211 0 3.393-.188 3.393-3.5 0-3.628-1.148-4.144-6.25-2.811m-402.083.978c-.367.366-.667 2.193-.667 4.06 0 3.31.092 3.386 3.75 3.083 3.546-.293 3.767-.514 4.06-4.06.303-3.658.227-3.75-3.083-3.75-1.867 0-3.694.3-4.06.667m88.083.022c-1.272.333-1.75 1.476-1.75 4.184 0 3.669.053 3.719 3.5 3.317 3.33-.389 3.5-.598 3.5-4.299 0-4.016-.64-4.406-5.25-3.202m84.813.208c-.305.494-.268 2.33.082 4.08.527 2.635 1 3.085 2.746 2.616 1.16-.311 2.672-.572 3.359-.579.759-.009 1.25-1.388 1.25-3.514 0-3.322-.175-3.5-3.441-3.5-1.893 0-3.691.404-3.996.897m77.187.183c-1.826 1.064-2.407 5.396-.853 6.357.494.305 2.294.275 4-.066 2.735-.547 3.103-1.021 3.103-3.996 0-3.632-2.425-4.523-6.25-2.295m74.917-.413c-.367.366-.667 1.941-.667 3.5 0 2.33.43 2.833 2.418 2.833 4.15 0 5.582-1.054 5.582-4.107 0-2.612-.324-2.893-3.333-2.893-1.834 0-3.634.3-4 .667m68.083.049c-2.347.356-2.75.891-2.75 3.65 0 3.105.138 3.216 3.5 2.824 3.231-.377 3.5-.669 3.5-3.799 0-1.865-.337-3.324-.75-3.241s-1.987.337-3.5.566m-401.5 1.073c-3.062.318-3.25.566-3.25 4.293 0 3.795.112 3.932 2.75 3.354 4.94-1.083 5.25-1.339 5.25-4.346 0-3.469-.407-3.751-4.75-3.301m87 .005c-3.06.313-3.25.563-3.25 4.269 0 4.063.53 4.438 4.693 3.322 1.402-.376 2.43-1.669 2.851-3.586.8-3.641-.056-4.44-4.294-4.005m86-.088c-2.524.486-3.461 7.307-1 7.28 4.214-.046 5.75-1.275 5.75-4.603 0-3.43-.214-3.551-4.75-2.677m76.5.01c-2.396.363-2.75.867-2.75 3.914 0 3.343.143 3.483 3.25 3.183 2.967-.286 3.277-.639 3.56-4.063.171-2.062-.054-3.683-.5-3.6-.445.082-2.047.337-3.56.566m76.106.055c-1.949.252-2.783 1.05-3.173 3.035-.679 3.456.07 4.096 4.067 3.473 2.781-.433 3.25-.914 3.25-3.333 0-3.255-.509-3.646-4.144-3.175m-336.106 1.01c-2.474.317-2.75.746-2.75 4.285 0 3.211.352 3.934 1.918 3.934 3.805 0 5.082-1.143 5.082-4.548 0-3.794-.425-4.161-4.25-3.671m173-.065c-2.478.376-2.75.817-2.75 4.457 0 3.274.3 3.926 1.582 3.434.87-.334 2.445-.607 3.5-.607 1.571 0 1.918-.724 1.918-4 0-2.2-.337-3.933-.75-3.85s-1.987.337-3.5.566m225.917-.049c-1.602 1.601-.667 6.333 1.251 6.333 3.64 0 5.082-1.165 5.082-4.107 0-2.51-.375-2.893-2.833-2.893-1.559 0-3.134.3-3.5.667m-313.917 1.022c-1.245.326-1.75 1.465-1.75 3.945 0 3.418.074 3.481 3.75 3.176 3.546-.293 3.767-.514 4.06-4.06.325-3.927-.722-4.456-6.06-3.061m162.5-.027c-.687.278-1.25 2.09-1.25 4.028 0 2.803.324 3.4 1.582 2.917.87-.334 2.445-.607 3.5-.607 1.525 0 1.918-.716 1.918-3.5 0-3.537-1.807-4.429-5.75-2.838M791 482.5c0 3.333.167 3.5 3.5 3.5s3.5-.167 3.5-3.5-.167-3.5-3.5-3.5-3.5.167-3.5 3.5m67.75-2.776c-2.408.358-2.75.851-2.75 3.967 0 3.453.093 3.54 3.125 2.934 1.719-.344 3.547-.625 4.063-.625 1.255 0 .589-6.299-.688-6.515-.55-.093-2.237.014-3.75.239m-403.083.943c-1.646 1.646-.676 7.333 1.251 7.333 3.825 0 5.082-1.14 5.082-4.607 0-3.059-.279-3.393-2.833-3.393-1.559 0-3.134.3-3.5.667m86.583-.005c-.687.278-1.25 2.069-1.25 3.982 0 3.406.076 3.47 3.75 3.166 3.546-.293 3.767-.514 4.06-4.06.293-3.533.148-3.745-2.5-3.671-1.545.043-3.372.306-4.06.583m86.417.005c-.367.366-.667 2.223-.667 4.125 0 3.34.107 3.437 3.125 2.833 1.719-.344 3.519-.625 4-.625s.875-1.575.875-3.5c0-3.3-.19-3.5-3.333-3.5-1.834 0-3.634.3-4 .667m77.583.029c-3.378.665-3.324 7.304.059 7.304 3.48 0 5.934-2.237 5.536-5.046-.354-2.5-1.67-3.032-5.595-2.258m75-.034c-.687.278-1.25 2.078-1.25 4.001 0 3.42.07 3.481 3.25 2.799 4.508-.967 4.75-1.197 4.75-4.521 0-2.954-2.764-3.887-6.75-2.279m-335 1.044c-1.89.364-2.25 1.079-2.25 4.471 0 3.27.3 3.922 1.582 3.43.87-.334 2.445-.607 3.5-.607 1.571 0 1.918-.724 1.918-4 0-4.087-.138-4.183-4.75-3.294m87 .017c-3.067.381-3.25.632-3.25 4.465 0 4.016.035 4.055 3.125 3.437 1.719-.344 3.519-.625 4-.625s.875-1.8.875-4-.337-3.928-.75-3.84-2.212.342-4 .563m86.444-.001c-2.56.385-2.779.744-2.5 4.1.287 3.444.497 3.656 3.306 3.327 1.65-.192 3.337-.556 3.75-.809 1.313-.802.858-7.353-.5-7.19-.687.082-2.513.34-4.056.572m226.556-.06c-.687.278-1.25 1.844-1.25 3.482 0 2.828.187 2.961 3.75 2.666 3.424-.283 3.777-.593 4.063-3.56.288-2.986.085-3.244-2.5-3.171-1.547.043-3.375.306-4.063.583m65 0c-.687.278-1.25 1.844-1.25 3.482 0 2.828.187 2.961 3.75 2.666 3.424-.283 3.777-.593 4.063-3.56.288-2.986.085-3.244-2.5-3.171-1.547.043-3.375.306-4.063.583m10.112.838c-.769 2.003.365 4.787 1.631 4.004 1.325-.819 1.304-5.504-.024-5.504-.568 0-1.291.675-1.607 1.5m-486.612.189c-1.303.341-1.75 1.491-1.75 4.501 0 3.705.188 3.993 2.25 3.44 1.238-.331 3.038-.609 4-.616 1.373-.011 1.75-.876 1.75-4.014 0-4.175-.972-4.69-6.25-3.311M610 483c-3.228.461-3.524.796-3.814 4.307l-.314 3.808 3.814-.69c4.754-.86 4.507-.587 4.13-4.575-.303-3.214-.458-3.33-3.816-2.85m83.714-.381c-.393.393-.714 2.25-.714 4.127 0 3.327.082 3.395 3.25 2.717 3.945-.845 3.488-.382 3.903-3.963.312-2.7.044-3.03-2.689-3.297-1.67-.164-3.357.024-3.75.416M769 485.5c0 3.035.321 3.5 2.418 3.5 4.15 0 5.582-1.054 5.582-4.107 0-2.709-.255-2.893-4-2.893-3.905 0-4 .083-4 3.5m67.75-2.784c-2.385.362-2.75.872-2.75 3.85 0 3.622.957 4.088 5.75 2.804 2.516-.675 3.464-7.515 1-7.22-.687.082-2.487.337-4 .566m65.25.173c-1.915.528-2.574 1.456-2.818 3.965-.314 3.229-.265 3.27 3.5 2.96 3.624-.298 3.834-.504 4.128-4.064.328-3.962-.036-4.178-4.81-2.861m-382 4.174c0 3.982.065 4.057 3.25 3.75 2.967-.286 3.277-.639 3.56-4.063.306-3.689.253-3.75-3.25-3.75-3.496 0-3.56.073-3.56 4.063m164.25-3.357c-3.464.667-3.311 7.294.168 7.294 4.343 0 5.582-1.023 5.582-4.607 0-3.537-.391-3.719-5.75-2.687m76 0c-1.829.352-2.25 1.097-2.25 3.98 0 3.191.226 3.487 2.25 2.944 1.237-.331 3.038-.609 4-.616 1.331-.011 1.75-.853 1.75-3.514 0-3.654-.365-3.831-5.75-2.794M422 488.06v4.061l3.75-.311c3.546-.293 3.767-.514 4.06-4.06l.311-3.75H422zm88.25-3.398c-.687.278-1.25 2.042-1.25 3.921 0 3.238.183 3.417 3.5 3.417 3.417 0 3.5-.095 3.5-4 0-4.066-1.618-5.005-5.75-3.338m86 0c-.687.278-1.25 2.069-1.25 3.982 0 3.406.076 3.47 3.75 3.166 3.546-.293 3.767-.514 4.06-4.06.293-3.533.148-3.745-2.5-3.671-1.545.043-3.372.306-4.06.583m77.75.227c-1.901.524-2.575 1.459-2.813 3.9-.307 3.139-.223 3.211 3.75 3.211H679v-4c0-4.171-.356-4.392-5-3.111m150.163-.011c-2.861 1.813-.938 5.622 2.837 5.622 3.218 0 3.525-.262 3.813-3.25.287-2.974.075-3.249-2.5-3.235-1.547.009-3.415.397-4.15.863m65.982.192c-1.573.63-2.154 1.465-1.75 2.518.333.867.605 1.989.605 2.494s1.575.918 3.5.918c3.333 0 3.5-.167 3.5-3.5 0-3.777-1.224-4.285-5.855-2.43m-477.478.597c-.367.366-.667 2.195-.667 4.063 0 3.23.16 3.381 3.25 3.083 2.967-.286 3.277-.639 3.56-4.063.293-3.541.149-3.75-2.583-3.75-1.592 0-3.194.3-3.56.667m88.083.057c-2.465.366-2.75.817-2.75 4.342 0 4.172.805 4.629 5.803 3.29 1.937-.519 2.254-1.179 2-4.159-.324-3.79-.785-4.107-5.053-3.473m86-.008c-2.479.376-2.75.816-2.75 4.467 0 3.712.188 4 2.25 3.447 1.237-.331 3.038-.609 4-.616 1.373-.011 1.75-.876 1.75-4.014 0-2.613-.433-3.948-1.25-3.85-.687.082-2.487.337-4 .566m160.917-.049c-.367.366-.667 1.968-.667 3.56 0 2.732.209 2.876 3.75 2.583 3.424-.283 3.777-.593 4.063-3.56.298-3.09.147-3.25-3.083-3.25-1.868 0-3.697.3-4.063.667m67.583.056c-2.983.371-3.25.696-3.25 3.965 0 3.456.093 3.543 3.125 2.937 1.719-.344 3.519-.625 4-.625s.875-1.575.875-3.5-.337-3.428-.75-3.34-2.212.342-4 .563m-412.5.966c-1.302.341-1.75 1.491-1.75 4.491 0 3.268.301 3.919 1.582 3.427.87-.334 2.445-.607 3.5-.607 1.571 0 1.918-.724 1.918-4 0-4.134-.615-4.522-5.25-3.311m259.167.298c-1.819 1.063-1.438 7.022.446 6.999 4.102-.049 5.637-1.302 5.637-4.603 0-3.586-2.419-4.539-6.083-2.396m74.646-.09c-.305.494-.268 2.33.082 4.08.527 2.635 1 3.085 2.746 2.616 1.16-.311 2.672-.572 3.359-.579.759-.009 1.25-1.388 1.25-3.514 0-3.322-.175-3.5-3.441-3.5-1.893 0-3.691.404-3.996.897M878 489.617c0 3.262.22 3.557 2.25 3.013 1.237-.331 2.813-.609 3.5-.616.719-.008 1.25-1.288 1.25-3.014 0-2.762-.278-3-3.5-3-3.355 0-3.5.15-3.5 3.617m-390.333-1.95c-.367.366-.667 2.166-.667 4 0 2.858.344 3.333 2.418 3.333 4.343 0 5.582-1.023 5.582-4.607 0-3.179-.21-3.393-3.333-3.393-1.834 0-3.634.3-4 .667m87.047-.048c-.393.393-.714 2.271-.714 4.173 0 3.34.107 3.437 3.125 2.833 1.719-.344 3.547-.625 4.063-.625s.798-1.462.625-3.25c-.27-2.804-.729-3.291-3.349-3.547-1.67-.164-3.357.024-3.75.416m78.036.097c-2.396.363-2.75.867-2.75 3.914 0 3.343.143 3.483 3.25 3.183 2.967-.286 3.277-.639 3.56-4.063.171-2.062-.054-3.683-.5-3.6-.445.082-2.047.337-3.56.566m75.5-.01c-1.821.351-2.25 1.099-2.25 3.927 0 3.339.144 3.48 3.25 3.18 2.967-.286 3.277-.639 3.56-4.063.322-3.885.206-3.962-4.56-3.044m74.417-.039c-.367.366-.667 2.076-.667 3.799 0 2.991.158 3.114 3.5 2.724 3.231-.377 3.5-.669 3.5-3.799 0-3.057-.279-3.391-2.833-3.391-1.559 0-3.134.3-3.5.667m67.083.049c-2.404.364-2.75.863-2.75 3.957 0 2.818.323 3.417 1.582 2.934.87-.334 2.445-.607 3.5-.607 1.525 0 1.918-.716 1.918-3.5 0-1.925-.337-3.433-.75-3.35s-1.987.337-3.5.566M390 492c0 3.276.347 4 1.918 4 3.825 0 5.082-1.14 5.082-4.607 0-3.211-.188-3.393-3.5-3.393-3.417 0-3.5.095-3.5 4m86.667-3.333c-.367.366-.667 2.439-.667 4.607 0 3.182.304 3.823 1.582 3.333.87-.334 2.67-.607 4-.607 2.154 0 2.418-.436 2.418-4 0-3.867-.111-4-3.333-4-1.834 0-3.634.3-4 .667m87.583-.005c-.687.278-1.25 2.042-1.25 3.921 0 3.238.183 3.417 3.5 3.417 3.417 0 3.5-.095 3.5-4 0-4.066-1.618-5.005-5.75-3.338m229.25.051c-3.032.729-3.675 1.743-2.947 4.642 1.215 4.843 7.447 3.201 7.447-1.962 0-3.423-.406-3.665-4.5-2.68m-413.833.954c-.367.366-.667 2.166-.667 4 0 3.143.2 3.333 3.5 3.333 3.417 0 3.5-.095 3.5-4 0-3.725-.194-4-2.833-4-1.559 0-3.134.3-3.5.667m88.083.022c-1.303.341-1.75 1.491-1.75 4.501 0 3.705.188 3.993 2.25 3.44 1.238-.331 2.813-.609 3.5-.616.789-.009 1.25-1.488 1.25-4.014 0-4.134-.615-4.522-5.25-3.311m87 .027c-2.48.376-2.75.816-2.75 4.475 0 4.013.036 4.052 3.125 3.434 1.719-.344 3.519-.625 4-.625s.875-1.8.875-4c0-2.613-.433-3.948-1.25-3.85-.687.082-2.487.337-4 .566m84.917-.049c-.367.366-.667 2.175-.667 4.019 0 3.136.177 3.313 2.75 2.75 4.946-1.084 5.25-1.34 5.25-4.405 0-2.769-.289-3.031-3.333-3.031-1.834 0-3.634.3-4 .667m76.583-.005c-.687.278-1.25 2.031-1.25 3.896 0 3.287.101 3.373 3.25 2.773 3.895-.741 3.34-.186 4.081-4.081.578-3.035.439-3.245-2.106-3.171-1.499.043-3.287.306-3.975.583M856 492.5c0 3.035.321 3.5 2.418 3.5 4.15 0 5.582-1.054 5.582-4.107 0-2.709-.255-2.893-4-2.893-3.905 0-4 .083-4 3.5m66.25-2.838c-1.833.74-1.612 6.338.25 6.338 1.048 0 1.5-1.056 1.5-3.5 0-1.925-.112-3.464-.25-3.421s-.812.306-1.5.583m-553.687 1.235c-.305.494-.275 2.294.066 4 .547 2.735 1.021 3.103 3.996 3.103 3.271 0 3.375-.123 3.375-4 0-3.892-.093-4-3.441-4-1.893 0-3.691.404-3.996.897m262.187-.181c-2.396.363-2.75.867-2.75 3.911 0 3.426.073 3.488 3.75 3.183 3.546-.293 3.767-.514 4.06-4.06.219-2.637-.078-3.706-1-3.6-.72.082-2.547.337-4.06.566m76 0c-3.817.578-4.223 7.284-.441 7.284 3.653 0 5.65-2.091 5.013-5.25-.306-1.512-.84-2.683-1.189-2.6-.348.082-1.87.337-3.383.566m73.917-.049c-.367.366-.667 2.175-.667 4.019 0 3.136.177 3.313 2.75 2.75 4.946-1.084 5.25-1.34 5.25-4.405 0-2.769-.289-3.031-3.333-3.031-1.834 0-3.634.3-4 .667m66.083.022c-1.252.328-1.75 1.468-1.75 4.009 0 3.445.094 3.533 3.125 2.927 1.719-.344 3.519-.625 4-.625s.875-1.575.875-3.5c0-3.628-1.148-4.144-6.25-2.811m65.5.017c-1.828.352-2.25 1.097-2.25 3.971 0 2.814.323 3.413 1.582 2.93.87-.334 2.67-.607 4-.607 2.097 0 2.418-.465 2.418-3.5 0-3.654-.365-3.831-5.75-2.794m-551.899.987c-1.543.301-2.337 1.421-2.815 3.966-.827 4.406-.49 4.743 3.917 3.916 3.353-.629 3.547-.883 3.547-4.62 0-4.025-.164-4.139-4.649-3.262m94.316-.026c-.367.366-.667 2.166-.667 4 0 2.858.344 3.333 2.418 3.333 4.343 0 5.582-1.023 5.582-4.607 0-3.179-.21-3.393-3.333-3.393-1.834 0-3.634.3-4 .667m87 0c-1.545 1.544-.688 7.333 1.083 7.319 4.718-.036 6.25-1.165 6.25-4.603 0-3.167-.212-3.383-3.333-3.383-1.834 0-3.634.3-4 .667m-191.917 1.049c-2.472.375-2.75.821-2.75 4.414 0 3.907.073 3.99 3.25 3.683 3.051-.294 3.269-.574 3.557-4.563.17-2.337-.055-4.183-.5-4.1-.444.082-2.045.337-3.557.566m94.917-.049c-.367.366-.667 2.166-.667 4 0 3.143.2 3.333 3.5 3.333 3.417 0 3.5-.095 3.5-4 0-3.725-.194-4-2.833-4-1.559 0-3.134.3-3.5.667m86 0c-.367.366-.667 2.166-.667 4 0 3.222.133 3.333 4 3.333h4v-4c0-3.867-.111-4-3.333-4-1.834 0-3.634.3-4 .667m86.723.76c-1.368 3.564.002 6.086 3.11 5.722 4.116-.481 4.5-.84 4.5-4.208 0-2.699-.29-2.941-3.531-2.941-2.137 0-3.748.564-4.079 1.427m76.324-.808c-.393.393-.714 2.25-.714 4.127 0 3.327.082 3.395 3.25 2.716 4.475-.96 4.648-1.129 4.325-4.228-.285-2.725-4.966-4.51-6.861-2.615m75.953.048c-.911.91-.845 5.105.089 5.682.415.257 1.99.231 3.5-.058 4.144-.792 4.066-6.291-.089-6.291-1.559 0-3.134.3-3.5.667m65 0c-.367.366-.667 1.941-.667 3.5 0 2.33.43 2.833 2.418 2.833 4.15 0 5.582-1.054 5.582-4.107 0-2.612-.324-2.893-3.333-2.893-1.834 0-3.634.3-4 .667m65 0c-.367.366-.667 1.941-.667 3.5 0 2.33.43 2.833 2.418 2.833 4.15 0 5.582-1.054 5.582-4.107 0-2.612-.324-2.893-3.333-2.893-1.834 0-3.634.3-4 .667m-463.917 1.057c-2.481.369-2.75.806-2.75 4.467 0 4.027.025 4.054 3.177 3.424 3.882-.777 3.568-.42 3.98-4.516.367-3.638-.121-4.012-4.407-3.375m87-.008c-2.463.373-2.75.827-2.75 4.35 0 4.071.525 4.436 4.75 3.304 1.844-.494 2.25-1.305 2.25-4.487 0-2.135-.337-3.816-.75-3.733s-1.987.337-3.5.566m84.5-.054c-.687.278-1.25 2.098-1.25 4.046 0 3.434.096 3.523 3.125 2.917 1.719-.344 3.519-.625 4-.625s.875-1.575.875-3.5c0-3.171-.259-3.493-2.75-3.421-1.513.043-3.312.306-4 .583m76.5.027c-1.237.324-1.75 1.462-1.75 3.884 0 3.614.959 4.081 5.75 2.797 1.771-.475 2.25-1.323 2.25-3.987 0-3.5-1.194-4.015-6.25-2.694m75.5-.027c-.687.278-1.25 1.844-1.25 3.482 0 2.828.187 2.961 3.75 2.666 3.424-.283 3.777-.593 4.063-3.56.288-2.986.085-3.244-2.5-3.171-1.547.043-3.375.306-4.063.583M336 498c0 3.881.101 4 3.393 4 3.584 0 4.607-1.239 4.607-5.582 0-2.154-.436-2.418-4-2.418h-4zm88.25-3.294c-3.503.674-3.348 8.294.168 8.294 4.501 0 5.582-.989 5.582-5.107 0-4.086-.28-4.241-5.75-3.187m173.75.183c-1.901.524-2.575 1.459-2.813 3.9-.307 3.139-.223 3.211 3.75 3.211H603v-4c0-4.171-.356-4.392-5-3.111m76 .006c-2.002.557-2.5 1.334-2.5 3.9 0 3.037.197 3.205 3.75 3.205 3.708 0 3.75-.044 3.75-4 0-4.172-.36-4.396-5-3.105m75.25-.189c-3.464.667-3.311 7.294.168 7.294 4.343 0 5.582-1.023 5.582-4.607 0-3.537-.391-3.719-5.75-2.687m74.417-.039c-.908.907-.846 5.11.083 5.655.413.242 2.212.217 4-.055 2.802-.426 3.25-.892 3.25-3.38 0-2.605-.325-2.887-3.333-2.887-1.834 0-3.634.3-4 .667m64.717.775c-.687 1.789-.143 4.682.866 4.611.413-.029 2.1-.053 3.75-.053 2.667 0 3-.333 3-3 0-2.767-.274-3-3.531-3-2.153 0-3.748.563-4.085 1.442m-561.654.251c-1.731.451-2.106 7.368-.397 7.324.367-.009 1.74-.017 3.05-.017 2.584 0 3.813-2.536 2.907-6-.508-1.94-1.887-2.264-5.56-1.307m182.937-.026c-.367.366-.667 2.166-.667 4 0 3.143.2 3.333 3.5 3.333 3.417 0 3.5-.095 3.5-4 0-3.725-.194-4-2.833-4-1.559 0-3.134.3-3.5.667m304.083.022c-1.133.297-1.75 1.43-1.75 3.218 0 3.577.271 3.777 4.469 3.286 3.266-.381 3.531-.666 3.531-3.802 0-3.509-1.191-4.024-6.25-2.702m66.106-.02c-.915.243-1.84 1.766-2.084 3.434-.426 2.897-.32 2.988 3.144 2.697 3.238-.271 3.614-.613 3.897-3.55.323-3.345-.49-3.768-4.957-2.581m-563.606 1.037c-1.892.364-2.25 1.078-2.25 4.489 0 4.008.036 4.048 3.125 3.43 1.719-.344 3.519-.625 4-.625s.875-1.8.875-4c0-4.203-.259-4.352-5.75-3.294m95.417-.039c-.367.366-.667 2.193-.667 4.06 0 3.31.092 3.386 3.75 3.083 3.546-.293 3.767-.514 4.06-4.06.303-3.658.227-3.75-3.083-3.75-1.867 0-3.694.3-4.06.667m88.083.022c-1.29.337-1.75 1.484-1.75 4.359 0 3.862.033 3.896 3.25 3.283 4.058-.772 3.728-.421 4.424-4.707.618-3.809-.486-4.356-5.924-2.935m85.471.153c-1.825 1.158-1.202 7.162.742 7.144 4.502-.04 6.037-1.21 6.037-4.603 0-3.028-.289-3.381-2.75-3.368-1.513.009-3.326.381-4.029.827m77.029.189c-3.367 1.354-3.231 6.969.168 6.969 4.343 0 5.582-1.023 5.582-4.607 0-3.642-1.269-4.163-5.75-2.362m74.417-.364c-.367.366-.667 2.223-.667 4.125 0 3.34.107 3.437 3.125 2.833 1.719-.344 3.519-.625 4-.625s.875-1.575.875-3.5c0-3.3-.19-3.5-3.333-3.5-1.834 0-3.634.3-4 .667m67.333.222c-1.915.528-2.574 1.456-2.818 3.965-.314 3.229-.265 3.27 3.5 2.96 3.624-.298 3.834-.504 4.128-4.064.328-3.962-.036-4.178-4.81-2.861m65.5-.016c-2.491.528-3.053 1.186-3.313 3.881-.299 3.093-.152 3.246 3.127 3.246 1.893 0 3.996-.669 4.675-1.487 1.243-1.498.636-6.62-.758-6.395-.402.065-2.081.405-3.731.755m-563 1.06c-2.62.503-3.039 1.051-3.31 4.321l-.311 3.746h4.061c4.06 0 4.06 0 4.06-3.941 0-4.537-.409-4.912-4.5-4.126m95.977-.257c-1.704.34-1.963 1.027-1.645 4.364.385 4.029.931 4.398 4.918 3.33 1.844-.494 2.25-1.305 2.25-4.487 0-4.045-.339-4.241-5.523-3.207m173.273.013c-1.272.333-1.75 1.476-1.75 4.184 0 3.669.053 3.719 3.5 3.317 3.33-.389 3.5-.598 3.5-4.299 0-4.016-.64-4.406-5.25-3.202m153 .027c-2.385.362-2.75.872-2.75 3.85 0 3.544.621 3.91 4.75 2.804 1.771-.475 2.25-1.323 2.25-3.987 0-1.86-.337-3.316-.75-3.233s-1.987.337-3.5.566m-433.25 1.187c-2.76.613-2.981.976-2.762 4.536.293 4.765.241 4.715 4.102 3.943 2.969-.594 3.16-.897 3.16-5.007 0-2.406-.337-4.322-.75-4.257s-2.1.418-3.75.785m97.75-.18c-3.048.379-3.25.648-3.25 4.34 0 3.833.093 3.937 3.5 3.937 3.481 0 3.5-.024 3.5-4.5 0-2.475-.113-4.428-.25-4.34s-1.712.342-3.5.563M487 502.06v4.061l3.75-.311c3.546-.293 3.767-.514 4.06-4.06l.311-3.75H487zm78.75-3.336c-2.481.369-2.75.806-2.75 4.467 0 4.013.036 4.052 3.125 3.434 1.719-.344 3.546-.625 4.06-.625 1.255 0 .589-7.299-.685-7.515-.55-.093-2.237.014-3.75.239m84.25 3.383c0 3.334.298 3.993 1.582 3.5.87-.334 2.445-.607 3.5-.607 1.525 0 1.918-.716 1.918-3.5 0-3.333-.167-3.5-3.5-3.5-3.432 0-3.5.08-3.5 4.107m142.25-3.445c-.687.278-1.25 2.09-1.25 4.028 0 2.803.324 3.4 1.582 2.917.87-.334 2.445-.607 3.5-.607 1.525 0 1.918-.716 1.918-3.5 0-3.537-1.807-4.429-5.75-2.838m65.5.027c-1.247.326-1.75 1.465-1.75 3.964 0 3.432.069 3.491 3.25 2.809 4.508-.967 4.75-1.197 4.75-4.521 0-3.02-1.392-3.521-6.25-2.252m-380.5.973c-.687.278-1.25 2.069-1.25 3.982 0 3.406.076 3.47 3.75 3.166 3.546-.293 3.767-.514 4.06-4.06.293-3.533.148-3.745-2.5-3.671-1.545.043-3.372.306-4.06.583m163.5.027c-2.092.547-2.556 7.32-.5 7.297 4.214-.046 5.75-1.275 5.75-4.603 0-3.468-.772-3.864-5.25-2.694m74.917-.022c-.367.366-.667 2.076-.667 3.799 0 2.991.158 3.114 3.5 2.724 3.231-.377 3.5-.669 3.5-3.799 0-3.057-.279-3.391-2.833-3.391-1.559 0-3.134.3-3.5.667m197.083.049c-2.342.355-2.75.893-2.75 3.627 0 3.142.085 3.202 4 2.828 3.806-.363 4-.545 4-3.776 0-2.129-.466-3.339-1.25-3.245-.687.082-2.487.337-4 .566m8.25 1.225c0 1.068.45 2.219 1 2.559.567.351 1-.49 1-1.941 0-1.407-.45-2.559-1-2.559s-1 .873-1 1.941m-637.75-.279c-.699.283-1.25 2.219-1.25 4.396 0 3.854.032 3.886 3.25 3.26 3.801-.74 4.714-1.813 4.735-5.568.015-2.756-2.865-3.649-6.735-2.088M379 504.06v4.061l3.75-.311c3.546-.293 3.767-.514 4.06-4.06l.311-3.75H379zm89.25-3.354c-1.89.364-2.25 1.079-2.25 4.471 0 3.27.3 3.922 1.582 3.43.87-.334 2.445-.607 3.5-.607 1.571 0 1.918-.724 1.918-4 0-4.087-.138-4.183-4.75-3.294m85-.044c-.687.278-1.25 2.069-1.25 3.982 0 3.406.076 3.47 3.75 3.166 3.546-.293 3.767-.514 4.06-4.06.293-3.533.148-3.745-2.5-3.671-1.545.043-3.372.306-4.06.583m77 .044c-1.89.364-2.25 1.079-2.25 4.471 0 3.27.3 3.922 1.582 3.43.87-.334 2.67-.607 4-.607 2.154 0 2.418-.436 2.418-4 0-4.203-.259-4.352-5.75-3.294m75.5-.034c-1.241.337-1.75 1.488-1.75 3.962 0 3.418.074 3.481 3.75 3.176 3.56-.294 3.75-.487 3.75-3.81 0-3.627-1.484-4.486-5.75-3.328M780 503.5c0 5.504 5.984 4.895 7.365-.75.65-2.655.535-2.75-3.346-2.75-3.926 0-4.019.081-4.019 3.5m65.667-2.833c-.367.366-.667 1.941-.667 3.5 0 2.474.376 2.833 2.965 2.833 2.997 0 5.035-2.2 5.035-5.434 0-1.6-5.908-2.325-7.333-.899m-475.917 1.022c-1.303.341-1.75 1.491-1.75 4.509 0 4.005.036 4.045 3.125 3.427 1.719-.344 3.519-.625 4-.625s.875-1.8.875-4c0-4.175-.972-4.69-6.25-3.311m174 .035c-2.475.368-2.75.81-2.75 4.422 0 4.001.009 4.011 3.25 3.328 4.265-.899 4.972-1.674 4.578-5.025-.356-3.037-.925-3.342-5.078-2.725m227.5-.028c-1.822.359-2.25 1.111-2.25 3.953 0 3.436.068 3.495 3.25 2.814 3.97-.851 3.536-.416 3.924-3.935.345-3.127-.618-3.681-4.924-2.832m130 .01c-1.735.334-2.25 1.117-2.25 3.424 0 2.844.183 2.976 3.75 2.68 3.424-.283 3.777-.593 4.063-3.56.33-3.42-.07-3.602-5.563-2.544M271 506c0 3.701.206 3.999 2.75 3.985 3.779-.021 4.732-.951 4.856-4.735.103-3.123-.043-3.25-3.75-3.25-3.832 0-3.856.025-3.856 4m88.25-3.294c-2.308.444-2.71 1.973-1.606 6.098.503 1.876 1.195 2.247 3.737 2 2.898-.282 3.141-.605 3.426-4.554.328-4.52.137-4.641-5.557-3.544m95.417-.039c-.367.366-.667 2.166-.667 4 0 3.222.133 3.333 4 3.333h4v-4c0-3.867-.111-4-3.333-4-1.834 0-3.634.3-4 .667m163 0c-.367.366-.667 2.166-.667 4 0 2.858.344 3.333 2.418 3.333 4.343 0 5.582-1.023 5.582-4.607 0-3.179-.21-3.393-3.333-3.393-1.834 0-3.634.3-4 .667m76 0c-.367.366-.667 2.219-.667 4.116 0 3.09.235 3.387 2.25 2.847 1.237-.331 3.038-.609 4-.616 1.331-.011 1.75-.853 1.75-3.514 0-3.3-.19-3.5-3.333-3.5-1.834 0-3.634.3-4 .667m67.083.057c-2.479.369-2.75.807-2.75 4.449 0 3.274.3 3.926 1.582 3.434.87-.334 2.697-.607 4.06-.607 2.245 0 2.449-.347 2.168-3.673-.331-3.922-.777-4.239-5.06-3.603m73.25 2.883c0 2.878.32 3.484 1.582 3 .87-.334 2.67-.607 4-.607 2.02 0 2.418-.494 2.418-3 0-2.833-.222-3-4-3-3.927 0-4 .066-4 3.607m-574 1.226c0 4.744.126 4.867 4.469 4.36 3.366-.393 3.531-.594 3.531-4.302 0-3.873-.019-3.891-4-3.891-3.971 0-4 .028-4 3.833m185.25-3.171c-.709.286-1.25 2.245-1.25 4.528 0 3.259.301 3.909 1.582 3.417.87-.334 2.445-.607 3.5-.607 1.571 0 1.918-.724 1.918-4 0-4.066-1.618-5.005-5.75-3.338m85.161 1.836c-.845 3.368.115 5.502 2.476 5.502 3.857 0 5.113-1.132 5.113-4.607 0-3.208-.19-3.393-3.481-3.393-2.878 0-3.589.433-4.108 2.498m78.839-1.709c-2.971.309-3.25.633-3.25 3.774 0 3.343.109 3.437 4 3.437s4-.093 4-3.441c0-3.96-.338-4.228-4.75-3.77m74.5-.1c-1.252.328-1.75 1.468-1.75 4.009 0 3.445.094 3.533 3.125 2.927 1.719-.344 3.519-.625 4-.625s.875-1.575.875-3.5c0-3.628-1.148-4.144-6.25-2.811m141 0c-1.251.327-1.75 1.467-1.75 4.001 0 3.186.227 3.483 2.25 2.94 1.237-.331 3.038-.609 4-.616 1.331-.011 1.75-.853 1.75-3.514 0-3.628-1.148-4.144-6.25-2.811m64.808.561c-1.693 5.571-1.568 5.875 2.271 5.556 3.335-.278 3.7-.603 3.984-3.556.293-3.034.108-3.25-2.781-3.25-1.702 0-3.266.563-3.474 1.25m-640.072 1c-.787 2.177.19 7.254 1.375 7.15.627-.055 2.264-.168 3.639-.25 2.225-.134 2.5-.59 2.5-4.15 0-3.912-.078-4-3.531-4-1.943 0-3.735.563-3.983 1.25M347 508.299v4.299l3.5-.408c3.33-.389 3.5-.598 3.5-4.299 0-3.78-.1-3.891-3.5-3.891-3.457 0-3.5.052-3.5 4.299m87.75-3.61c-1.303.341-1.75 1.491-1.75 4.501 0 3.705.188 3.993 2.25 3.44 1.238-.331 3.038-.609 4-.616 1.373-.011 1.75-.876 1.75-4.014 0-4.175-.972-4.69-6.25-3.311m86.164.299c-.872.51-1.472 1.959-1.333 3.22l.336 3.042c.045.413 1.658.75 3.583.75 3.417 0 3.5-.095 3.5-4 0-4.228-2.17-5.302-6.086-3.012m227.836-.299c-1.237.324-1.75 1.462-1.75 3.884 0 3.614.959 4.081 5.75 2.797 1.771-.475 2.25-1.323 2.25-3.987 0-3.5-1.194-4.015-6.25-2.694m66.75.184c-2.491.528-3.053 1.186-3.313 3.881-.307 3.18-.231 3.246 3.75 3.246H820v-4c0-2.2-.337-3.947-.75-3.882s-2.1.405-3.75.755m64.5.016c-1.927.532-2.574 1.454-2.823 4.025l-.322 3.336 3.815-.716c5.043-.946 5.066-.969 4.55-4.49-.46-3.133-.947-3.334-5.22-2.155m-640.721.917c-.801.509-1.011 2.07-.611 4.538.569 3.501.827 3.741 3.721 3.459 2.889-.281 3.133-.607 3.418-4.553.295-4.067.187-4.249-2.5-4.235-1.544.009-3.356.365-4.028.791m97.971-.144c-.703.284-1.25 2.227-1.25 4.44 0 3.773.114 3.911 2.75 3.334 4.987-1.093 5.25-1.339 5.25-4.905 0-3.205-.254-3.524-2.75-3.452-1.512.043-3.312.306-4 .583m175 .151c-3.075.297-3.25.53-3.25 4.33 0 4.007.007 4.014 3.25 3.32 4.111-.881 3.94-.66 3.566-4.613-.295-3.124-.535-3.329-3.566-3.037m83.417-.146c-.367.366-.667 2.219-.667 4.116 0 3.09.235 3.387 2.25 2.847 1.237-.331 3.038-.609 4-.616 1.331-.011 1.75-.853 1.75-3.514 0-3.3-.19-3.5-3.333-3.5-1.834 0-3.634.3-4 .667m76.223-.417c-.06.137-.233 1.737-.385 3.554-.27 3.23-.196 3.296 3.359 3 3.296-.276 3.665-.608 3.949-3.554.301-3.117.168-3.25-3.25-3.25-1.959 0-3.612.113-3.673.25m-442.64 1.412c-2.067.834-1.616 8.341.5 8.324 4.921-.038 6.25-1.123 6.25-5.103 0-3.589-.209-3.877-2.75-3.804-1.512.043-3.312.306-4 .583m98.5.054c-2.463.373-2.75.827-2.75 4.35 0 4.069 1.34 4.892 5.418 3.327 1.603-.615 2.405-8.557.832-8.243-.413.082-1.988.337-3.5.566M422 510.06v4.061l3.75-.311c3.546-.293 3.767-.514 4.06-4.06l.311-3.75H422zm165-3.171c-1.901.524-2.575 1.459-2.813 3.9-.307 3.139-.223 3.211 3.75 3.211H592v-4c0-4.171-.356-4.392-5-3.111m76 0c-1.915.528-2.574 1.456-2.818 3.965-.314 3.229-.265 3.27 3.5 2.96 3.624-.298 3.834-.504 4.128-4.064.328-3.962-.036-4.178-4.81-2.861m73.384.553c-1.247 3.249.051 5.058 3.63 5.058 3.202 0 3.512-.265 3.799-3.25.301-3.122.172-3.25-3.281-3.25-2.208 0-3.808.556-4.148 1.442m66.283-.775c-1.517 1.517-.719 7.567.915 6.94.87-.334 2.445-.607 3.5-.607 1.525 0 1.918-.716 1.918-3.5 0-3.176-.262-3.5-2.833-3.5-1.559 0-3.134.3-3.5.667m64 0c-.803.803-.892 5.775-.117 6.55.517.517 7.22-.648 7.941-1.38.183-.185.095-1.575-.196-3.087-.446-2.321-1.03-2.75-3.745-2.75-1.769 0-3.517.3-3.883.667m-455 1c-.756.756-.915 6.752-.198 7.469.259.258 2.059.284 4 .057 3.366-.393 3.531-.594 3.531-4.302 0-3.743-.127-3.891-3.333-3.891-1.834 0-3.634.3-4 .667m87 0c-.367.366-.667 2.301-.667 4.299 0 3.562.067 3.625 3.5 3.224 3.33-.389 3.5-.598 3.5-4.299 0-3.606-.208-3.891-2.833-3.891-1.559 0-3.134.3-3.5.667m230.083.049c-2.404.364-2.75.863-2.75 3.957 0 2.818.323 3.417 1.582 2.934.87-.334 2.445-.607 3.5-.607 1.525 0 1.918-.716 1.918-3.5 0-1.925-.337-3.433-.75-3.35s-1.987.337-3.5.566m-511.083.951c-.367.366-.667 2.166-.667 4 0 3.119.217 3.333 3.375 3.333 2.975 0 3.449-.368 3.996-3.103.341-1.706.371-3.506.066-4-.643-1.04-5.785-1.215-6.77-.23M314 512v4h8v-8h-8zm89.25-3.294c-1.891.364-2.25 1.078-2.25 4.48 0 3.709.188 3.997 2.25 3.444 1.238-.331 2.813-.609 3.5-.616.789-.009 1.25-1.488 1.25-4.014 0-4.087-.138-4.183-4.75-3.294m86-.01c-1.857.366-2.25 1.101-2.25 4.216v3.773l3.75-.609c3.496-.569 3.75-.845 3.75-4.079 0-3.624-.862-4.166-5.25-3.301m84.75 3.411c0 3.334.298 3.993 1.582 3.5.87-.334 2.445-.607 3.5-.607 1.525 0 1.918-.716 1.918-3.5 0-3.333-.167-3.5-3.5-3.5-3.432 0-3.5.08-3.5 4.107m76 0c0 3.334.298 3.993 1.582 3.5.87-.334 2.445-.607 3.5-.607 1.525 0 1.918-.716 1.918-3.5 0-3.333-.167-3.5-3.5-3.5-3.432 0-3.5.08-3.5 4.107m141.667-3.44c-.367.366-.667 1.994-.667 3.616 0 2.572.289 2.873 2.25 2.347 1.237-.331 2.813-.609 3.5-.616.719-.008 1.25-1.288 1.25-3.014 0-2.627-.352-3-2.833-3-1.559 0-3.134.3-3.5.667M856 511.625c0 3.527.085 3.608 3.125 3 1.719-.344 3.519-.625 4-.625s.875-1.35.875-3c0-2.833-.222-3-4-3-3.931 0-4 .063-4 3.625m-649.333-1.958c-.367.366-.667 2.444-.667 4.616 0 3.609.195 3.898 2.25 3.347 1.238-.331 3.037-.609 4-.616 1.373-.011 1.75-.876 1.75-4.014 0-3.867-.111-4-3.333-4-1.834 0-3.634.3-4 .667m96.93.177c-.881 1.424.594 8.157 1.784 8.142 4.278-.052 5.619-1.27 5.619-5.103 0-3.758-.11-3.883-3.441-3.883-1.893 0-3.676.38-3.962.844m260.653-.203c-.687.289-1.25 2.063-1.25 3.942 0 5.636 6.474 4.654 7.148-1.083.358-3.05-2.339-4.358-5.898-2.859m77.5.075c-2.385.362-2.75.872-2.75 3.85 0 3.54 1.509 4.327 5.418 2.827 1.586-.609 2.384-7.553.832-7.243-.413.082-1.987.337-3.5.566m73.917-.049c-.367.366-.667 2.076-.667 3.799 0 2.991.158 3.114 3.5 2.724 3.231-.377 3.5-.669 3.5-3.799 0-3.057-.279-3.391-2.833-3.391-1.559 0-3.134.3-3.5.667m67.583.056c-2.914.362-3.25.738-3.25 3.64 0 3.109.137 3.219 3.5 2.827 3.231-.377 3.5-.669 3.5-3.799 0-1.865-.112-3.319-.25-3.231s-1.712.342-3.5.563m65 0c-2.837.353-3.25.777-3.25 3.34 0 2.69.295 2.937 3.5 2.937 3.333 0 3.5-.167 3.5-3.5 0-1.925-.112-3.428-.25-3.34s-1.712.342-3.5.563M196 512.918c0 1.605-.273 3.63-.607 4.5-.455 1.185.026 1.582 1.918 1.582 4.613 0 5.689-.966 5.689-5.107 0-3.782-.099-3.893-3.5-3.893-3.2 0-3.5.25-3.5 2.918m98.75-2.229c-2.118.554-2.586 8.32-.5 8.297 4.41-.048 5.75-1.237 5.75-5.103 0-4.008-.642-4.398-5.25-3.194M390 514c0 3.905.083 4 3.5 4s3.5-.095 3.5-4-.083-4-3.5-4-3.5.095-3.5 4m86.667-3.333c-.367.366-.667 2.166-.667 4 0 2.858.344 3.333 2.418 3.333 4.343 0 5.582-1.023 5.582-4.607 0-3.179-.21-3.393-3.333-3.393-1.834 0-3.634.3-4 .667m78.583.122c-3.077.32-3.25.554-3.25 4.391 0 3.715.188 4.003 2.25 3.45 1.237-.331 3.038-.609 4-.616 1.325-.011 1.75-.85 1.75-3.455 0-3.96-.338-4.228-4.75-3.77m150-.127c-.687.278-1.25 2.042-1.25 3.921 0 2.947.332 3.417 2.418 3.417 4.343 0 5.582-1.023 5.582-4.607 0-3.054-.275-3.385-2.75-3.314-1.513.043-3.312.306-4 .583m-518 1.044c-1.878.361-2.25 1.083-2.25 4.364 0 3.8.112 3.93 3.387 3.93 3.055 0 3.433-.318 3.867-3.25.265-1.788.268-3.812.007-4.5-.481-1.267-.979-1.321-5.011-.544m193-.044c-.709.286-1.25 2.245-1.25 4.528 0 3.259.301 3.909 1.582 3.417.87-.334 2.398-.607 3.395-.607 1.385 0 1.903-.944 2.194-4 .356-3.728.21-3.995-2.145-3.921-1.389.043-3.088.306-3.776.583m87 0c-.709.286-1.25 2.245-1.25 4.528 0 3.259.301 3.909 1.582 3.417.87-.334 2.445-.607 3.5-.607 1.571 0 1.918-.724 1.918-4 0-4.066-1.618-5.005-5.75-3.338m161.417.005c-1.517 1.517-.719 7.567.915 6.94.87-.334 2.67-.607 4-.607 2.097 0 2.418-.465 2.418-3.5 0-3.3-.19-3.5-3.333-3.5-1.834 0-3.634.3-4 .667m141.047-.048c-.393.393-.714 2.016-.714 3.608 0 2.732.209 2.876 3.75 2.583 3.431-.284 3.75-.565 3.749-3.31-.001-2.609-.397-3.039-3.036-3.297-1.669-.164-3.356.024-3.749.416m66.536.087c-1.735.334-2.25 1.117-2.25 3.424 0 2.844.183 2.976 3.75 2.68 3.424-.283 3.777-.593 4.063-3.56.33-3.42-.07-3.602-5.563-2.544M282 516c0 3.905.083 4 3.5 4s3.5-.095 3.5-4-.083-4-3.5-4-3.5.095-3.5 4m88.25-3.294c-2.968.571-3.434 8.303-.5 8.28 4.921-.038 6.25-1.123 6.25-5.103 0-4.075-.282-4.23-5.75-3.177m87.345.162c-2.475.538-2.919 1.128-3 3.977-.114 3.993.513 4.51 4.429 3.65 2.684-.59 2.976-1.039 2.976-4.574 0-2.157-.337-3.868-.75-3.803s-2.057.403-3.655.75m84.655-.206c-.687.278-1.25 2.042-1.25 3.921 0 3.121.257 3.417 2.965 3.417 3.151 0 5.035-2.22 5.035-5.934 0-2.052-3.394-2.758-6.75-1.404m76 0c-.687.278-1.25 2.069-1.25 3.982 0 3.406.076 3.47 3.75 3.166 3.546-.293 3.767-.514 4.06-4.06.293-3.533.148-3.745-2.5-3.671-1.545.043-3.372.306-4.06.583m75.417.005c-.367.366-.667 2.219-.667 4.116 0 3.09.235 3.387 2.25 2.847 1.237-.331 3.038-.609 4-.616 1.331-.011 1.75-.853 1.75-3.514 0-3.3-.19-3.5-3.333-3.5-1.834 0-3.634.3-4 .667m66.583.039c-3.464.667-3.311 7.294.168 7.294 4.343 0 5.582-1.023 5.582-4.607 0-3.537-.391-3.719-5.75-2.687m65.5.01c-2.385.362-2.75.872-2.75 3.85 0 3.622.957 4.088 5.75 2.804 2.516-.675 3.464-7.515 1-7.22-.687.082-2.487.337-4 .566m-554.083.951c-.367.366-.667 2.391-.667 4.5 0 3.337.299 3.833 2.309 3.833 3.561 0 5.822-2.138 5.296-5.009-.251-1.37-.49-2.828-.531-3.241-.092-.928-5.492-.999-6.407-.083m261.583.056c-3.067.381-3.25.632-3.25 4.465 0 4.016.035 4.055 3.125 3.437 1.719-.344 3.519-.625 4-.625s.875-1.8.875-4-.337-3.928-.75-3.84-2.212.342-4 .563m152 .066c-2.995.311-3.25.617-3.25 3.899 0 3.456.093 3.543 3.125 2.937 1.719-.344 3.519-.625 4-.625 1.065 0 1.18-5.746.125-6.215-.413-.183-2.212-.181-4 .004m-424.583.878c-.367.366-.667 2.391-.667 4.5 0 3.387.281 3.833 2.418 3.833 4.501 0 5.582-.989 5.582-5.107 0-3.745-.126-3.893-3.333-3.893-1.834 0-3.634.3-4 .667m96.896.23c-.305.494-.275 2.294.066 4 .547 2.735 1.021 3.103 3.996 3.103 3.271 0 3.375-.123 3.375-4 0-3.892-.093-4-3.441-4-1.893 0-3.691.404-3.996.897M444 518c0 3.905.083 4 3.5 4s3.5-.095 3.5-4-.083-4-3.5-4-3.5.095-3.5 4m162.667-3.333c-.367.366-.667 2.223-.667 4.125 0 3.34.107 3.437 3.125 2.833 1.719-.344 3.519-.625 4-.625s.875-1.575.875-3.5c0-3.3-.19-3.5-3.333-3.5-1.834 0-3.634.3-4 .667m141.503.207c-1.355.859-1.286 6.214.08 6.157.413-.017 2.1-.031 3.75-.031 2.762 0 3-.278 3-3.5 0-3.155-.271-3.498-2.75-3.485-1.513.009-3.349.395-4.08.859m65.58-.185c-1.24.324-1.75 1.463-1.75 3.903 0 3.239.165 3.41 2.75 2.844 4.946-1.084 5.25-1.34 5.25-4.405 0-3.117-1.348-3.623-6.25-2.342m-562 1c-1.292.338-1.75 1.486-1.75 4.384 0 3.821.094 3.927 3.5 3.927 3.481 0 3.5-.024 3.5-4.5 0-4.676-.513-5.049-5.25-3.811m96.5-.027c-.71.287-1.25 2.247-1.25 4.538 0 3.695.189 3.983 2.25 3.43 1.238-.331 2.813-.609 3.5-.616.789-.009 1.25-1.488 1.25-4.014 0-4.066-1.618-5.005-5.75-3.338m87.5.062c-2.465.366-2.75.817-2.75 4.342 0 4.258.839 4.706 5.498 2.935 2.191-.833 2.577-1.528 2.315-4.173-.337-3.418-.846-3.73-5.063-3.104m85.5-.062c-.687.278-1.25 2.071-1.25 3.985 0 3.323.146 3.466 3.25 3.166 2.967-.286 3.277-.639 3.56-4.063.317-3.821-1.391-4.77-5.56-3.088m76 .044c-1.821.35-2.25 1.099-2.25 3.924 0 3.422.074 3.485 3.75 3.18 3.546-.293 3.767-.514 4.06-4.06.329-3.969.046-4.124-5.56-3.044m75-.044c-1.341.541-1.746 5.929-.5 6.66.413.242 2.212.217 4-.055 2.93-.445 3.25-.828 3.25-3.88 0-3.047-.276-3.379-2.75-3.308-1.513.043-3.312.306-4 .583m-430.5 1.054c-2.535.384-2.75.772-2.75 4.957 0 3.73.283 4.433 1.582 3.934.87-.334 2.445-.607 3.5-.607 1.607 0 1.918-.731 1.918-4.5 0-2.475-.338-4.433-.75-4.35-.412.082-1.988.337-3.5.566m96.5-.01c-1.878.361-2.25 1.083-2.25 4.364 0 4.067.525 4.432 4.75 3.3 1.844-.494 2.25-1.305 2.25-4.487 0-3.963-.15-4.063-4.75-3.177m172.5-.017c-1.272.333-1.75 1.476-1.75 4.184 0 3.669.053 3.719 3.5 3.317 3.33-.389 3.5-.598 3.5-4.299 0-4.016-.64-4.406-5.25-3.202M588 517c-3.238.463-3.5.762-3.5 4 0 3.399.101 3.49 3.5 3.155 4.34-.429 4.197-.269 3.816-4.305-.303-3.214-.458-3.33-3.816-2.85m75-.111c-1.901.524-2.575 1.459-2.813 3.9-.307 3.139-.223 3.211 3.75 3.211H668v-4c0-4.171-.356-4.392-5-3.111m74 2.611c0 3.613.607 3.98 4.75 2.87 1.674-.449 2.25-1.342 2.25-3.487 0-2.628-.309-2.883-3.5-2.883-3.333 0-3.5.167-3.5 3.5m65 0c0 3.613.607 3.98 4.75 2.87 1.674-.449 2.25-1.342 2.25-3.487 0-2.628-.309-2.883-3.5-2.883-3.333 0-3.5.167-3.5 3.5m-379.333-1.833c-.367.366-.667 2.193-.667 4.06 0 3.31.092 3.386 3.75 3.083 3.546-.293 3.767-.514 4.06-4.06.303-3.658.227-3.75-3.083-3.75-1.867 0-3.694.3-4.06.667m305.583.039c-1.828.352-2.25 1.097-2.25 3.971 0 2.814.323 3.413 1.582 2.93.87-.334 2.445-.607 3.5-.607 1.525 0 1.918-.716 1.918-3.5 0-3.555-.198-3.671-4.75-2.794m65.5.01c-2.405.365-2.75.862-2.75 3.967 0 3.194.226 3.49 2.25 2.947 1.237-.331 2.813-.609 3.5-.616.759-.009 1.25-1.388 1.25-3.514 0-1.925-.337-3.433-.75-3.35s-1.987.337-3.5.566m-565.083.951c-.367.366-.667 2.448-.667 4.625 0 3.9.046 3.949 3.125 3.333 1.719-.344 3.519-.625 4-.625s.875-1.8.875-4c0-3.867-.111-4-3.333-4-1.834 0-3.634.3-4 .667m96.333 3.94c0 3.79.28 4.499 1.582 4 .87-.334 2.67-.607 4-.607 2.154 0 2.418-.436 2.418-4v-4h-8zm87.25-3.945c-1.175.475-1.8 6.455-.781 7.474.259.258 2.059.284 4 .057 3.366-.393 3.531-.594 3.531-4.302 0-3.597-.208-3.885-2.75-3.812-1.512.043-3.312.306-4 .583M498 522c0 3.564.264 4 2.418 4 4.343 0 5.582-1.023 5.582-4.607 0-3.292-.119-3.393-4-3.393h-4zm77.75-3.311c-1.237.324-1.75 1.462-1.75 3.884 0 3.25.181 3.427 3.5 3.427 3.417 0 3.5-.095 3.5-4 0-4.134-.615-4.522-5.25-3.311m74.25 3.428c0 3.781.183 4.067 2.25 3.513 1.237-.331 2.813-.609 3.5-.616.759-.009 1.25-1.388 1.25-3.514 0-3.333-.167-3.5-3.5-3.5-3.433 0-3.5.079-3.5 4.117m67.835-3.409c-5.563.853-4.861 8.127.721 7.475 3.266-.381 3.444-.603 3.444-4.292 0-2.14-.337-3.824-.75-3.741s-1.949.333-3.415.558m-498.585.998c-1.878.361-2.25 1.083-2.25 4.364 0 3.825.094 3.93 3.5 3.93 3.481 0 3.5-.024 3.5-4.5 0-4.62-.09-4.692-4.75-3.794m95.417-.039c-1.575 1.574-.694 8.333 1.083 8.319 4.921-.038 6.25-1.123 6.25-5.103 0-3.734-.128-3.883-3.333-3.883-1.834 0-3.634.3-4 .667m89.583.146c-3.063.296-3.25.54-3.25 4.25 0 3.717.17 3.937 3.031 3.937 3.352 0 4.272-1.373 3.789-5.655-.287-2.555-.651-2.813-3.57-2.532m84.5-.141c-1.241.337-1.75 1.488-1.75 3.962 0 3.418.074 3.481 3.75 3.176 3.56-.294 3.75-.487 3.75-3.81 0-3.627-1.484-4.486-5.75-3.328m153 .044c-2.385.362-2.75.872-2.75 3.85 0 3.258.18 3.434 3.5 3.434 3.417 0 3.5-.095 3.5-4 0-2.2-.337-3.933-.75-3.85s-1.987.337-3.5.566m139.5-.075c-.687.289-1.25 2.072-1.25 3.961 0 3.228.167 3.4 2.75 2.834 5.09-1.116 5.391-1.364 5.067-4.18-.318-2.763-3.349-3.97-6.567-2.615m-573.5 1.048c-1.342.351-1.75 1.514-1.75 4.991 0 3.724.283 4.425 1.582 3.927.87-.334 2.67-.607 4-.607 2.199 0 2.418-.407 2.418-4.5 0-4.725-.826-5.228-6.25-3.811m98 0c-2.118.554-2.586 8.32-.5 8.297 4.41-.048 5.75-1.237 5.75-5.103 0-4.008-.642-4.398-5.25-3.194m173.5.1c-3.078.32-3.25.553-3.25 4.399 0 4.016.035 4.055 3.125 3.437 1.719-.344 3.519-.625 4-.625 1.064 0 1.181-6.746.125-7.215-.413-.183-2.212-.181-4 .004m83.75 3.23c0 3.864.106 3.996 2.75 3.417 4.946-1.084 5.25-1.34 5.25-4.405 0-2.87-.213-3.031-4-3.031h-4zm142.25-3.357c-2.045.825-1.6 7.341.5 7.324 4.718-.036 6.25-1.165 6.25-4.603 0-3.043-.276-3.375-2.75-3.304-1.513.043-3.312.306-4 .583m66.5.062c-2.387.355-2.75.862-2.75 3.842 0 3.083.281 3.432 2.75 3.419 4.001-.023 5.455-1.316 5.08-4.516-.358-3.057-.924-3.362-5.08-2.745M390 525.299v4.299l3.5-.408c3.33-.389 3.5-.598 3.5-4.299 0-3.78-.1-3.891-3.5-3.891-3.457 0-3.5.052-3.5 4.299m162.667-3.632c-.367.366-.667 2.223-.667 4.125 0 3.34.107 3.437 3.125 2.833 1.719-.344 3.519-.625 4-.625s.875-1.575.875-3.5c0-3.3-.19-3.5-3.333-3.5-1.834 0-3.634.3-4 .667m77.083.022c-1.252.328-1.75 1.468-1.75 4.009 0 3.445.094 3.533 3.125 2.927 1.719-.344 3.519-.625 4-.625s.875-1.575.875-3.5c0-3.628-1.148-4.144-6.25-2.811m-433.851 1.061c-.195 1.443.29 7.753.623 8.095.184.19 1.717.042 3.406-.329 2.792-.613 3.072-1.032 3.072-4.595 0-3.814-.095-3.921-3.5-3.921-1.925 0-3.546.337-3.601.75m97.768-.083c-.367.366-.667 2.166-.667 4 0 3.143.2 3.333 3.5 3.333 3.417 0 3.5-.095 3.5-4 0-3.725-.194-4-2.833-4-1.559 0-3.134.3-3.5.667m86.583-.026c-.704.296-1.25 2.272-1.25 4.522 0 3.985.009 3.994 3.25 3.299 4.369-.937 4.263-.819 4.16-4.617-.092-3.381-2.618-4.695-6.16-3.204m85.75 3.422c0 3.982.065 4.057 3.25 3.75 2.967-.286 3.277-.639 3.56-4.063.306-3.689.253-3.75-3.25-3.75-3.496 0-3.56.073-3.56 4.063m78-3.168c-2.03.555-2.56 1.407-2.818 4.529-.298 3.59-.165 3.804 2 3.224 1.275-.341 3.133-.627 4.128-.634 1.473-.011 1.753-.698 1.5-3.687-.337-3.991-1.012-4.472-4.81-3.432m149.667-.228c-.367.366-.667 2.175-.667 4.019 0 3.136.177 3.313 2.75 2.75 4.946-1.084 5.25-1.34 5.25-4.405 0-2.769-.289-3.031-3.333-3.031-1.834 0-3.634.3-4 .667m65.583-.005c-2.045.825-1.6 7.341.5 7.324 4.718-.036 6.25-1.165 6.25-4.603 0-3.043-.276-3.375-2.75-3.304-1.513.043-3.312.306-4 .583m-572.5 1.027c-2.661.696-2.506 8.311.168 8.311 3.976 0 5.082-1.112 5.082-5.107 0-4.018-.639-4.409-5.25-3.204m96.5-.027c-.701.283-1.25 2.224-1.25 4.421 0 3.425.29 3.917 2.309 3.917 3.979 0 5.824-2.086 5.09-5.754-.643-3.217-2.572-4.027-6.149-2.584m88 .127c-3.059.318-3.25.569-3.25 4.274 0 3.497.27 3.937 2.418 3.937 4.322 0 5.582-1.027 5.582-4.548 0-3.848-.352-4.119-4.75-3.663m86-.066c-3.048.379-3.25.648-3.25 4.34 0 4.166.809 4.631 5.75 3.307 1.844-.494 2.25-1.305 2.25-4.487 0-2.135-.337-3.811-.75-3.723s-2.212.342-4 .563m160.417-.056c-.367.366-.667 1.968-.667 3.56 0 2.732.209 2.876 3.75 2.583 3.424-.283 3.777-.593 4.063-3.56.298-3.09.147-3.25-3.083-3.25-1.868 0-3.697.3-4.063.667m67.583.056c-2.958.367-3.25.713-3.25 3.84 0 3.625.956 4.091 5.75 2.807 1.771-.475 2.25-1.323 2.25-3.987 0-1.86-.337-3.311-.75-3.223s-2.212.342-4 .563m-413 .939c-.706.285-1.25 2.236-1.25 4.482v3.977l3.75-.311c3.64-.301 3.759-.435 4.057-4.56.296-4.079.195-4.247-2.5-4.171-1.544.043-3.369.306-4.057.583m258.95.538c-.66.66-1.2 2.487-1.2 4.06 0 2.694.218 2.843 3.75 2.55 3.546-.293 3.767-.514 4.06-4.06.293-3.532.144-3.75-2.55-3.75-1.573 0-3.4.54-4.06 1.2m75.467-.533c-1.545 1.544-.688 7.333 1.083 7.319 4.718-.036 6.25-1.165 6.25-4.603 0-3.167-.212-3.383-3.333-3.383-1.834 0-3.634.3-4 .667M748 527.874c0 3.839.029 3.867 3.25 3.214 2.76-.559 3.297-1.143 3.563-3.873.3-3.077.161-3.215-3.25-3.215-3.471 0-3.563.1-3.563 3.874m-484.75-2.151c-3.048.379-3.25.648-3.25 4.34 0 3.926.011 3.937 4 3.937h4v-4.5c0-2.475-.337-4.428-.75-4.34s-2.212.342-4 .563m95.155.042c-1.728 1.16-.512 8.49 1.293 7.797.806-.309 2.329-.562 3.384-.562 1.571 0 1.918-.724 1.918-4 0-3.701-.206-3.999-2.75-3.985-1.512.009-3.243.346-3.845.75M444 529.063c0 3.982.065 4.057 3.25 3.75 2.967-.286 3.277-.639 3.56-4.063.306-3.689.253-3.75-3.25-3.75-3.496 0-3.56.073-3.56 4.063m78.75-3.347c-2.478.376-2.75.817-2.75 4.457 0 3.274.3 3.926 1.582 3.434.87-.334 2.445-.607 3.5-.607 1.571 0 1.918-.724 1.918-4 0-2.2-.337-3.933-.75-3.85s-1.987.337-3.5.566m75.75.162c-1.991.426-2.972 1.227-2.917 2.382.254 5.298.297 5.352 3.917 4.93 3.33-.389 3.5-.598 3.5-4.299 0-2.14-.337-3.838-.75-3.773s-2.1.407-3.75.76m73.75-.216c-.687.278-1.25 2.095-1.25 4.038 0 3.176.227 3.472 2.25 2.93 1.237-.331 3.038-.609 4-.616 1.331-.011 1.75-.853 1.75-3.514 0-3.171-.259-3.493-2.75-3.421-1.513.043-3.312.306-4 .583m-323 1.044c-1.891.364-2.25 1.078-2.25 4.48 0 3.709.188 3.997 2.25 3.444 1.238-.331 2.813-.609 3.5-.616.789-.009 1.25-1.488 1.25-4.014 0-4.087-.138-4.183-4.75-3.294m86-.01c-1.874.369-2.25 1.096-2.25 4.349 0 3.866.033 3.899 3.25 3.286 1.788-.34 3.321-.666 3.407-.725.087-.058.312-1.668.5-3.576.363-3.675-.433-4.216-4.907-3.334m228.25.182c-2.554.546-3.015 1.123-3.1 3.882-.096 3.11.055 3.24 3.75 3.24 3.825 0 3.85-.026 3.85-4 0-2.2-.337-3.947-.75-3.882s-2.1.407-3.75.76m73.5 2.729c0 2.878.32 3.484 1.582 3 .87-.334 2.445-.607 3.5-.607 1.464 0 1.918-.709 1.918-3 0-2.762-.278-3-3.5-3-3.353 0-3.5.151-3.5 3.607m-485.75-1.945c-.701.283-1.25 2.224-1.25 4.421 0 4.053.528 4.418 4.75 3.287 1.844-.494 2.25-1.305 2.25-4.487 0-3.942-1.659-4.871-5.75-3.221m259 0c-.687.278-1.25 2.071-1.25 3.985 0 3.323.146 3.466 3.25 3.166 2.967-.286 3.277-.639 3.56-4.063.317-3.821-1.391-4.77-5.56-3.088m76.5.054c-2.396.363-2.75.867-2.75 3.911 0 3.426.073 3.488 3.75 3.183 3.546-.293 3.767-.514 4.06-4.06.219-2.637-.078-3.706-1-3.6-.72.082-2.547.337-4.06.566m141-.027c-1.25.327-1.75 1.467-1.75 3.991 0 2.812.323 3.41 1.582 2.927.87-.334 2.445-.607 3.5-.607 1.525 0 1.918-.716 1.918-3.5 0-3.594-.739-3.99-5.25-2.811m-486.5 1.017c-1.878.361-2.25 1.083-2.25 4.364 0 3.825.094 3.93 3.5 3.93 3.481 0 3.5-.024 3.5-4.5 0-4.62-.09-4.692-4.75-3.794M336 532c0 3.905.083 4 3.5 4s3.5-.095 3.5-4-.083-4-3.5-4-3.5.095-3.5 4m86.667-3.333c-.367.366-.667 2.193-.667 4.06 0 3.31.092 3.386 3.75 3.083 3.546-.293 3.767-.514 4.06-4.06.303-3.658.227-3.75-3.083-3.75-1.867 0-3.694.3-4.06.667m78.083.057c-2.461.366-2.75.819-2.75 4.317 0 3.873.03 3.903 3.25 3.277 3.83-.745 4.862-1.944 4.509-5.241-.284-2.66-.923-2.96-5.009-2.353m76-.008c-2.478.376-2.75.817-2.75 4.457 0 3.274.3 3.926 1.582 3.434.87-.334 2.445-.607 3.5-.607 1.571 0 1.918-.724 1.918-4 0-2.2-.337-3.933-.75-3.85s-1.987.337-3.5.566m74.5-.054c-2.169.876-1.581 7.338.668 7.338 3.825 0 5.082-1.14 5.082-4.607 0-3.424-1.852-4.303-5.75-2.731m66.5.054c-2.396.363-2.75.867-2.75 3.911 0 3.426.073 3.488 3.75 3.183 3.293-.272 3.734-.615 3.619-2.81-.234-4.466-.358-5.002-1.119-4.85-.413.082-1.987.337-3.5.566m-392.083.951c-1.575 1.574-.694 8.333 1.083 8.319 4.921-.038 6.25-1.123 6.25-5.103 0-3.734-.128-3.883-3.333-3.883-1.834 0-3.634.3-4 .667m87.583.039c-1.803.347-2.25 1.103-2.25 3.805 0 4.012.495 4.404 4.75 3.756 3.024-.46 3.25-.764 3.25-4.38 0-4.079-.281-4.235-5.75-3.181M228 534.519c0 4.792.189 4.879 6.561 3.001.6-.177.879-1.879.641-3.916-.391-3.347-.662-3.604-3.811-3.604-3.354 0-3.391.049-3.391 4.519m88.25-3.813c-1.885.363-2.25 1.08-2.25 4.424v3.991l3.75-.311c3.64-.301 3.759-.435 4.057-4.56.328-4.52.137-4.641-5.557-3.544m87 0c-3.104.598-3.412 8.294-.332 8.294 3.976 0 5.082-1.112 5.082-5.107 0-3.973-.149-4.073-4.75-3.187m84.417-.039c-.367.366-.667 2.193-.667 4.06 0 3.31.092 3.386 3.75 3.083 3.546-.293 3.767-.514 4.06-4.06.303-3.658.227-3.75-3.083-3.75-1.867 0-3.694.3-4.06.667m76.583-.005c-.687.278-1.25 2.042-1.25 3.921 0 3.214.2 3.417 3.375 3.417 3.279 0 4.625-2.074 4.625-7.125 0-.923-4.627-1.069-6.75-.213m74.75 3.445c0 3.334.298 3.993 1.582 3.5.87-.334 2.396-.607 3.39-.607 1.323 0 1.919-.941 2.218-3.5.403-3.458.362-3.5-3.391-3.5-3.782 0-3.799.018-3.799 4.107m66.75-3.418c-1.247.326-1.75 1.465-1.75 3.964 0 3.432.069 3.491 3.25 2.809 4.508-.967 4.75-1.197 4.75-4.521 0-3.02-1.392-3.521-6.25-2.252m-488.083.978c-.367.366-.667 2.391-.667 4.5 0 3.387.281 3.833 2.418 3.833 4.501 0 5.582-.989 5.582-5.107 0-3.745-.126-3.893-3.333-3.893-1.834 0-3.634.3-4 .667m261.583.122c-3.077.32-3.25.554-3.25 4.391 0 3.715.188 4.003 2.25 3.45 1.238-.331 3.038-.609 4-.616 1.325-.011 1.75-.85 1.75-3.455 0-3.96-.338-4.228-4.75-3.77m150.5-.1c-1.237.324-1.75 1.462-1.75 3.884 0 3.614.959 4.081 5.75 2.797 1.771-.475 2.25-1.323 2.25-3.987 0-3.5-1.194-4.015-6.25-2.694m-423.083.978c-.367.366-.667 2.664-.667 5.107 0 3.638.286 4.33 1.582 3.833.87-.334 2.67-.607 4-.607 2.199 0 2.418-.407 2.418-4.5 0-4.433-.049-4.5-3.333-4.5-1.834 0-3.634.3-4 .667M304 536c0 3.905.083 4 3.5 4s3.5-.095 3.5-4-.083-4-3.5-4-3.5.095-3.5 4m86.714-3.381c-.393.393-.714 2.428-.714 4.523 0 3.756.044 3.8 3.25 3.189 4.082-.777 3.841-.511 4.063-4.477.17-3.052-.086-3.381-2.849-3.651-1.67-.164-3.357.024-3.75.416M552 536.125c0 4.087.029 4.119 3.125 3.5 1.719-.344 3.519-.625 4-.625s.875-1.575.875-3.5c0-3.417-.095-3.5-4-3.5h-4zm141.667-3.458c-.367.366-.667 2.219-.667 4.116 0 3.09.235 3.387 2.25 2.847 1.237-.331 3.038-.609 4-.616 1.331-.011 1.75-.853 1.75-3.514 0-3.3-.19-3.5-3.333-3.5-1.834 0-3.634.3-4 .667m-494.917 1.049c-2.535.384-2.75.772-2.75 4.957 0 3.73.283 4.433 1.582 3.934.87-.334 2.445-.607 3.5-.607 1.607 0 1.918-.731 1.918-4.5 0-2.475-.338-4.433-.75-4.35-.412.082-1.988.337-3.5.566m96.5-.01c-1.885.363-2.25 1.08-2.25 4.427 0 3.903.074 3.987 3.25 3.68 3.051-.294 3.269-.574 3.557-4.563.32-4.419.254-4.471-4.557-3.544m86.5.018c-2.465.366-2.75.817-2.75 4.342 0 4.115.832 4.624 5.5 3.369 1.536-.413 1.997-1.378 1.988-4.157-.012-3.864-.449-4.191-4.738-3.554m84.917-.057c-.367.366-.667 2.195-.667 4.063 0 3.23.16 3.381 3.25 3.083 2.967-.286 3.277-.639 3.56-4.063.293-3.541.149-3.75-2.583-3.75-1.592 0-3.194.3-3.56.667m76.083.022c-3.01.787-2.413 7.311.668 7.311 4.343 0 5.582-1.023 5.582-4.607 0-3.511-1.19-4.026-6.25-2.704m74.917-.022c-.367.366-.667 2.223-.667 4.125 0 3.34.107 3.437 3.125 2.833 1.719-.344 3.519-.625 4-.625s.875-1.575.875-3.5c0-3.3-.19-3.5-3.333-3.5-1.834 0-3.634.3-4 .667m67.083.049c-2.466.374-2.75.825-2.75 4.369 0 3.792.112 3.929 2.75 3.351 4.987-1.093 5.25-1.339 5.25-4.905 0-2.238-.458-3.476-1.25-3.381-.687.082-2.487.337-4 .566m-400.5.98c-1.913.377-2.25 1.083-2.25 4.716v4.273l3.724-.605c3.567-.58 3.725-.774 3.75-4.579.027-4.166-.701-4.696-5.224-3.805m172.5.02c-2.374.36-2.75.878-2.75 3.791 0 4.017.494 4.408 4.75 3.76 3.024-.46 3.25-.764 3.25-4.38 0-2.523-.439-3.834-1.25-3.737-.687.082-2.488.337-4 .566m76.75.157c-2.631.558-3.039 1.114-3.319 4.52-.318 3.88-.315 3.884 2.875 3.246 1.757-.352 3.588-.639 4.069-.639s.875-1.8.875-4-.337-3.947-.75-3.882-2.1.405-3.75.755m74.75-.167c-1.812.349-2.25 1.101-2.25 3.864 0 3.335.111 3.43 4 3.43h4v-4c0-4.203-.259-4.352-5.75-3.294m-422.583.961c-1.231 1.231-.733 8.334.583 8.319 4.41-.048 5.75-1.237 5.75-5.103 0-3.597-.209-3.883-2.833-3.883-1.559 0-3.134.3-3.5.667m183 0c-.367.366-.667 2.193-.667 4.06 0 3.31.092 3.386 3.75 3.083 3.546-.293 3.767-.514 4.06-4.06.303-3.658.227-3.75-3.083-3.75-1.867 0-3.694.3-4.06.667m303 0c-.911.91-.846 6.11.083 6.655.413.242 2.212.217 4-.055 2.93-.445 3.25-.828 3.25-3.88 0-3.172-.212-3.387-3.333-3.387-1.834 0-3.634.3-4 .667m-400 1c-.367.366-.667 2.439-.667 4.607 0 3.182.304 3.823 1.582 3.333.87-.334 2.67-.607 4-.607 2.154 0 2.418-.436 2.418-4 0-3.867-.111-4-3.333-4-1.834 0-3.634.3-4 .667m86.51.202c-1.925 1.221-.487 8.464 1.527 7.691.803-.308 2.323-.56 3.378-.56 1.571 0 1.918-.724 1.918-4 0-3.701-.206-3.999-2.75-3.985-1.512.009-3.345.393-4.073.854m86.49-.202c-.367.366-.667 2.166-.667 4 0 3.143.2 3.333 3.5 3.333 3.417 0 3.5-.095 3.5-4 0-3.725-.194-4-2.833-4-1.559 0-3.134.3-3.5.667m75.571.165c-.826.524-1.041 1.901-.625 3.984.565 2.824 1.019 3.184 4.012 3.184 3.271 0 3.375-.123 3.375-4 0-3.701-.206-3.999-2.75-3.985-1.513.009-3.318.376-4.012.817m75.429-.165c-.367.366-.667 2.223-.667 4.125 0 3.34.107 3.437 3.125 2.833 1.719-.344 3.519-.625 4-.625s.875-1.575.875-3.5c0-3.3-.19-3.5-3.333-3.5-1.834 0-3.634.3-4 .667m68.333.215c-3.064.541-3.539 1.023-3.813 3.868-.307 3.185-.232 3.25 3.75 3.25H668v-4c0-2.2-.112-3.941-.25-3.868s-1.825.41-3.75.75m-401.75.824c-1.885.363-2.25 1.08-2.25 4.424v3.991l3.75-.311c3.64-.301 3.759-.435 4.057-4.56.328-4.52.137-4.641-5.557-3.544m88.253.034c-3.488.513-4.467 1.714-4.488 5.51-.014 2.544.284 2.75 3.985 2.75h4v-4.5c0-2.475-.113-4.433-.25-4.35-.137.082-1.599.348-3.247.59m84.247-.068c-2.27.616-2.562 8.328-.315 8.328 4.291 0 6.694-1.977 6.378-5.249-.321-3.332-1.997-4.183-6.063-3.079m77.5.141c-3.075.297-3.25.53-3.25 4.33 0 4.007.007 4.014 3.25 3.32 4.111-.881 3.94-.66 3.566-4.613-.295-3.124-.535-3.329-3.566-3.037m75-.09c-2.946.366-3.25.72-3.25 3.781 0 4.02.494 4.411 4.75 3.763 3.024-.46 3.25-.764 3.25-4.38 0-2.138-.337-3.815-.75-3.727s-2.212.342-4 .563m64.5.966c-1.245.326-1.75 1.465-1.75 3.948 0 3.335.144 3.476 3.25 3.176 2.967-.286 3.277-.639 3.56-4.063.323-3.903-.328-4.297-5.06-3.061M250 543.299v4.299l3.5-.408c3.33-.389 3.5-.598 3.5-4.299 0-3.78-.1-3.891-3.5-3.891-3.457 0-3.5.052-3.5 4.299m86.667-3.632c-1.361 1.361-.718 8.333.768 8.333 4.231 0 6.565-1.947 6.565-5.475 0-3.328-.186-3.525-3.333-3.525-1.834 0-3.634.3-4 .667M422 543c0 4.234.792 4.698 5.75 3.37 1.771-.475 2.25-1.323 2.25-3.987 0-3.28-.122-3.383-4-3.383h-4zm77.75-3.311c-1.272.333-1.75 1.476-1.75 4.184 0 3.669.053 3.719 3.5 3.317 3.33-.389 3.5-.598 3.5-4.299 0-4.016-.64-4.406-5.25-3.202m75.5-.027c-.687.278-1.25 2.095-1.25 4.038 0 3.176.227 3.472 2.25 2.93 1.237-.331 2.813-.609 3.5-.616.759-.009 1.25-1.388 1.25-3.514 0-3.537-1.807-4.429-5.75-2.838m-336.215 2.272c-1.691 3.159-1.294 7.068.715 7.052 4.921-.038 6.25-1.123 6.25-5.103 0-3.638-.187-3.883-2.965-3.883-1.908 0-3.334.69-4 1.934M328 540.895c-3.633.994-4.346 8.113-.81 8.09 3.548-.024 4.97-1.403 5.148-4.992.177-3.593-.573-4.129-4.338-3.098m83.935 1.776c-1.231 3.238-.851 5.865.829 5.729.68-.055 2.361-.168 3.736-.25 2.225-.134 2.5-.59 2.5-4.15 0-3.785-.163-4-3.025-4-2.358 0-3.248.589-4.04 2.671m78.565-1.741c-2.642.51-3.038 1.042-3.318 4.459-.298 3.627-.168 3.84 2 3.259 1.275-.341 2.845-.627 3.489-.634 1.432-.017 2.864-5.928 1.68-6.937-.468-.399-2.201-.465-3.851-.147m75.75-.117c-3.059.295-3.25.543-3.25 4.225 0 3.874.032 3.906 3.25 3.293 4.127-.785 3.938-.547 3.566-4.481-.295-3.124-.535-3.329-3.566-3.037m73.417-.146c-1.214 1.213-.726 7.334.583 7.319 4.214-.046 5.75-1.275 5.75-4.603 0-3.048-.281-3.383-2.833-3.383-1.559 0-3.134.3-3.5.667m-409.917 1.005c-1.295.351-1.75 1.512-1.75 4.462v3.987l3.75-.311c3.657-.302 3.75-.41 3.75-4.31 0-4.161-1.31-5.033-5.75-3.828m401.5.117c-2.971.309-3.25.633-3.25 3.774 0 2.968.33 3.437 2.418 3.437 4.124 0 5.582-1.057 5.582-4.048 0-3.324-.43-3.611-4.75-3.163m-316.583.878c-.367.366-.667 2.166-.667 4 0 3.222.133 3.333 4 3.333h4v-4c0-3.867-.111-4-3.333-4-1.834 0-3.634.3-4 .667M401 546c0 3.905.083 4 3.5 4s3.5-.095 3.5-4-.083-4-3.5-4-3.5.095-3.5 4m76.75-3.311c-1.245.326-1.75 1.465-1.75 3.945 0 3.418.074 3.481 3.75 3.176 3.546-.293 3.767-.514 4.06-4.06.325-3.927-.722-4.456-6.06-3.061m75.5-.027c-.687.278-1.25 2.069-1.25 3.982 0 3.406.076 3.47 3.75 3.166 3.546-.293 3.767-.514 4.06-4.06.293-3.533.148-3.745-2.5-3.671-1.545.043-3.372.306-4.06.583m-335.583 1.005c-.367.366-.667 2.448-.667 4.625 0 3.9.046 3.949 3.125 3.333 1.719-.344 3.519-.625 4-.625s.875-1.8.875-4c0-3.867-.111-4-3.333-4-1.834 0-3.634.3-4 .667m88.083.022c-2.661.696-2.506 8.311.168 8.311 3.976 0 5.082-1.112 5.082-5.107 0-4.018-.639-4.409-5.25-3.204m86 0c-1.302.341-1.75 1.491-1.75 4.491 0 3.268.301 3.919 1.582 3.427.87-.334 2.445-.607 3.5-.607 1.571 0 1.918-.724 1.918-4 0-4.134-.615-4.522-5.25-3.311m227 0c-1.251.327-1.75 1.467-1.75 4.001 0 3.186.227 3.483 2.25 2.94 1.237-.331 3.038-.609 4-.616 1.331-.011 1.75-.853 1.75-3.514 0-3.628-1.148-4.144-6.25-2.811m-412.083.978c-.367.366-.667 2.448-.667 4.625 0 3.9.046 3.949 3.125 3.333 1.719-.344 3.519-.625 4-.625s.875-1.8.875-4c0-3.867-.111-4-3.333-4-1.834 0-3.634.3-4 .667m88.333.222c-1.854.511-2.567 1.455-2.761 3.65-.364 4.14.731 5.285 4.511 4.72 3.099-.463 3.25-.69 3.25-4.872 0-4.584-.301-4.794-5-3.498m86.75-.173c-2.472.375-2.75.821-2.75 4.414 0 3.907.073 3.99 3.25 3.683 3.051-.294 3.269-.574 3.557-4.563.17-2.337-.055-4.183-.5-4.1-.444.082-2.045.337-3.557.566m83.813.181c-.305.494-.27 2.318.077 4.054.565 2.822.96 3.123 3.746 2.852 2.812-.274 3.144-.667 3.424-4.053.305-3.678.244-3.75-3.191-3.75-1.925 0-3.751.404-4.056.897m76.104-.23c-1.223 1.222-.73 7.338.583 7.233 4.425-.353 6.017-1.539 6.263-4.667.238-3.027.049-3.233-2.963-3.233-1.769 0-3.517.3-3.883.667m67.833.206c-2.578.547-3.042 1.142-3.301 4.232l-.302 3.597 3.802-.613c3.539-.57 3.822-.87 4.111-4.351.171-2.056-.054-3.685-.5-3.62-.445.065-2.16.405-3.81.755m-410.75.843c-2.463.373-2.75.827-2.75 4.35 0 3.829.093 3.934 3.5 3.934 3.481 0 3.5-.024 3.5-4.5 0-2.475-.338-4.433-.75-4.35-.412.082-1.988.337-3.5.566m258 0c-2.479.376-2.75.816-2.75 4.467 0 3.712.188 4 2.25 3.447 1.238-.331 3.038-.609 4-.616 1.373-.011 1.75-.876 1.75-4.014 0-2.613-.433-3.948-1.25-3.85-.687.082-2.488.337-4 .566m75-.027c-1.302.341-1.75 1.491-1.75 4.491 0 3.268.301 3.919 1.582 3.427.87-.334 2.67-.607 4-.607 2.154 0 2.418-.436 2.418-4 0-4.175-.972-4.69-6.25-3.311m-248.5.973c-2.067.834-1.616 8.341.5 8.324 4.921-.038 6.25-1.123 6.25-5.103 0-3.589-.209-3.877-2.75-3.804-1.512.043-3.312.306-4 .583m85.417.005c-.756.756-.915 6.752-.198 7.469.259.258 2.059.284 4 .057 3.366-.393 3.531-.594 3.531-4.302 0-3.743-.127-3.891-3.333-3.891-1.834 0-3.634.3-4 .667m227.583-.005c-.687.278-1.25 2.069-1.25 3.982 0 3.406.076 3.47 3.75 3.166 3.546-.293 3.767-.514 4.06-4.06.293-3.533.148-3.745-2.5-3.671-1.545.043-3.372.306-4.06.583m-410 1c-2.194.886-1.597 8.338.668 8.338 3.976 0 5.082-1.112 5.082-5.107 0-3.953-1.656-4.883-5.75-3.231m87.5.062c-2.473.368-2.75.811-2.75 4.403v3.994l3.75-.311c3.642-.301 3.75-.423 3.75-4.227 0-4.162-.419-4.502-4.75-3.859m87 .059c-1.765.225-2.755.953-2.764 2.033-.007.926-.293 2.727-.634 4.002-.581 2.168-.368 2.298 3.263 2 3.607-.295 3.908-.559 4.208-3.695.382-3.997-.38-4.809-4.073-4.34m83.25 3.28c0 3.982.065 4.057 3.25 3.75 2.967-.286 3.277-.639 3.56-4.063.306-3.689.253-3.75-3.25-3.75-3.496 0-3.56.073-3.56 4.063m76.667-3.396c-.367.366-.667 2.219-.667 4.116 0 3.09.235 3.387 2.25 2.847 1.237-.331 2.813-.609 3.5-.616.759-.009 1.25-1.388 1.25-3.514 0-3.176-.262-3.5-2.833-3.5-1.559 0-3.134.3-3.5.667m-85.917 1.022c-1.294.338-1.75 1.486-1.75 4.403 0 3.784.113 3.921 2.75 3.344 4.987-1.093 5.25-1.339 5.25-4.905 0-3.662-1.136-4.178-6.25-2.842m76.25.212c-2.048.574-2.5 1.325-2.5 4.15 0 1.897.337 3.337.75 3.199s2.1-.25 3.75-.25c2.833 0 3-.222 3-4 0-4.173-.365-4.4-5-3.099m74.667-.234c-.367.366-.667 2.219-.667 4.116 0 3.09.235 3.387 2.25 2.847 1.237-.331 2.813-.609 3.5-.616.759-.009 1.25-1.388 1.25-3.514 0-3.176-.262-3.5-2.833-3.5-1.559 0-3.134.3-3.5.667m-324.417.995c-.711.287-1.25 2.249-1.25 4.546 0 3.994.037 4.035 3.125 3.417 1.719-.344 3.519-.625 4-.625s.875-1.8.875-4c0-3.716-.195-3.994-2.75-3.921-1.512.043-3.312.306-4 .583m85.417.005c-.798.797-.878 4.619-.138 6.547.354.923 1.674 1.244 4 .972 3.297-.385 3.471-.6 3.471-4.295 0-3.743-.127-3.891-3.333-3.891-1.834 0-3.634.3-4 .667m230.083.049c-2.478.376-2.75.817-2.75 4.457 0 3.274.3 3.926 1.582 3.434.87-.334 2.445-.607 3.5-.607 1.571 0 1.918-.724 1.918-4 0-2.2-.337-3.933-.75-3.85s-1.987.337-3.5.566m-326 1.364c-1.141.665-1.75 2.242-1.75 4.53 0 3.445.07 3.505 3.75 3.2 3.64-.301 3.759-.435 4.057-4.56.33-4.56-1.777-5.663-6.057-3.17m86.5-.439c-.707.297-1.25 2.281-1.25 4.567 0 4.008.027 4.037 3.177 3.407 3.986-.798 3.981-.791 4.168-4.793.157-3.371-2.432-4.723-6.095-3.181m85.417.026c-.367.366-.667 2.193-.667 4.06 0 3.31.092 3.386 3.75 3.083 3.546-.293 3.767-.514 4.06-4.06.303-3.658.227-3.75-3.083-3.75-1.867 0-3.694.3-4.06.667M498 554c0 3.714.2 4 2.8 4 3.553 0 5.2-1.647 5.2-5.2 0-2.6-.286-2.8-4-2.8h-4zm-84.75-2.294c-1.803.347-2.25 1.103-2.25 3.805 0 4.012.495 4.404 4.75 3.756 3.024-.46 3.25-.764 3.25-4.38 0-4.079-.281-4.235-5.75-3.181m76.5.01c-2.479.376-2.75.816-2.75 4.467 0 3.712.188 4 2.25 3.447 1.238-.331 2.813-.609 3.5-.616.789-.009 1.25-1.488 1.25-4.014 0-2.2-.337-3.933-.75-3.85s-1.988.337-3.5.566m74.5-.054c-.687.278-1.25 2.095-1.25 4.038 0 3.176.227 3.472 2.25 2.93 1.237-.331 3.038-.609 4-.616 1.331-.011 1.75-.853 1.75-3.514 0-3.171-.259-3.493-2.75-3.421-1.513.043-3.312.306-4 .583m-325.583 1.005c-.756.756-.915 6.752-.198 7.469.259.258 2.059.284 4 .057 3.366-.393 3.531-.594 3.531-4.302 0-3.743-.127-3.891-3.333-3.891-1.834 0-3.634.3-4 .667m87 0c-.367.366-.667 2.166-.667 4 0 3.123.214 3.333 3.393 3.333 3.584 0 4.607-1.239 4.607-5.582 0-2.074-.475-2.418-3.333-2.418-1.834 0-3.634.3-4 .667m78.583.146c-3.082.297-3.25.524-3.25 4.375 0 4.03.025 4.057 3.177 3.427 4.037-.808 4.016-.779 3.639-4.765-.295-3.124-.535-3.329-3.566-3.037m151-.024c-3.062.318-3.25.566-3.25 4.293 0 3.795.112 3.932 2.75 3.354 4.94-1.083 5.25-1.339 5.25-4.346 0-3.469-.407-3.751-4.75-3.301m-326 .873c-.706.285-1.25 2.236-1.25 4.482v3.977l3.75-.311c3.64-.301 3.759-.435 4.057-4.56.296-4.079.195-4.247-2.5-4.171-1.544.043-3.369.306-4.057.583m88 .061c-3.048.379-3.25.648-3.25 4.34 0 4.091 1.886 5.069 6.418 3.33 1.603-.615 2.406-8.569.832-8.233-.413.088-2.212.342-4 .563m159.417-.056c-.367.366-.667 2.166-.667 4 0 2.858.344 3.333 2.418 3.333 4.343 0 5.582-1.023 5.582-4.607 0-3.179-.21-3.393-3.333-3.393-1.834 0-3.634.3-4 .667m-257.417 1.039c-1.931.372-2.25 1.063-2.25 4.883 0 4.333.072 4.433 2.75 3.847 5.066-1.11 5.25-1.3 5.25-5.405 0-4.237-.254-4.384-5.75-3.325m87.296.164c-2.576.553-2.96 1.082-3 4.132-.051 3.849.115 3.998 4.454 3.998 2.889 0 3-.167 3-4.5 0-2.475-.337-4.447-.75-4.382s-2.079.404-3.704.752m85.204-.181c-1.302.341-1.75 1.491-1.75 4.491 0 3.268.301 3.919 1.582 3.427.87-.334 2.445-.607 3.5-.607 1.571 0 1.918-.724 1.918-4 0-4.134-.615-4.522-5.25-3.311m76.5.017c-1.89.364-2.25 1.079-2.25 4.471 0 3.27.3 3.922 1.582 3.43.87-.334 2.445-.607 3.5-.607 1.571 0 1.918-.724 1.918-4 0-4.087-.138-4.183-4.75-3.294m74-.044c-.687.278-1.25 2.069-1.25 3.982 0 3.406.076 3.47 3.75 3.166 3.546-.293 3.767-.514 4.06-4.06.293-3.533.148-3.745-2.5-3.671-1.545.043-3.372.306-4.06.583m-335.583 2.005c-.367.366-.667 2.439-.667 4.607 0 3.182.304 3.823 1.582 3.333.87-.334 2.67-.607 4-.607 2.154 0 2.418-.436 2.418-4 0-3.867-.111-4-3.333-4-1.834 0-3.634.3-4 .667m87 0c-.367.366-.667 2.444-.667 4.616 0 3.609.195 3.898 2.25 3.347 1.238-.331 2.813-.609 3.5-.616.789-.009 1.25-1.488 1.25-4.014 0-3.725-.194-4-2.833-4-1.559 0-3.134.3-3.5.667m86 0c-.367.366-.667 2.195-.667 4.063 0 3.23.16 3.381 3.25 3.083 2.967-.286 3.277-.639 3.56-4.063.293-3.541.149-3.75-2.583-3.75-1.592 0-3.194.3-3.56.667m75.583-.005c-.687.278-1.25 2.042-1.25 3.921 0 3.32.114 3.417 4 3.417h4v-4c0-3.716-.195-3.994-2.75-3.921-1.512.043-3.312.306-4 .583m75.417.005c-1.545 1.544-.688 7.333 1.083 7.319 4.718-.036 6.25-1.165 6.25-4.603 0-3.167-.212-3.383-3.333-3.383-1.834 0-3.634.3-4 .667m-332.417 1.039c-1.885.363-2.25 1.08-2.25 4.427 0 3.903.074 3.987 3.25 3.68 3.051-.294 3.269-.574 3.557-4.563.32-4.419.254-4.471-4.557-3.544m87 .083c-3.059.318-3.25.569-3.25 4.274 0 3.809.11 3.937 3.393 3.937 3.571 0 4.607-1.242 4.607-5.523 0-2.829-.526-3.126-4.75-2.688m85-.083c-1.892.364-2.25 1.078-2.25 4.489 0 4.008.036 4.048 3.125 3.43 1.719-.344 3.519-.625 4-.625s.875-1.8.875-4c0-4.203-.259-4.352-5.75-3.294m77 .107c-3.082.297-3.25.524-3.25 4.375 0 4.03.025 4.057 3.177 3.427 4.037-.808 4.016-.779 3.639-4.765-.295-3.124-.535-3.329-3.566-3.037m75.5-.097c-2.479.376-2.75.816-2.75 4.467 0 3.712.188 4 2.25 3.447 1.237-.331 2.813-.609 3.5-.616.789-.009 1.25-1.488 1.25-4.014 0-2.2-.337-3.933-.75-3.85s-1.987.337-3.5.566m-334.5 1.097c-3.131.302-3.25.476-3.25 4.75 0 3.939.252 4.435 2.25 4.422 3.793-.026 4.904-1.384 4.565-5.584-.302-3.745-.445-3.889-3.565-3.588m171.75.082c-1.375.382-2.455 1.237-2.4 1.9s.167 2.359.25 3.768c.133 2.266.528 2.527 3.4 2.25 3.051-.294 3.269-.574 3.557-4.563.326-4.497.033-4.701-4.807-3.355m152.5.093c-2.655.461-3.037.968-3.319 4.405l-.318 3.884 3.245-.649c4.115-.823 4.085-.784 3.708-4.795-.295-3.142-.516-3.332-3.316-2.845m-239.75.701c-1.303.341-1.75 1.491-1.75 4.509 0 4.005.036 4.045 3.125 3.427 1.719-.344 3.519-.625 4-.625s.875-1.8.875-4c0-4.175-.972-4.69-6.25-3.311m162-.017c-1.296.352-1.75 1.513-1.75 4.481 0 3.996.008 4.004 3.25 3.31 3.965-.85 3.495-.312 3.905-4.463.361-3.658-1.031-4.515-5.405-3.328m-171.554 1.055c-3.207.396-3.295.531-3 4.59.291 4.005.432 4.168 3.304 3.832 4.238-.495 4.5-.798 4.5-5.208 0-2.168-.337-3.869-.75-3.781s-2.237.343-4.054.567m84.471-.06c-.367.366-.667 2.439-.667 4.607 0 3.182.304 3.823 1.582 3.333.87-.334 2.445-.607 3.5-.607 1.571 0 1.918-.724 1.918-4 0-3.725-.194-4-2.833-4-1.559 0-3.134.3-3.5.667m77.083.057c-2.465.366-2.75.817-2.75 4.342 0 3.629.213 3.933 2.75 3.919 4.16-.023 5.438-1.286 5.074-5.013-.348-3.564-.837-3.877-5.074-3.248m76.5.089c-3.059.295-3.25.543-3.25 4.225 0 3.874.032 3.906 3.25 3.293 4.127-.785 3.938-.547 3.566-4.481-.295-3.124-.535-3.329-3.566-3.037m-162 .91c-3.048.379-3.25.648-3.25 4.34 0 3.833.093 3.937 3.5 3.937 3.481 0 3.5-.024 3.5-4.5 0-2.475-.113-4.428-.25-4.34s-1.712.342-3.5.563m-89.552 1.027c-.23.413-.203 2.476.061 4.585.417 3.336.757 3.761 2.61 3.264 1.172-.314 2.694-.578 3.381-.585.789-.009 1.25-1.488 1.25-4.014 0-3.892-.093-4-3.441-4-1.893 0-3.63.337-3.861.75m164.052-.061c-1.302.341-1.75 1.491-1.75 4.491 0 3.268.301 3.919 1.582 3.427.87-.334 2.445-.607 3.5-.607 1.571 0 1.918-.724 1.918-4 0-4.134-.615-4.522-5.25-3.311m74.5-.027c-.687.278-1.25 2.069-1.25 3.982 0 3.406.076 3.47 3.75 3.166 3.546-.293 3.767-.514 4.06-4.06.293-3.533.148-3.745-2.5-3.671-1.545.043-3.372.306-4.06.583m-247.5 1.027c-1.292.338-1.75 1.486-1.75 4.384 0 3.821.094 3.927 3.5 3.927 3.481 0 3.5-.024 3.5-4.5 0-4.676-.513-5.049-5.25-3.811m86.5.017c-1.892.364-2.25 1.078-2.25 4.489 0 4.034.017 4.052 3.219 3.411 1.77-.354 3.522-.973 3.892-1.375 1.06-1.149-.208-7.247-1.474-7.095-.626.075-2.149.331-3.387.57m152.25.227c-2.62.503-3.039 1.051-3.31 4.321-.331 3.995.514 4.468 5.56 3.116 1.761-.472 2.25-1.325 2.25-3.928 0-3.896-.491-4.279-4.5-3.509m-248.25.856c-3.142.327-3.25.489-3.25 4.899v4.562l3.125-.625c1.719-.344 3.519-.625 4-.625 1.064 0 1.182-7.746.125-8.215-.412-.183-2.213-.181-4 .004m85.5-.073c-2.535.384-2.75.772-2.75 4.957 0 3.73.283 4.433 1.582 3.934.87-.334 2.67-.607 4-.607 2.199 0 2.418-.407 2.418-4.5 0-3.013-.413-4.45-1.25-4.35-.687.082-2.488.337-4 .566M401 568c0 3.905.083 4 3.5 4s3.5-.095 3.5-4-.083-4-3.5-4-3.5.095-3.5 4m-9.25-2.311c-1.303.341-1.75 1.491-1.75 4.501 0 3.705.188 3.993 2.25 3.44 1.238-.331 2.813-.609 3.5-.616.789-.009 1.25-1.488 1.25-4.014 0-4.134-.615-4.522-5.25-3.311m76.5.017c-1.89.364-2.25 1.079-2.25 4.471 0 3.27.3 3.922 1.582 3.43.87-.334 2.445-.607 3.5-.607 1.571 0 1.918-.724 1.918-4 0-4.087-.138-4.183-4.75-3.294m-250 .956c-.701.283-1.25 2.224-1.25 4.421 0 3.4.297 3.915 2.25 3.902 3.394-.023 4.497-1.12 5.27-5.237.681-3.633.614-3.746-2.159-3.669-1.573.043-3.423.306-4.111.583m85.347.182c-.287.464-.249 2.524.084 4.579.519 3.196.91 3.654 2.713 3.17 1.158-.311 2.669-.572 3.356-.579.789-.009 1.25-1.488 1.25-4.014 0-3.892-.093-4-3.441-4-1.893 0-3.676.38-3.962.844m-7.347.879c-3.048.379-3.25.648-3.25 4.34 0 3.833.093 3.937 3.5 3.937 3.481 0 3.5-.024 3.5-4.5 0-2.475-.113-4.428-.25-4.34s-1.712.342-3.5.563m83.417-.056c-.367.366-.667 2.301-.667 4.299 0 3.562.067 3.625 3.5 3.224 3.33-.389 3.5-.598 3.5-4.299 0-3.606-.208-3.891-2.833-3.891-1.559 0-3.134.3-3.5.667m76 0c-1.646 1.646-.676 7.333 1.251 7.333 3.825 0 5.082-1.14 5.082-4.607 0-3.059-.279-3.393-2.833-3.393-1.559 0-3.134.3-3.5.667M206 572.519c0 4.409.067 4.504 2.75 3.917 4.987-1.093 5.25-1.339 5.25-4.905 0-3.453-.088-3.531-4-3.531h-4zm163.25-3.857c-.711.287-1.25 2.249-1.25 4.546 0 3.994.037 4.035 3.125 3.417 1.719-.344 3.519-.625 4-.625s.875-1.8.875-4c0-3.716-.195-3.994-2.75-3.921-1.512.043-3.312.306-4 .583m77.5.054c-2.479.376-2.75.816-2.75 4.467 0 3.712.188 4 2.25 3.447 1.238-.331 2.813-.609 3.5-.616.789-.009 1.25-1.488 1.25-4.014 0-2.2-.337-3.933-.75-3.85s-1.988.337-3.5.566m-250.083.951c-.367.366-.667 2.42-.667 4.563 0 3.794.086 3.888 3.25 3.583 3.051-.294 3.269-.574 3.557-4.563.296-4.091.2-4.25-2.583-4.25-1.59 0-3.191.3-3.557.667m87.083.022c-2.118.554-2.586 8.32-.5 8.297 4.41-.048 5.75-1.237 5.75-5.103 0-4.008-.642-4.398-5.25-3.194m-97 1c-1.343.351-1.75 1.515-1.75 5.001 0 4.224.158 4.501 2.25 3.94 1.238-.331 2.813-.609 3.5-.616.813-.009 1.25-1.588 1.25-4.514 0-4.676-.513-5.049-5.25-3.811m86.5.007c-1.883.371-2.25 1.093-2.25 4.434v3.991l3.75-.311c3.654-.302 3.75-.412 3.75-4.296 0-4.177-.731-4.709-5.25-3.818m84.678-.446c-.04.138-.153 1.938-.25 4.001-.176 3.699-.126 3.75 3.572 3.75 3.708-.001 3.75-.046 3.75-4.001 0-3.905-.083-4-3.5-4-1.925 0-3.533.112-3.572.25m75.739.417c-.367.366-.667 2.166-.667 4 0 3.121.216 3.333 3.383 3.333 3.506 0 4.717-1.974 3.832-6.25-.36-1.744-5.103-2.529-6.548-1.083m-84.417 1.039c-1.891.364-2.25 1.078-2.25 4.48 0 3.709.188 3.997 2.25 3.444 1.238-.331 2.813-.609 3.5-.616.789-.009 1.25-1.488 1.25-4.014 0-4.087-.138-4.183-4.75-3.294m-88.583.961c-.367.366-.667 2.448-.667 4.625 0 3.9.046 3.949 3.125 3.333 1.719-.344 3.519-.625 4-.625s.875-1.8.875-4c0-3.867-.111-4-3.333-4-1.834 0-3.634.3-4 .667m162 0c-.367.366-.667 2.166-.667 4 0 2.858.344 3.333 2.418 3.333 4.343 0 5.582-1.023 5.582-4.607 0-3.179-.21-3.393-3.333-3.393-1.834 0-3.634.3-4 .667m-170.417 1.039c-1.878.361-2.25 1.083-2.25 4.364 0 3.825.094 3.93 3.5 3.93 3.481 0 3.5-.024 3.5-4.5 0-4.62-.09-4.692-4.75-3.794m85.5-.017c-1.272.333-1.75 1.476-1.75 4.184 0 3.669.053 3.719 3.5 3.317 3.33-.389 3.5-.598 3.5-4.299 0-4.016-.64-4.406-5.25-3.202m76.5.1c-2.959.307-3.25.641-3.25 3.715 0 4.029 1.051 4.863 5.024 3.991 2.581-.567 2.976-1.1 2.976-4.015 0-3.877-.348-4.148-4.75-3.691m-87 .917c-1.878.361-2.25 1.083-2.25 4.364 0 3.624.214 3.929 2.75 3.915 4.467-.025 5.603-1.288 4.837-5.375-.373-1.986-1.22-3.549-1.882-3.474-.663.075-2.217.331-3.455.57m-87.583.961c-.367.366-.667 2.444-.667 4.616 0 3.609.195 3.898 2.25 3.347 1.238-.331 2.813-.609 3.5-.616.789-.009 1.25-1.488 1.25-4.014 0-3.725-.194-4-2.833-4-1.559 0-3.134.3-3.5.667m162 0c-1.646 1.646-.676 7.333 1.251 7.333 3.825 0 5.082-1.14 5.082-4.607 0-3.059-.279-3.393-2.833-3.393-1.559 0-3.134.3-3.5.667m-171.417 1.039c-1.878.361-2.25 1.083-2.25 4.364 0 3.638.208 3.93 2.8 3.93 3.682 0 5.2-1.664 5.2-5.7 0-3.435-.415-3.622-5.75-2.594m83.75 3.911c0 4.299.155 4.575 2.25 4.013 1.238-.331 3.038-.609 4-.616 1.373-.011 1.75-.876 1.75-4.014v-4h-8zm78.25-3.911c-1.89.364-2.25 1.079-2.25 4.471 0 3.27.3 3.922 1.582 3.43.87-.334 2.445-.607 3.5-.607 1.571 0 1.918-.724 1.918-4 0-4.087-.138-4.183-4.75-3.294m-86 1c-1.885.363-2.25 1.08-2.25 4.427 0 3.903.074 3.987 3.25 3.68 3.051-.294 3.269-.574 3.557-4.563.32-4.419.254-4.471-4.557-3.544m-88.583.961c-.367.366-.667 2.448-.667 4.625 0 3.9.046 3.949 3.125 3.333 1.719-.344 3.519-.625 4-.625s.875-1.8.875-4c0-3.867-.111-4-3.333-4-1.834 0-3.634.3-4 .667m162 0c-.367.366-.667 2.193-.667 4.06 0 3.31.092 3.386 3.75 3.083 3.605-.298 3.751-.455 3.782-4.06.031-3.538-.144-3.75-3.083-3.75-1.714 0-3.416.3-3.782.667m-171.417 1.039c-1.939.373-2.25 1.06-2.25 4.971 0 3.726.283 4.429 1.582 3.93.87-.334 2.67-.607 4-.607 2.199 0 2.418-.407 2.418-4.5 0-4.753-.174-4.868-5.75-3.794m86.5-.017c-1.303.341-1.75 1.491-1.75 4.501 0 3.705.188 3.993 2.25 3.44 1.238-.331 2.813-.609 3.5-.616.789-.009 1.25-1.488 1.25-4.014 0-4.134-.615-4.522-5.25-3.311m76.75.184c-2.631.558-3.039 1.114-3.319 4.52-.318 3.88-.315 3.884 2.875 3.246 1.757-.352 3.588-.639 4.069-.639s.875-1.8.875-4-.337-3.947-.75-3.882-2.1.405-3.75.755m-173 1.005c-1.65.353-2.955 1.2-2.9 1.882s.167 2.619.25 4.303c.139 2.829.399 3.04 3.4 2.75 3.116-.3 3.263-.508 3.555-5.063.167-2.612-.058-4.697-.5-4.632-.443.065-2.155.407-3.805.76m86.75-.065c-3.128.302-3.25.479-3.25 4.725v4.412l3.25-.607c4.184-.782 4.445-1.149 3.794-5.343-.506-3.256-.771-3.478-3.794-3.187m73.573.862c-1.371.363-1.699 6.42-.431 7.956.059.073 1.57-.091 3.358-.363 3.024-.461 3.25-.765 3.25-4.381 0-4.038-1.028-4.573-6.177-3.212m-173.156.992c-.367.366-.667 2.42-.667 4.563 0 3.794.086 3.888 3.25 3.583 3.051-.294 3.269-.574 3.557-4.563.296-4.091.2-4.25-2.583-4.25-1.59 0-3.191.3-3.557.667m86 0c-1.575 1.574-.694 8.333 1.083 8.319 4.921-.038 6.25-1.123 6.25-5.103 0-3.734-.128-3.883-3.333-3.883-1.834 0-3.634.3-4 .667m78.083.049c-1.738.264-2.755 1.036-2.764 2.1-.007.926-.285 2.697-.616 3.934-.63 2.351 2.2 3.12 6.048 1.643 1.603-.615 2.405-8.557.832-8.243-.413.082-1.988.337-3.5.566m-86.5 1.007c-3.048.379-3.25.648-3.25 4.34 0 3.926.011 3.937 4 3.937h4v-4.5c0-2.475-.337-4.428-.75-4.34s-2.212.342-4 .563m73.417.944c-.367.366-.667 2.439-.667 4.607 0 3.182.304 3.823 1.582 3.333.87-.334 2.445-.607 3.5-.607 1.571 0 1.918-.724 1.918-4 0-3.725-.194-4-2.833-4-1.559 0-3.134.3-3.5.667m-85.417.995c-2.194.886-1.597 8.338.668 8.338 3.976 0 5.082-1.112 5.082-5.107 0-3.953-1.656-4.883-5.75-3.231m-9.5 1.054c-2.472.375-2.75.821-2.75 4.414 0 3.907.073 3.99 3.25 3.683 3.051-.294 3.269-.574 3.557-4.563.17-2.337-.055-4.183-.5-4.1-.444.082-2.045.337-3.557.566M325 590.06v4.061l3.75-.311c3.546-.293 3.767-.514 4.06-4.06l.311-3.75H325zm-8.25-2.344c-2.463.373-2.75.827-2.75 4.35 0 4.163.81 4.628 5.75 3.304 2.545-.682 3.499-8.52 1-8.22-.687.082-2.488.337-4 .566m-87.5.946c-.71.287-1.25 2.247-1.25 4.538 0 3.695.189 3.983 2.25 3.43 1.238-.331 2.813-.609 3.5-.616.789-.009 1.25-1.488 1.25-4.014 0-4.066-1.618-5.005-5.75-3.338m-9.5 1.062c-2.527.376-2.75.77-2.75 4.861 0 4.337.072 4.437 2.75 3.851 5.245-1.15 5.383-1.289 5.061-5.101-.332-3.93-.777-4.247-5.061-3.611m86-.035c-1.294.338-1.75 1.486-1.75 4.403 0 3.797.104 3.921 2.75 3.289 4.061-.971 4.25-1.19 4.25-4.94 0-3.53-.756-3.926-5.25-2.752m-10.25 1.189c-1.65.353-2.887.975-2.75 1.382s.25 2.09.25 3.74c0 2.762.278 3 3.5 3 3.481 0 3.5-.024 3.5-4.5 0-2.475-.337-4.447-.75-4.382s-2.1.407-3.75.76m-88.833.789c-.367.366-.667 2.391-.667 4.5 0 3.387.281 3.833 2.418 3.833 4.501 0 5.582-.989 5.582-5.107 0-3.745-.126-3.893-3.333-3.893-1.834 0-3.634.3-4 .667m-8.417 1.039c-1.939.373-2.25 1.06-2.25 4.971 0 3.726.283 4.429 1.582 3.93.87-.334 2.445-.607 3.5-.607 1.607 0 1.918-.731 1.918-4.5 0-4.62-.09-4.692-4.75-3.794m84.417-.039c-.367.366-.667 2.427-.667 4.579 0 3.891.018 3.909 3.25 3.216 4.568-.98 4.75-1.172 4.75-5.021 0-3.233-.201-3.441-3.333-3.441-1.834 0-3.634.3-4 .667m-8.417 1.127c-3.069.314-3.25.555-3.25 4.33v3.997l3.75-.311c3.456-.286 3.775-.575 4.073-3.687.389-4.076-.336-4.763-4.573-4.329m-87.5.895c-2.661.696-2.506 8.311.168 8.311 3.976 0 5.082-1.112 5.082-5.107 0-4.018-.639-4.409-5.25-3.204m75.5 1.017c-2.968.571-3.434 8.303-.5 8.28 4.921-.038 6.25-1.123 6.25-5.103 0-4.075-.282-4.23-5.75-3.177m-9.5 1.01c-2.51.38-2.75.793-2.75 4.724v4.307l3.25-.659c2.979-.605 3.276-1.01 3.557-4.874.17-2.318-.055-4.147-.5-4.064-.444.082-2.045.337-3.557.566m-12 1.973c-1.303.341-1.75 1.491-1.75 4.501 0 3.705.188 3.993 2.25 3.44 1.238-.331 2.813-.609 3.5-.616.789-.009 1.25-1.488 1.25-4.014 0-4.134-.615-4.522-5.25-3.311M228 604.607c0 3.79.28 4.499 1.582 4 .87-.334 2.688-.607 4.04-.607 2.241 0 2.438-.354 2.223-4-.232-3.924-.308-4-4.041-4H228zm-8.75-2.901c-1.885.363-2.25 1.08-2.25 4.424v3.991l3.75-.311c3.64-.301 3.759-.435 4.057-4.56.328-4.52.137-4.641-5.557-3.544M209 602.889c-1.928.532-2.574 1.454-2.823 4.027-.41 4.244.651 5.268 4.636 4.472 3-.601 3.187-.895 3.187-5.013 0-4.571-.303-4.782-5-3.486m-10.75 1.817c-3.104.598-3.412 8.294-.332 8.294 3.976 0 5.082-1.112 5.082-5.107 0-3.973-.149-4.073-4.75-3.187m-12.583 1.961c-.916.915-.844 7.105.089 7.682.415.257 1.99.231 3.5-.058 2.431-.464 2.744-.967 2.744-4.408 0-3.597-.209-3.883-2.833-3.883-1.559 0-3.134.3-3.5.667"/></svg>