<svg xmlns="http://www.w3.org/2000/svg" viewBox="0 0 1024 1024"><path fill="#00e5cc" d="m362.75 173.78-12.75.28v625.168l4 3.507c2.62 2.296 4 4.349 4 5.951 0 6.572 5.565 11.314 13.279 11.314 3.141 0 4.932.576 6.221 2 .995 1.1 2.18 2 2.631 2 .452 0 3.181 2.25 6.064 5s5.598 5 6.033 5c.434 0 2.203 1.35 3.929 3 1.727 1.65 3.748 3 4.491 3 .744 0 1.352.423 1.352.94s1.688 1.079 3.75 1.25c2.941.243 3.815.769 4.053 2.436.288 2.013 5.197 7.612 5.197 5.926 0-.438.604-.295 1.343.318.956.793 3.479.837 8.75.153 4.074-.529 10.24-.975 13.702-.992 6.933-.034 10.254-2.105 11.53-7.19.765-3.049 2.667-3.309 35.675-4.886 11.275-.538 27.7-1.42 36.5-1.959a8263 8263 0 0 1 70-3.983c10.45-.548 21.614-1.283 24.81-1.634 5.354-.587 5.854-.47 6.367 1.492.306 1.171.98 2.129 1.499 2.129.518 0 .695.399.394.887-1.707 2.762 2.912 3.601 18.179 3.304 16.99-.33 18.997-1.059 20.61-7.486.528-2.102 1.288-2.712 3.41-2.737 1.502-.017 3.519-.629 4.481-1.36 1.66-1.26 1.75-17.524 1.75-316.799V194.338l-2.25-1.179c-1.237-.649-3.487-1.273-5-1.387s-2.75-.56-2.75-.99-1.323-.782-2.941-.782-3.219-.45-3.559-1-1.948-1-3.573-1-3.736-.395-4.691-.877c-2.889-1.46-8.746-3.123-10.998-3.123-1.166 0-2.398-.45-2.738-1s-1.69-1-3-1-2.631-.402-2.935-.894-2.243-1.15-4.309-1.462c-8.951-1.352-11.256-1.916-11.256-2.753 0-.49-1.26-.891-2.8-.891s-3.363-.562-4.05-1.25c-1.15-1.15-200.222-1.94-244.4-.97m9.25 6.235c0 .569 1.35 1.305 3 1.635s3 1.02 3 1.534.37.706.822.426 2.078.144 3.614.941 3.416 1.449 4.178 1.449 1.386.352 1.386.782 1.212.882 2.694 1.005 2.944.558 3.25.968c2.771 3.714 3.424 3.734 129.525 4.014 83.144.184 121.644-.056 120.947-.753-1.151-1.151-11.47-4.016-14.465-4.016-1.073 0-1.951-.45-1.951-1s-1.548-1-3.441-1-3.719-.45-4.059-1-1.572-1-2.738-1c-2.092 0-7.172-1.423-13.762-3.856-2.949-1.088-232-1.216-232-.129m-16 307.969V794l13.25-.003c10.812-.002 30.519-1.512 31.482-2.411.128-.12.293-133.524.368-296.455.13-284.071.062-296.292-1.662-297.553-.989-.723-3.967-1.905-6.618-2.627s-4.82-1.708-4.82-2.191-.37-.65-.822-.37c-.452.279-2.078-.144-3.614-.941S380.148 190 379.386 190s-1.386-.477-1.386-1.059-.37-.831-.822-.551-1.924-.064-3.271-.763c-1.348-.699-4.578-1.9-7.179-2.667-2.6-.768-4.728-1.653-4.728-1.966s-1.35-.671-3-.797l-3-.229zM408.352 199.5c-.741.55-1.392 2.125-1.446 3.5-.353 8.978.451 579.543.823 583.75l.464 5.25h5.844c3.215 0 6.089-.395 6.388-.879.299-.483.539-63.595.534-140.25-.005-76.654.036-155.796.091-175.871.056-20.075.109-86.675.12-148s.232-112.287.492-113.25c.447-1.654 6.788-1.75 115.312-1.75h114.839l.385 10.25c.212 5.637.486 129.95.609 276.25s.24 274.605.261 285.123l.038 19.122 6.835 6.628c3.759 3.645 7.11 6.627 7.447 6.627 1.32 0 .682-616.99-.638-617.185-5.402-.799-257.299-.131-258.398.685m16.595 38.75c-.065 27.307-.06 226.53.006 232.691.044 4.124.152 4.302 1.515 2.5.808-1.067 1.483-2.927 1.5-4.132.018-1.205.482-2.469 1.032-2.809s1-1.321 1-2.181c0-2.19 10.017-22.319 11.107-22.319.491 0 .894-.562.894-1.25.001-.687 1.126-2.557 2.5-4.156S447 433.361 447 432.96c0-1.06 19.198-20.095 19.731-19.563.246.247 1.825-.866 3.507-2.474s3.667-2.923 4.41-2.923 1.352-.402 1.352-.893c0-1.09 20.129-11.107 22.319-11.107.86 0 1.809-.398 2.11-.885.3-.486 2.015-1.178 3.809-1.538a789 789 0 0 0 8.262-1.724c7.478-1.603 39.052-2.211 44.475-.857 18.202 4.546 21.025 5.382 21.025 6.222 0 .43.862.782 1.915.782 2.138 0 17.396 7.778 17.918 9.134.184.476.859.867 1.5.867.642.001 2.474 1.126 4.073 2.5 1.598 1.375 3.227 2.499 3.62 2.499s4.823 4.089 9.844 9.086l9.13 9.087V216H425zM632 328.917c0 68.267.366 113.048.925 113.25.509.183 1.071 1.008 1.25 1.833s.604 1.725.946 2c1.176.946 6.879 12.945 6.879 14.471 0 .841.45 1.529 1 1.529s1 .873 1 1.941.399 2.188.887 2.489c.487.301 1.18 2.112 1.538 4.024 2.264 12.067 2.575-3.014 2.575-124.895V216h-17zm-110.5-83.693c-1.65.556-3.781 1.408-4.736 1.894-.955.485-2.418.882-3.25.882-.833 0-1.514.477-1.514 1.059s-.414.803-.919.491-1.599.111-2.429.941-1.879 1.515-2.331 1.522c-1.672.028-15.674 11.968-14.918 12.723.243.244-.872 1.82-2.48 3.502s-2.923 3.667-2.923 4.41-.45 1.352-1 1.352-1 .9-1 2-.45 2-1 2-1 .81-1 1.8-.378 2.227-.839 2.75c-4.533 5.133-3.769 33.512 1.169 43.41.919 1.841 1.67 3.953 1.67 4.694 0 .74.45 1.346 1 1.346s1 .608 1 1.352c0 .743 1.35 2.764 3 4.491s3 3.541 3 4.032c0 1.617 12.754 12.09 14.75 12.112.688.007 1.25.408 1.25.892 0 .908 5.389 3.474 6.595 3.139.375-.104.965.27 1.312.831.347.562 1.747 1.174 3.112 1.361s3.088.721 3.83 1.186c2.145 1.343 27.011 1.144 28.382-.227.643-.643 2.429-1.169 3.969-1.169s2.8-.45 2.8-1 1.04-1 2.311-1c1.272 0 3.399-1.012 4.727-2.25s2.651-2.095 2.939-1.906c1.821 1.199 19.976-17.486 20.01-20.594.007-.687.463-1.25 1.013-1.25s1-.606 1-1.346.751-2.853 1.67-4.694c3.42-6.855 5.257-29.013 3.065-36.96-2.295-8.319-3.259-11-3.953-11-.43 0-.782-.9-.782-2s-.45-2-1-2-1-.608-1-1.352c0-.743-1.35-2.764-3-4.491s-3-3.502-3-3.945c0-1.006-7.312-8.212-8.334-8.212-.412 0-1.716-.9-2.896-2-1.181-1.1-2.737-2-3.459-2-.721 0-1.311-.45-1.311-1s-.9-1-2-1-2-.45-2-1-.681-1-1.514-1c-.832 0-2.295-.395-3.25-.877-6.209-3.137-28.542-4.324-35.736-1.899m7 4.865c-2.75.324-5.9.928-7 1.343-4.097 1.544-11.011 5.093-11.333 5.818-.184.413-1.003.75-1.822.75-.818 0-2.131.643-2.916 1.429-1.639 1.638-1.914 4.571-.429 4.571 1.518 0 1.195 4.948-.429 6.571-1.623 1.624-6.571 1.947-6.571.429 0-1.412-2.911-1.244-4.333.25-1.697 1.783-7.373 13.689-8.224 17.25-1.346 5.633-1.608 22.83-.419 27.461s4.898 13.128 6.132 14.048c.376.281.832 1.17 1.014 1.977.712 3.163 5.83 5.809 5.83 3.014 0-1.518 4.948-1.195 6.571.429 1.871 1.87 1.821 5.322-.106 7.248-2.09 2.091-.626 3.708 6.71 7.411 10.032 5.064 14.622 6.209 25.325 6.314 10.207.1 22.94-2.868 26.331-6.137.731-.706 1.813-.985 2.404-.62.637.394.783.194.36-.49-.392-.635-.204-1.155.417-1.155.622 0 1.699-.568 2.393-1.262 1.414-1.414 1.714-4.738.428-4.738-1.34 0-.957-5.74.417-6.251.688-.256 3.171-.28 5.519-.055 4.318.416 6.386-.674 7.056-3.718.179-.812.741-1.626 1.25-1.809s.925-1.196.925-2.25.45-1.917 1-1.917 1-.9 1-2 .401-2 .891-2c2.212 0 4.024-26.376 2.127-30.957-.614-1.481-1.19-3.672-1.28-4.868s-.518-2.175-.951-2.175-.787-.632-.787-1.405c0-1.693-3.974-9.541-5.814-11.481-.981-1.034-1.603-1.097-2.45-.25-1.593 1.593-6.599 1.416-8.307-.293-1.624-1.623-1.947-6.571-.429-6.571 1.411 0 1.244-2.904-.25-4.367-1.389-1.359-12.578-6.864-17.25-8.486-3.68-1.277-16.235-1.855-23-1.058m-3.084 13.398c-4.346 1.373-10.586 4.355-11.416 5.455-.275.365-2.187 1.931-4.25 3.48-2.062 1.548-3.75 3.272-3.75 3.829s-.833 1.742-1.852 2.632c-4.434 3.872-8.121 14.748-8.137 24.001-.012 6.68 1.651 14.097 3.44 15.351.577.404.7.741.273.75-1.123.022 2.246 6.231 4.406 8.117 1.008.88 1.602 1.833 1.318 2.116-.428.429 2.978 3.653 8.146 7.71 8.477 6.656 25.535 9.046 36.348 5.093 2.978-1.088 5.671-2.326 5.986-2.75s1.229-.915 2.032-1.091c1.709-.375 15.276-14.277 14.596-14.957-.253-.254.197-1.119 1.001-1.923s1.206-1.875.893-2.381-.151-.919.359-.919 1.286-1.913 1.725-4.25c1.522-8.114.482-25.75-1.518-25.75-.421 0-1.028-1.31-1.348-2.912s-1.614-3.99-2.875-5.309-2.787-3.27-3.391-4.338c-.604-1.067-2.064-2.431-3.244-3.03s-1.849-1.387-1.485-1.75c.363-.364-.09-.661-1.006-.661-.917 0-1.667-.45-1.667-1s-.9-1-2-1-2-.45-2-1-.9-1-2-1-2-.45-2-1-1.35-1-3-1-3-.45-3-1c0-1.438-15.66-1.068-20.584.487M572.5 266c-.399.646-.276 1.624.274 2.174q1 1 1.726-.174c.399-.646.276-1.624-.274-2.174q-1-1-1.726.174m-73.5 1c0 .55.675 1 1.5 1s1.5-.45 1.5-1-.675-1-1.5-1-1.5.45-1.5 1m27 .188c-6.253 2.631-7.611 3.317-9.25 4.674-.962.796-1.75 1.141-1.75.767 0-.375-1.913 1.244-4.25 3.597-3.823 3.849-6.618 8.497-9.481 15.774-1.385 3.519-1.644 19.65-.329 20.463.583.36 1.06 1.535 1.06 2.61 0 2.049 1.633 5.406 3.75 7.71.688.748 1.25 1.763 1.25 2.255 0 1.417 6.687 7.728 8.95 8.446 1.128.358 2.05 1.018 2.05 1.467s.788 1.077 1.75 1.396c.962.32 3.55 1.266 5.75 2.102 4.726 1.797 18.153 2.055 22.203.426 5.714-2.297 7.846-3.419 9.736-5.125 1.066-.962 2.324-1.75 2.795-1.75 1.274 0 5.066-4.112 6.685-7.25.78-1.512 1.793-2.75 2.25-2.75s.831-.9.831-2 .477-2 1.059-2 .831-.37.551-.822.078-1.951.795-3.331c1.616-3.116 2.141-19.392.655-20.31-.583-.36-1.06-1.753-1.06-3.096s-.45-2.441-1-2.441-1-.9-1-2-.374-2-.831-2-1.47-1.238-2.25-2.75c-1.619-3.138-5.411-7.25-6.685-7.25-.471 0-1.729-.788-2.795-1.75-1.89-1.706-4.022-2.828-9.736-5.125-3.48-1.4-18.331-1.357-21.703.063M530 287c0 .55-.695 1-1.545 1-4.42 0-8.455 7.159-8.455 15 0 7.795 4.033 15 8.396 15 .817 0 1.764.45 2.104 1 .844 1.366 12.131 1.268 14.739-.128 2.699-1.444 6.189-4.934 7.633-7.633 1.251-2.338 1.566-15.239.372-15.239-.416 0-1.342-1.324-2.058-2.942s-2.626-3.528-4.244-4.244-2.942-1.642-2.942-2.058-3.15-.756-7-.756c-4 0-7 .429-7 1m-2.885 6.671c-5.075 5.145-4.994 13.471.185 18.961 3.462 3.669 3.886 3.832 9.625 3.7 5.395-.124 6.378-.492 9.706-3.631 3.475-3.279 3.702-3.864 3.702-9.531 0-5.604-.259-6.296-3.621-9.658-3.463-3.463-3.895-3.612-9.946-3.416-5.732.186-6.638.521-9.651 3.575m45.077 45.404c.197.591.785 1.075 1.308 1.075s1.111-.484 1.308-1.075S574.417 338 573.5 338s-1.505.484-1.308 1.075M524.5 395.871c-3.85.346-7.489.947-8.086 1.337-.597.389-2.766.82-4.82.959-2.054.138-3.954.607-4.223 1.042s-1.561.791-2.871.791-2.66.45-3 1-1.379.996-2.309.992c-2.129-.011-18.031 7.889-20.63 10.248-1.066.968-2.315 1.76-2.776 1.76s-2.365 1.39-4.232 3.088-3.688 3.019-4.049 2.934c-1.095-.256-4.501 4.175-3.924 5.107.296.479 1.219.871 2.05.871 1.971 0 4.37 2.432 4.37 4.429 0 2.477 2.734 1.842 6.157-1.429 1.727-1.65 3.543-3 4.037-3s2.031-1.134 3.416-2.519c1.386-1.386 2.94-2.259 3.455-1.941.514.318.935.149.935-.376 0-1.103 12.144-7.164 14.354-7.164.813 0 1.629-.446 1.813-.991.183-.546 1.571-1.094 3.083-1.218 1.512-.125 2.75-.579 2.75-1.009s1.71-.782 3.8-.782 4.271-.471 4.846-1.046c1.914-1.914 38.605-.447 44.354 1.774.825.319 2.625.763 4 .987s2.65.83 2.833 1.346 1.133.939 2.11.939c2.285 0 14.057 6.051 14.057 7.226 0 .491.421.632.935.314.515-.318 1.998.443 3.296 1.691s2.924 2.389 3.614 2.536c.69.146 2.833 1.845 4.762 3.773 2.968 2.968 6.498 4.056 4.93 1.52-.638-1.032 2.834-5.06 4.362-5.06 1.917 0 2.405-2.838.77-4.474-.84-.839-1.896-1.528-2.348-1.531s-2.171-1.24-3.821-2.75-4.237-3.384-5.75-4.164-2.75-1.793-2.75-2.25-.9-.831-2-.831-2.004-.337-2.008-.75c-.009-.877-4.834-3.25-6.608-3.25-.67 0-1.367-.347-1.551-.772-.283-.657-14.425-5.433-24.333-8.217-4.221-1.186-24.642-1.892-33-1.14m-6.5 23.143c-1.375.465-4.525 1.42-7 2.122-5.495 1.557-19.779 8.603-22.439 11.067-1.066.989-2.31 1.797-2.764 1.797-1.342 0-17.171 16.298-18.716 19.27-.78 1.502-1.738 2.73-2.129 2.73-.39 0-1.269 1.35-1.952 3s-1.638 3-2.121 3-.879.9-.879 2-.375 2-.833 2c-.459 0-.867.563-.908 1.25-.098 1.645-2.589 8.111-3.371 8.75-.336.275-.871 1.85-1.188 3.5s-1.135 5.025-1.816 7.5c-2.151 7.811-1.444 35.414 1.064 41.5.453 1.1 1.418 4.025 2.144 6.5 1.936 6.605 8.854 19.962 12.095 23.353 1.547 1.619 2.813 3.335 2.813 3.814 0 1.07 12.663 13.831 13.731 13.838.423.002 2.132 1.24 3.798 2.75s3.687 2.894 4.491 3.075 1.69.632 1.971 1c.872 1.147 9.124 5.17 10.604 5.17.773 0 1.405.45 1.405 1s1.098 1 2.441 1 2.688.4 2.991.89c.661 1.07 5.048 1.865 17.161 3.111 11.983 1.232 29.353-.535 35.231-3.585 1.393-.722 2.902-1.085 3.354-.806.452.28.822.031.822-.551s.612-1.059 1.36-1.059c2.151 0 12.989-5.883 16.733-9.084 1.874-1.601 3.753-2.912 4.176-2.914 1.22-.003 12.977-12.158 15.731-16.262 1.375-2.05 2.837-3.729 3.25-3.733s.75-.597.75-1.318.788-2.202 1.75-3.289 1.899-2.631 2.08-3.43c.182-.798.632-1.68 1-1.961.369-.28.806-1.142.972-1.915s1.178-3.22 2.25-5.438c1.071-2.217 1.948-4.757 1.948-5.644s.404-2.039.898-2.562c2.243-2.375 4.028-34.748 2.169-39.357-.575-1.426-1.149-4.09-1.275-5.919s-.581-3.543-1.011-3.809-.781-1.272-.781-2.236-.9-3.616-2-5.893-2-4.836-2-5.688-.45-1.548-1-1.548-1-.694-1-1.542-.456-2.086-1.014-2.75c-2.053-2.445-5.908-8.708-5.361-8.708.311 0-3.473-4.05-8.409-9s-9.458-9-10.05-9c-.591 0-2.108-1.028-3.371-2.283-2.718-2.704-18.344-10.717-20.899-10.717-.978 0-2.025-.4-2.328-.89-1.378-2.23-38.95-3.998-44.568-2.096m2 10.05c-1.375.469-4.638 1.419-7.25 2.112s-4.75 1.612-4.75 2.042-.337.729-.75.664c-2.111-.334-4.069.292-5.85 1.868-1.088.962-2.636 1.896-3.439 2.075-.804.179-1.611.741-1.794 1.25s-.904.925-1.602.925-2.607 1.238-4.244 2.75-3.841 3.271-4.898 3.907c-1.058.636-1.811 1.649-1.673 2.25s-.242.981-.843.843c-.601-.137-1.614.613-2.25 1.667s-2.564 3.452-4.284 5.328-3.97 5.171-5 7.322-2.21 3.915-2.623 3.922c-.413.006-.75.911-.75 2.011s-.45 2-1 2-1 .873-1 1.941-.45 2.219-1 2.559-1 1.716-1 3.059-.36 2.441-.801 2.441c-.804 0-2.715 10.156-3.669 19.5-.752 7.359 1.903 28.5 3.579 28.5.49 0 .891 1.098.891 2.441s.45 2.719 1 3.059 1 1.491 1 2.559.45 1.941 1 1.941 1 .9 1 2 .45 2 1 2 1 .59 1 1.311c0 .722.873 2.249 1.94 3.394s1.723 2.298 1.459 2.563c-.647.647 17.375 18.732 18.667 18.732.56 0 1.984.9 3.164 2s2.737 2 3.459 2c.721 0 1.311.45 1.311 1s.9 1 2 1 2 .352 2 .782 2.137 1.395 4.75 2.145 5.201 1.711 5.751 2.134c.551.424 2.351.963 4 1.197s3.725.746 4.612 1.138c3.974 1.756 36.887-.532 36.887-2.564 0-.523.37-.722.822-.442s2.078-.144 3.614-.941 3.416-1.449 4.178-1.449 1.386-.477 1.386-1.059.414-.803.919-.491 1.519.002 2.25-.691c.732-.692 2.568-1.898 4.081-2.678s2.75-1.793 2.75-2.25.656-.831 1.457-.831c1.62 0 18.543-16.505 18.543-18.085 0-.549.9-1.965 2-3.145 1.1-1.181 2-2.737 2-3.459 0-.721.45-1.311 1-1.311s1-.9 1-2 .45-2 1-2 1-.873 1-1.941.45-2.219 1-2.559 1-1.498 1-2.573.395-2.736.877-3.691c2.455-4.858 3.174-10.232 3.185-23.794.007-8.128-.343-15.04-.778-15.36s-.941-1.932-1.124-3.582c-.182-1.65-.743-3.427-1.246-3.95-.503-.522-.914-1.958-.914-3.191s-.45-2.519-1-2.859-1-1.491-1-2.559-.477-1.941-1.059-1.941-.803-.414-.491-.919-.111-1.599-.941-2.429-1.509-2.216-1.509-3.081-.45-1.571-1-1.571-1-.621-1-1.379c0-.759-1.687-3.16-3.75-5.336s-4.216-4.766-4.786-5.755c-.57-.99-1.47-1.849-2-1.909-.53-.059-2.706-1.799-4.835-3.865S582.112 442 581.32 442s-1.16-.45-.82-1-.084-1-.941-1-1.559-.45-1.559-1-.9-1-2-1-2-.395-2-.879c0-.908-5.389-3.474-6.595-3.139-.375.104-.957-.19-1.293-.652-.842-1.156-7.287-3.33-9.874-3.33-1.166 0-2.398-.45-2.738-1-.755-1.221-29.891-1.165-33.5.064m-57.312.582c-1.541 1.54-.648 4.354 1.382 4.354 1.555 0 1.99-.539 1.75-2.172-.332-2.255-1.94-3.375-3.132-2.182M608 430.941c0 1.068.399 2.188.887 2.489 1.218.753 3.438-2.095 2.64-3.386-1.095-1.771-3.527-1.153-3.527.897m-79.5.363c-9.498 1.274-24.697 6.517-29 10.004-.55.446-2.35 1.677-4 2.737a814 814 0 0 0-4.933 3.191c-2.729 1.784-8.562 7.544-8.59 8.481-.013.431-1.588 2.52-3.5 4.643-1.912 2.124-3.477 4.229-3.477 4.679s-.562 1.43-1.25 2.178c-1.954 2.127-3.75 5.608-3.75 7.269 0 .833-.45 1.514-1 1.514s-1 1.098-1 2.441-.45 2.719-1 3.059-1 1.641-1 2.892-.313 2.588-.696 2.97c-3.283 3.284-1.705 41.036 1.806 43.206.49.303.89 1.648.89 2.991s.45 2.441 1 2.441 1 .9 1 2 .45 2 1 2 1 .9 1 2 .374 2 .831 2 1.459 1.237 2.227 2.75c2.273 4.478 19.053 20.633 24.192 23.29 2.613 1.351 4.75 2.795 4.75 3.208s.831.752 1.846.752 3.378.772 5.25 1.715c1.872.942 4.079 1.814 4.904 1.935.825.122 3.075.73 5 1.352 6.296 2.033 37.457.33 39.056-2.135.306-.472 1.768-.958 3.25-1.08s2.694-.575 2.694-1.005.9-.782 2-.782 2-.338 2-.752c0-.413 2.138-1.857 4.75-3.208 5.139-2.657 21.919-18.812 24.192-23.29.768-1.513 1.796-2.75 2.286-2.75s.634-.414.322-.919c-.313-.506.111-1.599.941-2.429s1.509-2.216 1.509-3.081.477-1.571 1.059-1.571.831-.37.551-.822.052-1.914.735-3.25c4.062-7.933 5.975-42.376 2.474-44.54-.451-.278-.819-1.578-.819-2.888s-.45-2.66-1-3-1-1.716-1-3.059-.45-2.441-1-2.441-1-.681-1-1.514c0-1.77-1.776-5.062-4.25-7.874-.962-1.094-1.75-2.579-1.75-3.301 0-.721-.374-1.311-.831-1.311s-1.47-1.232-2.25-2.738c-1.826-3.524-8.657-10.355-12.181-12.181-1.506-.78-2.738-1.793-2.738-2.25s-.59-.831-1.311-.831c-.722 0-2.207-.788-3.301-1.75-2.812-2.474-6.104-4.25-7.874-4.25-.833 0-1.514-.34-1.514-.757 0-2.922-27.508-7.278-37.5-5.939m-75.75 4.628c-2.613 2.806-4.75 5.459-4.75 5.896s-.792 1.667-1.76 2.733c-2.241 2.468-9.605 17.393-11.811 23.939-1.713 5.08-2.722 9.029-4.602 18-1.992 9.511-1.071 41.505 1.265 43.95.499.523.908 2.068.908 3.433 0 4.875 8.3 25.336 11.739 28.938.693.727 1.261 1.67 1.261 2.095s1.124 2.08 2.499 3.678c1.374 1.599 2.499 3.228 2.5 3.622.001.998 6.317 7.784 7.244 7.784.416 0 .757-.707.757-1.571 0-2.021 2.408-4.429 4.429-4.429 2.214 0 1.954-3.344-.429-5.5-1.1-.995-2-2.415-2-3.155s-.374-1.345-.831-1.345-1.469-1.237-2.248-2.75-1.702-2.975-2.049-3.25c-1.404-1.113-7.77-14.357-7.28-15.148.289-.469.049-.852-.533-.852s-1.059-.873-1.059-1.941-.398-2.187-.885-2.488c-.486-.3-1.178-2.015-1.538-3.809a514 514 0 0 0-1.763-8.262c-2.157-9.71-1.283-39.79 1.298-44.684.488-.927.888-2.839.888-4.25s.477-2.566 1.059-2.566.831-.37.551-.822.144-2.078.941-3.614 1.449-3.416 1.449-4.178.45-1.386 1-1.386 1-.9 1-2 .477-2 1.059-2 .803-.414.491-.919.111-1.599.941-2.429 1.51-1.879 1.51-2.331c.001-.451 1.126-2.128 2.5-3.727s2.506-3.173 2.515-3.5 1.359-2.117 3-3.98c3.628-4.116 3.681-4.722.484-5.525-1.375-.345-2.5-1.294-2.5-2.108s-.417-1.481-.927-1.481c-.509 0-1.072-.713-1.25-1.585-.229-1.124-1.704-.102-5.073 3.517m162.894-2.651c-.374 1.491-1.842 3.082-3.535 3.831-3.337 1.477-3.135 2.832 1.076 7.239 1.548 1.62 2.815 3.348 2.815 3.839s.9 1.86 2 3.04c1.1 1.181 2 2.737 2 3.459 0 .721.45 1.311 1 1.311s1 .9 1 2 .45 2 1 2 1 .9 1 2 .45 2 1 2 1 .624 1 1.386.652 2.642 1.449 4.178 1.22 3.162.941 3.614c-.28.452-.031.822.551.822s1.059 1.26 1.059 2.8.408 3.228.907 3.75c3.44 3.605 3.406 48.903-.04 51.032-.477.295-.867 1.656-.867 3.025s-.9 4.352-2 6.629-2 4.73-2 5.452-.45 1.312-1 1.312-1 .9-1 2-.45 2-1 2-1 .59-1 1.311c0 .722-.788 2.202-1.75 3.289s-1.891 2.607-2.062 3.376c-.172.768-1.184 2.154-2.25 3.078S614 565.175 614 565.712c0 .538-.9 1.793-2 2.788-2.536 2.295-2.634 5.5-.169 5.5 1.007 0 2.455 1.237 3.217 2.75s1.522 2.947 1.689 3.187c.484.697 6.623-6.214 8.182-9.21.78-1.5 1.738-2.727 2.129-2.727.39 0 1.269-1.35 1.952-3s1.638-3 2.121-3 .879-.862.879-1.917c0-1.054.337-2.066.75-2.25 1.834-.815 7.375-14.505 9.445-23.333 3.387-14.449 4.265-36.015 1.893-46.5-.684-3.025-1.479-7.413-1.767-9.75s-.927-4.25-1.422-4.25-.899-1.35-.899-3-.369-3-.819-3c-.451 0-1.432-2.25-2.181-5s-1.73-5-2.181-5c-.45 0-.819-.9-.819-2s-.45-2-1-2-1-.694-1-1.542-.462-2.086-1.026-2.75-2.463-3.458-4.218-6.208c-1.756-2.75-4.83-6.748-6.832-8.884l-3.64-3.883zm-86.394 40.391c-1.788.25-3.25.876-3.25 1.391 0 .516-.337.884-.75.819-2.109-.333-4.07.291-5.866 1.868-1.096.962-2.839 2.23-3.872 2.817s-2.358 1.937-2.945 3-1.352 2.158-1.701 2.433c-1.186.935-4.895 8.106-5.189 10.031-.16 1.055-.604 2.229-.985 2.61-2.249 2.25 1.007 21.04 4.037 23.287.424.315.908 1.209 1.076 1.988.745 3.453 12.877 12.417 16.806 12.417.764 0 1.389.375 1.389.834s3.882.833 8.626.833c7.657 0 9.308-.346 14.69-3.081 5.967-3.032 12.684-9.139 12.684-11.531 0-.672.416-1.371.925-1.555s1.071-1.008 1.25-1.833.66-1.75 1.07-2.056.846-1.768.968-3.25c.123-1.482.575-2.694 1.005-2.694 2.602 0 .069-14.678-3.836-22.228-1.998-3.864-9.906-11.772-11.772-11.772-.794 0-1.593-.416-1.777-.925s-1.008-1.071-1.833-1.25-1.739-.642-2.031-1.029c-.676-.898-14.433-1.724-18.719-1.124m3.75 3.286c-.825.556-2.737 1.018-4.25 1.027S526 478.45 526 479s-.695 1-1.544 1-2.731 1.101-4.182 2.446-3.076 2.177-3.611 1.846c-.534-.331-.688-.142-.341.42s-.31 1.868-1.459 2.904c-4.988 4.496-9.393 22.191-6.043 24.278.536.333 1.133 1.731 1.327 3.106s.654 2.729 1.023 3.009c.368.281.818 1.181 1 2 .537 2.425 7.991 9.335 12.675 11.75 5.996 3.093 18.393 3.181 24.29.172 6.817-3.478 14.865-12.605 14.865-16.858 0-1.075.45-2.233 1-2.573s1-3.265 1-6.5-.45-6.16-1-6.5-1-1.422-1-2.405c0-4.529-10.606-17.095-14.428-17.095-.865 0-1.572-.391-1.572-.868 0-.478-1.687-1.118-3.75-1.423s-5.1-.826-6.75-1.159c-1.65-.332-3.675-.149-4.5.408m-8.454 8.771c-2.376.603-7.204 5.617-8.086 8.396-1.6 5.041 5.391 11.903 9.041 8.874.824-.684 1.499-.952 1.499-.596 0 1.74 6.035-2.767 7.419-5.54 1.792-3.593 2.069-6.863.581-6.863-.55 0-1-.686-1-1.525 0-2.491-4.88-3.909-9.454-2.746m.204 4.351c-2.246 1.308-4.889 6.395-4.224 8.128 1.684 4.389 8.256 3.755 10.427-1.005 2.829-6.206-.74-10.305-6.203-7.123M424.957 543c-.355 23.31-.151 247.139.225 247.516.467.467 30.685-.807 60.318-2.543 16.629-.974 35.518-1.96 74.226-3.874 10.574-.523 19.589-1.176 20.033-1.45s7.092-.614 14.774-.755 17.905-.697 22.717-1.236l8.75-.98V580.544L617.5 589c-4.675 4.651-8.5 8.124-8.5 7.719s-1.417.618-3.148 2.272c-1.732 1.655-3.757 3.009-4.5 3.009-.744 0-1.352.374-1.352.831s-1.237 1.47-2.75 2.25-3.349 1.986-4.081 2.678c-.731.693-1.744 1.004-2.25.691-.505-.312-.919-.168-.919.32s-2.362 1.924-5.25 3.19a897 897 0 0 0-7.293 3.229c-1.123.51-2.698 1.058-3.5 1.218-.801.16-2.132.531-2.957.824s-3.413 1.036-5.75 1.651a544 544 0 0 0-8 2.18c-6.234 1.765-42.672.427-48.25-1.773-.825-.325-2.129-.718-2.897-.873-4.649-.939-10.103-2.991-10.103-3.801 0-.522-.279-.67-.619-.329-.581.58-14.294-5.808-15.381-7.165-.275-.343-1.738-1.262-3.25-2.042s-2.75-1.791-2.75-2.248-.608-.831-1.352-.831c-.743 0-2.764-1.35-4.491-3s-3.492-3-3.923-3-4.137-3.375-8.234-7.5-7.12-7.5-6.716-7.5-.621-1.417-2.275-3.148c-1.655-1.732-3.009-3.551-3.009-4.042 0-.492-.9-1.86-2-3.04-1.1-1.181-2-2.737-2-3.459 0-.721-.403-1.311-.895-1.311-.882 0-7.105-12.043-7.105-13.749 0-.482-.9-2.738-2-5.015s-2.016-4.724-2.035-5.438-.679-2.423-1.465-3.798c-1.339-2.342-1.436-2.027-1.543 5m221.502-2.25c-.319 1.513-1.003 3.531-1.519 4.486-.517.955-.94 2.206-.94 2.779 0 1.471-6.791 15.61-8.272 17.224-3.776 4.115-3.728 2.687-3.728 111.082v105.347l7.463 7.166c4.105 3.941 7.915 7.166 8.466 7.166.665 0 1.018-43.471 1.049-129 .042-121.224-.271-136.921-2.519-126.25M463.25 577.662c-2.044.825-1.504 4.338.667 4.338 2.038 0 3.087-1.688 2.329-3.75-.484-1.316-.96-1.409-2.996-.588m144.814.761c-1.552 1.87-.567 3.577 2.065 3.577 1.495 0 1.928-.557 1.691-2.172-.4-2.713-2.132-3.362-3.756-1.405M470 580.517c0 2.94-2.368 5.399-5.25 5.451-1.643.03-2.623 2.032-.995 2.032.416 0 2.564 1.688 4.773 3.75s5.245 4.389 6.745 5.169 2.727 1.793 2.727 2.25.59.831 1.311.831c.722 0 2.278.9 3.459 2 1.18 1.1 2.84 2 3.688 2s1.542.45 1.542 1 .9 1 2 1 2 .369 2 .819c0 .451 2.25 1.432 5 2.181s5 1.681 5 2.071 1.462.952 3.25 1.247 5.275 1.09 7.75 1.766c5.928 1.618 42.024 1.739 47.5.16 2.2-.635 5.35-1.441 7-1.792 1.65-.35 4.908-1.495 7.239-2.544 2.332-1.05 4.919-1.908 5.75-1.908s1.511-.45 1.511-1 .9-1 2-1 2-.45 2-1 .862-1 1.917-1c1.054 0 2.066-.416 2.25-.925.183-.509 1.008-1.071 1.833-1.25s2.203-1.084 3.063-2.013 2.178-1.828 2.929-2c2.335-.534 13.237-11.243 11.823-11.614-3.372-.883-5.815-2.694-5.815-4.308 0-3.137-1.684-2.949-5.582.621-2.095 1.919-4.19 3.489-4.655 3.489-.466 0-1.813.9-2.993 2-1.181 1.1-2.737 2-3.459 2-.721 0-1.311.403-1.311.895 0 .943-12.1 7.105-13.951 7.105-.592 0-1.858.406-2.813.903-.955.496-3.761 1.426-6.236 2.067s-6.045 1.644-7.932 2.228c-4.802 1.487-34.818 1.452-36.313-.043-.635-.635-2.613-1.155-4.396-1.155s-3.519-.45-3.859-1-1.69-1-3-1-2.66-.45-3-1-1.491-1-2.559-1-1.941-.394-1.941-.875-1.296-1.134-2.879-1.451c-1.584-.317-3.507-1.16-4.274-1.875-.767-.714-2.059-1.445-2.871-1.624s-1.626-.741-1.809-1.25-.886-.925-1.562-.925c-.675 0-2.116-.788-3.201-1.75-1.684-1.493-4.007-3.317-12.154-9.54-.929-.71-1.25-.245-1.25 1.807m141.596 206.22c-.406.406-8.918 1.065-18.917 1.466-9.998.4-25.379 1.161-34.179 1.691-21.204 1.277-33.879 1.998-46 2.617-5.5.28-18.775.974-29.5 1.542a3787 3787 0 0 1-37.5 1.766c-9.9.404-18.562 1.087-19.25 1.517-.85.532-1.25 3.674-1.25 9.823v9.04l8.25-.579c4.538-.319 16.8-1.024 27.25-1.566 10.45-.543 27.1-1.486 37-2.097 9.9-.61 25.875-1.517 35.5-2.015 17.497-.905 37.526-2.027 69.5-3.893l27-1.575c14.318-.835 15.177-1.069 12.957-3.521-.972-1.074-1.44-1.953-1.041-1.953.4 0 .052-.675-.773-1.5s-1.887-1.5-2.359-1.5c-.473 0-3.075-2.25-5.784-5l-4.925-5h-7.621c-4.191 0-7.952.332-8.358.737M389.5 799.046c-2.75.428-9.586.818-15.191.866s-10.433.48-10.729.959c-.611.988 2.674 5.129 4.069 5.129.502 0 3.155 2.138 5.894 4.75s5.283 4.75 5.653 4.75 2.739 1.913 5.265 4.25 4.918 4.252 5.316 4.255c.398.002 2.089 1.285 3.758 2.849 6.662 6.245 7.442 6.085 7.647-1.569.805-29.925 1.53-28.297-11.682-26.239m17.5 10.303c0 6.242.294 14.828.654 19.08l.653 7.731 11.597-.539c24.498-1.139 49.863-2.515 56.096-3.043 7.623-.646 18.26-1.266 45-2.623 44.37-2.252 59.25-3.052 73.5-3.949 8.25-.519 23.1-1.394 33-1.945 25.735-1.43 34.473-2.208 35.036-3.119.271-.44-2.251-3.595-5.606-7.013l-6.099-6.214-17.665.723c-44.488 1.819-49.731 2.105-50.745 2.765-.594.387-7.887.768-16.208.847s-16.835.512-18.921.963-10.542 1.081-18.792 1.4c-21.005.813-52.858 2.428-60 3.042-3.3.284-11.175.737-17.5 1.007s-15.261.788-19.858 1.149c-10.253.808-10.107.979-10.127-11.861L421 798h-14zm230.25 19.955c-3.987.487-7.25 1.304-7.25 1.816 0 1.956 5.347 3.03 9.67 1.942 2.319-.584 7.343-1.062 11.166-1.062 5.188 0 7.093-.372 7.513-1.468.31-.807.138-1.731-.383-2.053-1.189-.735-11.215-.335-20.716.825m-211.75 12.05c-4.95.492-9.177 1.052-9.393 1.246-1.221 1.094 2.414 3.156 5.179 2.937 23.156-1.833 22.714-1.76 22.714-3.734 0-2.124-1.313-2.156-18.5-.449"/></svg>