<svg xmlns="http://www.w3.org/2000/svg" viewBox="0 0 1024 1024"><path fill="#00e5cc" d="M383.159 222.72c-1.738.841-3.159 1.924-3.159 2.405s-.481.875-1.07.875c-.963 0-9.703 5.545-10.93 6.934-.275.311-1.625 1.194-3 1.961-9.788 5.464-41.724 31.187-56.62 45.605-2.273 2.2-4.976 4.717-6.006 5.594s-2.518 2.541-3.306 3.697-1.8 1.874-2.25 1.596-.818.197-.818 1.054-.337 1.563-.75 1.568c-1.292.015-18.424 17.598-26.3 26.991-2.998 3.575-5.681 6.725-5.963 7-1.608 1.567-11.189 13.917-11.145 14.365.029.295-1.274 1.956-2.895 3.691-1.621 1.736-2.947 3.53-2.947 3.988s-1.35 2.311-3 4.117-3 3.631-3 4.054-.946 1.858-2.103 3.188c-1.156 1.33-2.169 2.782-2.25 3.226s-1.164 1.905-2.407 3.246-2.052 2.647-1.798 2.901c.255.254-.133 1.058-.862 1.787-2.985 2.985 1.812 11.437 6.491 11.437 2.378 0 10.253-7.667 9.359-9.112-.301-.489-.088-.888.474-.888s2.925-2.812 5.251-6.25c9.82-14.509 27.495-36.345 39.774-49.136 14.585-15.193 32.719-32.67 41.571-40.066 3.85-3.217 7.675-6.444 8.5-7.172 5.949-5.25 18.053-14.397 29-21.913 4.675-3.211 8.725-6.091 9-6.402s1.738-1.202 3.25-1.982c1.512-.779 2.75-1.791 2.75-2.248s.63-.831 1.4-.831c2.342 0 8.6-6.986 8.6-9.6 0-1.32-.477-2.4-1.059-2.4s-.837-.359-.566-.798c1.896-3.068-6.273-4.876-11.216-2.482m100.217.988c-2.612 1.261-5.34 2.292-6.062 2.292s-1.314.525-1.314 1.167c0 .641-.265.901-.589.578-1.353-1.353-39.411 17.488-39.411 19.51 0 .475-.414.607-.919.295-.506-.313-1.519.023-2.25.747-.732.723-2.197 1.643-3.255 2.044-4.515 1.712-17.957 10.343-19.318 12.405-5.109 7.739 5.951 15.558 12.855 9.088.782-.734 3.552-2.45 6.155-3.813 2.602-1.364 4.732-2.826 4.732-3.25s.718-.771 1.596-.771c.877 0 2.79-.844 4.25-1.875s6.479-3.789 11.154-6.127 8.831-4.756 9.235-5.374.741-.816.75-.439c.008.377 3.727-1.026 8.265-3.118 11.628-5.362 16.656-7.614 21.213-9.502 5.943-2.461 7.537-4.321 7.537-8.791 0-7.035-6.139-9.161-14.624-5.066m160.124 17.92c-21.801 1.443-62.756 8.571-82.744 14.4-23.129 6.744-42.631 13.26-52.256 17.458-1.65.72-6.15 2.52-10 4-16.564 6.369-45.544 20.992-65 32.798-15.699 9.526-44.763 30.563-46.857 33.916-.618.99-1.589 1.8-2.157 1.8-3.929 0-52.2 49.986-54.393 56.325-.223.646-1.144 1.85-2.047 2.675-.902.825-2.723 3.075-4.045 5s-2.69 3.725-3.04 4c-.349.275-3.785 5.225-7.635 11-46.109 69.166-73.377 159.001-73.303 241.5.028 31.178 4.768 66.207 10.543 77.904.789 1.597 1.434 3.309 1.434 3.805 0 1.828 7.916 12.482 12.047 16.215 22.891 20.68 100.981 26.517 173.453 12.964 24.399-4.563 44.05-9.899 68.5-18.602 20.046-7.136 60.964-25.605 61.835-27.911.185-.488.711-.656 1.17-.372.458.283 1.456-.051 2.216-.744.76-.692 4.283-2.798 7.83-4.679 6.317-3.35 20.267-11.998 22.657-14.045.664-.569 1.483-1.035 1.82-1.035.885 0 8.588-5.447 11.18-7.905 1.215-1.152 2.61-2.095 3.102-2.095.491 0 2.306-1.35 4.033-3 1.726-1.65 3.422-3 3.769-3 1.45 0 24.681-20.239 34.404-29.973C675.454 648.571 694 627.56 694 625.524c0-.348 1.348-2.071 2.995-3.828 1.648-1.758 2.998-3.758 3-4.446.003-.687.342-1.253.755-1.257s1.875-1.691 3.25-3.75 3.288-4.615 4.25-5.682c.962-1.066 1.75-2.491 1.75-3.166 0-.676.43-1.378.956-1.562 1.249-.435 17.044-26.903 17.044-28.561 0-.7.45-1.272 1-1.272s1-.9 1-2 .375-2 .833-2c.759 0 15.167-28.851 15.167-30.37 0-.358.851-2.559 1.891-4.891 14.383-32.252 27.602-82.748 32.566-124.401 6.056-50.823 1.817-110.215-9.57-134.075-1.644-3.444-3.416-6.263-3.938-6.263s-.949-.584-.949-1.297c0-1.621-7.155-8.703-8.792-8.703-.664 0-1.208-.383-1.208-.85 0-1.025-11.096-6.59-16-8.026-19.532-5.717-67.315-9.429-96.5-7.496m.5 15.965c-16.759 1.101-59.871 7.945-61.726 9.799-.3.3.891 1.347 2.647 2.327 6.995 3.904 34.688 22.552 36.329 24.464.962 1.121 1.75 1.747 1.75 1.391 0-.815 18.35 13.059 22.856 17.281 1.845 1.73 3.557 3.145 3.804 3.145.632 0 13.795 11.283 20.16 17.281l5.32 5.013 34.43-34.378c18.936-18.908 34.43-34.747 34.43-35.198 0-2.551-13.24-5.993-37.5-9.75-6.951-1.076-51.966-2.066-62.5-1.375m-97.25 19.217c-4.263 1.403-7.742 2.806-7.733 3.12.01.313 5.523 3.436 12.25 6.939 13.897 7.236 39.969 23.367 52.513 32.491 7.716 5.612 29.033 22.246 30.22 23.581.275.31 5.052 4.494 10.615 9.298 13.357 11.535 41.227 40.203 51.552 53.028 4.531 5.628 8.521 10.458 8.866 10.733 3.381 2.693 30.802 41.906 36.1 51.625 1.762 3.231 4.318 7.657 5.68 9.835l2.477 3.959 1.904-5.959c5.066-15.859 5.748-12.923-8.015-34.46-2.984-4.67-24.518-33.505-26.137-35-.298-.275-2.25-2.626-4.339-5.225-2.088-2.599-4.338-5.31-5-6.025-.661-.714-4.549-5.113-8.639-9.774-9.324-10.627-32.851-34.115-44.064-43.99-4.675-4.117-8.725-7.737-9-8.044-1.515-1.69-26.549-21.287-32.5-25.441-18.98-13.247-25.077-17.259-38.086-25.057-15.992-9.587-16.404-9.668-28.664-5.634m174.365 37.294c-18.817 18.757-34.078 34.463-33.914 34.903s5.068 5.906 10.896 12.147c15.39 16.478 20.768 22.654 33.826 38.846 11.918 14.778 14.593 18.336 22.757 30.262 2.546 3.719 4.813 6.578 5.038 6.354.224-.225 1.068-4.168 1.875-8.762 8.268-47.07 8.171-94.858-.269-132.354-1.303-5.793-4.917-15.5-5.77-15.5-.124 0-15.622 15.347-34.439 34.104M372.89 287.75a263 263 0 0 1-8.891 7.199C348.449 306.871 300 353.071 300 355.978c0 .426-1.837 2.726-4.083 5.11-7.018 7.452-31.917 41.25-31.917 43.325 0 .369-.801 1.531-1.78 2.582-2.319 2.488-14.22 22.508-14.22 23.919 0 .597-.45 1.086-1 1.086s-1 .863-1 1.917-.396 2.066-.88 2.25c-.948.359-8.766 15.354-9.298 17.833-.177.825-.623 1.729-.992 2.009-.368.281-.818 1.17-1 1.977-.181.806-.897 2.076-1.589 2.821-.693.745-1.004 1.768-.691 2.274.312.505.091.919-.491.919s-1.059.498-1.059 1.107-1.396 4.032-3.102 7.607c-3.619 7.582-4.068 12.336-1.44 15.24 2.366 2.614 8.602 2.786 10.722.296 1.692-1.987 4.417-8.367 4.058-9.5-.131-.413.212-.75.762-.75s1-.665 1-1.479c0-1.732 17.906-37.393 19.759-39.352.693-.731 1.027-1.706.744-2.164-.284-.459-.106-.985.396-1.17.768-.282 6.77-9.547 12.169-18.784.788-1.347 2.22-3.344 3.182-4.439.962-1.094 1.75-2.349 1.75-2.789s.651-1.593 1.446-2.562c.796-.968 4.379-5.811 7.962-10.761 7.111-9.822 9.442-12.806 17.342-22.198 2.887-3.433 5.25-6.547 5.25-6.919 0-.891 46.266-47.087 47.282-47.21 1.227-.149 20.718-16.507 20.718-17.387 0-.432.614-.786 1.364-.786 2.616 0 6.636-5.122 6.636-8.456 0-7.685-8.155-9.733-15.11-3.794M504 292.078c-5.225 2.152-17.709 7.965-27.741 12.917-10.033 4.953-18.696 9.005-19.25 9.005-.555 0-1.009.338-1.009.752 0 .413-2.137 1.865-4.75 3.225s-4.975 2.714-5.25 3.008c-.275.293-3.425 2.287-7 4.43s-9.281 5.852-12.679 8.241c-3.399 2.389-6.624 4.344-7.167 4.344s-1.137.337-1.321.75c-.352.793-11.462 9.25-12.151 9.25-.222 0-2.573 2.019-5.223 4.487s-4.981 4.325-5.18 4.126c-1.134-1.135-46.961 44.625-47.256 47.186-.044.386-1.42 2.276-3.057 4.201s-5.31 6.65-8.163 10.5-5.551 7.15-5.995 7.333c-.445.184-.808.766-.808 1.295s-2.228 4.264-4.951 8.299-5.954 9.077-7.18 11.205c-14.237 24.701-19.179 34.502-28.169 55.868-8.971 21.317-8.652 18.907-3.713 28.079 15.594 28.963 35.934 60.676 47.411 73.921 1.43 1.65 2.6 3.334 2.601 3.741s1.253 1.983 2.783 3.5c1.531 1.518 4.784 5.234 7.231 8.259 6.085 7.524 13.412 15.414 26.987 29.061 9.867 9.92 15.222 14.819 31 28.357 1.375 1.18 5.087 4.098 8.25 6.484s5.75 4.734 5.75 5.218.59.88 1.311.88c.722 0 2.184.809 3.25 1.799 1.067.989 4.864 3.768 8.439 6.175s6.725 4.635 7 4.953c.275.317 1.738 1.214 3.25 1.994 1.513.779 2.75 1.791 2.75 2.248s.441.831.981.831c.539 0 3.351 1.507 6.25 3.349s7.294 4.48 9.769 5.863c7.208 4.028 12.461 7.156 13 7.743.275.3 1.175.691 2 .87s1.65.741 1.833 1.25.799.925 1.367.925 7.168 2.978 14.666 6.618l13.634 6.617 5-1.746c2.75-.961 7.334-2.814 10.186-4.118s5.407-2.371 5.677-2.371c2.156 0 30.857-14.284 45.951-22.868 7.561-4.301 24.253-15.068 29.686-19.15 1.925-1.446 6.19-4.621 9.477-7.056s6.888-5.176 8-6.092 4.048-3.313 6.523-5.326c7.767-6.319 31.631-28.891 33.31-31.508.882-1.375 3.104-4.075 4.938-6 2.722-2.859 8.959-10.461 18.06-22.013 19.716-25.027 42.935-67.792 55.269-101.799 1.333-3.674 2.423-7.434 2.423-8.357 0-2.605-12.782-25.042-25.824-45.331-5.389-8.384-27.13-37.572-29.786-39.99-.61-.555-4.596-5.06-8.857-10.01-22.215-25.808-73.886-71.909-89.849-80.164-1.671-.864-5.096-3.008-7.611-4.764-18.454-12.889-59.046-34.675-64.257-34.489-1.274.045-6.591 1.843-11.816 3.995m64 99.089c0 .641-.296.87-.658.508-1.526-1.526-3.342 1.848-3.334 6.197.008 4.54.218 4.842 11 15.838 6.046 6.166 10.992 11.708 10.992 12.316 0 1.446-20.933 21.974-22.407 21.974-.622 0-5.622-4.532-11.112-10.071-13.512-13.633-17.142-15.359-22.026-10.474-3.564 3.564-3.135 6.77 1.545 11.545 2.2 2.244 4 4.539 4 5.099s.45.741 1 .401 1-.098 1 .538 2.247 3.177 4.994 5.647c2.747 2.469 5.907 5.771 7.022 7.337l2.027 2.847-11.301 11.619-11.3 11.62-12.076-11.909c-7.259-7.159-13.202-12.192-14.898-12.618-4.261-1.069-7.886 2.036-8.266 7.08-.289 3.835.069 4.335 11.25 15.725 6.351 6.471 11.548 12.157 11.548 12.636s-4.98 5.92-11.068 12.091l-11.067 11.221-11.732-11.701c-6.452-6.436-12.047-11.386-12.432-11-.386.385-.701.175-.701-.466 0-2.024-6.522-1.353-8.542.879-4.242 4.688-2.649 8.067 9.695 20.556 6.241 6.315 11.468 11.825 11.615 12.244.418 1.187-21.37 23.458-22.532 23.032-.569-.208-6.494-5.666-13.168-12.128-12.996-12.584-14.675-13.42-19.433-9.677-2.636 2.073-3.3 5.412-1.815 9.128.374.935 5.517 6.602 11.43 12.594s10.75 11.4 10.75 12.017c0 .618-4.995 6.148-11.101 12.29l-11.101 11.165-11.664-11.633C402.927 564.456 402.304 564 398.235 564c-2.329 0-4.235.477-4.235 1.059s-.45.781-1 .441-1.017-.254-1.038.191-.281 2.488-.579 4.539c-.522 3.602-.214 4.067 8.95 13.5 11.46 11.796 14.252 15.249 13.067 16.155-5.914 4.52-17.439 18.11-17.77 20.955-.473 4.064 2.886 7.98 6.507 7.585 1.3-.142 2.833-.296 3.407-.342.574-.045 5.263-4.117 10.419-9.047l9.374-8.964 4.081 3.573c2.245 1.965 7.007 6.562 10.582 10.214s7.518 7.429 8.761 8.391c2.481 1.92 7.239 2.374 7.239.691 0-.582.399-.812.887-.511 2.631 1.626 4.966-7.434 2.54-9.86-.785-.785-1.427-1.789-1.427-2.232s-4.752-5.572-10.559-11.397l-10.56-10.593 11.601-11.894 11.6-11.894 11.209 11.301c6.165 6.215 12.034 11.757 13.041 12.315 2.506 1.389 8.632.097 9.398-1.981.343-.932 1.055-1.984 1.582-2.338 2.364-1.584-1.112-6.84-11.616-17.565-6.158-6.288-11.335-11.817-11.505-12.288-.434-1.203 21.494-23.28 22.7-22.854.543.193 6.253 5.516 12.688 11.829 10.921 10.715 11.954 11.473 15.503 11.38 5.497-.144 7.397-2.537 7.033-8.862-.064-1.114-5.219-7.184-11.615-13.675-6.325-6.42-11.5-12.151-11.5-12.736 0-1.283 20.645-22.086 21.919-22.086.493 0 5.661 4.714 11.486 10.475 12.239 12.106 14.109 13.473 17.826 13.03 3.919-.466 5.769-2.791 5.769-7.249 0-3.602-.845-4.761-11.511-15.789-6.331-6.546-11.393-12.228-11.25-12.626.144-.399 5.124-5.725 11.067-11.837l10.805-11.113 3.267 2.867c1.796 1.578 5.486 5.09 8.2 7.805 13.66 13.668 17.863 15.933 21.689 11.687 4.931-5.472 3.645-8.38-9.935-22.47-5.683-5.895-10.332-11.149-10.332-11.674 0-1.301 20.636-22.106 21.927-22.106.566 0 6.226 5.148 12.577 11.441 11.907 11.796 14.554 13.586 17.044 11.519.799-.663 1.452-.855 1.452-.427 0 .427.889-.028 1.976-1.012 1.087-.983 1.736-2.178 1.441-2.655s-.058-.866.524-.866 1.059-.9 1.059-2-.477-2-1.059-2-.798-.422-.479-.938c.318-.516-4.493-6.17-10.691-12.565s-11.384-11.937-11.522-12.316c-.238-.651 1.161-2.262 12.914-14.871 4.739-5.086 6.76-11.31 3.67-11.31-.641 0-.87-.296-.508-.658 1.37-1.37-1.714-3.342-5.227-3.342-3.244 0-4.719 1.018-13.043 9-5.162 4.95-9.655 9-9.984 9s-5.631-4.921-11.78-10.935c-6.15-6.015-12.076-11.415-13.17-12-2.624-1.405-5.121-1.355-5.121.102m220.5 145.144c-1.1 1.204-3.523 5.789-5.385 10.189-16.193 38.267-36.373 71.701-63.604 105.381-5.506 6.809-10.756 13.334-11.666 14.5-5.959 7.628-39.164 39.427-51.845 49.649-3.025 2.439-6.175 5.14-7 6.002s-3.605 3.061-6.177 4.886c-5.85 4.148-7.807 8.238-5.72 11.956 2.958 5.27 9.327 5.329 14.886.136 1.772-1.655 3.579-3.01 4.015-3.01.437 0 3.052-2.212 5.813-4.915s5.194-4.741 5.406-4.528c.213.212 2.991-2.076 6.173-5.085S679.52 716 679.932 716c.889 0 37.068-36.008 37.068-36.893 0-.334 2.925-3.74 6.5-7.57s6.5-7.26 6.5-7.623 1.8-2.63 4-5.037 4-4.718 4-5.136c0-.417 1.35-2.172 3-3.898 1.65-1.727 3-3.542 3-4.033s.93-1.887 2.066-3.102C750.919 637.522 774 601.56 774 599.185c0-.56.416-1.168.925-1.352.509-.183 1.071-1.008 1.25-1.833s.605-1.725.948-2c.891-.715 12.695-24.202 13.067-26 .17-.825.563-1.725.872-2 .893-.794 5.431-12.42 5.172-13.25-.129-.413.216-.75.766-.75s1-.81 1-1.8.403-2.228.895-2.75c2.768-2.94 1.377-12.364-1.727-11.7-.642.138-1.168-.2-1.168-.75 0-1.855-5.483-.896-7.5 1.311m-514.765 9.857c-.291 1.283-1.51 5.924-2.707 10.314-1.96 7.187-2.034 8.283-.736 11 2.539 5.317 15.451 25.247 22.862 35.288 3.949 5.352 9.52 12.898 12.38 16.771 22.203 30.07 68.664 75.672 100.966 99.101 16.562 12.012 51.779 34.36 56.517 35.863 1.716.545 13.378-2.189 19.9-4.665 3.062-1.162 2.6-1.507-11.917-8.872-5.775-2.931-12.975-6.956-16-8.947s-8.875-5.607-13-8.039-7.725-4.704-8-5.051-1.625-1.219-3-1.936c-2.253-1.176-33.796-24.535-35-25.92-.275-.316-3.875-3.49-8-7.052-16.251-14.035-29.769-27.144-41.856-40.585-17.044-18.955-15.757-17.407-32.766-39.438-9.458-12.251-25.476-36.983-33.354-51.5-4.418-8.139-5.607-9.337-6.289-6.332m-10.174 43.915c-.278.779-1.384 6.592-2.458 12.917-7.803 45.959-7.281 93.403 1.391 126.5 2.131 8.13 4.599 14.5 5.619 14.5.952 0 65.204-64.576 65.722-66.054.37-1.056-2.443-4.637-10.194-12.976-15.969-17.179-32.99-38.47-47.545-59.47-12.262-17.694-11.888-17.234-12.535-15.417m519.605 52.667c-1.131.962-4.101 4.9-6.6 8.75s-4.899 7.45-5.334 8-4.568 5.95-9.185 12c-4.616 6.05-12.444 15.725-17.396 21.5-9.334 10.885-49.115 51-50.576 51-.457 0-1.417.707-2.134 1.571-3.89 4.687-52.666 41.429-54.998 41.429-.469 0-1.998 1.145-3.398 2.545s-2.548 2.188-2.551 1.75c-.004-.437-.679.494-1.5 2.069-1.994 3.822-1.901 4.66.874 7.886 2.416 2.809 9.632 4.076 9.632 1.691 0-.582.421-.799.935-.481.515.318 2.09-.576 3.5-1.986s2.565-2.331 2.565-2.046c0 .761 16.44-10.523 16.833-11.554.184-.48.904-.874 1.602-.874s2.681-1.35 4.408-3c1.726-1.65 3.526-3 4-3 .473 0 2.273-1.35 4-3s3.481-3 3.898-3 2.729-1.8 5.136-4 4.656-4.002 4.999-4.005 3.445-2.703 6.894-6c3.448-3.297 6.657-5.995 7.129-5.995.949 0 36.976-35.54 44.113-43.516 5.247-5.864 12.997-15.075 14.622-17.377.623-.884 2.754-3.376 4.736-5.537s3.392-4.141 3.134-4.399c-.257-.257.315-1.189 1.273-2.069 1.913-1.762 8.01-9.821 13.314-17.602 1.875-2.75 3.694-5.225 4.043-5.5 3.05-2.405 6.094-12 3.807-12-.582 0-.8-.419-.483-.932 1.969-3.185-7.895-5.21-11.292-2.318m-470.448 79.062C294.723 739.858 280 755.09 280 755.66c0 1.427 6.057 3.934 15 6.208 6.964 1.771 10.559 2.449 27.25 5.139 18.645 3.005 55.918 2.983 79.75-.046 9.734-1.237 32.336-4.717 35.887-5.525 2.932-.667 3.496-.192-13.887-11.715-12.689-8.411-31.088-21.435-32-22.651-.275-.366-2.075-1.739-4-3.049-3.761-2.561-24.922-20.121-31.5-26.14-5.05-4.621-10.172-8.881-10.677-8.881-.213 0-15.11 14.765-33.105 32.812M594 759.161C582.328 766.303 547.617 784 545.278 784c-.703 0-1.278.477-1.278 1.059s-.37.831-.822.551-1.944.075-3.316.787c-1.373.712-3.708 1.599-5.191 1.971-5.209 1.307-11.965 11.632-7.612 11.632.582 0 .812.399.511.887-.821 1.328 1.889 3.184 5.097 3.492 2.844.272 8.72-1.641 17.252-5.618 2.52-1.175 5.106-2.231 5.748-2.348 2.582-.469 34.333-16.656 34.333-17.503 0-.5.557-.91 1.237-.91s5.919-2.812 11.64-6.25c13.216-7.939 15.206-11.494 9.8-17.5-3.153-3.502-6.269-2.683-18.677 4.911"/></svg>