<svg xmlns="http://www.w3.org/2000/svg" viewBox="0 0 1024 1024"><path fill="#00e5cc" d="M106.5 339c-.34.55-2.616 1-5.059 1S97 340.45 97 341s-1.111 1-2.47 1c-8.8 0-18.585 11.443-20.627 24.123-1.507 9.355-1.029 10.021 6.928 9.671l6.669-.294.287-9.786c.174-5.952.664-9.553 1.25-9.191.529.327.963-.107.963-.964 0-1.072.955-1.559 3.059-1.559 1.785 0 2.802-.417 2.441-1-.394-.637 2.49-1 7.941-1 5.039 0 8.559.411 8.559 1 0 .55 1.237 1.004 2.75 1.008 3.727.01 5.25 3.567 5.25 12.263 0 9.136.681 9.729 11.184 9.729 8.142 0 8.353.061 9.468 2.75 2.364 5.703 2.535 24.102.211 22.665-.475-.293-.863.645-.863 2.085 0 1.491-.431 2.352-1 2-.55-.34-1 .014-1 .786 0 2.995-3.455 4.608-10.523 4.913l-6.977.301-.294 7.282c-.174 4.303-.686 7.04-1.25 6.691-.526-.325-.956.587-.956 2.027 0 1.491-.431 2.352-1 2-.55-.34-1 .068-1 .906 0 2.598-3.524 3.594-12.712 3.594-9.91 0-13.288-1.413-13.288-5.557 0-1.344-.45-2.443-1-2.443-.571 0-1-2.978-1-6.933 0-5.883-.282-7.022-1.862-7.523-2.667-.847-11.225.143-12.533 1.449-.726.725-1.218 9.318-1.434 25.055L71.841 462h12.08c6.643 0 12.079.34 12.079.756s1.302 1.332 2.894 2.037c2.537 1.123 5.659 5.876 5.124 7.802-.104.375.326 1 .955 1.388.783.484 1.283 7.934 1.585 23.612.71 36.793 1.38 52.558 2.375 55.837a439 439 0 0 1 2.188 7.568c1.947 6.974 11.276 24.913 14.046 27.009.37.281.821 1.16 1.003 1.955s1.351 2.507 2.599 3.805 1.963 2.894 1.59 3.546c-.374.652-.309.849.143.439s2.409 1.615 4.348 4.5 4.101 5.825 4.803 6.532c.702.708 2.065 2.62 3.028 4.25.962 1.63 2.103 2.964 2.535 2.964s.784.59.784 1.311c0 .722.787 2.184 1.75 3.25.963 1.067 2.389 3.176 3.169 4.689s1.793 2.75 2.25 2.75.831.481.831 1.07c0 1.105 5.8 10.036 7.104 10.939.405.281.884 1.16 1.066 1.955.181.795 1.351 2.507 2.599 3.805s1.966 2.851 1.596 3.45c-.404.652-.21.803.48.376.685-.422 1.155-.078 1.155.846 0 .857.344 1.559.764 1.559s1.876 1.8 3.236 4 2.816 4 3.236 4 .764.679.764 1.509 1.35 2.922 3 4.648c1.65 1.727 3 3.555 3 4.063s.679 1.602 1.509 2.432 1.208 2.035.84 2.679-.294.828.165.411c1.051-.954 4.585 4.289 3.775 5.6-.329.532-.079.646.556.253.67-.413 1.155-.106 1.155.732 0 2.633 12.684 7.307 27.551 10.152 7 1.339 42.235 1.521 295.02 1.521 283.134 0 287.199-.027 296.5-1.997 17.055-3.613 25.735-7.504 26.741-11.985.172-.765 1.184-2.148 2.25-3.072s1.938-2.415 1.938-3.313.374-1.633.831-1.633 1.467-1.237 2.243-2.75c.777-1.513 2.093-3.425 2.926-4.25s2.141-2.722 2.908-4.216 1.776-2.48 2.243-2.191.849-.177.849-1.034.45-1.559 1-1.559 1-.801 1-1.779c0-.979.9-2.428 2-3.221s2-2.143 2-3 .9-2.207 2-3 2-2.143 2-3 .9-2.207 2-3 2-2.044 2-2.78c0-.757.502-1.028 1.155-.625.684.423.884.277.49-.36-.365-.591.016-1.753.846-2.583s1.509-2.018 1.509-2.64c0-.621.52-.809 1.155-.417.69.427.884.276.48-.376-.37-.599.46-2.223 1.846-3.609 1.385-1.385 2.519-3.115 2.519-3.844s.9-1.973 2-2.766 2-2.143 2-3 .9-2.207 2-3 2-2.242 2-3.221c0-.978.374-1.779.831-1.779s1.47-1.237 2.25-2.75 2.207-3.622 3.169-4.689c.962-1.066 1.75-2.33 1.75-2.809 0-.478.52-.549 1.155-.157.69.427.884.276.48-.376-.37-.599.46-2.223 1.846-3.609 1.385-1.385 2.519-3.215 2.519-4.065s.374-1.545.831-1.545 1.47-1.237 2.25-2.75 2.206-3.622 3.169-4.689c.962-1.066 1.75-2.528 1.75-3.25 0-.721.45-1.311 1-1.311s1-.624 1-1.386c0-2.194 2.62-6.66 3.432-5.849.404.404.644.285.533-.265-.477-2.363.107-5.573.922-5.07.488.302.867-.009.843-.691-.142-3.919.385-6.786 1.157-6.309.488.302.867-.009.843-.691-.201-5.577.441-12.018 1.095-10.987.447.703.798-1.27.801-4.5.058-58.584.342-66.841 2.374-69.022 1.1-1.18 2-2.592 2-3.137s1.476-2.117 3.279-3.493c3.035-2.314 4.162-2.513 15.095-2.665l11.814-.163-.329-24.8c-.181-13.639-.674-24.587-1.094-24.327s-.768.109-.771-.336-1.766-.874-3.918-.954c-4.925-.183-9.742-2.978-11.336-6.58-.675-1.526-1.568-2.775-1.984-2.775s-.756-.9-.756-2-.45-2-1-2c-.572 0-1-3.02-1-7.059 0-4.451.369-6.831 1-6.441.55.34 1-.367 1-1.574 0-2.366 3.704-6.227 5.129-5.346.479.296.871.061.871-.521s1.152-1.059 2.559-1.059c1.451 0 2.292-.433 1.941-1-.378-.611 1.156-1 3.941-1 4.382 0 4.559-.115 4.559-2.951 0-4.738-2.048-12.954-3.622-14.528-.797-.797-1.321-1.644-1.164-1.882.157-.239-1.111-2.167-2.819-4.286-3.462-4.296-10.286-8.353-14.049-8.353-1.388 0-2.194-.437-1.846-1 .384-.621-1.509-1-5-1s-5.384-.379-5-1c.412-.666-134.803-1-404.882-1-269.255 0-405.708.336-406.118 1m216 3c-1.744 1.927-3.08 2-36.749 2-34.097 0-34.951.048-35.461 2-.288 1.1-.921 2-1.407 2-.507 0-.883 71.665-.883 168.5 0 111.667.337 168.5 1 168.5.55 0 1 .675 1 1.5s.702 1.5 1.559 1.5 1.281.45.941 1c-.411.666 86.343 1 259.5 1s259.911-.334 259.5-1c-.34-.55.084-1 .941-1s1.559-.675 1.559-1.5.45-1.5 1-1.5c.663 0 1-56.833 1-168.5s-.337-168.5-1-168.5c-.55 0-.947-.337-.882-.75.507-3.209.058-3.25-35.677-3.25-23.451 0-35.349-.34-34.941-1 .34-.55-.11-1-1-1s-1.34-.45-1-1c1.191-1.927-3.073-.979-4.5 1-2.276 3.158-367.724 3.158-370 0-.793-1.1-1.722-2-2.066-2s-1.439.9-2.434 2M146 343c0 .55-.702 1-1.559 1s-1.281.45-.941 1 .141 1-.441 1-1.059.675-1.059 1.5-.45 1.5-1 1.5-1 1.125-1 2.5.45 2.5 1 2.5 1 .707 1 1.571c0 4.412 5.297 6.429 16.883 6.429 9.143 0 10.236-.206 12.565-2.365 4.285-3.97 3.213-15.635-1.436-15.635-.621 0-.852-.45-.512-1 .399-.646-3.656-1-11.441-1-7.373 0-12.059.389-12.059 1m708.5 0c.34.55.109 1-.512 1-2.586 0-3.988 2.984-3.988 8.488 0 3.499.379 5.396 1 5.012.55-.34 1 .11 1 1s.399 1.371.887 1.07c.487-.301 1.442.122 2.122.941 1.505 1.813 20.991 2.212 20.991.43 0-.582.392-.817.871-.521 1.094.676 5.129-2.743 5.129-4.346 0-.656.45-.914 1-.574.604.373 1-.99 1-3.441 0-2.232-.477-4.059-1.059-4.059s-.803-.414-.491-.919c.74-1.198-2.333-4.271-3.531-3.531-.505.312-.919.091-.919-.491 0-.687-4.238-1.059-12.059-1.059-7.785 0-11.84.354-11.441 1m60 4c.34.55-.324 1-1.474 1-2.71 0-9.026 6.316-9.026 9.026 0 1.15-.45 1.814-1 1.474-.616-.381-1 1.323-1 4.441 0 2.782.45 5.059 1 5.059s1 1.087 1 2.417.47 2.573 1.044 2.764c.575.192 1.118 1.323 1.208 2.515.09 1.191.632 2.084 1.206 1.985.573-.1.892.494.709 1.319s-.037 1.203.326.84 2.697.241 5.186 1.342c3.025 1.338 5.591 1.802 7.74 1.399 3.667-.688 10.581-6.546 10.581-8.966 0-.888.45-1.615 1-1.615s1-1.152 1-2.559c0-1.451.433-2.292 1-1.941.603.373 1-.97 1-3.382 0-2.2-.45-4.278-1-4.618s-1-1.488-1-2.551c0-2.331-3.814-6.949-5.739-6.949-.759 0-1.13-.403-.826-.895.708-1.146-2.273-2.323-3.68-1.454-.627.388-.771.184-.35-.496.503-.816-.791-1.155-4.405-1.155-3.157 0-4.881.383-4.5 1M65.635 358.434c-.899 1.372-1.635 3.186-1.635 4.031S63.55 364 63 364s-1 .927-1 2.059-.377 1.826-.838 1.541c-.46-.284-.908 1.289-.995 3.498-.086 2.208-.609 4.86-1.162 5.893s-1.037 4.045-1.075 6.693c-.053 3.611-.286 4.316-.93 2.816-.501-1.166-.889 13.747-.93 35.75-.045 24.454.282 37.803.93 37.9.55.083 1.563.195 2.25.25s1.581.55 1.985 1.1c.631.859 1.522-72.731 1.017-84-.109-2.421.143-3.478.639-2.677.503.815 1.082-1.253 1.504-5.379.378-3.686 1.377-8.036 2.22-9.666 1.922-3.718 1.213-4.691-.98-1.344M957.115 357c.046.825.445 2.625.885 4l.801 2.5.084-2.5c.046-1.375-.352-3.175-.885-4-.862-1.333-.96-1.333-.885 0M191.5 359.645c-9.023 1.318-23.178 9.694-27.638 16.355-1.289 1.925-2.579 3.725-2.867 4-2.343 2.243-6.665 14.122-7.409 20.364-.715 6.006.385 18.772 1.555 18.049.472-.292.859 1.027.859 2.932 0 9.191 7.399 23.668 15.229 29.797 2.349 1.839 4.422 3.687 4.606 4.107s.711.532 1.17.248c.458-.283 1.529.18 2.379 1.03.849.849 1.786 1.528 2.08 1.509 3.157-.211 3.924.153 2.036.964-1.1.473-10.213.891-20.25.93-11.453.044-18.25.442-18.25 1.07 0 .55-.915 1-2.033 1-2.722 0-8.167 5.643-9.717 10.071-1.741 4.974-1.817 84.398-.08 83.324.791-.489.959-.174.52.971-.92 2.398 2.128 9.441 4.398 10.162 1.045.332 2.628 1.33 3.517 2.22 1.434 1.434 46.901 2.094 89.094 1.294 1.21-.023 4.248-1.976 6.75-4.341l4.551-4.298v-45.702c0-29.801-.348-45.701-1-45.701-.55 0-1-.9-1-2s-.338-1.887-.75-1.75c-.413.138-.943-.2-1.179-.75-.872-2.036-2.988-3.5-5.059-3.5-1.171 0-1.852-.45-1.512-1 .398-.644-3.323-1-10.441-1-6.082 0-11.036-.337-11.009-.75.028-.413 2.672-1.991 5.876-3.507 7.265-3.439 13.671-9.779 17.574-17.391 1.65-3.219 3.227-6.077 3.504-6.352s.653-1.85.836-3.5.743-3.428 1.246-3.95.914-2.237.914-3.809c0-1.651.422-2.598 1-2.241 1.039.642 1.261-2.152 1.396-17.597.078-8.893-1.972-15.169-6.645-20.342-.963-1.066-1.751-2.342-1.751-2.836 0-3.165-13.01-12.888-22.073-16.497-3.018-1.201-16.1-2.215-20.427-1.583m627.5 0c-11.672 1.424-25.348 10.828-31.059 21.355-1.342 2.475-2.778 4.65-3.191 4.833-.413.184-.75 1.159-.75 2.167s-.423 1.983-.94 2.167c-2.62.929-2.519 27.833.105 27.833.459 0 .835 1.155.835 2.566s.404 3.323.898 4.25c.493.926 1.056 2.809 1.25 4.184s.577 2.725.852 3 1.793 3.088 3.373 6.25c3.752 7.511 13.683 16.865 20.814 19.604l5.313 2.042-11.809.052c-7.606.033-11.589.408-11.191 1.052.352.57-.513 1-2.012 1-2.721 0-5.488 2.011-5.488 3.988 0 .621-.45.852-1 .512s-1 .271-1 1.358c0 1.086-.443 2.125-.984 2.309-.625.211-1.003 16.861-1.038 45.61l-.054 45.276 3.288 3.423c1.808 1.882 3.963 3.558 4.788 3.723s1.748.633 2.052 1.039c.303.406 20.424.758 44.713.783l44.163.045 3.523-2.283c1.939-1.256 3.53-3.033 3.537-3.95.006-.916.507-1.831 1.112-2.033s1.1-2.105 1.1-4.231c0-2.626.283-3.416.885-2.466 1.482 2.34 1.155-78.776-.335-83.031-1.484-4.241-4.565-8.072-6.489-8.072-.759 0-1.101-.45-.761-1 .352-.569-.509-1-2-1s-2.352-.431-2-1c.404-.653-5.934-1-18.274-1-15.557 0-18.893-.248-18.893-1.405 0-.836.606-1.172 1.498-.83.823.316 1.239.157.923-.354s1.236-1.809 3.448-2.885c9.007-4.381 19.798-21.774 19.798-31.91 0-1.897.403-3.599.896-3.783s1.003-3.933 1.134-8.333c.367-12.327.086-16.69-1.03-16-.595.368-1-.823-1-2.941 0-1.957-.45-3.559-1-3.559s-1-.681-1-1.514c0-6.91-14.156-20.1-27.14-25.288-3.112-1.244-14.867-2.163-19.86-1.553m140.733 5.609c-.583 1.518 2.02 23.004 3.118 25.746.824 2.056.812 30.989-.013 30.995-.85.006-.532 2.105.595 3.91.6.961.512 1.179-.278.69-.635-.392-1.155-.236-1.155.346s.479 1.059 1.064 1.059c1.023 0 .885 7.958-.476 27.5-.316 4.537-.188 6.12.363 4.5.467-1.375.894-1.937.949-1.25s.957 1.25 2.005 1.25c1.838 0 1.908-1.332 1.988-38.25.055-25.119-.251-37.735-.89-36.75-.698 1.076-.977.017-.988-3.75-.008-2.887-.465-5.25-1.015-5.25s-1-1.045-1-2.321c0-3.344-3.537-10.327-4.267-8.425M503.9 366.433c-.718.719-69.103 1.445-143.4 1.524-38.5.04-70.523.407-71.163.813-1.177.75-2.044 78.724-2.605 234.23l-.232 64.5 164 .007c163.523.008 163.644.006 41.5-.506l-122.5-.513 159.5-.025c87.725-.014 150.275.228 139 .537-18.966.521-18.143.567 11 .624 17.325.034 29.25-.247 26.5-.624-4.711-.646-4.566-.691 2.5-.773q7.5-.086 5.5.773c-1.415.608-.391.833 3.5.77 4.537-.074 4.887-.192 2-.669-2.21-.366.555-.768 7.5-1.09l11-.511-.06-148.032c-.032-81.418-.356-148.806-.718-149.75-.618-1.61-7.933-1.718-116.524-1.718-63.726 0-116.06.195-116.298.433m117.855 2.095c-.595.479-59.77 1.451-89.255 1.467l-32 .017-7.5 8.729c-4.125 4.8-14.304 16.835-22.62 26.744s-20.109 23.828-26.205 30.933c-6.097 7.106-10.811 13.363-10.475 13.905.335.542.159.708-.39.368-.55-.339-2.982 1.71-5.405 4.554C410.044 476.211 376.576 514 375.868 514c-.478 0-.868-.477-.868-1.059s.338-.855.75-.605c.413.25 1.33-.174 2.039-.941 1.061-1.148 1.017-1.395-.25-1.395-.846 0-1.578-.562-1.625-1.25s-.495.1-.995 1.75-.709 3.54-.465 4.199c.264.713-.14.975-.999.645-.794-.304-1.195-.956-.89-1.449.304-.492.061-.895-.541-.895-.745 0-.786-.576-.129-1.803.734-1.372.511-2.087-.928-2.986-1.615-1.008-1.814-.927-1.354.554.48 1.548.414 1.541-.616-.067-.863-1.347-.868-2.149-.019-3.172.914-1.101.73-1.262-.936-.827-2.294.6-3.804 2.301-2.042 2.301.615 0 .81.498.434 1.107-.48.777-.925.717-1.493-.202-.445-.72-.575-1.688-.289-2.151s.077-1.384-.465-2.048c-.542-.663-.846-2.442-.675-3.952s-.169-3.042-.755-3.404-.801-.231-.477.293c.323.524.217 1.553-.236 2.287-1.182 1.911-8.428.513-7.664-1.479.302-.785.022-1.32-.621-1.189-.642.131-1.189-.302-1.214-.962-.094-2.498-2.04-3.079-3.97-1.187-1.699 1.665-1.728 1.887-.25 1.887.921 0 1.675.477 1.675 1.059s.52.738 1.155.346c.72-.446.882-.274.431.456-.531.859-1.493.716-3.617-.538-2.206-1.303-2.636-2.02-1.809-3.016 1.118-1.347.212-1.744-3.16-1.384-1.072.115-1.158-.073-.303-.658.707-.483.861-1.362.375-2.148-.575-.931-1.027-.998-1.506-.224-.935 1.513-4.539 1.403-4.681-.143-.063-.687-.042-1.997.047-2.91.111-1.124-.902-1.889-3.134-2.368-4.416-.947-5.276-1.555-3.655-2.582.908-.575.963-.864.166-.875-2.153-.027-2.274 1.646-.274 3.792 2.929 3.144 2.379 3.624-1.218 1.063-2.576-1.835-3.059-1.942-2.53-.565.604 1.574.472 1.583-1.757.123-1.505-.987-2.187-2.157-1.818-3.12.499-1.3.25-1.358-1.598-.369-1.204.645-3.129.874-4.277.509-1.399-.444-1.862-.297-1.403.445.943 1.525.012 1.389-3.734-.548-2.569-1.328-2.958-1.363-1.974-.176 1.302 1.57.003 3.847-2.176 3.816-.577-.009-.375-.493.45-1.076 1.333-.943 1.333-1.016 0-.658-.825.222-1.643 1.614-1.818 3.093s-.745 2.426-1.266 2.104c-.522-.322-.647-1.075-.278-1.672.409-.661.204-.796-.524-.346-.658.406-.945 1.528-.638 2.494.37 1.167-.203 2.155-1.709 2.947-1.41.741-1.564.986-.406.649 1.398-.408 1.709-.146 1.25 1.05-.336.877-.618 1.894-.626 2.262-.009.367-.41.046-.891-.715-.735-1.159-1.254-1.119-3.208.25-1.678 1.175-1.887 1.633-.747 1.633 1.982 0 1.366 4.621-.973 7.304-1.451 1.663-1.943 4.36-3.591 19.696-1.039 9.66-1.504 17.122-2.057 33-.297 8.525-.753 20.9-1.013 27.5-1.767 44.815-1.816 72.001-.135 75.25 2.116 4.09-20.017 3.64 160.13 3.255 53.35-.114 135.7-.155 183-.09s89.038.11 92.75.101c12.062-.029 10.75 17.847 10.75-146.469 0-102.271-.313-143.14-1.11-144.89-2.137-4.689-2.88-4.745-59.515-4.534-29.351.11-53.479.292-53.62.405m-442.613 5.566c-1.116 2.954-.969 3.149 1.635 2.177 1.838-.685 1.913-.983.671-2.677-1.35-1.842-1.428-1.825-2.306.5M888 375c0 .55-.337.947-.75.882-3.38-.534-9.25 3.581-9.25 6.484 0 .899-.45 1.634-1 1.634-1.258 0-1.346 14.706-.092 15.167.5.183 1.063 1.206 1.25 2.274.97 5.507 11.517 10.894 18.032 9.208 3.177-.822 7.81-5.019 7.81-7.074 0-.931.45-1.415 1-1.075.567.351 1-.49 1-1.941 0-1.407.45-2.559 1-2.559 1.559 0 1.2-12.712-.449-15.901-1.757-3.399-6.027-6.349-9.188-6.349-1.28 0-2.083-.394-1.786-.875s-1.286-.875-3.518-.875-4.059.45-4.059 1m-91.381 12.875c.452 2.566.292 3.188-.667 2.596-.851-.527-1.012-.376-.494.462 1.487 2.406 2.852-.539 1.666-3.596-1.09-2.809-1.095-2.804-.505.538M916.5 403c.36.583-.654 1-2.433 1-3.248 0-8.067 3.428-8.067 5.739 0 .759-.45 1.101-1 .761-.569-.352-1 .509-1 2s-.431 2.352-1 2c-.625-.386-1 1.676-1 5.5s.375 5.886 1 5.5c.55-.34 1 .315 1 1.455 0 4.255 4.223 9.327 9.718 11.672 8.151 3.478 16.502-.371 19.229-8.863.659-2.055 1.616-3.994 2.126-4.309C936.328 424.679 936.26 414 935 414c-.55 0-1-.727-1-1.615 0-2.648-7.016-8.385-10.254-8.385-1.655 0-2.603-.422-2.246-1 .362-.585-.676-1-2.5-1s-2.862.415-2.5 1m-408.331 11.901c.211 1.853-.302 3.099-1.276 3.099-.609 0-.846-.681-.527-1.512.468-1.22.054-1.369-2.143-.772-1.497.408-3.939.704-5.424.659-1.486-.046-2.611.397-2.5.983.11.586-1.149 1.198-2.799 1.361-1.65.162-3.788.389-4.75.502-.962.114-1.75.802-1.75 1.528 0 .981-.482 1.063-1.869.321-1.027-.55-2.152-.715-2.5-.368-.545.546-1.663.774-5.94 1.215-.445.045-.573.465-.284.932.612.99-2.854 2.995-6.292 3.64-1.312.247-2.621.683-2.908.971-.288.287-1.137.013-1.888-.61-1.08-.896-1.232-.787-.731.52.472 1.228.22 1.494-.977 1.034-.92-.353-1.611-.112-1.611.56 0 .649-.675 1.854-1.5 2.679-1.333 1.333-1.503 1.297-1.53-.322-.029-1.729-.083-1.732-1.062-.05-.567.974-1.453 1.51-1.969 1.191-.517-.319-.939.141-.939 1.023 0 .972-.689 1.487-1.75 1.309-1.147-.193-1.855.444-2.055 1.848-.224 1.568-.824 2.006-2.239 1.636-1.11-.29-1.643-.99-1.253-1.642.375-.625-.076-.523-1 .227-.925.75-1.438 1.757-1.14 2.239.297.481-.163.605-1.022.275-1.136-.435-1.394-.158-.945 1.012.399 1.04.087 1.611-.882 1.611-.825 0-1.77.704-2.1 1.563-.33.86-1.03 1.298-1.555.974-.527-.326-.778.328-.559 1.463.217 1.129-.008 1.804-.502 1.499s-1.326.245-1.849 1.223c-.988 1.846-1.139 2.431-1.164 4.528-.011.868-.293.811-.924-.186-.75-1.185-1.182-1.209-2.474-.136-1.603 1.33-1.189 3.562.471 2.536.505-.312.651.13.324.984-.654 1.704-2.382 2.127-2.382.583 0-.532-.701-.699-1.557-.371-.932.358-1.312 1.238-.948 2.189.336.874.302 1.282-.075.904-.775-.774-4.42 3.476-4.42 5.155 0 .6-.506.979-1.125.842-.619-.138-1.341.343-1.606 1.068-.276.758.108 1.183.904 1 1.657-.38 1.869.177 1.691 4.432-.099 2.35-.256 2.627-.57 1-.238-1.238-.852-2.25-1.364-2.25-.841 0-1.422 3.137-.999 5.399.093.495-.141 1.62-.52 2.5-.378.881-.657 3.176-.619 5.101l.07 3.5-.813-3c-.58-2.141-.861-2.428-.982-1-.528 6.252-1.433 11.445-2.582 14.822-1.065 3.129-1.065 3.731-.003 3.323.862-.331 1.25.315 1.158 1.928-.077 1.334-.477 2.426-.89 2.426-.413.001-.75.478-.75 1.06s.563.73 1.25.328.462.169-.5 1.27c-2.39 2.732-2.266 4.642.25 3.843 1.147-.364 2-.18 2 .433 0 .587-.337 1.014-.75.949-3.736-.59-5.826 3.761-2.361 4.915.946.315 1.138.022.603-.917-.542-.952-.456-1.07.278-.38 2.113 1.988 1.958 7.349-.162 5.59-1.142-.948-1.46-.438-1.773 2.848-.274 2.866.017 4.082 1.023 4.282.935.186 1.549 2.119 1.837 5.78.238 3.025.854 5.65 1.369 5.833.515.184.936.773.936 1.309 0 .537-.408.724-.907.416-.498-.309-.669.347-.379 1.456.29 1.11.923 2.262 1.407 2.561 1.587.981.99 3.682-.673 3.043-.89-.341-1.291-.173-.941.393.336.544 1.511.989 2.611.989 1.257 0 1.735-.429 1.287-1.155-.425-.686-.277-.884.364-.488.593.367.925 2.315.738 4.329-.231 2.491-.047 3.207.576 2.238 1.311-2.036 2.876.57 2.289 3.81-.373 2.057-.133 2.325 1.594 1.777 2.445-.776 2.758.997.34 1.925-1.385.532-1.066 1.043 1.75 2.807 1.894 1.186 3.815 2.055 4.268 1.932.454-.124.527.256.164.844s-.099 1.745.588 2.572c1 1.206 1.411 1.247 2.07.206.453-.713.823-.847.823-.297 0 2.281-1.666 3.731-2.323 2.02-.347-.906-1.085-1.367-1.639-1.024s-1.007-.17-1.007-1.137c0-1.292-.296-1.463-1.113-.646-1.421 1.421-.131 3.594 1.714 2.887.807-.31 1.399.084 1.399.931 0 .808.477 1.469 1.059 1.469s.803.414.491.919.089 1.577.893 2.381 1.197 1.726.874 2.05.385.4 1.574.171 1.918-.021 1.619.462-.063 1.175.522 1.537c.741.458.708 1.088-.106 2.069-.959 1.156-.678 1.411 1.559 1.411 2.005 0 2.578.395 2.158 1.488-.33.86-.059 1.388.643 1.25.668-.131 1.107.308.976.976-.138.702.39.973 1.25.643.818-.314 1.488-.925 1.488-1.357s.62-1.024 1.377-1.314c1.078-.414 1.219.169.651 2.69-.789 3.496 2.318 6.265 5.1 4.545.718-.444 1.863-.344 2.545.222s1.709.739 2.283.384 1.044.024 1.044.843c0 .818.588 2.082 1.306 2.809.718.726 1.604 2.109 1.969 3.071.364.962 1.351 1.75 2.194 1.75 2.095 0 1.937-1.729-.219-2.391-.962-.295-.4-.304 1.25-.02 1.65.285 4.238.487 5.75.449 2.129-.054 2.75.394 2.75 1.981 0 1.741.302 1.89 2 .981 1.128-.604 2-.666 2-.142 0 .51.652 1.178 1.449 1.484.921.354 1.265.075.943-.764-.279-.726.171-1.58 1-1.898 1.026-.394 1.329-.116.95.871-.373.973.113 1.449 1.48 1.449 1.119 0 2.694.659 3.499 1.463.804.805 2.434 1.277 3.621 1.048 1.269-.244 2.386.18 2.712 1.03.388 1.01 1.351 1.246 3.2.786 2.475-.616 2.549-.539 1.146 1.199q-1.494 1.853-.189 1.069c.721-.434 6.009-.788 11.75-.787 7.844.001 10.439-.319 10.439-1.286 0-.756 1.339-1.343 3.25-1.425a114 114 0 0 0 6.75-.54c1.925-.222 3.886-.438 4.357-.48s.6-.747.286-1.565c-.628-1.635 1.383-1.645 2.607-.012.476.635 1.071.502 1.629-.363.742-1.151.96-1.151 1.398 0 .286.75.473.4.417-.777-.064-1.317-.601-1.949-1.399-1.643-.712.273-1.295-.001-1.295-.61 0-1.083 3.612-1.515 9.392-1.123 2.273.155 2.761-.144 2.281-1.394-.336-.874-.174-1.59.358-1.59.533 0 .969.498.969 1.107s.62.869 1.378.578 1.823-.084 2.367.46c.652.652 1.194.455 1.591-.578.331-.862.24-1.567-.201-1.567s-.802-.612-.802-1.361.488-1.353 1.084-1.343c3.885.067 5.583-.479 5.583-1.796 0-.825.45-1.5 1-1.5s1.036-.788 1.079-1.75c.05-1.1.27-1.273.594-.466.284.706-.089 2.027-.828 2.937-1.174 1.443-1.112 1.566.487.966 1.007-.378 2.245-.687 2.75-.687s.918-.6.918-1.333c0-.734.675-1.334 1.5-1.334s1.5.327 1.5.727c0 1.799 2.845 1.64 3.323-.186.376-1.439.196-1.72-.652-1.017-.838.695-1.214.259-1.321-1.533-.119-2 .233-2.405 1.75-2.008 1.045.273 1.9.089 1.9-.41 0-.498.498-.906 1.107-.906.62 0 .839.77.498 1.75-.492 1.41-.305 1.362.963-.25.865-1.1 1.991-1.887 2.503-1.75.511.138.929-.2.929-.75s-.498-1-1.107-1-.839-.698-.511-1.552c.389-1.014.193-1.304-.563-.836-.785.485-.943.153-.489-1.03.369-.96.67-1.934.67-2.164s1.035-.418 2.3-.418 2.727-.406 3.25-.903c.522-.497 1.767-1.059 2.765-1.25 1.673-.32 1.64-.533-.418-2.735l-2.232-2.388 3.107.456c1.88.276 3.032.034 2.917-.612-.104-.587.304-.979.906-.87.679.123 1.038-1.515.944-4.31-.179-5.275 1.209-6.898 2.098-2.454.337 1.686 1.055 3.066 1.595 3.066s.666-.788.279-1.75-.933-2.312-1.214-3c-.281-.687.1-1.257.846-1.265 1.055-.012 1.023-.252-.143-1.076-1.129-.799-1.191-1.187-.25-1.568.688-.279 1.25-1.145 1.25-1.924s.402-1.417.893-1.417c1.541 0 2.147-3.057 1.022-5.158-1.259-2.353-.249-3.984 1.124-1.813 1.012 1.6 1.291.779.985-2.891-.123-1.481.209-2.112.89-1.691.708.437 1.091-.655 1.101-3.138.012-2.828.265-3.422.985-2.309.804 1.244.975 1.159 1-.5.023-1.505.243-1.665.89-.643.473.746 1.112.949 1.419.452 1.167-1.889-1.024-3.791-2.733-2.372-1.055.875-1.576.937-1.576.185 0-.617.477-1.122 1.059-1.122s.781-.45.441-1 .142-1 1.072-1c1.361 0 1.583-.657 1.142-3.375-.443-2.731-.23-3.351 1.119-3.25 1.267.095 1.586-.562 1.331-2.737-.251-2.131.005-2.687 1-2.176.8.411.731.155-.172-.638-.829-.728-1.36-2.337-1.18-3.576s-.429-3.008-1.353-3.932c-1.572-1.572-1.572-1.76-.006-2.906 2.073-1.515 2.331-6.747.448-9.067-.916-1.13-.969-1.467-.151-.976q1.25.752 1.25-1.251c0-1.463-.538-1.898-2-1.616-2.166.417-2.799-1.064-.75-1.754.975-.328.948-.787-.122-2.083-.893-1.081-.98-1.663-.25-1.663 1.725 0 1.331-2.591-.628-4.128-1.591-1.248-1.624-1.211-.357.402.765.976 1.103 2.063.75 2.417-.354.353-.643.091-.643-.583s-.41-.972-.912-.662c-1.094.676-.882-1.385.345-3.351.6-.961.512-1.179-.278-.69-.764.471-1.155-.199-1.155-1.979 0-1.48-.788-3.419-1.752-4.309-3.847-3.551-4.614-5.073-2.337-4.634 1.149.221 2.089-.022 2.089-.54 0-.519-.505-.943-1.122-.943-.822 0-.827-.357-.016-1.333.837-1.01.746-1.334-.378-1.334-.816 0-1.484.586-1.484 1.302 0 .747-.64 1.057-1.5.727-1.739-.668-2.041-3.362-.378-3.362.802 0 .818-.368.055-1.287-.588-.708-1.205-3.35-1.373-5.872-.206-3.109-.697-4.435-1.525-4.118-.671.258-2.419-.475-3.884-1.627-1.525-1.2-2.072-2.109-1.28-2.126.934-.021.801-.371-.409-1.075-1.072-.624-1.576-1.73-1.252-2.751.409-1.289-.109-1.762-2.113-1.928-2.407-.199-6.132-3.762-5.615-5.371.116-.36-.473-.918-1.31-1.239-.865-.332-1.257-.157-.909.405.336.544.161.989-.389.989-1.032 0-2.576-1.928-2.603-3.25-.008-.413-.409-.722-.891-.687-1.518.109-3.383-4.462-2.186-5.355.672-.5.51-.733-.438-.631-4.203.449-7-.181-7-1.577 0-1.201-3.18-2.17-4.25-1.296-1.203.984-4.493-3.816-3.669-5.355.762-1.425.646-1.682-.552-1.222-.835.321-1.269.985-.964 1.478.304.492-.097.895-.892.895-1.871 0-6.792-2.548-6.153-3.186.269-.269-1.132-.551-3.112-.625-2.848-.107-3.479.184-3.016 1.39.333.869.16 1.262-.403.914-.544-.336-.989-1.19-.989-1.897s-.825-2.033-1.833-2.945c-1.517-1.373-1.834-1.407-1.834-.199 0 .803.37 1.231.822.952s.54.228.194 1.128c-.449 1.17-.837 1.297-1.363.445-.475-.768-1.846-.947-3.861-.504-1.994.437-3.125.295-3.125-.394 0-.593.702-1.079 1.559-1.079 2.602 0 .667-1.74-2.443-2.196-2.215-.325-2.778-.087-2.361 1.001.456 1.188.168 1.224-1.716.216-1.398-.748-5.091-1.073-9.652-.848-4.063.201-7.387.019-7.387-.404s.702-.769 1.559-.769 1.302-.416.988-.924c-.314-.509.222-1.118 1.191-1.354s.322-.427-1.438-.425-3.169.274-3.131.604m7.513.486c-.374.973.042 1.236 1.393.883 2.214-.579 2.61-2.27.532-2.27-.766 0-1.632.624-1.925 1.387m77.187 33.955c.612.738.78 1.71.372 2.16-.407.45-.178.495.509.099 1.803-1.037 1.538-3.601-.372-3.601-1.244 0-1.363.313-.509 1.342m369.594 17.717c-.36.583-.345 4.135.032 7.893.86 8.558.674 39.802-.461 77.548-.815 27.122-1.753 40.129-4.102 56.899-.532 3.795-.738 7.128-.458 7.408s.083 1.022-.437 1.649-1.079 3.435-1.242 6.241c-.162 2.806-.632 4.895-1.045 4.643s-.817.469-.9 1.601a550 550 0 0 1-.25 3.309c-.055.688-.408 1.483-.785 1.769-.376.285-.892 1.635-1.144 3-.253 1.364-.814 3.606-1.248 4.981-.433 1.375-.667 2.675-.52 2.888s-.113.664-.578 1c-.465.337-1.962 3.087-3.325 6.112s-2.785 5.729-3.159 6.009-.829 1.108-1.011 1.84c-.181.731-1.567 2.687-3.08 4.346-2.831 3.105-3.595 5.805-1.643 5.805.609 0 .839-.698.511-1.552-.34-.888-.173-1.291.392-.942.959.593 5.895-4.21 5.958-5.798.018-.435.932-1.758 2.032-2.938s2-2.737 2-3.459c0-.721.45-1.311 1-1.311s1-.702 1-1.559.461-1.274 1.025-.926c.563.349.96.263.881-.191-.356-2.05.167-4.397.882-3.955.433.268.887-.718 1.008-2.191.122-1.473.667-2.828 1.213-3.011.545-.184.991-1.427.991-2.764s.395-3.212.877-4.167c1.52-3.007 3.122-8.782 3.138-11.307.013-1.972.209-2.147 1.045-.929.856 1.247 1.003 1.163.87-.5-.454-5.676.25-12.909 1.07-11 .57 1.327.888-1.03.945-7 .061-6.453.374-8.576 1.106-7.5.751 1.105.987.185.895-3.5-.33-13.298.354-27.003 1.123-22.5.489 2.864.595.864.292-5.5-.262-5.5-.458-10.45-.435-11s.33-18.775.682-40.5c.664-41.046.142-48.886-3.169-47.615-.791.304-1.439.146-1.439-.35s1.237-1.09 2.75-1.319l2.75-.416-2.691-.15c-1.48-.083-2.986.327-3.346.909m-905.892 1.826c-.29.47-.464 24.651-.386 53.735.077 29.084.473 51.755.878 50.38.736-2.495 1.518 13.192 1.072 21.5-.16 2.996.043 3.623.81 2.5.938-1.373 1.669 8.699 1.125 15.5-.123 1.538.056 1.681.774.621.669-.989 1.087-.137 1.472 3 .549 4.46 1.77 10.435 3.492 17.079.527 2.035.711 3.947.409 4.25-.303.302-.025.55.616.55.642 0 1.167.622 1.167 1.382 0 1.503 9.855 21.803 10.981 22.618.379.275 1.101 1.221 1.604 2.103 2.01 3.521 6.452 7.992 7.375 7.422.904-.559-5.456-10.597-7.197-11.358-.42-.184-.763-.998-.763-1.809 0-.812-.48-1.179-1.067-.817s-.983.052-.881-.691c.329-2.398-.033-3.98-.802-3.505-.413.255-.819-.678-.902-2.072s-.685-2.863-1.336-3.265c-.65-.403-1.095-1.032-.988-1.398.163-.558-.192-1.958-1.423-5.61-.093-.275-.809-3.312-1.591-6.75-.783-3.437-1.806-6.25-2.275-6.25s-.604-.404-.299-.897-.073-4.655-.84-9.25c-4.44-26.589-5.587-47.601-5.592-102.385L62 468.436l-2.45-.203c-1.348-.111-2.689.182-2.979.652m15.444 1.015c.186 19.205 6.742 78.324 8.882 80.1.332.275.722 2.503.868 4.95s.596 4.698 1 5c.404.303.863 2.125 1.019 4.05.157 1.925.722 3.651 1.256 3.835.535.185.723.739.419 1.232C83.798 571.753 102.285 616 105.068 616c.577 0 .828.359.557.797s2.538 4.916 6.241 9.95c9.43 12.817 26.578 29.399 38.676 37.399 10.627 7.027 25.864 15.115 26.769 14.21s-5.286-11.161-9.534-15.795c-.977-1.066-1.777-2.491-1.777-3.166 0-.676-.369-1.378-.819-1.562-.451-.183-2.78-3.258-5.175-6.833s-4.615-6.725-4.931-7-1.025-1.227-1.575-2.116c-2.176-3.518-11.878-17.414-12.485-17.884-.356-.275-2.157-2.75-4.003-5.5-4.481-6.676-15.338-21.873-16.075-22.5-1.785-1.52-9.148-13.643-12.755-21-7.791-15.893-8.309-19.458-9.038-62.242l-.644-37.742-2.815-2.609c-2.234-2.07-4.091-2.7-9-3.051l-10.435-.749c-3.361-.242-4.247.028-4.235 1.293m70.947.99-3.462 2.89v41.36c0 43.488.218 45.727 4.536 46.685.805.179 1.614.741 1.797 1.25.197.546 17.298.925 41.784.925h41.45l3.466-3.467c3.051-3.051 3.475-4.1 3.537-8.75.052-3.874.3-4.75.93-3.283 1.459 3.394 1.188-67.386-.273-71.5-3.242-9.127-2.535-9-50.137-9h-40.166zm648.288.65c-1.788 1.872-3.25 4.091-3.25 4.932 0 .84-.45 1.528-1 1.528-.651 0-.945 12.812-.843 36.75.087 20.212.466 34.5.843 31.75.644-4.693.695-4.522.843 2.783.151 7.468.299 7.925 3.643 11.27l3.486 3.486 42.64-.061c23.451-.033 42.373-.326 42.047-.652-.325-.325.466-1.423 1.759-2.44 3.386-2.663 3.865-7.379 4.106-40.386.226-30.889-.578-46.685-2.407-47.294-.614-.205-1.117-.938-1.117-1.629 0-3.21-4.854-3.577-46.297-3.508l-41.203.068zM940.327 469c-8.675.473-9.313.663-11.75 3.5-3.444 4.01-3.445 4.024-3.921 43-.333 27.244-.747 35.362-2.082 40.855-1.98 8.145-6.177 19.095-8.738 22.799-1.01 1.46-1.836 3.148-1.836 3.75 0 .603-.374 1.096-.831 1.096s-1.469 1.237-2.248 2.75-1.667 2.975-1.972 3.25-2.556 3.425-5.002 7-4.897 7.01-5.447 7.633-5.275 7.529-10.5 15.345-10.73 15.632-12.234 17.367-2.741 3.46-2.75 3.834c-.009.373-.603 1.273-1.321 2-.718.726-3.283 4.246-5.701 7.821s-5.206 7.372-6.195 8.439c-.99 1.066-1.799 2.491-1.799 3.166 0 .676-.364 1.378-.808 1.562-1.125.464-7.192 9.473-7.192 10.68 0 .542-.562 1.193-1.25 1.445-.846.31-.925.807-.244 1.539 1.855 1.993 33.494-15.879 33.494-18.92 0-.566.416-.772.924-.458 1.005.621 29.076-26.773 29.076-28.374 0-.537 1.129-2.195 2.51-3.684s2.328-2.891 2.105-3.113c-.223-.223.664-1.559 1.971-2.97 1.307-1.41 2.133-2.957 1.836-3.438s-.105-.874.426-.874c1.408 0 10.359-17.961 14.452-29 9.224-24.875 14.14-51.656 17.203-93.701 1.81-24.859 1.812-24.987.247-24.882-.687.045-5.378.308-10.423.583m-580.189 33.667c.609.733 1.488 1.333 1.953 1.333s.616-.6.335-1.333c-.282-.734-1.161-1.334-1.953-1.334-1.088 0-1.17.327-.335 1.334M133.252 544.5c.011 2.2.216 2.982.455 1.738s.23-3.044-.02-4-.446.062-.435 2.262M588 569.167c0 .458 1.35.833 3 .833s3-.375 3-.833c0-.459-1.35-.834-3-.834s-3 .375-3 .834M195 585c0 .55-.502 1-1.115 1-2.918 0-7.885 7.368-7.885 11.695 0 2.368.45 4.305 1 4.305s1 .801 1 1.779c0 1.773 3.121 4.72 4.533 4.281.409-.127 1.113.368 1.565 1.099.644 1.042 5.176 1.305 20.911 1.214 19.514-.114 20.16-.183 22.54-2.419 1.348-1.267 2.451-2.926 2.451-3.687 0-.762.45-1.107 1-.767.627.387 1-1.774 1-5.793 0-5.778-.3-6.724-3.041-9.592-1.672-1.751-3.472-2.916-4-2.59-.527.326-.959.116-.959-.466 0-.709-6.442-1.059-19.5-1.059-12.333 0-19.5.368-19.5 1m595 .059c0 .582-.432.792-.959.466-.528-.326-2.328.839-4 2.59-4.67 4.886-4.489 13.637.383 18.509l3.423 3.423 20.985.113 20.986.113 2.591-2.591c1.425-1.425 2.591-3.287 2.591-4.137s.45-1.545 1-1.545c1.425 0 1.24-7.598-.25-10.264-2.25-4.025-4.029-5.736-5.964-5.736-1.047 0-1.626-.45-1.286-1 .404-.654-6.323-1-19.441-1-13.451 0-20.059.349-20.059 1.059m-211.435.836c-.305.493.104 1.148.909 1.457 1.562.599 2.897-.648 1.832-1.713-.904-.904-2.093-.793-2.741.256m-59.87 23.805c-2.057.533-1.764 2.657.424 3.082.886.172 1.452-.51 1.452-1.75 0-1.118-.016-1.98-.035-1.916s-.848.327-1.841.584M184 629.032c0 3.531-3.216 3.203 30 3.052 30.74-.14 28 .175 28-3.219v-2.802h-58zm598-.097v2.935l24.25.114c13.337.063 24.925.163 25.75.222 6.516.472 8.036-.152 7.803-3.206l-.228-3H782zM192 639v3l6.75.168 6.75.168-6 .664c-3.337.369 3.986.646 16.5.623 21.108-.039 21.572-.077 7.5-.623l-15-.582 16.75-.209c15.385-.192 16.75-.356 16.75-2.009 0-3.954-1.532-4.2-26.2-4.2H192zm591.25-1.506c-3.473 3.949-2.053 4.332 16.5 4.457 10.387.07 17.888.52 18.083 1.085.184.53 2.884.891 6 .801l5.667-.163L824 643l-5.5-.674 6.643-.163c6.808-.167 8.523-1.263 7.234-4.622-.82-2.138-47.249-2.183-49.127-.047m10 6.249c4.263.188 11.237.188 15.5 0 4.263-.187.775-.341-7.75-.341s-12.013.154-7.75.341m-590.5 2.98c1.787.222 4.713.222 6.5 0 1.787-.221.325-.403-3.25-.403s-5.037.182-3.25.403M215 647c1.236.799-12.351 1.734-16.25 1.118-.412-.065-.75.782-.75 1.882 0 1.145.667 2 1.559 2 .857 0 1.281.45.941 1-1.073 1.737 38.328 1.315 40.071-.429 1.898-1.897 1.821-4.571-.13-4.571-.857 0-1.281-.45-.941-1 .387-.627-1.736-.994-5.691-.985-4.442.011-5.865.302-4.809.985 1.151.744.802.969-1.5.969s-2.651-.225-1.5-.969c1.047-.676-.616-.969-5.5-.969s-6.547.293-5.5.969m570 0c0 .55-.675 1-1.5 1-1.902 0-1.944 2.699-.071 4.571 2.092 2.093 39.05 2.093 41.142 0 3.614-3.613 1.903-4.568-8.321-4.641-6.378-.046-9.058-.368-7.75-.93 1.263-.543-2.695-.885-10.75-.93-7.88-.043-12.75.312-12.75.93m31.264-.282c1.52.229 3.77.223 5-.014s-.014-.425-2.764-.418-3.756.202-2.236.432M354.25 666.735c2.613.206 6.887.206 9.5 0s.475-.375-4.75-.375-7.363.169-4.75.375m337.518-.01c1.797.222 4.497.218 6-.01 1.503-.229.032-.411-3.268-.405s-4.529.192-2.732.415m-69.018 1.019c4.538.185 11.962.185 16.5 0s.825-.337-8.25-.337-12.788.152-8.25.337m107-.038c1.237.238 3.263.238 4.5 0 1.237-.239.225-.434-2.25-.434s-3.487.195-2.25.434m202.174 7.014c-1.333 1.496-1.708 2.174-.832 1.508s1.926-.877 2.333-.469c.408.407.592.066.408-.759-.184-.83.258-1.377.991-1.225.729.151 1.04-.187.691-.75-.856-1.386-.837-1.395-3.591 1.695m-841.439.305c-.349.563-.038.901.691.75.733-.152 1.175.395.991 1.225-.184.825.008 1.158.425.741.418-.418 1.918.253 3.334 1.49s1.023.567-.872-1.49c-3.876-4.207-3.709-4.108-4.569-2.716"/></svg>