<svg xmlns="http://www.w3.org/2000/svg" viewBox="0 0 1024 1024"><path fill="#00e5cc" d="M474.75 195.707c-1.512.234-2.75.801-2.75 1.259 0 .459-1.633.834-3.629.834s-3.909.43-4.25.955-2.152.991-4.023 1.037c-1.872.046-3.672.449-4 .895-.329.447-1.723.931-3.098 1.075s-3.175.551-4 .904-2.625.811-4 1.018c-1.375.208-3.175.618-4 .911s-1.606.527-1.735.519c-.451-.029-10.775 2.995-12.265 3.592-.825.331-2.617.787-3.981 1.013-1.365.226-2.715.729-3 1.118-.286.388-2.094.854-4.019 1.035s-3.725.631-4 1-2.075.819-4 1-3.725.621-4 .978c-.275.358-1.625.768-3 .912s-3.175.551-4 .904-2.617.827-3.981 1.053c-1.365.226-2.715.72-3 1.096s-2.074.809-3.975.96-3.701.601-4 1-1.292.781-2.206.849c-2.671.2-19.29 4.621-19.838 5.277-.275.33-1.625.717-3 .861s-3.175.541-4 .882-2.575.762-3.89.935-3.114.623-4 1c-.885.377-2.685.827-4 1s-3.114.633-4 1.021c-.885.389-2.727.893-4.091 1.119s-2.715.72-3 1.096-2.094.837-4.019 1.023c-1.925.187-3.651.752-3.835 1.257s-.659.718-1.054.474c-.823-.509-23.366 5.21-28.111 7.131-.825.334-2.625.777-4 .984-1.375.208-3.175.658-4 1-.825.343-2.617.809-3.981 1.035-1.365.226-2.715.72-3 1.096s-1.419.807-2.519.957c-2.541.345-10.53 2.249-12.5 2.979-.825.306-2.625.74-4 .964s-2.651.833-2.835 1.353c-.185.519-.688.727-1.119.46-.687-.424-15.993 3.523-20.046 5.17-.825.335-2.625.779-4 .986-1.375.208-3.175.658-4 1-.825.343-2.625.793-4 1-1.375.208-3.175.658-4 1-.825.343-2.625.793-4 1-1.375.208-3.175.658-4 1-.825.343-2.617.809-3.981 1.035-1.365.226-2.715.72-3 1.096s-1.644.803-3.019.947-3.175.549-4 .9-2.377.807-3.449 1.012c-2.842.545-8.107 3.8-7.716 4.77.185.458-.236 1.186-.936 1.618-1.368.846-1.508 368.393-.142 373.15.362 1.258.584 20.088.493 41.843-.162 38.803.082 44.476 1.864 43.375.778-.481 1.041.209.82 2.146-.117 1.027 4.301 4.397 5.11 3.897.432-.267.937-.031 1.122.525s1.911 1.171 3.836 1.365c1.924.195 4.173.594 4.998.887 1.521.539 10.838 2.552 14.5 3.133 1.1.174 2.675.565 3.5.869 2.77 1.02 10.472 2.725 13.5 2.988 1.65.143 3.225.552 3.5.91.275.357 2.075.784 4 .948s4.003.665 4.618 1.113 2.975.922 5.245 1.052 4.129.494 4.132.809c.005.53 12.265 3.428 14.505 3.428.55 0 1.225.292 1.5.65.275.357 2.075.784 4 .948s3.967.635 4.538 1.046c.57.412 2.82.885 5 1.052 2.179.167 4.187.596 4.462.954.275.357 2.075.784 4 .948s4.082.73 4.793 1.258c.71.528 3.373.928 5.916.89 3.094-.047 4.156.227 3.208.827-1.896 1.2 1.756 1.142 4.583-.073 1.924-.827 1.916-.862-.203-.93-1.212-.038-3.237-.47-4.5-.958-1.263-.489-6.572-1.867-11.797-3.063s-11.075-2.577-13-3.07-5.975-1.42-9-2.061c-3.025-.642-6.625-1.527-8-1.969-1.375-.441-4.975-1.326-8-1.967-3.025-.64-7.075-1.553-9-2.029s-5.975-1.363-9-1.97c-3.025-.608-9.325-2.003-14-3.099a1817 1817 0 0 0-13-3.002c-16.138-3.617-22.882-5.787-23.866-7.68-1.071-2.062-1.912-93.054-2.778-300.481l-.651-155.779 2.322-2.471c1.277-1.359 3.395-2.471 4.706-2.471s2.162-.36 1.89-.801c-.272-.44 1.614-1.37 4.191-2.066s5.467-1.686 6.422-2.199c.955-.514 2.499-.934 3.429-.934 1.892 0 7.909-1.777 10.571-3.123.955-.482 2.743-.877 3.972-.877 1.944 0 8.386-1.682 19.363-5.056 1.689-.519 3.833-.944 4.764-.944.93 0 2.474-.406 3.429-.903 1.566-.814 4.692-1.761 13.736-4.164l7.5-2c7.665-2.049 10.343-2.757 15-3.963 2.475-.641 5.281-1.571 6.236-2.067s3.066-.903 4.691-.903 3.233-.45 3.573-1 1.572-1 2.738-1 3.502-.42 5.191-.932c1.689-.513 5.096-1.457 7.571-2.098s5.281-1.571 6.236-2.067 2.499-.903 3.429-.903c1.892 0 7.909-1.777 10.571-3.123.955-.482 3.072-.877 4.703-.877s4.001-.403 5.264-.896c2.615-1.02 7.124-2.292 21.797-6.152 2.475-.651 5.625-1.53 7-1.952s4.3-1.235 6.5-1.806 6.475-1.8 9.5-2.73c3.025-.931 7.075-2.055 9-2.499 3.576-.824 16.707-4.307 23-6.101a255 255 0 0 1 7-1.864c1.925-.477 5.3-1.389 7.5-2.027 2.2-.637 5.467-1.392 7.259-1.677 1.793-.284 3.507-.917 3.809-1.406.303-.49 1.622-.89 2.932-.89s2.631-.402 2.935-.894 2.243-1.108 4.309-1.368 6.456-1.236 9.756-2.168c6.394-1.807 14.383-1.684 24.5.376 3.025.616 7.975 1.557 11 2.091l11 1.943c3.025.534 7.975 1.242 11 1.573s6.4.986 7.5 1.456c2.325.994 6.27 1.74 16 3.027 3.85.509 9.25 1.346 12 1.859 2.75.514 7.7 1.392 11 1.953 3.3.56 8.475 1.536 11.5 2.168s8.425 1.557 12 2.055 8.75 1.384 11.5 1.97c2.75.585 7.7 1.451 11 1.923s8.475 1.382 11.5 2.022c3.025.641 8.2 1.579 11.5 2.085s8.25 1.371 11 1.92a507 507 0 0 0 10.5 1.955c3.025.525 8.2 1.478 11.5 2.118s8.475 1.542 11.5 2.004 7.975 1.307 11 1.877 8.2 1.451 11.5 1.958 9.825 1.657 14.5 2.556c13.352 2.567 29.168 5.426 33 5.965 1.925.271 5.975.979 9 1.574 3.025.594 7.75 1.471 10.5 1.949 2.75.477 7.925 1.436 11.5 2.13s9.275 1.298 12.667 1.342 6.091.468 6 .941c-.092.474 2.533 1.487 5.833 2.252s7.919 1.841 10.264 2.39c2.346.549 5.357.998 6.691.998 1.335 0 2.729.489 3.099 1.087.369.598 1.487.874 2.484.613 1.251-.327 1.646-.04 1.275.926-.295.77.03 2.082.722 2.916 1.007 1.214 1.112 41.359.526 201.237-.885 241.547-.902 244.086-1.687 243.883-.345-.089-2.028 1.076-3.742 2.588s-3.794 2.75-4.623 2.75-1.509.45-1.509 1-.59 1-1.312 1c-1.227 0-8.009 2.865-11.924 5.037-.955.53-2.179.963-2.719.963s-4.665 1.8-9.167 4-8.791 4-9.532 4-1.346.413-1.346.917c0 1.931 2.665 1.713 6.785-.557 2.357-1.298 4.945-2.36 5.75-2.36.806 0 1.465-.375 1.465-.833 0-.459.563-.838 1.25-.844.688-.005 3.247-.98 5.688-2.166 2.441-1.187 5.028-2.157 5.75-2.157s1.312-.477 1.312-1.059.414-.803.919-.491 1.631-.143 2.5-1.012c.87-.87 1.581-1.316 1.581-.993 0 1.248 10.616-4.861 12.749-7.336 2.572-2.984 2.395.587 2.686-54.109.1-18.975.537-36.15.97-38.168.451-2.101.377-4.4-.174-5.383-.544-.974-.623-3.213-.18-5.174 1.595-7.073 1.485-345.323-.112-346.334-.792-.501-1.032-.917-.534-.926.498-.008.1-.904-.884-1.991-.983-1.087-2.178-1.736-2.655-1.441s-.866.117-.866-.394c0-1.3-15.393-5.11-21.5-5.322-1.65-.057-3.9-.478-5-.935s-6.275-1.552-11.5-2.434-11.75-2.006-14.5-2.498c-24.153-4.321-35.64-6.117-39.258-6.14-2.341-.015-4.002-.439-3.69-.943.537-.869-3.797-1.442-7.981-1.056-1.06.099-2.208-.274-2.55-.827s-3.074-1.124-6.071-1.27c-2.998-.145-5.688-.58-5.979-.966s-2.583-.878-5.094-1.094c-2.51-.216-5.016-.672-5.57-1.014-.553-.342-3.324-.75-6.156-.906-2.833-.156-5.151-.622-5.151-1.034s-2.727-.75-6.059-.75c-3.785 0-5.827-.375-5.441-1 .555-.898-4.633-1.558-8.324-1.058-.728.099-1.853-.257-2.5-.79-.647-.534-3.201-1.193-5.676-1.464-2.475-.272-5.175-.743-6-1.046s-3.525-.754-6-1c-2.475-.247-5.175-.692-6-.989s-3.075-.777-5-1.066c-1.925-.288-5.559-.96-8.075-1.493-2.517-.532-5.442-.835-6.5-.673-1.059.163-2.15-.007-2.425-.377-.609-.82-26.329-5.565-40.5-7.472-2.2-.296-6.25-1.02-9-1.609-9.063-1.942-26.781-4.745-28.406-4.493-.877.136-1.828-.111-2.114-.549-.287-.438-2.987-.937-6-1.108s-5.754-.687-6.089-1.144-3.137-.853-6.228-.881-5.377-.442-5.082-.919-.952-.903-2.772-.946-3.984-.258-4.809-.48c-5.384-1.449-22.709-4.381-23.685-4.008-.652.249-1.327.092-1.5-.348-.384-.975-11.253-1.971-15.065-1.38m-2.25 5.946c-7.469 2.231-11.612 3.386-15.5 4.324-9.47 2.283-16.695 4.242-18.5 5.016-1.1.471-3.35 1.135-5 1.476s-4.575 1.016-6.5 1.499a1634 1634 0 0 1-10.5 2.564c-3.85.927-7.9 2.036-9 2.463s-4.025 1.322-6.5 1.988c-2.475.667-5.281 1.618-6.236 2.114-.955.497-2.499.903-3.429.903-.931 0-3.075.42-4.764.932-1.689.513-4.984 1.413-7.321 2-10.426 2.62-12.857 3.319-14.486 4.165-.955.497-2.499.903-3.429.903-1.766 0-3.483.465-14.466 3.916-3.647 1.146-7.585 2.084-8.75 2.084s-2.119.525-2.119 1.167c0 .641-.259.907-.575.591-.317-.316-2.004-.12-3.75.435-1.746.556-4.975 1.381-7.175 1.833-2.2.453-5.575 1.282-7.5 1.842-7.639 2.224-10.78 3.065-17.5 4.685-6.799 1.639-14.1 3.613-27.5 7.435-3.575 1.02-8.525 2.377-11 3.016l-8.5 2.194c-2.2.569-5.125 1.389-6.5 1.822s-4.75 1.31-7.5 1.948c-8.794 2.037-12.956 3.204-14.736 4.129-.955.497-2.643.903-3.75.903-2.036 0-2.73 1.439-1.162 2.408.885.547 12.269-2.347 13.148-3.342.275-.311 1.625-.684 3-.828s3.175-.551 4-.904 2.625-.811 4-1.018c1.375-.208 3.175-.651 4-.986s2.175-.693 3-.797c4.069-.515 12-3.014 12-3.781 0-.479.383-.633.852-.344.887.549 12.273-2.349 13.148-3.346.275-.313 1.85-.706 3.5-.872 2.863-.29 8.29-1.672 11.5-2.93 2.288-.896 2.798-1 5.559-1.135 1.66-.081 2.308-.53 1.846-1.28-.439-.709-.275-.883.424-.451 1.026.634 20.245-3.814 22.671-5.247.55-.325 1.675-.682 2.5-.794 4.739-.64 12-2.802 12-3.572 0-.494.383-.662.852-.373.887.549 12.273-2.349 13.148-3.346.275-.313 1.85-.718 3.5-.9s7.05-1.42 12-2.75 11.925-3.199 15.5-4.151c3.575-.951 6.725-1.962 7-2.246.275-.283.95-.515 1.5-.515 2.657 0 12.5-2.928 12.5-3.719 0-.494.383-.662.852-.373.74.458 9.803-1.569 14.148-3.165.825-.303 2.625-.72 4-.927s3.175-.662 4-1.01 1.725-.687 2-.754 3.313-.76 6.75-1.542c3.438-.783 6.25-1.667 6.251-1.966 0-.299 1.127-.609 2.503-.688 1.377-.08 3.289-.487 4.25-.904s2.863-.945 4.227-1.171 2.715-.729 3-1.118c.286-.388 2.094-.854 4.019-1.035s3.725-.621 4-.978c.275-.358 1.625-.768 3-.912s3.175-.549 4-.901c.825-.351 2.149-.769 2.941-.928.793-.158 2.593-.614 4-1.013s3.009-.595 3.559-.438 4.6.898 9 1.646 10.475 1.832 13.5 2.409c3.025.578 6.87 1.177 8.545 1.333s3.536.586 4.135.956 3.278.741 5.954.825 5.316.485 5.866.893 3.25 1.017 6 1.353 9.43 1.463 14.845 2.501c5.415 1.039 10.749 1.653 11.853 1.364s2.298-.057 2.654.515c.357.571 2.898 1.298 5.648 1.614s7.164 1.03 9.808 1.585 5.12.947 5.5.87c.381-.077 1.367.109 2.192.412 3.519 1.294 13.459 2.933 17.794 2.933 2.58 0 4.932.389 5.226.865.294.477 2.548 1.018 5.008 1.203s5.018.675 5.684 1.087 3.367.789 6 .838 5.013.44 5.289.869c.275.43 2.525.902 5 1.049s5.305.665 6.291 1.152c.985.487 4.023.902 6.75.924 2.727.021 4.958.355 4.958.743 0 .673 11.4 2.999 17.575 3.586 1.609.153 3.6.5 4.425.771 3.844 1.263 14.193 2.753 19.56 2.816 4.472.053 5.446.301 3.94 1.002-1.569.731-1.192.867 1.75.631 2.063-.166 3.75.087 3.75.561s.788.764 1.75.645 2.425.075 3.25.432 3.525.764 6 .904 4.734.564 5.02.942c.287.379 2.987.829 6 1s5.717.628 6.008 1.012c.29.385 2.54.882 5 1.106s5.147.686 5.972 1.028 3.525.76 6 .93 4.95.565 5.5.877 4.6 1.127 9 1.811c4.4.685 11.001 1.826 14.668 2.537 3.815.74 8.094.976 10 .553l3.332-.74-4-.693c-2.2-.382-8.95-1.595-15-2.697s-13.7-2.463-17-3.024-7.8-1.4-10-1.865c-3.881-.818-10.048-1.849-23.5-3.927-5.849-.903-15.176-2.562-29.5-5.248-2.75-.516-7.7-1.406-11-1.978s-8.025-1.413-10.5-1.869-7.2-1.317-10.5-1.913-8.475-1.556-11.5-2.131c-3.025-.576-8.2-1.494-11.5-2.041s-8.475-1.426-11.5-1.952c-3.025-.527-8.2-1.389-11.5-1.917-9.034-1.443-17.425-2.936-23-4.091-7.947-1.647-21.361-4.049-33-5.909-3.3-.527-8.812-1.428-12.25-2.002-3.437-.574-9.062-1.512-12.5-2.084a972 972 0 0 1-11.75-2.039c-5.307-.964-7.496-1.377-20.5-3.871-6.967-1.335-15.503-2.762-20.5-3.425-1.925-.256-5.75.207-8.5 1.028M791 257c-1.895 1.225 1.176 1.225 5 0 2.45-.785 2.44-.802-.5-.885-1.65-.046-3.675.352-4.5.885m9.395.711c1.259.326 1.504.733.732 1.211-.64.395 2.47 1.333 6.911 2.084 9.633 1.63 10.41 2.346 4.454 4.104-2.471.73-4.492 1.58-4.492 1.89s-1.212.664-2.694.787c-1.482.122-2.944.558-3.25.968s-1.231.885-2.056 1.056c-2.498.517-13.465 4.538-14 5.133-.275.306-1.605.68-2.956.831s-2.742.737-3.092 1.303c-.349.565-1.044.951-1.544.856-2.65-.499-4.864.124-3.502.987.956.605.215.856-2.317.784-2.048-.058-4.031.322-4.406.845-.376.522-1.717 1.094-2.981 1.271s-3.963 1.043-6 1.926-4.592 1.764-5.681 1.958c-1.088.194-2.415.789-2.95 1.324-.534.534-1.979.971-3.212.971s-2.519.45-2.859 1-1.491 1-2.559 1-1.941.352-1.941.782-1.237.884-2.75 1.009-2.9.672-3.083 1.218-1.646.991-3.25.991-2.917.394-2.917.875-1.176.875-2.614.875-2.9.394-3.25.875-1.761 1.034-3.136 1.228-2.725.644-3 1-1.625.806-3 1-2.725.644-3 1-1.4.788-2.5.96c-1.79.28-10.593 3.246-14.5 4.885-2.02.848-2.728 1.03-4.559 1.177-.857.069-1.258.612-.891 1.206.399.646-.081 1.003-1.191.885-3.538-.374-5.474.038-4.859 1.034.361.583-.656 1-2.441 1-1.682 0-3.059.45-3.059 1s-1.35 1-3 1-3 .394-3 .875-1.176.875-2.614.875-2.9.394-3.25.875-1.741.999-3.092 1.15-2.701.601-3 1-1.649.849-3 1-2.701.601-3 1-1.669.884-3.044 1.078-2.725.644-3 1-1.625.806-3 1-2.725.644-3 1-1.625.806-3 1-2.775.795-3.112 1.335c-.336.541-1.011.921-1.5.846-.488-.075-1.788.158-2.888.518-1.1.359-2.598.798-3.328.974-.731.176-2.081.653-3 1.061-2.144.949-2.827 1.135-4.731 1.288-.857.069-1.283.572-.945 1.118.349.565-.382.911-1.692.803-2.41-.2-15.803 4.156-15.805 5.139 0 .311-1.224.636-2.719.723s-2.882.649-3.083 1.25c-.2.601-1.928 1.092-3.839 1.092s-3.216.42-2.899.934c.317.513-.716.896-2.297.852s-3.501.309-4.268.788c-2.236 1.395-4.105 1.478-8.894.394-2.475-.56-6.525-1.186-9-1.391s-5.175-.634-6-.952-3.075-.754-5-.968-4.175-.659-5-.989-3.3-.824-5.5-1.098c-2.2-.273-9.4-1.616-16-2.984s-13.8-2.726-16-3.019-6.25-1.015-9-1.605c-2.75-.589-7.25-1.495-10-2.011a599 599 0 0 1-10-1.987c-2.75-.576-8.825-1.714-13.5-2.53s-15.475-2.81-24-4.431c-8.525-1.622-17.075-3.126-19-3.342s-4.175-.663-5-.993-3.3-.825-5.5-1.1c-2.2-.274-5.8-.953-8-1.508-3.752-.945-19.583-3.82-24.693-4.484-1.269-.165-3.432-.574-4.807-.91-1.375-.335-3.85-.837-5.5-1.115s-5.164-.957-7.808-1.509-5.12-.941-5.5-.864c-.381.077-1.367-.109-2.192-.412-3.169-1.166-13.416-2.966-16.876-2.965-1.993.001-3.885-.419-4.203-.933s-2.682-.976-5.25-1.028c-2.569-.051-4.671-.487-4.671-.967s-1.238-.876-2.75-.879-4.325-.431-6.25-.951-5.3-1.185-7.5-1.477-6.187-.985-8.861-1.539c-2.673-.555-5.222-.784-5.664-.511s-.955.064-1.14-.464-2.36-1.153-4.835-1.389c-2.475-.235-5.175-.658-6-.939-1.874-.637-11.34-2.532-16-3.201-1.925-.277-5.335-.883-7.577-1.347s-4.83-.734-5.75-.599c-.92.136-1.673-.062-1.673-.437 0-.376-3.037-1.242-6.75-1.924-16.744-3.076-32.25-6.599-32.25-7.328 0-.439 1.575-1.093 3.5-1.454 4.283-.803 4.618-2.434.5-2.434-1.65 0-3 .375-3 .833 0 .459-.576.834-1.281.834-.704 0-2.554.834-4.11 1.854l-2.829 1.853 2.36.882c3.653 1.365 9.935 2.676 27.36 5.709 3.3.574 8.137 1.492 10.75 2.039l9.5 1.992c2.613.547 7.225 1.449 10.25 2.004s7.75 1.461 10.5 2.014 7.475 1.415 10.5 1.915 9.1 1.642 13.5 2.537 12.725 2.485 18.5 3.535c13.135 2.386 15.527 2.857 20.5 4.039 2.2.522 7.15 1.39 11 1.929 3.85.538 9.025 1.446 11.5 2.017s6.975 1.485 10 2.03c3.025.546 7.75 1.465 10.5 2.041 2.75.577 7.7 1.459 11 1.961s8.025 1.384 10.5 1.959c4.204.978 9.324 1.942 21.5 4.049 5.363.928 14.219 2.601 21.5 4.062 2.475.497 7.2 1.394 10.5 1.993s8.025 1.463 10.5 1.919 7.2 1.312 10.5 1.902c3.3.591 8.025 1.564 10.5 2.162 2.475.599 6.975 1.484 10 1.967A362 362 0 0 1 508 336c3.025.6 7.975 1.494 11 1.986s7.75 1.37 10.5 1.95A492 492 0 0 0 540 342c3.025.555 7.75 1.481 10.5 2.057 2.75.577 7.7 1.467 11 1.978a519 519 0 0 1 11 1.838c4.55.828 6.26.496 19-3.692 7.7-2.531 14.225-4.912 14.5-5.29s1.625-.858 3-1.064 2.419-.832 2.32-1.392c-.104-.583 1.233-.852 3.132-.63 1.821.212 3.616-.107 3.989-.709.372-.603 1.557-1.096 2.632-1.096s2.848-.45 3.941-1l3.972-2c1.093-.55 2.899-1 4.014-1s3.034-.52 4.264-1.156c4.696-2.428 5.755-2.844 7.236-2.844.84 0 2.309-.429 3.264-.953s4.661-1.903 8.236-3.065 7.4-2.475 8.5-2.916c1.1-.442 5.15-1.786 9-2.986s8.013-2.61 9.25-3.131c4.689-1.977 6.883-2.759 11.25-4.009 2.475-.708 4.928-1.66 5.45-2.114s1.958-.826 3.191-.826 2.519-.45 2.859-1 1.498-1 2.573-1 2.736-.444 3.691-.986 10.551-3.891 21.324-7.443c18.629-6.142 25.925-8.688 30.412-10.616 1.1-.473 7.625-2.694 14.5-4.936s13.281-4.513 14.236-5.048c.955-.534 2.424-.971 3.264-.971s2.421-.45 3.514-1l3.972-2c1.093-.55 2.803-1 3.8-1 .998 0 2.242-.372 2.764-.826s2.975-1.453 5.45-2.22c6.181-1.914 7.84-3.604 5.372-5.473-1.03-.779-2.817-1.432-3.973-1.449s-3.405-.444-5-.948c-1.594-.504-5.149-1.129-7.899-1.39s-4.147-.254-3.105.017M830 265.708c-3.588.605-14.328 4.365-15.45 5.408-.522.486-1.958.884-3.191.884s-2.519.45-2.859 1-1.574 1-2.742 1c-2.827 0-15.35 4.245-20.994 7.117-.955.486-2.553.883-3.55.883-.998 0-2.242.372-2.764.826s-2.975 1.406-5.45 2.114-5.4 1.657-6.5 2.108-3.8 1.362-6 2.024c-2.2.663-4.9 1.569-6 2.013s-6.275 2.206-11.5 3.915-10.4 3.511-11.5 4.005-4.025 1.564-6.5 2.38-4.424 1.853-4.332 2.304-1.257.818-3 .816c-1.742-.003-3.083.476-2.979 1.063.111.627-.976.897-2.631.654-1.552-.228-3.126.079-3.499.682-.372.603-1.749 1.096-3.059 1.096s-2.66.45-3 1-1.288 1-2.107 1-3.352.9-5.629 2-4.961 2-5.965 2c-1.005 0-2.608.395-3.563.877-.955.483-3.536 1.412-5.736 2.066-3.744 1.113-4.989 1.577-10.75 4.005-1.237.522-3.15 1.111-4.25 1.31-1.1.198-1.903.85-1.784 1.449.12.605-.619.87-1.667.596-1.664-.436-11.012 2.236-16.549 4.729-1.1.495-10.815 3.815-21.588 7.378-17.859 5.905-24.798 8.32-30.412 10.582-1.1.443-3.462 1.302-5.25 1.907-9.872 3.344-9.337 2.823-8.692 8.466.694 6.073 1.442 7.365 1.442 2.49 0-3.458 2.904-7.855 5.189-7.855 1.793 0 18.279-6.406 18.646-7.246.185-.421.698-.542 1.142-.268.981.606 22.275-6.558 23.135-7.784.336-.48.786-.744 1-.587.689.506 9.922-2.36 10.473-3.252.293-.475 1.605-.863 2.915-.863s2.66-.45 3-1 1.641-1 2.892-1 2.588-.313 2.97-.696 1.393-.798 2.245-.923 2.302-.554 3.221-.954c.92-.4 2.562-.898 3.651-1.106s2.415-.815 2.95-1.35c.534-.534 1.781-.971 2.771-.971s1.8-.337 1.801-.75 1.184-.819 2.63-.902c1.447-.084 2.909-.534 3.25-1 .34-.467 1.069-.85 1.619-.853 1.722-.01 10.5-2.905 10.501-3.463 0-.293 1.184-.601 2.63-.684 1.447-.084 2.909-.534 3.25-1 .34-.467 1.744-1.007 3.119-1.201s2.725-.644 3-1 1.625-.806 3-1 2.775-.795 3.112-1.335c.336-.541 1.011-.921 1.5-.846.488.075 1.788-.157 2.888-.517 1.1-.359 2.89-.845 3.979-1.08 1.088-.234 2.415-.863 2.95-1.398.534-.534 1.787-.971 2.785-.971.997 0 2.595-.396 3.55-.88.955-.485 6.236-2.357 11.736-4.161s10.225-3.545 10.5-3.869 1.605-.714 2.956-.865 2.701-.601 3-1 1.669-.884 3.044-1.078 2.775-.795 3.112-1.335c.336-.541.786-.862 1-.715s1.513-.086 2.888-.518c1.375-.431 3.098-.929 3.828-1.105.731-.176 2.081-.648 3-1.048.92-.4 2.218-.843 2.885-.983 3.299-.694 14.905-4.799 15.737-5.567.522-.482 1.76-.876 2.75-.876s1.8-.352 1.8-.782 1.212-.882 2.694-1.005 2.944-.558 3.25-.968 1.681-.904 3.056-1.098 2.725-.644 3-1 1.625-.806 3-1 2.725-.644 3-1 1.625-.806 3-1 2.831-.869 3.235-1.5.741-.819.75-.418c.008.4 3.107-.387 6.886-1.75 3.779-1.364 7.563-2.479 8.41-2.479 3.051 0 3.638 11.663 3.245 64.5-.208 28.05-.635 83.85-.949 124s-.684 112.644-.824 161.097c-.216 75.115-.466 88.353-1.699 89.839C828.7 709.066 806.789 720 804.875 720c-.481 0-.875.375-.875.833 0 .459-.562.834-1.25.835s-4.168 1.426-7.735 3.167-7.054 3.165-7.75 3.165-1.265.477-1.265 1.059-.414.803-.919.491-1.529-.002-2.274.691c-.745.692-2.019 1.38-2.831 1.527-1.91.347-11.324 4.527-11.976 5.318-.275.333-1.706.901-3.18 1.262-1.474.36-3.285 1.217-4.024 1.904s-2.008 1.373-2.82 1.526-2.376.678-3.476 1.167c-1.1.488-4.362 1.906-7.25 3.15s-5.25 2.658-5.25 3.142c0 .485-.414.625-.919.313-.506-.313-1.519-.002-2.25.691-.732.692-2.231 1.409-3.331 1.593s-2.427.746-2.95 1.25c-.522.504-1.76.916-2.75.916s-1.8.477-1.8 1.059-.414.803-.919.491-1.529-.002-2.274.691c-.745.692-2.019 1.393-2.831 1.556s-3.384 1.176-5.715 2.25-4.694 1.953-5.25 1.953-1.011.477-1.011 1.059-.414.803-.919.491-1.529-.002-2.274.691c-.745.692-2.015 1.408-2.821 1.589-.807.182-1.696.632-1.977 1-.28.369-1.333.811-2.34.982-1.006.172-3.383 1.185-5.28 2.25-1.897 1.066-4.111 1.938-4.919 1.938-.809 0-1.47.477-1.47 1.059s-.414.803-.919.491-1.519-.002-2.25.691c-.732.692-2.155 1.4-3.162 1.571-1.006.172-3.383 1.185-5.28 2.25-1.897 1.066-4.111 1.938-4.919 1.938-.809 0-1.47.477-1.47 1.059s-.414.803-.919.491-1.519-.002-2.25.691c-.732.692-2.231 1.407-3.331 1.587-1.1.181-3.488 1.193-5.307 2.25s-3.957 1.922-4.75 1.922-1.443.477-1.443 1.059-.414.803-.919.491-1.529-.002-2.274.691c-.745.692-2.015 1.408-2.821 1.589-.807.182-1.696.632-1.977 1-.28.369-1.409.818-2.509.998s-3.488 1.193-5.307 2.25-3.957 1.922-4.75 1.922-1.443.477-1.443 1.059-.414.803-.919.491-1.599.111-2.429.941-2.072 1.509-2.76 1.509c-2.097 0-7.892 2.35-7.892 3.201 0 .439-.9.799-2 .799s-2 .477-2 1.059-.414.803-.919.491-1.529-.002-2.274.691c-.745.692-2.019 1.393-2.831 1.556s-3.384 1.176-5.715 2.25-4.694 1.953-5.25 1.953-1.011.477-1.011 1.059-.414.803-.919.491-1.529-.002-2.274.691c-.745.692-2.015 1.408-2.821 1.589-.807.182-1.696.632-1.977 1-.28.369-1.482.804-2.672.968-3.139.433-2.972 11.335-3.29-214.215-.026-18.104-.338-32.625-.694-32.27-.652.653-1.28 92.605-1.327 194.437-.017 36.15-.372 55.25-1.026 55.25-.663 0-1.005-70.26-1.015-208.75-.01-135.141-.357-208.221-.985-207.25-.724 1.12-.955.612-.914-2 .045-2.86.212-3.134.914-1.5.689 1.604.873 1.258.93-1.75.038-2.062-.38-3.75-.93-3.75s-1-.873-1-1.941.45-2.219 1-2.559c.601-.372.994-7.077.985-16.809-.011-10.823-.337-15.694-.985-14.691-.689 1.067-.974-.126-.985-4.129-.017-6.419-.313-6.645-11.515-8.824-3.3-.642-7.382-1.59-9.071-2.107s-4.209-.94-5.601-.94c-1.391 0-3.834-.404-5.429-.897-1.594-.494-6.274-1.419-10.399-2.056-10.523-1.625-18.948-3.158-36.5-6.641-4.4-.873-10.25-1.96-13-2.415-4.468-.74-9.498-1.748-24.5-4.91-2.475-.522-7.65-1.465-11.5-2.095-6.915-1.132-24.766-4.318-33.5-5.979-2.475-.471-7.425-1.382-11-2.025-3.575-.644-10.325-1.998-15-3.009-8.554-1.85-14.597-2.953-27.5-5.018-3.85-.616-8.575-1.5-10.5-1.963-3.794-.914-10.774-2.253-21-4.03-3.575-.621-9.65-1.827-13.5-2.679-8.642-1.914-14.238-3.002-22-4.278-3.3-.542-8.25-1.42-11-1.951s-7.475-1.422-10.5-1.981c-3.025-.558-8.65-1.703-12.5-2.544S250.203 290 248.616 290s-4.511-.42-6.5-.932c-5.083-1.311-21.384-4.704-29.116-6.061-3.575-.627-8.3-1.534-10.5-2.014-8.836-1.93-10.255-1.94-12.384-.093-2.056 1.783-2.081 2.324-1.697 37.205.214 19.467.672 117.97 1.018 218.895.624 182.259.787 194 2.706 194 .659 0 .817-17.091.464-50.25-.294-27.638-.559-98.041-.589-156.452-.034-68.395-.403-106.418-1.036-106.809-.54-.334-.982-2.632-.982-5.107s.338-4.291.75-4.036.613-28.068.445-62.941c-.242-50.38-.046-63.405.952-63.405 1.156 0 10.453 1.739 30.073 5.626 4.246.841 8.145 1.266 8.665.945s1.095-.14 1.28.403c.184.542 2.472 1.107 5.084 1.256 2.613.148 4.75.518 4.75.821.001.303 3.489 1.122 7.751 1.82 4.263.699 9.775 1.69 12.25 2.204s6.075 1.044 8 1.179c1.925.136 3.725.541 4 .901s2.525.81 5 1 4.747.674 5.048 1.077 3.113.853 6.248 1 5.701.516 5.702.819c.002.681 14.771 3.373 17.456 3.182 1.075-.077 2.448.271 3.052.772.603.501 3.324 1.042 6.046 1.203 2.721.161 5.193.618 5.492 1.018.299.399 2.659.849 5.245 1 2.586.15 4.703.522 4.706.825.005.512 12.741 3.043 17.423 3.462 1.145.102 2.757.464 3.582.802.825.339 3.3.85 5.5 1.136s8.5 1.404 14 2.484 12.126 2.377 14.725 2.881c2.598.504 5.928.686 7.398.405 1.849-.353 2.456-.158 1.967.634-.468.757.329 1.187 2.351 1.27 4.438.181 6.367.466 8.059 1.188.825.352 3.092.79 5.037.973s3.98.607 4.522.942 3.226.758 5.964.94c2.737.183 5.249.703 5.581 1.155s3.115.883 6.183.954c3.069.072 5.357.489 5.087.927s.997.83 2.817.873c1.82.042 3.984.258 4.809.481 3.355.904 9.594 2.007 11 1.943.825-.037 1.728.246 2.006.63.278.383 2.528.897 5 1.142s5.169.717 5.994 1.051 3.3.835 5.5 1.113 11.525 2.061 20.723 3.963 18.648 3.705 21 4.006 6.527 1.031 9.277 1.62 9.5 1.948 15 3.02c20.028 3.9 23.534 4.655 24.054 5.175.292.292.73 18.924.975 41.405.244 22.481.468 41.549.497 42.374.338 9.654-.371 378.348-.732 380.658-.469 2.999-.714 3.155-4.856 3.092-2.398-.036-4.127-.445-3.84-.908.488-.79-3.391-1.318-6.492-.884-.766.108-1.678-.266-2.027-.83-.349-.565-2.197-1.214-4.107-1.443-1.909-.23-4.197-.727-5.082-1.105-.886-.377-2.705-.803-4.042-.946-1.338-.143-2.954-.581-3.591-.975s-2.868-.773-4.958-.843c-2.089-.069-4.036-.483-4.327-.92-.29-.437-2.09-.982-4-1.211-1.909-.23-4.147-.681-4.972-1.004s-2.85-.824-4.5-1.114a297 297 0 0 1-7.25-1.413c-2.337-.487-4.257-.608-4.265-.27-.009.339-.359.076-.778-.583-.419-.66-2.325-1.387-4.235-1.616-1.909-.23-4.147-.673-4.972-.986-2.505-.949-18.668-4.68-21.726-5.014-1.575-.173-3.384-.635-4.02-1.028s-2.865-.771-4.955-.841-4.036-.483-4.327-.92c-.29-.437-2.09-.982-4-1.211-1.909-.23-4.147-.689-4.972-1.021s-2.625-.772-4-.98-3.175-.666-4-1.02-3.075-.76-5-.904c-1.925-.143-3.776-.637-4.114-1.098-.337-.461-2.723-.87-5.301-.909-2.872-.044-4.184-.391-3.386-.897q1.303-.826-1.699-.993c-3.65-.204-4.569-.373-6.5-1.195-.825-.351-3.075-.758-5-.903s-3.769-.631-4.098-1.078c-.328-.446-2.128-.849-4-.895s-3.677-.505-4.013-1.021-2.701-.938-5.257-.938c-2.562 0-4.393-.411-4.08-.916.507-.822-1.69-1.204-6.802-1.184-.962.003-1.75-.292-1.75-.657 0-.58-9.85-3.127-14-3.62-.825-.098-2.287-.514-3.25-.924-.962-.41-2.425-.487-3.25-.17s-1.5.153-1.5-.362-.72-.661-1.601-.323c-.88.338-1.905.122-2.278-.48-.372-.603-2.239-1.283-4.149-1.512-1.909-.23-4.147-.689-4.972-1.021s-2.625-.772-4-.98-3.175-.657-4-1-2.625-.792-4-1-3.175-.666-4-1.02-3.075-.76-5-.904c-1.925-.143-3.737-.575-4.028-.959-.29-.385-2.09-.887-4-1.116-1.909-.23-4.147-.673-4.972-.984-3.105-1.173-15.403-3.57-16.101-3.138-.401.247-.879.019-1.064-.508-.184-.527-1.91-1.144-3.835-1.373-1.925-.228-4.175-.686-5-1.018s-2.625-.772-4-.98-3.236-.699-4.136-1.093c-.899-.395-3.26-.801-5.245-.904s-3.612-.524-3.615-.937c-.002-.413-1.714-.75-3.804-.75s-4.228-.408-4.75-.907c-.523-.498-2.525-1.146-4.45-1.439s-10.015-2.167-17.978-4.166-15.838-3.667-17.5-3.707c-1.662-.039-3.259-.434-3.55-.876s-2.106-.965-4.036-1.163-4.058-.699-4.729-1.114c-.67-.414-3.016-.778-5.213-.809-2.197-.03-3.994-.452-3.994-.937s-.896-.882-1.992-.882c-1.095 0-2.553-.9-3.24-2-1.618-2.591-2.768-2.547-2.768.107 0 1.429.466 1.928 1.449 1.551.88-.338 1.265-.075.979.668-.483 1.261 3.158 2.523 13.572 4.704 3.025.634 7.075 1.542 9 2.019s5.975 1.371 9 1.986 6.85 1.492 8.5 1.949c1.65.456 5.475 1.37 8.5 2.031 16.373 3.574 28.021 6.368 33.571 8.053 1.689.512 4.105.932 5.369.932s5.057.872 8.429 1.938 8.831 2.458 12.131 3.095 7.034 1.565 8.297 2.062c1.263.498 3.605.905 5.203.905s3.94.402 5.203.892c1.263.491 8.597 2.34 16.297 4.109s16.7 3.89 20 4.714 8.025 1.872 10.5 2.329 6.525 1.346 9 1.975 6.3 1.383 8.5 1.675 4.45.855 5 1.251 3.7 1.278 7 1.962 7.575 1.63 9.5 2.104c4.833 1.191 12.004 2.789 15 3.342 1.375.254 5.425 1.204 9 2.112 8.684 2.205 21.676 5.237 26 6.068 1.925.37 5.3 1.101 7.5 1.624s5.8 1.353 8 1.843 6.025 1.398 8.5 2.018 6.075 1.347 8 1.616 4.4.861 5.5 1.314c2.51 1.034 8.917 2.744 13.5 3.602 1.925.36 5.3 1.087 7.5 1.615s6.025 1.354 8.5 1.835 6.525 1.376 9 1.988 6.525 1.538 9 2.057c4.965 1.041 11.01 2.45 16.75 3.906 15.976 4.052 18.362 3.846 32.376-2.795 5.706-2.704 12.174-5.691 14.374-6.638s7.15-3.197 11-5c3.85-1.804 8.8-4.057 11-5.008s5.307-2.354 6.904-3.119 3.557-1.391 4.357-1.391c.858 0 1.225-.593.897-1.449-.38-.99-.076-1.265.96-.867 1.544.592 2.545.245 10.227-3.542 2.389-1.178 4.976-2.142 5.75-2.142.773 0 1.405-.45 1.405-1s.9-1 2-1 2-.45 2-1 .628-1 1.396-1c2.281 0 16.632-7.146 16.095-8.014-.271-.44.35-.579 1.382-.309s3.817-.447 6.19-1.593c2.372-1.146 4.903-2.084 5.625-2.084s1.312-.45 1.312-1 .9-1 2-1 2-.45 2-1 .668-1 1.484-1 4.271-1.35 7.677-3c3.407-1.65 6.789-3 7.516-3s1.323-.45 1.323-1 .59-1 1.312-1 3.175-.9 5.452-2 4.836-2 5.688-2 1.548-.45 1.548-1 .9-1 2-1 2-.45 2-1 .564-1 1.254-1 4.965-1.8 9.501-4 8.921-4 9.746-4c.824 0 1.499-.45 1.499-1s.59-1 1.312-1 3.175-.9 5.452-2 4.836-2 5.688-2 1.548-.45 1.548-1 .585-1 1.301-1c1.839 0 6.682-2.352 6.691-3.25.004-.413.598-.75 1.32-.75 1.227 0 8.009-2.865 11.924-5.037.955-.53 2.418-.963 3.25-.963.833 0 1.514-.45 1.514-1s.697-1 1.548-1 3.411-.9 5.688-2 4.73-2 5.452-2 1.312-.45 1.312-1 .9-1 2-1 2-.45 2-1 .9-1 2-1 2-.45 2-1 .59-1 1.312-1c2.152 0 9.789-4.01 12.168-6.389l2.214-2.215.403-220.863c.268-146.769.068-220.928-.597-221.055-.55-.105-2.125-.001-3.5.23m-488.239 72.864c-.366.367-3.49.864-6.941 1.106s-6.51.751-6.797 1.131c-.288.38-2.098.808-4.023.951-1.925.144-4.175.549-5 .901-.825.353-2.098.763-2.828.913-.731.15-2.081.599-3 .999-.92.4-2.572.898-3.672 1.106s-2.15.816-2.333 1.35-1.421.971-2.75.971c-1.33 0-2.417.45-2.417 1s-.9 1-2 1-2 .477-2 1.059-.414.803-.919.491-1.529-.002-2.274.691c-.745.692-2.019 1.405-2.831 1.584s-1.626.741-1.809 1.25-.998.925-1.809.925c-.812 0-1.198.45-.858 1 .351.568-.5 1-1.972 1-1.425 0-2.849.672-3.164 1.494-.316.822-1.046 1.203-1.623.846-.613-.379-.753-.169-.336.505.422.685.078 1.155-.846 1.155-.857 0-1.559.45-1.559 1s-.337.891-.75.758c-1.184-.383-5.311 2.847-4.577 3.582.363.363.076.66-.639.66s-2.14.969-3.167 2.153S267 371.91 267 371.426c0-.483-3.577 2.677-7.95 7.024-4.372 4.347-7.771 8.192-7.553 8.545s-.48 1.272-1.551 2.044c-1.07.771-1.946 1.87-1.946 2.441s-.9 1.601-2 2.288-2 2.172-2 3.299c0 1.128-.357 1.831-.792 1.561-.436-.269-.858.379-.938 1.441-.208 2.757 1.03 2.386 2.965-.889.916-1.551 3.286-4.588 5.266-6.75 2.086-2.276 3.416-4.635 3.163-5.605-.311-1.19.015-1.502 1.123-1.077 1.163.447 1.392.16.898-1.126-.397-1.034-.263-1.479.334-1.11 1.392.86 4.266-2.242 3.39-3.659-.448-.725-.281-.892.444-.444 1.417.876 4.519-1.998 3.659-3.39-.369-.597.076-.731 1.11-.334 1.337.513 1.576.274 1.063-1.063-.409-1.067-.268-1.482.37-1.088 1.971 1.218 10.543-5.758 9.382-7.635-.469-.76-.325-.948.388-.507 1.29.797 4.576-.753 7.612-3.591 2.165-2.023 19.561-10.733 25.563-12.798 1.925-.663 4.4-1.558 5.5-1.99s4.025-1.317 6.5-1.967 5.882-1.601 7.571-2.114 4.978-.932 7.308-.932 7.474-.507 11.429-1.127c7.274-1.14 29.078.156 36.192 2.15a339 339 0 0 0 7.25 1.909c8.827 2.218 12.78 3.442 13.7 4.242.522.454 1.717.826 2.655.826.939 0 3.436.877 5.55 1.949 2.115 1.072 7.466 3.711 11.892 5.865 7.984 3.885 11.881 5.975 13.902 7.456.578.424 3.943 2.674 7.477 5s7 4.664 7.702 5.195c2.969 2.244 2.438-.73-.576-3.227-1.818-1.506-3.361-2.531-3.429-2.277-.068.253-1.248-.518-2.623-1.713s-2.827-2.202-3.226-2.237c-.4-.034-1.933-1.18-3.407-2.547-1.474-1.366-2.889-2.276-3.143-2.022-.254.255-1.12-.195-1.924-.999s-1.875-1.206-2.381-.893-.919.162-.919-.334c0-.929-7.354-4.936-9.976-5.435-.812-.155-2.086-.848-2.831-1.54s-1.73-1.027-2.188-.744c-.459.284-1.004.006-1.211-.616s-1.588-1.131-3.067-1.131-2.447-.394-2.15-.875c.464-.75-.94-1.094-3.215-.79-.351.047-.939-.4-1.306-.995-.368-.594-1.88-1.181-3.362-1.303-1.482-.123-2.694-.503-2.694-.845 0-.553-8.039-2.76-12-3.295-.825-.112-2.001-.516-2.613-.899-2.774-1.736-42.105-3.697-43.626-2.176m1.239 5.502c-8.815 1.005-15.945 2.306-21.5 3.925-2.2.641-5.238 1.405-6.75 1.697s-2.75.93-2.75 1.417c0 .488-.906.887-2.014.887s-2.795.401-3.75.891c-.955.489-3.986 1.946-6.736 3.236s-5.225 2.577-5.5 2.86c-.466.478-2.681 1.784-7.5 4.419-1.1.602-2.225 1.341-2.5 1.642-.275.302-2.075 1.63-4 2.952s-3.725 2.653-4 2.958c-.275.304-2.075 1.754-4 3.222-4.899 3.736-12 10.443-12 11.333 0 .41 1.608 2.525 3.574 4.701 1.987 2.199 3.334 4.585 3.032 5.371-.58 1.51.293 1.775 2.749.832 1.778-.682 1.303-2.361-2.173-7.675l-2.458-3.757 5.168-5.464c2.842-3.006 5.42-5.431 5.729-5.39s2.017-1.209 3.796-2.778 4.438-3.492 5.909-4.272 2.674-1.819 2.674-2.309.414-.634.919-.322c.506.313 1.519.002 2.25-.691 1.86-1.76 13.822-7.759 15.471-7.759.748 0 1.36-.477 1.36-1.059s.37-.831.822-.551 1.927-.066 3.279-.767 5.23-1.89 8.618-2.642 5.985-1.651 5.77-1.999c-.215-.347 2.065-.696 5.067-.775 3.001-.079 6.262-.574 7.245-1.101 2.193-1.173 31.551-.623 39.199.735 3.025.537 7.501 1.44 9.946 2.006 2.446.566 4.77.829 5.165.585.395-.245.869-.019 1.054.5.184.52 1.46 1.15 2.835 1.401s3.4.752 4.5 1.113 2.4.595 2.888.52c.489-.075 1.164.267 1.5.761.689 1.01 11.659 5.574 12.71 5.287.373-.102.958.268 1.3.82.341.553 1.281 1.154 2.088 1.336.806.181 2.076.897 2.821 1.589.745.693 1.768 1.004 2.274.691.505-.312.919-.198.919.255 0 1.009 7.155 5.523 8.388 5.291.489-.092 1.164.239 1.5.735.664.978 9.685 7.269 10.424 7.269.249 0 2.623 1.994 5.277 4.431 4.527 4.156 6.411 4.862 6.411 2.403 0-.576-.698-.78-1.552-.452-.934.358-1.295.18-.907-.448.961-1.555-17.422-15.934-20.371-15.934-.552 0-1.153-.346-1.337-.77-.329-.761-17.898-9.679-25.017-12.698-7.388-3.134-25.265-8.532-28.257-8.532-1.69 0-4.431-.39-6.092-.866-4.729-1.356-25.181-2.004-33.467-1.06m4.535 19.653c-3.281.212-6.431.748-7 1.19s-2.745.854-4.834.915c-2.09.061-4.34.45-5 .864s-2.318.907-3.682 1.094c-1.365.187-2.715.649-3 1.025-.286.377-1.644.844-3.019 1.038s-2.725.644-3 1-1.4.801-2.5.989-2.15.75-2.333 1.25c-.184.499-1.17.908-2.191.908-1.022 0-2.136.45-2.476 1s-1.518 1-2.618 1-1.722.45-1.382 1-.309 1-1.441 1-2.959.9-4.059 2-2.265 1.954-2.589 1.897-1.678.844-3.008 2-2.811 2.103-3.29 2.103-2.726 1.8-4.992 3.999-4.121 3.674-4.121 3.277-3.128 2.382-6.951 6.175c-6.383 6.335-7.648 8.549-4.883 8.549.576 0 .78-.698.452-1.552-.327-.854-.223-1.322.231-1.041 1.134.701 8.374-6.851 7.452-7.773-.407-.407.112-.413 1.153-.013 1.514.581 1.761.38 1.231-.999-.42-1.094-.272-1.485.403-1.068.977.604 8.976-4.949 9.745-6.767.184-.433.751-.787 1.262-.787 1.856 0 10.871-6.53 10.485-7.594-.244-.672.532-.916 2.011-.633 1.325.253 2.409.068 2.409-.412s1.462-1.462 3.25-2.182c1.788-.721 4.031-1.731 4.986-2.244s2.616-.935 3.691-.935 2.233-.45 2.573-1 1.69-1 3-1 2.629-.4 2.932-.89c.302-.489 2.016-1.131 3.809-1.427 1.792-.296 5.284-1.074 7.759-1.727 6.415-1.695 27.382-2.335 34.225-1.045 3.176.599 8.588 1.592 12.025 2.207 12.178 2.178 40.274 13.06 41.583 16.107.184.426.789.775 1.346.775s2.335.942 3.952 2.093 3.622 1.832 4.456 1.512c.914-.351 1.258-.163.865.473-.707 1.144 2.27 3.839 4.298 3.89.688.018 1.25-.466 1.25-1.075s-.725-.829-1.611-.489c-1.107.425-1.445.184-1.08-.766.317-.826-.548-1.942-2.139-2.762-1.468-.757-3.269-1.943-4.001-2.635-.731-.693-1.744-1.004-2.25-.691-.505.312-.919.168-.919-.322s-1.238-1.528-2.75-2.307c-1.512-.78-2.979-1.72-3.259-2.089-.281-.37-1.17-.82-1.977-1.002-.806-.181-2.076-.897-2.821-1.589-.745-.693-1.768-1.004-2.274-.691-.505.312-.919.091-.919-.491S414.623 376 412.941 376s-2.81-.403-2.506-.895c.664-1.075-2.233-2.348-3.525-1.549-.501.309-.91.174-.91-.299 0-1.828-23.604-8.451-27.804-7.802-.933.144-1.921-.06-2.196-.452-.63-.899-20.515-1.79-28.465-1.276M578.656 366c-.348 1.375-.26 17.35.196 35.5l.827 33 .315-25.5c.173-14.025.429-28.425.567-32 .31-7.996-.899-14.978-1.905-11M346 370.081c-7.654.688-10.786 1.253-19 3.425-7.698 2.035-29.7 12.725-33.622 16.336-1.033.95-2.919 2.45-4.192 3.332-3.892 2.698-12.393 11.03-18.186 17.826-3.025 3.548-6.062 7.057-6.75 7.797S263 420.529 263 421s-.576 1.452-1.281 2.179c-2.483 2.561-5.816 9.126-5.307 10.454.284.738-.03 1.236-.698 1.105-.672-.132-1.181.743-1.14 1.962.041 1.21-.271 1.987-.692 1.727-1.086-.671-4.201 6.248-3.398 7.548.366.591.118.951-.55.8s-1.944 1.75-2.835 4.225-1.873 4.95-2.182 5.5c-.31.55-1.145 3.025-1.856 5.5a373 373 0 0 1-2.081 7c-1.321 4.189-2.769 11.117-3.969 19-.629 4.125-1.563 9.127-2.077 11.116-1.45 5.614-1.048 34.207.638 45.384 2.269 15.035 4.502 26.808 6.402 33.75.564 2.063 1.417 5.212 1.896 7 1.179 4.407 6.225 17.023 7.279 18.2.468.522.851 1.808.851 2.857 0 1.215.503 1.714 1.387 1.375.956-.367 1.238.037.907 1.301-.551 2.107 6.116 16.248 11.826 25.081 2.134 3.302 3.88 6.438 3.88 6.97 0 .531.45.966 1 .966 1.453 0 1.166-4.197-.431-6.303-1.023-1.349-1.498-1.475-1.889-.5-.287.717-.558.15-.601-1.258-.043-1.409-.867-3.452-1.829-4.539-.963-1.088-1.899-2.631-2.08-3.43-.182-.798-.632-1.68-1-1.961-.369-.28-.816-1.184-.995-2.009s-.741-1.65-1.25-1.833-.925-1.196-.925-2.25-.477-1.917-1.059-1.917-.803-.414-.491-.919.002-1.519-.691-2.25c-.692-.732-1.407-2.231-1.587-3.331-.181-1.1-1.193-3.488-2.25-5.307s-1.922-3.957-1.922-4.75-.477-1.443-1.059-1.443-.86-.337-.617-.75c.242-.413-.023-1.875-.589-3.25-.567-1.375-1.202-3.39-1.411-4.479s-.818-2.415-1.353-2.95c-.534-.534-.971-1.931-.971-3.104s-.312-2.445-.692-2.826c-.381-.381-.815-1.495-.965-2.477s-1.188-5.712-2.308-10.513-2.035-9.836-2.035-11.19-.381-2.461-.846-2.461-.782-1.184-.705-2.63c.078-1.447-.234-5.835-.692-9.75s-.838-13.195-.845-20.62c-.01-12.665.553-19.248 2.993-34.963.552-3.554.803-6.663.558-6.908s-.043-.936.449-1.537c.491-.601 1.048-2.442 1.237-4.092s.654-3.233 1.032-3.519c.379-.285.874-1.635 1.1-3s.74-3.233 1.142-4.153.854-2.269 1.005-3 .739-2.453 1.306-3.828.832-2.837.59-3.25c-.243-.413.035-.75.617-.75s1.059-.649 1.059-1.443c0-.793.936-3.029 2.079-4.967s1.792-3.989 1.441-4.557-.195-1.033.347-1.033 2.244-2.587 3.781-5.75 3.595-6.622 4.573-7.689c.979-1.066 1.779-2.328 1.779-2.804s1.348-2.304 2.995-4.061 2.998-3.511 3-3.896c.007-.932 20.268-21.315 21.344-21.472.462-.067 1.928-1.069 3.258-2.225s2.78-2.103 3.222-2.103 1.78-.909 2.973-2.021 2.422-1.965 2.731-1.896c1.173.259 6.477-2.365 6.477-3.204 0-.484.337-.772.75-.641 1.062.336 7.25-2.345 7.25-3.141 0-.364 1.212-.761 2.694-.884 1.482-.122 2.944-.558 3.25-.968s1.681-.904 3.056-1.097c1.375-.194 3.258-.757 4.184-1.25.927-.494 3.038-.898 4.691-.898s3.259-.408 3.567-.906c.689-1.115 34.698-1.238 38.39-.138 6.188 1.843 13.827 3.387 15.973 3.228 1.268-.094 2.084.187 1.814.623-.481.778 8.156 3.836 9.631 3.41.413-.119.75.233.75.783s.46 1 1.022 1c1.463 0 18.22 8.256 19.809 9.759.731.693 1.744 1.004 2.25.691.505-.312.919-.126.919.414 0 1.574 12.876 10.146 13.565 9.031.666-1.078-2.384-4.076-6.815-6.699-1.512-.895-2.75-1.926-2.75-2.29s-1.35-1.223-3-1.906-3-1.638-3-2.121-.9-.879-2-.879-2.004-.337-2.008-.75c-.009-.898-4.852-3.25-6.691-3.25-.716 0-1.301-.45-1.301-1s-.9-1-2-1-2-.45-2-1-.606-1-1.346-1-2.819-.734-4.618-1.632-4.793-2.022-6.653-2.5a348 348 0 0 1-7.133-1.934c-15.648-4.451-28.082-5.486-46.25-3.853m110.536 5.862c-.753 1.218.454 2.562 5.464 6.082 4.241 2.98 20.046 18.746 25.297 25.234 2.088 2.58 4.353 5.265 5.033 5.966.679.701 2.331 2.85 3.67 4.775s2.996 4.079 3.682 4.786c.686.708 2.036 2.62 2.999 4.25.962 1.63 2.049 2.964 2.413 2.964.365 0 1.223 1.35 1.906 3s1.586 3 2.005 3 1.019.788 1.334 1.75 1.934 4 3.598 6.75 4.867 8.719 7.118 13.264c2.25 4.545 4.444 8.046 4.874 7.78s.571.622.312 1.974c-.315 1.649.059 2.66 1.139 3.074.885.34 1.404.949 1.153 1.354-.529.856 3.292 12.099 4.59 13.504.482.523.877 1.766.877 2.764s.406 2.595.903 3.55c.496.955 1.456 3.761 2.133 6.236.678 2.475 2.023 6.975 2.99 10s2.287 9.1 2.931 13.5 1.568 9.8 2.05 12c3.379 15.405 3.152 47.459-.516 73-2.887 20.106-8.675 39.086-17.761 58.248-.587 1.237-.704 2.587-.261 3 .769.719 1.857-.971 1.521-2.361-.089-.365.292-.943.844-1.285.553-.341 1.154-1.281 1.336-2.088.181-.806.897-2.076 1.589-2.821.693-.745 1.004-1.768.691-2.274-.312-.505-.164-.919.331-.919.705 0 2.568-4.355 3.85-9 .076-.275.464-1.5.863-2.721s.637-2.522.53-2.889c-.107-.366.247-.942.788-1.278.54-.337 1.141-1.737 1.335-3.112s.645-2.725 1.003-3 .797-2.075.978-4 .653-3.737 1.05-4.028c.396-.29.882-2.106 1.08-4.036s.68-4.026 1.07-4.658c.39-.631.791-3.315.89-5.963.1-2.648.541-5.066.981-5.373s.967-3.908 1.173-8 .697-8.211 1.092-9.15c.82-1.952.093-38.488-.931-46.792-.373-3.025-1.349-9.325-2.168-14a15193 15193 0 0 1-2.097-11.991c-.335-1.921-1.207-4.09-1.938-4.822-1.466-1.466-1.834-3.616-.474-2.776.47.291.643-.583.383-1.941s-.896-2.47-1.415-2.47c-.518 0-.699-.394-.401-.875.46-.744-1.135-6.841-3.172-12.125-.318-.825-.619-1.725-.668-2-.518-2.882-3.103-9-3.802-9-.495 0-.7-.337-.457-.75s-.023-1.875-.59-3.25-1.159-3.13-1.316-3.9-.652-1.67-1.102-2c-.449-.33-.973-1.495-1.165-2.589s-1.606-4.469-3.142-7.5a1047 1047 0 0 1-5.151-10.316c-1.297-2.643-3.258-5.783-4.358-6.977s-1.795-2.182-1.546-2.195c.815-.042-4.298-8.523-5.138-8.523-.449 0-.816-.59-.816-1.311 0-.722-.9-2.278-2-3.459-1.1-1.18-2.002-2.503-2.005-2.938-.002-.436-1.352-2.23-3-3.988-1.647-1.757-2.995-3.572-2.995-4.031 0-.46-2.25-3.195-5-6.078s-5-5.577-5-5.986c0-1.046-21.344-22.209-22.399-22.209-.477 0-1.598-.788-2.492-1.75-3.577-3.851-5.911-5.38-6.573-4.307M460 386.435c0 .239 5.738 6.257 12.75 13.375 16.166 16.408 15.99 16.114 12.682 21.113-2.13 3.219-2.392 4.283-1.476 5.995 1.262 2.357 2.264 2.82 1.437.663-.606-1.578 2.081-6.228 5.001-8.657 1.848-1.538 1.836-1.647-.5-4.441C475.951 397.805 460 382.839 460 386.435m-206.716 7.054c-3.904 4.254-5.574 7.232-4.778 8.52.329.533.012.754-.704.491-1.255-.459-7.802 8.341-7.802 10.488 0 .557-.502 1.012-1.117 1.012-.64 0-.92 1.027-.656 2.409.282 1.475.037 2.259-.633 2.023-1.042-.366-7.986 13.139-10.576 20.568-.671 1.925-1.571 4.4-2 5.5-2.195 5.627-6.35 21.226-7.991 30-.618 3.3-1.64 8.25-2.271 11-.705 3.069-1.159 15.234-1.177 31.5-.027 25.342.225 28.562 3.407 43.5.468 2.2 1.386 6.7 2.04 10 .653 3.3 1.538 7.125 1.965 8.5a332 332 0 0 1 2.035 7c2.66 9.514 7.223 22.73 9.668 28 9.842 21.215 21.339 42.042 23.173 41.978.348-.012 1.758-.902 3.133-1.978s3.55-1.966 4.833-1.978c1.43-.013 2.162-.506 1.891-1.272-.454-1.283-4.865-1.361-7.657-.136-2.413 1.059-4.125 1.288-3.629.486.708-1.146-2.994-6.202-3.924-5.358-.459.417-.512.196-.117-.49.761-1.322-2.241-7.252-3.672-7.252-.463 0-.587-.414-.275-.919.313-.506.002-1.529-.691-2.274-.692-.745-1.405-2.019-1.584-2.831s-.741-1.626-1.25-1.809-.925-1.196-.925-2.25-.477-1.917-1.059-1.917-.803-.414-.491-.919-.03-1.519-.762-2.25-1.338-1.697-1.348-2.144c-.034-1.665-2.699-7.583-3.259-7.238-.319.198-.65-.782-.733-2.176-.084-1.394-.759-2.919-1.5-3.388-.742-.47-1.014-.861-.606-.87.647-.013-.076-2.395-3.196-10.515-1.677-4.365-3.046-9.227-3.046-10.821 0-.923-.352-1.679-.782-1.679s-.882-1.212-1.005-2.694-.558-2.944-.968-3.25-.862-2.131-1.005-4.056c-.144-1.925-.545-4.175-.892-5s-.831-3.522-1.075-5.994c-.245-2.472-.792-4.722-1.217-5s-.678-1.181-.561-2.006-.396-6.225-1.137-12c-1.46-11.375-1.657-52.369-.265-55.098.448-.879.948-4.142 1.11-7.25.162-3.109.535-5.652.829-5.652s1.124-3.192 1.846-7.093c1.674-9.055 6.518-24.592 10.206-32.741 1.577-3.484 2.991-7.084 3.142-8s.841-2.265 1.533-2.997c.693-.731 1.004-1.744.691-2.25-.312-.505-.162-.919.334-.919s1.982-2.137 3.303-4.75 2.971-5.349 3.666-6.081c.696-.731 1.01-1.744.697-2.25-.312-.505-.108-.919.454-.919s2.82-2.587 5.018-5.75 4.87-6.85 5.938-8.194l1.942-2.445 3.599 2.746c1.979 1.509 3.599 2.342 3.599 1.849 0-1.266-3.416-4.206-4.888-4.206-.676 0-.952-.45-.612-1 1.603-2.593-3.384-.597-6.216 2.489m189.215.512c-.729 1.18 2.141 3.912 4.168 3.967.641.018 1.367.595 1.613 1.282.245.688.786.934 1.202.548.74-.688.132-1.435-4.164-5.113-1.477-1.265-2.332-1.472-2.819-.684m8.182 5.652c-1.267 1.266-.691 2.565.871 1.965.854-.327 1.293-.176.977.335-.316.512 4.298 5.794 10.254 11.739 8.631 8.615 16.037 16.877 19.935 22.241.174.239.756-.007 1.295-.546.639-.639-.236-2.267-2.517-4.685-1.923-2.039-3.496-4.12-3.496-4.626 0-2.107-26.248-27.494-27.319-26.423M240 401.842c0 .683-.9 2.208-2 3.388-1.1 1.181-2 2.989-2 4.018s-.45 1.592-1 1.252c-.899-.556-1.433.757-1.118 2.75.065.413-.261.75-.725.75-.884 0-4.893 7.438-5.376 9.976-.155.812-.848 2.086-1.54 2.831s-1.004 1.768-.691 2.274c.312.505.091.919-.491.919S224 431.377 224 433.059c0 1.785-.417 2.802-1 2.441-.855-.528-1.232.766-.915 3.138.047.351-.356.914-.897 1.25-.54.337-1.141 1.737-1.335 3.112s-.644 2.725-1 3-.806 1.625-1 3-.679 2.745-1.078 3.044-.849 1.649-1 3-.652 2.732-1.113 3.07-.87 2.682-.908 5.211-.449 4.364-.912 4.077c-.807-.499-1.355 3.981-.981 8.027.099 1.06-.234 2.185-.738 2.5-3.239 2.018-3.616 71.192-.417 76.399.28.456.728 2.931.996 5.5.267 2.568.933 4.946 1.478 5.283.546.338.902 1.463.791 2.501-.45 4.219.065 7.484 1.081 6.856.639-.395.971.269.845 1.691-.367 4.135.078 6.975 1.003 6.403.495-.306.9 1.075.9 3.07s.551 3.967 1.225 4.383c.674.417 1.225 1.967 1.225 3.446 0 1.748.341 2.348.976 1.713.634-.634.614-2.147-.058-4.325-.568-1.842-1.513-5.262-2.1-7.599s-1.499-5.937-2.026-8c-7.831-30.646-8.93-65.843-3.13-100.25.603-3.575 1.35-8.075 1.66-10s.93-4.4 1.376-5.5c.447-1.1 2.309-6.725 4.137-12.5s6.405-16.693 10.171-24.262 6.576-14.201 6.244-14.739c-.332-.537.014-.739.77-.449 1.834.704 4.25-4.43 2.778-5.902-.731-.731-1.048-.672-1.048.194m204 1.037c0 1.421 10.669 10.119 11.452 9.336.393-.393.565-.04.381.785s.23 1.387.917 1.25c.688-.138 1.138.312 1 1s.313 1.137 1 1 1.137.313 1 1 .313 1.137 1 1 1.137.136 1 .608c-.137.471 2.563 3.887 6 7.59 3.438 3.703 6.25 7.032 6.25 7.397s1.8 2.576 3.999 4.911 3.953 4.511 3.897 4.834c-.056.324.732 1.592 1.751 2.819s1.992 2.843 2.163 3.591c.286 1.257 3.882 6.851 5.142 8 .301.275 2.084 3.538 3.961 7.25 3.206 6.34 5.708 8.919 4.851 5-.211-.962-.852-1.66-1.425-1.549-.608.117-.834-.891-.543-2.414.399-2.09.179-2.492-1.097-2.002-1.058.406-1.428.173-1.097-.691.745-1.94-9.831-19.629-11.404-19.075-.716.252-1.025.01-.687-.537.511-.827-2.499-6.204-4.469-7.982-.304-.275-1.737-2.075-3.184-4-4.655-6.192-6.728-8.198-7.793-7.54-.649.401-.792-.007-.38-1.082.501-1.306.268-1.574-.96-1.103-1.2.461-1.461.2-1-1 .46-1.2.2-1.46-1-1-1.058.406-1.456.187-1.142-.63.685-1.787-16.379-17.645-18.987-17.645-.328 0-.596.395-.596.879m-95.53 2.169c-.356.576-1.395.974-2.309.885-4.161-.409-7.242.127-6.611 1.148.399.646-.081 1.003-1.191.885-3.763-.398-5.479.032-4.762 1.192.491.794.034.979-1.458.589-1.196-.313-2.739-.047-3.43.592s-1.917 1.31-2.723 1.491c-.807.182-1.696.632-1.977 1-.28.369-1.184.816-2.009.995s-1.651.744-1.835 1.256c-.185.512-.711.7-1.17.416-.458-.283-1.433.051-2.164.744-.732.692-2.569 1.898-4.081 2.678s-2.75 1.793-2.75 2.25-.683.831-1.518.831C306.545 422 288 440.601 288 442.544c0 .801-.45 1.456-1 1.456s-1 .627-1 1.393-.739 1.677-1.643 2.024c-.904.346-1.381.892-1.06 1.213s-.29 1.52-1.357 2.665-1.94 2.672-1.94 3.394c0 .721-.45 1.311-1 1.311s-1 1.152-1 2.559c0 1.451-.433 2.292-1 1.941-.583-.361-1 .656-1 2.441 0 1.682.45 3.059 1 3.059s1-.585 1-1.301c0-1.839 2.352-6.682 3.25-6.691.413-.004.75-.908.75-2.008s.45-2 1-2 1-.481 1-1.07c0-.588 1.374-3.067 3.054-5.508s2.781-4.88 2.448-5.419-.02-.784.696-.545 3.256-2.042 5.645-5.068 7.113-7.485 10.5-9.908c3.386-2.424 6.61-4.761 7.163-5.194 4.238-3.32 19.88-10.688 24.994-11.774 22.355-4.747 33.66-4.408 54.5 1.637 5.728 1.661 15.365 6.012 22.387 10.108 2.687 1.568 5.477 2.624 6.199 2.347.75-.289 1.111.019.843.718-.258.672.835 1.991 2.428 2.933s4.415 3.13 6.27 4.864c5.913 5.528 9.743 8.077 10.984 7.31.761-.47.936-.316.48.422-.876 1.417 1.998 4.519 3.39 3.659.597-.369.731.076.334 1.11-.513 1.337-.274 1.576 1.063 1.063 1.044-.4 1.48-.264 1.104.344-.342.554.866 2.911 2.684 5.239 4.819 6.171 5.692 6.938 6.981 6.141.691-.427.893-.283.499.356-.559.904 4.587 10.676 6.443 12.235.327.275 2.578 4.325 5.001 9s4.633 8.725 4.91 9c.769.764 2.591 4.917 4.825 11 14.682 39.969 15.914 77.213 3.714 112.343-.925 2.664-1.43 5.5-1.122 6.302s.143 1.201-.367.886-2.31 2.249-4 5.698-4.438 8.521-6.106 11.271-3.29 5.788-3.605 6.75-1.018 1.75-1.563 1.75-.722.698-.394 1.552.19 1.301-.305.995c-1.126-.695-16.18 14.478-15.482 15.606.28.453-.189.556-1.043.229-1.645-.632-2.186 1.108-.642 2.062.969.6 19.09-17.073 19.09-18.617 0-.503 1.101-2.102 2.446-3.553s2.22-3.006 1.941-3.456c-.278-.45-.099-.818.397-.818s1.985-2.138 3.309-4.75 2.744-4.9 3.157-5.083c.412-.184.75-.945.75-1.693s.865-2.848 1.922-4.667 2.069-4.207 2.25-5.307c.18-1.1.636-2.233 1.013-2.519.376-.285.871-1.635 1.098-3s.879-3.606 1.446-4.981.886-3.288.709-4.25.04-1.75.483-1.75c.84 0 2.403-6.895 4.082-18 1.933-12.793.858-44.63-1.723-51-.661-1.632-.962-3.6-1.155-7.559-.069-1.407-.53-2.309-1.025-2.003s-.9-1.075-.9-3.07-.383-3.906-.85-4.247c-.468-.342-.895-1.183-.95-1.871s-.167-2.177-.25-3.309c-.093-1.281-.586-1.789-1.305-1.346-.685.424-.884.277-.488-.364.698-1.129-3.615-14.085-5.036-15.128-.452-.332-.944-1.278-1.094-2.103-.782-4.295-11.293-22.957-13.425-23.835-.448-.185-.595-.691-.327-1.125.268-.433-.629-1.993-1.994-3.466-1.364-1.472-2.481-3.021-2.481-3.442 0-.42-2.25-3.136-5-6.034-2.75-2.899-5-5.586-5-5.972 0-.906-9.348-10.126-10.267-10.126-.384 0-2.808-2.022-5.388-4.494s-4.878-4.306-5.107-4.077-1.794-.898-3.476-2.506S422.288 422 421.78 422c-.507 0-1.602-.679-2.432-1.509s-1.923-1.254-2.429-.941c-.505.312-.919.162-.919-.334 0-.936-7.371-4.943-10-5.435-.825-.155-1.77-.648-2.1-1.097-.33-.45-1.23-.932-2-1.074-.77-.141-3.114-.999-5.209-1.907s-4.795-1.818-6-2.023-2.866-.646-3.691-.981c-6.306-2.556-37.153-3.878-38.53-1.651m-84.074 5.262c-2.856 2.972-8.396 11.299-8.396 12.62 0 .589-.411 1.07-.913 1.07-1.228 0-12.185 22.032-11.505 23.133.807 1.306 2.418 1.041 2.418-.398 0-.696 1.372-4.078 3.049-7.515 1.678-3.438 2.733-6.763 2.346-7.39-.403-.652-.263-.866.328-.501 1.02.63 6.277-6.328 6.277-8.308 0-.561.378-1.021.839-1.021 1.171 0 3.31-4.949 2.622-6.063-.311-.503.021-.697.737-.431 1.083.402 5.802-5.285 5.802-6.992 0-1.092-1.589-.3-3.604 1.796m89.104-.695c-11.263.855-27.708 7.057-38.953 14.691-7.337 4.982-10.86 8.379-10.049 9.691.358.579-.101.709-1.12.318-1.306-.501-1.574-.268-1.103.96.461 1.2.2 1.461-1 1-1.228-.471-1.461-.203-.96 1.103.408 1.063.267 1.482-.366 1.091-.953-.59-8.949 7.192-8.949 8.709 0 .374-.596 1.275-1.324 2.003-4.133 4.134-15.343 31.322-18.478 44.819-3.538 15.234-4.08 41.601-1.211 59 .589 3.575 1.331 8.19 1.648 10.256s.979 4.005 1.471 4.309.894 1.541.894 2.748 1.155 5.344 2.567 9.191 3.264 9.021 4.116 11.496c1.506 4.378 7.24 15.996 8.39 17 .315.275.874 1.316 1.243 2.313.388 1.051 1.159 1.512 1.831 1.096.694-.429.893-.283.495.362-1.027 1.662 1.499 6.389 3.088 5.779.815-.313 1.102-.086.704.557-.745 1.205 1.43 5.893 2.735 5.893.457 0 .831-.9.831-2s-.45-2-1-2-1-.59-1-1.311c0-.722-.788-2.202-1.75-3.289s-1.899-2.631-2.08-3.43c-.182-.798-.659-1.68-1.061-1.961-1.439-1.002-10.07-19.885-12.627-27.623-1.433-4.337-3.028-8.667-3.544-9.622s-.938-2.568-.938-3.584-.306-2.152-.679-2.526-.856-2.579-1.073-4.902-.717-4.679-1.113-5.237c-.395-.558-.857-3.715-1.027-7.015s-.66-6.45-1.091-7c-.903-1.153-.643-31.246.29-33.5.341-.825.763-3.975.936-7s.628-6 1.01-6.612c.382-.611.804-2.558.939-4.326s.597-3.431 1.027-3.697.781-1.506.781-2.757.299-2.573.664-2.938c1.155-1.156 4.164-10.509 3.571-11.102-.313-.312-.043-.568.598-.568.642 0 1.167-.9 1.167-2s.45-2 1-2 1-.681 1-1.514c0-1.641 1.673-4.956 3.905-7.736.773-.962 1.113-1.75.757-1.75-.357 0 .294-1.085 1.447-2.411s2.091-2.788 2.084-3.25c-.027-1.852 22.614-23.096 27.057-25.386 2.613-1.347 4.75-2.814 4.75-3.26s.414-.555.919-.243 1.519.002 2.25-.691c.732-.692 2.231-1.409 3.331-1.593s2.428-.746 2.95-1.25 1.76-.916 2.75-.916 1.8-.337 1.8-.75c.001-.413 1.648-.84 3.661-.951s3.925-.629 4.25-1.154c.708-1.144 31.145-1.265 32.589-.129.55.433 2.8.944 5 1.135s4.233.657 4.519 1.034c.285.376 1.635.848 3 1.047 1.364.2 4.056 1.109 5.981 2.02s4.175 1.789 5 1.952 1.729.597 2.009.966c.281.368 1.17.818 1.977 1 .806.181 2.076.897 2.821 1.589.745.693 1.73 1.027 2.188.744.459-.284.985-.149 1.17.299.382.929 9.37 7.198 10.319 7.198.344 0 2.063 1.348 3.82 2.995 1.758 1.648 3.512 2.998 3.898 3 .387.003 2.862 2.164 5.5 4.803s5.248 4.888 5.798 5c.55.111 1 .63 1 1.152 0 .523 1.675 2.485 3.723 4.36s3.516 3.617 3.264 3.87c-.253.252 1.081 2.141 2.964 4.197s3.406 3.977 3.384 4.27.793 1.51 1.812 2.706 2.492 3.406 3.272 4.911 1.819 2.736 2.309 2.736.634.414.322.919c-.313.506.017 1.519.733 2.25s1.897 2.788 2.625 4.568c.728 1.781 1.791 2.949 2.363 2.596.615-.381.736-.154.297.556-.407.66-.027 2.288.846 3.62.872 1.331 1.586 3.111 1.586 3.956s.525 1.535 1.167 1.535c.641 0 .89.276.553.613-.719.72 2.224 8.604 3.547 9.499.497.336.865.899.818 1.25-.334 2.499.052 4.671.754 4.237.462-.285.899 1.06.972 2.99s.471 4.05.885 4.71.891 2.326 1.059 3.701c.169 1.375.587 3.175.929 4 .854 2.058.986 2.897 1.179 7.5.114 2.716.448 3.557 1.042 2.619.515-.813.903 8.552.944 22.75.042 14.772-.304 24.131-.89 24.131-.528 0-.959 2.475-.959 5.5s-.45 5.5-1 5.5-1 1.538-1 3.417-.495 3.581-1.1 3.783-1.1 2.038-1.1 4.081c0 2.042-.405 3.463-.9 3.157-.789-.487-1.36 1.649-1.018 3.812.065.413-.332.75-.882.75s-1 .545-1 1.211c0 1.665-8.103 17.727-10.213 20.245-.942 1.124-1.721 2.389-1.732 2.812-.01.422-3.215 4.097-7.123 8.167-7.288 7.59-7.985 8.714-5.848 9.426.778.26 1.01-.174.626-1.174-.445-1.161-.174-1.419 1.015-.962 1.2.46 1.46.2 1-1-.461-1.2-.2-1.461 1-1 1.228.471 1.461.203.96-1.103-.391-1.019-.261-1.478.318-1.12 1.811 1.119 10.678-9.591 9.508-11.484-.344-.558.018-.752.825-.443.933.358 1.918-.526 2.796-2.511.746-1.685 1.696-3.064 2.112-3.064s.756-.9.756-2 .502-2 1.117-2c.648 0 .918-1.036.644-2.47-.26-1.358-.107-2.244.34-1.968.831.514 4.72-7.301 6.749-13.562 3.532-10.899 4.417-14.207 5.876-21.96 1.092-5.803 1.624-14.469 1.661-27.04.06-20.462-.412-23.92-6.349-46.5-1.768-6.725-4.821-13.987-5.795-13.784-.571.119-.836-.558-.588-1.503.593-2.268-2.444-9.461-3.674-8.701-.529.327-.696-.09-.373-.932.834-2.173-1.824-7.711-3.409-7.103-.74.284-1.02.043-.649-.558.981-1.588-3.806-10.031-5.352-9.44-.716.274-1.035.066-.708-.462.844-1.367-2.496-6.131-3.754-5.354-.611.378-.747.163-.327-.515 1.794-2.904-23.622-31.048-26.902-29.789-.982.377-1.359.211-.966-.425.899-1.456-4.675-6.086-6.716-5.578-1.006.251-1.492-.061-1.215-.781.253-.66-.793-1.846-2.325-2.636s-3.01-1.693-3.285-2.007-4.1-2.358-8.5-4.541c-6.942-3.445-12.364-5.409-26-9.418-3.574-1.051-20.945-1.893-28-1.358m138.972 15.997c-1.634 1.308-2.499 2.38-1.922 2.383s1.551-.496 2.163-1.108c1.596-1.596 2.811-.534 7.656 6.688 2.368 3.53 4.603 6.119 4.968 5.755.365-.365.663.227.663 1.315s.9 2.944 2 4.125c1.1 1.18 2 2.642 2 3.247 0 .606.45.823 1 .483.916-.566 1.445.799 1.094 2.822-.078.452 2.119 5.143 4.882 10.423S522 471.943 522 472.673s.525 1.327 1.167 1.327c.641 0 .89.276.553.613-.719.72 2.224 8.604 3.547 9.499.497.336.793.921.658 1.3-.294.825 4.28 15.872 5.042 16.588.293.275.689 2.075.88 4s.641 3.725 1 4 .809 2.075 1 4 .656 3.725 1.033 4c.378.275.656 1.175.619 2s.292 3.3.732 5.5 1.062 6.7 1.382 10 .907 6.225 1.304 6.5c1.179.817 1.279 56.239.1 55.51-.597-.368-1.017.532-1.018 2.181-.001 1.545-.582 5.959-1.293 9.809-.71 3.85-1.257 7.675-1.215 8.5s-.262 1.743-.675 2.039-.878 2.096-1.034 4c-.155 1.904-.59 3.694-.967 3.98-.376.285-.847 1.731-1.045 3.212-.199 1.481-.678 3.01-1.066 3.398-.387.387-.704 1.478-.704 2.423s-.652 2.976-1.449 4.512-1.22 3.162-.941 3.614c.28.452.031.822-.551.822S528 647.377 528 649.059c0 1.785-.417 2.802-1 2.441-.847-.523-1.14.401-.964 3.036.019.294-.66 1.231-1.509 2.08-1.476 1.475-1.272 3.384.361 3.384.666 0 3.659-6.083 6.15-12.5 3.496-9.009 4.346-11.466 5.101-14.75a506 506 0 0 1 1.924-8c7.575-30.298 8.307-69.334 1.917-102.25-.641-3.3-1.49-7.8-1.888-10-.654-3.616-3.455-13.713-4.856-17.5-.305-.825-1.762-4.875-3.237-9s-3.157-7.403-3.738-7.284-.839-.613-.575-1.625c.265-1.012-.456-3.781-1.602-6.154S522 466.034 522 465.312s-.398-1.312-.883-1.312c-.486 0-1.131-.945-1.433-2.101-.302-1.155-.965-1.844-1.472-1.53-.518.32-.702-.585-.42-2.063.403-2.108.185-2.511-1.093-2.021-1.043.401-1.428.172-1.109-.66.796-2.073-10.425-21.523-15.22-26.381-.681-.691-1.511-2.112-1.843-3.158-.93-2.931-2.801-3.078-6.055-.474m-8.471 11.638c.001.688 1.126 2.557 2.5 4.156s2.499 3.253 2.499 3.678.563 1.381 1.25 2.125c1.738 1.879 4.759 6.93 5.443 9.098.33 1.047 1.167 1.577 1.99 1.261.792-.304 1.148-.104.806.45-.338.547 1.664 5.563 4.448 11.147 2.785 5.583 5.063 10.535 5.063 11.004s.872 2.76 1.937 5.092c2.724 5.962 7.532 21.604 9.911 32.239 1.954 8.739 2.894 14.139 5.095 29.269 1.312 9.024 1.381 33.421.113 39.905-.52 2.654-1.454 8.651-2.077 13.326s-1.496 9.625-1.94 11-1.37 4.525-2.057 7c-4.472 16.102-8.465 25.606-16.262 38.711-2.687 4.517-4.6 8.674-4.251 9.239.35.566.05.807-.667.538-1.396-.524-4.103 4.215-3.222 5.641.288.466-.062.652-.778.413-1.569-.524-10.166 10.06-9.304 11.455.358.579-.101.709-1.12.318-1.337-.513-1.576-.274-1.063 1.063.397 1.034.263 1.479-.334 1.11-1.297-.802-4.295 2.196-3.493 3.493.369.597-.076.731-1.11.334-1.306-.501-1.574-.268-1.103.96.439 1.143.194 1.459-.826 1.067-1.487-.571-1.994.78-.757 2.017.71.71 11.308-9.179 11.308-10.551 0-.419 2.25-3.12 5-6.003s5-5.613 5-6.065c0-.453.9-1.79 2-2.97s2-2.737 2-3.459c0-.721.367-1.311.816-1.311 1.126 0 5.184-7.393 5.184-9.445 0-.92.45-1.395 1-1.055.899.556 1.433-.757 1.118-2.75-.065-.413.284-.75.775-.75s1.161-.698 1.489-1.552c.392-1.021.172-1.338-.643-.926-.682.345-.417-.044.587-.864 1.005-.819 1.929-2.09 2.055-2.824.125-.734.932-2.684 1.793-4.334 1.743-3.341 5.563-13.904 6.148-17 .208-1.1.718-2.786 1.133-3.746.416-.961.821-2.873.901-4.25.079-1.376.42-2.503.758-2.503.338-.001.897-1.914 1.243-4.251s1.293-8.75 2.104-14.25c2.908-19.707.713-66.775-3.404-73-.364-.55-.795-2.575-.959-4.5s-.591-3.725-.948-4c-.358-.275-.694-.95-.747-1.5-.393-4.061-2.911-12.5-3.729-12.5-.554 0-.734-.273-.401-.607.753-.753-4.169-14.664-5.485-15.505-.527-.336-.811-.786-.631-1 .62-.733-2.478-8.888-3.376-8.888-.495 0-.643-.414-.331-.919.313-.506-.111-1.599-.941-2.429S504 466.436 504 465.571s-.36-1.571-.799-1.571-1.337-1.487-1.994-3.305c-.658-1.818-1.986-4.198-2.951-5.289s-1.905-2.637-2.086-3.436c-.182-.798-.632-1.68-1.002-1.961-.369-.28-1.309-1.747-2.089-3.259-.779-1.512-1.791-2.75-2.248-2.75s-.831-.493-.831-1.096c0-1.536-3.94-6.904-5.068-6.904-.513 0-.931.563-.931 1.25m94.892 10.833c-.608 19.466-.555 121.917.064 121.917.449 0 1.032-1.462 1.296-3.25.776-5.249.28-120.55-.522-121.352-.402-.402-.779.806-.838 2.685M241.875 449c-.069.55-.242 1.337-.385 1.75-1.22 3.527-1.811 5.813-1.587 6.138.147.214-.174.664-.715 1-.54.337-1.141 1.737-1.335 3.112s-.719 2.769-1.166 3.098-.849 2.128-.895 4-.423 3.627-.839 3.902-1.008 1.85-1.315 3.5c-.308 1.65-1.046 4.988-1.641 7.418s-.873 4.962-.618 5.628c.256.666-.063 1.738-.707 2.382-1.796 1.796-1.646 56.194.161 58.37.783.944 1.065 2.553.684 3.904-.512 1.816-.421 1.983.432.798.81-1.126.946-.378.543 3-.471 3.955-.39 4.219.67 2.181.931-1.792.941-3.948.042-9.5-4.378-27.02-1.459-62.944 7.221-88.889 1.966-5.876 3.575-11.159 3.575-11.738 0-1.342-1.958-1.392-2.125-.054m32.007 17.691c-.066.995-.066 2.146 0 2.559.065.413-.332.75-.882.75s-1 1.377-1 3.059c0 1.785-.417 2.802-1 2.441-.996-.615-1.408 1.321-1.034 4.859.118 1.11-.239 1.59-.885 1.191-.706-.436-1.081.712-1.081 3.308 0 2.186-.426 4.125-.948 4.309-.521.183-1.084 2.133-1.25 4.333s-.65 4.258-1.076 4.574-.887 4.001-1.024 8.191c-.138 4.189-.577 7.943-.976 8.342-1.56 1.56.088 33.558 1.976 38.393.323.825.769 3.513.993 5.972s.723 4.71 1.11 5c.386.291.858 1.878 1.049 3.528s.628 3.45.971 4c.344.55.778 2.117.965 3.481.187 1.365.649 2.715 1.025 3 .377.286.809 1.624.96 2.975s.601 2.701 1 3 .851 1.669 1.004 3.044.719 2.651 1.257 2.835.745.711.461 1.17c-.283.458.051 1.433.744 2.164.692.732 1.409 2.231 1.593 3.331s.746 2.428 1.25 2.95.916 1.723.916 2.667.359 1.866.797 2.05 1.842 2.58 3.12 5.327c2.49 5.355 7.948 13.792 9.275 14.339.444.184.808.924.808 1.645s1.316 2.72 2.925 4.442 3.072 3.532 3.25 4.022c.867 2.379 16.404 18.05 17.484 17.635.802-.308 1.02.097.616 1.148-.471 1.228-.203 1.461 1.103.96 1.053-.404 1.481-.266 1.098.354-.708 1.145 3.597 5.034 4.769 4.31 1.431-.885.752-2.562-.797-1.967-.854.327-1.325.228-1.048-.22.752-1.217-18.441-20.255-19.66-19.501-.594.367-.754.17-.368-.453.923-1.495-5.54-10.196-7.174-9.659-.716.235-1.015-.037-.664-.604.903-1.461-2.388-6.153-3.732-5.322-.618.381-.833.236-.484-.328.956-1.548-1.632-6.366-3.12-5.807-.716.269-1.025.041-.686-.507s-1.173-4.706-3.359-9.239-4.691-9.929-5.564-11.992a2402 2402 0 0 0-2.982-7c-2.079-4.851-2.774-6.89-3.666-10.75a224 224 0 0 0-1.911-7.5c-3.738-13.55-6.111-39.046-4.886-52.5 1.744-19.157 5.349-35.147 9.973-44.236.486-.955.883-2.391.883-3.191 0-2.163-1.981-2.987-2.118-.882m109.868-.934c-2.613.194-4.75.778-4.75 1.298s-1.125.945-2.5.945-2.5.477-2.5 1.059-.414.803-.919.491-1.529-.002-2.274.691c-.745.692-1.99 1.4-2.767 1.571-.778.172-2.17 1.184-3.094 2.25s-2.099 1.938-2.61 1.938c-1.095 0-8.336 7.24-8.336 8.334 0 .412-.9 1.716-2 2.896-2.144 2.301-2.727 6.77-.883 6.77.648 0 .918-1.036.644-2.47-.26-1.358-.136-2.262.274-2.008 1.048.647 4.177-4.37 3.455-5.539-.344-.556.133-.681 1.132-.298 1.306.501 1.574.268 1.103-.96-.461-1.2-.2-1.461 1-1 1.2.46 1.46.2 1-1-.461-1.2-.2-1.461 1-1 1.228.471 1.461.203.96-1.103-.431-1.123-.277-1.488.438-1.046.605.374 1.388.247 1.739-.283.946-1.429 11.029-6.677 15.744-8.196 5.418-1.745 25.276-1.03 31.163 1.122 11.446 4.183 27.257 17.376 32.303 26.952.675 1.281 1.507 2.554 1.848 2.829 1.108.893 6.927 13.37 8.516 18.26 5.431 16.711 5.168 41.641-.559 52.976-1.174 2.325-1.111 4.764.123 4.764.55 0 1-.81 1-1.8s.437-2.237.971-2.771c.535-.535 1.11-1.862 1.279-2.95s.677-2.571 1.129-3.295.821-4.053.821-7.398c0-3.911.316-5.582.885-4.683.552.873.89-1.863.9-7.294.008-4.78-.358-8.921-.813-9.203-.456-.281-.88-2.76-.942-5.507-.205-8.958-10.164-35.099-13.372-35.099-.537 0-.725-.406-.418-.903.733-1.185-18.906-21.097-20.808-21.097-.806 0-1.615-.416-1.799-.925s-1.008-1.071-1.833-1.25-1.77-.692-2.1-1.141-1.23-.944-2-1.099-2.152-.611-3.072-1.011-2.269-.819-3-.929-1.895-.555-2.587-.988c-1.406-.878-16.168-1.444-23.491-.9m-1.25 5.47c-7.243 2.448-12.541 5.225-12.11 6.347.282.734-.208 1.025-1.26.75-1.752-.458-10.634 8.013-12.962 12.362-.971 1.814-.882 2.095.595 1.878.955-.14 1.73-.662 1.722-1.159-.021-1.269 9.899-10.737 12.973-12.382 1.398-.749 2.542-1.761 2.542-2.251s.414-.634.919-.322c.506.313 1.519-.014 2.25-.727.732-.712 2.888-1.406 4.792-1.541s3.703-.61 4-1.054c.624-.936 13.05-.904 14.539.038.55.348 2.35.789 4 .98s3.245.675 3.544 1.076c.299.4 1.649.852 3 1.003s2.685.576 2.965.945c.281.368 1.149.818 1.93 1 .782.181 2.425 1.164 3.652 2.183s2.538 1.771 2.914 1.671 1.825 1.195 3.218 2.877 2.926 2.816 3.405 2.52c.48-.297.872.001.872.662 0 .66 1.35 2.491 3 4.067s3 3.12 3 3.429c0 .904 6.305 9.889 7.198 10.256.448.185.583.711.299 1.17-.283.458.196 1.545 1.065 2.414.87.87 1.344 1.581 1.054 1.581-.289 0 .578 2.935 1.929 6.523s2.455 7.412 2.455 8.5c0 1.087.408 1.977.906 1.977 1.137 0 1.192 31.309.055 32.019-.457.285-1.017 1.635-1.244 3s-.88 3.606-1.448 4.981c-.569 1.375-.835 2.837-.593 3.25.243.413-.035.75-.617.75s-1.059.9-1.059 2-.374 2-.831 2-1.455 1.237-2.217 2.75c-.763 1.513-3.475 4.876-6.027 7.475s-4.405 4.962-4.116 5.25c.288.289-.226.525-1.142.525-.917 0-1.667.45-1.667 1s-.702 1-1.559 1-1.281.45-.941 1c.362.585-.676 1-2.5 1-1.715 0-2.882.382-2.593.849.288.467-.879.888-2.594.937s-3.387.455-3.715.901c-.824 1.121-17.414 1.419-18.09.326-.3-.485-1.758-1.045-3.239-1.243s-3.01-.678-3.398-1.066c-.387-.387-1.781-.704-3.097-.704-1.34 0-2.12-.44-1.774-1 .352-.569-.509-1-2-1s-2.352-.431-2-1c.34-.55.111-1-.508-1s-2.763-1.545-4.764-3.432c-3.45-3.256-5.228-3.732-5.228-1.402 0 .576.698.78 1.552.452.896-.344 1.292-.174.936.401-.991 1.604 1.748 3.652 11.657 8.72 8.861 4.531 9.767 4.778 18.757 5.113 10.407.389 14.327-.502 23.098-5.247 6.387-3.455 8.371-5.195 7.512-6.586-.369-.597.076-.731 1.11-.334 1.306.501 1.574.268 1.103-.96-.461-1.2-.2-1.461 1-1 1.2.46 1.46.2 1-1-.408-1.062-.187-1.456.638-1.139 1.514.581 4.155-3.938 3.203-5.479-.402-.651-.104-.867.746-.541 1.323.508 5.688-6.836 5.688-9.569 0-.563.395-1.806.877-2.761 2.201-4.355 3.251-9.817 3.172-16.493-.047-3.984-.102-10.294-.121-14.024-.054-10.219-8.666-35.344-11.73-34.22-.751.276-1.018.019-.632-.606.952-1.541-1.689-6.06-3.203-5.479-.696.267-1.054-.056-.798-.722.464-1.211-4.815-7.17-12.135-13.696-4.71-4.2-11.717-7.738-21.501-10.857-4.306-1.373-17.264-1.32-21.429.088m117.08 1.644c-.297.479.575 3.067 1.936 5.75 1.362 2.684 2.478 5.442 2.48 6.129.002.688.356 1.25.786 1.25s.882 1.212 1.005 2.694.709 2.994 1.303 3.362c.595.367.993.968.886 1.334s.126 1.667.518 2.889c.391 1.221.856 2.819 1.032 3.549.176.731.649 2.081 1.051 3 .402.92.916 2.789 1.142 4.153.226 1.365.72 2.715 1.096 3s.841 2.094 1.032 4.019.641 3.725 1 4 .77 2.075.913 4 .537 4.175.875 5 .819 3.961 1.071 6.968c.251 3.007.809 6.157 1.239 7 .429.843.869 10.532.977 21.532.18 18.455-.514 27.804-2.93 39.5-.512 2.475-1.134 5.85-1.383 7.5-.248 1.65-1.157 5.25-2.02 8-.862 2.75-1.572 6.264-1.578 7.809-.006 1.616-.436 2.547-1.011 2.191-.55-.34-1.056.084-1.125.941s-.242 1.896-.385 2.309c-1.232 3.561-1.679 5.293-1.514 5.86.107.366-.258.946-.81 1.288-.553.341-1.154 1.281-1.336 2.088-.181.806-.897 2.076-1.589 2.821-.693.745-1.027 1.73-.744 2.188.284.459.096.985-.416 1.17s-1.077.999-1.256 1.811-.916 2.111-1.639 2.886c-.916.982-.997 1.727-.267 2.457 1.266 1.266.978 1.647 4.775-6.319 4.861-10.202 7.306-15.891 7.306-17.003 0-.563.413-1.806.917-2.761 1.229-2.327 4.277-12.77 5.177-17.736.398-2.2 1.328-6.925 2.065-10.5.797-3.865 1.287-12.124 1.207-20.372-.087-8.941.2-13.384.807-12.5 1.105 1.61.198-18.914-1.177-26.628-.491-2.75-1.403-8.375-2.027-12.5-1.165-7.697-2.546-13.177-4.092-16.236-.482-.955-.877-2.442-.877-3.304 0-4.645-10.456-31.914-11.896-31.024-.448.277-.603-.608-.343-1.966.45-2.355-1.039-3.447-2.181-1.599m-152.551 23.556c-.744 1.895-1.241 3.762-1.105 4.148s-.287 1.031-.939 1.434-1.185 2.365-1.185 4.359c0 1.995-.405 3.376-.9 3.07-.942-.582-1.099 1.145-1.009 11.062.041 4.533-.181 5.511-.908 4-.697-1.45-.841-.489-.521 3.5.997 12.429 1.594 17.578 2.203 19 .353.825.828 2.617 1.054 3.981.226 1.365.72 2.715 1.096 3s.73 1.082.785 1.769c.296 3.694.493 4.25 1.513 4.25 1.14 0 .985-1.446-1.072-10-3.104-12.906-3.666-33.502-1.101-40.352.442-1.181 1.342-3.948 1.998-6.148.657-2.2 1.695-5.022 2.308-6.27.734-1.497.777-2.607.124-3.26-.652-.652-1.45.184-2.341 2.457m7.328-.939c.314.818.073 1.381-.536 1.25-.952-.205-3.523 6.432-6.909 17.833-1.437 4.837-1.013 23.254.689 29.929 3.548 13.923 4.985 17.874 6.221 17.11.454-.281.793.48.752 1.69-.044 1.324.454 2.091 1.25 1.925.729-.151 1.031.2.673.78-1.478 2.392 13.276 21.555 15.152 19.68.369-.37-.3-1.515-1.489-2.546-1.188-1.03-2.16-2.273-2.16-2.762s-1.687-2.72-3.75-4.959-3.899-4.708-4.08-5.485-.637-1.643-1.011-1.924-1.796-2.984-3.159-6.009-2.709-5.725-2.989-6c-.281-.275-.67-1.625-.864-3s-.666-2.725-1.048-3-.797-2.013-.921-3.861c-.125-1.849-.606-4.099-1.069-5-1.159-2.258-1.183-27.303-.025-26.587.821.507 1.203-1.691 1.183-6.802-.003-.962.385-1.75.863-1.75.479 0 .87-1.377.87-3.059s.337-2.855.75-2.606 1.528-1.074 2.479-2.941c1.548-3.038 1.563-3.394.143-3.394-.993 0-1.373.556-1.015 1.488M234.42 561.75c.216 1.237-.015 2.25-.514 2.25-.498 0-.906.477-.906 1.059s.369.831.819.553c.451-.279.615.884.366 2.583-.344 2.343-.142 2.896.838 2.291.954-.59 1.144-.233.728 1.359-.346 1.324-.172 1.915.449 1.531.637-.393.76.173.333 1.521-.587 1.847 2.405 13.338 4.322 16.603.323.55.726 1.89.895 2.979.169 1.088.744 2.415 1.279 2.95.534.534.971 2.033.971 3.33s.338 2.151.75 1.896.821.717.908 2.16.652 2.788 1.256 2.99c.604.201.867.741.583 1.2-.283.458.051 1.443.744 2.188.692.745 1.405 2.019 1.584 2.831s.744 1.627 1.256 1.811c.512.185.7.711.416 1.17-.283.458.051 1.443.744 2.188.692.745 1.405 2.019 1.584 2.831s.744 1.627 1.256 1.811c.512.185.7.711.416 1.17-.283.458.051 1.443.744 2.188.692.745 1.408 2.015 1.589 2.821.182.807.632 1.696 1 1.977.369.28 1.745 2.647 3.059 5.259s2.776 4.75 3.25 4.75.861.475.861 1.055c0 1.587 7.93 12.945 9.037 12.945.53 0 .85.563.713 1.25-.138.688.346 1.126 1.074.975s1.061.151.74.672c-.322.521 1.782 3.414 4.675 6.429 2.894 3.016 5.782 6.314 6.418 7.329s1.682 1.721 2.324 1.57.928.113.635.588c-.69 1.117 6.791 8.446 7.697 7.541 1.233-1.233.722-2.581-.762-2.012-1.02.392-1.265.076-.826-1.067.46-1.2.2-1.46-1-1-1.2.461-1.461.2-1-1 .471-1.228.203-1.461-1.103-.96-1.052.404-1.481.266-1.098-.353.537-.87-6.723-10.279-11.545-14.962-2.078-2.018-11.093-14.167-11.729-15.807-.28-.72-1.148-1.062-1.931-.762s-1.187.164-.899-.302c.841-1.361-1.802-6.174-3.119-5.68-.72.269-.975-.135-.638-1.013.308-.804.099-2.018-.466-2.699-1.742-2.1-13.016-25.262-16.299-33.487a328 328 0 0 0-1.844-4.5c-1.969-4.68-6.901-20.468-8.045-25.75-1.304-6.018-3.218-12.858-2.589-9.25m113.209-.96c-.656 1.062 2.375 7.21 3.555 7.21.514 0 .712.359.441.798-.68 1.101 1.104 3.806 1.952 2.959.904-.905-2.459-7.948-3.49-7.31-.439.271-.586-.619-.326-1.977.44-2.303-1.03-3.462-2.132-1.68m5.949 12.084c-.297.481.576 2.079 1.941 3.552 1.364 1.472 2.481 3.071 2.481 3.553 0 1.506 14.97 16.021 16.524 16.021.812 0 1.476.383 1.476.85 0 .908 11.699 7.132 14.081 7.492.78.118 1.869.486 2.419.818 4.99 3.011 24.276 3.016 29 .008 1.092-.696 1.709-.855 4.059-1.043.857-.069 1.262-.605.9-1.192-.363-.587-.052-.983.691-.881.742.102 1.8.131 2.35.065 1.555-.186 6.893-5.057 6.248-5.702-.946-.946-5.785 2.717-5.085 3.849.355.575.193.765-.361.423s-3.436.324-6.404 1.48c-10.488 4.085-29.012 2.925-38.779-2.427-1.86-1.019-3.975-1.626-4.699-1.348-.776.298-1.118-.017-.83-.765.572-1.491-4.241-3.96-5.819-2.985-.646.399-.791.199-.36-.497.738-1.195-5.124-6.862-6.614-6.395-.438.138-.688-.087-.555-.5.45-1.393-3.073-5.472-4.151-4.806-.679.419-.827.031-.406-1.066.513-1.337.274-1.576-1.063-1.063-.988.379-1.475.256-1.139-.287.613-.992-3.47-7.994-4.674-8.016-.38-.006-.934.381-1.231.862m95.672 5.833c-.687 1.481-1.25 3.112-1.25 3.625s-.941 1.75-2.092 2.748c-1.15.997-1.792 2.299-1.425 2.892.366.593.264.954-.226.803-1.471-.453-8.412 6.165-7.691 7.332.78 1.261 9.434-6.826 9.434-8.815 0-.711.374-1.292.831-1.292s1.47-1.237 2.25-2.75 1.986-3.349 2.678-4.081c1.21-1.278.869-3.177-.568-3.161-.38.004-1.253 1.219-1.941 2.699m-225.63 24.098c-.285.461.113 2.055.884 3.541.772 1.486 1.314 2.804 1.207 2.928-.532.613 2.73 8.726 3.508 8.726.495 0 .685.346.424.769-.682 1.103 2.855 8.4 3.674 7.581.376-.376.683.543.683 2.042 0 1.563.427 2.462 1 2.108.569-.352 1 .509 1 2s.431 2.352 1 2c.574-.355 1 .556 1 2.141 0 2.074.285 2.474 1.146 1.613s.255-2.961-2.44-8.45c-1.972-4.017-4.477-9.554-5.567-12.304s-2.399-4.91-2.911-4.799c-.513.11-.731-.85-.486-2.133.246-1.284-.046-2.638-.648-3.01S226 606.035 226 605c0-2.074-1.563-3.516-2.38-2.195M185.286 615.5c.008 2.75.202 3.756.432 2.236s.223-3.77-.014-5-.425.014-.418 2.764m115.251 8.44c-1.14 1.845 5.705 10.647 7.444 9.572.548-.339.779-.03.513.686-.735 1.977 12.847 15.704 21.575 21.807 1.887 1.319 3.656 2.659 3.931 2.978 2.888 3.344 23.674 13.246 31 14.766 1.375.286 2.95.833 3.5 1.217 5.447 3.802 46.711 3.738 49.068-.076.303-.49 1.43-.89 2.505-.89s2.736-.401 3.691-.891c.955-.489 3.986-1.949 6.736-3.244 2.75-1.294 5.565-2.889 6.256-3.544.691-.654 2.153-1.475 3.25-1.823s1.994-.946 1.994-1.329 1.8-1.809 4-3.169 4-2.816 4-3.236c0-1.554-3.322-.698-5.057 1.302-.985 1.136-2.015 1.923-2.287 1.75-.273-.174-1.558.584-2.856 1.684-3.18 2.694-17.687 9.882-20.781 10.297-1.365.184-2.715.642-3 1.018-.286.377-2.094.841-4.019 1.032s-3.739.733-4.031 1.205c-.648 1.047-27.066.951-28.469-.103-.55-.414-2.8-.909-5-1.1s-4.233-.657-4.519-1.034c-.285-.376-1.635-.87-3-1.096s-3.233-.74-4.153-1.142-2.269-.831-3-.952c-.73-.122-2.35-.783-3.599-1.469-1.249-.687-2.781-.933-3.404-.548-.695.43-.858.254-.42-.453.623-1.01-.001-1.252-2.924-1.134-.286.011-1.496-.889-2.689-2-1.193-1.112-2.704-2.021-3.358-2.021s-1.758-.686-2.454-1.524-1.464-1.325-1.708-1.081c-.244.243-1.566-.533-2.938-1.726s-2.686-2.054-2.92-1.913-2.785-1.992-5.67-4.74c-2.884-2.747-5.591-5-6.016-5.006-.98-.013-11.788-10.781-11.637-11.593.062-.333-1.727-2.594-3.976-5.024s-4.057-4.675-4.018-4.989c.144-1.179-.922-1.496-1.56-.464M240 640c0 1.1.477 2 1.059 2s.803.414.491.919.004 1.519.702 2.25c.699.732 1.819 2.568 2.488 4.081.67 1.513 1.677 2.75 2.239 2.75 1.549 0 1.228-1.894-.822-4.846-1.014-1.46-2.473-4.116-3.244-5.904-1.581-3.667-2.913-4.239-2.913-1.25m32.556 1.909c-.701 1.134 1.418 6.091 2.605 6.091.461 0 .839-.9.839-2s-.477-2-1.059-2-.8-.419-.484-.931a1.106 1.106 0 0 0-.372-1.516 1.113 1.113 0 0 0-1.529.356m4.059 5.652c-1.832 4.775 37.219 44.514 41.278 42.005.625-.386.882-.119.607.632-.459 1.255 8.341 7.802 10.488 7.802.557 0 1.012.398 1.012.883 0 .486.788 1.135 1.75 1.441s4.45 2.068 7.75 3.914c3.3 1.845 7.575 3.942 9.5 4.66 5.48 2.042 7.314 2.756 10 3.893 1.375.582 3.85 1.337 5.5 1.678s4.8 1.083 7 1.649c11.795 3.033 37.3 3.381 48.428.662 12.418-3.035 35.835-12.637 38.053-15.604.285-.381 2.207-1.815 4.27-3.185 2.109-1.401 3.536-3.061 3.261-3.793-.269-.716-.04-1.024.509-.685 1.955 1.209 15.354-11.202 22.53-20.869 2.508-3.379 5.21-6.937 6.005-7.905.794-.969 1.454-2.094 1.466-2.5s.902-1.864 1.978-3.239c2.038-2.605 2.598-5 1.169-5-.457 0-1.47 1.237-2.25 2.75s-2.206 3.622-3.169 4.689c-.962 1.066-1.75 2.328-1.75 2.804s-1.348 2.304-2.995 4.061-2.998 3.538-3 3.956c-.006.962-18.827 19.738-19.791 19.745-.393.002-2.152 1.352-3.91 3-1.757 1.647-3.585 2.995-4.061 2.995s-1.738.788-2.804 1.75c-2.418 2.183-14.243 8.25-16.079 8.25-.748 0-1.36.352-1.36.782s-1.212.882-2.694 1.005-2.944.558-3.25.968-1.681.904-3.056 1.097c-1.375.194-3.258.757-4.184 1.25-.927.494-2.813.898-4.191.898-1.379 0-2.788.455-3.131 1.01-.751 1.215-39.494 1.016-39.494-.202 0-.445-1.058-.808-2.351-.808s-3.655-.436-5.25-.97c-1.594-.533-4.024-1.16-5.399-1.394s-3.625-.779-5-1.213c-1.375-.433-2.675-.667-2.888-.52s-.664-.108-1-.568c-.573-.782-10.445-5.204-12.588-5.637-.537-.109-1.586-.765-2.331-1.457s-1.768-1.004-2.274-.691c-.505.312-.919.154-.919-.352s-2.137-1.995-4.75-3.309-4.979-2.69-5.259-3.059c-.281-.368-1.168-.818-1.971-1-.804-.181-2.825-1.565-4.491-3.075s-3.31-2.748-3.653-2.75c-.344-.003-2.326-1.563-4.405-3.468s-4.173-3.221-4.651-2.926c-.478.296-.746.012-.595-.63s-.587-1.688-1.64-2.324C304.127 677.172 288 661.166 288 660.211c0-.397-1.8-2.633-4-4.968s-4.014-4.584-4.032-4.995-.639-1.549-1.382-2.527c-1.217-1.605-1.41-1.621-1.971-.16m-29.065 5.358c-.313.506.111 1.599.941 2.429S250 657.254 250 657.74s.787 1.78 1.75 2.876 2.2 2.791 2.75 3.766c1.16 2.056 2.769 2.311 3.361.534.268-.802-.179-1.008-1.276-.587-.929.357-1.453.266-1.165-.2.881-1.426-1.826-6.165-3.222-5.641-.716.269-1.048.078-.737-.425.669-1.082-1.436-6.063-2.562-6.063-.43 0-1.037.414-1.349.919m14.7 3.606c-2.568 2.743-3.163 8.039-.801 7.133q1.452-.56.893.893c-.306.797-.168 1.449.307 1.449.474 0 1.473 1.379 2.219 3.064.819 1.85 1.886 2.861 2.693 2.551.904-.347 1.135.013.714 1.11-.471 1.228-.203 1.461 1.103.96 1.034-.396 1.479-.263 1.111.333-1.268 2.051 13.529 18.707 15.523 17.475.562-.347.688.124.303 1.129-.513 1.337-.274 1.576 1.063 1.063 1.04-.399 1.48-.264 1.107.34-1.263 2.042 11.496 12.723 13.626 11.407.777-.481.936-.316.451.468-.989 1.6 4.413 6.292 6.613 5.744 1.006-.251 1.492.061 1.215.781-.563 1.468 3.998 4.071 5.503 3.141.656-.405.866-.101.532.77-.358.933.526 1.918 2.511 2.796 1.685.746 3.064 1.626 3.064 1.955s2.137 1.676 4.75 2.992 4.975 2.626 5.25 2.909c.51.525 2.711 1.586 9.084 4.378 6.049 2.65 28.126 9.741 33.416 10.732 10 1.875 27.757 2.75 37.38 1.843 13.111-1.237 18.874-2.351 29.719-5.745 3.213-1.005 29.519-14.096 30.401-15.129.275-.322 2.188-1.706 4.251-3.076 2.109-1.401 3.536-3.061 3.261-3.793-.271-.72-.028-1.017.543-.664 1.62 1.001 13.945-9.114 13.945-11.444 0-.61-1.35-2.521-3-4.247-1.65-1.727-3-3.523-3-3.991 0-.469-.45-.852-1-.852-1.646 0-1.091 3.326 1 6 1.076 1.375 1.966 2.849 1.978 3.276.028.997-8.673 9.722-9.702 9.729-.427.002-2.334 1.465-4.239 3.25s-3.705 3.149-4 3.032-1.662.765-3.037 1.961c-1.375 1.195-2.613 2.079-2.75 1.963-.821-.692-2.263-.041-1.75.789.34.55-.309 1-1.441 1s-2.059.45-2.059 1-.927 1-2.059 1-1.781.45-1.441 1c.548.887-1.555 1.488-3.824 1.094-.454-.079-.54.318-.191.881.379.615-.592 1.025-2.426 1.025-1.682 0-3.059.477-3.059 1.059s-.337.86-.75.617c-.413-.242-1.875.023-3.25.589-1.375.567-3.365 1.198-4.422 1.403-1.056.204-2.519.868-3.25 1.474-.73.607-1.328.854-1.328.55s-1.463-.101-3.25.45c-1.788.551-5.5 1.241-8.25 1.534s-5.225.89-5.5 1.327c-.275.438-8.48.786-18.233.774s-17.527-.356-17.275-.764c.252-.407-1.669-1-4.267-1.318-2.599-.317-8.775-1.779-13.725-3.248-4.95-1.468-9.675-2.732-10.5-2.809s-1.725-.384-2-.685c-.823-.901-11.158-4.953-12.633-4.953-.752 0-1.367-.45-1.367-1s-.707-1-1.571-1c-.865 0-2.251-.679-3.081-1.509s-1.923-1.254-2.429-.941c-.505.312-.919.174-.919-.307 0-.787-7.785-5.667-9-5.641-.275.005-1.372-.803-2.439-1.796s-2.528-1.806-3.25-1.806c-.721 0-1.311-.374-1.311-.831s-1.238-1.47-2.75-2.25-4.177-2.696-5.92-4.257-3.544-2.875-4-2.921c-1.088-.11-29.33-28.502-29.33-29.486 0-.416-1.687-2.625-3.75-4.909-6.148-6.808-6.42-7.6-3.757-10.94 3.602-4.517 1.71-6.103-2.243-1.881m63.75 2.109c0 3.515 34.144 21.631 37.204 19.74.667-.412.822-.225.391.471-.462.75.186 1.199 1.846 1.28 2.782.136 3.305.244 5.559 1.152 7.876 3.171 44 2.984 44-.228 0-.41 1.419-.785 3.152-.834 1.734-.05 3.422-.456 3.75-.902.329-.447 1.498-.963 2.598-1.147 1.1-.183 2.428-.746 2.95-1.25s1.76-.916 2.75-.916 1.8-.477 1.8-1.059.414-.803.919-.491 1.519-.015 2.25-.729c.732-.713 2.92-2.042 4.863-2.952 4.081-1.913 8.534-5.537 7.758-6.313-1.055-1.054-5.869 1.897-5.34 3.274.29.756.113 1.118-.394.805s-4.439 1.139-8.739 3.226c-4.299 2.088-9.842 4.397-12.317 5.132s-5.4 1.688-6.5 2.119c-7.145 2.8-23.063 3.515-33.5 1.503-20.389-3.93-31.592-8.048-42.805-15.735-2.368-1.624-4.979-2.693-5.802-2.377-.898.344-1.236.152-.845-.481.359-.58-.18-1.686-1.198-2.457-1.929-1.461-4.35-1.924-4.35-.831m195.676 2.768c-.565 1.472.082 2.598 1.491 2.598.458 0 .833-.9.833-2 0-2.293-1.523-2.685-2.324-.598m-4.763 9.316c-1.877 3.696-4.201 7.605-5.163 8.689s-1.75 2.36-1.75 2.836-1.348 2.304-2.995 4.061-2.998 3.532-3 3.944c-.003.411-1.502 2.334-3.331 4.274l-3.327 3.526-3.164-3.024c-1.741-1.663-3.506-3.018-3.924-3.012-.417.007 1.173 1.807 3.534 4 5.243 4.87 4.982 4.878 8.919-.293 1.767-2.32 4.355-5.526 5.75-7.125 1.396-1.598 2.538-3.253 2.538-3.678s.576-1.368 1.281-2.095c2.452-2.529 5.819-9.119 5.321-10.415-.331-.864.039-1.097 1.097-.691 1.272.488 1.497.089 1.105-1.96-.358-1.873-.126-2.432.852-2.057.863.331 1.344-.238 1.344-1.591 0-3.716-1.587-2.277-5.087 4.611m-259.423-3.702c-.485.785-.151 1.759.857 2.496.909.665 1.653 1.623 1.653 2.13s2.25 3.28 5 6.163 5 5.603 5 6.044 1.125 1.859 2.5 3.151 2.5 1.948 2.5 1.458c0-.489 2.475 1.555 5.5 4.542s5.5 5.872 5.5 6.411c0 1.199 5.06 6.589 6.186 6.589.446 0 2.666 1.8 4.933 4s4.47 4 4.896 4c.425 0 2.115 1.237 3.754 2.75 4.542 4.19 8.898 6.516 8.898 4.752 0-.778-.379-1.18-.841-.895-.462.286-1.12-.21-1.462-1.101-.342-.892-1.216-1.393-1.942-1.114-.743.285-1.126-.018-.877-.693.528-1.425-6.202-6.029-7.573-5.182-.522.323-.745.001-.496-.715.537-1.541-8.077-8.167-9.484-7.297-.566.35-.694-.119-.307-1.127.501-1.306.268-1.574-.96-1.103-1.2.461-1.461.2-1-1 .471-1.228.203-1.461-1.103-.96-1.003.385-1.476.258-1.13-.301.85-1.376-12.289-14.257-13.672-13.403-.698.432-.851.249-.401-.48.425-.688-1.069-3.352-3.591-6.404-6.1-7.382-6.691-7.93-7.809-7.239-.548.339-.784.03-.525-.686.714-1.974-2.999-6.413-4.004-4.786m266.171 2.734c-.705 2.154-4.92 9.31-8.84 15.008-1.611 2.343-2.656 4.7-2.323 5.239s.02.772-.696.518c-.72-.256-2.867 1.624-4.802 4.205-1.925 2.567-6.521 7.799-10.214 11.627s-6.482 7.335-6.198 7.795-.261.537-1.21.173c-1.337-.513-1.576-.274-1.063 1.063.379.988.256 1.475-.287 1.139-1.434-.886-8.091 3.784-7.534 5.285.266.716.042 1.029-.497.696s-2.978.769-5.419 2.448c-2.441 1.68-4.92 3.054-5.508 3.054s-1.07.373-1.07.829-2.25 1.883-5 3.171-5 2.715-5 3.171-.906.829-2.014.829-2.795.434-3.75.965c-3.076 1.71-19.553 6.766-25.736 7.898-18.813 3.443-38.864 3.083-55.5-.996-2.475-.607-6.145-1.163-8.155-1.235s-3.443-.473-3.186-.889-.123-.919-.846-1.116c-.722-.197-4.404-1.356-8.182-2.574-5.398-1.742-7.11-1.953-8-.987-.869.944-.726 1.086.619.613.962-.339 1.75-.189 1.75.333 0 .79 1.446 1.401 6 2.536.275.069 1.252.458 2.172.865.919.408 2.269.863 3 1.013s2.114.612 3.074 1.029c.961.416 2.873.821 4.25.901 1.376.079 2.503.41 2.503.735.001.745 8.783 2.717 16.001 3.592 8.706 1.056 32 1.508 32.001.621.001-.442 2.173-.843 4.828-.891 5.23-.094 17.171-2.463 17.171-3.407 0-.319 1.455-.691 3.234-.827s3.668-.681 4.2-1.213c.531-.531 1.776-.966 2.766-.966s1.8-.477 1.8-1.059.337-.86.75-.617c.413.242 1.875-.023 3.25-.59s3.13-1.159 3.9-1.316 1.72-.803 2.112-1.437c.391-.633.999-1.113 1.35-1.066 2.373.317 3.001-.034 1.638-.915-1.138-.736-.716-.973 1.75-.985 1.788-.008 3.25-.465 3.25-1.015s.59-1 1.311-1c.722 0 2.184-.813 3.25-1.806 1.067-.993 2.317-1.847 2.778-1.897.462-.051 1.928-1.038 3.258-2.194 1.33-1.157 2.798-2.103 3.262-2.103.465 0 2.257-1.35 3.984-3s3.57-3 4.097-3 2.169-1.587 3.649-3.527 2.913-3.304 3.186-3.031c.564.564 11.225-10.538 11.225-11.689 0-.412 1.8-2.66 4-4.996 2.2-2.335 4-4.811 4-5.502s.374-1.255.831-1.255 1.47-1.237 2.25-2.75 2.207-3.622 3.169-4.689c.962-1.066 1.75-2.491 1.75-3.166 0-.676.416-1.378.925-1.562.509-.183 1.071-.997 1.25-1.809s.892-2.086 1.584-2.831c1.259-1.354.855-3.193-.701-3.193-.454 0-1.082.788-1.397 1.75M300 682.688c0 .895 9.266 9.302 10.259 9.308.418.002 2.172 1.354 3.898 3.004 1.727 1.65 3.71 3 4.408 3s1.418.402 1.602.894c.759 2.038 12.278 8.061 13.306 6.958.709-.761.64-1.244-.222-1.56-1.601-.587-16.589-10.335-17.251-11.22-1.482-1.982-7.149-5.098-8.148-4.481-.721.446-.891.281-.449-.435.407-.657-.494-2.214-2.095-3.623-2.701-2.375-5.308-3.282-5.308-1.845m168.692 13.845c-1.544 1.359-2.562 2.869-2.261 3.356s-.01.828-.692.758c-2.271-.234-11.745 5.796-11.243 7.155.276.746.022 1.018-.594.637-.592-.365-3.174.343-5.739 1.575s-5.788 2.693-7.163 3.246c-1.375.554-3.4 1.368-4.5 1.808-14.622 5.849-41.213 8.678-55.701 5.925-10.27-1.952-15.325-3.143-17.799-4.196-3.227-1.374-5.676-2.308-10-3.814-1.925-.671-5.481-2.101-7.902-3.178s-5.201-1.75-6.176-1.495c-1.207.316-1.603.021-1.24-.923.35-.912-.189-1.387-1.575-1.387-3.946 0-.902 3.322 3.869 4.222.812.153 2.086.845 2.831 1.537.745.693 1.768 1.004 2.274.691.505-.312.919-.146.919.37 0 1.1 21.938 8.576 22.759 7.755.306-.307 1.048-.152 1.649.343 3.921 3.233 51.075 3.42 53.592.212.275-.35 1.85-.793 3.5-.984s3.45-.628 4-.971c.55-.344 2.117-.778 3.481-.965 1.365-.187 2.765-.799 3.112-1.361s.918-.981 1.269-.934c2.526.338 3.665-.063 3.043-1.07-.421-.68-.277-.884.35-.496 1.407.869 4.388-.308 3.68-1.454-.304-.492.625-.895 2.065-.895 1.491 0 2.352-.431 2-1-.346-.559.427-1 1.752-1 1.304 0 3.243-.813 4.309-1.806s2.389-1.91 2.939-2.037 2.016-1.114 3.258-2.194 2.616-1.963 3.054-1.963c.964 0 8.188-6.515 8.188-7.385 0-1.37-2.665-.407-5.308 1.918m-152.189 26.463c-.339.547.647 1.551 2.191 2.229s3.035 1.545 3.315 1.924c.281.38 1.17.839 1.977 1.021.806.181 2.101.921 2.876 1.644.982.916 1.727.997 2.457.267 1.226-1.226 1.53-.959-4.819-4.246-2.75-1.423-5.625-2.36-6.389-2.082-.851.31-1.119.069-.691-.623.384-.622.473-1.13.198-1.13s-.777.448-1.115.996M330 731c0 .55.45 1 1 1 1.736 0 2.463.32 3.831 1.688 1.362 1.363 3.169.937 3.169-.747 0-.518-.873-.941-1.941-.941s-2.219-.45-2.559-1-1.266-1-2.059-1-1.441.45-1.441 1m8 3.893c0 1.124 2.601 2.173 3.402 1.371 1.204-1.203.547-2.264-1.402-2.264-1.1 0-2 .402-2 .893m448.192.182c.197.591.684 1.041 1.083 1s1.427-.075 2.284-.075 1.281-.45.941-1c-.834-1.35-4.761-1.282-4.308.075m-7.621 2.965c-2.16 1.078-4.523 1.96-5.25 1.96-.726 0-1.321.423-1.321.941 0 1.769 1.642 1.957 4.436.508 1.536-.797 3.416-1.449 4.178-1.449s1.386-.45 1.386-1 .337-.947.75-.882c1.833.29 3.25-.198 3.25-1.118 0-1.55-3.109-1.115-7.429 1.04m-10.855 4.577c-.339.339-4.352 2.367-8.916 4.506-4.565 2.139-8.176 4.369-8.025 4.957s-.23.757-.846.376c-.616-.38-2.089-.234-3.274.326-6.955 3.287-11.819 5.218-13.144 5.218-.831 0-1.511.423-1.511.941 0 1.769 1.642 1.957 4.436.508 1.536-.797 3.416-1.449 4.178-1.449s1.386-.477 1.386-1.059.414-.803.919-.491 1.519.002 2.25-.691c.732-.692 2.143-1.397 3.137-1.566.993-.168 5.234-2.081 9.426-4.25 4.191-2.168 8.216-3.943 8.944-3.943s1.324-.45 1.324-1 .337-.947.75-.882c1.833.29 3.25-.198 3.25-1.118 0-1.089-3.285-1.382-4.284-.383M721.5 763.772c-4.879 2.493-6.438 3.704-5.144 3.996 1.021.231 2.349-.073 2.95-.674.602-.602 1.904-1.094 2.894-1.094s1.8-.45 1.8-1 .9-1 2-1 2-.45 2-1 .337-.947.75-.882c1.833.29 3.25-.198 3.25-1.118 0-1.77-3.333-.89-10.5 2.772M316 771c-1.151.744-.744 1.008 1.75 1.135 5.349.272 5.728.336 6.278 1.064.29.385 2.09.887 4 1.116 1.909.23 4.147.681 4.972 1.004s2.85.824 4.5 1.114 4.913.926 7.25 1.413 4.257.608 4.265.27c.009-.339.346-.099.75.534.404.632 2.31 1.284 4.235 1.448s3.957.626 4.515 1.027c.558.402 2.808.875 5 1.052s4.26.698 4.596 1.156c.335.459 2.776.834 5.424.834 3.244 0 4.349.293 3.389.901-1.49.943 2.027 1.469 6.917 1.035 1.422-.126 2.086.206 1.691.845-.575.931 3.128 1.636 5.876 1.118.5-.095 1.175.258 1.5.784.326.525 2.392 1.095 4.592 1.266s4.275.703 4.611 1.181 2.701.87 5.257.87c2.562 0 4.393.411 4.08.916-.525.851 3.23 1.409 6.446.959.766-.108 1.688.282 2.049.866s2.434 1.181 4.607 1.327 4.175.556 4.45.913c.275.356 1.85.789 3.5.962s3.51.681 4.134 1.128c.624.448 2.874.872 5 .943s4.103.486 4.394.923c.29.437 2.09.982 4 1.211 1.909.23 4.147.698 4.972 1.041s3.075.74 5 .884c1.925.143 3.737.575 4.028.959.29.385 2.09.887 4 1.116 1.909.23 4.147.689 4.972 1.021s2.625.772 4 .98 3.175.641 4 .965c2.395.939 18.582 4.69 21.726 5.034 1.575.173 3.384.635 4.02 1.028s2.865.771 4.955.841 4.042.492 4.338.939 2.096.939 4 1.095c1.904.155 3.686.576 3.961.935s2.075.809 4 1 3.731.652 4.014 1.024c.283.373 2.533.823 5 1s4.773.719 5.125 1.202c.351.484 2.826.836 5.5.784 2.95-.058 4.335.23 3.523.734-.84.521.224.83 2.856.83 2.308 0 4.528.539 4.935 1.197.407.659 2.609 1.223 4.893 1.254 2.285.032 4.154.455 4.154.94s2.7.882 6 .882c3.556 0 6-.431 6-1.059 0-.582.37-.831.822-.551s2.078-.144 3.614-.941 3.416-1.449 4.178-1.449 1.386-.354 1.386-.787.913-.856 2.028-.94 4.57-1.53 7.677-3.213c3.108-1.683 6.245-3.06 6.973-3.06s1.322-.477 1.322-1.059.414-.803.919-.491 1.519.002 2.25-.691c.732-.692 2.231-1.407 3.331-1.587 1.1-.181 3.488-1.193 5.307-2.25s3.957-1.922 4.75-1.922 1.443-.477 1.443-1.059.414-.803.919-.491 1.711-.223 2.679-1.191c.968-.967 1.932-1.574 2.144-1.347.708.757 7.175-2.238 6.654-3.081-.283-.457.863-.831 2.545-.831s3.059-.477 3.059-1.059.414-.803.919-.491 1.529.002 2.274-.691c.745-.692 2.019-1.408 2.831-1.591.812-.182 4.169-1.645 7.461-3.25s6.554-2.918 7.25-2.918 1.265-.477 1.265-1.059.414-.803.919-.491 1.519-.03 2.25-.762c1.457-1.457 2.057-1.688 4.39-1.688.857 0 1.281-.45.941-1-.355-.574.556-1 2.141-1 1.977 0 2.453-.306 1.678-1.081s-2.302-.491-5.388 1c-2.369 1.145-4.7 2.081-5.182 2.081-.481 0-3.659 1.295-7.062 2.878-6.278 2.92-12.55 5.752-20.687 9.343-2.475 1.092-8.238 3.739-12.806 5.882-4.569 2.143-8.956 3.897-9.75 3.897s-1.444.45-1.444 1-.606 1-1.346 1-2.653.632-4.25 1.404-5.057 2.366-7.688 3.541-4.566 2.489-4.3 2.92c.267.431-.506.75-1.716.709s-2.103.442-1.984 1.073c.124.659-.572.942-1.633.664-1.017-.266-3.217.224-4.888 1.088-10.466 5.412-14.552 5.353-37.695-.545-8.812-2.245-11.222-2.811-16.5-3.871-3.025-.608-9.212-1.978-13.75-3.044a19048 19048 0 0 0-17-3.986c-11.8-2.762-21.542-5.193-27.75-6.926-1.65-.461-6.15-1.367-10-2.015-6.957-1.17-10.342-1.9-18-3.882-4.955-1.282-19.955-4.789-24-5.61-1.65-.335-4.575-.995-6.5-1.466-4.631-1.134-10.759-2.463-20.5-4.446-4.4-.895-9.8-2.11-12-2.7-7.866-2.11-25.818-6.373-30.5-7.244-1.375-.255-4.975-1.117-8-1.915s-8.2-1.995-11.5-2.66-7.382-1.632-9.071-2.149c-3.915-1.198-7.517-1.175-9.429.06m390.491.015c-.335.542-1.286.985-2.113.985s-4.288 1.302-7.691 2.894a571 571 0 0 1-11.437 5.178c-5.431 2.363-6.725 3.928-3.25 3.928 1.1 0 2-.477 2-1.059s.414-.803.919-.491 1.529.002 2.274-.691c.745-.692 2.015-1.408 2.821-1.589.807-.182 1.696-.632 1.977-1 .28-.369 1.409-.82 2.509-1.004 1.1-.183 2.428-.746 2.95-1.25s1.76-.916 2.75-.916 1.8-.477 1.8-1.059.414-.803.919-.491 1.519.002 2.25-.691c.732-.692 2.231-1.409 3.331-1.593 3.102-.517 3.739-1.71 1.033-1.934-1.339-.111-2.708.242-3.042.783"/></svg>