<svg xmlns="http://www.w3.org/2000/svg" viewBox="0 0 1024 1024"><path fill="#00e5cc" d="M337.25 225.781c-7.048.161-12.25.692-12.25 1.25 0 .533-.9.969-2 .969s-2 .45-2 1-.465 1-1.033 1c-1.642 0-7.967 6.769-7.967 8.526 0 .875-.45 1.314-1 .974-.564-.348-1 .462-1 1.858 0 1.361-.451 2.626-1.003 2.81-.667.222-1.015 80.929-1.038 240.833-.045 314.5-.113 294.212.989 293.531.521-.322.773.321.559 1.43s.239 2.641 1.005 3.407 1.207 1.579.98 1.806c-.638.638 6.997 8.675 8.568 9.02.766.168 2.002.872 2.747 1.564s1.73 1.027 2.188.744c.459-.284 1.018.036 1.243.711.599 1.796 370.921 1.81 371.52.013.225-.675 1.271-1.227 2.325-1.227s1.917-.477 1.917-1.059.426-.796.947-.474c1.237.765 10.285-8.283 9.52-9.52-.322-.521-.108-.947.474-.947s1.059-.862 1.059-1.917c0-1.054.488-2.079 1.085-2.278 1.449-.483 1.348-535.147-.101-535.638-.541-.184-.984-1.448-.984-2.809 0-1.396-.436-2.206-1-1.858-.55.34-1-.209-1-1.22s-.876-2.47-1.946-3.241c-1.071-.772-1.719-1.771-1.441-2.221s.008-.818-.599-.818c-.608 0-2.239-1.134-3.624-2.519s-2.902-2.283-3.369-1.994-1.016.029-1.218-.577c-.333-1.001-324.133-2.01-362.553-1.129m-9.25 9.224c0 .547-.695.995-1.545.995-1.773 0-6.455 4.362-6.455 6.014 0 .607-.45.826-1 .486-.594-.367-1 .803-1 2.882 0 1.925-.45 3.778-1 4.118-.663.409-1 89.344-1 263.559 0 174.627.336 262.941 1 262.941.55 0 1 .695 1 1.544s1.101 2.731 2.446 4.182 2.177 3.076 1.846 3.611c-.331.534-.113.67.484.301s1.351-.242 1.675.282c2.61 4.223-3.462 4.092 187.639 4.075l180.761-.016 4.325-2.24c4.274-2.213 7.618-4.739 6.273-4.739-.382 0-.09-.727.647-1.616 3.929-4.734 3.85.793 3.888-270.769.023-157.101-.329-262.33-.878-263-.504-.613-1.071-2.009-1.261-3.102-.372-2.144-5.126-7.24-8.636-9.258-2.784-1.601-369.209-1.849-369.209-.25m145.001 50.749c-127.843.274-121.873.018-126.516 5.431-1.092 1.273-2.542 3.312-3.222 4.531-1.324 2.37-1.302-2.514-1.276 288.413l.013 144.63 4.035 4.158c2.219 2.287 4.469 3.889 5 3.561s.965-.119.965.463c0 1.582 318.337 1.481 321.316-.102 1.201-.638 3.646-2.751 5.434-4.695l3.25-3.535.01-31.554c.089-269.622-.162-400.548-.768-401.001-.408-.305-.88-1.192-1.048-1.971-.4-1.855-6.397-7.076-7.41-6.45-.431.267-.784.019-.784-.552 0-1.342-46.736-1.653-198.999-1.327m-117.885 15.607c-1.192 1.436-1.67 418.032-.484 421.124.811 2.112 313.84 2.333 314.65.221 1.133-2.952.741-419.974-.396-421.344-1.688-2.034-312.083-2.035-313.77-.001"/></svg>