<svg xmlns="http://www.w3.org/2000/svg" viewBox="0 0 1024 1024"><path fill="#00e5cc" d="M184.25 243.706c-1.238.238-2.25.852-2.25 1.364 0 .511-.642.93-1.427.93-4.726 0-4.573-6.2-4.573 185.154V610h672V430c0-99-.343-180-.763-180-.419 0-1.207-1.012-1.75-2.25s-2.562-2.787-4.487-3.444c-3.382-1.153-650.806-1.745-656.75-.6m5.405 13.123c-2.789 3.082-2.52 342.306.274 345.1 1.897 1.897 7.224 1.93 322.458 1.98l320.528.05 1.543-2.202c2.601-3.715 2.32-342.743-.287-345.102-2.992-2.708-642.064-2.536-644.516.174M196 404c0 94 .338 142 1 142 .55 0 1-.45 1-1s.563-1.002 1.25-1.005 6.132-4.727 12.098-10.5S222.504 523 222.881 523s5.518-4.713 11.427-10.474c5.909-5.76 10.935-10.373 11.169-10.25s5.735-4.923 12.224-11.214c6.49-6.291 11.952-11.312 12.139-11.157s5.482-4.703 11.767-10.795 11.757-11.195 12.16-11.342.609-.639.458-1.092.11-.587.58-.297c.47.291 5.63-4.127 11.466-9.817 5.837-5.69 10.784-10.174 10.993-9.965.21.21 4.286-3.42 9.058-8.065 4.773-4.646 8.678-8.254 8.678-8.019s1.603-.661 3.563-1.991c4.245-2.881 10.674-4.014 17.578-3.098 5.885.781 7.851 1.778 13.318 6.754 2.223 2.023 4.472 3.823 5 4s5.702 4.933 11.5 10.568c5.797 5.636 10.834 10.248 11.191 10.25s5.308 4.539 11 10.081c5.693 5.543 11.925 11.279 13.85 12.747s4.693 3.909 6.151 5.423S431.323 478 431.96 478s.904.41.594.912.121.812.957.689c.836-.122 8.277-6.819 16.534-14.882s15.338-14.785 15.735-14.939c.396-.154.596-.651.445-1.104s.093-.598.541-.32 6.095-4.63 12.546-10.904c6.452-6.275 12.058-11.531 12.459-11.68a.82.82 0 0 0 .479-1.022c-.138-.413.151-.638.64-.5.49.137 5.672-4.363 11.516-10s10.957-10.257 11.36-10.266c.404-.008 5.809-4.958 12.011-11s11.602-10.989 12-10.995 5.448-4.6 11.223-10.208 10.655-10.058 10.845-9.889c.19.168 4.146-3.338 8.792-7.793 4.646-4.454 8.793-8.099 9.216-8.099s1.66-.788 2.747-1.75c2.084-1.844 2.529-2.001 8.9-3.149 4.641-.836 12.383.872 16.203 3.575a233 233 0 0 0 4.077 2.824c.825.55 6.949 6.282 13.61 12.737 6.66 6.456 12.424 11.743 12.807 11.75s6.233 5.412 13 12.01 12.616 11.998 12.999 12c.382.002 5.988 5.16 12.457 11.463 6.468 6.303 11.92 11.301 12.114 11.106.194-.194 6.289 5.445 13.543 12.531 7.255 7.086 13.506 12.888 13.892 12.894.386.005 6.306 5.453 13.155 12.107s12.608 11.967 12.798 11.807c.19-.159 5.295 4.563 11.345 10.494s12.55 11.98 14.445 13.442c1.895 1.463 8.105 7.154 13.8 12.647s11.003 10.351 11.797 10.795c.794.445 6.502 5.737 12.685 11.762S817.848 538 818.313 538s2.627 1.856 4.807 4.125 4.139 3.95 4.353 3.736c.571-.571.684-31.726.601-164.611L828 262H196zm524.5-105.602c-4.419 2.287-11.796 9.119-12.796 11.852-.561 1.531-6.927 2.389-12.342 1.665-.351-.047-.918.367-1.26.919-.341.553-1.265 1.154-2.052 1.336-1.954.45-7.869 6.149-7.35 7.08.327.587-8.19 1.086-11.338.665-.351-.047-.918.367-1.26.919-.341.553-1.281 1.154-2.088 1.336-1.942.437-4.014 2.408-4.014 3.818 0 .621-.52.809-1.155.417-.663-.411-.884-.278-.52.311 1.3 2.105-2.907 5.284-6.993 5.284-7.61 0-11.332 3.613-11.332 11 0 4.754 1.792 8.354 4.885 9.814 1.864.879 20.589 1.186 72.446 1.186h69.932l4.193-4.25c8.259-8.372 5.338-20.843-5.568-23.78-4.497-1.211-6.234-2.783-8.585-7.767-3.627-7.689-8.795-10.703-18.352-10.703-3.714 0-6.546-.337-6.293-.75s-.052-.75-.677-.75c-.626 0-2.79-1.69-4.809-3.755-8.238-8.424-22.693-11.011-32.672-5.847m9.289 4.146c-.299.299-1.836.776-3.416 1.059s-3.023.938-3.206 1.456c-.184.517-.971.941-1.75.941s-1.417.45-1.417 1-.689 1-1.531 1c-.843 0-1.83.788-2.194 1.75-.365.962-1.255 2.349-1.978 3.081s-1.06 1.744-.747 2.25c.312.505.121.919-.425.919-.545 0-1.135 1.238-1.309 2.75-.343 2.981-4.067 4.399-6.131 2.335-2.416-2.416-10.333-1.279-13.35 1.918-1.559 1.652-2.803 3.34-2.764 3.75.213 2.222-2.877 3.222-9.351 3.027-6.967-.21-9.84.995-10.709 4.49-1.408 5.666-1.493 5.73-7.628 5.73-3.816 0-5.883.41-5.883 1.167 0 .641-.296.87-.658.508-1.014-1.013-3.342 1.349-3.342 3.391 0 4.959-.355 4.934 70.236 4.934 75.499 0 71.716.469 71.749-8.89.019-5.538-1.805-7.036-8.618-7.078-5.542-.035-6.302-.846-6.928-7.399-.287-2.999-6.127-9.944-7.597-9.035-.463.286-.842.043-.842-.539 0-1.357-10.664-1.412-11.5-.059-1.339 2.166-6.5-.064-6.5-2.808 0-1.615-8.012-9.303-9.035-8.67-.531.328-.965.229-.965-.22 0-1.687-10.834-4.135-12.211-2.758M436 311.018c0 .54-1.323.982-2.941.982s-3.219.45-3.559 1-1.488 1-2.551 1-2.95.883-4.191 1.963c-1.242 1.08-2.498 1.867-2.791 1.75-.842-.336-7.967 7.098-7.967 8.313 0 .6-.52.771-1.155.379-.684-.423-.884-.277-.49.36.365.591.097 1.69-.596 2.443-1.962 2.134-3.759 5.613-3.759 7.278 0 .833-.358 1.514-.796 1.514-1.472 0-2.267 17.621-1.061 23.539 1.504 7.38 13.163 23.191 17.913 24.291.784.182 1.654.632 1.935 1 1.016 1.337 5.028 3.17 6.936 3.17 1.075 0 2.22.429 2.544.953 1.179 1.907 24.125.107 25.529-2.002.275-.413 1.4-.909 2.5-1.101 1.1-.193 3.35-1.585 5-3.095s3.358-2.748 3.795-2.75c.438-.003 1.921-1.13 3.296-2.505s2.185-2.5 1.799-2.5c-.385 0-.044-.788.757-1.75 1.392-1.672 4.314-7.557 6.727-13.547.619-1.538 1.126-6.355 1.126-10.703 0-7.874-.379-9.448-4.334-18-3.245-7.018-15.954-19-20.152-19-.833 0-1.514-.352-1.514-.782s-1.149-.877-2.553-.993-3.317-.595-4.25-1.065c-2.414-1.213-15.197-1.333-15.197-.142m2.5 6.76c-1.1.186-2.675.611-3.5.944s-1.725.649-2 .703c-2.344.459-7 3.029-7 3.863 0 .575-.31.735-.689.356-.851-.851-9.311 7.31-9.311 8.981 0 .665-.416 1.358-.925 1.542s-1.071 1.008-1.25 1.833-.618 1.725-.976 2c-1.604 1.231-3.428 16.166-2.293 18.773.413.95.937 2.844 1.163 4.208s.72 2.715 1.096 3 .831 1.194 1.01 2.019.741 1.65 1.25 1.833.925.883.925 1.555c0 3.185 10.741 11.959 15.669 12.8 1.007.171 2.126.72 2.486 1.218.853 1.178 17.027 1.22 18.905.049.792-.494 2.107-.999 2.922-1.122s1.641-.701 1.835-1.285c.195-.583.736-.824 1.204-.535s1.893-.518 3.167-1.792c1.275-1.274 3.104-2.619 4.065-2.988s1.747-1.138 1.747-1.711c0-.572 1.35-2.453 3-4.179 2.648-2.772 3.236-4.079 2.915-6.481-.047-.351.447-.967 1.097-1.37 1.33-.822 1.593-19.213.305-21.275-.419-.669-.861-1.884-.984-2.699s-.701-1.641-1.285-1.835c-.583-.195-.824-.736-.535-1.204s-.496-1.918-1.744-3.223c-1.248-1.306-2.79-3.247-3.426-4.315-.636-1.067-1.649-1.829-2.25-1.691s-1.093-.133-1.093-.6c0-3.321-18.264-8.601-25.5-7.372m-161.102 15.224c-.605.605-2.067 1.173-3.249 1.262s-2.149.486-2.149.881c0 .396-.877.999-1.949 1.339-2.579.818-7.199 5.334-8.97 8.766-1.337 2.59-4.855 3.404-11.639 2.691-.953-.1-9.279 8.513-8.87 9.175.817 1.322-3.426 4.884-5.817 4.884-1.38 0-3.079.686-3.775 1.524s-1.489 1.3-1.763 1.027c-.88-.881-4.542 6.848-4.71 9.943-.187 3.447 1.336 5.316 5.241 6.429 4.379 1.249 128.623 1.083 132.73-.178 4.58-1.405 6.832-8.333 3.763-11.576-.693-.731-1.09-1.631-.882-2 .208-.368-.688-1.697-1.991-2.954-1.302-1.257-2.368-2.033-2.368-1.725 0 .309-1.328-.125-2.95-.964S353.683 360 351.951 360c-2.233 0-3.992-.903-6.05-3.106-1.595-1.708-2.901-2.817-2.901-2.465s-1.012.099-2.25-.565-4.677-1.329-7.644-1.478c-4.384-.222-5.976-.823-8.5-3.21-4.038-3.819-12.013-5.677-16.366-3.814-2.496 1.069-7.776-2.686-6.555-4.662.343-.555.165-.725-.397-.378-.561.347-1.845-.28-2.852-1.392-3.995-4.415-18.472-8.494-21.038-5.928M276 341.059c0 .582-.411.805-.913.495-1.034-.639-9.087 6.735-9.087 8.321 0 5.073-3.839 7.058-9.134 4.721-2.016-.889-9.465 2.556-9.116 4.215.137.654-.2 1.189-.75 1.189s-1 1.26-1 2.8c0 3.792-1.679 5.2-6.2 5.2-2.09 0-3.8.45-3.8 1s-.562.888-1.25.75c-.687-.137-1.137.313-1 1 .138.688-.227 1.25-.809 1.25s-.781.45-.441 1c1.166 1.887 127.5 1.321 127.5-.571 0-3.021-2.694-4.429-8.474-4.429-5.776 0-8.504-1.564-11.231-6.438-1.19-2.125-6.999-2.505-11.426-.747-2.751 1.093-5.535-.896-7.151-5.108-.361-.939-1.344-1.707-2.187-1.707s-1.531-.45-1.531-1-2.25-1-5-1-5 .401-5 .892c0 1.135-4.413 2.271-6.184 1.591-.738-.283-1.963-1.97-2.721-3.749-1.777-4.166-4.735-7.408-8.447-9.26-3.413-1.702-14.648-2.021-14.648-.415m311.5 8.428c-1.65.728-7.857 6.091-13.794 11.918s-11.112 10.597-11.5 10.599-4.981 4.143-10.206 9.201-9.58 8.994-9.678 8.746-5.401 4.612-11.785 10.799c-6.384 6.188-12.068 11.25-12.631 11.25s-.778.399-.476.886c.301.488-.347 1.121-1.441 1.407q-1.988.521-1.989 3.052c0 2.537 5.603 13.862 7.168 14.488.457.184.832.945.832 1.691s.52 1.679 1.155 2.071q1.152.712.335-.61c-.591-.957-.364-1.151.817-.697.899.345 2.211.081 2.914-.586.703-.668 3.417-2.294 6.029-3.615s4.75-2.807 4.75-3.303.414-.646.919-.334c.506.313 1.519.002 2.25-.691.732-.692 3.356-2.35 5.831-3.684s4.725-2.684 5-3c1.182-1.359 9.359-5.075 11.166-5.075 2.657 0 3.767 1.325 7.745 9.25 1.863 3.712 3.797 6.75 4.298 6.75s.653.414.341.919c-.313.506.001 1.519.697 2.25.695.732 2.345 3.468 3.666 6.081 2.746 5.431 5.064 6.078 7.168 2 .78-1.512 2.654-4.1 4.164-5.75s2.748-3.562 2.75-4.25c.003-.687.379-1.25.836-1.25s1.47-1.238 2.25-2.75c1.598-3.096 6.78-8.397 7.771-7.949 4.229 1.913 6.981 3.5 8.587 4.949 1.066.962 2.322 1.75 2.792 1.75s1.397.466 2.061 1.035c5.2 4.455 13.243 8.573 14.428 7.388.704-.704 1.28-1.676 1.28-2.159 0-1.206 6.404-13.841 7.974-15.733 2.056-2.476 8.042-1.348 18.765 3.538 2.332 1.062 4.643 1.931 5.136 1.931s2.153.652 3.689 1.449 3.162 1.22 3.614.941c.452-.28.822-.031.822.551s.873 1.059 1.941 1.059 2.219.45 2.559 1 1.498 1 2.573 1 2.828.545 3.895 1.212 2.245.908 2.617.537c.664-.665-22.425-23.713-23.778-23.737-.382-.007-6.89-6.066-14.463-13.466s-13.927-13.296-14.121-13.102-5.836-4.996-12.538-11.533-12.567-11.891-13.034-11.898-2.042-1.252-3.5-2.766c-4.7-4.882-12.531-6.461-18.651-3.76m-241.01 73.529c-.346.559-1.018.776-1.495.481-.476-.294-1.999.598-3.385 1.984-1.385 1.385-2.877 2.521-3.315 2.523-.437.002-5.07 4.143-10.295 9.201s-9.651 9.066-9.836 8.907c-.184-.159-5.029 4.251-10.766 9.799C301.661 461.46 296.595 466 296.139 466c-1.505 0-4.139 3.621-4.139 5.688 0 3.551 6.141 14.312 8.167 14.312 1.008 0 1.833-.477 1.833-1.059s.414-.803.919-.491 1.599-.111 2.429-.941 2.179-1.509 2.997-1.509 1.638-.342 1.822-.759c.595-1.356 17.268-9.258 19.516-9.249 1.2.004 2.434.796 2.741 1.758s3.037 4.348 6.067 7.524c3.03 3.175 5.523 6.1 5.541 6.5.055 1.283 4.832 6.226 6.017 6.226.63 0 5.039-4.051 9.798-9.002 9.201-9.572 10.756-10.289 16.203-7.472 1.622.839 2.95 1.257 2.95.928s.711.114 1.581.984c.869.869 1.994 1.325 2.5 1.012.505-.312.919-.091.919.491s.9 1.059 2 1.059 2 .45 2 1 .81 1 1.8 1 2.337.537 2.993 1.193c1.198 1.198 7.207-3.333 7.207-5.434 0-.477 1.348-2.306 2.995-4.063 1.648-1.758 2.998-3.758 3-4.446.003-.687.455-1.25 1.005-1.25 2.215 0 .749-2.823-3.784-7.288-2.632-2.591-5.358-4.712-6.059-4.712s-.997-.45-.657-1 .158-1-.405-1-5.652-4.495-11.309-9.989-10.633-9.994-11.058-10c-.424-.006-3.243-2.483-6.264-5.504s-7.116-6.17-9.1-7c-4.118-1.72-10.94-2.002-11.874-.491m213.494-.266c-.009.413-3.159 2.315-7 4.227s-6.984 3.825-6.984 4.25-.59.773-1.311.773c-.722 0-2.202.788-3.289 1.75s-2.631 1.899-3.43 2.08c-.798.182-1.786.857-2.195 1.5-.41.644-.751.763-.76.265-.008-.498-.803-.245-1.765.561-3.412 2.859-10.957 6.171-12.61 5.536-.919-.352-2.076-1.707-2.571-3.011s-1.519-3.003-2.273-3.776-2.117-2.994-3.027-4.937c-1.954-4.167-5.077-7.968-6.549-7.968-.575 0-3.785 2.697-7.133 5.993s-6.087 5.736-6.087 5.42c0-.651-7.838 6.638-18.645 17.337-4.028 3.988-7.667 7.258-8.089 7.267-1.101.025-26.266 24.647-26.266 25.699 0 1.006 7.244 8.284 8.246 8.284.363 0 5.745 4.947 11.958 10.993s11.623 10.996 12.023 11 5.267 4.395 10.815 9.757 10.549 9.914 11.114 10.114c2.669.945 15.844 15.079 15.844 16.997 0 4.634-4.491 3.783-10.59-2.008-3.1-2.944-6.036-5.241-6.523-5.103s-.774-.088-.637-.5a.823.823 0 0 0-.476-1.024c-.4-.151-5.558-4.968-11.464-10.704-5.905-5.736-10.892-10.273-11.083-10.082s-4.675-3.857-9.966-8.995-10-9.107-10.465-8.819-.722.152-.571-.302-.055-.945-.458-1.092-5.353-4.755-11-10.239-10.856-9.976-11.576-9.982-1.031-.461-.691-1.011.106-1-.519-1c-.626 0-2.946-1.882-5.157-4.183-4.231-4.404-5.876-4.469-8.257-.328-.587 1.021-2.305 3.195-3.817 4.832s-2.75 3.374-2.75 3.861c0 .486-1.586 2.471-3.525 4.41-3.635 3.635-6.644 4.168-9.306 1.649-.731-.693-1.744-1.004-2.25-.691-.505.312-.919.091-.919-.491s-.629-1.059-1.398-1.059c-.77 0-3.965-1.35-7.102-3s-6.348-3-7.136-3-5.806 4.387-11.149 9.75-10.39 9.75-11.215 9.75c-1.566 0-9.926-7.59-9.419-8.551.16-.303-1.707-2.665-4.149-5.25-2.441-2.584-4.134-4.699-3.761-4.699s-.379-1.125-1.671-2.5c-2.415-2.571-5-3.316-5-1.441 0 .582-.414.803-.919.491s-1.529-.002-2.274.691c-.745.692-2.015 1.408-2.821 1.589-.807.182-1.696.632-1.977 1-.28.369-1.184.816-2.009.995s-1.65.741-1.833 1.25-1.196.925-2.25.925-1.917.45-1.917 1-.9 1-2 1-2 .45-2 1-.9 1-2 1-2 .45-2 1c0 1.455-6.933 1.227-8.321-.274-.649-.7-1.328-1.934-1.509-2.74-.182-.807-.783-1.747-1.336-2.088-.552-.342-.873-.796-.711-1.01.624-.823-3.163-8.888-4.174-8.888-.587 0-.748-.562-.358-1.25.823-1.45-4.856 3.643-11.743 10.532-2.63 2.631-5.134 4.792-5.565 4.803s-6.201 5.285-12.824 11.718c-6.622 6.433-12.402 11.765-12.845 11.849-.442.083-5.398 4.583-11.014 10s-11.76 11.029-13.655 12.472-6.494 5.605-10.22 9.25S200.581 554 200.13 554c-3.492 0-4.13 3.524-4.13 22.829V596h632l.101-15.75c.15-23.243.327-22.151-4.366-26.979-2.261-2.326-4.278-4.062-4.483-3.857-.204.205-4.7-3.831-9.991-8.969s-9.988-9.113-10.44-8.834-.821-.27-.821-1.219-.25-1.475-.556-1.17c-.305.306-6.92-5.694-14.699-13.333S768.263 502 767.85 502s-6.736-5.846-14.051-12.991c-7.314-7.144-13.619-12.994-14.009-13-.391-.005-5.096-4.254-10.455-9.442s-10.113-9.204-10.564-8.925-.697.136-.546-.318c.151-.453-.061-.938-.472-1.077-.41-.14-3.487-2.952-6.837-6.25-5.396-5.313-7.444-6.545-10.166-6.115-.413.065-.75-.332-.75-.882s-.873-1-1.941-1-2.219-.45-2.559-1-1.716-1-3.059-1-2.441-.352-2.441-.782-2.138-1.395-4.75-2.145-5.235-1.739-5.828-2.198c-.594-.46-1.944-.99-3-1.179s-3.722-1.139-5.922-2.112c-2.2-.972-4.45-1.882-5-2.022s-2.35-.81-4-1.489c-9.444-3.886-17.453-5.424-16-3.073.34.55.141 1-.441 1s-1.059.9-1.059 2-.45 2-1 2-1 .863-1 1.917-.416 2.066-.925 2.25c-.509.183-1.071 1.008-1.25 1.833s-.626 1.729-.995 2.009c-.368.281-.818 1.17-1 1.977-.885 3.932-6.372 5.476-8.85 2.49-.696-.838-1.474-1.316-1.729-1.06-.255.255-1.401-.409-2.546-1.476s-2.672-1.94-3.394-1.94c-.721 0-1.311-.374-1.311-.831s-1.237-1.47-2.75-2.25-3.622-2.207-4.689-3.169c-1.066-.962-2.528-1.75-3.25-1.75-.721 0-1.311-.45-1.311-1 0-1.681-3.02-1.111-3.716.702-.359.937-1.92 3.028-3.469 4.649s-2.815 3.325-2.815 3.79-.946 1.932-2.103 3.262c-1.156 1.33-2.16 2.796-2.23 3.258-.07.461-1.374 2.143-2.897 3.737-1.524 1.594-2.77 3.345-2.77 3.89 0 1.295-3.115 3.64-4.89 3.68-1.757.04-3.409-2.103-6.718-8.718-1.445-2.887-3.05-5.25-3.568-5.25s-.686-.414-.374-.919.002-1.529-.691-2.274c-.692-.745-1.408-2.015-1.589-2.821-.182-.807-.643-1.696-1.025-1.977-.382-.28-1.807-2.646-3.168-5.259-1.36-2.613-2.838-4.75-3.284-4.75s-.533-.45-.193-1-.084-1-.941-1-1.566.337-1.575.75M176 629.566c0 8.345.445 14.406 1.157 15.75 1.544 2.914 4.889 5.774 5.972 5.104.479-.296.871-.061.871.521 0 1.666 653.282 1.475 656.264-.191 3.647-2.039 6.713-4.979 6.146-5.895-.29-.47-.051-.855.531-.855.695 0 1.059-4.813 1.059-14v-14H176zm37.5-7.675c-7.683 3.378-10.151 14.381-4.566 20.357 3.004 3.214 10.266 6.126 11.743 4.709.453-.435 1.722-.94 2.821-1.123 7.978-1.332 10.17-14.167 3.693-21.619-2.2-2.53-10.151-3.88-13.691-2.324m292.263 1.674c-7.794 4.229-7.327 17.462.737 20.899 11.378 4.851 21.578-5.677 15.983-16.497-2.828-5.469-10.858-7.583-16.72-4.402M795 625.807c-7.722.527-10.748 6.19-7.024 13.149C789.613 642.014 793.031 643 802 643c12.066 0 15.907-2.183 15.968-9.076.062-6.959-6.41-9.247-22.968-8.117m-90.291 2.456c-3.846 4.801-2.376 11.772 2.904 13.78 3.361 1.278 17.56 1.222 20.99-.082 5.746-2.185 7.427-9.705 3.083-13.787-3.561-3.344-24.282-3.276-26.977.089m41.963 0c-2.277 2.787-1.785 9.767.876 12.429 3.099 3.1 22.4 2.64 25.869-.616 3.43-3.22 3.556-8.813.269-11.902-3.56-3.343-24.264-3.275-27.014.089m-532.467.56c-2.557 2.217-2.983 7.542-.78 9.745 2.029 2.029 6.575 3.653 6.575 2.348 0-.569.423-.772.94-.453 1.514.936 5.06-3.603 5.06-6.477 0-5.443-7.625-8.78-11.795-5.163m293.045.673c-3.406 3.869-.153 10.504 5.15 10.504 3.612 0 5.6-2.13 5.6-6 0-1.729-.643-3.786-1.429-4.571-1.826-1.827-7.691-1.785-9.321.067M247.009 631c-6.314.421-7.546.795-7.848 2.38-.197 1.034.249 2.265.991 2.735 1.537.974 17.868 1.198 20.266.278 2.668-1.024 1.899-4.285-1.168-4.957-4.38-.96-4.385-.96-12.241-.436m461.491 2c-1.396 2.259 1.088 3 10.059 3 8.774 0 9.441-.141 9.441-2s-.667-2-9.441-2c-5.215 0-9.718.448-10.059 1m41.5 1c0 1.867.667 2 10 2s10-.133 10-2-.667-2-10-2-10 .133-10 2m42.5-1c-1.396 2.259 1.088 3 10.059 3 8.774 0 9.441-.141 9.441-2s-.667-2-9.441-2c-5.215 0-9.718.448-10.059 1m-473.75 26.708c-2.685.415-2.75.583-2.75 7.147 0 4.748.587 7.874 2 10.645 1.1 2.158 2 4.45 2 5.095s.9 1.407 2 1.695c1.1.287 2 .088 2-.443s.45-.687 1-.347c.593.367 1-.795 1-2.858 0-1.911.538-3.655 1.196-3.874 1.317-.439 2.166-13.585.996-15.428-.858-1.349-5.773-2.199-9.442-1.632m160.5.105-3.25.314-.125 12.936c-.069 7.116-.215 13.274-.325 13.687-.303 1.138-1.428 9.188-1.991 14.25-.275 2.475-.743 5.4-1.039 6.5s-.695 3.8-.887 6-.608 4.675-.925 5.5c-.316.825-.796 3.525-1.067 6s-.729 5.175-1.019 6-.765 2.85-1.055 4.5c-.91 5.169-2.287 10.93-3.049 12.75-.691 1.653 1.947 1.75 47.375 1.75 41.219 0 48.107-.206 48.107-1.441 0-.793-.352-1.658-.781-1.924s-.894-1.95-1.03-3.743c-.137-1.792-.596-3.739-1.021-4.326s-.906-2.641-1.07-4.566-.703-4.258-1.198-5.184-.9-3.488-.9-5.691c0-2.204-.391-4.249-.869-4.544s-.92-2.828-.983-5.628-.39-5.536-.726-6.08c-.336-.543-.819-4-1.073-7.681s-.833-8.872-1.286-11.536c-.453-2.665-.904-9.853-1.001-15.975-.098-6.121-.415-11.366-.705-11.655-.556-.556-62.547-.749-68.107-.213m123-.107c-1.971.379-2.25 1.046-2.25 5.364 0 6.629 2.59 9.417 7.836 8.433 4.975-.933 4.806-.689 5.046-7.331.256-7.078-1.599-8.206-10.632-6.466M288 667c0 3.85.337 7.004.75 7.008 1.118.011 3.25 5.057 3.25 7.691 0 1.466.595 2.301 1.64 2.301 2.118 0 4.288-2.882 4.328-5.75.018-1.237.482-2.25 1.032-2.25.583 0 1-3.333 1-8v-8h-12zm196.112 1.365c-1.789 2.156-2.171 10.913-.54 12.405 2.342 2.145 5.428-1.875 5.428-7.07 0-5.69-2.41-8.32-4.888-5.335M604 690.634c0 9.93.42 12.849 3.261 22.683 1.879 6.501 9.373 12.904 17.739 15.157 1.375.371 28.825.886 61 1.146 61.097.493 61.183.499 65.5 4.935 3.223 3.313 4.272 5.773 5.023 11.784.637 5.101.943 5.661 3.092 5.661 2.155 0 2.385-.428 2.385-4.441 0-2.443-.45-4.719-1-5.059s-1-1.941-1-3.559-.45-2.941-1-2.941-1-.597-1-1.326-1.125-2.382-2.5-3.674-2.5-2.028-2.5-1.635c0 .392-.938-.161-2.084-1.229-3.382-3.151-7.695-3.39-67.916-3.765-60.63-.378-59.655-.302-64.932-5.067-1.338-1.209-2.87-1.927-3.405-1.596s-.67.113-.301-.484.242-1.351-.282-1.675c-3.091-1.91-4.08-7.093-4.095-21.453-.011-9.793-.335-14.102-.985-13.096q-.969 1.5-.985.25c-.008-.687-.915-1.25-2.015-1.25-1.875 0-2 .667-2 10.634m-120.597-.869c-.996.667-1.658 4.126-3.012 15.735-.257 2.2-.705 4.9-.997 6s-.752 3.8-1.022 6-.632 4.45-.804 5-.452 1.45-.621 2c-.708 2.305-2.075 9.296-2.591 13.25-.484 3.703-.31 4.25 1.345 4.25 2.495 0 4.299-1.888 4.299-4.5 0-1.155.404-2.528.898-3.05.493-.522 1.139-2.75 1.435-4.95s1.004-6.25 1.574-9 1.296-6.8 1.613-9 1.005-6.16 1.528-8.799c1.457-7.346 1.214-12.386-.63-13.094-1.901-.73-1.671-.742-3.015.158m-189.791 2.053c-.796 1.289.57 12.182 1.528 12.182.473 0 .86 1.152.86 2.559 0 1.451.433 2.292 1 1.941.55-.34 1 .309 1 1.441s.343 2.059.763 2.059c.419 0 1.207 1.005 1.75 2.232s1.997 2.731 3.231 3.34c1.234.608 1.947 1.404 1.583 1.767-.363.364.09.661 1.006.661.917 0 1.667.367 1.667.814 0 1.166 7.826 5.186 10.095 5.186 1.048 0 1.905.41 1.905.911s2.813 1.196 6.25 1.543c7.236.731 93.028 1.311 118.5.8l17.25-.345V724h-55.386c-46.41 0-55.838-.235-58.178-1.449-1.536-.797-3.162-1.22-3.614-.941-.452.28-.822.108-.822-.382s-1.238-1.529-2.75-2.309c-5.432-2.803-13.25-11.892-13.25-15.405 0-.833-.45-1.514-1-1.514s-1-1.97-1-4.378c0-4.7-1.707-7.055-4.373-6.032-1.624.623-2.338 4.41-.831 4.41.437 0 .904 1.616 1.037 3.591.266 3.945 3.865 12.409 5.277 12.409.49 0 .89.702.89 1.559s.45 1.281 1 .941 1-.165 1 .389c0 .555 1.125 2.222 2.5 3.706s2.507 2.294 2.515 1.801c.018-1.05 1.947 1.745 1.97 2.854.023 1.122-11.827.905-13.998-.257-1.034-.554-3.03-1.102-4.434-1.218s-2.553-.487-2.553-.824-1.238-1.247-2.75-2.022c-3.316-1.699-10.621-8.937-11.075-10.971-.179-.802-.741-1.608-1.25-1.791-.509-.184-.925-1.196-.925-2.25s-.45-1.917-1-1.917-1-2.202-1-4.893c0-3.539-.438-5.061-1.582-5.5-2.034-.781-2.2-.768-2.806.211m74.971 50.932c-.739.74-1.231.879-3.977 1.125-.767.069-5.041 3.651-9.498 7.961-4.457 4.309-8.248 7.691-8.424 7.515s-1.835 1.241-3.685 3.15l-3.365 3.472 140.839.02c102.132.015 141.208.327 142.183 1.136 2.201 1.827 1.578 4.831-1.221 5.896-1.623.617-54.874.975-145 .975H334v2.893c0 1.716.644 3.14 1.582 3.5 2.068.794 350.768.794 352.836 0 .938-.36 1.582-1.784 1.582-3.5V774h-13.566c-14.126 0-17.434-.759-17.434-4 0-3.056 3.171-4 13.434-4 9.854 0 11.752-.941 8.066-4-.825-.685-1.5-.981-1.5-.658s-3.712-3.041-8.25-7.475c-7.572-7.4-13.75-11.979-13.75-10.193 0 .399-.54.186-1.2-.474-.897-.897-12.402-1.2-45.609-1.2h-44.41l.58 3.25c2.01 11.255 2.052 10.642-.819 11.734-1.686.641-21.976 1.016-54.985 1.016-57.82 0-55.448.273-54.124-6.241a274 274 0 0 0 1.224-6.509l.562-3.25h-44.443c-24.443 0-44.78.337-45.193.75m375.76 16.931c-5.843.473-10.292 3.684-10.42 7.521-.042 1.264-.311 3.198-.598 4.298s-.75 3.688-1.029 5.75l-.506 3.75h27.546c16.091 0 27.787-.39 28.126-.939 1.073-1.735-3.445-16.487-5.608-18.311-1.677-1.414-4.024-1.752-12.215-1.759-5.576-.004-12.389-.17-15.139-.368s-7.321-.172-10.157.058m-109.802 8.274c-1.801 1.99-1.801 2.1 0 4.09 2.399 2.651 11.129 2.45 12.851-.295 3.017-4.809-8.78-8.293-12.851-3.795"/></svg>