<svg xmlns="http://www.w3.org/2000/svg" viewBox="0 0 1024 1024"><path fill="#00e5cc" d="M778.29 232c-.288 1.1-.921 2-1.407 2-.485 0-.883.585-.883 1.301 0 4.262-5.07 8.959-6.167 5.713-.183-.543-2.404-1.27-4.934-1.616-4.328-.592-4.82-.411-8.274 3.044-2.02 2.019-3.41 4.096-3.09 4.615s.106.943-.476.943-1.059.873-1.059 1.941-.45 2.219-1 2.559-1 1.716-1 3.059-.45 2.441-1 2.441-1 .654-1 1.453c0 4.899-2.13 6.547-8.461 6.547-3.376 0-6.567.404-7.089.898-.523.493-2.75 1.151-4.95 1.461-8.696 1.226-11.5 1.897-11.5 2.75 0 .49-.886.891-1.97.891-1.083 0-3.572.9-5.53 2s-4.222 2-5.03 2c-.809 0-1.47.344-1.47.764s-1.762 1.527-3.915 2.46-5.057 2.839-6.454 4.236-2.914 2.54-3.371 2.54c-1.063 0-14.595 13.498-14.398 14.361.081.356-1.205 2.062-2.857 3.792S668 307.867 668 308.565s-.416 1.418-.925 1.602c-.509.183-1.071.997-1.25 1.809s-.887 2.081-1.573 2.82c-.687.739-1.544 2.55-1.904 4.024-.361 1.474-.946 2.905-1.301 3.18-2.499 1.936-7.047 22.427-7.047 31.75 0 4.167-.425 7.25-1 7.25-.55 0-1.01-.337-1.023-.75s-1.588-2.487-3.5-4.61-3.477-4.191-3.477-4.595-2.574-3.391-5.72-6.639-5.555-6.085-5.353-6.303c.482-.522-23.117-24.103-24.12-24.103-.425 0-2.882-2.022-5.462-4.494s-4.878-4.306-5.107-4.077-1.794-.898-3.476-2.506S592.3 300 591.808 300s-1.995-1.02-3.339-2.266-4.136-3.158-6.206-4.25c-2.07-1.091-4.857-2.972-6.195-4.18-1.338-1.209-2.8-1.97-3.25-1.691s-.818.099-.818-.397-2.138-1.985-4.75-3.309-4.9-2.744-5.083-3.157c-.184-.413-1.196-.75-2.25-.75s-1.917-.45-1.917-1-.9-1-2-1-2-.45-2-1-.567-1-1.261-1-4.856-1.789-9.25-3.975-8.75-3.986-9.68-4-1.969-.475-2.309-1.025-1.69-1-3-1-2.66-.45-3-1-1.69-1-3-1-2.66-.45-3-1-1.69-1-3-1-2.628-.398-2.929-.885c-.3-.486-1.79-1.134-3.309-1.438s-4.675-1.032-7.012-1.615c-13.024-3.253-17.164-4.05-32.75-6.298-10.563-1.524-60.865-1.552-70-.039-3.85.637-9.025 1.437-11.5 1.776-2.475.34-5.805 1.041-7.399 1.558s-4.156.941-5.691.941-3.07.45-3.41 1-2.14 1-4 1-3.66.45-4 1-1.941 1-3.559 1-2.941.45-2.941 1-.983 1-2.183 1c-2.234 0-13.515 3.668-15.317 4.981-.55.401-3.137 1.342-5.75 2.092s-4.75 1.715-4.75 2.145-.9.782-2 .782-2 .477-2 1.059-.414.803-.919.491-1.529-.002-2.274.691c-.745.692-2.015 1.408-2.821 1.589-.807.182-1.802.857-2.211 1.5-.41.644-.751.821-.76.394-.015-.769-6.054 1.974-7.015 3.186-.275.347-3.538 2.151-7.25 4.01s-6.75 3.762-6.75 4.23c0 .467-.59.85-1.311.85-.722 0-2.184.788-3.25 1.75-1.067.962-3.177 2.389-4.689 3.169s-2.75 1.793-2.75 2.25-.608.831-1.352.831c-.743 0-2.764 1.35-4.491 3s-3.483 3-3.903 3c-.421 0-2.676 1.8-5.011 4s-4.634 4-5.107 4C262.974 312 234 340.922 234 342.082c0 .504-1.8 2.77-4 5.037s-4 4.517-4 4.999c0 .483-1.566 2.538-3.48 4.567s-3.291 3.877-3.06 4.108-.688 1.525-2.04 2.878c-1.352 1.352-2.198 2.879-1.88 3.394.318.514.178.935-.312.935s-1.529 1.238-2.309 2.75-2.206 3.622-3.169 4.689c-.962 1.066-1.75 2.491-1.75 3.166 0 .676-.416 1.378-.925 1.562-.509.183-1.071.997-1.25 1.809s-.892 2.086-1.584 2.831-1.004 1.768-.691 2.274c.312.505.139.919-.386.919-.909 0-6.676 11.008-7.346 14.022-.175.787-.885 2.04-1.577 2.785-.693.745-1.004 1.768-.691 2.274.312.505.091.919-.491.919s-1.059.624-1.059 1.386-.652 2.642-1.449 4.178-1.22 3.162-.941 3.614c.28.452.031.822-.551.822s-1.059.873-1.059 1.941-.45 2.219-1 2.559-1 1.69-1 3-.45 2.66-1 3-1 1.69-1 3-.398 2.628-.885 2.929c-.486.3-1.134 1.79-1.438 3.309s-1.032 4.675-1.615 7.012c-.584 2.337-1.533 6.163-2.108 8.5s-1.494 6.05-2.042 8.25c-5.634 22.613-6.667 71.562-2.026 96 .522 2.75 1.218 6.575 1.546 8.5s1.077 5.3 1.665 7.5c.587 2.2 1.444 5.575 1.903 7.5 1.193 5 3.144 12.244 3.772 14 .294.825.719 2.625.943 4s.83 2.65 1.346 2.833.939 1.395.939 2.691c0 1.297.361 2.581.802 2.854.441.272 1.422 2.774 2.181 5.559.758 2.784 1.747 5.063 2.198 5.063s.819.71.819 1.579c0 2.206 12.113 26.421 13.216 26.421.496 0 .646.414.334.919-.313.506.111 1.599.941 2.429S208 651.254 208 651.74s1.012 1.97 2.25 3.298 2.091 2.578 1.897 2.778c-.194.199.592 1.449 1.747 2.777 1.154 1.327 2.054 2.677 2 3-.055.322.847 1.674 2.003 3.004s2.103 2.798 2.103 3.262c0 .465 1.35 2.257 3 3.984s3 3.483 3 3.903c0 .421 1.8 2.676 4 5.011s4 4.612 4 5.057c0 1.003 24.616 25.543 26.14 26.06.607.205 3.344 2.568 6.083 5.25S271.611 724 272.11 724c.5 0 2.321 1.35 4.047 3 1.727 1.65 3.519 3 3.984 3s1.932.946 3.262 2.103c1.33 1.156 2.694 2.046 3.03 1.977.337-.069 1.748 1.01 3.135 2.397 1.388 1.388 2.884 2.523 3.324 2.523.441 0 1.829.891 3.084 1.979s2.674 1.737 3.153 1.441.871-.132.871.364 2.137 1.985 4.75 3.309 4.9 2.744 5.083 3.157c.184.412 1.196.75 2.25.75s1.917.45 1.917 1 .9 1 2 1 2 .45 2 1 .9 1 2 1 2 .45 2 1 .574 1 1.275 1c.702 0 3.964 1.336 7.25 2.969s6.486 2.982 7.111 3c.624.017 2.392.683 3.928 1.48s3.162 1.22 3.614.941c.452-.28.822-.141.822.308 0 .961 7.079 3.302 9.984 3.302 1.109 0 2.016.45 2.016 1s1.323 1 2.941 1 3.187.398 3.488.885c.3.486 1.79 1.134 3.309 1.438s4.787 1.06 7.262 1.678c39.638 9.902 93.325 9.5 129-.968 4.125-1.21 8.743-2.439 10.262-2.732 1.519-.292 3.009-.93 3.309-1.416.301-.487 1.619-.885 2.929-.885s2.66-.45 3-1 1.69-1 3-1 2.66-.45 3-1 1.491-1 2.559-1 1.941-.477 1.941-1.059.372-.829.827-.548 3.005-.593 5.669-1.941 5.442-2.452 6.173-2.452c.732 0 1.331-.477 1.331-1.059s.414-.803.919-.491 1.529.002 2.274-.691c.745-.692 2.019-1.405 2.831-1.584s1.626-.741 1.809-1.25 1.196-.925 2.25-.925 1.917-.45 1.917-1 .9-1 2-1 2.007-.337 2.016-.75 2.258-1.851 5-3.197 4.984-2.808 4.984-3.25.59-.803 1.311-.803c.722 0 2.184-.788 3.25-1.75 1.067-.962 3.176-2.389 4.689-3.169s2.75-1.793 2.75-2.25.608-.831 1.352-.831c.743 0 2.764-1.35 4.491-3s3.539-3 4.027-3c.489 0 2.705-1.763 4.925-3.917 2.221-2.155 4.249-3.705 4.509-3.446.606.606 34.696-33.51 34.696-34.722 0-.501 1.8-2.822 4-5.158 2.2-2.335 4-4.61 4-5.056s1.348-2.248 2.995-4.005c1.648-1.758 2.998-3.552 3-3.988.003-.435.905-1.758 2.005-2.938s2-2.737 2-3.459c0-.721.379-1.311.843-1.311s1.923-2.138 3.244-4.75 2.971-5.349 3.666-6.081c.696-.731 1.01-1.744.697-2.25-.312-.505-.159-.919.341-.919.501 0 2.438-3.038 4.305-6.75s3.735-6.9 4.15-7.083c.415-.184.754-1.196.754-2.25s.45-1.917 1-1.917 1-.624 1-1.386.652-2.642 1.449-4.178 1.22-3.162.941-3.614c-.28-.452-.031-.822.551-.822s1.059-.873 1.059-1.941.45-2.219 1-2.559 1-1.716 1-3.059.45-2.441 1-2.441 1-1.35 1-3 .369-3 .819-3c.848 0 3.872-9.921 3.43-11.25-.137-.413.201-.75.751-.75s1-1.323 1-2.941.402-3.19.894-3.494c.84-.519 1.22-2.317 2.708-12.815.332-2.337 1.007-4.678 1.5-5.2s.898-3.14.898-5.816.403-5.623.895-6.55c1.305-2.457 2.198-15.734 2.738-40.684.261-12.1.901-22.427 1.421-22.95s.946-1.985.946-3.25.45-2.3 1-2.3 1-1.125 1-2.5.45-2.5 1-2.5 1-1.098 1-2.441.45-2.719 1-3.059 1-1.716 1-3.059.45-2.441 1-2.441 1-.81 1-1.8.412-2.228.916-2.75c.504-.523 1.067-1.85 1.25-2.95s.669-2.25 1.079-2.556.846-1.768.968-3.25c.123-1.482.575-2.694 1.005-2.694s.782-.606.782-1.346.7-2.75 1.555-4.464c1.65-3.308 1.576-3.297 10.445-1.511 8.247 1.661 35.171.382 37.45-1.778.523-.496 1.767-.901 2.766-.901 2.659 0 9.784-2.362 9.784-3.243 0-.417.9-.757 2-.757s2-.45 2-1 .9-1 2-1 2-.477 2-1.059.399-.812.887-.511c.487.301 1.442-.122 2.122-.941s1.789-1.489 2.465-1.489 2.642-1.35 4.369-3 3.492-3 3.925-3C802.78 426 816 412.698 816 411.679c0-.423 1.134-1.904 2.519-3.289s2.259-2.94 1.941-3.455c-.318-.514-.149-.935.376-.935 1.219 0 8.45-15.082 10.069-21 .677-2.475 1.742-6.075 2.367-8 1.507-4.643 1.382-34.746-.151-36.279-.617-.617-1.121-2.579-1.121-4.362s-.361-3.464-.802-3.737c-.441-.272-1.422-2.774-2.181-5.559-.758-2.784-1.747-5.063-2.198-5.063s-.819-.863-.819-1.917-.337-2.066-.75-2.25c-.413-.183-1.833-2.47-3.157-5.083s-2.787-4.75-3.25-4.75-.843-.596-.843-1.324-3.2-4.621-7.111-8.65l-7.11-7.325 1.284-4.101c.707-2.255 1.657-4.527 2.111-5.05s.826-1.985.826-3.25.34-2.3.757-2.3c1.065 0 3.243-7.374 3.243-10.984 0-1.659-.45-3.016-1-3.016s-1-.75-1-1.667c0-.916-.273-1.393-.606-1.06-.334.334-1.544-.266-2.689-1.333s-2.656-1.94-3.358-1.94-1.758-.9-2.347-2-.714-2-.279-2c.88 0 3.279-7.037 3.279-9.618 0-2.917-5.861-7.036-9.25-6.5-.413.065-.75-.332-.75-.882s-.873-1-1.941-1-2.219-.45-2.559-1c-1.257-2.034-10.635-1.198-11.21 1m3.108 6.573c-1.976 4.165-1.112 6.716 2.454 7.247 1.181.175 2.148.738 2.148 1.25 0 .511 1.098.93 2.441.93s2.719.45 3.059 1c1.127 1.823 4.254 1.04 4.994-1.25 2.127-6.586.442-9.75-5.193-9.75-.716 0-1.301-.375-1.301-.833 0-.459-.562-.838-1.25-.843s-2.232-.326-3.431-.712c-1.823-.588-2.468-.1-3.921 2.961m-21.054 7.746c-1.109 1.276-2.638 4.426-3.399 7-.76 2.575-1.733 4.681-2.163 4.681s-.782 1.35-.782 3-.45 3-1 3-1 1.298-1 2.883c0 2.948 1.092 3.697 6.981 4.788 1.365.252 2.715.768 3 1.144.286.377 1.419.835 2.519 1.019s2.428.746 2.95 1.25 1.958.916 3.191.916 2.519.45 2.859 1 1.491 1 2.559 1 1.941.45 1.941 1 1.098 1 2.441 1 2.719.45 3.059 1 1.491 1 2.559 1 1.941.45 1.941 1 .605 1 1.345 1c1.601 0 4.655 3.168 4.655 4.829 0 .644-.498 1.171-1.107 1.171s-.857-.652-.551-1.449c.346-.902.075-1.265-.717-.961-.7.269-3.872-.879-7.05-2.551-3.178-1.671-6.407-3.039-7.177-3.039s-1.398-.45-1.398-1-1.035-1-2.3-1-2.728-.372-3.25-.826-2.975-1.406-5.45-2.114-5.4-1.667-6.5-2.13-3.8-.974-6-1.136l-4-.294-.312 4.347c-.191 2.663.068 4.113.669 3.741.54-.333 1.661.073 2.491.903S753.763 284 754.87 284s2.29.45 2.63 1 1.491 1 2.559 1 1.941.477 1.941 1.059.37.831.822.551 2.078.144 3.614.941 3.416 1.449 4.178 1.449 1.386.477 1.386 1.059.37.831.822.551 2.078.144 3.614.941 3.416 1.449 4.178 1.449 1.386.45 1.386 1 1.35 1 3 1 3 .45 3 1c0 1.539 2.958 1.185 4.707-.564 1.138-1.138 1.264-1.865.464-2.665s-.378-1.72 1.547-3.374c1.456-1.251 2.737-2.89 2.847-3.642.111-.752 1.154-3.339 2.318-5.749s2.117-4.972 2.117-5.694.352-1.312.782-1.312.884-1.238 1.009-2.75.672-2.9 1.218-3.083c1.431-.482 1.219-5.101-.298-6.488-1.84-1.683-5.5-3.679-6.746-3.679-.584 0-2.924-.9-5.201-2s-4.73-2-5.452-2-1.312-.477-1.312-1.059-.37-.831-.822-.551-1.924-.064-3.271-.763c-1.348-.699-4.578-1.9-7.179-2.667-2.6-.768-4.728-1.823-4.728-2.345s-.282-.666-.627-.322-1.897-.03-3.45-.833c-3.541-1.831-3.193-1.884-5.579.859M403.5 257.192c-2.75.5-8.15 1.361-12 1.914s-8.382 1.43-10.071 1.95c-1.689.519-4.502.944-6.25.944s-3.179.45-3.179 1-1.323 1-2.941 1-3.219.45-3.559 1-2.14 1-4 1-3.66.45-4 1-1.69 1-3 1-2.66.45-3 1-1.716 1-3.059 1-2.441.45-2.441 1-.873 1-1.941 1-2.219.45-2.559 1-1.716 1-3.059 1-2.441.45-2.441 1-.626 1-1.39 1c-1.958 0-29.698 14.026-32.049 16.204-1.066.988-2.491 1.796-3.166 1.796-.676 0-1.378.416-1.562.925-.183.509-.995 1.071-1.804 1.25s-2.834 1.56-4.5 3.07-3.591 2.748-4.279 2.75c-.687.003-1.25.379-1.25.836s-1.227 1.47-2.727 2.25-4.284 2.872-6.187 4.649c-1.903 1.776-3.631 3.058-3.84 2.849s-3.612 2.725-7.56 6.52c-3.949 3.796-7.531 6.901-7.959 6.901-.971 0-9.31 8.274-9.839 9.762-.213.601-3.425 4.263-7.138 8.138s-6.752 7.396-6.755 7.823c-.002.427-1.24 2.127-2.751 3.777s-3.871 4.684-5.245 6.743-2.837 3.746-3.249 3.75-.75.597-.75 1.318-.787 2.184-1.75 3.25c-.963 1.067-2.389 3.177-3.169 4.689s-1.819 2.75-2.309 2.75-.634.414-.322.919c.313.506-.005 1.519-.706 2.25-.7.732-2.391 3.468-3.757 6.081s-2.822 4.75-3.235 4.75c-.414 0-.752.9-.752 2s-.45 2-1 2-1 .9-1 2-.45 2-1 2-1 .9-1 2-.375 2-.833 2c-.459 0-.838.563-.844 1.25-.005.688-.917 3.115-2.025 5.396-1.109 2.28-2.627 6.217-3.375 8.75-.748 2.532-1.711 4.604-2.141 4.604s-.782 1.098-.782 2.441-.45 2.719-1 3.059-1 1.69-1 3-.45 2.66-1 3-1 1.69-1 3-.45 2.66-1 3-1 2.14-1 4-.4 3.629-.89 3.932c-.489.302-1.145 2.016-1.458 3.809a731 731 0 0 1-1.617 8.759c-.577 3.025-1.282 7.3-1.568 9.5s-.936 5.575-1.443 7.5-1.243 8.675-1.634 15c-1.88 30.364.26 57.383 6.555 82.75a666 666 0 0 1 1.925 8c1.113 4.802 5.827 18.86 7.615 22.71.756 1.627 1.154 3.315.886 3.75-.269.434-.012.79.57.79s1.059.595 1.059 1.323c0 .727 1.35 4.109 3 7.516s3 6.861 3 7.677.45 1.484 1 1.484 1 .862 1 1.917c0 1.054.416 2.066.925 2.25.509.183 1.071.997 1.25 1.809s.892 2.086 1.584 2.831 1.004 1.768.691 2.274c-.312.505-.168.919.322.919s1.509 1.237 2.266 2.75 2.027 3.538 2.824 4.5 1.136 1.75.754 1.75.224.985 1.345 2.189c1.121 1.203 2.039 2.778 2.039 3.5 0 .721.374 1.311.831 1.311s1.47 1.237 2.25 2.75 2.654 4.1 4.164 5.75 2.748 3.362 2.75 3.804c.003.443 1.353 2.243 3 4s2.998 3.517 3 3.91c.003.392 2.818 3.698 6.255 7.345 3.438 3.648 6.126 7.073 5.975 7.611s.126.731.617.428c1.18-.73 4.378 2.849 3.41 3.816-.414.414-.077.603.748.419.825-.183 1.388.229 1.25.917-.137.687.149 1.137.637 1 .488-.138 4.765 3.462 9.504 8 4.74 4.538 8.955 8.25 9.368 8.25s2.549 1.693 4.746 3.763 4.296 3.757 4.665 3.75 1.725.887 3.014 1.987 3.575 2.639 5.08 3.419 2.736 1.793 2.736 2.25.59.831 1.311.831c.722 0 2.184.788 3.25 1.75 1.067.962 3.177 2.389 4.689 3.169s2.75 1.819 2.75 2.309.414.634.919.322c.506-.313 1.519.017 2.25.733 1.803 1.763 25.728 13.717 27.455 13.717.757 0 1.376.45 1.376 1s1.098 1 2.441 1 2.719.45 3.059 1 1.491 1 2.559 1 1.941.352 1.941.782 1.238.884 2.75 1.009 2.9.672 3.083 1.218 1.646.991 3.25.991 2.917.401 2.917.891c0 .489 1.462 1.112 3.25 1.384 4.293.651 15.852 3.628 17.75 4.57.825.41 3.3.879 5.5 1.043s4.45.662 5 1.106 3.475 1.041 6.5 1.326 10.225 1.076 16 1.758c17.779 2.101 59.507 1.199 63.674-1.376.456-.282 2.854-.635 5.328-.784s4.948-.588 5.498-.976 2.575-.951 4.5-1.251c1.925-.301 5.525-1.062 8-1.691s5.967-1.387 7.759-1.683 3.507-.938 3.809-1.427 1.622-.89 2.932-.89 2.66-.45 3-1 1.69-1 3-1 2.66-.45 3-1 1.716-1 3.059-1 2.441-.45 2.441-1 .873-1 1.941-1 2.219-.45 2.559-1 1.716-1 3.059-1 2.441-.45 2.441-1 .563-.997 1.25-.994c1.293.006 25.863-11.982 26.75-13.052.275-.332 2.522-1.695 4.994-3.029s5.37-3.213 6.439-4.175 2.306-1.75 2.748-1.75 1.82-.883 3.061-1.963c1.242-1.08 2.597-1.978 3.012-1.995s2.169-1.385 3.899-3.037c1.729-1.653 3.506-3.005 3.949-3.005s3.251-2.303 6.241-5.117 5.714-5.062 6.053-4.994c.814.162 21.602-20.644 21.609-21.627.003-.419 2.802-3.687 6.22-7.262s6.145-6.725 6.061-7 1.055-1.85 2.531-3.5 3.322-4.237 4.102-5.75 1.793-2.75 2.25-2.75.831-.702.831-1.559c0-.924.47-1.268 1.155-.846.69.427.884.276.48-.376-.37-.599.348-2.152 1.596-3.45s2.418-3.01 2.599-3.805.643-1.674 1.025-1.955c.382-.28 1.807-2.647 3.168-5.259 1.36-2.612 2.812-4.75 3.225-4.75s.752-.862.752-1.917c0-1.054.337-2.066.75-2.25 1.08-.48 5.25-8.762 5.25-10.428 0-.773.45-1.405 1-1.405s1-.9 1-2 .45-2 1-2 1-.697 1-1.548.836-3.28 1.859-5.396c1.022-2.116 2.47-5.919 3.218-8.452.748-2.532 1.711-4.604 2.141-4.604s.782-1.35.782-3 .45-3 1-3 1-.981 1-2.179c0-1.89.795-4.968 2.795-10.821.282-.825.678-2.625.881-4s.781-3.4 1.284-4.5c.504-1.1 1.184-3.8 1.511-6 .328-2.2 1.036-6.7 1.575-10s1.225-8.7 1.526-12 .97-8.445 1.487-11.434c1.121-6.473 1.258-23.069.191-23.058-.898.009-3.25 4.852-3.25 6.691 0 .716-.45 1.301-1 1.301s-1 1.098-1 2.441-.389 2.682-.865 2.976c-.979.605-1.879 5.45-3.173 17.083-.489 4.4-1.369 10.925-1.955 14.5s-1.325 8.19-1.642 10.256-.979 4.005-1.471 4.309S680 573.64 680 575.5s-.45 3.66-1 4-1 1.941-1 3.559-.45 2.941-1 2.941-1 1.548-1 3.441-.45 3.719-1 4.059-1 1.491-1 2.559-.352 1.941-.782 1.941-.884 1.237-1.009 2.75-.672 2.9-1.218 3.083-.991 1.395-.991 2.691c0 1.297-.45 2.636-1 2.976s-1 1.54-1 2.666c0 1.335-.483 1.863-1.387 1.516-.982-.377-1.235.046-.868 1.451.536 2.051-11.422 26.867-12.946 26.867-.44 0-.799-.9-.799-2s.45-2 1-2 1-.862 1-1.917c0-1.054.337-2.066.75-2.25 1.08-.48 5.25-8.762 5.25-10.428 0-.773.45-1.405 1-1.405s1-.948 1-2.107c0-1.353.481-1.922 1.344-1.591.943.362 1.216-.15.917-1.716-.234-1.227.511-3.899 1.656-5.939S668 606.278 668 605.47c0-.809.45-1.47 1-1.47s1-.907 1-2.016c0-2.816 2.329-9.984 3.243-9.984.417 0 .757-.981.757-2.179 0-2.302 1.649-8.14 3.123-11.057.482-.955.877-2.703.877-3.884s.418-3.775.93-5.764c1.318-5.128 2.912-13.769 3.619-19.616.562-4.651.496-4.86-.941-3-.849 1.1-1.559 2.788-1.576 3.75S679.55 552 679 552s-1 .9-1 2-.45 2-1 2-1 .59-1 1.311c0 .722-.918 2.297-2.039 3.5-1.121 1.204-1.81 2.189-1.53 2.189s-.603 1.638-1.961 3.64c-1.359 2.001-2.47 4.557-2.47 5.679s-.42 3.421-.932 5.11c-.513 1.689-1.457 5.096-2.098 7.571s-1.571 5.281-2.067 6.236-.903 2.616-.903 3.691-.361 2.178-.802 2.451c-.441.272-1.422 2.774-2.181 5.559-.758 2.784-1.672 5.063-2.031 5.063s-.653.586-.653 1.302c0 2.006-12.431 26.698-13.441 26.698-.491 0-.892.59-.892 1.311 0 .722-.788 2.202-1.75 3.289s-1.891 2.607-2.062 3.376c-.172.768-1.072 2.101-2 2.961-.929.86-1.829 2.21-2 3s-1.184 2.193-2.25 3.117-1.938 2.124-1.938 2.665-1.35 2.397-3 4.124-3 3.505-3 3.953-2.67 3.585-5.934 6.972c-4.375 4.541-6.017 7.023-6.25 9.446-.249 2.591-.768 3.286-2.453 3.286-1.176 0-3.012.788-4.082 1.752s-2.316 1.414-2.772 1c-.457-.414-.543-.25-.193.364s-.253 1.922-1.34 2.905c-1.087.984-1.976 1.51-1.976 1.169 0-.342-3.229 2.514-7.176 6.345s-7.55 6.965-8.009 6.965c-.458 0-2.246 1.35-3.972 3-1.727 1.65-3.543 3-4.035 3s-1.995 1.02-3.339 2.266-4.136 3.158-6.206 4.25c-2.07 1.091-4.635 2.772-5.702 3.734-1.066.962-2.335 1.75-2.821 1.75s-1.562.679-2.392 1.509-1.923 1.254-2.429.941c-.505-.312-.919-.139-.919.386 0 1.1-16.296 9.164-18.519 9.164-.814 0-1.481.45-1.481 1s-.59 1-1.312 1-3.175.9-5.452 2-4.81 2-5.629 2-1.767.45-2.107 1-1.716 1-3.059 1-2.441.45-2.441 1-1.35 1-3 1-3 .45-3 1-.981 1-2.179 1-3.561.42-5.25.932c-5.574 1.692-11.034 3.067-13.571 3.416-1.375.19-3.175.61-4 .935-9.243 3.637-64.556 4.187-82.5.82a644 644 0 0 0-8.5-1.535c-1.925-.328-5.3-1.077-7.5-1.665a812 812 0 0 0-8-2.083c-2.2-.558-4.781-1.421-5.736-1.917-.955-.497-2.868-.903-4.25-.903s-2.514-.45-2.514-1-1.098-1-2.441-1-2.719-.45-3.059-1-1.69-1-3-1-2.66-.45-3-1-1.491-1-2.559-1-1.941-.375-1.941-.833c0-.459-.586-.834-1.302-.834-2.078 0-26.698-12.45-26.698-13.5 0-.523-.414-.695-.919-.383-.506.313-1.519.002-2.25-.691-.732-.692-2.569-1.898-4.081-2.678s-2.75-1.793-2.75-2.25-.59-.831-1.311-.831c-.722 0-2.288-.909-3.481-2.021s-2.367-1.899-2.608-1.75-1.604-.741-3.027-1.979-2.968-2.25-3.432-2.25c-.465 0-2.257-1.35-3.984-3s-3.551-3-4.054-3C284.874 702 250 667.196 250 665.97c0-.531-1.566-2.626-3.48-4.655s-3.291-3.877-3.06-4.108-.679-1.517-2.021-2.859c-1.341-1.341-2.439-2.798-2.439-3.238s-1.124-2.106-2.499-3.704-2.499-3.468-2.5-4.156S233.55 642 233 642s-1-.9-1-2-.379-2-.843-2-1.926-2.138-3.25-4.75-2.745-4.9-3.157-5.083c-.412-.184-.75-1.196-.75-2.25s-.45-1.917-1-1.917-1-.9-1-2-.45-2-1-2-1-.569-1-1.265-1.313-3.958-2.918-7.25-3.068-6.66-3.25-7.485c-.183-.825-.567-1.725-.854-2-.951-.91-6.978-19.786-6.978-21.853 0-1.116-.45-2.307-1-2.647s-1-2.14-1-4-.45-3.66-1-4-1-1.71-1-3.045-.434-4.345-.964-6.691c-5.965-26.403-5.64-60.915.881-93.264.554-2.75 1.283-6.575 1.619-8.5s.872-4.175 1.189-5 .703-2.175.858-3c.678-3.629 6.948-21.532 7.645-21.833.425-.184.772-.993.772-1.799s.9-3.327 2-5.604 2-4.73 2-5.452.45-1.312 1-1.312 1-.9 1-2 .45-2 1-2 1-.9 1-2 .45-2 1-2 1-.9 1-2 .477-2 1.059-2 .803-.414.491-.919.111-1.599.941-2.429 1.509-2.216 1.509-3.081.45-1.571 1-1.571 1-.59 1-1.311c0-.722.9-2.278 2-3.459 1.1-1.18 2-2.53 2-3 0-.469 1.012-1.94 2.25-3.268s2.025-2.502 1.75-2.608.4-1.249 1.5-2.538 3.125-4.022 4.5-6.073 2.838-3.732 3.25-3.736.75-.594.75-1.312c0-.717 2.7-4.107 6-7.532s6-6.572 6-6.992c0-.939 7.318-8.171 8.268-8.171.376 0 4.582-3.837 9.347-8.528 4.764-4.69 8.876-8.314 9.136-8.054.261.26 1.886-.85 3.611-2.468s3.701-2.943 4.388-2.945c.688-.003 1.253-.342 1.257-.755s1.691-1.871 3.75-3.241 3.972-2.797 4.252-3.17c.281-.373 1.16-.827 1.955-1.009s2.507-1.351 3.805-2.599 2.781-2.009 3.296-1.691.935.172.935-.324 2.137-1.985 4.75-3.309 4.9-2.744 5.083-3.157c.184-.413 1.196-.75 2.25-.75s1.917-.45 1.917-1 .9-1 2-1 2-.45 2-1 .9-1 2-1 2-.45 2-1 .661-1 1.47-1 3.072-.9 5.03-2 4.447-2 5.53-2 1.97-.45 1.97-1 1.35-1 3-1 3-.352 3-.782 2.137-1.359 4.75-2.066 5.531-1.705 6.486-2.218c.955-.514 2.841-.934 4.191-.934s2.733-.45 3.073-1 2.076-1 3.859-1 3.669-.404 4.191-.898c.522-.493 2.975-1.179 5.45-1.524a772 772 0 0 0 11-1.653c16.787-2.65 63.704-3.224 68.168-.835.935.501 3.89.91 6.566.91s5.294.404 5.816.898c.523.493 2.75 1.151 4.95 1.461 8.473 1.195 11.538 1.894 12.068 2.751.303.49 1.847.89 3.432.89s3.16.45 3.5 1 1.941 1 3.559 1 2.941.45 2.941 1 1.35 1 3 1 3 .45 3 1 1.098 1 2.441 1 2.719.45 3.059 1 1.491 1 2.559 1 1.941.45 1.941 1 .738 1 1.639 1C529.95 294 554 306.013 554 307.167c0 .523.414.695.919.383.506-.313 1.599.111 2.429.941S559.254 310 559.74 310s1.755.813 2.821 1.806 3.369 2.438 5.117 3.212c1.748.773 2.959 1.761 2.691 2.194s.34.788 1.351.788 2.487.9 3.28 2 1.95 2 2.572 2 2.544 1.35 4.271 3 3.527 3 4.002 3 4.916 3.938 9.868 8.75c4.952 4.813 9.804 9.216 10.78 9.786.977.57 1.724 1.35 1.66 1.733s3.025 3.965 6.865 7.961c3.84 3.995 6.982 7.602 6.982 8.015s1.566 2.411 3.48 4.44 3.298 3.87 3.077 4.092.912 1.779 2.52 3.461S634 379.699 634 380.19s.9 1.86 2 3.04c1.1 1.181 2 2.737 2 3.459 0 .721.45 1.311 1 1.311s1 .9 1 2 .379 2 .843 2 1.926 2.137 3.25 4.75 2.744 4.9 3.157 5.083c.413.184.75 1.196.75 2.25s.45 1.917 1 1.917 1 .9 1 2 .45 2 1 2 1 .9 1 2 .45 2 1 2 1 .59 1 1.312.9 3.175 2 5.452 2 4.81 2 5.629.45 1.767 1 2.107 1 1.679 1 2.976.446 2.507.991 2.691c.546.183 1.094 1.571 1.218 3.083.125 1.512.579 2.75 1.009 2.75s.782 1.35.782 3 .401 3 .891 3c.489 0 1.132 1.462 1.427 3.25s1.048 5.275 1.672 7.75c1.927 7.64 4.061 19.301 5.858 32 .614 4.345.959 5.08 1.642 3.5.475-1.1 1.125-2.225 1.444-2.5 2.131-1.838 4.838-13.07 4.009-16.639-.492-2.124-.906-5.548-.919-7.611S679.55 462 679 462s-1-1.773-1-3.941-.45-4.219-1-4.559-1-2.14-1-4-.45-3.66-1-4-1-1.69-1-3-.45-2.66-1-3-1-1.407-1-2.371-.9-3.616-2-5.893-2-4.81-2-5.629-.45-1.767-1-2.107-1-1.716-1-3.059-.45-2.441-1-2.441-1-.9-1-2-.45-2-1-2-.997-.562-.993-1.25c.01-1.806-10.158-21.893-12.245-24.189-.969-1.066-1.762-2.491-1.762-3.166 0-.676-.416-1.378-.925-1.562-.509-.183-1.071-.99-1.25-1.794-.179-.803-1.113-2.351-2.075-3.439-.962-1.087-1.75-2.567-1.75-3.289 0-.721-.374-1.311-.831-1.311s-1.47-1.227-2.25-2.727-3.106-4.536-5.169-6.745-3.75-4.361-3.75-4.782c0-.42-1.35-2.177-3-3.903-2.717-2.843-3.945-5.843-2.392-5.843 1.104 0 9.37 9.473 9.381 10.75.006.688.385 1.25.842 1.25s1.47 1.23 2.25 2.733 2.656 4.045 4.169 5.648c1.513 1.604 2.75 3.318 2.75 3.809s.9 1.86 2 3.04c1.1 1.181 2 2.737 2 3.459 0 .721.45 1.311 1 1.311s1 .9 1 2 .379 2 .843 2 1.926 2.137 3.25 4.75 2.744 4.9 3.157 5.083c.413.184.75 1.196.75 2.25s.45 1.917 1 1.917 1 .9 1 2 .45 2 1 2 1 .9 1 2 .45 2 1 2 1 .9 1 2 .369 2 .819 2c.451 0 1.432 2.25 2.181 5s1.73 5 2.181 5c.45 0 .819.906.819 2.014s.45 2.907 1 4l2 3.972c.55 1.093 1 2.674 1 3.514s.398 2.309.885 3.264c1.825 3.581 5.115 15.107 5.115 17.917 0 1.606.422 3.347.937 3.869s1.078 2.975 1.25 5.45c.204 2.938.778 4.5 1.653 4.5 1.749 0 6.41-13.643 5.107-14.95-.521-.522-.947-2.435-.947-4.25s-.45-3.3-1-3.3-1-1.131-1-2.514-.398-3.295-.885-4.25c-.486-.955-1.868-4.886-3.069-8.736-1.202-3.85-3.054-8.908-4.116-11.239s-1.93-4.68-1.93-5.22c0-.539-.872-2.533-1.938-4.43s-2.078-4.274-2.25-5.28c-.171-1.007-1.1-2.703-2.062-3.77-.962-1.066-1.75-2.753-1.75-3.75s-.337-1.813-.75-1.815-1.875-2.475-3.25-5.496-2.837-5.494-3.25-5.496S660 385.1 660 384s-.374-2-.831-2-1.469-1.238-2.248-2.75-1.72-2.979-2.089-3.259c-.37-.281-.82-1.16-1.002-1.955-.181-.795-1.351-2.507-2.599-3.805s-1.966-2.851-1.596-3.45c.404-.652.21-.803-.48-.376-.685.422-1.155.078-1.155-.846 0-.857-.374-1.559-.831-1.559s-1.47-1.227-2.25-2.727-3.106-4.536-5.169-6.745-3.75-4.421-3.75-4.915c0-1.237-34.257-35.587-35.505-35.602-.553-.006-2.878-1.774-5.166-3.929-2.287-2.155-4.338-3.739-4.557-3.52s-2.057-1.167-4.085-3.08-3.687-3.267-3.687-3.01c0 .412-5.781-3.13-8.5-5.208-.55-.42-2.237-1.403-3.75-2.183s-2.75-1.819-2.75-2.309-.414-.634-.919-.322c-.506.313-1.519-.007-2.25-.709-1.517-1.457-24.536-12.871-29.831-14.792-1.925-.698-3.928-1.647-4.45-2.109s-1.895-.84-3.05-.84-2.527-.369-3.05-.82-4.325-1.854-8.45-3.119-8.4-2.668-9.5-3.118-3.575-1.039-5.5-1.309c-1.925-.269-5.525-.998-8-1.619-4.701-1.18-11.041-2.386-22-4.186-8.237-1.352-60.84-1.849-67.5-.637m6 7.777c-1.1.49-4.786.922-8.191.961s-6.469.52-6.809 1.07-3.04 1-6 1-5.66.45-6 1-2.391 1-4.559 1-3.941.45-3.941 1-1.35 1-3 1-3 .45-3 1-1.548 1-3.441 1-3.719.45-4.059 1-1.69 1-3 1-2.66.45-3 1-1.69 1-3 1-2.66.45-3 1-1.491 1-2.559 1-1.941.45-1.941 1-1.098 1-2.441 1-2.719.45-3.059 1-1.491 1-2.559 1-1.941.45-1.941 1-.9 1-2 1-2 .45-2 1-.9 1-2 1-2 .45-2 1-.9 1-2 1c-1.952 0-2.606 1.061-1.398 2.269.754.754 7.398-2.347 7.398-3.454 0-.448 1.098-.815 2.441-.815s2.719-.45 3.059-1 1.491-1 2.559-1 1.941-.45 1.941-1 1.098-1 2.441-1 2.719-.45 3.059-1 1.491-1 2.559-1 1.941-.352 1.941-.782 1.238-.884 2.75-1.009 2.9-.672 3.083-1.218 1.646-.991 3.25-.991 2.917-.354 2.917-.787 1.433-.897 3.184-1.03c1.75-.134 3.663-.623 4.25-1.087 1.005-.796 3.14-1.322 10.816-2.664 1.788-.313 4.15-.962 5.25-1.443s4.025-1.117 6.5-1.413c2.475-.295 8.775-1.106 14-1.802 11.685-1.556 47.28-1.532 59.5.04 4.95.637 11.25 1.413 14 1.724 2.75.312 5.9.962 7 1.446s3.35 1.108 5 1.387c5.172.875 8.927 1.751 11 2.566 1.1.432 3.8 1.328 6 1.991 2.2.662 4.9 1.562 6 2s3.8 1.345 6 2.018 6.025 2.15 8.5 3.285c2.475 1.134 5.063 2.072 5.75 2.083.688.01 1.25.394 1.25.853s.563.829 1.25.825c1.601-.011 17.821 8.068 19.581 9.753.731.7 1.744 1.018 2.25.705.505-.312.919-.091.919.491 0 1.248 3.649 1.437 4.396.228.282-.457-1.041-1.441-2.941-2.187S558 295.261 558 294.813s-.9-.813-2-.813-2-.45-2-1-.9-1-2-1-2-.45-2-1-.9-1-2-1-2-.45-2-1-.9-1-2-1-2-.45-2-1-.59-1-1.312-1-3.175-.9-5.452-2-4.836-2-5.688-2-1.548-.45-1.548-1-.873-1-1.941-1-2.219-.45-2.559-1-1.69-1-3-1-2.66-.45-3-1-1.498-1-2.573-1-2.736-.406-3.691-.903c-1.629-.846-4.06-1.545-14.486-4.165-2.337-.587-5.6-1.458-7.25-1.936-1.65-.477-4.8-.981-7-1.118s-4.45-.572-5-.965c-2.749-1.966-64.015-3.717-68-1.944M732 273c-.825.533-2.767.976-4.316.985-1.548.008-3.608.439-4.577.958s-2.851 1.093-4.184 1.277c-3.083.426-17.801 7.657-20.362 10.003-1.066.977-2.33 1.777-2.808 1.777-.724 0-5.39 4.017-11.271 9.702-.684.662-1.595.887-2.023.5-.429-.386-.511-.229-.183.349.327.578-1.288 3.061-3.59 5.519s-4.825 5.697-5.605 7.199-1.819 2.731-2.309 2.731-.634.414-.322.919c.313.506.002 1.529-.691 2.274-.692.745-1.408 2.015-1.589 2.821-.182.807-.632 1.696-1 1.977-.369.28-.795 1.184-.948 2.009-.154.825-.66 2.4-1.126 3.5-2.561 6.047-3.096 7.859-3.096 10.488 0 1.592-.435 3.163-.968 3.492-.569.352-.878 6.658-.75 15.309.209 14.079.346 14.969 3.184 20.711 1.632 3.3 3.548 6.599 4.259 7.331.712.731 1.038 1.744.725 2.25-.312.505-.091.919.491.919s1.059.975 1.059 2.167.293 1.873.652 1.514c.359-.358 2.2 2.604 4.093 6.584s3.849 8.016 4.348 8.971.907 2.203.907 2.772c0 1.228 10.583 11.992 11.79 11.992.458 0 1.728.788 2.822 1.75 5.059 4.449 6.239 4.544 7.875.628.832-1.992 1.513-4.242 1.513-5s.45-1.378 1-1.378 1-1.098 1-2.441.389-2.682.865-2.976 1.131-2.172 1.456-4.173c.554-3.416.256-3.944-4.865-8.625-3.001-2.742-5.456-5.45-5.456-6.018s-.833-1.76-1.85-2.65c-2.37-2.071-7.228-11.181-6.549-12.28.284-.46.04-.837-.542-.837s-1.059-.681-1.059-1.514c0-.832-.402-2.295-.892-3.25-1.162-2.259-3.108-12.953-3.108-17.072 0-4.592 2.311-16.164 3.228-16.164.425 0 .772-1.35.772-3s.45-3 1-3 1-1.04 1-2.311c0-1.272.788-3.202 1.75-4.289.962-1.088 1.891-2.607 2.062-3.376.172-.768 1.184-2.154 2.25-3.078s1.938-2.099 1.938-2.61c0-1.148 7.265-8.336 8.425-8.336.462 0 1.609-.886 2.549-1.97 2.154-2.484 12.603-8.03 15.128-8.03 1.044 0 1.898-.393 1.898-.873 0-1.203 8.832-2.403 18.913-2.568 7.358-.12 8.509-.384 9.18-2.098 1.261-3.227 1.089-3.493-3.601-5.568-6.798-3.007-8.492-5.317-8.492-11.582V272l-4.25.015c-2.337.009-4.925.452-5.75.985m-316.5 9.046c-13.821.946-31.807 4.183-43.175 7.77-1.746.55-3.433.742-3.75.426-.316-.316-.575-.05-.575.591 0 .642-1.35 1.167-3 1.167s-3 .45-3 1-1.35 1-3 1-3 .45-3 1-.624 1-1.386 1-2.642.652-4.178 1.449-3.162 1.22-3.614.941c-.452-.28-.822-.031-.822.551s-.647 1.059-1.437 1.059c-1.792 0-21.581 9.894-23.394 11.695-.731.728-1.744 1.068-2.25.755-.505-.312-.919-.168-.919.322s-1.238 1.529-2.75 2.309-3.2 1.763-3.75 2.183c-2.751 2.102-8.5 5.617-8.5 5.197 0-.263-1.417.876-3.148 2.53-1.732 1.655-3.521 3.009-3.977 3.009s-3.187 2.25-6.07 5-5.624 5-6.091 5C282.647 338 258 362.657 258 363.725c0 .432-1.8 2.697-4 5.032s-4.002 4.584-4.005 4.995c-.002.411-1.24 2.098-2.75 3.748s-3.384 4.238-4.164 5.75-1.793 2.75-2.25 2.75-.831.59-.831 1.311c0 .722-.787 2.202-1.75 3.289s-1.899 2.631-2.08 3.43c-.182.798-.651 1.68-1.044 1.961-1.374.981-14.774 28.557-16.161 33.259-.771 2.613-1.753 4.75-2.183 4.75s-.782 1.098-.782 2.441-.45 2.719-1 3.059-1 1.941-1 3.559-.401 2.941-.891 2.941c-.489 0-1.132 1.462-1.427 3.25s-1.06 5.275-1.699 7.75-1.392 6.413-1.673 8.75-.874 4.25-1.318 4.25-1.074 2.587-1.401 5.75-1.121 10.7-1.765 16.75c-2.177 20.463-.047 63.479 3.421 69.09.367.595.781 2.762.92 4.816.138 2.054.607 3.954 1.042 4.223s.791 2.011.791 3.871.45 3.66 1 4 1 1.69 1 3 .45 2.66 1 3 1 1.44 1 2.445.652 3.083 1.449 4.619 1.22 3.162.941 3.614c-.28.452-.113.822.37.822s1.491 2.25 2.24 5 1.73 5 2.181 5c.45 0 .819.579.819 1.286 0 1.508 10.13 21.96 11.981 24.192.695.837.966 1.522.602 1.522-.363 0 .257.985 1.378 2.189 1.121 1.203 2.039 2.778 2.039 3.5 0 .721.45 1.311 1 1.311s1 .672 1 1.492c0 .821.883 2.509 1.963 3.75s1.978 2.597 1.995 3.012 1.385 2.169 3.037 3.899c1.653 1.729 3.005 3.516 3.005 3.972s2.25 3.187 5 6.07 5 5.599 5 6.034c0 .973 22.815 23.883 23.429 23.526.242-.14 2.461 1.616 4.932 3.902 2.47 2.286 4.666 3.983 4.878 3.77.213-.212 2.159 1.284 4.324 3.327 2.165 2.042 4.013 3.496 4.107 3.23.093-.266 1.225.416 2.514 1.516s3.575 2.639 5.08 3.419 2.736 1.819 2.736 2.309.419.631.931.315c.512-.317 1.206-.13 1.542.414s2.168 1.728 4.069 2.63c1.902.903 3.458 2.066 3.458 2.586s.414.689.919.377c.506-.313 1.529-.002 2.274.691.745.692 2.019 1.405 2.831 1.584s1.626.741 1.809 1.25 1.196.925 2.25.925 1.917.477 1.917 1.059.414.803.919.491 1.599.111 2.429.941 2.216 1.509 3.081 1.509 1.571.375 1.571.833c0 .459.563.885 1.25.947 2.437.221 8.75 2.721 8.75 3.465 0 .415 1.05.755 2.333.755s2.639.305 3.011.678c1.116 1.115 13.981 5.268 16.406 5.296 1.238.014 2.25.476 2.25 1.026s1.548 1 3.441 1 3.682.39 3.977.867 2.459 1.153 4.809 1.502 6.973 1.069 10.273 1.601c14.914 2.404 25.397 3.178 41 3.025 14.951-.146 38.533-2.501 43.5-4.344.825-.306 2.85-.794 4.5-1.085 6.323-1.115 9.069-1.744 11-2.522 1.1-.443 5.375-1.84 9.5-3.105s7.927-2.668 8.45-3.119 1.985-.82 3.25-.82 2.3-.45 2.3-1 .665-1 1.478-1c1.598 0 29.691-13.902 30.531-15.108.281-.402 1.163-.88 1.961-1.062.799-.181 2.342-1.118 3.43-2.08 1.087-.962 2.567-1.75 3.289-1.75.721 0 1.311-.374 1.311-.831s1.23-1.47 2.733-2.25 4.045-2.656 5.648-4.169c1.604-1.513 3.298-2.75 3.765-2.75s2.761-1.8 5.097-4c2.335-2.2 4.567-4 4.96-4 1.261 0 15.797-14.557 15.797-15.819 0-1.257-12.646-14.402-13.411-13.94-.236.142-1.59-.751-3.009-1.984s-2.58-1.952-2.58-1.595c0 .356-.889-.156-1.975-1.139-1.914-1.732-2.069-1.687-5 1.45-2.21 2.366-3.029 4.22-3.04 6.883-.017 4.278-1.725 8.006-4.374 9.546-1.039.604-5.989 5.034-11 9.844s-9.673 8.748-10.361 8.75c-.687.002-1.25.454-1.25 1.004s-1.8 1-4 1-4-.45-4-1-.492-.887-1.093-.75c-.601.138-1.614-.602-2.25-1.644s-4.195-5.09-7.907-8.997-6.75-7.471-6.75-7.921-2.25-3.009-5-5.688-5-5.574-5-6.435-.45-1.565-1-1.565-1-1.125-1-2.499c0-2.375 17.663-21.172 18.814-20.021.236.237 2.071-1.278 4.077-3.366 4.897-5.097 7.067-6.114 13.049-6.114 4.804 0 5.391-.303 11.138-5.75 3.336-3.163 6.514-5.91 7.061-6.106s5.127-4.356 10.178-9.245c8.463-8.194 9.499-8.891 13.214-8.895 3.599-.004 4.669-.648 9.969-6.004 3.266-3.3 6.514-6 7.219-6 .704 0 1.281-.45 1.281-1s1.577-1 3.504-1c2.772 0 4.483-.925 8.199-4.436 2.583-2.44 5.067-4.206 5.521-3.926s.702.14.551-.314c-.151-.453-.05-.848.225-.878.275-.029 4.758-4.192 9.963-9.25S641.789 560 642.234 560c4.016 0 15.827-17.273 18.976-27.75.702-2.337 1.617-4.25 2.033-4.25.417 0 .757-1.035.757-2.3s.379-2.728.843-3.25 1.611-3.474 2.549-6.559c2.684-8.827.089-37.119-5.402-58.891-.624-2.475-1.377-5.967-1.673-7.759s-.938-3.507-1.427-3.809-.89-1.339-.89-2.303-.9-3.616-2-5.893-2-4.81-2-5.629-.45-1.767-1-2.107-1-1.716-1-3.059-.45-2.441-1-2.441-.997-.562-.993-1.25c.009-1.606-10.065-21.824-11.749-23.581-.702-.731-1.021-1.744-.708-2.25.312-.505.091-.919-.491-.919s-1.059-.927-1.059-2.059-.45-1.781-1-1.441-1-.084-1-.941-.374-1.559-.831-1.559-1.47-1.238-2.25-2.75-2.207-3.622-3.169-4.689c-.962-1.066-1.75-2.328-1.75-2.804s-1.348-2.304-2.995-4.061-2.998-3.521-3-3.919c-.003-.398-1.786-2.648-3.963-5s-3.864-4.507-3.75-4.788c.281-.688-23.066-23.989-24.037-23.989-.421 0-2.677-1.8-5.012-4-2.336-2.2-4.629-4-5.097-4-.467 0-2.161-1.238-3.765-2.75-1.603-1.512-4.145-3.389-5.648-4.169s-2.733-1.793-2.733-2.25-.59-.831-1.311-.831c-.722 0-2.184-.788-3.25-1.751-1.067-.963-4.077-2.834-6.689-4.157-2.612-1.324-4.75-2.812-4.75-3.308s-.414-.646-.919-.334c-.506.313-1.519-.005-2.25-.705-1.76-1.685-17.98-9.764-19.581-9.753-.687.004-1.25-.442-1.25-.992s-1.035-1-2.3-1-2.727-.369-3.25-.82c-.522-.451-4.325-1.856-8.45-3.123-4.125-1.266-8.175-2.54-9-2.83s-2.368-.694-3.429-.898-3.985-1.102-6.5-1.995c-7.437-2.643-22.405-5.117-38.071-6.292-13.116-.984-25.083-.983-39.5.004M774 285c0 .55.862 1 1.917 1 1.054 0 2.083.501 2.288 1.114s1.254.919 2.333.681c1.558-.344 1.165-.779-1.91-2.114-4.541-1.971-4.628-1.984-4.628-.681m-456 8c0 .55.9 1 2 1s2-.45 2-1-.9-1-2-1-2 .45-2 1m-4.167 1.75c-.183.413-2.47 1.833-5.083 3.157s-4.75 2.787-4.75 3.25-.59.843-1.311.843c-.722 0-2.278.9-3.459 2-1.18 1.1-2.53 2-3 2-.469 0-1.746.832-2.837 1.849s-2.576 2.045-3.298 2.286c-1.059.353-1.039.666.099 1.611 1.119.929 1.966.661 4.066-1.286 1.459-1.353 3.037-2.46 3.508-2.46.47 0 1.727-.788 2.793-1.75s3.192-2.397 4.724-3.188c1.532-.79 2.585-1.958 2.341-2.594-.286-.746.409-.993 1.965-.695 1.325.253 2.409.042 2.409-.47 0-.511 1.555-1.54 3.455-2.285s3.223-1.73 2.941-2.187c-.64-1.035-4.111-1.097-4.563-.081M760 296c0 1.1-.45 2-1 2s-1 1.098-1 2.441-.45 2.719-1 3.059-1 1.491-1 2.559-.352 1.941-.782 1.941-.882 1.212-1.005 2.694-.709 2.994-1.303 3.362c-1.947 1.203-.948 2.41 3.857 4.658 6.455 3.02 6.824 2.922 8.341-2.214.731-2.475 1.68-4.5 2.11-4.5s.782-1.098.782-2.441.45-2.719 1-3.059 1-1.491 1-2.559.45-1.941 1-1.941 1-1.35 1-3c0-2.514-.395-3-2.441-3-1.343 0-2.719-.45-3.059-1-1.225-1.983-6.5-1.171-6.5 1m39.908.794c-.845.987-1.806 2.497-2.135 3.355-1.023 2.665-15.773 3.338-15.773.719 0-1.317-2.986-1.037-4.321.406-1.999 2.16-1.802 3.694.81 6.306 1.381 1.381 2.511 2.168 2.511 1.75s2.475 1.683 5.5 4.67 5.5 5.803 5.5 6.258c0 .454.9 1.792 2 2.972 1.1 1.181 2 2.737 2 3.459 0 .721.45 1.311 1 1.311s1 .873 1 1.941.45 2.219 1 2.559 1 1.716 1 3.059.45 2.441 1 2.441 1 .9 1 2c0 1.778.667 2 6.014 2 3.307 0 7.02.563 8.25 1.25 3.647 2.039 6.713 4.979 6.146 5.895-.29.47-.051.855.531.855s1.059.9 1.059 2 .45 2 1 2 1 1.998 1 4.441-.45 4.719-1 5.059-1 1.281-1 2.092c0 1.946-6.508 8.408-8.467 8.408-.843 0-1.533.45-1.533 1 0 .571-3 1-7 1-6.333 0-7 .19-7 2 0 1.1-.45 2-1 2s-1 .9-1 2-.45 2-1 2-1 .801-1 1.779c0 .979-.876 2.411-1.946 3.182-1.071.772-1.745 1.729-1.499 2.128.517.836-11.403 12.911-12.745 12.911-.492 0-1.86.9-3.04 2-1.181 1.1-2.737 2-3.459 2-.721 0-1.311.45-1.311 1s-.873 1-1.941 1-2.219.45-2.559 1-1.69 1-3 1-2.631.402-2.935.894c-.838 1.356-7.955 2.334-19.065 2.62-12.707.328-12.715.328-12.11 1.308.279.452-.144 2.078-.941 3.614S728 423.852 728 424.614s-.45 1.386-1 1.386-1 1.035-1 2.3-.411 2.727-.914 3.25c-.502.522-1.064 2.063-1.25 3.422-.292 2.152.182 2.596 3.664 3.426 7.918 1.887 38.553.764 40.95-1.5.522-.494 1.687-.898 2.587-.898 2.124 0 17.881-7.888 20.402-10.212 1.066-.983 2.416-1.79 3-1.793 1.292-.006 19.561-18.401 19.561-19.697 0-.506.788-1.794 1.75-2.86 2.242-2.485 6.25-10.201 6.25-12.033 0-.773.477-1.405 1.059-1.405s.839-.356.57-.79c-.268-.435.1-2.123.819-3.75 4.843-10.962 5.494-26.784 1.965-47.719-.349-2.068-1.034-4.007-1.523-4.309-.49-.303-.89-1.339-.89-2.303s-.9-3.616-2-5.893-2-4.836-2-5.688-.374-1.548-.831-1.548-1.47-1.231-2.25-2.736-2.319-3.791-3.419-5.08-1.873-2.548-1.718-2.797c.239-.384-9.513-10.387-10.126-10.387-.117 0-.903.807-1.748 1.794M563.5 301c-.34.55.028 1 .819 1s1.992.67 2.672 1.489 1.635 1.242 2.122.941c.488-.301.887-.148.887.342s1.237 1.529 2.75 2.309 3.622 2.207 4.689 3.169c2.17 1.959 4.134 2.25 5.061.75.34-.55-.084-1-.941-1s-1.559-.45-1.559-1-.675-1-1.5-1-1.5-.45-1.5-1-.469-1-1.042-1-2.008-.9-3.188-2-2.737-2-3.459-2c-.721 0-1.311-.45-1.311-1s-.873-1-1.941-1-2.219.45-2.559 1m169.331 2.035c-.918.536-2.831 1.07-4.25 1.188s-2.581.565-2.581.995-.632.782-1.405.782c-4.587 0-24.533 16.075-24.579 19.809-.009.733-.524.995-1.171.596-.684-.423-.884-.277-.49.36.365.591-.016 1.753-.846 2.583S696 331.564 696 332.429s-.375 1.571-.833 1.571c-.459 0-.867.563-.908 1.25-.086 1.444-2.123 7.44-3.393 9.986-1.183 2.373-1.1 20.13.1 21.33.532.532 1.077 2.422 1.213 4.2s.601 3.234 1.034 3.234.787.632.787 1.405c0 4.47 14.199 22.595 17.701 22.595.742 0 1.619-1.35 1.949-3s.994-3 1.475-3 .875-1.035.875-2.3.39-2.727.868-3.25c1.731-1.896 2.102-7.23.59-8.485-.802-.666-1.458-1.83-1.458-2.587s-.367-1.378-.814-1.378c-1.149 0-5.186-7.812-5.186-10.035 0-1.016-.45-2.125-1-2.465-2.408-1.488-.307-23.5 2.243-23.5.417 0 .757-.9.757-2s.477-2 1.059-2 .814-.396.515-.88c-.717-1.16 9.119-11.12 10.981-11.12.795 0 1.445-.45 1.445-1s.9-1 2-1 2-.45 2-1 1.35-1 3-1 3-.45 3-1 2.057-1 4.571-1c4.949 0 7.429-1.626 7.429-4.87 0-1.106.45-2.29 1-2.63s1-1.941 1-3.559V302l-7.75.03c-4.263.017-8.501.469-9.419 1.005m-315.984 7.452c-.501.5-12.292 2.23-21.597 3.169-2.887.291-5.25.842-5.25 1.224s-1.462.804-3.25.938c-3.394.254-9.015 1.804-11.986 3.305-.955.482-2.868.877-4.25.877s-2.514.45-2.514 1-.697 1-1.548 1-3.411.9-5.688 2-4.73 2-5.452 2-1.312.375-1.312.833c0 .459-.656.834-1.457.834-2.108 0-18.543 8.452-18.543 9.537 0 .503-.414.658-.919.346s-1.599.111-2.429.941S328.746 340 328.26 340s-1.755.788-2.821 1.75-3.177 2.389-4.689 3.169-2.75 1.793-2.75 2.25-.608.831-1.352.831c-.743 0-2.764 1.35-4.491 3s-3.56 3-4.075 3c-1.624 0-29.159 28.066-28.532 29.081.329.533.228.845-.226.694-.453-.151-1.043.175-1.311.725s-2.181 2.798-4.25 4.995-3.763 4.559-3.763 5.25-.374 1.255-.831 1.255-1.47 1.238-2.25 2.75-2.207 3.622-3.169 4.689c-.962 1.066-1.75 2.491-1.75 3.166 0 .676-.416 1.378-.925 1.562-.509.183-1.071 1.008-1.25 1.833s-.652 1.745-1.052 2.045C257.374 413.093 248 432.337 248 434.16c0 1.012-.352 1.84-.782 1.84s-1.41 2.128-2.178 4.728c-.767 2.601-1.968 5.831-2.667 7.179s-1.042 2.819-.763 3.271c.28.452.031.822-.551.822S240 453.323 240 454.941s-.402 3.19-.894 3.494-1.131 2.243-1.419 4.309-1.03 5.781-1.648 8.256c-2.944 11.79-5.309 45-3.205 45 .556 0 1.231-4.703 1.543-10.75.803-15.583 2.537-27.975 5.633-40.25.624-2.475 1.376-5.962 1.672-7.75.295-1.788.829-3.25 1.186-3.25.358 0 1.767-3.6 3.132-8s2.824-8 3.241-8 .759-.81.759-1.8.412-2.227.916-2.75c.504-.522 1.067-1.85 1.25-2.95s.901-2.599 1.593-3.331c.693-.731 1.004-1.744.691-2.25-.312-.505-.091-.919.491-.919s1.059-.9 1.059-2 .338-2 .752-2c.413 0 1.871-2.137 3.24-4.75 1.368-2.613 3.28-5.622 4.248-6.689.968-1.066 1.76-2.528 1.76-3.25 0-.721.374-1.311.831-1.311s1.47-1.231 2.25-2.736 2.253-3.715 3.272-4.911 1.706-2.327 1.527-2.514 1.797-2.554 4.391-5.262 4.53-5.11 4.301-5.339c-.519-.518 20.118-21.234 21.166-21.248.419-.006 3.119-2.256 6-5s5.609-4.99 6.061-4.99c.453 0 1.713-.788 2.8-1.75 3.119-2.762 8.238-6.25 9.172-6.25.469 0 1.724-.788 2.79-1.751s4.076-2.834 6.689-4.157c2.613-1.324 4.75-2.786 4.75-3.249s.9-.843 2-.843 2-.375 2-.833c0-.459.563-.834 1.25-.835s4.168-1.426 7.735-3.167 7.189-3.165 8.05-3.165 1.993-.369 2.515-.819c.795-.686 9.921-3.696 25.021-8.254 1.689-.51 4.7-.927 6.691-.927s3.85-.372 4.131-.827 3.004-.928 6.051-1.051c3.046-.123 8.13-.649 11.298-1.167 3.167-.519 8.796-.946 12.508-.949 3.829-.003 6.75-.439 6.75-1.006 0-.999-20.178-1.488-21.153-.513M285 314c-.793 1.1-1.963 2-2.6 2s-2.901 1.69-5.029 3.756-4.321 3.979-4.871 4.25c-.55.272-.876.865-.725 1.318s-.133.573-.631.265c-.922-.57-25.144 23.131-25.144 24.603 0 .443-1.8 2.66-4 4.927s-4 4.644-4 5.281-.9 1.807-2 2.6c-1.78 1.283-2.86 5-1.452 5 .748 0 5.381-5.322 5.42-6.226.018-.4 2.282-3.086 5.032-5.969s5-5.6 5-6.036c0-.861 18.5-19.625 19.744-20.025.416-.134.632-.615.481-1.068s.102-.592.563-.307 3.29-1.819 6.286-4.676c2.997-2.856 5.703-5.193 6.015-5.193.951 0 6.892-4.95 6.902-5.75.019-1.571-3.614-.661-4.991 1.25m296.5-1c-.34.55.084 1 .941 1s1.559.45 1.559 1 .567 1 1.259 1c.693 0 1.822.9 2.509 2s1.755 2 2.373 2 1.852.791 2.742 1.758c3.923 4.265 9.446 8.33 10.675 7.858.907-.348 1.139.01.717 1.109-.471 1.228-.203 1.461 1.103.96 1.001-.384 1.476-.258 1.131.3-.744 1.205 14.222 16.299 15.424 15.556.484-.299.627.427.316 1.614-.386 1.479-.2 1.933.593 1.442.637-.393 1.158-1.259 1.158-1.925 0-1.263-19.007-20.672-20.244-20.672-.39 0-3.082-2.27-5.982-5.044-3.388-3.239-5.901-4.882-7.025-4.593-.964.248-1.502.046-1.197-.448.729-1.179-4.034-5.915-5.948-5.915-.817 0-1.764.45-2.104 1m190.85 2c-.33 1.65-.994 3-1.475 3s-.882 1.012-.89 2.25-.406 2.866-.883 3.62c-.605.954.308 2.58 3.015 5.37 2.136 2.201 3.883 4.622 3.883 5.381 0 .758.45 1.379 1 1.379s1 .873 1 1.941.45 2.219 1 2.559c.572.354 1 5.51 1 12.059 0 6.961-.392 11.441-1 11.441-.55 0-1 .886-1 1.97 0 8.895-15.376 21.013-28.574 22.518-7.336.837-9.589 1.439-8.992 2.406.255.412-.188 2.006-.985 3.542S738 397.852 738 398.614s-.45 1.386-1 1.386-1 1.098-1 2.441-.45 2.719-1 3.059-1 1.491-1 2.559c0 1.791.767 1.941 9.941 1.941 5.549 0 10.214-.442 10.559-1 .34-.55 2.166-1 4.059-1s3.441-.45 3.441-1 .632-1 1.405-1c1.832 0 9.548-4.008 12.033-6.25 1.066-.962 2.319-1.75 2.784-1.75 1.298 0 7.105-6.181 8.697-9.257.78-1.509 1.793-2.743 2.25-2.743s.831-.702.831-1.559.45-1.281 1-.941 1-.309 1-1.441.45-2.059 1-2.059 1-.9 1-2 .45-2 1-2c1.714 0 1.095-4.982-.882-7.104-2.966-3.183-3.836-16.706-1.216-18.896 1.533-1.281 3.098-5.245 3.098-7.846 0-3.49-5.472-14.53-9.245-18.654-1.51-1.65-2.748-3.37-2.75-3.821-.007-1.113-2.642-3.679-3.779-3.679-.504 0-1.731-.9-2.726-2-2.573-2.843-4.454-2.478-5.15 1M736 323.188c-6.253 2.631-7.611 3.317-9.25 4.674-.962.796-1.75 1.121-1.75.722 0-.872-2.01 1.242-3.764 3.958a741 741 0 0 1-3.247 4.958c-1.09 1.65-1.983 3.788-1.985 4.75S715.55 344 715 344c-.593 0-1 3.667-1 9s.407 9 1 9c.55 0 1 .681 1 1.514 0 4.085 8.219 12.878 15.43 16.505 8.929 4.493 23.761 3.371 30.009-2.269 1.066-.962 2.335-1.75 2.821-1.75 1.215 0 2.971-1.979 4.659-5.25.78-1.512 1.793-2.75 2.25-2.75s.831-.863.831-1.917.508-2.086 1.129-2.293c.723-.241 1.165-3.809 1.23-9.941.174-16.444-5.159-23.677-22.656-30.723-3.452-1.39-12.337-1.355-15.703.062m4.5 7.812c-.34.55-1.941 1-3.559 1s-2.941.45-2.941 1-.591 1-1.313 1c-1.614 0-6.687 5.162-6.687 6.805 0 .657-.45 1.195-1 1.195s-1 .873-1 1.941-.45 2.219-1 2.559-1 3.066-1 6.059.45 5.441 1 5.441 1 1.04 1 2.311c0 1.272.81 3.184 1.8 4.25.991 1.067 2.102 2.727 2.469 3.689.368.962 1.357 1.75 2.2 1.75.842 0 1.531.45 1.531 1s.9 1 2 1 2 .45 2 1c0 1.399 14.319 1.268 17.453-.161 1.401-.638 2.547-1.538 2.547-2s.597-.839 1.326-.839c1.716 0 5.9-4.44 5.016-5.324-.371-.372-.15-.676.491-.676.642 0 1.167-.9 1.167-2s.45-2 1-2c1.957 0 1.163-13.649-1.019-17.534-2.571-4.578-6.445-8.466-8.436-8.466-.85 0-1.545-.34-1.545-.757 0-2.093-12.327-4.142-13.5-2.243m-1.209 6.393c-8.927 3.286-14.158 14.649-10.041 21.807 2.023 3.519 7.117 8.273 9.263 8.645 1.093.19 2.437.667 2.987 1.061 1.143.819 1.684.79 6.5-.341 2.031-.478 5.284-2.602 7.75-5.062 4.079-4.069 4.25-4.487 4.25-10.385 0-8.383-1.736-11.368-8.5-14.613-4.922-2.362-8.042-2.646-12.209-1.112M804 347.709c-5.099 1.875-11.18 14.291-7 14.291.55 0 1 .695 1 1.545 0 3.472 4.646 6.455 10.055 6.455 7.167 0 11.945-4.527 11.945-11.317 0-2.484-.416-4.666-.925-4.85s-1.071-1.006-1.25-1.829c-.683-3.146-9.5-5.885-13.825-4.295m-572 20.224c0 .579-1.012 2.216-2.25 3.64s-2.025 2.674-1.75 2.781c.275.106-.512 1.28-1.75 2.608s-2.25 2.799-2.25 3.268c0 .47-.9 1.82-2 3-1.1 1.181-2 2.737-2 3.459 0 .721-.45 1.311-1 1.311s-1 .9-1 2-.45 2-1 2-1 .9-1 2-.45 2-1 2-1 .9-1 2-.45 2-1 2-1 .9-1 2-.45 2-1 2-1 .9-1 2-.45 2-1 2-1 .9-1 2-.45 2-1 2-1 .59-1 1.312-.9 3.175-2 5.452-2 4.81-2 5.629-.45 1.767-1 2.107-1 1.716-1 3.059-.45 2.441-1 2.441-1 1.35-1 3-.45 3-1 3-1 1.155-1 2.566-.453 3.412-1.007 4.447c-.554 1.034-1.102 3.03-1.218 4.434s-.563 2.553-.993 2.553-.782 1.773-.782 3.941-.394 4.184-.875 4.482c-.481.297-1.151 2.911-1.49 5.809-.338 2.897-1.093 7.968-1.678 11.268-3.122 17.635-3.088 61.935.062 78.5 1.847 9.72 2.83 14.399 3.991 19 .624 2.475 1.376 5.962 1.672 7.75.295 1.788.938 3.25 1.427 3.25s.891 1.35.891 3 .352 3 .782 3 .884 1.237 1.009 2.75.672 2.9 1.218 3.083.991 1.646.991 3.25.45 2.917 1 2.917 1 1.098 1 2.441.45 2.719 1 3.059 1 1.491 1 2.559.45 1.941 1 1.941 1 .9 1 2 .45 2 1 2 1 .9 1 2 .45 2 1 2 1 .81 1 1.801c0 2.234 2.235 7.181 3.25 7.191.412.004.75.935.75 2.067s.45 1.781 1 1.441 1-1.491 1-2.559-.45-1.941-1-1.941-1-.9-1-2-.45-2-1-2-1-.9-1-2-.45-2-1-2-1-.697-1-1.548-.9-3.411-2-5.688-2-4.73-2-5.452-.45-1.312-1-1.312-1-.9-1-2-.45-2-1-2-1-1.35-1-3-.45-3-1-3-1-.981-1-2.179c0-2.049-1.284-6.794-3.063-11.321-.433-1.1-1.065-3.35-1.406-5s-1.087-4.8-1.657-7-1.251-5.8-1.512-8-.88-4.9-1.374-6c-2.215-4.93-4.031-69.014-2.069-73 .542-1.1 1.202-4.25 1.467-7s.989-7.475 1.607-10.5c.619-3.025 1.368-7.413 1.666-9.75.299-2.337.947-4.25 1.442-4.25.494 0 .899-1.131.899-2.514s.395-3.295.877-4.25c1.454-2.877 3.123-8.743 3.123-10.974 0-1.152.446-2.245.991-2.429.546-.183 1.094-1.571 1.218-3.083.125-1.512.498-2.75.828-2.75.331 0 1.214-2.25 1.963-5s1.73-5 2.181-5c.45 0 .816-.562.813-1.25-.007-1.406 12.06-25.967 13.147-26.759.384-.281.847-1.163 1.029-1.961.181-.799 1.117-2.342 2.08-3.43.963-1.087 1.75-2.567 1.75-3.289 0-.721.374-1.311.831-1.311s1.47-1.238 2.25-2.75 2.206-3.622 3.169-4.689c1.959-2.17 2.25-4.134.75-5.061-.55-.34-1-.145-1 .433m191.785 16.615c-.301.302-3.864.996-7.917 1.542-13.171 1.776-14.873 2.108-15.433 3.016-.304.492-1.625.894-2.935.894s-2.66.45-3 1-1.69 1-3 1-2.66.45-3 1-1.491 1-2.559 1-1.941.45-1.941 1-.9 1-2 1-2 .45-2 1 1.098 1 2.441 1 2.719-.45 3.059-1 1.491-1 2.559-1 1.941-.477 1.941-1.059.37-.831.822-.551 2.027-.118 3.5-.882 2.678-1.222 2.678-1.019 1.462-.089 3.25-.652c8.123-2.557 14.707-3.708 31-5.418 3.712-.39 6.75-1.094 6.75-1.564 0-.924-13.31-1.212-14.215-.307M723.3 386.75c-.653 1.512-1.773 4.663-2.487 7s-1.64 4.25-2.056 4.25-.757 1.098-.757 2.441-.45 2.719-1 3.059-1 1.491-1 2.559-.45 1.941-1 1.941-1 1.098-1 2.441-.45 2.719-1 3.059-1 1.491-1 2.559-.352 1.941-.782 1.941-.882 1.212-1.005 2.694-.558 2.944-.968 3.25-.9 1.456-1.09 2.556-.687 2.45-1.105 3-1.373 3.137-2.123 5.75-1.634 4.75-1.965 4.75c-.33 0-1.213 2.25-1.962 5s-1.73 5-2.181 5c-.45 0-.819 1.098-.819 2.441s-.361 2.664-.802 2.937-1.422 2.774-2.181 5.559c-.758 2.784-1.649 5.063-1.979 5.063s-1.214 2.137-1.963 4.75-2.134 6.39-3.077 8.396c-.944 2.005-2.327 5.717-3.075 8.25-.748 2.532-1.711 4.604-2.141 4.604s-.782 1.098-.782 2.441-.45 2.719-1 3.059-1 1.491-1 2.559-.477 1.941-1.059 1.941-.831.37-.551.822-.064 1.924-.763 3.271c-.699 1.348-1.9 4.578-2.667 7.179-.768 2.6-1.775 4.728-2.237 4.728s-.613.37-.333.822-.064 1.924-.763 3.271c-.699 1.348-1.9 4.578-2.667 7.179-.768 2.6-1.748 4.728-2.178 4.728s-.782 1.098-.782 2.441-.45 2.719-1 3.059-1 1.491-1 2.559-.45 1.941-1 1.941-1 .9-1 2-.45 2-1 2-1 .68-1 1.511c0 1.515-22.624 24.489-24.117 24.489-.437 0-4.724 3.799-9.527 8.443-4.803 4.643-9.002 8.276-9.332 8.072-1.911-1.181-.661 4.939 1.437 7.037 3.312 3.312 4.486 3.111 9.039-1.552 2.148-2.2 4.248-4 4.667-4s3.745-2.812 7.392-6.25c3.648-3.437 7.039-6.137 7.537-6 .497.138.792-.087.654-.5-.137-.412.014-.75.337-.75 1.097 0 21.739-20.972 21.316-21.657-.232-.375.145-1.298.838-2.051 1.962-2.134 3.759-5.613 3.759-7.278 0-.833.45-1.514 1-1.514s1-1.098 1-2.441.45-2.719 1-3.059 1-1.288 1-2.107.9-3.352 2-5.629 2-4.929 2-5.893.45-2.031 1-2.371 1-1.288 1-2.107.9-3.352 2-5.629 2-4.73 2-5.452.45-1.312 1-1.312 1-1.098 1-2.441.45-2.719 1-3.059 1-1.69 1-3 .45-2.66 1-3 1-1.491 1-2.559.45-1.941 1-1.941 1-1.098 1-2.441.45-2.719 1-3.059 1-1.491 1-2.559.352-1.941.782-1.941.884-1.238 1.009-2.75.672-2.9 1.218-3.083.991-1.395.991-2.691c0-1.297.361-2.581.802-2.854.441-.272 1.422-2.774 2.181-5.559.758-2.784 1.747-5.063 2.198-5.063s.819-1.098.819-2.441.45-2.719 1-3.059 1-1.491 1-2.559.45-1.941 1-1.941 1-1.098 1-2.441.361-2.664.802-2.937 1.422-2.774 2.181-5.559c.758-2.784 1.774-5.063 2.257-5.063s.65-.37.37-.822c-.279-.452.064-1.924.763-3.271.699-1.348 1.9-4.578 2.667-7.179.768-2.6 1.748-4.728 2.178-4.728s.782-1.098.782-2.441.45-2.719 1-3.059 1-1.491 1-2.559.45-1.941 1-1.941 1-1.098 1-2.441.45-2.719 1-3.059 1-1.491 1-2.559.45-1.941 1-1.941 1-1.035 1-2.3.392-2.728.871-3.25c1.804-1.968 2.254-6.45.648-6.45-.835 0-1.519-.477-1.519-1.059s-.414-.803-.919-.491-1.599-.111-2.429-.941c-2.248-2.248-4.022-1.837-5.352 1.241m-346.982 12.637c.38.989-.049 1.235-1.495.856-1.115-.291-2.319-.122-2.675.377-.357.499-2.785 1.984-5.398 3.301-2.613 1.316-4.75 2.773-4.75 3.236s-.565.843-1.255.843c-.691 0-3.167 1.8-5.502 4s-4.751 4-5.367 4c-.765 0-.719.484.143 1.523 1.063 1.28.99 1.418-.455.863-1.632-.626-11.564 7.793-11.564 9.803 0 .42-2.25 3.123-5 6.006s-5 5.781-5 6.44-.416 1.348-.925 1.532-1.071.99-1.25 1.794c-.179.803-1.113 2.351-2.075 3.439-.962 1.087-1.75 2.567-1.75 3.289 0 .721-.45 1.311-1 1.311s-1 .707-1 1.571c0 .865-.679 2.251-1.509 3.081s-1.254 1.923-.941 2.429c.312.505.091.919-.491.919s-1.059.9-1.059 2-.45 2-1 2-1 .873-1 1.941-.45 2.219-1 2.559-1 1.498-1 2.573-.395 2.736-.877 3.691c-1.643 3.251-3.123 8.871-3.123 11.857 0 1.638-.406 3.406-.901 3.929-.496.522-1.156 3.65-1.466 6.95s-.87 9.262-1.243 13.25c-.821 8.774.982 10.104 2.032 1.5 1.894-15.515 2.49-19.266 4.333-27.25.064-.275.317-1.175.563-2l1.782-6c.734-2.475 1.889-5.593 2.566-6.928.678-1.336 1.003-2.798.724-3.25-.28-.452-.031-.822.551-.822s1.059-.612 1.059-1.36c0-1.836 6.067-13.661 8.25-16.079.962-1.066 1.75-2.528 1.75-3.25 0-.721.374-1.311.831-1.311s1.47-1.238 2.25-2.75 2.319-3.706 3.419-4.874c3.898-4.141 5.961-6.886 5.732-7.626-.128-.413.26-.638.861-.5.601.137 1.614-.631 2.25-1.708 1.588-2.686 3.353-4.54 4.336-4.552.451-.006 3.178-2.256 6.059-5s5.581-4.992 6-4.995c.419-.002 2.125-1.24 3.791-2.75s3.687-2.894 4.491-3.075 1.69-.649 1.971-1.039c.28-.39 2.867-1.858 5.75-3.262 5.14-2.505 5.84-3.869 1.985-3.869-1.243 0-1.749.498-1.408 1.387m45.182 21.587c-1.1.487-3.436.917-5.191.956s-3.469.52-3.809 1.07-1.69 1-3 1-2.66.45-3 1-1.31 1-2.157 1c-2.178 0-18.343 8.024-18.343 9.105 0 .492-.673.895-1.495.895-1.833 0-24.505 22.684-24.505 24.518 0 .724-.416 1.465-.925 1.649s-1.071 1.008-1.25 1.833-.603 1.725-.944 2c-1.218.984-5.899 11-5.148 11.015.422.009.207.371-.478.806s-1.346 2.003-1.468 3.485c-.123 1.482-.526 2.694-.896 2.694s-.924 1.462-1.232 3.25-1.129 6.175-1.826 9.75c-1.993 10.233-1.115 35.09 1.292 36.577.481.298.875 1.495.875 2.661 0 2.587 2.174 9.032 3.33 9.874.462.336.778 1.011.702 1.5-.221 1.409 4.221 10.388 5.139 10.388.456 0 .829.9.829 2s.45 2 1 2 1 .629 1 1.398C360 565.29 382.621 588 384.505 588c.822 0 1.495.385 1.495.855 0 1.11 15.986 9.164 18.167 9.153.916-.004 1.816.414 2 .931.183.516 1.458 1.122 2.833 1.346s3.175.668 4 .987c5.908 2.282 33.036 3.469 39.926 1.746 10.271-2.569 12.653-3.254 14.31-4.115.955-.497 2.418-.903 3.25-.903.833 0 1.514-.45 1.514-1s.9-1 2-1 2-.45 2-1 .9-1 2-1 2-.477 2-1.059.414-.803.919-.491 1.599-.111 2.429-.941S485.273 590 485.78 590c.508 0 2.336-1.35 4.063-3s3.619-3 4.207-3 .79-.45.45-1-.015-1 .722-1c1.372 0 12.778-10.969 12.778-12.288 0-.402 1.35-2.143 3-3.869s3-3.748 3-4.491c0-.744.45-1.352 1-1.352s1-.862 1-1.917c0-1.054.416-2.066.925-2.25.509-.183 1.071-.997 1.25-1.809s.892-2.086 1.584-2.831 1.004-1.768.691-2.274c-.312-.505-.091-.919.491-.919s1.059-.681 1.059-1.514c0-.832.395-2.295.877-3.25 1.643-3.251 3.123-8.871 3.123-11.857 0-1.638.474-3.453 1.053-4.032 1.84-1.84-.005-39.347-1.936-39.347-.374 0-.783-1.238-.908-2.75-.124-1.512-.672-2.9-1.218-3.083s-.991-1.646-.991-3.25-.477-2.917-1.059-2.917-.803-.414-.491-.919-.111-1.599-.941-2.429-1.509-2.216-1.509-3.081-.344-1.571-.764-1.571-1.527-1.762-2.46-3.915-2.812-5.03-4.175-6.393c-1.364-1.364-2.295-2.665-2.069-2.891s-2.726-3.524-6.56-7.329c-3.835-3.805-6.972-6.594-6.972-6.197 0 .396-1.659-.844-3.687-2.757s-3.876-3.289-4.106-3.058c-.231.231-1.357-.453-2.502-1.52s-2.672-1.94-3.394-1.94c-.721 0-1.311-.45-1.311-1s-.9-1-2-1-2-.45-2-1-.9-1-2-1-2-.45-2-1-1.35-1-3-1-3-.365-3-.811c0-.725-2.589-1.524-12.5-3.857-4.586-1.08-29.735-1.361-32-.358m1 6.026c-1.1.473-3.436.891-5.191.93-1.755.038-3.469.52-3.809 1.07s-1.44 1-2.445 1-3.083.652-4.619 1.449-3.162 1.22-3.614.941c-.452-.28-.822-.031-.822.551s-.863 1.059-1.917 1.059-2.066.416-2.25.925c-.183.509-.99 1.071-1.794 1.25-.803.179-2.351 1.113-3.439 2.075-1.087.962-2.567 1.75-3.289 1.75-.721 0-1.311.374-1.311.831s-1.23 1.47-2.732 2.25c-2.914 1.513-15.265 13.361-15.273 14.65-.002.423-1.375 2.231-3.05 4.019-1.676 1.788-2.729 3.25-2.341 3.25s.039.788-.776 1.75c-2.225 2.626-7.828 14.177-7.828 16.136 0 .943-.378 2.142-.839 2.664s-1.332 3.425-1.935 6.45-1.575 7.897-2.161 10.826c-1.304 6.523-1.378 15.22-.157 18.433.5 1.313 1.033 4.155 1.186 6.315.153 2.159.601 4.376.995 4.926s.871 2.35 1.06 4 .57 3.225.847 3.5c.516.512 2.933 6.721 3.3 8.476.112.537.771 1.586 1.463 2.331s1.004 1.768.691 2.274c-.312.505-.168.919.322.919s1.529 1.231 2.309 2.736 2.253 3.715 3.272 4.911 1.912 2.552 1.985 3.014c.195 1.239 14.062 15.089 14.748 14.73.323-.169 2.158 1.137 4.077 2.901s4.132 3.354 4.914 3.533c.783.179 1.573.741 1.756 1.25s1.196.925 2.25.925 1.917.45 1.917 1 .9 1 2 1 2 .477 2 1.059.37.831.822.551 2.078.144 3.614.941 3.551 1.449 4.478 1.449 2.113.404 2.636.898c3.418 3.229 43.482 3.229 46.9 0 .523-.494 1.727-.898 2.677-.898 2.183 0 17.727-7.808 20.312-10.203 1.066-.989 2.367-1.797 2.891-1.797 1.243 0 19.67-18.427 19.67-19.67 0-.524.8-1.825 1.777-2.891 2.22-2.423 8.223-14.121 8.223-16.025 0-.778.401-1.414.891-1.414.489 0 1.132-1.462 1.427-3.25s1.089-5.275 1.762-7.75c1.575-5.788 2.355-30.756 1.045-33.46-.544-1.122-1.228-3.39-1.52-5.04-1.345-7.59-1.926-10.036-2.493-10.5-.581-.475-2.973-6.414-3.408-8.461-.112-.528-.992-1.851-1.954-2.939-.962-1.087-1.75-2.567-1.75-3.289 0-.721-.374-1.311-.831-1.311s-1.468-1.238-2.247-2.75c-1.585-3.079-19.238-21.25-20.644-21.25-.495 0-1.774-.788-2.84-1.75-2.485-2.242-10.201-6.25-12.033-6.25-.773 0-1.405-.375-1.405-.833 0-.459-.562-.876-1.25-.929-.687-.052-4.175-1.066-7.75-2.253s-7.882-2.569-9.571-3.072c-3.839-1.141-26.226-1.074-28.929.087m265.032 2.514c.391 2.192 1.106 4.414 1.589 4.936.484.522.879 2.435.879 4.25s.45 3.3 1 3.3 1 .873 1 1.941.45 2.219 1 2.559 1-.084 1-.941.45-1.559 1-1.559 1-1.098 1-2.441.45-2.719 1-3.059 1-1.968 1-3.618-.421-2.74-.935-2.422c-.515.318-2.09-.576-3.5-1.986S691 428.224 691 428.61s-.94-.151-2.09-1.191l-2.089-1.891zM430 500.883c0 .486-.9 1.119-2 1.407-1.1.287-2 1.24-2 2.116s-.45 1.594-1 1.594-1 .681-1 1.514c0 .832-.535 2.369-1.188 3.415-.928 1.486-.89 2.803.172 6.022 2.535 7.683 8.008 10.726 16.766 9.322 10.067-1.613 14.068-15.255 6.65-22.673-3.383-3.383-3.985-3.6-10-3.6-3.52 0-6.4.398-6.4.883m1.09 6.881c-7.727 7.384 2.347 19.06 10.402 12.056 2.865-2.491 3.559-9.912 1.152-12.319-3.03-3.03-8.233-2.911-11.554.263M566.771 512c-.401 1.375-.921 6.1-1.155 10.5-.489 9.171-2.459 19.753-5.432 29.175-.55 1.746-.742 3.433-.426 3.75.316.316.05.575-.591.575-.642 0-1.167.873-1.167 1.941s-.45 2.219-1 2.559-1 1.524-1 2.63c0 1.107-.679 2.692-1.509 3.522s-1.254 1.923-.941 2.429c.312.505.091.919-.491.919s-1.059.707-1.059 1.571c0 .865-.679 2.251-1.509 3.081s-1.254 1.923-.941 2.429c.312.505.168.919-.322.919s-1.529 1.231-2.309 2.736-2.253 3.715-3.272 4.911-1.807 2.439-1.751 2.763-1.698 2.499-3.897 4.834-3.999 4.592-3.999 5.017c0 1.032-14.705 15.701-15.222 15.184-.222-.223-2.064 1.161-4.092 3.074-2.029 1.913-3.877 3.367-4.107 3.23s-1.468.651-2.752 1.751-4.469 3.083-7.08 4.407-4.747 2.712-4.747 3.084-.562.68-1.25.686c-.687.005-3.247.98-5.688 2.166-2.441 1.187-5.028 2.157-5.75 2.157s-1.312.45-1.312 1-1.35 1-3 1-3 .401-3 .891c0 .489-1.462 1.112-3.25 1.384s-5.95 1.17-9.25 1.997c-6.797 1.703-19.299 3.728-23.019 3.728-1.364 0-2.481.45-2.481 1 0 1.314 7.833 1.275 15.44-.077 12.392-2.203 17.085-3.267 18.01-4.084.523-.461 2.21-.839 3.75-.839s2.8-.45 2.8-1 1.098-1 2.441-1 2.719-.45 3.059-1 1.491-1 2.559-1 1.941-.45 1.941-1 .663-1 1.473-1c2.012 0 10.527-4.206 10.527-5.199 0-.441.9-.801 2-.801s2-.45 2-1 .59-1 1.311-1c.722 0 2.205-.832 3.296-1.849s2.463-2.029 3.048-2.25c3.166-1.194 26.345-22.38 26.345-24.08 0-.449 1.566-2.477 3.48-4.506s3.3-3.868 3.081-4.088c-.219-.219.511-1.445 1.623-2.723 1.112-1.279 1.937-2.653 1.833-3.053-.103-.4.283-1.018.858-1.374 1.56-.964 9.125-16.065 9.125-18.215 0-1.024.45-1.862 1-1.862s1-.681 1-1.514c0-.832.395-2.295.877-3.25 1.46-2.889 3.123-8.746 3.123-10.998 0-1.166.45-2.398 1-2.738s1-1.971 1-3.625.464-3.874 1.032-4.934c.592-1.107.912-6.936.75-13.685-.168-6.998-.577-10.744-1.011-9.256m85.282 70.566c-3.545 3.506-6.611 6.209-6.813 6.008-.201-.202-4.041 3.187-8.532 7.53S627.97 604 627.271 604c-.771 0-1.271 1.297-1.271 3.297 0 3.07-5.938 10.703-8.325 10.703-2.063 0-7.675 7.144-7.675 9.77 0 1.93-1.12 3.923-3.5 6.23-1.925 1.866-3.5 3.069-3.5 2.674 0-.394-2.516 1.799-5.592 4.874-5.394 5.395-5.53 5.66-3.845 7.522.961 1.061 1.462 1.93 1.114 1.93s1.833 2.545 4.845 5.656c3.013 3.11 5.478 5.966 5.478 6.347 0 .38.891 1.718 1.979 2.973s1.737 2.674 1.441 3.153.389.871 1.521.871 2.064-.562 2.069-1.25c.006-.687 2.256-3.607 5-6.488s4.99-5.627 4.99-6.102 1.461-2.393 3.248-4.262c1.786-1.869 3.09-3.551 2.897-3.737-.193-.187.594-1.426 1.749-2.754 1.154-1.327 2.054-2.677 2-3-.055-.322.734-1.589 1.753-2.816s2.002-2.87 2.183-3.652c.182-.781.643-1.649 1.025-1.93s1.807-2.647 3.168-5.259c1.36-2.612 2.812-4.75 3.225-4.75s.752-.9.752-2 .477-2 1.059-2 .803-.414.491-.919-.002-1.529.691-2.274c.692-.745 1.405-2.019 1.584-2.831s.741-1.626 1.25-1.809.925-1.395.925-2.691c0-1.297.45-2.636 1-2.976s1-1.491 1-2.559.45-1.941 1-1.941 1-1.35 1-3 .45-3 1-3 1-1.098 1-2.441.45-2.719 1-3.059 1-1.69 1-3 .402-2.631.894-2.935c1.296-.8 1.877-8.585.632-8.469-.564.053-3.927 2.964-7.473 6.47m-49.002 14.923c-1.896 1.861-3.82 3.154-4.274 2.873s-.703-.14-.552.314c.151.453-.079.92-.511 1.038-3.654.997-4.578 5.194-1.714 7.786 1.1.995 2 2.205 2 2.688 0 1.374 6.784 7.814 8.217 7.799.706-.007 4.117-2.892 7.582-6.412l6.299-6.399-6.239-6.588c-3.432-3.623-6.491-6.564-6.799-6.535s-2.112 1.576-4.009 3.436M581.5 611c-1.581 1.65-3.22 3-3.643 3s-4.706 3.807-9.519 8.46-8.938 8.274-9.166 8.045-2.125 1.365-4.215 3.54c-3.604 3.751-4.112 3.955-9.843 3.955h-6.042l-7.283 7c-4.006 3.85-7.634 7-8.062 7-1.401 0-9.747 8.929-9.484 10.146.142.652 3.289 4.374 6.994 8.27s6.743 7.405 6.75 7.798c.027 1.482 12.649 13.786 14.142 13.786.858 0 2.376-.9 3.371-2s2.168-2 2.605-2 5.093-4.174 10.345-9.275c9.411-9.139 9.55-9.343 9.55-14 0-2.599.343-4.725.763-4.725.419 0 1.207-.961 1.75-2.137.543-1.175 1.212-1.982 1.487-1.794s3.616-2.653 7.424-6.315c3.809-3.661 7.307-6.42 7.775-6.131s.727-.07.576-.799c-.151-.728.288-1.212.975-1.074s1.138-.087 1-.5.002-.75.31-.75c.873 0 12.94-12.513 12.94-13.418 0-.444-2.138-3.162-4.75-6.042s-4.63-5.425-4.483-5.655c.499-.783-6.694-7.385-8.047-7.385-.74 0-2.639 1.35-4.22 3M216 636c0 1.1.45 2 1 2s1 .9 1 2 .34 2 .756 2 1.353 1.35 2.084 3c1.518 3.431 3.16 3.95 3.16 1 0-1.1-.45-2-1-2s-1-.59-1-1.311c0-.722-.9-2.278-2-3.459-1.1-1.18-2-2.84-2-3.688s-.45-1.542-1-1.542-1 .9-1 2m434 6.441c0 .857-.45 1.559-1 1.559s-1 .873-1 1.941.45 2.219 1 2.559 1-.084 1-.941.45-1.559 1-1.559 1-.873 1-1.941-.45-2.219-1-2.559-1 .084-1 .941m-425.784 5.799c-1.559 1.878 1.927 6.395 3.981 5.16 1.038-.625 1.057-.48.093.712-.98 1.213-.744 1.997 1.25 4.148 1.353 1.459 2.46 3.056 2.46 3.548s1.35 2.308 3 4.035c1.65 1.726 3 3.495 3 3.929 0 .435 2.24 3.139 4.978 6.009s4.657 5.219 4.267 5.219c-.391 0 4.209 4.935 10.222 10.967s11.096 10.803 11.296 10.603 2.698 1.834 5.55 4.519c2.853 2.685 5.637 4.996 6.187 5.134s2.798 1.945 4.995 4.014 4.353 3.763 4.791 3.763 1.764.9 2.944 2c1.181 1.1 2.737 2 3.459 2 .721 0 1.311.398 1.311.883 0 .486.788 1.133 1.75 1.439 2.078.659 7.166 3.696 8.965 5.352.702.646 3.866 2.43 7.031 3.964s5.904 3.143 6.087 3.575c.184.433 1.196.787 2.25.787s1.917.45 1.917 1 .873 1 1.941 1 2.219.45 2.559 1 1.491 1 2.559 1 1.941.45 1.941 1 1.125 1 2.5 1 2.5.45 2.5 1 .873 1 1.941 1 2.219.45 2.559 1 1.716 1 3.059 1 2.441.45 2.441 1 1.35 1 3 1 3 .34 3 .757c0 .914 7.168 3.243 9.984 3.243 1.109 0 2.016.401 2.016.891 0 .489 1.462 1.132 3.25 1.427 1.787.296 5.275 1.043 7.75 1.661s6.863 1.382 9.75 1.697c2.887.314 5.25.966 5.25 1.448s2.673.876 5.941.876 6.181.389 6.475.865c1.418 2.294 63.584 2.371 63.584.079 0-.427-12.712-.798-28.25-.823s-29.375-.324-30.75-.665c-1.375-.34-5.425-1.018-9-1.506-12.2-1.664-14.501-2.074-16.5-2.944-1.1-.478-3.575-1.147-5.5-1.485s-4.967-.869-6.759-1.179-3.507-.963-3.809-1.452c-.303-.49-1.43-.89-2.505-.89s-2.736-.406-3.691-.903c-.955-.496-3.761-1.474-6.236-2.173s-4.928-1.644-5.45-2.098-1.985-.826-3.25-.826-2.3-.45-2.3-1-.681-1-1.514-1c-.832 0-2.407-.45-3.5-1l-3.972-2c-1.093-.55-2.668-1-3.5-1-.833 0-1.514-.45-1.514-1s-.9-1-2-1-2-.45-2-1-.9-1-2-1-2-.45-2-1-.707-1-1.571-1c-.865 0-2.251-.679-3.081-1.509s-1.923-1.254-2.429-.941c-.505.312-.919.091-.919-.491s-.694-1.059-1.542-1.059-2.508-.9-3.688-2-2.737-2-3.459-2c-.721 0-1.311-.45-1.311-1s-.672-1-1.492-1c-.821 0-2.581-.946-3.911-2.103-1.33-1.156-2.693-2.046-3.028-1.978-.335.069-1.814-.992-3.285-2.357-2.171-2.012-2.959-2.253-4.172-1.272-1.189.962-1.337.946-.721-.079.73-1.214-7.231-9.704-8.196-8.74-.215.216-3.53-2.614-7.367-6.289-3.836-3.675-7.46-6.855-8.054-7.066-1.245-.443-13.071-12.118-13.793-13.616-.264-.55-.852-.876-1.305-.725-.454.151-.601-.087-.328-.53.707-1.143-9.099-11.517-10.227-10.82-.514.318-.724-.227-.467-1.211.279-1.065-.67-2.996-2.343-4.769-1.546-1.639-3.45-4.209-4.23-5.712s-1.793-2.733-2.25-2.733-.831-.59-.831-1.311c0-.722-.832-2.205-1.849-3.296s-2.045-2.576-2.286-3.298c-.349-1.048-.684-1.018-1.649.145M646 649.5c0 .825-.45 1.5-1 1.5s-1 .675-1 1.5-.374 1.5-.831 1.5-1.47 1.23-2.25 2.733-2.684 4.073-4.23 5.712c-1.673 1.773-2.622 3.704-2.343 4.769.257.984.058 1.536-.441 1.227-.892-.551-9.821 8.326-9.877 9.818-.015.418-6.099 6.83-13.519 14.25s-13.832 13.504-14.25 13.519c-1.875.07-10.332 9.047-9.627 10.22.596.993.439.999-.76.029-1.247-1.009-2.158-.614-5.194 2.25-2.026 1.91-4.257 3.473-4.96 3.473-.702 0-1.925.9-2.718 2s-2.242 2-3.221 2c-.978 0-1.779.45-1.779 1s-.59 1-1.311 1c-.722 0-2.278.9-3.459 2-1.18 1.1-2.803 2-3.605 2s-1.608.343-1.792.762c-.446 1.022-20.995 11.254-22.583 11.245-.687-.004-1.25.443-1.25.993s-1.098 1-2.441 1-2.719.45-3.059 1-1.491 1-2.559 1-1.941.45-1.941 1-1.35 1-3 1-3 .45-3 1-1.098 1-2.441 1-2.719.45-3.059 1-1.69 1-3 1-2.629.4-2.932.89c-.302.489-2.016 1.131-3.809 1.427-1.792.296-5.284 1.061-7.759 1.7s-6.413 1.392-8.75 1.673-4.25.916-4.25 1.411c0 .494-2.727.899-6.059.899-3.785 0-5.827.375-5.441 1 .771 1.248 11.5 1.334 11.5.093 0-.5 2.363-1.109 5.25-1.354 4.651-.395 15.612-2.873 19.75-4.464.825-.317 2.098-.699 2.828-.849.731-.15 2.081-.601 3-1.003.92-.402 2.789-.916 4.153-1.142 1.365-.226 2.715-.72 3-1.096s1.419-.835 2.519-1.019 2.428-.746 2.95-1.25 1.76-.916 2.75-.916 1.8-.45 1.8-1 .886-1 1.97-1c1.083 0 3.572-.9 5.53-2s4.222-2 5.03-2c.809 0 1.47-.477 1.47-1.059s.414-.803.919-.491 1.529.002 2.274-.691c.745-.692 2.019-1.405 2.831-1.584s1.627-.744 1.811-1.256c.185-.512.711-.7 1.17-.416.458.283 1.433-.054 2.164-.75.732-.695 3.469-2.345 6.081-3.666s4.75-2.781 4.75-3.244.59-.843 1.311-.843c.722 0 2.184-.788 3.25-1.75 1.067-.962 3.176-2.389 4.689-3.169s2.75-1.793 2.75-2.25.59-.831 1.311-.831c.722 0 2.278-.9 3.459-2 1.18-1.1 2.505-2 2.944-2 .438 0 2.669-1.763 4.957-3.918s4.362-3.715 4.61-3.467c.616.615 34.719-33.511 34.719-34.742 0-.54 1.348-2.42 2.995-4.177 1.648-1.758 2.998-3.538 3-3.955.003-.418 1.355-2.172 3.005-3.898 1.65-1.727 3-3.542 3-4.033s.9-1.86 2-3.04c1.1-1.181 2-2.737 2-3.459 0-.721.45-1.311 1-1.311s1-.9 1-2-.45-2-1-2-1 .675-1 1.5m-113.25 5.119c-5.337 5.189-5.997 7.381-2.224 7.381 2.825 0 11.474-7.895 11.474-10.474 0-3.043-4.479-1.545-9.25 3.093m52.5-2.888c-1.646.574-1.619 4.269.031 4.269.705 0 3.63 2.24 6.5 4.978s5.219 4.684 5.219 4.325c0-.358 1.125.405 2.5 1.697 3.953 3.714 2.909.746-1.5-4.263-2.2-2.499-4-4.833-4-5.186 0-2.267-6.514-6.6-8.75-5.82M550 668.964c-1.375 1.597-3.288 3.116-4.25 3.376-2.434.657-2.408 5.66.029 5.66.979 0 2.411-.876 3.182-1.946.772-1.071 1.706-1.76 2.076-1.531 1.006.621 4.608-3.698 5.231-6.273.813-3.36-3.149-2.909-6.268.714"/></svg>