<svg xmlns="http://www.w3.org/2000/svg" viewBox="0 0 1024 1024"><path fill="#00e5cc" d="M596.5 156.171c-3.3 1.125-6.781 2.448-7.736 2.938s-2.568.891-3.584.891-2.164.317-2.551.704c-.388.388-1.917.867-3.398 1.066-1.481.198-2.927.669-3.212 1.045-.286.377-1.644.844-3.019 1.037-1.375.194-3.258.757-4.184 1.25-.927.494-2.839.898-4.25.898s-2.566.45-2.566 1-1.35 1-3 1-3 .45-3 1-.953 1-2.119 1c-2.18 0-14.026 3.54-17.117 5.115-.955.487-2.568.885-3.584.885s-2.16.313-2.542.696c-.383.382-1.47.803-2.417.935-2.611.365-9.5 2.449-11.457 3.466-.955.497-2.616.903-3.691.903s-2.233.45-2.573 1-1.941 1-3.559 1-2.941.45-2.941 1-.953 1-2.119 1c-1.165 0-4.878.866-8.25 1.925A794 794 0 0 1 480 192.028c-4.125 1.198-8.281 2.581-9.236 3.075-.955.493-2.568.897-3.584.897s-2.16.313-2.542.696c-.383.382-1.47.802-2.417.932-2.415.332-15.362 4.392-17.457 5.475-.955.493-2.568.897-3.584.897s-2.16.313-2.542.696c-.383.382-1.47.802-2.417.932-1.484.204-12.735 3.566-17.221 5.146-.825.29-2.175.655-3 .809-1.382.259-13.524 3.966-17 5.191-.825.29-2.175.655-3 .809-2.654.497-15.442 4.593-17.236 5.52-.955.493-2.616.897-3.691.897s-2.233.45-2.573 1-1.69 1-3 1-2.66.45-3 1-1.572 1-2.738 1c-2.252 0-8.109 1.663-10.998 3.123-.955.482-2.616.877-3.691.877s-2.233.45-2.573 1-1.69 1-3 1-2.66.45-3 1-1.572 1-2.738 1c-2.252 0-8.109 1.663-10.998 3.123-.955.482-2.568.877-3.584.877s-2.158.312-2.539.692c-.381.381-1.693.844-2.917 1.028s-4.729 1.223-7.791 2.308c-3.061 1.085-6.549 1.972-7.75 1.972s-2.183.375-2.183.833c0 .459-.666.834-1.48.834-1.833 0-9.41 2.211-11.756 3.43-.955.497-2.53.904-3.5.904-.97.001-3.002 1.066-4.514 2.367l-2.75 2.365v279.633c0 185.756.336 279.634 1 279.634.55 0 1 .9 1 2s.45 2 1 2 1 .608 1 1.352c0 1.897 5.877 7.842 7.041 7.123.527-.326.959-.116.959.466s.81 1.059 1.8 1.059 2.235.435 2.766.966c.532.532 2.422 1.077 4.2 1.213s3.234.601 3.234 1.034 1.155.787 2.566.787 3.358.424 4.327.943 2.851 1.124 4.184 1.346 3.098.634 3.923.916c5.572 1.904 8.867 2.795 10.335 2.795.93 0 2.474.406 3.429.903.955.496 3.649 1.396 5.986 2 2.337.603 5.938 1.576 8 2.161s4.425 1.192 5.25 1.349 2.175.525 3 .818c4.114 1.462 10.204 3.102 11.52 3.102.814 0 1.48.375 1.48.834s.953.833 2.119.833c1.165 0 4.878.869 8.25 1.93 3.372 1.062 8.156 2.447 10.631 3.079 6.262 1.598 17.349 4.779 24.631 7.066 3.372 1.059 6.866 1.925 7.764 1.925s2.414.395 3.369.877C426.367 869.708 436 871.05 436 869c0-.55.608-1 1.352-1 .743 0 2.687-1.237 4.319-2.75s3.547-2.879 4.256-3.036c.708-.157 1.946-.944 2.752-1.75.805-.805 1.861-1.464 2.347-1.464s2.018-1.135 3.406-2.523c1.387-1.387 2.87-2.529 3.295-2.537s1.673-.797 2.773-1.753 2.301-1.727 2.67-1.713 1.725-.874 3.014-1.974 3.575-2.639 5.08-3.419 2.736-1.793 2.736-2.25.59-.831 1.311-.831c.722 0 2.184-.788 3.25-1.75 1.067-.962 3.177-2.389 4.689-3.169s2.75-1.793 2.75-2.25.59-.831 1.311-.831c.722 0 2.184-.788 3.25-1.75 1.067-.962 3.177-2.389 4.689-3.169s2.75-1.793 2.75-2.25.59-.831 1.311-.831c.722 0 2.184-.788 3.25-1.75 1.067-.962 3.177-2.389 4.689-3.169s2.75-1.793 2.75-2.25.59-.831 1.311-.831c.722 0 2.278-.9 3.459-2 1.18-1.1 2.548-2 3.04-2 .491 0 2.229-1.237 3.861-2.75s3.583-2.891 4.335-3.062c.752-.172 2.149-1.214 3.105-2.316s2.109-1.99 2.563-1.975c.454.016 1.732-.742 2.84-1.684s3.245-2.352 4.75-3.132 2.736-1.793 2.736-2.25.59-.831 1.311-.831c.722 0 2.184-.788 3.25-1.75 1.067-.962 3.176-2.389 4.689-3.169s2.75-1.793 2.75-2.25.59-.831 1.311-.831c.722 0 2.184-.788 3.25-1.75 1.067-.962 3.176-2.389 4.689-3.169s2.75-1.793 2.75-2.25.608-.831 1.352-.831c.743 0 2.687-1.237 4.319-2.75s3.607-2.899 4.389-3.08 1.65-.647 1.931-1.035c.28-.387 3.072-2.384 6.206-4.438 3.133-2.053 6.293-4.287 7.023-4.965s1.963-1.373 2.74-1.544 2.195-1.214 3.151-2.316 2.037-1.928 2.403-1.835c.365.093 1.751-.776 3.079-1.931 1.327-1.154 2.677-2.054 3-2 .322.055 1.564-.734 2.76-1.753s3.406-2.492 4.911-3.272 2.736-1.793 2.736-2.25.59-.831 1.311-.831c.722 0 2.184-.788 3.25-1.75 1.067-.962 3.176-2.389 4.689-3.169s2.75-1.793 2.75-2.25.59-.831 1.311-.831c.722 0 2.184-.788 3.25-1.75 1.067-.962 3.176-2.389 4.689-3.169s2.75-1.793 2.75-2.25.801-.831 1.779-.831c.979 0 2.428-.9 3.221-2s1.932-2 2.532-2 1.963-.788 3.029-1.75c1.067-.962 3.176-2.389 4.689-3.169s2.75-1.793 2.75-2.25.59-.831 1.311-.831c.722 0 2.184-.788 3.25-1.75 1.067-.962 3.176-2.389 4.689-3.169s2.75-1.793 2.75-2.25.608-.831 1.352-.831c.743 0 2.766-1.352 4.495-3.005s3.484-3.019 3.899-3.037 1.66-.803 2.768-1.745 3.245-2.352 4.75-3.132 2.736-1.793 2.736-2.25.59-.831 1.311-.831c.722 0 2.278-.9 3.459-2 1.18-1.1 2.53-2 3-2 .469 0 1.829-.909 3.022-2.021s2.367-1.899 2.608-1.75 1.495-.629 2.784-1.729 3.575-2.639 5.08-3.419 2.736-1.793 2.736-2.25.59-.831 1.311-.831c.722 0 2.278-.9 3.459-2 1.18-1.1 2.53-2 3-2 1.505 0 5.295-4.086 4.693-5.06-.319-.517-.104-.94.478-.94s1.059-.624 1.059-1.386.652-2.642 1.449-4.178 1.22-3.162.941-3.614c-.28-.452-.113-.822.37-.822s1.491-2.25 2.24-5 1.632-5 1.962-5 1.23-2.128 1.998-4.728c.767-2.601 1.968-5.831 2.667-7.179s1.042-2.819.763-3.271c-.28-.452-.031-.822.551-.822s1.059-.873 1.059-1.941.45-2.219 1-2.559 1-1.716 1-3.059.34-2.441.755-2.441c3.551 0 3.569-1.114 3.899-229.5.176-122.1-.012-222.518-.417-223.151-.876-1.37-4.502-2.095-17.237-3.447-8.499-.902-13.098-1.432-29-3.339-5.982-.718-13.567-1.457-24.518-2.39-4.959-.422-9.468-1.046-10.02-1.387s-3.693-.726-6.982-.855-6.655-.566-7.48-.97-5.775-1.015-11-1.357-13.1-1.07-17.5-1.617c-16.312-2.03-21.613-1.995-28 .184m4.5 6.736c-1.705 1.011-14.611 5.107-17.221 5.465-.947.13-2.034.55-2.417.932-.382.383-1.526.696-2.542.696s-2.629.404-3.584.897c-1.826.943-20.66 7.038-23.236 7.52a26 26 0 0 0-3 .798c-7.425 2.558-15.055 4.785-16.395 4.785-.898 0-2.414.406-3.369.903-1.761.915-9.904 3.351-11.736 3.51-.55.048-1.225.378-1.5.734s-1.625.806-3 1-2.733.661-3.019 1.038c-.285.376-1.635.87-3 1.096s-3.156.65-3.981.943c-4.378 1.549-15.73 4.943-17.221 5.148-.947.13-2.034.55-2.417.932-.382.383-1.526.696-2.542.696s-2.629.406-3.584.903c-1.711.889-8.31 2.952-11.236 3.513-.825.157-2.625.751-4 1.318s-2.837.832-3.25.59c-.413-.243-.75.035-.75.617s-1.012 1.071-2.25 1.085-5.397 1.098-9.244 2.408-7.334 2.172-7.75 1.915-.756.01-.756.592-1.131 1.059-2.514 1.059-3.295.406-4.25.903c-1.957 1.017-8.846 3.101-11.457 3.466-.947.132-2.034.553-2.417.935-.382.383-1.719.696-2.97.696s-2.552.45-2.892 1-1.498 1-2.573 1-2.736.404-3.691.897c-2.555 1.321-15.978 5.436-17.729 5.436-.829 0-1.507.375-1.507.834s-1.131.833-2.514.833-3.295.395-4.25.877c-2.889 1.46-8.746 3.123-10.998 3.123-1.166 0-2.398.45-2.738 1s-1.626 1-2.859 1-2.676.435-3.207.966c-.532.532-2.422 1.077-4.2 1.213s-3.234.601-3.234 1.034-1.323.787-2.941.787-3.219.45-3.559 1-1.626 1-2.859 1-2.676.435-3.207.966c-.532.532-2.422 1.077-4.2 1.213s-3.234.601-3.234 1.034-.9.787-2 .787-2 .45-2 1 1.098 1 2.441 1 2.719.45 3.059 1 3.04 1 6 1 5.61.368 5.888.819 2.813.924 5.633 1.053 6.106.583 7.303 1.009c1.197.427 4.422.894 7.168 1.038 2.745.144 5.367.494 5.827.778s3.838.957 7.508 1.496c10.491 1.54 19.218 2.95 35.673 5.766 8.648 1.48 18.105 2.988 25 3.988 6.306.914 16.926 2.667 22 3.631 1.794.341 4.177-.042 5.928-.953 1.611-.837 3.298-1.294 3.75-1.015s.822.031.822-.551 1.313-1.059 2.917-1.059 3.066-.446 3.25-.991c.183-.546 1.571-1.094 3.083-1.218 1.512-.125 2.75-.481 2.75-.791s2.137-1.177 4.75-1.927 5.235-1.739 5.828-2.198c.594-.46 1.944-1.002 3-1.205s2.674-.697 3.594-1.097 2.269-.838 3-.973c.73-.136 3.07-1.001 5.2-1.923s4.466-1.677 5.191-1.677 1.597-.45 1.937-1 1.69-1 3-1 2.66-.45 3-1 1.679-1 2.976-1 2.507-.407 2.691-.905c.183-.497 1.458-1.06 2.833-1.25s2.725-.586 3-.88c.275-.293 3.875-1.612 8-2.93 4.125-1.317 7.928-2.764 8.45-3.215s1.985-.82 3.25-.82 2.3-.45 2.3-1 1.26-1 2.8-1 3.227-.404 3.75-.898c.522-.494 5.225-2.31 10.45-4.035s10.281-3.571 11.236-4.102 2.643-.965 3.75-.965 2.016-.338 2.019-.75 3.49-1.833 7.75-3.158 8.173-2.786 8.695-3.25 1.709-.842 2.636-.842 2.942-.652 4.478-1.449 3.162-1.22 3.614-.941c.452.28.822.031.822-.551s1.35-1.059 3-1.059 3-.342 3-.759 3.6-1.876 8-3.241 8-2.824 8-3.241 1.26-.759 2.8-.759 3.228-.398 3.75-.884c.522-.485 3.875-1.871 7.45-3.078 3.575-1.208 7.832-2.803 9.46-3.546 1.627-.743 3.315-1.131 3.75-.863.434.269.79.012.79-.57s1.35-1.059 3-1.059 3.002-.338 3.005-.75 3.49-1.833 7.75-3.158 8.173-2.786 8.695-3.25 1.958-.842 3.191-.842 2.519-.45 2.859-1 1.44-1 2.445-1 3.083-.652 4.619-1.449 3.162-1.22 3.614-.941c.452.28.822.113.822-.37s2.279-1.499 5.063-2.257c2.785-.759 5.287-1.74 5.559-2.181s1.482-.809 2.687-.817c2.784-.02 5.381-1.628 4.329-2.681-.443-.442-4.48-1.131-8.971-1.53A673 673 0 0 1 700 172.035c-14.36-1.711-26.091-3.039-35.5-4.019-13.22-1.376-18.527-1.977-23-2.604-18.098-2.535-38.337-3.787-40.5-2.505m134.833 17.998c-.183.497-1.458 1.06-2.833 1.25s-2.725.586-3 .88c-.275.293-3.875 1.615-8 2.935s-7.985 2.759-8.578 3.196c-.594.437-1.944.962-3 1.166-1.057.205-3.047.836-4.422 1.403-1.375.566-2.837.831-3.25.589-.413-.243-.75-.047-.75.436s-2.279 1.499-5.063 2.257c-2.785.759-5.287 1.74-5.559 2.181s-1.557.802-2.854.802c-1.296 0-2.507.347-2.691.772-.183.424-5.058 2.306-10.833 4.181s-10.927 3.777-11.45 4.228-1.895.819-3.05.819-2.528.412-3.05.916c-.523.504-1.85 1.067-2.95 1.25s-2.225.625-2.5.981-1.625.806-3 1-2.725.593-3 .887c-.275.293-5.225 2.081-11 3.973s-11.593 3.991-12.928 4.665-2.798.997-3.25.718c-.452-.28-.822-.031-.822.551s-.873 1.059-1.941 1.059-2.219.45-2.559 1-1.626 1-2.859 1-2.668.412-3.191.916-1.85 1.067-2.95 1.25-2.233.642-2.519 1.019c-.285.376-1.731.847-3.212 1.045-1.481.199-3.01.678-3.398 1.066-.387.387-1.754.704-3.038.704s-2.333.369-2.333.819c0 .451-2.279 1.44-5.063 2.198-2.785.759-5.287 1.74-5.559 2.181s-1.504.802-2.737.802-2.669.412-3.191.916c-.523.504-1.85 1.067-2.95 1.25s-2.225.574-2.5.868c-.275.293-5.225 2.062-11 3.93s-10.927 3.766-11.45 4.217-1.895.819-3.05.819-2.528.412-3.05.916c-.523.504-1.85 1.067-2.95 1.25s-2.225.575-2.5.869c-.275.293-3.875 1.612-8 2.93-4.125 1.317-7.927 2.764-8.45 3.215s-1.895.82-3.05.82-2.528.412-3.05.916c-.523.504-1.85 1.067-2.95 1.25s-2.225.575-2.5.869c-.275.293-3.875 1.612-8 2.93-4.125 1.317-7.927 2.764-8.45 3.215s-1.958.82-3.191.82-2.519.45-2.859 1-1.716 1-3.059 1-2.441.45-2.441 1-1.35 1-3 1-3 .45-3 1-.926 1-2.057 1c-1.803 0-2.02.527-1.75 4.25.279 3.857.538 4.229 2.807 4.024 3.309-.299 16.348-4.492 17.056-5.485.306-.428 1.768-.88 3.25-1.002 1.482-.123 2.694-.494 2.694-.824 0-.331 2.279-1.222 5.063-1.98 2.785-.759 5.287-1.74 5.559-2.181S506.19 272 507.5 272s2.66-.45 3-1 1.626-1 2.859-1 2.669-.412 3.191-.916c.523-.504 1.85-1.067 2.95-1.25s2.225-.575 2.5-.869c.275-.293 3.875-1.631 8-2.972s8.593-2.99 9.928-3.665 2.798-.997 3.25-.718c.452.28.822.113.822-.37s2.279-1.499 5.063-2.257c2.785-.759 5.287-1.74 5.559-2.181s1.318-.802 2.323-.802 3.083-.652 4.619-1.449 3.162-1.22 3.614-.941c.452.28.822.113.822-.37s2.279-1.499 5.063-2.257c2.785-.759 5.287-1.74 5.559-2.181s1.504-.802 2.737-.802 2.668-.412 3.191-.916 1.85-1.067 2.95-1.25 2.225-.625 2.5-.981 1.625-.806 3-1 2.725-.594 3-.888c.275-.293 3.875-1.615 8-2.935s7.95-2.725 8.5-3.121 1.9-.874 3-1.064 2.225-.586 2.5-.88c.275-.293 3.875-1.615 8-2.935s7.985-2.759 8.578-3.196c.594-.437 1.944-.932 3-1.1s3.454-1.078 5.326-2.02c1.872-.943 4.208-1.714 5.191-1.714s2.065-.45 2.405-1 1.69-1 3-1 2.66-.45 3-1 1.44-1 2.445-1 3.083-.652 4.619-1.449 3.162-1.22 3.614-.941c.452.28.822.031.822-.551s1.35-1.059 3-1.059 3-.45 3-1 .873-1 1.941-1 2.219-.45 2.559-1 1.626-1 2.859-1 2.669-.398 3.191-.884c.523-.485 3.875-1.857 7.45-3.047s7.281-2.592 8.236-3.116 2.605-.953 3.667-.953 2.08-.446 2.264-.991c.183-.546 1.57-1.094 3.083-1.218 1.513-.125 2.75-.498 2.75-.828 0-.331 2.279-1.222 5.063-1.98 2.785-.759 5.287-1.74 5.559-2.181S722.19 194 723.5 194s2.66-.45 3-1c1.302-2.106 7.425-1.151 8.013 1.25 1.119 4.566.036 421.379-1.098 422.846-.597.772-2.172 4.889-3.5 9.149s-2.752 7.747-3.165 7.75-.75 1.103-.75 2.446-.45 2.719-1 3.059-1 1.641-1 2.892-.317 2.592-.704 2.979c-.722.722-8.251 22.96-7.902 23.339 1.608 1.75 6.606-3.856 6.606-7.409 0-.716.342-1.301.759-1.301s1.876-3.6 3.241-8 2.749-8 3.074-8c.326 0 .597-.562.603-1.25.005-.687.917-3.115 2.025-5.396 1.109-2.28 2.627-6.217 3.375-8.75.748-2.532 1.738-4.604 2.2-4.604s.613-.37.333-.822.155-2.099.965-3.661 1.853-6.929 2.317-11.928c.64-6.895.772-296.453.188-411.839L741 180h-2.417c-1.329 0-2.566.407-2.75.905m-12.583 20.908c-1.788.173-3.25.735-3.25 1.25 0 .516-.81.937-1.8.937s-2.228.412-2.75.916-1.85 1.067-2.95 1.25-2.225.575-2.5.869c-.275.293-3.875 1.615-8 2.935s-7.985 2.759-8.578 3.196c-.594.437-2.045.942-3.225 1.122s-2.457.639-2.838 1.02c-.381.38-1.705.692-2.942.692s-2.4.338-2.584.752c-.183.414-3.483 1.795-7.333 3.07s-8.908 3.186-11.239 4.248c-2.332 1.061-4.829 1.93-5.55 1.93s-1.748.437-2.282.971c-.535.535-1.963 1.123-3.175 1.308s-2.514.648-2.895 1.029-1.716.692-2.967.692-2.552.45-2.892 1-1.716 1-3.059 1-2.441.369-2.441.819c0 .451-2.279 1.44-5.063 2.198-2.785.759-5.287 1.74-5.559 2.181s-1.504.802-2.737.802-2.668.404-3.191.898-5.225 2.31-10.45 4.035-10.281 3.571-11.236 4.102-2.367.965-3.136.965-2.656.652-4.192 1.449-3.162 1.22-3.614.941c-.452-.28-.822-.113-.822.37s-2.279 1.499-5.063 2.257c-2.785.759-5.287 1.74-5.559 2.181s-1.568.802-2.878.802-2.66.45-3 1-1.716 1-3.059 1-2.441.369-2.441.819c0 .451-2.279 1.44-5.063 2.198-2.785.759-5.287 1.74-5.559 2.181s-1.557.802-2.854.802c-1.296 0-2.507.407-2.691.905-.183.497-1.458 1.06-2.833 1.25s-2.75.68-3.056 1.09-1.768.846-3.25.968c-1.482.123-2.694.575-2.694 1.005s-.873.782-1.941.782-2.219.45-2.559 1-1.69 1-3 1-2.66.45-3 1-1.44 1-2.445 1-3.083.652-4.619 1.449-3.162 1.22-3.614.941c-.452-.28-.822-.031-.822.551s-.873 1.059-1.941 1.059-2.219.45-2.559 1-1.69 1-3 1-2.66.45-3 1-1.69 1-3 1-2.66.45-3 1-1.679 1-2.976 1-2.507.446-2.691.991c-.183.546-1.571 1.094-3.083 1.218-1.512.125-2.75.579-2.75 1.009s-.873.782-1.941.782-2.219.45-2.559 1-1.716 1-3.059 1-2.441.45-2.441 1-1.35 1-3 1-3 .398-3 .883c0 .486-.9 1.119-2 1.407-1.994.521-2 1.357-1.985 264.866.009 145.389.397 264.945.862 265.679 1.247 1.967 1.329 1.942 5.021-1.587 1.869-1.787 3.969-3.248 4.667-3.248s1.418-.416 1.602-.925c.183-.509 1.008-1.071 1.833-1.25s2.203-1.084 3.063-2.013 2.21-1.828 3-2 2.14-1.071 3-2c.86-.928 2.179-1.828 2.93-2s2.371-1.146 3.598-2.165 2.404-1.694 2.615-1.5 1.622-.884 3.135-2.397 3.109-2.75 3.549-2.75 2.106-1.124 3.704-2.499 3.469-2.499 4.156-2.5c.688 0 1.25-.421 1.25-.934s.845-1.2 1.878-1.528 3.17-1.708 4.75-3.066c1.579-1.359 3.435-2.471 4.122-2.472.688 0 1.25-.375 1.25-.832s1.237-1.47 2.75-2.25 3.622-2.207 4.689-3.169c1.066-.963 2.528-1.75 3.25-1.75.721 0 1.311-.374 1.311-.831s1.237-1.47 2.75-2.25 3.622-2.207 4.689-3.169c1.066-.963 2.528-1.75 3.25-1.75.721 0 1.311-.374 1.311-.831s1.237-1.47 2.75-2.25 3.622-2.207 4.689-3.169c1.066-.962 2.528-1.75 3.25-1.75.721 0 1.311-.374 1.311-.831s1.237-1.47 2.75-2.25 3.622-2.207 4.689-3.169c1.066-.963 2.528-1.75 3.25-1.75.721 0 1.311-.374 1.311-.831s1.237-1.47 2.75-2.25 3.622-2.207 4.689-3.169c1.066-.963 2.528-1.75 3.25-1.75.721 0 1.311-.374 1.311-.831s1.237-1.47 2.75-2.25 3.622-2.207 4.689-3.169c1.066-.963 2.528-1.75 3.25-1.75.721 0 1.311-.374 1.311-.831s1.237-1.47 2.75-2.25 3.622-2.207 4.689-3.169c1.066-.962 2.528-1.75 3.25-1.75.721 0 1.311-.374 1.311-.831s1.237-1.47 2.75-2.25 3.622-2.207 4.689-3.169c1.066-.962 2.528-1.75 3.25-1.75.721 0 1.311-.374 1.311-.831s1.237-1.47 2.75-2.25 3.622-2.207 4.689-3.169c1.066-.962 2.528-1.75 3.25-1.75.721 0 1.311-.374 1.311-.831s1.237-1.47 2.75-2.25 3.622-2.207 4.689-3.169c1.066-.962 2.528-1.75 3.25-1.75.721 0 1.311-.374 1.311-.831s1.237-1.47 2.75-2.25 3.622-2.207 4.689-3.169c1.066-.962 2.528-1.75 3.25-1.75.721 0 1.311-.374 1.311-.831s1.237-1.47 2.75-2.25 3.622-2.207 4.689-3.169c1.066-.962 2.528-1.75 3.25-1.75.721 0 1.311-.374 1.311-.831s1.231-1.47 2.736-2.25 3.715-2.253 4.911-3.272 2.438-1.808 2.76-1.753c.323.054 1.673-.846 3-2 1.328-1.155 2.588-1.941 2.799-1.747.212.194 1.587-.85 3.057-2.319 1.47-1.47 3.587-2.963 4.705-3.318S698 673.476 698 673s.845-1.133 1.878-1.461c4.433-1.407 10.122-8.406 10.122-12.453 0-.927.369-2.113.82-2.636.451-.522 1.898-4.325 3.215-8.45 1.318-4.125 2.637-7.725 2.93-8s.69-1.4.88-2.5.669-2.45 1.064-3c.396-.55 1.8-4.375 3.121-8.5s2.642-7.725 2.935-8 .694-1.625.887-3 .757-3.258 1.25-4.184c1.042-1.955 1.119-405.519.078-407.816-.451-.994-1.775-1.394-3.93-1.187m-417.692 51.093c-.372.602-1.556 1.094-2.631 1.094s-2.736.406-3.691.903c-.955.496-3.649 1.468-5.986 2.16-6.716 1.987-5.344 3.871 3.75 5.151 3.025.426 8.875 1.255 13 1.843s10.425 1.462 14 1.942l14.5 1.948a1336 1336 0 0 1 28.25 4.106c3.712.579 10.125 1.455 14.25 1.947s10.65 1.383 14.5 1.98c30.798 4.781 39.833 5.406 43 2.977.55-.422 1.9-.922 3-1.112 1.9-.328 4.5-2.161 4.5-3.173 0-.259-1.913-.705-4.25-.99-8.085-.989-13.258-1.76-15.25-2.271-1.1-.282-3.35-.712-5-.955-2.654-.392-6.363-.953-19.5-2.949a358 358 0 0 0-7.5-1.033c-2.2-.276-6.25-.928-9-1.45-5.188-.984-8.994-1.62-18.75-3.132-3.163-.491-8.562-1.352-12-1.915-3.437-.562-9.175-1.466-12.75-2.009a2888 2888 0 0 1-24.75-3.893c-3.163-.508-6.935-1.226-8.383-1.594-1.544-.393-2.912-.217-3.309.425m-22.944 18.844c-.728 7.2-.203 45.994.634 46.832.341.34 1.099.322 1.685-.041 1.148-.709 1.575-48.054.46-50.959-1.175-3.063-2.203-1.522-2.779 4.168M293 294.852c0 18.935.304 25.223 1.25 25.823 1.159.735 5.839 1.419 19.75 2.888 3.025.319 6.175.847 7 1.172 2.163.854 2.785 1 4.839 1.14 2.976.202 4.161 4.562 4.161 15.305 0 13.102-.948 14.203-11.45 13.286-3.878-.338-8.175-.994-9.55-1.458s-5.538-1.089-9.25-1.388l-6.75-.545.015 9.213c.009 5.066.346 9.723.75 10.347.705 1.088 3.562 1.596 16.735 2.974 3.3.345 6.45.941 7 1.323.55.383 2.8.821 5 .975 4.215.295 6.849 1.719 5.93 3.206-.301.488-.071.887.511.887.67 0 1.059 3.434 1.059 9.345 0 13.631-2.055 14.624-22 10.626-3.025-.606-7.648-1.342-10.272-1.635l-4.773-.532.273 18.848.272 18.848 5 .781c2.75.429 7.7 1.23 11 1.779s7.69 1.258 9.756 1.575c2.456.377 4.964 1.785 7.25 4.071L330 447.2v209.451l-2.324 2.184c-1.278 1.201-2.628 1.879-3 1.507-.372-.371-.676-.15-.676.491 0 .76-2.095 1.167-6 1.167-3.3 0-6-.358-6-.796 0-.437-1.666-.907-3.702-1.045s-4.173-.616-4.75-1.066c-.576-.449-3.19-1.096-5.808-1.437l-4.76-.62.26 46.232.26 46.232 2.5.335c1.375.184 2.927.746 3.45 1.25.522.503 1.841.915 2.929.915 2.132 0 8.039 1.699 10.857 3.123.955.482 2.499.877 3.429.877 3.018 0 8.779 2.445 11.085 4.705 2.035 1.994 2.247 3.138 2.218 12-.037 11.609-.882 13.295-6.662 13.295-2.185 0-4.286-.313-4.668-.696s-1.47-.803-2.417-.935c-2.088-.292-8.969-2.292-11.721-3.408-1.864-.755-6.009-1.734-9.5-2.242-1.284-.188-1.541 2.734-1.783 20.281-.336 24.29-.228 25 3.802 25 1.64 0 2.981.45 2.981 1s1.548 1 3.441 1 3.719.45 4.059 1 1.941 1 3.559 1 2.941.45 2.941 1 1.548 1 3.441 1 3.688.4 3.991.89c.302.489 2.129 1.164 4.059 1.5l7.009 1.219c1.925.336 3.5.915 3.5 1.288s1.455.788 3.234.924 3.668.681 4.2 1.213c.531.531 1.857.966 2.945.966 2.132 0 8.039 1.699 10.857 3.123.955.482 2.868.877 4.25.877s2.514.352 2.514.782 1.149.877 2.553.993 3.4.664 4.434 1.218 3.235 1.007 4.888 1.007 3.285.45 3.625 1 1.69 1 3 1 2.66.45 3 1 1.941 1 3.559 1 2.941.375 2.941.833c0 .459.666.834 1.48.834s3.289.525 5.5 1.166c2.211.642 5.933 1.668 8.27 2.281s5.15 1.479 6.25 1.925c2.408.976 6.674 1.937 11.75 2.647l3.75.524v-71.355c.001-39.245.037-167.596.081-285.225.043-117.628-.294-214.22-.751-214.647-.804-.753-3.294-1.196-13.83-2.461-2.75-.33-5.9-.838-7-1.128-2.479-.655-15.134-2.325-22.5-2.97-3.025-.265-6.625-.732-8-1.039-2.436-.544-7.655-1.296-23-3.317a783 783 0 0 1-14.5-2.071c-3.85-.597-10.15-1.523-14-2.059s-10.15-1.434-14-1.996c-3.85-.561-9.587-1.268-12.75-1.57l-5.75-.55zM455.5 281c-.34.55-1.69 1-3 1s-2.66.45-3 1-1.679 1-2.976 1-2.507.407-2.691.905c-.183.497-1.458 1.06-2.833 1.25s-2.95.74-3.5 1.223c-.739.65-1.288 555.078-.563 569.372.069 1.364 3.063 1.773 3.063.419 0-.457 1.238-1.47 2.75-2.25s3.622-2.207 4.689-3.169c1.066-.962 2.3-1.75 2.742-1.75s1.968-1.012 3.392-2.25 2.785-2.128 3.027-1.979c.241.149 1.415-.639 2.608-1.75 1.193-1.112 2.531-2.021 2.973-2.021.756 0 1.589-.639 7.819-5.999 2.436-2.096 2.391-2.093-1.769.119-3.994 2.123-4.378 2.162-5.945.595-1.559-1.559-1.666-20.851-1.544-279.195l.13-277.52h-2.377c-1.307 0-2.655.45-2.995 1m-93.816 46.516c-3.203 3.203-3.584 4.205-4.279 11.25-.842 8.529-.921 446.525-.081 449.734.288 1.1.557 2.527.599 3.171.043.644 2.138 3.232 4.656 5.75 4.488 4.488 4.707 4.579 11 4.579 3.614 0 6.421-.437 6.421-1 0-.55.492-.887 1.093-.75.601.138 1.614-.65 2.25-1.75s1.45-2.225 1.808-2.5c1.655-1.27 1.815-20.921 1.881-231.001.065-205.059-.154-231.512-1.934-232.999-.329-.275-1.097-1.4-1.707-2.5s-1.295-1.775-1.523-1.5-1.502-.512-2.83-1.75c-4.156-3.872-12.85-3.238-17.354 1.266m-77.845-.026c-.186.184-.192 3.47-.012 7.301l.328 6.966 4.172.669c19.376 3.103 32.693 4.68 33.793 4 1.06-.655 1.155-11.457.115-13.054-.404-.621-2.76-1.422-5.235-1.78-7.481-1.083-20.76-2.888-29.661-4.031-1.738-.224-3.313-.255-3.5-.071m84.146 4.154c-4.013 1.091-3.985-.533-3.985 231.906 0 226.563-.014 225.612 3.408 228.985 3.351 3.304 9.51 2.597 11.35-1.303 1.815-3.844 1.802-451.26-.012-454.492-2.781-4.954-5.883-6.423-10.761-5.096M283 360c0 9.214.888 12.339 2.393 8.418 1.386-3.611.668-18.418-.893-18.418-1.233 0-1.5 1.778-1.5 10m.899 19.649c-.177 3.23.27 8.833.743 9.317.251.256 3.472.823 7.157 1.259a390 390 0 0 1 13.201 1.84c3.575.576 9.087 1.286 12.25 1.579l5.75.534v-5.03c0-5.933-.527-6.386-8.5-7.311-3.3-.383-9.6-1.213-14-1.844-16.544-2.374-16.49-2.373-16.601-.344m-1.3 32.601c-.668 16.848-.609 18.342.804 20.607 1.841 2.95 2.499-1.681 2.462-17.338-.02-8.81-.254-16.807-.519-17.769-1.31-4.764-2.162-.264-2.747 14.5m.747 29.984c-.936 1.497-.817 202.628.121 203.566.353.353 1.026.021 1.495-.738 1.212-1.962 1.346-202.754.135-203.502-.527-.326-1.315-.023-1.751.674M293 545.013c0 56.003.273 102.535.607 103.405.378.986 1.811 1.582 3.8 1.582 1.756 0 3.62.404 4.143.898.953.9 5.504 1.724 15.101 2.734 5.024.528 5.166.471 5.726-2.295.689-3.406.606-195.524-.086-199.874-.511-3.209-4.984-5.463-10.841-5.463-1.42 0-3.339-.39-4.266-.866-.926-.476-4.496-1.109-7.934-1.405l-6.25-.539zM282.653 655.75c-.933 3.385-.467 87.73.494 89.525.525.98 1.384 1.515 1.909 1.19 1.029-.636 1.327-88.303.309-90.955-.778-2.029-2.12-1.91-2.712.24m1.045 98.886c-.925.924-.87 10.576.067 11.906.404.573 2.76 1.637 5.235 2.364s5.4 1.687 6.5 2.133 3.35 1.089 5 1.43 4.8 1.083 7 1.648 5.462 1.269 7.25 1.565c1.788.295 3.25.938 3.25 1.427s1.125.891 2.5.891c2.379 0 2.499-.279 2.485-5.75-.018-6.774-.503-7.648-4.485-8.09-1.65-.182-3.428-.743-3.95-1.246s-1.841-.914-2.929-.914c-1.716 0-4.729-.792-10.621-2.791-.825-.28-2.368-.676-3.429-.88-1.809-.348-8.146-2.408-11.623-3.779-.854-.337-1.866-.298-2.25.086m-1 23.614c-.676 4.157.014 29.754.897 33.271.501 1.997.895 2.33 1.566 1.324.87-1.306.902-29.053.04-34.925-.569-3.878-1.846-3.71-2.503.33M485.5 824.577c-7.079 4.624-12.823 9.356-7 5.765 5.194-3.202 14.5-9.61 14.5-9.984 0-.643-.418-.408-7.5 4.219"/></svg>