<svg xmlns="http://www.w3.org/2000/svg" viewBox="0 0 1024 1024"><path fill="#00e5cc" d="M171.232 69c0 1.925.206 2.713.457 1.75.252-.963.252-2.537 0-3.5-.251-.963-.457-.175-.457 1.75M414 67c0 .55-1.098 1-2.441 1s-2.719.45-3.059 1-1.69 1-3 1-2.66.45-3 1-1.716 1-3.059 1-2.441.45-2.441 1-1.125 1-2.5 1-2.5.45-2.5 1-1.35 1-3 1-3 .45-3 1-1.35 1-3 1-3 .45-3 1-.627 1-1.393 1-1.7.787-2.075 1.75c-.807 2.073-.317 49.963.57 55.75l.614 4 .142-3.809c.078-2.095.526-3.572.995-3.282s1.706-.119 2.75-.909c1.736-1.314 1.748-1.439.147-1.468-2.57-.047-2.323-4.032.25-4.032 1.556 0 2 .667 2 3 0 1.65.45 3 1 3 .639 0 1 8.681 1 24.044 0 22.344.124 24.023 1.75 23.75 2.304-.387 3.353-5.478 3.923-19.031.399-9.489.695-10.908 2.552-12.208 1.156-.809 2.478-1.239 2.938-.954.46.284.837-.211.837-1.101s.45-1.34 1-1 1 .141 1-.441.81-1.059 1.8-1.059 2.406-.562 3.147-1.25c1.077-1 1.205-1 .641 0-.857 1.518 2.977 1.763 3.912.25.34-.55 1.941-1 3.559-1s2.941-.398 2.941-.883c0-.486.9-1.119 2-1.407 1.953-.511 2-1.364 2-36.535 0-19.806-.273-36.723-.607-37.593C418.736 65.869 414 65.358 414 67m-34.211 17.964C376.26 89.169 378.548 94 384.068 94c3.86 0 5.856-2.277 5.9-6.731.025-2.569-.429-3.319-2.218-3.662-3.804-.728-6.613-.249-7.961 1.357M821.5 85c2.815.716 2.739.771-1.25.882-3.544.098-4.25.45-4.25 2.118 0 1.556.667 2 3 2 1.65 0 3 .354 3 .787s1.35.89 3 1.016c2.795.213 3-.006 3-3.204 0-1.888.563-3.659 1.25-3.937.688-.277-1.45-.486-4.75-.465-4.762.032-5.381.197-3 .803m113.75.247c-2.664.854-3.25 1.557-3.25 3.898 0 2.605.311 2.855 3.559 2.855 2.118 0 3.309-.405 2.941-1-.361-.583.656-1 2.441-1 2.104 0 3.059-.487 3.059-1.559 0-.857.45-1.281 1-.941s1 .141 1-.441-1.013-1.104-2.25-1.159c-2.159-.095-2.148-.132.25-.9 2.135-.684 1.916-.8-1.5-.798-2.2.001-5.462.471-7.25 1.045M802 87.059c0 .582.45.781 1 .441s1 .028 1 .819c0 1.834 2.818 4.214 3.774 3.187.399-.429.164-.981-.524-1.226-.687-.246-1.25-1.309-1.25-2.363 0-1.25-.696-1.917-2-1.917-1.1 0-2 .477-2 1.059m150.885-.309c-.064.412-.22 1.2-.348 1.75s-.301 1.563-.385 2.25c-.083.688-.8 1.25-1.593 1.25s-1.672.373-1.954.829c-.735 1.19 2.496.765 5.145-.676 1.237-.673 2.25-1.87 2.25-2.66s1.462-1.858 3.25-2.374c3.18-.918 3.148-.941-1.5-1.029-2.612-.049-4.802.248-4.865.66M168.232 91c0 1.925.206 2.713.457 1.75.252-.963.252-2.537 0-3.5-.251-.963-.457-.175-.457 1.75m795.081-.616c.619 1.312 1.702 2.164 2.406 1.893.705-.27 1.281.082 1.281.783 0 .7.22 1.053.49.784.985-.986-2.04-5.829-3.646-5.836-1.393-.007-1.477.37-.531 2.376M564 91c0 .55-.927 1-2.059 1s-1.799.421-1.481.935c.318.515-.546 2.061-1.921 3.435l-2.499 2.499.015 25.566c.01 15.736.387 25.565.981 25.565.53 0 .964.9.964 2s.59 2 1.311 2c.722 0 2.278.9 3.459 2 1.611 1.501 3.529 2 7.688 2H576v-28h-3c-2.197 0-3 .471-3 1.759 0 3.755-3.649 4.447-6.372 1.21-1.375-1.633-3.203-2.969-4.063-2.969-2.906 0-1.83-5.222 1.802-8.75 5.286-5.135 9.244-4.351 8.836 1.75-.018.275 1.279.594 2.882.71l2.915.209V96h-2.5c-1.375 0-2.5-.45-2.5-1s1.125-1 2.5-1c1.833 0 2.5-.533 2.5-2 0-1.778-.667-2-6-2-3.333 0-6 .444-6 1m274.607 4.582c-.334.87-.607 11.858-.607 24.418s.273 23.548.607 24.418c.54 1.407 5.177 1.582 42 1.582H922V94h-41.393c-36.823 0-41.46.175-42 1.582m93.408 7.668c-.016 7.096.243 7.635 2.556 5.321 1.794-1.793 1.845-2.945.103-2.276-.973.373-1.306-.558-1.25-3.489.042-2.198-.255-4.517-.659-5.152s-.741 1.883-.75 5.596M595.2 99.2c-.869.869-1.2 8.044-1.2 26V150h42.571c35.562 0 42.807-.235 44-1.429 2.104-2.103 2.104-47.039 0-49.142-1.931-1.932-83.45-2.15-85.371-.229m-33.2 2.359c0 .857-.45 1.281-1 .941-.601-.371-1 .93-1 3.261 0 3.645 3.238 8.239 5.808 8.239 2.661 0 6.177-2.734 6.184-4.809.005-1.283.452-2.034 1.008-1.691.55.34 1-.11 1-1s-.45-1.34-1-1-1-.116-1-1.012c0-2.661-2.617-4.488-6.429-4.488-2.568 0-3.571.438-3.571 1.559M792 104c0 3.881.101 4 3.393 4 2.155 0 3.612.571 3.993 1.563.33.86 1.053 1.284 1.607.941 1.162-.718 1.333 1.055 1.138 11.746-.085 4.622.264 7.75.864 7.75.553 0 1.005.862 1.005 1.917 0 1.054.34 2.066.755 2.25.416.183 2.778 3.368 5.25 7.078s4.832 6.747 5.245 6.75.75.712.75 1.576c0 2.815 2.709 4.429 7.437 4.429h4.579l-.173-4.581c-.123-3.242-.432-4.118-1.058-3-1.43 2.556-9.221 1.652-8.719-1.011.409-2.169-.173-3.408-1.601-3.408-1.199 0-1.312-.417-.518-1.9.778-1.454.651-2.04-.541-2.498-1.073-.412-1.456-1.608-1.232-3.85.313-3.123.172-3.265-3.564-3.571-5.73-.469-6.61-1.88-6.61-10.598 0-8.349 1.598-11.583 5.722-11.583 2.598 0 2.877-1.625.759-4.423-1.653-2.186-6.481-2.826-6.481-.86 0 .83-1.412 1.283-4 1.283-3.333 0-4-.333-4-2q0-2-2-2c-1.667 0-2 .667-2 4m158-2.458c0 .848-.931 2.535-2.069 3.75l-2.07 2.208 2.82.33c5.662.663 7.319 3.561 7.319 12.806v8.287l-4.25 1.098c-7.509 1.94-8.061 2.169-6.928 2.869 1.071.662 1.274 5.105.22 4.83-.298-.079-2.117.244-4.042.715l-3.5.858 3.421.604c4.397.775 4.952 2.568 1.391 4.499-1.547.838-2.249 1.542-1.562 1.564 3.663.117.545 2.04-3.309 2.04-2.785 0-4.319.389-3.941 1 .34.55.141 1-.441 1S932 151.262 932 152.804c0 2.6.311 2.82 4.25 3.017 3.12.156 3.851-.054 2.75-.789-1.275-.851-1.227-1.004.321-1.017 2.268-.019 4.679-2.339 4.679-4.503 0-.896.45-1.352 1-1.012s1-.084 1-.941.45-1.559 1-1.559 1-.675 1-1.5.45-1.5 1-1.5 1-.427 1-.95 1.35-2.95 3-5.395 3-4.942 3-5.55.45-1.105 1-1.105c.6 0 1-4 1-10 0-8.222.267-10 1.5-10 .825 0 1.5-.45 1.5-1s1.575-1 3.5-1c3.417 0 3.5-.095 3.5-4 0-3.333-.333-4-2-4-1.152 0-2 .667-2 1.571 0 4.352-7.197 6.198-8.492 2.179-.398-1.237-.676-2.588-.616-3 .059-.412-1.017-.75-2.392-.75-1.586 0-2.5.564-2.5 1.542m-74.36 4.151c-3.807.614-9.055 6.045-9.476 9.807-.185 1.65-.747 3.427-1.25 3.95-1.228 1.276-1.166 4.55.086 4.55.55 0 1 .69 1 1.533 0 2.52 6.65 8.467 9.467 8.467 1.393 0 2.533.45 2.533 1s.9 1 2 1 2-.45 2-1 1.137-1 2.527-1c3.583 0 9.134-5.377 9.929-9.619.788-4.196-.326-12.58-1.568-11.812-.488.302-.888.04-.888-.581 0-1.46-2.528-3.988-3.988-3.988-.621 0-.852-.45-.512-1s-.252-1-1.316-1-3.228-.173-4.809-.384-4.162-.177-5.735.077m-249.369 6.079c-2.022 1.567-2.244 2.669-2.393 11.842-.17 10.48.242 12.386 2.681 12.386.793 0 1.441.45 1.441 1 0 1.48 8.744 1.245 9.292-.25.366-1 .723-1 1.783 0 2.496 2.354 10.9.384 10.917-2.559.004-.72.458-1.031 1.008-.691.64.396 1-2.823 1-8.941 0-5.706-.403-9.559-1-9.559-.55 0-1-.482-1-1.071 0-4.213-18.865-5.927-23.729-2.157m336.211.888c-.954.955-1.49 3.504-1.506 7.161-.041 9.82-2.536 16.207-9.226 23.618-.962 1.066-1.75 2.322-1.75 2.791 0 .47-.9 1.82-2 3-3.41 3.66-2.586 4.77 3.542 4.77 3.048 0 6.086-.443 6.75-.985s2.67-2.157 4.458-3.589 3.25-3.437 3.25-4.456.45-2.13 1-2.47c.594-.367 1-6.638 1-15.442 0-14.027-.109-14.853-2.018-15.352-1.109-.291-2.684.139-3.5.954M792 127.559c0 10.118.35 15.343 1 14.941.55-.34 1 .309 1 1.441s.45 2.059 1 2.059 1 .816 1 1.813c0 1.145 1.292 2.321 3.5 3.187 1.925.755 3.5 1.739 3.5 2.187s2.475.813 5.5.813c5.975 0 6.877-1.097 3.75-4.561-.962-1.067-2.389-3.177-3.169-4.689s-1.793-2.75-2.25-2.75-.831-.59-.831-1.311c0-.722-.788-2.207-1.75-3.301-3.619-4.115-4.25-6.406-4.25-15.433 0-5.794-.361-8.85-1-8.455-.55.34-1 .141-1-.441S796.65 112 795 112h-3zM166.233 120c.004 4.411 1.495 10.969 1.591 7 .033-1.375-.312-4.3-.767-6.5l-.827-4zm462.267.648c-1.276.445-.65 11.352.652 11.352.531 0 .688.45.348 1-.351.567.49 1 1.941 1 2.482 0 2.559-.196 2.559-6.469 0-5.52-.235-6.378-1.601-5.854-.88.338-1.893.166-2.25-.381-.357-.548-1.099-.839-1.649-.648m-60.7 17.618c-.626 3.274.347 5.235 2.594 5.229 2.687-.007 4.402-3.007 2.999-5.245-1.749-2.79-5.058-2.781-5.593.016M824 138c-2.297.736-2.324.809-.333.9 1.191.055 2.393.663 2.671 1.35.277.688.54.238.583-1s-.033-2.205-.171-2.15-1.375.46-2.75.9m108.015 2.583c.009 1.605.475 3.592 1.037 4.417.733 1.075.832.366.352-2.5-.83-4.961-1.409-5.759-1.389-1.917M422.25 143.36c-1.238.613-2.25 1.458-2.25 1.877s-1.098.763-2.441.763-2.719.45-3.059 1-3.081 1-6.092 1c-6.506 0-12.146 4.467-12.962 10.266-1.311 9.311-1.693 25.734-.599 25.734.634 0 1.153.9 1.153 2 0 1.476.667 2 2.545 2 2.807 0 7.455-4.025 7.455-6.455 0-.85.45-1.545 1-1.545s1-.675 1-1.5.45-1.5 1-1.5 1-.675 1-1.5.694-1.5 1.542-1.5 2.508-.9 3.688-2c1.798-1.675 3.755-2.201 7.306-1.964 1.4.093 3.89-3.394 2.705-3.789-.683-.228-1.241-1.528-1.241-2.889 0-1.396-.436-2.206-1-1.858-.558.345-.993-.403-.985-1.691.013-1.858.205-2.016.985-.809.784 1.213.972 1.069.985-.75.013-1.949.541-2.25 3.945-2.25 3.303 0 3.988.359 4.29 2.25.52 3.255-1.105 7.562-3.047 8.076-1.185.313-1.026.476.542.558 1.219.064 3.753 1.466 5.632 3.116 3.951 3.469 4.647 3.655 4.668 1.25.013-1.496.157-1.532.985-.25.758 1.173.973.914.985-1.191.008-1.48-.435-2.969-.985-3.309s-1-1.941-1-3.559-.45-2.941-1-2.941-1-1.152-1-2.559-.399-2.313-.886-2.011c-.488.301-1.136-.406-1.441-1.572-.505-1.93-.695-1.979-2.131-.542-1.014 1.013-2.845 1.454-5.124 1.233-4.482-.434-5.069-1.041-3.003-3.107.914-.913 1.402-2.445 1.091-3.423-.394-1.24.085-1.94 1.597-2.336 1.955-.511 2.012-.711.599-2.124-1.762-1.762-3.206-1.807-6.452-.199m-42.868 13.14c.002 6.6.164 9.17.359 5.711.196-3.459.195-8.859-.003-12s-.358-.311-.356 6.289m35.818-7.3c-1.582 1.582-1.519 3.291.173 4.695 2.187 1.815 4.627.232 4.627-3.002 0-3.119-2.494-3.999-4.8-1.693M428 151c0 .55.675 1 1.5 1s1.5-.45 1.5-1-.675-1-1.5-1-1.5.45-1.5 1m-24.84 2.78c-1.257.419-1.645 8.211-.41 8.234.413.007 1.663.259 2.779.559 1.218.327 2.918-.226 4.25-1.381 2.312-2.005 2.949-4.192 1.221-4.192-.55 0-1-.624-1-1.387 0-1.364-4.571-2.589-6.84-1.833m418.59 1.926c1.237.238 3.263.238 4.5 0 1.237-.239.225-.434-2.25-.434s-3.487.195-2.25.434M414 162.59c0 .841-.403 1.279-.895.975-1.787-1.105-2.234 2.867-.468 4.159 2.124 1.553 3.363 1.633 3.363.217 0-.582.399-.813.886-.511 1.076.664 2.123-2.831 1.241-4.142-1.216-1.811-4.127-2.303-4.127-.698m-37.077 13.16a44 44 0 0 1-.335 2.25c-.143.825.072 2.625.477 4 .577 1.96.757 1.474.835-2.25.055-2.613-.125-4.75-.4-4.75s-.534.338-.577.75M99.25 283.454c-1.959 2.034-3.25 4.402-3.25 5.96 0 1.422-.45 2.586-1 2.586s-1 1.8-1 4-.45 4-1 4-1 1.8-1 4-.366 4-.813 4-.92 2.054-1.05 4.565-.652 5.661-1.162 7c-.588 1.548-.57 2.435.05 2.435.536 0 .975.695.975 1.545 0 2.952 4.668 6.451 8.705 6.525 2.93.055 3.339.252 1.795.866-1.23.49 1.159.785 6.208.767 5.632-.021 8.004-.371 7.558-1.117-.357-.597.055-.516.916.182 1.199.971 9.239 1.242 34.356 1.16 19.727-.065 32.227-.464 31.376-1.002-1.029-.652-.653-.9 1.381-.911 5.226-.028 7.878-4.054 7.545-11.454-.158-3.522-.636-6.187-1.064-5.923-.427.264-.776-1.095-.776-3.02s-.45-3.778-1-4.118-1-2.129-1-3.976-.426-3.507-.946-3.691c-.521-.183-1.055-2.47-1.187-5.083s-.607-4.75-1.054-4.75-.813-1.152-.813-2.559-.368-2.332-.818-2.054-1.449-.37-2.221-1.441c-1.348-1.87-2.87-1.944-38.932-1.906l-37.529.039zM140.5 294c-1.123 1.241-3.08 2-5.155 2-1.84 0-3.345.45-3.345 1s-.819 1-1.82 1c-1 0-2.8 1.128-4 2.508-2.278 2.62-2.895 5.492-1.18 5.492.55 0 1 .707 1 1.571 0 2.954 5.398 6.429 9.986 6.429 1.658 0 3.014-.45 3.014-1s.675-1 1.5-1 1.5.45 1.5 1 1.827 1 4.059 1c2.451 0 3.814-.396 3.441-1-.34-.55-.109-1 .512-1 1.644 0 3.988-2.603 3.988-4.429a1.57 1.57 0 0 0-1.559-1.571c-.857 0-1.305-.412-.994-.915s0-1.119-.691-1.369c-.998-.361-.985-.912.063-2.683.726-1.225 1.176-2.311 1-2.414-.175-.102-1.562-.812-3.081-1.577-1.981-.999-2.598-1.908-2.182-3.217.821-2.588-3.673-2.458-6.056.175m428.75 3.496c-.687.781-1.25 2.114-1.25 2.962s-.562 1.549-1.25 1.557q-1.25.016.25.985t.25.985c-.719.008-1.25 1.29-1.25 3.015 0 1.65-.466 3-1.035 3-.682 0-.648.723.1 2.121.797 1.49.808 1.918.035 1.441-.69-.427-1.1.273-1.1 1.879 0 1.407.408 2.559.906 2.559s.653.97.343 2.156c-.392 1.5-.204 1.934.617 1.427.873-.54 1.008.351.519 3.409-.686 4.292 1.005 11.423 3.263 13.758 2.047 2.116 124.93 1.792 125.745-.332.334-.87.607-10.77.607-22V296l-62.75.038c-52.914.032-62.946.261-64 1.458m-220 .28-15.25.276V334h49.779c48.632 0 49.813.046 51.221 2 .793 1.1 2.58 2.032 3.971 2.07 2.309.064 2.355.145.529.93-1.676.72-1.474.871 1.25.93 1.788.038 3.25-.38 3.25-.93s1.602-1 3.559-1 3.332-.368 3.054-.818.37-1.449 1.441-2.221c1.782-1.285 1.946-2.69 1.946-16.727 0-14.884-.07-15.395-2.423-17.748l-2.423-2.423-42.327-.282c-23.28-.154-49.19-.157-57.577-.005m514.765.974c-.008.711-1.273 1.25-2.932 1.25-1.604 0-3.066.416-3.25.925-.183.509-.988 1.071-1.788 1.25s-2.516 1.346-3.814 2.594-2.851 1.966-3.45 1.596c-.652-.404-.803-.21-.376.48.392.635.216 1.155-.391 1.155-1.414 0-5.414 4.141-5.839 6.045-.179.8-.741 1.605-1.25 1.788s-.925 1.196-.925 2.25-.45 1.917-1 1.917-1 1.35-1 3-.387 3-.859 3c-.473 0-.929 3.488-1.013 7.75-.159 7.973 1.364 14.776 4.583 20.479 2.436 4.314 11.89 13.771 13.767 13.771.837 0 1.522.45 1.522 1s.927 1 2.059 1 1.781.45 1.441 1c-.378.612 1.176 1 4 1 2.54 0 4.405.345 4.145.766s1.963.78 4.941.797c2.978.016 5.414-.328 5.414-.766 0-.439 2.052-.797 4.559-.797 2.785 0 4.319-.389 3.941-1-.535-.866 2.357-1.522 4.824-1.094.454.079.54-.318.191-.881-.348-.564-.137-1.025.47-1.025.606 0 2.29-1.101 3.741-2.446s2.938-2.261 3.305-2.035c.367.227 1.295-.809 2.061-2.303.767-1.494 2.185-3.444 3.151-4.333s1.757-2.352 1.757-3.25.45-1.633 1-1.633 1-.9 1-2 .45-2 1-2 .947-.337.882-.75c-.546-3.457.279-9.548 1.118-8.25.723 1.118.973.56.985-2.191.008-2.03-.435-3.969-.985-4.309s-1-2.643-1-5.118c0-2.745-.39-4.259-1-3.882-.826.51-1.248-1.33-.934-4.076.036-.316-.864-1.382-2-2.367S904 314.744 904 314.106c0-1.745-8.714-10.106-10.533-10.106-.872 0-1.307-.45-.967-1 .351-.567-.49-1-1.941-1-1.407 0-2.559-.45-2.559-1s-1.35-1-3-1-3-.45-3-1c0-.583-3.333-1-8-1-5.725 0-8.004.355-8.015 1.25q-.016 1.25-.985-.25t-.985-.25m46.237 4.75c.011 2.2.216 2.982.455 1.738s.23-3.044-.02-4-.446.062-.435 2.262m-305.052-.3c-.66.66-1.2 1.972-1.2 2.917s-.562 1.923-1.25 2.175c-1 .366-1 .723 0 1.783.688.729 1.25 3.26 1.25 5.625 0 3.633.31 4.3 2 4.3 1.627 0 2-.667 2-3.571 0-1.965.71-4.282 1.578-5.15.867-.867 1.359-2.41 1.093-3.428s.037-1.852.673-1.853c.796-.002 1.053 2.175.824 7l-.332 7.002H620v-4c0-3.333.333-4 2-4 1.552 0 2 .667 2 2.977 0 3.952 3.677 6.472 8.043 5.514 2.664-.586 3.038-1.032 2.537-3.028-.323-1.287-.136-2.62.416-2.961 1.497-.925 1.214-3.435-.591-5.24-1.977-1.977-7.238-2.086-8.569-.179-.757 1.086-1.107 1.125-1.495.167-.31-.762-2.428-1.25-5.424-1.25-4.576 0-6.542-1.231-3.667-2.297.911-.338.766-.97-.536-2.333-1.551-1.624-1.911-1.673-2.735-.37-.629.996-.954 1.08-.964.25-.019-1.595-4.234-1.631-5.815-.05m34.435 3.913c-1.302 1.521-1.505 2.417-.722 3.2.598.598 1.087 3.022 1.087 5.387v4.3h4c2.2 0 4-.45 4-1s-.9-1-2-1c-2.423 0-2.801-4.342-.573-6.57 1.237-1.237 1.638-1.006 3 1.725.865 1.734 1.573 3.887 1.573 4.786 0 1.098.984 1.709 3 1.862 2.703.206 3-.061 3-2.704 0-1.613.419-3.082.93-3.266 1.341-.48 1.771-6.052.501-6.501-.588-.208-1.676.757-2.419 2.145-1.683 3.146-2.334 3.158-3.984.076-1.064-1.99-1.843-2.34-4.169-1.875-2.207.442-2.859.201-2.859-1.053 0-2.272-2.213-2.025-4.365.488M356 316v10h3.917c2.155 0 4.179-.562 4.5-1.25.462-.991.706-.984 1.177.031.449.97 4.482 1.253 16.638 1.165 11.444-.082 16.257.227 16.782 1.076.528.855.929.879 1.42.085.413-.668 4.034-1.107 9.125-1.107H418v-16l-7.25-.067c-3.988-.037-14.225-.012-22.75.054-14.565.114-15.589-.003-16.971-1.933-1.235-1.725-2.555-2.054-8.25-2.054H356zm83.507-6.004c-1.555.862-3.174 2.453-3.597 3.536-.423 1.082-.801 1.562-.84 1.065s-.91.066-1.937 1.25-2.629 2.153-3.559 2.153-1.414.45-1.074 1 .109 1-.512 1c-1.171 0-3.988 2.422-3.988 3.429 0 .314.9.571 2 .571s2 .45 2 1 1.012.993 2.25.985c2.843-.019 9.947-2.455 9.235-3.167-.293-.293.153-1.102.991-1.798s1.524-2.11 1.524-3.142.477-1.878 1.059-1.878.803-.414.491-.919.111-1.599.941-2.429c3.747-3.747.3-5.585-4.984-2.656M908 313c0 1.65.45 3 1 3s1 .675 1 1.5.45 1.5 1 1.5 1 .873 1 1.941.45 2.219 1 2.559 1 2.751 1 5.359c0 5.735 1.221 7.141 6.2 7.141h3.8v-11.571c0-14.056-.243-14.429-9.429-14.429H908zm-37 1.965c0 .569-1.575 1.035-3.5 1.035s-3.5.45-3.5 1-.675 1-1.5 1-1.5.45-1.5 1-.675 1-1.5 1-1.5.702-1.5 1.559-.45 1.281-1 .941-1 .309-1 1.441-.45 2.059-1 2.059-1 1.602-1 3.559c0 2.118-.405 3.309-1 2.941-.604-.373-1 .99-1 3.441 0 2.232.45 4.059 1 4.059s1 1.377 1 3.059c0 1.785.417 2.802 1 2.441.55-.34 1 .209 1 1.22s.955 2.5 2.123 3.309c1.167.809 2.71 2.034 3.428 2.721s2.013 1.25 2.878 1.25c.864 0 1.571.45 1.571 1 0 2.047 14.422 1.187 16.77-1 1.18-1.1 2.647-2 3.26-2 1.628 0 3.97-2.612 3.97-4.429 0-.864.34-1.571.757-1.571.416 0 1.316-1.793 2-3.984 1.506-4.829 1.666-12.396.243-11.516-.567.351-1-.49-1-1.941 0-1.407-.45-2.559-1-2.559s-1-.927-1-2.059-.45-1.781-1-1.441-1 .109-1-.512c0-1.644-2.603-3.988-4.429-3.988-.864 0-1.571-.45-1.571-1s-1.605-1-3.566-1-4.436-.466-5.5-1.035c-1.333-.714-1.934-.714-1.934 0M644 325l-2.136 3h-11.373c-6.503 0-11.638-.428-11.991-1-.34-.55-1.743-1-3.118-1-1.412 0-2.231-.435-1.882-1 .361-.583-.656-1-2.441-1-1.682 0-3.059.257-3.059.571 0 .982 2.804 3.429 3.929 3.429.589 0 1.071.45 1.071 1s.927 1 2.059 1 1.781.45 1.441 1c-.373.604.99 1 3.441 1 2.232 0 4.059.45 4.059 1 0 .572 3.02 1 7.059 1 4.451 0 6.831-.369 6.441-1-.368-.595.823-1 2.941-1 1.957 0 3.559-.45 3.559-1s1.125-1 2.5-1 2.5.375 2.5.833c0 .459.655.834 1.456.834s1.274-.295 1.051-.655c-.222-.361.241-1.899 1.03-3.42 2.957-5.7-4.674-8.017-8.537-2.592m-462 10c0 .55.45 1 1 1s1 .675 1 1.5.787 1.532 1.75 1.57c1.432.058 1.478.194.25.75-2.225 1.008-2.205 2.893.036 3.479 2.038.533 2.047.511 2.412-6.049.169-3.049-.024-3.25-3.134-3.25-1.823 0-3.314.45-3.314 1m-13.737 9.494c-1.615 2.887-.308 7.515 2.1 7.436 2.075-.069 2.079-.094.137-.876-1.856-.747-1.82-.832.5-1.179 2.028-.304 2.5-.942 2.5-3.375 0-3.447-3.648-4.845-5.237-2.006m340.619 104.957c-.248.248-12.116.523-26.372.61-14.257.088-26.504.383-27.216.656-.874.336-1.294 2.593-1.294 6.949 0 4.047.373 6.222 1 5.834.55-.34 1-3.066 1-6.059V452h27c23.333 0 27-.204 27-1.5 0-1.538-.324-1.843-1.118-1.049m5.117 1.299c.001 1.227 12.332 1.605 41.031 1.259 14.421-.174 12.97-3.879 12.97 33.13v31.925l-2.25.905c-2.042.821-1.95.91 1 .968L570 519l.15-8.75c.125-7.29.267-7.999.85-4.25.385 2.475.767-8.47.85-24.321.122-23.494-.108-29.08-1.247-30.219-1.951-1.951-56.605-2.636-56.604-.71m-312.41.879c-.858 2.236-.782 2.371 1.352 2.371 2.726 0 3.271-1.386 1.083-2.753-1.475-.921-1.965-.844-2.435.382M452.413 469.5c.001 9.9.151 13.815.333 8.699s.181-13.215-.002-18c-.183-4.784-.332-.599-.331 9.301m-237.136-11.475c.09 1.202.674 1.824 1.438 1.531.707-.271 1.285-.09 1.285.402 0 1.173 5.788 4.042 8.154 4.042 1.015 0 1.846.45 1.846 1s.873 1 1.941 1 2.219.45 2.559 1 1.507 1 2.594 1c1.666 0 1.809-.314.906-2-.589-1.1-1.73-2-2.535-2s-1.465-.45-1.465-1-.9-1-2-1-2-.45-2-1-.873-1-1.941-1-2.219-.45-2.559-1-1.716-1-3.059-1-2.441-.45-2.441-1-.647-1-1.438-1c-.827 0-1.373.86-1.285 2.025M458 483.571c0 22.562.26 27.831 1.429 29 1.479 1.479 101.242 2.26 104.989.822 1.391-.534 1.582-4.041 1.582-29.101v-28.494l-15.991.426c-17.045.453-22.558 1.625-9.426 2.005 4.354.125-6.258.472-23.583.771l-31.5.543 33.25.228L552 460v50l-36.25.077c-19.937.042-37.15.252-38.25.467-5.434 1.062-5.365 1.385-5.466-25.591L471.941 460l2.28-.015c1.846-.013 1.994-.203.779-1-1.333-.876-1.333-1.094 0-1.97 1.042-.684-1.326-.989-7.75-1L458 456zm-180.47-24.62c-.358.58.139 1.049 1.111 1.049 1.368 0 1.492.267.559 1.2-1.524 1.524-1.539 2.8-.033 2.8.641 0 .87-.296.508-.658s-.206-1.202.346-1.867c.691-.833.561-1.577-.42-2.391-.971-.806-1.629-.848-2.071-.133m-24.439 5.972c-.775.49-2.074.637-2.887.325-.965-.37-1.316-.078-1.013.843.291.883 2.115 1.486 4.887 1.617 2.432.114 3.885-.028 3.228-.315s-.946-1.168-.643-1.958c.617-1.606-1.389-1.894-3.572-.512m30.619.39c-1.133 2.952.465 6.687 2.86 6.687 4.419 0 7.43-2.091 7.43-5.161 0-2.732-.184-2.839-4.893-2.839-3.118 0-5.076.476-5.397 1.313m-61.257 6.29c.402 2.141 1.099 4.12 1.549 4.398s1.016 1.854 1.258 3.502.463-.378.49-4.503c.035-5.11-.205-6.703-.75-5-.498 1.556-.838 1.862-.9.809-.055-.93-.612-2.008-1.238-2.395-.821-.507-.935.382-.409 3.189m5.621 6.096c-.181 9.665 1.171 16.433 3.2 16.028.624-.125 1.156.298 1.181.94s.455 1.541.955 2c.529.484.609.309.191-.417-.974-1.693.583-1.578 2.958.218 3.051 2.308 3.443 1.88 3.411-3.718-.024-4.054-.263-4.851-1.05-3.5-2.895 4.971-6.92-.205-6.92-8.899 0-4.825 1.261-5.449 6.266-3.101 2.57 1.206 2.676 1.586 3.01 10.75.323 8.883.348 8.737.382-2.25.026-8.728-.285-11.75-1.21-11.75-.685 0-3.709-1.296-6.721-2.881l-5.477-2.881zm38.593-9.032c-.367.366-.667 1.491-.667 2.5s-.45 1.833-1 1.833-1-.675-1-1.5q0-1.5-3-1.5c-1.65 0-3 .257-3 .571 0 1.266 3.051 3.516 3.984 2.939.55-.34 1.791-.113 2.758.505 1.554.992 1.497 1.067-.492.647-1.238-.261-2.25-.083-2.25.395s2.016.83 4.481.78c3.9-.078 5.776-1.837 1.96-1.837-.793 0-1.441-.9-1.441-2 0-1.145.667-2 1.559-2 .857 0 1.281-.45.941-1-.714-1.155-1.875-1.291-2.833-.333m-17.967 4.672c-.282.736-.151 2.873.291 4.75.784 3.323.807 3.289.907-1.339.103-4.807-.262-5.849-1.198-3.411m473.824-.3c.327.528.097.961-.51.961-1.624 0-6.014 4.668-6.014 6.396 0 .817-.45 1.764-1 2.104s-1 2.166-1 4.059-.45 3.441-1 3.441-1 1.602-1 3.559-.337 3.351-.75 3.096-.872 1.631-1.02 4.191-.711 4.804-1.25 4.987c-.539.184-.98 1.877-.98 3.764s-.541 4.296-1.202 5.355c-1.597 2.558.488 6.564 4.293 8.248 1.52.674 2.541 1.586 2.268 2.028s24.077.782 54.111.755c34.899-.031 54.392-.398 54.01-1.016-.329-.532-.101-.967.506-.967 4.138 0 8.075-10.462 5.098-13.55-.503-.523-1.056-2.525-1.228-4.45s-.66-3.751-1.084-4.059c-.424-.307-.845-2.426-.934-4.709s-.54-3.916-1-3.632c-.7.433-1.36-4.293-.956-6.85.065-.413-.332-.75-.882-.75s-1-1.595-1-3.545c0-3.824-3.568-8.455-6.514-8.455-.882 0-1.321-.458-.975-1.019.424-.686-14.258-.999-44.976-.961-28.912.036-45.388.409-45.011 1.019M254 526.217c0 56.987-.385 53.515 5.25 47.382 2.44-2.657 2.722-92.484.298-94.909-.799-.798-1.282-1.623-1.073-1.831.209-.209-.713-.895-2.048-1.525L254 474.188zm13.75-46.825c-.962.731-1.75 1.62-1.75 1.977 0 .356.788.232 1.75-.276s3.325-1.366 5.25-1.906l3.5-.983-3.5-.07c-1.925-.039-4.288.527-5.25 1.258M570.378 489c0 6.325.163 8.913.361 5.75s.198-8.337 0-11.5-.361-.575-.361 5.75M772 485c0 .55-.801 1-1.779 1-.979 0-2.428.9-3.221 2-1.158 1.607-2.589 2-7.28 2-3.637 0-5.605.377-5.22 1 .34.55.109 1-.512 1-1.962 0-3.988 2.758-3.988 5.429 0 1.414.45 2.571 1 2.571s1 .575 1 1.278c0 1.44 3.493 4.722 5.025 4.722.551 0 1.896.558 2.989 1.241 1.581.987 2.391.987 3.972 0 2.494-1.558 5.49-1.585 7.912-.072 2.19 1.367 7.45-.686 10.559-4.121 1.807-1.997 1.799-2.091-.303-3.914-2.386-2.07-2.834-4.739-.904-5.388 1.789-.602-.938-3.746-3.25-3.746-.965 0-2.373-.761-3.128-1.692-1.123-1.385-1.127-1.545-.022-.879 1.093.658 1.134.41.215-1.308C773.892 483.93 772 483.238 772 485m-319.63 14c0 5.775.165 8.137.367 5.25s.202-7.613 0-10.5-.367-.525-.367 5.25m1.63 4.441c0 10.973.308 14.562 1.25 14.573.688.007 2.375.237 3.75.511 2.302.458 2.282.41-.25-.597l-2.75-1.095v-13.357c0-7.827-.414-13.614-1-13.976-.649-.401-1 4.49-1 13.941M249.139 495.5c-1.099 14.895-1.102 15.305-.07 10.5.532-2.475.815-6.525.629-9-.219-2.926-.415-3.451-.559-1.5m-13.455 4.75c.348 1.788 1.012 3.4 1.475 3.583.462.184.841 1.646.841 3.25 0 1.659.539 2.924 1.25 2.932.93.012.907.233-.092.866-.984.624-.667.98 1.185 1.334 3.549.678 4.468-.184 5.222-4.895.644-4.026.571-4.161-3.203-5.932-2.124-.997-4.457-2.392-5.183-3.1-1.965-1.915-2.193-1.616-1.495 1.962m-23.313 1.224c-.311.811.046 2.086.794 2.834 1.49 1.49 4.835 1.853 4.835.525 0-.458-.482-.833-1.071-.833-1.481 0-3.973-2.622-3.215-3.381.341-.34.305-.619-.079-.619s-.952.663-1.264 1.474M452.232 515c0 1.925.206 2.712.457 1.75.252-.962.252-2.538 0-3.5-.251-.962-.457-.175-.457 1.75M467 517c-1.014.656 2.061.942 9.5.885 7.035-.054 10.099-.373 8.5-.885-3.582-1.147-16.225-1.147-18 0m74.25-.333c-1.945.275-3.25 1.037-3.25 1.896 0 1.161 2.065 1.434 10.75 1.422 10.703-.016 14.848-.88 12.167-2.536-1.501-.928-14.882-1.46-19.667-.782M512 517.985l16.5.561-14 .507-14 .508 16 .104c8.8.056 15.147-.115 14.105-.382-1.523-.39-1.621-.659-.5-1.369.831-.526-5.883-.804-16.605-.686l-18 .197zm33.784.753c2.905.203 7.405.201 10-.004s.216-.371-5.284-.369-7.622.171-4.716.373m-69.034.985c1.788.222 4.712.222 6.5 0 1.788-.221.325-.403-3.25-.403s-5.038.182-3.25.403M220 520.882c0 .485-1.904.909-4.23.941s-4.389.535-4.583 1.117c-.195.583-.991 1.06-1.77 1.06-.78 0-1.417.257-1.417.571 0 1.174 2.913 3.429 4.429 3.429.864 0 1.571.45 1.571 1s.927 1 2.059 1 1.781.45 1.441 1 .309 1 1.441 1 2.059.45 2.059 1 .675 1 1.5 1 1.5.45 1.5 1 .863 1 1.917 1 2.117.563 2.363 1.25c.245.688.713 1.007 1.039.711.326-.297-.078-2.486-.898-4.866s-1.761-6.3-2.092-8.711c-.551-4.018-.84-4.384-3.465-4.384-1.575 0-2.864.397-2.864.882m233.589 2.262c.291.471.052.856-.53.856s-1.059.873-1.059 1.941-.45 2.219-1 2.559-1 1.716-1 3.059-.45 2.441-1 2.441-1 1.377-1 3.059c0 1.785-.417 2.802-1 2.441-.595-.368-1 .823-1 2.941 0 1.957-.45 3.559-1 3.559s-1 1.377-1 3.059c0 1.785-.417 2.802-1 2.441-.596-.369-1 .843-1 3s-.404 3.369-1 3c-.593-.367-1 .795-1 2.858 0 1.911-.476 3.634-1.057 3.828-.582.194-.759 1.131-.393 2.083.604 1.575 2.843 1.731 24.915 1.731h24.25l.635-5.75c.349-3.163.916-6.763 1.259-8 .505-1.821.221-2.25-1.492-2.25-1.165 0-2.117-.507-2.117-1.126 0-.812-4.11-.95-14.75-.495-18.938.811-18.362.807-21 .146-2.314-.579-3.131-3.862-1.25-5.025.55-.34 1-1.716 1-3.059s.45-2.441 1-2.441 1-1.323 1-2.941.45-3.219 1-3.559 1-2.001 1-3.692c0-1.836.811-3.777 2.015-4.821 2.005-1.739 2.002-1.751-.47-2.223-1.366-.261-2.247-.09-1.956.38m114.889 1.606c.381.962.94 3.223 1.242 5.024s.939 3.515 1.415 3.809.865 1.527.865 2.74.894 4.651 1.987 7.64c1.456 3.984 1.676 5.627.823 6.154-.639.395-7.833.462-15.986.149-9.719-.373-14.824-.221-14.824.444 0 .557-1.117.799-2.482.538-4.452-.851-7.721.504-6.54 2.711.562 1.05 1.022 4.639 1.022 7.975V568h24.393c20.524 0 24.482-.233 24.956-1.468.31-.807.133-1.734-.393-2.059s-.956-1.914-.956-3.532-.45-2.941-1-2.941-1-1.35-1-3-.45-3-1-3-1-1.323-1-2.941-.45-3.219-1-3.559-1-1.915-1-3.5-.45-3.16-1-3.5-1-1.941-1-3.559-.45-2.941-1-2.941-1-1.12-1-2.489-.775-3.393-1.722-4.5c-2.171-2.535-4.77-2.714-3.8-.261M247.833 539.5l-.333 11-2.5-.353c-1.375-.194-2.725-.689-3-1.1-.806-1.205-4.731-3.047-6.491-3.047-1.826 0-7.509 5.794-7.509 7.655 0 .666-.9 1.496-2 1.845s-2 1.242-2 1.984-.562 1.576-1.25 1.854c-.961.388-.948.522.059.583.72.043 1.031.529.691 1.079s.084 1 .941 1 1.559.45 1.559 1 .694 1 1.542 1 2.508.9 3.688 2 2.625 1.993 3.209 1.985c.583-.009.386-.491-.439-1.071-1.156-.813-.778-.968 1.646-.673 2.486.302 3.049.054 2.681-1.179-.256-.859.173-.497.952.805 1.304 2.179 1.473 2.221 2.123.528.598-1.559.847-1.615 1.636-.367.63.996.936 1.068.947.222.008-.687.628-1.25 1.376-1.25.913 0 1.204-.824.884-2.5-.302-1.579-.022-2.5.761-2.5.983 0 .981-.31-.006-1.5-1.018-1.226-.955-1.5.346-1.5 1.073 0 1.383-.542.953-1.664-.43-1.119-.256-1.427.531-.941 1.28.791 1.403-.642 1.175-13.736-.225-12.887-1.792-13.723-2.172-1.159m-2.91-5.25c-.042 2.337-.193 4.925-.335 5.75s.072 2.625.477 4c.47 1.597.772-.481.835-5.75.055-4.538-.125-8.25-.4-8.25s-.534 1.913-.577 4.25m477.645-1.349c.855.856 4.316 1.095 4.788.332.252-.407-.832-.757-2.408-.778-1.575-.021-2.647.18-2.38.446m84.188-.237c.691.279 1.031.871.756 1.317s.222 1.087 1.105 1.426c1.164.446 1.441.186 1.006-.948-.33-.859-.186-1.307.319-.995.506.313 1.202.111 1.548-.448.38-.615-.678-.985-2.681-.937-1.82.043-2.744.307-2.053.585M465.25 551.728c2.063.216 5.438.216 7.5 0 2.063-.215.375-.392-3.75-.392s-5.812.177-3.75.392M709 647c2.909.612 2.371.759-3.191.868-3.68.073-6.969.582-7.309 1.132-.41.663 25.656 1 77.441 1H854l.15 36.5c.082 20.075.15 37.625.15 39 0 6.325-.109 6.499-4.05 6.515-2.394.01-3.274.317-2.434.85.724.459 2.749.79 4.5.735l3.184-.1.686-13.5c1.312-25.821.612-69.941-1.139-71.831-1.346-1.452-4.163-1.669-21.702-1.669-11.085 0-19.635.331-19 .735s-2.332.741-6.595.75c-4.51.009-7.75-.403-7.75-.985 0-.55-.788-.993-1.75-.985-1.401.013-1.471.192-.354.899.846.536-3.087.814-10 .707-6.268-.098-11.958-.529-12.646-.958-.705-.44-1.25-.319-1.25.278 0 1.368-4.681 1.384-5.525.018-.354-.572-1.518-.763-2.588-.423-3.652 1.159-7.887 1.37-7.887.394 0-.607-8.318-.943-22.02-.89-16.682.065-21.859.373-21.353 1.273.457.815.244.795-.68-.063-.741-.687-2.944-1.191-4.897-1.118l-3.55.131zm19.199.744c4.785.183 12.885.184 18 .002s1.201-.332-8.699-.333-14.085.148-9.301.331M239.5 653l-82 .5-.5 24c-.755 36.235-.401 39.397 3.883 34.743.889-.966 2.855-2.392 4.367-3.169 1.512-.776 2.75-1.786 2.75-2.243s.75-.831 1.667-.831c.916 0 1.388-.279 1.047-.619-.761-.761 1.737-3.381 3.224-3.381.594 0 2.493-1.35 4.219-3s3.527-3 4-3c.474 0 2.274-1.35 4-3 1.727-1.65 3.748-3 4.491-3 .744 0 1.352-.45 1.352-1 0-1.848 5.515-1.061 7 1 .793 1.1 2.077 2 2.853 2s2.14.809 3.03 1.797c.889.989 3.192 2.88 5.117 4.203s4.228 3.214 5.117 4.203c.89.988 2.379 1.797 3.309 1.797s1.414.45 1.074 1c-1.433 2.319 3.775.754 6.657-2 1.727-1.65 3.774-3 4.55-3s1.133-.45.793-1-.126-1 .474-1c.601 0 2.668-1.575 4.593-3.5s3.865-3.5 4.311-3.5 3.366-2.475 6.489-5.5c3.124-3.025 6.154-5.5 6.734-5.5s2.785-1.8 4.899-4c5.259-5.474 8.867-5.175 15.124 1.25 1.473 1.513 3.17 2.75 3.771 2.75.6 0 3.834 2.7 7.186 6s6.519 6 7.04 6 2.531 1.586 4.469 3.524 4.018 3.218 4.622 2.845c.659-.407.812-.217.383.476-.392.635-.201 1.155.424 1.155.626 0 2.867 1.8 4.981 4s4.355 4 4.981 4 .816.52.424 1.155c-.429.693-.276.883.383.476.604-.373 2.684.907 4.622 2.845 6.707 6.708 6.59 7.204 6.59-27.869 0-24.257-.284-31.474-1.25-31.75-.687-.196-38.15-.132-83.25.143m460.5 4c0 2.908.451 5 1.078 5 .638 0 .944-1.532.75-3.75l-.328-3.75h5.428c4.949 0 5.486.22 6.08 2.5 1.174 4.5-.689 8.984-3.787 9.115-4.735.201-6.609-.265-7.901-1.964-1.018-1.338-1.262 3.572-1.288 25.899-.023 20.131.291 27.873 1.168 28.75 1.937 1.937 147.429 1.714 149.371-.229 1.18-1.179 1.429-7.104 1.429-34V652H700zm59.25 2.496c-1.741 1.977-1.786 41.568-.05 43.304.77.77 4.711 1.2 11 1.2h9.8v4.878c0 2.831.556 5.339 1.326 5.978 1.336 1.108 61.301 1.85 62.38.772.388-.389.647-31.783.345-41.817-.054-1.777-1.558-2.107-15.301-3.356l-6.75-.614v-4.492c0-7.551.867-7.354-32.179-7.311-24.038.031-29.546.294-30.571 1.458M216 664.933c0 .513-.9 1.218-2 1.567s-2 1.279-2 2.067-.45 1.433-1 1.433-1 2.04-1 4.533c0 6.289 4.952 11.467 10.967 11.467 2.218 0 4.033-.45 4.033-1s.482-1 1.071-1c4.99 0 6.77-12.284 2.39-16.5-3.244-3.124-12.461-5.023-12.461-2.567M702.112 674c-.187 5.184.028 6.004 1.586 6.032 1.729.03 1.728.087-.016 1.41-1.905 1.444-3.156 10.558-1.45 10.558.487 0 .608.45.268 1-.993 1.606 8.438 1.205 10.071-.429 1.616-1.615 1.963-8.571.429-8.571-.55 0-1-1.35-1-3s.354-3 .787-3c1.245 0 1.29-4.235.077-7.25-.988-2.455-1.613-2.75-5.821-2.75h-4.715zm-247.862 2.525c-1.238 1.322-2.25 2.78-2.25 3.24 0 1.478-2.474 6.219-3.25 6.227-.413.004-.75 1.385-.75 3.067 0 1.785-.417 2.802-1 2.441-.567-.351-1 .49-1 1.941 0 1.407-.45 2.559-1 2.559s-1 1.35-1 3-.45 3-1 3-1 .9-1 2c0 1.755.667 2 5.441 2 6.195 0 7.407-1.056 5.156-4.492-2.749-4.196-1.274-5.355 6.874-5.397 6.448-.034 7.376.194 7.829 1.927.282 1.08.105 1.713-.393 1.404-.499-.308-.907-.089-.907.488 0 2.375-3.312 4.973-5.112 4.01-1.034-.553-1.997-.573-2.322-.047-1.095 1.771 2.777 2.003 34.762 2.079 36.962.089 33.367 1.105 34.376-9.71.322-3.444.858-6.293 1.191-6.33.333-.038 3.17-.117 6.306-.175 3.135-.059 5.471-.478 5.191-.932s2.217-.825 5.549-.825c3.373 0 6.059.443 6.059 1 0 .55 1.575 1 3.5 1s3.5-.45 3.5-1 .675-1 1.5-1 1.5.702 1.5 1.559.45 1.281 1 .941c.966-.597 1.402 1.85 1.07 6-.133 1.663.014 1.747.87.5.784-1.143 1.033-.535 1.045 2.55.008 2.228-.525 4.59-1.185 5.25-.933.933.844 1.2 8 1.2h9.2v-2.559c0-1.451-.433-2.292-1-1.941-.851.526-1.51-2.273-1.118-4.75.065-.413-.332-.75-.882-.75s-1-.862-1-1.917c0-1.054-.446-2.066-.991-2.25-.546-.183-1.094-1.57-1.218-3.083-.125-1.513-.579-2.75-1.009-2.75s-.782-.9-.782-2-.45-2-1-2-1-.695-1-1.545c0-3.672-4.628-6.456-10.705-6.44-3.187.009-5.303.346-4.702.75s1.371 2.168 1.712 3.919c.769 3.959 1.025 3.901-15.434 3.51L530 681.889V674l-36.75.061-36.75.061zm-14.061 35.514c-2.027 1.888-2.189 2.967-2.189 14.571 0 9.529.342 12.875 1.429 13.961 1.189 1.19 7.989 1.429 40.633 1.429h39.205l2.365-2.75c2.5-2.906 2.635-3.596 2.374-12.151-.155-5.071 2.951-13.913 5.244-14.932 3.923-1.744-4.491-2.167-43.061-2.167-42.709 0-43.867.051-46 2.039m126.845 3.366c2.48 4.519 2.966 6.536 2.966 12.311 0 5.267.427 7.367 1.8 8.845.991 1.067 2.102 2.727 2.469 3.689.84 2.201 8.193 2.43 10.302.321 1.815-1.815 2.029-24.16.268-28.024-1.128-2.477-1.428-2.547-10.966-2.547h-9.805zm-120.784.301c-1.238.238-2.25.852-2.25 1.364 0 .539 7.564.93 18 .93 16.289 0 20.902-.672 16.418-2.393-1.749-.671-28.598-.589-32.168.099m4 6.017c-3.437.205-6.25.801-6.25 1.325 0 .567 7.268.952 18 .952 15.792 0 21.011-.697 16.75-2.238-1.493-.54-19.691-.565-28.5-.039m-6.001 7.527c.229.688 1.729 1.349 3.333 1.47 6.167.466 29.466.199 30.905-.353 4.416-1.695-.289-2.367-16.57-2.367-14.022 0-17.99.281-17.668 1.25m253.001 3.439c.962.252 2.538.252 3.5 0 .962-.251.175-.457-1.75-.457s-2.712.206-1.75.457m118.03.047c2.629.207 6.679.204 9-.005 2.321-.21.17-.379-4.78-.376s-6.849.175-4.22.381m15.482-.029c1.244.239 3.044.23 4-.02s-.062-.446-2.262-.435-2.982.216-1.738.455M444 735.393c0 2.262 2.384 2.607 18 2.607s18-.345 18-2.607c0-1.139-3.281-1.393-18-1.393s-18 .254-18 1.393m250 5.178c0 4.572 1.961 5.423 12.679 5.499 6.418.046 9.128.368 7.821.93-1.206.518 4.951.819 15.5.757 12.02-.07 15.464-.307 11-.757-5.933-.598-5.584-.664 4-.757 6.653-.065 9.767.212 8.5.757-1.153.495 19.528.889 48.821.93 39.409.054 51.099-.211 52.056-1.18 1.857-1.88 2.74-4.807 2.078-6.891-.568-1.792-3.512-1.859-81.522-1.859H694zm-542 8c0 8.022-6.532 7.437 82.179 7.359 45.186-.04 78.46-.44 77.321-.93-1.902-.817-1.889-.863.269-.93 1.864-.057 2.165-.485 1.686-2.394-.724-2.884 1.648-5.095 4.497-4.191 2.126.675 2.801 3.932 1.04 5.02-1.764 1.09 1.681 3.495 5.008 3.495 4.497 0 6.139-2.094 5.86-7.476l-.234-4.524H152zm613.26 2.351c-1.684 1.215-3.26 6.352-3.26 10.625V766l4.75.168c2.612.092 7.45.302 10.75.466 7.268.361 12.5-.366 12.5-1.738 0-.558-.45-.736-1-.396-.628.388-1-1.833-1-5.972 0-4.388-.418-6.727-1.25-7-2.127-.696-20.641-1.218-21.49-.606M238 761.571c0 2.287 2.724 4.648 4.752 4.118 1.45-.379 1.473-.477.137-.573-1.162-.084-1.478-.813-1.134-2.616.388-2.03.08-2.5-1.638-2.5-1.258 0-2.117.638-2.117 1.571M236 769c0 .571 2.684.957 6.25.9 4.645-.074 5.608-.305 3.75-.9-3.637-1.165-10-1.165-10 0m650.25 99.525c-2.245 2.398-2.25 2.483-2.25 37.485v35.081l2.468 2.468 2.469 2.468 35.843-.052c34.403-.051 35.91-.132 37.531-2.026 2.358-2.753 2.601-74.18.26-76.52-1.188-1.188-7.545-1.419-37.75-1.368l-36.321.061zm-241.5 5.692c-.962 1.204-1.735 3.561-1.716 5.236l.034 3.047 1.783-3.766c.98-2.072 2.09-3.46 2.466-3.084s.683.158.683-.483c0-1.917 40.687-1.623 42.618.308 1.908 1.908 2.137 58.91.246 61.189-.917 1.104-5.47 1.321-23.252 1.105L645.5 937.5l.288-2.75c.158-1.513-.148-2.75-.681-2.75-.532 0-1.163-1.013-1.401-2.25-.243-1.259-.494-.445-.57 1.847-.253 7.629 1.314 8.376 17.981 8.571 10.807.126 12.891.333 8.383.832-4.784.529-3.402.698 6.821.832 10.262.134 13.123-.133 14.331-1.341.83-.83 2.035-1.208 2.679-.84s.847.313.454-.122c-.393-.436-.194-1.745.442-2.91 1.481-2.712 1.88-57.198.44-60.098-2.219-4.468-2.523-4.522-25.846-4.508-21.76.013-22.365.069-24.071 2.204m105.424.097c-2.134 2.272-2.173 2.87-2.142 32.25.033 31.096.332 33.436 4.269 33.436.87 0 1.859.45 2.199 1 .38.614 8.566 1 21.226 1 11.334 0 20.31-.297 19.947-.661-.364-.363.349-1.162 1.583-1.774 2.647-1.314 5.278-10.363 4.206-14.467-.63-2.416-.731-2.457-1.449-.588-.424 1.106-.988 3.888-1.253 6.183-.838 7.255-1.008 7.307-23.989 7.307-14.511 0-20.716-.345-21.571-1.2-1.907-1.907-1.693-59.45.229-61.371 2.037-2.038 41.041-2.102 43.072-.071.786.787 1.548 4.385 1.809 8.547.472 7.545.875 8.717 2.623 7.636 1.433-.885 1.363-12.119-.091-14.836-2.513-4.696-2.562-4.705-26.096-4.705-22.119 0-22.424.029-24.572 2.314M70.25 880.515c-1.237 1.327-2.25 2.915-2.25 3.528 0 .612-1.8 2.843-4 4.957s-4 4.553-4 5.422S59.55 896 59 896s-1 1.087-1 2.417-.562 2.613-1.25 2.853c-.687.239 29.838.443 67.833.451 62.988.014 69.084-.127 69.093-1.603.005-.89-.82-2.346-1.833-3.235-1.014-.89-1.843-2.148-1.843-2.796s-1.134-2.312-2.519-3.697-2.216-3.01-1.846-3.609c.404-.652.21-.803-.48-.376-.635.392-1.155.216-1.155-.391 0-.608-1.134-2.239-2.519-3.624s-2.268-2.925-1.962-3.421c.329-.533-21.506-.895-53.23-.885l-53.789.017zm209-1.019c-.687.781-1.25 2.114-1.25 2.962s-.45 1.542-1 1.542-1 .624-1 1.386-.652 2.642-1.449 4.178-1.22 3.162-.941 3.614c.28.452.031.822-.551.822-1.493 0-1.324 1.628.191 1.847 2.776.402 60.166.703 63.337.333 3.285-.384 5.016-3.463 2.442-4.347-.533-.183-1.096-1.458-1.25-2.833s-.504-2.725-.779-3c-1.453-1.453-3.859-6.808-3.307-7.36.352-.352-11.472-.623-26.276-.602-21.961.031-27.147.299-28.167 1.458m64.262.254c.399.962.748 2.313.774 3 .026.688.422 1.25.881 1.25.458 0 .833.59.833 1.311 0 .722.9 2.278 2 3.459 1.1 1.18 2 3.365 2 4.855s.285 2.423.634 2.074c1.142-1.142 1.263-6.118.18-7.423-.582-.702-.709-1.276-.281-1.276s.093-.788-.744-1.75c-.836-.962-1.814-2.987-2.174-4.5-.454-1.913-1.288-2.75-2.741-2.75-1.598 0-1.918.41-1.362 1.75m-91.497 1c.009.413.452 1.425.985 2.25.784 1.213.972 1.069.985-.75.008-1.237-.435-2.25-.985-2.25s-.993.337-.985.75m12.015 2.059q-.03 3.31-1.164 2.608c-.783-.484-.996.242-.689 2.337.332 2.262.1 2.906-.906 2.52-.791-.304-1.232.051-1.062.853.16.755-.271 1.261-.959 1.123s-1.25.2-1.25.75.927 1 2.059 1c1.317 0 1.799-.421 1.336-1.17-.466-.754-.204-.971.736-.61.965.371 1.512-.134 1.614-1.49.085-1.127.515-2.316.955-2.64 1.283-.946 1.509-4.9.39-6.822-.856-1.471-1.034-1.213-1.06 1.541M358 882c0 1.1.45 2 1 2s1 .59 1 1.311c0 .722.788 2.184 1.75 3.25.962 1.067 2.389 3.176 3.169 4.689 1.41 2.732 7.081 4.134 7.081 1.75 0-.55-.45-1-1-1s-1-.587-1-1.305c0-.717-1.57-3.018-3.489-5.113s-3.199-4.277-2.845-4.85c.373-.604.159-.742-.511-.327-.685.422-1.155.078-1.155-.846 0-.892-.855-1.559-2-1.559q-2 0-2 2m-109.737 2.769c-1.23 1.502-2.242 3.194-2.25 3.76-.007.566-.913 1.678-2.013 2.471s-2 2.242-2 3.221c0 2.788 3.485 2.122 5.081-.971.78-1.513 1.986-3.349 2.678-4.081.693-.731 1.004-1.744.691-2.25-.312-.505-.091-.919.491-.919s1.059-.9 1.059-2c0-2.707-1.069-2.487-3.737.769M920.5 887c.351.567-.49 1-1.941 1-1.407 0-2.447.337-2.309.75s-.196.75-.74.75c-1.109 0-2.367 5.315-1.716 7.25.718 2.137 3.28 1.383 6.305-1.856 1.595-1.708 2.901-2.518 2.901-1.8 0 .975.288 1.018 1.136.17.847-.847 1.482-.789 2.5.229 2.312 2.312 1.608 6.124-1.636 8.854-1.65 1.388-3 3.479-3 4.647s-.45 1.846-1 1.506c-1.565-.967-1.182 4.461.429 6.071.785.786 2.248 1.422 3.25 1.414 1.541-.013 1.591-.164.321-.985q-1.5-.969-.25-.985c.688-.008 1.25-.717 1.25-1.574s.45-1.281 1-.941 1-.128 1-1.04 1.35-2.919 3-4.46 3-3.773 3-4.96.45-1.88 1-1.54c.585.362 1-.676 1-2.5s-.415-2.862-1-2.5c-.565.349-1-.471-1-1.884 0-2.525-3.575-5.997-5.163-5.015-.46.284-.837.04-.837-.542S926.173 886 923.941 886c-2.451 0-3.814.396-3.441 1m-497.562 4.575c-.979 1.179-.687 1.413 1.69 1.355 2.883-.071 7.746-1.668 5.872-1.929-.55-.076-2.21-.299-3.69-.495-1.503-.2-3.211.272-3.872 1.069m141.062.21c0 .432 2.507.89 5.57 1.019 3.579.149 5.346-.131 4.941-.786-.732-1.184-10.511-1.401-10.511-.233m-287.25 8.938c1.788.222 4.712.222 6.5 0 1.788-.221.325-.403-3.25-.403s-5.038.182-3.25.403m76.75.277c-.352.569.509 1 2 1s2.352-.431 2-1c-.34-.55-1.24-1-2-1s-1.66.45-2 1m-300.25 4.469c-.844.977-1.25 5.193-1.25 12.989 0 8.498.33 11.576 1.25 11.671.688.07 27.744.022 60.125-.108 42.184-.169 58.686.072 58.204.851-.475.769 2.624.928 10.625.543 17.435-.838 15.796.512 15.796-13.005 0-8.679-.355-11.908-1.429-12.981-1.642-1.642-37.571-2.153-37.571-.534 0 .497-4.106.674-9.25.397-25.92-1.392-95.254-1.265-96.5.177m181.478-.658c.902.573.703 1.157-.75 2.205-1.728 1.245-1.978 2.608-1.978 10.776 0 12.352.141 12.485 13.332 12.611 23.324.222 56.668-.456 56.667-1.153 0-.633-3.593-.849-20.169-1.213-1.445-.032-1.67-1.372-1.67-9.958v-9.922l18.67-.177 23.67-.224c10.521-.099 9.621-1.077 9.426 10.244-.13 7.52-.499 10-1.49 10-.725 0-1.596.45-1.936 1-.402.65 4.693 1 14.55 1h15.169l-.417-3.568c-.502-4.305 1.618-5.983 5.633-4.457 2.939 1.118 3.423 4.31 1.017 6.715-1.975 1.976-2.211 1.919 6.256 1.503 5.981-.294 7.309-.672 7.802-2.224 1.206-3.802 1.149-21.437-.074-22.668-1.549-1.559-70.436-1.863-70.436-.311 0 .556-.477 1.01-1.059 1.01s-.781-.45-.441-1c.396-.64-2.823-1-8.941-1-5.257 0-9.559.398-9.559.883 0 1.26-3.539 2.02-5.051 1.085-.882-.544-.531-.926 1.139-1.241 1.327-.25-9.513-.509-24.088-.576s-25.948.231-25.272.66m87.522.905c1.512.229 3.988.229 5.5 0s.275-.416-2.75-.416-4.262.187-2.75.416m35.535 2.034c-1.175 5.678 2.837 9.107 6.302 5.387 1.052-1.129 1.913-2.554 1.913-3.167 0-3.564-7.517-5.595-8.215-2.22m-227.535 1.61c-2.019 1-2.25 1.847-2.25 8.255 0 9.646.216 9.783 15.364 9.732 17.474-.059 22.636-1.376 22.636-5.776 0-2.152 1.27-1.971 3 .429 1.096 1.52 2.589 2 6.221 2 4.539 0 4.781-.138 4.811-2.75.029-2.488.157-2.585 1.349-1.016.724.954 1.61 1.442 1.968 1.084s.651.099.651 1.015c0 2.548 8.125 2.685 10.63.18 2.625-2.625.469-10.49-2.88-10.505-.963-.004-1.75-.548-1.75-1.208 0-.933-.267-.933-1.2 0-.66.66-1.845 1.2-2.634 1.2s-2.498 1.237-3.798 2.75c-1.847 2.147-2.366 2.371-2.367 1.023-.003-4.545-9.597-5.974-12.705-1.892-1.1 1.445-1.236 1.45-1.264.049-.018-.863-1.16-2.55-2.54-3.75-2.341-2.035-3.454-2.172-16.75-2.057-8.195.07-15.197.596-16.492 1.237m206.95-.16c-2.377 2.377-1.485 6.8 1.371 6.8 4.512 0 6.117-2.638 3.379-5.553-2.62-2.789-3.086-2.911-4.75-1.247m-195.92.536c2.629.207 6.679.204 9-.005 2.321-.21.17-.379-4.78-.376s-6.849.175-4.22.381m-81.279 1.514c-.001.413-.811.75-1.801.75-3.944 0-5.352 4.378-3.039 9.453l1.16 2.547h33.411c36.983 0 36.268.126 36.268-6.406 0-6.867-1.145-7.094-35.706-7.094-16.661 0-30.293.337-30.293.75m179.249 2.246c-1.689 1.919-1.583 7.314.179 9.075.785.786 2.842 1.429 4.571 1.429 3.993 0 6-2.007 6-6 0-1.729-.643-3.786-1.429-4.571-1.826-1.827-7.691-1.785-9.321.067M350 916.8c0 5.211 7.291 7.843 8.172 2.95.819-4.545-.071-5.75-4.245-5.75-3.634 0-3.927.209-3.927 2.8m15.629-1.274c-1.366 3.557.402 6.604 3.642 6.278 6.184-.621 6.188-6.986.006-7.608-2.073-.208-3.219.209-3.648 1.33M252 918.042c0 1.259.949 1.65 4 1.65 3.253 0 4-.352 4-1.886 0-1.574-.663-1.848-4-1.651-2.956.174-4 .667-4 1.887m9.481-1.011c-1.093 1.769.97 3.16 4.147 2.797 4.02-.459 3.803-3.238-.284-3.634-1.736-.169-3.474.208-3.863.837m658.937 3.439c-.412 1.641-.056 3.035 1.059 4.15 1.572 1.572 1.843 1.515 4.25-.893 2.342-2.342 2.431-2.712.994-4.149-2.432-2.432-5.58-1.986-6.303.892m-583.168-.808c-1.752.707-1.559 5.171.303 7.034 1.404 1.404 1.788 1.332 4-.746 2.875-2.7 2.97-3.285.876-5.379-1.592-1.591-2.913-1.823-5.179-.909M950.5 927c-.34.55-1.491 1-2.559 1-1.091 0-1.941.682-1.941 1.559 0 .857-.45 1.281-1 .941-.616-.381-1 1.323-1 4.441 0 3.514.382 4.983 1.25 4.809.688-.138 1.138.313 1 1s.602 1.25 1.643 1.25 2.152.675 2.469 1.5 1.007 1.5 1.535 1.5 1.635-.675 2.46-1.5 1.789-1.5 2.143-1.5c.862 0 2.722-2.088 4.243-4.764 1.334-2.347-.944-8.136-3.541-9.002-1.478-.493-1.666 5.361-.202 6.266.55.34.993 1.154.985 1.809-.01.716-.403.592-.985-.309-.766-1.185-.973-.965-.985 1.046-.013 2.205-.494 2.577-3.597 2.786-2.269.153-3.347-.138-2.941-.795.353-.57.146-1.037-.458-1.037-.659 0-1.004-1.631-.86-4.064.247-4.19 1.841-6.721 1.841-2.924 0 1.172.634 2.765 1.409 3.54 1.212 1.212 1.532 1.027 2.29-1.322 1.612-4.999-.916-9.924-3.199-6.23M304 929c0 .55 1.152 1 2.559 1 1.451 0 2.292-.433 1.941-1-.34-.55-1.491-1-2.559-1s-1.941.45-1.941 1m6 .06c0 .517 2.775.94 6.167.94s5.955-.211 5.697-.469c-.953-.953-11.864-1.386-11.864-.471"/></svg>