<svg xmlns="http://www.w3.org/2000/svg" viewBox="0 0 1024 1024"><path fill="#00e5cc" d="M460 162.571c-.825.229-9.6.903-19.5 1.499-9.9.595-24.075 1.453-31.5 1.906s-19.8 1.123-27.5 1.49-14.675.904-15.5 1.194-6.45.703-12.5.919c-10.666.382-24.482 2.199-25.5 3.354-.275.312-1.37 1.047-2.433 1.634s-2.413 1.918-3 2.958-1.692 2.567-2.456 3.393c-3.441 3.723-4.111 7.885-4.111 25.55 0 9.643.342 17.532.761 17.532.418 0 .885 8.121 1.038 18.046.153 9.926.627 19.938 1.052 22.25s.68 5.554.565 7.204.211 10.65.726 20c1.248 22.693 2.957 54.344 3.402 63 .197 3.85.412 12.175.478 18.5.076 7.388.426 10.785.977 9.5.68-1.584.831-1.272.728 1.5-.421 11.27.428 39.303 1.155 38.156.487-.768 1.109 11.434 1.453 28.5.57 28.227 1.293 45.246 3.756 88.344 2.76 48.301 3.012 105.824.512 117.005-.307 1.372-.753 6.41-.991 11.196s-.657 9.063-.932 9.508c-.274.444-.623 4.853-.776 9.799-.152 4.946-.613 10.235-1.024 11.755-.411 1.519-.828 7.144-.925 12.5s-.556 11.087-1.019 12.737-1.088 6.6-1.39 11-.765 9.575-1.03 11.5-.698 6.875-.962 11-.694 9.075-.956 11c-.786 5.775-2.745 28.102-2.986 34.032-.124 3.043-.568 6.087-.987 6.766-1.271 2.057-1.049 26.561.244 26.992.622.207 1.131 1.074 1.131 1.926s.93 2.356 2.066 3.341 1.975 2.147 1.865 2.581.648 1.256 1.684 1.826 2.155 1.403 2.485 1.852 1.23.912 2 1.029 1.946.552 2.613.969 4.267.8 8 .851 7.465.441 8.293.868 5.553 1.008 10.5 1.291c4.947.284 9.894.755 10.994 1.048 1.1.292 5.6.765 10 1.051s8.9.749 10 1.029 5.825.78 10.5 1.111c13.493.954 26.419 2.166 41.5 3.891 16.133 1.846 38.305 2.413 40.5 1.037.825-.517 2.625-1.078 4-1.246 1.375-.169 3.175-.585 4-.926s2.39-.79 3.479-.998 2.415-.815 2.95-1.35c.534-.534 1.781-.971 2.771-.971s1.8-.375 1.8-.833c0-.459.563-.843 1.25-.854s5.073-1.886 9.746-4.167c4.672-2.28 9.06-4.146 9.75-4.146s1.254-.45 1.254-1 .9-1 2-1 2-.375 2-.833c0-.459.563-.842 1.25-.852.688-.009 5.997-2.334 11.798-5.166s11.09-5.149 11.75-5.149 1.202-.45 1.202-1 .9-1 2-1 2-.477 2-1.059.414-.803.919-.491 1.529.002 2.274-.691c.745-.692 2.015-1.408 2.821-1.589.807-.182 1.696-.632 1.977-1 .28-.369 1.184-.816 2.009-.994s6.015-2.54 11.533-5.25c5.519-2.709 10.581-4.926 11.25-4.926s1.217-.45 1.217-1 .9-1 2-1 2-.477 2-1.059.414-.803.919-.491 1.529.002 2.274-.691c.745-.692 2.015-1.408 2.821-1.589.807-.182 1.696-.632 1.977-1 .28-.369 1.282-.799 2.227-.956.944-.158 4.253-1.62 7.351-3.25 3.099-1.63 6.263-2.964 7.033-2.964.769 0 1.398-.477 1.398-1.059s.414-.803.919-.491 1.529.002 2.274-.691c.745-.692 2.019-1.405 2.831-1.584s1.627-.744 1.811-1.256c.185-.512.711-.7 1.17-.416.458.283 1.443-.051 2.188-.744.745-.692 2.015-1.408 2.821-1.589.807-.182 1.747-.783 2.088-1.336.342-.552.909-.966 1.26-.919 2.372.317 3.666-.06 3.138-.915-.34-.55.295-1 1.411-1 1.115 0 3.631-.9 5.589-2s4.222-2 5.03-2c.809 0 1.47-.45 1.47-1s.9-1 2-1 2-.477 2-1.059.414-.803.919-.491 1.529.002 2.274-.691c.745-.692 2.015-1.408 2.821-1.589.807-.182 1.696-.632 1.977-1 .28-.369 1.333-.811 2.34-.982 1.006-.172 3.383-1.185 5.28-2.25 1.897-1.066 4.111-1.938 4.919-1.938.809 0 1.47-.45 1.47-1s.9-1 2-1 2-.477 2-1.059.414-.803.919-.491 1.529.002 2.274-.691c.745-.692 1.99-1.4 2.767-1.571.778-.172 2.195-1.214 3.151-2.316s2.06-1.861 2.454-1.688 1.216-.559 1.826-1.629 1.897-2.843 2.859-3.939c1.548-1.763 1.958-3.058 1.665-5.254-.047-.351.465-.979 1.138-1.395 1.466-.906 1.412-52.858-.06-57.991-.494-1.724-.921-12.369-.949-23.656s-.369-21.037-.76-21.669c-.39-.632-1.091-13.524-1.557-28.65-.467-15.125-1.281-39.201-1.81-53.501-.528-14.3-1.18-35-1.447-46s-.911-20.9-1.431-22-1.192-15.725-1.495-32.5-.699-32.075-.88-34 .012-3.956.429-4.513c.708-.945 1.042-5.128 2.48-30.987.306-5.5.977-10.428 1.492-10.95.514-.522.935-5.84.935-11.816s.422-11.654.937-12.617 1.193-5.771 1.504-10.684c1.493-23.542 2.356-34.102 2.935-35.933.348-1.1.834-5.825 1.08-10.5s.884-13 1.418-18.5c2.293-23.596 2.439-28.187 1.05-32.893-.748-2.534-1.739-4.607-2.201-4.607-.463 0-.585-.414-.273-.919.313-.506.002-1.538-.691-2.293-.692-.755-1.78-2.253-2.416-3.33s-1.649-1.845-2.25-1.708c-.601.138-1.093-.145-1.093-.629 0-1.068-4.832-3.157-7.825-3.383-1.196-.09-2.175-.42-2.175-.732 0-.313-2.138-1.193-4.75-1.956s-5.425-1.717-6.25-2.121-3.525-1.309-6-2.012c-2.475-.702-4.985-1.637-5.578-2.077-.594-.44-1.944-.967-3-1.17s-2.597-.611-3.422-.907c-.825-.295-3.75-1.226-6.5-2.068-7.252-2.221-14.738-4.827-16.736-5.827-.955-.477-2.424-.868-3.264-.868s-2.309-.404-3.264-.897c-.955-.494-5.111-1.927-9.236-3.186s-7.985-2.646-8.578-3.083c-.594-.437-2.045-.942-3.225-1.122s-2.457-.639-2.838-1.02c-.381-.38-1.716-.692-2.967-.692s-2.552-.45-2.892-1-1.69-1-3-1-2.66-.45-3-1-1.498-1-2.573-1-2.736-.395-3.691-.877c-.955-.483-3.536-1.412-5.736-2.066s-4.9-1.556-6-2.004c-2.986-1.215-33.765-11.017-35.5-11.304-.825-.137-1.725-.54-2-.896s-1.625-.806-3-1-2.725-.644-3-1-1.625-.806-3-1-2.75-.688-3.056-1.098-1.768-.846-3.25-.968c-1.482-.123-2.694-.477-2.694-.787s-2.138-1.187-4.75-1.95-5.425-1.717-6.25-2.121c-1.641-.803-9.897-3.203-11.5-3.342-.55-.048-1.233-.395-1.519-.772-.285-.376-1.635-.87-3-1.096s-3.233-.74-4.153-1.142-2.269-.851-3-.998a120 120 0 0 1-3.828-.882c-6.407-1.579-21.237-2.893-24-2.126m-12.5 6.462c-4.95.45-14.175.879-20.5.953-6.325.075-13.075.522-15 .994s-9.321 1.144-16.435 1.494-13.228.817-13.585 1.038-5.561.474-11.565.562-12.942.525-15.419.971-8.103.904-12.5 1.018c-4.398.115-9.176.804-10.619 1.533s-2.978 1.005-3.411.614-.463-.147-.067.54c.395.688.21 1.25-.411 1.25-1.41 0-3.381 2.072-3.818 4.014-.182.807-.632 1.696-1 1.977-1.342 1.02-1.132 3.012.33 3.134.825.069 2.063.211 2.75.316.688.105 1.962-.151 2.831-.57.87-.418 5.595-.846 10.5-.949 4.906-.104 12.069-.582 15.919-1.063 11.143-1.392 31.341-1.418 32.717-.042.911.911-.876 1.214-7.767 1.317-4.923.074-11.65.276-14.95.45s-11.738.61-18.75.969q-12.75.652-12.797 1.8c-.027.631-.028 7.897-.004 16.147.029 9.815-.282 14.459-.899 13.435-.518-.861-1.041-7.605-1.161-14.986-.164-10.058-.576-13.779-1.644-14.847-.963-.963-1.642-1.078-2.089-.354-.364.589-2.011 1.225-3.659 1.412l-2.997.34.372 18c.205 9.9.525 20.025.712 22.5.846 11.231 2.447 40.908 2.967 55 .315 8.525.744 18.65.955 22.5l1.015 18.5c.674 12.274 1.044 22.72 2.03 57.256.363 12.719 1.001 21.521 1.535 21.191.53-.328.982 4.608 1.077 11.744.089 6.77.303 15.234.476 18.809.172 3.575.726 16.625 1.231 29s1.175 23.4 1.488 24.5.757 11.519.986 23.152c.23 11.634.677 21.573.995 22.087s.635 8.771.706 18.348.511 19.438.978 21.913.912 12.825.989 23c.134 17.818 1.179 26 3.318 26 .557 0 1.807.719 2.778 1.598s2.174 1.346 2.673 1.037c.996-.615.927-12.053-.192-32.135-1.034-18.548-1.205-33.502-.384-33.501 1.235.002 1.747 5.988 2.311 27.001.797 29.75 1.548 41.415 2.712 42.138.566.351.714 1.146.331 1.767-.383.62-1.103.877-1.599.57-1.33-.822-2.657 7.391-3.558 22.025-.237 3.85-.825 9.475-1.305 12.5-.481 3.025-.927 8.425-.992 12-.131 7.186-.906 11.999-1.934 12.002-.369.001-.53-4.724-.357-10.5S344.503 672 344.962 672s1.071-5.513 1.363-12.25.821-15.513 1.174-19.501c.677-7.651.412-8.334-4.274-10.999-3.256-1.852-3.225-1.921-3.225 7.191 0 4.643-.394 8.685-.876 8.983s-.956 5.13-1.053 10.739c-.096 5.608-.442 10.628-.767 11.154-.326.527-.8 5.509-1.054 11.07-.255 5.562-.81 10.563-1.235 11.113-.424.55-.853 5.146-.953 10.214-.099 5.067-.538 10.467-.976 12s-.871 7.459-.965 13.171-.458 10.852-.81 11.421-.803 4.67-1.004 9.114-.641 9.205-.978 10.58c-.338 1.375-.751 4.975-.918 8-.673 12.202-3.986 46.221-5.357 55-1.567 10.038.346 11.462 16.946 12.619 4.675.325 8.928.994 9.45 1.486.523.492 4.61.895 9.083.895 4.474 0 8.471.338 8.884.75.972.972.984.973 11.833 1.155 7.231.122 8.839.395 7.366 1.25-2.431 1.412-16.409 1.261-18.165-.196-.74-.614-2.381-1.031-3.648-.927-6.37.523-15.868-.117-15.303-1.032.763-1.234-.006-1.351-10-1.522-4.4-.075-9.687-.475-11.75-.889-3.167-.635-3.75-.486-3.75.961 0 1.643 8.279 10.793 9.101 10.058.219-.196 2.874.029 5.899.5 3.025.47 8.425 1.098 12 1.394s7.85.792 9.5 1.103 6.581.786 10.957 1.056 8.652.84 9.5 1.268c.849.427 6.462.867 12.475.977 6.012.11 11.326.444 11.808.742s3.887.737 7.568.977c3.68.239 8.492.824 10.692 1.3 2.2.475 7.298.936 11.33 1.025 4.031.088 8.306.504 9.5.924 5.795 2.039 40.268 2.04 41.689.001.285-.41 1.635-.931 3-1.158 1.364-.228 3.606-.88 4.981-1.448 1.375-.569 2.838-.835 3.25-.593.413.243.75-.035.75-.617s.624-1.059 1.386-1.059 2.642-.652 4.178-1.449 3.232-1.177 3.769-.845c.541.334.658.089.262-.551-.619-1.003.172-1.304 2.941-1.119.294.019 1.231-.66 2.08-1.509.85-.85 1.921-1.313 2.379-1.03.459.284.985.096 1.17-.416s.999-1.077 1.811-1.256 2.086-.892 2.831-1.584 1.768-1.004 2.274-.691c.505.312.919.091.919-.491s.9-1.059 2-1.059 2-.45 2-1 .647-1 1.438-1c.792 0 3.829-1.308 6.75-2.906 2.922-1.598 6.212-3.061 7.312-3.25s2.229-.645 2.509-1.014c.281-.368 1.17-.818 1.977-1 .806-.181 2.076-.897 2.821-1.589.745-.693 1.768-1.004 2.274-.691.505.312.919.091.919-.491s.9-1.059 2-1.059 2-.45 2-1 .629-1 1.398-1c.77 0 3.934-1.334 7.033-2.964 3.098-1.63 6.407-3.092 7.351-3.25.945-.157 1.947-.587 2.227-.956.281-.368 1.17-.818 1.977-1 .806-.181 2.076-.897 2.821-1.589.745-.693 1.73-1.027 2.188-.744.459.284.985.096 1.17-.416s.999-1.077 1.811-1.256 2.086-.892 2.831-1.584 1.768-1.004 2.274-.691c.505.312.919.091.919-.491s.564-1.059 1.254-1.059 4.966-1.8 9.503-4.001c4.536-2.2 8.809-4.113 9.496-4.25.686-.137 1.476-.55 1.756-.919.281-.368 1.17-.818 1.977-1 .806-.181 2.076-.897 2.821-1.589.745-.693 1.768-1.004 2.274-.691.505.312.919.091.919-.491s.599-1.059 1.331-1.059c.731 0 3.509-1.103 6.173-2.452s5.284-2.179 5.824-1.845c.546.337.665.094.267-.548-.604-.979 1.664-1.731 2.726-.905.177.138 1.113-.542 2.081-1.509.968-.968 2.173-1.504 2.679-1.191s.919.091.919-.491.862-1.059 1.917-1.059c1.054 0 2.066-.416 2.25-.925.183-.509.997-1.071 1.809-1.25s2.086-.892 2.831-1.584 1.768-1.004 2.274-.691c.505.312.919.091.919-.491s.599-1.059 1.331-1.059c.731 0 3.509-1.103 6.173-2.452s5.215-2.222 5.669-1.941c.455.281.827.034.827-.548s.862-1.059 1.917-1.059c1.054 0 2.066-.416 2.25-.925.183-.509.997-1.071 1.809-1.25s2.086-.892 2.831-1.584 1.768-1.004 2.274-.691c.505.312.919.091.919-.491s.9-1.059 2-1.059 2-.45 2-1 .707-1 1.571-1c.865 0 2.251-.679 3.081-1.509s1.992-1.211 2.583-.846c.637.394.783.194.36-.49-.422-.685-.078-1.155.846-1.155.857 0 1.559-.702 1.559-1.559 0-.964.477-1.285 1.25-.84.688.396.93.365.54-.067-.391-.433-.053-2.058.75-3.611s1.46-3.091 1.46-3.417c0-.99-3.409-.092-4.856 1.279-1.06 1.004-1.672 1.022-2.804.082-1.214-1.008-.914-1.436 1.856-2.651 1.817-.797 3.871-1.471 4.564-1.499 2.237-.089 3.426-6.851 2.851-16.217-.304-4.95-.91-20.925-1.348-35.5-.437-14.575-1.12-27.011-1.518-27.637-.398-.625-.753-9.974-.791-20.776-.037-10.802-.477-22.154-.977-25.228-.5-3.073-.965-15.324-1.033-27.223-.069-11.9-.528-24.111-1.022-27.136-.493-3.025-.925-14.725-.959-26s-.479-22.3-.989-24.5-1.159-14.8-1.442-28c-.879-40.968-1.526-51.5-3.163-51.5-1.529 0-7.13 5.345-8.978 8.567-1.217 2.121-2.612 2.271-3.252.349-.268-.802.179-1.008 1.276-.587.958.368 1.435.238 1.103-.3-.322-.521 2.093-3.667 5.366-6.992l5.952-6.045.577-7.246c.317-3.985.841-11.971 1.164-17.746s1-10.928 1.505-11.45.918-5.81.918-11.75.393-10.8.874-10.8 1.146-6.413 1.478-14.25c.744-17.57 1.515-28.467 2.245-31.75.506-2.274 1.471-12.792 2.888-31.5.292-3.85.766-9.475 1.053-12.5s.777-10.352 1.088-16.282c.615-11.719-.004-13.718-4.248-13.718-1.308 0-2.378-.45-2.378-1s-1.44-1-3.2-1c-2.49 0-2.934-.266-1.999-1.201.934-.934 1.937-.934 4.521 0 5.877 2.126 6.919 1.229 4.509-3.877-1.148-2.434-8.893-6.922-11.944-6.922-.855 0-1.865-.312-2.246-.692-.381-.381-1.684-.844-2.895-1.029s-2.64-.773-3.175-1.308c-.534-.534-2.231-.971-3.771-.971s-2.8-.352-2.8-.782-1.212-.882-2.694-1.005-2.994-.709-3.362-1.303c-.367-.595-.842-.96-1.056-.813-.213.147-1.513-.087-2.888-.52s-3.617-.995-4.981-1.248c-1.365-.252-2.765-.918-3.112-1.48s-.805-.899-1.019-.752-1.513-.087-2.888-.52-3.617-.995-4.981-1.248c-1.365-.252-2.765-.918-3.112-1.48s-1.03-.958-1.519-.883-1.788-.159-2.888-.52-3.117-.864-4.481-1.117c-1.365-.252-2.715-.768-3-1.144-.286-.377-1.644-.844-3.019-1.038s-2.725-.644-3-1-1.625-.806-3-1-2.725-.644-3-1-1.625-.806-3-1-2.725-.644-3-1-1.625-.806-3-1-2.775-.795-3.112-1.335c-.336-.541-.786-.832-1-.649-.743.64-10.888-2.531-10.888-3.403 0-.483-.337-.679-.75-.436-.413.242-1.875-.024-3.25-.593-1.375-.568-3.617-1.22-4.981-1.448-1.365-.227-2.715-.722-3-1.098s-1.644-.844-3.019-1.038-2.725-.644-3-1-1.175-.759-2-.896c-2.491-.413-15.463-4.643-16-5.216-.275-.294-1.625-.694-3-.888s-2.725-.644-3-1-1.625-.806-3-1-2.725-.644-3-1-1.625-.806-3-1-2.725-.644-3-1-1.625-.806-3-1-2.725-.644-3-1-1.175-.759-2-.895c-3.818-.633-21.581-6.799-22.235-7.718-.404-.569-.741-.721-.75-.338-.017.766-9.547-1.71-12.142-3.154-.895-.498-3.326-1.224-5.403-1.614-3.639-.682-3.749-.621-3.03 1.682.411 1.314.986 3.74 1.279 5.39.714 4.027 2.044 5.5 4.962 5.5 1.37 0 2.166.438 1.819 1-.34.55-1.69 1-3 1s-2.636.411-2.946.913-.567 27.681-.57 60.397c-.005 51.753-.2 59.559-1.495 60.056-1.445.554-2.052-.47-.939-1.583.711-.711.584-119.757-.129-120.911-.296-.479-1.889-.872-3.539-.872-1.745 0-2.742-.418-2.382-1 .34-.55 1.941-1 3.559-1 3.499 0 3.588-.758.941-8-1.1-3.009-2-5.495-2-5.523s-1.433-.161-3.184-.294c-1.75-.134-3.663-.595-4.25-1.027-1.441-1.059-19.964-1.133-31.066-.123m5.972 11.88c-1.115.472-7.19.895-13.5.941s-13.896.547-16.858 1.114c-2.963.568-10.838 1.039-17.5 1.047-7.831.01-11.596.343-10.649.942 1.623 1.027 16.462.703 43.035-.939 9.625-.595 19.841-1.219 22.703-1.388s5.671-.017 6.242.336c1.141.705 1.598 119.455.471 122.391-.346.904-.199 1.643.327 1.643 1.534 0 2.242-20.323 2.385-68.5.073-24.75.345-47.137.603-49.75l.47-4.75h5.4c2.969 0 5.399-.408 5.399-.907 0-1.67-25.188-3.594-28.528-2.18m47.069 8.021c-.317.513.781.895 2.441.847 1.66-.047 3.018-.467 3.018-.933 0-1.155-4.738-1.08-5.459.086M506.5 191c-.361.583.656 1 2.441 1 1.682 0 3.059.45 3.059 1s1.323 1 2.941 1 3.219-.45 3.559-1c.368-.595-.823-1-2.941-1-1.957 0-3.559-.45-3.559-1s-1.098-1-2.441-1-2.719.45-3.059 1m12.796 3.574c-1.637 1.241-1.513 1.365 1.395 1.394 3.654.037 5.245-1.49 2.344-2.249-1.068-.279-2.75.106-3.739.855m5.704 2.309c0 1.099 2.916 1.846 5.25 1.345 3.094-.663 1.865-2.228-1.75-2.228-1.925 0-3.5.398-3.5.883m6.5 2.117c-.368.595.823 1 2.941 1 1.957 0 3.559-.45 3.559-1s-1.323-1-2.941-1-3.219.45-3.559 1m7.075.758c-1.254 1.254-.456 2.242 1.811 2.242 1.312 0 3.642.652 5.178 1.449 2.728 1.415 4.436 1.264 4.436-.391 0-.454-1.013-1.059-2.25-1.345s-3.679-.973-5.425-1.525c-1.746-.553-3.433-.746-3.75-.43m11.865 4.34c-.732 1.184 1.549 2.207 4.722 2.116 1.581-.044 2.614.339 2.297.852-.317.514.548.934 1.923.934s2.778-.45 3.118-1c.349-.565-.47-1-1.882-1-1.375 0-2.746-.398-3.047-.885-.722-1.168-6.526-1.996-7.131-1.017m-136.682 2.477c-.555.555-3.079 1.19-5.36 1.348-1.779.124-7.521 6.07-6.873 7.118.326.527.045.959-.624.959-.946 0-1.074 8.953-.578 40.25 1.019 64.168 2.776 146.48 3.23 151.25.156 1.65.321 22.939.366 47.309.053 29.264.421 44.099 1.081 43.691s1 10.323 1 31.441c0 20.706.354 32.059 1 32.059.55 0 1 .627 1 1.393 0 1.572 2.697 2.912 4.107 2.041.509-.315.662-.998.34-1.519s-.918-.742-1.324-.491c-.618.382-1.123-2.923-1.401-9.174-.03-.687-.427-1.25-.88-1.25-.454 0-.838-30.487-.854-67.75-.016-37.262-.454-73.15-.974-79.75s-.967-32.475-.994-57.5-.493-52.925-1.035-62c-1.679-28.123-1.207-68.708.828-71.14 3.21-3.839 6.361-4.7 17.185-4.7 14.617 0 14.28-.468 15.75 21.84.489 7.425.987 38.668 1.107 69.428.119 30.761.623 57.761 1.12 60 .497 2.24.933 26.347.967 53.572.035 27.225.5 63 1.033 79.5.534 16.5.983 38.365.998 48.589l.027 18.59-3.473 3.16c-3.348 3.047-3.793 3.161-12.3 3.161-4.978 0-9.297-.47-9.905-1.078-1.302-1.302-6.424-.831-6.288.578.054.55.788.857 1.632.683.882-.182 1.254.137.875.75-.45.728 2.773 1.104 10.15 1.182 13.108.14 14.604-.002 15.544-1.468.404-.631.741-.725.75-.21.008.515 1.349-.341 2.979-1.903s2.729-3.221 2.441-3.687c-.287-.466-.003-.847.632-.847.864 0 .997-9.019.526-35.75-.345-19.663-.853-58.925-1.127-87.25-.273-28.325-.886-55.325-1.36-60s-.922-29.875-.996-56-.568-51.55-1.099-56.5-.941-18.271-.911-29.603c.059-22.839-.537-25.451-6.629-29.025-2.883-1.692-20.249-2.731-21.683-1.297M570 211c0 .55 1.26 1 2.8 1s3.237.437 3.771.971c.535.535 1.963 1.123 3.175 1.308s2.514.648 2.895 1.029 1.652.692 2.826.692c1.173 0 2.652.519 3.287 1.154s2.532 1.114 4.217 1.066c1.686-.048 2.836.282 2.557.734-.478.775 1.609 1.386 9.222 2.703 1.788.309 3.25.963 3.25 1.452 0 .49 1.35.891 3 .891s3-.45 3-1-1.35-1-3-1-3-.45-3-1-1.35-1-3-1-3-.45-3-1-1.323-1-2.941-1-3.219-.45-3.559-1-2.193-1-4.118-1c-2.079 0-3.249-.406-2.882-1 .368-.595-.823-1-2.941-1-1.957 0-3.559-.45-3.559-1s-1.35-1-3-1-3-.45-3-1-1.35-1-3-1-3 .45-3 1m44.5 14c-.361.583.656 1 2.441 1 1.682 0 3.059.398 3.059.883 0 1.531 4.923 1.915 6.116.477.917-1.104.447-1.36-2.494-1.36-1.992 0-3.622-.45-3.622-1s-1.098-1-2.441-1-2.719.45-3.059 1m12.5 4c0 .55.675 1.056 1.5 1.125 1.629.136 2.222.277 4.5 1.07 5.463 1.903 8.917 2.805 10.738 2.805 1.152 0 2.245.407 2.429.905.53 1.44 5.103 1.723 5.573.345.279-.817-.613-1.25-2.573-1.25-1.65 0-3.15-.422-3.334-.939-.183-.516-1.553-1.099-3.045-1.295s-3.029-.674-3.417-1.062c-.387-.387-1.728-.704-2.979-.704s-2.552-.45-2.892-1-1.941-1-3.559-1-2.941.45-2.941 1m-293.625 4.125c.344 1.719.688 10.156.766 18.75.106 11.757.329 14.263.901 10.125.934-6.76 1.182-28.251.351-30.418-1.111-2.896-2.668-1.706-2.018 1.543M652 237c0 .55.9 1 2 1s2.326.034 2.725.075.886-.409 1.083-1c.204-.612-.97-1.075-2.725-1.075-1.695 0-3.083.45-3.083 1m6.419 1.131c-.809 1.309 3.855 2.821 5.247 1.701q1.167-.94 1.649.634c.379 1.237.448 1.204.327-.157-.168-1.883-6.268-3.723-7.223-2.178m8.86 2.198c.216.644 1.254 1.192 2.307 1.218 1.053.025 1.802.588 1.664 1.25-.151.726.94 1.203 2.75 1.203 1.65 0 3-.45 3-1s-1.098-1-2.441-1-2.686-.396-2.984-.879c-.879-1.421-4.747-2.135-4.296-.792M678 245c0 .55 1.35 1 3 1s3 .45 3 1 1.35 1 3 1 3-.45 3-1-1.35-1-3-1-3-.45-3-1-1.35-1-3-1-3 .45-3 1m-342.03 38c-.448 12.603.198 32.413 1.109 34 1.067 1.861.994-34.284-.079-38.5-.587-2.305-.825-1.263-1.03 4.5m131.572 29.75c-.378 2.613-.9 6.173-1.162 7.912s-.004 3.452.572 3.809c.648.4 1.057-.615 1.072-2.662.014-1.82.29-5.672.613-8.559.735-6.547-.164-6.957-1.095-.5M488.308 411c-.003 52.494.346 90.944.786 86.5.903-9.119.743-168.371-.177-176-.332-2.75-.606 37.525-.609 89.5M466 360.815c0 19.213-.43 54.227-.955 77.809-1.096 49.209-2.181 147.853-1.62 147.269 1.652-1.719 2.425-23.614 3.086-87.393 1.677-161.766 1.71-171.245.603-171.929-.811-.502-1.114 8.819-1.114 34.244M337.953 333.5c-.202 11.28.195 31.981.621 32.407.234.235.689.164 1.01-.157.965-.965.419-34.928-.589-36.652-.659-1.127-.966.172-1.042 4.402m2.246 57c0 10.45.361 20.125.801 21.5.46 1.438.801-5.572.801-16.5 0-10.45-.361-20.125-.801-21.5-.46-1.438-.801 5.572-.801 16.5m2.551 36.397c-1.123 9.581-.857 35.187.335 32.206.528-1.318.837-10.543.687-20.5-.212-14.108-.437-16.691-1.022-11.706m320.219 30.084c-5.073 5.488-9.542 9.783-9.93 9.543s-.706.221-.706 1.024c0 1.263.225 1.257 1.662-.044.915-.827 1.974-1.504 2.355-1.504 1.43 0 11.715-11.086 11.143-12.012-.347-.562.124-.688 1.129-.303 1.306.501 1.574.268 1.103-.96-.461-1.2-.2-1.461 1-1 1.2.46 1.46.2 1-1-.439-1.143-.194-1.459.826-1.067.797.306 1.449.084 1.449-.492 0-3.109-2.709-1.19-11.031 7.815M344 490.071c0 19.683.232 23.304 1.578 24.65 1.438 1.438 1.549 1.409 1.25-.321-.18-1.045-.629-2.129-.997-2.409-.369-.28-.369-3.205 0-6.5.976-8.739.315-38.491-.856-38.491-.605 0-.975 8.748-.975 23.071m295.206-10.472c-2.912 2.997-5.026 5.884-4.698 6.414.346.56-.127.687-1.13.302-1.306-.501-1.574-.268-1.103.96.439 1.143.194 1.459-.826 1.067-.798-.306-1.449.016-1.449.718 0 .7-.301.972-.669.604-.898-.898-4.428 2.369-3.748 3.47.294.476-.242.866-1.191.866s-1.447.278-1.107.618c.614.614-11.173 12.31-12.453 12.357-1.233.046-9.09 8.101-8.488 8.702.829.829 5.656-2.471 5.656-3.867 0-.629.272-.872.603-.54.962.961 19.491-18.309 18.753-19.503-.369-.597-.202-.79.376-.433.573.354 1.593-.021 2.268-.834s1.56-1.272 1.968-1.02 1.785-.653 3.061-2.011c3.485-3.709 4.246-3.09 3.417 2.781-.408 2.887-.75 5.787-.76 6.444s-.282 1.107-.603 1c-.32-.107-.756.256-.967.806-.212.55-1.224 1.588-2.25 2.307-2.822 1.976-2.237 3.482.624 1.608 2.776-1.819 3.041-1.513 3.763 4.339.3 2.432.037 3.19-1.043 3-.795-.14-1.954.632-2.577 1.716-.623 1.083-2.355 3.161-3.848 4.618s-2.446 2.917-2.118 3.245 1.842-.737 3.366-2.368c3.656-3.914 3.967-3.783 3.967 1.668 0 3.455-.531 5.093-2.092 6.447-1.301 1.128-1.795 2.306-1.308 3.117.593.985.371.968-.908-.069-1.295-1.051-1.692-1.078-1.692-.118 0 .691-.972 2.099-2.16 3.129-1.189 1.031-1.866 2.168-1.507 2.528s1.449-.206 2.421-1.257c3.137-3.391 6.199-4.696 6.877-2.93.779 2.031-.286 6.032-2.085 7.831-.798.798-1.172 1.729-.832 2.07.341.34-.131.619-1.047.619-.917 0-1.667.45-1.667 1s.934 1 2.076 1c1.848 0 2.045.519 1.796 4.75-.276 4.68-1.644 7.25-3.86 7.25-.621 0-.852.45-.512 1s1.491 1 2.559 1c1.351 0 1.936.684 1.926 2.25-.013 1.819-.201 1.963-.985.75-.72-1.114-.973-.523-.985 2.295-.015 3.863-3.447 8.705-6.17 8.705-.991 0-.992.253-.003 1.242.855.855 1.461.91 1.95.177 2.193-3.296 4.208-2.342 4.208 1.992 0 3.822-.484 4.773-4 7.854-2.2 1.929-4 3.783-4 4.121 0 1.363 2.803.489 4.521-1.41 1.399-1.545 2.023-1.723 2.64-.75 1.178 1.857 1.032 6.011-.186 5.259-.563-.349-.96-.263-.881.191.484 2.787-.29 5.324-1.625 5.324-.843 0-1.79.672-2.105 1.494-.316.822-1.046 1.203-1.623.846-.583-.361-.756-.174-.389.42.363.588.095 1.271-.596 1.518-.691.246-.948.781-.571 1.187s1.715.018 2.973-.863c3.444-2.412 4.022-1.999 3.705 2.648-.272 4.003-1.686 6.71-3.542 6.782-.97.037-6.321 4.625-6.321 5.42 0 .301.707.548 1.571.548 1.948 0 4.746-2.677 4.023-3.848-.293-.475.578-.651 1.936-.391 2.057.393 2.47 1.048 2.47 3.915 0 2.347-.367 3.215-1.155 2.729-.703-.435-.883-.276-.46.409.808 1.307-4.464 7.186-6.443 7.186-.971 0-1.04.302-.249 1.093s1.814.621 3.7-.615L628 622.77v5.186c0 4.787-1.437 7.958-3.714 8.198-1.839.194-4.448 2.775-3.825 3.784.455.735 1.519.437 3.226-.907 3.218-2.53 4.313-1.854 4.313 2.661 0 2.426-.699 4.18-2.178 5.463-1.672 1.449-1.904 2.163-1 3.067 2.149 2.149 1.453 9.468-1.072 11.271-2.11 1.506-2.141 1.687-.5 2.917 2.437 1.825 1.97 11.925-.539 11.664-2.157-.225-2.765.03-2.211.926.342.554-.39 1-1.641 1-1.783 0-2.001.258-1.034 1.225s1.639.967 3.186 0c2.939-1.835 3.106-1.627 2.869 3.571-.2 4.386-1.707 7.392-3.585 7.15-.41-.053-.906.388-1.103.979s.731 1.075 2.063 1.075c2.085 0 2.44.496 2.555 3.573.134 3.57-3.223 8.427-5.824 8.427-.607 0-.826.45-.486 1s-.116 1-1.012 1c-1.452 0-4.488 2.207-4.488 3.262 0 .223.655.405 1.456.405s1.224-.375.941-.834c-.47-.76.988-1.246 2.853-.951.413.065.75-.28.75-.765 0-.486.9-1.119 2-1.407 3.094-.809 2.915 7.536-.209 9.724-1.728 1.21-1.946 1.811-1 2.757 1.375 1.375 1.683 12.22.322 11.379-.487-.301-1.442.122-2.122.941S615.109 732 614.319 732s-1.159.45-.819 1-.309 1-1.441 1c-2.158 0-2.769 1.443-1.059 2.5.55.34 1 .115 1-.5s.45-.84 1-.5 1 .141 1-.441.9-1.059 2-1.059 2-.477 2-1.059.481-.762 1.069-.398c.588.363.94 2.527.782 4.809-.286 4.143-1.685 6.842-3.101 5.984-.413-.25-.75.248-.75 1.105 0 .919.865 1.559 2.107 1.559 1.598 0 1.943.423 1.43 1.75-.372.962-.941 3.1-1.264 4.75s-1.075 3.319-1.672 3.708c-.761.498-.715 1.078.157 1.95 2.129 2.129 1.559 9.507-.866 11.205-1.921 1.345-1.852 4.348.072 3.159 1.254-.775 1.861 1.72.968 3.978-.435 1.1-.823 3.154-.862 4.563-.054 1.966-.875 2.88-3.525 3.919-3.545 1.391-3.862 3.018-.588 3.018 1.012 0 4.406-1.35 7.543-3s6.332-3 7.102-3c.769 0 1.398-.45 1.398-1s.9-1 2-1 2-.45 2-1 .337-.947.75-.882c1.833.29 3.25-.198 3.25-1.118 0-.55-1.125-1-2.5-1s-2.5.45-2.5 1-.873 1-1.941 1-2.219.45-2.559 1-1.454 1-2.476 1c-1.021 0-2.047.563-2.278 1.25-.329.976-.782.951-2.072-.113-.909-.75-1.319-1.875-.913-2.5.79-1.215 1.977-17.774 2.827-39.412.312-7.955.9-13.042 1.466-12.691.577.356.946-4.68.946-12.892 0-7.547.415-13.622.944-13.809.519-.183 1.027-4.944 1.129-10.581.101-5.636.566-12.289 1.032-14.784s.894-8.234.95-12.753c.057-4.518.476-9.79.932-11.715s1.076-9.248 1.377-16.274c.301-7.025.768-13.13 1.038-13.567.269-.436.563-6.388.653-13.226s.528-13.123.974-13.967.913-7.144 1.039-14c.127-6.856.568-13.141.981-13.966s.935-6.915 1.159-13.534.697-12.503 1.051-13.075c.354-.573.716-6.3.805-12.727s.561-11.932 1.049-12.234.902-5.134.92-10.739c.048-14.899 1.336-23.409 3.877-25.613 2.122-1.84 2.701-3.139 1.34-3.003-.413.041-3.132 2.527-6.044 5.524m-16.057 30.005c-1.822 2.061-.649 3.039 1.303 1.086.852-.851 1.548-1.804 1.548-2.119 0-1.05-1.485-.512-2.851 1.033M486.655 526.75c-.358 8.663-.696 31.95-.75 51.75-.102 37.166-.641 46.101-2.865 47.475-.713.441-.982 1.309-.599 1.93.383.62 1.069.898 1.523.617 1.512-.934 2.036 2.54 2.036 13.501 0 6.161.433 11.126 1 11.477.811.501 1.775-24.905 1.094-28.824-.079-.454.217-.602.658-.329 1.188.734 15.497-13.136 14.768-14.315-.378-.612.056-.748 1.102-.347 1.337.513 1.576.274 1.063-1.063-.364-.949-.268-1.482.213-1.185.482.298 1.398-.089 2.037-.859.674-.812.774-1.64.239-1.97-.508-.314-3.346 2.008-6.307 5.161s-6.889 6.936-8.729 8.408c-2.169 1.735-3.084 3.142-2.601 4 .409.728-.067.558-1.06-.376-1.701-1.602-1.791-4.806-1.587-56.25.12-30.003.037-54.551-.183-54.551s-.693 7.087-1.052 15.75m133.687-13.301c.392 1.02.076 1.265-1.067.826-1.2-.46-1.46-.2-1 1 .461 1.2.2 1.461-1 1-1.228-.471-1.461-.203-.96 1.103.417 1.086.271 1.484-.393 1.074-.58-.359-1.686.18-2.457 1.198-.771 1.017-1.416 1.428-1.433.913-.041-1.19-6.032 4.495-6.032 5.723 0 .501-1.412 2.23-3.137 3.842s-2.86 3.209-2.52 3.548c.839.839 7.717-6.77 7.068-7.82-.283-.458.262-.535 1.211-.171 1.299.499 1.574.267 1.111-.938-.338-.881.034-2.139.826-2.796.793-.658 1.441-.861 1.441-.451s.675.185 1.5-.5 1.5-.873 1.5-.419c0 .453 1.781-.915 3.959-3.041 3.695-3.608 4.349-5.54 1.875-5.54-.576 0-.798.652-.492 1.449m-21.193 4.155c-.743.84-1.019 1.835-.613 2.212.406.376.939.122 1.184-.566.246-.687 1.111-1.25 1.922-1.25.812 0 1.198-.45.858-1-.844-1.366-1.754-1.202-3.351.604M346.757 523.5c-.934 8.798-.806 33.17.191 36.5 1.173 3.918 1.628-7.695 1.052-26.858-.438-14.576-.592-15.773-1.243-9.642m247.393-.55c.22.66.726 1.166 1.125 1.125 1.196-.124.964-1.495-.325-1.925-.66-.22-1.02.14-.8.8m-4.553 2.894c-.346.56-.142 1.319.453 1.687 1.538.95 2.53-.351 1.246-1.635-.718-.718-1.277-.735-1.699-.052m-9.169 9.627c-3.692 4.109-7.168 7.189-7.725 6.845-.576-.356-.705-.128-.298.529.392.635.228 1.155-.365 1.155-1.057 0-14.04 12.466-14.04 13.481 0 1.349 3.142.312 3.73-1.231 1.004-2.635 10.287-11.358 11.373-10.687.52.322.823-.01.672-.739-.151-.728.321-1.2 1.049-1.049.729.151 1.04-.187.691-.75-.348-.564-.147-1.025.448-1.025 1.699 0 12.196-10.934 11.53-12.012-.335-.541.085-.703.955-.37.854.328 1.552.098 1.552-.511 0-2.769-3.392-.514-9.572 6.364m37.155-5.721c-.412.413-1.275.75-1.916.75-.642 0-1.187.675-1.212 1.5s-.513 1.413-1.084 1.306-1.038.471-1.038 1.284c0 .955 1.181.335 3.334-1.752 1.833-1.776 3.333-3.367 3.333-3.534 0-.531-.642-.329-1.417.446m-10.447 6.605c-2.031 2.162-1.975 3.645.138 3.645.517 0 .69-.652.384-1.449-.354-.921-.075-1.265.764-.943.726.279 1.583-.18 1.905-1.019.974-2.537-.898-2.675-3.191-.234m-17.886 5.141c-1.961 2.227-1.469 2.694 1.08 1.024 1.281-.84 2.703-1.188 3.16-.774.457.415.507.192.111-.496-.94-1.634-2.788-1.529-4.351.246m13.759-.007c-.68.819-1.646 1.235-2.147.926s-.788.032-.637.761c.151.728-.321 1.2-1.049 1.049-.729-.151-1.04.187-.691.75.348.564 1.077 1.025 1.619 1.025 1.029 0 5.896-4.503 5.896-5.455 0-1.077-1.779-.516-2.991.944m13.873-.798a6.2 6.2 0 0 0-.012 1.523c.058.393-.564.457-1.382.143s-1.488-.073-1.488.536c0 1.57 2.534 1.373 3.926-.304.801-.965.839-1.616.123-2.059-.577-.356-1.102-.284-1.167.161m11.534 2.95c.511 1.333.36 1.418-.804.452-.985-.817-1.638-.86-2.086-.134-.983 1.59 2.283 2.444 3.976 1.04 1.535-1.275 1.151-2.999-.668-2.999-.576 0-.765.739-.418 1.641m-16.768.044c-.347.347-.159 1.199.418 1.894.808.975.521 1.136-1.259.706-1.831-.442-2.063-.295-1.124.712 1.446 1.551 4.317.616 4.317-1.407 0-1.689-1.418-2.838-2.352-1.905m-5.499 6.942c-1.292 1.378-2.107 2.748-1.81 3.045.54.54 5.661-4.097 5.661-5.127 0-1.176-1.609-.307-3.851 2.082m-13.847.572c.445 1.267.184 1.541-1.027 1.076-1.2-.46-1.46-.2-1 1 .461 1.2.2 1.461-1 1-1.2-.46-1.46-.2-1 1 .439 1.143.194 1.459-.826 1.067-.797-.306-1.449-.084-1.449.492 0 2.394 1.885 1.88 5.04-1.375 2.775-2.863 3.123-3.679 2.011-4.711-1.096-1.016-1.235-.933-.749.451m5.979 5.644c.12.361-.116.771-.526.911s-2.034 1.603-3.609 3.25c-1.574 1.648-3.431 2.996-4.127 2.996-.944 0-.982.34-.15 1.342.612.738.78 1.736.372 2.217-.407.481.042.276.998-.455s1.492-1.73 1.191-2.217.18-.887 1.07-.887 1.34-.45 1-1c-.556-.899.757-1.433 2.75-1.118.413.065.638-.444.5-1.132s.313-1.138 1-1 1.138-.312 1-1 .425-1.1 1.25-.917 1.149-.017.721-.445c-.987-.987-3.732-1.422-3.44-.545m9.898 2.473c-2.956 3.05-3.272 4.684-.905 4.684.517 0 .69-.652.384-1.449-.392-1.02-.076-1.265 1.067-.826 1.251.48 1.463.207.926-1.193-.559-1.456-.425-1.59.674-.677 1.48 1.228 5.35-1.846 4.011-3.186-1.329-1.328-3.002-.609-6.157 2.647M628 556.831c0 .457-1.237 1.47-2.75 2.25-3.778 1.949-5.494 3.715-4.762 4.9.359.58-.047.742-.973.386-1.783-.684-5.515 2.218-5.515 4.288 0 .74-.477 1.345-1.059 1.345s-.779.453-.436 1.008c.386.625 1.192.438 2.123-.493.825-.825 1.245-1.911.934-2.414-.31-.503.223-.727 1.187-.498 1.107.263 3.866-1.578 7.501-5.008 5.775-5.447 6.601-6.595 4.75-6.595-.55 0-1 .374-1 .831m-71.658 2.618c.392 1.02.076 1.265-1.067.826-1.2-.46-1.46-.2-1 1 .461 1.2.2 1.461-1 1-1.251-.48-1.463-.207-.926 1.193.559 1.456.425 1.59-.674.677-1.48-1.228-5.35 1.846-4.011 3.186 1.289 1.289 2.544.653 1.92-.972-.494-1.287-.339-1.4.715-.526 1.474 1.224 9.396-5.805 8.055-7.146-1.233-1.233-2.581-.722-2.012.762m24.757.946c-1.439 1.532-1.862 2.633-1.174 3.059 1.005.621 1.454-.001 1.205-1.668-.058-.393.642-.427 1.556-.076 1.24.476 1.503.226 1.039-.985-.439-1.143-.194-1.459.826-1.067.797.306 1.449.058 1.449-.551 0-1.889-2.545-1.221-4.901 1.288m-15.528 5.176c-1.059.775-1.642 1.692-1.296 2.038.347.346 1.38-.121 2.296-1.038 2.156-2.155 1.49-2.82-1-1m34.039 1.979c-4.086 3.679-4.358 5.456-.522 3.403 2.376-1.271 6.912-5.477 6.912-6.408 0-1.497-2.91-.129-6.39 3.005M546 569c0 .55-.765 1-1.7 1-1.269 0-1.412.288-.564 1.136.847.847 1.532.739 2.7-.429q2.704-2.706.564-2.707c-.55 0-1 .45-1 1m14.074 1.579c-1.334 1.277-2.866 2.049-3.404 1.717-.544-.336-.662-.092-.265.549.422.685.078 1.155-.846 1.155-.857 0-1.447.563-1.309 1.25s-.425 1.1-1.25.917-1.149.017-.721.445c1.266 1.267 3.677 1.298 3.44.045-.12-.636.231-1.102.781-1.034 1.316.161 7.678-6.405 6.731-6.947-.402-.23-1.823.626-3.157 1.903M583 572c-1.925 2.149-4.074 3.929-4.776 3.954-1.869.067-10.422 8.917-9.719 10.055.35.565-.119.692-1.127.306-1.306-.501-1.574-.268-1.103.96.441 1.147.195 1.459-.839 1.062-1.704-.654-4.67 1.475-3.866 2.776.91 1.473 2.685.995 2.088-.562-.388-1.012-.076-1.265 1.035-.839 1.075.413 2.957-.898 5.798-4.035 2.313-2.556 4.571-4.316 5.018-3.912.446.404.488.173.092-.515-.395-.687-.231-1.25.366-1.25 1.015 0 7.834-6.427 10.905-10.279 2.716-3.405-.449-1.543-3.872 2.279m-12.433-.691c-2.284 1.407-8.567 7.39-8.567 8.158 0 1.615 3.067-.051 7.25-3.938 5.757-5.349 6.377-7.338 1.317-4.22m-30.817 2.584c-.962.976-1.75 2.262-1.75 2.858 0 .595-.562 1.283-1.25 1.529-.687.245-.942.778-.567 1.183.626.675 7.817-5.701 7.817-6.93 0-1.151-2.592-.321-4.25 1.36m54.579-.478c.419 1.091.259 1.448-.452 1.009-.605-.374-1.388-.285-1.739.198s-1.538 1.365-2.638 1.96-2.444 2.057-2.987 3.25c-.543 1.192-1.533 2.168-2.2 2.168s-1.672.788-2.233 1.75-1.033 1.392-1.05.955c-.016-.438-1.179.353-2.584 1.758-1.404 1.405-2.281 2.995-1.948 3.534.358.579-.101.709-1.12.318-1.306-.501-1.574-.268-1.103.96.461 1.2.2 1.461-1 1-1.2-.46-1.46-.2-1 1 .444 1.156.195 1.459-.863 1.053-.818-.314-2.37.229-3.449 1.206-2.138 1.934-2.623 4.466-.856 4.466.609 0 .857-.652.551-1.449-.392-1.02-.076-1.265 1.067-.826 1.18.453 1.459.197 1.023-.938-.431-1.125-.111-1.433 1.147-1.104 1.141.298 3.102-1.042 5.653-3.863 2.149-2.376 4.288-4.196 4.754-4.045s.562-.187.213-.75c-.348-.564-.136-1.025.471-1.025 1.701 0 6.199-4.891 5.516-5.997-.358-.579.101-.709 1.12-.318 1.337.513 1.576.274 1.063-1.063-.431-1.123-.277-1.488.438-1.046.605.374 1.388.285 1.739-.198s1.46-1.328 2.465-1.878c2.103-1.151 2.385-2.763.589-3.361-.802-.268-1.008.179-.587 1.276m12.82.189c-1.867 2.112-.625 3.015 1.384 1.006.896-.896 2.111-1.33 2.702-.965.637.394.783.194.36-.49-.973-1.576-2.821-1.389-4.446.449M623 573c0 .55-.482 1-1.071 1-1.125 0-3.929 2.447-3.929 3.429 0 1.458 3.336.325 5.545-1.884 2.843-2.842 3.032-3.545.955-3.545-.825 0-1.5.45-1.5 1m-18.584 4.641c.511 1.333.36 1.418-.804.452-.844-.7-1.672-.805-2.012-.255-.318.515.024 1.435.759 2.045 1.45 1.203 5.29-1.901 3.977-3.214-1.289-1.289-2.544-.653-1.92.972M614.29 580c-.288 1.1-.921 2-1.407 2-.485 0-.883.505-.883 1.122 0 .776.464.738 1.5-.122.825-.685 1.5-.895 1.5-.467 0 .427.889-.028 1.976-1.012 2.129-1.926 1.845-3.521-.629-3.521-.844 0-1.77.9-2.057 2m-80.29-.141c0 .697-.515.941-1.155.546-.715-.443-.883-.275-.44.44.392.635.216 1.155-.391 1.155-1.839 0-6.173 4.934-5.413 6.163.438.71.266.873-.454.428-.639-.395-1.863-.018-2.718.838-.856.855-1.233 2.079-.838 2.718.431.698.283.893-.372.488-1.32-.816-6.493 4.113-5.686 5.418.318.515-.194.631-1.155.262-1.337-.513-1.576-.274-1.063 1.063.397 1.034.263 1.479-.334 1.11-.548-.338-1.668.056-2.489.877-2.265 2.265-1.798 2.634 1.346 1.066 2.859-1.427 7.096-5.431 5.746-5.431-.4 0-.052-.675.773-1.5s1.993-1.5 2.596-1.5 1.501-1.065 1.996-2.367c.615-1.616 1.638-2.33 3.226-2.25l2.325.117.207 31c.115 17.05.239 50.8.277 75 .045 27.992.439 44.546 1.085 45.5.835 1.235.963 1.151.723-.478-.161-1.087.233-1.987.875-2 2.037-.039 2.433-1.194.857-2.502-2.227-1.848-1.908-6.952.568-9.1 2.363-2.049 1.7-4.822-.681-2.846-1.18.979-1.411.414-1.411-3.452 0-2.542.337-4.513.75-4.38 1.332.431 5.487-3.05 4.857-4.069-.364-.589.259-.759 1.548-.422 1.479.386 1.933.2 1.442-.593-1.07-1.732-3.066-1.402-5.097.842-.995 1.1-2.19 2-2.655 2-1.361 0-.981-7.783.405-8.292 1-.366 1-.723 0-1.783-2.078-2.203-1.356-9.925.928-9.925 1.518 0 4.143-3.018 3.304-3.798-.416-.386-.957-.139-1.202.548-.246.688-1.309 1.25-2.363 1.25-2.925 0-2.741-7.145.22-8.513 2.667-1.232 2.826-2.871.324-3.352-1.717-.331-1.758-.189-.429 1.5 1.35 1.716 1.328 1.755-.282.493-3.688-2.893-1.004-10.282 4.503-12.395.961-.368 1.747-1.322 1.747-2.118 0-.797.563-1.649 1.25-1.895.688-.245.934-.786.548-1.202-1.087-1.17-4.032 2.29-3.17 3.724.529.881.252.849-.924-.105-1.425-1.155-1.765-1.143-2.235.084-1.217 3.172-3.536 1.543-3.308-2.324.122-2.073.511-3.685.864-3.583 1.522.442 9.11-7.288 8.367-8.524-.627-1.043-.469-1.041.827.009 1.086.879 1.813.958 2.255.242.359-.58-.054-1.326-.918-1.658-1.872-.718-9.566 5.521-9.021 7.316.211.699-.241.967-1.086.643-2.281-.875-1.846-7.263.643-9.422 2.399-2.08 1.683-4.808-.736-2.801-1.256 1.043-1.431.557-1.227-3.396.132-2.538.509-4.447.839-4.242 1.012.624 7.39-5.46 6.547-6.246-.434-.404-.99-.172-1.235.515s-1.309 1.25-2.363 1.25-1.917.45-1.917 1-.45 1-1 1-1-1.875-1-4.167.308-3.858.684-3.482c.879.878 7.316-5.322 7.316-7.047 0-1.203 1.3-1.749 3.324-1.398.454.079.54-.318.191-.881-.348-.564-.136-1.025.471-1.025 1.495 0 6.38-4.968 5.626-5.721-.329-.33-1.442.372-2.473 1.561-1.03 1.188-2.404 2.16-3.052 2.16-1.948 0-6.256 4.908-5.494 6.258.556.987.426.988-.633.006-2.07-1.921-5.453 1.399-3.706 3.638 1.104 1.415 1.046 1.441-.504.226-3.105-2.435-2.188-6.864 2.317-11.193 2.238-2.149 3.789-4.359 3.448-4.91-.364-.59.044-.748.993-.384 1.68.645 7.492-4.077 7.492-6.088 0-.986 3.311-3.591 4.509-3.546 1.06.04 9.661-9.171 9.094-9.738-.325-.324-1.418.158-2.428 1.073s-2.176 1.324-2.589.91c-.414-.414-.603-.077-.419.748.184.83-.258 1.377-.991 1.225-.729-.151-1.04.187-.691.75.348.564.141 1.025-.459 1.025-1.626 0-8.212 6.89-7.574 7.923.303.49-.267.677-1.267.415-1.253-.328-3.252 1.1-6.431 4.593-5.593 6.145-6.912 6.371-6.603 1.129.128-2.168.536-3.753.907-3.524.97.599 4.077-3.067 3.278-3.867-1.219-1.218-2.559-.693-1.994.78q.56 1.452-.893.893c-1.816-.697-1.984-7.979-.199-8.634 1-.366 1-.723 0-1.783-2.186-2.317-1.576-10.907.928-13.08 1.672-1.449 1.904-2.163 1-3.067s-1.178-.885-1.178.081m26.342 1.59c.392 1.02.076 1.265-1.067.826-1.2-.46-1.46-.2-1 1 .461 1.2.2 1.461-1 1-1.2-.46-1.46-.2-1 1 .439 1.143.194 1.459-.826 1.067-1.484-.569-1.995.779-.762 2.012.893.893 8.393-6.416 7.713-7.517-.888-1.436-2.644-.914-2.058.612m38.807.155c-1.822 2.061-.649 3.039 1.303 1.086.852-.851 1.548-1.804 1.548-2.119 0-1.05-1.485-.512-2.851 1.033m-54.899 2.992c-2.651 2.748-2.789 3.404-.719 3.404.843 0 1.822-.788 2.177-1.75.356-.962 1.064-2.031 1.576-2.375.511-.344.544-.847.073-1.118s-1.87.556-3.107 1.839m77.176 1.737c-.352.917-1.267 1.667-2.033 1.667s-1.393.45-1.393 1c0 1.539 2.958 1.185 4.707-.564 1.14-1.14 1.265-1.864.461-2.668-.803-.803-1.276-.65-1.742.565m-16.176 1.226c-1.473 1.598-1.596 2.441-.357 2.441.853 0 2.45-3.009 1.881-3.542-.151-.141-.836.354-1.524 1.101m-64.908 1.89c.392 1.02.076 1.265-1.067.826-1.2-.46-1.46-.2-1 1 .439 1.143.194 1.459-.826 1.067-1.532-.588-2.046 1.171-.602 2.063 1.1.68 6.395-4.83 5.5-5.724-1.227-1.228-2.573-.712-2.005.768m50 0q.56 1.452-.893.893c-.797-.306-1.449-.025-1.449.624 0 1.856 3.281.737 3.567-1.216.141-.962-.202-1.75-.762-1.75-.561 0-.769.652-.463 1.449M463.131 596.5c-.15 4.4-.476 10.025-.725 12.5s-.097 9.527.337 15.672.557 11.154.273 11.132-1.116.012-1.849.078c-1.768.157-.906 2.618.916 2.618 1.147 0 1.47 2.853 1.695 14.978.153 8.238.715 15.415 1.25 15.95.571.571 1.021 11.306 1.09 26.022.065 13.777.484 26.4.93 28.05.821 3.036.434-39.974-.637-70.75-.581-16.698-.576-16.75 1.586-16.75 1.302 0 1.995-.5 1.733-1.25-.241-.687-1.124-1.13-1.963-.984-2.519.439-3.086-3.314-3.739-24.766-.344-11.275-.747-16.9-.897-12.5m86.466-6.656c-.346.56-.142 1.319.453 1.687 1.538.95 2.53-.351 1.246-1.635-.718-.718-1.277-.735-1.699-.052M601.5 591c.34.55 1.293 1 2.118 1s1.222-.45.882-1-1.293-1-2.118-1-1.222.45-.882 1m14.79.313c.424 1.105.169 1.417-.841 1.029-.797-.306-1.449-.058-1.449.551s-.765 1.107-1.7 1.107c-1.354 0-1.447.253-.458 1.242.792.792 1.497.883 1.95.25.389-.546 1.53-1.442 2.535-1.992 2.103-1.151 2.385-2.763.589-3.361-.778-.26-1.01.174-.626 1.174m-32.98 3.165c-1.545 1.937-3.18 3.522-3.631 3.522-1.411 0-3.956 3.059-3.161 3.798.416.386.957.14 1.202-.548.246-.687 1.116-1.25 1.935-1.25 1.986 0 4.63-2.729 3.857-3.981-.369-.597.076-.731 1.11-.334 1.306.501 1.574.268 1.103-.96-.439-1.143-.194-1.459.826-1.067 1.589.61 2.02-1.187.509-2.121-.517-.319-2.204 1.004-3.75 2.941m15.699-.989c-.68.819-1.704 1.199-2.277.845-.604-.373-.742-.159-.327.511 1.178 1.908 5.595.113 5.595-2.274 0-1.099-1.766-.558-2.991.918m-54.822 1.983c-1.272.701-2.33 1.67-2.35 2.152s-.475.752-1.011.601-.711.153-.388.675-.207 1.155-1.176 1.408c-1.404.367-1.326.484.382.576 1.18.064 3.542-1.19 5.25-2.785 4.397-4.107 4.084-5.27-.707-2.627M388 596.782c0 .43-1.238.884-2.75 1.009s-2.9.672-3.083 1.218-.859 1.005-1.5 1.023c-2.027.055-4.897 2.787-4.168 3.967.509.823 1.149.773 2.35-.184 2.92-2.326 6.073-3.815 8.078-3.815 1.075 0 2.209-.41 2.519-.912 1.401-2.268 20.544-.431 23.202 2.227 1.061 1.061 5.352.808 5.352-.315 0-.55-.9-1-2-1s-2-.45-2-1-.873-1-1.941-1-2.219-.45-2.559-1c-.724-1.172-21.5-1.383-21.5-.218m221.19.778c-.72.816-1.802 1.18-2.404.807-.657-.405-.81-.214-.381.478 1.178 1.908 5.595.113 5.595-2.274 0-1.039-1.479-.518-2.81.989m-16.774 2.081c.499 1.301.345 1.406-.741.504-1.48-1.228-5.35 1.846-4.011 3.186 1.289 1.289 2.544.653 1.92-.972-.494-1.288-.339-1.401.717-.524.996.826 1.653.811 2.523-.059 1.486-1.486 1.528-3.776.069-3.776-.616 0-.827.729-.477 1.641M604 601c0 .55-.73 1-1.622 1-1.399 0-1.433.234-.25 1.692.948 1.169.983 1.458.114.936-.711-.427-1.941-.072-2.83.817-.865.866-2.056 1.275-2.647.91-.637-.394-.783-.194-.36.49.392.635.192 1.155-.445 1.155-.979 0-6.96 5.6-6.96 6.517 0 .168.788.174 1.75.012s1.638-.797 1.5-1.412.469-1.117 1.349-1.117c.879 0 2.792-1.265 4.25-2.811s3.439-3.108 4.401-3.469 1.75-1.346 1.75-2.189c0-.879.877-1.531 2.059-1.531 1.132 0 1.781-.45 1.441-1s-1.266-1-2.059-1-1.441.45-1.441 1m15.5 0c.34.55 1.293 1 2.118 1s1.222-.45.882-1-1.293-1-2.118-1-1.222.45-.882 1m-201.041 1.067c-.713 1.153 2.253 3.849 4.291 3.901q2.75.069-.903-3.101c-2.52-2.185-2.531-2.188-3.388-.8m139.791 2.543c-2.641 2.722-2.789 3.39-.75 3.39.825 0 1.5-.45 1.5-1s.675-1 1.5-1 1.388-.562 1.25-1.25.425-1.1 1.25-.917 1.149-.017.721-.445c-1.48-1.48-3.229-1.089-5.471 1.222m16.166-.969c.494 1.288.339 1.401-.717.524-1.442-1.197-3.699.203-3.699 2.294 0 1.026-2.685 3.13-4.286 3.358-1.253.178-4.004 3.226-3.43 3.8 1.359 1.359 10.234-5.971 9.218-7.614-.346-.559.066-.722.959-.38 1.782.684 4.798-1.395 3.969-2.736-.973-1.575-2.665-.941-2.014.754M618 603c0 .55-.9 1-2 1s-2 .45-2 1-.702 1-1.559 1-1.281.45-.941 1 .029 1.01-.691 1.023c-1.98.035-9.054 6.771-8.334 7.936.372.602-.011.773-.936.418-1.782-.684-4.798 1.395-3.969 2.736 1.047 1.695 2.953.85 6.93-3.071 2.2-2.169 4.618-3.966 5.372-3.993 1.116-.04 1.136-.334.109-1.572-1.061-1.278-.991-1.418.434-.871 1.036.397 2.402-.08 3.507-1.228.995-1.033 2.77-2.54 3.944-3.349 2.255-1.554 2.808-3.029 1.134-3.029-.55 0-1 .45-1 1m-246.974 3.473c-1.985 2.049-3.06 3.996-2.709 4.91.364.949.118 1.338-.657 1.04-1.43-.549-7.033 9.164-6.131 10.625 1.113 1.8 2.471.949 2.471-1.548 0-1.375.45-2.5 1-2.5s1-.469 1-1.042.924-2.033 2.053-3.245c1.128-1.212 1.845-2.993 1.593-3.959-.253-.966-.048-1.502.455-1.192 1.238.766 4.183-2.293 3.411-3.543-.356-.575.04-.745.936-.401.854.328 1.552.124 1.552-.452 0-2.382-1.877-1.888-4.974 1.307m213.983-.984c-.68.819-1.704 1.199-2.277.845-.604-.373-.742-.159-.327.511.434.703.037 1.155-1.013 1.155-.949 0-1.388.337-.975.75 1.568 1.568 7.583-1.767 7.583-4.205 0-1.077-1.779-.516-2.991.944m-161.364 1.276c-.752 1.217 7.352 9.355 8.567 8.604.676-.418.811-.215.352.527-.409.662.062 2.869 1.048 4.904s1.954 4.825 2.152 6.2c.197 1.375.781 2.65 1.297 2.833 1.205.428 1.238 21.89.034 22.334-1.44.53-1.723 5.103-.345 5.573.708.242 1.25-.389 1.25-1.457 0-1.036.405-2.311.901-2.833.495-.523 1.142-3.2 1.437-5.95s.565-5.112.6-5.25c.034-.138 1.074-.257 2.312-.265 5.857-.04 5.7-2.467-.206-3.186-2.08-.253-2.508-.911-2.794-4.299-.185-2.2-.61-4.675-.944-5.5s-.777-2.39-.985-3.479-.815-2.415-1.35-2.95c-.534-.534-.971-1.781-.971-2.771s-.34-1.8-.756-1.8-1.366-1.379-2.112-3.064c-.819-1.85-1.886-2.861-2.693-2.551-.904.347-1.135-.013-.714-1.11.48-1.251.207-1.463-1.193-.926-1.441.553-1.585.419-.697-.65.826-.996.811-1.653-.059-2.523-1.338-1.338-3.429-1.546-4.131-.411M394 608.782c0 .43-1.238.884-2.75 1.009s-2.9.672-3.083 1.218-.859.992-1.5.992c-1.656.002-6.763 4.569-5.983 5.35.357.357.061.649-.657.649-2.967 0-5.458 6.997-3.027 8.5.55.34 1-.014 1-.786s.9-2.219 2-3.214 2-2.222 2-2.726c0-5.514 24.453-11.279 28.009-6.604.281.368 1.152.818 1.937 1 1.8.416 9.882 8.11 9.42 8.967-.189.35.326 1.192 1.145 1.872S424 627.09 424 628.122s.414 1.878.92 1.878.92 4.5.92 10-.414 10-.92 10-.92.681-.92 1.514c0 3.63-6.613 11.262-11.718 13.521-3.572 1.582-3.386 2.965.399 2.965 2.103 0 2.352-.256 1.384-1.421-.965-1.163-.817-1.327.812-.901 3.926 1.027 14.549-12.869 13.601-17.79-.2-1.039.061-1.888.579-1.888.519 0 .943-2.7.943-6s-.352-6-.782-6-.884-1.237-1.009-2.75-.675-2.901-1.224-3.085-.766-.711-.482-1.17c.283-.458-.051-1.443-.744-2.188-.692-.745-1.393-1.971-1.557-2.725-.403-1.852-9.201-10.082-10.778-10.082-.691 0-1.407-.446-1.591-.991-.183-.546-1.571-1.094-3.083-1.218-1.512-.125-2.75-.579-2.75-1.009s-2.7-.782-6-.782-6 .352-6 .782m156.01 2.706c-1.001 1.206-.927 1.607.39 2.112 1.829.702 4.874-1.348 4.03-2.713-.839-1.357-3.044-1.057-4.42.601m68.14 3.462c.22.66.726 1.166 1.125 1.125 1.196-.124.964-1.495-.325-1.925-.66-.22-1.02.14-.8.8m-2.553.894c-.346.56-.142 1.319.453 1.687 1.538.95 2.53-.351 1.246-1.635-.718-.718-1.277-.735-1.699-.052m-60 2c-.346.56-.142 1.319.453 1.687 1.538.95 2.53-.351 1.246-1.635-.718-.718-1.277-.735-1.699-.052M554 621c0 .55-.927 1-2.059 1s-1.781.45-1.441 1-.084 1-.941 1-1.559.45-1.559 1c0 1.833 3.06 1.03 5.545-1.455 2.654-2.653 3.02-3.545 1.455-3.545-.55 0-1 .45-1 1m10.143 2.002c-1.296 1.641-2.728 2.755-3.181 2.475s-1.087-.083-1.409.438-.078 1.261.542 1.644c.621.383 1.466.151 1.879-.516.412-.668 1.037-1.175 1.388-1.128s.622-.156.602-.451c-.019-.294.656-1.226 1.5-2.071 1.303-1.303 2.105-3.414 1.286-3.384-.138.005-1.311 1.352-2.607 2.993m28.73-1.048c-.755.85-2.273 2.045-3.373 2.655-2.181 1.209-2.359 2.605-.416 3.252q1.232.409.552-1.366c-.528-1.378-.39-1.536.615-.702 1.191.988 7.749-3.339 7.749-5.113 0-1.155-3.812-.208-5.127 1.274m16.26-.266c-.915.989-1.035 1.81-.363 2.482s1.226.645 1.676-.083c.37-.598.308-1.094-.137-1.102s-.198-.402.548-.875.971-1.094.5-1.38-1.472.145-2.224.958m-30.983 1.262c.22.66.726 1.166 1.125 1.125 1.196-.124.964-1.495-.325-1.925-.66-.22-1.02.14-.8.8m-2.99 1.29c-.638.638-1.16 1.745-1.16 2.46 0 1.199-1.302 1.745-3.324 1.394-.454-.079-.54.318-.191.881.348.564-.069 1.025-.926 1.025s-1.559.422-1.559.938.869.872 1.931.792 1.71-.502 1.441-.938c-.27-.435.019-.792.64-.792 1.702 0 4.202-2.844 3.5-3.981-.356-.575.04-.745.936-.401.854.328 1.552.124 1.552-.452 0-1.674-1.578-2.188-2.84-.926m-215.237 1.427c-.227 5.453-1.598 8.672-3.399 7.98-1.917-.735-3.169 1.336-1.45 2.399.732.452 1.61.649 1.952.438s.727 1.929.856 4.755c.129 2.827.534 5.617.901 6.2.366.584.804 2.186.972 3.561.169 1.375.586 3.175.927 4s.747 2.13.903 2.9c.155.77.649 1.67 1.099 2s.962 1.275 1.141 2.1.744 1.651 1.256 1.835c.512.185.723.673.469 1.085-.569.921 8.838 11.08 10.26 11.08.563 0 1.2.531 1.417 1.18.25.752 1.097.891 2.333.383 1.558-.639 1.645-.9.44-1.323-3.274-1.149-11.777-11.116-15.029-17.617-3.236-6.468-3.441-7.479-3.456-17-.008-5.568.21-11.66.485-13.539.326-2.224.064-3.561-.75-3.833-.687-.23-1.284.407-1.327 1.416M374 627.358c0 1.361-.48 2.635-1.068 2.831-1.433.478-1.46 15.683-.03 17.113.604.604 1.098 2.133 1.098 3.398s.45 2.3 1 2.3 1 .9 1 2 .45 2 1 2 .887.38.75.845c-.341 1.152 9.256 10.155 10.826 10.155.691 0 1.407.407 1.591.905.427 1.16 2.442 1.351 12.783 1.21 6.406-.087 8.17-.395 7.291-1.274-.683-.683-4.256-1.14-8.7-1.113-4.148.025-7.541-.353-7.541-.841s-.681-.887-1.514-.887c-5.362 0-16.499-12.962-16.489-19.191.002-.93-.447-1.969-.997-2.309s-.993-3.404-.985-6.809c.011-4.366.301-5.749.985-4.691.711 1.1.973.383.985-2.691.008-2.305-.435-4.469-.985-4.809-.564-.348-1 .462-1 1.858m26.625 1.767c-.933 4.666-.755 8.875.375 8.875.556 0 1-2.667 1-6 0-6.667-.435-7.576-1.375-2.875m218.068-1.484c.26.678 1.11.988 1.89.689 2.064-.792 1.734-2.23-.473-2.063-1.052.079-1.681.688-1.417 1.374M476.5 630c-1.65 1.02-3.788 1.887-4.75 1.927-2.371.099-2.241 2.073.136 2.073 2.457 0 7.274-2.507 6.432-3.348-.358-.359.324-.652 1.515-.652 1.192 0 2.167-.45 2.167-1 0-1.478-2.11-1.095-5.5 1m108.128-.792c.27.435-.212.792-1.069.792s-1.559.45-1.559 1c0 1.485 2.933 1.21 4.571-.429 1.921-1.92 1.8-2.475-.502-2.301-1.062.08-1.71.502-1.441.938m-41.241.975c-.289.467-.893.622-1.343.344s-1.34.125-1.979.895c-.884 1.065-.88 1.575.018 2.129.667.412 1.585.007 2.11-.932.512-.913 1.301-1.432 1.755-1.151s1.319-.085 1.923-.812c.828-.999.723-1.323-.431-1.323-.84 0-1.764.383-2.053.85m72.103-.167c-.346.559-1.117.715-1.714.346-.616-.381-.8-.21-.424.398.363.588.095 1.271-.596 1.518-.691.246-.894.834-.452 1.306.443.472 1.168.27 1.612-.448.444-.719 1.095-1.268 1.446-1.221s.6-.202.553-.553.515-1.019 1.25-1.485c.909-.576.955-.851.144-.862-.655-.008-1.474.442-1.819 1.001m-222.23 3.469c-2.238 2.544-1.871 10.349.604 12.823 7.702 7.7 21.128-4.094 14.169-12.447l-1.966-2.361-.034 2.25c-.018 1.237.451 2.25 1.044 2.25 1.493 0 .801 7.164-.859 8.88-1.978 2.044-8.558 1.923-10.678-.197-1.964-1.964-2.417-9.891-.6-10.496 1.2-.4 1.461-2.207.31-2.149-.413.021-1.308.672-1.99 1.447m173.156.156c.511 1.333.36 1.418-.804.452-.985-.817-1.638-.86-2.086-.134-.983 1.59 2.283 2.444 3.976 1.04 1.535-1.275 1.151-2.999-.668-2.999-.576 0-.765.739-.418 1.641m14 0c.511 1.333.36 1.418-.804.452-.985-.817-1.638-.86-2.086-.134-.983 1.59 2.283 2.444 3.976 1.04 1.535-1.275 1.151-2.999-.668-2.999-.576 0-.765.739-.418 1.641M592 634.833c0 .642-.73 1.167-1.622 1.167-1.369 0-1.417.248-.305 1.588 1.181 1.423 1.403 1.356 2.144-.645.454-1.228.591-2.468.304-2.755-.286-.287-.521.004-.521.645m16 .108c0 .582-.73 1.059-1.622 1.059-1.324 0-1.395.274-.387 1.489 1.25 1.507 3.483 1.088 2.519-.473-.287-.465.021-1.026.685-1.248.937-.312.939-.567.006-1.144-.661-.408-1.201-.265-1.201.317M575 637c0 .55-.723 1-1.607 1-.992 0-1.394.554-1.051 1.449q.56 1.452-.893.893c-.797-.306-1.449-.058-1.449.551 0 1.817 2.319 1.26 5.25-1.261 3.103-2.668 3.435-3.632 1.25-3.632-.825 0-1.5.45-1.5 1m-124.933 2.42c-.951 1.146-.831 1.353.627 1.076.993-.189 3.044-.377 4.556-.419 1.512-.043 2.75-.527 2.75-1.077 0-1.535-6.601-1.186-7.933.42m96.383-.491c-.522.51-1.605 1.073-2.405 1.25-2.211.488-6.233 4.707-5.547 5.818.355.574-.093.712-1.083.332-1.097-.421-1.544-.215-1.276.587.682 2.046 2.3 1.724 3.348-.666.543-1.237 1.588-2.25 2.322-2.25 1.332 0 2.474-.959 5.063-4.254 1.454-1.849 1.179-2.382-.422-.817m11.55.63c0 .857-.45 1.281-1 .941s-1-.169-1 .379.869.931 1.931.851 1.849-.614 1.75-1.188c-.1-.573.415-.918 1.143-.767.729.151 1.04-.187.691-.75-.983-1.592-3.515-1.207-3.515.534m30-.559c0 .55-.707 1-1.571 1-1.989 0-4.74 2.688-3.991 3.899.311.503-.405.661-1.593.35-1.479-.386-1.933-.2-1.442.593 1.141 1.848 3.737 1.34 4.307-.842.288-1.1 1.178-2 1.978-2 1.424 0 4.312-2.297 4.312-3.429 0-.314-.45-.571-1-.571s-1 .45-1 1m29.597.844c-.346.56-.142 1.319.453 1.687 1.538.95 2.53-.351 1.246-1.635-.718-.718-1.277-.735-1.699-.052m-50.071 2.115c-.359.58.07 1.333.954 1.672 2.2.844 2.884-.084 1.133-1.537-.985-.818-1.639-.86-2.087-.135m46.088 1.604c-.35.914-1.123 1.263-1.857.84-.691-.398-.906-.338-.478.132 1.07 1.176 3.866 1.509 3.167.377-.31-.502.363-.912 1.495-.912s2.059-.45 2.059-1c0-1.621-3.732-1.142-4.386.563m-18.017.281c-.346.56-.142 1.319.453 1.687 1.538.95 2.53-.351 1.246-1.635-.718-.718-1.277-.735-1.699-.052m-18.969 3.364c.27.435-.212.792-1.069.792s-1.559.45-1.559 1c0 1.485 2.933 1.21 4.571-.429 1.921-1.92 1.8-2.475-.502-2.301-1.062.08-1.71.502-1.441.938m14.571.343c-2.091 2.369-.367 3.668 2.258 1.7 2.346-1.758 2.457-3.284.234-3.213-.655.021-1.777.702-2.492 1.513m16.551.138c-.962.252-1.75.875-1.75 1.384 0 1.413 1.606 1.106 3-.573.685-.825 1.077-1.448.872-1.384s-1.16.322-2.122.573M560 648.763c0 .419-.961 1.207-2.137 1.75-2.34 1.081-2.717 2.702-.779 3.348q1.232.409.552-1.366c-.562-1.467-.427-1.567.771-.572 1.172.973 1.661.819 2.523-.793 1.33-2.484 1.344-3.13.07-3.13-.55 0-1 .343-1 .763m11.882.865c-.066.479-.066 1.209 0 1.622.065.413-.332.75-.882.75s-1 .505-1 1.122c0 .785.376.811 1.25.085.688-.57 1.625-1.038 2.083-1.039 1.618-.003 1.698-.898.191-2.148-.838-.696-1.577-.872-1.642-.392m31.644.331c-.359.58.07 1.333.954 1.672 2.2.844 2.884-.084 1.133-1.537-.985-.818-1.639-.86-2.087-.135m-2.898 3.249c.686 1.108 3.372.993 3.372-.146 0-.516-.869-.872-1.931-.792s-1.71.502-1.441.938m15.372 1.17c0 1.433-.407 1.691-2.523 1.599-1.181-.051-5.632 5.197-4.946 5.834.408.379.944.127 1.189-.561.246-.687 1.111-1.25 1.922-1.25.812 0 1.198-.45.858-1s.309-1 1.441-1 2.059-.417 2.059-.927c0-.509.745-1.072 1.656-1.25 1.541-.301 1.541-.418 0-1.695-1.425-1.181-1.656-1.146-1.656.25m-64.427 1.143c-1.06.802-1.622 1.764-1.248 2.137.803.803 5.675-1.624 5.675-2.827 0-1.283-2.29-.926-4.427.69m30.041.042c-.336.875-1.111 1.248-1.761.846-.69-.426-.893-.283-.501.351.363.588.095 1.271-.596 1.518-.691.246-.885.844-.431 1.327.461.491 1.26.101 1.811-.884.543-.97 1.316-1.56 1.718-1.311.402.248.796-.417.876-1.479.176-2.334-.301-2.491-1.116-.368m15.136.654c-2.341 2.93-2.251 4.667.102 1.954 1.018-1.174 2.068-1.918 2.333-1.653s.482-.193.482-1.018c0-2.07-.859-1.859-2.917.717M434 660c0 1.1.402 2 .893 2 1.124 0 2.173-2.601 1.371-3.402-1.203-1.204-2.264-.547-2.264 1.402m114-1.024c0 .628-.52.821-1.155.429-.68-.421-.884-.277-.496.351.782 1.264 3.014 1.102 3.476-.253.179-.524-.159-1.114-.75-1.311s-1.075.155-1.075.784m-59.239 3.524c-.406 2.2-.687 8.275-.623 13.5l.115 9.5.905-7c1.129-8.736.79-22.424-.397-16M432 664c0 1.1.402 2 .893 2 1.124 0 2.173-2.601 1.371-3.402-1.203-1.204-2.264-.547-2.264 1.402m171.614-.437c-.336.875-1.111 1.248-1.761.846-.69-.426-.893-.283-.501.351.363.588.117 1.25-.547 1.472-.937.312-.939.567-.006 1.144.661.408 1.201.265 1.201-.317s.75-1.059 1.667-1.059c.916 0 1.373-.293 1.015-.651s.13-1.244 1.084-1.968c1.562-1.187 1.571-1.321.091-1.349-.904-.018-1.913.672-2.243 1.531M620 665c0 .55-.9 1-2 1s-2 .45-2 1 .9 1 2 1 2-.45 2-1 .702-1 1.559-1 1.281-.45.941-1-1.041-1-1.559-1-.941.45-.941 1m-190.352.685c-.347.347-.072 1.321.611 2.165.995 1.23.988 1.382-.037.766-.798-.48-2.298.292-4 2.058-1.497 1.554-3.96 3.465-5.472 4.245s-2.75 1.793-2.75 2.25-.9.831-2 .831-2 .45-2 1-.337.947-.75.882c-2.26-.357-4.288.248-3.75 1.118.396.641-2.99 1-9.441 1-6.039 0-10.059-.4-10.059-1 0-.55-1.35-1-3-1-4.195 0-3.737 1.283.984 2.757 4.758 1.484 20.638 1.664 21.516.243.34-.55 1.402-1 2.36-1 2.187 0 7.122-2.248 7.132-3.25.004-.413.683-.75 1.508-.75s1.5-.45 1.5-1 .584-1 1.297-1c1.588 0 8.703-7.139 8.703-8.733 0-1.424-1.501-2.433-2.352-1.582M582 667c0 .55-.562.888-1.25.75s-1.138.313-1 1-.457 1.25-1.321 1.25c-2.202 0-4.921 2.908-3.784 4.045.556.556 2.079-.159 3.866-1.814 1.622-1.502 3.329-2.607 3.794-2.456s.559-.187.21-.75c-.348-.564-.156-1.025.426-1.025s1.059-.45 1.059-1-.45-1-1-1-1 .45-1 1m-18.386 2.563c-.35.914-1.123 1.263-1.857.84-.691-.398-.926-.358-.523.088.404.446-.046 1.404-1 2.128-1.399 1.063-1.444 1.313-.234 1.294.825-.013 2.547-1.349 3.826-2.968 1.279-1.62 1.89-2.945 1.357-2.945s-1.239.704-1.569 1.563m32.536-.613c.22.66.726 1.166 1.125 1.125 1.196-.124.964-1.495-.325-1.925-.66-.22-1.02.14-.8.8m17.35.05c.34.55-.309 1-1.441 1s-2.059.422-2.059.938.9.87 2 .787 2-.505 2-.938.702-.787 1.559-.787 1.281-.45.941-1-1.293-1-2.118-1-1.222.45-.882 1m-19.5 2c0 .55-.9 1-2 1s-2 .45-2 1c0 1.485 2.933 1.21 4.571-.429 1.676-1.675 1.825-2.571.429-2.571-.55 0-1 .45-1 1m-49.682 2.387c.383.997-.052 1.234-1.549.842-1.416-.37-1.853-.174-1.366.613.44.713.019 1.164-1.094 1.173-1.507.013-1.563.171-.335.948.81.512 1.71.585 2 .161.289-.423 1.314-1.06 2.276-1.416 1.911-.705 2.431-3.708.643-3.708-.609 0-.868.624-.575 1.387M607.5 673c.34.55 1.293 1 2.118 1s1.222-.45.882-1-1.293-1-2.118-1-1.222.45-.882 1m-19.618.55c-.066.522-.066 1.287 0 1.7.065.413-.359.75-.941.75s-.779.453-.436 1.008c.383.62 1.227.403 2.194-.565 1.174-1.173 1.284-1.86.437-2.707-.625-.625-1.189-.708-1.254-.186m15.732 2.013c-.33.86-.96 1.341-1.399 1.07-.44-.272-.873.481-.963 1.674-.113 1.498.089 1.759.654.845.45-.728 1.217-1.329 1.706-1.337s.776-.42.638-.915.65-.9 1.75-.9 2-.45 2-1c0-1.621-3.732-1.142-4.386.563m-50.113 1.439c.282.455-.054 1.029-.745 1.276-.691.246-.885.844-.431 1.327.461.491 1.26.101 1.811-.884.543-.97 1.522-1.456 2.175-1.082.654.375.838.296.41-.174-1.022-1.123-3.881-1.534-3.22-.463m15.127.206c.686 1.108 3.372.993 3.372-.146 0-.516-.869-.872-1.931-.792s-1.71.502-1.441.938M380 678.893c0 1.629 2.834 2.012 4.049.548.989-1.192.743-1.441-1.427-1.441-1.442 0-2.622.402-2.622.893M536 679c0 .55.9 1 2 1s2-.45 2-1-.9-1-2-1-2 .45-2 1m30.15-.05c.22.66.726 1.166 1.125 1.125 1.196-.124.964-1.495-.325-1.925-.66-.22-1.02.14-.8.8m-2.553.894c-.346.56-.142 1.319.453 1.687 1.538.95 2.53-.351 1.246-1.635-.718-.718-1.277-.735-1.699-.052m47.593 3.716c-.72.816-1.802 1.18-2.404.807-.657-.405-.81-.214-.381.478.875 1.417 3.595 1.533 3.595.155 0-.55.702-1 1.559-1s1.281-.45.941-1c-.839-1.358-1.754-1.203-3.31.56M558 685.059c0 .582-.45.781-1 .441s-1 .084-1 .941c0 1.383-.583 1.721-2.576 1.493-.316-.036-1.375.856-2.351 1.982-.977 1.126-2.14 1.718-2.585 1.316-.445-.403-.51-.21-.144.429.83 1.451 4.246.976 3.906-.544-.219-.978 1.177-1.562 2.071-.867.349.271 2.37-1.729 4.551-4.504.899-1.142.985-1.746.25-1.746-.617 0-1.122.477-1.122 1.059m-18.386 2.504c-.359.936-1.104 1.261-1.857.808-.878-.527-.846-.248.106.926 1.373 1.692 3.666 1.369 2.594-.366-.316-.512-.098-.931.484-.931s1.059-.45 1.059-1c0-1.574-1.722-1.167-2.386.563m65.865.461c-1.022 1.128-1.294 1.976-.634 1.976.635 0 1.155-.477 1.155-1.059s.419-.8.931-.484a1.106 1.106 0 0 0 1.516-.372c1.188-1.922-1.239-1.972-2.968-.061m-117.416 13.893c-.034 7.929.15 14.203.41 13.943 1.067-1.066 1.653-23.473.676-25.86-.768-1.879-1.038 1.081-1.086 11.917m79.513-12.255c-.322.841-1.097 1.157-1.819.741-.691-.398-.906-.338-.478.132 1.07 1.176 3.866 1.509 3.167.377-.545-.882 1-1.361 3.054-.947.55.111.649-.149.221-.577-1.378-1.378-3.566-1.233-4.145.274m31.739 2.588c-.061 1.237.105 1.688.37 1s1.146-1.25 1.957-1.25 1.198-.45.858-1c-1.119-1.81-3.072-1.043-3.185 1.25m-250.717 1.576c-4.553.914.65 2.174 8.975 2.174 5.726 0 10.228.483 11.416 1.225 1.547.967 2.219.967 3.186 0S372.873 696 370.9 696c-1.375 0-2.928-.417-3.45-.927-.933-.911-15.671-1.886-18.852-1.247m-6.141 3.361c-.402 1.822-.698 8.684-.658 15.249s-.347 12.719-.859 13.676-1.007 10.792-1.1 21.856-.545 20.35-1.004 20.634c-.46.284-.822 8.927-.806 19.207.036 22.089 1.687 23.004 2.094 1.16.148-7.958.612-16.494 1.031-18.969s.983-12.6 1.253-22.5.791-21.038 1.158-24.75l.667-6.75h7.943c5.04 0 7.716-.365 7.324-1-.34-.55-3.978-1-8.084-1h-7.467l.276-6.901c.151-3.796.612-6.695 1.025-6.441.413.253.75-.242.75-1.099s.45-1.559 1-1.559c1.569 0 1.17-1.721-.552-2.382-1.021-.392-1.338-.172-.926.643.345.682-.04.423-.854-.574-1.387-1.698-1.528-1.603-2.211 1.5m200.788-1.605c-1.654 1.771-1.57 2.418.314 2.418.857 0 1.281-.45.941-1-.591-.957.878-1.463 3-1.035.55.111.649-.149.221-.577-1.296-1.296-3.159-1.215-4.476.194m16.746-.093c.68.819 1.642 1.238 2.139.931 1.276-.789.055-2.42-1.811-2.42-1.272 0-1.333.278-.328 1.489M575 694.378c0 .207.675.937 1.5 1.622 1.229 1.02 1.5.951 1.5-.378 0-.892-.675-1.622-1.5-1.622s-1.5.17-1.5.378m18.603.789c.48.776-1.034 1.256-2.927.927-.454-.079-.54.318-.191.881.833 1.349 3.515 1.322 3.515-.034 0-.582.375-.827.833-.544.459.283.834-.065.834-.774s-.581-1.29-1.29-1.29-1.057.375-.774.834m-36.413 2.393c-.72.816-1.733 1.222-2.25.903-.517-.32-.94-.078-.94.537s-.52.797-1.155.405c-.689-.426-.884-.276-.483.371.369.597.213 1.368-.346 1.714s-1.002 1.164-.986 1.819.495.394 1.062-.58 1.523-1.467 2.124-1.096c.655.405.807.214.379-.478-.603-.977.733-1.677 1.726-.905.419.326 3.679-2.934 3.679-3.679 0-1.039-1.479-.518-2.81.989m52.413-.393c.283.458-.412.833-1.544.833s-2.059.45-2.059 1c0 1.485 2.933 1.21 4.571-.429 1.802-1.801 1.797-2.238-.027-2.238-.801 0-1.224.375-.941.834m-71.5 1.95c-2.528 2.048-2.279 3.548.417 2.514.884-.339 1.33-1.065.991-1.612-.355-.575.041-.744.937-.401.854.328 1.552.124 1.552-.452 0-1.965-1.507-1.984-3.897-.049M372 699c0 .55.45 1 1 1 .587 0 1 3.451 1 8.353v8.353l-5.25-.363-5.25-.363 4.766 1.36c2.622.747 4.937 1.539 5.145 1.76.207.22.589 6.602.848 14.182.763 22.337 1.741 16.996 1.741-9.508 0-21.473-.199-24.636-1.582-25.167-2.134-.819-2.418-.773-2.418.393m216.531-.05c-.368.595-1.088.824-1.6.507s-.931.127-.931.984.257 1.559.571 1.559c1.007 0 3.686-3.076 3.148-3.614-.285-.286-.82-.032-1.188.564M603.5 701c.554.896-.75 1.39-1.981.75-.264-.138-1.19.763-2.056 2s-2.451 2.25-3.52 2.25-1.943.422-1.943.938.9.87 2 .787 2-.505 2-.938.702-.787 1.559-.787 1.281-.45.941-1c-.556-.899.757-1.433 2.75-1.118.413.065.75-.332.75-.882s.702-1 1.559-1 1.281-.45.941-1-1.293-1-2.118-1-1.222.45-.882 1m-22.204 2.898c-.853 1.366-.795 1.769.256 1.769.748 0 1.152-.337.898-.748-.254-.412.081-.929.745-1.151.749-.249.828-.636.206-1.02-.55-.34-1.498.177-2.105 1.15M546 704.941c0 .582-.702 1.059-1.559 1.059s-1.281.45-.941 1-.309 1-1.441 1-2.059.422-2.059.938.9.87 2 .787 2-.505 2-.938.702-.787 1.559-.787 1.305-.412.994-.915-.022-1.095.642-1.317c.937-.312.939-.567.006-1.144-.661-.408-1.201-.265-1.201.317m15.5.059c.34.55-.309 1-1.441 1s-2.059.45-2.059 1c0 1.786 3.484 1.055 4.768-1 1.049-1.681.999-2-.319-2-.862 0-1.289.45-.949 1m14.5 2.148c0 .533-.45.692-1 .352-1.628-1.006-1.14.142.692 1.628 1.15.932 1.451.971.941.122-.714-1.189.546-1.753 2.867-1.285.55.111.649-.149.221-.577-1.178-1.178-3.721-1.342-3.721-.24M591.5 709c.34.55-.309 1-1.441 1s-2.059.374-2.059.831-1.237 1.47-2.75 2.25c-4.378 2.259-7.048 4.919-4.939 4.919.929 0 1.689-.45 1.689-1s.563-1.001 1.25-1.001c.688-.001 2.546-1.116 4.13-2.479s3.272-2.235 3.75-1.939.87.06.87-.522.702-1.059 1.559-1.059 1.281-.45.941-1-1.293-1-2.118-1-1.222.45-.882 1m-23.618 2.628c-.066.479-.066 1.209 0 1.622.065.413-.782.75-1.882.75s-2 .45-2 1-.702 1-1.559 1-1.281.45-.941 1-.309 1-1.441 1-2.059.422-2.059.938c0 1.439 3.879.821 4.467-.712.285-.744 1.042-1.03 1.68-.635.723.446.892.281.448-.436-.637-1.031.558-1.604 2.655-1.273.413.065.75-.299.75-.809 0-.509.745-1.072 1.656-1.25 1.541-.301 1.541-.418 0-1.695-.911-.755-1.709-.98-1.774-.5M550 713.148c0 .533-.375.738-.833.455-.459-.283-.834.065-.834.774s.581 1.29 1.29 1.29 1.057-.375.774-.834c-.504-.815 1.116-1.269 3.103-.868.55.111.649-.149.221-.577-1.178-1.178-3.721-1.342-3.721-.24m53.175.509c-1.584 1.697-1.479 2.343.384 2.343.857 0 1.281-.45.941-1-.352-.569.509-1 2-1 1.44 0 2.358-.421 2.039-.936-.793-1.285-3.934-.937-5.364.593M544 717c0 .55-.702 1-1.559 1s-1.281.45-.941 1c.54.874.056 1.104-2.036.964-.294-.019-1.223.652-2.063 1.493-1.573 1.572-1.008 4.036.684 2.99a1.106 1.106 0 0 0 .372-1.516c-.316-.512.303-.931 1.377-.931s2.222-.704 2.552-1.563c.336-.875 1.111-1.248 1.761-.846.723.446.892.281.448-.436-.392-.635-.236-1.155.346-1.155s1.059-.45 1.059-1-.45-1-1-1-1 .45-1 1m53.19.56c-.72.816-1.845 1.177-2.5.802-.685-.393-.837-.297-.357.228 1.185 1.294 2.951 1.166 4.498-.325.731-.706 1.813-.985 2.404-.62.637.394.783.194.36-.49-.965-1.563-2.818-1.393-4.405.405m-106.684 33.19c.296 18.013.72 37.7.942 43.75.392 10.647.859 43.712.653 46.25-.055.687-.438 1.197-.851 1.132s-2.043-.066-3.622 0c-2.568.105-2.727.297-1.5 1.81 1.003 1.236 1.026 1.484.087.919-.707-.425-3.928-.76-7.158-.744l-5.873.028-.665-5.729c-.365-3.151-.579-6.165-.473-6.698.105-.532.069-8.168-.08-16.968-.349-20.597-1.674-11.101-1.849 13.25L470 844h-9.566c-5.261 0-10.344-.417-11.296-.926s-5.085-1.031-9.185-1.159c-4.099-.129-8.803-.58-10.453-1.003-7.258-1.862-38.362-3.45-39.78-2.032-.827.827 1.569 1.12 9.139 1.12 6.585 0 10.038.358 9.641 1-.393.635 2.345 1 7.507 1 4.468 0 8.926.429 9.905.953 3.025 1.619 57.868 3.813 61 2.441.873-.383 2.186-.818 2.916-.968.731-.15 2.081-.6 3-1 .92-.4 2.339-.861 3.154-1.023s1.64-.769 1.833-1.349c.193-.579 1.439-1.054 2.768-1.054 1.33 0 2.417-.45 2.417-1s.873-1 1.941-1 2.219-.45 2.559-1 1.491-1 2.559-1 1.941-.477 1.941-1.059.414-.803.919-.491 1.519.002 2.25-.691c.732-.692 2.154-1.399 3.159-1.571s7.024-2.984 13.374-6.25S543.867 820 544.624 820s1.376-.45 1.376-1 .337-.947.75-.882c1.833.29 3.25-.198 3.25-1.118 0-.55-1.125-1-2.5-1s-2.5.45-2.5 1-.873 1-1.941 1-2.219.45-2.559 1-1.491 1-2.559 1-1.941.45-1.941 1-.9 1-2 1c-1.736 0-2-.667-2-5.059 0-2.782.337-4.858.75-4.611s4.258-1.23 8.546-3.28c6.404-3.063 7.539-3.942 6.356-4.924-1.122-.931-1.745-.911-2.82.089-.759.707-2.04 1.434-2.846 1.615-.807.182-1.696.632-1.977 1-.28.369-1.184.816-2.009.995s-1.65.741-1.833 1.25-1.196.925-2.25.925c-1.55 0-1.917-.721-1.917-3.765 0-3.363.382-3.93 3.578-5.313 3.021-1.307 3.349-1.738 2.106-2.77-1.175-.974-1.782-.911-3.007.313-2.261 2.262-2.67 1.932-2.747-2.215-.055-2.917-.249-3.306-.872-1.75-.441 1.1-.645 7.68-.453 14.623.365 13.185-.345 15.766-4.596 16.707-.819.182-1.719.632-2 1-.28.369-1.312.806-2.292.972-.981.165-6.156 2.547-11.5 5.293s-9.942 4.978-10.217 4.961c-.275-.018-1.321.229-2.325.547s-2.129.277-2.5-.093-.962-12.898-1.313-27.841c-.35-14.943-.868-28.519-1.15-30.169-.283-1.65-.558-16.388-.613-32.75-.064-19.402-.452-29.75-1.114-29.75-.678 0-.837 10.9-.479 32.75M575.5 719c.34.55 1.293 1 2.118 1s1.222-.45.882-1-1.293-1-2.118-1-1.222.45-.882 1m37.756.437c-2.285 1.264-2.047 2.563.47 2.563.765 0 1.114-.45.774-1-.352-.569.509-1 2-1s2.352-.431 2-1c-.785-1.27-2.401-1.135-5.244.437m-40.628 1.771c.686 1.108 3.372.993 3.372-.146 0-.516-.869-.872-1.931-.792s-1.71.502-1.441.938m18.926-.12c.31.502-.614.912-2.054.912-1.491 0-2.352.431-2 1 .34.55 1.491 1 2.559 1s1.941-.45 1.941-1 .75-1 1.667-1c1.938 0 .977-1.288-1.201-1.608-.811-.119-1.222.194-.912.696m-22.107 1.827c.311.503.022 1.095-.642 1.317-.937.312-.939.567-.006 1.144.661.408 1.201.265 1.201-.317s.702-1.059 1.559-1.059 1.281-.45.941-1-1.293-1-2.118-1-1.246.412-.935.915M608 723c0 .55.9 1 2 1s2-.45 2-1-.9-1-2-1-2 .45-2 1m-26.009 4.489c.68.819 1.642 1.238 2.139.931 1.276-.789.055-2.42-1.811-2.42-1.272 0-1.333.278-.328 1.489m19.612-.322c.504.815-1.116 1.269-3.103.868-.55-.111-.649.149-.221.577 1.425 1.426 3.369 1.182 4.456-.559.818-1.31.75-1.72-.287-1.72-.748 0-1.128.375-.845.834M468.252 731.5c.011 2.2.216 2.982.455 1.738s.23-3.044-.02-4-.446.062-.435 2.262M543.5 729c.34.55-.309 1-1.441 1s-2.059.45-2.059 1 .9 1 2 1 2-.477 2-1.059.563-.721 1.25-.308c.849.51.81.209-.122-.941-1.486-1.832-2.634-2.32-1.628-.692m32 2c.54.874.056 1.104-2.036.964-.294-.019-1.231.66-2.08 1.509-.85.85-2.028 1.247-2.619.882-.637-.394-.783-.194-.36.49.971 1.573 2.443 1.45 4.247-.354.83-.83 1.923-1.254 2.429-.941.505.312.919.091.919-.491s.702-1.059 1.559-1.059 1.281-.45.941-1-1.293-1-2.118-1-1.222.45-.882 1m-38.5 2c0 .55-.675 1-1.5 1s-1.5.422-1.5.938.9.87 2 .787 2-.505 2-.938.702-.787 1.559-.787 1.281-.45.941-1-1.266-1-2.059-1-1.441.45-1.441 1m54.603.167c.283.458-.46.833-1.651.833-1.403 0-1.984.474-1.65 1.344.375.977-.183 1.21-2.042.855-1.664-.318-2.326-.114-1.894.585.38.615-.267 1.21-1.516 1.395-1.926.284-1.999.47-.621 1.606 1.27 1.046 1.811 1.046 2.915 0 .746-.707 2.593-1.924 4.106-2.704s2.75-1.819 2.75-2.309.375-.658.833-.375c.459.283.834-.065.834-.774s-.581-1.29-1.29-1.29-1.057.375-.774.834m-40.049 1.921c.31.502.087.912-.495.912-2.199 0-2.58.18-3.37 1.592-.447.798-1.304 1.146-1.905.775-.651-.403-.808-.214-.386.467.509.824 1.391.695 3.154-.46 1.346-.882 2.462-1.215 2.478-.739s.495.068 1.062-.906 1.566-1.464 2.219-1.09c.654.375.838.296.41-.174-1.07-1.176-3.866-1.509-3.167-.377M565.5 737c.34.55.141 1-.441 1-2.199 0-2.58.18-3.37 1.592-.447.798-1.347 1.143-2 .769-.654-.375-.838-.296-.41.174 1.07 1.176 3.866 1.509 3.167.377-.511-.825.876-1.335 2.804-1.03.413.065.75-.332.75-.882s.702-1 1.559-1 1.281-.45.941-1-1.293-1-2.118-1-1.222.45-.882 1m39.69.56c-.72.816-1.802 1.18-2.404.807-.657-.405-.81-.214-.381.478.875 1.417 3.595 1.533 3.595.155 0-.55.9-1 2-1s2-.45 2-1c0-1.512-3.322-1.125-4.81.56M468.1 760.75c.055 11.413.457 21.875.894 23.25.446 1.403.829-7.699.871-20.75.048-14.418-.292-23.25-.894-23.25-.6 0-.933 7.932-.871 20.75M542 741c0 .55-.337.905-.75.788-1.013-.286-5.25 2.5-5.25 3.453 0 1.622 3.209.641 5.545-1.696 2.654-2.653 3.02-3.545 1.455-3.545-.55 0-1 .45-1 1m35.115.722c-.679.727-1.727 1.018-2.329.645-.657-.405-.81-.214-.381.478.392.635 1.613 1.155 2.713 1.155s1.722-.45 1.382-1c-.556-.899.757-1.433 2.75-1.118.413.065.75-.304.75-.82 0-1.357-3.434-.893-4.885.66M599.5 741c.34.55 1.293 1 2.118 1s1.222-.45.882-1-1.293-1-2.118-1-1.222.45-.882 1m-4 2c.34.55 1.293 1 2.118 1s1.222-.45.882-1-1.293-1-2.118-1-1.222.45-.882 1m-65.162 24.499c.149 22.603.297 24.499 1.912 24.5 1.952.001 2.341-1.516.656-2.557-.602-.372-.931-2.386-.731-4.475.205-2.157-.037-3.552-.561-3.228-.508.313-.597.043-.199-.601s1.051-.968 1.452-.72c.401.247 1.327.08 2.059-.372 1.723-1.065.464-3.133-1.458-2.395-1.137.436-1.468-.321-1.468-3.357 0-3.547.331-4.051 3.476-5.284 2.743-1.077 3.239-1.648 2.356-2.712-.933-1.124-1.399-1.095-2.804.177-2.498 2.26-3.028 1.902-3.028-2.046 0-3.617 1.806-6.429 4.129-6.429.986 0 1.003-.268.075-1.196-.929-.929-1.513-.764-2.608.734-1.278 1.748-1.397 1.444-1.254-3.21.088-2.852-.245-4.891-.747-4.58-.497.309-.583.041-.19-.593.392-.635 1.624-1.155 2.737-1.155 1.186 0 1.844-.518 1.588-1.25-.241-.687-1.178-1.118-2.084-.956-.944.168-1.646-.365-1.646-1.25 0-.849-.41-1.544-.912-1.544-.529 0-.844 10.288-.75 24.499M571 744.378c0 .207.675.937 1.5 1.622 1.229 1.02 1.5.951 1.5-.378 0-.892-.675-1.622-1.5-1.622s-1.5.17-1.5.378m21 .622c0 .55-.9 1-2 1s-2 .45-2 1 .9 1 2 1 2-.45 2-1 .9-1 2-1 2-.45 2-1-.9-1-2-1-2 .45-2 1m-24.791 3.038c-.753 1.205-.664 1.629.343 1.629.748 0 1.128-.375.845-.834-.47-.76.988-1.246 2.853-.951.413.065.75-.304.75-.82 0-1.536-3.692-.785-4.791.976m-19.612-.194c-.346.56-.142 1.319.453 1.687 1.538.95 2.53-.351 1.246-1.635-.718-.718-1.277-.735-1.699-.052M586 748.5c0 .825.73 1.5 1.622 1.5 1.329 0 1.398-.271.378-1.5-.685-.825-1.415-1.5-1.622-1.5s-.378.675-.378 1.5m21.512.52c.287.464-.686.987-2.163 1.162-2.342.278-2.485.481-1.122 1.603 1.284 1.056 1.833 1.012 3.096-.25.844-.844 2.091-1.535 2.772-1.535 1.623 0 .277-1.328-1.629-1.608-.811-.119-1.241.163-.954.628M372.272 753c0 2.475.195 3.487.434 2.25.238-1.237.238-3.263 0-4.5-.239-1.237-.434-.225-.434 2.25m171.228-2c.34.55 1.293 1 2.118 1s1.222-.45.882-1-1.293-1-2.118-1-1.222.45-.882 1m18 0c.34.55 1.293 1 2.118 1s1.222-.45.882-1-1.293-1-2.118-1-1.222.45-.882 1m20.103.167c.504.815-1.116 1.269-3.103.868-.55-.111-.649.149-.221.577 1.178 1.178 3.721 1.342 3.721.24 0-.533.45-.692 1-.352s1-.009 1-.774c0-.766-.655-1.393-1.456-1.393s-1.224.375-.941.834M687 751c0 .55-.9 1-2 1s-2 .45-2 1 .873 1 1.941 1 2.219-.45 2.559-1 1.491-1 2.559-1 1.941-.45 1.941-1-1.125-1-2.5-1-2.5.45-2.5 1m-147.467 2.774c-.287.749-1.08 1.036-1.776.643-.997-.563-1.002-.436-.027.616 1.276 1.376 6.27-.328 6.27-2.14 0-1.318-3.92-.545-4.467.881M558 752.93c0 .512-1.013 1.108-2.25 1.325-2.13.372-2.147.439-.31 1.249 1.278.564 2.074.453 2.333-.324.217-.649 1.256-1.18 2.31-1.18s1.917-.45 1.917-1-.9-1-2-1-2 .419-2 .93m42-.097c0 1.409 1.126 2.056 2.598 1.491 2.087-.801 1.695-2.324-.598-2.324-1.1 0-2 .375-2 .833m-25.372 2.375c.27.435 1.39.792 2.49.792s1.74-.421 1.421-.936-1.438-.872-2.489-.793-1.691.501-1.422.937M596 755c0 .55.9 1 2 1s2-.45 2-1-.9-1-2-1-2 .45-2 1m83 0c0 .55.927 1 2.059 1s1.781-.45 1.441-1-1.266-1-2.059-1-1.441.45-1.441 1m-87.825 2.657c-1.572 1.683-1.48 2.343.325 2.343.825 0 1.5-.45 1.5-1s.927-1 2.059-1 1.799-.421 1.48-.936c-.793-1.285-3.934-.937-5.364.593M674 757c0 .55 1.152 1 2.559 1 1.451 0 2.292-.433 1.941-1-.34-.55-1.491-1-2.559-1s-1.941.45-1.941 1m-61.348 1.491c-.83.83-2.264 1.509-3.188 1.509-.994 0-1.468.548-1.162 1.344.369.962-.168 1.213-1.893.883-1.382-.264-2.409.016-2.409.656 0 1.844 4.469 1.261 6.77-.883 1.18-1.1 2.84-2 3.688-2 1.69 0 2.083-1.548.623-2.45-.506-.313-1.599.111-2.429.941m58.343-.488c-1.919 1.186-.718 2.24 2.084 1.828 1.898-.279 2.024-.518.802-1.524-.904-.745-1.988-.859-2.886-.304m-103.537 2.065c-.363.588-1.313.818-2.111.512-.81-.311-1.181-.121-.84.431.816 1.321 3.493 1.267 3.493-.07 0-.582.52-.738 1.155-.346.715.443.883.275.44-.44-.884-1.431-1.296-1.448-2.137-.087M585.5 761c.34.55 1.518 1 2.618 1s1.722-.45 1.382-1-1.518-1-2.618-1-1.722.45-1.382 1m80 0c.34.55 1.743 1 3.118 1 1.412 0 2.231-.435 1.882-1-.34-.55-1.743-1-3.118-1-1.412 0-2.231.435-1.882 1M541 762.378c0 .207.675.937 1.5 1.622 1.229 1.02 1.5.951 1.5-.378 0-.892-.675-1.622-1.5-1.622s-1.5.17-1.5.378m40.5.622c.34.55-.271 1-1.358 1-1.086 0-2.125.416-2.309.925-.183.509-.997 1.071-1.809 1.25-2.135.47-4.391 2.801-3.506 3.623.416.386.957.14 1.202-.548.246-.687 1.116-1.25 1.935-1.25.818 0 2.167-.679 2.997-1.509s1.923-1.254 2.429-.941c.505.312.919.091.919-.491s.9-1.059 2-1.059 2-.45 2-1-1.152-1-2.559-1c-1.451 0-2.292.433-1.941 1m80.5 0c0 .55-1.152 1-2.559 1-1.451 0-2.292.433-1.941 1 .349.565-.47 1-1.882 1-1.375 0-2.778.45-3.118 1s-1.491 1-2.559 1-1.941.45-1.941 1-.337.947-.75.882c-1.833-.29-3.25.198-3.25 1.118 0 1.823 3.723 1.039 9.5-2 3.137-1.65 6.332-3 7.102-3 .769 0 1.398-.45 1.398-1s.9-1 2-1 2-.45 2-1-.9-1-2-1-2 .45-2 1m-289.25.58c-.413.414-.721 6.641-.687 13.837.046 9.477.33 12.416 1.031 10.664 1.111-2.779.79-25.639-.344-24.501M538 765c0 .55.9 1 2 1s2-.45 2-1-.9-1-2-1-2 .45-2 1m61.115.722c-.679.727-1.727 1.018-2.329.645-.707-.436-.805-.207-.276.648.591.957.364 1.151-.817.697-.899-.345-2.221-.084-2.938.58-.716.665-1.963 1.357-2.769 1.538-.807.182-1.747.783-2.088 1.336-.342.552-.909.966-1.26.919-1.996-.267-2.686.028-2.138.915.34.55-.309 1-1.441 1s-2.059.45-2.059 1-.9 1-2 1-2 .419-2 .93-.974 1.075-2.165 1.25c-1.914.283-1.984.469-.606 1.605 1.27 1.046 1.815 1.046 2.939 0 .759-.707 2.04-1.434 2.846-1.615.807-.182 1.696-.632 1.977-1 .28-.369 1.184-.816 2.009-.995s1.65-.741 1.833-1.25.971-.925 1.75-.925 1.417-.45 1.417-1 .585-1 1.301-1c1.839 0 6.682-2.352 6.691-3.25.004-.413.935-.75 2.067-.75s1.781-.45 1.441-1c-.352-.569.509-1 2-1 1.44 0 2.358-.421 2.039-.936-.807-1.307-3.944-.927-5.424.658m-51.476 3.972c-1.126 1.126-.685 2.306.861 2.306.825 0 1.5-.423 1.5-.941 0-1.261-1.562-2.164-2.361-1.365M567.5 771c.34.55 1.293 1 2.118 1s1.222-.45.882-1-1.293-1-2.118-1-1.222.45-.882 1m73 1.016c-1.788.688-1.821.843-.308 1.461 2.719 1.112 5.462.297 3.714-1.103-.817-.655-2.244-.804-3.406-.358m-77 .984c.34.55 1.293 1 2.118 1s1.222-.45.882-1-1.293-1-2.118-1-1.222.45-.882 1m46.451.441c.657.792 1.837 1.194 2.622.893 2.349-.902 1.615-2.334-1.195-2.334-2.17 0-2.416.249-1.427 1.441M540 775c0 .55-.9 1-2 1s-2 .422-2 .938.9.87 2 .787 2-.531 2-.997.403-.597.895-.293c.493.305 1.153-.119 1.469-.941.348-.907-.003-1.494-.895-1.494-.808 0-1.469.45-1.469 1m19.951.441c.657.792 1.835 1.195 2.616.895 1.957-.751.771-2.336-1.748-2.336-1.683 0-1.843.266-.868 1.441m45.408-.749c1.143 1.143 4.641 1.37 4.641.302 0-.547-1.2-.994-2.667-.994s-2.355.312-1.974.692M635.5 775c.34.55 1.491 1 2.559 1s1.941-.45 1.941-1-1.152-1-2.559-1c-1.451 0-2.292.433-1.941 1m-80 2c.54.874.056 1.104-2.036.964-.294-.019-1.231.66-2.08 1.509-.85.85-2.028 1.247-2.619.882-.637-.394-.783-.194-.36.49.392.635 1.613 1.155 2.713 1.155s1.722-.45 1.382-1c-.54-.874-.056-1.104 2.036-.964.294.019 1.231-.66 2.08-1.509.85-.85 1.959-1.29 2.465-.977.505.312.919.091.919-.491S558.848 776 557.441 776c-1.451 0-2.292.433-1.941 1m45.859-.308c1.135 1.136 4.823 1.412 4.143.311-.341-.552-1.568-1.003-2.728-1.003-1.159 0-1.796.312-1.415.692m-3.408 2.749c.657.792 1.835 1.195 2.616.895 1.957-.751.771-2.336-1.748-2.336-1.683 0-1.843.266-.868 1.441M569.5 781c.34.55 1.491 1 2.559 1s1.941-.45 1.941-1-1.152-1-2.559-1c-1.451 0-2.292.433-1.941 1m24 0c.34.55 1.518 1 2.618 1s1.722-.45 1.382-1-1.518-1-2.618-1-1.722.45-1.382 1m-49.5 2.137c0 .474-.337.81-.75.745-1.993-.315-3.306.219-2.75 1.118.342.554-.39 1-1.641 1-1.704 0-1.976.283-1.108 1.151.869.869 2.453.504 6.45-1.487 2.915-1.451 5.074-2.701 4.799-2.779-2.134-.6-5-.456-5 .252m21.5-.137c.34.55 1.491 1 2.559 1s1.941-.45 1.941-1-1.152-1-2.559-1c-1.451 0-2.292.433-1.941 1m21.75.36c-1.237.613-2.25 1.458-2.25 1.877s-.873.763-1.941.763-2.219.45-2.559 1-1.518 1-2.618 1-1.722.45-1.382 1c.351.567-.49 1-1.941 1-1.407 0-2.559.45-2.559 1s-.675 1-1.5 1-1.5.45-1.5 1 .9 1 2 1 2-.45 2-1 .556-1 1.236-1c1.777 0 18.7-8.355 18.735-9.25.041-1.048-3.036-.72-5.721.61M562 785.213c0 .433-.862.787-1.917.787-1.054 0-2.066.416-2.25.925-.183.509-.997 1.071-1.809 1.25s-2.086.892-2.831 1.584-1.88.958-2.524.59c-.643-.368-.818-.284-.39.186 1.097 1.205 3.721 1.471 3.721.377 0-.502.9-.912 2-.912s2-.45 2-1 .9-1 2-1 2-.45 2-1 .9-1 2-1 2-.422 2-.938-.9-.87-2-.787-2 .505-2 .938M605.5 789c.34.55 1.491 1 2.559 1s1.941-.45 1.941-1-1.152-1-2.559-1c-1.451 0-2.292.433-1.941 1m-3.549 2.441c.657.792 1.837 1.194 2.622.893 2.349-.902 1.615-2.334-1.195-2.334-2.17 0-2.416.249-1.427 1.441m-53.951.496c0 .654-.557.866-1.25.475-.948-.535-.974-.406-.106.535.629.682 1.936 1.086 2.906.897 1.632-.319 1.64-.445.106-1.716-1.166-.967-1.656-1.023-1.656-.191M597 793c0 .55-1.173 1-2.607 1-2.07 0-2.47.36-1.941 1.75.511 1.342.391 1.477-.515.578-1.256-1.246-3.937-.716-3.937.779 0 1.537 3.788.978 7.5-1.107 1.958-1.1 4.222-2 5.03-2 .809 0 1.47-.45 1.47-1s-1.125-1-2.5-1-2.5.45-2.5 1m-226.93 3.75c-.038 2.337.38 4.25.93 4.25 1.198 0 1.198-3.711 0-6.5-.666-1.549-.875-1.042-.93 2.25m172.925-2.747c-1.919 1.186-.718 2.24 2.084 1.828 1.898-.279 2.024-.518.802-1.524-.904-.745-1.988-.859-2.886-.304M565.5 795c.34.55 1.293 1 2.118 1s1.222-.45.882-1-1.293-1-2.118-1-1.222.45-.882 1m-26.505 1.003c-1.919 1.186-.718 2.24 2.084 1.828 1.898-.279 2.024-.518.802-1.524-.904-.745-1.988-.859-2.886-.304M561 797c0 .55-.873 1-1.941 1s-2.219.45-2.559 1-1.491 1-2.559 1-1.941.419-1.941.93-1.013 1.108-2.25 1.325c-2.023.353-2.068.474-.444 1.198 1.735.772 10.724-2.894 11.527-4.703.184-.413 1.223-.75 2.309-.75s1.698-.45 1.358-1-1.266-1-2.059-1-1.441.45-1.441 1m22.853 2.323c.883 1.064.466 1.231-2.124.851-2.855-.419-3.072-.292-1.903 1.117 1.318 1.588 2.48 1.448 6.909-.836 2.625-1.353 1.941-2.455-1.524-2.455-1.924 0-2.218.287-1.358 1.323m-213.103 5.552c-.413 1.856-.75 4.59-.75 6.076 0 5.321-3.734 7.301-12.661 6.714-14.731-.97-16.143-1.528-18.126-7.165l-1.055-3-.079 3.821c-.141 6.816 2.221 7.874 18.802 8.426 10.399.346 11.325.231 10.727-1.326-.519-1.353-.373-1.471.712-.571 1.932 1.604 3.919-4.838 3.501-11.35-.309-4.807-.35-4.87-1.071-1.625m205.201-1.434c.657.792 1.837 1.194 2.622.893 2.349-.902 1.615-2.334-1.195-2.334-2.17 0-2.416.249-1.427 1.441M571.5 805c.34.55 1.491 1 2.559 1s1.941-.45 1.941-1-1.152-1-2.559-1c-1.451 0-2.292.433-1.941 1m-5 2c.34.55 1.743 1 3.118 1 1.412 0 2.231-.435 1.882-1-.34-.55-1.743-1-3.118-1-1.412 0-2.231.435-1.882 1m-4 2c.34.55 1.518 1 2.618 1s1.722-.45 1.382-1-1.518-1-2.618-1-1.722.45-1.382 1m-3.872 2.208c.27.435 1.39.792 2.49.792s1.74-.421 1.421-.936-1.438-.872-2.489-.793-1.691.501-1.422.937M553.5 813c.34.55 1.491 1 2.559 1s1.941-.45 1.941-1-1.152-1-2.559-1c-1.451 0-2.292.433-1.941 1m-3.549 2.441c.657.792 1.837 1.194 2.622.893 2.349-.902 1.615-2.334-1.195-2.334-2.17 0-2.416.249-1.427 1.441"/></svg>